<svg width="24" height="24" viewBox="0 0 24 24" fill="none" xmlns="http://www.w3.org/2000/svg">
<g clip-path="url(#clip0_4982_13920)">
<path d="M21.6094 8.77344C21.713 8.77344 21.8123 8.73228 21.8856 8.65903C21.9588 8.58577 22 8.48641 22 8.38281C22 8.27921 21.9588 8.17986 21.8856 8.1066C21.8123 8.03334 21.713 7.99219 21.6094 7.99219H20.5938V6.33594H21.6094C21.713 6.33594 21.8123 6.29478 21.8856 6.22153C21.9588 6.14827 22 6.04891 22 5.94531C22 5.84171 21.9588 5.74236 21.8856 5.6691C21.8123 5.59584 21.713 5.55469 21.6094 5.55469H20.5938V4.57812C20.5938 4.26732 20.4703 3.96925 20.2505 3.74948C20.0307 3.52972 19.7327 3.40625 19.4219 3.40625H18.4844V2.42969C18.4844 2.32609 18.4432 2.22673 18.37 2.15347C18.2967 2.08022 18.1974 2.03906 18.0938 2.03906C17.9901 2.03906 17.8908 2.08022 17.8175 2.15347C17.7443 2.22673 17.7031 2.32609 17.7031 2.42969V3.40625H16.0469V2.42969C16.0469 2.32609 16.0057 2.22673 15.9325 2.15347C15.8592 2.08022 15.7599 2.03906 15.6563 2.03906C15.5527 2.03906 15.4533 2.08022 15.38 2.15347C15.3068 2.22673 15.2656 2.32609 15.2656 2.42969V3.40625H13.6094V2.42969C13.6094 2.32609 13.5682 2.22673 13.495 2.15347C13.4217 2.08022 13.3224 2.03906 13.2188 2.03906C13.1152 2.03906 13.0158 2.08022 12.9425 2.15347C12.8693 2.22673 12.8281 2.32609 12.8281 2.42969V3.40625H11.1719V2.42969C11.1719 2.32609 11.1307 2.22673 11.0575 2.15347C10.9842 2.08022 10.8849 2.03906 10.7813 2.03906C10.6776 2.03906 10.5783 2.08022 10.505 2.15347C10.4318 2.22673 10.3906 2.32609 10.3906 2.42969V3.40625H8.73437V2.42969C8.73437 2.32609 8.69322 2.22673 8.61996 2.15347C8.54671 2.08022 8.44735 2.03906 8.34375 2.03906C8.24015 2.03906 8.14079 2.08022 8.06754 2.15347C7.99428 2.22673 7.95312 2.32609 7.95312 2.42969V3.40625H6.29688V2.42969C6.29688 2.32609 6.25572 2.22673 6.18246 2.15347C6.10921 2.08022 6.00985 2.03906 5.90625 2.03906C5.80265 2.03906 5.70329 2.08022 5.63004 2.15347C5.55678 2.22673 5.51562 2.32609 5.51562 2.42969V3.40625H4.57812C4.26732 3.40625 3.96925 3.52972 3.74948 3.74948C3.52972 3.96925 3.40625 4.26732 3.40625 4.57812V5.55469H2.39062C2.28702 5.55469 2.18767 5.59584 2.11441 5.6691C2.04116 5.74236 2 5.84171 2 5.94531C2 6.04891 2.04116 6.14827 2.11441 6.22153C2.18767 6.29478 2.28702 6.33594 2.39062 6.33594H3.40625V7.99219H2.39062C2.28702 7.99219 2.18767 8.03334 2.11441 8.1066C2.04116 8.17986 2 8.27921 2 8.38281C2 8.48641 2.04116 8.58577 2.11441 8.65903C2.18767 8.73228 2.28702 8.77344 2.39062 8.77344H3.40625V10.4297H2.39062C2.28702 10.4297 2.18767 10.4708 2.11441 10.5441C2.04116 10.6174 2 10.7167 2 10.8203C2 10.9239 2.04116 11.0233 2.11441 11.0965C2.18767 11.1698 2.28702 11.2109 2.39062 11.2109H3.40625V12.8672H2.39062C2.28702 12.8672 2.18767 12.9083 2.11441 12.9816C2.04116 13.0549 2 13.1542 2 13.2578C2 13.3614 2.04116 13.4608 2.11441 13.534C2.18767 13.6073 2.28702 13.6484 2.39062 13.6484H3.40625V15.3047H2.39062C2.28702 15.3047 2.18767 15.3458 2.11441 15.4191C2.04116 15.4924 2 15.5917 2 15.6953C2 15.7989 2.04116 15.8983 2.11441 15.9715C2.18767 16.0448 2.28702 16.0859 2.39062 16.0859H3.40625V17.7422H2.39062C2.28702 17.7422 2.18767 17.7833 2.11441 17.8566C2.04116 17.9299 2 18.0292 2 18.1328C2 18.2364 2.04116 18.3358 2.11441 18.409C2.18767 18.4823 2.28702 18.5234 2.39062 18.5234H3.40625V19.4219C3.40625 19.7327 3.52972 20.0307 3.74948 20.2505C3.96925 20.4703 4.26732 20.5938 4.57812 20.5938H5.51562V21.6484C5.51562 21.752 5.55678 21.8514 5.63004 21.9247C5.70329 21.9979 5.80265 22.0391 5.90625 22.0391C6.00985 22.0391 6.10921 21.9979 6.18246 21.9247C6.25572 21.8514 6.29688 21.752 6.29688 21.6484V20.5938H10.3906V21.6484C10.3906 21.752 10.4318 21.8514 10.505 21.9247C10.5783 21.9979 10.6776 22.0391 10.7813 22.0391C10.8849 22.0391 10.9842 21.9979 11.0575 21.9247C11.1307 21.8514 11.1719 21.752 11.1719 21.6484V20.5938H12.8281V21.6484C12.8281 21.752 12.8693 21.8514 12.9425 21.9247C13.0158 21.9979 13.1152 22.0391 13.2188 22.0391C13.3224 22.0391 13.4217 21.9979 13.495 21.9247C13.5682 21.8514 13.6094 21.752 13.6094 21.6484V20.5938H15.2656V21.6484C15.2656 21.752 15.3068 21.8514 15.38 21.9247C15.4533 21.9979 15.5527 22.0391 15.6563 22.0391C15.7599 22.0391 15.8592 21.9979 15.9325 21.9247C16.0057 21.8514 16.0469 21.752 16.0469 21.6484V20.5938H17.7031V21.6484C17.7031 21.752 17.7443 21.8514 17.8175 21.9247C17.8908 21.9979 17.9901 22.0391 18.0938 22.0391C18.1974 22.0391 18.2967 21.9979 18.37 21.9247C18.4432 21.8514 18.4844 21.752 18.4844 21.6484V20.5938H19.4219C19.7327 20.5938 20.0307 20.4703 20.2505 20.2505C20.4703 20.0307 20.5938 19.7327 20.5938 19.4219V18.5234H21.6094C21.713 18.5234 21.8123 18.4823 21.8856 18.409C21.9588 18.3358 22 18.2364 22 18.1328C22 18.0292 21.9588 17.9299 21.8856 17.8566C21.8123 17.7833 21.713 17.7422 21.6094 17.7422H20.5938V16.0859H21.6094C21.713 16.0859 21.8123 16.0448 21.8856 15.9715C21.9588 15.8983 22 15.7989 22 15.6953C22 15.5917 21.9588 15.4924 21.8856 15.4191C21.8123 15.3458 21.713 15.3047 21.6094 15.3047H20.5938V13.6484H21.6094C21.713 13.6484 21.8123 13.6073 21.8856 13.534C21.9588 13.4608 22 13.3614 22 13.2578C22 13.1542 21.9588 13.0549 21.8856 12.9816C21.8123 12.9083 21.713 12.8672 21.6094 12.8672H20.5938V11.2109H21.6094C21.713 11.2109 21.8123 11.1698 21.8856 11.0965C21.9588 11.0233 22 10.9239 22 10.8203C22 10.7167 21.9588 10.6174 21.8856 10.5441C21.8123 10.4708 21.713 10.4297 21.6094 10.4297H20.5938V8.77344H21.6094ZM19.8125 19.4219C19.8125 19.5255 19.7713 19.6248 19.6981 19.6981C19.6248 19.7713 19.5255 19.8125 19.4219 19.8125H13.6094V17.1562C13.6094 17.1044 13.63 17.0548 13.6666 17.0181C13.7032 16.9815 13.7529 16.9609 13.8047 16.9609H17.5078C17.5596 16.9609 17.6093 16.9404 17.6459 16.9037C17.6825 16.8671 17.7031 16.8174 17.7031 16.7656V14.8234C17.4504 14.913 17.1746 14.913 16.9219 14.8234V15.9844C16.9219 16.0362 16.9013 16.0859 16.8647 16.1225C16.828 16.1591 16.7784 16.1797 16.7266 16.1797H13.0234C12.9716 16.1797 12.922 16.2003 12.8853 16.2369C12.8487 16.2735 12.8281 16.3232 12.8281 16.375V19.8125H6.29688V18.2824L8.5418 17.0105C8.57182 16.9935 8.59678 16.9688 8.61415 16.9389C8.63151 16.9091 8.64064 16.8752 8.64062 16.8406V14.8875C8.39114 14.9862 8.11531 14.9961 7.85938 14.9156V16.3859C7.85939 16.4205 7.85026 16.4544 7.8329 16.4842C7.81553 16.5141 7.79057 16.5388 7.76055 16.5559L5.51562 17.827V19.8125H4.57812C4.47452 19.8125 4.37517 19.7713 4.30191 19.6981C4.22866 19.6248 4.1875 19.5255 4.1875 19.4219V8.77344H8.08555C8.13725 8.77345 8.18683 8.79396 8.22344 8.83047L10.3645 10.9715C10.484 10.7316 10.6819 10.5397 10.9254 10.4277L8.54688 8.04922C8.51027 8.01271 8.46068 7.9922 8.40898 7.99219H4.1875V4.57812C4.1875 4.47452 4.22866 4.37517 4.30191 4.30191C4.37517 4.22866 4.47452 4.1875 4.57812 4.1875H12.8281V6.1082C12.8281 6.1599 12.8486 6.20949 12.8852 6.24609L14.8906 8.25C15.0074 8.00885 15.2027 7.81461 15.4445 7.69922L13.668 5.92266C13.6315 5.88605 13.6109 5.83647 13.6109 5.78477V4.1875H19.4219C19.5255 4.1875 19.6248 4.22866 19.6981 4.30191C19.7713 4.37517 19.8125 4.47452 19.8125 4.57812V19.4219Z" fill="white"/>
<path d="M15.7191 8.44019C15.7074 8.45685 15.6944 8.47253 15.6801 8.48706C15.665 8.50234 15.6485 8.5162 15.6309 8.52847C15.6554 8.4945 15.6852 8.46469 15.7191 8.44019Z" fill="white"/>
<path d="M11.4141 10.3203C11.2453 10.3201 11.0785 10.3567 10.9254 10.4277C10.6819 10.5397 10.484 10.7316 10.3645 10.9715C10.2837 11.1332 10.2418 11.3115 10.2422 11.4922C10.2422 11.724 10.3109 11.9505 10.4397 12.1432C10.5685 12.336 10.7515 12.4862 10.9656 12.5749C11.1797 12.6636 11.4154 12.6868 11.6427 12.6415C11.87 12.5963 12.0788 12.4847 12.2427 12.3208C12.4066 12.1569 12.5182 11.9481 12.5634 11.7208C12.6086 11.4935 12.5854 11.2579 12.4967 11.0437C12.408 10.8296 12.2578 10.6466 12.0651 10.5178C11.8724 10.389 11.6458 10.3203 11.4141 10.3203ZM11.4141 11.8828C11.3368 11.8828 11.2613 11.8599 11.197 11.817C11.1328 11.7741 11.0827 11.7131 11.0532 11.6417C11.0236 11.5703 11.0159 11.4918 11.0309 11.416C11.046 11.3402 11.0832 11.2706 11.1379 11.216C11.1925 11.1613 11.2621 11.1241 11.3379 11.1091C11.4136 11.094 11.4922 11.1017 11.5636 11.1313C11.6349 11.1609 11.6959 11.2109 11.7389 11.2752C11.7818 11.3394 11.8047 11.4149 11.8047 11.4922C11.8047 11.5958 11.7635 11.6951 11.6903 11.7684C11.617 11.8417 11.5177 11.8828 11.4141 11.8828Z" fill="white"/>
<path d="M15.9458 7.58594C15.772 7.58571 15.6004 7.62442 15.4435 7.69922C15.2023 7.8149 15.0075 8.00911 14.8911 8.25C14.781 8.47914 14.7483 8.7379 14.7981 8.98723C14.8478 9.23656 14.9774 9.46294 15.1671 9.63221C15.3568 9.80148 15.5964 9.90447 15.8498 9.92562C16.1031 9.94678 16.3565 9.88496 16.5717 9.74949C16.7868 9.61402 16.9521 9.41226 17.0425 9.17463C17.1329 8.93701 17.1436 8.67642 17.073 8.43218C17.0023 8.18794 16.8542 7.97331 16.6509 7.82066C16.4475 7.66801 16.2001 7.58562 15.9458 7.58594ZM15.9458 9.14844C15.8422 9.14844 15.7429 9.10728 15.6696 9.03403C15.5964 8.96077 15.5552 8.86141 15.5552 8.75781C15.5549 8.67556 15.5809 8.59536 15.6294 8.52891C15.6686 8.47472 15.7211 8.43149 15.7817 8.40338C15.8424 8.37527 15.9093 8.3632 15.976 8.36834C16.0427 8.37349 16.1069 8.39566 16.1626 8.43275C16.2182 8.46983 16.2634 8.52058 16.2938 8.58014C16.3242 8.6397 16.3389 8.70607 16.3363 8.7729C16.3337 8.83973 16.314 8.90478 16.2791 8.96181C16.2441 9.01884 16.1952 9.06595 16.1368 9.09863C16.0785 9.13131 16.0127 9.14846 15.9458 9.14844Z" fill="white"/>
<path d="M17.312 12.5469C17.0357 12.547 16.7682 12.6448 16.557 12.8229C16.3457 13.0011 16.2042 13.2482 16.1575 13.5206C16.1108 13.7929 16.1618 14.0731 16.3016 14.3115C16.4414 14.5499 16.6609 14.7312 16.9214 14.8234C17.1741 14.913 17.4499 14.913 17.7027 14.8234C17.9632 14.7312 18.1827 14.5499 18.3225 14.3115C18.4623 14.0731 18.5133 13.7929 18.4666 13.5206C18.4198 13.2482 18.2783 13.0011 18.0671 12.8229C17.8558 12.6448 17.5884 12.547 17.312 12.5469ZM17.312 14.1094C17.2348 14.1094 17.1592 14.0865 17.095 14.0435C17.0308 14.0006 16.9807 13.9396 16.9511 13.8682C16.9216 13.7969 16.9138 13.7183 16.9289 13.6425C16.944 13.5668 16.9812 13.4972 17.0358 13.4425C17.0904 13.3879 17.16 13.3507 17.2358 13.3356C17.3116 13.3206 17.3901 13.3283 17.4615 13.3579C17.5329 13.3874 17.5939 13.4375 17.6368 13.5017C17.6797 13.566 17.7027 13.6415 17.7027 13.7188C17.7027 13.8224 17.6615 13.9217 17.5882 13.995C17.515 14.0682 17.4156 14.1094 17.312 14.1094Z" fill="white"/>
<path d="M8.21094 12.625C7.90014 12.625 7.60207 12.7485 7.3823 12.9682C7.16253 13.188 7.03906 13.4861 7.03906 13.7969C7.03906 14.1077 7.16253 14.4057 7.3823 14.6255C7.60207 14.8453 7.90014 14.9688 8.21094 14.9688C8.35808 14.969 8.50391 14.9411 8.64062 14.8867C8.89421 14.7865 9.10491 14.601 9.23643 14.3621C9.36795 14.1233 9.41207 13.846 9.36117 13.5782C9.31028 13.3103 9.16757 13.0685 8.95762 12.8945C8.74766 12.7206 8.48361 12.6252 8.21094 12.625ZM8.21094 14.1875C8.13368 14.1875 8.05816 14.1646 7.99392 14.1217C7.92968 14.0787 7.87961 14.0177 7.85005 13.9464C7.82048 13.875 7.81275 13.7964 7.82782 13.7207C7.84289 13.6449 7.88009 13.5753 7.93472 13.5207C7.98935 13.466 8.05896 13.4288 8.13473 13.4138C8.2105 13.3987 8.28905 13.4064 8.36042 13.436C8.4318 13.4655 8.49281 13.5156 8.53573 13.5799C8.57865 13.6441 8.60156 13.7196 8.60156 13.7969C8.60156 13.8482 8.59146 13.899 8.57183 13.9464C8.5522 13.9938 8.52342 14.0368 8.48715 14.0731C8.45088 14.1094 8.40782 14.1381 8.36042 14.1578C8.31303 14.1774 8.26224 14.1875 8.21094 14.1875Z" fill="white"/>
</g>
<defs>
<clipPath id="clip0_4982_13920">
<rect width="20" height="20" fill="white" transform="translate(2 2)"/>
</clipPath>
</defs>
</svg>
