<?xml version="1.0" encoding="UTF-8"?>
<svg height="600" width="800" xmlns="http://www.w3.org/2000/svg" xmlns:xlink="http://www.w3.org/1999/xlink">
    <g id="Notes" font-family="'LucidaGrande', 'Lucida Grande', sans-serif" font-size="13">
        <rect fill="white" height="600.0" width="800.0" x="0.0" y="0.0" />
        <g font-size="13">
            <text x="18.0" y="176.0">Small</text>
            <text x="18.0" y="376.0">Medium</text>
            <text x="18.0" y="576.0">Large</text>
        </g>
        <g font-size="9">
            <text x="250.0" y="30.0">Ultralight</text>
            <text x="450.0" y="30.0">Regular</text>
            <text x="650.0" y="30.0">Black</text>
            <text id="template-version" fill="#505050" text-anchor="end" x="785.0" y="575.0">Template v.3.0</text>
            <a href="https://github.com/swhitty/SwiftDraw">
                <text fill="#505050" text-anchor="end" x="785.0" y="590.0">https://github.com/swhitty/SwiftDraw</text>
            </a>
        </g>
    </g>
    <g id="Guides" stroke="rgb(39, 170, 225)" stroke-width="0.5">
        <path id="Capline-S" d="M18,76 l800,0" />
        <path id="H-reference" d="M85,145.755 L87.685,145.755 L113.369,79.287 L114.052,79.287 L114.052,76 L112.148,76 L85,145.755 Z M95.693,121.536 L130.996,121.536 L130.263,119.313 L96.474,119.313 L95.693,121.536 Z M139.15,145.755 L141.787,145.755 L114.638,76 L113.466,76 L113.466,79.287 L139.15,145.755 Z" stroke="none" />
        <path id="Baseline-S" d="M18,146 l800,0" />
        <path id="left-margin-Ultralight-S" d="M214.595,56 l0,110" />
        <path id="right-margin-Ultralight-S" d="M315.405,56 l0,110" />
        <path id="left-margin-Regular-S" d="M414.595,56 l0,110" />
        <path id="right-margin-Regular-S" d="M515.405,56 l0,110" />
        <path id="left-margin-Black-S" d="M614.595,56 l0,110" />
        <path id="right-margin-Black-S" d="M715.405,56 l0,110" />
        <path id="Capline-M" d="M18,276 l800,0" />
        <path id="Baseline-M" d="M18,346 l800,0" />
        <path id="Capline-L" d="M18,476 l800,0" />
        <path id="Baseline-L" d="M18,546 l800,0" />
    </g>
    <g id="Symbols">
        <g id="Ultralight-S">
            <path d="M304.759,111.168 L304.755,111.165 C304.35,110.904 303.848,110.869 303.41,111.068 L290.86,116.789 L290.86,112.292 C290.86,109.252 288.386,106.776 285.346,106.771 L281.645,106.771 L283.328,105.239 C286.815,102.067 288.821,97.543 288.83,92.829 C288.83,83.594 281.324,76.079 272.1,76.079 L272.095,76.079 C268.863,76.079 265.725,77.011 263.018,78.775 C260.767,80.239 258.88,82.246 257.557,84.582 L256.791,85.932 L256.025,84.582 C254.701,82.248 252.813,80.241 250.564,78.775 C247.727,76.898 244.522,76 241.35,76 C235.919,76 230.588,78.635 227.374,83.492 C225.05,87.005 224.139,91.23 224.81,95.387 C225.481,99.545 227.674,103.27 230.985,105.874 L232.076,106.732 L230.835,107.354 C228.952,108.296 227.783,110.189 227.785,112.295 L227.785,140.479 C227.785,143.519 230.261,145.995 233.3,146 L285.348,146 C288.386,145.995 290.859,143.517 290.86,140.479 L290.86,135.983 L303.417,141.703 C303.758,141.858 304.14,141.87 304.493,141.738 C304.845,141.606 305.125,141.344 305.28,141.002 C305.363,140.819 305.405,140.624 305.405,140.423 L305.405,112.346 C305.405,111.866 305.164,111.424 304.757,111.166 L304.759,111.168 Z M262.201,82.995 C264.828,80.357 268.326,78.899 272.049,78.89 L272.08,78.89 C275.793,78.89 279.285,80.332 281.916,82.951 C284.554,85.578 286.012,89.076 286.021,92.799 L286.021,92.829 C286.021,100.498 279.78,106.751 272.11,106.769 L272.08,106.769 C264.408,106.769 258.158,100.535 258.14,92.859 C258.131,89.136 259.575,85.631 262.201,82.993 L262.201,82.995 Z M256.025,101.079 L256.791,99.732 L257.557,101.081 C258.441,102.638 259.561,104.036 260.885,105.24 L262.571,106.773 L251.015,106.773 L252.698,105.24 C254.023,104.036 255.143,102.636 256.027,101.081 L256.025,101.079 Z M227.568,92.83 C227.584,85.157 233.843,78.936 241.51,78.946 C249.182,78.962 255.409,85.217 255.393,92.888 C255.377,100.544 249.136,106.771 241.48,106.771 C233.807,106.755 227.568,100.501 227.568,92.83 Z M288.048,140.479 C288.05,141.969 286.84,143.184 285.35,143.188 L233.302,143.188 C231.81,143.184 230.599,141.967 230.601,140.477 L230.601,112.292 C230.601,110.804 231.81,109.587 233.3,109.583 L240.248,109.583 L240.248,127.37 C240.248,128.146 240.88,128.779 241.657,128.779 C242.433,128.779 243.065,128.146 243.065,127.37 L243.065,109.583 L285.348,109.583 C286.84,109.587 288.05,110.802 288.048,112.29 L288.048,140.479 Z M302.589,138.237 L290.855,132.891 L290.855,119.878 L302.589,114.53 L302.589,138.237 Z" />
            <path d="M241.66,133.072 C240.883,133.072 240.253,133.703 240.251,134.479 C240.251,134.634 240.276,134.787 240.325,134.934 C240.519,135.504 241.054,135.888 241.657,135.89 L241.658,135.89 C242.033,135.89 242.387,135.744 242.653,135.479 C242.919,135.214 243.067,134.86 243.067,134.484 C243.067,134.108 242.921,133.754 242.657,133.488 C242.393,133.222 242.037,133.074 241.662,133.074 L241.66,133.074 L241.66,133.072 Z" />
        </g>
        <g id="Regular-S">
            <path d="M504.759,111.168 L504.755,111.165 C504.35,110.904 503.848,110.869 503.41,111.068 L490.86,116.789 L490.86,112.292 C490.86,109.252 488.386,106.776 485.346,106.771 L481.645,106.771 L483.328,105.239 C486.815,102.067 488.821,97.543 488.83,92.829 C488.83,83.594 481.324,76.079 472.1,76.079 L472.095,76.079 C468.863,76.079 465.725,77.011 463.018,78.775 C460.767,80.239 458.88,82.246 457.557,84.582 L456.791,85.932 L456.025,84.582 C454.701,82.248 452.813,80.241 450.564,78.775 C447.727,76.898 444.522,76 441.35,76 C435.919,76 430.588,78.635 427.374,83.492 C425.05,87.005 424.139,91.23 424.81,95.387 C425.481,99.545 427.674,103.27 430.985,105.874 L432.076,106.732 L430.835,107.354 C428.952,108.296 427.783,110.189 427.785,112.295 L427.785,140.479 C427.785,143.519 430.261,145.995 433.3,146 L485.348,146 C488.386,145.995 490.859,143.517 490.86,140.479 L490.86,135.983 L503.417,141.703 C503.758,141.858 504.14,141.87 504.493,141.738 C504.845,141.606 505.125,141.344 505.28,141.002 C505.363,140.819 505.405,140.624 505.405,140.423 L505.405,112.346 C505.405,111.866 505.164,111.424 504.757,111.166 L504.759,111.168 Z M462.201,82.995 C464.828,80.357 468.326,78.899 472.049,78.89 L472.08,78.89 C475.793,78.89 479.285,80.332 481.916,82.951 C484.554,85.578 486.012,89.076 486.021,92.799 L486.021,92.829 C486.021,100.498 479.78,106.751 472.11,106.769 L472.08,106.769 C464.408,106.769 458.158,100.535 458.14,92.859 C458.131,89.136 459.575,85.631 462.201,82.993 L462.201,82.995 Z M456.025,101.079 L456.791,99.732 L457.557,101.081 C458.441,102.638 459.561,104.036 460.885,105.24 L462.571,106.773 L451.015,106.773 L452.698,105.24 C454.023,104.036 455.143,102.636 456.027,101.081 L456.025,101.079 Z M427.568,92.83 C427.584,85.157 433.843,78.936 441.51,78.946 C449.182,78.962 455.409,85.217 455.393,92.888 C455.377,100.544 449.136,106.771 441.48,106.771 C433.807,106.755 427.568,100.501 427.568,92.83 Z M488.048,140.479 C488.05,141.969 486.84,143.184 485.35,143.188 L433.302,143.188 C431.81,143.184 430.599,141.967 430.601,140.477 L430.601,112.292 C430.601,110.804 431.81,109.587 433.3,109.583 L440.248,109.583 L440.248,127.37 C440.248,128.146 440.88,128.779 441.657,128.779 C442.433,128.779 443.065,128.146 443.065,127.37 L443.065,109.583 L485.348,109.583 C486.84,109.587 488.05,110.802 488.048,112.29 L488.048,140.479 Z M502.589,138.237 L490.855,132.891 L490.855,119.878 L502.589,114.53 L502.589,138.237 Z" />
            <path d="M441.66,133.072 C440.883,133.072 440.253,133.703 440.251,134.479 C440.251,134.634 440.276,134.787 440.325,134.934 C440.519,135.504 441.054,135.888 441.657,135.89 L441.658,135.89 C442.033,135.89 442.387,135.744 442.653,135.479 C442.919,135.214 443.067,134.86 443.067,134.484 C443.067,134.108 442.921,133.754 442.657,133.488 C442.393,133.222 442.037,133.074 441.662,133.074 L441.66,133.074 L441.66,133.072 Z" />
        </g>
        <g id="Black-S">
            <path d="M704.759,111.168 L704.755,111.165 C704.35,110.904 703.848,110.869 703.41,111.068 L690.86,116.789 L690.86,112.292 C690.86,109.252 688.386,106.776 685.346,106.771 L681.645,106.771 L683.328,105.239 C686.815,102.067 688.821,97.543 688.83,92.829 C688.83,83.594 681.324,76.079 672.1,76.079 L672.095,76.079 C668.863,76.079 665.725,77.011 663.018,78.775 C660.768,80.239 658.88,82.246 657.557,84.582 L656.791,85.932 L656.025,84.582 C654.701,82.248 652.813,80.241 650.564,78.775 C647.727,76.898 644.522,76 641.35,76 C635.919,76 630.588,78.635 627.374,83.492 C625.05,87.005 624.139,91.23 624.81,95.387 C625.481,99.545 627.674,103.27 630.985,105.874 L632.076,106.732 L630.835,107.354 C628.952,108.296 627.783,110.189 627.785,112.295 L627.785,140.479 C627.785,143.519 630.261,145.995 633.3,146 L685.348,146 C688.386,145.995 690.859,143.517 690.86,140.479 L690.86,135.983 L703.417,141.703 C703.758,141.858 704.14,141.87 704.493,141.738 C704.845,141.606 705.125,141.344 705.28,141.002 C705.363,140.819 705.405,140.624 705.405,140.423 L705.405,112.346 C705.405,111.866 705.164,111.424 704.757,111.166 L704.759,111.168 Z M662.201,82.995 C664.828,80.357 668.326,78.899 672.049,78.89 L672.081,78.89 C675.793,78.89 679.285,80.332 681.916,82.951 C684.554,85.578 686.012,89.076 686.021,92.799 L686.021,92.829 C686.021,100.498 679.78,106.751 672.11,106.769 L672.081,106.769 C664.408,106.769 658.158,100.535 658.14,92.859 C658.131,89.136 659.575,85.631 662.201,82.993 L662.201,82.995 Z M656.025,101.079 L656.791,99.732 L657.557,101.081 C658.441,102.638 659.561,104.036 660.885,105.24 L662.571,106.773 L651.015,106.773 L652.698,105.24 C654.023,104.036 655.143,102.636 656.027,101.081 L656.025,101.079 Z M627.568,92.83 C627.584,85.157 633.843,78.936 641.51,78.946 C649.182,78.962 655.409,85.217 655.393,92.888 C655.377,100.544 649.136,106.771 641.48,106.771 C633.807,106.755 627.568,100.501 627.568,92.83 Z M688.048,140.479 C688.05,141.969 686.84,143.184 685.35,143.188 L633.302,143.188 C631.81,143.184 630.599,141.967 630.601,140.477 L630.601,112.292 C630.601,110.804 631.81,109.587 633.3,109.583 L640.248,109.583 L640.248,127.37 C640.248,128.146 640.88,128.779 641.657,128.779 C642.433,128.779 643.065,128.146 643.065,127.37 L643.065,109.583 L685.348,109.583 C686.84,109.587 688.05,110.802 688.048,112.29 L688.048,140.479 Z M702.589,138.237 L690.855,132.891 L690.855,119.878 L702.589,114.53 L702.589,138.237 Z" />
            <path d="M641.66,133.072 C640.883,133.072 640.253,133.703 640.251,134.479 C640.251,134.634 640.276,134.787 640.325,134.934 C640.519,135.504 641.054,135.888 641.657,135.89 L641.658,135.89 C642.033,135.89 642.387,135.744 642.653,135.479 C642.919,135.214 643.067,134.86 643.067,134.484 C643.067,134.108 642.921,133.754 642.657,133.488 C642.393,133.222 642.037,133.074 641.662,133.074 L641.66,133.074 L641.66,133.072 Z" />
        </g>
    </g>
</svg>