<svg width="512" height="512" viewBox="0 0 512 512" fill="none" xmlns="http://www.w3.org/2000/svg">
<path d="M497.22 383.58H407.22V376.58C407.22 373.927 406.167 371.384 404.292 369.509C402.416 367.633 399.873 366.58 397.22 366.58H365.22C362.568 366.58 360.025 367.633 358.149 369.509C356.274 371.384 355.22 373.927 355.22 376.58V384.4C344.459 378.757 332.472 375.855 320.32 375.95C318.109 362.767 311.534 350.709 301.65 341.71C311.104 324.212 315.214 304.324 313.47 284.513C311.726 264.701 304.205 245.837 291.84 230.26C296.077 222.516 298.285 213.826 298.26 205C298.275 200.522 297.707 196.061 296.57 191.73C308.259 180.614 316.349 166.251 319.796 150.493C323.242 134.735 321.888 118.306 315.907 103.326C309.925 88.3454 299.592 75.5011 286.24 66.4504C272.889 57.3997 257.131 52.5578 241 52.5496C237.419 52.5511 233.841 52.7883 230.29 53.2596C225.134 45.5083 218.362 38.9637 210.439 34.0742C202.516 29.1848 193.63 26.0662 184.389 24.9321C175.149 23.798 165.772 24.6753 156.902 27.5039C148.032 30.3324 139.879 35.0454 133 41.3196C119.705 32.9701 104.311 28.5693 88.6105 28.6296C71.9139 28.6254 55.5966 33.6083 41.7508 42.9395C27.905 52.2706 17.1619 65.5247 10.8989 81.0021C4.63596 96.4796 3.13864 113.475 6.59896 129.809C10.0593 146.143 18.3195 161.071 30.3205 172.68C18.2088 186.235 10.7073 203.282 8.8944 221.369C7.08153 239.457 11.0507 257.653 20.2312 273.342C29.4117 289.032 43.3307 301.406 59.9872 308.687C76.6438 315.967 95.1798 317.778 112.93 313.86C117.285 334.995 128.26 354.194 144.263 368.67C160.267 383.147 180.466 392.149 201.93 394.37C203.05 402.241 205.725 409.811 209.799 416.639C213.873 423.466 219.265 429.415 225.661 434.138C232.057 438.861 239.328 442.265 247.052 444.15C254.776 446.035 262.798 446.365 270.65 445.12C281.49 457.26 299.72 464.58 320.01 464.58C333.07 464.58 345.3 461.58 355.24 456.13V466.58C355.24 469.232 356.294 471.775 358.169 473.651C360.045 475.526 362.588 476.58 365.24 476.58H397.24C399.893 476.58 402.436 475.526 404.312 473.651C406.187 471.775 407.24 469.232 407.24 466.58V459.58H497.24C499.893 459.58 502.436 458.526 504.312 456.651C506.187 454.775 507.24 452.232 507.24 449.58V393.58C507.24 392.265 506.981 390.963 506.477 389.748C505.974 388.534 505.235 387.43 504.304 386.501C503.374 385.573 502.269 384.836 501.053 384.335C499.838 383.834 498.535 383.577 497.22 383.58ZM320 444.58C304 444.58 289.18 438.19 283.19 428.68C282.039 426.852 280.326 425.446 278.309 424.673C276.292 423.899 274.079 423.8 272 424.39C268.48 425.366 264.844 425.86 261.19 425.86C250.629 425.825 240.509 421.615 233.04 414.148C225.57 406.68 221.357 396.562 221.32 386V385.52C221.398 384.17 221.2 382.819 220.741 381.548C220.281 380.277 219.568 379.112 218.646 378.124C217.723 377.136 216.61 376.345 215.373 375.8C214.137 375.254 212.802 374.965 211.45 374.95C191.135 374.821 171.609 367.07 156.736 353.231C141.863 339.392 132.729 320.473 131.14 300.22C131.013 298.676 130.529 297.182 129.726 295.857C128.923 294.532 127.823 293.412 126.513 292.585C125.203 291.758 123.719 291.246 122.177 291.091C120.636 290.936 119.079 291.141 117.63 291.69C103.104 297.175 87.1074 297.356 72.4603 292.202C57.8131 287.047 45.4557 276.888 37.5662 263.514C29.6766 250.14 26.7614 234.41 29.3343 219.097C31.9073 203.784 39.8033 189.871 51.6305 179.81C52.7826 178.83 53.6974 177.601 54.3062 176.217C54.9149 174.832 55.2017 173.328 55.1449 171.816C55.0881 170.305 54.6892 168.826 53.9783 167.491C53.2673 166.157 52.2629 165 51.0405 164.11C40.1209 156.189 31.992 145.012 27.8209 132.183C23.6498 119.354 23.6511 105.533 27.8246 92.7051C31.998 79.8771 40.129 68.7013 51.0501 60.7825C61.9711 52.8637 75.1206 48.6091 88.6105 48.6296C102.94 48.5773 116.861 53.3977 128.09 62.2996C130.145 63.9182 132.751 64.6676 135.351 64.3872C137.952 64.1068 140.339 62.8189 142 60.7996C146.698 55.0653 152.752 50.593 159.614 47.7874C166.475 44.9819 173.928 43.9317 181.298 44.7319C188.667 45.5321 195.721 48.1575 201.821 52.3703C207.92 56.5832 212.873 62.2506 216.23 68.8596C217.241 70.841 218.883 72.429 220.897 73.3725C222.911 74.3161 225.182 74.5614 227.35 74.0696C231.829 73.0543 236.408 72.5445 241 72.5496C253.593 72.5513 265.873 76.4685 276.14 83.7586C286.407 91.0487 294.154 101.351 298.306 113.239C302.459 125.126 302.812 138.011 299.317 150.109C295.823 162.206 288.653 172.918 278.8 180.76C277.095 182.115 275.88 183.991 275.338 186.101C274.797 188.211 274.959 190.44 275.8 192.45C278.009 197.777 278.77 203.594 278.006 209.31C277.242 215.026 274.981 220.439 271.451 225C269.996 226.875 269.256 229.206 269.362 231.576C269.469 233.947 270.414 236.202 272.03 237.94C284.515 251.358 292.111 268.593 293.594 286.861C295.076 305.129 290.358 323.364 280.201 338.62C279.468 339.715 278.96 340.944 278.704 342.237C278.448 343.53 278.451 344.86 278.711 346.152C278.971 347.443 279.484 348.671 280.22 349.764C280.956 350.857 281.901 351.793 283 352.52C288.584 356.137 293.171 361.098 296.342 366.947C299.513 372.796 301.166 379.346 301.15 386C301.084 387.453 301.336 388.903 301.888 390.249C302.44 391.594 303.279 392.804 304.346 393.792C305.413 394.78 306.683 395.524 308.068 395.971C309.452 396.418 310.917 396.557 312.36 396.38C314.897 396.097 317.448 395.97 320 396C334.76 396 348.48 401.42 355.23 409.71V430.91C348.47 439.15 334.75 444.58 320 444.58ZM387.23 456.58H375.23V386.58H387.23V456.58ZM487.23 439.58H407.23V403.58H487.23V439.58Z" fill="#B4B7BA"/>
<path d="M99.5005 487.53C93.4669 487.526 87.5101 486.178 82.063 483.583C76.6159 480.988 71.8154 477.213 68.0105 472.53C61.2929 474.995 54.1168 475.96 46.9868 475.355C39.8567 474.75 32.9457 472.591 26.7394 469.029C20.5331 465.467 15.1822 460.589 11.0628 454.738C6.94347 448.887 4.15556 442.205 2.8951 435.161C1.63463 428.118 1.93219 420.883 3.76687 413.967C5.60154 407.05 8.9288 400.62 13.5148 395.127C18.1007 389.634 23.8341 385.212 30.312 382.172C36.7898 379.132 43.8548 377.547 51.0105 377.53C51.8405 377.53 52.6605 377.53 53.4905 377.59C59.184 369.59 67.5896 363.93 77.1436 361.664C86.6976 359.397 96.7498 360.677 105.43 365.267C114.111 369.857 120.829 377.443 124.335 386.615C127.841 395.787 127.896 405.92 124.49 415.13C131.128 420.33 135.977 427.47 138.363 435.557C140.749 443.643 140.552 452.273 137.8 460.242C135.048 468.212 129.878 475.124 123.011 480.016C116.144 484.907 107.922 487.534 99.4905 487.53H99.5005ZM71.7005 449.58C72.6766 449.579 73.6474 449.724 74.5805 450.01C75.9478 450.421 77.2112 451.12 78.2858 452.06C79.3604 453 80.2213 454.16 80.8105 455.46C82.1877 458.504 84.2881 461.166 86.9289 463.212C89.5697 465.259 92.6707 466.63 95.9621 467.204C99.2534 467.779 102.635 467.54 105.814 466.509C108.992 465.479 111.87 463.686 114.197 461.289C116.524 458.892 118.23 455.962 119.166 452.755C120.103 449.547 120.241 446.16 119.569 442.887C118.897 439.614 117.435 436.555 115.311 433.976C113.187 431.397 110.464 429.377 107.38 428.09C105.989 427.509 104.747 426.621 103.747 425.493C102.747 424.364 102.016 423.024 101.607 421.573C101.198 420.121 101.123 418.596 101.387 417.112C101.651 415.627 102.247 414.222 103.13 413C104.807 410.68 105.979 408.035 106.571 405.235C107.163 402.435 107.163 399.542 106.569 396.742C105.975 393.942 104.802 391.298 103.125 388.979C101.447 386.66 99.303 384.718 96.8297 383.277C94.3563 381.837 91.6088 380.931 88.764 380.617C85.9192 380.303 83.0401 380.588 80.3122 381.454C77.5843 382.32 75.0679 383.748 72.925 385.645C70.7822 387.542 69.0604 389.867 67.8705 392.47C66.928 394.519 65.3205 396.189 63.3091 397.21C61.2977 398.23 59.0005 398.54 56.7905 398.09C54.884 397.71 52.9445 397.519 51.0005 397.52C46.5095 397.521 42.0802 398.565 38.0615 400.57C34.0429 402.575 30.5447 405.486 27.8429 409.073C25.141 412.66 23.3091 416.826 22.4918 421.242C21.6744 425.658 21.8937 430.203 23.1326 434.52C24.3715 438.837 26.596 442.807 29.6308 446.117C32.6656 449.428 36.4278 451.988 40.6208 453.596C44.8138 455.205 49.3231 455.817 53.7933 455.386C58.2635 454.955 62.5724 453.491 66.3805 451.11C67.9745 450.11 69.8185 449.579 71.7005 449.58Z" fill="#00D151"/>
<path d="M388.5 286.53C381.837 286.523 375.269 284.95 369.325 281.94C363.381 278.93 358.226 274.566 354.277 269.199C350.328 263.832 347.695 257.613 346.589 251.043C345.483 244.472 345.935 237.734 347.91 231.37C342.688 229.128 338.012 225.786 334.199 221.573C330.386 217.36 327.527 212.373 325.816 206.955C324.105 201.536 323.583 195.812 324.285 190.173C324.987 184.534 326.897 179.113 329.885 174.279C332.872 169.445 336.867 165.313 341.597 162.163C346.326 159.013 351.68 156.92 357.292 156.027C362.903 155.134 368.642 155.462 374.116 156.988C379.589 158.514 384.67 161.202 389.01 164.87C392.966 162.632 397.336 161.223 401.854 160.728C406.372 160.233 410.943 160.662 415.29 161.991C419.637 163.319 423.667 165.519 427.137 168.455C430.606 171.391 433.441 175.003 435.47 179.07C445.311 181.787 453.865 187.917 459.6 196.363C465.336 204.809 467.879 215.02 466.775 225.17C465.671 235.319 460.992 244.745 453.574 251.76C446.157 258.776 436.485 262.923 426.29 263.46C422.694 270.386 417.272 276.196 410.611 280.263C403.95 284.329 396.304 286.496 388.5 286.53ZM363.5 175.53C360.939 175.486 358.395 175.947 356.012 176.886C353.629 177.826 351.455 179.225 349.613 181.005C347.771 182.784 346.298 184.909 345.278 187.258C344.257 189.607 343.709 192.134 343.665 194.695C343.621 197.256 344.082 199.8 345.021 202.183C345.96 204.566 347.36 206.74 349.14 208.582C350.919 210.424 353.044 211.897 355.393 212.918C357.742 213.938 360.269 214.486 362.83 214.53C364.66 214.588 366.439 215.147 367.973 216.147C369.507 217.146 370.737 218.547 371.529 220.198C372.321 221.848 372.645 223.685 372.465 225.507C372.286 227.329 371.609 229.066 370.51 230.53C368.007 233.874 366.483 237.848 366.11 242.009C365.737 246.169 366.528 250.351 368.396 254.087C370.264 257.823 373.135 260.965 376.687 263.163C380.239 265.361 384.333 266.526 388.51 266.53C393.359 266.512 398.073 264.937 401.959 262.036C405.844 259.136 408.695 255.064 410.09 250.42C410.76 248.141 412.22 246.174 414.208 244.873C416.196 243.572 418.583 243.022 420.94 243.32C421.958 243.457 422.983 243.528 424.01 243.53C429.879 243.561 435.537 241.348 439.827 237.343C444.117 233.338 446.713 227.845 447.085 221.988C447.457 216.131 445.576 210.354 441.827 205.838C438.078 201.323 432.745 198.412 426.92 197.7C424.957 197.454 423.111 196.631 421.615 195.335C420.12 194.039 419.043 192.328 418.52 190.42C417.871 188.079 416.602 185.956 414.847 184.275C413.092 182.595 410.916 181.419 408.549 180.872C406.181 180.325 403.71 180.428 401.396 181.168C399.082 181.909 397.01 183.26 395.4 185.08C394.391 186.221 393.134 187.117 391.726 187.699C390.318 188.28 388.796 188.532 387.275 188.436C385.755 188.339 384.277 187.897 382.953 187.142C381.63 186.387 380.497 185.34 379.64 184.08C377.853 181.444 375.448 179.287 372.634 177.796C369.82 176.306 366.684 175.528 363.5 175.53Z" fill="#00D151"/>
</svg>
