<svg width="512" height="512" viewBox="0 0 512 512" fill="none" xmlns="http://www.w3.org/2000/svg">
<path fill-rule="evenodd" clip-rule="evenodd" d="M78 74C78 33.1309 111.131 0 152 0H360C400.869 0 434 33.1309 434 74V434C434 474.869 400.869 508 360 508H152C111.131 508 78 474.869 78 434V74ZM152 20C122.177 20 98 44.1766 98 74V434C98 463.823 122.177 488 152 488H360C389.823 488 414 463.823 414 434V74C414 44.1766 389.823 20 360 20H152Z" fill="#FCFCFC"/>
<path fill-rule="evenodd" clip-rule="evenodd" d="M222.005 113.672C206.639 130.989 196.398 153.96 196.398 176.9C196.398 199.989 204.733 213.948 214.307 222.261C217.856 225.343 221.66 227.721 225.423 229.504C223.833 223.432 223.605 217.269 225.101 210.939C228.12 198.164 237.676 187.118 250.578 176.19C254.366 172.982 259.935 173.038 263.657 176.322C275.235 186.538 284.918 198.095 288.295 211.052C289.913 217.259 289.992 223.386 288.556 229.353C291.714 227.915 294.876 226.096 297.858 223.832C307.354 216.623 315.6 204.514 315.6 183.821C315.6 174.978 312.273 168.545 306.804 162.508C302.537 157.797 297.599 153.912 291.955 149.472C289.62 147.635 287.165 145.703 284.587 143.579C276.414 136.846 267.527 128.471 262.821 116.616C259.471 108.177 258.512 98.7318 260.382 87.9124C247.112 91.7148 233.485 100.734 222.005 113.672ZM207.045 100.398C224.914 80.2597 249.34 65.8926 274.05 65.8926C277.325 65.8926 280.392 67.4959 282.261 70.1847C284.13 72.8734 284.564 76.307 283.423 79.3765C278.127 93.627 278.824 102.723 281.41 109.236C284.149 116.137 289.63 121.82 297.304 128.143C299.075 129.602 301.03 131.14 303.082 132.754C309.184 137.553 316.139 143.023 321.627 149.08C329.524 157.798 335.6 168.816 335.6 183.821C335.6 210.823 324.384 228.804 309.952 239.761C295.997 250.355 279.589 254 268.812 254C264.809 254 261.191 251.613 259.617 247.932C258.043 244.251 258.816 239.986 261.582 237.092C269.465 228.841 270.521 222.152 268.942 216.096C267.505 210.582 263.559 204.358 256.87 197.444C249.315 204.799 245.738 210.574 244.565 215.538C243.251 221.099 244.491 227.863 251.803 238.239C253.955 241.292 254.226 245.289 252.506 248.604C250.787 251.919 247.364 254 243.629 254C231.711 254 215.028 249.375 201.194 237.362C186.994 225.033 176.398 205.442 176.398 176.9C176.398 148.21 189.051 120.678 207.045 100.398Z" fill="#EB3A28"/>
<path fill-rule="evenodd" clip-rule="evenodd" d="M254.762 295.036C255.973 294.921 257.195 295.083 258.334 295.509L284.399 305.243C286.148 305.896 287.614 307.137 288.544 308.751L315.934 356.3C317.061 358.256 317.307 360.595 316.612 362.742L309.14 385.805L315.792 396.479C316.582 397.746 317 399.208 317 400.7V429.192C317 431.191 316.249 433.117 314.895 434.592L298.549 452.4C297.028 454.057 294.88 455 292.627 455H206.789C204.369 455 202.078 453.911 200.554 452.037C199.03 450.163 198.436 447.704 198.937 445.344L206.32 410.566L195.499 381.393C194.15 377.757 195.611 373.68 198.966 371.718L217.13 361.099L209.211 333.935C208.666 332.064 208.824 330.059 209.657 328.296L222.048 302.063C223.256 299.504 225.729 297.772 228.554 297.506L254.762 295.036ZM237.475 365.133L243.403 371.917C244.117 371.453 244.903 371.104 245.733 370.885L276.801 362.691C279.205 362.057 281.768 362.569 283.741 364.078L296.218 373.623L299.171 364.508L257.283 344.738L237.475 365.133ZM263.544 329.99L289.26 342.127L276.061 319.216L263.544 314.541V329.99ZM247.492 311.792V331.815L230.431 349.382L225.473 332.375L234.622 313.005L247.492 311.792ZM294.312 392.335L277.095 379.164L259.52 383.799L269.514 403.019L296.458 395.778L294.312 392.335ZM300.947 411.143L268.51 419.86L236.089 439H289.092L300.947 426.084V411.143ZM218.426 430.832L254.746 409.389L245.571 391.744L221.988 414.05L218.426 430.832ZM217.959 395.804L231.662 382.842L224.901 375.105L212.887 382.129L217.959 395.804Z" fill="#FCFCFC"/>
</svg>
