<svg width="64" height="64" viewBox="0 0 64 64" fill="none" xmlns="http://www.w3.org/2000/svg">
<path d="M18.7877 23.2125V45.8725L18.4227 46.04C17.4765 46.4738 16.7565 47.2487 16.394 48.225C16.0315 49.2 16.0715 50.2588 16.504 51.2038C16.9365 52.1488 17.7127 52.87 18.689 53.2325C19.664 53.595 20.7227 53.555 21.6677 53.1225C23.6202 52.2275 24.4802 49.9113 23.5852 47.9588C23.1965 47.11 22.5152 46.43 21.6677 46.0412L21.3027 45.8737V23.2113C21.3027 22.5188 20.7377 21.955 20.044 21.9538C19.3515 21.9538 18.7865 22.5187 18.7865 23.2125H18.7877Z" fill="#00D151"/>
<path d="M20.0465 4.375C16.4502 4.37875 13.5202 7.30875 13.5165 10.9075V41.9362L13.3077 42.1225C11.1852 44.015 9.98025 46.7313 10.0002 49.5737C10.024 51.74 10.7265 53.7975 12.0327 55.5225L12.0952 55.6037C14.0065 58.1162 16.9027 59.5575 20.0477 59.5625C23.2327 59.5575 26.1527 58.0875 28.0577 55.5275C29.3677 53.7988 30.0702 51.74 30.094 49.5725C30.1127 46.7337 28.9077 44.0187 26.7877 42.1275L26.579 41.9412V10.91C26.5765 7.31125 23.6465 4.38 20.0465 4.375ZM21.2477 7.1375C22.859 7.63875 24.0252 9.12 24.0602 10.895V42.5475C24.0602 42.9412 24.249 43.3175 24.5627 43.555C27.884 46.0438 28.5602 50.7738 26.0702 54.0962C24.6565 55.9825 22.404 57.11 20.0452 57.11C15.8927 57.1075 12.5165 53.7275 12.5177 49.575C12.5177 47.2188 13.644 44.9663 15.529 43.5525C15.8402 43.3175 16.0277 42.9412 16.029 42.55V10.9062C16.0627 9.12625 17.244 7.63875 18.849 7.1375C18.849 7.1375 19.9915 6.765 21.249 7.1375H21.2477Z" fill="#B4B7BA"/>
<path fill-rule="evenodd" clip-rule="evenodd" d="M50.624 9.75H48.374V12.25H52.624C53.0382 12.25 53.374 12.5858 53.374 13C53.374 13.4142 53.0382 13.75 52.624 13.75H47.624H38.624C36.8291 13.75 35.374 15.2051 35.374 17V19H38.374V17.5C38.374 17.0858 38.7098 16.75 39.124 16.75H52.624C53.0382 16.75 53.374 17.0858 53.374 17.5C53.374 17.9142 53.0382 18.25 52.624 18.25H39.874V19.75C39.874 20.1642 39.5382 20.5 39.124 20.5H34.624C34.2098 20.5 33.874 20.1642 33.874 19.75V17C33.874 14.3766 36.0007 12.25 38.624 12.25H46.874V9.75H44.624C44.2098 9.75 43.874 9.41421 43.874 9C43.874 8.58579 44.2098 8.25 44.624 8.25H47.624H50.624C51.0382 8.25 51.374 8.58579 51.374 9C51.374 9.41421 51.0382 9.75 50.624 9.75ZM36.6215 21.25C36.3991 21.25 36.1841 21.3248 36.01 21.4608L33.874 24.977C33.8751 26.4959 35.0974 27.75 36.624 27.75C38.1498 27.75 39.3735 26.499 39.374 24.9784L39.374 24.9789L38.624 24.9775H39.374V24.9784C39.3755 24.0525 38.9103 23.2485 38.464 22.6798C38.0077 22.0984 37.4934 21.6645 37.2353 21.4626C37.0609 21.3254 36.845 21.25 36.6215 21.25ZM37.284 23.6059C37.0643 23.3259 36.8217 23.0848 36.6195 22.9033C36.4175 23.0825 36.1762 23.32 35.958 23.5971C35.5984 24.0538 35.3716 24.5291 35.374 24.971L35.374 24.975C35.374 25.6852 35.9439 26.25 36.624 26.25C37.3053 26.25 37.874 25.6865 37.874 24.9775L37.874 24.9761C37.8748 24.5448 37.6474 24.0689 37.284 23.6059Z" fill="#B4B7BA"/>
</svg>
