<svg width="24" height="24" viewBox="0 0 24 24" fill="none" xmlns="http://www.w3.org/2000/svg">
<g clip-path="url(#clip0_7169_17956)">
<path d="M24 12C24 10.4241 23.6896 8.86371 23.0866 7.4078C22.4835 5.95189 21.5996 4.62902 20.4853 3.51472L12 12H24Z" fill="#CE2FF2"/>
<path d="M20.4853 3.51472C18.2348 1.26428 15.1826 3.79521e-08 12 0L12 12L20.4853 3.51472Z" fill="#FA1A62"/>
<path d="M12 0C8.8174 -3.79521e-08 5.76516 1.26428 3.51472 3.51472L12 12L12 0Z" fill="#FB6020"/>
<path d="M3.51472 3.51472C1.26428 5.76516 2.78232e-07 8.8174 0 12L12 12L3.51472 3.51472Z" fill="#E0FC36"/>
<path d="M0 12C-2.78231e-07 15.1826 1.26428 18.2348 3.51472 20.4853L12 12L0 12Z" fill="#66FB33"/>
<path d="M3.51472 20.4853C5.76515 22.7357 8.8174 24 12 24L12 12L3.51472 20.4853Z" fill="#40FC8F"/>
<path d="M12 24C15.1826 24 18.2348 22.7357 20.4853 20.4853L12 12L12 24Z" fill="#1696FB"/>
<path d="M20.4853 20.4853C22.7357 18.2348 24 15.1826 24 12L12 12L20.4853 20.4853Z" fill="#3A2FFB"/>
<circle cx="12" cy="12" r="11.5" stroke="#FCFCFC"/>
</g>
<defs>
<clipPath id="clip0_7169_17956">
<rect width="24" height="24" fill="white"/>
</clipPath>
</defs>
</svg>
