<svg width="64" height="64" viewBox="0 0 64 64" fill="none" xmlns="http://www.w3.org/2000/svg">
<path d="M61.7573 17.7175L16.9818 17.8746C17.4389 18.5316 17.7102 19.3457 17.7102 20.2027C17.7102 20.2027 17.7102 20.2027 17.7102 20.217C17.7102 20.217 17.7102 20.217 17.7102 20.2312C17.7102 21.131 17.4246 21.9594 16.939 22.645L61.7716 22.4879C62.2143 22.4879 62.5857 22.1165 62.5857 21.6738L62.5714 18.5459C62.5714 18.0746 62.2 17.7175 61.7573 17.7175Z" fill="#12A71E"/>
<mask id="mask0_6344_14721" style="mask-type:luminance" maskUnits="userSpaceOnUse" x="16" y="17" width="47" height="6">
<path d="M61.7573 17.7175L16.9818 17.8746C17.4389 18.5316 17.7102 19.3457 17.7102 20.2027C17.7102 20.2027 17.7102 20.2027 17.7102 20.217C17.7102 20.217 17.7102 20.217 17.7102 20.2312C17.7102 21.131 17.4246 21.9594 16.939 22.645L61.7716 22.4879C62.2143 22.4879 62.5857 22.1165 62.5857 21.6738L62.5714 18.5459C62.5714 18.0746 62.2 17.7175 61.7573 17.7175Z" fill="white"/>
</mask>
<g mask="url(#mask0_6344_14721)">
<path fill-rule="evenodd" clip-rule="evenodd" d="M23.127 22.8821L30.1968 15.7695L31.8175 17.3805L24.7477 24.4931L23.127 22.8821Z" fill="#FCFCFC"/>
</g>
<mask id="mask1_6344_14721" style="mask-type:luminance" maskUnits="userSpaceOnUse" x="16" y="17" width="47" height="6">
<path d="M61.7573 17.7175L16.9818 17.8746C17.4389 18.5316 17.7102 19.3457 17.7102 20.2027C17.7102 20.2027 17.7102 20.2027 17.7102 20.217C17.7102 20.217 17.7102 20.217 17.7102 20.2312C17.7102 21.131 17.4246 21.9594 16.939 22.645L61.7716 22.4879C62.2143 22.4879 62.5857 22.1165 62.5857 21.6738L62.5714 18.5459C62.5714 18.0746 62.2 17.7175 61.7573 17.7175Z" fill="white"/>
</mask>
<g mask="url(#mask1_6344_14721)">
<path fill-rule="evenodd" clip-rule="evenodd" d="M31.0103 23.4399L38.0801 16.313L39.7024 17.9223L32.6326 25.0493L31.0103 23.4399Z" fill="#FCFCFC"/>
</g>
<mask id="mask2_6344_14721" style="mask-type:luminance" maskUnits="userSpaceOnUse" x="16" y="17" width="47" height="6">
<path d="M61.7573 17.7175L16.9818 17.8746C17.4389 18.5316 17.7102 19.3457 17.7102 20.2027C17.7102 20.2027 17.7102 20.2027 17.7102 20.217C17.7102 20.217 17.7102 20.217 17.7102 20.2312C17.7102 21.131 17.4246 21.9594 16.939 22.645L61.7716 22.4879C62.2143 22.4879 62.5857 22.1165 62.5857 21.6738L62.5714 18.5459C62.5714 18.0746 62.2 17.7175 61.7573 17.7175Z" fill="white"/>
</mask>
<g mask="url(#mask2_6344_14721)">
<path fill-rule="evenodd" clip-rule="evenodd" d="M39.895 22.9106L46.9648 15.798L48.5856 17.409L41.5158 24.5216L39.895 22.9106Z" fill="#FCFCFC"/>
</g>
<mask id="mask3_6344_14721" style="mask-type:luminance" maskUnits="userSpaceOnUse" x="16" y="17" width="47" height="6">
<path d="M61.7573 17.7175L16.9818 17.8746C17.4389 18.5316 17.7102 19.3457 17.7102 20.2027C17.7102 20.2027 17.7102 20.2027 17.7102 20.217C17.7102 20.217 17.7102 20.217 17.7102 20.2312C17.7102 21.131 17.4246 21.9594 16.939 22.645L61.7716 22.4879C62.2143 22.4879 62.5857 22.1165 62.5857 21.6738L62.5714 18.5459C62.5714 18.0746 62.2 17.7175 61.7573 17.7175Z" fill="white"/>
</mask>
<g mask="url(#mask3_6344_14721)">
<path fill-rule="evenodd" clip-rule="evenodd" d="M48.6641 22.7964L55.7339 15.6837L57.3546 17.2947L50.2848 24.4074L48.6641 22.7964Z" fill="#FCFCFC"/>
</g>
<path fill-rule="evenodd" clip-rule="evenodd" d="M61.7535 16.575L61.7575 16.575C62.8304 16.575 63.7127 17.4421 63.7142 18.5432L63.7141 18.5407L62.5716 18.5459H63.7142M61.7718 23.6305L14.7241 23.7954L16.0068 21.9846C16.3621 21.4829 16.5678 20.8834 16.5678 20.2313V20.2033C16.5678 19.5862 16.3717 18.9981 16.044 18.5272L14.8006 16.7397L61.7535 16.575M61.4304 18.8613L18.7151 19.0112C18.8052 19.3958 18.853 19.7954 18.853 20.2027V20.2309C18.853 20.6673 18.8001 21.0912 18.7006 21.4962L61.4417 21.3464L61.4304 18.8613Z" fill="#FCFCFC"/>
<path fill-rule="evenodd" clip-rule="evenodd" d="M63.9998 16.575L62.0431 16.575C63.116 16.575 63.9983 17.4421 63.9998 18.5432L63.9998 18.5407L62.8572 18.5459H63.9998M63.9998 23.6305L15.0098 23.7954L16.2924 21.9846C16.6478 21.4829 16.8535 20.8834 16.8535 20.2313V20.2033C16.8535 19.5862 16.6573 18.9981 16.3297 18.5272L15.0863 16.7397L63.9998 16.575M61.716 18.8613L19.0007 19.0112C19.0909 19.3958 19.1387 19.7954 19.1387 20.2027V20.2309C19.1387 20.6673 19.0857 21.0912 18.9863 21.4962L61.7274 21.3464L61.716 18.8613Z" fill="#FCFCFC"/>
<path fill-rule="evenodd" clip-rule="evenodd" d="M0 49.2675C0 47.2374 1.65481 45.5826 3.68487 45.5826H13.5398C15.5713 45.5826 17.2203 47.2373 17.2389 49.2596L17.2389 49.2675L17.2389 53.0095H0V49.2675ZM3.68487 47.2965C2.60136 47.2965 1.71389 48.184 1.71389 49.2675V51.2956H15.525V49.2718C15.5131 48.1823 14.6206 47.2965 13.5398 47.2965H3.68487Z" fill="#FCFCFC"/>
<path fill-rule="evenodd" clip-rule="evenodd" d="M13.0967 15.1896H13.9536C16.6997 15.1896 18.9239 17.4176 18.9239 20.1741L17.21 20.1795C17.1987 18.3747 15.734 16.9178 13.9536 16.9178H13.0967V15.1896Z" fill="#FCFCFC"/>
<path fill-rule="evenodd" clip-rule="evenodd" d="M2.42802 14.0041C2.42802 12.3454 3.78289 10.9905 5.44161 10.9905H11.783C13.4417 10.9905 14.7966 12.3454 14.7966 14.0041V16.9178H13.9397C12.142 16.9178 10.6833 18.3765 10.6833 20.1742C10.6833 21.9718 12.142 23.4305 13.9397 23.4305C15.7363 23.4305 17.199 21.9716 17.2104 20.1688L18.9242 20.1742V20.1881C18.9242 22.6401 17.147 24.6788 14.8109 25.0851V45.7773C16.2252 46.2956 17.2389 47.6537 17.2389 49.2389V52.9809H0V49.2389C0 47.6537 1.01371 46.2956 2.42802 45.7773V14.0041ZM13.097 25.0732C10.7539 24.6728 8.96937 22.6311 8.96937 20.1742C8.96937 17.7222 10.7466 15.6838 13.0827 15.2775V14.0041C13.0827 13.292 12.4952 12.7044 11.783 12.7044H5.44161C4.72945 12.7044 4.14191 13.292 4.14191 14.0041V47.1806L3.40863 47.2875C2.45019 47.4273 1.71389 48.2589 1.71389 49.2389V51.267H15.525V49.2389C15.525 48.2589 14.7887 47.4273 13.8303 47.2875L13.097 47.1806V25.0732Z" fill="#FCFCFC"/>
<path fill-rule="evenodd" clip-rule="evenodd" d="M13.9394 17.3319C12.3697 17.3319 11.0972 18.6044 11.0972 20.1742C11.0972 21.7439 12.3697 23.0164 13.9394 23.0164C15.5091 23.0164 16.7816 21.7439 16.7816 20.1742C16.7816 18.6044 15.5091 17.3319 13.9394 17.3319ZM8.81201 20.1742C8.81201 17.3424 11.1076 15.0468 13.9394 15.0468C16.7712 15.0468 19.0668 17.3424 19.0668 20.1742C19.0668 23.0059 16.7712 25.3015 13.9394 25.3015C11.1076 25.3015 8.81201 23.0059 8.81201 20.1742Z" fill="#FCFCFC"/>
</svg>
