<svg width="64" height="64" viewBox="0 0 64 64" fill="none" xmlns="http://www.w3.org/2000/svg">
<path d="M58.3876 23.2375L19.2001 23.375C19.6001 23.95 19.8376 24.6625 19.8376 25.4125C19.8376 25.4125 19.8376 25.4125 19.8376 25.425C19.8376 25.425 19.8376 25.425 19.8376 25.4375C19.8376 26.225 19.5876 26.95 19.1626 27.55L58.4001 27.4125C58.7876 27.4125 59.1126 27.0875 59.1126 26.7L59.1001 23.9625C59.1001 23.55 58.7751 23.2375 58.3876 23.2375Z" fill="#12A71E"/>
<mask id="mask0_5611_3106" style="mask-type:luminance" maskUnits="userSpaceOnUse" x="19" y="23" width="41" height="5">
<path d="M58.3876 23.2375L19.2001 23.375C19.6001 23.95 19.8376 24.6625 19.8376 25.4125C19.8376 25.4125 19.8376 25.4125 19.8376 25.425C19.8376 25.425 19.8376 25.425 19.8376 25.4375C19.8376 26.225 19.5876 26.95 19.1626 27.55L58.4001 27.4125C58.7876 27.4125 59.1126 27.0875 59.1126 26.7L59.1001 23.9625C59.1001 23.55 58.7751 23.2375 58.3876 23.2375Z" fill="white"/>
</mask>
<g mask="url(#mask0_5611_3106)">
<path fill-rule="evenodd" clip-rule="evenodd" d="M24.5781 27.7575L30.7656 21.5325L32.1841 22.9425L25.9966 29.1675L24.5781 27.7575Z" fill="#282828"/>
</g>
<mask id="mask1_5611_3106" style="mask-type:luminance" maskUnits="userSpaceOnUse" x="19" y="23" width="41" height="5">
<path d="M58.3876 23.2375L19.2001 23.375C19.6001 23.95 19.8376 24.6625 19.8376 25.4125C19.8376 25.4125 19.8376 25.4125 19.8376 25.425C19.8376 25.425 19.8376 25.425 19.8376 25.4375C19.8376 26.225 19.5876 26.95 19.1626 27.55L58.4001 27.4125C58.7876 27.4125 59.1126 27.0875 59.1126 26.7L59.1001 23.9625C59.1001 23.55 58.7751 23.2375 58.3876 23.2375Z" fill="white"/>
</mask>
<g mask="url(#mask1_5611_3106)">
<path fill-rule="evenodd" clip-rule="evenodd" d="M31.4775 28.2457L37.665 22.0082L39.0849 23.4168L32.8974 29.6543L31.4775 28.2457Z" fill="#282828"/>
</g>
<mask id="mask2_5611_3106" style="mask-type:luminance" maskUnits="userSpaceOnUse" x="19" y="23" width="41" height="5">
<path d="M58.3876 23.2375L19.2001 23.375C19.6001 23.95 19.8376 24.6625 19.8376 25.4125C19.8376 25.4125 19.8376 25.4125 19.8376 25.425C19.8376 25.425 19.8376 25.425 19.8376 25.4375C19.8376 26.225 19.5876 26.95 19.1626 27.55L58.4001 27.4125C58.7876 27.4125 59.1126 27.0875 59.1126 26.7L59.1001 23.9625C59.1001 23.55 58.7751 23.2375 58.3876 23.2375Z" fill="white"/>
</mask>
<g mask="url(#mask2_5611_3106)">
<path fill-rule="evenodd" clip-rule="evenodd" d="M39.2534 27.7825L45.4409 21.5575L46.8594 22.9675L40.6719 29.1925L39.2534 27.7825Z" fill="#282828"/>
</g>
<mask id="mask3_5611_3106" style="mask-type:luminance" maskUnits="userSpaceOnUse" x="19" y="23" width="41" height="5">
<path d="M58.3876 23.2375L19.2001 23.375C19.6001 23.95 19.8376 24.6625 19.8376 25.4125C19.8376 25.4125 19.8376 25.4125 19.8376 25.425C19.8376 25.425 19.8376 25.425 19.8376 25.4375C19.8376 26.225 19.5876 26.95 19.1626 27.55L58.4001 27.4125C58.7876 27.4125 59.1126 27.0875 59.1126 26.7L59.1001 23.9625C59.1001 23.55 58.7751 23.2375 58.3876 23.2375Z" fill="white"/>
</mask>
<g mask="url(#mask3_5611_3106)">
<path fill-rule="evenodd" clip-rule="evenodd" d="M46.9282 27.6825L53.1157 21.4575L54.5342 22.8675L48.3467 29.0925L46.9282 27.6825Z" fill="#282828"/>
</g>
<path fill-rule="evenodd" clip-rule="evenodd" d="M58.3842 22.2375L58.3877 22.2375C59.3267 22.2375 60.0989 22.9964 60.1002 23.9601L60.1002 23.9579L59.1002 23.9625H60.1002M58.4002 28.4125L17.2241 28.5568L18.3467 26.972C18.6577 26.5329 18.8377 26.0083 18.8377 25.4375V25.413C18.8377 24.873 18.6661 24.3582 18.3793 23.9461L17.2911 22.3817L58.3842 22.2375M58.1015 24.2385L20.717 24.3697C20.7959 24.7063 20.8377 25.056 20.8377 25.4125V25.4371C20.8377 25.8191 20.7914 26.1901 20.7044 26.5446L58.1114 26.4135L58.1015 24.2385Z" fill="#282828"/>
<path fill-rule="evenodd" clip-rule="evenodd" d="M58.6342 22.2375L58.6377 22.2375C59.5767 22.2375 60.3489 22.9964 60.3502 23.9601L60.3502 23.9579L59.3502 23.9625H60.3502M58.6502 28.4125L17.4741 28.5568L18.5967 26.972C18.9077 26.5329 19.0877 26.0083 19.0877 25.4375V25.413C19.0877 24.873 18.9161 24.3582 18.6293 23.9461L17.5411 22.3817L58.6342 22.2375M58.3515 24.2385L20.967 24.3697C21.0459 24.7063 21.0877 25.056 21.0877 25.4125V25.4371C21.0877 25.8191 21.0414 26.1901 20.9544 26.5446L58.3614 26.4135L58.3515 24.2385Z" fill="#282828"/>
<path fill-rule="evenodd" clip-rule="evenodd" d="M4.3374 50.85C4.3374 49.0733 5.78569 47.625 7.5624 47.625H16.1874C17.9654 47.625 19.4086 49.0731 19.4249 50.8431L19.4249 50.85L19.4249 54.125H4.3374V50.85ZM7.5624 49.125C6.61412 49.125 5.8374 49.9017 5.8374 50.85V52.625H17.9249V50.8538C17.9145 49.9002 17.1333 49.125 16.1874 49.125H7.5624Z" fill="#282828"/>
<path fill-rule="evenodd" clip-rule="evenodd" d="M15.7998 21.025H16.5498C18.9532 21.025 20.8998 22.975 20.8998 25.3875L19.3998 25.3922C19.3899 23.8126 18.108 22.5375 16.5498 22.5375H15.7998V21.025Z" fill="#282828"/>
<path fill-rule="evenodd" clip-rule="evenodd" d="M6.4624 19.9875C6.4624 18.5358 7.64819 17.35 9.0999 17.35H14.6499C16.1016 17.35 17.2874 18.5358 17.2874 19.9875V22.5375H16.5374C14.9641 22.5375 13.6874 23.8142 13.6874 25.3875C13.6874 26.9608 14.9641 28.2375 16.5374 28.2375C18.1098 28.2375 19.39 26.9607 19.3999 25.3828L20.8999 25.3875V25.3998C20.8999 27.5457 19.3444 29.3299 17.2999 29.6855V47.7954C18.5377 48.249 19.4249 49.4376 19.4249 50.825V54.1H4.3374V50.825C4.3374 49.4376 5.2246 48.249 6.4624 47.7954V19.9875ZM15.7999 29.6752C13.7492 29.3247 12.1874 27.5378 12.1874 25.3875C12.1874 23.2415 13.7429 21.4576 15.7874 21.102V19.9875C15.7874 19.3642 15.2732 18.85 14.6499 18.85H9.0999C8.47662 18.85 7.9624 19.3642 7.9624 19.9875V49.0236L7.32063 49.1172C6.48181 49.2395 5.8374 49.9673 5.8374 50.825V52.6H17.9249V50.825C17.9249 49.9673 17.2805 49.2395 16.4417 49.1172L15.7999 49.0236V29.6752Z" fill="#282828"/>
<path fill-rule="evenodd" clip-rule="evenodd" d="M16.5373 22.9C15.1635 22.9 14.0498 24.0137 14.0498 25.3875C14.0498 26.7613 15.1635 27.875 16.5373 27.875C17.9111 27.875 19.0248 26.7613 19.0248 25.3875C19.0248 24.0137 17.9111 22.9 16.5373 22.9ZM12.0498 25.3875C12.0498 22.9091 14.0589 20.9 16.5373 20.9C19.0157 20.9 21.0248 22.9091 21.0248 25.3875C21.0248 27.8659 19.0157 29.875 16.5373 29.875C14.0589 29.875 12.0498 27.8659 12.0498 25.3875Z" fill="#282828"/>
</svg>
