<svg width="256" height="196" viewBox="0 0 256 196" fill="none" xmlns="http://www.w3.org/2000/svg">
<g clip-path="url(#clip0_5287_8584)">
<rect width="256" height="196" fill="#4E5255"/>
<path d="M-24 196L16 156M280 196L240 156M16 156H240M16 156V4M240 156V4" stroke="#191C19"/>
<path d="M57.52 151.932C69.6408 151.932 79.4667 145.118 79.4667 136.712C79.4667 128.306 69.6408 121.492 57.52 121.492C45.3991 121.492 35.5732 128.306 35.5732 136.712C35.5732 145.118 45.3991 151.932 57.52 151.932Z" fill="#FFE836"/>
<path d="M194.451 151.932C206.571 151.932 216.397 145.118 216.397 136.712C216.397 128.306 206.571 121.492 194.451 121.492C182.33 121.492 172.504 128.306 172.504 136.712C172.504 145.118 182.33 151.932 194.451 151.932Z" fill="#FFE836"/>
<path d="M61.9467 176.44C74.0676 176.44 83.8934 169.626 83.8934 161.22C83.8934 152.814 74.0676 146 61.9467 146C49.8259 146 40 152.814 40 161.22C40 169.626 49.8259 176.44 61.9467 176.44Z" fill="#B4B7BA"/>
<path d="M194.053 176.44C206.174 176.44 216 169.626 216 161.22C216 152.814 206.174 146 194.053 146C181.932 146 172.106 152.814 172.106 161.22C172.106 169.626 181.932 176.44 194.053 176.44Z" fill="#B4B7BA"/>
<path d="M205.427 189.799C201.204 189.799 196.981 189.799 192.691 189.799C189.072 189.799 186.525 187.453 186.257 183.9C186.123 181.756 186.123 181.689 183.978 181.554C181.096 181.286 178.146 181.085 175.197 180.951C168.829 180.683 162.529 180.549 156.161 180.348C139.002 179.879 121.843 179.946 104.616 180.147C93.3558 180.281 82.0951 180.616 70.8343 181.554C69.6949 181.622 69.2257 182.024 69.2927 183.23C69.4267 187.185 66.1424 190 62.3888 189.866C54.0773 189.665 45.7658 189.665 37.5214 189.866C33.9018 189.933 31.0196 186.515 31.0867 183.498C31.1537 177.801 31.3548 172.171 30.8856 166.473C30.3494 160.173 29.8802 153.805 29.3439 147.504C28.8747 141.271 28.8747 135.104 29.411 128.87C29.7461 125.452 30.0812 122.034 31.0867 118.749C32.5613 114.057 34.5721 109.633 38.5268 106.483C39.3311 105.813 38.996 105.545 38.2587 105.209C35.5105 104.003 32.8294 102.662 31.0196 100.182C28.4726 96.6299 28.6066 94.3509 32.8964 92.0049C35.9797 90.2622 39.4652 89.86 42.9506 89.3908C44.9615 89.1227 46.9723 89.0557 48.9832 88.8546C50.1897 88.7206 51.061 89.1227 51.7983 90.1281C52.4686 90.9995 53.1389 91.8039 53.8092 92.6752C54.3454 93.4796 54.7476 93.4125 55.0827 92.4741C56.3563 88.9216 57.8309 85.5032 59.4396 82.1518C62.3218 76.0522 65.271 69.9527 69.4267 64.5904C71.7727 61.5742 74.923 59.6304 78.6766 58.8931C88.0605 57.0163 97.5115 55.6757 107.03 55.0054C114.067 54.5362 121.038 54 128.076 54C143.962 54 159.714 55.6087 175.398 58.4909C181.029 59.4963 185.251 62.5796 188.268 67.3386C193.161 75.0468 197.048 83.2913 200.333 91.8038C200.467 92.072 200.534 92.4071 200.668 92.6752C200.936 93.4125 201.338 93.4125 201.807 92.8093C202.545 91.8709 203.282 90.8655 204.019 89.9271C204.488 89.3238 205.025 88.9216 205.829 88.9216C211.392 89.1898 216.889 89.5919 222.117 91.7368C222.385 91.8709 222.586 91.9379 222.854 92.072C226.407 93.9488 227.144 96.6969 224.798 99.9813C222.988 102.528 220.307 104.003 217.559 105.209C216.151 105.813 216.151 105.813 217.224 106.751C222.05 110.907 224.195 116.47 225.267 122.57C226.675 130.546 226.675 138.589 226.205 146.7C225.535 158.899 223.792 171.031 224.396 183.297C224.53 185.777 223.524 187.654 221.514 189.062C220.642 189.665 219.704 190 218.631 190C214.274 189.732 209.851 189.732 205.427 189.799C205.427 189.732 205.427 189.732 205.427 189.799ZM126.267 64.3223C124.256 64.5234 120.77 64.3223 117.285 64.5234C113.933 64.7245 110.649 64.9256 107.298 65.1937C99.2542 65.797 91.2779 67.1375 83.3016 68.277C80.1512 68.7462 77.6712 69.8857 75.9955 72.7008C71.7727 79.6718 68.2202 86.9108 65.271 94.485C64.8018 95.6915 64.9359 95.8255 66.2094 95.6915C71.0354 95.0882 75.8614 94.7531 80.7545 94.552C88.7979 94.2169 96.8412 93.8147 104.952 93.7477C119.698 93.6136 134.444 93.4795 149.19 93.8817C156.965 94.0828 164.808 94.1498 172.583 94.485C178.146 94.7531 183.71 95.0882 189.273 95.6915C190.681 95.8255 190.882 95.6915 190.345 94.418C187.798 87.7822 184.581 81.4815 181.23 75.2479C178.951 71.0922 175.934 68.8802 171.108 68.0759C156.697 65.7969 142.286 64.3223 126.267 64.3223ZM61.7855 144.488C64.7348 144.421 67.684 144.555 70.5662 144.421C74.5209 144.22 76.2636 141.472 74.9901 137.785C73.6495 134.032 70.9014 131.887 67.0808 131.216C60.9142 130.144 54.6806 129.273 48.4469 128.736C44.2912 128.401 42.2133 131.149 43.2858 135.104C43.6209 136.311 44.1571 137.383 44.6263 138.522C46.4361 142.477 49.5194 144.421 53.8092 144.488C56.4233 144.555 59.1044 144.488 61.7855 144.488ZM193.898 144.555C193.898 144.488 193.898 144.488 193.898 144.555C196.244 144.555 198.59 144.555 200.936 144.555C201.74 144.555 202.545 144.488 203.349 144.421C209.046 143.818 211.861 138.388 212.465 133.897C212.934 130.68 211.459 129.071 208.242 128.736C207.639 128.669 206.968 128.736 206.365 128.803C204.354 129.004 202.343 129.206 200.333 129.474C196.177 130.077 191.954 130.345 187.932 131.35C184.313 132.222 181.9 134.434 180.693 137.986C179.621 141.271 181.096 143.818 184.514 144.421C185.318 144.555 186.123 144.555 186.927 144.622C189.206 144.555 191.552 144.555 193.898 144.555ZM190.345 151.861C187.262 151.861 184.112 151.861 181.029 151.861C180.09 151.861 179.152 151.995 178.28 152.531C176.337 153.738 176.404 156.151 178.347 157.223C179.152 157.692 180.09 157.961 181.096 157.961C187.262 157.961 193.429 158.028 199.595 157.961C200.869 157.961 202.075 157.625 203.081 156.754C204.488 155.481 204.421 153.872 202.813 152.799C201.874 152.196 200.869 151.861 199.729 151.861C196.646 151.861 193.496 151.861 190.345 151.861ZM65.204 151.794C62.2547 151.794 59.3725 151.794 56.4233 151.794C55.4849 151.794 54.5465 151.861 53.6751 152.33C52.6027 152.799 51.9324 153.604 51.8654 154.81C51.7984 156.084 52.5357 156.821 53.5411 157.357C54.4124 157.76 55.3508 158.028 56.2892 158.028C62.3218 158.028 68.3543 158.028 74.3868 158.028C75.6604 158.028 76.7998 157.625 77.8053 156.955C79.4139 155.816 79.4139 154.073 77.8053 152.933C76.6658 152.129 75.3252 151.861 73.9846 151.861C71.1024 151.794 68.1532 151.794 65.204 151.794Z" fill="#191C19"/>
</g>
<defs>
<clipPath id="clip0_5287_8584">
<rect width="256" height="196" fill="white"/>
</clipPath>
</defs>
</svg>
