<svg width="64" height="64" viewBox="0 0 64 64" fill="none" xmlns="http://www.w3.org/2000/svg">
<path d="M14.4225 4.375C10.8262 4.37875 7.89622 7.30875 7.89247 10.9075V41.9362L7.68372 42.1225C5.56122 44.015 4.35622 46.7313 4.37622 49.5737C4.39997 51.74 5.10247 53.7975 6.40872 55.5225L6.47122 55.6037C8.38247 58.1162 11.2787 59.5575 14.4237 59.5625C17.6087 59.5575 20.5287 58.0875 22.4337 55.5275C23.7437 53.7988 24.4462 51.74 24.47 49.5725C24.4887 46.7337 23.2837 44.0187 21.1637 42.1275L20.955 41.9412V10.91C20.9525 7.31125 18.0225 4.38 14.4225 4.375ZM15.6237 7.1375C17.235 7.63875 18.4012 9.12 18.4362 10.895V42.5475C18.4362 42.9412 18.625 43.3175 18.9387 43.555C22.26 46.0438 22.9362 50.7738 20.4462 54.0962C19.0325 55.9825 16.78 57.11 14.4212 57.11C10.2687 57.1075 6.89247 53.7275 6.89372 49.575C6.89372 47.2188 8.01997 44.9663 9.90497 43.5525C10.2162 43.3175 10.4037 42.9412 10.405 42.55V10.9062C10.4387 9.12625 11.62 7.63875 13.225 7.1375C13.225 7.1375 14.3675 6.765 15.625 7.1375H15.6237Z" fill="#B4B7BA"/>
<path d="M13.1637 23.2125V45.8725L12.7987 46.04C11.8524 46.4737 11.1324 47.2487 10.7699 48.225C10.4074 49.2 10.4474 50.2587 10.8799 51.2037C11.3124 52.1487 12.0887 52.87 13.0649 53.2325C14.0399 53.595 15.0987 53.555 16.0437 53.1225C17.9962 52.2275 18.8562 49.9112 17.9612 47.9587C17.5724 47.11 16.8912 46.43 16.0437 46.0412L15.6787 45.8737V23.2112C15.6787 22.5187 15.1137 21.955 14.4199 21.9537C13.7274 21.9537 13.1624 22.5187 13.1624 23.2125H13.1637Z" fill="#00D151"/>
<rect x="28.75" y="8.75" width="4.5" height="18.5" stroke="#B4B7BA" stroke-width="1.5" stroke-linejoin="round"/>
<rect x="42.25" y="8.75" width="4.5" height="18.5" stroke="#B4B7BA" stroke-width="1.5" stroke-linejoin="round"/>
<rect x="33.25" y="8.75" width="4.5" height="4.5" stroke="#B4B7BA" stroke-width="1.5"/>
<rect x="33.25" y="22.75" width="4.5" height="4.5" stroke="#B4B7BA" stroke-width="1.5"/>
<rect x="37.75" y="8.75" width="4.5" height="9.5" stroke="#B4B7BA" stroke-width="1.5"/>
<rect x="37.75" y="18.25" width="4.5" height="9" stroke="#B4B7BA" stroke-width="1.5"/>
</svg>
