<svg width="512" height="512" viewBox="0 0 512 512" fill="none" xmlns="http://www.w3.org/2000/svg">
<path d="M507.38 429.6L333.78 256L507 82.7601C508.875 80.8849 509.928 78.3418 509.928 75.6901C509.928 73.0385 508.875 70.4954 507 68.6201L443.38 5.00013C441.505 3.12542 438.962 2.07227 436.31 2.07227C433.658 2.07227 431.115 3.12542 429.24 5.00013L328.71 105.51L143 291.23L5.00013 429.24C3.12542 431.115 2.07227 433.658 2.07227 436.31C2.07227 438.962 3.12542 441.505 5.00013 443.38L68.6201 507C70.4954 508.875 73.0385 509.928 75.6901 509.928C78.3418 509.928 80.8849 508.875 82.7601 507L256 333.79L429.59 507.38C430.519 508.31 431.622 509.047 432.836 509.551C434.05 510.054 435.351 510.313 436.665 510.313C437.979 510.313 439.281 510.054 440.495 509.551C441.709 509.047 442.811 508.31 443.74 507.38L507.38 443.74C509.255 441.865 510.308 439.322 510.308 436.67C510.308 434.018 509.255 431.475 507.38 429.6ZM350.88 117.53L347.93 114.53L436.31 26.1401L485.81 75.6401L460.71 100.74L446.57 114.89L426.14 135.32L412 149.51L391.56 170L377.41 184.14L357 204.52L342.85 218.67L319.66 241.86L315.17 237.36L327.61 203.43L335.2 182.72L354.45 130.23C355.91 126.21 354.49 121.15 350.88 117.53ZM333.43 128.37L333.71 128.65L333.63 128.87L296.37 230.48L295.61 231.24L231.43 295.43L231.25 295.61L228.71 298.14L178.71 308.86L165.84 296L333.43 128.37ZM218.67 342.83L204.52 357L184.09 377.43L170 391.56L149.51 412L135.37 426.15L114.94 446.58L100.79 460.72L75.6901 485.82L26.1901 436.32L152.05 310.45L167.05 325.45C169.509 327.993 172.864 329.475 176.4 329.58C176.876 329.579 177.35 329.542 177.82 329.47C178.056 329.449 178.289 329.412 178.52 329.36L200.52 324.64L236.13 317C236.92 316.833 237.683 316.561 238.4 316.19L241.86 319.65L218.67 342.83ZM436.67 486.16L252.82 302.31L302.32 252.82L305.5 256L318 268.52L319.63 270.14L332.14 282.66L352.58 303.1L366.72 317.24L435.87 386.39L456.31 406.83L470.46 421L486.16 436.7L436.67 486.16Z" fill="#FCFCFC"/>
<path d="M218.67 342.83L204.52 357L179.77 332.25C178.969 331.452 178.313 330.522 177.83 329.5C178.066 329.479 178.299 329.442 178.53 329.39L200.53 324.67L218.67 342.83Z" fill="#00D151"/>
<path d="M356.98 204.52L342.83 218.67L327.59 203.43L335.18 182.72L356.98 204.52Z" fill="#00D151"/>
<path d="M114.94 446.57L100.79 460.71L86.79 446.71C84.9189 444.826 83.873 442.275 83.8824 439.62C83.8918 436.964 84.9557 434.421 86.84 432.55C88.7244 430.679 91.2749 429.633 93.9304 429.643C96.5859 429.652 99.1289 430.716 101 432.6L114.94 446.57Z" fill="#00D151"/>
<path d="M149.51 412L135.37 426.15L121.37 412.15C119.494 410.271 118.441 407.724 118.442 405.068C118.444 402.413 119.501 399.867 121.38 397.99C123.259 396.114 125.807 395.061 128.462 395.063C131.118 395.064 133.664 396.121 135.54 398L149.51 412Z" fill="#00D151"/>
<path d="M184.09 377.41L170 391.56L156 377.56C154.123 375.685 153.069 373.142 153.068 370.489C153.067 367.836 154.12 365.292 155.995 363.415C157.87 361.539 160.414 360.484 163.066 360.483C165.719 360.482 168.263 361.535 170.14 363.41L184.09 377.41Z" fill="#00D151"/>
<path d="M426.14 135.37L412 149.51L398 135.51C396.125 133.633 395.072 131.089 395.073 128.436C395.074 125.783 396.128 123.24 398.005 121.365C399.881 119.489 402.426 118.437 405.078 118.438C407.731 118.438 410.275 119.493 412.15 121.37L426.14 135.37Z" fill="#00D151"/>
<path d="M460.71 100.79L446.57 114.94L432.57 100.94C430.694 99.0652 429.639 96.5215 429.638 93.8688C429.637 91.2161 430.69 88.6717 432.565 86.7953C434.44 84.9189 436.984 83.8642 439.637 83.8633C442.289 83.8623 444.834 84.9152 446.71 86.7903L460.71 100.79Z" fill="#00D151"/>
<path d="M391.56 170L377.41 184.14L363.41 170.14C362.482 169.209 361.746 168.104 361.244 166.889C360.743 165.673 360.485 164.371 360.487 163.056C360.489 161.741 360.75 160.44 361.255 159.226C361.76 158.011 362.499 156.909 363.43 155.98C364.361 155.052 365.466 154.316 366.681 153.814C367.897 153.313 369.199 153.056 370.514 153.058C371.829 153.059 373.131 153.32 374.345 153.825C375.559 154.33 376.661 155.069 377.59 156L391.56 170Z" fill="#00D151"/>
<path d="M333.43 128.37L165.84 296L166.2 296.36L333.63 128.87L333.71 128.65L333.43 128.37ZM318 268.52L304 282.52C302.356 284.166 301.338 286.334 301.12 288.65L319.59 270.18L318 268.52Z" fill="#FCFCFC"/>
<path d="M189.89 301.71C187.912 301.711 185.977 301.126 184.332 300.028C182.686 298.93 181.403 297.368 180.645 295.541C179.887 293.714 179.689 291.702 180.074 289.762C180.459 287.822 181.412 286.039 182.81 284.64L194.13 273.32C196.016 271.498 198.542 270.49 201.164 270.513C203.786 270.536 206.294 271.588 208.148 273.442C210.002 275.296 211.054 277.804 211.077 280.426C211.1 283.048 210.092 285.574 208.27 287.46L197 298.78C196.067 299.713 194.958 300.453 193.738 300.956C192.518 301.458 191.21 301.715 189.89 301.71Z" fill="#FCFCFC"/>
<path d="M317.67 84.3304L308.91 75.5604C306.452 73.015 303.096 71.5326 299.56 71.4304C298.418 71.4243 297.283 71.6207 296.21 72.0104L189.08 111.29L82.4098 4.62037C81.481 3.6906 80.3781 2.95301 79.1642 2.44977C77.9502 1.94653 76.6489 1.6875 75.3348 1.6875C74.0206 1.6875 72.7193 1.94653 71.5054 2.44977C70.2914 2.95301 69.1885 3.6906 68.2598 4.62037L4.61976 68.2604C2.74505 70.1356 1.69189 72.6787 1.69189 75.3304C1.69189 77.982 2.74505 80.5251 4.61976 82.4004L110.25 188C109.879 188.717 109.607 189.481 109.44 190.27L97.0698 247.87C96.2498 251.7 97.7598 256.11 100.98 259.34L121.8 280.15C124.255 282.699 127.612 284.182 131.15 284.28C132.331 284.309 133.507 284.101 134.607 283.67C135.708 283.239 136.712 282.593 137.56 281.77L319.29 100.08C323.19 96.1804 322.47 89.1204 317.67 84.3304ZM25.8398 75.3304L75.3298 25.8404L100.12 50.6204L114.26 64.7704L134.69 85.2004L148.84 99.3404L173.62 124.12L124.13 173.62L25.8398 75.3304ZM130.49 260.6L117.58 247.69L128.3 197.69L130.83 195.16L131.2 194.8L194.84 131.16L195 131L195.94 130L297.79 92.7304L298.07 93.0104L130.49 260.6Z" fill="#FCFCFC"/>
<path d="M134.73 246.55C132.752 246.55 130.819 245.963 129.175 244.864C127.531 243.766 126.25 242.204 125.493 240.377C124.736 238.55 124.538 236.54 124.924 234.6C125.31 232.661 126.262 230.879 127.66 229.48L139 218.17C140.886 216.349 143.412 215.341 146.034 215.364C148.656 215.386 151.164 216.438 153.018 218.292C154.872 220.146 155.924 222.654 155.947 225.276C155.969 227.898 154.961 230.424 153.14 232.31L141.8 243.63C139.923 245.502 137.38 246.552 134.73 246.55Z" fill="#FCFCFC"/>
<path d="M401.31 351.82L376.56 376.56C374.674 378.381 372.148 379.389 369.526 379.367C366.904 379.344 364.396 378.292 362.542 376.438C360.688 374.584 359.636 372.076 359.613 369.454C359.59 366.832 360.598 364.306 362.42 362.42L387.16 337.67L401.31 351.82Z" fill="#00D151"/>
<path d="M470.46 421L456.46 435C454.574 436.822 452.048 437.83 449.426 437.807C446.804 437.784 444.296 436.733 442.442 434.879C440.588 433.024 439.536 430.516 439.513 427.894C439.49 425.272 440.498 422.746 442.32 420.86L456.32 406.86L470.46 421Z" fill="#00D151"/>
<path d="M435.88 386.39L421.88 400.39C420.004 402.265 417.459 403.318 414.807 403.317C412.154 403.316 409.61 402.262 407.735 400.385C405.86 398.509 404.807 395.964 404.808 393.312C404.809 390.659 405.864 388.115 407.74 386.24L421.74 372.24L435.88 386.39Z" fill="#00D151"/>
<path d="M332.15 282.66L318.15 296.66C316.264 298.481 313.738 299.489 311.116 299.466C308.494 299.443 305.986 298.392 304.132 296.538C302.278 294.684 301.226 292.176 301.204 289.554C301.181 286.932 302.189 284.406 304.01 282.52L318.01 268.52L319.64 270.14L332.15 282.66Z" fill="#00D151"/>
<path d="M366.73 317.24L352.73 331.24C351.801 332.169 350.699 332.906 349.486 333.409C348.272 333.912 346.972 334.171 345.658 334.172C344.345 334.172 343.044 333.914 341.831 333.412C340.617 332.909 339.514 332.173 338.585 331.245C337.656 330.316 336.919 329.214 336.416 328C335.912 326.787 335.653 325.487 335.653 324.173C335.652 322.86 335.911 321.559 336.413 320.345C336.915 319.132 337.651 318.029 338.58 317.1L352.58 303.1L366.73 317.24Z" fill="#00D151"/>
<path d="M295.24 231.6L231.6 295.24L231.43 295.43L295.61 231.24L295.24 231.6Z" fill="#FCFCFC"/>
<path d="M114.26 64.7698L100.26 78.7698C98.3798 80.6409 95.8331 81.6884 93.1804 81.6819C90.5277 81.6753 87.9863 80.6152 86.1152 78.7348C84.2441 76.8545 83.1966 74.3078 83.2032 71.6551C83.2097 69.0024 84.2698 66.4609 86.1502 64.5898L100.15 50.5898L114.26 64.7698Z" fill="#00D151"/>
<path d="M148.84 99.3404L134.84 113.34C132.964 115.216 130.419 116.268 127.767 116.267C125.114 116.267 122.57 115.212 120.695 113.335C118.82 111.459 117.767 108.915 117.768 106.262C117.769 103.609 118.824 101.066 120.7 99.1904L134.7 85.1904L148.84 99.3404Z" fill="#00D151"/>
</svg>
