<svg width="512" height="512" viewBox="0 0 512 512" fill="none" xmlns="http://www.w3.org/2000/svg">
<path d="M330.8 328.38L183.6 181.22C179.04 176.63 172.73 174 166.27 174C164.49 173.99 162.74 174.18 161.02 174.54C152.81 176.26 146.13 181.96 143.13 189.79L51.6499 428.42C49.2899 434.59 49.4599 441.31 52.1499 447.34C54.8399 453.37 59.7199 458 65.8899 460.36C68.6899 461.43 71.6299 461.98 74.6299 462C77.6799 462 80.6899 461.44 83.5499 460.33L322.19 368.85C328.34 366.49 333.21 361.88 335.89 355.87C338.57 349.86 338.76 343.15 336.4 337C335.15 333.74 333.27 330.84 330.8 328.37V328.38ZM117.54 428.45L77.3199 443.81C76.5299 444.14 75.6899 444.31 74.8299 444.34H74.4999L74.1799 444.32C72.5799 444.17 71.0599 443.47 69.8799 442.37C67.7399 440.42 67.0599 437.28 68.1899 434.62L117.54 305.86V428.44V428.45ZM185.1 402.53L135.2 421.65V259.88L159.6 196.21C160.44 193.89 162.47 192.18 164.91 191.75L165.32 191.7C165.71 191.66 166.11 191.66 166.5 191.68C168.29 191.74 169.99 192.51 171.23 193.8L185.09 207.65V402.52L185.1 402.53ZM252.61 376.63L202.72 395.76V225.22L252.61 275.11V376.62V376.63ZM318.33 350.83C317.63 351.53 316.8 352.06 315.88 352.42L270.25 369.91V292.75L318.36 340.86C321.11 343.63 321.1 348.1 318.34 350.84L318.33 350.83Z" fill="#B4B7BA"/>
<path d="M266.83 201.64C268.74 204.36 271.54 206.39 274.71 207.36L297.53 214.44L304.62 237.24C306.29 242.69 311 246.76 316.61 247.63C317.41 247.75 318.22 247.82 319.03 247.82C323.87 247.82 328.44 245.44 331.24 241.46L345.04 221.96L368.92 222.25H369.15C377.41 222.25 384.14 215.55 384.16 207.29C384.16 204.05 383.11 200.84 381.16 198.25L366.86 179.14L374.53 156.52C375.83 152.71 375.58 148.64 373.82 145.05C372.06 141.46 369 138.76 365.21 137.46C363.64 136.92 362.01 136.65 360.35 136.65H360.34C358.68 136.65 357.04 136.92 355.46 137.46L332.85 145.14L313.74 130.87C311.16 128.93 307.99 127.86 304.78 127.86H303.65C301.65 128.01 299.68 128.56 297.89 129.47H297.87C292.8 132.04 289.58 137.36 289.68 143.04L290 166.94L270.5 180.74C263.72 185.5 262.08 194.88 266.83 201.65V201.64ZM303.96 178.65C306.33 176.97 307.72 174.24 307.68 171.34L307.38 148.06L326.03 162C327.56 163.13 329.39 163.74 331.32 163.75C332.26 163.75 333.21 163.59 334.12 163.28L356.17 155.81L348.72 177.84C347.78 180.59 348.26 183.62 349.99 185.95L363.92 204.6L340.63 204.3H340.52C337.66 204.3 334.97 205.69 333.32 208.03L319.9 227.03L312.98 204.81C312.12 202.04 309.95 199.88 307.18 199.02L284.95 192.11L303.95 178.67L303.96 178.65Z" fill="#B4B7BA"/>
<path d="M412.7 240H411.86C410.62 240.12 409.41 240.51 408.32 241.13L335.75 283.03C331.62 285.56 330.3 290.97 332.81 295.12C335.26 299.17 340.42 300.56 344.56 298.3L417.13 256.4C421.29 253.95 422.69 248.54 420.22 244.35C418.65 241.69 415.76 240.02 412.68 240H412.7Z" fill="#B4B7BA"/>
<path d="M453.1 216.41C448.24 216.41 444.28 220.36 444.28 225.23C444.28 230.1 448.23 234.06 453.1 234.07H453.11C455.46 234.07 457.68 233.15 459.35 231.49C461.02 229.82 461.94 227.61 461.94 225.25C461.94 222.92 461 220.64 459.35 218.99C457.68 217.33 455.46 216.41 453.11 216.4H453.1V216.41Z" fill="#B4B7BA"/>
<path d="M223.56 180.42C225.83 179.81 227.73 178.35 228.91 176.32L270.84 103.71C273.27 99.5 271.81 94.1 267.6 91.67C266.27 90.9 264.75 90.5 263.21 90.49H263.2C260.06 90.49 257.12 92.18 255.55 94.9L213.66 167.51C211.23 171.72 212.68 177.12 216.88 179.55C218.92 180.73 221.29 181.04 223.57 180.43L223.56 180.42Z" fill="#B4B7BA"/>
<path d="M286.75 50C284.41 50 282.2 50.93 280.54 52.6C278.88 54.27 277.97 56.49 277.98 58.84C277.98 61.19 278.91 63.4 280.58 65.06C282.24 66.71 284.45 67.62 286.79 67.62H286.82C289.17 67.62 291.38 66.69 293.04 65.02C294.7 63.35 295.61 61.13 295.6 58.78C295.6 56.46 294.64 54.19 292.99 52.55C291.32 50.91 289.11 50 286.75 50Z" fill="#B4B7BA"/>
<path d="M201.72 110.92C201.72 106.06 197.77 102.11 192.91 102.11H186.91V96.11C186.91 91.26 182.95 87.31 178.09 87.3C173.25 87.3 169.3 91.26 169.29 96.12V102.11H163.29C158.43 102.11 154.48 106.06 154.48 110.92C154.48 115.78 158.43 119.73 163.29 119.73H169.29V125.73C169.29 128.09 170.2 130.3 171.87 131.96C173.53 133.63 175.75 134.54 178.1 134.54C180.45 134.54 182.66 133.63 184.33 131.96C186 130.3 186.91 128.08 186.91 125.73V119.72H192.91C197.77 119.72 201.72 115.77 201.72 110.91V110.92Z" fill="#B4B7BA"/>
<path d="M451.92 158.24C451.92 155.89 451.01 153.67 449.34 152.01C447.68 150.35 445.47 149.43 443.13 149.43H443.08C440.79 149.43 438.55 150.36 436.92 151.98L432.66 156.24L428.4 151.98C426.73 150.3 424.51 149.38 422.15 149.38C419.79 149.38 417.57 150.3 415.9 151.96C412.45 155.4 412.44 161.01 415.89 164.46L420.18 168.75L415.86 173.01C412.44 176.42 412.44 182.02 415.88 185.46C419.32 188.9 424.91 188.9 428.36 185.46L432.62 181.19L436.89 185.46C440.33 188.89 445.92 188.89 449.35 185.46C451.01 183.79 451.93 181.58 451.93 179.23C451.93 176.88 451.01 174.66 449.35 173L445.06 168.77L449.34 164.48C451.01 162.81 451.93 160.6 451.93 158.25L451.92 158.24Z" fill="#B4B7BA"/>
<path d="M443.14 60C440.83 60 438.59 60.92 436.96 62.54L384.89 114.62C381.42 118.06 381.39 123.64 384.8 127.1C386.46 128.77 388.66 129.7 391.01 129.71C393.38 129.71 395.58 128.82 397.25 127.16L449.43 74.99C452.84 71.56 452.82 65.97 449.37 62.54C447.71 60.9 445.52 59.99 443.18 59.98H443.13L443.14 60Z" fill="#B4B7BA"/>
<path d="M395.97 315.45C389.03 315.45 383.38 321.1 383.37 328.04C383.37 334.99 389.02 340.64 395.96 340.65C402.9 340.65 408.56 335 408.56 328.06C408.55 321.12 402.89 315.47 395.96 315.45H395.97Z" fill="#B4B7BA"/>
<path d="M357.77 83.85C357.77 76.91 352.11 71.26 345.17 71.26C338.23 71.26 332.59 76.92 332.59 83.86C332.59 90.8 338.24 96.44 345.18 96.44C352.12 96.44 357.76 90.79 357.76 83.85H357.77Z" fill="#B4B7BA"/>
</svg>
