<svg width="64" height="65" viewBox="0 0 64 65" fill="none" xmlns="http://www.w3.org/2000/svg">
<g clip-path="url(#clip0_6669_2212)">
<path d="M62.6777 1.73272C62.8659 1.92108 62.9721 2.17697 62.9711 2.44328L61.9706 2.43983C62.9222 2.44309 62.9682 2.44369 62.9705 2.44397L62.9711 2.44466C62.9711 2.44544 62.9705 2.44695 62.9705 2.44812V2.49783C62.9702 2.53194 62.9693 2.58183 62.9684 2.6463C62.9665 2.77621 62.9631 2.96665 62.9566 3.20908C62.9437 3.69437 62.9189 4.39263 62.871 5.24616C62.7754 6.95186 62.5872 9.28939 62.2185 11.8111C61.8503 14.3291 61.2981 17.0557 60.4659 19.5299C59.6393 21.987 58.5064 24.2887 56.9234 25.8717L38.8715 43.9237L36.09 63.3926C36.0364 63.7673 35.7759 64.08 35.4168 64.1998C35.0575 64.3196 34.6612 64.2258 34.3934 63.9581L0.452274 30.017C0.184444 29.7492 0.090813 29.353 0.210587 28.9936C0.330345 28.6343 0.642941 28.374 1.01782 28.3204L20.4867 25.5389L38.5387 7.48694C40.1217 5.90398 42.4233 4.77107 44.8805 3.9445C47.3547 3.11226 50.0814 2.5601 52.5993 2.19193C55.1213 1.82319 57.4592 1.63567 59.1649 1.54006C60.0185 1.49222 60.716 1.4667 61.2013 1.45375C61.4438 1.44728 61.6342 1.44388 61.7641 1.44201C61.8286 1.44108 61.8785 1.44024 61.9126 1.43994H61.9623C61.9635 1.43988 61.965 1.43925 61.9657 1.43925L61.9664 1.43994C61.9667 1.44289 61.9673 1.48965 61.9699 2.22231L61.9671 1.43925C62.2334 1.43838 62.4893 1.54441 62.6777 1.73272ZM3.28001 30.0163L9.64466 36.381L18.1306 27.895L3.28001 30.0163ZM60.9472 3.4632C60.5078 3.47727 59.9417 3.49917 59.2775 3.5364C57.6124 3.62973 55.3357 3.81252 52.8887 4.17031C50.4377 4.52867 47.839 5.05886 45.5186 5.83933C43.1811 6.6256 41.2177 7.63637 39.9529 8.90116L11.0589 37.7952L26.6152 53.3515L55.5092 24.4575L55.7433 24.2124C56.8995 22.946 57.8339 21.0833 58.5711 18.8918C59.3515 16.5714 59.8817 13.9726 60.2401 11.5217C60.5978 9.07498 60.7807 6.79937 60.874 5.13429C60.9112 4.46973 60.9331 3.90276 60.9472 3.4632ZM28.0294 54.7657L34.3941 61.1304L36.5154 46.2798L28.0294 54.7657Z" fill="#F5F6F7"/>
<path d="M47.1211 24.3599C49.0737 22.4073 49.0737 19.2415 47.1211 17.2889C45.1685 15.3363 42.0027 15.3363 40.05 17.2889C38.0974 19.2415 38.0974 22.4073 40.05 24.3599C42.0027 26.3126 45.1685 26.3126 47.1211 24.3599ZM48.5353 25.7742C45.8016 28.5078 41.3695 28.5078 38.6358 25.7742C35.9022 23.0405 35.9022 18.6083 38.6358 15.8747C41.3695 13.141 45.8016 13.141 48.5353 15.8747C51.269 18.6083 51.269 23.0405 48.5353 25.7742Z" fill="#FEE618"/>
<path d="M4.6947 58.3011L13.18 49.8158C13.5705 49.4253 14.2037 49.4253 14.5942 49.8158C14.9847 50.2063 14.9847 50.8395 14.5942 51.23L6.10891 59.7153C5.71839 60.1058 5.08522 60.1058 4.6947 59.7153C4.30417 59.3248 4.30417 58.6916 4.6947 58.3011Z" fill="#FEE618"/>
<path d="M13.1802 61.1297L18.8371 55.4728C19.2276 55.0823 19.8608 55.0823 20.2513 55.4728C20.6418 55.8633 20.6418 56.4965 20.2513 56.887L14.5944 62.5439C14.2039 62.9344 13.5708 62.9344 13.1802 62.5439C12.7897 62.1534 12.7897 61.5202 13.1802 61.1297Z" fill="#FEE618"/>
<path d="M1.86651 49.816L7.52336 44.1591C7.91389 43.7686 8.54705 43.7686 8.93758 44.1591C9.3281 44.5496 9.3281 45.1828 8.93758 45.5733L3.28072 51.2302C2.8902 51.6207 2.25703 51.6207 1.86651 51.2302C1.47598 50.8396 1.47598 50.2065 1.86651 49.816Z" fill="#FEE618"/>
</g>
<defs>
<clipPath id="clip0_6669_2212">
<rect width="64" height="64" fill="white" transform="translate(0 0.469238)"/>
</clipPath>
</defs>
</svg>
