<?xml version="1.0" encoding="UTF-8"?>
<svg height="600" width="800" xmlns="http://www.w3.org/2000/svg" xmlns:xlink="http://www.w3.org/1999/xlink">
    <g id="Notes" font-family="'LucidaGrande', 'Lucida Grande', sans-serif" font-size="13">
        <rect fill="white" height="600.0" width="800.0" x="0.0" y="0.0" />
        <g font-size="13">
            <text x="18.0" y="176.0">Small</text>
            <text x="18.0" y="376.0">Medium</text>
            <text x="18.0" y="576.0">Large</text>
        </g>
        <g font-size="9">
            <text x="250.0" y="30.0">Ultralight</text>
            <text x="450.0" y="30.0">Regular</text>
            <text x="650.0" y="30.0">Black</text>
            <text id="template-version" fill="#505050" text-anchor="end" x="785.0" y="575.0">Template v.3.0</text>
            <a href="https://github.com/swhitty/SwiftDraw">
                <text fill="#505050" text-anchor="end" x="785.0" y="590.0">https://github.com/swhitty/SwiftDraw</text>
            </a>
        </g>
    </g>
    <g id="Guides" stroke="rgb(39, 170, 225)" stroke-width="0.5">
        <path id="Capline-S" d="M18,76 l800,0" />
        <path id="H-reference" d="M85,145.755 L87.685,145.755 L113.369,79.287 L114.052,79.287 L114.052,76 L112.148,76 L85,145.755 Z M95.693,121.536 L130.996,121.536 L130.263,119.313 L96.474,119.313 L95.693,121.536 Z M139.15,145.755 L141.787,145.755 L114.638,76 L113.466,76 L113.466,79.287 L139.15,145.755 Z" stroke="none" />
        <path id="Baseline-S" d="M18,146 l800,0" />
        <path id="left-margin-Ultralight-S" d="M211,56 l0,110" />
        <path id="right-margin-Ultralight-S" d="M319,56 l0,110" />
        <path id="left-margin-Regular-S" d="M411,56 l0,110" />
        <path id="right-margin-Regular-S" d="M519,56 l0,110" />
        <path id="left-margin-Black-S" d="M611,56 l0,110" />
        <path id="right-margin-Black-S" d="M719,56 l0,110" />
        <path id="Capline-M" d="M18,276 l800,0" />
        <path id="Baseline-M" d="M18,346 l800,0" />
        <path id="Capline-L" d="M18,476 l800,0" />
        <path id="Baseline-L" d="M18,546 l800,0" />
    </g>
    <g id="Symbols">
        <g id="Ultralight-S">
            <path d="M228.791,142.301 C225.518,136.257 223.779,129.472 223.779,122.431 C223.779,108.563 230.571,95.854 241.706,88.153 C242.337,87.717 242.495,86.851 242.059,86.22 C241.622,85.589 240.757,85.431 240.125,85.868 C228.246,94.083 221,107.642 221,122.431 C221,129.937 222.856,137.177 226.348,143.624 C226.713,144.299 227.556,144.55 228.231,144.184 C228.906,143.819 229.157,142.976 228.791,142.301 Z M303.652,143.624 C307.144,137.177 309,129.937 309,122.431 C309,97.956 289.303,78.111 265,78.111 C261.903,78.111 258.847,78.433 255.865,79.067 C255.114,79.227 254.635,79.965 254.795,80.716 C254.955,81.466 255.693,81.945 256.443,81.786 C259.235,81.192 262.098,80.89 265,80.89 C287.763,80.89 306.221,99.486 306.221,122.431 C306.221,129.472 304.482,136.257 301.209,142.301 C300.843,142.976 301.094,143.819 301.769,144.184 C302.444,144.55 303.287,144.299 303.652,143.624 Z" />
            <path d="M242.768,83.205 C242.768,80.136 245.257,77.648 248.326,77.648 C251.396,77.648 253.884,80.136 253.884,83.205 C253.884,86.275 251.396,88.763 248.326,88.763 C245.257,88.763 242.768,86.275 242.768,83.205 Z" />
            <path d="M263.611,79.5 L263.611,86.911 C263.611,87.678 264.233,88.3 265,88.3 C265.767,88.3 266.389,87.678 266.389,86.911 L266.389,79.5 C266.389,78.733 265.767,78.111 265,78.111 C264.233,78.111 263.611,78.733 263.611,79.5 Z" />
            <path d="M307.611,122.574 L300.2,122.574 C299.433,122.574 298.811,123.196 298.811,123.963 C298.811,124.731 299.433,125.353 300.2,125.353 L307.611,125.353 C308.378,125.353 309,124.731 309,123.963 C309,123.196 308.378,122.574 307.611,122.574 Z" />
            <path d="M229.8,122.574 L222.389,122.574 C221.622,122.574 221,123.196 221,123.963 C221,124.731 221.622,125.353 222.389,125.353 L229.8,125.353 C230.567,125.353 231.189,124.731 231.189,123.963 C231.189,123.196 230.567,122.574 229.8,122.574 Z" />
            <path d="M295.512,93.339 L290.272,98.579 C289.73,99.121 289.73,100.001 290.272,100.544 C290.815,101.086 291.695,101.086 292.237,100.544 L297.477,95.304 C298.02,94.761 298.02,93.881 297.477,93.339 C296.935,92.796 296.055,92.796 295.512,93.339 Z" />
            <path d="M232.523,95.304 L237.763,100.544 C238.305,101.086 239.185,101.086 239.728,100.544 C240.27,100.001 240.27,99.121 239.728,98.579 L234.488,93.339 C233.945,92.796 233.065,92.796 232.523,93.339 C231.98,93.881 231.98,94.761 232.523,95.304 Z" />
            <path d="M242.768,83.205 C242.768,80.136 245.257,77.648 248.326,77.648 C251.396,77.648 253.884,80.136 253.884,83.205 C253.884,86.275 251.396,88.763 248.326,88.763 C245.257,88.763 242.768,86.275 242.768,83.205 Z" />
            <path d="M278.112,133.227 L275.959,133.227 L275.959,114.711 L286.268,114.711 L286.268,116.611 L278.112,116.611 L278.112,123.399 L285.774,123.399 L285.774,125.286 L278.112,125.286 L278.112,133.227 Z" />
            <path d="M264.528,133.227 L262.375,133.227 L262.375,114.711 L272.684,114.711 L272.684,116.611 L264.528,116.611 L264.528,123.399 L272.19,123.399 L272.19,125.286 L264.528,125.286 L264.528,133.227 Z" />
            <path d="M258.061,123.944 C258.061,125.37 257.879,126.671 257.516,127.844 C257.153,129.009 256.613,130.014 255.895,130.858 C255.186,131.694 254.304,132.34 253.248,132.796 C252.193,133.252 250.969,133.48 249.576,133.48 C248.14,133.48 246.887,133.252 245.814,132.796 C244.751,132.34 243.864,131.69 243.155,130.846 C242.454,130.001 241.926,128.992 241.572,127.819 C241.226,126.645 241.053,125.345 241.053,123.918 C241.053,122.027 241.365,120.368 241.99,118.941 C242.614,117.514 243.56,116.404 244.827,115.61 C246.101,114.817 247.697,114.42 249.614,114.42 C251.446,114.42 252.987,114.812 254.236,115.598 C255.494,116.383 256.444,117.489 257.086,118.916 C257.736,120.334 258.061,122.01 258.061,123.944 Z M243.32,123.944 C243.32,125.514 243.543,126.873 243.991,128.021 C244.438,129.17 245.122,130.056 246.042,130.681 C246.971,131.306 248.149,131.618 249.576,131.618 C251.011,131.618 252.185,131.306 253.096,130.681 C254.017,130.056 254.696,129.17 255.135,128.021 C255.575,126.873 255.794,125.514 255.794,123.944 C255.794,121.554 255.292,119.688 254.287,118.346 C253.291,116.995 251.733,116.319 249.614,116.319 C248.178,116.319 246.996,116.628 246.068,117.244 C245.139,117.86 244.447,118.738 243.991,119.878 C243.543,121.01 243.32,122.365 243.32,123.944 Z" />
        </g>
        <g id="Regular-S">
            <path d="M428.791,142.301 C425.518,136.257 423.779,129.472 423.779,122.431 C423.779,108.563 430.571,95.854 441.706,88.153 C442.337,87.717 442.495,86.851 442.059,86.22 C441.622,85.589 440.757,85.431 440.125,85.868 C428.246,94.083 421,107.642 421,122.431 C421,129.937 422.856,137.177 426.348,143.624 C426.713,144.299 427.556,144.55 428.231,144.184 C428.906,143.819 429.157,142.976 428.791,142.301 Z M503.652,143.624 C507.144,137.177 509,129.937 509,122.431 C509,97.956 489.303,78.111 465,78.111 C461.903,78.111 458.847,78.433 455.865,79.067 C455.114,79.227 454.635,79.965 454.795,80.716 C454.955,81.466 455.693,81.945 456.443,81.786 C459.235,81.192 462.098,80.89 465,80.89 C487.763,80.89 506.221,99.486 506.221,122.431 C506.221,129.472 504.482,136.257 501.209,142.301 C500.843,142.976 501.094,143.819 501.769,144.184 C502.444,144.55 503.287,144.299 503.652,143.624 Z" />
            <path d="M442.768,83.205 C442.768,80.136 445.257,77.648 448.326,77.648 C451.396,77.648 453.884,80.136 453.884,83.205 C453.884,86.275 451.396,88.763 448.326,88.763 C445.257,88.763 442.768,86.275 442.768,83.205 Z" />
            <path d="M463.611,79.5 L463.611,86.911 C463.611,87.678 464.233,88.3 465,88.3 C465.767,88.3 466.389,87.678 466.389,86.911 L466.389,79.5 C466.389,78.733 465.767,78.111 465,78.111 C464.233,78.111 463.611,78.733 463.611,79.5 Z" />
            <path d="M507.611,122.574 L500.2,122.574 C499.433,122.574 498.811,123.196 498.811,123.963 C498.811,124.731 499.433,125.353 500.2,125.353 L507.611,125.353 C508.378,125.353 509,124.731 509,123.963 C509,123.196 508.378,122.574 507.611,122.574 Z" />
            <path d="M429.8,122.574 L422.389,122.574 C421.622,122.574 421,123.196 421,123.963 C421,124.731 421.622,125.353 422.389,125.353 L429.8,125.353 C430.567,125.353 431.189,124.731 431.189,123.963 C431.189,123.196 430.567,122.574 429.8,122.574 Z" />
            <path d="M495.512,93.339 L490.272,98.579 C489.73,99.121 489.73,100.001 490.272,100.544 C490.815,101.086 491.695,101.086 492.237,100.544 L497.477,95.304 C498.02,94.761 498.02,93.881 497.477,93.339 C496.935,92.796 496.055,92.796 495.512,93.339 Z" />
            <path d="M432.523,95.304 L437.763,100.544 C438.305,101.086 439.185,101.086 439.728,100.544 C440.27,100.001 440.27,99.121 439.728,98.579 L434.488,93.339 C433.945,92.796 433.065,92.796 432.523,93.339 C431.98,93.881 431.98,94.761 432.523,95.304 Z" />
            <path d="M442.768,83.205 C442.768,80.136 445.257,77.648 448.326,77.648 C451.396,77.648 453.884,80.136 453.884,83.205 C453.884,86.275 451.396,88.763 448.326,88.763 C445.257,88.763 442.768,86.275 442.768,83.205 Z" />
            <path d="M478.112,133.227 L475.959,133.227 L475.959,114.711 L486.268,114.711 L486.268,116.611 L478.112,116.611 L478.112,123.399 L485.774,123.399 L485.774,125.286 L478.112,125.286 L478.112,133.227 Z" />
            <path d="M464.528,133.227 L462.375,133.227 L462.375,114.711 L472.684,114.711 L472.684,116.611 L464.528,116.611 L464.528,123.399 L472.19,123.399 L472.19,125.286 L464.528,125.286 L464.528,133.227 Z" />
            <path d="M458.061,123.944 C458.061,125.37 457.879,126.671 457.516,127.844 C457.153,129.009 456.613,130.014 455.895,130.858 C455.186,131.694 454.304,132.34 453.248,132.796 C452.193,133.252 450.969,133.48 449.576,133.48 C448.141,133.48 446.887,133.252 445.814,132.796 C444.751,132.34 443.864,131.69 443.155,130.846 C442.454,130.001 441.926,128.992 441.572,127.819 C441.226,126.645 441.052,125.345 441.052,123.918 C441.052,122.027 441.365,120.368 441.99,118.941 C442.614,117.514 443.56,116.404 444.827,115.61 C446.101,114.817 447.697,114.42 449.614,114.42 C451.446,114.42 452.987,114.812 454.236,115.598 C455.494,116.383 456.444,117.489 457.086,118.916 C457.736,120.334 458.061,122.01 458.061,123.944 Z M443.32,123.944 C443.32,125.514 443.543,126.873 443.991,128.021 C444.438,129.17 445.122,130.056 446.042,130.681 C446.971,131.306 448.149,131.618 449.576,131.618 C451.011,131.618 452.185,131.306 453.096,130.681 C454.017,130.056 454.696,129.17 455.135,128.021 C455.575,126.873 455.794,125.514 455.794,123.944 C455.794,121.554 455.292,119.688 454.287,118.346 C453.291,116.995 451.733,116.319 449.614,116.319 C448.178,116.319 446.996,116.628 446.068,117.244 C445.139,117.86 444.447,118.738 443.991,119.878 C443.543,121.01 443.32,122.365 443.32,123.944 Z" />
        </g>
        <g id="Black-S">
            <path d="M628.791,142.301 C625.518,136.257 623.779,129.472 623.779,122.431 C623.779,108.563 630.571,95.854 641.706,88.153 C642.337,87.717 642.495,86.851 642.059,86.22 C641.622,85.589 640.757,85.431 640.125,85.868 C628.246,94.083 621,107.642 621,122.431 C621,129.937 622.856,137.177 626.348,143.624 C626.713,144.299 627.556,144.55 628.231,144.184 C628.906,143.819 629.157,142.976 628.791,142.301 Z M703.652,143.624 C707.144,137.177 709,129.937 709,122.431 C709,97.956 689.303,78.111 665,78.111 C661.903,78.111 658.847,78.433 655.865,79.067 C655.114,79.227 654.635,79.965 654.795,80.716 C654.955,81.466 655.693,81.945 656.443,81.786 C659.235,81.192 662.098,80.89 665,80.89 C687.763,80.89 706.221,99.486 706.221,122.431 C706.221,129.472 704.482,136.257 701.209,142.301 C700.843,142.976 701.094,143.819 701.769,144.184 C702.444,144.55 703.287,144.299 703.652,143.624 Z" />
            <path d="M642.768,83.205 C642.768,80.136 645.257,77.648 648.326,77.648 C651.396,77.648 653.884,80.136 653.884,83.205 C653.884,86.275 651.396,88.763 648.326,88.763 C645.257,88.763 642.768,86.275 642.768,83.205 Z" />
            <path d="M663.611,79.5 L663.611,86.911 C663.611,87.678 664.233,88.3 665,88.3 C665.767,88.3 666.39,87.678 666.39,86.911 L666.39,79.5 C666.39,78.733 665.767,78.111 665,78.111 C664.233,78.111 663.611,78.733 663.611,79.5 Z" />
            <path d="M707.611,122.574 L700.2,122.574 C699.433,122.574 698.811,123.196 698.811,123.963 C698.811,124.731 699.433,125.353 700.2,125.353 L707.611,125.353 C708.378,125.353 709,124.731 709,123.963 C709,123.196 708.378,122.574 707.611,122.574 Z" />
            <path d="M629.8,122.574 L622.39,122.574 C621.622,122.574 621,123.196 621,123.963 C621,124.731 621.622,125.353 622.39,125.353 L629.8,125.353 C630.567,125.353 631.19,124.731 631.19,123.963 C631.19,123.196 630.567,122.574 629.8,122.574 Z" />
            <path d="M695.512,93.339 L690.272,98.579 C689.73,99.121 689.73,100.001 690.272,100.544 C690.815,101.086 691.695,101.086 692.237,100.544 L697.477,95.304 C698.02,94.761 698.02,93.881 697.477,93.339 C696.935,92.796 696.055,92.796 695.512,93.339 Z" />
            <path d="M632.523,95.304 L637.763,100.544 C638.305,101.086 639.185,101.086 639.728,100.544 C640.27,100.001 640.27,99.121 639.728,98.579 L634.488,93.339 C633.945,92.796 633.065,92.796 632.523,93.339 C631.98,93.881 631.98,94.761 632.523,95.304 Z" />
            <path d="M642.768,83.205 C642.768,80.136 645.257,77.648 648.326,77.648 C651.396,77.648 653.884,80.136 653.884,83.205 C653.884,86.275 651.396,88.763 648.326,88.763 C645.257,88.763 642.768,86.275 642.768,83.205 Z" />
            <path d="M678.112,133.227 L675.959,133.227 L675.959,114.711 L686.268,114.711 L686.268,116.611 L678.112,116.611 L678.112,123.399 L685.774,123.399 L685.774,125.286 L678.112,125.286 L678.112,133.227 Z" />
            <path d="M664.528,133.227 L662.375,133.227 L662.375,114.711 L672.684,114.711 L672.684,116.611 L664.528,116.611 L664.528,123.399 L672.19,123.399 L672.19,125.286 L664.528,125.286 L664.528,133.227 Z" />
            <path d="M658.061,123.944 C658.061,125.37 657.879,126.671 657.516,127.844 C657.153,129.009 656.613,130.014 655.895,130.858 C655.186,131.694 654.304,132.34 653.248,132.796 C652.193,133.252 650.969,133.48 649.576,133.48 C648.141,133.48 646.887,133.252 645.814,132.796 C644.751,132.34 643.864,131.69 643.155,130.846 C642.454,130.001 641.926,128.992 641.572,127.819 C641.226,126.645 641.053,125.345 641.053,123.918 C641.053,122.027 641.365,120.368 641.99,118.941 C642.615,117.514 643.56,116.404 644.827,115.61 C646.102,114.817 647.697,114.42 649.614,114.42 C651.446,114.42 652.987,114.812 654.236,115.598 C655.494,116.383 656.444,117.489 657.086,118.916 C657.736,120.334 658.061,122.01 658.061,123.944 Z M643.32,123.944 C643.32,125.514 643.543,126.873 643.991,128.021 C644.438,129.17 645.122,130.056 646.042,130.681 C646.971,131.306 648.149,131.618 649.576,131.618 C651.011,131.618 652.185,131.306 653.096,130.681 C654.017,130.056 654.696,129.17 655.135,128.021 C655.575,126.873 655.794,125.514 655.794,123.944 C655.794,121.554 655.292,119.688 654.287,118.346 C653.291,116.995 651.733,116.319 649.614,116.319 C648.179,116.319 646.997,116.628 646.068,117.244 C645.139,117.86 644.447,118.738 643.991,119.878 C643.543,121.01 643.32,122.365 643.32,123.944 Z" />
        </g>
    </g>
</svg>