<svg width="512" height="512" viewBox="0 0 512 512" fill="none" xmlns="http://www.w3.org/2000/svg">
<path d="M401 131.5H210V95.5C210 92.8478 208.946 90.3043 207.071 88.4289C205.196 86.5536 202.652 85.5 200 85.5H128C125.348 85.5 122.804 86.5536 120.929 88.4289C119.054 90.3043 118 92.8478 118 95.5V131.5H111C81.8367 131.534 53.8778 143.135 33.2563 163.756C12.6347 184.378 1.0344 212.337 1 241.5V287.5C1.03176 316.664 12.6312 344.625 33.2533 365.247C53.8755 385.869 81.8359 397.468 111 397.5H118V416.5C118 419.152 119.054 421.696 120.929 423.571C122.804 425.446 125.348 426.5 128 426.5H200C202.652 426.5 205.196 425.446 207.071 423.571C208.946 421.696 210 419.152 210 416.5V397.5H302V416.5C302 419.152 303.054 421.696 304.929 423.571C306.804 425.446 309.348 426.5 312 426.5H384C386.652 426.5 389.196 425.446 391.071 423.571C392.946 421.696 394 419.152 394 416.5V397.5H401C430.164 397.468 458.125 385.869 478.747 365.247C499.369 344.625 510.968 316.664 511 287.5V241.5C510.966 212.337 499.365 184.378 478.744 163.756C458.122 143.135 430.163 131.534 401 131.5ZM118 377.5H111C87.1386 377.474 64.2622 367.983 47.3896 351.11C30.5171 334.238 21.0265 311.361 21 287.5V241.5C21.0265 217.639 30.5171 194.762 47.3896 177.89C64.2622 161.017 87.1386 151.526 111 151.5H118V377.5ZM138 105.5H190V131.5H138V105.5ZM190 406.5H138V397.5H190V406.5ZM138 377.5V151.5H373V377.5H138ZM374 406.5H322V397.5H374V406.5ZM491 287.5C490.974 311.361 481.483 334.238 464.61 351.11C447.738 367.983 424.861 377.474 401 377.5H393V151.5H401C424.861 151.526 447.738 161.017 464.61 177.89C481.483 194.762 490.974 217.639 491 241.5V287.5Z" fill="black"/>
<path d="M256 309.999C244.861 309.999 234.178 305.574 226.302 297.697C218.425 289.821 214 279.138 214 267.999C214 240.649 245.35 208.509 248.93 204.929C250.805 203.054 253.348 202.001 256 202.001C258.652 202.001 261.195 203.054 263.07 204.929C266.65 208.509 298 240.649 298 267.999C298 279.138 293.575 289.821 285.698 297.697C277.822 305.574 267.139 309.999 256 309.999ZM256 226.789C245.61 238.989 234 256.369 234 267.999C234 273.834 236.318 279.429 240.444 283.555C244.569 287.681 250.165 289.999 256 289.999C261.835 289.999 267.431 287.681 271.556 283.555C275.682 279.429 278 273.834 278 267.999C278 256.369 266.39 238.989 256 226.789Z" fill="#00D151"/>
</svg>
