<svg width="24" height="24" viewBox="0 0 24 24" fill="none" xmlns="http://www.w3.org/2000/svg">
<path fill-rule="evenodd" clip-rule="evenodd" d="M11.125 9.125C11.125 9.60825 11.5168 10 12 10C12.4833 10 12.875 9.60825 12.875 9.125V2.875C12.875 2.39175 12.4833 2 12 2C11.5168 2 11.125 2.39175 11.125 2.875V9.125ZM6.12976 18.7452C2.95675 15.5722 2.95675 10.4278 6.12976 7.25476C6.47147 6.91305 6.47147 6.35903 6.12976 6.01732C5.78805 5.67561 5.23403 5.67561 4.89232 6.01732C1.03589 9.87375 1.03589 16.1263 4.89232 19.9827C8.74875 23.8391 15.0013 23.8391 18.8577 19.9827C22.7141 16.1263 22.7141 9.87375 18.8577 6.01732C18.516 5.67561 17.962 5.67561 17.6202 6.01732C17.2785 6.35903 17.2785 6.91305 17.6202 7.25476C20.7933 10.4278 20.7933 15.5722 17.6202 18.7452C14.4472 21.9183 9.30277 21.9183 6.12976 18.7452Z" fill="#F5F6F7"/>
</svg>
