<svg width="458" height="524" viewBox="0 0 458 524" fill="none" xmlns="http://www.w3.org/2000/svg">
<path fill-rule="evenodd" clip-rule="evenodd" d="M113.91 0.0267536C160.359 1.74224 195.658 21.7851 217.153 63.8696C224.823 79.2672 228.445 96.369 227.677 113.559C227.422 123.297 225.756 132.947 222.731 142.206C222.538 142.571 222.422 142.972 222.391 143.384C222.359 143.796 222.414 144.21 222.55 144.6C222.686 144.99 222.901 145.348 223.182 145.651C223.463 145.953 223.803 146.195 224.181 146.36C257.001 167.163 289.799 188.01 322.575 208.9C330.022 213.627 337.517 218.26 344.861 223.173C345.297 223.588 345.811 223.911 346.374 224.122C346.937 224.333 347.537 224.429 348.137 224.404C348.738 224.378 349.327 224.232 349.87 223.974C350.413 223.715 350.898 223.35 351.298 222.9C362.594 213.442 376.848 208.255 391.573 208.244C406.692 207.824 421.474 212.756 433.321 222.173C445.167 231.59 453.318 244.888 456.34 259.728C458.614 272.364 456.908 285.395 451.459 297.018C446.011 308.64 437.088 318.278 425.927 324.597C416.05 330.491 404.786 333.652 393.288 333.757C381.791 333.862 370.471 330.906 360.488 325.193C360.194 324.971 359.858 324.812 359.499 324.727C359.141 324.641 358.769 324.631 358.406 324.697C358.044 324.763 357.699 324.904 357.394 325.11C357.089 325.317 356.83 325.584 356.633 325.896C344.215 339.174 331.76 352.423 319.268 365.642C305.648 380.13 292.034 394.627 278.427 409.132C273.804 414.066 269.277 419.066 264.547 423.882C262.863 425.598 263 426.584 264.643 428.229C273.777 436.989 279.434 448.763 280.57 461.377C281.726 471.026 280.234 480.808 276.252 489.671C272.271 498.534 265.951 506.141 257.974 511.675C226.334 535.016 180.044 521.142 167.933 483.315C164.42 471.996 164.672 459.841 168.653 448.678C172.633 437.515 180.126 427.948 190.003 421.417C190.493 421.194 190.932 420.875 191.297 420.478C191.661 420.082 191.943 419.617 192.125 419.11C192.307 418.603 192.387 418.065 192.358 417.527C192.33 416.989 192.194 416.462 191.959 415.978C186.81 398.989 180.706 382.364 174.995 365.566C158.729 317.827 142.428 270.115 126.091 222.427C125.459 220.565 124.797 219.842 122.528 219.979C107.192 221.225 91.7623 219.36 77.1626 214.495C62.5629 209.63 49.0934 201.865 37.5603 191.665C17.2523 174.478 4.21446 150.213 1.08035 123.772C-1.00917 108.897 0.122162 93.7468 4.39752 79.349C8.67289 64.9512 15.9922 51.6433 25.8583 40.3291C44.4548 18.098 70.8671 3.86851 99.6399 0.579707C101.509 0.300163 103.39 0.117821 105.278 0.0334152C108.159 -0.0398678 111.039 0.0267536 113.91 0.0267536ZM158.127 213.237C158.203 213.57 158.33 214.173 158.476 214.786C162.537 231.848 166.599 248.915 170.664 265.987C182.122 314.13 193.552 362.278 204.955 410.432C205.557 413.006 206.455 413.493 209.007 412.88C222.552 409.386 236.905 410.944 249.388 417.264C249.738 417.524 250.14 417.706 250.567 417.798C250.993 417.889 251.435 417.887 251.86 417.792C252.286 417.697 252.687 417.512 253.034 417.248C253.382 416.984 253.669 416.649 253.876 416.264C282.652 381.318 311.701 346.602 339.788 311.096C341.152 309.381 340.84 308.338 339.729 306.689C325.202 285.231 323.995 263.023 336.369 240.242C337.596 237.97 337.234 237.151 335.105 236.001C311.77 223.368 288.463 210.678 265.185 197.931C247.818 188.451 230.428 179.037 213.075 169.514C211.155 168.461 210.154 168.704 208.967 170.513C205.695 175.475 201.977 180.128 197.86 184.413C187.187 195.697 174.328 204.683 160.069 210.822C159.151 211.248 157.848 211.385 158.127 213.237ZM190.419 108.839C190.566 101.317 189.281 93.837 186.634 86.7972C175.011 56.1515 152.406 39.2032 120.23 36.2186C108.079 34.8787 95.785 36.5703 84.4449 41.1426C73.1048 45.7149 63.0705 53.0259 55.2365 62.4239C44.7346 74.3942 38.4822 89.5075 37.4539 105.408C36.4256 121.309 40.6793 137.103 49.5518 150.33C58.2765 163.133 70.6148 173.041 84.9902 178.787C99.3656 184.533 115.125 185.856 130.255 182.588C147.269 179.19 162.573 169.975 173.549 156.521C184.524 143.068 190.488 126.211 190.419 108.839ZM223.909 505.233C225.945 505.29 227.98 505.103 229.973 504.677C235.681 503.833 241.123 501.702 245.889 498.443C250.654 495.185 254.618 490.885 257.481 485.868C260.344 480.851 262.032 475.248 262.416 469.483C262.801 463.717 261.872 457.94 259.7 452.586C256.085 444.471 249.885 437.786 242.07 433.577C234.256 429.368 225.268 427.873 216.514 429.325C211.422 430.111 206.539 431.913 202.155 434.623C197.77 437.334 193.974 440.898 190.99 445.104C188.006 449.31 185.895 454.074 184.783 459.112C183.671 464.15 183.58 469.36 184.515 474.434C186.471 483.359 191.477 491.32 198.669 496.943C205.861 502.566 214.788 505.498 223.909 505.233ZM392.667 233.566C389.972 233.562 387.281 233.797 384.627 234.269C379.214 235.277 374.091 237.474 369.627 240.702C365.162 243.929 361.468 248.108 358.81 252.937C356.152 257.766 354.595 263.125 354.253 268.628C353.91 274.132 354.79 279.643 356.829 284.765C360.787 293.851 368.038 301.097 377.121 305.041C386.203 308.985 396.441 309.334 405.77 306.017C414.482 303.12 421.814 297.097 426.355 289.108C430.896 281.119 432.323 271.73 430.361 262.75C428.315 254.327 423.469 246.852 416.62 241.552C409.771 236.252 401.325 233.442 392.671 233.583L392.667 233.566Z" fill="white"/>
</svg>
