<svg width="512" height="512" viewBox="0 0 512 512" fill="none" xmlns="http://www.w3.org/2000/svg">
<path fill-rule="evenodd" clip-rule="evenodd" d="M160.442 200C165.964 200 170.442 204.477 170.442 210V240.93C178.355 239.666 185.984 236.89 192.901 232.721C197.631 229.87 203.776 231.394 206.627 236.124C209.478 240.854 207.955 246.999 203.225 249.85C193.184 255.902 182.006 259.728 170.442 261.121V338.68L237.612 299.899C233.047 289.185 230.771 277.595 230.978 265.877C231.075 260.355 235.63 255.958 241.152 256.055C246.674 256.152 251.072 260.708 250.975 266.23C250.832 274.309 252.244 282.308 255.101 289.802L281.882 274.34C286.664 271.578 292.78 273.217 295.542 278C298.303 282.783 296.664 288.899 291.882 291.66L265.098 307.124C270.156 313.345 276.375 318.569 283.441 322.487C288.271 325.165 290.014 331.252 287.336 336.082C284.657 340.912 278.571 342.656 273.741 339.977C263.495 334.295 254.601 326.529 247.61 317.22L180.442 356L247.61 394.78C254.601 385.471 263.495 377.705 273.741 372.023C278.571 369.344 284.657 371.088 287.336 375.918C290.014 380.748 288.271 386.835 283.441 389.513C276.375 393.431 270.156 398.655 265.098 404.876L291.882 420.34C296.664 423.101 298.303 429.217 295.542 434C292.78 438.783 286.664 440.422 281.882 437.66L255.101 422.198C252.244 429.692 250.832 437.691 250.975 445.77C251.072 451.292 246.674 455.848 241.152 455.945C235.63 456.042 231.075 451.645 230.978 446.123C230.771 434.405 233.047 422.815 237.612 412.101L170.442 373.32V450.89C181.997 452.291 193.168 456.11 203.211 462.141C207.946 464.985 209.479 471.128 206.635 475.863C203.792 480.597 197.649 482.131 192.914 479.287C185.989 475.128 178.357 472.354 170.442 471.083V502C170.442 507.523 165.964 512 160.442 512C154.919 512 150.442 507.523 150.442 502V471.083C142.526 472.354 134.894 475.128 127.969 479.287C123.234 482.131 117.091 480.597 114.248 475.863C111.404 471.128 112.937 464.985 117.672 462.141C127.715 456.11 138.886 452.291 150.442 450.89V373.32L83.2712 412.101C87.836 422.815 90.1119 434.405 89.9054 446.123C89.8081 451.645 85.2527 456.042 79.7307 455.945C74.2087 455.848 69.8112 451.292 69.9085 445.77C70.0509 437.691 68.6389 429.692 65.7826 422.198L39.0017 437.66C34.2187 440.422 28.1028 438.783 25.3414 434C22.58 429.217 24.2187 423.101 29.0017 420.34L55.7853 404.876C50.7268 398.655 44.5081 393.431 37.4425 389.513C32.6126 386.835 30.8687 380.748 33.5472 375.918C36.2257 371.088 42.3125 369.344 47.1423 372.023C57.3882 377.705 66.2822 385.471 73.2733 394.78L140.442 356L73.2733 317.22C66.2822 326.529 57.3882 334.295 47.1423 339.977C42.3125 342.656 36.2257 340.912 33.5472 336.082C30.8687 331.252 32.6126 325.165 37.4425 322.487C44.5081 318.569 50.7268 313.345 55.7853 307.124L29.0017 291.66C24.2187 288.899 22.58 282.783 25.3414 278C28.1028 273.217 34.2187 271.578 39.0017 274.34L65.7826 289.802C68.6389 282.308 70.0509 274.309 69.9085 266.23C69.8112 260.708 74.2087 256.152 79.7307 256.055C85.2527 255.958 89.8081 260.355 89.9054 265.877C90.1119 277.595 87.836 289.185 83.2712 299.899L150.442 338.68V261.121C138.878 259.728 127.699 255.902 117.658 249.85C112.928 246.999 111.405 240.854 114.256 236.124C117.107 231.394 123.253 229.87 127.983 232.721C134.899 236.89 142.528 239.666 150.442 240.93V210C150.442 204.477 154.919 200 160.442 200Z" fill="#282828"/>
<path d="M421.546 307.2V402.48L418.626 403.82C411.056 407.29 405.296 413.49 402.396 421.3C399.496 429.1 399.816 437.57 403.276 445.13C406.736 452.69 412.946 458.46 420.756 461.36C428.556 464.26 437.026 463.94 444.586 460.48C460.206 453.32 467.086 434.79 459.926 419.17C456.816 412.38 451.366 406.94 444.586 403.83L441.666 402.49V307.19C441.666 301.65 437.146 297.14 431.596 297.13C426.056 297.13 421.536 301.65 421.536 307.2H421.546Z" fill="#007AFF"/>
<path d="M431.614 70.5C402.844 70.53 379.404 93.97 379.374 122.76V370.99L377.704 372.48C360.724 387.62 351.084 409.35 351.244 432.09C351.434 449.42 357.054 465.88 367.504 479.68L368.004 480.33C383.294 500.43 406.464 511.96 431.624 512C457.104 511.96 480.464 500.2 495.704 479.72C506.184 465.89 511.804 449.42 511.994 432.08C512.144 409.37 502.504 387.65 485.544 372.52L483.874 371.03V122.78C483.854 93.99 460.414 70.54 431.614 70.5ZM441.224 92.6C454.114 96.61 463.444 108.46 463.724 122.66V375.88C463.724 379.03 465.234 382.04 467.744 383.94C494.314 403.85 499.724 441.69 479.804 468.27C468.494 483.36 450.474 492.38 431.604 492.38C398.384 492.36 371.374 465.32 371.384 432.1C371.384 413.25 380.394 395.23 395.474 383.92C397.964 382.04 399.464 379.03 399.474 375.9V122.75C399.744 108.51 409.194 96.61 422.034 92.6C422.034 92.6 431.174 89.62 441.234 92.6H441.224Z" fill="#282828"/>
<path fill-rule="evenodd" clip-rule="evenodd" d="M167.509 24.9289C163.603 21.0237 157.272 21.0237 153.366 24.9289L93.3664 84.9289C89.4612 88.8342 89.4612 95.1658 93.3664 99.0711C97.2717 102.976 103.603 102.976 107.509 99.0711L160.437 46.1421L213.366 99.0711C217.272 102.976 223.603 102.976 227.509 99.0711C231.414 95.1658 231.414 88.8342 227.509 84.9289L167.509 24.9289Z" fill="#EB3A28"/>
<path fill-rule="evenodd" clip-rule="evenodd" d="M167.509 84.9289C163.603 81.0237 157.272 81.0237 153.366 84.9289L93.3664 144.929C89.4612 148.834 89.4612 155.166 93.3664 159.071C97.2717 162.976 103.603 162.976 107.509 159.071L160.437 106.142L213.366 159.071C217.272 162.976 223.603 162.976 227.509 159.071C231.414 155.166 231.414 148.834 227.509 144.929L167.509 84.9289Z" fill="#EB3A28"/>
</svg>
