<svg width="24" height="25" viewBox="0 0 24 25" fill="none" xmlns="http://www.w3.org/2000/svg">
<path d="M12 5.86663C11.223 5.86663 10.4635 6.09704 9.81741 6.52871C9.17136 6.96039 8.66782 7.57395 8.37048 8.2918C8.07313 9.00965 7.99533 9.79956 8.14692 10.5616C8.2985 11.3237 8.67266 12.0237 9.22208 12.5731C9.7715 13.1225 10.4715 13.4967 11.2336 13.6483C11.9956 13.7999 12.7856 13.7221 13.5034 13.4247C14.2213 13.1274 14.8348 12.6238 15.2665 11.9778C15.6982 11.3317 15.9286 10.5722 15.9286 9.7952C15.9286 8.75328 15.5147 7.75403 14.7779 7.01728C14.0412 6.28053 13.0419 5.86663 12 5.86663ZM12 12.1523C11.5338 12.1523 11.0781 12.0141 10.6904 11.7551C10.3028 11.4961 10.0007 11.128 9.82229 10.6972C9.64388 10.2665 9.5972 9.79258 9.68815 9.33534C9.7791 8.8781 10.0036 8.4581 10.3333 8.12845C10.6629 7.7988 11.0829 7.5743 11.5401 7.48335C11.9974 7.3924 12.4713 7.43908 12.902 7.61748C13.3328 7.79589 13.7009 8.09801 13.9599 8.48564C14.2189 8.87327 14.3571 9.329 14.3571 9.7952C14.3565 10.4202 14.108 11.0193 13.6661 11.4613C13.2242 11.9032 12.625 12.1517 12 12.1523Z" fill="#00D151"/>
<path d="M12 1.15234C9.82441 1.15234 7.69767 1.79748 5.88873 3.00618C4.07979 4.21487 2.66989 5.93284 1.83733 7.94282C1.00477 9.95281 0.786929 12.1645 1.21137 14.2983C1.6358 16.4321 2.68345 18.3921 4.22183 19.9305C5.76021 21.4689 7.72022 22.5165 9.85401 22.941C11.9878 23.3654 14.1995 23.1476 16.2095 22.315C18.2195 21.4825 19.9375 20.0726 21.1462 18.2636C22.3549 16.4547 23 14.3279 23 12.1523C22.9967 9.23598 21.8367 6.44002 19.7745 4.37784C17.7123 2.31566 14.9164 1.15567 12 1.15234ZM7.28572 20.3057V19.2238C7.28634 18.5988 7.53488 17.9996 7.9768 17.5577C8.41871 17.1158 9.0179 16.8673 9.64286 16.8666H14.3571C14.9821 16.8673 15.5813 17.1158 16.0232 17.5577C16.4651 17.9996 16.7137 18.5988 16.7143 19.2238V20.3057C15.2836 21.1411 13.6567 21.5813 12 21.5813C10.3433 21.5813 8.71637 21.1411 7.28572 20.3057ZM18.2794 19.1656C18.2638 18.135 17.8439 17.1518 17.1102 16.4279C16.3766 15.7039 15.3879 15.2971 14.3571 15.2952H9.64286C8.61215 15.2971 7.62345 15.7039 6.88979 16.4279C6.15613 17.1518 5.73623 18.135 5.72058 19.1656C4.29573 17.8934 3.29094 16.2183 2.83923 14.3623C2.38753 12.5063 2.51023 10.5568 3.19108 8.77209C3.87193 6.98735 5.07882 5.45151 6.65194 4.36793C8.22506 3.28435 10.0902 2.70415 12.0004 2.70415C13.9106 2.70415 15.7757 3.28435 17.3489 4.36793C18.922 5.45151 20.1289 6.98735 20.8097 8.77209C21.4906 10.5568 21.6133 12.5063 21.1616 14.3623C20.7099 16.2183 19.7043 17.8934 18.2794 19.1656Z" fill="#00D151"/>
</svg>
