<svg width="64" height="64" viewBox="0 0 64 64" fill="none" xmlns="http://www.w3.org/2000/svg">
<path fill-rule="evenodd" clip-rule="evenodd" d="M4.0565 20.9677V43.2775H7.43677V20.9677H4.0565ZM1.93555 20.1724C1.93555 19.4409 2.52964 18.8468 3.26114 18.8468H8.23213C8.96363 18.8468 9.55773 19.4409 9.55773 20.1724V44.0729C9.55773 44.8044 8.96363 45.3985 8.23213 45.3985H3.26114C2.52964 45.3985 1.93555 44.8044 1.93555 44.0729V20.1724Z" fill="#282828"/>
<path fill-rule="evenodd" clip-rule="evenodd" d="M0 45.8492C0 44.4283 1.15085 43.2775 2.57166 43.2775H8.6694C10.083 43.2775 11.2278 44.4344 11.2278 45.8492V48.6329H0V45.8492ZM2.57166 45.3985C2.32222 45.3985 2.12095 45.5997 2.12095 45.8492V46.512H9.10685V45.8492C9.10685 45.5936 8.89952 45.3985 8.6694 45.3985H2.57166Z" fill="#282828"/>
<path fill-rule="evenodd" clip-rule="evenodd" d="M56.8153 21.14V43.4498H60.1956V21.14H56.8153ZM54.6943 20.3447C54.6943 19.6132 55.2884 19.0191 56.0199 19.0191H60.9909C61.7224 19.0191 62.3165 19.6132 62.3165 20.3447V44.2452C62.3165 44.9767 61.7224 45.5708 60.9909 45.5708H56.0199C55.2884 45.5708 54.6943 44.9767 54.6943 44.2452V20.3447Z" fill="#282828"/>
<path fill-rule="evenodd" clip-rule="evenodd" d="M52.772 46.0215C52.772 44.6007 53.9228 43.4498 55.3436 43.4498H61.4281C62.8448 43.4498 63.9774 44.6063 63.9996 46.0047L63.9998 46.0131V48.8053H52.772V46.0215ZM55.3436 45.5708C55.0942 45.5708 54.8929 45.7721 54.8929 46.0215V46.6843H61.8788V46.0322C61.8713 45.7635 61.6535 45.5708 61.4281 45.5708H55.3436Z" fill="#282828"/>
<path fill-rule="evenodd" clip-rule="evenodd" d="M28.3941 15.1947C29.033 15.1947 29.3565 15.6697 29.4619 15.8804L29.4663 15.8891L31.4028 19.9479C31.5464 20.2411 31.6285 20.6382 31.6285 20.9412V47.0555C31.6285 47.7539 31.0669 48.3943 30.2897 48.3943H26.5117C25.8132 48.3943 25.1729 47.8327 25.1729 47.0555V20.9677C25.1729 20.7912 25.2014 20.6104 25.2325 20.4694C25.2618 20.3364 25.3124 20.1513 25.397 19.9776L27.3206 15.8916L27.3262 15.8804C27.4316 15.6697 27.7552 15.1947 28.3941 15.1947ZM28.3997 18.579L27.3144 20.8844C27.3115 20.8937 27.3077 20.908 27.3038 20.9258C27.2992 20.9467 27.296 20.9654 27.2943 20.9788C27.2941 20.9802 27.2939 20.9814 27.2938 20.9825V46.2734H29.5076V20.9508C29.5074 20.9493 29.5072 20.9473 29.5069 20.9449C29.5053 20.9327 29.5025 20.9163 29.4984 20.8981C29.495 20.8826 29.4916 20.8704 29.4891 20.8624L28.3997 18.579Z" fill="#282828"/>
<path fill-rule="evenodd" clip-rule="evenodd" d="M35.6187 15.1947C36.2576 15.1947 36.5812 15.6697 36.6865 15.8804L36.6909 15.8891L38.6274 19.9479C38.7711 20.2411 38.8531 20.6382 38.8531 20.9412V47.0555C38.8531 47.7539 38.2915 48.3943 37.5143 48.3943H33.7363C33.0379 48.3943 32.3975 47.8327 32.3975 47.0555V20.9677C32.3975 20.7912 32.426 20.6104 32.4571 20.4694C32.4864 20.3364 32.537 20.1513 32.6216 19.9776L34.5452 15.8916L34.5508 15.8804C34.6562 15.6697 34.9798 15.1947 35.6187 15.1947ZM35.6243 18.579L34.539 20.8844C34.5362 20.8937 34.5323 20.908 34.5284 20.9258C34.5238 20.9467 34.5206 20.9654 34.5189 20.9788C34.5187 20.9802 34.5185 20.9814 34.5184 20.9825V46.2734H36.7322V20.9508C36.732 20.9493 36.7318 20.9473 36.7315 20.9449C36.7299 20.9327 36.7271 20.9163 36.723 20.8981C36.7196 20.8826 36.7162 20.8703 36.7137 20.8624L35.6243 18.579Z" fill="#282828"/>
<path fill-rule="evenodd" clip-rule="evenodd" d="M42.8301 19.3439C43.469 19.3439 43.7926 19.8189 43.8979 20.0295L43.9023 20.0383L45.8388 24.097C45.9825 24.3902 46.0645 24.7874 46.0645 25.0903V47.0555C46.0645 47.7539 45.503 48.3943 44.7257 48.3943H40.9477C40.2493 48.3943 39.6089 47.8327 39.6089 47.0555V25.1036C39.6089 24.9271 39.6375 24.7462 39.6685 24.6053C39.6979 24.472 39.7486 24.2866 39.8334 24.1127L41.757 20.0401L41.7623 20.0295C41.8676 19.8189 42.1912 19.3439 42.8301 19.3439ZM42.8343 22.7253L41.7504 25.0203C41.7476 25.0296 41.7437 25.0439 41.7398 25.0617C41.7352 25.0826 41.732 25.1013 41.7303 25.1146C41.7301 25.116 41.73 25.1173 41.7298 25.1184V46.2734H43.9436V25.0999C43.9434 25.0984 43.9432 25.0964 43.9429 25.094C43.9413 25.0819 43.9385 25.0654 43.9345 25.0472C43.931 25.0318 43.9276 25.0195 43.9251 25.0115L42.8343 22.7253Z" fill="#282828"/>
<path fill-rule="evenodd" clip-rule="evenodd" d="M50.0543 23.4797C50.6932 23.4797 51.0168 23.9547 51.1221 24.1654L51.1271 24.1754L53.0506 28.2345C53.1937 28.5275 53.2755 28.9238 53.2755 29.2262V47.0555C53.2755 47.7539 52.7139 48.3943 51.9366 48.3943H48.1587C47.4602 48.3943 46.8198 47.8327 46.8198 47.0555V29.2527C46.8198 29.0762 46.8484 28.8953 46.8795 28.7544C46.9089 28.6209 46.9597 28.4351 47.0448 28.261L48.9815 24.1753L48.9865 24.1654C49.0918 23.9547 49.4154 23.4797 50.0543 23.4797ZM50.0541 26.864L48.9613 29.1695C48.9585 29.1788 48.9547 29.193 48.9507 29.2108C48.9461 29.2317 48.943 29.2504 48.9412 29.2637C48.9411 29.2651 48.9409 29.2664 48.9408 29.2675V46.2734H51.1545V29.2357C51.1544 29.2343 51.1541 29.2323 51.1538 29.2298C51.1523 29.2177 51.1495 29.2012 51.1454 29.1831C51.1419 29.1675 51.1385 29.1552 51.1361 29.1473L50.0541 26.864Z" fill="#282828"/>
<path fill-rule="evenodd" clip-rule="evenodd" d="M21.1831 19.3439C21.822 19.3439 22.1456 19.8188 22.2509 20.0295L22.2553 20.0383L24.1919 24.097C24.3355 24.3902 24.4176 24.7874 24.4176 25.0903V47.0555C24.4176 47.7539 23.856 48.3943 23.0787 48.3943H19.3008C18.6023 48.3943 17.9619 47.8327 17.9619 47.0555V25.1036C17.9619 24.9271 17.9905 24.7462 18.0216 24.6053C18.0509 24.472 18.1016 24.2866 18.1864 24.1127L20.11 20.0401L20.1153 20.0295C20.2206 19.8188 20.5442 19.3439 21.1831 19.3439ZM21.1874 22.7253L20.1034 25.0203C20.1006 25.0296 20.0967 25.0439 20.0928 25.0617C20.0882 25.0826 20.0851 25.1013 20.0833 25.1146C20.0832 25.116 20.083 25.1173 20.0829 25.1184V46.2734H22.2966V25.0999C22.2965 25.0984 22.2962 25.0964 22.2959 25.094C22.2944 25.0819 22.2916 25.0654 22.2875 25.0472C22.284 25.0318 22.2806 25.0195 22.2782 25.0115L21.1874 22.7253Z" fill="#282828"/>
<path fill-rule="evenodd" clip-rule="evenodd" d="M13.9585 23.4797C14.5974 23.4797 14.921 23.9547 15.0263 24.1654L15.0307 24.1741L16.9672 28.2329C17.1109 28.526 17.193 28.9232 17.193 29.2262V47.0555C17.193 47.7539 16.6314 48.3943 15.8541 48.3943H12.0762C11.3777 48.3943 10.7373 47.8327 10.7373 47.0555V29.2394C10.7373 29.0629 10.7659 28.8821 10.7969 28.7412C10.8263 28.6079 10.877 28.4224 10.9618 28.2486L12.8854 24.176L12.8907 24.1654C12.996 23.9547 13.3196 23.4797 13.9585 23.4797ZM13.9628 26.8612L12.8788 29.1561C12.876 29.1655 12.8721 29.1797 12.8682 29.1975C12.8636 29.2184 12.8605 29.2372 12.8587 29.2505C12.8585 29.2519 12.8584 29.2531 12.8583 29.2542V46.2734H15.072V29.2357C15.0718 29.2343 15.0716 29.2323 15.0713 29.2298C15.0698 29.2177 15.067 29.2012 15.0629 29.1831C15.0594 29.1676 15.056 29.1553 15.0536 29.1474L13.9628 26.8612Z" fill="#282828"/>
<path fill-rule="evenodd" clip-rule="evenodd" d="M11.7977 42.7208H8.24512V40.5998H11.7977V42.7208Z" fill="#282828"/>
<path fill-rule="evenodd" clip-rule="evenodd" d="M19.0225 42.7208H16.146V40.5998H19.0225V42.7208Z" fill="#282828"/>
<path fill-rule="evenodd" clip-rule="evenodd" d="M26.2335 42.7208H23.5293V40.5998H26.2335V42.7208Z" fill="#282828"/>
<path fill-rule="evenodd" clip-rule="evenodd" d="M40.6695 42.7208H37.793V40.5998H40.6695V42.7208Z" fill="#282828"/>
<path fill-rule="evenodd" clip-rule="evenodd" d="M47.8805 42.7208H45.0039V40.5998H47.8805V42.7208Z" fill="#282828"/>
<path fill-rule="evenodd" clip-rule="evenodd" d="M55.7545 42.7208H52.0693V40.5998H55.7545V42.7208Z" fill="#282828"/>
<mask id="mask0_5611_3007" style="mask-type:luminance" maskUnits="userSpaceOnUse" x="8" y="21" width="48" height="28">
<path d="M32.2647 48.5136C45.3108 48.5136 55.8868 42.4422 55.8868 34.9528C55.8868 27.4633 45.3108 21.3919 32.2647 21.3919C19.2186 21.3919 8.64258 27.4633 8.64258 34.9528C8.64258 42.4422 19.2186 48.5136 32.2647 48.5136Z" fill="white"/>
</mask>
<g mask="url(#mask0_5611_3007)">
<path fill-rule="evenodd" clip-rule="evenodd" d="M28.4183 13.7255L31.6555 20.5158V24.3215H29.5345V20.9955L28.4238 18.6657L27.3075 21.0207V25.7977L26.4741 25.9804C25.5507 26.1828 24.6209 26.4499 23.7101 26.7578L22.31 27.231V25.1446L21.2009 22.818L20.0963 25.1559V28.2488L19.5303 28.5471C18.5829 29.0464 17.6588 29.5981 16.7446 30.2033L15.0988 31.2928V29.2672L13.9881 26.9374L12.8718 29.2925V33.1813L12.525 33.4969C2.7774 42.3666 -3.73793 57.6884 -3.73793 75.1979C-3.73793 89.0625 0.353711 101.574 6.91735 110.594C13.4817 119.614 22.4609 125.08 32.2785 125.08C42.0964 125.08 51.0755 119.617 57.6398 110.599C64.2033 101.581 68.295 89.0692 68.295 75.1979C68.295 57.413 61.5701 41.8863 51.5546 33.0711L51.1948 32.7544V29.2672L50.0828 26.9348L48.3592 30.5619L47.3439 29.9041C46.4395 29.3181 45.504 28.7922 44.5463 28.3005L43.9703 28.0047V25.1313L42.8596 22.8015L41.7433 25.1566V27.0523L40.356 26.6029C39.4542 26.3108 38.5245 26.0687 37.5928 25.8772L36.7458 25.7032V21.0087L35.6352 18.6792L34.532 21.0074V24.2817H32.4111V20.5303L35.6294 13.7384L38.8667 20.529V23.9869C39.1899 24.0635 39.5124 24.1458 39.8335 24.2338L42.854 17.8613L46.0912 24.6516V26.715C46.5534 26.9614 47.014 27.2185 47.4711 27.4891L50.0797 21.9998L53.3157 28.7875V31.7996C63.6703 41.1403 70.4159 57.1349 70.4159 75.1979C70.4159 89.4689 66.2094 102.429 59.3546 111.847C52.5005 121.264 42.9411 127.201 32.2785 127.201C21.6157 127.201 12.0564 121.26 5.20242 111.842C-1.6523 102.422 -5.85889 89.4624 -5.85889 75.1979C-5.85889 57.4112 0.678428 41.6326 10.7508 32.2474V28.8153L13.9825 21.9972L16.7077 27.7134C17.126 27.4581 17.5482 27.2124 17.9753 26.9763V24.6801L21.1922 17.8714L24.2827 24.3539C24.5823 24.2666 24.8838 24.1839 25.1866 24.1065V20.5435L28.4183 13.7255Z" fill="#282828"/>
</g>
</svg>
