<svg width="64" height="64" viewBox="0 0 64 64" fill="none" xmlns="http://www.w3.org/2000/svg">
<path fill-rule="evenodd" clip-rule="evenodd" d="M5.8877 22.4V43.4375H9.0752V22.4H5.8877ZM3.8877 21.65C3.8877 20.9602 4.44791 20.4 5.1377 20.4H9.8252C10.515 20.4 11.0752 20.9602 11.0752 21.65V44.1875C11.0752 44.8773 10.515 45.4375 9.8252 45.4375H5.1377C4.44791 45.4375 3.8877 44.8773 3.8877 44.1875V21.65Z" fill="#282828"/>
<path fill-rule="evenodd" clip-rule="evenodd" d="M2.0625 45.8625C2.0625 44.5227 3.14772 43.4375 4.4875 43.4375H10.2375C11.5705 43.4375 12.65 44.5285 12.65 45.8625V48.4875H2.0625V45.8625ZM4.4875 45.4375C4.25228 45.4375 4.0625 45.6273 4.0625 45.8625V46.4875H10.65V45.8625C10.65 45.6215 10.4545 45.4375 10.2375 45.4375H4.4875Z" fill="#282828"/>
<path fill-rule="evenodd" clip-rule="evenodd" d="M55.6377 22.5625V43.6H58.8252V22.5625H55.6377ZM53.6377 21.8125C53.6377 21.1227 54.1979 20.5625 54.8877 20.5625H59.5752C60.265 20.5625 60.8252 21.1227 60.8252 21.8125V44.35C60.8252 45.0398 60.265 45.6 59.5752 45.6H54.8877C54.1979 45.6 53.6377 45.0398 53.6377 44.35V21.8125Z" fill="#282828"/>
<path fill-rule="evenodd" clip-rule="evenodd" d="M51.8252 46.025C51.8252 44.6852 52.9104 43.6 54.2502 43.6H59.9877C61.3236 43.6 62.3916 44.6905 62.4126 46.0091L62.4127 46.0171V48.65H51.8252V46.025ZM54.2502 45.6C54.015 45.6 53.8252 45.7898 53.8252 46.025V46.65H60.4127V46.0351C60.4056 45.7817 60.2002 45.6 59.9877 45.6H54.2502Z" fill="#282828"/>
<path fill-rule="evenodd" clip-rule="evenodd" d="M28.8373 16.9563C29.4398 16.9563 29.7449 17.4041 29.8442 17.6028L29.8484 17.611L31.6745 21.4383C31.8099 21.7148 31.8873 22.0893 31.8873 22.375V47C31.8873 47.6586 31.3577 48.2625 30.6248 48.2625H27.0623C26.4037 48.2625 25.7998 47.7329 25.7998 47V22.4C25.7998 22.2336 25.8268 22.063 25.856 21.9301C25.8837 21.8046 25.9314 21.6301 26.0112 21.4664L27.8251 17.6134L27.8304 17.6028C27.9297 17.4041 28.2348 16.9563 28.8373 16.9563ZM28.8426 20.1475L27.8192 22.3214C27.8165 22.3302 27.8129 22.3437 27.8092 22.3605C27.8049 22.3802 27.8019 22.3978 27.8002 22.4104C27.8001 22.4117 27.7999 22.4129 27.7998 22.4139V46.2625H29.8873V22.384C29.8872 22.3826 29.8869 22.3808 29.8867 22.3785C29.8852 22.367 29.8825 22.3515 29.8787 22.3343C29.8754 22.3198 29.8722 22.3082 29.8699 22.3007L28.8426 20.1475Z" fill="#282828"/>
<path fill-rule="evenodd" clip-rule="evenodd" d="M35.6498 16.9563C36.2523 16.9563 36.5574 17.4041 36.6567 17.6028L36.6609 17.611L38.487 21.4384C38.6224 21.7148 38.6998 22.0893 38.6998 22.375V47C38.6998 47.6586 38.1702 48.2625 37.4373 48.2625H33.8748C33.2162 48.2625 32.6123 47.7329 32.6123 47V22.4C32.6123 22.2336 32.6393 22.063 32.6685 21.9301C32.6962 21.8047 32.7439 21.6301 32.8237 21.4664L34.6376 17.6134L34.6429 17.6028C34.7422 17.4041 35.0473 16.9563 35.6498 16.9563ZM35.6551 20.1475L34.6317 22.3214C34.629 22.3302 34.6254 22.3437 34.6217 22.3605C34.6174 22.3802 34.6144 22.3978 34.6127 22.4104C34.6126 22.4117 34.6124 22.4129 34.6123 22.4139V46.2625H36.6998V22.384C36.6997 22.3826 36.6994 22.3808 36.6991 22.3784C36.6977 22.367 36.695 22.3515 36.6912 22.3343C36.6879 22.3198 36.6847 22.3082 36.6824 22.3007L35.6551 20.1475Z" fill="#282828"/>
<path fill-rule="evenodd" clip-rule="evenodd" d="M42.4501 20.8688C43.0526 20.8688 43.3577 21.3167 43.457 21.5153L43.4612 21.5236L45.2873 25.3509C45.4227 25.6273 45.5001 26.0018 45.5001 26.2875V47C45.5001 47.6586 44.9705 48.2625 44.2376 48.2625H40.6751C40.0165 48.2625 39.4126 47.7329 39.4126 47V26.3C39.4126 26.1336 39.4396 25.963 39.4688 25.8301C39.4965 25.7045 39.5444 25.5296 39.6243 25.3657L41.4382 21.5253L41.4432 21.5153C41.5425 21.3167 41.8476 20.8688 42.4501 20.8688ZM42.4541 24.0574L41.432 26.2215C41.4293 26.2303 41.4257 26.2437 41.422 26.2605C41.4176 26.2802 41.4147 26.2979 41.413 26.3104C41.4129 26.3118 41.4127 26.3129 41.4126 26.3139V46.2625H43.5001V26.2965C43.5 26.2951 43.4997 26.2933 43.4994 26.291C43.498 26.2795 43.4953 26.264 43.4915 26.2468C43.4882 26.2323 43.485 26.2207 43.4827 26.2132L42.4541 24.0574Z" fill="#282828"/>
<path fill-rule="evenodd" clip-rule="evenodd" d="M49.2624 24.7688C49.8649 24.7688 50.17 25.2167 50.2693 25.4153L50.2741 25.4247L52.0878 29.2524C52.2228 29.5287 52.2999 29.9023 52.2999 30.1875V47C52.2999 47.6586 51.7703 48.2625 51.0374 48.2625H47.4749C46.8163 48.2625 46.2124 47.7329 46.2124 47V30.2125C46.2124 30.0461 46.2394 29.8755 46.2686 29.7426C46.2964 29.6168 46.3443 29.4415 46.4245 29.2774L48.2508 25.4247L48.2555 25.4153C48.3548 25.2167 48.6599 24.7688 49.2624 24.7688ZM49.2623 27.9601L48.2318 30.134C48.2291 30.1428 48.2255 30.1562 48.2218 30.173C48.2175 30.1927 48.2145 30.2103 48.2128 30.2229C48.2127 30.2242 48.2125 30.2254 48.2124 30.2264V46.2625H50.2999V30.1965C50.2998 30.1951 50.2995 30.1933 50.2992 30.1909C50.2978 30.1795 50.2951 30.164 50.2913 30.1468C50.288 30.1322 50.2848 30.1206 50.2825 30.1131L49.2623 27.9601Z" fill="#282828"/>
<path fill-rule="evenodd" clip-rule="evenodd" d="M22.0375 20.8688C22.64 20.8688 22.9451 21.3166 23.0444 21.5153L23.0486 21.5236L24.8747 25.3509C25.0101 25.6273 25.0875 26.0018 25.0875 26.2875V47C25.0875 47.6586 24.5579 48.2625 23.825 48.2625H20.2625C19.6039 48.2625 19 47.7329 19 47V26.3C19 26.1336 19.027 25.963 19.0562 25.8301C19.0839 25.7045 19.1318 25.5296 19.2117 25.3657L21.0256 21.5253L21.0306 21.5153C21.1299 21.3166 21.435 20.8688 22.0375 20.8688ZM22.0415 24.0574L21.0194 26.2215C21.0167 26.2303 21.0131 26.2437 21.0094 26.2605C21.0051 26.2802 21.0021 26.2979 21.0004 26.3104C21.0003 26.3117 21.0001 26.3129 21 26.3139V46.2625H23.0875V26.2965C23.0874 26.2951 23.0871 26.2933 23.0868 26.291C23.0854 26.2795 23.0827 26.264 23.0789 26.2468C23.0756 26.2323 23.0724 26.2207 23.0701 26.2132L22.0415 24.0574Z" fill="#282828"/>
<path fill-rule="evenodd" clip-rule="evenodd" d="M15.225 24.7688C15.8275 24.7688 16.1326 25.2166 16.2319 25.4153L16.2361 25.4235L18.0622 29.2509C18.1976 29.5273 18.275 29.9018 18.275 30.1875V47C18.275 47.6586 17.7454 48.2625 17.0125 48.2625H13.45C12.7914 48.2625 12.1875 47.7329 12.1875 47V30.2C12.1875 30.0336 12.2145 29.863 12.2437 29.7301C12.2714 29.6045 12.3193 29.4296 12.3992 29.2657L14.2131 25.4253L14.2181 25.4153C14.3174 25.2166 14.6225 24.7688 15.225 24.7688ZM15.229 27.9573L14.2069 30.1215C14.2042 30.1303 14.2006 30.1437 14.1969 30.1605C14.1926 30.1802 14.1896 30.1978 14.1879 30.2104C14.1878 30.2117 14.1876 30.2129 14.1875 30.2139V46.2625H16.275V30.1965C16.2749 30.1951 16.2746 30.1933 16.2743 30.1909C16.2729 30.1795 16.2702 30.164 16.2664 30.1468C16.2631 30.1323 16.2599 30.1207 16.2576 30.1132L15.229 27.9573Z" fill="#282828"/>
<path fill-rule="evenodd" clip-rule="evenodd" d="M13.1874 42.9125H9.8374V40.9125H13.1874V42.9125Z" fill="#282828"/>
<path fill-rule="evenodd" clip-rule="evenodd" d="M20.0001 42.9125H17.2876V40.9125H20.0001V42.9125Z" fill="#282828"/>
<path fill-rule="evenodd" clip-rule="evenodd" d="M26.8 42.9125H24.25V40.9125H26.8V42.9125Z" fill="#282828"/>
<path fill-rule="evenodd" clip-rule="evenodd" d="M40.4127 42.9125H37.7002V40.9125H40.4127V42.9125Z" fill="#282828"/>
<path fill-rule="evenodd" clip-rule="evenodd" d="M47.2125 42.9125H44.5V40.9125H47.2125V42.9125Z" fill="#282828"/>
<path fill-rule="evenodd" clip-rule="evenodd" d="M54.6376 42.9125H51.1626V40.9125H54.6376V42.9125Z" fill="#282828"/>
<mask id="mask0_5611_3007" style="mask-type:luminance" maskUnits="userSpaceOnUse" x="10" y="22" width="45" height="27">
<path d="M32.4874 48.375C44.7895 48.375 54.7624 42.6498 54.7624 35.5875C54.7624 28.5252 44.7895 22.8 32.4874 22.8C20.1853 22.8 10.2124 28.5252 10.2124 35.5875C10.2124 42.6498 20.1853 48.375 32.4874 48.375Z" fill="white"/>
</mask>
<g mask="url(#mask0_5611_3007)">
<path fill-rule="evenodd" clip-rule="evenodd" d="M28.86 15.5708L31.9126 21.9738V25.5625H29.9126V22.4262L28.8652 20.2292L27.8126 22.45V26.9546L27.0267 27.1268C26.156 27.3177 25.2792 27.5695 24.4203 27.8598L23.1001 28.3061V26.3387L22.0542 24.1448L21.0126 26.3493V29.2659L20.4788 29.5472C19.5855 30.018 18.7141 30.5382 17.8521 31.1089L16.3001 32.1362V30.2262L15.2527 28.0292L14.2001 30.25V33.9171L13.8731 34.2146C4.68137 42.5785 -1.4624 57.0266 -1.4624 73.5375C-1.4624 86.6115 2.3959 98.4096 8.58523 106.915C14.7752 115.421 23.2423 120.575 32.5001 120.575C41.7581 120.575 50.2251 115.424 56.415 106.919C62.6043 98.4158 66.4626 86.6178 66.4626 73.5375C66.4626 56.7668 60.1212 42.1256 50.6769 33.8132L50.3376 33.5145V30.2262L49.289 28.0268L47.6637 31.447L46.7064 30.8268C45.8535 30.2742 44.9714 29.7783 44.0683 29.3146L43.5251 29.0356V26.3262L42.4777 24.1292L41.4251 26.35V28.1376L40.1169 27.7138C39.2666 27.4384 38.3899 27.2101 37.5113 27.0295L36.7126 26.8654V22.4387L35.6654 20.242L34.6251 22.4374V25.525H32.6251V21.9876L35.6598 15.583L38.7126 21.9863V25.247C39.0173 25.3192 39.3215 25.3968 39.6242 25.4799L42.4725 19.4708L45.5251 25.8738V27.8195C45.9609 28.0519 46.3952 28.2943 46.8263 28.5495L49.2861 23.3732L52.3376 29.7738V32.6142C62.1016 41.4222 68.4626 56.5047 68.4626 73.5375C68.4626 86.9947 64.4959 99.2154 58.0321 108.096C51.5688 116.976 42.5546 122.575 32.5001 122.575C22.4454 122.575 13.4312 116.973 6.96809 108.092C0.504293 99.2092 -3.4624 86.9885 -3.4624 73.5375C-3.4624 56.7651 2.7021 41.8864 12.2001 33.0365V29.8L15.2475 23.3708L17.8172 28.761C18.2117 28.5202 18.6098 28.2885 19.0126 28.066V25.9007L22.046 19.4802L24.9603 25.5931C25.2427 25.5107 25.5271 25.4327 25.8126 25.3598V22L28.86 15.5708Z" fill="#282828"/>
</g>
</svg>
