<svg width="64" height="34" viewBox="0 0 64 34" fill="none" xmlns="http://www.w3.org/2000/svg">
<g clip-path="url(#clip0_6399_13590)">
<path fill-rule="evenodd" clip-rule="evenodd" d="M4.0565 5.96776V28.2775H7.43677V5.96776H4.0565ZM1.93555 5.1724C1.93555 4.4409 2.52964 3.8468 3.26114 3.8468H8.23213C8.96363 3.8468 9.55773 4.4409 9.55773 5.1724V29.0729C9.55773 29.8044 8.96363 30.3985 8.23213 30.3985H3.26114C2.52964 30.3985 1.93555 29.8044 1.93555 29.0729V5.1724Z" fill="#FCFCFC"/>
<path fill-rule="evenodd" clip-rule="evenodd" d="M0 30.8492C0 29.4284 1.15085 28.2775 2.57166 28.2775H8.6694C10.083 28.2775 11.2278 29.4345 11.2278 30.8492V33.6329H0V30.8492ZM2.57166 30.3985C2.32222 30.3985 2.12095 30.5997 2.12095 30.8492V31.512H9.10685V30.8492C9.10685 30.5937 8.89952 30.3985 8.6694 30.3985H2.57166Z" fill="#FCFCFC"/>
<path fill-rule="evenodd" clip-rule="evenodd" d="M56.8153 6.14006V28.4498H60.1956V6.14006H56.8153ZM54.6943 5.3447C54.6943 4.6132 55.2884 4.0191 56.0199 4.0191H60.9909C61.7224 4.0191 62.3165 4.6132 62.3165 5.3447V29.2452C62.3165 29.9767 61.7224 30.5708 60.9909 30.5708H56.0199C55.2884 30.5708 54.6943 29.9767 54.6943 29.2452V5.3447Z" fill="#FCFCFC"/>
<path fill-rule="evenodd" clip-rule="evenodd" d="M52.772 31.0215C52.772 29.6007 53.9228 28.4498 55.3436 28.4498H61.4281C62.8448 28.4498 63.9774 29.6063 63.9996 31.0047L63.9998 31.0131V33.8052H52.772V31.0215ZM55.3436 30.5708C55.0942 30.5708 54.8929 30.772 54.8929 31.0215V31.6843H61.8788V31.0322C61.8713 30.7635 61.6535 30.5708 61.4281 30.5708H55.3436Z" fill="#FCFCFC"/>
<path fill-rule="evenodd" clip-rule="evenodd" d="M28.3941 0.194763C29.033 0.194763 29.3565 0.66974 29.4619 0.8804L29.4663 0.889159L31.4028 4.94792C31.5464 5.24108 31.6285 5.63824 31.6285 5.94123V32.0555C31.6285 32.7539 31.0669 33.3943 30.2897 33.3943H26.5117C25.8132 33.3943 25.1729 32.8327 25.1729 32.0555V5.96774C25.1729 5.79124 25.2014 5.61037 25.2325 5.46945C25.2618 5.33637 25.3124 5.15127 25.397 4.97765L27.3206 0.891617L27.3262 0.8804C27.4316 0.66974 27.7552 0.194763 28.3941 0.194763ZM28.3997 3.57906L27.3144 5.8844C27.3115 5.89373 27.3077 5.90799 27.3038 5.92584C27.2992 5.94671 27.296 5.96545 27.2943 5.97877C27.2941 5.98019 27.2939 5.98143 27.2938 5.98251V31.2734H29.5076V5.95079C29.5074 5.94931 29.5072 5.94734 29.5069 5.94488C29.5053 5.93276 29.5025 5.91627 29.4984 5.89811C29.495 5.88265 29.4916 5.87037 29.4891 5.86241L28.3997 3.57906Z" fill="#FCFCFC"/>
<path fill-rule="evenodd" clip-rule="evenodd" d="M35.6187 0.194763C36.2576 0.194763 36.5812 0.669732 36.6865 0.8804L36.6909 0.889159L38.6274 4.94793C38.7711 5.24109 38.8531 5.63826 38.8531 5.94123V32.0555C38.8531 32.7539 38.2915 33.3943 37.5143 33.3943H33.7363C33.0379 33.3943 32.3975 32.8327 32.3975 32.0555V5.96774C32.3975 5.79124 32.426 5.61038 32.4571 5.46946C32.4864 5.33638 32.537 5.15127 32.6216 4.97765L34.5452 0.891617L34.5508 0.8804C34.6562 0.669732 34.9798 0.194763 35.6187 0.194763ZM35.6243 3.57905L34.539 5.8844C34.5362 5.89373 34.5323 5.90799 34.5284 5.92584C34.5238 5.9467 34.5206 5.96545 34.5189 5.97877C34.5187 5.98018 34.5185 5.98143 34.5184 5.98251V31.2734H36.7322V5.95079C36.732 5.94931 36.7318 5.94733 36.7315 5.94488C36.7299 5.93276 36.7271 5.91627 36.723 5.8981C36.7196 5.88264 36.7162 5.87036 36.7137 5.86241L35.6243 3.57905Z" fill="#FCFCFC"/>
<path fill-rule="evenodd" clip-rule="evenodd" d="M42.8301 4.34387C43.469 4.34387 43.7926 4.81886 43.8979 5.02951L43.9023 5.03827L45.8388 9.09704C45.9825 9.3902 46.0645 9.78736 46.0645 10.0903V32.0555C46.0645 32.7539 45.503 33.3943 44.7257 33.3943H40.9477C40.2493 33.3943 39.6089 32.8327 39.6089 32.0555V10.1036C39.6089 9.92709 39.6375 9.74622 39.6685 9.6053C39.6979 9.47202 39.7486 9.28658 39.8334 9.11274L41.757 5.04013L41.7623 5.02951C41.8676 4.81886 42.1912 4.34387 42.8301 4.34387ZM42.8343 7.7253L41.7504 10.0203C41.7476 10.0296 41.7437 10.0439 41.7398 10.0617C41.7352 10.0826 41.732 10.1013 41.7303 10.1146C41.7301 10.116 41.73 10.1173 41.7298 10.1184V31.2734H43.9436V10.0999C43.9434 10.0984 43.9432 10.0964 43.9429 10.094C43.9413 10.0819 43.9385 10.0654 43.9345 10.0472C43.931 10.0318 43.9276 10.0195 43.9251 10.0115L42.8343 7.7253Z" fill="#FCFCFC"/>
<path fill-rule="evenodd" clip-rule="evenodd" d="M50.0543 8.47974C50.6932 8.47974 51.0168 8.95472 51.1221 9.16537L51.1271 9.1754L53.0506 13.2345C53.1937 13.5275 53.2755 13.9238 53.2755 14.2262V32.0555C53.2755 32.7539 52.7139 33.3943 51.9366 33.3943H48.1587C47.4602 33.3943 46.8198 32.8327 46.8198 32.0555V14.2527C46.8198 14.0762 46.8484 13.8953 46.8795 13.7544C46.9089 13.6209 46.9597 13.4351 47.0448 13.261L48.9815 9.17533L48.9865 9.16537C49.0918 8.95472 49.4154 8.47974 50.0543 8.47974ZM50.0541 11.8641L48.9613 14.1695C48.9585 14.1788 48.9547 14.193 48.9507 14.2108C48.9461 14.2317 48.943 14.2504 48.9412 14.2637C48.9411 14.2652 48.9409 14.2664 48.9408 14.2675V31.2734H51.1545V14.2358C51.1544 14.2343 51.1541 14.2323 51.1538 14.2299C51.1523 14.2177 51.1495 14.2012 51.1454 14.1831C51.1419 14.1676 51.1385 14.1553 51.1361 14.1473L50.0541 11.8641Z" fill="#FCFCFC"/>
<path fill-rule="evenodd" clip-rule="evenodd" d="M21.1831 4.34387C21.822 4.34387 22.1456 4.81885 22.2509 5.02951L22.2553 5.03827L24.1919 9.09704C24.3355 9.3902 24.4176 9.78736 24.4176 10.0903V32.0555C24.4176 32.7539 23.856 33.3943 23.0787 33.3943H19.3008C18.6023 33.3943 17.9619 32.8327 17.9619 32.0555V10.1036C17.9619 9.92709 17.9905 9.74623 18.0216 9.60531C18.0509 9.47204 18.1016 9.28658 18.1864 9.11274L20.11 5.04013L20.1153 5.02951C20.2206 4.81885 20.5442 4.34387 21.1831 4.34387ZM21.1874 7.7253L20.1034 10.0203C20.1006 10.0296 20.0967 10.0439 20.0928 10.0617C20.0882 10.0826 20.0851 10.1013 20.0833 10.1146C20.0832 10.116 20.083 10.1173 20.0829 10.1184V31.2734H22.2966V10.0999C22.2965 10.0984 22.2962 10.0964 22.2959 10.094C22.2944 10.0819 22.2916 10.0654 22.2875 10.0472C22.284 10.0318 22.2806 10.0195 22.2782 10.0115L21.1874 7.7253Z" fill="#FCFCFC"/>
<path fill-rule="evenodd" clip-rule="evenodd" d="M13.9585 8.47974C14.5974 8.47974 14.921 8.95472 15.0263 9.16537L15.0307 9.17413L16.9672 13.2329C17.1109 13.5261 17.193 13.9232 17.193 14.2262V32.0555C17.193 32.7539 16.6314 33.3943 15.8541 33.3943H12.0762C11.3777 33.3943 10.7373 32.8327 10.7373 32.0555V14.2395C10.7373 14.063 10.7659 13.8821 10.7969 13.7412C10.8263 13.6079 10.877 13.4224 10.9618 13.2486L12.8854 9.17599L12.8907 9.16537C12.996 8.95472 13.3196 8.47974 13.9585 8.47974ZM13.9628 11.8612L12.8788 14.1562C12.876 14.1655 12.8721 14.1797 12.8682 14.1976C12.8636 14.2184 12.8605 14.2372 12.8587 14.2505C12.8585 14.2519 12.8584 14.2531 12.8583 14.2542V31.2734H15.072V14.2358C15.0718 14.2343 15.0716 14.2323 15.0713 14.2299C15.0698 14.2177 15.067 14.2012 15.0629 14.1831C15.0594 14.1676 15.056 14.1553 15.0536 14.1474L13.9628 11.8612Z" fill="#FCFCFC"/>
<path fill-rule="evenodd" clip-rule="evenodd" d="M11.7977 27.7207H8.24512V25.5998H11.7977V27.7207Z" fill="#FCFCFC"/>
<path fill-rule="evenodd" clip-rule="evenodd" d="M19.0225 27.7207H16.146V25.5998H19.0225V27.7207Z" fill="#FCFCFC"/>
<path fill-rule="evenodd" clip-rule="evenodd" d="M26.2335 27.7207H23.5293V25.5998H26.2335V27.7207Z" fill="#FCFCFC"/>
<path fill-rule="evenodd" clip-rule="evenodd" d="M40.6695 27.7207H37.793V25.5998H40.6695V27.7207Z" fill="#FCFCFC"/>
<path fill-rule="evenodd" clip-rule="evenodd" d="M47.8805 27.7207H45.0039V25.5998H47.8805V27.7207Z" fill="#FCFCFC"/>
<path fill-rule="evenodd" clip-rule="evenodd" d="M55.7545 27.7207H52.0693V25.5998H55.7545V27.7207Z" fill="#FCFCFC"/>
<mask id="mask0_6399_13590" style="mask-type:luminance" maskUnits="userSpaceOnUse" x="8" y="6" width="48" height="28">
<path d="M32.2647 33.5136C45.3108 33.5136 55.8868 27.4422 55.8868 19.9528C55.8868 12.4633 45.3108 6.39191 32.2647 6.39191C19.2186 6.39191 8.64258 12.4633 8.64258 19.9528C8.64258 27.4422 19.2186 33.5136 32.2647 33.5136Z" fill="white"/>
</mask>
<g mask="url(#mask0_6399_13590)">
<path fill-rule="evenodd" clip-rule="evenodd" d="M28.4183 -1.27454L31.6555 5.51576V9.32147H29.5345V5.99547L28.4238 3.66565L27.3075 6.02073V10.7977L26.4741 10.9804C25.5507 11.1828 24.6209 11.4499 23.7101 11.7577L22.31 12.231V10.1446L21.2009 7.81801L20.0963 10.1559V13.2488L19.5303 13.5471C18.5829 14.0464 17.6588 14.5981 16.7446 15.2032L15.0988 16.2927V14.2672L13.9881 11.9374L12.8718 14.2924V18.1813L12.525 18.4968C2.7774 27.3665 -3.73793 42.6884 -3.73793 60.1979C-3.73793 74.0625 0.353711 86.5741 6.91735 95.5936C13.4817 104.614 22.4609 110.08 32.2785 110.08C42.0964 110.08 51.0755 104.617 57.6398 95.5985C64.2033 86.5807 68.295 74.0692 68.295 60.1979C68.295 42.413 61.5701 26.8862 51.5546 18.0711L51.1948 17.7544V14.2672L50.0828 11.9348L48.3592 15.5618L47.3439 14.9041C46.4395 14.3181 45.504 13.7922 44.5463 13.3004L43.9703 13.0046V10.1313L42.8596 7.80152L41.7433 10.1566V12.0523L40.356 11.6029C39.4542 11.3108 38.5245 11.0687 37.5928 10.8772L36.7458 10.7032V6.00873L35.6352 3.67923L34.532 6.0074V9.2817H32.4111V5.53033L35.6294 -1.2616L38.8667 5.52901V8.98691C39.1899 9.06344 39.5124 9.14574 39.8335 9.23383L42.854 2.86133L46.0912 9.65162V11.715C46.5534 11.9614 47.014 12.2185 47.4711 12.4891L50.0797 6.99979L53.3157 13.7875V16.7996C63.6703 26.1403 70.4159 42.1349 70.4159 60.1979C70.4159 74.4689 66.2094 87.4287 59.3546 96.8467C52.5005 106.264 42.9411 112.201 32.2785 112.201C21.6157 112.201 12.0564 106.26 5.20242 96.8416C-1.6523 87.4221 -5.85889 74.4624 -5.85889 60.1979C-5.85889 42.4112 0.678428 26.6326 10.7508 17.2474V13.8152L13.9825 6.99719L16.7077 12.7134C17.126 12.4581 17.5482 12.2124 17.9753 11.9763V9.68007L21.1922 2.87134L24.2827 9.35392C24.5823 9.26657 24.8838 9.18384 25.1866 9.10653V5.54352L28.4183 -1.27454Z" fill="#FCFCFC"/>
</g>
</g>
<defs>
<clipPath id="clip0_6399_13590">
<rect width="64" height="34" fill="white"/>
</clipPath>
</defs>
</svg>
