<?xml version="1.0" encoding="UTF-8"?>
<svg height="600" width="800" xmlns="http://www.w3.org/2000/svg" xmlns:xlink="http://www.w3.org/1999/xlink">
    <g id="Notes" font-family="'LucidaGrande', 'Lucida Grande', sans-serif" font-size="13">
        <rect fill="white" height="600.0" width="800.0" x="0.0" y="0.0" />
        <g font-size="13">
            <text x="18.0" y="176.0">Small</text>
            <text x="18.0" y="376.0">Medium</text>
            <text x="18.0" y="576.0">Large</text>
        </g>
        <g font-size="9">
            <text x="250.0" y="30.0">Ultralight</text>
            <text x="450.0" y="30.0">Regular</text>
            <text x="650.0" y="30.0">Black</text>
            <text id="template-version" fill="#505050" text-anchor="end" x="785.0" y="575.0">Template v.3.0</text>
            <a href="https://github.com/swhitty/SwiftDraw">
                <text fill="#505050" text-anchor="end" x="785.0" y="590.0">https://github.com/swhitty/SwiftDraw</text>
            </a>
        </g>
    </g>
    <g id="Guides" stroke="rgb(39, 170, 225)" stroke-width="0.5">
        <path id="Capline-S" d="M18,76 l800,0" />
        <path id="H-reference" d="M85,145.755 L87.685,145.755 L113.369,79.287 L114.052,79.287 L114.052,76 L112.148,76 L85,145.755 Z M95.693,121.536 L130.996,121.536 L130.263,119.313 L96.474,119.313 L95.693,121.536 Z M139.15,145.755 L141.787,145.755 L114.638,76 L113.466,76 L113.466,79.287 L139.15,145.755 Z" stroke="none" />
        <path id="Baseline-S" d="M18,146 l800,0" />
        <path id="left-margin-Ultralight-S" d="M211,56 l0,110" />
        <path id="right-margin-Ultralight-S" d="M319,56 l0,110" />
        <path id="left-margin-Regular-S" d="M411,56 l0,110" />
        <path id="right-margin-Regular-S" d="M519,56 l0,110" />
        <path id="left-margin-Black-S" d="M611,56 l0,110" />
        <path id="right-margin-Black-S" d="M719,56 l0,110" />
        <path id="Capline-M" d="M18,276 l800,0" />
        <path id="Baseline-M" d="M18,346 l800,0" />
        <path id="Capline-L" d="M18,476 l800,0" />
        <path id="Baseline-L" d="M18,546 l800,0" />
    </g>
    <g id="Symbols">
        <g id="Ultralight-S">
            <path d="M270.359,110.511 C276.906,110.511 282.216,115.79 282.216,122.297 C282.216,128.804 276.906,134.083 270.359,134.083 C263.812,134.083 258.502,128.804 258.502,122.297 C258.502,115.79 263.812,110.511 270.359,110.511 Z M270.359,107.191 C266.295,107.191 262.487,108.763 259.615,111.618 C256.742,114.473 255.162,118.269 255.162,122.297 C255.162,126.325 256.742,130.121 259.615,132.976 C262.487,135.831 266.306,137.403 270.359,137.403 C274.412,137.403 278.231,135.831 281.103,132.976 C283.976,130.121 285.556,126.325 285.556,122.297 C285.556,118.269 283.976,114.473 281.103,111.618 C278.242,108.763 274.423,107.191 270.359,107.191 Z" />
            <path d="M268.173,102.61 L268.173,109.737 L264.617,109.737 L264.617,102.61 L268.173,102.61 Z" />
            <path d="M277.659,102.61 L277.659,109.737 L274.103,109.737 L274.103,102.61 L277.659,102.61 Z" />
            <path d="M231.728,114.562 C231.728,113.586 232.524,112.794 233.506,112.794 L258.501,112.794 C259.483,112.794 260.279,113.586 260.279,114.562 C260.279,115.538 259.483,116.329 258.501,116.329 L235.284,116.329 L235.284,128.265 L258.501,128.265 C259.483,128.265 260.279,129.056 260.279,130.033 C260.279,131.009 259.483,131.8 258.501,131.8 L233.506,131.8 C232.524,131.8 231.728,131.009 231.728,130.033 L231.728,114.562 Z" />
            <path d="M280.438,114.562 C280.438,113.586 281.234,112.794 282.216,112.794 L307.222,112.794 C308.204,112.794 309,113.586 309,114.562 L309,130.033 C309,131.009 308.204,131.8 307.222,131.8 L282.216,131.8 C281.234,131.8 280.438,131.009 280.438,130.033 C280.438,129.056 281.234,128.265 282.216,128.265 L305.444,128.265 L305.444,116.329 L282.216,116.329 C281.234,116.329 280.438,115.538 280.438,114.562 Z" />
            <path d="M256.828,87.917 L265.067,95.741 C265.379,96.04 265.757,96.195 266.158,96.195 L278.35,96.195 L278.35,100.334 L263.286,100.334 L255.047,92.51 C254.735,92.211 254.357,92.056 253.956,92.056 L224.34,92.056 L224.34,87.917 L256.828,87.917 Z M256.828,84.597 L224.34,84.597 C222.492,84.597 221,86.08 221,87.917 L221,92.056 C221,93.893 222.492,95.376 224.34,95.376 L253.232,95.376 L260.97,102.735 C261.593,103.322 262.417,103.654 263.275,103.654 L278.35,103.654 C280.198,103.654 281.69,102.171 281.69,100.334 L281.69,96.195 C281.69,94.358 280.198,92.875 278.35,92.875 L266.882,92.875 L259.144,85.516 C258.521,84.929 257.697,84.597 256.828,84.597 Z" />
            <path d="M279.222,133.684 L259.85,114.428 L262.364,111.929 L281.736,131.184 L279.222,133.684 Z" />
        </g>
        <g id="Regular-S">
            <path d="M470.359,110.511 C476.906,110.511 482.216,115.79 482.216,122.297 C482.216,128.804 476.906,134.083 470.359,134.083 C463.812,134.083 458.502,128.804 458.502,122.297 C458.502,115.79 463.812,110.511 470.359,110.511 Z M470.359,107.191 C466.295,107.191 462.487,108.763 459.615,111.618 C456.742,114.473 455.162,118.269 455.162,122.297 C455.162,126.325 456.742,130.121 459.615,132.976 C462.487,135.831 466.306,137.403 470.359,137.403 C474.412,137.403 478.231,135.831 481.103,132.976 C483.976,130.121 485.556,126.325 485.556,122.297 C485.556,118.269 483.976,114.473 481.103,111.618 C478.242,108.763 474.423,107.191 470.359,107.191 Z" />
            <path d="M468.173,102.61 L468.173,109.737 L464.617,109.737 L464.617,102.61 L468.173,102.61 Z" />
            <path d="M477.659,102.61 L477.659,109.737 L474.103,109.737 L474.103,102.61 L477.659,102.61 Z" />
            <path d="M431.728,114.562 C431.728,113.586 432.524,112.794 433.506,112.794 L458.501,112.794 C459.483,112.794 460.279,113.586 460.279,114.562 C460.279,115.538 459.483,116.329 458.501,116.329 L435.284,116.329 L435.284,128.265 L458.501,128.265 C459.483,128.265 460.279,129.056 460.279,130.033 C460.279,131.009 459.483,131.8 458.501,131.8 L433.506,131.8 C432.524,131.8 431.728,131.009 431.728,130.033 L431.728,114.562 Z" />
            <path d="M480.438,114.562 C480.438,113.586 481.234,112.794 482.216,112.794 L507.222,112.794 C508.204,112.794 509,113.586 509,114.562 L509,130.033 C509,131.009 508.204,131.8 507.222,131.8 L482.216,131.8 C481.234,131.8 480.438,131.009 480.438,130.033 C480.438,129.056 481.234,128.265 482.216,128.265 L505.444,128.265 L505.444,116.329 L482.216,116.329 C481.234,116.329 480.438,115.538 480.438,114.562 Z" />
            <path d="M456.828,87.917 L465.067,95.741 C465.379,96.04 465.757,96.195 466.158,96.195 L478.35,96.195 L478.35,100.334 L463.286,100.334 L455.047,92.51 C454.735,92.211 454.357,92.056 453.956,92.056 L424.34,92.056 L424.34,87.917 L456.828,87.917 Z M456.828,84.597 L424.34,84.597 C422.492,84.597 421,86.08 421,87.917 L421,92.056 C421,93.893 422.492,95.376 424.34,95.376 L453.232,95.376 L460.97,102.735 C461.593,103.322 462.417,103.654 463.275,103.654 L478.35,103.654 C480.198,103.654 481.69,102.171 481.69,100.334 L481.69,96.195 C481.69,94.358 480.198,92.875 478.35,92.875 L466.882,92.875 L459.144,85.516 C458.521,84.929 457.697,84.597 456.828,84.597 Z" />
            <path d="M479.222,133.684 L459.85,114.428 L462.364,111.929 L481.736,131.184 L479.222,133.684 Z" />
        </g>
        <g id="Black-S">
            <path d="M670.359,110.511 C676.906,110.511 682.216,115.79 682.216,122.297 C682.216,128.804 676.906,134.083 670.359,134.083 C663.812,134.083 658.502,128.804 658.502,122.297 C658.502,115.79 663.812,110.511 670.359,110.511 Z M670.359,107.191 C666.295,107.191 662.487,108.763 659.615,111.618 C656.742,114.473 655.162,118.269 655.162,122.297 C655.162,126.325 656.742,130.121 659.615,132.976 C662.487,135.831 666.306,137.403 670.359,137.403 C674.412,137.403 678.231,135.831 681.103,132.976 C683.976,130.121 685.556,126.325 685.556,122.297 C685.556,118.269 683.976,114.473 681.103,111.618 C678.242,108.763 674.423,107.191 670.359,107.191 Z" />
            <path d="M668.173,102.61 L668.173,109.737 L664.617,109.737 L664.617,102.61 L668.173,102.61 Z" />
            <path d="M677.659,102.61 L677.659,109.737 L674.103,109.737 L674.103,102.61 L677.659,102.61 Z" />
            <path d="M631.728,114.562 C631.728,113.586 632.524,112.794 633.506,112.794 L658.501,112.794 C659.483,112.794 660.279,113.586 660.279,114.562 C660.279,115.538 659.483,116.329 658.501,116.329 L635.284,116.329 L635.284,128.265 L658.501,128.265 C659.483,128.265 660.279,129.056 660.279,130.033 C660.279,131.009 659.483,131.8 658.501,131.8 L633.506,131.8 C632.524,131.8 631.728,131.009 631.728,130.033 L631.728,114.562 Z" />
            <path d="M680.438,114.562 C680.438,113.586 681.234,112.794 682.216,112.794 L707.222,112.794 C708.204,112.794 709,113.586 709,114.562 L709,130.033 C709,131.009 708.204,131.8 707.222,131.8 L682.216,131.8 C681.234,131.8 680.438,131.009 680.438,130.033 C680.438,129.056 681.234,128.265 682.216,128.265 L705.444,128.265 L705.444,116.329 L682.216,116.329 C681.234,116.329 680.438,115.538 680.438,114.562 Z" />
            <path d="M656.828,87.917 L665.067,95.741 C665.379,96.04 665.757,96.195 666.158,96.195 L678.35,96.195 L678.35,100.334 L663.286,100.334 L655.047,92.51 C654.735,92.211 654.357,92.056 653.956,92.056 L624.34,92.056 L624.34,87.917 L656.828,87.917 Z M656.828,84.597 L624.34,84.597 C622.492,84.597 621,86.08 621,87.917 L621,92.056 C621,93.893 622.492,95.376 624.34,95.376 L653.232,95.376 L660.97,102.735 C661.593,103.322 662.417,103.654 663.275,103.654 L678.35,103.654 C680.198,103.654 681.69,102.171 681.69,100.334 L681.69,96.195 C681.69,94.358 680.198,92.875 678.35,92.875 L666.882,92.875 L659.144,85.516 C658.521,84.929 657.697,84.597 656.828,84.597 Z" />
            <path d="M679.222,133.684 L659.85,114.428 L662.364,111.929 L681.736,131.184 L679.222,133.684 Z" />
        </g>
    </g>
</svg>