<svg width="64" height="64" viewBox="0 0 64 64" fill="none" xmlns="http://www.w3.org/2000/svg">
<path d="M32 15.3125C21.9625 15.3125 13.825 13.825 13.825 12V52.775C13.825 50.9375 21.9625 49.4625 32 49.4625C42.0375 49.4625 50.1749 50.95 50.1749 52.775V11.9875C50.1749 13.825 42.0375 15.3125 32 15.3125ZM31.85 41.7625C27.5875 41.7625 24.125 38.3 24.125 34.0375C24.125 29.9 31.225 21.6625 31.525 21.3125C31.6125 21.2125 31.725 21.1625 31.85 21.1625C31.975 21.1625 32.0875 21.2125 32.1749 21.3125C32.4749 21.6625 39.575 29.9 39.575 34.0375C39.575 38.3 36.1125 41.7625 31.85 41.7625Z" fill="#12A71E"/>
<path fill-rule="evenodd" clip-rule="evenodd" d="M49.1389 11.7973C49.1281 11.8137 49.0934 11.8771 49.0934 11.9875H51.2565V52.775H49.0934C49.0934 52.8885 49.1295 52.9537 49.1407 52.9705C49.1344 52.9628 49.1185 52.9449 49.0869 52.9169C48.9672 52.8104 48.728 52.6571 48.3188 52.4809C47.5088 52.132 46.2701 51.7926 44.6574 51.4984C41.4497 50.9132 36.974 50.5441 32 50.5441C27.0254 50.5441 22.5496 50.9102 19.342 51.4938C17.7293 51.7872 16.4911 52.1262 15.6816 52.4754C15.2728 52.6517 15.0341 52.8052 14.9146 52.9119C14.8827 52.9403 14.8668 52.9583 14.8607 52.966C14.8714 52.9497 14.9065 52.886 14.9065 52.775H12.7434V12H14.9065C14.9065 11.8866 14.8705 11.8214 14.8593 11.8045C14.8655 11.8123 14.8815 11.8302 14.913 11.8582C15.0327 11.9647 15.2719 12.1179 15.6811 12.2942C16.4911 12.643 17.7298 12.9825 19.3425 13.2767C22.5502 13.8618 27.0259 14.231 32 14.231C36.9741 14.231 41.4496 13.8618 44.6569 13.2752C46.2695 12.9802 47.5077 12.6398 48.3172 12.2896C48.7261 12.1127 48.965 11.9588 49.0847 11.8518C49.1167 11.8232 49.1327 11.805 49.1389 11.7973ZM14.9065 14.3153V50.4544C15.9295 50.0254 17.3222 49.6627 18.9548 49.3656C22.3253 48.7524 26.937 48.381 32 48.381C37.0634 48.381 41.6752 48.7556 45.0456 49.3704C46.6784 49.6683 48.0709 50.0314 49.0934 50.4598V14.3101C48.0706 14.7403 46.6782 15.1045 45.0461 15.403C41.6753 16.0195 37.0634 16.3941 32 16.3941C26.9365 16.3941 22.3247 16.0195 18.9543 15.4046C17.3215 15.1068 15.929 14.7436 14.9065 14.3153ZM30.711 20.6003C31.001 20.2689 31.4087 20.081 31.85 20.081C32.2913 20.081 32.699 20.2689 32.9889 20.6003L32.9962 20.6086L33.0064 20.6206C33.2203 20.8699 35.0652 23.0202 36.8769 25.6394C37.7988 26.9721 38.7281 28.449 39.431 29.8747C40.1182 31.2685 40.6565 32.7448 40.6565 34.0375C40.6565 38.8973 36.7098 42.8441 31.85 42.8441C26.9901 42.8441 23.0434 38.8973 23.0434 34.0375C23.0434 32.7448 23.5818 31.2685 24.269 29.8747C24.9719 28.449 25.9011 26.9721 26.823 25.6394C28.6348 23.0202 30.4796 20.8699 30.6936 20.6206L30.711 20.6003ZM31.85 22.6047C31.1624 23.4327 29.8718 25.0342 28.6019 26.87C27.7113 28.1576 26.8468 29.5377 26.2091 30.8312C25.5557 32.1565 25.2065 33.2615 25.2065 34.0375C25.2065 37.7027 28.1848 40.681 31.85 40.681C35.5151 40.681 38.4934 37.7027 38.4934 34.0375C38.4934 33.2615 38.1443 32.1565 37.4908 30.8312C36.8531 29.5377 35.9886 28.1576 35.098 26.87C33.8281 25.0342 32.5375 23.4327 31.85 22.6047Z" fill="#12A71E"/>
<path d="M25.8501 34.1125C25.8501 37.425 28.5376 40.1125 31.8501 40.1125C35.1626 40.1125 37.8501 37.425 37.8501 34.1125C37.8501 32.75 36.7751 30.4875 34.7251 27.5625C33.5501 25.8875 32.3751 24.4375 31.8501 23.8125C30.6251 25.2875 25.8501 31.1875 25.8501 34.1125Z" fill="#12A71E"/>
<path fill-rule="evenodd" clip-rule="evenodd" d="M14.7899 12.1392C14.7897 12.1392 14.7906 12.1376 14.7929 12.1346C14.7911 12.1376 14.79 12.1392 14.7899 12.1392ZM14.9586 11.9875C15.1016 11.8837 15.3242 11.7564 15.649 11.6165C16.4671 11.264 17.7125 10.9233 19.3276 10.629C22.5413 10.0433 27.0222 9.67499 32 9.67499C36.9777 9.67499 41.4586 10.0433 44.6723 10.629C46.2874 10.9233 47.5328 11.264 48.3509 11.6165C48.6757 11.7564 48.8983 11.8837 49.0413 11.9875C48.8983 12.0913 48.6757 12.2186 48.3509 12.3585C47.5328 12.711 46.2874 13.0516 44.6723 13.346C41.4586 13.9317 36.9777 14.3 32 14.3C27.0222 14.3 22.5413 13.9317 19.3276 13.346C17.7125 13.0516 16.4671 12.711 15.649 12.3585C15.3242 12.2186 15.1016 12.0913 14.9586 11.9875ZM49.21 12.1392C49.2099 12.1392 49.2087 12.1376 49.2069 12.1345C49.2092 12.1376 49.2102 12.1392 49.21 12.1392ZM49.2069 11.8405C49.2088 11.8374 49.2099 11.8358 49.21 11.8358C49.2102 11.8358 49.2093 11.8374 49.2069 11.8405ZM14.7929 11.8404C14.7906 11.8373 14.7897 11.8358 14.7899 11.8358C14.79 11.8358 14.7911 11.8373 14.7929 11.8404ZM18.969 8.6614C22.3333 8.04824 26.9399 7.67499 32 7.67499C37.06 7.67499 41.6666 8.04824 45.0309 8.6614C46.7049 8.96649 48.1211 9.33967 49.1424 9.77974C49.6492 9.99813 50.1155 10.2567 50.4708 10.5732C50.8222 10.8861 51.1749 11.3591 51.1749 11.9875C51.1749 12.6159 50.8222 13.0888 50.4708 13.4018C50.1155 13.7183 49.6492 13.9768 49.1424 14.1952C48.1211 14.6353 46.7049 15.0085 45.0309 15.3136C41.6666 15.9267 37.06 16.3 32 16.3C26.9399 16.3 22.3333 15.9267 18.969 15.3136C17.295 15.0085 15.8788 14.6353 14.8575 14.1952C14.3507 13.9768 13.8844 13.7183 13.5291 13.4018C13.1777 13.0888 12.825 12.6159 12.825 11.9875C12.825 11.3591 13.1777 10.8861 13.5291 10.5732C13.8844 10.2567 14.3507 9.99813 14.8575 9.77974C15.8788 9.33967 17.295 8.96649 18.969 8.6614Z" fill="#FCFCFC"/>
<path fill-rule="evenodd" clip-rule="evenodd" d="M14.7899 52.9142C14.7897 52.9142 14.7906 52.9127 14.7929 52.9096C14.7911 52.9127 14.79 52.9142 14.7899 52.9142ZM14.9586 52.7625C15.1016 52.6587 15.3242 52.5314 15.649 52.3915C16.4671 52.039 17.7125 51.6984 19.3276 51.404C22.5413 50.8183 27.0222 50.45 32 50.45C36.9777 50.45 41.4586 50.8183 44.6723 51.404C46.2874 51.6984 47.5328 52.039 48.3509 52.3915C48.6757 52.5314 48.8983 52.6587 49.0413 52.7625C48.8983 52.8663 48.6757 52.9936 48.3509 53.1335C47.5328 53.486 46.2874 53.8267 44.6723 54.121C41.4586 54.7067 36.9777 55.075 32 55.075C27.0222 55.075 22.5413 54.7067 19.3276 54.121C17.7125 53.8267 16.4671 53.486 15.649 53.1335C15.3242 52.9936 15.1016 52.8663 14.9586 52.7625ZM49.21 52.9142C49.2099 52.9142 49.2087 52.9126 49.2069 52.9095C49.2092 52.9126 49.2102 52.9142 49.21 52.9142ZM49.2069 52.6156C49.2088 52.6124 49.2099 52.6108 49.21 52.6108C49.2102 52.6108 49.2093 52.6124 49.2069 52.6156ZM14.7929 52.6154C14.7906 52.6124 14.7897 52.6108 14.7899 52.6108C14.79 52.6108 14.7911 52.6124 14.7929 52.6154ZM18.969 49.4364C22.3333 48.8233 26.9399 48.45 32 48.45C37.06 48.45 41.6666 48.8233 45.0309 49.4364C46.7049 49.7415 48.1211 50.1147 49.1424 50.5548C49.6492 50.7732 50.1155 51.0317 50.4708 51.3482C50.8222 51.6612 51.1749 52.1341 51.1749 52.7625C51.1749 53.3909 50.8222 53.8639 50.4708 54.1768C50.1155 54.4933 49.6492 54.7519 49.1424 54.9703C48.1211 55.4103 46.7049 55.7835 45.0309 56.0886C41.6666 56.7018 37.06 57.075 32 57.075C26.9399 57.075 22.3333 56.7018 18.969 56.0886C17.295 55.7835 15.8788 55.4103 14.8575 54.9703C14.3507 54.7519 13.8844 54.4933 13.5291 54.1768C13.1777 53.8639 12.825 53.3909 12.825 52.7625C12.825 52.1341 13.1777 51.6612 13.5291 51.3482C13.8844 51.0317 14.3507 50.7732 14.8575 50.5548C15.8788 50.1147 17.295 49.7415 18.969 49.4364Z" fill="#FCFCFC"/>
<path fill-rule="evenodd" clip-rule="evenodd" d="M49.175 52.7625V11.9875H51.175V52.7625H49.175Z" fill="#FCFCFC"/>
<path fill-rule="evenodd" clip-rule="evenodd" d="M12.825 52.7625V11.9875H14.825V52.7625H12.825Z" fill="#FCFCFC"/>
</svg>
