<svg width="64" height="64" viewBox="0 0 64 64" fill="none" xmlns="http://www.w3.org/2000/svg">
<g clip-path="url(#clip0_5611_3414)">
<path d="M23.6371 29.2816L13.5994 41.0925L19.0283 42.6314L14.7945 54.208L26.0274 41.1472L20.6219 39.6396L23.6371 29.2816Z" fill="#282828"/>
<path d="M62.796 17.791H60.7728V12.5807C60.7728 11.9558 60.2573 11.4168 59.6089 11.4168C58.984 11.4168 58.445 11.9324 58.445 12.5807V17.791H54.4065V12.5807C54.4065 11.9558 53.891 11.4168 53.2426 11.4168C52.5864 11.4168 52.0787 11.9324 52.0787 12.5807V17.791H50.0555C49.4306 17.791 48.8916 18.3065 48.8916 18.9549V25.329C48.8916 29.0317 51.6256 32.1875 55.2658 32.7577V38.0539C55.2658 38.0851 55.2658 38.1086 55.2658 38.1398V56.1764C55.2658 57.0591 55.0392 61.496 50.4305 61.496C46.306 61.496 46.1029 57.0591 46.1029 56.1764V38.8975C46.1029 37.5618 45.5874 35.3433 42.2363 35.2808C41.6426 35.2808 40.4474 35.2808 39.6507 35.2808V6.74558C39.6507 3.04295 36.6667 0.0589752 32.9641 0.0589752H6.62386C2.92123 0.0589752 -0.0627441 3.04295 -0.0627441 6.74558V61.7773C-0.0627441 62.9724 0.905876 63.941 2.10103 63.941H37.4713C38.6664 63.941 39.6351 62.9724 39.6351 61.7773V37.5618C40.4865 37.5618 41.627 37.5618 42.166 37.5618C43.533 37.593 43.7907 37.9914 43.7907 38.8975V56.1686C43.7907 60.9492 47.1497 63.7926 50.4227 63.7926C53.9222 63.7926 57.5623 60.9492 57.5623 56.1686V38.132C57.5623 38.1007 57.5623 38.0773 57.5623 38.0461V32.7265C61.2025 32.1562 63.9365 29.0004 63.9365 25.2978V18.9236C63.9599 18.2987 63.4444 17.791 62.796 17.791ZM26.7383 41.6862L15.3024 54.9188C15.1618 55.0907 14.904 55.2 14.6775 55.2C14.5056 55.2 14.365 55.1688 14.2478 55.0828C13.9041 54.8876 13.7635 54.4579 13.9041 54.0908L17.888 43.1938L13.3105 41.8815C13.0527 41.8268 12.8262 41.6003 12.7402 41.3425C12.6543 41.0613 12.709 40.7723 12.9121 40.5457L23.0982 28.5395C23.356 28.2583 23.7778 28.1724 24.1215 28.3442C24.4887 28.5395 24.6371 28.9379 24.5199 29.3129L21.7 39.0147L26.34 40.327C26.6212 40.4129 26.8243 40.6082 26.9102 40.8972C26.9961 41.1785 26.9414 41.4597 26.7383 41.6862ZM33.3156 19.2986H6.3114V7.0346H33.3156V19.2986ZM56.4453 30.508C53.5707 30.508 51.2351 28.1724 51.2351 25.2978V20.0875H61.6477V25.2978C61.6555 28.1724 59.2965 30.508 56.4453 30.508Z" fill="#282828"/>
</g>
<defs>
<clipPath id="clip0_5611_3414">
<rect width="63.8748" height="64" fill="white"/>
</clipPath>
</defs>
</svg>
