<svg width="64" height="64" viewBox="0 0 64 64" fill="none" xmlns="http://www.w3.org/2000/svg">
<path d="M25.6627 29.8207L17.6157 39.2892L21.968 40.5229L18.5738 49.8035L27.5789 39.3331L23.2455 38.1245L25.6627 29.8207Z" fill="#282828"/>
<path d="M57.0553 20.609H55.4333V16.4321C55.4333 15.9311 55.02 15.499 54.5003 15.499C53.9993 15.499 53.5672 15.9123 53.5672 16.4321V20.609H50.3296V16.4321C50.3296 15.9311 49.9163 15.499 49.3965 15.499C48.8705 15.499 48.4635 15.9123 48.4635 16.4321V20.609H46.8416C46.3406 20.609 45.9085 21.0223 45.9085 21.5421V26.6521C45.9085 29.6204 48.1003 32.1503 51.0185 32.6074V36.8532C51.0185 36.8783 51.0185 36.8971 51.0185 36.9221V51.3816C51.0185 52.0892 50.8369 55.6462 47.1421 55.6462C43.8357 55.6462 43.6729 52.0892 43.6729 51.3816V37.5295C43.6729 36.4587 43.2596 34.6802 40.5731 34.6301C40.0971 34.6301 39.139 34.6301 38.5003 34.6301V11.7542C38.5003 8.78591 36.1081 6.39374 33.1398 6.39374H12.0236C9.05526 6.39374 6.66309 8.78591 6.66309 11.7542V55.8716C6.66309 56.8297 7.4396 57.6063 8.39772 57.6063H36.7531C37.7112 57.6063 38.4877 56.8297 38.4877 55.8716V36.4587C39.1703 36.4587 40.0846 36.4587 40.5167 36.4587C41.6126 36.4838 41.8193 36.8031 41.8193 37.5295V51.3753C41.8193 55.2078 44.512 57.4873 47.1359 57.4873C49.9414 57.4873 52.8596 55.2078 52.8596 51.3753V36.9159C52.8596 36.8908 52.8596 36.872 52.8596 36.847V32.5824C55.7778 32.1252 57.9696 29.5953 57.9696 26.627V21.517C57.9883 21.016 57.575 20.609 57.0553 20.609ZM28.1488 39.7652L18.9809 50.3734C18.8682 50.5112 18.6615 50.5988 18.4799 50.5988C18.3421 50.5988 18.2294 50.5738 18.1355 50.5049C17.86 50.3483 17.7472 50.0039 17.86 49.7096L21.0537 40.9738L17.384 39.9217C17.1774 39.8779 16.9958 39.6963 16.9269 39.4896C16.858 39.2642 16.9018 39.0325 17.0647 38.8509L25.2306 29.2258C25.4373 29.0004 25.7754 28.9315 26.051 29.0693C26.3453 29.2258 26.4643 29.5452 26.3703 29.8458L24.1097 37.6235L27.8294 38.6755C28.0549 38.7444 28.2177 38.901 28.2866 39.1327C28.3555 39.3581 28.3116 39.5836 28.1488 39.7652ZM33.4216 21.8176H11.7731V11.9859H33.4216V21.8176ZM51.9641 30.8039C49.6596 30.8039 47.7872 28.9315 47.7872 26.627V22.4501H56.1347V26.627C56.141 28.9315 54.2498 30.8039 51.9641 30.8039Z" fill="#282828"/>
</svg>
