<svg width="24" height="24" viewBox="0 0 24 24" fill="none" xmlns="http://www.w3.org/2000/svg">
<path d="M12.0029 18C12.305 18 12.5615 17.7603 12.5615 17.4705V12.549H17.447C17.7435 12.549 18 12.2982 18 12.0028C18 11.7018 17.7435 11.4566 17.447 11.4566H12.5615V6.52949C12.5615 6.23967 12.305 6 12.0029 6C11.695 6 11.4442 6.23967 11.4442 6.52949V11.4566H6.55867C6.26223 11.4566 6 11.7018 6 12.0028C6 12.2982 6.26223 12.549 6.55867 12.549H11.4442V17.4705C11.4442 17.7603 11.695 18 12.0029 18Z" fill="white"/>
<rect x="2.5" y="2.5" width="19" height="19" rx="0.5" stroke="white"/>
</svg>
