<svg width="24" height="24" viewBox="0 0 24 24" fill="none" xmlns="http://www.w3.org/2000/svg">
<path d="M14.8024 23.99C14.6123 23.99 14.4334 23.9453 14.288 23.8558C13.7849 23.5316 11.2802 21.7984 10.8217 19.1596C10.5757 17.6948 10.9895 16.2412 12.0629 14.8546C15.1826 10.8181 15.5292 9.64399 15.5404 9.59926C15.5851 9.28618 15.7976 9.06255 16.0995 8.96191C16.4014 8.86128 16.7144 8.96191 16.9493 9.18554C19.4987 11.6567 20.6616 14.2061 20.3932 16.7667C19.9683 20.7809 16.0771 23.4086 15.3056 23.8894C15.1714 23.9453 14.9813 23.99 14.8024 23.99ZM16.6138 11.2318C16.0995 12.1375 15.1602 13.5911 13.3935 15.861C12.5996 16.8785 12.3089 17.8625 12.4766 18.8577C12.745 20.4119 14.1091 21.6307 14.8136 22.1562C15.9206 21.3847 18.4252 19.3496 18.716 16.5431C18.906 14.8211 18.2016 13.0432 16.6138 11.2318Z" fill="white"/>
<path d="M9.7923 24C9.50157 24 9.21085 23.9217 8.9984 23.8658C6.52726 23.1614 4.29093 20.9027 3.41877 18.2526C2.52424 15.5355 3.07214 12.6954 4.97301 10.2466C8.43932 5.70685 9.59103 2.05045 9.85939 1.04411C9.98239 0.563297 10.3402 0.194303 10.8322 0.0489415C11.3354 -0.0852381 11.8833 0.0601231 12.2634 0.440299C12.297 0.462662 12.3193 0.496207 12.3417 0.529752C13.3928 1.93864 14.5221 4.4545 14.5221 7.29464C14.5221 9.24024 13.158 11.0069 11.8385 12.7066C10.4408 14.518 8.9984 16.3853 9.15494 18.4092C9.30031 19.9075 9.94884 21.048 10.3849 21.8084C10.7539 22.4458 11.1005 23.0496 10.6645 23.6198C10.4297 23.9105 10.1166 24 9.7923 24ZM11.3242 2.00573C10.8098 3.69415 9.46803 7.11573 6.30363 11.2753C4.32448 13.8359 4.51457 16.2064 5.01774 17.7383C5.61037 19.5385 6.95216 21.104 8.51759 21.8867C8.09269 21.0592 7.62306 19.9411 7.48888 18.5545C7.28761 15.871 8.9984 13.6458 10.5191 11.6778C11.7155 10.1236 12.8449 8.6588 12.8449 7.28346C12.8449 5.15895 12.0845 3.21334 11.3242 2.00573Z" fill="white"/>
</svg>
