<svg width="64" height="64" viewBox="0 0 64 64" fill="none" xmlns="http://www.w3.org/2000/svg">
<g clip-path="url(#clip0_6344_14142)">
<path d="M55.2299 5.46912C55.7547 5.46912 56.1691 5.89726 56.1691 6.40826C56.1691 6.93308 55.7409 7.34741 55.2299 7.34741C54.7051 7.34741 54.2908 6.91927 54.2908 6.40826C54.2908 5.89726 54.7189 5.46912 55.2299 5.46912Z" fill="#FCFCFC"/>
<path fill-rule="evenodd" clip-rule="evenodd" d="M52.2885 23.6581C48.9094 23.6581 46.1702 26.3974 46.1702 29.7764C46.1702 33.1554 48.9094 35.8946 52.2885 35.8946C55.6675 35.8946 58.4067 33.1554 58.4067 29.7764C58.4067 26.3974 55.6675 23.6581 52.2885 23.6581ZM43.9604 29.7764C43.9604 25.1769 47.689 21.4484 52.2885 21.4484C56.8879 21.4484 60.6165 25.1769 60.6165 29.7764C60.6165 34.3758 56.8879 38.1044 52.2885 38.1044C47.689 38.1044 43.9604 34.3758 43.9604 29.7764Z" fill="#FCFCFC"/>
<path fill-rule="evenodd" clip-rule="evenodd" d="M46.6333 34.218L56.7705 24.067L57.9432 25.2381L47.806 35.3891L46.6333 34.218Z" fill="#FCFCFC"/>
<path fill-rule="evenodd" clip-rule="evenodd" d="M44.9211 30.8892L53.6359 22.1745L54.8078 23.3464L46.093 32.0611L44.9211 30.8892Z" fill="#FCFCFC"/>
<path fill-rule="evenodd" clip-rule="evenodd" d="M49.8242 35.7921L58.5389 27.0774L59.7108 28.2493L50.9961 36.964L49.8242 35.7921Z" fill="#FCFCFC"/>
<path fill-rule="evenodd" clip-rule="evenodd" d="M47.6396 24.0938L57.7907 34.2311L56.6196 35.4038L46.4685 25.2665L47.6396 24.0938Z" fill="#FCFCFC"/>
<path fill-rule="evenodd" clip-rule="evenodd" d="M50.9678 22.3812L59.6826 31.0821L58.5116 32.255L49.7969 23.5541L50.9678 22.3812Z" fill="#FCFCFC"/>
<path fill-rule="evenodd" clip-rule="evenodd" d="M46.0655 27.2845L54.7802 35.9993L53.6083 37.1712L44.8936 28.4564L46.0655 27.2845Z" fill="#FCFCFC"/>
<path fill-rule="evenodd" clip-rule="evenodd" d="M47.9791 49.7747C46.9723 49.7747 46.1561 50.5909 46.1561 51.5977C46.1561 52.6046 46.9723 53.4208 47.9791 53.4208C48.986 53.4208 49.8022 52.6046 49.8022 51.5977C49.8022 50.5909 48.986 49.7747 47.9791 49.7747ZM44.4988 51.5977C44.4988 49.6756 46.057 48.1174 47.9791 48.1174C49.9013 48.1174 51.4595 49.6756 51.4595 51.5977C51.4595 53.5199 49.9013 55.0781 47.9791 55.0781C46.057 55.0781 44.4988 53.5199 44.4988 51.5977Z" fill="#FCFCFC"/>
<path d="M29.3757 18.2995C29.3757 16.8493 30.5497 15.6754 31.9998 15.6754C33.45 15.6754 34.6239 16.8493 34.6239 18.2995" fill="#FCFCFC"/>
<path fill-rule="evenodd" clip-rule="evenodd" d="M3.68753 19.4043C2.8752 19.4043 2.20975 20.0698 2.20975 20.8821V54.8433C2.20975 55.6556 2.8752 56.321 3.68753 56.321H60.3125C61.1248 56.321 61.7902 55.6556 61.7902 54.8433V20.8821C61.7902 20.0698 61.1248 19.4043 60.3125 19.4043H3.68753ZM0 20.8821C0 18.8494 1.65479 17.1946 3.68753 17.1946H60.3125C62.3452 17.1946 64 18.8494 64 20.8821V54.8433C64 56.876 62.3452 58.5308 60.3125 58.5308H3.68753C1.65479 58.5308 0 56.876 0 54.8433V20.8821Z" fill="#FCFCFC"/>
<path d="M38.7949 54.2494H6.89155C5.38616 54.2494 4.15698 53.0203 4.15698 51.5149V24.2106C4.15698 22.7052 5.38616 21.476 6.89155 21.476H38.7949C40.3003 21.476 41.5294 22.7052 41.5294 24.2106V51.501C41.5294 53.0203 40.3003 54.2494 38.7949 54.2494Z" fill="#12A71E"/>
<path fill-rule="evenodd" clip-rule="evenodd" d="M6.8916 22.3047C5.84386 22.3047 4.98568 23.1628 4.98568 24.2106V51.5148C4.98568 52.5626 5.84386 53.4207 6.8916 53.4207H38.7949C39.8399 53.4207 40.7008 52.5653 40.7008 51.501V24.2106C40.7008 23.1628 39.8427 22.3047 38.7949 22.3047H6.8916ZM3.32837 24.2106C3.32837 22.2475 4.92855 20.6473 6.8916 20.6473H38.7949C40.758 20.6473 42.3581 22.2475 42.3581 24.2106V51.501C42.3581 53.4752 40.7607 55.0781 38.7949 55.0781H6.8916C4.92855 55.0781 3.32837 53.4779 3.32837 51.5148V24.2106Z" fill="#FCFCFC"/>
<path fill-rule="evenodd" clip-rule="evenodd" d="M55.2299 49.7747C54.223 49.7747 53.4068 50.5909 53.4068 51.5977C53.4068 52.6046 54.223 53.4208 55.2299 53.4208C56.2367 53.4208 57.0529 52.6046 57.0529 51.5977C57.0529 50.5909 56.2367 49.7747 55.2299 49.7747ZM51.7495 51.5977C51.7495 49.6756 53.3077 48.1174 55.2299 48.1174C57.152 48.1174 58.7102 49.6756 58.7102 51.5977C58.7102 53.5199 57.152 55.0781 55.2299 55.0781C53.3077 55.0781 51.7495 53.5199 51.7495 51.5977Z" fill="#FCFCFC"/>
<path fill-rule="evenodd" clip-rule="evenodd" d="M55.5734 7.16239L32.3434 17.7416L31.6565 16.2333L54.8865 5.65411L55.5734 7.16239Z" fill="#FCFCFC"/>
<path d="M17.0289 8.12079C17.0289 8.6456 16.6008 9.05993 16.0898 9.05993C15.5788 9.05993 15.1506 8.63179 15.1506 8.12079C15.1506 7.60978 15.5788 7.18164 16.0898 7.18164C16.6008 7.18164 17.0289 7.60978 17.0289 8.12079Z" fill="#FCFCFC"/>
<path fill-rule="evenodd" clip-rule="evenodd" d="M16.2498 7.26184L32.1324 16.2666L31.315 17.7083L15.4324 8.70356L16.2498 7.26184Z" fill="#FCFCFC"/>
<path d="M29.3344 29.0306L27.4561 30.7293L25.5916 29.0444C25.3154 28.8096 24.901 28.8096 24.6248 29.0444L22.7327 30.7293L20.8682 29.0444C20.592 28.8096 20.1777 28.8096 19.9015 29.0444L18.037 30.7293L16.1725 29.0444C15.8963 28.8096 15.482 28.8096 15.2057 29.0444L12.7888 31.1851L13.7556 32.2762L15.6201 30.5912L17.4845 32.2762C17.7608 32.511 18.1751 32.511 18.4513 32.2762L20.3158 30.5912L22.1803 32.2762C22.3322 32.4005 22.4841 32.4557 22.6637 32.4557C22.8432 32.4557 23.0227 32.4005 23.147 32.2762L25.0115 30.5912L26.876 32.2762C27.1522 32.511 27.5665 32.511 27.8428 32.2762L29.7072 30.5912L31.5717 32.2762L32.5385 31.1851L30.1906 29.0444C30.0249 28.7958 29.5968 28.7958 29.3344 29.0306Z" fill="#FCFCFC"/>
<path d="M29.3345 35.9361L27.47 37.6211L25.6055 35.9361C25.3293 35.7014 24.9149 35.7014 24.6387 35.9361L22.7466 37.6211L20.8821 35.9361C20.6059 35.7014 20.1916 35.7014 19.9154 35.9361L18.0509 37.6211L16.1864 35.9361C15.9102 35.7014 15.4959 35.7014 15.2197 35.9361L12.8027 38.0768L13.7695 39.1679L15.634 37.483L17.4985 39.1679C17.7747 39.4027 18.189 39.4027 18.4652 39.1679L20.3297 37.483L22.1942 39.1541C22.3461 39.2784 22.498 39.3336 22.6776 39.3336C22.8571 39.3336 23.0367 39.2784 23.161 39.1541L25.0254 37.4692L26.8899 39.1541C27.1661 39.3889 27.5805 39.3889 27.8567 39.1541L29.7212 37.4692L31.5856 39.1541L32.5524 38.063L30.2045 35.9223C30.025 35.6875 29.5969 35.6875 29.3345 35.9361Z" fill="#FCFCFC"/>
<path d="M29.3345 42.8277L27.47 44.5127L25.6055 42.8277C25.3293 42.593 24.9149 42.593 24.6387 42.8277L22.7466 44.5127L20.8821 42.8277C20.6059 42.593 20.1916 42.593 19.9154 42.8277L18.0509 44.5127L16.1864 42.8277C15.9102 42.593 15.4959 42.593 15.2197 42.8277L12.8027 44.9684L13.7695 46.0595L15.634 44.3746L17.4985 46.0595C17.7747 46.2943 18.189 46.2943 18.4652 46.0595L20.3297 44.3746L22.1942 46.0595C22.3461 46.1838 22.498 46.239 22.6776 46.239C22.8571 46.239 23.0367 46.1838 23.161 46.0595L25.0254 44.3746L26.8899 46.0595C27.1661 46.2943 27.5805 46.2943 27.8567 46.0595L29.7212 44.3746L31.5856 46.0595L32.5524 44.9684L30.2045 42.8277C30.025 42.5791 29.5969 42.5791 29.3345 42.8277Z" fill="#FCFCFC"/>
</g>
<defs>
<clipPath id="clip0_6344_14142">
<rect width="64" height="64" fill="white"/>
</clipPath>
</defs>
</svg>
