<svg width="64" height="64" viewBox="0 0 64 64" fill="none" xmlns="http://www.w3.org/2000/svg">
<path d="M53.2751 7.26251C53.7501 7.26251 54.125 7.65001 54.125 8.11251C54.125 8.58751 53.7376 8.96251 53.2751 8.96251C52.8001 8.96251 52.425 8.57501 52.425 8.11251C52.425 7.65001 52.8126 7.26251 53.2751 7.26251Z" fill="#FCFCFC"/>
<path fill-rule="evenodd" clip-rule="evenodd" d="M50.6127 23.725C47.5544 23.725 45.0752 26.2043 45.0752 29.2625C45.0752 32.3208 47.5544 34.8 50.6127 34.8C53.671 34.8 56.1502 32.3208 56.1502 29.2625C56.1502 26.2043 53.671 23.725 50.6127 23.725ZM43.0752 29.2625C43.0752 25.0997 46.4498 21.725 50.6127 21.725C54.7755 21.725 58.1502 25.0997 58.1502 29.2625C58.1502 33.4254 54.7755 36.8 50.6127 36.8C46.4498 36.8 43.0752 33.4254 43.0752 29.2625Z" fill="#FCFCFC"/>
<path fill-rule="evenodd" clip-rule="evenodd" d="M45.4944 33.2825L54.6694 24.095L55.7308 25.155L46.5558 34.3425L45.4944 33.2825Z" fill="#FCFCFC"/>
<path fill-rule="evenodd" clip-rule="evenodd" d="M43.9448 30.2697L51.8323 22.3822L52.893 23.4429L45.0055 31.3304L43.9448 30.2697Z" fill="#FCFCFC"/>
<path fill-rule="evenodd" clip-rule="evenodd" d="M48.3823 34.7072L56.2698 26.8197L57.3305 27.8804L49.443 35.7679L48.3823 34.7072Z" fill="#FCFCFC"/>
<path fill-rule="evenodd" clip-rule="evenodd" d="M46.4052 24.1193L55.5927 33.2943L54.5327 34.3557L45.3452 25.1807L46.4052 24.1193Z" fill="#FCFCFC"/>
<path fill-rule="evenodd" clip-rule="evenodd" d="M49.4175 22.5693L57.305 30.4443L56.2452 31.5058L48.3577 23.6308L49.4175 22.5693Z" fill="#FCFCFC"/>
<path fill-rule="evenodd" clip-rule="evenodd" d="M44.9803 27.0072L52.8678 34.8947L51.8072 35.9554L43.9197 28.0679L44.9803 27.0072Z" fill="#FCFCFC"/>
<path fill-rule="evenodd" clip-rule="evenodd" d="M46.7125 47.3625C45.8012 47.3625 45.0625 48.1012 45.0625 49.0125C45.0625 49.9238 45.8012 50.6625 46.7125 50.6625C47.6238 50.6625 48.3625 49.9238 48.3625 49.0125C48.3625 48.1012 47.6238 47.3625 46.7125 47.3625ZM43.5625 49.0125C43.5625 47.2728 44.9728 45.8625 46.7125 45.8625C48.4522 45.8625 49.8625 47.2728 49.8625 49.0125C49.8625 50.7522 48.4522 52.1625 46.7125 52.1625C44.9728 52.1625 43.5625 50.7522 43.5625 49.0125Z" fill="#FCFCFC"/>
<path d="M29.875 18.875C29.875 17.5625 30.9375 16.5 32.25 16.5C33.5625 16.5 34.625 17.5625 34.625 18.875" fill="#FCFCFC"/>
<path fill-rule="evenodd" clip-rule="evenodd" d="M6.6251 19.875C5.88988 19.875 5.2876 20.4773 5.2876 21.2125V51.95C5.2876 52.6852 5.88988 53.2875 6.6251 53.2875H57.8751C58.6103 53.2875 59.2126 52.6852 59.2126 51.95V21.2125C59.2126 20.4773 58.6103 19.875 57.8751 19.875H6.6251ZM3.2876 21.2125C3.2876 19.3727 4.78531 17.875 6.6251 17.875H57.8751C59.7149 17.875 61.2126 19.3727 61.2126 21.2125V51.95C61.2126 53.7898 59.7149 55.2875 57.8751 55.2875H6.6251C4.78531 55.2875 3.2876 53.7898 3.2876 51.95V21.2125Z" fill="#FCFCFC"/>
<path d="M38.4001 51.4125H9.52505C8.16255 51.4125 7.05005 50.3 7.05005 48.9375V24.225C7.05005 22.8625 8.16255 21.75 9.52505 21.75H38.4001C39.7626 21.75 40.875 22.8625 40.875 24.225V48.925C40.875 50.3 39.7626 51.4125 38.4001 51.4125Z" fill="#12A71E"/>
<path fill-rule="evenodd" clip-rule="evenodd" d="M9.52505 22.5C8.57676 22.5 7.80005 23.2767 7.80005 24.225V48.9375C7.80005 49.8858 8.57676 50.6625 9.52505 50.6625H38.4001C39.3459 50.6625 40.125 49.8882 40.125 48.925V24.225C40.125 23.2767 39.3483 22.5 38.4001 22.5H9.52505ZM6.30005 24.225C6.30005 22.4483 7.74833 21 9.52505 21H38.4001C40.1768 21 41.625 22.4483 41.625 24.225V48.925C41.625 50.7118 40.1792 52.1625 38.4001 52.1625H9.52505C7.74834 52.1625 6.30005 50.7142 6.30005 48.9375V24.225Z" fill="#FCFCFC"/>
<path fill-rule="evenodd" clip-rule="evenodd" d="M53.275 47.3625C52.3637 47.3625 51.625 48.1012 51.625 49.0125C51.625 49.9238 52.3637 50.6625 53.275 50.6625C54.1863 50.6625 54.925 49.9238 54.925 49.0125C54.925 48.1012 54.1863 47.3625 53.275 47.3625ZM50.125 49.0125C50.125 47.2728 51.5353 45.8625 53.275 45.8625C55.0147 45.8625 56.425 47.2728 56.425 49.0125C56.425 50.7522 55.0147 52.1625 53.275 52.1625C51.5353 52.1625 50.125 50.7522 50.125 49.0125Z" fill="#FCFCFC"/>
<path fill-rule="evenodd" clip-rule="evenodd" d="M53.5859 8.79504L32.5609 18.37L31.9392 17.0049L52.9642 7.42993L53.5859 8.79504Z" fill="#FCFCFC"/>
<path d="M18.7 9.6625C18.7 10.1375 18.3125 10.5125 17.85 10.5125C17.3875 10.5125 17 10.125 17 9.6625C17 9.2 17.3875 8.8125 17.85 8.8125C18.3125 8.8125 18.7 9.2 18.7 9.6625Z" fill="#FCFCFC"/>
<path fill-rule="evenodd" clip-rule="evenodd" d="M17.9949 8.88507L32.3699 17.0351L31.6301 18.3399L17.2551 10.1899L17.9949 8.88507Z" fill="#FCFCFC"/>
<path d="M29.8375 28.5875L28.1375 30.125L26.45 28.6C26.2 28.3875 25.825 28.3875 25.575 28.6L23.8625 30.125L22.175 28.6C21.925 28.3875 21.55 28.3875 21.3 28.6L19.6125 30.125L17.925 28.6C17.675 28.3875 17.3 28.3875 17.05 28.6L14.8625 30.5375L15.7375 31.525L17.425 30L19.1125 31.525C19.3625 31.7375 19.7375 31.7375 19.9875 31.525L21.675 30L23.3625 31.525C23.5 31.6375 23.6375 31.6875 23.8 31.6875C23.9625 31.6875 24.125 31.6375 24.2375 31.525L25.925 30L27.6125 31.525C27.8625 31.7375 28.2375 31.7375 28.4875 31.525L30.175 30L31.8625 31.525L32.7375 30.5375L30.6125 28.6C30.4625 28.375 30.075 28.375 29.8375 28.5875Z" fill="#FCFCFC"/>
<path d="M29.8375 34.8375L28.15 36.3625L26.4625 34.8375C26.2125 34.625 25.8375 34.625 25.5875 34.8375L23.875 36.3625L22.1875 34.8375C21.9375 34.625 21.5625 34.625 21.3125 34.8375L19.625 36.3625L17.9375 34.8375C17.6875 34.625 17.3125 34.625 17.0625 34.8375L14.875 36.775L15.75 37.7625L17.4375 36.2375L19.125 37.7625C19.375 37.975 19.75 37.975 20 37.7625L21.6875 36.2375L23.375 37.75C23.5125 37.8625 23.65 37.9125 23.8125 37.9125C23.975 37.9125 24.1375 37.8625 24.25 37.75L25.9375 36.225L27.625 37.75C27.875 37.9625 28.25 37.9625 28.5 37.75L30.1875 36.225L31.875 37.75L32.75 36.7625L30.625 34.825C30.4625 34.6125 30.075 34.6125 29.8375 34.8375Z" fill="#FCFCFC"/>
<path d="M29.8375 41.075L28.15 42.6L26.4625 41.075C26.2125 40.8625 25.8375 40.8625 25.5875 41.075L23.875 42.6L22.1875 41.075C21.9375 40.8625 21.5625 40.8625 21.3125 41.075L19.625 42.6L17.9375 41.075C17.6875 40.8625 17.3125 40.8625 17.0625 41.075L14.875 43.0125L15.75 44L17.4375 42.475L19.125 44C19.375 44.2125 19.75 44.2125 20 44L21.6875 42.475L23.375 44C23.5125 44.1125 23.65 44.1625 23.8125 44.1625C23.975 44.1625 24.1375 44.1125 24.25 44L25.9375 42.475L27.625 44C27.875 44.2125 28.25 44.2125 28.5 44L30.1875 42.475L31.875 44L32.75 43.0125L30.625 41.075C30.4625 40.85 30.075 40.85 29.8375 41.075Z" fill="#FCFCFC"/>
</svg>
