<svg width="48" height="48" viewBox="0 0 48 48" fill="none" xmlns="http://www.w3.org/2000/svg">
<path fill-rule="evenodd" clip-rule="evenodd" d="M29.6854 24.4H27.8854V26.4H31.2854C31.6168 26.4 31.8854 26.6686 31.8854 27C31.8854 27.3314 31.6168 27.6 31.2854 27.6L27.2854 27.6L20.0854 27.6C18.6495 27.6 17.4854 28.7641 17.4854 30.2V31.8H19.8854V30.6C19.8854 30.2686 20.154 30 20.4854 30H31.2854C31.6168 30 31.8854 30.2686 31.8854 30.6C31.8854 30.9314 31.6168 31.2 31.2854 31.2H21.0854V32.4C21.0854 32.7314 20.8168 33 20.4854 33H16.8854C16.554 33 16.2854 32.7314 16.2854 32.4V30.2C16.2854 28.1013 17.9867 26.4 20.0854 26.4H26.6854V24.4H24.8854C24.554 24.4 24.2854 24.1314 24.2854 23.8C24.2854 23.4686 24.554 23.2 24.8854 23.2H27.2854H29.6854C30.0168 23.2 30.2854 23.4686 30.2854 23.8C30.2854 24.1314 30.0168 24.4 29.6854 24.4ZM18.4834 33.6C18.3054 33.6 18.1334 33.6598 17.9942 33.7686L16.2854 36.5816C16.2863 37.7967 17.2641 38.8 18.4854 38.8C19.706 38.8 20.685 37.7992 20.6854 36.5827L20.6854 36.5831L20.0854 36.582H20.6854V36.5827C20.6866 35.842 20.3145 35.1988 19.9574 34.7438C19.5923 34.2787 19.1809 33.9316 18.9744 33.7701C18.8349 33.6603 18.6622 33.6 18.4834 33.6ZM19.0134 35.4847C18.8376 35.2607 18.6436 35.0679 18.4818 34.9226C18.3202 35.066 18.1271 35.256 17.9526 35.4777C17.6649 35.8431 17.4835 36.2233 17.4854 36.5768L17.4854 36.58C17.4854 37.1482 17.9413 37.6 18.4854 37.6C19.0304 37.6 19.4854 37.1492 19.4854 36.582L19.4854 36.5809C19.486 36.2358 19.3041 35.8551 19.0134 35.4847Z" fill="black"/>
<path d="M3.79603 41.2553C2.01321 37.9632 1 34.1871 1 30.1727C1 22.2354 4.96094 15.2301 11 11.0539M44.204 41.2553C45.9868 37.9632 47 34.1871 47 30.1727C47 17.3748 36.7025 7 24 7C22.3628 7 20.7656 7.17234 19.2252 7.5" stroke="black" stroke-width="1.5" stroke-linecap="round"/>
<circle cx="15" cy="9" r="3" fill="#EB3A28"/>
<path d="M24 7V11" stroke="black" stroke-width="1.5" stroke-linecap="round" stroke-linejoin="round"/>
<path d="M47 31L43 31" stroke="black" stroke-width="1.5" stroke-linecap="round" stroke-linejoin="round"/>
<path d="M5 31L1 31" stroke="black" stroke-width="1.5" stroke-linecap="round" stroke-linejoin="round"/>
<path d="M41 15L38.1716 17.8284" stroke="black" stroke-width="1.5" stroke-linecap="round" stroke-linejoin="round"/>
<path d="M7 15L9.82843 17.8284" stroke="black" stroke-width="1.5" stroke-linecap="round" stroke-linejoin="round"/>
</svg>
