<svg width="64" height="64" viewBox="0 0 64 64" fill="none" xmlns="http://www.w3.org/2000/svg">
<path fill-rule="evenodd" clip-rule="evenodd" d="M7.025 4.25C6.93979 4.25 6.875 4.31479 6.875 4.4V54.975C6.875 55.0602 6.93979 55.125 7.025 55.125H57.6C57.6852 55.125 57.75 55.0602 57.75 54.975V4.4C57.75 4.31479 57.6852 4.25 57.6 4.25H7.025ZM4.875 4.4C4.875 3.21022 5.83522 2.25 7.025 2.25H57.6C58.7898 2.25 59.75 3.21021 59.75 4.4V54.975C59.75 56.1648 58.7898 57.125 57.6 57.125H7.025C5.83521 57.125 4.875 56.1648 4.875 54.975V4.4Z" fill="#FCFCFC"/>
<path fill-rule="evenodd" clip-rule="evenodd" d="M8.44995 5.86249H30.9625V28.375H8.44995V5.86249ZM9.94995 7.36249V26.875H29.4625V7.36249H9.94995Z" fill="#FCFCFC"/>
<path fill-rule="evenodd" clip-rule="evenodd" d="M33.4875 5.75H56V28.2625H33.4875V5.75ZM34.9875 7.25V26.7625H54.5V7.25H34.9875Z" fill="#FCFCFC"/>
<path fill-rule="evenodd" clip-rule="evenodd" d="M8.5376 30.9875H31.0501V53.5H8.5376V30.9875ZM10.0376 32.4875V52H29.5501V32.4875H10.0376Z" fill="#FCFCFC"/>
<path fill-rule="evenodd" clip-rule="evenodd" d="M33.575 30.875H56.0875V53.3875H33.575V30.875ZM35.075 32.375V51.8875H54.5875V32.375H35.075Z" fill="#FCFCFC"/>
<path fill-rule="evenodd" clip-rule="evenodd" d="M45.6751 11.0125C42.7709 11.0125 40.3491 13.0701 39.7924 15.7998L37.8328 15.4002C38.5761 11.755 41.8043 9.01251 45.6751 9.01251C50.0899 9.01251 53.6751 12.5977 53.6751 17.0125C53.6751 21.4273 50.0899 25.0125 45.6751 25.0125C44.2215 25.0125 42.8492 24.6272 41.662 23.9407L42.6632 22.2093C43.551 22.7228 44.5787 23.0125 45.6751 23.0125C48.9853 23.0125 51.6751 20.3227 51.6751 17.0125C51.6751 13.7023 48.9853 11.0125 45.6751 11.0125Z" fill="#FCFCFC"/>
<path d="M28.4126 22.55C28.3376 22.5 28.2751 22.4375 28.2126 22.375C27.3126 21.525 27.1251 20.1625 27.8751 19.1125C28.0376 18.8875 28.2251 18.7 28.4251 18.5375V17.4375C28.1376 17.575 27.8751 17.75 27.6251 17.975C26.8251 18.725 26.4501 19.6375 26.5126 20.7375C26.5876 22.025 27.2126 22.95 28.3251 23.5875C28.3626 23.6125 28.3876 23.625 28.4251 23.6375V22.55H28.4126Z" fill="#FCFCFC"/>
<path fill-rule="evenodd" clip-rule="evenodd" d="M28.925 16.6442V18.7755L28.7403 18.9256C28.5683 19.0653 28.4133 19.2214 28.2811 19.4042C27.6854 20.2392 27.8273 21.3234 28.5558 22.0115L28.561 22.0164L28.5661 22.0215C28.5765 22.0319 28.5861 22.0414 28.5948 22.05H28.925V24.3313L28.2669 24.1119C28.1882 24.0856 28.1269 24.0549 28.0632 24.0138C26.825 23.2996 26.0987 22.2316 26.0134 20.7666C25.9423 19.5157 26.3772 18.4595 27.283 17.6103L27.2905 17.6033C27.5754 17.3469 27.8778 17.145 28.2093 16.9865L28.925 16.6442Z" fill="#FCFCFC"/>
<path d="M44.3624 18.8625C44.1749 17.8125 43.6249 16.95 42.7749 16.3C42.0124 15.725 41.1624 15.425 40.1999 15.4125C39.7499 15.4125 39.3124 15.475 38.8749 15.6C38.7749 15.625 38.7124 15.6375 38.6749 15.5125C38.4124 14.75 37.9874 14.1 37.3999 13.5625C37.0749 13.275 36.7249 13.025 36.3374 12.85C36.2499 12.8125 36.1749 12.775 36.0874 12.75V13.7875C36.2999 13.9 36.4999 14.0375 36.6999 14.2C37.4124 14.775 37.7999 15.55 37.9499 16.4375C37.9624 16.5 37.9749 16.5625 37.9874 16.625C38.0624 16.9625 38.0749 16.975 38.3749 16.825C38.9249 16.55 39.4999 16.35 40.1124 16.3375C40.6749 16.3375 41.2374 16.45 41.7374 16.7375C42.6374 17.25 43.2249 18 43.4374 19.025C43.6624 20.0875 43.3999 21.025 42.7124 21.8625C42.2249 22.4625 41.5874 22.825 40.8374 23C40.6374 23.05 40.4499 23.075 40.2499 23.075C38.8624 23.075 37.4749 23.075 36.0874 23.075V24.025C37.3874 24.025 38.6749 24.025 39.9749 24.025C40.3374 24.025 40.6999 24 41.0374 23.925C41.9374 23.725 42.7124 23.3 43.3374 22.6C44.2999 21.5 44.5999 20.2375 44.3624 18.8625Z" fill="#FCFCFC"/>
<path fill-rule="evenodd" clip-rule="evenodd" d="M35.5874 12.0872L36.2248 12.2693C36.3299 12.2993 36.4345 12.346 36.4986 12.3747C36.5126 12.3809 36.5246 12.3863 36.5344 12.3905L36.5432 12.3943C36.9899 12.596 37.3817 12.8789 37.7312 13.188L37.7375 13.1936C38.3071 13.7147 38.7392 14.3331 39.0321 15.0437C39.4163 14.9565 39.8037 14.9125 40.1999 14.9125H40.2064C41.2782 14.9264 42.2308 15.2635 43.0759 15.9008L43.0786 15.9028C44.0218 16.6241 44.6438 17.5942 44.8546 18.7746L44.8551 18.7774C45.1164 20.29 44.7826 21.7077 43.7137 22.9293L43.7104 22.933C43.0097 23.7178 42.1391 24.1924 41.1459 24.4131C40.7599 24.4989 40.3578 24.525 39.9749 24.525H35.5874V22.575H40.2499C40.4052 22.575 40.5519 22.556 40.7161 22.515L40.7238 22.513C41.3804 22.3598 41.9157 22.0502 42.3243 21.5472L42.3259 21.5453C42.925 20.8156 43.1393 20.0308 42.9482 19.1286L42.9478 19.1265C42.7669 18.2539 42.276 17.6196 41.49 17.172L41.4882 17.171C41.0828 16.9379 40.6132 16.8382 40.1176 16.8375C39.6097 16.8489 39.1121 17.0154 38.5985 17.2722C38.5306 17.3062 38.4401 17.3513 38.3546 17.3795C38.2788 17.4044 38.0754 17.4627 37.8622 17.3494C37.6603 17.2421 37.5895 17.0526 37.5661 16.9868C37.5379 16.9071 37.5168 16.8122 37.5001 16.737L37.497 16.7231L37.4581 16.5282L37.4569 16.5208C37.3233 15.7305 36.9865 15.0739 36.3859 14.5891L36.3846 14.5881C36.2042 14.4415 36.0313 14.3236 35.8535 14.2294L35.5874 14.0886V12.0872ZM38.3544 15.9375C38.3809 16.0399 38.404 16.1437 38.4239 16.2485C38.5295 16.2013 38.637 16.1567 38.7465 16.1154C38.7065 16.1132 38.6616 16.1069 38.6141 16.0933C38.5012 16.061 38.4171 16.0032 38.3544 15.9375Z" fill="#FCFCFC"/>
</svg>
