<svg width="64" height="64" viewBox="0 0 64 64" fill="none" xmlns="http://www.w3.org/2000/svg">
<g clip-path="url(#clip0_5611_49718)">
<path fill-rule="evenodd" clip-rule="evenodd" d="M2.50752 2.33257C2.40813 2.33257 2.33257 2.40813 2.33257 2.50752V61.4925C2.33257 61.5919 2.40813 61.6674 2.50752 61.6674H61.4925C61.5919 61.6674 61.6674 61.5919 61.6674 61.4925V2.50752C61.6674 2.40813 61.5919 2.33257 61.4925 2.33257H2.50752ZM0 2.50752C0 1.11989 1.11989 0 2.50752 0H61.4925C62.8801 0 64 1.11988 64 2.50752V61.4925C64 62.8801 62.8801 64 61.4925 64H2.50752C1.11988 64 0 62.8801 0 61.4925V2.50752Z" fill="#282828"/>
<path fill-rule="evenodd" clip-rule="evenodd" d="M4.16943 4.21321H30.4255V30.4692H4.16943V4.21321ZM5.91886 5.96264V28.7198H28.676V5.96264H5.91886Z" fill="#282828"/>
<path fill-rule="evenodd" clip-rule="evenodd" d="M33.3704 4.082H59.6264V30.338H33.3704V4.082ZM35.1198 5.83143V28.5886H57.877V5.83143H35.1198Z" fill="#282828"/>
<path fill-rule="evenodd" clip-rule="evenodd" d="M4.27173 33.5162H30.5278V59.7722H4.27173V33.5162ZM6.02116 35.2656V58.0228H28.7783V35.2656H6.02116Z" fill="#282828"/>
<path fill-rule="evenodd" clip-rule="evenodd" d="M33.4724 33.385H59.7284V59.641H33.4724V33.385ZM35.2218 35.1344V57.8916H57.979V35.1344H35.2218Z" fill="#282828"/>
<path fill-rule="evenodd" clip-rule="evenodd" d="M47.5846 10.2196C44.1975 10.2196 41.373 12.6193 40.7238 15.803L38.4382 15.3369C39.3052 11.0855 43.0702 7.88701 47.5846 7.88701C52.7335 7.88701 56.9149 12.0684 56.9149 17.2173C56.9149 22.3662 52.7335 26.5476 47.5846 26.5476C45.8893 26.5476 44.2888 26.0983 42.9042 25.2975L44.0719 23.2783C45.1074 23.8771 46.306 24.215 47.5846 24.215C51.4453 24.215 54.5824 21.078 54.5824 17.2173C54.5824 13.3566 51.4453 10.2196 47.5846 10.2196Z" fill="#282828"/>
<path d="M27.4515 23.6756C27.3641 23.6173 27.2912 23.5444 27.2183 23.4715C26.1686 22.4802 25.9499 20.8911 26.8247 19.6665C27.0142 19.4041 27.2329 19.1854 27.4661 18.9959V17.713C27.1308 17.8733 26.8247 18.0774 26.5331 18.3399C25.6001 19.2146 25.1627 20.2788 25.2356 21.5617C25.3231 23.0633 26.052 24.1421 27.3495 24.8856C27.3932 24.9148 27.4224 24.9294 27.4661 24.944V23.6756H27.4515Z" fill="#282828"/>
<path fill-rule="evenodd" clip-rule="evenodd" d="M28.0491 16.7877V19.2734L27.8337 19.4485C27.6331 19.6115 27.4523 19.7934 27.2981 20.0067C26.6034 20.9806 26.7688 22.2451 27.6185 23.0476L27.6246 23.0533L27.6305 23.0592C27.6427 23.0714 27.6538 23.0824 27.664 23.0925H28.0491V25.753L27.2815 25.4972C27.1898 25.4666 27.1183 25.4307 27.044 25.3828C25.5999 24.5499 24.7528 23.3043 24.6533 21.5956C24.5704 20.1367 25.0777 18.9048 26.1341 17.9144L26.1427 17.9063C26.4751 17.6072 26.8278 17.3718 27.2144 17.1869L28.0491 16.7877Z" fill="#282828"/>
<path d="M46.0536 19.3749C45.8349 18.1503 45.1935 17.1444 44.2021 16.3863C43.3128 15.7157 42.3215 15.3658 41.1989 15.3513C40.6741 15.3513 40.1639 15.4242 39.6536 15.5699C39.537 15.5991 39.4641 15.6137 39.4204 15.4679C39.1142 14.5786 38.6185 13.8205 37.9333 13.1936C37.5543 12.8583 37.1461 12.5667 36.6942 12.3626C36.5921 12.3189 36.5046 12.2752 36.4026 12.246V13.456C36.6504 13.5872 36.8837 13.7476 37.1169 13.9371C37.9479 14.6077 38.3999 15.5116 38.5748 16.5467C38.5894 16.6196 38.604 16.6925 38.6185 16.7654C38.706 17.159 38.7206 17.1736 39.0705 16.9986C39.7119 16.6779 40.3825 16.4447 41.0969 16.4301C41.7529 16.4301 42.409 16.5613 42.9921 16.8966C44.0418 17.4943 44.727 18.369 44.9748 19.5645C45.2372 20.8036 44.9311 21.897 44.1292 22.8738C43.5607 23.5736 42.8172 23.9964 41.9425 24.2005C41.7092 24.2588 41.4905 24.2879 41.2573 24.2879C39.639 24.2879 38.0208 24.2879 36.4026 24.2879V25.3959C37.9188 25.3959 39.4204 25.3959 40.9365 25.3959C41.3593 25.3959 41.7821 25.3667 42.1757 25.2793C43.2254 25.046 44.1292 24.5503 44.8582 23.7339C45.9807 22.451 46.3306 20.9786 46.0536 19.3749Z" fill="#282828"/>
<path fill-rule="evenodd" clip-rule="evenodd" d="M35.8196 11.4729L36.5629 11.6853C36.6855 11.7203 36.8075 11.7748 36.8823 11.8082C36.8986 11.8155 36.9127 11.8218 36.924 11.8266L36.9344 11.8311C37.4553 12.0664 37.9122 12.3963 38.3199 12.7568L38.3272 12.7633C38.9915 13.3711 39.4955 14.0923 39.8371 14.9211C40.2852 14.8193 40.737 14.7681 41.1991 14.7681H41.2067C42.4567 14.7843 43.5677 15.1775 44.5534 15.9207L44.5565 15.9231C45.6565 16.7643 46.382 17.8957 46.6278 19.2724L46.6284 19.2757C46.9331 21.0398 46.5438 22.6932 45.2972 24.1179L45.2933 24.1223C44.4762 25.0376 43.4607 25.5911 42.3023 25.8485C41.8522 25.9486 41.3832 25.979 40.9367 25.979H35.8196V23.7048H41.2574C41.4385 23.7048 41.6096 23.6826 41.8012 23.6347L41.8101 23.6325C42.5759 23.4538 43.2001 23.0927 43.6768 22.5061L43.6786 22.5038C44.3773 21.6527 44.6273 20.7374 44.4044 19.6853L44.4039 19.6828C44.1929 18.6651 43.6204 17.9253 42.7037 17.4033L42.7016 17.4021C42.2287 17.1302 41.6811 17.014 41.1031 17.0132C40.5107 17.0265 39.9304 17.2207 39.3314 17.5202C39.2522 17.5598 39.1467 17.6125 39.0469 17.6453C38.9586 17.6743 38.7213 17.7423 38.4726 17.6102C38.2372 17.4851 38.1546 17.2641 38.1273 17.1873C38.0944 17.0943 38.0698 16.9836 38.0503 16.8959L38.0467 16.8798L38.0014 16.6525L37.9999 16.6439C37.8441 15.7221 37.4514 14.9563 36.7508 14.3909L36.7493 14.3897C36.5389 14.2187 36.3373 14.0812 36.1299 13.9714L35.8196 13.8071V11.4729ZM39.0467 15.9635C39.0776 16.083 39.1045 16.204 39.1278 16.3263C39.2509 16.2712 39.3763 16.2191 39.504 16.171C39.4574 16.1684 39.405 16.1611 39.3496 16.1452C39.2179 16.1076 39.1198 16.0402 39.0467 15.9635Z" fill="#282828"/>
</g>
<defs>
<clipPath id="clip0_5611_49718">
<rect width="64" height="64" fill="white"/>
</clipPath>
</defs>
</svg>
