<svg width="64" height="47" viewBox="0 0 64 47" fill="none" xmlns="http://www.w3.org/2000/svg">
<path d="M22.7674 6.23013C22.7536 6.23472 22.7398 6.23472 22.7261 6.23932C22.7398 6.23932 22.7536 6.23472 22.7674 6.23013Z" fill="#12A71E"/>
<path d="M22.9783 6.18881C22.9508 6.1934 22.9233 6.19799 22.8911 6.20718C22.9187 6.19799 22.9508 6.1934 22.9783 6.18881Z" fill="#12A71E"/>
<path d="M26.0224 12.3455C26.0178 12.3455 26.0178 12.3455 26.0132 12.3409C26.0132 12.3409 26.0178 12.3455 26.0224 12.3455Z" fill="#0043FF"/>
<path d="M23.4699 40.3696C22.2073 40.3696 20.9448 40.3696 19.6868 40.3696C19.2323 40.3696 18.9981 40.1538 18.9476 39.6993C18.9385 39.6304 18.943 39.5661 18.943 39.4973C18.943 37.9501 18.943 36.4075 18.943 34.8602C18.943 34.594 18.943 34.594 19.2139 34.594C19.4572 34.594 19.7006 34.594 19.9439 34.594C20.302 34.594 20.302 34.594 20.302 34.9429C20.302 36.1366 20.302 37.3303 20.302 38.5239C20.302 38.6066 20.302 38.6846 20.302 38.7673C20.302 39.0932 20.302 39.0932 20.6188 39.0932C21.3901 39.0932 22.1568 39.0932 22.9281 39.0932C24.0667 39.0932 25.2099 39.0887 26.3485 39.0978C26.5505 39.0978 26.6148 39.0427 26.6148 38.8361C26.6056 37.5185 26.6102 36.2054 26.6102 34.8878C26.6102 34.594 26.6102 34.594 26.8994 34.594C27.2024 34.594 27.5055 34.5986 27.8085 34.594C27.96 34.5894 28.0059 34.6491 28.0059 34.796C28.0013 36.4029 28.0013 38.0097 28.0013 39.612C28.0013 39.7773 27.9508 39.9288 27.8727 40.0757C27.7626 40.2732 27.6065 40.3742 27.3677 40.3742C26.0593 40.365 24.7646 40.3696 23.4699 40.3696Z" fill="#282828"/>
<path d="M23.5248 42.3116C22.8729 42.3116 22.2164 42.3116 21.5644 42.3116C21.1283 42.3116 20.8804 42.0683 20.8804 41.6413C20.8804 41.2327 21.1329 40.9894 21.5599 40.9848C22.8729 40.9848 24.186 40.9848 25.499 40.9848C25.9214 40.9848 26.1693 41.2327 26.1739 41.6413C26.1739 42.0545 25.926 42.3024 25.5082 42.307C24.8425 42.3116 24.1814 42.3116 23.5248 42.3116Z" fill="#282828"/>
<path d="M23.5155 20.7013L16.0458 13.227C13.9798 15.293 12.9422 17.9925 12.9238 20.6967H23.5155V20.7013Z" fill="#C0C0C0"/>
<path d="M23.5156 20.7013V10.1326C20.5957 10.1326 17.9512 11.3079 16.0229 13.2086L23.5156 20.7013Z" fill="#9F9F9F"/>
<path d="M23.5158 20.7013H12.9517C12.9517 23.6212 14.127 26.2657 16.0277 28.194L23.5158 20.7013Z" fill="#DFDFDF"/>
<path d="M23.5156 20.7013L30.9854 28.171C33.0514 26.105 34.0889 23.4055 34.1073 20.7013H23.5156Z" fill="#404040"/>
<path d="M23.5156 20.7013V31.2654C26.4356 31.2654 29.08 30.0901 31.0083 28.1894L23.5156 20.7013Z" fill="#282828"/>
<path d="M23.5156 20.7013L30.9854 13.2316C28.9194 11.1656 26.2198 10.128 23.5156 10.1096V20.7013Z" fill="#7F7F7F"/>
<path d="M23.5156 20.7013H34.0798C34.0798 17.7813 32.9044 15.1369 31.0037 13.2086L23.5156 20.7013Z" fill="#606060"/>
<path d="M28.0104 30.1957H23.5249V32.9871H28.0104V30.1957Z" fill="#282828"/>
<path d="M23.4833 33.8915C22.0463 33.8915 20.6092 33.8869 19.1722 33.8961C18.984 33.8961 18.9014 33.841 18.8509 33.6574C18.3458 31.8164 17.3771 30.237 16.0824 28.8505C15.357 28.07 14.6041 27.3171 14.021 26.4126C12.7539 24.443 12.1524 22.2944 12.3131 19.9529C12.4509 17.9191 13.1717 16.0826 14.3378 14.4161C15.3111 13.0296 16.5002 11.868 17.9602 11.0003C19.3513 10.1785 20.848 9.67346 22.4595 9.53114C25.4437 9.26944 28.1065 10.1004 30.3975 12.0057C32.6288 13.8605 34.0933 16.2112 34.557 19.1128C34.8692 21.0548 34.6167 22.9463 33.8362 24.7552C33.2577 26.1004 32.4451 27.2849 31.4121 28.3133C30.3057 29.4152 29.3874 30.641 28.7263 32.0597C28.483 32.5785 28.2718 33.1156 28.1249 33.6666C28.0744 33.8502 27.9917 33.8961 27.8127 33.8961C26.3711 33.8869 24.9249 33.8915 23.4833 33.8915ZM23.4833 32.4499C24.5622 32.4499 25.6411 32.4499 26.72 32.4499C26.8577 32.4499 26.9404 32.4178 26.9909 32.2709C27.6245 30.4941 28.6483 28.9653 29.9521 27.6109C30.6316 26.9039 31.2973 26.1968 31.8115 25.3521C32.9364 23.4973 33.3771 21.5001 33.0511 19.3561C32.6563 16.7667 31.3478 14.6869 29.3278 13.0617C27.3123 11.4364 24.9938 10.7616 22.409 11.0416C20.8113 11.2161 19.3651 11.7808 18.0566 12.7128C16.8583 13.5667 15.8988 14.6456 15.1458 15.9036C14.1082 17.6344 13.6537 19.503 13.842 21.5185C14.0302 23.5386 14.8612 25.274 16.2064 26.7753C16.5966 27.2115 17.019 27.6201 17.4047 28.0654C18.479 29.3096 19.3146 30.7053 19.9481 32.225C20.0124 32.3857 20.0996 32.4499 20.2787 32.4453C21.353 32.4453 22.4181 32.4499 23.4833 32.4499Z" fill="#282828"/>
<path d="M36.6556 6.22554C36.6418 6.23013 36.628 6.23013 36.6143 6.23472C36.628 6.23472 36.6418 6.23013 36.6556 6.22554Z" fill="#12A71E"/>
<path d="M36.8665 6.18422C36.839 6.18881 36.8114 6.1934 36.7793 6.20258C36.8068 6.1934 36.839 6.18881 36.8665 6.18422Z" fill="#12A71E"/>
<path d="M39.9105 12.3409C39.906 12.3409 39.906 12.3409 39.9014 12.3363C39.9014 12.3363 39.906 12.3409 39.9105 12.3409Z" fill="#0043FF"/>
<path d="M37.3532 40.365C36.0906 40.365 34.8281 40.365 33.5701 40.365C33.1156 40.365 32.8814 40.1492 32.8309 39.6947C32.8218 39.6258 32.8263 39.5616 32.8263 39.4927C32.8263 37.9455 32.8263 36.4029 32.8263 34.8557C32.8263 34.5894 32.8263 34.5894 33.0972 34.5894C33.3405 34.5894 33.5839 34.5894 33.8272 34.5894C34.1853 34.5894 34.1853 34.5894 34.1853 34.9383C34.1853 36.132 34.1853 37.3257 34.1853 38.5194C34.1853 38.602 34.1853 38.6801 34.1853 38.7627C34.1853 39.0887 34.1853 39.0887 34.5021 39.0887C35.2734 39.0887 36.0401 39.0887 36.8114 39.0887C37.95 39.0887 39.0932 39.0841 40.2318 39.0933C40.4338 39.0933 40.4981 39.0382 40.4981 38.8316C40.4889 37.5139 40.4935 36.2009 40.4935 34.8832C40.4935 34.5894 40.4935 34.5894 40.7827 34.5894C41.0857 34.5894 41.3888 34.594 41.6918 34.5894C41.8433 34.5848 41.8892 34.6445 41.8892 34.7914C41.8846 36.3983 41.8846 38.0052 41.8846 39.6075C41.8846 39.7727 41.8341 39.9242 41.756 40.0712C41.6459 40.2686 41.4898 40.3696 41.251 40.3696C39.9471 40.3604 38.6525 40.365 37.3532 40.365Z" fill="#282828"/>
<path d="M37.4081 42.307C36.7562 42.307 36.0997 42.307 35.4477 42.307C35.0116 42.307 34.7637 42.0637 34.7637 41.6367C34.7637 41.2281 35.0162 40.9848 35.4432 40.9802C36.7562 40.9802 38.0693 40.9802 39.3823 40.9802C39.8047 40.9802 40.0526 41.2281 40.0572 41.6367C40.0572 42.0499 39.8093 42.2978 39.3915 42.3024C38.7304 42.307 38.0693 42.307 37.4081 42.307Z" fill="#282828"/>
<path d="M37.4039 20.6967L29.9296 13.2224C27.8636 15.2884 26.826 17.9879 26.8076 20.6921L37.4039 20.6967Z" fill="#E0FC36"/>
<path d="M37.4038 20.6967V10.128C34.4839 10.128 31.8394 11.3033 29.9111 13.204L37.4038 20.6967Z" fill="#FB6020"/>
<path d="M37.4037 20.6967H26.835C26.835 23.6166 28.0103 26.2611 29.911 28.1894L37.4037 20.6967Z" fill="#66FB33"/>
<path d="M37.4038 20.6967L44.8735 28.1664C46.9395 26.1004 47.9771 23.4009 47.9955 20.6967H37.4038Z" fill="#3A2FFB"/>
<path d="M37.4038 20.6967V31.2608C40.3238 31.2608 42.9682 30.0855 44.8965 28.1848L37.4038 20.6967Z" fill="#1696FB"/>
<path d="M37.4038 20.6967L44.8735 13.227C42.8075 11.161 40.108 10.1234 37.4038 10.105V20.6967Z" fill="#FA1A62"/>
<path d="M37.4038 20.6967H47.9679C47.9679 17.7767 46.7926 15.1323 44.8919 13.204L37.4038 20.6967Z" fill="#CE2FF2"/>
<path d="M41.8986 30.1911H37.4131V32.9825H41.8986V30.1911Z" fill="#1696FB"/>
<path d="M37.4084 30.1911H32.9229V32.9825H37.4084V30.1911Z" fill="#40FC8F"/>
<path d="M37.4035 20.6967L29.9292 28.1664C31.9952 30.2324 34.6948 31.27 37.3989 31.2884L37.4035 20.6967Z" fill="#40FC8F"/>
<path d="M37.3671 33.8869C35.9301 33.8869 34.493 33.8824 33.056 33.8915C32.8678 33.8915 32.7851 33.8364 32.7346 33.6528C32.2296 31.8118 31.2609 30.2324 29.9662 28.8459C29.2408 28.0654 28.4879 27.3125 27.9048 26.408C26.6377 24.4385 26.0362 22.2898 26.1969 19.9484C26.3346 17.9145 27.0554 16.0781 28.2216 14.4115C29.1949 13.025 30.384 11.8634 31.844 10.9957C33.2351 10.1739 34.7318 9.66887 36.3433 9.52654C39.3275 9.26485 41.9903 10.0958 44.2813 12.0011C46.5126 13.856 47.9771 16.2066 48.4408 19.1082C48.753 21.0502 48.5005 22.9418 47.72 24.7506C47.1415 26.0958 46.3289 27.2803 45.2959 28.3088C44.1894 29.4106 43.2712 30.6364 42.6101 32.0551C42.3668 32.5739 42.1556 33.1111 42.0087 33.662C41.9582 33.8456 41.8755 33.8915 41.6965 33.8915C40.2549 33.8824 38.8133 33.8869 37.3671 33.8869ZM37.3717 32.4453C38.4506 32.4453 39.5295 32.4453 40.6084 32.4453C40.7461 32.4453 40.8288 32.4132 40.8793 32.2663C41.5128 30.4895 42.5367 28.9607 43.8405 27.6063C44.52 26.8993 45.1857 26.1923 45.6999 25.3475C46.8247 23.4927 47.2655 21.4956 46.9395 19.3515C46.5447 16.7621 45.2362 14.6824 43.2161 13.0571C41.2006 11.4319 38.8821 10.757 36.2973 11.037C34.6996 11.2115 33.2534 11.7762 31.945 12.7082C30.7467 13.5621 29.7872 14.641 29.0342 15.899C27.9966 17.6298 27.5421 19.4984 27.7303 21.5139C27.9186 23.534 28.7496 25.2694 30.0948 26.7707C30.485 27.2069 30.9074 27.6155 31.293 28.0608C32.3674 29.305 33.2029 30.7007 33.8365 32.2204C33.9008 32.3811 33.988 32.4453 34.1671 32.4407C35.2414 32.4407 36.3065 32.4453 37.3717 32.4453Z" fill="#282828"/>
</svg>
