<svg width="64" height="64" viewBox="0 0 64 64" fill="none" xmlns="http://www.w3.org/2000/svg">
<path d="M22.1722 11.0554C22.1545 11.0613 22.1368 11.0613 22.1191 11.0672C22.1368 11.0672 22.1545 11.0613 22.1722 11.0554Z" fill="#12A71E"/>
<path d="M22.443 11.0024C22.4077 11.0083 22.3723 11.0142 22.3311 11.0259C22.3664 11.0142 22.4077 11.0083 22.443 11.0024Z" fill="#12A71E"/>
<path d="M26.3497 18.9036C26.3438 18.9036 26.3438 18.9036 26.3379 18.8977C26.3379 18.8977 26.3438 18.9036 26.3497 18.9036Z" fill="#0043FF"/>
<path d="M23.0738 54.8689C21.4534 54.8689 19.8331 54.8689 18.2187 54.8689C17.6354 54.8689 17.3349 54.5919 17.2701 54.0086C17.2583 53.9202 17.2642 53.8378 17.2642 53.7494C17.2642 51.7637 17.2642 49.784 17.2642 47.7984C17.2642 47.4566 17.2642 47.4566 17.6118 47.4566C17.9241 47.4566 18.2364 47.4566 18.5486 47.4566C19.0082 47.4566 19.0082 47.4566 19.0082 47.9044C19.0082 49.4364 19.0082 50.9683 19.0082 52.5003C19.0082 52.6063 19.0082 52.7065 19.0082 52.8125C19.0082 53.2309 19.0082 53.2309 19.4148 53.2309C20.4046 53.2309 21.3886 53.2309 22.3785 53.2309C23.8397 53.2309 25.3069 53.225 26.7681 53.2368C27.0273 53.2368 27.1098 53.1661 27.1098 52.9009C27.098 51.2099 27.1039 49.5248 27.1039 47.8337C27.1039 47.4566 27.1039 47.4566 27.4751 47.4566C27.864 47.4566 28.2529 47.4625 28.6418 47.4566C28.8362 47.4508 28.8951 47.5273 28.8951 47.7159C28.8892 49.7781 28.8892 51.8403 28.8892 53.8967C28.8892 54.1088 28.8244 54.3032 28.7243 54.4918C28.5828 54.7451 28.3825 54.8748 28.0761 54.8748C26.3969 54.863 24.7353 54.8689 23.0738 54.8689Z" fill="#282828"/>
<path d="M23.1443 57.3612C22.3077 57.3612 21.4651 57.3612 20.6284 57.3612C20.0687 57.3612 19.7505 57.0489 19.7505 56.501C19.7505 55.9766 20.0746 55.6643 20.6225 55.6584C22.3076 55.6584 23.9928 55.6584 25.6779 55.6584C26.22 55.6584 26.5382 55.9766 26.544 56.501C26.544 57.0313 26.2259 57.3494 25.6897 57.3553C24.8353 57.3612 23.9869 57.3612 23.1443 57.3612Z" fill="#282828"/>
<path d="M23.1326 29.6272L13.5462 20.0349C10.8947 22.6863 9.56312 26.1509 9.53955 29.6213H23.1326V29.6272Z" fill="#C0C0C0"/>
<path d="M23.1325 29.6272V16.0637C19.3851 16.0637 15.9913 17.572 13.5166 20.0113L23.1325 29.6272Z" fill="#9F9F9F"/>
<path d="M23.1329 29.6272H9.5752C9.5752 33.3746 11.0836 36.7684 13.5229 39.2431L23.1329 29.6272Z" fill="#DFDFDF"/>
<path d="M23.5 29L14 38C20.5 48 18 44.5 23.5 45V29Z" fill="white"/>
<path d="M23.1328 29.6272L32.7192 39.2136C35.3707 36.5622 36.7023 33.0977 36.7258 29.6272H23.1328Z" fill="#404040"/>
<path d="M23.1328 29.6272V43.1849C26.8802 43.1849 30.274 41.6765 32.7487 39.2372L23.1328 29.6272Z" fill="#282828"/>
<path d="M23.1328 29.6272L32.7192 20.0408C30.0678 17.3894 26.6032 16.0578 23.1328 16.0342V29.6272Z" fill="#7F7F7F"/>
<path d="M23.1328 29.6272H36.6905C36.6905 25.8799 35.1821 22.4861 32.7428 20.0114L23.1328 29.6272Z" fill="#606060"/>
<path d="M28.9011 41.812H23.1445V45.3944H28.9011V41.812Z" fill="#282828"/>
<path d="M23.0908 46.5552C21.2466 46.5552 19.4024 46.5493 17.5582 46.5611C17.3166 46.5611 17.2105 46.4903 17.1457 46.2547C16.4976 43.8919 15.2544 41.8651 13.5928 40.0857C12.6619 39.084 11.6956 38.1177 10.9473 36.957C9.32105 34.4293 8.54919 31.6718 8.75541 28.6668C8.93218 26.0566 9.85723 23.6998 11.3538 21.561C12.6029 19.7816 14.129 18.2909 16.0027 17.1773C17.788 16.1226 19.7088 15.4745 21.7769 15.2918C25.6067 14.956 29.0241 16.0224 31.9643 18.4676C34.8278 20.848 36.7074 23.8648 37.3025 27.5886C37.7032 30.0809 37.3791 32.5085 36.3775 34.8299C35.6351 36.5563 34.5922 38.0765 33.2664 39.3963C31.8465 40.8104 30.668 42.3836 29.8196 44.2042C29.5073 44.87 29.2363 45.5594 29.0477 46.2664C28.9829 46.5021 28.8768 46.5611 28.6471 46.5611C26.7969 46.5493 24.9409 46.5552 23.0908 46.5552ZM23.0908 44.705C24.4755 44.705 25.8601 44.705 27.2447 44.705C27.4215 44.705 27.5276 44.6638 27.5924 44.4753C28.4055 42.195 29.7194 40.233 31.3928 38.4948C32.2648 37.5874 33.1191 36.68 33.7791 35.5959C35.2226 33.2155 35.7883 30.6524 35.3699 27.9009C34.8632 24.5777 33.184 21.9086 30.5914 19.8228C28.0048 17.737 25.0293 16.8709 21.7121 17.2303C19.6616 17.4542 17.8056 18.1789 16.1264 19.375C14.5886 20.4709 13.3571 21.8556 12.3908 23.47C11.0592 25.6913 10.4759 28.0894 10.7175 30.676C10.959 33.2685 12.0255 35.4957 13.7519 37.4224C14.2527 37.9822 14.7948 38.5066 15.2897 39.0781C16.6685 40.6749 17.7408 42.4661 18.5539 44.4163C18.6364 44.6226 18.7484 44.705 18.9782 44.6992C20.3569 44.6992 21.7239 44.705 23.0908 44.705Z" fill="#282828"/>
<path d="M39.9959 11.0495C39.9782 11.0554 39.9605 11.0554 39.9429 11.0613C39.9605 11.0613 39.9782 11.0554 39.9959 11.0495Z" fill="#12A71E"/>
<path d="M40.2667 10.9965C40.2314 11.0024 40.196 11.0082 40.1548 11.02C40.1901 11.0082 40.2314 11.0024 40.2667 10.9965Z" fill="#12A71E"/>
<path d="M44.1734 18.8978C44.1675 18.8978 44.1675 18.8978 44.1616 18.8919C44.1616 18.8919 44.1675 18.8978 44.1734 18.8978Z" fill="#0043FF"/>
<path d="M40.8911 54.863C39.2708 54.863 37.6505 54.863 36.0361 54.863C35.4528 54.863 35.1523 54.5861 35.0874 54.0027C35.0757 53.9144 35.0816 53.8319 35.0816 53.7435C35.0816 51.7579 35.0816 49.7781 35.0816 47.7925C35.0816 47.4508 35.0816 47.4508 35.4292 47.4508C35.7415 47.4508 36.0537 47.4508 36.366 47.4508C36.8256 47.4508 36.8256 47.4508 36.8256 47.8985C36.8256 49.4305 36.8256 50.9624 36.8256 52.4944C36.8256 52.6004 36.8256 52.7006 36.8256 52.8066C36.8256 53.225 36.8256 53.225 37.2322 53.225C38.222 53.225 39.206 53.225 40.1959 53.225C41.6571 53.225 43.1242 53.2191 44.5855 53.2309C44.8447 53.2309 44.9272 53.1602 44.9272 52.895C44.9154 51.204 44.9213 49.5189 44.9213 47.8278C44.9213 47.4508 44.9213 47.4508 45.2925 47.4508C45.6814 47.4508 46.0703 47.4566 46.4591 47.4508C46.6536 47.4449 46.7125 47.5215 46.7125 47.71C46.7066 49.7722 46.7066 51.8345 46.7066 53.8908C46.7066 54.1029 46.6418 54.2973 46.5416 54.4859C46.4002 54.7392 46.1999 54.8689 45.8935 54.8689C44.2202 54.8571 42.5586 54.863 40.8911 54.863Z" fill="#282828"/>
<path d="M40.9617 57.3553C40.125 57.3553 39.2825 57.3553 38.4458 57.3553C37.886 57.3553 37.5679 57.0431 37.5679 56.4951C37.5679 55.9707 37.8919 55.6584 38.4399 55.6525C40.125 55.6525 41.8102 55.6525 43.4953 55.6525C44.0374 55.6525 44.3555 55.9707 44.3614 56.4951C44.3614 57.0254 44.0433 57.3436 43.5071 57.3494C42.6586 57.3553 41.8102 57.3553 40.9617 57.3553Z" fill="#282828"/>
<path d="M40.9563 29.6213L31.364 20.0291C28.7126 22.6805 27.381 26.145 27.3574 29.6155H40.9563V29.6213Z" fill="#E0FC36"/>
<path d="M40.9562 29.6214V16.0578C37.2088 16.0578 33.815 17.5662 31.3403 20.0055L40.9562 29.6214Z" fill="#FB6020"/>
<path d="M40.9561 29.6213H27.3926C27.3926 33.3687 28.9009 36.7625 31.3403 39.2372L40.9561 29.6213Z" fill="#66FB33"/>
<path d="M40.9561 29.6213L50.5425 39.2077C53.1939 36.5563 54.5255 33.0917 54.5491 29.6213H40.9561Z" fill="#3A2FFB"/>
<path d="M40.9561 29.6213V43.179C44.7034 43.179 48.0972 41.6706 50.5719 39.2313L40.9561 29.6213Z" fill="#1696FB"/>
<path d="M40.9561 29.6213L50.5425 20.0349C47.891 17.3835 44.4265 16.0519 40.9561 16.0283V29.6213Z" fill="#FA1A62"/>
<path d="M40.9561 29.6213H54.5137C54.5137 25.874 53.0053 22.4801 50.566 20.0055L40.9561 29.6213Z" fill="#CE2FF2"/>
<path d="M46.7248 41.8062H40.9683V45.3885H46.7248V41.8062Z" fill="#1696FB"/>
<path d="M40.9621 41.8062H35.2056V45.3885H40.9621V41.8062Z" fill="#40FC8F"/>
<path d="M40.9561 29.6213L31.3638 39.2077C34.0152 41.8591 37.4797 43.1908 40.9502 43.2143V29.6213H40.9561Z" fill="#40FC8F"/>
<path d="M40.9092 46.5492C39.065 46.5492 37.2208 46.5433 35.3765 46.5551C35.135 46.5551 35.0289 46.4844 34.9641 46.2487C34.316 43.886 33.0727 41.8591 31.4112 40.0797C30.4802 39.0781 29.5139 38.1118 28.7656 36.951C27.1394 34.4233 26.3675 31.6659 26.5738 28.6609C26.7505 26.0507 27.6756 23.6939 29.1722 21.5551C30.4213 19.7757 31.9473 18.285 33.821 17.1714C35.6063 16.1167 37.5271 15.4685 39.5953 15.2859C43.4251 14.95 46.8425 16.0165 49.7827 18.4617C52.6462 20.8421 54.5258 23.8589 55.1209 27.5827C55.5215 30.075 55.1975 32.5025 54.1958 34.824C53.4534 36.5504 52.4105 38.0705 51.0848 39.3904C49.6648 40.8045 48.4864 42.3776 47.6379 44.1983C47.3257 44.8641 47.0546 45.5535 46.8661 46.2605C46.8013 46.4962 46.6952 46.5551 46.4654 46.5551C44.6153 46.5433 42.7652 46.5492 40.9092 46.5492ZM40.9151 44.6991C42.2997 44.6991 43.6844 44.6991 45.069 44.6991C45.2458 44.6991 45.3518 44.6579 45.4166 44.4693C46.2297 42.1891 47.5437 40.227 49.217 38.4889C50.089 37.5815 50.9434 36.6741 51.6033 35.59C53.0469 33.2096 53.6125 30.6465 53.1942 27.8949C52.6874 24.5718 51.0082 21.9027 48.4157 19.8169C45.8291 17.7311 42.8536 16.865 39.5363 17.2244C37.4859 17.4483 35.6299 18.173 33.9506 19.3691C32.4128 20.465 31.1814 21.8497 30.2151 23.4641C28.8835 25.6854 28.3002 28.0835 28.5417 30.6701C28.7833 33.2626 29.8498 35.4898 31.5761 37.4165C32.077 37.9763 32.619 38.5007 33.114 39.0722C34.4927 40.6689 35.5651 42.4601 36.3782 44.4104C36.4607 44.6166 36.5726 44.6991 36.8024 44.6932C38.1812 44.6932 39.5481 44.6991 40.9151 44.6991Z" fill="#282828"/>
</svg>
