<?xml version="1.0" encoding="UTF-8"?>
<svg height="600" width="800" xmlns="http://www.w3.org/2000/svg" xmlns:xlink="http://www.w3.org/1999/xlink">
    <g id="Notes" font-family="'LucidaGrande', 'Lucida Grande', sans-serif" font-size="13">
        <rect fill="white" height="600.0" width="800.0" x="0.0" y="0.0" />
        <g font-size="13">
            <text x="18.0" y="176.0">Small</text>
            <text x="18.0" y="376.0">Medium</text>
            <text x="18.0" y="576.0">Large</text>
        </g>
        <g font-size="9">
            <text x="250.0" y="30.0">Ultralight</text>
            <text x="450.0" y="30.0">Regular</text>
            <text x="650.0" y="30.0">Black</text>
            <text id="template-version" fill="#505050" text-anchor="end" x="785.0" y="575.0">Template v.3.0</text>
            <a href="https://github.com/swhitty/SwiftDraw">
                <text fill="#505050" text-anchor="end" x="785.0" y="590.0">https://github.com/swhitty/SwiftDraw</text>
            </a>
        </g>
    </g>
    <g id="Guides" stroke="rgb(39, 170, 225)" stroke-width="0.5">
        <path id="Capline-S" d="M18,76 l800,0" />
        <path id="H-reference" d="M85,145.755 L87.685,145.755 L113.369,79.287 L114.052,79.287 L114.052,76 L112.148,76 L85,145.755 Z M95.693,121.536 L130.996,121.536 L130.263,119.313 L96.474,119.313 L95.693,121.536 Z M139.15,145.755 L141.787,145.755 L114.638,76 L113.466,76 L113.466,79.287 L139.15,145.755 Z" stroke="none" />
        <path id="Baseline-S" d="M18,146 l800,0" />
        <path id="left-margin-Ultralight-S" d="M211,56 l0,110" />
        <path id="right-margin-Ultralight-S" d="M319,56 l0,110" />
        <path id="left-margin-Regular-S" d="M411,56 l0,110" />
        <path id="right-margin-Regular-S" d="M519,56 l0,110" />
        <path id="left-margin-Black-S" d="M611,56 l0,110" />
        <path id="right-margin-Black-S" d="M719,56 l0,110" />
        <path id="Capline-M" d="M18,276 l800,0" />
        <path id="Baseline-M" d="M18,346 l800,0" />
        <path id="Capline-L" d="M18,476 l800,0" />
        <path id="Baseline-L" d="M18,546 l800,0" />
    </g>
    <g id="Symbols">
        <g id="Ultralight-S">
            <path d="M228.355,123.598 C228.812,123.624 229.219,123.896 229.417,124.307 C229.49,124.46 229.558,124.616 229.617,124.748 C229.629,124.777 229.642,124.805 229.653,124.832 C229.722,124.987 229.779,125.112 229.839,125.226 C229.925,125.384 229.986,125.502 230.04,125.607 C230.11,125.743 230.168,125.855 230.254,126 L230.255,126.003 C230.302,126.083 230.347,126.159 230.39,126.233 C230.533,126.478 230.657,126.691 230.798,126.906 L230.8,126.909 C231.033,127.267 231.275,127.621 231.521,127.973 C231.769,128.324 232.02,128.662 232.277,128.982 L232.284,128.992 C232.63,129.433 232.995,129.871 233.374,130.317 C233.562,130.534 233.737,130.777 233.87,130.96 C233.905,131.009 233.937,131.053 233.965,131.092 L233.969,131.097 C234.358,131.63 234.718,132.207 235.011,132.843 C235.219,133.282 235.307,133.749 235.363,134.044 C235.367,134.062 235.37,134.08 235.373,134.097 L235.377,134.114 C235.443,134.49 235.451,134.845 235.451,135.127 C235.451,135.421 235.404,135.697 235.375,135.869 C235.374,135.878 235.372,135.887 235.371,135.895 C235.365,135.93 235.359,135.968 235.352,136.009 C235.314,136.241 235.263,136.562 235.174,136.869 L235.17,136.885 C235.083,137.173 234.98,137.44 234.881,137.685 L234.872,137.709 C234.627,138.281 234.311,138.792 233.96,139.25 C233.448,139.921 232.828,140.489 232.115,140.943 C231.594,141.279 231.04,141.534 230.467,141.721 L230.448,141.727 C230.228,141.795 229.992,141.849 229.815,141.89 C229.769,141.9 229.727,141.91 229.69,141.919 C229.223,142.034 228.77,142.071 228.366,142.079 L228.338,142.08 C228.325,142.08 228.313,142.08 228.299,142.08 C227.984,142.08 227.539,142.08 227.077,141.982 L227.075,141.982 C227.04,141.974 227.003,141.966 226.966,141.958 C226.612,141.883 226.167,141.789 225.727,141.628 L225.706,141.62 C225.271,141.452 224.822,141.246 224.387,140.971 C223.815,140.611 223.301,140.176 222.848,139.668 L222.841,139.661 C222.595,139.381 222.341,139.064 222.117,138.701 L222.112,138.692 C221.904,138.347 221.699,137.971 221.527,137.563 L221.526,137.559 C221.37,137.186 221.233,136.783 221.143,136.355 C221.082,136.07 221.052,135.787 221.03,135.576 L221.028,135.553 C220.955,134.85 221.03,134.183 221.194,133.55 L221.202,133.524 C221.209,133.496 221.218,133.465 221.227,133.432 C221.284,133.226 221.369,132.918 221.494,132.631 L221.499,132.62 C221.581,132.437 221.674,132.261 221.779,132.091 C221.798,132.058 221.819,132.019 221.843,131.976 C221.962,131.762 222.139,131.443 222.341,131.175 L222.346,131.168 C222.423,131.068 222.508,130.954 222.599,130.831 C222.806,130.551 223.044,130.231 223.278,129.952 L223.281,129.949 C223.605,129.565 223.915,129.189 224.214,128.803 C224.597,128.307 224.961,127.818 225.306,127.318 L225.311,127.31 C225.457,127.103 225.586,126.904 225.728,126.686 C225.806,126.566 225.887,126.442 225.976,126.307 L225.977,126.306 L227.025,126.993 L225.976,126.307 C225.989,126.288 226.001,126.269 226.014,126.25 C226.171,126.012 226.303,125.812 226.417,125.61 L226.421,125.602 C226.478,125.503 226.532,125.409 226.585,125.319 C226.76,125.015 226.913,124.75 227.054,124.466 C227.065,124.442 227.078,124.419 227.091,124.396 L227.093,124.392 C227.124,124.339 227.166,124.266 227.218,124.182 C227.461,123.796 227.897,123.572 228.355,123.598 Z M228.21,127.472 C228.179,127.52 228.148,127.566 228.119,127.61 C228.104,127.633 228.089,127.655 228.075,127.677 L228.073,127.679 C228.01,127.775 227.942,127.88 227.87,127.99 C227.714,128.23 227.542,128.494 227.374,128.734 L227.376,128.73 L226.341,128.024 L227.371,128.738 L227.374,128.734 C226.997,129.28 226.606,129.805 226.204,130.324 C225.875,130.75 225.54,131.155 225.205,131.552 L225.206,131.55 L224.242,130.751 L225.203,131.554 L225.205,131.552 C225.018,131.775 224.861,131.987 224.682,132.229 C224.581,132.366 224.472,132.512 224.348,132.675 L224.35,132.672 L223.346,131.923 L224.345,132.679 L224.348,132.675 C224.261,132.791 224.199,132.902 224.1,133.078 C224.058,133.154 224.009,133.242 223.948,133.348 C223.94,133.362 223.932,133.376 223.923,133.39 C223.878,133.462 223.835,133.541 223.796,133.628 L223.798,133.623 L222.646,133.127 L223.793,133.634 L223.796,133.628 C223.748,133.74 223.715,133.855 223.657,134.063 C223.647,134.1 223.635,134.141 223.623,134.185 C223.624,134.181 223.625,134.177 223.626,134.173 L222.41,133.862 L223.619,134.199 C223.62,134.195 223.621,134.19 223.623,134.185 C223.522,134.579 223.489,134.94 223.525,135.296 C223.55,135.534 223.568,135.693 223.598,135.835 L223.6,135.841 C223.651,136.083 223.733,136.335 223.844,136.601 C223.955,136.863 224.095,137.126 224.262,137.403 C224.384,137.6 224.537,137.797 224.728,138.014 C225.028,138.349 225.362,138.631 225.731,138.863 L225.734,138.865 C225.987,139.025 226.273,139.161 226.603,139.289 C226.865,139.384 227.136,139.442 227.517,139.523 C227.546,139.529 227.575,139.535 227.604,139.542 L227.34,140.762 L227.603,139.542 C227.779,139.579 227.973,139.584 228.324,139.584 C228.62,139.577 228.868,139.551 229.087,139.496 L229.097,139.494 C229.179,139.474 229.251,139.458 229.314,139.443 C229.464,139.408 229.573,139.383 229.694,139.346 C230.075,139.221 230.429,139.056 230.753,138.847 L230.759,138.843 C231.224,138.547 231.626,138.179 231.961,137.74 M228.21,127.472 C228.355,127.72 228.517,127.998 228.692,128.265 C228.946,128.656 229.206,129.035 229.462,129.401 L229.465,129.405 C229.734,129.787 230.016,130.165 230.308,130.531 C230.683,131.009 231.071,131.474 231.459,131.932 L231.467,131.941 C231.578,132.069 231.666,132.191 231.785,132.355 C231.831,132.418 231.881,132.487 231.939,132.565 C232.255,132.998 232.522,133.434 232.731,133.888 L232.738,133.903 C232.798,134.028 232.836,134.196 232.905,134.554 C232.932,134.708 232.94,134.883 232.94,135.127 C232.94,135.194 232.928,135.279 232.894,135.485 C232.884,135.543 232.875,135.597 232.867,135.647 C232.829,135.875 232.805,136.025 232.762,136.176 C232.709,136.35 232.641,136.531 232.555,136.746 C232.406,137.091 232.206,137.42 231.961,137.74" />
            <path d="M262.257,103.558 C268.228,103.558 273.072,108.373 273.072,114.308 C273.072,120.244 268.228,125.059 262.257,125.059 C256.285,125.059 251.441,120.244 251.441,114.308 C251.441,108.373 256.285,103.558 262.257,103.558 Z M262.257,100.529 C258.55,100.529 255.076,101.963 252.456,104.567 C249.836,107.172 248.394,110.634 248.394,114.308 C248.394,117.983 249.836,121.445 252.456,124.05 C255.076,126.654 258.56,128.087 262.257,128.087 C265.953,128.087 269.437,126.654 272.057,124.05 C274.677,121.445 276.119,117.983 276.119,114.308 C276.119,110.634 274.677,107.172 272.057,104.567 C269.447,101.963 265.963,100.529 262.257,100.529 Z" />
            <path d="M260.263,96.35 L260.263,102.851 L257.019,102.851 L257.019,96.35 L260.263,96.35 Z" />
            <path d="M268.915,96.35 L268.915,102.851 L265.672,102.851 L265.672,96.35 L268.915,96.35 Z" />
            <path d="M227.019,107.252 C227.019,106.362 227.745,105.641 228.641,105.641 L251.441,105.641 C252.336,105.641 253.062,106.362 253.062,107.252 C253.062,108.143 252.336,108.864 251.441,108.864 L230.263,108.864 L230.263,119.752 L251.441,119.752 C252.336,119.752 253.062,120.474 253.062,121.364 C253.062,122.255 252.336,122.976 251.441,122.976 L228.641,122.976 C227.745,122.976 227.019,122.255 227.019,121.364 L227.019,107.252 Z" />
            <path d="M271.45,107.252 C271.45,106.362 272.176,105.641 273.072,105.641 L295.882,105.641 C296.777,105.641 297.503,106.362 297.503,107.252 L297.503,121.364 C297.503,122.255 296.777,122.976 295.882,122.976 L273.072,122.976 C272.176,122.976 271.45,122.255 271.45,121.364 C271.45,120.474 272.176,119.752 273.072,119.752 L294.26,119.752 L294.26,108.864 L273.072,108.864 C272.176,108.864 271.45,108.143 271.45,107.252 Z" />
            <path d="M276.319,82.949 L268.804,90.085 C268.52,90.358 268.174,90.499 267.809,90.499 L256.688,90.499 L256.688,94.274 L270.429,94.274 L277.944,87.138 C278.228,86.865 278.574,86.724 278.939,86.724 L305.953,86.724 L305.953,82.949 L276.319,82.949 Z M276.319,79.92 L305.953,79.92 C307.639,79.92 309,81.273 309,82.949 L309,86.724 C309,88.4 307.639,89.752 305.953,89.752 L279.599,89.752 L272.541,96.465 C271.973,97 271.221,97.303 270.439,97.303 L256.688,97.303 C255.002,97.303 253.642,95.95 253.642,94.274 L253.642,90.499 C253.642,88.823 255.002,87.471 256.688,87.471 L267.149,87.471 L274.207,80.758 C274.775,80.223 275.527,79.92 276.319,79.92 Z" />
        </g>
        <g id="Regular-S">
            <path d="M428.355,123.598 C428.812,123.624 429.219,123.896 429.417,124.307 C429.49,124.46 429.558,124.616 429.617,124.748 C429.629,124.777 429.642,124.805 429.653,124.832 C429.722,124.987 429.779,125.112 429.839,125.226 C429.925,125.384 429.986,125.502 430.04,125.607 C430.11,125.743 430.168,125.855 430.254,126 L430.255,126.003 C430.302,126.083 430.347,126.159 430.39,126.233 C430.533,126.478 430.657,126.691 430.798,126.906 L430.8,126.909 C431.033,127.267 431.275,127.621 431.521,127.973 C431.769,128.324 432.02,128.662 432.277,128.982 L432.284,128.992 C432.63,129.433 432.995,129.871 433.374,130.317 C433.562,130.534 433.737,130.777 433.87,130.96 C433.905,131.009 433.937,131.053 433.965,131.092 L433.969,131.097 C434.358,131.63 434.718,132.207 435.011,132.843 C435.219,133.282 435.307,133.749 435.363,134.044 C435.367,134.062 435.37,134.08 435.373,134.097 L435.377,134.114 C435.443,134.49 435.451,134.845 435.451,135.127 C435.451,135.421 435.404,135.697 435.375,135.869 C435.374,135.878 435.372,135.887 435.371,135.895 C435.365,135.93 435.359,135.968 435.352,136.009 C435.314,136.241 435.263,136.562 435.174,136.869 L435.17,136.885 C435.083,137.173 434.98,137.44 434.881,137.685 L434.872,137.709 C434.627,138.281 434.311,138.792 433.96,139.25 C433.448,139.921 432.828,140.489 432.115,140.943 C431.594,141.279 431.04,141.534 430.467,141.721 L430.448,141.727 C430.228,141.795 429.992,141.849 429.815,141.89 C429.769,141.9 429.727,141.91 429.69,141.919 C429.223,142.034 428.77,142.071 428.366,142.079 L428.338,142.08 C428.325,142.08 428.313,142.08 428.299,142.08 C427.984,142.08 427.539,142.08 427.077,141.982 L427.075,141.982 C427.04,141.974 427.003,141.966 426.966,141.958 C426.612,141.883 426.167,141.789 425.727,141.628 L425.706,141.62 C425.271,141.452 424.822,141.246 424.387,140.971 C423.815,140.611 423.301,140.176 422.848,139.668 L422.841,139.661 C422.595,139.381 422.341,139.064 422.117,138.701 L422.112,138.692 C421.904,138.347 421.699,137.971 421.527,137.563 L421.526,137.559 C421.37,137.186 421.233,136.783 421.143,136.355 C421.082,136.07 421.052,135.787 421.03,135.576 L421.028,135.553 C420.955,134.85 421.03,134.183 421.194,133.55 L421.202,133.524 C421.209,133.496 421.218,133.465 421.227,133.432 C421.284,133.226 421.369,132.918 421.494,132.631 L421.499,132.62 C421.581,132.437 421.674,132.261 421.779,132.091 C421.798,132.058 421.819,132.019 421.843,131.976 C421.962,131.762 422.139,131.443 422.341,131.175 L422.346,131.168 C422.423,131.068 422.508,130.954 422.599,130.831 C422.806,130.551 423.044,130.231 423.278,129.952 L423.281,129.949 C423.605,129.565 423.915,129.189 424.214,128.803 C424.597,128.307 424.961,127.818 425.306,127.318 L425.311,127.31 C425.457,127.103 425.586,126.904 425.728,126.686 C425.806,126.566 425.887,126.442 425.976,126.307 L425.977,126.306 L427.025,126.993 L425.976,126.307 C425.989,126.288 426.001,126.269 426.014,126.25 C426.171,126.012 426.303,125.812 426.417,125.61 L426.421,125.602 C426.478,125.503 426.532,125.409 426.585,125.319 C426.76,125.015 426.913,124.75 427.054,124.466 C427.065,124.442 427.078,124.419 427.091,124.396 L427.093,124.392 C427.124,124.339 427.166,124.266 427.218,124.182 C427.461,123.796 427.897,123.572 428.355,123.598 Z M428.21,127.472 C428.179,127.52 428.148,127.566 428.119,127.61 C428.104,127.633 428.089,127.655 428.075,127.677 L428.073,127.679 C428.01,127.775 427.942,127.88 427.87,127.99 C427.714,128.23 427.542,128.494 427.374,128.734 L427.376,128.73 L426.341,128.024 L427.371,128.738 L427.374,128.734 C426.997,129.28 426.606,129.805 426.204,130.324 C425.875,130.75 425.54,131.155 425.205,131.552 L425.206,131.55 L424.242,130.751 L425.203,131.554 L425.205,131.552 C425.018,131.775 424.861,131.987 424.682,132.229 C424.581,132.366 424.472,132.512 424.348,132.675 L424.35,132.672 L423.346,131.923 L424.345,132.679 L424.348,132.675 C424.261,132.791 424.199,132.902 424.1,133.078 C424.058,133.154 424.009,133.242 423.948,133.348 C423.94,133.362 423.932,133.376 423.923,133.39 C423.878,133.462 423.835,133.541 423.796,133.628 L423.798,133.623 L422.646,133.127 L423.793,133.634 L423.796,133.628 C423.748,133.74 423.715,133.855 423.657,134.063 C423.647,134.1 423.635,134.141 423.623,134.185 C423.624,134.181 423.625,134.177 423.626,134.173 L422.41,133.862 L423.619,134.199 C423.62,134.195 423.621,134.19 423.623,134.185 C423.522,134.579 423.489,134.94 423.525,135.296 C423.55,135.534 423.568,135.693 423.598,135.835 L423.6,135.841 C423.651,136.083 423.733,136.335 423.844,136.601 C423.955,136.863 424.095,137.126 424.262,137.403 C424.384,137.6 424.537,137.797 424.728,138.014 C425.028,138.349 425.362,138.631 425.731,138.863 L425.734,138.865 C425.987,139.025 426.273,139.161 426.603,139.289 C426.865,139.384 427.136,139.442 427.517,139.523 C427.546,139.529 427.575,139.535 427.604,139.542 L427.34,140.762 L427.603,139.542 C427.779,139.579 427.973,139.584 428.324,139.584 C428.62,139.577 428.868,139.551 429.087,139.496 L429.097,139.494 C429.179,139.474 429.25,139.458 429.314,139.443 C429.464,139.408 429.573,139.383 429.694,139.346 C430.075,139.221 430.429,139.056 430.753,138.847 L430.759,138.843 C431.224,138.547 431.626,138.179 431.961,137.74 M428.21,127.472 C428.355,127.72 428.517,127.998 428.692,128.265 C428.946,128.656 429.206,129.035 429.462,129.401 L429.465,129.405 C429.734,129.787 430.016,130.165 430.308,130.531 C430.683,131.009 431.071,131.474 431.459,131.932 L431.467,131.941 C431.578,132.069 431.666,132.191 431.785,132.355 C431.831,132.418 431.881,132.487 431.939,132.565 C432.255,132.998 432.522,133.434 432.731,133.888 L432.738,133.903 C432.798,134.028 432.836,134.196 432.905,134.554 C432.932,134.708 432.94,134.883 432.94,135.127 C432.94,135.194 432.928,135.279 432.894,135.485 C432.884,135.543 432.875,135.597 432.867,135.647 C432.829,135.875 432.805,136.025 432.762,136.176 C432.709,136.35 432.641,136.531 432.555,136.746 C432.406,137.091 432.206,137.42 431.961,137.74" />
            <path d="M462.257,103.558 C468.228,103.558 473.072,108.373 473.072,114.308 C473.072,120.244 468.228,125.059 462.257,125.059 C456.285,125.059 451.441,120.244 451.441,114.308 C451.441,108.373 456.285,103.558 462.257,103.558 Z M462.257,100.529 C458.55,100.529 455.076,101.963 452.456,104.567 C449.836,107.172 448.394,110.634 448.394,114.308 C448.394,117.983 449.836,121.445 452.456,124.05 C455.076,126.654 458.56,128.087 462.257,128.087 C465.953,128.087 469.437,126.654 472.057,124.05 C474.677,121.445 476.119,117.983 476.119,114.308 C476.119,110.634 474.677,107.172 472.057,104.567 C469.447,101.963 465.963,100.529 462.257,100.529 Z" />
            <path d="M460.263,96.35 L460.263,102.851 L457.019,102.851 L457.019,96.35 L460.263,96.35 Z" />
            <path d="M468.915,96.35 L468.915,102.851 L465.672,102.851 L465.672,96.35 L468.915,96.35 Z" />
            <path d="M427.019,107.252 C427.019,106.362 427.745,105.641 428.641,105.641 L451.441,105.641 C452.336,105.641 453.062,106.362 453.062,107.252 C453.062,108.143 452.336,108.864 451.441,108.864 L430.263,108.864 L430.263,119.752 L451.441,119.752 C452.336,119.752 453.062,120.474 453.062,121.364 C453.062,122.255 452.336,122.976 451.441,122.976 L428.641,122.976 C427.745,122.976 427.019,122.255 427.019,121.364 L427.019,107.252 Z" />
            <path d="M471.45,107.252 C471.45,106.362 472.176,105.641 473.072,105.641 L495.882,105.641 C496.777,105.641 497.503,106.362 497.503,107.252 L497.503,121.364 C497.503,122.255 496.777,122.976 495.882,122.976 L473.072,122.976 C472.176,122.976 471.45,122.255 471.45,121.364 C471.45,120.474 472.176,119.752 473.072,119.752 L494.26,119.752 L494.26,108.864 L473.072,108.864 C472.176,108.864 471.45,108.143 471.45,107.252 Z" />
            <path d="M476.319,82.949 L468.804,90.085 C468.52,90.358 468.174,90.499 467.809,90.499 L456.688,90.499 L456.688,94.274 L470.429,94.274 L477.944,87.138 C478.228,86.865 478.574,86.724 478.939,86.724 L505.953,86.724 L505.953,82.949 L476.319,82.949 Z M476.319,79.92 L505.953,79.92 C507.639,79.92 509,81.273 509,82.949 L509,86.724 C509,88.4 507.639,89.752 505.953,89.752 L479.599,89.752 L472.541,96.465 C471.973,97 471.221,97.303 470.439,97.303 L456.688,97.303 C455.002,97.303 453.642,95.95 453.642,94.274 L453.642,90.499 C453.642,88.823 455.002,87.471 456.688,87.471 L467.149,87.471 L474.207,80.758 C474.775,80.223 475.527,79.92 476.319,79.92 Z" />
        </g>
        <g id="Black-S">
            <path d="M628.355,123.598 C628.812,123.624 629.219,123.896 629.417,124.307 C629.49,124.46 629.558,124.616 629.617,124.748 C629.629,124.777 629.642,124.805 629.653,124.832 C629.722,124.987 629.779,125.112 629.839,125.226 C629.925,125.384 629.986,125.502 630.04,125.607 C630.11,125.743 630.168,125.855 630.254,126 L630.255,126.003 C630.302,126.083 630.347,126.159 630.39,126.233 C630.533,126.478 630.657,126.691 630.798,126.906 L630.8,126.909 C631.033,127.267 631.275,127.621 631.521,127.973 C631.769,128.324 632.021,128.662 632.277,128.982 L632.284,128.992 C632.63,129.433 632.995,129.871 633.374,130.317 C633.562,130.534 633.737,130.777 633.87,130.96 C633.905,131.009 633.937,131.053 633.965,131.092 L633.969,131.097 C634.358,131.63 634.718,132.207 635.011,132.843 C635.219,133.282 635.307,133.749 635.363,134.044 C635.367,134.062 635.37,134.08 635.373,134.097 L635.377,134.114 C635.443,134.49 635.451,134.845 635.451,135.127 C635.451,135.421 635.404,135.697 635.375,135.869 C635.374,135.878 635.372,135.887 635.371,135.895 C635.365,135.93 635.359,135.968 635.352,136.009 C635.314,136.241 635.263,136.562 635.174,136.869 L635.17,136.885 C635.083,137.173 634.98,137.44 634.881,137.685 L634.872,137.709 C634.627,138.281 634.311,138.792 633.96,139.25 C633.448,139.921 632.828,140.489 632.115,140.943 C631.594,141.279 631.04,141.534 630.467,141.721 L630.448,141.727 C630.228,141.795 629.992,141.849 629.815,141.89 C629.769,141.9 629.727,141.91 629.69,141.919 C629.223,142.034 628.77,142.071 628.366,142.079 L628.338,142.08 C628.325,142.08 628.313,142.08 628.299,142.08 C627.984,142.08 627.539,142.08 627.077,141.982 L627.075,141.982 C627.04,141.974 627.003,141.966 626.966,141.958 C626.612,141.883 626.167,141.789 625.727,141.628 L625.706,141.62 C625.271,141.452 624.822,141.246 624.387,140.971 C623.815,140.611 623.301,140.176 622.848,139.668 L622.841,139.661 C622.595,139.381 622.341,139.064 622.117,138.701 L622.112,138.692 C621.904,138.347 621.699,137.971 621.527,137.563 L621.526,137.559 C621.37,137.186 621.233,136.783 621.143,136.355 C621.082,136.07 621.052,135.787 621.03,135.576 L621.028,135.553 C620.955,134.85 621.03,134.183 621.194,133.55 L621.202,133.524 C621.209,133.496 621.218,133.465 621.227,133.432 C621.284,133.226 621.369,132.918 621.494,132.631 L621.499,132.62 C621.581,132.437 621.674,132.261 621.779,132.091 C621.798,132.058 621.819,132.019 621.843,131.976 C621.962,131.762 622.139,131.443 622.341,131.175 L622.346,131.168 C622.423,131.068 622.508,130.954 622.599,130.831 C622.806,130.551 623.044,130.231 623.278,129.952 L623.281,129.949 C623.605,129.565 623.915,129.189 624.214,128.803 C624.597,128.307 624.961,127.818 625.306,127.318 L625.312,127.31 C625.457,127.103 625.586,126.904 625.728,126.686 C625.806,126.566 625.887,126.442 625.976,126.307 L625.977,126.306 L627.025,126.993 L625.976,126.307 C625.989,126.288 626.001,126.269 626.014,126.25 C626.171,126.012 626.303,125.812 626.417,125.61 L626.421,125.602 C626.478,125.503 626.532,125.409 626.585,125.319 C626.76,125.015 626.913,124.75 627.054,124.466 C627.065,124.442 627.078,124.419 627.091,124.396 L627.093,124.392 C627.124,124.339 627.166,124.266 627.218,124.182 C627.461,123.796 627.897,123.572 628.355,123.598 Z M628.21,127.472 C628.179,127.52 628.148,127.566 628.119,127.61 C628.104,127.633 628.089,127.655 628.075,127.677 L628.073,127.679 C628.01,127.775 627.942,127.88 627.87,127.99 C627.714,128.23 627.542,128.494 627.373,128.734 L627.376,128.73 L626.341,128.024 L627.371,128.738 L627.373,128.734 C626.997,129.28 626.606,129.805 626.204,130.324 C625.875,130.75 625.54,131.155 625.205,131.552 L625.206,131.55 L624.242,130.751 L625.203,131.554 L625.205,131.552 C625.018,131.775 624.861,131.987 624.682,132.229 C624.581,132.366 624.472,132.512 624.348,132.675 L624.35,132.672 L623.346,131.923 L624.345,132.679 L624.348,132.675 C624.261,132.791 624.199,132.902 624.1,133.078 C624.058,133.154 624.009,133.242 623.948,133.348 C623.94,133.362 623.932,133.376 623.923,133.39 C623.878,133.462 623.835,133.541 623.796,133.628 L623.798,133.623 L622.646,133.127 L623.793,133.634 L623.796,133.628 C623.748,133.74 623.715,133.855 623.657,134.063 C623.647,134.1 623.635,134.141 623.623,134.185 C623.624,134.181 623.625,134.177 623.626,134.173 L622.41,133.862 L623.619,134.199 C623.62,134.195 623.621,134.19 623.623,134.185 C623.522,134.579 623.489,134.94 623.525,135.296 C623.55,135.534 623.568,135.693 623.598,135.835 L623.6,135.841 C623.651,136.083 623.733,136.335 623.844,136.601 C623.955,136.863 624.095,137.126 624.262,137.403 C624.384,137.6 624.537,137.797 624.728,138.014 C625.028,138.349 625.362,138.631 625.731,138.863 L625.734,138.865 C625.987,139.025 626.273,139.161 626.603,139.289 C626.865,139.384 627.136,139.442 627.517,139.523 C627.546,139.529 627.575,139.535 627.604,139.542 L627.34,140.762 L627.603,139.542 C627.779,139.579 627.973,139.584 628.324,139.584 C628.62,139.577 628.868,139.551 629.087,139.496 L629.097,139.494 C629.179,139.474 629.25,139.458 629.314,139.443 C629.464,139.408 629.573,139.383 629.694,139.346 C630.075,139.221 630.429,139.056 630.753,138.847 L630.759,138.843 C631.224,138.547 631.626,138.179 631.961,137.74 M628.21,127.472 C628.355,127.72 628.517,127.998 628.692,128.265 C628.946,128.656 629.206,129.035 629.462,129.401 L629.465,129.405 C629.734,129.787 630.016,130.165 630.308,130.531 C630.683,131.009 631.071,131.474 631.459,131.932 L631.467,131.941 C631.578,132.069 631.666,132.191 631.785,132.355 C631.831,132.418 631.881,132.487 631.939,132.565 C632.255,132.998 632.522,133.434 632.731,133.888 L632.738,133.903 C632.798,134.028 632.836,134.196 632.905,134.554 C632.932,134.708 632.94,134.883 632.94,135.127 C632.94,135.194 632.928,135.279 632.894,135.485 C632.884,135.543 632.875,135.597 632.867,135.647 C632.829,135.875 632.805,136.025 632.762,136.176 C632.709,136.35 632.641,136.531 632.555,136.746 C632.406,137.091 632.206,137.42 631.961,137.74" />
            <path d="M662.257,103.558 C668.228,103.558 673.072,108.373 673.072,114.308 C673.072,120.244 668.228,125.059 662.257,125.059 C656.285,125.059 651.441,120.244 651.441,114.308 C651.441,108.373 656.285,103.558 662.257,103.558 Z M662.257,100.529 C658.55,100.529 655.076,101.963 652.456,104.567 C649.836,107.172 648.394,110.634 648.394,114.308 C648.394,117.983 649.836,121.445 652.456,124.05 C655.076,126.654 658.56,128.087 662.257,128.087 C665.953,128.087 669.437,126.654 672.057,124.05 C674.677,121.445 676.119,117.983 676.119,114.308 C676.119,110.634 674.677,107.172 672.057,104.567 C669.447,101.963 665.963,100.529 662.257,100.529 Z" />
            <path d="M660.263,96.35 L660.263,102.851 L657.019,102.851 L657.019,96.35 L660.263,96.35 Z" />
            <path d="M668.915,96.35 L668.915,102.851 L665.672,102.851 L665.672,96.35 L668.915,96.35 Z" />
            <path d="M627.019,107.252 C627.019,106.362 627.745,105.641 628.641,105.641 L651.441,105.641 C652.336,105.641 653.062,106.362 653.062,107.252 C653.062,108.143 652.336,108.864 651.441,108.864 L630.263,108.864 L630.263,119.752 L651.441,119.752 C652.336,119.752 653.062,120.474 653.062,121.364 C653.062,122.255 652.336,122.976 651.441,122.976 L628.641,122.976 C627.745,122.976 627.019,122.255 627.019,121.364 L627.019,107.252 Z" />
            <path d="M671.45,107.252 C671.45,106.362 672.176,105.641 673.072,105.641 L695.882,105.641 C696.777,105.641 697.503,106.362 697.503,107.252 L697.503,121.364 C697.503,122.255 696.777,122.976 695.882,122.976 L673.072,122.976 C672.176,122.976 671.45,122.255 671.45,121.364 C671.45,120.474 672.176,119.752 673.072,119.752 L694.26,119.752 L694.26,108.864 L673.072,108.864 C672.176,108.864 671.45,108.143 671.45,107.252 Z" />
            <path d="M676.319,82.949 L668.804,90.085 C668.52,90.358 668.174,90.499 667.809,90.499 L656.688,90.499 L656.688,94.274 L670.429,94.274 L677.944,87.138 C678.228,86.865 678.574,86.724 678.939,86.724 L705.953,86.724 L705.953,82.949 L676.319,82.949 Z M676.319,79.92 L705.953,79.92 C707.639,79.92 709,81.273 709,82.949 L709,86.724 C709,88.4 707.639,89.752 705.953,89.752 L679.599,89.752 L672.541,96.465 C671.973,97 671.221,97.303 670.439,97.303 L656.688,97.303 C655.002,97.303 653.642,95.95 653.642,94.274 L653.642,90.499 C653.642,88.823 655.002,87.471 656.688,87.471 L667.149,87.471 L674.207,80.758 C674.776,80.223 675.527,79.92 676.319,79.92 Z" />
        </g>
    </g>
</svg>