<svg width="512" height="512" viewBox="0 0 512 512" fill="none" xmlns="http://www.w3.org/2000/svg">
<path d="M428 25.0597C427.92 24.8597 427.83 24.6597 427.75 24.4697L427.9 24.8097C427.938 24.8913 427.971 24.9747 428 25.0597Z" fill="black"/>
<path d="M428.62 29.1296C428.685 27.7418 428.46 26.3557 427.96 25.0596C428.466 26.3542 428.691 27.7415 428.62 29.1296Z" fill="black"/>
<path d="M309 249.48L293 261.66C298.162 266.971 302.119 273.331 304.602 280.309C307.084 287.286 308.033 294.717 307.384 302.094C306.735 309.472 304.503 316.623 300.841 323.06C297.179 329.497 292.173 335.069 286.163 339.397C280.153 343.724 273.28 346.705 266.014 348.137C258.748 349.569 251.259 349.418 244.056 347.694C236.854 345.97 230.107 342.713 224.277 338.147C218.447 333.58 213.669 327.81 210.27 321.23C209.51 321.319 208.745 321.362 207.98 321.36C205.163 321.361 202.378 320.766 199.806 319.614C197.235 318.463 194.936 316.782 193.06 314.68L184.96 305.61C186.244 316.797 190.153 327.521 196.368 336.911C202.583 346.3 210.928 354.088 220.723 359.641C230.518 365.194 241.487 368.354 252.735 368.864C263.983 369.375 275.193 367.22 285.451 362.577C295.708 357.934 304.724 350.933 311.763 342.145C318.803 333.356 323.666 323.03 325.958 312.006C328.249 300.981 327.904 289.572 324.95 278.706C321.997 267.841 316.518 257.827 308.96 249.48H309ZM309 249.48L293 261.66C298.162 266.971 302.119 273.331 304.602 280.309C307.084 287.286 308.033 294.717 307.384 302.094C306.735 309.472 304.503 316.623 300.841 323.06C297.179 329.497 292.173 335.069 286.163 339.397C280.153 343.724 273.28 346.705 266.014 348.137C258.748 349.569 251.259 349.418 244.056 347.694C236.854 345.97 230.107 342.713 224.277 338.147C218.447 333.58 213.669 327.81 210.27 321.23C209.51 321.319 208.745 321.362 207.98 321.36C205.163 321.361 202.378 320.766 199.806 319.614C197.235 318.463 194.936 316.782 193.06 314.68L184.96 305.61C186.244 316.797 190.153 327.521 196.368 336.911C202.583 346.3 210.928 354.088 220.723 359.641C230.518 365.194 241.487 368.354 252.735 368.864C263.983 369.375 275.193 367.22 285.451 362.577C295.708 357.934 304.724 350.933 311.763 342.145C318.803 333.356 323.666 323.03 325.958 312.006C328.249 300.981 327.904 289.572 324.95 278.706C321.997 267.841 316.518 257.827 308.96 249.48H309ZM452.27 254.36L434.85 251.5L417.43 268.92L448.01 273.92V320.33L390.89 330.38L389.16 336.38C386.357 346.108 382.494 355.497 377.64 364.38L374.64 369.91L408.42 417L375.71 449.81L328.33 416.49L322.84 419.55C313.943 424.5 304.526 428.451 294.76 431.33L288.82 433L278.74 490H232.5L223.07 433.2L217.07 431.45C207.261 428.607 197.797 424.687 188.85 419.76L183.39 416.76L136.39 449.76L103.59 417L136.89 370.31L133.89 364.8C128.921 355.797 124.97 346.269 122.11 336.39L120.38 330.39L84.8801 324.08L62.6201 340.41L104.72 347.9C107.106 355.058 110 362.036 113.38 368.78L86.7301 406.15C84.1431 409.771 82.9243 414.192 83.2905 418.627C83.6568 423.062 85.5842 427.223 88.7301 430.37L122.88 464.63C125.999 467.768 130.128 469.7 134.536 470.085C138.944 470.469 143.345 469.281 146.96 466.73L184.74 440.21C191.415 443.542 198.315 446.403 205.39 448.77L212.95 494.28C213.658 498.676 215.911 502.674 219.304 505.556C222.698 508.438 227.008 510.014 231.46 510H279.77C284.186 510.005 288.462 508.451 291.845 505.612C295.228 502.773 297.499 498.831 298.26 494.48L306.38 448.58C313.45 446.217 320.341 443.349 327 440L365 466.75C368.616 469.316 373.025 470.515 377.442 470.134C381.859 469.753 385.997 467.817 389.12 464.67L423.28 430.41C426.435 427.256 428.364 423.08 428.719 418.633C429.075 414.185 427.834 409.756 425.22 406.14L398.09 368.38C401.366 361.792 404.176 354.982 406.5 348L452.5 339.91C456.859 339.141 460.806 336.855 463.643 333.457C466.479 330.059 468.023 325.767 468 321.34V272.94C468.026 268.475 466.453 264.147 463.566 260.739C460.68 257.332 456.669 255.069 452.26 254.36H452.27ZM309 249.48L293 261.66C298.162 266.971 302.119 273.331 304.602 280.309C307.084 287.286 308.033 294.717 307.384 302.094C306.735 309.472 304.503 316.623 300.841 323.06C297.179 329.497 292.173 335.069 286.163 339.397C280.153 343.724 273.28 346.705 266.014 348.137C258.748 349.569 251.259 349.418 244.056 347.694C236.854 345.97 230.107 342.713 224.277 338.147C218.447 333.58 213.669 327.81 210.27 321.23C209.51 321.319 208.745 321.362 207.98 321.36C205.163 321.361 202.378 320.766 199.806 319.614C197.235 318.463 194.936 316.782 193.06 314.68L184.96 305.61C186.244 316.797 190.153 327.521 196.368 336.911C202.583 346.3 210.928 354.088 220.723 359.641C230.518 365.194 241.487 368.354 252.735 368.864C263.983 369.375 275.193 367.22 285.451 362.577C295.708 357.934 304.724 350.933 311.763 342.145C318.803 333.356 323.666 323.03 325.958 312.006C328.249 300.981 327.904 289.572 324.95 278.706C321.997 267.841 316.518 257.827 308.96 249.48H309ZM309 249.48L293 261.66C298.162 266.971 302.119 273.331 304.602 280.309C307.084 287.286 308.033 294.717 307.384 302.094C306.735 309.472 304.503 316.623 300.841 323.06C297.179 329.497 292.173 335.069 286.163 339.397C280.153 343.724 273.28 346.705 266.014 348.137C258.748 349.569 251.259 349.418 244.056 347.694C236.854 345.97 230.107 342.713 224.277 338.147C218.447 333.58 213.669 327.81 210.27 321.23C209.51 321.319 208.745 321.362 207.98 321.36C205.163 321.361 202.378 320.766 199.806 319.614C197.235 318.463 194.936 316.782 193.06 314.68L184.96 305.61C186.244 316.797 190.153 327.521 196.368 336.911C202.583 346.3 210.928 354.088 220.723 359.641C230.518 365.194 241.487 368.354 252.735 368.864C263.983 369.375 275.193 367.22 285.451 362.577C295.708 357.934 304.724 350.933 311.763 342.145C318.803 333.356 323.666 323.03 325.958 312.006C328.249 300.981 327.904 289.572 324.95 278.706C321.997 267.841 316.518 257.827 308.96 249.48H309Z" fill="black"/>
<path d="M450 25.0597C449.92 24.8597 449.83 24.6597 449.75 24.4697L449.9 24.8097C449.938 24.8913 449.971 24.9747 450 25.0597Z" fill="black"/>
<path d="M450.62 29.1296C450.685 27.7418 450.46 26.3557 449.96 25.0596C450.466 26.3542 450.691 27.7415 450.62 29.1296Z" fill="black"/>
<path d="M312 50.0597C311.92 49.8597 311.83 49.6597 311.75 49.4697L311.9 49.8097C311.938 49.8913 311.971 49.9747 312 50.0597Z" fill="black"/>
<path d="M312.62 54.1296C312.685 52.7418 312.46 51.3557 311.96 50.0596C312.466 51.3542 312.691 52.7415 312.62 54.1296Z" fill="black"/>
<path d="M150 103H90C84.6957 103 79.6086 105.107 75.8579 108.858C72.1071 112.609 70 117.696 70 123V285.3L90 270.58V123H150V227C153.244 225.588 156.804 225.061 160.317 225.474C163.831 225.887 167.172 227.224 170 229.35V123C170 117.696 167.893 112.609 164.142 108.858C160.391 105.107 155.304 103 150 103Z" fill="black"/>
<path d="M284.5 53H224.5C219.196 53 214.109 55.1071 210.358 58.8579C206.607 62.6086 204.5 67.6957 204.5 73V267.42L210.58 274.23L224.5 263.61V73H284.5V217.84L304.5 202.59V73C304.5 67.6957 302.393 62.6086 298.642 58.8579C294.891 55.1071 289.804 53 284.5 53Z" fill="black"/>
<path d="M422 173.5V207.78L442 187.78V180.64H437.31C434.392 180.639 431.509 179.999 428.864 178.766C426.219 177.532 423.876 175.735 422 173.5ZM422 3H362C356.696 3 351.609 5.10714 347.858 8.85786C344.107 12.6086 342 17.6957 342 23V186.31C344.488 187.317 346.747 188.817 348.64 190.72L362 204.08V23H422V147.78C423.876 145.545 426.219 143.748 428.864 142.514C431.509 141.281 434.392 140.641 437.31 140.64H442V23C442 17.6957 439.893 12.6086 436.142 8.85786C432.391 5.10714 427.304 3 422 3Z" fill="black"/>
<path d="M507 160.64V220.33C507 222.982 505.946 225.525 504.071 227.401C502.196 229.276 499.652 230.33 497 230.33C494.348 230.33 491.804 229.276 489.929 227.401C488.054 225.525 487 222.982 487 220.33V185.2L405.27 266.93L400.92 271.28C399.045 273.154 396.502 274.208 393.85 274.208C391.198 274.208 388.655 273.154 386.78 271.28L362 246.5L342 226.5L333.61 218.11L304.5 240.31L301.7 242.45L285.23 255L284.5 255.56L235.45 293L214.07 309.31C212.583 310.447 210.804 311.14 208.94 311.31C208.083 311.39 207.219 311.359 206.37 311.22C204.118 310.849 202.061 309.72 200.54 308.02L184.87 290.47L170 273.82L156.6 258.82L150 263.68L110.16 293L83 313L71.26 321.64L51.36 336.28L19.93 359.42C17.7937 360.992 15.1201 361.652 12.4974 361.254C9.8747 360.855 7.51773 359.431 5.945 357.295C4.37226 355.158 3.71259 352.485 4.11111 349.862C4.50962 347.239 5.93368 344.882 8.07 343.31L44 316.86L64 302.14L70 297.72L90 283L113.55 265.66L121.85 259.56L150 238.83L152.07 237.31C154.074 235.833 156.558 235.157 159.034 235.414C161.51 235.671 163.802 236.843 165.46 238.7L170 243.78L191.13 267.45L204.5 282.45L206.21 284.37L209.29 287.82L224.5 276.22L263.5 246.45L283.31 231.33L284.48 230.44L304.48 215.18L328.41 196.93C330.335 195.46 332.729 194.739 335.145 194.901C337.562 195.063 339.838 196.097 341.55 197.81L381 237.17L393.9 250.07L442 201.92L473.28 170.64H437.28C434.628 170.64 432.084 169.586 430.209 167.711C428.334 165.835 427.28 163.292 427.28 160.64C427.28 157.987 428.334 155.444 430.209 153.569C432.084 151.693 434.628 150.64 437.28 150.64H497C499.652 150.64 502.196 151.693 504.071 153.569C505.946 155.444 507 157.987 507 160.64Z" fill="#00D151"/>
</svg>
