<svg width="64" height="64" viewBox="0 0 64 64" fill="none" xmlns="http://www.w3.org/2000/svg">
<g clip-path="url(#clip0_6342_13507)">
<path d="M55.4494 33.7108C58.6272 32.8197 60.7224 30.3824 60.1292 28.2669C59.536 26.1514 56.479 25.1588 53.3013 26.0499C50.1235 26.941 48.0282 29.3782 48.6214 31.4937C49.2146 33.6092 52.2716 34.6018 55.4494 33.7108Z" fill="#FFE836"/>
<mask id="mask0_6342_13507" style="mask-type:luminance" maskUnits="userSpaceOnUse" x="0" y="3" width="31" height="58">
<path d="M30.3834 3.41708H0V60.5829H30.3834V3.41708Z" fill="white"/>
</mask>
<g mask="url(#mask0_6342_13507)">
<path d="M55.5321 16.1206C55.8052 15.7621 56.0613 15.4377 56.3174 15.1133C56.5052 14.8743 56.7443 14.7547 57.0687 14.7547C58.6052 14.7718 60.1247 14.9426 61.6101 15.3694C62.1052 15.506 62.5833 15.7108 62.993 16.0352C63.7272 16.6157 63.8638 17.2474 63.4028 18.0669C63.0101 18.7499 62.4296 19.2279 61.7467 19.6035C61.4223 19.7913 61.0808 19.9279 60.7394 20.0986C60.5857 20.1669 60.5004 20.2523 60.6711 20.3889C62.4808 21.8742 63.1296 23.9059 63.4881 26.1084C63.7955 27.9864 63.8808 29.8815 63.7955 31.7766C63.7101 33.5181 63.5906 35.2595 63.4369 37.001C63.3003 38.4181 63.215 39.8351 63.1467 41.2522C63.0784 42.5668 63.0613 43.8644 63.1125 45.179C63.1467 46.2546 62.2247 47.3473 60.9784 47.2961C59.1687 47.2449 57.3418 47.2961 55.5321 47.2619C54.6784 47.2449 53.8077 47.279 52.954 47.279C51.7931 47.2961 50.854 46.5107 50.7858 45.3497C50.7345 44.5815 50.5638 44.6668 50.0175 44.5985C49.7272 44.5644 49.6419 44.4619 49.6419 44.1888C49.6589 41.9351 49.6419 39.6644 49.6419 37.4108C49.6419 37.001 49.6589 36.9669 50.0858 37.001C51.315 37.0693 52.5272 37.0351 53.7565 37.0351C54.2516 37.0351 54.7467 37.001 55.2418 36.9839C55.6175 36.9669 55.9589 36.8473 56.2321 36.5742C56.5906 36.2156 56.5565 35.7376 56.1638 35.4303C55.8223 35.1742 55.4296 35.0888 55.0199 35.0888C53.415 35.0888 51.7931 35.0888 50.1882 35.0888C49.6589 35.0888 49.6589 35.0888 49.6589 34.5595C49.6589 33.962 49.6589 33.3644 49.6589 32.7669C49.6589 32.6474 49.6419 32.4937 49.8638 32.5449C50.8199 32.801 51.8102 32.7327 52.7833 32.7498C53.8248 32.7498 54.8662 32.7498 55.9077 32.6986C57.4613 32.6303 58.3833 31.7425 58.9467 30.3937C59.1345 29.9498 59.2199 29.4888 59.2199 29.0108C59.2199 28.2084 58.8272 27.7645 58.0077 27.6962C57.4613 27.6449 56.9321 27.7132 56.4028 27.7815C54.8833 27.9693 53.3638 28.1571 51.8443 28.4132C51.1443 28.5327 50.4955 28.7718 49.9492 29.2327C49.8809 29.284 49.8126 29.4205 49.7102 29.3522C49.6248 29.301 49.6589 29.1815 49.6589 29.0791C49.6589 26.6718 49.6419 24.2815 49.6589 21.8742C49.6589 21.3791 49.5394 20.9694 49.2833 20.5767C48.498 19.3303 47.7126 18.1011 46.9102 16.8547C46.876 16.7864 46.7907 16.7352 46.8589 16.6669C46.9102 16.6157 46.9785 16.6328 47.0467 16.6328C48.5663 16.7352 50.0858 16.7864 51.6053 16.9743C51.6736 16.9913 51.7589 16.9743 51.8272 16.9743C52.0321 16.9743 52.0833 16.8889 51.9979 16.7182C50.9736 14.2255 49.8467 11.784 48.3955 9.51331C47.8833 8.72795 47.1321 8.42063 46.2443 8.28405C44.5199 8.02795 42.7955 7.72063 41.0541 7.51576C39.7565 7.3621 38.459 7.24259 37.1444 7.15722C35.2834 7.05478 33.4053 6.96942 31.5444 6.98649C29.4444 7.00356 27.3444 7.12307 25.2444 7.29381C22.581 7.49868 19.9347 7.92551 17.3054 8.33527C16.4859 8.47185 15.8371 8.8816 15.4103 9.59867C15.2908 9.78648 15.1883 9.99136 15.0518 10.1792C13.6688 12.0913 12.781 14.2426 11.8762 16.3938C11.6201 17.0084 11.6713 17.0596 12.3542 16.9743C13.6176 16.8035 14.881 16.7011 16.1444 16.6669C16.2298 16.6669 16.3664 16.6157 16.4176 16.7011C16.4859 16.8035 16.3493 16.8889 16.2981 16.9743C15.6152 18.0499 14.9323 19.1255 14.2493 20.2011C13.8737 20.7986 13.6859 21.4474 13.703 22.1474C13.7201 23.7352 13.703 25.3401 13.703 26.9449C13.703 27.7474 13.6859 27.7645 12.8835 27.7645C12.303 27.7645 12.2347 27.6962 12.2347 27.0986C12.2347 25.6645 12.2006 24.2303 12.2347 22.7962C12.2688 21.8059 11.9957 20.9523 11.4493 20.1328C10.8176 19.1767 10.2201 18.1864 9.60545 17.2303C9.33228 16.8206 9.05911 16.3938 8.56399 16.206C8.35911 16.1206 8.41033 15.984 8.47862 15.8304C8.83716 14.9426 9.17862 14.0548 9.5713 13.184C10.3567 11.3743 11.3128 9.64989 12.3371 7.95966C13.3957 6.2182 14.9152 5.24503 16.9298 4.95479C18.7225 4.68162 20.4981 4.34016 22.3078 4.15236C23.4176 4.03284 24.5273 3.96455 25.6371 3.86211C27.2078 3.72553 28.7785 3.62309 30.3663 3.57187C31.1688 3.53772 31.9541 3.52065 32.7566 3.58894C32.859 3.58894 32.9444 3.60602 33.0468 3.60602C35.6419 3.60602 38.22 3.7426 40.7809 4.04992C42.9663 4.30601 45.1346 4.66455 47.3028 5.02308C49.198 5.3304 50.5809 6.38893 51.5711 7.9938C52.7833 9.95721 53.8248 12.006 54.7296 14.1401C54.9857 14.7548 55.2418 15.4206 55.5321 16.1206Z" fill="#282828"/>
<path d="M4.77393 40.74C4.77393 34.3888 4.77393 28.0376 4.77393 21.6864C4.77393 21.3791 4.84222 21.1059 5.01295 20.8498C5.79831 19.6205 6.58367 18.3742 7.36904 17.1279C7.42026 17.0425 7.47147 16.9742 7.53977 16.8888C7.94952 16.3596 8.39342 16.3596 8.7861 16.9059C9.0422 17.2645 9.28122 17.6571 9.52025 18.0327C10.152 19.023 10.7666 20.0303 11.4154 21.0205C11.6373 21.362 11.7398 21.7035 11.7398 22.1132C11.7227 24.1278 11.7397 26.1425 11.7227 28.1571C11.7227 28.4644 11.808 28.5498 12.1154 28.5327C12.6788 28.5156 13.2251 28.5156 13.7885 28.5327C14.1129 28.5498 14.2153 28.4644 14.2153 28.1229C14.1983 25.9717 14.2153 23.8376 14.1983 21.6864C14.1983 21.362 14.2836 21.0888 14.4544 20.8157C15.2397 19.5864 16.008 18.3571 16.7934 17.1108C16.8617 16.9913 16.947 16.8718 17.0324 16.7693C17.3739 16.3766 17.8007 16.3596 18.1251 16.7693C18.3812 17.0937 18.5861 17.4693 18.8251 17.8108C19.508 18.8864 20.1909 19.962 20.8739 21.0376C21.0787 21.3449 21.1641 21.6693 21.1641 22.0278C21.147 24.0595 21.1641 26.0742 21.147 28.1059C21.147 28.3961 21.2153 28.4985 21.5226 28.4985C22.086 28.4815 22.6324 28.4815 23.1958 28.4985C23.486 28.5156 23.5543 28.4132 23.5543 28.1229C23.5373 25.9547 23.5543 23.7693 23.5373 21.601C23.5373 21.3278 23.6056 21.0888 23.7592 20.8498C24.5616 19.5864 25.347 18.323 26.1494 17.0766C26.2348 16.9401 26.3372 16.7864 26.4568 16.6669C26.7299 16.3937 27.1055 16.3937 27.3787 16.6669C27.4982 16.7864 27.6177 16.9401 27.7031 17.0937C28.5226 18.3913 29.3421 19.7059 30.1787 21.0035C30.3836 21.3278 30.486 21.6693 30.486 22.062C30.4689 24.0595 30.486 26.0742 30.486 28.0717C30.486 28.4815 30.486 28.4815 30.9128 28.4815C31.4763 28.4815 32.0226 28.4644 32.586 28.4815C32.8592 28.4986 32.9616 28.3961 32.9616 28.1229C32.9445 25.9547 32.9616 23.7693 32.9445 21.601C32.9445 21.3278 33.0128 21.0888 33.1665 20.8498C33.9689 19.5864 34.7543 18.323 35.5567 17.0766C35.625 16.9742 35.6933 16.8547 35.7787 16.7693C36.1201 16.3596 36.5299 16.3596 36.8713 16.7523C36.9738 16.8718 37.0592 16.9913 37.1274 17.1108C37.947 18.3913 38.7494 19.6888 39.5689 20.9693C39.7908 21.3108 39.8933 21.6693 39.8933 22.0791C39.8762 24.0766 39.8933 26.0912 39.8762 28.0888C39.8762 28.3961 39.9616 28.4986 40.2689 28.4815C40.7811 28.4644 41.2933 28.4473 41.8225 28.4815C42.164 28.4986 42.2323 28.379 42.2323 28.0547C42.2152 25.9547 42.2323 23.8547 42.2152 21.7547C42.2152 21.4815 42.2835 21.2425 42.4372 21.0035C43.2738 19.7059 44.0933 18.3913 44.9128 17.0937C44.9811 16.9913 45.0323 16.8888 45.1177 16.8035C45.5103 16.3254 45.9542 16.3084 46.3128 16.8206C46.7396 17.4181 47.1152 18.0498 47.4908 18.6644C48.003 19.4669 48.5152 20.2864 49.0274 21.0888C49.164 21.3108 49.2493 21.5498 49.2493 21.8059C49.2493 34.4741 49.2493 47.1424 49.2493 59.7935C49.2493 60.3057 49.0445 60.5448 48.5152 60.5448C46.6713 60.5448 44.8103 60.5448 42.9664 60.5448C42.4201 60.5448 42.2494 60.3569 42.2494 59.8106C42.2494 57.574 42.2494 55.3545 42.2494 53.118C42.2494 52.7936 42.164 52.6911 41.8396 52.7082C41.3274 52.7424 40.8152 52.7253 40.286 52.7082C39.9616 52.6911 39.8933 52.8106 39.8933 53.118C39.9104 55.2862 39.8933 57.4716 39.8933 59.6399C39.8933 60.3399 39.6713 60.5448 38.9713 60.5618C37.2128 60.5618 35.4543 60.5618 33.6787 60.5618C33.5762 60.5618 33.4909 60.5618 33.3884 60.5448C33.0982 60.5106 32.9445 60.374 32.9445 60.0326C32.9616 57.7277 32.9445 55.4228 32.9616 53.118C32.9616 52.7936 32.8762 52.6911 32.5519 52.7082C31.9884 52.7424 31.408 52.7253 30.8445 52.7082C30.5543 52.6911 30.486 52.8106 30.486 53.0838C30.5031 55.2692 30.486 57.4545 30.486 59.6399C30.486 60.3399 30.2811 60.5618 29.5641 60.5618C27.8055 60.5618 26.047 60.5618 24.2714 60.5618C24.169 60.5618 24.0836 60.5618 23.9812 60.5448C23.6909 60.5106 23.5373 60.374 23.5373 60.0326C23.5543 57.7277 23.5373 55.4228 23.5543 53.118C23.5543 52.7936 23.469 52.6911 23.1446 52.7082C22.5982 52.7424 22.0519 52.7253 21.5056 52.7082C21.2153 52.6911 21.147 52.7936 21.147 53.0838C21.1641 55.2692 21.147 57.4545 21.147 59.6399C21.147 60.3399 20.9421 60.5618 20.2251 60.5618C18.4665 60.5618 16.708 60.5618 14.9324 60.5618C14.8641 60.5618 14.7788 60.5618 14.7105 60.5618C14.3178 60.5277 14.1983 60.4082 14.1983 60.0155C14.1983 57.7277 14.1983 55.4228 14.1983 53.135C14.1983 52.8106 14.13 52.6911 13.7885 52.7082C13.2251 52.7424 12.6446 52.7253 12.0812 52.7082C11.791 52.6911 11.7227 52.7936 11.7227 53.0838C11.7397 55.2692 11.7227 57.4545 11.7227 59.6399C11.7227 60.3399 11.5178 60.5618 10.8007 60.5618C9.0422 60.5618 7.28367 60.5618 5.50807 60.5618C5.43978 60.5618 5.37148 60.5618 5.32026 60.5618C4.89344 60.5277 4.77393 60.4252 4.77393 59.9813C4.77393 54.0911 4.77393 48.2009 4.77393 42.3107C4.77393 41.7985 4.77393 41.2692 4.77393 40.74ZM48.0372 40.6887C48.0372 34.679 48.0372 28.6693 48.0372 22.6595C48.0372 22.301 47.9689 21.9596 47.7811 21.6522C47.1664 20.662 46.5518 19.6718 45.9201 18.6815C45.7494 18.4254 45.6981 18.4254 45.5274 18.6986C44.9128 19.6718 44.2981 20.6449 43.7006 21.6181C43.5128 21.9425 43.3762 22.2839 43.3762 22.6766C43.3762 34.6961 43.3762 46.7155 43.3762 58.735C43.3762 59.2131 43.4274 59.2643 43.9225 59.2813C45.1177 59.2813 46.3128 59.2813 47.5079 59.2813C48.0372 59.2813 48.0542 59.2643 48.0542 58.735C48.0372 52.7082 48.0372 46.6985 48.0372 40.6887ZM5.84953 40.7229C5.84953 46.7155 5.84953 52.7253 5.84953 58.7179C5.84953 59.2131 5.88368 59.2643 6.34465 59.2643C7.55684 59.2643 8.76903 59.2643 9.98122 59.2643C10.408 59.2643 10.5105 59.1618 10.5105 58.735C10.5105 46.7497 10.5105 34.7644 10.5105 22.7791C10.5105 22.3864 10.4251 21.9937 10.2202 21.6522C9.60561 20.6791 8.99098 19.6888 8.37635 18.7157C8.20562 18.4425 8.13733 18.4425 7.94952 18.7327C7.42026 19.5693 6.90806 20.44 6.34465 21.2596C5.98612 21.7888 5.84953 22.3352 5.84953 22.9498C5.84953 28.8571 5.84953 34.7815 5.84953 40.7229ZM19.9178 40.74C19.9178 34.7815 19.9178 28.8229 19.9178 22.8644C19.9178 22.4205 19.8495 21.9937 19.6104 21.601C19.0129 20.6279 18.3983 19.6547 17.7836 18.6815C17.5958 18.3913 17.5275 18.3913 17.3397 18.6815C16.8105 19.5181 16.2983 20.3888 15.7349 21.2083C15.3763 21.7376 15.2568 22.2839 15.2568 22.8986C15.2568 29.4717 15.2568 36.0619 15.2568 42.6351C15.2568 47.996 15.2568 53.3399 15.2568 58.7009C15.2568 59.196 15.291 59.2301 15.7861 59.2301C16.947 59.2301 18.108 59.2301 19.269 59.2301C19.8665 59.2301 19.9178 59.1789 19.9178 58.5813C19.9178 52.657 19.9178 46.6985 19.9178 40.74ZM24.6129 40.7229C24.6129 46.7155 24.6129 52.7253 24.6129 58.7179C24.6129 59.2131 24.647 59.2472 25.1421 59.2643C26.3202 59.2643 27.4982 59.2643 28.6933 59.2643C29.1885 59.2643 29.2738 59.1789 29.2738 58.6838C29.2738 57.9667 29.2738 57.2496 29.2738 56.5326C29.2738 45.3156 29.2738 34.0985 29.2738 22.8815C29.2738 22.4205 29.1885 21.9596 28.9324 21.5669C28.3348 20.6279 27.7543 19.6718 27.1568 18.7327C26.9519 18.3913 26.8836 18.3913 26.6787 18.7327C26.1494 19.5693 25.6543 20.423 25.0909 21.2254C24.7324 21.7547 24.5958 22.301 24.5958 22.9156C24.6129 28.8571 24.6129 34.7985 24.6129 40.7229ZM34.0201 40.6887C34.0201 46.6985 34.0201 52.7082 34.0201 58.7179C34.0201 59.2131 34.0543 59.2472 34.5494 59.2643C35.7274 59.2643 36.9055 59.2643 38.1006 59.2643C38.5957 59.2643 38.6811 59.1789 38.6811 58.6838C38.6811 57.8984 38.6811 57.1131 38.6811 56.3448C38.6811 45.196 38.6811 34.0473 38.6811 22.8815C38.6811 22.4205 38.5957 21.9596 38.3396 21.5669C37.7421 20.6279 37.1616 19.6718 36.564 18.7327C36.3592 18.3913 36.2909 18.3913 36.086 18.7327C35.5567 19.5693 35.0616 20.423 34.4982 21.2254C34.1397 21.7547 34.0031 22.301 34.0031 22.9156C34.0201 28.84 34.0201 34.7644 34.0201 40.6887ZM11.7056 40.5863C11.7056 42.7887 11.7056 44.9741 11.7056 47.1765C11.7056 47.4497 11.7739 47.5521 12.0641 47.5521C12.6617 47.5351 13.2593 47.5351 13.8739 47.5521C14.1129 47.5521 14.1812 47.4668 14.1812 47.2277C14.1812 42.8229 14.1812 38.418 14.1812 34.0132C14.1812 33.7741 14.1129 33.6888 13.8739 33.6888C13.2763 33.7058 12.6958 33.7058 12.0983 33.6888C11.7739 33.6717 11.7056 33.7912 11.7056 34.0985C11.7227 36.2668 11.7056 38.4351 11.7056 40.5863ZM32.9445 40.6204C32.9445 38.4351 32.9445 36.2497 32.9445 34.0644C32.9445 33.7912 32.8762 33.6888 32.586 33.6888C31.9884 33.7058 31.3909 33.7058 30.7763 33.6888C30.5372 33.6888 30.4689 33.7741 30.4689 34.0132C30.4689 38.418 30.4689 42.8229 30.4689 47.2277C30.4689 47.4668 30.5372 47.5521 30.7763 47.5521C31.3738 47.5351 31.9543 47.5351 32.5519 47.5521C32.8762 47.5692 32.9445 47.4497 32.9445 47.1424C32.9445 44.9741 32.9445 42.8058 32.9445 40.6204ZM23.5202 40.6546C23.5202 38.4522 23.5202 36.2668 23.5202 34.0644C23.5202 33.7912 23.4519 33.6888 23.1617 33.6888C22.5812 33.7058 22.0007 33.7058 21.4202 33.6888C21.1812 33.6888 21.1129 33.7741 21.1129 34.0132C21.1129 38.418 21.1129 42.8229 21.1129 47.2277C21.1129 47.4668 21.1812 47.5521 21.4202 47.5521C21.9836 47.5351 22.5641 47.5351 23.1275 47.5521C23.4519 47.5692 23.5202 47.4497 23.5202 47.1424C23.5202 44.9912 23.5202 42.8229 23.5202 40.6546ZM42.2323 40.6546C42.2323 38.4522 42.2323 36.2668 42.2323 34.0644C42.2323 33.7912 42.164 33.6888 41.8738 33.6888C41.3445 33.7058 40.8152 33.7229 40.303 33.6888C39.9616 33.6717 39.8933 33.7912 39.8933 34.1156C39.9104 36.4034 39.8933 38.6741 39.8933 40.9619C39.8933 43.0448 39.8933 45.1277 39.8933 47.1936C39.8933 47.4497 39.9616 47.5521 40.2348 47.5521C40.764 47.5351 41.3104 47.5351 41.8396 47.5521C42.164 47.5692 42.2323 47.4497 42.2323 47.1424C42.2152 44.9912 42.2323 42.8229 42.2323 40.6546ZM32.9445 31.1449C32.9445 30.8034 32.9445 30.462 32.9445 30.1205C32.9445 29.9327 32.8762 29.8473 32.6714 29.8644C32.0226 29.8644 31.3738 29.8644 30.7421 29.8644C30.5543 29.8644 30.4689 29.9156 30.4689 30.1205C30.4689 30.8034 30.4689 31.4693 30.4689 32.1522C30.4689 32.3229 30.5372 32.4083 30.725 32.3912C31.3738 32.3912 32.0397 32.3912 32.6884 32.3912C32.8933 32.3912 32.9445 32.3059 32.9445 32.118C32.9275 31.7766 32.9445 31.4522 32.9445 31.1449ZM14.1812 50.1814C14.1812 49.8399 14.1812 49.4985 14.1812 49.157C14.1812 48.9692 14.1129 48.8838 13.9251 48.8838C13.2763 48.8838 12.6105 48.8838 11.9617 48.8838C11.7739 48.8838 11.7227 48.9692 11.7227 49.1399C11.7227 49.8228 11.7227 50.4887 11.7227 51.1716C11.7227 51.3424 11.791 51.4277 11.9617 51.4277C12.6105 51.4277 13.2763 51.4277 13.9251 51.4277C14.13 51.4277 14.1983 51.3424 14.1812 51.1546C14.1812 50.8131 14.1812 50.4887 14.1812 50.1814ZM32.9445 50.1472C32.9445 49.8229 32.9445 49.4814 32.9445 49.157C32.9445 48.9692 32.8933 48.8838 32.6884 48.8838C32.0397 48.8838 31.3738 48.8838 30.725 48.8838C30.5202 48.8838 30.4689 48.9692 30.4689 49.157C30.4689 49.8228 30.4689 50.4887 30.4689 51.1546C30.4689 51.3424 30.5372 51.4106 30.7421 51.4106C31.3909 51.4106 32.0397 51.4106 32.6714 51.4106C32.8933 51.4106 32.9445 51.3253 32.9445 51.1204C32.9275 50.796 32.9445 50.4716 32.9445 50.1472ZM14.1812 31.1449C14.1812 30.8034 14.1812 30.462 14.1812 30.1205C14.1812 29.9327 14.1129 29.8473 13.9251 29.8473C13.2763 29.8473 12.6276 29.8473 11.9958 29.8473C11.808 29.8473 11.7227 29.8985 11.7227 30.1034C11.7227 30.7863 11.7227 31.4522 11.7227 32.1351C11.7227 32.3059 11.791 32.3912 11.9617 32.3912C12.6105 32.3912 13.2763 32.3912 13.9251 32.3912C14.13 32.3912 14.1812 32.3059 14.1812 32.118C14.1812 31.7766 14.1812 31.4693 14.1812 31.1449ZM21.13 31.1107C21.13 31.4522 21.13 31.7937 21.13 32.1351C21.13 32.2888 21.1982 32.3741 21.3519 32.3741C22.0007 32.3741 22.6495 32.3741 23.2812 32.3741C23.469 32.3741 23.5202 32.3059 23.5202 32.118C23.5202 31.4351 23.5202 30.7693 23.5202 30.0864C23.5202 29.9156 23.4519 29.8303 23.2812 29.8303C22.6495 29.8303 22.0178 29.8303 21.3861 29.8303C21.1812 29.8303 21.1129 29.9156 21.13 30.1034C21.13 30.4449 21.13 30.7863 21.13 31.1107ZM23.5202 50.1643C23.5202 49.8399 23.5202 49.4985 23.5202 49.1741C23.5202 48.9692 23.469 48.8838 23.247 48.8838C22.6324 48.9009 22.0007 48.8838 21.369 48.8838C21.1812 48.8838 21.0958 48.9521 21.1129 49.157C21.1129 49.8228 21.1129 50.4887 21.1129 51.1546C21.1129 51.3424 21.1641 51.4277 21.369 51.4277C22.0007 51.4277 22.6324 51.4277 23.2641 51.4277C23.4519 51.4277 23.5202 51.3594 23.5031 51.1716C23.5202 50.8302 23.5202 50.4887 23.5202 50.1643ZM42.2323 31.1107C42.2323 30.7693 42.2323 30.4278 42.2323 30.0864C42.2323 29.9327 42.164 29.8473 42.0104 29.8473C41.3787 29.8473 40.764 29.8473 40.1323 29.8473C39.9445 29.8473 39.8933 29.9327 39.8933 30.1034C39.8933 30.7863 39.8933 31.4522 39.8933 32.1351C39.8933 32.3059 39.9616 32.3912 40.1323 32.3912C40.7469 32.3912 41.3616 32.3912 41.9762 32.3912C42.1811 32.3912 42.2494 32.3059 42.2323 32.118C42.2152 31.7766 42.2323 31.4351 42.2323 31.1107ZM42.2323 50.1814C42.2323 49.8399 42.2323 49.4985 42.2323 49.157C42.2323 48.9692 42.164 48.8838 41.9762 48.8838C41.3616 48.8838 40.7469 48.8838 40.1323 48.8838C39.9445 48.8838 39.8933 48.9692 39.8933 49.1399C39.8933 49.8228 39.8933 50.4887 39.8933 51.1716C39.8933 51.3424 39.9616 51.4277 40.1323 51.4277C40.7469 51.4277 41.3616 51.4277 41.9762 51.4277C42.1811 51.4277 42.2494 51.3424 42.2323 51.1546C42.2152 50.8131 42.2323 50.4887 42.2323 50.1814Z" fill="#282828"/>
<path d="M3.28887 47.2448C3.08399 47.2448 2.87911 47.2619 2.67424 47.2448C1.49619 47.1765 0.727904 46.357 0.727904 45.1278C0.710831 43.8814 0.727903 42.618 0.71083 41.3717C0.693757 39.9546 0.523026 38.5375 0.403515 37.1205C0.335222 36.2498 0.266929 35.3961 0.198637 34.5254C0.0961981 33.1766 -0.0233133 31.8278 0.0108329 30.479C0.0620522 28.4986 0.113272 26.5181 0.642538 24.5888C1.08644 22.9669 1.80351 21.4986 3.13521 20.4059C3.39131 20.184 3.16936 20.1327 3.0157 20.0645C2.24741 19.7401 1.53034 19.3303 0.949853 18.7328C0.608391 18.3742 0.369368 17.9645 0.198637 17.5035C0.0961981 17.1962 0.130345 16.923 0.301076 16.6498C0.642538 16.1035 1.15473 15.762 1.75229 15.5401C2.89619 15.1133 4.0913 14.9425 5.30349 14.8401C5.73032 14.8059 6.15715 14.7889 6.58398 14.7547C6.89129 14.7376 7.14739 14.8401 7.35226 15.0791C7.54007 15.3352 7.74495 15.5913 7.94982 15.8474C8.05226 15.984 8.08641 16.0864 7.86446 16.1376C7.43763 16.2401 7.14739 16.5133 6.92544 16.8718C6.19129 18.0328 5.45715 19.1937 4.72301 20.3547C4.36447 20.9181 4.27911 21.5498 4.27911 22.1986C4.27911 27.4742 4.27911 32.7668 4.27911 38.0424C4.27911 40.9278 4.27911 43.8131 4.27911 46.6814C4.27911 47.2619 4.27911 47.2619 3.7157 47.2619C3.57911 47.2448 3.42545 47.2448 3.28887 47.2448Z" fill="#282828"/>
<path d="M31.6135 16.3084C32.7573 16.3084 33.9183 16.3084 35.0622 16.3084C35.1988 16.3084 35.3866 16.2401 35.4549 16.3767C35.5061 16.4962 35.3183 16.5645 35.25 16.6669C34.789 17.2986 34.3964 17.9645 33.9866 18.6132C33.6622 19.1425 33.3208 19.6718 32.9964 20.184C32.6208 20.7644 32.45 21.3791 32.4671 22.0791C32.4842 23.6839 32.4671 25.2888 32.4671 26.8937C32.4671 27.6961 32.45 27.7132 31.6476 27.7132C31.0671 27.7132 30.9988 27.662 30.9817 27.0473C30.9817 25.5961 30.9476 24.1278 30.9817 22.6766C30.9988 21.7718 30.7769 20.9693 30.2817 20.2181C29.5988 19.1937 28.9671 18.1352 28.3013 17.0937C28.1818 16.8889 28.011 16.7181 27.8744 16.5303C27.8232 16.4791 27.7379 16.4279 27.772 16.3425C27.8061 16.2571 27.9086 16.2913 27.9769 16.2913C28.6769 16.2913 29.3769 16.2913 30.0769 16.2913C30.572 16.3084 31.1013 16.3084 31.6135 16.3084Z" fill="#282828"/>
<path d="M21.608 24.5888C21.608 23.8547 21.5909 23.1035 21.608 22.3693C21.6251 21.7035 21.4372 21.0718 21.0787 20.5083C20.2763 19.2449 19.5251 17.9645 18.6714 16.7352C18.6373 16.684 18.5519 16.6157 18.586 16.5474C18.6202 16.462 18.7226 16.4962 18.7909 16.4962C19.9007 16.462 21.0275 16.4108 22.1372 16.3767C23.2982 16.3425 24.4763 16.3254 25.6543 16.3084C25.7738 16.3084 25.9616 16.2401 26.0128 16.3596C26.0811 16.4962 25.8933 16.5645 25.825 16.6498C25.347 17.2815 24.9543 17.9815 24.5275 18.6474C24.2031 19.1425 23.9128 19.6547 23.5885 20.1498C23.1958 20.7644 23.008 21.4303 23.025 22.1644C23.0421 23.7522 23.025 25.34 23.025 26.9108C23.025 27.7132 23.008 27.7303 22.2055 27.7303C21.7104 27.7303 21.625 27.662 21.625 27.1669C21.608 26.2961 21.6251 25.4425 21.608 24.5888Z" fill="#282828"/>
<path d="M12.2002 40.7229C12.2002 39.6131 12.2173 38.5205 12.2002 37.4107C12.2002 37.0863 12.3026 36.9668 12.627 37.001C12.8831 37.018 13.1392 37.018 13.3953 37.001C13.6002 36.9839 13.6856 37.0863 13.6856 37.2912C13.6856 37.3595 13.6856 37.4278 13.6856 37.479C13.6856 39.6473 13.6856 41.7985 13.6856 43.9668C13.6856 44.4448 13.6856 44.4448 13.2075 44.4448C12.2002 44.4448 12.2002 44.4448 12.2002 43.4546C12.2002 42.5497 12.2002 41.6278 12.2002 40.7229Z" fill="#282828"/>
<path d="M12.9178 35.0376C12.7812 35.0376 12.6617 35.0376 12.5251 35.0376C12.3544 35.0376 12.1836 35.0205 12.2178 34.7815C12.2348 34.5937 12.269 34.4229 12.5251 34.4229C12.7983 34.4229 13.0544 34.44 13.3275 34.4229C13.6007 34.4059 13.6519 34.5937 13.6519 34.7985C13.669 35.0376 13.4983 35.0376 13.3275 35.0376C13.208 35.0376 13.0544 35.0376 12.9178 35.0376Z" fill="#282828"/>
<path d="M23.042 39.3741C23.042 40.7912 23.042 42.2253 23.042 43.6424C23.042 43.9668 22.9396 44.1033 22.6152 44.0521C22.4274 44.0351 22.2225 44.0351 22.0347 44.0521C21.7103 44.0863 21.6079 43.9668 21.6079 43.6424C21.625 40.7912 21.6079 37.94 21.6079 35.1058C21.6079 35.0205 21.6079 34.9351 21.625 34.8497C21.6421 34.5595 21.7445 34.3888 22.086 34.4229C22.1884 34.44 22.3079 34.4229 22.4103 34.4229C22.9908 34.4229 23.042 34.457 23.042 35.0546C23.042 36.5058 23.042 37.94 23.042 39.3741Z" fill="#282828"/>
</g>
<mask id="mask1_6342_13507" style="mask-type:luminance" maskUnits="userSpaceOnUse" x="9" y="3" width="55" height="48">
<path d="M35.7148 3.41708L26.1091 3.41711L9.81329 7.13331L21.3808 24.128V50.796H63.9998V3.41708H35.7148Z" fill="white"/>
</mask>
<g mask="url(#mask1_6342_13507)">
<mask id="mask2_6342_13507" style="mask-type:luminance" maskUnits="userSpaceOnUse" x="30" y="1" width="41" height="50">
<path d="M30.3834 50.105L70.104 50.105V1.87354L30.3834 1.87354L30.3834 50.105Z" fill="white"/>
</mask>
<g mask="url(#mask2_6342_13507)">
<path d="M57.1882 47.4497C55.8224 47.4497 54.4565 47.4497 53.0736 47.4497C51.8956 47.4497 51.0761 46.6985 50.9907 45.5375C50.9395 44.8546 50.9395 44.8375 50.2566 44.7692C49.3175 44.6838 48.3615 44.6155 47.4224 44.5814C45.3737 44.496 43.3249 44.4448 41.259 44.3936C35.7103 44.2399 30.1615 44.2741 24.6128 44.3253C20.9762 44.3594 17.3396 44.479 13.7031 44.7863C13.3445 44.8204 13.1909 44.9399 13.2079 45.3155C13.2592 46.5789 12.1836 47.5009 10.9884 47.4667C8.30796 47.3985 5.62748 47.3985 2.94701 47.4667C1.76896 47.5009 0.847014 46.3911 0.864087 45.4009C0.898233 43.5741 0.949452 41.7302 0.795794 39.9034C0.625063 37.8546 0.454333 35.8058 0.300675 33.7741C0.164091 31.7595 0.16409 29.7449 0.334821 27.7473C0.43726 26.6376 0.539698 25.5449 0.88116 24.4864C1.34213 22.9668 2.00799 21.5498 3.28847 20.5254C3.56164 20.3205 3.44212 20.2181 3.18603 20.1156C2.29823 19.723 1.4275 19.2961 0.847014 18.4937C0.0104322 17.3498 0.0787246 16.6157 1.44457 15.8474C2.43481 15.284 3.56164 15.1474 4.68846 15.0108C5.33724 14.9254 5.98602 14.9083 6.65187 14.8401C7.04455 14.8059 7.33479 14.9254 7.55674 15.2498C7.76162 15.523 7.98357 15.7961 8.20552 16.0864C8.39332 16.3425 8.49576 16.3254 8.61527 16.0352C9.02503 14.8913 9.50307 13.7815 10.0153 12.6888C10.9543 10.7084 11.8933 8.74496 13.2421 7.0035C14.0104 6.03033 15.0006 5.39863 16.2299 5.15961C19.2518 4.54497 22.3079 4.11815 25.3981 3.8962C27.6689 3.72547 29.9225 3.57181 32.1932 3.57181C37.3322 3.57181 42.42 4.084 47.4737 5.02302C49.3005 5.36448 50.6492 6.33765 51.6224 7.87423C53.1931 10.3669 54.4565 13.0303 55.5322 15.7791C55.5663 15.8815 55.6004 15.9669 55.6517 16.0693C55.7541 16.3083 55.8565 16.3083 56.0102 16.1035C56.2492 15.7961 56.4882 15.4888 56.7273 15.1644C56.8809 14.9596 57.0687 14.8401 57.3078 14.8401C59.1004 14.9254 60.8931 15.0449 62.5833 15.7449C62.6687 15.7791 62.737 15.8132 62.8224 15.8474C63.9833 16.462 64.2053 17.3327 63.437 18.3913C62.8565 19.2108 62.0029 19.6888 61.098 20.0815C60.6541 20.2693 60.6541 20.2693 60.9955 20.5766C62.5663 21.9254 63.2492 23.7181 63.5907 25.6815C64.0516 28.2595 64.0516 30.8546 63.898 33.4668C63.676 37.4107 63.1297 41.3204 63.3175 45.2814C63.3516 46.0668 63.0272 46.6985 62.3955 47.1424C62.1053 47.3472 61.8151 47.4497 61.4565 47.4326C60.0395 47.4326 58.6224 47.4497 57.1882 47.4497ZM31.6127 6.91813C30.964 6.98643 29.8371 6.91814 28.7103 6.96935C27.6347 7.02057 26.5591 7.08887 25.4835 7.17423C22.8884 7.36204 20.3103 7.78886 17.7323 8.18154C16.725 8.3352 15.9226 8.69374 15.3591 9.59861C13.9933 11.8352 12.8494 14.1913 11.8762 16.6327C11.7226 17.0254 11.7567 17.0596 12.1836 17.0254C13.7372 16.8376 15.3079 16.7181 16.8787 16.6498C19.4738 16.5303 22.086 16.4108 24.6811 16.3937C29.4445 16.3596 34.2078 16.3083 38.9712 16.4278C41.481 16.4961 44.0078 16.5132 46.5176 16.6157C48.3273 16.701 50.12 16.8205 51.9127 16.9913C52.3736 17.0425 52.4249 16.9913 52.2541 16.5644C51.4346 14.4303 50.3931 12.3986 49.3175 10.384C48.5834 9.0352 47.6102 8.31813 46.0395 8.07911C41.4298 7.37911 36.7859 6.91813 31.6127 6.91813ZM10.7665 32.818C10.7665 32.801 10.7665 32.801 10.7665 32.818C11.7055 32.801 12.6616 32.8522 13.6006 32.801C14.8811 32.7327 15.4445 31.8619 15.0177 30.6497C14.5909 29.4376 13.7031 28.7376 12.4567 28.5156C10.4592 28.1571 8.46162 27.8839 6.44699 27.7132C5.11529 27.5937 4.43236 28.4815 4.7909 29.779C4.89334 30.1546 5.06407 30.5132 5.2348 30.8717C5.81529 32.1522 6.80553 32.7839 8.18845 32.801C9.0421 32.818 9.91283 32.818 10.7665 32.818ZM53.4663 32.8351C53.4663 32.818 53.4663 32.818 53.4663 32.8351C54.2175 32.8351 54.9858 32.8351 55.737 32.8351C55.9931 32.8351 56.2663 32.818 56.5224 32.7839C58.3663 32.579 59.2712 30.8375 59.476 29.3863C59.6297 28.3449 59.1516 27.8327 58.1102 27.7302C57.9053 27.7132 57.7004 27.7302 57.4956 27.7473C56.8468 27.8156 56.198 27.8839 55.5492 27.9693C54.2175 28.1741 52.8517 28.2424 51.537 28.5668C50.3761 28.8571 49.5736 29.5741 49.198 30.718C48.8395 31.7766 49.3346 32.5961 50.4273 32.7839C50.6834 32.8351 50.9566 32.8351 51.2127 32.8351C51.9468 32.8351 52.7151 32.8351 53.4663 32.8351ZM52.3224 35.1912C51.3151 35.1912 50.3078 35.1912 49.3175 35.1912C49.0102 35.1912 48.7029 35.2424 48.4468 35.4131C47.8322 35.7887 47.8322 36.5741 48.4639 36.9326C48.7371 37.0863 49.0273 37.1717 49.3346 37.1717C51.3322 37.1887 53.3297 37.1887 55.3102 37.1717C55.72 37.1717 56.1126 37.0692 56.437 36.779C56.898 36.3692 56.8639 35.84 56.3517 35.4985C56.0614 35.2936 55.72 35.2083 55.3614 35.1912C54.3541 35.1912 53.3297 35.1912 52.3224 35.1912ZM11.8762 35.1912C10.9372 35.1912 9.98112 35.1912 9.0421 35.1912C8.73479 35.1912 8.42747 35.2253 8.1543 35.3619C7.81284 35.5156 7.59089 35.7717 7.57382 36.1644C7.55674 36.5741 7.79576 36.8131 8.12015 36.9839C8.39332 37.1204 8.70064 37.1887 9.00796 37.1887C10.9543 37.1887 12.9006 37.1887 14.847 37.1887C15.2567 37.1887 15.6152 37.0692 15.9567 36.8302C16.4689 36.4717 16.4689 35.8912 15.9567 35.5326C15.5811 35.2766 15.1543 35.1912 14.7104 35.1912C13.7713 35.1741 12.8323 35.1912 11.8762 35.1912Z" fill="#282828"/>
</g>
</g>
<path d="M52.2796 50.172C52.9465 50.172 53.4511 50.4388 53.7935 50.9723C54.1403 51.5014 54.3137 52.2506 54.3137 53.2198C54.3137 54.1891 54.1469 54.9449 53.8135 55.4874C53.48 56.0253 52.9687 56.2943 52.2796 56.2943C51.6393 56.2943 51.148 56.0253 50.8057 55.4874C50.4678 54.9449 50.2988 54.1891 50.2988 53.2198C50.2988 52.2506 50.4611 51.5014 50.7857 50.9723C51.1102 50.4388 51.6082 50.172 52.2796 50.172ZM52.2796 50.9657C51.9194 50.9657 51.6549 51.1546 51.4859 51.5325C51.317 51.906 51.2325 52.4684 51.2325 53.2198C51.2325 53.9712 51.317 54.5381 51.4859 54.9205C51.6549 55.3028 51.9194 55.494 52.2796 55.494C52.653 55.494 52.9309 55.3028 53.1132 54.9205C53.2955 54.5381 53.3867 53.9712 53.3867 53.2198C53.3867 52.4729 53.2955 51.9105 53.1132 51.5325C52.9354 51.1546 52.6575 50.9657 52.2796 50.9657ZM58.4552 50.3121L53.0465 60.0624H52.0728L57.4815 50.3121H58.4552ZM58.1951 54.0802C58.8576 54.0802 59.3622 54.3469 59.709 54.8805C60.0558 55.4096 60.2292 56.1587 60.2292 57.128C60.2292 58.0928 60.0625 58.8464 59.729 59.3888C59.3956 59.9268 58.8843 60.1958 58.1951 60.1958C57.5504 60.1958 57.0592 59.9268 56.7212 59.3888C56.3833 58.8464 56.2144 58.0928 56.2144 57.128C56.2144 56.1587 56.3745 55.4096 56.6946 54.8805C57.0191 54.3469 57.5193 54.0802 58.1951 54.0802ZM58.1951 54.8805C57.835 54.8805 57.5705 55.0672 57.4015 55.4407C57.2326 55.8142 57.1481 56.3766 57.1481 57.128C57.1481 57.8794 57.2326 58.4463 57.4015 58.8286C57.5705 59.2065 57.835 59.3955 58.1951 59.3955C58.5686 59.3955 58.8465 59.2088 59.0288 58.8353C59.2111 58.4574 59.3022 57.8883 59.3022 57.128C59.3022 56.381 59.2111 55.8208 59.0288 55.4473C58.8509 55.0694 58.5731 54.8805 58.1951 54.8805Z" fill="#282828"/>
<path d="M48.9179 55.1739C48.9179 55.9653 48.8578 56.6723 48.7378 57.2947C48.6177 57.9172 48.4288 58.444 48.1709 58.8753C47.913 59.3066 47.5796 59.6356 47.1705 59.8623C46.7615 60.0847 46.2702 60.1958 45.6966 60.1958C44.9719 60.1958 44.3717 59.998 43.896 59.6022C43.4247 59.2065 43.0712 58.6352 42.8356 57.8883C42.6044 57.1369 42.4888 56.2321 42.4888 55.1739C42.4888 54.1335 42.5933 53.2399 42.8022 52.4929C43.0156 51.7415 43.358 51.1657 43.8293 50.7656C44.3006 50.361 44.923 50.1587 45.6966 50.1587C46.4303 50.1587 47.0349 50.3588 47.5107 50.7589C47.9864 51.1546 48.3399 51.7282 48.5711 52.4796C48.8023 53.2265 48.9179 54.1246 48.9179 55.1739ZM43.6025 55.1739C43.6025 56.0809 43.6714 56.8368 43.8093 57.4414C43.9471 58.0461 44.1694 58.4996 44.4762 58.8019C44.7874 59.0998 45.1942 59.2488 45.6966 59.2488C46.1991 59.2488 46.6037 59.0998 46.9104 58.8019C47.2217 58.5041 47.4462 58.0528 47.584 57.4481C47.7263 56.8434 47.7974 56.0854 47.7974 55.1739C47.7974 54.2802 47.7285 53.5333 47.5907 52.9331C47.4529 52.3284 47.2306 51.8749 46.9238 51.5726C46.617 51.2658 46.2079 51.1124 45.6966 51.1124C45.1853 51.1124 44.7763 51.2658 44.4695 51.5726C44.1627 51.8749 43.9404 52.3284 43.8026 52.9331C43.6692 53.5333 43.6025 54.2802 43.6025 55.1739Z" fill="#282828"/>
<path d="M37.7401 54.1002C38.4026 54.1002 38.9784 54.2135 39.4675 54.4403C39.9565 54.6626 40.3344 54.9872 40.6012 55.414C40.8724 55.8408 41.008 56.3588 41.008 56.9679C41.008 57.6348 40.8635 58.2106 40.5745 58.6952C40.2855 59.1754 39.8698 59.5467 39.3274 59.809C38.785 60.0669 38.1358 60.1958 37.38 60.1958C36.8731 60.1958 36.4019 60.1513 35.9661 60.0624C35.5304 59.9735 35.1636 59.8401 34.8657 59.6623V58.6085C35.1903 58.8042 35.5838 58.9598 36.0462 59.0754C36.5086 59.191 36.9576 59.2488 37.3933 59.2488C37.8869 59.2488 38.3181 59.171 38.6872 59.0154C39.0606 58.8553 39.3496 58.6152 39.5542 58.2951C39.7631 57.9705 39.8676 57.5637 39.8676 57.0746C39.8676 56.4255 39.6675 55.9253 39.2674 55.5741C38.8717 55.2184 38.2448 55.0405 37.3867 55.0405C37.111 55.0405 36.8087 55.0628 36.4797 55.1072C36.1507 55.1517 35.8794 55.2006 35.666 55.2539L35.1058 54.8871L35.4793 50.3121H40.3278V51.3258H36.4263L36.1796 54.2669C36.3485 54.2313 36.5664 54.1958 36.8331 54.1602C37.0999 54.1202 37.4022 54.1002 37.7401 54.1002Z" fill="#282828"/>
</g>
<defs>
<clipPath id="clip0_6342_13507">
<rect width="64" height="64" fill="white"/>
</clipPath>
</defs>
</svg>
