<svg width="64" height="64" viewBox="0 0 64 64" fill="none" xmlns="http://www.w3.org/2000/svg">
<path fill-rule="evenodd" clip-rule="evenodd" d="M4.0565 19.9106V42.2204H7.43677V19.9106H4.0565ZM1.93555 19.1152C1.93555 18.3837 2.52964 17.7896 3.26114 17.7896H8.23213C8.96363 17.7896 9.55773 18.3837 9.55773 19.1152V43.0157C9.55773 43.7472 8.96363 44.3413 8.23213 44.3413H3.26114C2.52964 44.3413 1.93555 43.7472 1.93555 43.0157V19.1152Z" fill="#FCFCFC"/>
<path fill-rule="evenodd" clip-rule="evenodd" d="M0 44.792C0 43.3712 1.15085 42.2203 2.57166 42.2203H8.6694C10.083 42.2203 11.2278 43.3773 11.2278 44.792V47.5757H0V44.792ZM2.57166 44.3413C2.32222 44.3413 2.12095 44.5426 2.12095 44.792V45.4548H9.10685V44.792C9.10685 44.5365 8.89952 44.3413 8.6694 44.3413H2.57166Z" fill="#FCFCFC"/>
<path fill-rule="evenodd" clip-rule="evenodd" d="M56.8153 20.0829V42.3927H60.1956V20.0829H56.8153ZM54.6943 19.2875C54.6943 18.556 55.2884 17.9619 56.0199 17.9619H60.9909C61.7224 17.9619 62.3165 18.556 62.3165 19.2875V43.188C62.3165 43.9195 61.7224 44.5136 60.9909 44.5136H56.0199C55.2884 44.5136 54.6943 43.9195 54.6943 43.188V19.2875Z" fill="#FCFCFC"/>
<path fill-rule="evenodd" clip-rule="evenodd" d="M52.772 44.9643C52.772 43.5435 53.9228 42.3926 55.3436 42.3926H61.4281C62.8448 42.3926 63.9774 43.5491 63.9996 44.9475L63.9998 44.9559V47.7481H52.772V44.9643ZM55.3436 44.5136C55.0942 44.5136 54.8929 44.7149 54.8929 44.9643V45.6271H61.8788V44.975C61.8713 44.7063 61.6535 44.5136 61.4281 44.5136H55.3436Z" fill="#FCFCFC"/>
<mask id="mask0_6344_39890" style="mask-type:luminance" maskUnits="userSpaceOnUse" x="2" y="13" width="25" height="38">
<path d="M2.37256 13.097L26.1405 19.6985V44.1425L2.37256 50.7439V13.097Z" fill="white"/>
</mask>
<g mask="url(#mask0_6344_39890)">
<path fill-rule="evenodd" clip-rule="evenodd" d="M25.3305 21.1289L26.4248 24.0427C26.5253 24.2923 26.5645 24.5852 26.5645 24.7888V41.9818C26.5645 42.2889 26.4549 42.5545 26.315 42.7489C26.1936 42.9175 25.95 43.1653 25.5645 43.2448L23.3242 43.7545L23.2812 43.7607C22.9389 43.8096 22.5784 43.7126 22.3032 43.4664C22.0265 43.2188 21.8984 42.8781 21.8984 42.5518V24.3911C21.8984 24.1084 21.982 23.806 22.0637 23.6154L22.0676 23.6064L23.2249 21.039C23.3054 20.8646 23.6733 20.2237 24.4601 20.3712C24.7918 20.4334 25.0043 20.6256 25.1136 20.7549C25.2267 20.8888 25.2921 21.0267 25.3305 21.1289ZM24.1766 24.0889L24.0194 24.4376V41.4212L24.4436 41.3246V24.8023C24.4434 24.8011 24.4433 24.7999 24.4431 24.7986L24.1766 24.0889Z" fill="#FCFCFC"/>
<path fill-rule="evenodd" clip-rule="evenodd" d="M29.1898 22.0455C29.1599 21.9519 29.1093 21.8294 29.0207 21.7053C28.9233 21.569 28.7164 21.3459 28.3658 21.265C27.9788 21.1757 27.6489 21.3111 27.4455 21.4684C27.263 21.6096 27.1641 21.7755 27.1142 21.8754L27.0965 21.9107L26.1232 24.284C26.0047 24.5469 25.9683 24.8449 25.9683 25.0406V41.6371C25.9683 42.1985 26.4512 42.9786 27.3489 42.829L27.3801 42.8238L29.2596 42.3942C29.6519 42.3082 29.8873 42.0485 29.9977 41.8865C30.1257 41.6989 30.2234 41.4476 30.2234 41.1599V25.372C30.2234 25.147 30.172 24.8978 30.1296 24.7493L30.1213 24.7203L29.1898 22.0455ZM28.0892 25.3342V40.486L28.1025 40.483V25.3946C28.102 25.391 28.1013 25.3863 28.1003 25.3807C28.0985 25.3696 28.0963 25.3583 28.0941 25.3482L28.0892 25.3342Z" fill="#FCFCFC"/>
<path fill-rule="evenodd" clip-rule="evenodd" d="M19.7994 22.3823C20.3701 22.4774 20.609 22.9404 20.6597 23.0419L20.6757 23.0739L22.0228 26.2934L22.0297 26.312C22.1022 26.5051 22.1768 26.8186 22.1768 27.082V42.9627C22.1768 43.5224 21.8095 44.088 21.1879 44.2434L21.1771 44.2461L18.4885 44.8583L18.4831 44.8595C18.1352 44.9368 17.7406 44.8696 17.4268 44.6104C17.1181 44.3554 16.9805 43.9915 16.9805 43.652V26.7771C16.9805 26.5005 17.0551 26.1687 17.1819 25.912L18.6006 22.9942L18.6181 22.9635C18.7052 22.8112 19.0825 22.2628 19.7994 22.3823ZM19.553 25.8856L19.1014 26.8145V42.5435L20.0559 42.3261V27.1134C20.055 27.1083 20.0539 27.1023 20.0525 27.0957C20.0497 27.0818 20.0465 27.0686 20.0437 27.0583L19.553 25.8856Z" fill="#FCFCFC"/>
<path fill-rule="evenodd" clip-rule="evenodd" d="M15.0113 25.5455L16.645 28.9855L16.6504 28.9977C16.7659 29.2575 16.8346 29.6036 16.8346 29.8658V44.1823C16.8346 44.7499 16.4415 45.3538 15.7755 45.4967L12.4476 46.2554L12.4245 46.2596C12.1238 46.3143 11.762 46.2744 11.4455 46.0561C11.1095 45.8244 10.9092 45.4445 10.9092 45.0307V29.7333C10.9092 29.4743 10.9717 29.0925 11.1426 28.7786L12.9015 25.4724C13.0682 25.1574 13.4699 24.7692 14.0763 24.8451C14.6088 24.9116 14.8944 25.2947 15.0113 25.5455ZM13.8904 28.1294L13.0305 29.7458C13.0304 29.7466 13.0302 29.7473 13.0301 29.7481V43.9472L14.7136 43.5634V29.8872L14.7127 29.8808C14.7118 29.8755 14.7107 29.8696 14.7094 29.8634C14.7081 29.8572 14.7068 29.8514 14.7055 29.8463L14.7051 29.8448L13.8904 28.1294Z" fill="#FCFCFC"/>
</g>
<mask id="mask1_6344_39890" style="mask-type:luminance" maskUnits="userSpaceOnUse" x="2" y="13" width="25" height="38">
<path d="M2.37256 13.097L26.1405 19.6985V44.1425L2.37256 50.7439V13.097Z" fill="white"/>
</mask>
<g mask="url(#mask1_6344_39890)">
<path fill-rule="evenodd" clip-rule="evenodd" d="M11.8587 41.5462L9.06172 41.9572L8.75342 39.8588L11.5504 39.4478L11.8587 41.5462Z" fill="#FCFCFC"/>
</g>
<mask id="mask2_6344_39890" style="mask-type:luminance" maskUnits="userSpaceOnUse" x="2" y="13" width="25" height="38">
<path d="M2.37256 13.097L26.1405 19.6985V44.1425L2.37256 50.7439V13.097Z" fill="white"/>
</mask>
<g mask="url(#mask2_6344_39890)">
<path fill-rule="evenodd" clip-rule="evenodd" d="M18.1942 40.5654L15.9274 40.8968L15.6206 38.7982L17.8874 38.4668L18.1942 40.5654Z" fill="#FCFCFC"/>
</g>
<mask id="mask3_6344_39890" style="mask-type:luminance" maskUnits="userSpaceOnUse" x="2" y="13" width="25" height="38">
<path d="M2.37256 13.097L26.1405 19.6985V44.1425L2.37256 50.7439V13.097Z" fill="white"/>
</mask>
<g mask="url(#mask3_6344_39890)">
<path fill-rule="evenodd" clip-rule="evenodd" d="M23.1113 39.8498L21.3747 40.1016L21.0703 38.0027L22.8068 37.7508L23.1113 39.8498Z" fill="#FCFCFC"/>
</g>
<mask id="mask4_6344_39890" style="mask-type:luminance" maskUnits="userSpaceOnUse" x="2" y="13" width="25" height="38">
<path d="M2.37256 13.097L26.1405 19.6985V44.1425L2.37256 50.7439V13.097Z" fill="white"/>
</mask>
<g mask="url(#mask4_6344_39890)">
<mask id="mask5_6344_39890" style="mask-type:luminance" maskUnits="userSpaceOnUse" x="8" y="24" width="29" height="20">
<path d="M36.1623 33.5112C36.1623 37.2626 32.3976 41.2394 26.4192 42.7241C18.2005 44.7522 8.8418 41.5708 8.8418 34.797C8.8418 28.0232 18.1873 23.9669 26.4192 25.2262C32.3844 26.1276 36.1623 29.7465 36.1623 33.5112Z" fill="white"/>
</mask>
<g mask="url(#mask5_6344_39890)">
<path fill-rule="evenodd" clip-rule="evenodd" d="M24.36 18.585L26.3365 23.8559L28.2116 19.2596L30.2232 25.0881V25.4732L31.4446 22.1405L33.2261 27.5648L34.2265 24.5638L36.0028 30.3292V31.8368C39.2648 36.3533 41.0401 43.2732 41.0401 51.2477C41.0401 63.9741 36.1108 81.1201 27.2803 93.4235C23.6042 98.5384 19.4689 102.596 15.3042 105.269C11.1504 107.935 6.88414 109.275 2.98937 108.792C-0.960344 108.303 -4.34834 105.962 -6.71012 101.653C-9.05065 97.3833 -10.3931 91.1789 -10.3931 82.8367C-10.3931 61.9632 -0.391595 42.0382 10.9358 32.2274V29.312L14.0044 23.4857L16.3461 28.388C16.5625 28.2689 16.7785 28.1539 16.9938 28.0431V26.3856L19.7215 20.8165L21.9117 26.0575V24.0311L24.36 18.585ZM20.0691 27.1489L19.5684 25.9508L19.1147 26.8771V29.3653L18.5148 29.6545C17.8048 29.9969 17.0807 30.3906 16.3556 30.8358L14.7402 31.8277V29.947L13.9119 28.2128L13.0567 29.8364V33.2085L12.6803 33.5262C1.70599 42.7902 -8.27211 62.3173 -8.27211 82.8367C-8.27211 90.9914 -6.9534 96.7969 -4.85027 100.634C-2.7684 104.431 0.0697584 106.293 3.2501 106.687C6.48537 107.088 10.2531 105.991 14.1585 103.484C18.0529 100.984 22.0026 97.1326 25.5576 92.1862C34.1187 80.2578 38.9191 63.5484 38.9191 51.2477C38.9191 43.3549 37.1134 36.827 34.0955 32.824L33.8819 32.5406V32.3047L33.8661 32.3519L32.6558 31.1865C32.3155 30.8587 31.9769 30.5577 31.6369 30.2998L31.2174 29.9815V29.885L29.9754 29.244C29.5956 29.048 29.2036 28.8706 28.8098 28.7316L28.1023 28.4819V27.1749H25.9813V27.0025H24.4436V24.8485L24.1826 24.1525L24.0327 24.486V28.0597L23.1317 28.1968C22.5669 28.2827 21.9983 28.406 21.4123 28.5681L20.0691 28.9396V27.1489Z" fill="#FCFCFC"/>
</g>
</g>
<mask id="mask6_6344_39890" style="mask-type:luminance" maskUnits="userSpaceOnUse" x="38" y="13" width="24" height="38">
<path d="M61.8789 13.256L38.111 19.8575V44.3015L61.8789 50.903V13.256Z" fill="white"/>
</mask>
<g mask="url(#mask6_6344_39890)">
<path fill-rule="evenodd" clip-rule="evenodd" d="M38.9215 21.288L37.8272 24.2018C37.7266 24.4514 37.6874 24.7443 37.6874 24.9478V42.1408C37.6874 42.4479 37.797 42.7136 37.937 42.9079C38.0584 43.0765 38.3019 43.3244 38.6875 43.4038L40.9278 43.9136L40.9707 43.9197C41.313 43.9686 41.6735 43.8717 41.9488 43.6254C42.2254 43.3779 42.3535 43.0372 42.3535 42.7108V24.5502C42.3535 24.2674 42.2699 23.9651 42.1882 23.7745L42.1843 23.7654L41.027 21.198C40.9466 21.0237 40.5786 20.3827 39.7919 20.5302C39.4602 20.5924 39.2477 20.7846 39.1384 20.9139C39.0252 21.0478 38.9598 21.1858 38.9215 21.288ZM40.0754 24.248L40.2326 24.5967V41.5802L39.8084 41.4837V24.9613C39.8085 24.9602 39.8087 24.9589 39.8089 24.9576L40.0754 24.248Z" fill="#FCFCFC"/>
<path fill-rule="evenodd" clip-rule="evenodd" d="M35.0617 22.2045C35.0915 22.111 35.1421 21.9884 35.2307 21.8644C35.3281 21.728 35.535 21.505 35.8857 21.424C36.2727 21.3347 36.6026 21.4701 36.8059 21.6275C36.9884 21.7686 37.0873 21.9346 37.1373 22.0345L37.1549 22.0698L38.1283 24.4431C38.2467 24.7059 38.2832 25.0039 38.2832 25.1997V41.7962C38.2832 42.3575 37.8002 43.1376 36.9026 42.988L36.8714 42.9828L34.9918 42.5532C34.5995 42.4673 34.3642 42.2075 34.2537 42.0456C34.1258 41.8579 34.028 41.6067 34.028 41.3189V25.5311C34.028 25.3061 34.0794 25.0569 34.1219 24.9084L34.1301 24.8794L35.0617 22.2045ZM36.1622 25.4933V40.6451L36.149 40.642V25.5537C36.1495 25.55 36.1502 25.5453 36.1511 25.5397C36.153 25.5287 36.1552 25.5174 36.1574 25.5072L36.1622 25.4933Z" fill="#FCFCFC"/>
<path fill-rule="evenodd" clip-rule="evenodd" d="M44.4521 22.5414C43.8814 22.6365 43.6425 23.0995 43.5917 23.201L43.5758 23.2329L42.2287 26.4524L42.2217 26.4711C42.1493 26.6642 42.0747 26.9777 42.0747 27.2411V43.1217C42.0747 43.6814 42.442 44.247 43.0635 44.4024L43.0744 44.4051L45.763 45.0174L45.7684 45.0186C46.1162 45.0959 46.5109 45.0287 46.8246 44.7695C47.1334 44.5144 47.271 44.1506 47.271 43.811V26.9362C47.271 26.6596 47.1964 26.3277 47.0696 26.071L45.6509 23.1532L45.6333 23.1226C45.5463 22.9702 45.169 22.4219 44.4521 22.5414ZM44.6984 26.0447L45.15 26.9735V42.7025L44.1956 42.4852V27.2725C44.1965 27.2673 44.1976 27.2614 44.199 27.2548C44.2018 27.2408 44.205 27.2277 44.2078 27.2174L44.6984 26.0447Z" fill="#FCFCFC"/>
<path fill-rule="evenodd" clip-rule="evenodd" d="M49.2402 25.7045L47.6065 29.1445L47.6011 29.1567C47.4856 29.4165 47.4169 29.7626 47.4169 30.0248V44.3413C47.4169 44.9089 47.8099 45.5128 48.476 45.6557L51.8039 46.4144L51.827 46.4186C52.1276 46.4733 52.4894 46.4334 52.806 46.2151C53.142 45.9834 53.3423 45.6035 53.3423 45.1897V29.8923C53.3423 29.6333 53.2798 29.2515 53.1088 28.9376L51.3499 25.6314C51.1833 25.3164 50.7816 24.9282 50.1751 25.0041C49.6427 25.0706 49.3571 25.4537 49.2402 25.7045ZM50.361 28.2884L51.221 29.9048C51.2211 29.9056 51.2212 29.9063 51.2213 29.9071V44.1062L49.5378 43.7224V30.0462L49.5388 30.0398C49.5397 30.0345 49.5408 30.0286 49.542 30.0224C49.5433 30.0162 49.5447 30.0104 49.546 30.0053L49.5464 30.0038L50.361 28.2884Z" fill="#FCFCFC"/>
</g>
<mask id="mask7_6344_39890" style="mask-type:luminance" maskUnits="userSpaceOnUse" x="38" y="13" width="24" height="38">
<path d="M61.8789 13.256L38.111 19.8575V44.3015L61.8789 50.903V13.256Z" fill="white"/>
</mask>
<g mask="url(#mask7_6344_39890)">
<path fill-rule="evenodd" clip-rule="evenodd" d="M52.3927 41.7054L55.1897 42.1163L55.498 40.0179L52.701 39.6069L52.3927 41.7054Z" fill="#FCFCFC"/>
</g>
<mask id="mask8_6344_39890" style="mask-type:luminance" maskUnits="userSpaceOnUse" x="38" y="13" width="24" height="38">
<path d="M61.8789 13.256L38.111 19.8575V44.3015L61.8789 50.903V13.256Z" fill="white"/>
</mask>
<g mask="url(#mask8_6344_39890)">
<path fill-rule="evenodd" clip-rule="evenodd" d="M46.0573 40.7245L48.324 41.0559L48.6309 38.9573L46.3641 38.6259L46.0573 40.7245Z" fill="#FCFCFC"/>
</g>
<mask id="mask9_6344_39890" style="mask-type:luminance" maskUnits="userSpaceOnUse" x="38" y="13" width="24" height="38">
<path d="M61.8789 13.256L38.111 19.8575V44.3015L61.8789 50.903V13.256Z" fill="white"/>
</mask>
<g mask="url(#mask9_6344_39890)">
<path fill-rule="evenodd" clip-rule="evenodd" d="M41.1402 40.0088L42.8767 40.2607L43.1812 38.1617L41.4446 37.9099L41.1402 40.0088Z" fill="#FCFCFC"/>
</g>
<mask id="mask10_6344_39890" style="mask-type:luminance" maskUnits="userSpaceOnUse" x="38" y="13" width="24" height="38">
<path d="M61.8789 13.256L38.111 19.8575V44.3015L61.8789 50.903V13.256Z" fill="white"/>
</mask>
<g mask="url(#mask10_6344_39890)">
<mask id="mask11_6344_39890" style="mask-type:luminance" maskUnits="userSpaceOnUse" x="28" y="25" width="28" height="19">
<path d="M28.0896 33.6702C28.0896 37.4217 31.8543 41.3985 37.8327 42.8831C46.0514 44.9113 55.4102 41.7299 55.4102 34.9561C55.4102 28.1823 46.0647 24.1259 37.8327 25.3853C31.8676 26.2867 28.0896 29.9055 28.0896 33.6702Z" fill="white"/>
</mask>
<g mask="url(#mask11_6344_39890)">
<path fill-rule="evenodd" clip-rule="evenodd" d="M39.8915 18.7441L37.9149 24.0149L36.0399 19.4187L34.0283 25.2472V25.6323L32.8069 22.2996L31.0253 27.7239L30.025 24.7229L28.2487 30.4882V31.9959C24.9867 36.5124 23.2114 43.4323 23.2114 51.4067C23.2114 64.1332 28.1407 81.2791 36.9712 93.5825C40.6473 98.6974 44.7825 102.755 48.9473 105.428C53.1011 108.094 57.3673 109.434 61.2621 108.951C65.2118 108.462 68.5998 106.121 70.9616 101.812C73.3021 97.5424 74.6445 91.338 74.6445 82.9957C74.6445 62.1223 64.6431 42.1973 53.3157 32.3864V29.471L50.247 23.6448L47.9054 28.5471C47.689 28.4279 47.473 28.3129 47.2577 28.2021V26.5447L44.53 20.9756L42.3397 26.2165V24.1902L39.8915 18.7441ZM44.1823 27.308L44.683 26.1099L45.1368 27.0362V29.5244L45.7367 29.8136C46.4467 30.1559 47.1708 30.5497 47.8958 30.9949L49.5112 31.9868V30.1061L50.3396 28.3719L51.1947 29.9954V33.3675L51.5711 33.6853C62.5455 42.9493 72.5236 62.4764 72.5236 82.9957C72.5236 91.1505 71.2049 96.956 69.1017 100.793C67.0199 104.591 64.1817 106.452 61.0014 106.846C57.7661 107.247 53.9984 106.15 50.0929 103.643C46.1985 101.144 42.2489 97.2917 38.6939 92.3453C30.1327 80.4168 25.3323 63.7074 25.3323 51.4067C25.3323 43.5139 27.1381 36.986 30.1559 32.9831L30.3696 32.6996V32.4637L30.3854 32.511L31.5957 31.3455C31.936 31.0178 32.2745 30.7167 32.6145 30.4588L33.0341 30.1405V30.0441L34.276 29.403C34.6558 29.207 35.0479 29.0297 35.4417 28.8907L36.1492 28.641V27.3339H38.2702V27.1616H39.8079V25.0076L40.0689 24.3115L40.2188 24.645V28.2187L41.1197 28.3558C41.6845 28.4418 42.2531 28.5651 42.8391 28.7272L44.1823 29.0987V27.308Z" fill="#FCFCFC"/>
</g>
</g>
</svg>
