<svg width="64" height="64" viewBox="0 0 64 64" fill="none" xmlns="http://www.w3.org/2000/svg">
<path fill-rule="evenodd" clip-rule="evenodd" d="M5.8877 19.275V40.3125H9.0752V19.275H5.8877ZM3.8877 18.525C3.8877 17.8352 4.44791 17.275 5.1377 17.275H9.8252C10.515 17.275 11.0752 17.8352 11.0752 18.525V41.0625C11.0752 41.7523 10.515 42.3125 9.8252 42.3125H5.1377C4.44791 42.3125 3.8877 41.7523 3.8877 41.0625V18.525Z" fill="#FCFCFC"/>
<path fill-rule="evenodd" clip-rule="evenodd" d="M2.0625 42.7375C2.0625 41.3977 3.14772 40.3125 4.4875 40.3125H10.2375C11.5705 40.3125 12.65 41.4035 12.65 42.7375V45.3625H2.0625V42.7375ZM4.4875 42.3125C4.25228 42.3125 4.0625 42.5023 4.0625 42.7375V43.3625H10.65V42.7375C10.65 42.4965 10.4545 42.3125 10.2375 42.3125H4.4875Z" fill="#FCFCFC"/>
<path fill-rule="evenodd" clip-rule="evenodd" d="M55.6377 19.4375V40.475H58.8252V19.4375H55.6377ZM53.6377 18.6875C53.6377 17.9977 54.1979 17.4375 54.8877 17.4375H59.5752C60.265 17.4375 60.8252 17.9977 60.8252 18.6875V41.225C60.8252 41.9148 60.265 42.475 59.5752 42.475H54.8877C54.1979 42.475 53.6377 41.9148 53.6377 41.225V18.6875Z" fill="#FCFCFC"/>
<path fill-rule="evenodd" clip-rule="evenodd" d="M51.8252 42.9C51.8252 41.5602 52.9104 40.475 54.2502 40.475H59.9877C61.3236 40.475 62.3916 41.5655 62.4126 42.8841L62.4127 42.892V45.525H51.8252V42.9ZM54.2502 42.475C54.015 42.475 53.8252 42.6648 53.8252 42.9V43.525H60.4127V42.9101C60.4056 42.6567 60.2002 42.475 59.9877 42.475H54.2502Z" fill="#FCFCFC"/>
<mask id="mask0_6311_1834" style="mask-type:luminance" maskUnits="userSpaceOnUse" x="4" y="12" width="23" height="37">
<path d="M4.2998 12.85L26.7123 19.075V42.125L4.2998 48.35V12.85Z" fill="white"/>
</mask>
<g mask="url(#mask0_6311_1834)">
<path fill-rule="evenodd" clip-rule="evenodd" d="M25.9482 20.4238L26.9801 23.1714C27.0749 23.4068 27.1119 23.683 27.1119 23.875V40.0875C27.1119 40.377 27.0085 40.6275 26.8766 40.8108C26.7621 40.9698 26.5325 41.2035 26.1689 41.2784L24.0564 41.7591L24.0158 41.7649C23.6931 41.811 23.3531 41.7196 23.0936 41.4874C22.8327 41.254 22.7119 40.9327 22.7119 40.625V23.5C22.7119 23.2333 22.7908 22.9482 22.8678 22.7685L22.8714 22.76L23.9628 20.339C24.0386 20.1746 24.3856 19.5702 25.1274 19.7093C25.4402 19.7679 25.6406 19.9492 25.7437 20.0711C25.8504 20.1974 25.9121 20.3275 25.9482 20.4238ZM24.8601 23.215L24.7119 23.5438V39.5588L25.1119 39.4678V23.8877C25.1118 23.8866 25.1116 23.8854 25.1114 23.8842L24.8601 23.215Z" fill="#FCFCFC"/>
<path fill-rule="evenodd" clip-rule="evenodd" d="M29.5876 21.2881C29.5595 21.1999 29.5118 21.0843 29.4282 20.9673C29.3364 20.8388 29.1413 20.6284 28.8106 20.5521C28.4457 20.4679 28.1346 20.5956 27.9428 20.744C27.7707 20.8771 27.6775 21.0335 27.6304 21.1277L27.6137 21.161L26.6959 23.399C26.5842 23.6469 26.5498 23.9279 26.5498 24.1124V39.7624C26.5498 40.2918 27.0052 41.0274 27.8517 40.8863L27.8811 40.8814L29.6535 40.4763C30.0234 40.3953 30.2454 40.1504 30.3495 39.9977C30.4701 39.8207 30.5623 39.5838 30.5623 39.3124V24.4249C30.5623 24.2128 30.5139 23.9778 30.4738 23.8377L30.466 23.8104L29.5876 21.2881ZM28.5498 24.3893V38.677L28.5623 38.6742V24.4462C28.5618 24.4428 28.5612 24.4384 28.5603 24.4331C28.5586 24.4227 28.5565 24.412 28.5544 24.4025L28.5498 24.3893Z" fill="#FCFCFC"/>
<path fill-rule="evenodd" clip-rule="evenodd" d="M20.7329 21.6058C21.271 21.6955 21.4963 22.132 21.5441 22.2278L21.5592 22.2579L22.8294 25.2938L22.836 25.3114C22.9043 25.4935 22.9747 25.7891 22.9747 26.0375V41.0125C22.9747 41.5403 22.6283 42.0736 22.0422 42.2201L22.032 42.2227L19.4967 42.8L19.4916 42.8012C19.1636 42.8741 18.7915 42.8107 18.4956 42.5662C18.2045 42.3257 18.0747 41.9827 18.0747 41.6625V25.75C18.0747 25.4891 18.1451 25.1762 18.2646 24.9341L19.6024 22.1827L19.619 22.1538C19.7011 22.0102 20.0569 21.4931 20.7329 21.6058ZM20.5006 24.9093L20.0747 25.7852V40.6172L20.9747 40.4122V26.0671C20.9739 26.0622 20.9728 26.0566 20.9716 26.0504C20.9689 26.0372 20.9659 26.0248 20.9632 26.0151L20.5006 24.9093Z" fill="#FCFCFC"/>
<path fill-rule="evenodd" clip-rule="evenodd" d="M16.2178 24.5885L17.7583 27.8323L17.7634 27.8438C17.8723 28.0888 17.9371 28.4152 17.9371 28.6625V42.1625C17.9371 42.6977 17.5665 43.2671 16.9384 43.4019L13.8003 44.1174L13.7785 44.1213C13.495 44.1729 13.1538 44.1353 12.8553 43.9294C12.5385 43.7109 12.3496 43.3527 12.3496 42.9625V28.5375C12.3496 28.2933 12.4085 27.9332 12.5697 27.6372L14.2283 24.5195C14.3855 24.2225 14.7643 23.8565 15.3362 23.928C15.8382 23.9908 16.1076 24.352 16.2178 24.5885ZM15.1608 27.025L14.35 28.5492C14.3498 28.55 14.3497 28.5507 14.3496 28.5514V41.9408L15.9371 41.5789V28.6826L15.9362 28.6766C15.9354 28.6716 15.9343 28.666 15.9331 28.6602C15.9319 28.6544 15.9307 28.6489 15.9294 28.644L15.9291 28.6427L15.1608 27.025Z" fill="#FCFCFC"/>
</g>
<mask id="mask1_6311_1834" style="mask-type:luminance" maskUnits="userSpaceOnUse" x="4" y="12" width="23" height="37">
<path d="M4.2998 12.85L26.7123 19.075V42.125L4.2998 48.35V12.85Z" fill="white"/>
</mask>
<g mask="url(#mask1_6311_1834)">
<path fill-rule="evenodd" clip-rule="evenodd" d="M13.2451 39.6769L10.6076 40.0644L10.3169 38.0856L12.9544 37.6981L13.2451 39.6769Z" fill="#FCFCFC"/>
</g>
<mask id="mask2_6311_1834" style="mask-type:luminance" maskUnits="userSpaceOnUse" x="4" y="12" width="23" height="37">
<path d="M4.2998 12.85L26.7123 19.075V42.125L4.2998 48.35V12.85Z" fill="white"/>
</mask>
<g mask="url(#mask2_6311_1834)">
<path fill-rule="evenodd" clip-rule="evenodd" d="M19.2193 38.752L17.0818 39.0645L16.7925 37.0855L18.93 36.773L19.2193 38.752Z" fill="#FCFCFC"/>
</g>
<mask id="mask3_6311_1834" style="mask-type:luminance" maskUnits="userSpaceOnUse" x="4" y="12" width="23" height="37">
<path d="M4.2998 12.85L26.7123 19.075V42.125L4.2998 48.35V12.85Z" fill="white"/>
</mask>
<g mask="url(#mask3_6311_1834)">
<path fill-rule="evenodd" clip-rule="evenodd" d="M23.8557 38.0771L22.2182 38.3146L21.9312 36.3353L23.5687 36.0978L23.8557 38.0771Z" fill="#FCFCFC"/>
</g>
<mask id="mask4_6311_1834" style="mask-type:luminance" maskUnits="userSpaceOnUse" x="4" y="12" width="23" height="37">
<path d="M4.2998 12.85L26.7123 19.075V42.125L4.2998 48.35V12.85Z" fill="white"/>
</mask>
<g mask="url(#mask4_6311_1834)">
<mask id="mask5_6311_1834" style="mask-type:luminance" maskUnits="userSpaceOnUse" x="10" y="24" width="27" height="18">
<path d="M36.1624 32.1C36.1624 35.6375 32.6124 39.3875 26.9749 40.7875C19.2249 42.7 10.3999 39.7 10.3999 33.3125C10.3999 26.925 19.2124 23.1 26.9749 24.2875C32.5999 25.1375 36.1624 28.55 36.1624 32.1Z" fill="white"/>
</mask>
<g mask="url(#mask5_6311_1834)">
<path fill-rule="evenodd" clip-rule="evenodd" d="M25.0333 18.025L26.8972 22.9952L28.6653 18.6611L30.5622 24.1572V24.5203L31.714 21.3777L33.3939 26.4927L34.3372 23.6628L36.0122 29.0994V30.521C39.0882 34.78 40.7622 41.3053 40.7622 48.8249C40.7622 60.8256 36.114 76.9937 27.7871 88.5955C24.3206 93.4187 20.4212 97.2448 16.494 99.7655C12.5771 102.28 8.55413 103.543 4.88147 103.088C1.157 102.626 -2.03779 100.419 -4.26488 96.3558C-6.47193 92.3296 -7.73779 86.479 -7.73779 78.6124C-7.73779 58.9294 1.69331 40.1407 12.3747 30.8893V28.1402L15.2683 22.6462L17.4765 27.2689C17.6805 27.1566 17.8842 27.0481 18.0872 26.9436V25.3807L20.6594 20.1292L22.7247 25.0713V23.1605L25.0333 18.025ZM20.9872 26.1005L20.515 24.9707L20.0872 25.8442V28.1905L19.5215 28.4632C18.852 28.786 18.1692 29.1573 17.4855 29.5771L15.9622 30.5124V28.739L15.1811 27.1037L14.3747 28.6347V31.8144L14.0198 32.1141C3.67128 40.8498 -5.73779 59.2633 -5.73779 78.6124C-5.73779 86.3022 -4.49428 91.7766 -2.51109 95.3945C-0.547951 98.9758 2.12836 100.731 5.12732 101.103C8.1781 101.481 11.7309 100.446 15.4137 98.0824C19.086 95.7253 22.8104 92.0931 26.1627 87.4288C34.2356 76.1806 38.7622 60.4241 38.7622 48.8249C38.7622 41.3822 37.0594 35.2266 34.2137 31.4519L34.0122 31.1847V30.9622L33.9974 31.0068L32.8561 29.9078C32.5351 29.5987 32.2159 29.3149 31.8953 29.0716L31.4997 28.7715V28.6805L30.3286 28.0761C29.9704 27.8912 29.6007 27.724 29.2294 27.5929L28.5622 27.3575V26.1249H26.5622V25.9624H25.1122V23.9313L24.8661 23.2749L24.7247 23.5894V26.9593L23.8752 27.0886C23.3426 27.1696 22.8064 27.2859 22.2538 27.4388L20.9872 27.7891V26.1005Z" fill="#FCFCFC"/>
</g>
</g>
<mask id="mask6_6311_1834" style="mask-type:luminance" maskUnits="userSpaceOnUse" x="38" y="13" width="23" height="36">
<path d="M60.4126 13L38.0001 19.225V42.275L60.4126 48.5V13Z" fill="white"/>
</mask>
<g mask="url(#mask6_6311_1834)">
<path fill-rule="evenodd" clip-rule="evenodd" d="M38.7642 20.5739L37.7323 23.3214C37.6375 23.5568 37.6005 23.8331 37.6005 24.025V40.2375C37.6005 40.5271 37.7039 40.7776 37.8358 40.9609C37.9503 41.1198 38.18 41.3536 38.5435 41.4284L40.656 41.9091L40.6966 41.9149C41.0193 41.961 41.3593 41.8697 41.6188 41.6374C41.8797 41.404 42.0005 41.0827 42.0005 40.775V23.65C42.0005 23.3834 41.9216 23.0983 41.8446 22.9186L41.841 22.91L40.7496 20.489C40.6738 20.3246 40.3268 19.7202 39.585 19.8593C39.2722 19.9179 39.0718 20.0992 38.9687 20.2211C38.862 20.3474 38.8003 20.4775 38.7642 20.5739ZM39.8523 23.3651L40.0005 23.6938V39.7089L39.6005 39.6178V24.0377C39.6006 24.0366 39.6008 24.0355 39.601 24.0342L39.8523 23.3651Z" fill="#FCFCFC"/>
<path fill-rule="evenodd" clip-rule="evenodd" d="M35.1248 21.4381C35.1529 21.3499 35.2006 21.2344 35.2842 21.1174C35.376 20.9888 35.5712 20.7784 35.9018 20.7021C36.2667 20.6179 36.5778 20.7456 36.7696 20.894C36.9417 21.0271 37.0349 21.1835 37.082 21.2778L37.0987 21.3111L38.0165 23.549C38.1282 23.7969 38.1626 24.0779 38.1626 24.2625V39.9125C38.1626 40.4418 37.7072 41.1774 36.8607 41.0364L36.8313 41.0315L35.0589 40.6264C34.689 40.5453 34.467 40.3004 34.3629 40.1477C34.2423 39.9707 34.1501 39.7338 34.1501 39.4625V24.575C34.1501 24.3628 34.1986 24.1278 34.2386 23.9877L34.2464 23.9604L35.1248 21.4381ZM36.1626 24.5393V38.827L36.1501 38.8242V24.5963C36.1506 24.5928 36.1512 24.5884 36.1521 24.5831C36.1538 24.5727 36.1559 24.562 36.158 24.5525L36.1626 24.5393Z" fill="#FCFCFC"/>
<path fill-rule="evenodd" clip-rule="evenodd" d="M43.9796 21.7558C43.4414 21.8455 43.2161 22.2821 43.1683 22.3778L43.1532 22.4079L41.883 25.4438L41.8764 25.4614C41.8081 25.6435 41.7377 25.9391 41.7377 26.1875V41.1625C41.7377 41.6903 42.0841 42.2236 42.6702 42.3701L42.6804 42.3727L45.2157 42.95L45.2208 42.9512C45.5488 43.0241 45.9209 42.9607 46.2168 42.7163C46.5079 42.4758 46.6377 42.1327 46.6377 41.8125V25.9C46.6377 25.6391 46.5673 25.3262 46.4478 25.0842L45.11 22.3328L45.0934 22.3039C45.0113 22.1602 44.6555 21.6431 43.9796 21.7558ZM44.2118 25.0593L44.6377 25.9352V40.7672L43.7377 40.5623V26.2171C43.7385 26.2123 43.7396 26.2066 43.7408 26.2004C43.7435 26.1872 43.7465 26.1748 43.7492 26.1651L44.2118 25.0593Z" fill="#FCFCFC"/>
<path fill-rule="evenodd" clip-rule="evenodd" d="M48.4946 24.7385L46.9541 27.9824L46.949 27.9939C46.8401 28.2388 46.7753 28.5652 46.7753 28.8125V42.3125C46.7753 42.8478 47.1459 43.4172 47.774 43.5519L50.9121 44.2674L50.9339 44.2714C51.2174 44.3229 51.5586 44.2853 51.8571 44.0795C52.1739 43.8609 52.3628 43.5027 52.3628 43.1125V28.6875C52.3628 28.4433 52.3039 28.0833 52.1427 27.7872L50.4841 24.6696C50.3269 24.3725 49.9481 24.0065 49.3762 24.078C48.8742 24.1408 48.6048 24.502 48.4946 24.7385ZM49.5516 27.175L50.3624 28.6993C50.3626 28.7 50.3627 28.7008 50.3628 28.7014V42.0908L48.7753 41.7289V28.8327L48.7762 28.8266C48.777 28.8216 48.7781 28.816 48.7793 28.8102C48.7805 28.8044 48.7818 28.7989 48.783 28.794L48.7833 28.7927L49.5516 27.175Z" fill="#FCFCFC"/>
</g>
<mask id="mask7_6311_1834" style="mask-type:luminance" maskUnits="userSpaceOnUse" x="38" y="13" width="23" height="36">
<path d="M60.4126 13L38.0001 19.225V42.275L60.4126 48.5V13Z" fill="white"/>
</mask>
<g mask="url(#mask7_6311_1834)">
<path fill-rule="evenodd" clip-rule="evenodd" d="M51.4673 39.8269L54.1048 40.2144L54.3955 38.2356L51.758 37.8481L51.4673 39.8269Z" fill="#FCFCFC"/>
</g>
<mask id="mask8_6311_1834" style="mask-type:luminance" maskUnits="userSpaceOnUse" x="38" y="13" width="23" height="36">
<path d="M60.4126 13L38.0001 19.225V42.275L60.4126 48.5V13Z" fill="white"/>
</mask>
<g mask="url(#mask8_6311_1834)">
<path fill-rule="evenodd" clip-rule="evenodd" d="M45.4931 38.902L47.6306 39.2145L47.9199 37.2355L45.7824 36.923L45.4931 38.902Z" fill="#FCFCFC"/>
</g>
<mask id="mask9_6311_1834" style="mask-type:luminance" maskUnits="userSpaceOnUse" x="38" y="13" width="23" height="36">
<path d="M60.4126 13L38.0001 19.225V42.275L60.4126 48.5V13Z" fill="white"/>
</mask>
<g mask="url(#mask9_6311_1834)">
<path fill-rule="evenodd" clip-rule="evenodd" d="M40.8567 38.2272L42.4942 38.4647L42.7812 36.4854L41.1438 36.2479L40.8567 38.2272Z" fill="#FCFCFC"/>
</g>
<mask id="mask10_6311_1834" style="mask-type:luminance" maskUnits="userSpaceOnUse" x="38" y="13" width="23" height="36">
<path d="M60.4126 13L38.0001 19.225V42.275L60.4126 48.5V13Z" fill="white"/>
</mask>
<g mask="url(#mask10_6311_1834)">
<mask id="mask11_6311_1834" style="mask-type:luminance" maskUnits="userSpaceOnUse" x="28" y="24" width="27" height="18">
<path d="M28.55 32.25C28.55 35.7875 32.1 39.5375 37.7375 40.9375C45.4875 42.85 54.3125 39.85 54.3125 33.4625C54.3125 27.075 45.5 23.25 37.7375 24.4375C32.1125 25.2875 28.55 28.7 28.55 32.25Z" fill="white"/>
</mask>
<g mask="url(#mask11_6311_1834)">
<path fill-rule="evenodd" clip-rule="evenodd" d="M39.6791 18.175L37.8152 23.1452L36.0471 18.8111L34.1502 24.3073V24.6703L32.9984 21.5277L31.3185 26.6427L30.3752 23.8128L28.7002 29.2494V30.6711C25.6242 34.93 23.9502 41.4553 23.9502 48.975C23.9502 60.9756 28.5984 77.1438 36.9253 88.7455C40.3918 93.5687 44.2912 97.3949 48.2184 99.9156C52.1353 102.43 56.1583 103.693 59.8309 103.238C63.5554 102.776 66.7502 100.569 68.9773 96.5058C71.1843 92.4796 72.4502 86.629 72.4502 78.7625C72.4502 59.0794 63.0191 40.2907 52.3377 31.0394V28.2902L49.4441 22.7962L47.236 27.419C47.0319 27.3066 46.8282 27.1982 46.6252 27.0936V25.5307L44.053 20.2792L41.9877 25.2213V23.3105L39.6791 18.175ZM43.7252 26.2505L44.1974 25.1207L44.6252 25.9942V28.3405L45.1909 28.6132C45.8604 28.936 46.5432 29.3073 47.2269 29.7271L48.7502 30.6625V28.889L49.5313 27.2537L50.3377 28.7847V31.9645L50.6926 32.2641C61.0411 40.9998 70.4502 59.4133 70.4502 78.7625C70.4502 86.4522 69.2067 91.9266 67.2235 95.5445C65.2604 99.1258 62.584 100.881 59.5851 101.253C56.5343 101.631 52.9815 100.596 49.2987 98.2324C45.6264 95.8754 41.902 92.2431 38.5497 87.5788C30.4768 76.3307 25.9502 60.5741 25.9502 48.975C25.9502 41.5322 27.653 35.3767 30.4987 31.602L30.7002 31.3347V31.1122L30.715 31.1568L31.8563 30.0578C32.1773 29.7488 32.4965 29.4649 32.8171 29.2217L33.2127 28.9215V28.8305L34.3838 28.2261C34.742 28.0412 35.1117 27.874 35.483 27.743L36.1502 27.5075V26.275H38.1502V26.1125H39.6002V24.0813L39.8463 23.4249L39.9877 23.7394V27.1093L40.8373 27.2386C41.3698 27.3196 41.906 27.4359 42.4586 27.5888L43.7252 27.9391V26.2505Z" fill="#FCFCFC"/>
</g>
</g>
</svg>
