<svg width="64" height="34" viewBox="0 0 64 34" fill="none" xmlns="http://www.w3.org/2000/svg">
<g clip-path="url(#clip0_6399_13734)">
<path fill-rule="evenodd" clip-rule="evenodd" d="M4.0565 5.91057V28.2204H7.43677V5.91057H4.0565ZM1.93555 5.11521C1.93555 4.38371 2.52964 3.78961 3.26114 3.78961H8.23213C8.96363 3.78961 9.55773 4.38371 9.55773 5.11521V29.0157C9.55773 29.7472 8.96363 30.3413 8.23213 30.3413H3.26114C2.52964 30.3413 1.93555 29.7472 1.93555 29.0157V5.11521Z" fill="#FCFCFC"/>
<path fill-rule="evenodd" clip-rule="evenodd" d="M0 30.792C0 29.3712 1.15085 28.2203 2.57166 28.2203H8.6694C10.083 28.2203 11.2278 29.3773 11.2278 30.792V33.5757H0V30.792ZM2.57166 30.3413C2.32222 30.3413 2.12095 30.5426 2.12095 30.792V31.4548H9.10685V30.792C9.10685 30.5365 8.89952 30.3413 8.6694 30.3413H2.57166Z" fill="#FCFCFC"/>
<path fill-rule="evenodd" clip-rule="evenodd" d="M56.8153 6.08287V28.3927H60.1956V6.08287H56.8153ZM54.6943 5.28751C54.6943 4.55601 55.2884 3.96191 56.0199 3.96191H60.9909C61.7224 3.96191 62.3165 4.55601 62.3165 5.28751V29.188C62.3165 29.9195 61.7224 30.5136 60.9909 30.5136H56.0199C55.2884 30.5136 54.6943 29.9195 54.6943 29.188V5.28751Z" fill="#FCFCFC"/>
<path fill-rule="evenodd" clip-rule="evenodd" d="M52.772 30.9643C52.772 29.5435 53.9228 28.3926 55.3436 28.3926H61.4281C62.8448 28.3926 63.9774 29.5491 63.9996 30.9475L63.9998 30.9559V33.7481H52.772V30.9643ZM55.3436 30.5136C55.0942 30.5136 54.8929 30.7149 54.8929 30.9643V31.6271H61.8788V30.975C61.8713 30.7063 61.6535 30.5136 61.4281 30.5136H55.3436Z" fill="#FCFCFC"/>
<mask id="mask0_6399_13734" style="mask-type:luminance" maskUnits="userSpaceOnUse" x="2" y="-1" width="25" height="38">
<path d="M2.37256 -0.903015L26.1405 5.69846V30.1425L2.37256 36.7439V-0.903015Z" fill="white"/>
</mask>
<g mask="url(#mask0_6399_13734)">
<path fill-rule="evenodd" clip-rule="evenodd" d="M25.3305 7.12894L26.4248 10.0427C26.5253 10.2923 26.5645 10.5852 26.5645 10.7888V27.9818C26.5645 28.2889 26.4549 28.5545 26.315 28.7489C26.1936 28.9175 25.95 29.1653 25.5645 29.2448L23.3242 29.7545L23.2812 29.7607C22.9389 29.8096 22.5784 29.7126 22.3032 29.4664C22.0265 29.2188 21.8984 28.8781 21.8984 28.5518V10.3911C21.8984 10.1084 21.982 9.80601 22.0637 9.61545L22.0676 9.60638L23.2249 7.03898C23.3054 6.86462 23.6733 6.22366 24.4601 6.37116C24.7918 6.43336 25.0043 6.62557 25.1136 6.75487C25.2267 6.88879 25.2921 7.02673 25.3305 7.12894ZM24.1766 10.0889L24.0194 10.4376V27.4212L24.4436 27.3246V10.8023C24.4434 10.8011 24.4433 10.7999 24.4431 10.7986L24.1766 10.0889Z" fill="#FCFCFC"/>
<path fill-rule="evenodd" clip-rule="evenodd" d="M29.1898 8.04548C29.1599 7.95192 29.1093 7.82939 29.0207 7.70531C28.9233 7.56899 28.7164 7.3459 28.3658 7.26498C27.9788 7.17568 27.6489 7.31108 27.4455 7.46842C27.263 7.60959 27.1641 7.77549 27.1142 7.87541L27.0965 7.91074L26.1232 10.284C26.0047 10.5469 25.9683 10.8449 25.9683 11.0406V27.6371C25.9683 28.1985 26.4512 28.9786 27.3489 28.829L27.3801 28.8238L29.2596 28.3942C29.6519 28.3082 29.8873 28.0485 29.9977 27.8865C30.1257 27.6989 30.2234 27.4476 30.2234 27.1599V11.372C30.2234 11.147 30.172 10.8978 30.1296 10.7493L30.1213 10.7203L29.1898 8.04548ZM28.0892 11.3342V26.486L28.1025 26.483V11.3946C28.102 11.391 28.1013 11.3863 28.1003 11.3807C28.0985 11.3696 28.0963 11.3583 28.0941 11.3482L28.0892 11.3342Z" fill="#FCFCFC"/>
<path fill-rule="evenodd" clip-rule="evenodd" d="M19.7994 8.38231C20.3701 8.47742 20.609 8.9404 20.6597 9.04192L20.6757 9.07388L22.0228 12.2934L22.0297 12.312C22.1022 12.5051 22.1768 12.8186 22.1768 13.082V28.9627C22.1768 29.5224 21.8095 30.088 21.1879 30.2434L21.1771 30.2461L18.4885 30.8583L18.4831 30.8595C18.1352 30.9368 17.7406 30.8696 17.4268 30.6104C17.1181 30.3554 16.9805 29.9915 16.9805 29.652V12.7771C16.9805 12.5005 17.0551 12.1687 17.1819 11.912L18.6006 8.99418L18.6181 8.96352C18.7052 8.81115 19.0825 8.26283 19.7994 8.38231ZM19.553 11.8856L19.1014 12.8145V28.5435L20.0559 28.3261V13.1134C20.055 13.1083 20.0539 13.1023 20.0525 13.0957C20.0497 13.0818 20.0465 13.0686 20.0437 13.0583L19.553 11.8856Z" fill="#FCFCFC"/>
<path fill-rule="evenodd" clip-rule="evenodd" d="M15.0113 11.5455L16.645 14.9855L16.6504 14.9977C16.7659 15.2575 16.8346 15.6036 16.8346 15.8658V30.1823C16.8346 30.7499 16.4415 31.3538 15.7755 31.4967L12.4476 32.2554L12.4245 32.2596C12.1238 32.3143 11.762 32.2744 11.4455 32.0561C11.1095 31.8244 10.9092 31.4445 10.9092 31.0307V15.7333C10.9092 15.4743 10.9717 15.0925 11.1426 14.7786L12.9015 11.4724C13.0682 11.1574 13.4699 10.7692 14.0763 10.8451C14.6088 10.9116 14.8944 11.2947 15.0113 11.5455ZM13.8904 14.1294L13.0305 15.7458C13.0304 15.7466 13.0302 15.7473 13.0301 15.7481V29.9472L14.7136 29.5634V15.8872L14.7127 15.8808C14.7118 15.8755 14.7107 15.8696 14.7094 15.8634C14.7081 15.8572 14.7068 15.8514 14.7055 15.8463L14.7051 15.8448L13.8904 14.1294Z" fill="#FCFCFC"/>
</g>
<mask id="mask1_6399_13734" style="mask-type:luminance" maskUnits="userSpaceOnUse" x="2" y="-1" width="25" height="38">
<path d="M2.37256 -0.903015L26.1405 5.69846V30.1425L2.37256 36.7439V-0.903015Z" fill="white"/>
</mask>
<g mask="url(#mask1_6399_13734)">
<path fill-rule="evenodd" clip-rule="evenodd" d="M11.8587 27.5462L9.06172 27.9572L8.75342 25.8588L11.5504 25.4478L11.8587 27.5462Z" fill="#FCFCFC"/>
</g>
<mask id="mask2_6399_13734" style="mask-type:luminance" maskUnits="userSpaceOnUse" x="2" y="-1" width="25" height="38">
<path d="M2.37256 -0.903015L26.1405 5.69846V30.1425L2.37256 36.7439V-0.903015Z" fill="white"/>
</mask>
<g mask="url(#mask2_6399_13734)">
<path fill-rule="evenodd" clip-rule="evenodd" d="M18.1942 26.5654L15.9274 26.8968L15.6206 24.7982L17.8874 24.4668L18.1942 26.5654Z" fill="#FCFCFC"/>
</g>
<mask id="mask3_6399_13734" style="mask-type:luminance" maskUnits="userSpaceOnUse" x="2" y="-1" width="25" height="38">
<path d="M2.37256 -0.903015L26.1405 5.69846V30.1425L2.37256 36.7439V-0.903015Z" fill="white"/>
</mask>
<g mask="url(#mask3_6399_13734)">
<path fill-rule="evenodd" clip-rule="evenodd" d="M23.1113 25.8498L21.3747 26.1016L21.0703 24.0027L22.8068 23.7508L23.1113 25.8498Z" fill="#FCFCFC"/>
</g>
<mask id="mask4_6399_13734" style="mask-type:luminance" maskUnits="userSpaceOnUse" x="2" y="-1" width="25" height="38">
<path d="M2.37256 -0.903015L26.1405 5.69846V30.1425L2.37256 36.7439V-0.903015Z" fill="white"/>
</mask>
<g mask="url(#mask4_6399_13734)">
<mask id="mask5_6399_13734" style="mask-type:luminance" maskUnits="userSpaceOnUse" x="8" y="10" width="29" height="20">
<path d="M36.1623 19.5112C36.1623 23.2626 32.3976 27.2394 26.4192 28.7241C18.2005 30.7522 8.8418 27.5708 8.8418 20.797C8.8418 14.0232 18.1873 9.96688 26.4192 11.2262C32.3844 12.1276 36.1623 15.7465 36.1623 19.5112Z" fill="white"/>
</mask>
<g mask="url(#mask5_6399_13734)">
<path fill-rule="evenodd" clip-rule="evenodd" d="M24.36 4.58502L26.3365 9.85585L28.2116 5.25965L30.2232 11.0881V11.4732L31.4446 8.14052L33.2261 13.5648L34.2265 10.5638L36.0028 16.3292V17.8368C39.2648 22.3533 41.0401 29.2732 41.0401 37.2477C41.0401 49.9741 36.1108 67.1201 27.2803 79.4235C23.6042 84.5384 19.4689 88.5959 15.3042 91.269C11.1504 93.9351 6.88414 95.2745 2.98937 94.7921C-0.960344 94.3028 -4.34834 91.9616 -6.71012 87.6531C-9.05065 83.3833 -10.3931 77.1789 -10.3931 68.8367C-10.3931 47.9632 -0.391595 28.0382 10.9358 18.2274V15.312L14.0044 9.48573L16.3461 14.388C16.5625 14.2689 16.7785 14.1539 16.9938 14.0431V12.3856L19.7215 6.81651L21.9117 12.0575V10.0311L24.36 4.58502ZM20.0691 13.1489L19.5684 11.9508L19.1147 12.8771V15.3653L18.5148 15.6545C17.8048 15.9969 17.0807 16.3906 16.3556 16.8358L14.7402 17.8277V15.947L13.9119 14.2128L13.0567 15.8364V19.2085L12.6803 19.5262C1.70599 28.7902 -8.27211 48.3173 -8.27211 68.8367C-8.27211 76.9914 -6.9534 82.7969 -4.85027 86.6336C-2.7684 90.4315 0.0697584 92.2933 3.2501 92.6872C6.48537 93.088 10.2531 91.9908 14.1585 89.4841C18.0529 86.9845 22.0026 83.1326 25.5576 78.1862C34.1187 66.2578 38.9191 49.5484 38.9191 37.2477C38.9191 29.3549 37.1134 22.827 34.0955 18.824L33.8819 18.5406V18.3047L33.8661 18.3519L32.6558 17.1865C32.3155 16.8587 31.9769 16.5577 31.6369 16.2998L31.2174 15.9815V15.885L29.9754 15.244C29.5956 15.048 29.2036 14.8706 28.8098 14.7316L28.1023 14.4819V13.1749H25.9813V13.0025H24.4436V10.8485L24.1826 10.1525L24.0327 10.486V14.0597L23.1317 14.1968C22.5669 14.2827 21.9983 14.406 21.4123 14.5681L20.0691 14.9396V13.1489Z" fill="#FCFCFC"/>
</g>
</g>
<mask id="mask6_6399_13734" style="mask-type:luminance" maskUnits="userSpaceOnUse" x="38" y="-1" width="24" height="38">
<path d="M61.8789 -0.743958L38.111 5.85751V30.3015L61.8789 36.903V-0.743958Z" fill="white"/>
</mask>
<g mask="url(#mask6_6399_13734)">
<path fill-rule="evenodd" clip-rule="evenodd" d="M38.9215 7.288L37.8272 10.2018C37.7266 10.4514 37.6874 10.7443 37.6874 10.9478V28.1408C37.6874 28.4479 37.797 28.7136 37.937 28.9079C38.0584 29.0765 38.3019 29.3244 38.6875 29.4038L40.9278 29.9136L40.9707 29.9197C41.313 29.9686 41.6735 29.8717 41.9488 29.6254C42.2254 29.3779 42.3535 29.0372 42.3535 28.7108V10.5502C42.3535 10.2674 42.2699 9.96507 42.1882 9.7745L42.1843 9.76543L41.027 7.19804C40.9466 7.02368 40.5786 6.38271 39.7919 6.53022C39.4602 6.59242 39.2477 6.78463 39.1384 6.91393C39.0252 7.04785 38.9598 7.18579 38.9215 7.288ZM40.0754 10.248L40.2326 10.5967V27.5802L39.8084 27.4837V10.9613C39.8085 10.9602 39.8087 10.9589 39.8089 10.9576L40.0754 10.248Z" fill="#FCFCFC"/>
<path fill-rule="evenodd" clip-rule="evenodd" d="M35.0617 8.20454C35.0915 8.11098 35.1421 7.98845 35.2307 7.86437C35.3281 7.72804 35.535 7.50496 35.8857 7.42404C36.2727 7.33474 36.6026 7.47014 36.8059 7.62748C36.9884 7.76865 37.0873 7.93455 37.1373 8.03447L37.1549 8.0698L38.1283 10.4431C38.2467 10.7059 38.2832 11.0039 38.2832 11.1997V27.7962C38.2832 28.3575 37.8002 29.1376 36.9026 28.988L36.8714 28.9828L34.9918 28.5532C34.5995 28.4673 34.3642 28.2075 34.2537 28.0456C34.1258 27.8579 34.028 27.6067 34.028 27.3189V11.5311C34.028 11.3061 34.0794 11.0569 34.1219 10.9084L34.1301 10.8794L35.0617 8.20454ZM36.1622 11.4933V26.6451L36.149 26.642V11.5537C36.1495 11.55 36.1502 11.5453 36.1511 11.5397C36.153 11.5287 36.1552 11.5174 36.1574 11.5072L36.1622 11.4933Z" fill="#FCFCFC"/>
<path fill-rule="evenodd" clip-rule="evenodd" d="M44.4521 8.54136C43.8814 8.63648 43.6425 9.09945 43.5917 9.20097L43.5758 9.23294L42.2287 12.4524L42.2217 12.4711C42.1493 12.6642 42.0747 12.9777 42.0747 13.2411V29.1217C42.0747 29.6814 42.442 30.247 43.0635 30.4024L43.0744 30.4051L45.763 31.0174L45.7684 31.0186C46.1162 31.0959 46.5109 31.0287 46.8246 30.7695C47.1334 30.5144 47.271 30.1506 47.271 29.811V12.9362C47.271 12.6596 47.1964 12.3277 47.0696 12.071L45.6509 9.15324L45.6333 9.12258C45.5463 8.97021 45.169 8.42189 44.4521 8.54136ZM44.6984 12.0447L45.15 12.9735V28.7025L44.1956 28.4852V13.2725C44.1965 13.2673 44.1976 13.2614 44.199 13.2548C44.2018 13.2408 44.205 13.2277 44.2078 13.2174L44.6984 12.0447Z" fill="#FCFCFC"/>
<path fill-rule="evenodd" clip-rule="evenodd" d="M49.2402 11.7045L47.6065 15.1445L47.6011 15.1567C47.4856 15.4165 47.4169 15.7626 47.4169 16.0248V30.3413C47.4169 30.9089 47.8099 31.5128 48.476 31.6557L51.8039 32.4144L51.827 32.4186C52.1276 32.4733 52.4894 32.4334 52.806 32.2151C53.142 31.9834 53.3423 31.6035 53.3423 31.1897V15.8923C53.3423 15.6333 53.2798 15.2515 53.1088 14.9376L51.3499 11.6314C51.1833 11.3164 50.7816 10.9282 50.1751 11.0041C49.6427 11.0706 49.3571 11.4537 49.2402 11.7045ZM50.361 14.2884L51.221 15.9048C51.2211 15.9056 51.2212 15.9063 51.2213 15.9071V30.1062L49.5378 29.7224V16.0462L49.5388 16.0398C49.5397 16.0345 49.5408 16.0286 49.542 16.0224C49.5433 16.0162 49.5447 16.0104 49.546 16.0053L49.5464 16.0038L50.361 14.2884Z" fill="#FCFCFC"/>
</g>
<mask id="mask7_6399_13734" style="mask-type:luminance" maskUnits="userSpaceOnUse" x="38" y="-1" width="24" height="38">
<path d="M61.8789 -0.743958L38.111 5.85751V30.3015L61.8789 36.903V-0.743958Z" fill="white"/>
</mask>
<g mask="url(#mask7_6399_13734)">
<path fill-rule="evenodd" clip-rule="evenodd" d="M52.3927 27.7054L55.1897 28.1163L55.498 26.0179L52.701 25.6069L52.3927 27.7054Z" fill="#FCFCFC"/>
</g>
<mask id="mask8_6399_13734" style="mask-type:luminance" maskUnits="userSpaceOnUse" x="38" y="-1" width="24" height="38">
<path d="M61.8789 -0.743958L38.111 5.85751V30.3015L61.8789 36.903V-0.743958Z" fill="white"/>
</mask>
<g mask="url(#mask8_6399_13734)">
<path fill-rule="evenodd" clip-rule="evenodd" d="M46.0573 26.7245L48.324 27.0559L48.6309 24.9573L46.3641 24.6259L46.0573 26.7245Z" fill="#FCFCFC"/>
</g>
<mask id="mask9_6399_13734" style="mask-type:luminance" maskUnits="userSpaceOnUse" x="38" y="-1" width="24" height="38">
<path d="M61.8789 -0.743958L38.111 5.85751V30.3015L61.8789 36.903V-0.743958Z" fill="white"/>
</mask>
<g mask="url(#mask9_6399_13734)">
<path fill-rule="evenodd" clip-rule="evenodd" d="M41.1402 26.0088L42.8767 26.2607L43.1812 24.1617L41.4446 23.9099L41.1402 26.0088Z" fill="#FCFCFC"/>
</g>
<mask id="mask10_6399_13734" style="mask-type:luminance" maskUnits="userSpaceOnUse" x="38" y="-1" width="24" height="38">
<path d="M61.8789 -0.743958L38.111 5.85751V30.3015L61.8789 36.903V-0.743958Z" fill="white"/>
</mask>
<g mask="url(#mask10_6399_13734)">
<mask id="mask11_6399_13734" style="mask-type:luminance" maskUnits="userSpaceOnUse" x="28" y="11" width="28" height="19">
<path d="M28.0896 19.6702C28.0896 23.4217 31.8543 27.3985 37.8327 28.8831C46.0514 30.9113 55.4102 27.7299 55.4102 20.9561C55.4102 14.1823 46.0647 10.1259 37.8327 11.3853C31.8676 12.2867 28.0896 15.9055 28.0896 19.6702Z" fill="white"/>
</mask>
<g mask="url(#mask11_6399_13734)">
<path fill-rule="evenodd" clip-rule="evenodd" d="M39.8915 4.74408L37.9149 10.0149L36.0399 5.4187L34.0283 11.2472V11.6323L32.8069 8.29958L31.0253 13.7239L30.025 10.7229L28.2487 16.4882V17.9959C24.9867 22.5124 23.2114 29.4323 23.2114 37.4067C23.2114 50.1332 28.1407 67.2791 36.9712 79.5825C40.6473 84.6974 44.7825 88.755 48.9473 91.4281C53.1011 94.0941 57.3673 95.4336 61.2621 94.9511C65.2118 94.4619 68.5998 92.1207 70.9616 87.8122C73.3021 83.5424 74.6445 77.338 74.6445 68.9957C74.6445 48.1223 64.6431 28.1973 53.3157 18.3864V15.471L50.247 9.64479L47.9054 14.5471C47.689 14.4279 47.473 14.3129 47.2577 14.2021V12.5447L44.53 6.97557L42.3397 12.2165V10.1902L39.8915 4.74408ZM44.1823 13.308L44.683 12.1099L45.1368 13.0362V15.5244L45.7367 15.8136C46.4467 16.1559 47.1708 16.5497 47.8958 16.9949L49.5112 17.9868V16.1061L50.3396 14.3719L51.1947 15.9954V19.3675L51.5711 19.6853C62.5455 28.9493 72.5236 48.4764 72.5236 68.9957C72.5236 77.1505 71.2049 82.956 69.1017 86.7927C67.0199 90.5906 64.1817 92.4523 61.0014 92.8463C57.7661 93.247 53.9984 92.1498 50.0929 89.6432C46.1985 87.1436 42.2489 83.2917 38.6939 78.3453C30.1327 66.4168 25.3323 49.7074 25.3323 37.4067C25.3323 29.5139 27.1381 22.986 30.1559 18.9831L30.3696 18.6996V18.4637L30.3854 18.511L31.5957 17.3455C31.936 17.0178 32.2745 16.7167 32.6145 16.4588L33.0341 16.1405V16.0441L34.276 15.403C34.6558 15.207 35.0479 15.0297 35.4417 14.8907L36.1492 14.641V13.3339H38.2702V13.1616H39.8079V11.0076L40.0689 10.3115L40.2188 10.645V14.2187L41.1197 14.3558C41.6845 14.4418 42.2531 14.5651 42.8391 14.7272L44.1823 15.0987V13.308Z" fill="#FCFCFC"/>
</g>
</g>
</g>
<defs>
<clipPath id="clip0_6399_13734">
<rect width="64" height="34" fill="white"/>
</clipPath>
</defs>
</svg>
