<?xml version="1.0" encoding="UTF-8"?>
<svg height="600" width="800" xmlns="http://www.w3.org/2000/svg" xmlns:xlink="http://www.w3.org/1999/xlink">
    <g id="Notes" font-family="'LucidaGrande', 'Lucida Grande', sans-serif" font-size="13">
        <rect fill="white" height="600.0" width="800.0" x="0.0" y="0.0" />
        <g font-size="13">
            <text x="18.0" y="176.0">Small</text>
            <text x="18.0" y="376.0">Medium</text>
            <text x="18.0" y="576.0">Large</text>
        </g>
        <g font-size="9">
            <text x="250.0" y="30.0">Ultralight</text>
            <text x="450.0" y="30.0">Regular</text>
            <text x="650.0" y="30.0">Black</text>
            <text id="template-version" fill="#505050" text-anchor="end" x="785.0" y="575.0">Template v.3.0</text>
            <a href="https://github.com/swhitty/SwiftDraw">
                <text fill="#505050" text-anchor="end" x="785.0" y="590.0">https://github.com/swhitty/SwiftDraw</text>
            </a>
        </g>
    </g>
    <g id="Guides" stroke="rgb(39, 170, 225)" stroke-width="0.5">
        <path id="Capline-S" d="M18,76 l800,0" />
        <path id="H-reference" d="M85,145.755 L87.685,145.755 L113.369,79.287 L114.052,79.287 L114.052,76 L112.148,76 L85,145.755 Z M95.693,121.536 L130.996,121.536 L130.263,119.313 L96.474,119.313 L95.693,121.536 Z M139.15,145.755 L141.787,145.755 L114.638,76 L113.466,76 L113.466,79.287 L139.15,145.755 Z" stroke="none" />
        <path id="Baseline-S" d="M18,146 l800,0" />
        <path id="left-margin-Ultralight-S" d="M219.995,56 l0,110" />
        <path id="right-margin-Ultralight-S" d="M310.005,56 l0,110" />
        <path id="left-margin-Regular-S" d="M419.995,56 l0,110" />
        <path id="right-margin-Regular-S" d="M510.005,56 l0,110" />
        <path id="left-margin-Black-S" d="M619.995,56 l0,110" />
        <path id="right-margin-Black-S" d="M710.005,56 l0,110" />
        <path id="Capline-M" d="M18,276 l800,0" />
        <path id="Baseline-M" d="M18,346 l800,0" />
        <path id="Capline-L" d="M18,476 l800,0" />
        <path id="Baseline-L" d="M18,546 l800,0" />
    </g>
    <g id="Symbols">
        <g id="Ultralight-S">
            <path d="M241.141,121.074 L241.141,128.636 L240.678,128.848 C238.202,129.983 237.111,132.921 238.245,135.398 C238.795,136.598 239.778,137.511 241.016,137.971 C242.253,138.431 243.596,138.38 244.794,137.831 C247.271,136.696 248.362,133.758 247.228,131.282 C246.735,130.205 245.871,129.343 244.794,128.85 L244.331,128.637 L244.331,121.074 C244.331,120.196 243.615,119.481 242.735,119.479 C241.856,119.479 241.14,120.196 241.14,121.076 L241.141,121.074 Z" />
            <path d="M300.005,97.615 C299.982,96.769 299.304,96.087 298.459,96.06 L293.411,96.06 L296.26,93.209 C296.881,92.588 296.881,91.574 296.26,90.953 C295.638,90.331 294.625,90.331 294.004,90.953 L288.898,96.058 L285.426,96.058 L285.25,95.505 C284.934,94.511 284.394,93.578 283.688,92.811 L283.295,92.381 L285.034,89.374 L292.011,87.503 C292.423,87.393 292.767,87.129 292.981,86.761 C293.195,86.391 293.252,85.962 293.141,85.551 C292.956,84.853 292.321,84.368 291.6,84.368 C291.46,84.368 291.321,84.387 291.185,84.422 L287.292,85.465 L289.826,81.077 C290.038,80.707 290.095,80.278 289.984,79.865 C289.873,79.453 289.61,79.109 289.241,78.897 C288.48,78.458 287.501,78.719 287.061,79.482 L284.529,83.869 L283.485,79.975 C283.298,79.279 282.666,78.792 281.944,78.792 C281.518,78.792 281.117,78.959 280.815,79.26 C280.514,79.561 280.348,79.964 280.348,80.39 C280.348,80.53 280.367,80.669 280.403,80.806 L282.274,87.783 L280.536,90.791 L279.969,90.664 C278.951,90.438 277.874,90.438 276.855,90.664 L276.287,90.791 L274.549,87.783 L276.42,80.807 C276.531,80.395 276.476,79.964 276.262,79.594 C276.052,79.23 275.715,78.968 275.312,78.854 L275.29,78.848 C275.157,78.811 275.019,78.794 274.881,78.794 L274.879,78.794 C274.159,78.794 273.525,79.28 273.338,79.976 L272.29,83.866 L269.76,79.48 C269.476,78.995 268.945,78.691 268.377,78.691 C267.954,78.691 267.553,78.859 267.253,79.161 C266.952,79.464 266.788,79.864 266.788,80.29 C266.788,80.568 266.863,80.842 267.002,81.083 L269.533,85.465 L265.639,84.421 C265.506,84.386 265.365,84.367 265.223,84.367 C264.344,84.367 263.628,85.082 263.628,85.962 C263.628,86.683 264.115,87.317 264.811,87.503 L271.787,89.372 L273.527,92.38 L273.134,92.81 C272.428,93.578 271.889,94.511 271.573,95.505 L271.397,96.058 L267.924,96.058 L262.818,90.953 C262.197,90.331 261.184,90.331 260.562,90.953 C260.261,91.254 260.094,91.655 260.094,92.08 C260.094,92.505 260.261,92.906 260.562,93.207 L263.411,96.058 L258.355,96.058 C257.932,96.071 257.539,96.247 257.248,96.554 C256.955,96.864 256.8,97.268 256.811,97.694 C256.833,98.541 257.51,99.223 258.357,99.25 L263.413,99.25 L260.564,102.101 C260.264,102.402 260.098,102.803 260.099,103.229 C260.099,103.656 260.267,104.057 260.568,104.358 C260.87,104.658 261.269,104.824 261.693,104.824 L261.696,104.824 C262.114,104.824 262.523,104.655 262.818,104.358 L267.925,99.251 L271.397,99.251 L271.573,99.805 C271.889,100.799 272.43,101.731 273.135,102.499 L273.528,102.928 L271.789,105.936 L264.813,107.807 C264.401,107.916 264.057,108.181 263.842,108.549 C263.628,108.918 263.571,109.348 263.682,109.759 C263.868,110.455 264.502,110.941 265.222,110.941 L265.223,110.941 C265.363,110.941 265.499,110.922 265.633,110.887 L269.528,109.846 L266.996,114.233 C266.784,114.602 266.728,115.032 266.839,115.444 C266.95,115.856 267.215,116.2 267.586,116.413 C267.825,116.551 268.098,116.624 268.375,116.625 C268.94,116.625 269.471,116.318 269.756,115.825 L272.288,111.439 L273.333,115.333 C273.444,115.745 273.707,116.089 274.077,116.302 C274.446,116.514 274.876,116.571 275.288,116.46 C275.7,116.349 276.045,116.086 276.257,115.717 C276.469,115.347 276.527,114.918 276.416,114.506 L274.545,107.529 L276.282,104.522 L276.85,104.648 C277.868,104.875 278.944,104.875 279.964,104.648 L280.531,104.522 L282.269,107.529 L280.398,114.506 C280.172,115.355 280.677,116.232 281.527,116.459 C282.377,116.687 283.254,116.18 283.481,115.33 L284.525,111.436 L287.057,115.823 C287.343,116.315 287.874,116.621 288.443,116.622 C288.865,116.621 289.266,116.453 289.566,116.148 C289.865,115.844 290.03,115.443 290.029,115.016 C290.029,114.74 289.954,114.466 289.816,114.227 L287.284,109.839 L291.178,110.884 C292.03,111.113 292.905,110.605 293.133,109.755 C293.361,108.906 292.854,108.029 292.004,107.8 L285.028,105.93 L283.289,102.922 L283.682,102.492 C284.387,101.723 284.927,100.793 285.244,99.797 L285.42,99.245 L288.892,99.245 L293.999,104.35 C294.3,104.652 294.701,104.818 295.128,104.818 C295.554,104.818 295.954,104.652 296.255,104.35 C296.556,104.049 296.723,103.648 296.723,103.223 C296.723,102.798 296.556,102.397 296.255,102.096 L293.401,99.245 L298.459,99.245 C299.334,99.218 300.027,98.486 300.005,97.609 L300.005,97.615 Z M282.39,97.671 C282.387,99.862 280.603,101.646 278.413,101.649 L278.412,101.649 C277.348,101.649 276.351,101.235 275.597,100.485 C274.846,99.733 274.43,98.735 274.43,97.671 C274.43,95.476 276.214,93.691 278.409,93.689 L278.41,93.689 C280.604,93.689 282.388,95.473 282.39,97.667 L282.39,97.671 Z" />
            <path d="M242.738,76 C238.176,76.005 234.46,79.721 234.455,84.286 L234.455,123.643 L234.19,123.879 C231.498,126.28 229.97,129.725 229.995,133.33 C230.025,136.078 230.916,138.688 232.573,140.876 L232.652,140.979 C235.077,144.166 238.75,145.994 242.739,146 C246.779,145.994 250.483,144.129 252.899,140.882 C254.561,138.689 255.452,136.078 255.482,133.329 C255.506,129.728 253.977,126.284 251.288,123.885 L251.024,123.649 L251.024,84.289 C251.021,79.724 247.304,76.006 242.738,76 Z M244.262,79.504 C246.305,80.14 247.785,82.019 247.829,84.27 L247.829,124.418 C247.829,124.918 248.068,125.395 248.466,125.696 C252.679,128.853 253.537,134.852 250.378,139.067 C248.585,141.459 245.728,142.889 242.736,142.889 C237.469,142.886 233.187,138.599 233.188,133.332 C233.188,130.343 234.617,127.486 237.008,125.693 C237.403,125.395 237.64,124.918 237.642,124.421 L237.642,84.284 C237.685,82.027 239.183,80.14 241.219,79.504 C241.219,79.504 242.668,79.031 244.263,79.504 L244.262,79.504 Z" />
        </g>
        <g id="Regular-S">
            <path d="M441.141,121.074 L441.141,128.636 L440.678,128.848 C438.202,129.983 437.111,132.921 438.245,135.398 C438.795,136.598 439.778,137.511 441.016,137.971 C442.253,138.431 443.596,138.38 444.794,137.831 C447.271,136.696 448.362,133.758 447.228,131.282 C446.735,130.205 445.871,129.343 444.794,128.85 L444.331,128.637 L444.331,121.074 C444.331,120.196 443.615,119.481 442.735,119.479 C441.856,119.479 441.14,120.196 441.14,121.076 L441.141,121.074 Z" />
            <path d="M500.005,97.615 C499.982,96.769 499.304,96.087 498.459,96.06 L493.411,96.06 L496.26,93.209 C496.881,92.588 496.881,91.574 496.26,90.953 C495.638,90.331 494.625,90.331 494.004,90.953 L488.898,96.058 L485.426,96.058 L485.25,95.505 C484.934,94.511 484.394,93.578 483.688,92.811 L483.295,92.381 L485.034,89.374 L492.011,87.503 C492.423,87.393 492.767,87.129 492.981,86.761 C493.195,86.391 493.252,85.962 493.141,85.551 C492.956,84.853 492.321,84.368 491.6,84.368 C491.46,84.368 491.321,84.387 491.185,84.422 L487.292,85.465 L489.826,81.077 C490.038,80.707 490.095,80.278 489.984,79.865 C489.873,79.453 489.61,79.109 489.241,78.897 C488.48,78.458 487.501,78.719 487.061,79.482 L484.529,83.869 L483.485,79.975 C483.298,79.279 482.666,78.792 481.944,78.792 C481.518,78.792 481.117,78.959 480.815,79.26 C480.514,79.561 480.348,79.964 480.348,80.39 C480.348,80.53 480.367,80.669 480.403,80.806 L482.274,87.783 L480.536,90.791 L479.969,90.664 C478.951,90.438 477.874,90.438 476.855,90.664 L476.287,90.791 L474.549,87.783 L476.42,80.807 C476.531,80.395 476.476,79.964 476.262,79.594 C476.052,79.23 475.715,78.968 475.312,78.854 L475.29,78.848 C475.157,78.811 475.019,78.794 474.881,78.794 L474.879,78.794 C474.159,78.794 473.525,79.28 473.338,79.976 L472.29,83.866 L469.76,79.48 C469.476,78.995 468.945,78.691 468.377,78.691 C467.954,78.691 467.553,78.859 467.253,79.161 C466.952,79.464 466.788,79.864 466.788,80.29 C466.788,80.568 466.863,80.842 467.002,81.083 L469.533,85.465 L465.639,84.421 C465.506,84.386 465.365,84.367 465.223,84.367 C464.344,84.367 463.628,85.082 463.628,85.962 C463.628,86.683 464.115,87.317 464.811,87.503 L471.787,89.372 L473.527,92.38 L473.134,92.81 C472.428,93.578 471.889,94.511 471.573,95.505 L471.397,96.058 L467.924,96.058 L462.818,90.953 C462.197,90.331 461.184,90.331 460.562,90.953 C460.261,91.254 460.094,91.655 460.094,92.08 C460.094,92.505 460.261,92.906 460.562,93.207 L463.411,96.058 L458.355,96.058 C457.932,96.071 457.539,96.247 457.248,96.554 C456.955,96.864 456.8,97.268 456.811,97.694 C456.833,98.541 457.51,99.223 458.357,99.25 L463.413,99.25 L460.564,102.101 C460.264,102.402 460.098,102.803 460.099,103.229 C460.099,103.656 460.267,104.057 460.568,104.358 C460.87,104.658 461.269,104.824 461.693,104.824 L461.696,104.824 C462.114,104.824 462.523,104.655 462.818,104.358 L467.925,99.251 L471.397,99.251 L471.573,99.805 C471.889,100.799 472.43,101.731 473.135,102.499 L473.528,102.928 L471.789,105.936 L464.813,107.807 C464.401,107.916 464.057,108.181 463.842,108.549 C463.628,108.918 463.571,109.348 463.682,109.759 C463.868,110.455 464.502,110.941 465.222,110.941 L465.223,110.941 C465.363,110.941 465.499,110.922 465.633,110.887 L469.528,109.846 L466.996,114.233 C466.784,114.602 466.728,115.032 466.839,115.444 C466.95,115.856 467.215,116.2 467.586,116.413 C467.825,116.551 468.098,116.624 468.375,116.625 C468.94,116.625 469.471,116.318 469.756,115.825 L472.288,111.439 L473.333,115.333 C473.444,115.745 473.707,116.089 474.077,116.302 C474.446,116.514 474.876,116.571 475.288,116.46 C475.7,116.349 476.045,116.086 476.257,115.717 C476.469,115.347 476.527,114.918 476.416,114.506 L474.545,107.529 L476.282,104.522 L476.85,104.648 C477.868,104.875 478.944,104.875 479.964,104.648 L480.531,104.522 L482.269,107.529 L480.398,114.506 C480.172,115.355 480.677,116.232 481.527,116.459 C482.377,116.687 483.254,116.18 483.481,115.33 L484.525,111.436 L487.057,115.823 C487.343,116.315 487.874,116.621 488.443,116.622 C488.865,116.621 489.266,116.453 489.566,116.148 C489.865,115.844 490.03,115.443 490.029,115.016 C490.029,114.74 489.954,114.466 489.816,114.227 L487.284,109.839 L491.178,110.884 C492.03,111.113 492.905,110.605 493.133,109.755 C493.361,108.906 492.854,108.029 492.004,107.8 L485.028,105.93 L483.289,102.922 L483.682,102.492 C484.387,101.723 484.927,100.793 485.244,99.797 L485.42,99.245 L488.892,99.245 L493.999,104.35 C494.3,104.652 494.701,104.818 495.128,104.818 C495.554,104.818 495.954,104.652 496.255,104.35 C496.556,104.049 496.723,103.648 496.723,103.223 C496.723,102.798 496.556,102.397 496.255,102.096 L493.401,99.245 L498.459,99.245 C499.334,99.218 500.027,98.486 500.005,97.609 L500.005,97.615 Z M482.39,97.671 C482.387,99.862 480.603,101.646 478.413,101.649 L478.412,101.649 C477.348,101.649 476.351,101.235 475.597,100.485 C474.846,99.733 474.43,98.735 474.43,97.671 C474.43,95.476 476.214,93.691 478.409,93.689 L478.41,93.689 C480.604,93.689 482.388,95.473 482.39,97.667 L482.39,97.671 Z" />
            <path d="M442.738,76 C438.176,76.005 434.46,79.721 434.455,84.286 L434.455,123.643 L434.19,123.879 C431.498,126.28 429.97,129.725 429.995,133.33 C430.025,136.078 430.916,138.688 432.573,140.876 L432.652,140.979 C435.077,144.166 438.75,145.994 442.739,146 C446.779,145.994 450.483,144.129 452.899,140.882 C454.561,138.689 455.452,136.078 455.482,133.329 C455.506,129.728 453.977,126.284 451.288,123.885 L451.024,123.649 L451.024,84.289 C451.021,79.724 447.304,76.006 442.738,76 Z M444.262,79.504 C446.305,80.14 447.785,82.019 447.829,84.27 L447.829,124.418 C447.829,124.918 448.068,125.395 448.466,125.696 C452.679,128.853 453.537,134.852 450.378,139.067 C448.585,141.459 445.728,142.889 442.736,142.889 C437.469,142.886 433.187,138.599 433.188,133.332 C433.188,130.343 434.617,127.486 437.008,125.693 C437.403,125.395 437.64,124.918 437.642,124.421 L437.642,84.284 C437.685,82.027 439.183,80.14 441.219,79.504 C441.219,79.504 442.668,79.031 444.263,79.504 L444.262,79.504 Z" />
        </g>
        <g id="Black-S">
            <path d="M641.141,121.074 L641.141,128.636 L640.678,128.848 C638.202,129.983 637.111,132.921 638.245,135.398 C638.795,136.598 639.778,137.511 641.016,137.971 C642.253,138.431 643.596,138.38 644.794,137.831 C647.271,136.696 648.362,133.758 647.228,131.282 C646.735,130.205 645.871,129.343 644.794,128.85 L644.331,128.637 L644.331,121.074 C644.331,120.196 643.615,119.481 642.735,119.479 C641.856,119.479 641.14,120.196 641.14,121.076 L641.141,121.074 Z" />
            <path d="M700.005,97.615 C699.982,96.769 699.304,96.087 698.459,96.06 L693.411,96.06 L696.26,93.209 C696.881,92.588 696.881,91.574 696.26,90.953 C695.638,90.331 694.625,90.331 694.003,90.953 L688.898,96.058 L685.426,96.058 L685.25,95.505 C684.934,94.511 684.394,93.578 683.688,92.811 L683.295,92.381 L685.034,89.374 L692.01,87.503 C692.423,87.393 692.767,87.129 692.981,86.761 C693.195,86.391 693.252,85.962 693.141,85.551 C692.956,84.853 692.321,84.368 691.6,84.368 C691.46,84.368 691.321,84.387 691.184,84.422 L687.292,85.465 L689.826,81.077 C690.038,80.707 690.095,80.278 689.984,79.865 C689.873,79.453 689.61,79.109 689.241,78.897 C688.48,78.458 687.501,78.719 687.061,79.482 L684.529,83.869 L683.485,79.975 C683.298,79.279 682.666,78.792 681.944,78.792 C681.518,78.792 681.117,78.959 680.815,79.26 C680.514,79.561 680.348,79.964 680.348,80.39 C680.348,80.53 680.367,80.669 680.403,80.806 L682.274,87.783 L680.536,90.791 L679.969,90.664 C678.951,90.438 677.874,90.438 676.855,90.664 L676.287,90.791 L674.549,87.783 L676.42,80.807 C676.531,80.395 676.476,79.964 676.262,79.594 C676.052,79.23 675.715,78.968 675.312,78.854 L675.29,78.848 C675.157,78.811 675.019,78.794 674.881,78.794 L674.879,78.794 C674.159,78.794 673.525,79.28 673.338,79.976 L672.29,83.866 L669.76,79.48 C669.476,78.995 668.945,78.691 668.377,78.691 C667.954,78.691 667.553,78.859 667.253,79.161 C666.952,79.464 666.788,79.864 666.788,80.29 C666.788,80.568 666.863,80.842 667.002,81.083 L669.533,85.465 L665.639,84.421 C665.506,84.386 665.365,84.367 665.223,84.367 C664.344,84.367 663.628,85.082 663.628,85.962 C663.628,86.683 664.115,87.317 664.811,87.503 L671.787,89.372 L673.527,92.38 L673.134,92.81 C672.428,93.578 671.889,94.511 671.573,95.505 L671.397,96.058 L667.924,96.058 L662.818,90.953 C662.197,90.331 661.184,90.331 660.562,90.953 C660.261,91.254 660.094,91.655 660.094,92.08 C660.094,92.505 660.261,92.906 660.562,93.207 L663.411,96.058 L658.355,96.058 C657.932,96.071 657.539,96.247 657.248,96.554 C656.955,96.864 656.8,97.268 656.811,97.694 C656.833,98.541 657.51,99.223 658.357,99.25 L663.413,99.25 L660.564,102.101 C660.264,102.402 660.098,102.803 660.099,103.229 C660.099,103.656 660.267,104.057 660.568,104.358 C660.87,104.658 661.269,104.824 661.693,104.824 L661.696,104.824 C662.114,104.824 662.523,104.655 662.818,104.358 L667.925,99.251 L671.397,99.251 L671.573,99.805 C671.889,100.799 672.43,101.731 673.135,102.499 L673.528,102.928 L671.789,105.936 L664.813,107.807 C664.401,107.916 664.057,108.181 663.842,108.549 C663.628,108.918 663.571,109.348 663.682,109.759 C663.868,110.455 664.502,110.941 665.222,110.941 L665.223,110.941 C665.363,110.941 665.499,110.922 665.633,110.887 L669.528,109.846 L666.996,114.233 C666.784,114.602 666.728,115.032 666.839,115.444 C666.95,115.856 667.215,116.2 667.586,116.413 C667.825,116.551 668.098,116.624 668.375,116.625 C668.94,116.625 669.471,116.318 669.756,115.825 L672.288,111.439 L673.333,115.333 C673.444,115.745 673.707,116.089 674.077,116.302 C674.446,116.514 674.876,116.571 675.288,116.46 C675.7,116.349 676.044,116.086 676.257,115.717 C676.469,115.347 676.526,114.918 676.416,114.506 L674.545,107.529 L676.282,104.522 L676.85,104.648 C677.868,104.875 678.944,104.875 679.964,104.648 L680.531,104.522 L682.269,107.529 L680.398,114.506 C680.172,115.355 680.677,116.232 681.527,116.459 C682.377,116.687 683.254,116.18 683.481,115.33 L684.525,111.436 L687.057,115.823 C687.343,116.315 687.874,116.621 688.443,116.622 C688.865,116.621 689.266,116.453 689.566,116.148 C689.865,115.844 690.03,115.443 690.029,115.016 C690.029,114.74 689.954,114.466 689.816,114.227 L687.284,109.839 L691.178,110.884 C692.03,111.113 692.905,110.605 693.133,109.755 C693.361,108.906 692.854,108.029 692.004,107.8 L685.028,105.93 L683.289,102.922 L683.682,102.492 C684.387,101.723 684.927,100.793 685.244,99.797 L685.42,99.245 L688.892,99.245 L693.999,104.35 C694.3,104.652 694.701,104.818 695.128,104.818 C695.554,104.818 695.954,104.652 696.255,104.35 C696.556,104.049 696.723,103.648 696.723,103.223 C696.723,102.798 696.556,102.397 696.255,102.096 L693.401,99.245 L698.459,99.245 C699.334,99.218 700.027,98.486 700.005,97.609 L700.005,97.615 Z M682.39,97.671 C682.387,99.862 680.603,101.646 678.413,101.649 L678.412,101.649 C677.348,101.649 676.351,101.235 675.597,100.485 C674.846,99.733 674.43,98.735 674.43,97.671 C674.43,95.476 676.214,93.691 678.409,93.689 L678.41,93.689 C680.604,93.689 682.388,95.473 682.39,97.667 L682.39,97.671 Z" />
            <path d="M642.738,76 C638.176,76.005 634.46,79.721 634.455,84.286 L634.455,123.643 L634.19,123.879 C631.498,126.28 629.97,129.725 629.995,133.33 C630.025,136.078 630.916,138.688 632.573,140.876 L632.652,140.979 C635.077,144.166 638.75,145.994 642.739,146 C646.779,145.994 650.483,144.129 652.899,140.882 C654.561,138.689 655.452,136.078 655.482,133.329 C655.506,129.728 653.977,126.284 651.288,123.885 L651.024,123.649 L651.024,84.289 C651.021,79.724 647.304,76.006 642.738,76 Z M644.261,79.504 C646.305,80.14 647.784,82.019 647.829,84.27 L647.829,124.418 C647.829,124.918 648.068,125.395 648.466,125.696 C652.679,128.853 653.537,134.852 650.378,139.067 C648.585,141.459 645.728,142.889 642.736,142.889 C637.469,142.886 633.187,138.599 633.188,133.332 C633.188,130.343 634.617,127.486 637.008,125.693 C637.403,125.395 637.64,124.918 637.642,124.421 L637.642,84.284 C637.685,82.027 639.183,80.14 641.219,79.504 C641.219,79.504 642.668,79.031 644.263,79.504 L644.261,79.504 Z" />
        </g>
    </g>
</svg>