<svg width="64" height="64" viewBox="0 0 64 64" fill="none" xmlns="http://www.w3.org/2000/svg">
<path fill-rule="evenodd" clip-rule="evenodd" d="M36.6125 29.95C36.6125 29.3977 37.0603 28.95 37.6125 28.95H44.475C45.0273 28.95 45.475 29.3977 45.475 29.95C45.475 30.5023 45.0273 30.95 44.475 30.95H37.6125C37.0603 30.95 36.6125 30.5023 36.6125 29.95Z" fill="#282828"/>
<path fill-rule="evenodd" clip-rule="evenodd" d="M36.6125 22.725C36.6125 22.1727 37.0603 21.725 37.6125 21.725H44.475C45.0273 21.725 45.475 22.1727 45.475 22.725C45.475 23.2773 45.0273 23.725 44.475 23.725H37.6125C37.0603 23.725 36.6125 23.2773 36.6125 22.725Z" fill="#282828"/>
<path fill-rule="evenodd" clip-rule="evenodd" d="M36.6125 15.5C36.6125 14.9477 37.0603 14.5 37.6125 14.5H44.475C45.0273 14.5 45.475 14.9477 45.475 15.5C45.475 16.0523 45.0273 16.5 44.475 16.5H37.6125C37.0603 16.5 36.6125 16.0523 36.6125 15.5Z" fill="#282828"/>
<path fill-rule="evenodd" clip-rule="evenodd" d="M36.6125 37.175C36.6125 36.6227 37.0603 36.175 37.6125 36.175H44.475C45.0273 36.175 45.475 36.6227 45.475 37.175C45.475 37.7273 45.0273 38.175 44.475 38.175H37.6125C37.0603 38.175 36.6125 37.7273 36.6125 37.175Z" fill="#282828"/>
<mask id="mask0_5611_3401" style="mask-type:luminance" maskUnits="userSpaceOnUse" x="17" y="6" width="18" height="53">
<path d="M17.675 6.375H35V58.3625H17.675V6.375Z" fill="white"/>
</mask>
<g mask="url(#mask0_5611_3401)">
<path d="M31.55 42.775V11.5625C31.55 8.6125 29.2875 6.3625 26.35 6.3625C23.4 6.3625 21.15 8.7875 21.15 11.5625V42.7625C19.0625 44.325 17.6875 46.925 17.6875 49.7C17.6875 54.55 21.5 58.3625 26.35 58.3625C31.2 58.3625 35.0125 54.55 35.0125 49.7C35.0125 46.925 33.625 44.325 31.55 42.775ZM26.3375 56.6375C22.525 56.6375 19.4 53.525 19.4 49.7C19.4 47.1 20.7875 44.85 22.8625 43.6375V11.5625C22.8625 9.6625 24.425 8.1 26.325 8.1C28.225 8.1 29.7875 9.6625 29.7875 11.5625V43.625C31.875 44.8375 33.25 47.0875 33.25 49.6875C33.275 53.5125 30.1625 56.6375 26.3375 56.6375Z" fill="#282828"/>
</g>
<path d="M26.3375 53.2C28.2913 53.2 29.875 51.6162 29.875 49.6625C29.875 47.7088 28.2913 46.125 26.3375 46.125C24.3838 46.125 22.8 47.7088 22.8 49.6625C22.8 51.6162 24.3838 53.2 26.3375 53.2Z" fill="#12A71E"/>
<path fill-rule="evenodd" clip-rule="evenodd" d="M26.3374 20.125C26.8897 20.125 27.3374 20.5727 27.3374 21.125V49.6625C27.3374 50.2148 26.8897 50.6625 26.3374 50.6625C25.7851 50.6625 25.3374 50.2148 25.3374 49.6625V21.125C25.3374 20.5727 25.7851 20.125 26.3374 20.125Z" fill="#12A71E"/>
</svg>
