<svg width="65" height="64" viewBox="0 0 65 64" fill="none" xmlns="http://www.w3.org/2000/svg">
<path fill-rule="evenodd" clip-rule="evenodd" d="M38.2742 29.0224C38.2742 28.3425 38.8253 27.7913 39.5052 27.7913H47.9534C48.6333 27.7913 49.1845 28.3425 49.1845 29.0224C49.1845 29.7023 48.6333 30.2534 47.9534 30.2534H39.5052C38.8253 30.2534 38.2742 29.7023 38.2742 29.0224Z" fill="#282828"/>
<path fill-rule="evenodd" clip-rule="evenodd" d="M38.2742 20.1279C38.2742 19.448 38.8253 18.8969 39.5052 18.8969H47.9534C48.6333 18.8969 49.1845 19.448 49.1845 20.1279C49.1845 20.8078 48.6333 21.359 47.9534 21.359H39.5052C38.8253 21.359 38.2742 20.8078 38.2742 20.1279Z" fill="#282828"/>
<path fill-rule="evenodd" clip-rule="evenodd" d="M38.2742 11.2335C38.2742 10.5536 38.8253 10.0024 39.5052 10.0024H47.9534C48.6333 10.0024 49.1845 10.5536 49.1845 11.2335C49.1845 11.9134 48.6333 12.4645 47.9534 12.4645H39.5052C38.8253 12.4645 38.2742 11.9134 38.2742 11.2335Z" fill="#282828"/>
<path fill-rule="evenodd" clip-rule="evenodd" d="M38.2742 37.9168C38.2742 37.2369 38.8253 36.6857 39.5052 36.6857H47.9534C48.6333 36.6857 49.1845 37.2369 49.1845 37.9168C49.1845 38.5967 48.6333 39.1479 47.9534 39.1479H39.5052C38.8253 39.1479 38.2742 38.5967 38.2742 37.9168Z" fill="#282828"/>
<mask id="mask0_5611_3401" style="mask-type:luminance" maskUnits="userSpaceOnUse" x="14" y="0" width="23" height="64">
<path d="M14.9609 0H36.2891V64H14.9609V0Z" fill="white"/>
</mask>
<g mask="url(#mask0_5611_3401)">
<path d="M32.042 44.8108V6.38616C32.042 2.75452 29.2567 -0.0153809 25.6404 -0.0153809C22.0088 -0.0153809 19.2389 2.96995 19.2389 6.38616V44.7954C16.669 46.7189 14.9763 49.9197 14.9763 53.3359C14.9763 59.3066 19.6698 64 25.6404 64C31.6111 64 36.3045 59.3066 36.3045 53.3359C36.3045 49.9197 34.5964 46.7189 32.042 44.8108ZM25.625 61.8764C20.9316 61.8764 17.0845 58.0447 17.0845 53.3359C17.0845 50.1351 18.7926 47.3652 21.3471 45.8726V6.38616C21.3471 4.04713 23.2706 2.12359 25.6096 2.12359C27.9487 2.12359 29.8722 4.04713 29.8722 6.38616V45.8572C32.4421 47.3499 34.1348 50.1198 34.1348 53.3205C34.1655 58.0293 30.3339 61.8764 25.625 61.8764Z" fill="#282828"/>
</g>
<path d="M25.6252 57.6446C28.0303 57.6446 29.9801 55.6949 29.9801 53.2897C29.9801 50.8846 28.0303 48.9348 25.6252 48.9348C23.22 48.9348 21.2703 50.8846 21.2703 53.2897C21.2703 55.6949 23.22 57.6446 25.6252 57.6446Z" fill="#12A71E"/>
<path fill-rule="evenodd" clip-rule="evenodd" d="M25.6249 16.9272C26.3048 16.9272 26.8559 17.4783 26.8559 18.1582V53.2897C26.8559 53.9696 26.3048 54.5208 25.6249 54.5208C24.945 54.5208 24.3938 53.9696 24.3938 53.2897V18.1582C24.3938 17.4783 24.945 16.9272 25.6249 16.9272Z" fill="#12A71E"/>
</svg>
