<?xml version="1.0" encoding="UTF-8"?>
<svg height="600" width="800" xmlns="http://www.w3.org/2000/svg" xmlns:xlink="http://www.w3.org/1999/xlink">
    <g id="Notes" font-family="'LucidaGrande', 'Lucida Grande', sans-serif" font-size="13">
        <rect fill="white" height="600.0" width="800.0" x="0.0" y="0.0" />
        <g font-size="13">
            <text x="18.0" y="176.0">Small</text>
            <text x="18.0" y="376.0">Medium</text>
            <text x="18.0" y="576.0">Large</text>
        </g>
        <g font-size="9">
            <text x="250.0" y="30.0">Ultralight</text>
            <text x="450.0" y="30.0">Regular</text>
            <text x="650.0" y="30.0">Black</text>
            <text id="template-version" fill="#505050" text-anchor="end" x="785.0" y="575.0">Template v.3.0</text>
            <a href="https://github.com/swhitty/SwiftDraw">
                <text fill="#505050" text-anchor="end" x="785.0" y="590.0">https://github.com/swhitty/SwiftDraw</text>
            </a>
        </g>
    </g>
    <g id="Guides" stroke="rgb(39, 170, 225)" stroke-width="0.5">
        <path id="Capline-S" d="M18,76 l800,0" />
        <path id="H-reference" d="M85,145.755 L87.685,145.755 L113.369,79.287 L114.052,79.287 L114.052,76 L112.148,76 L85,145.755 Z M95.693,121.536 L130.996,121.536 L130.263,119.313 L96.474,119.313 L95.693,121.536 Z M139.15,145.755 L141.787,145.755 L114.638,76 L113.466,76 L113.466,79.287 L139.15,145.755 Z" stroke="none" />
        <path id="Baseline-S" d="M18,146 l800,0" />
        <path id="left-margin-Ultralight-S" d="M213.245,56 l0,110" />
        <path id="right-margin-Ultralight-S" d="M316.755,56 l0,110" />
        <path id="left-margin-Regular-S" d="M413.245,56 l0,110" />
        <path id="right-margin-Regular-S" d="M516.755,56 l0,110" />
        <path id="left-margin-Black-S" d="M613.245,56 l0,110" />
        <path id="right-margin-Black-S" d="M716.755,56 l0,110" />
        <path id="Capline-M" d="M18,276 l800,0" />
        <path id="Baseline-M" d="M18,346 l800,0" />
        <path id="Capline-L" d="M18,476 l800,0" />
        <path id="Baseline-L" d="M18,546 l800,0" />
    </g>
    <g id="Symbols">
        <g id="Ultralight-S">
            <path d="M305.904,103.202 L265.755,76.323 C265.095,75.883 264.231,75.893 263.583,76.351 C260.363,78.633 255.03,82.184 251.712,84.378 L251.712,80.627 C251.712,79.57 250.855,78.712 249.798,78.712 L241.682,78.712 C240.625,78.712 239.767,79.57 239.767,80.627 L239.767,92.408 L224.073,103.216 C223.384,103.691 223.082,104.56 223.332,105.362 C223.581,106.161 224.321,106.708 225.16,106.708 L232.804,106.708 L232.804,144.086 C232.804,145.143 233.661,146 234.718,146 L295.282,146 C296.338,146 297.196,145.143 297.196,144.086 L297.196,106.708 L304.839,106.708 C305.683,106.708 306.427,106.155 306.672,105.35 C306.917,104.544 306.606,103.671 305.906,103.202 L305.904,103.202 Z M295.282,102.879 C294.225,102.879 293.367,103.737 293.367,104.794 L293.367,142.171 L236.631,142.171 L236.631,104.794 C236.631,103.737 235.773,102.879 234.716,102.879 L231.312,102.879 L242.764,94.992 C243.283,94.635 243.592,94.045 243.592,93.415 L243.592,82.541 L247.879,82.541 L247.879,87.929 C247.879,88.633 248.264,89.279 248.882,89.614 C249.501,89.949 250.252,89.917 250.841,89.533 C250.932,89.473 259.519,83.849 264.71,80.236 L298.534,102.881 L295.276,102.881 L295.282,102.879 Z" />
            <path d="M278.29,114.25 L264.263,114.25 C264.124,114.25 264.012,114.362 264.012,114.501 L264.012,138.56 C264.012,138.699 264.124,138.811 264.263,138.811 L278.29,138.811 C278.428,138.811 278.541,138.699 278.541,138.56 L278.541,114.501 C278.541,114.362 278.428,114.25 278.29,114.25 Z" />
        </g>
        <g id="Regular-S">
            <path d="M505.904,103.202 L465.755,76.323 C465.095,75.883 464.231,75.893 463.583,76.351 C460.363,78.633 455.03,82.184 451.712,84.378 L451.712,80.627 C451.712,79.57 450.855,78.712 449.798,78.712 L441.682,78.712 C440.625,78.712 439.767,79.57 439.767,80.627 L439.767,92.408 L424.073,103.216 C423.384,103.691 423.082,104.56 423.332,105.362 C423.581,106.161 424.321,106.708 425.16,106.708 L432.804,106.708 L432.804,144.086 C432.804,145.143 433.661,146 434.718,146 L495.282,146 C496.338,146 497.196,145.143 497.196,144.086 L497.196,106.708 L504.839,106.708 C505.683,106.708 506.427,106.155 506.672,105.35 C506.917,104.544 506.606,103.671 505.906,103.202 L505.904,103.202 Z M495.282,102.879 C494.225,102.879 493.367,103.737 493.367,104.794 L493.367,142.171 L436.631,142.171 L436.631,104.794 C436.631,103.737 435.773,102.879 434.716,102.879 L431.312,102.879 L442.764,94.992 C443.283,94.635 443.592,94.045 443.592,93.415 L443.592,82.541 L447.879,82.541 L447.879,87.929 C447.879,88.633 448.264,89.279 448.882,89.614 C449.501,89.949 450.252,89.917 450.841,89.533 C450.932,89.473 459.519,83.849 464.71,80.236 L498.534,102.881 L495.276,102.881 L495.282,102.879 Z" />
            <path d="M478.29,114.25 L464.263,114.25 C464.124,114.25 464.012,114.362 464.012,114.501 L464.012,138.56 C464.012,138.699 464.124,138.811 464.263,138.811 L478.29,138.811 C478.428,138.811 478.541,138.699 478.541,138.56 L478.541,114.501 C478.541,114.362 478.428,114.25 478.29,114.25 Z" />
        </g>
        <g id="Black-S">
            <path d="M705.904,103.202 L665.755,76.323 C665.095,75.883 664.231,75.893 663.583,76.351 C660.363,78.633 655.03,82.184 651.712,84.378 L651.712,80.627 C651.712,79.57 650.855,78.712 649.798,78.712 L641.682,78.712 C640.625,78.712 639.767,79.57 639.767,80.627 L639.767,92.408 L624.073,103.216 C623.384,103.691 623.082,104.56 623.332,105.362 C623.581,106.161 624.321,106.708 625.16,106.708 L632.804,106.708 L632.804,144.086 C632.804,145.143 633.661,146 634.718,146 L695.282,146 C696.339,146 697.196,145.143 697.196,144.086 L697.196,106.708 L704.839,106.708 C705.683,106.708 706.427,106.155 706.672,105.35 C706.917,104.544 706.606,103.671 705.906,103.202 L705.904,103.202 Z M695.282,102.879 C694.225,102.879 693.367,103.737 693.367,104.794 L693.367,142.171 L636.631,142.171 L636.631,104.794 C636.631,103.737 635.773,102.879 634.716,102.879 L631.312,102.879 L642.764,94.992 C643.283,94.635 643.592,94.045 643.592,93.415 L643.592,82.541 L647.879,82.541 L647.879,87.929 C647.879,88.633 648.264,89.279 648.882,89.614 C649.501,89.949 650.252,89.917 650.841,89.533 C650.932,89.473 659.519,83.849 664.71,80.236 L698.534,102.881 L695.276,102.881 L695.282,102.879 Z" />
            <path d="M678.29,114.25 L664.263,114.25 C664.124,114.25 664.012,114.362 664.012,114.501 L664.012,138.56 C664.012,138.699 664.124,138.811 664.263,138.811 L678.29,138.811 C678.428,138.811 678.541,138.699 678.541,138.56 L678.541,114.501 C678.541,114.362 678.428,114.25 678.29,114.25 Z" />
        </g>
    </g>
</svg>