<svg width="65" height="65" viewBox="0 0 65 65" fill="none" xmlns="http://www.w3.org/2000/svg">
<g clip-path="url(#clip0_6669_2240)">
<path d="M20.3688 5.58318L20.4448 5.51413C20.8375 5.19395 21.417 5.21713 21.783 5.58318C22.1491 5.94923 22.1723 6.52867 21.8521 6.92144L21.783 6.99739L17.5404 11.24C17.1499 11.6306 16.5167 11.6306 16.1262 11.24C15.7356 10.8495 15.7356 10.2163 16.1262 9.82582L20.3688 5.58318Z" fill="#F5F6F7"/>
<path d="M27.4399 12.6542L27.5158 12.5852C27.9086 12.265 28.488 12.2882 28.8541 12.6542C29.2201 13.0203 29.2433 13.5997 28.9231 13.9925L28.8541 14.0685L24.6114 18.3111C24.2209 18.7016 23.5877 18.7016 23.1972 18.3111C22.8067 17.9206 22.8067 17.2874 23.1972 16.8969L27.4399 12.6542Z" fill="#F5F6F7"/>
<path d="M5.37725 30.4742C2.25307 33.5984 2.25309 38.6638 5.37725 41.788C8.50144 44.9122 13.5668 44.9122 16.691 41.788L28.7781 29.7009L28.7801 29.7029C31.4028 27.1786 35.244 26.6688 38.3592 28.1686L38.672 28.3267C39.3952 28.7127 40.0736 29.2103 40.6815 29.8182L39.2673 31.2325C38.8003 30.7655 38.2812 30.3854 37.7295 30.091L37.4912 29.9702C35.1463 28.8414 32.2659 29.2021 30.2655 31.0488L30.0749 31.2325L18.1052 43.2022C14.1999 47.1074 7.86828 47.1074 3.96304 43.2022C0.0578315 39.2969 0.0578057 32.9653 3.96304 29.06L5.37725 30.4742Z" fill="#F5F6F7"/>
<path d="M9.05502 8.4117C9.44553 8.02119 10.0787 8.02122 10.4692 8.4117L26.0256 23.968C26.4161 24.3586 26.4161 24.9917 26.0256 25.3823C25.6351 25.7727 25.0019 25.7728 24.6114 25.3823L23.5507 24.3216L19.6616 28.2107C16.6931 31.1791 12.2502 31.77 8.6918 29.9881L6.9337 31.7462C6.54318 32.1367 5.91 32.1367 5.51949 31.7462L2.69106 28.9178L2.62201 28.8418C2.30186 28.4491 2.32506 27.8696 2.69106 27.5036L4.44916 25.7455C2.66732 22.1871 3.25818 17.7441 6.2266 14.7757L10.1157 10.8866L9.05502 9.82591C8.66457 9.43541 8.66459 8.80221 9.05502 8.4117ZM7.64081 16.1899C4.71194 19.1188 4.71193 23.8676 7.64081 26.7965C10.5697 29.7254 15.3185 29.7253 18.2474 26.7965L22.1365 22.9074L11.5299 12.3008L7.64081 16.1899ZM6.2266 29.6249L6.9337 28.9178L5.51949 27.5036L4.81238 28.2107L6.2266 29.6249Z" fill="#FEE618"/>
<path d="M35.3182 43.4446C34.8495 42.976 34.0895 42.976 33.6208 43.4446C33.1522 43.9133 33.1522 44.6733 33.6208 45.142C34.0895 45.6106 34.8495 45.6106 35.3182 45.142C35.7868 44.6733 35.7868 43.9133 35.3182 43.4446ZM35.7422 43.0207C36.4451 43.7236 36.4451 44.863 35.7422 45.566C35.0392 46.2689 33.8998 46.2689 33.1968 45.566C32.4939 44.863 32.4939 43.7236 33.1968 43.0207C33.8998 42.3177 35.0392 42.3177 35.7422 43.0207Z" fill="#F5F6F7"/>
<path d="M47.0007 33.7986C46.8649 33.9344 46.7254 34.0362 46.5821 34.1041C46.4388 34.172 46.2757 34.2106 46.0928 34.2201C46.0569 34.2257 46.023 34.2238 45.9909 34.2144C45.9589 34.2012 45.9315 34.1833 45.9089 34.1607C45.8731 34.1248 45.8542 34.0796 45.8523 34.0249C45.8505 33.9702 45.8693 33.9231 45.9089 33.8835C45.9391 33.8533 45.9777 33.8354 46.0249 33.8297C46.1625 33.8241 46.287 33.7996 46.3982 33.7562C46.5114 33.7109 46.6207 33.6355 46.7263 33.5299C46.8017 33.4545 46.8583 33.3734 46.896 33.2867C46.9356 33.1981 46.9535 33.1141 46.9498 33.0349C46.946 32.9558 46.9168 32.8888 46.8621 32.8341C46.7942 32.7662 46.7188 32.7304 46.6358 32.7266C46.5528 32.7191 46.4604 32.738 46.3586 32.7832C46.2568 32.8247 46.1446 32.886 46.022 32.9671C45.9108 33.0444 45.8024 33.1057 45.6968 33.1509C45.5931 33.1943 45.4922 33.2197 45.3941 33.2273C45.2942 33.2329 45.198 33.2179 45.1056 33.182C45.0132 33.1462 44.9246 33.0859 44.8398 33.001C44.7247 32.886 44.6559 32.7568 44.6333 32.6135C44.6107 32.4702 44.6286 32.3241 44.687 32.1751C44.7455 32.0261 44.8398 31.8866 44.9699 31.7565C45.0887 31.6377 45.2188 31.5453 45.3602 31.4793C45.4997 31.4114 45.6327 31.3765 45.759 31.3747C45.8439 31.369 45.9089 31.3888 45.9542 31.4341C45.9881 31.468 46.006 31.5142 46.0079 31.5726C46.0098 31.6273 45.9928 31.6726 45.957 31.7084C45.9306 31.7348 45.9004 31.7499 45.8665 31.7537C45.8043 31.7518 45.7354 31.764 45.66 31.7904C45.5827 31.815 45.5063 31.8479 45.4309 31.8894C45.3574 31.929 45.2942 31.9752 45.2414 32.028C45.1565 32.1129 45.0962 32.1977 45.0604 32.2826C45.0227 32.3656 45.0085 32.4438 45.018 32.5173C45.0255 32.589 45.0566 32.6522 45.1113 32.7068C45.1754 32.771 45.2461 32.8058 45.3234 32.8115C45.4026 32.8153 45.4884 32.7974 45.5808 32.7578C45.6713 32.7163 45.7694 32.6635 45.875 32.5994C46.0013 32.5183 46.1192 32.4513 46.2285 32.3985C46.3398 32.3439 46.4463 32.3109 46.5481 32.2996C46.6481 32.2864 46.7461 32.2977 46.8423 32.3335C46.9385 32.3693 47.0356 32.4363 47.1336 32.5343C47.2468 32.6475 47.3137 32.7785 47.3344 32.9275C47.3552 33.0764 47.3363 33.2273 47.2779 33.38C47.2213 33.5309 47.1289 33.6704 47.0007 33.7986Z" fill="white"/>
<path d="M43.9255 32.8518C43.967 32.8103 44.0141 32.7914 44.0669 32.7952C44.1178 32.7971 44.164 32.8188 44.2055 32.8603L45.2775 33.9322C45.4283 34.0831 45.5302 34.2509 45.583 34.4357C45.6358 34.6205 45.6386 34.8043 45.5914 34.9872C45.5424 35.1683 45.4425 35.3342 45.2916 35.485C45.1427 35.634 44.9767 35.7339 44.7938 35.7849C44.6109 35.832 44.4261 35.8301 44.2395 35.7792C44.0547 35.7264 43.8868 35.6246 43.736 35.4737L42.664 34.4018C42.6225 34.3603 42.6027 34.3122 42.6046 34.2575C42.6046 34.2009 42.6273 34.15 42.6725 34.1048C42.7083 34.0689 42.7545 34.051 42.8111 34.051C42.8677 34.0473 42.9167 34.0661 42.9582 34.1076L44.0302 35.1796C44.1301 35.2795 44.2395 35.3455 44.3583 35.3776C44.477 35.4058 44.5949 35.4049 44.7118 35.3747C44.8268 35.3427 44.9258 35.2852 45.0088 35.2022C45.0993 35.1117 45.1615 35.008 45.1955 34.8911C45.2275 34.7723 45.2294 34.6535 45.2011 34.5347C45.1728 34.4121 45.1087 34.3009 45.0088 34.2009L43.9368 33.129C43.8953 33.0875 43.8727 33.0422 43.8689 32.9932C43.8652 32.9404 43.884 32.8933 43.9255 32.8518Z" fill="white"/>
<path d="M43.5094 37.2334C43.4641 37.2787 43.4141 37.3022 43.3595 37.3041C43.3048 37.3022 43.2567 37.2806 43.2152 37.2391L41.521 35.5449L41.8236 35.2422L43.5179 36.9364C43.5593 36.9779 43.5791 37.0279 43.5772 37.0863C43.5754 37.141 43.5527 37.1901 43.5094 37.2334ZM41.1589 36.1671C41.1193 36.2067 41.0731 36.2284 41.0203 36.2322C40.9657 36.234 40.9176 36.2142 40.8761 36.1728C40.8365 36.1332 40.8186 36.087 40.8224 36.0342C40.8261 35.9814 40.8478 35.9352 40.8874 35.8956L42.1743 34.6086C42.2139 34.569 42.2601 34.5492 42.3129 34.5492C42.3657 34.5455 42.4119 34.5634 42.4515 34.603C42.493 34.6445 42.5119 34.6916 42.5081 34.7444C42.5062 34.7953 42.4855 34.8406 42.4459 34.8802L41.1589 36.1671Z" fill="white"/>
<path d="M40.3987 37.1197L41.2896 39.2835C41.3085 39.3249 41.3151 39.3655 41.3094 39.4051C41.3038 39.4447 41.2868 39.4786 41.2585 39.5069C41.217 39.5484 41.1746 39.5682 41.1312 39.5663C41.086 39.5625 41.0445 39.5437 41.0068 39.5097C40.9936 39.4965 40.9813 39.4786 40.97 39.456L39.9518 37.0009C39.9329 36.9557 39.9273 36.9123 39.9348 36.8708C39.9442 36.8274 39.965 36.7916 39.997 36.7633C40.0253 36.735 40.0602 36.7171 40.1017 36.7096C40.1432 36.7021 40.1846 36.7077 40.2261 36.7266L42.6473 37.7278C42.6737 37.7391 42.6963 37.7542 42.7151 37.7731C42.7566 37.8146 42.7764 37.8626 42.7745 37.9173C42.7727 37.9682 42.7547 38.0107 42.7208 38.0446C42.6925 38.0729 42.6576 38.0908 42.6162 38.0984C42.5747 38.1021 42.5341 38.0955 42.4945 38.0786L40.3336 37.2017L40.3987 37.1197ZM41.0011 38.7687L40.8569 38.3699L41.6573 37.5694L41.9769 37.7929L41.0011 38.7687Z" fill="white"/>
<path d="M40.4515 40.2913C40.4062 40.3366 40.3563 40.3601 40.3016 40.362C40.2469 40.3601 40.1988 40.3385 40.1573 40.297L38.4631 38.6027L38.7658 38.3001L40.46 39.9943C40.5015 40.0358 40.5213 40.0858 40.5194 40.1442C40.5175 40.1989 40.4949 40.2479 40.4515 40.2913ZM38.1011 39.225C38.0615 39.2646 38.0153 39.2863 37.9625 39.2901C37.9078 39.2919 37.8597 39.2721 37.8182 39.2307C37.7786 39.1911 37.7607 39.1449 37.7645 39.0921C37.7683 39.0393 37.79 38.9931 37.8296 38.9535L39.1165 37.6665C39.1561 37.6269 39.2023 37.6071 39.2551 37.6071C39.3079 37.6034 39.3541 37.6213 39.3937 37.6609C39.4352 37.7024 39.454 37.7495 39.4502 37.8023C39.4484 37.8532 39.4276 37.8985 39.388 37.9381L38.1011 39.225Z" fill="white"/>
<path d="M38.9016 41.8978C38.7658 42.0335 38.6263 42.1353 38.4829 42.2032C38.3396 42.2711 38.1765 42.3098 37.9936 42.3192C37.9578 42.3249 37.9239 42.323 37.8918 42.3135C37.8598 42.3003 37.8324 42.2824 37.8098 42.2598C37.774 42.224 37.7551 42.1787 37.7532 42.124C37.7513 42.0693 37.7702 42.0222 37.8098 41.9826C37.84 41.9524 37.8786 41.9345 37.9257 41.9289C38.0634 41.9232 38.1879 41.8987 38.2991 41.8553C38.4122 41.8101 38.5216 41.7347 38.6272 41.6291C38.7026 41.5536 38.7592 41.4726 38.7969 41.3858C38.8365 41.2972 38.8544 41.2133 38.8506 41.1341C38.8469 41.0549 38.8176 40.9879 38.763 40.9333C38.6951 40.8654 38.6197 40.8296 38.5367 40.8258C38.4537 40.8182 38.3613 40.8371 38.2595 40.8824C38.1577 40.9238 38.0455 40.9851 37.9229 41.0662C37.8117 41.1435 37.7032 41.2048 37.5977 41.25C37.4939 41.2934 37.3931 41.3189 37.295 41.3264C37.1951 41.3321 37.0989 41.317 37.0065 41.2812C36.9141 41.2453 36.8255 41.185 36.7406 41.1001C36.6256 40.9851 36.5568 40.856 36.5342 40.7126C36.5115 40.5693 36.5294 40.4232 36.5879 40.2742C36.6464 40.1253 36.7406 39.9857 36.8707 39.8556C36.9895 39.7368 37.1196 39.6444 37.2611 39.5784C37.4006 39.5106 37.5335 39.4757 37.6599 39.4738C37.7447 39.4681 37.8098 39.4879 37.855 39.5332C37.889 39.5671 37.9069 39.6133 37.9088 39.6718C37.9107 39.7265 37.8937 39.7717 37.8579 39.8075C37.8315 39.8339 37.8013 39.849 37.7674 39.8528C37.7051 39.8509 37.6363 39.8632 37.5609 39.8896C37.4836 39.9141 37.4072 39.9471 37.3318 39.9886C37.2582 40.0282 37.1951 40.0744 37.1423 40.1272C37.0574 40.212 36.9971 40.2969 36.9613 40.3817C36.9235 40.4647 36.9094 40.5429 36.9188 40.6165C36.9264 40.6881 36.9575 40.7513 37.0122 40.806C37.0763 40.8701 37.147 40.905 37.2243 40.9106C37.3035 40.9144 37.3893 40.8965 37.4817 40.8569C37.5722 40.8154 37.6702 40.7626 37.7758 40.6985C37.9022 40.6174 38.02 40.5505 38.1294 40.4977C38.2406 40.443 38.3472 40.41 38.449 40.3987C38.5489 40.3855 38.647 40.3968 38.7432 40.4326C38.8393 40.4685 38.9364 40.5354 39.0345 40.6335C39.1476 40.7466 39.2146 40.8776 39.2353 41.0266C39.2561 41.1756 39.2372 41.3264 39.1787 41.4792C39.1222 41.63 39.0298 41.7695 38.9016 41.8978Z" fill="white"/>
<path d="M62.5837 26.8698L55.9353 20.2213C54.7637 19.0497 52.8642 19.0497 51.6926 20.2213L29.0652 42.8487C27.8937 44.0203 27.8937 45.9198 29.0652 47.0914L44.6589 62.685C45.0494 63.0755 45.0494 63.7087 44.6589 64.0992C44.2683 64.4897 43.6352 64.4897 43.2447 64.0992L27.651 48.5056C25.6984 46.5529 25.6984 43.3871 27.651 41.4345L50.2784 18.8071C52.2311 16.8545 55.3969 16.8545 57.3495 18.8071L63.998 25.4555C64.3885 25.8461 64.3885 26.4792 63.998 26.8698C63.6074 27.2603 62.9743 27.2603 62.5837 26.8698Z" fill="#FEE618"/>
</g>
<defs>
<clipPath id="clip0_6669_2240">
<rect width="64" height="64" fill="white" transform="translate(0.327881 0.469238)"/>
</clipPath>
</defs>
</svg>
