<svg width="512" height="512" viewBox="0 0 512 512" fill="none" xmlns="http://www.w3.org/2000/svg">
<path d="M303 358H302.82C300.691 357.961 298.631 357.243 296.939 355.952C295.246 354.66 294.01 352.863 293.41 350.82L261.18 241.26L252.18 261.99C251.401 263.774 250.119 265.292 248.49 266.358C246.861 267.424 244.957 267.991 243.01 267.99H198C195.348 267.99 192.804 266.936 190.929 265.061C189.054 263.186 188 260.642 188 257.99C188 255.338 189.054 252.794 190.929 250.919C192.804 249.044 195.348 247.99 198 247.99H236.44L253.83 207.99C254.65 206.108 256.03 204.524 257.781 203.453C259.532 202.383 261.571 201.877 263.62 202.004C265.669 202.132 267.629 202.887 269.233 204.168C270.838 205.448 272.01 207.191 272.59 209.16L303.59 314.57L363.5 134.82C364.167 132.83 365.444 131.101 367.149 129.877C368.854 128.653 370.901 127.996 373 128H373.05C375.159 128.011 377.21 128.688 378.911 129.934C380.612 131.18 381.875 132.933 382.52 134.94L429.93 282.34L444 253.6C444.825 251.917 446.106 250.5 447.697 249.509C449.288 248.519 451.126 247.996 453 248H501C503.652 248 506.196 249.054 508.071 250.929C509.946 252.804 511 255.348 511 258C511 260.652 509.946 263.196 508.071 265.071C506.196 266.946 503.652 268 501 268H459.23L437 313.4C436.123 315.19 434.73 316.678 433.001 317.671C431.273 318.664 429.286 319.118 427.298 318.974C425.309 318.829 423.409 318.094 421.841 316.862C420.274 315.631 419.11 313.958 418.5 312.06L372.83 170.13L312.49 351.13C311.832 353.128 310.56 354.867 308.856 356.1C307.153 357.334 305.103 357.998 303 358Z" fill="#00D151"/>
<path d="M201.7 120.28C200.371 119.36 198.839 118.775 197.235 118.577C195.631 118.378 194.003 118.571 192.49 119.14L94.19 156H56C53.3478 156 50.8043 157.053 48.9289 158.929C47.0536 160.804 46 163.348 46 166V186H16C13.3478 186 10.8043 187.053 8.92893 188.929C7.05357 190.804 6 193.348 6 196V316C6 318.652 7.05357 321.195 8.92893 323.071C10.8043 324.946 13.3478 326 16 326H46V346C46 348.652 47.0536 351.195 48.9289 353.071C50.8043 354.946 53.3478 356 56 356H94.19L192.49 392.86C193.612 393.283 194.801 393.5 196 393.5C198.652 393.5 201.196 392.446 203.071 390.571C204.946 388.695 206 386.152 206 383.5V128.5C206.001 126.884 205.61 125.293 204.861 123.861C204.112 122.429 203.027 121.201 201.7 120.28ZM26 306V206H46V306H26ZM186 369.07L99.51 336.64C98.3878 336.218 97.1989 336.001 96 336H66V176H96C97.1989 175.999 98.3878 175.782 99.51 175.36L186 142.93V369.07Z" fill="#B4B7BA"/>
</svg>
