<svg width="512" height="512" viewBox="0 0 512 512" fill="none" xmlns="http://www.w3.org/2000/svg">
<path d="M175.359 457C157.7 456.998 140.327 452.536 124.852 444.027C109.378 435.519 96.3022 423.24 86.8393 408.33C77.5061 409.082 68.1144 408.099 59.1393 405.43C47.1252 401.899 36.1582 395.48 27.1957 386.735C18.2332 377.989 11.5476 367.183 7.7226 355.259C3.89758 343.335 3.0494 330.656 5.25212 318.329C7.45484 306.002 12.6415 294.402 20.3593 284.54C7.34045 266.111 0.380088 244.086 0.443793 221.522C0.507498 198.958 7.59211 176.974 20.7148 158.618C33.8375 140.262 52.3476 126.446 73.6773 119.085C95.0071 111.724 118.099 111.185 139.749 117.54C143.136 118.54 146.469 119.7 149.749 121.02C161.344 92.7924 181.871 69.1425 208.186 53.6916C234.502 38.2407 265.157 31.8405 295.456 35.4708C325.756 39.1012 354.031 52.562 375.952 73.7923C397.873 95.0227 412.231 122.852 416.829 153.02C433.424 157.952 448.886 166.103 462.331 177.009C475.776 187.916 486.94 201.364 495.188 216.585C503.436 231.807 508.605 248.503 510.4 265.722C512.195 282.941 510.58 300.345 505.649 316.94C500.718 333.536 492.567 348.997 481.66 362.442C470.754 375.887 457.306 387.052 442.085 395.299C426.863 403.547 410.166 408.716 392.947 410.511C375.728 412.306 358.324 410.691 341.729 405.76C333.693 403.398 325.899 400.28 318.449 396.45C310.507 402.865 301.332 407.579 291.492 410.3C281.652 413.022 271.359 413.692 261.249 412.27C251.583 426.082 238.729 437.359 223.778 445.145C208.826 452.932 192.217 456.998 175.359 457ZM92.1193 387.56C93.9141 387.562 95.6755 388.046 97.2186 388.963C98.7616 389.88 100.03 391.195 100.889 392.77C108.036 405.874 118.514 416.861 131.264 424.621C144.015 432.381 158.587 436.64 173.509 436.967C188.432 437.295 203.177 433.68 216.256 426.487C229.334 419.294 240.284 408.778 247.999 396C249.093 394.185 250.735 392.764 252.689 391.943C254.643 391.121 256.807 390.942 258.869 391.43C267.928 393.603 277.39 393.428 286.362 390.922C295.334 388.416 303.518 383.662 310.139 377.11C311.708 375.57 313.74 374.589 315.922 374.32C318.104 374.05 320.313 374.507 322.209 375.62C336.865 384.239 353.293 389.403 370.245 390.719C387.196 392.036 404.224 389.47 420.035 383.218C435.846 376.966 450.024 367.192 461.491 354.638C472.957 342.084 481.411 327.082 486.209 310.77C494.556 282.325 491.267 251.729 477.065 225.707C462.862 199.686 438.909 180.368 410.469 172C408.799 171.51 407.089 171 405.399 170.64C403.392 170.151 401.585 169.052 400.228 167.494C398.871 165.936 398.029 163.996 397.819 161.94C395.479 138.278 386.11 115.858 370.919 97.5655C355.728 79.2732 335.409 65.9463 312.579 59.3004C250.729 41.1204 184.519 76.3004 164.969 137.67C164.526 139.066 163.782 140.347 162.789 141.423C161.796 142.5 160.579 143.345 159.223 143.899C157.868 144.453 156.407 144.703 154.945 144.631C153.482 144.558 152.053 144.166 150.759 143.48C132.607 133.838 111.67 130.799 91.5257 134.884C71.3815 138.969 53.2815 149.923 40.3197 165.875C27.3579 181.827 20.339 201.786 20.463 222.34C20.5869 242.893 27.846 262.766 40.9993 278.56C42.5889 280.474 43.4082 282.911 43.2973 285.396C43.1863 287.882 42.1531 290.236 40.3993 292C33.5169 298.984 28.562 307.632 26.0179 317.101C23.4738 326.57 23.4273 336.537 25.883 346.029C28.3387 355.522 33.2127 364.216 40.0297 371.263C46.8466 378.31 55.3737 383.471 64.7793 386.24C73.0864 388.709 81.8531 389.215 90.3893 387.72C90.9603 387.617 91.5391 387.564 92.1193 387.56Z" fill="#FCFCFC"/>
<path d="M204.241 199C205.327 199.486 206.272 200.24 206.986 201.192C207.7 202.143 208.159 203.261 208.321 204.44C208.511 205.627 208.446 206.84 208.128 208C207.811 209.159 207.249 210.236 206.481 211.16C205.961 211.914 205.284 212.548 204.497 213.017C203.71 213.487 202.832 213.781 201.921 213.88C200.009 214.084 198.082 213.693 196.401 212.76C193.286 211.154 190.015 209.867 186.641 208.92C183.097 207.943 179.436 207.459 175.761 207.48C170.151 207.407 164.581 208.426 159.361 210.48C154.618 212.38 150.336 215.271 146.801 218.96C143.243 222.693 140.493 227.118 138.721 231.96C136.797 237.294 135.849 242.931 135.921 248.6C135.795 254.682 136.813 260.734 138.921 266.44C140.773 271.353 143.635 275.822 147.321 279.56C150.888 283.132 155.206 285.865 159.961 287.56C165.019 289.356 170.353 290.25 175.721 290.2C179.306 290.203 182.878 289.773 186.361 288.92C189.796 288.08 193.104 286.789 196.201 285.08C197.944 284.164 199.929 283.815 201.881 284.08C202.793 284.208 203.668 284.523 204.453 285.004C205.238 285.486 205.914 286.125 206.441 286.88C207.274 287.784 207.888 288.867 208.235 290.047C208.582 291.226 208.652 292.469 208.441 293.68C208.21 294.804 207.722 295.859 207.014 296.761C206.305 297.664 205.397 298.389 204.361 298.88C201.553 300.431 198.607 301.717 195.561 302.72C192.367 303.786 189.107 304.641 185.801 305.28C182.48 305.935 179.105 306.27 175.721 306.28C168.303 306.296 160.945 304.967 154.001 302.36C147.249 299.85 141.053 296.046 135.761 291.16C130.322 286.107 126.038 279.94 123.201 273.08C120.042 265.312 118.491 256.985 118.641 248.6C118.563 240.797 120.003 233.054 122.881 225.8C125.575 219.002 129.663 212.844 134.881 207.72C140.087 202.625 146.244 198.602 153.001 195.88C160.224 192.996 167.943 191.555 175.721 191.64C180.783 191.628 185.825 192.273 190.721 193.56C195.442 194.786 199.986 196.614 204.241 199Z" fill="#00D151"/>
<path d="M328.56 248.6C328.624 256.328 327.269 264.002 324.56 271.24C322.02 278.018 318.189 284.24 313.28 289.56C308.444 294.773 302.59 298.939 296.08 301.8C289.221 304.704 281.849 306.2 274.4 306.2C266.952 306.2 259.579 304.704 252.72 301.8C246.207 298.945 240.352 294.778 235.52 289.56C230.613 284.254 226.806 278.027 224.32 271.24C219.094 256.599 219.094 240.601 224.32 225.96C226.806 219.173 230.613 212.947 235.52 207.64C240.355 202.425 246.209 198.259 252.72 195.4C259.579 192.496 266.952 191 274.4 191C281.849 191 289.221 192.496 296.08 195.4C302.589 198.264 308.442 202.429 313.28 207.64C318.193 212.972 322.024 219.208 324.56 226C327.264 233.226 328.62 240.886 328.56 248.6ZM311.28 248.6C311.396 241.235 309.779 233.946 306.56 227.32C303.639 221.285 299.149 216.145 293.56 212.44C287.817 208.884 281.196 207 274.44 207C267.685 207 261.064 208.884 255.32 212.44C249.723 216.1 245.228 221.217 242.32 227.24C239.263 233.932 237.68 241.203 237.68 248.56C237.68 255.917 239.263 263.188 242.32 269.88C245.212 275.935 249.708 281.082 255.32 284.76C261.064 288.316 267.685 290.2 274.44 290.2C281.196 290.2 287.817 288.316 293.56 284.76C299.149 281.055 303.639 275.916 306.56 269.88C309.779 263.255 311.396 255.965 311.28 248.6Z" fill="#00D151"/>
<path d="M386.28 322.4C387.168 322.378 388.052 322.537 388.877 322.867C389.703 323.197 390.452 323.691 391.081 324.32C391.709 324.948 392.203 325.698 392.533 326.523C392.863 327.348 393.022 328.232 393 329.12C393.02 329.982 392.86 330.838 392.529 331.633C392.199 332.429 391.705 333.147 391.08 333.74C390.445 334.355 389.693 334.836 388.868 335.156C388.044 335.475 387.164 335.626 386.28 335.6H345.48C344.571 335.647 343.662 335.501 342.813 335.17C341.965 334.838 341.197 334.331 340.56 333.68C339.337 332.34 338.691 330.573 338.76 328.76C338.755 327.781 338.944 326.811 339.315 325.905C339.685 324.999 340.231 324.175 340.92 323.48L367.08 295.48C369.851 292.535 372.206 289.224 374.08 285.64C375.608 282.96 376.492 279.961 376.66 276.88C376.824 273.326 375.573 269.853 373.18 267.22C371.988 266.009 370.555 265.061 368.974 264.437C367.392 263.814 365.698 263.528 364 263.6C362.381 263.622 360.785 263.991 359.32 264.68C357.642 265.45 356.086 266.461 354.7 267.68C353.17 269.013 351.783 270.501 350.56 272.12C349.861 273.19 348.858 274.026 347.68 274.52C346.819 274.825 345.913 274.987 345 275C343.185 274.975 341.447 274.26 340.14 273C339.452 272.442 338.896 271.738 338.512 270.939C338.128 270.14 337.926 269.266 337.92 268.38C337.936 266.933 338.421 265.53 339.3 264.38C340.33 262.957 341.474 261.619 342.72 260.38C344.744 258.361 347 256.589 349.44 255.1C351.847 253.614 354.426 252.425 357.12 251.56C359.599 250.746 362.19 250.321 364.8 250.3C369.658 250.179 374.471 251.272 378.8 253.48C382.675 255.517 385.867 258.646 387.98 262.48C390.224 266.705 391.34 271.438 391.22 276.22C391.22 280.62 389.92 285.52 387.32 290.92C384.608 296.482 381.068 301.601 376.82 306.1L360.62 323.38L359.3 322.3L386.28 322.4Z" fill="#00D151"/>
</svg>
