<svg width="64" height="64" viewBox="0 0 64 64" fill="none" xmlns="http://www.w3.org/2000/svg">
<g clip-path="url(#clip0_6369_14135)">
<path d="M23.7309 33.1775C24.4919 33.1775 25.1088 32.5606 25.1088 31.7996C25.1088 31.0386 24.4919 30.4217 23.7309 30.4217C22.9699 30.4217 22.353 31.0386 22.353 31.7996C22.353 32.5606 22.9699 33.1775 23.7309 33.1775Z" fill="#FCFCFC"/>
<path fill-rule="evenodd" clip-rule="evenodd" d="M5.19727 57.829C5.19727 57.1822 5.72157 56.6579 6.36833 56.6579H18.6778C19.3246 56.6579 19.8489 57.1822 19.8489 57.829C19.8489 58.4757 19.3246 59 18.6778 59H6.36833C5.72157 59 5.19727 58.4757 5.19727 57.829Z" fill="#FCFCFC"/>
<path fill-rule="evenodd" clip-rule="evenodd" d="M5.49023 54.4622C5.49023 53.9771 5.88346 53.5839 6.36853 53.5839H18.678C19.1631 53.5839 19.5563 53.9771 19.5563 54.4622C19.5563 54.9472 19.1631 55.3405 18.678 55.3405H6.36853C5.88346 55.3405 5.49023 54.9472 5.49023 54.4622Z" fill="#FCFCFC"/>
<path fill-rule="evenodd" clip-rule="evenodd" d="M44.1509 57.829C44.1509 57.1822 44.6752 56.6579 45.3219 56.6579H57.6313C58.278 56.6579 58.8023 57.1822 58.8023 57.829C58.8023 58.4757 58.278 59 57.6313 59H45.3219C44.6752 59 44.1509 58.4757 44.1509 57.829Z" fill="#FCFCFC"/>
<path fill-rule="evenodd" clip-rule="evenodd" d="M44.4438 54.4622C44.4438 53.9771 44.8371 53.5839 45.3221 53.5839H57.6315C58.1165 53.5839 58.5098 53.9771 58.5098 54.4622C58.5098 54.9472 58.1165 55.3405 57.6315 55.3405H45.3221C44.8371 55.3405 44.4438 54.9472 44.4438 54.4622Z" fill="#FCFCFC"/>
<path fill-rule="evenodd" clip-rule="evenodd" d="M19.9139 7.34212V56.5267H43.9207V7.34212H19.9139ZM17.5718 7.02345C17.5718 5.90782 18.4796 5 19.5952 5H44.2393C45.355 5 46.2628 5.90782 46.2628 7.02345V56.8454C46.2628 57.9611 45.3547 58.8688 44.2393 58.8688H19.5952C18.4796 58.8688 17.5718 57.961 17.5718 56.8454V7.02345Z" fill="#FCFCFC"/>
<path fill-rule="evenodd" clip-rule="evenodd" d="M27.1353 17.3449C27.1353 16.8598 27.5285 16.4666 28.0136 16.4666H35.6822C36.1673 16.4666 36.5605 16.8598 36.5605 17.3449V20.3054C36.5605 20.7904 36.1673 21.1837 35.6822 21.1837H28.0136C27.5285 21.1837 27.1353 20.7904 27.1353 20.3054V17.3449ZM28.8918 18.2232V19.4271H34.804V18.2232H28.8918Z" fill="#FCFCFC"/>
</g>
<defs>
<clipPath id="clip0_6369_14135">
<rect width="54" height="54" fill="white" transform="translate(5 5)"/>
</clipPath>
</defs>
</svg>
