<svg width="64" height="64" viewBox="0 0 64 64" fill="none" xmlns="http://www.w3.org/2000/svg">
<path d="M24.3431 32.4365C24.993 32.4365 25.5198 31.9097 25.5198 31.2599C25.5198 30.61 24.993 30.0833 24.3431 30.0833C23.6933 30.0833 23.1665 30.61 23.1665 31.2599C23.1665 31.9097 23.6933 32.4365 24.3431 32.4365Z" fill="#050505"/>
<path fill-rule="evenodd" clip-rule="evenodd" d="M8.5166 53.487C8.5166 52.9347 8.96432 52.487 9.5166 52.487H20.028C20.5803 52.487 21.028 52.9347 21.028 53.487C21.028 54.0393 20.5803 54.487 20.028 54.487H9.5166C8.96432 54.487 8.5166 54.0393 8.5166 53.487Z" fill="#FCFCFC"/>
<path fill-rule="evenodd" clip-rule="evenodd" d="M8.7666 50.612C8.7666 50.1978 9.10239 49.862 9.5166 49.862H20.028C20.4422 49.862 20.778 50.1978 20.778 50.612C20.778 51.0262 20.4422 51.362 20.028 51.362H9.5166C9.10239 51.362 8.7666 51.0262 8.7666 50.612Z" fill="#FCFCFC"/>
<path fill-rule="evenodd" clip-rule="evenodd" d="M41.7803 53.487C41.7803 52.9347 42.228 52.487 42.7803 52.487H53.2915C53.8438 52.487 54.2915 52.9347 54.2915 53.487C54.2915 54.0393 53.8438 54.487 53.2915 54.487H42.7803C42.228 54.487 41.7803 54.0393 41.7803 53.487Z" fill="#FCFCFC"/>
<path fill-rule="evenodd" clip-rule="evenodd" d="M42.0303 50.612C42.0303 50.1978 42.3661 49.862 42.7803 49.862H53.2915C53.7057 49.862 54.0415 50.1978 54.0415 50.612C54.0415 51.0262 53.7057 51.362 53.2915 51.362H42.7803C42.3661 51.362 42.0303 51.0262 42.0303 50.612Z" fill="#FCFCFC"/>
<path fill-rule="evenodd" clip-rule="evenodd" d="M21.0835 10.375V52.375H41.5835V10.375H21.0835ZM19.0835 10.1029C19.0835 9.15022 19.8587 8.375 20.8114 8.375H41.8556C42.8083 8.375 43.5835 9.15022 43.5835 10.1029V52.6471C43.5835 53.5999 42.808 54.375 41.8556 54.375H20.8114C19.8587 54.375 19.0835 53.5998 19.0835 52.6471V10.1029Z" fill="#FCFCFC"/>
<path fill-rule="evenodd" clip-rule="evenodd" d="M27.25 18.9166C27.25 18.5024 27.5858 18.1666 28 18.1666H34.5485C34.9627 18.1666 35.2985 18.5024 35.2985 18.9166V21.4446C35.2985 21.8588 34.9627 22.1946 34.5485 22.1946H28C27.5858 22.1946 27.25 21.8588 27.25 21.4446V18.9166ZM28.75 19.6666V20.6946H33.7985V19.6666H28.75Z" fill="#FCFCFC"/>
</svg>
