<svg width="512" height="512" viewBox="0 0 512 512" fill="none" xmlns="http://www.w3.org/2000/svg">
<path d="M372.43 289.62C372.05 289.06 371.41 288.72 370.73 288.72H116.31C115.63 288.72 114.99 289.06 114.61 289.62C114.23 290.18 114.15 290.9 114.4 291.53C114.5 291.78 124.83 317.28 145.7 342.22C172.97 374.8 206 391.97 241.32 391.96C241.96 391.96 242.6 391.96 243.24 391.94H243.77C279.86 392.57 313.58 375.37 341.33 342.21C362.2 317.27 372.53 291.77 372.63 291.52C372.88 290.89 372.81 290.17 372.42 289.61L372.43 289.62Z" fill="#00D151"/>
<path d="M222.43 186.24C220.3 191.1 222.51 196.76 227.37 198.89C228.62 199.44 229.93 199.7 231.22 199.7C234.92 199.7 238.44 197.55 240.02 193.95C242.27 188.82 261.32 143.18 238.02 119.88C234.12 115.98 232.23 112.17 232.24 108.24C232.25 101.5 237.72 95.9 237.93 95.69C241.71 92.02 241.82 85.98 238.17 82.17C234.5 78.34 228.42 78.21 224.6 81.88C223.43 83 213.21 93.21 213.05 107.92C212.98 114.3 214.9 123.91 224.45 133.46C236.39 145.4 226.76 176.35 222.45 186.24H222.43Z" fill="#B4B7BA"/>
<path d="M455.28 280.92C453.86 268.27 444.53 257.71 431.5 254.02C422.89 251.58 414.05 252.45 405.88 256.26C405.54 245.17 404.07 234.17 401.51 223.5C400.47 219.19 396.61 216.15 392.18 216.15H96.1601C91.7201 216.15 87.8601 219.19 86.8301 223.5C83.8701 235.78 82.3801 248.5 82.3801 261.29C82.3801 322.9 116.99 376.57 167.79 403.89H66.2201C62.5501 403.89 59.2101 405.98 57.6001 409.27C55.9901 412.56 56.3901 416.49 58.6501 419.38L78.2301 444.57C78.4701 444.88 78.7401 445.18 79.0201 445.46C89.4301 455.87 103.27 461.6 117.99 461.6H366.76C379.86 461.6 392.56 456.92 402.53 448.42C402.81 448.19 403.07 447.94 403.31 447.67L429.14 420.04C431.75 417.25 432.46 413.17 430.93 409.66C429.41 406.15 425.95 403.88 422.12 403.88H320.55C340.74 393.02 358.37 378 372.29 359.97L433.43 320.24C448.98 310.13 456.94 295.8 455.28 280.92ZM400.01 423.08L389.68 434.14C383.25 439.47 375.13 442.4 366.76 442.4H117.99C108.58 442.4 99.7301 438.81 92.9901 432.28L85.8401 423.09H400.01V423.08ZM244.17 403.88C165.54 403.88 101.57 339.91 101.57 261.28C101.57 252.54 102.36 243.84 103.93 235.34H384.41C385.98 243.84 386.77 252.54 386.77 261.28C386.77 339.91 322.8 403.88 244.17 403.88ZM422.97 304.14L393.64 323.2C399.18 309.87 402.99 295.64 404.78 280.8C411.3 273.47 419.03 270.44 426.26 272.49C431.66 274.02 435.66 278.27 436.19 283.06C437.37 293.56 427.33 301.3 422.96 304.14H422.97Z" fill="#B4B7BA"/>
<path d="M259.1 116.67C258.89 117.02 258.71 117.39 258.55 117.78C256.22 123.32 258.95 128.04 262.47 130.09C263.98 130.97 265.64 131.39 267.29 131.39C270.19 131.39 273.04 130.08 274.91 127.64C275.18 127.28 275.74 126.28 276.43 124.76C276.38 124.91 276.32 125.06 276.26 125.21C276.33 125.04 276.4 124.87 276.46 124.7C280.63 115.53 289.77 88.08 274.2 72.51C271.98 70.29 272.03 68.89 272.04 68.43C272.12 65.8 274.83 62.57 276.15 61.41C280.14 57.97 280.62 51.95 277.21 47.93C273.78 43.89 267.72 43.39 263.68 46.82C262.62 47.72 253.35 55.91 252.87 67.61C252.68 72.31 253.87 79.32 260.63 86.09C267.39 92.86 261.97 110.22 259.12 116.67H259.1Z" fill="#B4B7BA"/>
</svg>
