<svg width="64" height="58" viewBox="0 0 64 58" fill="none" xmlns="http://www.w3.org/2000/svg">
<g clip-path="url(#clip0_6344_14904)">
<path d="M31.9996 0.0945435C32.0788 0.110383 32.1421 0.142063 32.2213 0.157903C38.478 2.07451 44.7189 3.99112 50.9756 5.89189C55.189 7.17491 59.4023 8.47377 63.6315 9.75678C64.0434 9.8835 64.0434 9.8835 63.9483 10.3112C63.7266 11.2457 63.5048 12.1803 63.2989 13.1148C63.2355 13.3999 63.1247 13.4474 62.8554 13.3524C56.1393 11.2932 49.4233 9.23407 42.6914 7.17491C39.2225 6.11364 35.7694 5.06822 32.3005 4.00696C32.0788 3.9436 31.8887 3.9436 31.6828 4.00696C27.3902 5.32166 23.0818 6.63636 18.7892 7.95105C12.8968 9.75679 7.0203 11.5467 1.12792 13.3524C0.890322 13.4316 0.763604 13.3999 0.700245 13.1306C0.478489 12.1486 0.256732 11.1824 0.0191364 10.2003C-0.0442226 9.93102 0.0508154 9.85182 0.288411 9.77262C2.61685 9.07568 4.92945 8.36289 7.2579 7.6501C11.8356 6.2562 16.3974 4.8623 20.9751 3.45257C24.5866 2.34379 28.1822 1.25084 31.7937 0.142062C31.857 0.142062 31.9362 0.110383 31.9996 0.0945435Z" fill="#FCFCFC"/>
<path d="M31.8094 14.2236C41.7409 14.2236 51.6724 14.2236 61.604 14.2236C61.7148 14.2236 61.8257 14.2394 61.9208 14.2236C62.2059 14.1919 62.3009 14.3028 62.3009 14.5721C62.2851 16.3619 62.3009 18.1677 62.3009 19.9576C62.3009 20.7179 62.2851 21.4782 62.3009 22.2385C62.3009 22.4761 62.2059 22.5711 61.9524 22.5553C61.8732 22.5394 61.7782 22.5553 61.699 22.5553C41.7568 22.5553 21.8145 22.5553 1.85646 22.5553C1.19119 22.5553 1.25455 22.6186 1.25455 22.0167C1.25455 19.5616 1.25455 17.1223 1.25455 14.6671C1.25455 14.2394 1.25455 14.2394 1.72974 14.2394C11.7563 14.2236 21.7829 14.2236 31.8094 14.2236ZM31.7461 21.0505C41.2341 21.0505 50.7379 21.0505 60.2259 21.0505C60.6536 21.0505 60.6536 21.0505 60.6536 20.6704C60.6536 19.1339 60.6536 17.5974 60.6536 16.061C60.6536 15.7917 60.5902 15.6967 60.2734 15.6967C41.2816 15.6967 22.2739 15.6967 3.28204 15.6967C2.96524 15.6967 2.88604 15.7917 2.90188 16.061C2.91772 17.5816 2.90188 19.0864 2.90188 20.607C2.90188 21.0347 2.90188 21.0347 3.39292 21.0347C12.8492 21.0505 22.2897 21.0505 31.7461 21.0505Z" fill="#FCFCFC"/>
<path d="M31.8094 23.6957C41.7409 23.6957 51.6724 23.6957 61.604 23.6957C61.7148 23.6957 61.8257 23.7116 61.9208 23.6957C62.2059 23.6641 62.3009 23.7749 62.3009 24.0442C62.2851 25.8341 62.3009 27.6398 62.3009 29.4297C62.3009 30.19 62.2851 30.9504 62.3009 31.7107C62.3009 31.9483 62.2059 32.0433 61.9524 32.0275C61.8732 32.0116 61.7782 32.0275 61.699 32.0275C41.7568 32.0275 21.8145 32.0275 1.85646 32.0275C1.19119 32.0275 1.25455 32.0908 1.25455 31.4889C1.25455 29.0337 1.25455 26.5944 1.25455 24.1393C1.25455 23.7116 1.25455 23.7116 1.72974 23.7116C11.7563 23.6958 21.7829 23.6957 31.8094 23.6957ZM31.7461 30.5227C41.2341 30.5227 50.7379 30.5227 60.2259 30.5227C60.6536 30.5227 60.6536 30.5227 60.6536 30.1425C60.6536 28.6061 60.6536 27.0696 60.6536 25.5332C60.6536 25.2639 60.5902 25.1688 60.2734 25.1688C41.2816 25.1688 22.2739 25.1688 3.28204 25.1688C2.96524 25.1688 2.88604 25.2639 2.90188 25.5332C2.91772 27.0538 2.90188 28.5586 2.90188 30.0792C2.90188 30.5068 2.90188 30.5068 3.39292 30.5068C12.8492 30.5227 22.2897 30.5227 31.7461 30.5227Z" fill="#FCFCFC"/>
<path d="M31.7298 33.0888C41.6613 33.0888 51.5929 33.0888 61.5244 33.0888C61.6353 33.0888 61.7461 33.1046 61.8412 33.0888C62.1263 33.0571 62.2213 33.168 62.2213 33.4372C62.2055 35.2271 62.2213 37.0328 62.2213 38.8227C62.2213 39.583 62.2055 40.3434 62.2213 41.1037C62.2213 41.3413 62.1263 41.4363 61.8728 41.4205C61.7936 41.4046 61.6986 41.4205 61.6194 41.4205C41.6772 41.4205 21.7349 41.4205 1.77687 41.4205C1.1116 41.4205 1.17496 41.4838 1.17496 40.8819C1.17496 38.4267 1.17496 35.9874 1.17496 33.5323C1.17496 33.1046 1.17496 33.1046 1.65015 33.1046C11.6767 33.0888 21.7033 33.0888 31.7298 33.0888ZM31.6665 39.9157C41.1545 39.9157 50.6583 39.9157 60.1463 39.9157C60.574 39.9157 60.574 39.9157 60.574 39.5355C60.574 37.9991 60.574 36.4626 60.574 34.9262C60.574 34.6569 60.5106 34.5618 60.1938 34.5618C41.202 34.5618 22.1943 34.5618 3.20245 34.5618C2.88565 34.5618 2.80645 34.6569 2.82229 34.9262C2.83813 36.4468 2.82229 37.9516 2.82229 39.4722C2.82229 39.8998 2.82229 39.8998 3.31333 39.8998C12.7697 39.9157 22.2101 39.9157 31.6665 39.9157Z" fill="#FCFCFC"/>
<path d="M31.6512 42.5451C41.5827 42.5451 51.5142 42.5451 61.4458 42.5451C61.5566 42.5451 61.6675 42.5609 61.7626 42.5451C62.0477 42.5134 62.1427 42.6243 62.1427 42.8935C62.1269 44.6834 62.1427 46.4892 62.1427 48.279C62.1427 49.0393 62.1269 49.7997 62.1427 50.56C62.1427 50.7976 62.0477 50.8926 61.7942 50.8768C61.715 50.8609 61.62 50.8768 61.5408 50.8768C41.5986 50.8768 21.6563 50.8768 1.69826 50.8768C1.03299 50.8768 1.09635 50.9401 1.09635 50.3382C1.09635 47.883 1.09635 45.4437 1.09635 42.9886C1.09635 42.5609 1.09635 42.5609 1.57154 42.5609C11.5981 42.5451 21.6247 42.5451 31.6512 42.5451ZM31.5878 49.3878C41.0759 49.3878 50.5797 49.3878 60.0677 49.3878C60.4954 49.3878 60.4954 49.3878 60.4954 49.0077C60.4954 47.4712 60.4954 45.9348 60.4954 44.3983C60.4954 44.129 60.432 44.034 60.1152 44.034C41.1234 44.034 22.1157 44.034 3.12384 44.034C2.80704 44.034 2.72784 44.129 2.74368 44.3983C2.75952 45.9189 2.74368 47.4237 2.74368 48.9443C2.74368 49.372 2.74368 49.372 3.23471 49.372C12.691 49.3878 22.1315 49.3878 31.5878 49.3878Z" fill="#FCFCFC"/>
<mask id="mask0_6344_14904" style="mask-type:luminance" maskUnits="userSpaceOnUse" x="1" y="50" width="62" height="10">
<path d="M62.1425 50.7184H1.25293V59.9054H62.1425V50.7184Z" fill="white"/>
</mask>
<g mask="url(#mask0_6344_14904)">
<path d="M49.7402 56.7533C48.7423 56.7533 47.7444 56.7533 46.7624 56.7533C45.907 56.7533 45.3209 56.1831 45.2576 55.3277C45.2259 54.8209 45.2259 54.805 44.7349 54.7575C44.0538 54.6941 43.3568 54.6466 42.6757 54.6149C41.1868 54.5516 39.6978 54.5199 38.2089 54.4724C34.1698 54.3615 30.1465 54.3773 26.1073 54.4249C23.4621 54.4565 20.8169 54.5357 18.1875 54.7733C17.9182 54.7892 17.8073 54.8842 17.8232 55.1693C17.8548 56.1197 17.0787 56.785 16.2075 56.7691C14.2592 56.7216 12.3109 56.7216 10.3626 56.7691C9.50729 56.785 8.84202 55.9613 8.85786 55.2327C8.8737 53.8705 8.92122 52.5083 8.81034 51.1302C8.68362 49.6096 8.57274 48.089 8.44602 46.5684C8.33515 45.0794 8.33515 43.5905 8.46186 42.0857C8.52522 41.262 8.62026 40.4384 8.85786 39.6464C9.20633 38.5059 9.68152 37.4605 10.6161 36.7002C10.8061 36.5418 10.7269 36.4784 10.5527 36.3992C9.90328 36.1141 9.28553 35.7973 8.85786 35.1954C8.25595 34.3401 8.28763 33.8015 9.28553 33.2155C9.99832 32.8036 10.822 32.6927 11.6457 32.5977C12.1208 32.5343 12.596 32.5185 13.0712 32.471C13.3563 32.4393 13.5623 32.5343 13.7365 32.7719C13.8949 32.9779 14.0533 33.1838 14.1958 33.3897C14.3226 33.5798 14.4176 33.5639 14.481 33.3422C14.7819 32.5027 15.1304 31.6632 15.5105 30.8553C16.1917 29.3822 16.8728 27.9091 17.8548 26.6261C18.4092 25.8975 19.1378 25.4381 20.0249 25.2481C22.2266 24.7887 24.4442 24.4719 26.6934 24.3135C28.3407 24.1868 29.9881 24.0759 31.6354 24.0759C35.3736 24.0759 39.0642 24.4561 42.7391 25.153C44.0538 25.4065 45.0517 26.1351 45.7486 27.2756C46.8891 29.1288 47.8078 31.1088 48.5839 33.1521C48.6156 33.2155 48.6314 33.2947 48.6631 33.358C48.7265 33.5481 48.8215 33.5323 48.9324 33.3897C49.1066 33.1521 49.2809 32.9303 49.4551 32.6927C49.566 32.5502 49.6927 32.4393 49.8828 32.4552C51.1816 32.5185 52.4805 32.6135 53.716 33.1204C53.7794 33.1521 53.8269 33.1679 53.8902 33.1996C54.7297 33.659 54.8881 34.3084 54.3496 35.1004C53.9219 35.7181 53.3042 36.0666 52.6389 36.3517C52.3221 36.4943 52.3063 36.4943 52.5597 36.716C53.7002 37.7139 54.207 39.0603 54.4446 40.5176C54.7773 42.4342 54.7773 44.3666 54.6664 46.3149C54.508 49.2453 54.112 52.1598 54.2546 55.106C54.2862 55.692 54.0486 56.1514 53.5734 56.4999C53.3675 56.6583 53.1458 56.7216 52.8923 56.7216C51.8152 56.7533 50.7856 56.7533 49.7402 56.7533ZM31.1602 26.5944C30.685 26.642 29.8772 26.5944 29.0535 26.642C28.2774 26.6895 27.4854 26.737 26.7092 26.8004C24.8243 26.9429 22.9552 27.2597 21.0861 27.5448C20.3575 27.6557 19.7714 27.925 19.3596 28.6061C18.3617 30.2693 17.538 32.0275 16.8411 33.849C16.7302 34.1342 16.7619 34.1658 17.0628 34.1342C18.2033 33.9916 19.3279 33.9124 20.4684 33.849C22.3533 33.7698 24.2541 33.6748 26.139 33.659C29.5921 33.6273 33.061 33.5956 36.514 33.6906C38.3356 33.7382 40.173 33.754 41.9946 33.8332C43.3093 33.8966 44.6082 33.9916 45.9229 34.1183C46.2555 34.15 46.2872 34.1183 46.1763 33.8015C45.5744 32.2176 44.8299 30.6969 44.0379 29.1922C43.5152 28.1784 42.8024 27.6557 41.662 27.4815C38.3039 26.9429 34.9142 26.5944 31.1602 26.5944ZM16.0174 45.8714C16.0174 45.8556 16.0174 45.8556 16.0174 45.8714C16.6985 45.8556 17.3955 45.8872 18.0766 45.8556C19.0111 45.808 19.423 45.1586 19.1062 44.2558C18.7894 43.3529 18.1558 42.8302 17.2529 42.6718C15.8115 42.4025 14.3542 42.2124 12.8812 42.0699C11.9149 41.9907 11.4239 42.6401 11.6773 43.6063C11.7565 43.8914 11.8832 44.1607 11.9941 44.4142C12.4218 45.3645 13.1346 45.8397 14.1483 45.8556C14.7661 45.8714 15.3838 45.8714 16.0174 45.8714ZM47.0316 45.8714C47.586 45.8714 48.1246 45.8714 48.679 45.8714C48.869 45.8714 49.0591 45.8556 49.2492 45.8397C50.5956 45.6813 51.245 44.3825 51.3876 43.3054C51.4984 42.5292 51.15 42.1491 50.3897 42.0699C50.2471 42.054 50.0887 42.0699 49.9461 42.0857C49.471 42.1332 48.9958 42.1807 48.5206 42.2441C47.5543 42.3867 46.5564 42.45 45.6061 42.6876C44.7666 42.9094 44.1805 43.4321 43.9112 44.2874C43.6578 45.0636 44.0062 45.6813 44.7982 45.8239C44.9883 45.8556 45.1784 45.8556 45.3685 45.8714C45.9387 45.8714 46.4931 45.8714 47.0316 45.8714ZM46.208 47.6296C45.4793 47.6296 44.7507 47.6296 44.0221 47.6296C43.8003 47.6296 43.5786 47.6613 43.3885 47.788C42.945 48.0731 42.945 48.6434 43.4043 48.9285C43.5944 49.0394 43.8162 49.1027 44.0379 49.1027C45.4793 49.1027 46.9366 49.1186 48.378 49.1027C48.679 49.1027 48.9641 49.0235 49.2017 48.8176C49.5343 48.5166 49.5026 48.1207 49.1383 47.8672C48.9166 47.7088 48.679 47.6455 48.4255 47.6455C47.6811 47.6296 46.9366 47.6296 46.208 47.6296ZM16.8252 47.6296C16.1441 47.6296 15.4472 47.6296 14.7661 47.6296C14.5443 47.6296 14.3226 47.6455 14.1167 47.7563C13.8791 47.8672 13.7048 48.0573 13.689 48.3582C13.6731 48.6592 13.8474 48.8493 14.085 48.9602C14.2909 49.0552 14.5126 49.1186 14.7344 49.1186C16.1441 49.1186 17.5697 49.1186 18.9795 49.1186C19.2646 49.1186 19.5497 49.0235 19.7873 48.8651C20.1674 48.5958 20.1674 48.1682 19.7873 47.8989C19.518 47.7088 19.2012 47.6455 18.8844 47.6455C18.2033 47.6296 17.5064 47.6296 16.8252 47.6296Z" fill="#FCFCFC"/>
<path d="M5.45224 40.375C5.45224 45.6813 5.45224 50.9718 5.45224 56.2781C5.45224 56.7533 5.45224 56.7533 4.97705 56.7533C4.18506 56.7533 3.39308 56.7375 2.60109 56.7533C2.30013 56.7533 2.22094 56.6583 2.22094 56.3573C2.23678 53.6962 2.22094 51.0193 2.22094 48.3582C2.22094 40.4225 2.22094 32.4868 2.22094 24.5511C2.22094 24.4244 2.22094 24.3135 2.22094 24.1868C2.2051 23.9809 2.30013 23.9017 2.50605 23.9017C3.39308 23.9017 4.2801 23.9017 5.16713 23.9017C5.37304 23.9017 5.45224 23.9809 5.4364 24.1868C5.4364 24.2977 5.4364 24.4085 5.4364 24.5194C5.45224 29.8257 5.45224 35.1004 5.45224 40.375Z" fill="#FCFCFC"/>
<path d="M57.7397 40.3433C57.7397 35.037 57.7397 29.7149 57.7397 24.4085C57.7397 23.9333 57.7397 23.9333 58.1991 23.9333C58.9911 23.9333 59.7831 23.9492 60.5751 23.9333C60.8602 23.9333 60.9552 24.0284 60.9552 24.3293C60.9394 26.4835 60.9552 28.6219 60.9552 30.7761C60.9552 39.2345 60.9552 47.693 60.9552 56.1514C60.9552 56.2781 60.9552 56.389 60.9552 56.5157C60.9711 56.7216 60.8919 56.8008 60.6859 56.8008C59.7989 56.8008 58.9119 56.8008 58.0249 56.8008C57.8189 56.8008 57.7397 56.7216 57.7397 56.5157C57.7397 56.4048 57.7397 56.2939 57.7397 56.1831C57.7397 50.8767 57.7397 45.618 57.7397 40.3433Z" fill="#FCFCFC"/>
</g>
</g>
<defs>
<clipPath id="clip0_6344_14904">
<rect width="64" height="58" fill="white"/>
</clipPath>
</defs>
</svg>
