<svg width="64" height="64" viewBox="0 0 64 64" fill="none" xmlns="http://www.w3.org/2000/svg">
<path d="M31.9748 9.925C32.0373 9.9375 32.0873 9.9625 32.1498 9.975C37.0873 11.4875 42.0123 13 46.9498 14.5C50.2748 15.5125 53.5998 16.5375 56.9373 17.55C57.2623 17.65 57.2623 17.65 57.1873 17.9875C57.0123 18.725 56.8373 19.4625 56.6748 20.2C56.6248 20.425 56.5373 20.4625 56.3248 20.3875C51.0248 18.7625 45.7248 17.1375 40.4123 15.5125C37.6748 14.675 34.9498 13.85 32.2123 13.0125C32.0373 12.9625 31.8873 12.9625 31.7248 13.0125C28.3373 14.05 24.9373 15.0875 21.5498 16.125C16.8998 17.55 12.2623 18.9625 7.61227 20.3875C7.42477 20.45 7.32477 20.425 7.27477 20.2125C7.09977 19.4375 6.92477 18.675 6.73727 17.9C6.68727 17.6875 6.76227 17.625 6.94977 17.5625C8.78727 17.0125 10.6123 16.45 12.4498 15.8875C16.0623 14.7875 19.6623 13.6875 23.2748 12.575C26.1248 11.7 28.9623 10.8375 31.8123 9.9625C31.8623 9.9625 31.9248 9.9375 31.9748 9.925Z" fill="#282828"/>
<path d="M31.8247 21.075C39.6622 21.075 47.4997 21.075 55.3372 21.075C55.4247 21.075 55.5122 21.0875 55.5872 21.075C55.8122 21.05 55.8872 21.1375 55.8872 21.35C55.8747 22.7625 55.8872 24.1875 55.8872 25.6C55.8872 26.2 55.8747 26.8 55.8872 27.4C55.8872 27.5875 55.8122 27.6625 55.6122 27.65C55.5497 27.6375 55.4747 27.65 55.4122 27.65C39.6747 27.65 23.9372 27.65 8.18722 27.65C7.66222 27.65 7.71222 27.7 7.71222 27.225C7.71222 25.2875 7.71222 23.3625 7.71222 21.425C7.71222 21.0875 7.71222 21.0875 8.08722 21.0875C15.9997 21.075 23.9122 21.075 31.8247 21.075ZM31.7747 26.4625C39.2622 26.4625 46.7622 26.4625 54.2497 26.4625C54.5872 26.4625 54.5872 26.4625 54.5872 26.1625C54.5872 24.95 54.5872 23.7375 54.5872 22.525C54.5872 22.3125 54.5372 22.2375 54.2872 22.2375C39.2997 22.2375 24.2997 22.2375 9.31222 22.2375C9.06222 22.2375 8.99972 22.3125 9.01222 22.525C9.02472 23.725 9.01222 24.9125 9.01222 26.1125C9.01222 26.45 9.01222 26.45 9.39972 26.45C16.8622 26.4625 24.3122 26.4625 31.7747 26.4625Z" fill="#282828"/>
<path d="M31.8247 28.55C39.6622 28.55 47.4997 28.55 55.3372 28.55C55.4247 28.55 55.5122 28.5625 55.5872 28.55C55.8122 28.525 55.8872 28.6125 55.8872 28.825C55.8747 30.2375 55.8872 31.6625 55.8872 33.075C55.8872 33.675 55.8747 34.275 55.8872 34.875C55.8872 35.0625 55.8122 35.1375 55.6122 35.125C55.5497 35.1125 55.4747 35.125 55.4122 35.125C39.6747 35.125 23.9372 35.125 8.18722 35.125C7.66222 35.125 7.71222 35.175 7.71222 34.7C7.71222 32.7625 7.71222 30.8375 7.71222 28.9C7.71222 28.5625 7.71222 28.5625 8.08722 28.5625C15.9997 28.55 23.9122 28.55 31.8247 28.55ZM31.7747 33.9375C39.2622 33.9375 46.7622 33.9375 54.2497 33.9375C54.5872 33.9375 54.5872 33.9375 54.5872 33.6375C54.5872 32.425 54.5872 31.2125 54.5872 30C54.5872 29.7875 54.5372 29.7125 54.2872 29.7125C39.2997 29.7125 24.2997 29.7125 9.31222 29.7125C9.06222 29.7125 8.99972 29.7875 9.01222 30C9.02472 31.2 9.01222 32.3875 9.01222 33.5875C9.01222 33.925 9.01222 33.925 9.39972 33.925C16.8622 33.9375 24.3122 33.9375 31.7747 33.9375Z" fill="#282828"/>
<path d="M31.7622 35.9625C39.5997 35.9625 47.4372 35.9625 55.2747 35.9625C55.3622 35.9625 55.4497 35.975 55.5247 35.9625C55.7497 35.9375 55.8247 36.025 55.8247 36.2375C55.8122 37.65 55.8247 39.075 55.8247 40.4875C55.8247 41.0875 55.8122 41.6875 55.8247 42.2875C55.8247 42.475 55.7497 42.55 55.5497 42.5375C55.4872 42.525 55.4122 42.5375 55.3497 42.5375C39.6122 42.5375 23.8747 42.5375 8.12472 42.5375C7.59972 42.5375 7.64972 42.5875 7.64972 42.1125C7.64972 40.175 7.64972 38.25 7.64972 36.3125C7.64972 35.975 7.64972 35.975 8.02472 35.975C15.9372 35.9625 23.8497 35.9625 31.7622 35.9625ZM31.7122 41.35C39.1997 41.35 46.6997 41.35 54.1872 41.35C54.5247 41.35 54.5247 41.35 54.5247 41.05C54.5247 39.8375 54.5247 38.625 54.5247 37.4125C54.5247 37.2 54.4747 37.125 54.2247 37.125C39.2372 37.125 24.2372 37.125 9.24972 37.125C8.99972 37.125 8.93722 37.2 8.94972 37.4125C8.96222 38.6125 8.94972 39.8 8.94972 41C8.94972 41.3375 8.94972 41.3375 9.33722 41.3375C16.7997 41.35 24.2497 41.35 31.7122 41.35Z" fill="#282828"/>
<path d="M31.6997 43.425C39.5372 43.425 47.3747 43.425 55.2122 43.425C55.2997 43.425 55.3872 43.4375 55.4622 43.425C55.6872 43.4 55.7622 43.4875 55.7622 43.7C55.7497 45.1125 55.7622 46.5375 55.7622 47.95C55.7622 48.55 55.7497 49.15 55.7622 49.75C55.7622 49.9375 55.6872 50.0125 55.4872 50C55.4247 49.9875 55.3497 50 55.2872 50C39.5497 50 23.8122 50 8.06222 50C7.53722 50 7.58722 50.05 7.58722 49.575C7.58722 47.6375 7.58722 45.7125 7.58722 43.775C7.58722 43.4375 7.58722 43.4375 7.96222 43.4375C15.8747 43.425 23.7872 43.425 31.6997 43.425ZM31.6497 48.825C39.1372 48.825 46.6372 48.825 54.1247 48.825C54.4622 48.825 54.4622 48.825 54.4622 48.525C54.4622 47.3125 54.4622 46.1 54.4622 44.8875C54.4622 44.675 54.4122 44.6 54.1622 44.6C39.1747 44.6 24.1747 44.6 9.18722 44.6C8.93722 44.6 8.87472 44.675 8.88722 44.8875C8.89972 46.0875 8.88722 47.275 8.88722 48.475C8.88722 48.8125 8.88722 48.8125 9.27472 48.8125C16.7372 48.825 24.1872 48.825 31.6497 48.825Z" fill="#282828"/>
<mask id="mask0_5611_3347" style="mask-type:luminance" maskUnits="userSpaceOnUse" x="2" y="49" width="58" height="9">
<path d="M59.1875 49.875H2.4375V57.125H59.1875V49.875Z" fill="white"/>
</mask>
<g mask="url(#mask0_5611_3347)">
<path d="M45.9749 54.6375C45.1874 54.6375 44.3999 54.6375 43.6249 54.6375C42.9499 54.6375 42.4874 54.1875 42.4374 53.5125C42.4124 53.1125 42.4124 53.1 42.0249 53.0625C41.4874 53.0125 40.9374 52.975 40.3999 52.95C39.2249 52.9 38.0499 52.875 36.8749 52.8375C33.6874 52.75 30.5124 52.7625 27.3249 52.8C25.2374 52.825 23.1499 52.8875 21.0749 53.075C20.8624 53.0875 20.7749 53.1625 20.7874 53.3875C20.8124 54.1375 20.1999 54.6625 19.5124 54.65C17.9749 54.6125 16.4374 54.6125 14.8999 54.65C14.2249 54.6625 13.6999 54.0125 13.7124 53.4375C13.7249 52.3625 13.7624 51.2875 13.6749 50.2C13.5749 49 13.4874 47.8 13.3874 46.6C13.2999 45.425 13.2999 44.25 13.3999 43.0625C13.4499 42.4125 13.5249 41.7625 13.7124 41.1375C13.9874 40.2375 14.3624 39.4125 15.0999 38.8125C15.2499 38.6875 15.1874 38.6375 15.0499 38.575C14.5374 38.35 14.0499 38.1 13.7124 37.625C13.2374 36.95 13.2624 36.525 14.0499 36.0625C14.6124 35.7375 15.2624 35.65 15.9124 35.575C16.2874 35.525 16.6624 35.5125 17.0374 35.475C17.2624 35.45 17.4249 35.525 17.5624 35.7125C17.6874 35.875 17.8124 36.0375 17.9249 36.2C18.0249 36.35 18.0999 36.3375 18.1499 36.1625C18.3874 35.5 18.6624 34.8375 18.9624 34.2C19.4999 33.0375 20.0374 31.875 20.8124 30.8625C21.2499 30.2875 21.8249 29.925 22.5249 29.775C24.2624 29.4125 26.0124 29.1625 27.7874 29.0375C29.0874 28.9375 30.3874 28.85 31.6874 28.85C34.6374 28.85 37.5499 29.15 40.4499 29.7C41.4874 29.9 42.2749 30.475 42.8249 31.375C43.7249 32.8375 44.4499 34.4 45.0624 36.0125C45.0874 36.0625 45.0999 36.125 45.1249 36.175C45.1749 36.325 45.2499 36.3125 45.3374 36.2C45.4749 36.0125 45.6124 35.8375 45.7499 35.65C45.8374 35.5375 45.9374 35.45 46.0874 35.4625C47.1124 35.5125 48.1374 35.5875 49.1124 35.9875C49.1624 36.0125 49.1999 36.025 49.2499 36.05C49.9124 36.4125 50.0374 36.925 49.6124 37.55C49.2749 38.0375 48.7874 38.3125 48.2624 38.5375C48.0124 38.65 47.9999 38.65 48.1999 38.825C49.0999 39.6125 49.4999 40.675 49.6874 41.825C49.9499 43.3375 49.9499 44.8625 49.8624 46.4C49.7374 48.7125 49.4249 51.0125 49.5374 53.3375C49.5624 53.8 49.3749 54.1625 48.9999 54.4375C48.8374 54.5625 48.6624 54.6125 48.4624 54.6125C47.6124 54.6375 46.7999 54.6375 45.9749 54.6375ZM31.3124 30.8375C30.9374 30.875 30.2999 30.8375 29.6499 30.875C29.0374 30.9125 28.4124 30.95 27.7999 31C26.3124 31.1125 24.8374 31.3625 23.3624 31.5875C22.7874 31.675 22.3249 31.8875 21.9999 32.425C21.2124 33.7375 20.5624 35.125 20.0124 36.5625C19.9249 36.7875 19.9499 36.8125 20.1874 36.7875C21.0874 36.675 21.9749 36.6125 22.8749 36.5625C24.3624 36.5 25.8624 36.425 27.3499 36.4125C30.0749 36.3875 32.8124 36.3625 35.5374 36.4375C36.9749 36.475 38.4249 36.4875 39.8624 36.55C40.8999 36.6 41.9249 36.675 42.9624 36.775C43.2249 36.8 43.2499 36.775 43.1624 36.525C42.6874 35.275 42.0999 34.075 41.4749 32.8875C41.0624 32.0875 40.4999 31.675 39.5999 31.5375C36.9499 31.1125 34.2749 30.8375 31.3124 30.8375ZM19.3624 46.05C19.3624 46.0375 19.3624 46.0375 19.3624 46.05C19.8999 46.0375 20.4499 46.0625 20.9874 46.0375C21.7249 46 22.0499 45.4875 21.7999 44.775C21.5499 44.0625 21.0499 43.65 20.3374 43.525C19.1999 43.3125 18.0499 43.1625 16.8874 43.05C16.1249 42.9875 15.7374 43.5 15.9374 44.2625C15.9999 44.4875 16.0999 44.7 16.1874 44.9C16.5249 45.65 17.0874 46.025 17.8874 46.0375C18.3749 46.05 18.8624 46.05 19.3624 46.05ZM43.8374 46.05C44.2749 46.05 44.6999 46.05 45.1374 46.05C45.2874 46.05 45.4374 46.0375 45.5874 46.025C46.6499 45.9 47.1624 44.875 47.2749 44.025C47.3624 43.4125 47.0874 43.1125 46.4874 43.05C46.3749 43.0375 46.2499 43.05 46.1374 43.0625C45.7624 43.1 45.3874 43.1375 45.0124 43.1875C44.2499 43.3 43.4624 43.35 42.7124 43.5375C42.0499 43.7125 41.5874 44.125 41.3749 44.8C41.1749 45.4125 41.4499 45.9 42.0749 46.0125C42.2249 46.0375 42.3749 46.0375 42.5249 46.05C42.9749 46.05 43.4124 46.05 43.8374 46.05ZM43.1874 47.4375C42.6124 47.4375 42.0374 47.4375 41.4624 47.4375C41.2874 47.4375 41.1124 47.4625 40.9624 47.5625C40.6124 47.7875 40.6124 48.2375 40.9749 48.4625C41.1249 48.55 41.2999 48.6 41.4749 48.6C42.6124 48.6 43.7624 48.6125 44.8999 48.6C45.1374 48.6 45.3624 48.5375 45.5499 48.375C45.8124 48.1375 45.7874 47.825 45.4999 47.625C45.3249 47.5 45.1374 47.45 44.9374 47.45C44.3499 47.4375 43.7624 47.4375 43.1874 47.4375ZM19.9999 47.4375C19.4624 47.4375 18.9124 47.4375 18.3749 47.4375C18.1999 47.4375 18.0249 47.45 17.8624 47.5375C17.6749 47.625 17.5374 47.775 17.5249 48.0125C17.5124 48.25 17.6499 48.4 17.8374 48.4875C17.9999 48.5625 18.1749 48.6125 18.3499 48.6125C19.4624 48.6125 20.5874 48.6125 21.6999 48.6125C21.9249 48.6125 22.1499 48.5375 22.3374 48.4125C22.6374 48.2 22.6374 47.8625 22.3374 47.65C22.1249 47.5 21.8749 47.45 21.6249 47.45C21.0874 47.4375 20.5374 47.4375 19.9999 47.4375Z" fill="#282828"/>
<path d="M11.025 41.7125C11.025 45.9 11.025 50.075 11.025 54.2625C11.025 54.6375 11.025 54.6375 10.65 54.6375C10.025 54.6375 9.39997 54.625 8.77497 54.6375C8.53747 54.6375 8.47497 54.5625 8.47497 54.325C8.48747 52.225 8.47497 50.1125 8.47497 48.0125C8.47497 41.75 8.47497 35.4875 8.47497 29.225C8.47497 29.125 8.47497 29.0375 8.47497 28.9375C8.46247 28.775 8.53747 28.7125 8.69997 28.7125C9.39997 28.7125 10.1 28.7125 10.8 28.7125C10.9625 28.7125 11.025 28.775 11.0125 28.9375C11.0125 29.025 11.0125 29.1125 11.0125 29.2C11.025 33.3875 11.025 37.55 11.025 41.7125Z" fill="#282828"/>
<path d="M52.2876 41.6875C52.2876 37.5 52.2876 33.3 52.2876 29.1125C52.2876 28.7375 52.2876 28.7375 52.6501 28.7375C53.2751 28.7375 53.9001 28.75 54.5251 28.7375C54.7501 28.7375 54.8251 28.8125 54.8251 29.05C54.8126 30.75 54.8251 32.4375 54.8251 34.1375C54.8251 40.8125 54.8251 47.4875 54.8251 54.1625C54.8251 54.2625 54.8251 54.35 54.8251 54.45C54.8376 54.6125 54.7751 54.675 54.6126 54.675C53.9126 54.675 53.2126 54.675 52.5126 54.675C52.3501 54.675 52.2876 54.6125 52.2876 54.45C52.2876 54.3625 52.2876 54.275 52.2876 54.1875C52.2876 50 52.2876 45.85 52.2876 41.6875Z" fill="#282828"/>
</g>
</svg>
