<svg width="64" height="64" viewBox="0 0 64 64" fill="none" xmlns="http://www.w3.org/2000/svg">
<path d="M31.9996 2.09454C32.0788 2.11038 32.1421 2.14206 32.2213 2.1579C38.478 4.07451 44.7189 5.99112 50.9756 7.89189C55.189 9.17491 59.4023 10.4738 63.6315 11.7568C64.0434 11.8835 64.0434 11.8835 63.9483 12.3112C63.7266 13.2457 63.5048 14.1803 63.2989 15.1148C63.2355 15.3999 63.1247 15.4474 62.8554 15.3524C56.1393 13.2932 49.4233 11.2341 42.6914 9.17491C39.2225 8.11364 35.7694 7.06822 32.3005 6.00696C32.0788 5.9436 31.8887 5.9436 31.6828 6.00696C27.3902 7.32166 23.0818 8.63636 18.7892 9.95105C12.8968 11.7568 7.0203 13.5467 1.12792 15.3524C0.890322 15.4316 0.763604 15.3999 0.700245 15.1306C0.478489 14.1486 0.256732 13.1824 0.0191364 12.2003C-0.0442226 11.931 0.0508154 11.8518 0.288411 11.7726C2.61685 11.0757 4.92945 10.3629 7.2579 9.6501C11.8356 8.2562 16.3974 6.8623 20.9751 5.45257C24.5866 4.34379 28.1822 3.25084 31.7937 2.14206C31.857 2.14206 31.9362 2.11038 31.9996 2.09454Z" fill="#FCFCFC"/>
<path d="M31.8094 16.2236C41.7409 16.2236 51.6724 16.2236 61.604 16.2236C61.7148 16.2236 61.8257 16.2394 61.9208 16.2236C62.2059 16.1919 62.3009 16.3028 62.3009 16.5721C62.2851 18.3619 62.3009 20.1677 62.3009 21.9576C62.3009 22.7179 62.2851 23.4782 62.3009 24.2385C62.3009 24.4761 62.2059 24.5711 61.9524 24.5553C61.8732 24.5394 61.7782 24.5553 61.699 24.5553C41.7568 24.5553 21.8145 24.5553 1.85646 24.5553C1.19119 24.5553 1.25455 24.6186 1.25455 24.0167C1.25455 21.5616 1.25455 19.1223 1.25455 16.6671C1.25455 16.2394 1.25455 16.2394 1.72974 16.2394C11.7563 16.2236 21.7829 16.2236 31.8094 16.2236ZM31.7461 23.0505C41.2341 23.0505 50.7379 23.0505 60.2259 23.0505C60.6536 23.0505 60.6536 23.0505 60.6536 22.6704C60.6536 21.1339 60.6536 19.5974 60.6536 18.061C60.6536 17.7917 60.5902 17.6967 60.2734 17.6967C41.2816 17.6967 22.2739 17.6967 3.28204 17.6967C2.96524 17.6967 2.88604 17.7917 2.90188 18.061C2.91772 19.5816 2.90188 21.0864 2.90188 22.607C2.90188 23.0347 2.90188 23.0347 3.39292 23.0347C12.8492 23.0505 22.2897 23.0505 31.7461 23.0505Z" fill="#FCFCFC"/>
<path d="M31.8094 25.6957C41.7409 25.6957 51.6724 25.6957 61.604 25.6957C61.7148 25.6957 61.8257 25.7116 61.9208 25.6957C62.2059 25.6641 62.3009 25.7749 62.3009 26.0442C62.2851 27.8341 62.3009 29.6398 62.3009 31.4297C62.3009 32.19 62.2851 32.9504 62.3009 33.7107C62.3009 33.9483 62.2059 34.0433 61.9524 34.0275C61.8732 34.0116 61.7782 34.0275 61.699 34.0275C41.7568 34.0275 21.8145 34.0275 1.85646 34.0275C1.19119 34.0275 1.25455 34.0908 1.25455 33.4889C1.25455 31.0337 1.25455 28.5944 1.25455 26.1393C1.25455 25.7116 1.25455 25.7116 1.72974 25.7116C11.7563 25.6958 21.7829 25.6957 31.8094 25.6957ZM31.7461 32.5227C41.2341 32.5227 50.7379 32.5227 60.2259 32.5227C60.6536 32.5227 60.6536 32.5227 60.6536 32.1425C60.6536 30.6061 60.6536 29.0696 60.6536 27.5332C60.6536 27.2639 60.5902 27.1688 60.2734 27.1688C41.2816 27.1688 22.2739 27.1688 3.28204 27.1688C2.96524 27.1688 2.88604 27.2639 2.90188 27.5332C2.91772 29.0538 2.90188 30.5586 2.90188 32.0792C2.90188 32.5068 2.90188 32.5068 3.39292 32.5068C12.8492 32.5227 22.2897 32.5227 31.7461 32.5227Z" fill="#FCFCFC"/>
<path d="M31.7298 35.0888C41.6613 35.0888 51.5929 35.0888 61.5244 35.0888C61.6353 35.0888 61.7461 35.1046 61.8412 35.0888C62.1263 35.0571 62.2213 35.168 62.2213 35.4372C62.2055 37.2271 62.2213 39.0328 62.2213 40.8227C62.2213 41.583 62.2055 42.3434 62.2213 43.1037C62.2213 43.3413 62.1263 43.4363 61.8728 43.4205C61.7936 43.4046 61.6986 43.4205 61.6194 43.4205C41.6772 43.4205 21.7349 43.4205 1.77687 43.4205C1.1116 43.4205 1.17496 43.4838 1.17496 42.8819C1.17496 40.4267 1.17496 37.9874 1.17496 35.5323C1.17496 35.1046 1.17496 35.1046 1.65015 35.1046C11.6767 35.0888 21.7033 35.0888 31.7298 35.0888ZM31.6665 41.9157C41.1545 41.9157 50.6583 41.9157 60.1463 41.9157C60.574 41.9157 60.574 41.9157 60.574 41.5355C60.574 39.9991 60.574 38.4626 60.574 36.9262C60.574 36.6569 60.5106 36.5618 60.1938 36.5618C41.202 36.5618 22.1943 36.5618 3.20245 36.5618C2.88565 36.5618 2.80645 36.6569 2.82229 36.9262C2.83813 38.4468 2.82229 39.9516 2.82229 41.4722C2.82229 41.8998 2.82229 41.8998 3.31333 41.8998C12.7697 41.9157 22.2101 41.9157 31.6665 41.9157Z" fill="#FCFCFC"/>
<path d="M31.6512 44.5451C41.5827 44.5451 51.5142 44.5451 61.4458 44.5451C61.5566 44.5451 61.6675 44.5609 61.7626 44.5451C62.0477 44.5134 62.1427 44.6243 62.1427 44.8935C62.1269 46.6834 62.1427 48.4892 62.1427 50.279C62.1427 51.0393 62.1269 51.7997 62.1427 52.56C62.1427 52.7976 62.0477 52.8926 61.7942 52.8768C61.715 52.8609 61.62 52.8768 61.5408 52.8768C41.5986 52.8768 21.6563 52.8768 1.69826 52.8768C1.03299 52.8768 1.09635 52.9401 1.09635 52.3382C1.09635 49.883 1.09635 47.4437 1.09635 44.9886C1.09635 44.5609 1.09635 44.5609 1.57154 44.5609C11.5981 44.5451 21.6247 44.5451 31.6512 44.5451ZM31.5878 51.3878C41.0759 51.3878 50.5797 51.3878 60.0677 51.3878C60.4954 51.3878 60.4954 51.3878 60.4954 51.0077C60.4954 49.4712 60.4954 47.9348 60.4954 46.3983C60.4954 46.129 60.432 46.034 60.1152 46.034C41.1234 46.034 22.1157 46.034 3.12384 46.034C2.80704 46.034 2.72784 46.129 2.74368 46.3983C2.75952 47.9189 2.74368 49.4237 2.74368 50.9443C2.74368 51.372 2.74368 51.372 3.23471 51.372C12.691 51.3878 22.1315 51.3878 31.5878 51.3878Z" fill="#FCFCFC"/>
<mask id="mask0_6344_14904" style="mask-type:luminance" maskUnits="userSpaceOnUse" x="1" y="52" width="62" height="10">
<path d="M62.1425 52.7184H1.25293V61.9054H62.1425V52.7184Z" fill="white"/>
</mask>
<g mask="url(#mask0_6344_14904)">
<path d="M49.7402 58.7533C48.7423 58.7533 47.7444 58.7533 46.7624 58.7533C45.907 58.7533 45.3209 58.1831 45.2576 57.3277C45.2259 56.8209 45.2259 56.805 44.7349 56.7575C44.0538 56.6941 43.3568 56.6466 42.6757 56.6149C41.1868 56.5516 39.6978 56.5199 38.2089 56.4724C34.1698 56.3615 30.1465 56.3773 26.1073 56.4249C23.4621 56.4565 20.8169 56.5357 18.1875 56.7733C17.9182 56.7892 17.8073 56.8842 17.8232 57.1693C17.8548 58.1197 17.0787 58.785 16.2075 58.7691C14.2592 58.7216 12.3109 58.7216 10.3626 58.7691C9.50729 58.785 8.84202 57.9613 8.85786 57.2327C8.8737 55.8705 8.92122 54.5083 8.81034 53.1302C8.68362 51.6096 8.57274 50.089 8.44602 48.5684C8.33515 47.0794 8.33515 45.5905 8.46186 44.0857C8.52522 43.262 8.62026 42.4384 8.85786 41.6464C9.20633 40.5059 9.68152 39.4605 10.6161 38.7002C10.8061 38.5418 10.7269 38.4784 10.5527 38.3992C9.90328 38.1141 9.28553 37.7973 8.85786 37.1954C8.25595 36.3401 8.28763 35.8015 9.28553 35.2155C9.99832 34.8036 10.822 34.6927 11.6457 34.5977C12.1208 34.5343 12.596 34.5185 13.0712 34.471C13.3563 34.4393 13.5623 34.5343 13.7365 34.7719C13.8949 34.9779 14.0533 35.1838 14.1958 35.3897C14.3226 35.5798 14.4176 35.5639 14.481 35.3422C14.7819 34.5027 15.1304 33.6632 15.5105 32.8553C16.1917 31.3822 16.8728 29.9091 17.8548 28.6261C18.4092 27.8975 19.1378 27.4381 20.0249 27.2481C22.2266 26.7887 24.4442 26.4719 26.6934 26.3135C28.3407 26.1868 29.9881 26.0759 31.6354 26.0759C35.3736 26.0759 39.0642 26.4561 42.7391 27.153C44.0538 27.4065 45.0517 28.1351 45.7486 29.2756C46.8891 31.1288 47.8078 33.1088 48.5839 35.1521C48.6156 35.2155 48.6314 35.2947 48.6631 35.358C48.7265 35.5481 48.8215 35.5323 48.9324 35.3897C49.1066 35.1521 49.2809 34.9303 49.4551 34.6927C49.566 34.5502 49.6927 34.4393 49.8828 34.4552C51.1816 34.5185 52.4805 34.6135 53.716 35.1204C53.7794 35.1521 53.8269 35.1679 53.8902 35.1996C54.7297 35.659 54.8881 36.3084 54.3496 37.1004C53.9219 37.7181 53.3042 38.0666 52.6389 38.3517C52.3221 38.4943 52.3063 38.4943 52.5597 38.716C53.7002 39.7139 54.207 41.0603 54.4446 42.5176C54.7773 44.4342 54.7773 46.3666 54.6664 48.3149C54.508 51.2453 54.112 54.1598 54.2546 57.106C54.2862 57.692 54.0486 58.1514 53.5734 58.4999C53.3675 58.6583 53.1458 58.7216 52.8923 58.7216C51.8152 58.7533 50.7856 58.7533 49.7402 58.7533ZM31.1602 28.5944C30.685 28.642 29.8772 28.5944 29.0535 28.642C28.2774 28.6895 27.4854 28.737 26.7092 28.8004C24.8243 28.9429 22.9552 29.2597 21.0861 29.5448C20.3575 29.6557 19.7714 29.925 19.3596 30.6061C18.3617 32.2693 17.538 34.0275 16.8411 35.849C16.7302 36.1342 16.7619 36.1658 17.0628 36.1342C18.2033 35.9916 19.3279 35.9124 20.4684 35.849C22.3533 35.7698 24.2541 35.6748 26.139 35.659C29.5921 35.6273 33.061 35.5956 36.514 35.6906C38.3356 35.7382 40.173 35.754 41.9946 35.8332C43.3093 35.8966 44.6082 35.9916 45.9229 36.1183C46.2555 36.15 46.2872 36.1183 46.1763 35.8015C45.5744 34.2176 44.8299 32.6969 44.0379 31.1922C43.5152 30.1784 42.8024 29.6557 41.662 29.4815C38.3039 28.9429 34.9142 28.5944 31.1602 28.5944ZM16.0174 47.8714C16.0174 47.8556 16.0174 47.8556 16.0174 47.8714C16.6985 47.8556 17.3955 47.8872 18.0766 47.8556C19.0111 47.808 19.423 47.1586 19.1062 46.2558C18.7894 45.3529 18.1558 44.8302 17.2529 44.6718C15.8115 44.4025 14.3542 44.2124 12.8812 44.0699C11.9149 43.9907 11.4239 44.6401 11.6773 45.6063C11.7565 45.8914 11.8832 46.1607 11.9941 46.4142C12.4218 47.3645 13.1346 47.8397 14.1483 47.8556C14.7661 47.8714 15.3838 47.8714 16.0174 47.8714ZM47.0316 47.8714C47.586 47.8714 48.1246 47.8714 48.679 47.8714C48.869 47.8714 49.0591 47.8556 49.2492 47.8397C50.5956 47.6813 51.245 46.3825 51.3876 45.3054C51.4984 44.5292 51.15 44.1491 50.3897 44.0699C50.2471 44.054 50.0887 44.0699 49.9461 44.0857C49.471 44.1332 48.9958 44.1807 48.5206 44.2441C47.5543 44.3867 46.5564 44.45 45.6061 44.6876C44.7666 44.9094 44.1805 45.4321 43.9112 46.2874C43.6578 47.0636 44.0062 47.6813 44.7982 47.8239C44.9883 47.8556 45.1784 47.8556 45.3685 47.8714C45.9387 47.8714 46.4931 47.8714 47.0316 47.8714ZM46.208 49.6296C45.4793 49.6296 44.7507 49.6296 44.0221 49.6296C43.8003 49.6296 43.5786 49.6613 43.3885 49.788C42.945 50.0731 42.945 50.6434 43.4043 50.9285C43.5944 51.0394 43.8162 51.1027 44.0379 51.1027C45.4793 51.1027 46.9366 51.1186 48.378 51.1027C48.679 51.1027 48.9641 51.0235 49.2017 50.8176C49.5343 50.5166 49.5026 50.1207 49.1383 49.8672C48.9166 49.7088 48.679 49.6455 48.4255 49.6455C47.6811 49.6296 46.9366 49.6296 46.208 49.6296ZM16.8252 49.6296C16.1441 49.6296 15.4472 49.6296 14.7661 49.6296C14.5443 49.6296 14.3226 49.6455 14.1167 49.7563C13.8791 49.8672 13.7048 50.0573 13.689 50.3582C13.6731 50.6592 13.8474 50.8493 14.085 50.9602C14.2909 51.0552 14.5126 51.1186 14.7344 51.1186C16.1441 51.1186 17.5697 51.1186 18.9795 51.1186C19.2646 51.1186 19.5497 51.0235 19.7873 50.8651C20.1674 50.5958 20.1674 50.1682 19.7873 49.8989C19.518 49.7088 19.2012 49.6455 18.8844 49.6455C18.2033 49.6296 17.5064 49.6296 16.8252 49.6296Z" fill="#FCFCFC"/>
<path d="M5.45224 42.375C5.45224 47.6813 5.45224 52.9718 5.45224 58.2781C5.45224 58.7533 5.45224 58.7533 4.97705 58.7533C4.18506 58.7533 3.39308 58.7375 2.60109 58.7533C2.30013 58.7533 2.22094 58.6583 2.22094 58.3573C2.23678 55.6962 2.22094 53.0193 2.22094 50.3582C2.22094 42.4225 2.22094 34.4868 2.22094 26.5511C2.22094 26.4244 2.22094 26.3135 2.22094 26.1868C2.2051 25.9809 2.30013 25.9017 2.50605 25.9017C3.39308 25.9017 4.2801 25.9017 5.16713 25.9017C5.37304 25.9017 5.45224 25.9809 5.4364 26.1868C5.4364 26.2977 5.4364 26.4085 5.4364 26.5194C5.45224 31.8257 5.45224 37.1004 5.45224 42.375Z" fill="#FCFCFC"/>
<path d="M57.7397 42.3433C57.7397 37.037 57.7397 31.7149 57.7397 26.4085C57.7397 25.9333 57.7397 25.9333 58.1991 25.9333C58.9911 25.9333 59.7831 25.9492 60.5751 25.9333C60.8602 25.9333 60.9552 26.0284 60.9552 26.3293C60.9394 28.4835 60.9552 30.6219 60.9552 32.7761C60.9552 41.2345 60.9552 49.693 60.9552 58.1514C60.9552 58.2781 60.9552 58.389 60.9552 58.5157C60.9711 58.7216 60.8919 58.8008 60.6859 58.8008C59.7989 58.8008 58.9119 58.8008 58.0249 58.8008C57.8189 58.8008 57.7397 58.7216 57.7397 58.5157C57.7397 58.4048 57.7397 58.2939 57.7397 58.1831C57.7397 52.8767 57.7397 47.618 57.7397 42.3433Z" fill="#FCFCFC"/>
</g>
</svg>
