<?xml version="1.0" encoding="UTF-8"?>
<svg height="600" width="800" xmlns="http://www.w3.org/2000/svg" xmlns:xlink="http://www.w3.org/1999/xlink">
    <g id="Notes" font-family="'LucidaGrande', 'Lucida Grande', sans-serif" font-size="13">
        <rect fill="white" height="600.0" width="800.0" x="0.0" y="0.0" />
        <g font-size="13">
            <text x="18.0" y="176.0">Small</text>
            <text x="18.0" y="376.0">Medium</text>
            <text x="18.0" y="576.0">Large</text>
        </g>
        <g font-size="9">
            <text x="250.0" y="30.0">Ultralight</text>
            <text x="450.0" y="30.0">Regular</text>
            <text x="650.0" y="30.0">Black</text>
            <text id="template-version" fill="#505050" text-anchor="end" x="785.0" y="575.0">Template v.3.0</text>
            <a href="https://github.com/swhitty/SwiftDraw">
                <text fill="#505050" text-anchor="end" x="785.0" y="590.0">https://github.com/swhitty/SwiftDraw</text>
            </a>
        </g>
    </g>
    <g id="Guides" stroke="rgb(39, 170, 225)" stroke-width="0.5">
        <path id="Capline-S" d="M18,76 l800,0" />
        <path id="H-reference" d="M85,145.755 L87.685,145.755 L113.369,79.287 L114.052,79.287 L114.052,76 L112.148,76 L85,145.755 Z M95.693,121.536 L130.996,121.536 L130.263,119.313 L96.474,119.313 L95.693,121.536 Z M139.15,145.755 L141.787,145.755 L114.638,76 L113.466,76 L113.466,79.287 L139.15,145.755 Z" stroke="none" />
        <path id="Baseline-S" d="M18,146 l800,0" />
        <path id="left-margin-Ultralight-S" d="M221,56 l0,110" />
        <path id="right-margin-Ultralight-S" d="M309,56 l0,110" />
        <path id="left-margin-Regular-S" d="M421,56 l0,110" />
        <path id="right-margin-Regular-S" d="M509,56 l0,110" />
        <path id="left-margin-Black-S" d="M621,56 l0,110" />
        <path id="right-margin-Black-S" d="M709,56 l0,110" />
        <path id="Capline-M" d="M18,276 l800,0" />
        <path id="Baseline-M" d="M18,346 l800,0" />
        <path id="Capline-L" d="M18,476 l800,0" />
        <path id="Baseline-L" d="M18,546 l800,0" />
    </g>
    <g id="Symbols">
        <g id="Ultralight-S">
            <path d="M264.965,80.03 C248.261,80.03 234.67,93.62 234.67,110.324 C234.674,115.182 235.866,120.023 238.122,124.326 C240.226,128.309 243.242,131.845 246.847,134.55 L247.601,135.116 L242.69,142.723 C242.054,143.708 242.338,145.025 243.323,145.66 C243.8,145.968 244.367,146.071 244.923,145.952 C245.477,145.832 245.953,145.505 246.26,145.027 L251.247,137.297 L252.05,137.682 C260.257,141.61 269.672,141.61 277.88,137.682 L278.683,137.297 L283.668,145.025 C284.303,146.01 285.62,146.294 286.605,145.658 C287.082,145.351 287.41,144.875 287.53,144.321 C287.649,143.767 287.546,143.198 287.238,142.721 L282.326,135.114 L283.081,134.548 C286.684,131.843 289.702,128.307 291.806,124.322 C294.06,120.019 295.253,115.178 295.257,110.32 C295.257,93.616 281.667,80.028 264.963,80.026 L264.965,80.03 Z M283.397,128.756 C278.57,133.599 271.888,136.373 265.052,136.373 C265.022,136.373 264.993,136.373 264.963,136.373 C258.018,136.363 251.49,133.646 246.584,128.726 C241.678,123.806 238.983,117.269 238.994,110.32 C239.004,103.371 241.721,96.845 246.641,91.939 C251.55,87.044 258.073,84.349 265.003,84.349 L265.044,84.349 C279.387,84.371 291.037,96.058 291.015,110.401 C291.005,117.334 288.298,123.852 283.395,128.756 L283.397,128.756 Z" />
            <path d="M236.347,88.286 L245.542,79.702 C246.39,78.907 246.438,77.57 245.653,76.712 L245.647,76.706 C245.247,76.291 244.713,76.051 244.138,76.026 L244.096,76.026 C243.557,76.034 243.042,76.239 242.647,76.605 L233.455,85.18 C233.04,85.567 232.799,86.091 232.781,86.657 C232.761,87.224 232.963,87.764 233.347,88.179 C233.738,88.597 234.262,88.836 234.828,88.854 C235.393,88.874 235.933,88.672 236.347,88.286 Z" />
            <path d="M296.568,85.243 L296.52,85.197 L287.315,76.609 C286.914,76.225 286.405,76.012 285.867,76 C285.282,76.02 284.72,76.277 284.321,76.708 C283.526,77.564 283.573,78.911 284.422,79.71 L293.617,88.292 C294.471,89.113 295.818,89.087 296.629,88.243 C297.44,87.4 297.414,86.054 296.57,85.243 L296.568,85.243 Z" />
            <path d="M277.773,110.759 L267.087,110.759 L267.087,97.521 C267.087,96.354 266.132,95.401 264.963,95.399 C263.796,95.399 262.843,96.354 262.843,97.523 L262.843,112.886 C262.843,114.053 263.798,115.006 264.967,115.008 L277.773,115.008 C278.944,115.008 279.897,114.055 279.897,112.884 C279.897,111.712 278.944,110.759 277.773,110.759 Z" />
        </g>
        <g id="Regular-S">
            <path d="M464.965,80.03 C448.261,80.03 434.67,93.62 434.67,110.324 C434.674,115.182 435.866,120.023 438.122,124.326 C440.226,128.309 443.242,131.845 446.847,134.55 L447.601,135.116 L442.69,142.723 C442.054,143.708 442.338,145.025 443.323,145.66 C443.8,145.968 444.367,146.071 444.923,145.952 C445.477,145.832 445.953,145.505 446.26,145.027 L451.247,137.297 L452.05,137.682 C460.257,141.61 469.672,141.61 477.88,137.682 L478.683,137.297 L483.668,145.025 C484.303,146.01 485.62,146.294 486.605,145.658 C487.082,145.351 487.41,144.875 487.53,144.321 C487.649,143.767 487.546,143.198 487.238,142.721 L482.326,135.114 L483.081,134.548 C486.684,131.843 489.702,128.307 491.806,124.322 C494.06,120.019 495.253,115.178 495.257,110.32 C495.257,93.616 481.667,80.028 464.963,80.026 L464.965,80.03 Z M483.397,128.756 C478.57,133.599 471.888,136.373 465.052,136.373 C465.022,136.373 464.993,136.373 464.963,136.373 C458.018,136.363 451.49,133.646 446.584,128.726 C441.678,123.806 438.983,117.269 438.994,110.32 C439.004,103.371 441.721,96.845 446.641,91.939 C451.55,87.044 458.073,84.349 465.003,84.349 L465.044,84.349 C479.387,84.371 491.037,96.058 491.015,110.401 C491.005,117.334 488.298,123.852 483.395,128.756 L483.397,128.756 Z" />
            <path d="M436.347,88.286 L445.542,79.702 C446.39,78.907 446.438,77.57 445.653,76.712 L445.647,76.706 C445.247,76.291 444.713,76.051 444.138,76.026 L444.096,76.026 C443.557,76.034 443.042,76.239 442.647,76.605 L433.455,85.18 C433.04,85.567 432.799,86.091 432.781,86.657 C432.761,87.224 432.963,87.764 433.347,88.179 C433.738,88.597 434.262,88.836 434.828,88.854 C435.393,88.874 435.933,88.672 436.347,88.286 Z" />
            <path d="M496.568,85.243 L496.52,85.197 L487.315,76.609 C486.914,76.225 486.405,76.012 485.867,76 C485.282,76.02 484.72,76.277 484.321,76.708 C483.526,77.564 483.573,78.911 484.422,79.71 L493.617,88.292 C494.471,89.113 495.818,89.087 496.629,88.243 C497.44,87.4 497.414,86.054 496.57,85.243 L496.568,85.243 Z" />
            <path d="M477.773,110.759 L467.087,110.759 L467.087,97.521 C467.087,96.354 466.132,95.401 464.963,95.399 C463.796,95.399 462.843,96.354 462.843,97.523 L462.843,112.886 C462.843,114.053 463.798,115.006 464.967,115.008 L477.773,115.008 C478.944,115.008 479.897,114.055 479.897,112.884 C479.897,111.712 478.944,110.759 477.773,110.759 Z" />
        </g>
        <g id="Black-S">
            <path d="M664.965,80.03 C648.261,80.03 634.67,93.62 634.67,110.324 C634.674,115.182 635.866,120.023 638.122,124.326 C640.226,128.309 643.242,131.845 646.847,134.55 L647.601,135.116 L642.69,142.723 C642.054,143.708 642.338,145.025 643.323,145.66 C643.8,145.968 644.367,146.071 644.923,145.952 C645.477,145.832 645.953,145.505 646.26,145.027 L651.247,137.297 L652.05,137.682 C660.257,141.61 669.672,141.61 677.88,137.682 L678.683,137.297 L683.668,145.025 C684.303,146.01 685.62,146.294 686.605,145.658 C687.082,145.351 687.41,144.875 687.53,144.321 C687.649,143.767 687.546,143.198 687.238,142.721 L682.326,135.114 L683.081,134.548 C686.684,131.843 689.702,128.307 691.806,124.322 C694.06,120.019 695.253,115.178 695.257,110.32 C695.257,93.616 681.667,80.028 664.963,80.026 L664.965,80.03 Z M683.397,128.756 C678.57,133.599 671.888,136.373 665.052,136.373 C665.022,136.373 664.993,136.373 664.963,136.373 C658.018,136.363 651.49,133.646 646.584,128.726 C641.678,123.806 638.983,117.269 638.994,110.32 C639.004,103.371 641.721,96.845 646.641,91.939 C651.55,87.044 658.073,84.349 665.003,84.349 L665.044,84.349 C679.387,84.371 691.037,96.058 691.015,110.401 C691.005,117.334 688.298,123.852 683.395,128.756 L683.397,128.756 Z" />
            <path d="M636.347,88.286 L645.542,79.702 C646.39,78.907 646.438,77.57 645.653,76.712 L645.647,76.706 C645.247,76.291 644.713,76.051 644.138,76.026 L644.096,76.026 C643.557,76.034 643.042,76.239 642.647,76.605 L633.455,85.18 C633.04,85.567 632.799,86.091 632.781,86.657 C632.761,87.224 632.963,87.764 633.347,88.179 C633.738,88.597 634.262,88.836 634.828,88.854 C635.393,88.874 635.933,88.672 636.347,88.286 Z" />
            <path d="M696.568,85.243 L696.52,85.197 L687.315,76.609 C686.914,76.225 686.405,76.012 685.867,76 C685.282,76.02 684.72,76.277 684.321,76.708 C683.526,77.564 683.573,78.911 684.422,79.71 L693.617,88.292 C694.471,89.113 695.818,89.087 696.629,88.243 C697.44,87.4 697.414,86.054 696.57,85.243 L696.568,85.243 Z" />
            <path d="M677.773,110.759 L667.087,110.759 L667.087,97.521 C667.087,96.354 666.132,95.401 664.963,95.399 C663.796,95.399 662.843,96.354 662.843,97.523 L662.843,112.886 C662.843,114.053 663.798,115.006 664.967,115.008 L677.773,115.008 C678.944,115.008 679.897,114.055 679.897,112.884 C679.897,111.712 678.944,110.759 677.773,110.759 Z" />
        </g>
    </g>
</svg>