<svg width="64" height="64" viewBox="0 0 64 64" fill="none" xmlns="http://www.w3.org/2000/svg">
<path d="M14.4225 4.375C10.8262 4.37875 7.89622 7.30875 7.89247 10.9075V41.9362L7.68372 42.1225C5.56122 44.015 4.35622 46.7313 4.37622 49.5737C4.39997 51.74 5.10247 53.7975 6.40872 55.5225L6.47122 55.6037C8.38247 58.1162 11.2787 59.5575 14.4237 59.5625C17.6087 59.5575 20.5287 58.0875 22.4337 55.5275C23.7437 53.7988 24.4462 51.74 24.47 49.5725C24.4887 46.7337 23.2837 44.0187 21.1637 42.1275L20.955 41.9412V10.91C20.9525 7.31125 18.0225 4.38 14.4225 4.375ZM15.6237 7.1375C17.235 7.63875 18.4012 9.12 18.4362 10.895V42.5475C18.4362 42.9412 18.625 43.3175 18.9387 43.555C22.26 46.0438 22.9362 50.7738 20.4462 54.0962C19.0325 55.9825 16.78 57.11 14.4212 57.11C10.2687 57.1075 6.89247 53.7275 6.89372 49.575C6.89372 47.2188 8.01997 44.9663 9.90497 43.5525C10.2162 43.3175 10.4037 42.9412 10.405 42.55V10.9062C10.4387 9.12625 11.62 7.63875 13.225 7.1375C13.225 7.1375 14.3675 6.765 15.625 7.1375H15.6237Z" fill="black"/>
<path d="M13.1637 23.2125V45.8725L12.7987 46.04C11.8524 46.4737 11.1324 47.2487 10.7699 48.225C10.4074 49.2 10.4474 50.2587 10.8799 51.2037C11.3124 52.1487 12.0887 52.87 13.0649 53.2325C14.0399 53.595 15.0987 53.555 16.0437 53.1225C17.9962 52.2275 18.8562 49.9112 17.9612 47.9587C17.5724 47.11 16.8912 46.43 16.0437 46.0412L15.6787 45.8737V23.2112C15.6787 22.5187 15.1137 21.955 14.4199 21.9537C13.7274 21.9537 13.1624 22.5187 13.1624 23.2125H13.1637Z" fill="#00D151"/>
<path d="M47.9998 18.2748C47.9895 17.8828 47.6753 17.5671 47.284 17.5546H44.9466L46.2658 16.2347C46.5536 15.9469 46.5536 15.4778 46.2658 15.19C45.978 14.9023 45.5089 14.9023 45.2211 15.19L42.8573 17.5539H41.2496L41.1681 17.2977C41.022 16.8374 40.7717 16.4057 40.445 16.0504L40.2629 15.8515L41.0682 14.4589L44.2983 13.5926C44.4892 13.542 44.6485 13.4194 44.7476 13.249C44.8467 13.078 44.8732 12.8791 44.8218 12.6889C44.7359 12.3659 44.4422 12.1413 44.1082 12.1413C44.0436 12.1413 43.979 12.1501 43.9159 12.1662L42.1136 12.6493L43.2867 10.6172C43.3851 10.4462 43.4115 10.2473 43.3602 10.0564C43.3088 9.86551 43.1869 9.70621 43.0159 9.60784C42.6635 9.40449 42.2105 9.52561 42.0064 9.87872L40.8341 11.91L40.351 10.107C40.2644 9.78476 39.9715 9.55938 39.6375 9.55938C39.44 9.55938 39.2542 9.63647 39.1148 9.77595C38.9753 9.91543 38.8982 10.1019 38.8982 10.2994C38.8982 10.364 38.907 10.4286 38.9239 10.4917L39.7901 13.7226L38.9856 15.1152L38.7227 15.0564C38.2514 14.9515 37.753 14.9515 37.2809 15.0564L37.0181 15.1152L36.2135 13.7226L37.0798 10.4924C37.1312 10.3016 37.1055 10.1019 37.0064 9.93085C36.9095 9.762 36.7531 9.64087 36.5666 9.58801L36.5564 9.58508C36.4947 9.56819 36.4308 9.56012 36.367 9.56012H36.3662C36.0329 9.56012 35.7393 9.78549 35.6527 10.1078L35.1674 11.9086L33.9958 9.87799C33.8644 9.65335 33.6184 9.5124 33.3556 9.5124C33.1596 9.5124 32.9739 9.59022 32.8351 9.73043C32.6957 9.87065 32.62 10.0556 32.62 10.2531C32.62 10.3816 32.6545 10.5086 32.7192 10.6202L33.8908 12.6493L32.0878 12.1655C32.0261 12.1493 31.9608 12.1405 31.8955 12.1405C31.488 12.1405 31.157 12.4716 31.157 12.8791C31.157 13.2131 31.3823 13.5067 31.7046 13.5926L34.9347 14.4581L35.74 15.8508L35.558 16.0497C35.2313 16.4057 34.9817 16.8374 34.8356 17.2977L34.7541 17.5539H33.1457L30.7818 15.19C30.494 14.9023 30.0249 14.9023 29.7372 15.19C29.5977 15.3295 29.5206 15.5153 29.5206 15.712C29.5206 15.9087 29.5977 16.0945 29.7372 16.234L31.0564 17.5539H28.7153C28.5193 17.5598 28.3372 17.6413 28.2029 17.7837C28.0671 17.9268 27.9951 18.114 28.0003 18.3115C28.0105 18.7035 28.324 19.0192 28.716 19.0317H31.0571L29.7379 20.3516C29.5992 20.4911 29.5221 20.6768 29.5228 20.8743C29.5228 21.0718 29.6006 21.2575 29.7401 21.397C29.8796 21.5357 30.0646 21.6128 30.2606 21.6128H30.2621C30.4559 21.6128 30.6453 21.5343 30.7818 21.397L33.1464 19.0324H34.7541L34.8356 19.2886C34.9817 19.7489 35.232 20.1806 35.5587 20.5359L35.7408 20.7348L34.9354 22.1274L31.7053 22.9937C31.5145 23.0443 31.3552 23.1669 31.2561 23.3373C31.157 23.5083 31.1305 23.7073 31.1819 23.8974C31.2678 24.2197 31.5615 24.445 31.8947 24.445H31.8955C31.9601 24.445 32.0232 24.4362 32.0849 24.4201L33.8886 23.9378L32.7162 25.9691C32.6178 26.1401 32.5921 26.3391 32.6435 26.5299C32.6949 26.7208 32.8175 26.8801 32.9893 26.9785C33.1002 27.0423 33.2264 27.0761 33.3549 27.0768C33.6162 27.0768 33.8622 26.9344 33.9943 26.7061L35.1667 24.6755L35.6505 26.4785C35.7019 26.6694 35.8237 26.8287 35.9948 26.9271C36.1658 27.0255 36.3648 27.0519 36.5556 27.0005C36.7465 26.9491 36.9058 26.8272 37.0042 26.6562C37.1026 26.4851 37.129 26.2862 37.0776 26.0953L36.2113 22.8652L37.0159 21.4726L37.2787 21.5313C37.75 21.6363 38.2485 21.6363 38.7205 21.5313L38.9834 21.4726L39.7879 22.8652L38.9217 26.0953C38.8167 26.4888 39.0509 26.8948 39.4444 26.9998C39.8379 27.1055 40.2438 26.8706 40.3488 26.4771L40.8326 24.6741L42.005 26.7054C42.1371 26.933 42.383 27.0746 42.6466 27.0754C42.8419 27.0746 43.0276 26.9968 43.1663 26.8559C43.3051 26.7149 43.3814 26.5292 43.3807 26.3317C43.3807 26.204 43.3462 26.077 43.2823 25.9661L42.11 23.9348L43.9129 24.4186C44.3072 24.5243 44.7124 24.2894 44.8181 23.8959C44.9238 23.5024 44.6889 23.0965 44.2954 22.9908L41.0653 22.1245L40.26 20.7319L40.442 20.5329C40.7687 20.1769 41.0183 19.746 41.1651 19.2849L41.2466 19.0295H42.8543L45.2189 21.3933C45.3584 21.5328 45.5441 21.6099 45.7416 21.6099C45.9391 21.6099 46.1241 21.5328 46.2636 21.3933C46.4031 21.2538 46.4801 21.0681 46.4801 20.8714C46.4801 20.6746 46.4031 20.4889 46.2636 20.3494L44.9422 19.0295H47.284C47.6892 19.017 48.01 18.6778 47.9998 18.2719V18.2748ZM39.8437 18.3005C39.8423 19.315 39.0164 20.1409 38.0026 20.1424H38.0018C37.5093 20.1424 37.0475 19.9508 36.6988 19.6035C36.3508 19.2556 36.1585 18.7931 36.1585 18.3005C36.1585 17.2845 36.9844 16.4579 38.0004 16.4571H38.0011C39.0171 16.4571 39.843 17.283 39.8437 18.299V18.3005Z" fill="black"/>
</svg>
