<svg width="512" height="512" viewBox="0 0 512 512" fill="none" xmlns="http://www.w3.org/2000/svg">
<path fill-rule="evenodd" clip-rule="evenodd" d="M78 74C78 33.1309 111.131 0 152 0H360C400.869 0 434 33.1309 434 74V434C434 474.869 400.869 508 360 508H152C111.131 508 78 474.869 78 434V74ZM152 20C122.177 20 98 44.1766 98 74V434C98 463.823 122.177 488 152 488H360C389.823 488 414 463.823 414 434V74C414 44.1766 389.823 20 360 20H152Z" fill="#B4B7BA"/>
<path fill-rule="evenodd" clip-rule="evenodd" d="M222.005 113.672C206.639 130.989 196.398 153.96 196.398 176.9C196.398 199.989 204.733 213.948 214.307 222.261C217.856 225.343 221.66 227.721 225.423 229.504C223.833 223.432 223.605 217.269 225.101 210.939C228.12 198.164 237.676 187.118 250.578 176.19C254.366 172.982 259.935 173.038 263.657 176.322C275.235 186.538 284.918 198.095 288.295 211.052C289.913 217.259 289.992 223.386 288.556 229.353C291.714 227.915 294.876 226.096 297.858 223.832C307.354 216.623 315.6 204.514 315.6 183.821C315.6 174.978 312.273 168.545 306.804 162.508C302.537 157.797 297.599 153.912 291.955 149.472C289.62 147.635 287.165 145.703 284.587 143.579C276.414 136.846 267.527 128.471 262.821 116.616C259.471 108.177 258.512 98.7318 260.382 87.9124C247.112 91.7148 233.485 100.734 222.005 113.672ZM207.045 100.398C224.914 80.2597 249.34 65.8926 274.05 65.8926C277.325 65.8926 280.392 67.4959 282.261 70.1847C284.13 72.8734 284.564 76.307 283.423 79.3765C278.127 93.627 278.824 102.723 281.41 109.236C284.149 116.137 289.63 121.82 297.304 128.143C299.075 129.602 301.03 131.14 303.082 132.754C309.184 137.553 316.139 143.023 321.627 149.08C329.524 157.798 335.6 168.816 335.6 183.821C335.6 210.823 324.384 228.804 309.952 239.761C295.997 250.355 279.589 254 268.812 254C264.809 254 261.191 251.613 259.617 247.932C258.043 244.251 258.816 239.986 261.582 237.092C269.465 228.841 270.521 222.152 268.942 216.096C267.505 210.582 263.559 204.358 256.87 197.444C249.315 204.799 245.738 210.574 244.565 215.538C243.251 221.099 244.491 227.863 251.803 238.239C253.955 241.292 254.226 245.289 252.506 248.604C250.787 251.919 247.364 254 243.629 254C231.711 254 215.028 249.375 201.194 237.362C186.994 225.033 176.398 205.442 176.398 176.9C176.398 148.21 189.051 120.678 207.045 100.398Z" fill="#54A6FF"/>
<path fill-rule="evenodd" clip-rule="evenodd" d="M166 365.995C166 360.472 170.477 355.995 176 355.995H336C341.523 355.995 346 360.472 346 365.995V429.995C346 435.518 341.523 439.995 336 439.995H176C170.477 439.995 166 435.518 166 429.995V365.995ZM186 375.995V419.995H326V375.995H186Z" fill="#B4B7BA"/>
</svg>
