<svg width="512" height="512" viewBox="0 0 512 512" fill="none" xmlns="http://www.w3.org/2000/svg">
<path d="M291.16 421.5H291.17C307.27 421.5 322.41 415.22 333.79 403.83C357.29 380.32 357.28 342.08 333.77 318.58C322.39 307.2 307.26 300.94 291.16 300.93H101.31C98.36 300.93 95.58 302.08 93.49 304.17C91.4 306.26 90.25 309.03 90.25 311.99C90.25 314.94 91.4 317.72 93.49 319.81C95.58 321.9 98.35 323.05 101.31 323.05H291.17C312.19 323.08 329.3 340.19 329.32 361.21C329.32 379.97 314.94 399.38 290.87 399.38H290.74C280.79 399.38 271.09 395.29 264.12 388.15C262.08 386.11 259.3 384.96 256.35 384.96C253.4 384.96 250.62 386.12 248.53 388.21C246.44 390.3 245.29 393.08 245.29 396.03C245.29 398.98 246.45 401.76 248.54 403.85C259.93 415.23 275.06 421.5 291.16 421.5Z" fill="#B4B7BA"/>
<path d="M213.82 210.56C243.18 210.56 267.07 186.68 267.07 157.32C267.07 143.1 261.53 129.72 251.48 119.66C241.42 109.6 228.05 104.06 213.83 104.06C199.6 104.06 186.23 109.6 176.17 119.66C171.86 123.97 171.87 130.99 176.18 135.3C178.27 137.39 181.04 138.54 184 138.54C186.95 138.54 189.73 137.39 191.82 135.29C197.57 129.5 205.56 126.18 213.73 126.18H213.84C222.16 126.21 229.97 129.48 235.83 135.39C241.69 141.3 244.9 149.13 244.87 157.45C244.84 165.67 241.63 173.42 235.84 179.26C230.06 185.07 222.05 188.39 213.87 188.39H73.1899C67.0899 188.39 62.1299 193.35 62.1299 199.45C62.1299 205.55 67.0899 210.51 73.1899 210.51L78.1999 210.55H213.82V210.56Z" fill="#B4B7BA"/>
<path d="M459.55 232.34C473.96 213.63 480.21 190.43 477.17 167.01C471.47 123.16 433.82 90.0499 389.6 89.9999C366.27 89.9599 343.56 99.3799 327.15 115.89C324.97 118.01 323.78 120.77 323.74 123.72C323.7 126.67 324.81 129.47 326.87 131.58C331.12 135.95 338.14 136.05 342.51 131.79L342.73 131.57C368.63 105.68 410.68 105.69 436.51 131.54C449.03 144.06 455.92 160.71 455.91 178.41C455.91 196.11 449.01 212.76 436.49 225.27C423.97 237.78 407.33 244.67 389.63 244.67H45.06C42.1 244.67 39.33 245.82 37.24 247.91C35.15 250 34 252.77 34 255.73C34 258.68 35.15 261.46 37.24 263.55C39.33 265.64 42.1 266.79 45.06 266.79C144.93 266.79 217.07 266.79 269.28 266.84H337.96C382.15 266.84 396.65 266.84 399.38 266.5L399.88 266.22L400.9 266.07C424.32 263.02 445.15 251.04 459.55 232.33V232.34Z" fill="#B4B7BA"/>
</svg>
