<svg width="512" height="512" viewBox="0 0 512 512" fill="none" xmlns="http://www.w3.org/2000/svg">
<path d="M482.2 256.74L482.18 256.72C479.88 255.24 477.03 255.04 474.54 256.17L403.28 288.66V263.12C403.28 245.86 389.23 231.8 371.97 231.77H350.95L360.51 223.07C380.31 205.06 391.7 179.37 391.75 152.6C391.75 100.16 349.13 57.49 296.75 57.49H296.72C278.37 57.49 260.55 62.78 245.18 72.8C232.4 81.11 221.68 92.51 214.17 105.77L209.82 113.44L205.47 105.77C197.95 92.52 187.23 81.12 174.46 72.8C158.35 62.14 140.15 57.04 122.14 57.04C91.2996 57.04 61.0296 72 42.7796 99.58C29.5796 119.53 24.4096 143.52 28.2196 167.13C32.0296 190.74 44.4796 211.89 63.2796 226.68L69.4796 231.55L62.4296 235.08C51.7396 240.43 45.0996 251.18 45.1096 263.14V423.18C45.1096 440.44 59.1696 454.5 76.4296 454.53H371.98C389.23 454.5 403.27 440.43 403.28 423.18V397.65L474.58 430.13C476.52 431.01 478.69 431.08 480.69 430.33C482.69 429.58 484.28 428.09 485.16 426.15C485.63 425.11 485.87 424 485.87 422.86V263.43C485.87 260.7 484.5 258.19 482.19 256.73L482.2 256.74ZM240.54 96.76C255.46 81.78 275.32 73.5 296.46 73.45H296.64C317.72 73.45 337.55 81.64 352.49 96.51C367.47 111.43 375.75 131.29 375.8 152.43V152.6C375.8 196.15 340.36 231.66 296.81 231.76H296.64C253.07 231.76 217.58 196.36 217.48 152.77C217.43 131.63 225.63 111.73 240.54 96.75V96.76ZM205.47 199.45L209.82 191.8L214.17 199.46C219.19 208.3 225.55 216.24 233.07 223.08L242.64 231.78H177.02L186.58 223.08C194.1 216.24 200.46 208.29 205.48 199.46L205.47 199.45ZM43.8796 152.61C43.9696 109.04 79.5096 73.71 123.05 73.77C166.61 73.86 201.97 109.38 201.88 152.94C201.79 196.41 166.35 231.77 122.88 231.77C79.3096 231.68 43.8796 196.17 43.8796 152.61ZM387.31 423.18C387.32 431.64 380.45 438.54 371.99 438.56H76.4396C67.9696 438.54 61.0896 431.63 61.0996 423.17V263.12C61.0996 254.67 67.9696 247.76 76.4296 247.74H115.88V348.74C115.88 353.15 119.47 356.74 123.88 356.74C128.29 356.74 131.88 353.15 131.88 348.74V247.74H371.98C380.45 247.76 387.32 254.66 387.31 263.11V423.18ZM469.88 410.45L403.25 380.09V306.2L469.88 275.83V410.45Z" fill="#B4B7BA"/>
<path d="M123.9 381.12C119.49 381.12 115.91 384.7 115.9 389.11C115.9 389.99 116.04 390.86 116.32 391.69C117.42 394.93 120.46 397.11 123.88 397.12H123.89C126.02 397.12 128.03 396.29 129.54 394.79C131.05 393.28 131.89 391.27 131.89 389.14C131.89 387 131.06 384.99 129.56 383.48C128.06 381.97 126.04 381.13 123.91 381.13H123.9V381.12Z" fill="#B4B7BA"/>
</svg>
