<svg width="144" height="56" viewBox="0 0 144 56" fill="none" xmlns="http://www.w3.org/2000/svg">
<g clip-path="url(#clip0_5374_19982)">
<path fill-rule="evenodd" clip-rule="evenodd" d="M13.1577 0.0028468C18.1307 0.186512 21.9099 2.33236 24.2112 6.83804C25.0324 8.48655 25.4202 10.3175 25.338 12.1579C25.3107 13.2005 25.1323 14.2337 24.8084 15.2249C24.7877 15.264 24.7753 15.307 24.772 15.3511C24.7687 15.3952 24.7745 15.4395 24.789 15.4813C24.8036 15.523 24.8267 15.5613 24.8567 15.5937C24.8868 15.6262 24.9232 15.652 24.9637 15.6697C28.4775 17.8969 31.9889 20.1288 35.498 22.3654C36.2953 22.8715 37.0977 23.3675 37.884 23.8936C37.9307 23.938 37.9858 23.9725 38.046 23.9951C38.1063 24.0178 38.1705 24.028 38.2348 24.0253C38.2991 24.0225 38.3622 24.0069 38.4203 23.9792C38.4784 23.9516 38.5304 23.9125 38.5731 23.8643C39.7826 22.8517 41.3086 22.2964 42.8851 22.2951C44.5038 22.2502 46.0865 22.7782 47.3547 23.7864C48.623 24.7946 49.4957 26.2184 49.8193 27.8072C50.0627 29.1601 49.8801 30.5552 49.2967 31.7995C48.7134 33.0438 47.7581 34.0757 46.5632 34.7523C45.5057 35.3833 44.2998 35.7217 43.0688 35.7329C41.8378 35.7442 40.6259 35.4278 39.5571 34.8161C39.5257 34.7923 39.4896 34.7753 39.4512 34.7661C39.4129 34.757 39.373 34.7559 39.3342 34.763C39.2954 34.7701 39.2585 34.7851 39.2258 34.8072C39.1932 34.8293 39.1654 34.858 39.1444 34.8914C37.8148 36.3129 36.4813 37.7313 35.144 39.1467C33.6857 40.6978 32.2282 42.2498 30.7714 43.8029C30.2764 44.331 29.7917 44.8663 29.2853 45.382C29.1051 45.5657 29.1197 45.6712 29.2956 45.8474C30.2735 46.7852 30.8792 48.0459 31.0008 49.3963C31.1246 50.4293 30.9648 51.4766 30.5385 52.4255C30.1123 53.3744 29.4357 54.1889 28.5816 54.7814C25.1941 57.2803 20.2383 55.7949 18.9416 51.745C18.5655 50.5332 18.5925 49.2318 19.0186 48.0367C19.4448 46.8415 20.247 45.8173 21.3045 45.1181C21.3569 45.0942 21.404 45.06 21.443 45.0176C21.482 44.9752 21.5122 44.9253 21.5317 44.8711C21.5512 44.8168 21.5597 44.7592 21.5566 44.7016C21.5536 44.644 21.539 44.5876 21.5139 44.5357C20.9626 42.7169 20.3091 40.937 19.6977 39.1385C17.9562 34.0275 16.2109 28.9192 14.4619 23.8137C14.3942 23.6143 14.3233 23.5369 14.0805 23.5516C12.4385 23.685 10.7865 23.4852 9.22346 22.9644C7.66038 22.4435 6.2183 21.6122 4.98353 20.5202C2.80929 18.6801 1.41343 16.0822 1.07788 13.2513C0.854171 11.6588 0.975294 10.0368 1.43303 8.49531C1.89076 6.95384 2.67438 5.52906 3.73068 4.31773C5.72167 1.93761 8.54945 0.414156 11.6299 0.0620475C11.83 0.0321187 12.0315 0.0125967 12.2336 0.00356001C12.542 -0.00428587 12.8504 0.0028468 13.1577 0.0028468ZM17.8917 22.8297C17.8999 22.8654 17.9135 22.9299 17.9291 22.9956C18.3638 24.8222 18.7988 26.6495 19.234 28.4773C20.4607 33.6316 21.6845 38.7865 22.9053 43.9419C22.9698 44.2176 23.0659 44.2697 23.3391 44.2041C24.7893 43.83 26.3259 43.9968 27.6624 44.6734C27.6999 44.7013 27.7429 44.7208 27.7886 44.7306C27.8343 44.7403 27.8815 44.7401 27.9271 44.73C27.9727 44.7198 28.0156 44.7 28.0528 44.6717C28.09 44.6435 28.1207 44.6076 28.1429 44.5664C31.2237 40.825 34.3338 37.1082 37.3409 33.3068C37.4869 33.1232 37.4535 33.0116 37.3345 32.835C35.7793 30.5376 35.65 28.1599 36.9748 25.7209C37.1062 25.4777 37.0674 25.39 36.8395 25.267C34.3411 23.9144 31.8459 22.5557 29.3537 21.191C27.4944 20.176 25.6325 19.1682 23.7746 18.1486C23.5691 18.0359 23.4619 18.0619 23.3348 18.2556C22.9845 18.7869 22.5865 19.285 22.1457 19.7438C21.003 20.9519 19.6263 21.9139 18.0997 22.5712C18.0014 22.6168 17.8618 22.6314 17.8917 22.8297ZM21.349 11.6526C21.3648 10.8473 21.2272 10.0464 20.9437 9.29273C19.6994 6.01172 17.2792 4.19719 13.8344 3.87764C12.5334 3.73419 11.2172 3.9153 10.0031 4.40482C8.78902 4.89435 7.71473 5.67708 6.87599 6.68326C5.75162 7.96483 5.08222 9.58291 4.97214 11.2853C4.86205 12.9876 5.31745 14.6787 6.26737 16.0948C7.20146 17.4655 8.52243 18.5262 10.0615 19.1414C11.6006 19.7566 13.2878 19.8983 14.9077 19.5484C16.7292 19.1846 18.3677 18.198 19.5428 16.7576C20.7179 15.3172 21.3564 13.5125 21.349 11.6526ZM24.9345 54.0917C25.1525 54.0977 25.3705 54.0777 25.5837 54.0321C26.1949 53.9418 26.7776 53.7136 27.2878 53.3647C27.798 53.0159 28.2224 52.5555 28.5289 52.0184C28.8354 51.4813 29.0161 50.8814 29.0572 50.2641C29.0984 49.6469 28.9989 49.0283 28.7664 48.4551C28.3794 47.5863 27.7156 46.8706 26.8789 46.42C26.0423 45.9693 25.08 45.8092 24.1428 45.9648C23.5976 46.0489 23.0749 46.2418 22.6055 46.532C22.1361 46.8222 21.7296 47.2037 21.4101 47.6541C21.0906 48.1044 20.8647 48.6144 20.7456 49.1538C20.6265 49.6932 20.6168 50.251 20.7169 50.7943C20.9263 51.7498 21.4623 52.6021 22.2323 53.2041C23.0023 53.8061 23.958 54.1201 24.9345 54.0917ZM43.0023 25.0063C42.7137 25.0058 42.4257 25.031 42.1415 25.0815C41.5619 25.1894 41.0134 25.4246 40.5355 25.7702C40.0575 26.1158 39.662 26.5631 39.3774 27.0801C39.0928 27.5971 38.9262 28.1709 38.8895 28.7601C38.8528 29.3493 38.9471 29.9393 39.1654 30.4877C39.5891 31.4605 40.3654 32.2363 41.3378 32.6586C42.3102 33.0808 43.4063 33.1181 44.4051 32.763C45.3378 32.4529 46.1229 31.808 46.609 30.9527C47.0951 30.0974 47.2479 29.0921 47.0379 28.1307C46.8188 27.229 46.3 26.4287 45.5667 25.8612C44.8334 25.2938 43.9292 24.9929 43.0026 25.008L43.0023 25.0063Z" fill="#12A71E"/>
</g>
<path d="M65.2146 39.7749C65.0202 39.4928 64.9338 39.1999 64.9554 38.8961C64.977 38.5706 65.1606 38.2885 65.5062 38.0498C65.7222 37.8979 65.9706 37.8328 66.2514 37.8545C66.5539 37.8762 66.8239 38.0172 67.0615 38.2776C67.6663 38.9937 68.3575 39.5687 69.1352 40.0027C69.9128 40.415 70.8632 40.6212 71.9865 40.6212C72.5049 40.5995 73.0233 40.5127 73.5417 40.3608C74.0602 40.2089 74.4922 39.9485 74.8378 39.5796C75.205 39.189 75.3886 38.6791 75.3886 38.0498C75.3886 37.4422 75.205 36.9648 74.8378 36.6176C74.4706 36.2487 73.9954 35.9558 73.4121 35.7388C72.8289 35.5001 72.1917 35.294 71.5005 35.1204C70.7876 34.9251 70.0856 34.7081 69.3944 34.4694C68.7031 34.209 68.0767 33.8944 67.5151 33.5255C66.9751 33.1349 66.5323 32.6575 66.1866 32.0933C65.8626 31.5074 65.7006 30.8022 65.7006 29.9776C65.7006 29.0012 65.9598 28.1549 66.4783 27.4388C67.0183 26.7227 67.7311 26.1694 68.6167 25.7788C69.524 25.3882 70.5068 25.1929 71.5653 25.1929C72.1701 25.1929 72.7965 25.2689 73.4445 25.4208C74.1142 25.551 74.7622 25.7897 75.3886 26.1369C76.0151 26.4624 76.5659 26.918 77.0411 27.5039C77.2355 27.7209 77.3435 27.9922 77.3651 28.3176C77.3867 28.6431 77.2463 28.9361 76.9439 29.1965C76.7063 29.3701 76.4363 29.446 76.1339 29.4243C75.853 29.4026 75.6154 29.2941 75.421 29.0988C74.9674 28.5563 74.395 28.1441 73.7038 27.862C73.0341 27.5582 72.2889 27.4063 71.4681 27.4063C70.9496 27.4063 70.442 27.4822 69.9452 27.6341C69.4484 27.786 69.0272 28.0464 68.6815 28.4153C68.3575 28.7625 68.1955 29.2507 68.1955 29.88C68.2171 30.4659 68.4115 30.9433 68.7787 31.3122C69.146 31.681 69.6428 31.9848 70.2692 32.2235C70.8956 32.4405 71.5869 32.6575 72.3429 32.8745C73.0341 33.0481 73.693 33.2542 74.3194 33.4929C74.9674 33.7099 75.5506 34.0029 76.0691 34.3718C76.5875 34.7406 76.9979 35.218 77.3003 35.8039C77.6027 36.3681 77.7539 37.0842 77.7539 37.9521C77.7539 38.9503 77.4731 39.8183 76.9115 40.5561C76.3499 41.2721 75.6046 41.8255 74.6758 42.2161C73.7686 42.5849 72.7857 42.7694 71.7273 42.7694C70.5392 42.7694 69.362 42.5415 68.1955 42.0859C67.0507 41.6302 66.057 40.8598 65.2146 39.7749Z" fill="#12A71E"/>
<path d="M94.0399 25.6161C94.4287 25.6161 94.7419 25.7463 94.9796 26.0067C95.2172 26.2454 95.336 26.5492 95.336 26.918V35.8039C95.336 37.9955 94.7203 39.6989 93.4891 40.9141C92.2794 42.1076 90.5838 42.7043 88.4021 42.7043C86.242 42.7043 84.5463 42.1076 83.3151 40.9141C82.1054 39.6989 81.5006 37.9955 81.5006 35.8039V26.918C81.5006 26.5492 81.6194 26.2454 81.857 26.0067C82.1162 25.7463 82.4294 25.6161 82.7966 25.6161C83.1855 25.6161 83.4987 25.7463 83.7363 26.0067C83.9739 26.2454 84.0927 26.5492 84.0927 26.918V35.8039C84.0927 37.2795 84.4707 38.397 85.2267 39.1565C85.9828 39.9159 87.0412 40.2957 88.4021 40.2957C89.8061 40.2957 90.8754 39.9159 91.6098 39.1565C92.3658 38.397 92.7439 37.2795 92.7439 35.8039V26.918C92.7439 26.5492 92.8627 26.2454 93.1003 26.0067C93.3595 25.7463 93.6727 25.6161 94.0399 25.6161Z" fill="#12A71E"/>
<path d="M108.4 25.3557C109.869 25.3557 111.187 25.7246 112.353 26.4624C113.519 27.2001 114.437 28.22 115.107 29.522C115.798 30.8239 116.144 32.3212 116.144 34.0137C116.144 35.6846 115.798 37.1818 115.107 38.5055C114.437 39.8074 113.519 40.8381 112.353 41.5976C111.208 42.3354 109.912 42.7043 108.465 42.7043C107.666 42.7043 106.91 42.5849 106.197 42.3463C105.506 42.0859 104.868 41.7604 104.285 41.3698C103.723 40.9575 103.248 40.5018 102.859 40.0027C102.471 39.4819 102.19 38.972 102.017 38.4729L102.73 38.0172V47.6192C102.73 47.9881 102.611 48.3027 102.373 48.5631C102.136 48.8235 101.823 48.9537 101.434 48.9537C101.067 48.9537 100.753 48.8235 100.494 48.5631C100.257 48.3244 100.138 48.0098 100.138 47.6192V26.8204C100.138 26.4515 100.257 26.1477 100.494 25.909C100.753 25.6486 101.067 25.5184 101.434 25.5184C101.823 25.5184 102.136 25.6486 102.373 25.909C102.611 26.1477 102.73 26.4515 102.73 26.8204V29.7173L102.244 29.4569C102.395 28.9144 102.654 28.3936 103.021 27.8945C103.41 27.3954 103.875 26.9614 104.415 26.5926C104.976 26.202 105.592 25.8982 106.262 25.6812C106.953 25.4642 107.666 25.3557 108.4 25.3557ZM108.108 27.7643C107.028 27.7643 106.067 28.0356 105.225 28.578C104.404 29.1205 103.756 29.8583 103.281 30.7914C102.827 31.7244 102.6 32.7986 102.6 34.0137C102.6 35.2072 102.827 36.2813 103.281 37.2361C103.756 38.1908 104.404 38.9395 105.225 39.4819C106.067 40.0244 107.028 40.2957 108.108 40.2957C109.188 40.2957 110.139 40.0244 110.96 39.4819C111.781 38.9395 112.429 38.1908 112.904 37.2361C113.379 36.2813 113.617 35.2072 113.617 34.0137C113.617 32.7986 113.379 31.7244 112.904 30.7914C112.429 29.8583 111.781 29.1205 110.96 28.578C110.139 28.0356 109.188 27.7643 108.108 27.7643Z" fill="#12A71E"/>
<path d="M122.892 41.1094C122.892 41.4783 122.762 41.7929 122.503 42.0533C122.244 42.3137 121.931 42.4439 121.563 42.4439C121.196 42.4439 120.894 42.3137 120.656 42.0533C120.419 41.7929 120.3 41.4783 120.3 41.1094V19.6596C120.3 19.2907 120.419 18.9869 120.656 18.7483C120.915 18.4879 121.229 18.3577 121.596 18.3577C121.985 18.3577 122.298 18.4879 122.535 18.7483C122.773 18.9869 122.892 19.2907 122.892 19.6596V41.1094Z" fill="#12A71E"/>
<path d="M141.722 25.4533C142.09 25.4533 142.392 25.5835 142.63 25.8439C142.889 26.0826 143.018 26.3864 143.018 26.7553V41.1094C143.018 41.4783 142.889 41.7929 142.63 42.0533C142.392 42.3137 142.09 42.4439 141.722 42.4439C141.334 42.4439 141.02 42.3137 140.783 42.0533C140.545 41.7929 140.426 41.4783 140.426 41.1094V38.0172L141.042 37.9521C141.042 38.4295 140.88 38.9503 140.556 39.5145C140.232 40.0787 139.789 40.6103 139.227 41.1094C138.666 41.5868 137.996 41.9882 137.219 42.3137C136.462 42.6175 135.642 42.7694 134.756 42.7694C133.287 42.7694 131.97 42.3897 130.803 41.6302C129.637 40.849 128.708 39.7966 128.017 38.4729C127.347 37.1493 127.012 35.6412 127.012 33.9486C127.012 32.2344 127.347 30.7263 128.017 29.4243C128.708 28.1007 129.637 27.0699 130.803 26.3322C131.97 25.5727 133.266 25.1929 134.691 25.1929C135.62 25.1929 136.484 25.3448 137.283 25.6486C138.083 25.9524 138.774 26.3647 139.357 26.8855C139.962 27.4063 140.426 27.9813 140.75 28.6106C141.096 29.2399 141.269 29.8691 141.269 30.4984L140.426 30.3031V26.7553C140.426 26.3864 140.545 26.0826 140.783 25.8439C141.02 25.5835 141.334 25.4533 141.722 25.4533ZM135.048 40.3608C136.128 40.3608 137.078 40.0787 137.899 39.5145C138.741 38.9503 139.389 38.1908 139.843 37.2361C140.318 36.2596 140.556 35.1638 140.556 33.9486C140.556 32.7552 140.318 31.681 139.843 30.7263C139.389 29.7498 138.741 28.9903 137.899 28.4478C137.078 27.8837 136.128 27.6016 135.048 27.6016C133.989 27.6016 133.039 27.8728 132.196 28.4153C131.375 28.9578 130.727 29.7064 130.252 30.6612C129.777 31.6159 129.539 32.7118 129.539 33.9486C129.539 35.1638 129.766 36.2596 130.22 37.2361C130.695 38.1908 131.343 38.9503 132.164 39.5145C133.006 40.0787 133.968 40.3608 135.048 40.3608Z" fill="#12A71E"/>
<defs>
<clipPath id="clip0_5374_19982">
<rect width="48.9536" height="56" fill="white" transform="translate(0.978516)"/>
</clipPath>
</defs>
</svg>
