<svg width="64" height="64" viewBox="0 0 64 64" fill="none" xmlns="http://www.w3.org/2000/svg">
<g clip-path="url(#clip0_5611_2430)">
<path d="M6.30028 19.6185H5.16714C2.32672 19.6185 0 21.9301 0 24.7857V57.7979C0 60.6383 2.31162 62.9651 5.16714 62.9651H58.8329C61.6733 62.9651 64 60.6535 64 57.7979V24.7705C64 21.9301 61.6884 19.6185 58.8329 19.6185H16.423M60.9027 1.03494C61.4769 1.03494 61.9301 1.50331 61.9301 2.06233C61.9301 2.63645 61.4618 3.08971 60.9027 3.08971C60.3286 3.08971 59.8754 2.62135 59.8754 2.06233C59.8602 1.50331 60.3286 1.03494 60.9027 1.03494ZM14.2625 19.6185H8.46081H14.2625ZM61.9301 57.7828C61.9301 59.4901 60.5401 60.8801 58.8329 60.8801H5.16714C3.45987 60.8801 2.06988 59.4901 2.06988 57.7828V24.7705C2.06988 23.0633 3.45987 21.6733 5.16714 21.6733H58.8329C60.5401 21.6733 61.9301 23.0633 61.9301 24.7705V57.7828Z" fill="#282828"/>
<path fill-rule="evenodd" clip-rule="evenodd" d="M46.897 38.2021C41.7319 38.2021 37.5448 42.3892 37.5448 47.5543C37.5448 52.7194 41.7319 56.9065 46.897 56.9065C52.0621 56.9065 56.2493 52.7194 56.2493 47.5543C56.2493 42.3892 52.0621 38.2021 46.897 38.2021ZM35.1274 47.5543C35.1274 41.0541 40.3969 35.7847 46.897 35.7847C53.3972 35.7847 58.6666 41.0541 58.6666 47.5543C58.6666 54.0545 53.3972 59.3239 46.897 59.3239C40.3969 59.3239 35.1274 54.0545 35.1274 47.5543Z" fill="#282828"/>
<path fill-rule="evenodd" clip-rule="evenodd" d="M38.8374 54.2715L53.674 39.4198L54.9567 40.7011L40.1201 55.5529L38.8374 54.2715Z" fill="#282828"/>
<path fill-rule="evenodd" clip-rule="evenodd" d="M36.3301 49.3907L49.0817 36.6542L50.363 37.9369L37.6113 50.6735L36.3301 49.3907Z" fill="#282828"/>
<path fill-rule="evenodd" clip-rule="evenodd" d="M43.5066 56.5673L56.2582 43.8308L57.5395 45.1135L44.7878 57.8501L43.5066 56.5673Z" fill="#282828"/>
<path fill-rule="evenodd" clip-rule="evenodd" d="M39.8935 39.45L54.7301 54.3017L53.4475 55.5831L38.6108 40.7313L39.8935 39.45Z" fill="#282828"/>
<path fill-rule="evenodd" clip-rule="evenodd" d="M44.7581 36.9567L57.4946 49.6933L56.2126 50.9753L43.4761 38.2387L44.7581 36.9567Z" fill="#282828"/>
<path fill-rule="evenodd" clip-rule="evenodd" d="M37.5816 44.1333L50.3181 56.8698L49.0361 58.1518L36.2996 45.4153L37.5816 44.1333Z" fill="#282828"/>
<path fill-rule="evenodd" clip-rule="evenodd" d="M8.4308 26.6893V31.7961H55.5545V26.6893H8.4308ZM57.9719 31.4939V25.7828C57.9719 24.9491 57.2948 24.272 56.461 24.272H7.52429C6.69055 24.272 6.01343 24.9491 6.01343 25.7828V32.7026C6.01343 33.5363 6.69055 34.2134 7.52429 34.2134H56.4761C57.3099 34.2134 57.987 33.5363 57.987 32.7026V31.4939H57.9719Z" fill="#282828"/>
<path fill-rule="evenodd" clip-rule="evenodd" d="M32.0908 27.6714C32.7583 27.6714 33.2995 28.2125 33.2995 28.8801V32.1435C33.2995 32.8111 32.7583 33.3522 32.0908 33.3522C31.4232 33.3522 30.8821 32.8111 30.8821 32.1435V28.8801C30.8821 28.2125 31.4232 27.6714 32.0908 27.6714Z" fill="#282828"/>
<path fill-rule="evenodd" clip-rule="evenodd" d="M19.7773 27.6714C20.4448 27.6714 20.986 28.2125 20.986 28.8801V32.1435C20.986 32.8111 20.4448 33.3522 19.7773 33.3522C19.1098 33.3522 18.5686 32.8111 18.5686 32.1435V28.8801C18.5686 28.2125 19.1098 27.6714 19.7773 27.6714Z" fill="#282828"/>
<path fill-rule="evenodd" clip-rule="evenodd" d="M13.5373 27.6714C14.2048 27.6714 14.746 28.2125 14.746 28.8801V32.1435C14.746 32.8111 14.2048 33.3522 13.5373 33.3522C12.8698 33.3522 12.3286 32.8111 12.3286 32.1435V28.8801C12.3286 28.2125 12.8698 27.6714 13.5373 27.6714Z" fill="#282828"/>
<path fill-rule="evenodd" clip-rule="evenodd" d="M26.0168 27.6714C26.6843 27.6714 27.2255 28.2125 27.2255 28.8801V32.1435C27.2255 32.8111 26.6843 33.3522 26.0168 33.3522C25.3493 33.3522 24.8081 32.8111 24.8081 32.1435V28.8801C24.8081 28.2125 25.3493 27.6714 26.0168 27.6714Z" fill="#282828"/>
<path fill-rule="evenodd" clip-rule="evenodd" d="M50.78 27.6714C51.4475 27.6714 51.9887 28.2125 51.9887 28.8801V32.1435C51.9887 32.8111 51.4475 33.3522 50.78 33.3522C50.1124 33.3522 49.5713 32.8111 49.5713 32.1435V28.8801C49.5713 28.2125 50.1124 27.6714 50.78 27.6714Z" fill="#282828"/>
<path fill-rule="evenodd" clip-rule="evenodd" d="M38.4665 27.6714C39.134 27.6714 39.6752 28.2125 39.6752 28.8801V32.1435C39.6752 32.8111 39.134 33.3522 38.4665 33.3522C37.799 33.3522 37.2578 32.8111 37.2578 32.1435V28.8801C37.2578 28.2125 37.799 27.6714 38.4665 27.6714Z" fill="#282828"/>
<path fill-rule="evenodd" clip-rule="evenodd" d="M44.7065 27.6714C45.374 27.6714 45.9152 28.2125 45.9152 28.8801V32.1435C45.9152 32.8111 45.374 33.3522 44.7065 33.3522C44.039 33.3522 43.4978 32.8111 43.4978 32.1435V28.8801C43.4978 28.2125 44.039 27.6714 44.7065 27.6714Z" fill="#282828"/>
<path fill-rule="evenodd" clip-rule="evenodd" d="M11.3618 38.4891C9.37583 38.4891 7.76591 40.099 7.76591 42.085C7.76591 44.0709 9.37583 45.6808 11.3618 45.6808C13.3477 45.6808 14.9576 44.0709 14.9576 42.085C14.9576 40.099 13.3477 38.4891 11.3618 38.4891ZM5.95288 42.085C5.95288 39.0977 8.37452 36.6761 11.3618 36.6761C14.349 36.6761 16.7706 39.0977 16.7706 42.085C16.7706 45.0722 14.349 47.4938 11.3618 47.4938C8.37452 47.4938 5.95288 45.0722 5.95288 42.085Z" fill="#282828"/>
<path fill-rule="evenodd" clip-rule="evenodd" d="M11.3618 50.017C9.37583 50.017 7.76591 51.6269 7.76591 53.6128C7.76591 55.5988 9.37583 57.2087 11.3618 57.2087C13.3477 57.2087 14.9576 55.5988 14.9576 53.6128C14.9576 51.6269 13.3477 50.017 11.3618 50.017ZM5.95288 53.6128C5.95288 50.6256 8.37452 48.2039 11.3618 48.2039C14.349 48.2039 16.7706 50.6256 16.7706 53.6128C16.7706 56.6001 14.349 59.0217 11.3618 59.0217C8.37452 59.0217 5.95288 56.6001 5.95288 53.6128Z" fill="#282828"/>
<path d="M7.22192 20.6761C7.22192 19.0897 8.50615 17.8055 10.0926 17.8055C11.679 17.8055 12.9632 19.0897 12.9632 20.6761" fill="#282828"/>
<path fill-rule="evenodd" clip-rule="evenodd" d="M61.1894 2.92225L10.3792 19.8741L9.80542 18.1542L60.6156 1.20241L61.1894 2.92225Z" fill="#282828"/>
</g>
<defs>
<clipPath id="clip0_5611_2430">
<rect width="64" height="64" fill="white"/>
</clipPath>
</defs>
</svg>
