<?xml version="1.0" encoding="UTF-8"?>
<svg height="600" width="800" xmlns="http://www.w3.org/2000/svg" xmlns:xlink="http://www.w3.org/1999/xlink">
    <g id="Notes" font-family="'LucidaGrande', 'Lucida Grande', sans-serif" font-size="13">
        <rect fill="white" height="600.0" width="800.0" x="0.0" y="0.0" />
        <g font-size="13">
            <text x="18.0" y="176.0">Small</text>
            <text x="18.0" y="376.0">Medium</text>
            <text x="18.0" y="576.0">Large</text>
        </g>
        <g font-size="9">
            <text x="250.0" y="30.0">Ultralight</text>
            <text x="450.0" y="30.0">Regular</text>
            <text x="650.0" y="30.0">Black</text>
            <text id="template-version" fill="#505050" text-anchor="end" x="785.0" y="575.0">Template v.3.0</text>
            <a href="https://github.com/swhitty/SwiftDraw">
                <text fill="#505050" text-anchor="end" x="785.0" y="590.0">https://github.com/swhitty/SwiftDraw</text>
            </a>
        </g>
    </g>
    <g id="Guides" stroke="rgb(39, 170, 225)" stroke-width="0.5">
        <path id="Capline-S" d="M18,76 l800,0" />
        <path id="H-reference" d="M85,145.755 L87.685,145.755 L113.369,79.287 L114.052,79.287 L114.052,76 L112.148,76 L85,145.755 Z M95.693,121.536 L130.996,121.536 L130.263,119.313 L96.474,119.313 L95.693,121.536 Z M139.15,145.755 L141.787,145.755 L114.638,76 L113.466,76 L113.466,79.287 L139.15,145.755 Z" stroke="none" />
        <path id="Baseline-S" d="M18,146 l800,0" />
        <path id="left-margin-Ultralight-S" d="M219.3,56 l0,110" />
        <path id="right-margin-Ultralight-S" d="M310.7,56 l0,110" />
        <path id="left-margin-Regular-S" d="M419.3,56 l0,110" />
        <path id="right-margin-Regular-S" d="M510.7,56 l0,110" />
        <path id="left-margin-Black-S" d="M619.3,56 l0,110" />
        <path id="right-margin-Black-S" d="M710.7,56 l0,110" />
        <path id="Capline-M" d="M18,276 l800,0" />
        <path id="Baseline-M" d="M18,346 l800,0" />
        <path id="Capline-L" d="M18,476 l800,0" />
        <path id="Baseline-L" d="M18,546 l800,0" />
    </g>
    <g id="Symbols">
        <g id="Ultralight-S">
            <path d="M229.3,77.4 C229.3,76.627 229.927,76 230.7,76 L299.3,76 C300.073,76 300.7,76.627 300.7,77.4 L300.7,85.24 C300.7,86.013 300.073,86.64 299.3,86.64 L230.7,86.64 C229.927,86.64 229.3,86.013 229.3,85.24 L229.3,77.4 Z M232.1,78.8 L232.1,83.84 L297.9,83.84 L297.9,78.8 L232.1,78.8 Z" />
            <path d="M264.997,134.31 C265.732,134.31 266.327,134.905 266.327,135.64 L266.327,140.12 C266.327,140.855 265.732,141.45 264.997,141.45 C264.262,141.45 263.667,140.855 263.667,140.12 L263.667,135.64 C263.667,134.905 264.262,134.31 264.997,134.31 Z" />
            <path d="M261.36,142.36 C261.36,140.35 262.99,138.72 265,138.72 C267.01,138.72 268.64,140.35 268.64,142.36 C268.64,144.37 267.01,146 265,146 C262.99,146 261.36,144.37 261.36,142.36 Z M265,141.52 C264.536,141.52 264.16,141.896 264.16,142.36 C264.16,142.824 264.536,143.2 265,143.2 C265.464,143.2 265.84,142.824 265.84,142.36 C265.84,141.896 265.464,141.52 265,141.52 Z" />
            <path d="M231.12,135.64 C231.12,134.867 231.747,134.24 232.52,134.24 L297.48,134.24 C298.253,134.24 298.88,134.867 298.88,135.64 C298.88,136.413 298.253,137.04 297.48,137.04 L232.52,137.04 C231.747,137.04 231.12,136.413 231.12,135.64 Z" />
            <path d="M233.92,85.24 C233.92,84.467 234.547,83.84 235.32,83.84 L294.68,83.84 C295.453,83.84 296.08,84.467 296.08,85.24 L296.08,135.64 C296.08,136.413 295.453,137.04 294.68,137.04 L235.32,137.04 C234.547,137.04 233.92,136.413 233.92,135.64 L233.92,85.24 Z M236.72,86.64 L236.72,134.24 L293.28,134.24 L293.28,86.64 L236.72,86.64 Z" />
        </g>
        <g id="Regular-S">
            <path d="M429.3,77.4 C429.3,76.627 429.927,76 430.7,76 L499.3,76 C500.073,76 500.7,76.627 500.7,77.4 L500.7,85.24 C500.7,86.013 500.073,86.64 499.3,86.64 L430.7,86.64 C429.927,86.64 429.3,86.013 429.3,85.24 L429.3,77.4 Z M432.1,78.8 L432.1,83.84 L497.9,83.84 L497.9,78.8 L432.1,78.8 Z" />
            <path d="M464.997,134.31 C465.732,134.31 466.327,134.905 466.327,135.64 L466.327,140.12 C466.327,140.855 465.732,141.45 464.997,141.45 C464.262,141.45 463.667,140.855 463.667,140.12 L463.667,135.64 C463.667,134.905 464.262,134.31 464.997,134.31 Z" />
            <path d="M461.36,142.36 C461.36,140.35 462.99,138.72 465,138.72 C467.01,138.72 468.64,140.35 468.64,142.36 C468.64,144.37 467.01,146 465,146 C462.99,146 461.36,144.37 461.36,142.36 Z M465,141.52 C464.536,141.52 464.16,141.896 464.16,142.36 C464.16,142.824 464.536,143.2 465,143.2 C465.464,143.2 465.84,142.824 465.84,142.36 C465.84,141.896 465.464,141.52 465,141.52 Z" />
            <path d="M431.12,135.64 C431.12,134.867 431.747,134.24 432.52,134.24 L497.48,134.24 C498.253,134.24 498.88,134.867 498.88,135.64 C498.88,136.413 498.253,137.04 497.48,137.04 L432.52,137.04 C431.747,137.04 431.12,136.413 431.12,135.64 Z" />
            <path d="M433.92,85.24 C433.92,84.467 434.547,83.84 435.32,83.84 L494.68,83.84 C495.453,83.84 496.08,84.467 496.08,85.24 L496.08,135.64 C496.08,136.413 495.453,137.04 494.68,137.04 L435.32,137.04 C434.547,137.04 433.92,136.413 433.92,135.64 L433.92,85.24 Z M436.72,86.64 L436.72,134.24 L493.28,134.24 L493.28,86.64 L436.72,86.64 Z" />
        </g>
        <g id="Black-S">
            <path d="M629.3,77.4 C629.3,76.627 629.927,76 630.7,76 L699.3,76 C700.073,76 700.7,76.627 700.7,77.4 L700.7,85.24 C700.7,86.013 700.073,86.64 699.3,86.64 L630.7,86.64 C629.927,86.64 629.3,86.013 629.3,85.24 L629.3,77.4 Z M632.1,78.8 L632.1,83.84 L697.9,83.84 L697.9,78.8 L632.1,78.8 Z" />
            <path d="M664.997,134.31 C665.731,134.31 666.327,134.905 666.327,135.64 L666.327,140.12 C666.327,140.855 665.731,141.45 664.997,141.45 C664.262,141.45 663.667,140.855 663.667,140.12 L663.667,135.64 C663.667,134.905 664.262,134.31 664.997,134.31 Z" />
            <path d="M661.36,142.36 C661.36,140.35 662.99,138.72 665,138.72 C667.01,138.72 668.64,140.35 668.64,142.36 C668.64,144.37 667.01,146 665,146 C662.99,146 661.36,144.37 661.36,142.36 Z M665,141.52 C664.536,141.52 664.16,141.896 664.16,142.36 C664.16,142.824 664.536,143.2 665,143.2 C665.464,143.2 665.84,142.824 665.84,142.36 C665.84,141.896 665.464,141.52 665,141.52 Z" />
            <path d="M631.12,135.64 C631.12,134.867 631.747,134.24 632.52,134.24 L697.48,134.24 C698.253,134.24 698.88,134.867 698.88,135.64 C698.88,136.413 698.253,137.04 697.48,137.04 L632.52,137.04 C631.747,137.04 631.12,136.413 631.12,135.64 Z" />
            <path d="M633.92,85.24 C633.92,84.467 634.547,83.84 635.32,83.84 L694.68,83.84 C695.453,83.84 696.08,84.467 696.08,85.24 L696.08,135.64 C696.08,136.413 695.453,137.04 694.68,137.04 L635.32,137.04 C634.547,137.04 633.92,136.413 633.92,135.64 L633.92,85.24 Z M636.72,86.64 L636.72,134.24 L693.28,134.24 L693.28,86.64 L636.72,86.64 Z" />
        </g>
    </g>
</svg>