<svg width="16" height="16" viewBox="0 0 16 16" fill="none" xmlns="http://www.w3.org/2000/svg">
<path d="M15.0745 15.0677C15.4305 14.7116 15.4504 14.1269 15.1089 13.7853L9.30881 7.98525L15.0664 2.22762C15.4158 1.87826 15.4225 1.28035 15.0744 0.932216C14.7197 0.577514 14.1284 0.590824 13.779 0.940177L8.02137 6.69781L2.21475 0.891189C1.87318 0.549623 1.28841 0.569501 0.932337 0.925573C0.569545 1.28836 0.556387 1.86642 0.897953 2.20799L6.70457 8.0146L0.946941 13.7722C0.597586 14.1216 0.577559 14.7196 0.932262 15.0744C1.2804 15.4225 1.88503 15.409 2.23438 15.0597L7.99201 9.30204L13.7921 15.1021C14.1336 15.4437 14.7117 15.4305 15.0745 15.0677Z" fill="#262627"/>
</svg>
