<svg width="24" height="24" viewBox="0 0 24 24" fill="none" xmlns="http://www.w3.org/2000/svg">
<rect x="1.5" y="1.5" width="21" height="21" rx="10.5" stroke="white"/>
<path d="M12.602 17.646C12.602 17.85 12.53 18.024 12.386 18.168C12.254 18.312 12.086 18.384 11.882 18.384C11.666 18.384 11.492 18.312 11.36 18.168C11.228 18.024 11.162 17.85 11.162 17.646V9.654C11.162 9.45 11.228 9.282 11.36 9.15C11.504 9.006 11.678 8.934 11.882 8.934C12.086 8.934 12.254 9.006 12.386 9.15C12.53 9.282 12.602 9.45 12.602 9.654V17.646ZM11.882 7.728C11.582 7.728 11.36 7.668 11.216 7.548C11.072 7.428 11 7.242 11 6.99V6.738C11 6.486 11.078 6.3 11.234 6.18C11.39 6.06 11.612 6 11.9 6C12.188 6 12.404 6.06 12.548 6.18C12.692 6.3 12.764 6.486 12.764 6.738V6.99C12.764 7.242 12.686 7.428 12.53 7.548C12.386 7.668 12.17 7.728 11.882 7.728Z" fill="white"/>
</svg>
