<svg width="64" height="64" viewBox="0 0 64 64" fill="none" xmlns="http://www.w3.org/2000/svg">
<path d="M30.9917 8.49786C30.9729 8.50413 30.9541 8.50413 30.9353 8.51039C30.9541 8.51039 30.9729 8.50413 30.9917 8.49786Z" fill="#12A71E"/>
<path d="M31.2799 8.44147C31.2423 8.44773 31.2047 8.45399 31.1609 8.46652C31.1985 8.45399 31.2423 8.44773 31.2799 8.44147Z" fill="#12A71E"/>
<path d="M31.5304 28.5244C35.2126 28.5244 38.1996 31.5115 38.1996 35.1937C38.1996 38.8759 35.2126 41.863 31.5304 41.863C27.8482 41.863 24.8611 38.8759 24.8611 35.1937C24.8611 31.5115 27.8482 28.5244 31.5304 28.5244ZM31.5304 26.6458C29.2447 26.6458 27.103 27.535 25.4873 29.1506C23.8717 30.7663 22.9824 32.9142 22.9824 35.1937C22.9824 37.4731 23.8717 39.6211 25.4873 41.2367C27.103 42.8524 29.2509 43.7416 31.5304 43.7416C33.8098 43.7416 35.9578 42.8524 37.5734 41.2367C39.1891 39.6211 40.0783 37.4731 40.0783 35.1937C40.0783 32.9142 39.1891 30.7663 37.5734 29.1506C35.964 27.535 33.8161 26.6458 31.5304 26.6458Z" fill="#FCFCFC"/>
<path fill-rule="evenodd" clip-rule="evenodd" d="M30.301 24.0532V28.0861H28.301V24.0532H30.301Z" fill="#FCFCFC"/>
<path fill-rule="evenodd" clip-rule="evenodd" d="M35.6365 24.0532V28.0861H33.6365V24.0532H35.6365Z" fill="#FCFCFC"/>
<path fill-rule="evenodd" clip-rule="evenodd" d="M9.80225 30.8164C9.80225 30.2641 10.25 29.8164 10.8022 29.8164H24.861C25.4132 29.8164 25.861 30.2641 25.861 30.8164C25.861 31.3687 25.4132 31.8164 24.861 31.8164H11.8022V38.571H24.861C25.4132 38.571 25.861 39.0187 25.861 39.571C25.861 40.1233 25.4132 40.571 24.861 40.571H10.8022C10.25 40.571 9.80225 40.1233 9.80225 39.571V30.8164Z" fill="#FCFCFC"/>
<path fill-rule="evenodd" clip-rule="evenodd" d="M37.1995 30.8164C37.1995 30.2641 37.6472 29.8164 38.1995 29.8164H52.2644C52.8167 29.8164 53.2644 30.2641 53.2644 30.8164V39.571C53.2644 40.1233 52.8167 40.571 52.2644 40.571H38.1995C37.6472 40.571 37.1995 40.1233 37.1995 39.571C37.1995 39.0187 37.6472 38.571 38.1995 38.571H51.2644V31.8164H38.1995C37.6472 31.8164 37.1995 31.3687 37.1995 30.8164Z" fill="#FCFCFC"/>
<path d="M23.8716 16.3381L28.5056 20.7655C28.681 20.9346 28.8939 21.0223 29.1193 21.0223H35.9765V23.3644H27.5037L22.8696 18.937C22.6943 18.7679 22.4814 18.6802 22.2559 18.6802H5.5984V16.3381H23.8716ZM23.8716 14.4595H5.5984C4.55887 14.4595 3.71973 15.2986 3.71973 16.3381V18.6802C3.71973 19.7197 4.55887 20.5589 5.5984 20.5589H21.8489L26.2011 24.7233C26.5518 25.0552 27.0152 25.243 27.4974 25.243H35.9765C37.016 25.243 37.8551 24.4039 37.8551 23.3644V21.0223C37.8551 19.9828 37.016 19.1436 35.9765 19.1436H29.5264L25.1741 14.9792C24.8234 14.6473 24.36 14.4595 23.8716 14.4595Z" fill="#FCFCFC"/>
<path fill-rule="evenodd" clip-rule="evenodd" d="M36.5157 41.637L25.6194 30.7408L27.0336 29.3265L37.9299 40.2228L36.5157 41.637Z" fill="#FCFCFC"/>
</svg>
