<svg width="64" height="64" viewBox="0 0 64 64" fill="none" xmlns="http://www.w3.org/2000/svg">
<g clip-path="url(#clip0_5611_49621)">
<path d="M35.1663 2.07281C35.142 2.0809 35.1178 2.0809 35.0935 2.08899C35.1178 2.08899 35.142 2.0809 35.1663 2.07281Z" fill="#12A71E"/>
<path d="M35.5387 2C35.4902 2.00809 35.4416 2.01618 35.385 2.03236C35.4335 2.01618 35.4902 2.00809 35.5387 2Z" fill="#12A71E"/>
<path d="M35.8622 27.9424C40.6187 27.9424 44.4773 31.801 44.4773 36.5575C44.4773 41.314 40.6187 45.1726 35.8622 45.1726C31.1057 45.1726 27.2471 41.314 27.2471 36.5575C27.2471 31.801 31.1057 27.9424 35.8622 27.9424ZM35.8622 25.5156C32.9096 25.5156 30.1431 26.6643 28.056 28.7513C25.969 30.8383 24.8203 33.613 24.8203 36.5575C24.8203 39.502 25.969 42.2766 28.056 44.3636C30.1431 46.4507 32.9177 47.5994 35.8622 47.5994C38.8067 47.5994 41.5813 46.4507 43.6684 44.3636C45.7554 42.2766 46.9041 39.502 46.9041 36.5575C46.9041 33.613 45.7554 30.8383 43.6684 28.7513C41.5894 26.6643 38.8148 25.5156 35.8622 25.5156Z" fill="#282828"/>
<path fill-rule="evenodd" clip-rule="evenodd" d="M34.2742 22.1666V27.3761H31.6907V22.1666H34.2742Z" fill="#282828"/>
<path fill-rule="evenodd" clip-rule="evenodd" d="M41.1663 22.1666V27.3761H38.5828V22.1666H41.1663Z" fill="#282828"/>
<path fill-rule="evenodd" clip-rule="evenodd" d="M7.79468 30.9031C7.79468 30.1897 8.37302 29.6113 9.08644 29.6113H27.2469C27.9603 29.6113 28.5387 30.1897 28.5387 30.9031C28.5387 31.6165 27.9603 32.1948 27.2469 32.1948H10.3782V40.9202H27.2469C27.9603 40.9202 28.5387 41.4985 28.5387 42.2119C28.5387 42.9253 27.9603 43.5037 27.2469 43.5037H9.08644C8.37302 43.5037 7.79468 42.9253 7.79468 42.2119V30.9031Z" fill="#282828"/>
<path fill-rule="evenodd" clip-rule="evenodd" d="M43.1853 30.9031C43.1853 30.1897 43.7636 29.6113 44.4771 29.6113H62.6456C63.359 29.6113 63.9374 30.1897 63.9374 30.9031V42.2119C63.9374 42.9253 63.359 43.5037 62.6456 43.5037H44.4771C43.7636 43.5037 43.1853 42.9253 43.1853 42.2119C43.1853 41.4985 43.7636 40.9202 44.4771 40.9202H61.3539V32.1948H44.4771C43.7636 32.1948 43.1853 31.6165 43.1853 30.9031Z" fill="#282828"/>
<path d="M25.9689 12.2006L31.9549 17.9197C32.1814 18.1382 32.4565 18.2514 32.7477 18.2514H41.6055V21.2768H30.6607L24.6746 15.5577C24.4481 15.3393 24.173 15.226 23.8818 15.226H2.36429V12.2006H25.9689ZM25.9689 9.77382H2.36429C1.02147 9.77382 -0.0625 10.8578 -0.0625 12.2006V15.226C-0.0625 16.5688 1.02147 17.6528 2.36429 17.6528H23.356L28.9781 23.0322C29.4311 23.4609 30.0297 23.7036 30.6526 23.7036H41.6055C42.9483 23.7036 44.0323 22.6196 44.0323 21.2768V18.2514C44.0323 16.9086 42.9483 15.8246 41.6055 15.8246H33.2735L27.6514 10.4452C27.1984 10.0165 26.5998 9.77382 25.9689 9.77382Z" fill="#282828"/>
<path fill-rule="evenodd" clip-rule="evenodd" d="M42.3019 44.8807L28.2266 30.8053L30.0534 28.9785L44.1288 43.0539L42.3019 44.8807Z" fill="#282828"/>
</g>
<defs>
<clipPath id="clip0_5611_49621">
<rect width="63.8748" height="64" fill="white"/>
</clipPath>
</defs>
</svg>
