<svg width="64" height="49" viewBox="0 0 64 49" fill="none" xmlns="http://www.w3.org/2000/svg">
<g clip-path="url(#clip0_6377_13678)">
<path d="M31.8808 20.582C35.9945 20.582 39.3317 23.8991 39.3317 27.988C39.3317 32.0769 35.9945 35.394 31.8808 35.394C27.7671 35.394 24.4299 32.0769 24.4299 27.988C24.4299 23.8991 27.7671 20.582 31.8808 20.582ZM31.8808 18.4958C29.3272 18.4958 26.9345 19.4833 25.1295 21.2774C23.3245 23.0716 22.3311 25.4568 22.3311 27.988C22.3311 30.5192 23.3245 32.9045 25.1295 34.6986C26.9345 36.4927 29.3342 37.4802 31.8808 37.4802C34.4274 37.4802 36.8271 36.4927 38.6321 34.6986C40.4371 32.9045 41.4305 30.5192 41.4305 27.988C41.4305 25.4568 40.4371 23.0716 38.6321 21.2774C36.8341 19.4833 34.4344 18.4958 31.8808 18.4958Z" fill="#FCFCFC"/>
<path fill-rule="evenodd" clip-rule="evenodd" d="M30.5073 15.6169V20.0952H28.2729V15.6169H30.5073Z" fill="#FCFCFC"/>
<path fill-rule="evenodd" clip-rule="evenodd" d="M36.468 15.6169V20.0952H34.2336V15.6169H36.468Z" fill="#FCFCFC"/>
<path fill-rule="evenodd" clip-rule="evenodd" d="M7.6062 23.1272C7.6062 22.5139 8.10639 22.0167 8.7234 22.0167H24.4298C25.0468 22.0167 25.547 22.5139 25.547 23.1272C25.547 23.7405 25.0468 24.2376 24.4298 24.2376H9.8406V31.7384H24.4298C25.0468 31.7384 25.547 32.2355 25.547 32.8488C25.547 33.4621 25.0468 33.9593 24.4298 33.9593H8.7234C8.10639 33.9593 7.6062 33.4621 7.6062 32.8488V23.1272Z" fill="#FCFCFC"/>
<path fill-rule="evenodd" clip-rule="evenodd" d="M38.2141 23.1272C38.2141 22.5139 38.7143 22.0167 39.3313 22.0167H55.0447C55.6617 22.0167 56.1619 22.5139 56.1619 23.1272V32.8488C56.1619 33.4621 55.6617 33.9593 55.0447 33.9593H39.3313C38.7143 33.9593 38.2141 33.4621 38.2141 32.8488C38.2141 32.2355 38.7143 31.7384 39.3313 31.7384H53.9275V24.2376H39.3313C38.7143 24.2376 38.2141 23.7405 38.2141 23.1272Z" fill="#FCFCFC"/>
<path d="M23.3784 6.38441L28.5555 11.3009C28.7514 11.4886 28.9893 11.586 29.2411 11.586H36.9019V14.1867H27.4361L22.259 9.2703C22.0631 9.08254 21.8252 8.98519 21.5734 8.98519H2.96359V6.38441H23.3784ZM23.3784 4.29822H2.96359C1.80223 4.29822 0.864746 5.23005 0.864746 6.38441V8.98519C0.864746 10.1395 1.80223 11.0714 2.96359 11.0714H21.1186L25.9809 15.6958C26.3727 16.0643 26.8904 16.2729 27.4291 16.2729H36.9019C38.0633 16.2729 39.0008 15.3411 39.0008 14.1867V11.586C39.0008 10.4316 38.0633 9.49978 36.9019 9.49978H29.6959L24.8336 4.8754C24.4418 4.50684 23.9241 4.29822 23.3784 4.29822Z" fill="#FCFCFC"/>
<path fill-rule="evenodd" clip-rule="evenodd" d="M37.4502 35.143L25.2769 23.0431L26.8568 21.4727L39.0301 33.5726L37.4502 35.143Z" fill="#FCFCFC"/>
</g>
<defs>
<clipPath id="clip0_6377_13678">
<rect width="64" height="49" fill="white"/>
</clipPath>
</defs>
</svg>
