<svg width="32" height="32" viewBox="0 0 32 32" fill="none" xmlns="http://www.w3.org/2000/svg">
<mask id="mask0_7415_20421" style="mask-type:alpha" maskUnits="userSpaceOnUse" x="0" y="0" width="32" height="32">
<rect width="32" height="32" fill="#D9D9D9"/>
</mask>
<g mask="url(#mask0_7415_20421)">
<path d="M19.8693 13.2263C20.9309 12.1468 21.4617 10.849 21.4617 9.33301V5.33301H10.5383V9.33301C10.5383 10.851 11.0691 12.1493 12.1307 13.228C13.1922 14.3067 14.482 14.846 16 14.846C17.518 14.846 18.8078 14.3061 19.8693 13.2263ZM7 28.6663C6.71667 28.6663 6.47922 28.5705 6.28767 28.3787C6.09589 28.1869 6 27.9493 6 27.666C6 27.3825 6.09589 27.145 6.28767 26.9537C6.47922 26.7621 6.71667 26.6663 7 26.6663H8.53867V22.6663C8.53867 21.1655 8.94933 19.7992 9.77067 18.5677C10.592 17.3359 11.6804 16.4799 13.036 15.9997C11.6804 15.5108 10.592 14.6527 9.77067 13.4253C8.94933 12.198 8.53867 10.8339 8.53867 9.33301V5.33301H7C6.71667 5.33301 6.47922 5.23712 6.28767 5.04534C6.09589 4.85356 6 4.61601 6 4.33267C6 4.04912 6.09589 3.81167 6.28767 3.62034C6.47922 3.42879 6.71667 3.33301 7 3.33301H25C25.2833 3.33301 25.5208 3.4289 25.7123 3.62067C25.9041 3.81245 26 4.05001 26 4.33334C26 4.6169 25.9041 4.85434 25.7123 5.04567C25.5208 5.23723 25.2833 5.33301 25 5.33301H23.4613V9.33301C23.4613 10.8339 23.0507 12.198 22.2293 13.4253C21.408 14.6527 20.3196 15.5108 18.964 15.9997C20.3196 16.4799 21.408 17.3359 22.2293 18.5677C23.0507 19.7992 23.4613 21.1655 23.4613 22.6663V26.6663H25C25.2833 26.6663 25.5208 26.7622 25.7123 26.954C25.9041 27.1458 26 27.3833 26 27.6667C26 27.9502 25.9041 28.1877 25.7123 28.379C25.5208 28.5706 25.2833 28.6663 25 28.6663H7Z" fill="#12A71E"/>
</g>
</svg>
