<svg width="65" height="65" viewBox="0 0 65 65" fill="none" xmlns="http://www.w3.org/2000/svg">
<g clip-path="url(#clip0_6669_2216)">
<path d="M24.3279 51.4692C24.3279 45.3941 19.403 40.4692 13.3279 40.4692C7.25275 40.4692 2.32788 45.3941 2.32788 51.4692C2.32788 57.5444 7.25275 62.4692 13.3279 62.4692C19.403 62.4692 24.3279 57.5444 24.3279 51.4692ZM26.3279 51.4692C26.3279 58.6489 20.5076 64.4692 13.3279 64.4692C6.14818 64.4692 0.327881 58.6489 0.327881 51.4692C0.327881 44.2895 6.14818 38.4692 13.3279 38.4692C20.5076 38.4692 26.3279 44.2895 26.3279 51.4692Z" fill="#FEE618"/>
<path d="M36.5085 60.8481C36.3011 61.3598 35.7185 61.607 35.2067 61.3999C34.6948 61.1926 34.4477 60.6091 34.655 60.0972L36.5085 60.8481ZM36.3278 51.4692C36.3278 38.7667 26.0304 28.4692 13.3278 28.4692C10.2766 28.4693 7.36637 29.063 4.70478 30.1401L4.6081 30.1733C4.12155 30.315 3.59733 30.0682 3.40302 29.5884C3.19584 29.0764 3.44283 28.4928 3.95478 28.2856L4.50067 28.0728C7.24668 27.0362 10.2221 26.4693 13.3278 26.4692C27.1349 26.4692 38.3278 37.6621 38.3278 51.4692C38.3278 54.7841 37.6819 57.9507 36.5085 60.8481L34.655 60.0972C35.7334 57.4342 36.3278 54.5224 36.3278 51.4692Z" fill="#F5F6F7"/>
<path d="M48.3277 51.4692C48.3277 32.1393 32.6576 16.4692 13.3277 16.4692C10.3058 16.4693 7.37458 16.8517 4.57961 17.5708L4.47902 17.5913C3.97807 17.6671 3.49085 17.3533 3.36183 16.8521C3.22421 16.3172 3.5467 15.7719 4.08156 15.6343L4.63722 15.4956C7.42536 14.8244 10.3357 14.4693 13.3277 14.4692C33.7622 14.4692 50.3277 31.0347 50.3277 51.4692C50.3277 54.663 49.9234 57.7638 49.1616 60.7222C49.024 61.2568 48.4785 61.5792 47.9439 61.4419C47.4092 61.3042 47.0867 60.7588 47.2241 60.2241C47.9443 57.4272 48.3277 54.4935 48.3277 51.4692Z" fill="#F5F6F7"/>
<path d="M60.3284 51.4692C60.3284 25.512 39.2855 4.46949 13.3284 4.46924C10.6925 4.46924 8.10753 4.68631 5.59106 5.10303L4.51684 5.29346C3.97426 5.39635 3.45084 5.04012 3.3479 4.49756C3.24501 3.95501 3.60129 3.4316 4.14379 3.32861L5.26391 3.12939C7.88797 2.69484 10.5824 2.46924 13.3284 2.46924C40.3901 2.46949 62.3284 24.4074 62.3284 51.4692C62.3284 54.6078 62.0325 57.6788 61.468 60.6548C61.3649 61.1971 60.8415 61.5536 60.2991 61.4507C59.7567 61.3476 59.4004 60.8242 59.5032 60.2817C60.0444 57.428 60.3284 54.4821 60.3284 51.4692Z" fill="#F5F6F7"/>
<path d="M4.323 37.71V2.00879C4.323 2.00604 4.32514 2.00393 4.32788 2.00391C4.33064 2.00391 4.33276 2.00603 4.33276 2.00879V37.71C4.33276 37.7127 4.33064 37.7148 4.32788 37.7148C4.32514 37.7148 4.323 37.7127 4.323 37.71Z" fill="#EB3A28"/>
<path d="M28.6267 60.4644L64.3279 60.4644C64.3306 60.4644 64.3327 60.4665 64.3328 60.4692C64.3328 60.472 64.3306 60.4741 64.3279 60.4741L28.6267 60.4741C28.6239 60.4741 28.6218 60.472 28.6218 60.4692C28.6218 60.4665 28.624 60.4644 28.6267 60.4644Z" fill="#EB3A28"/>
</g>
<defs>
<clipPath id="clip0_6669_2216">
<rect width="64" height="64" fill="white" transform="translate(0.327881 0.469238)"/>
</clipPath>
</defs>
</svg>
