<?xml version="1.0" encoding="UTF-8"?>
<svg height="600" width="800" xmlns="http://www.w3.org/2000/svg" xmlns:xlink="http://www.w3.org/1999/xlink">
    <g id="Notes" font-family="'LucidaGrande', 'Lucida Grande', sans-serif" font-size="13">
        <rect fill="white" height="600.0" width="800.0" x="0.0" y="0.0" />
        <g font-size="13">
            <text x="18.0" y="176.0">Small</text>
            <text x="18.0" y="376.0">Medium</text>
            <text x="18.0" y="576.0">Large</text>
        </g>
        <g font-size="9">
            <text x="250.0" y="30.0">Ultralight</text>
            <text x="450.0" y="30.0">Regular</text>
            <text x="650.0" y="30.0">Black</text>
            <text id="template-version" fill="#505050" text-anchor="end" x="785.0" y="575.0">Template v.3.0</text>
            <a href="https://github.com/swhitty/SwiftDraw">
                <text fill="#505050" text-anchor="end" x="785.0" y="590.0">https://github.com/swhitty/SwiftDraw</text>
            </a>
        </g>
    </g>
    <g id="Guides" stroke="rgb(39, 170, 225)" stroke-width="0.5">
        <path id="Capline-S" d="M18,76 l800,0" />
        <path id="H-reference" d="M85,145.755 L87.685,145.755 L113.369,79.287 L114.052,79.287 L114.052,76 L112.148,76 L85,145.755 Z M95.693,121.536 L130.996,121.536 L130.263,119.313 L96.474,119.313 L95.693,121.536 Z M139.15,145.755 L141.787,145.755 L114.638,76 L113.466,76 L113.466,79.287 L139.15,145.755 Z" stroke="none" />
        <path id="Baseline-S" d="M18,146 l800,0" />
        <path id="left-margin-Ultralight-S" d="M215.498,56 l0,110" />
        <path id="right-margin-Ultralight-S" d="M314.502,56 l0,110" />
        <path id="left-margin-Regular-S" d="M415.498,56 l0,110" />
        <path id="right-margin-Regular-S" d="M514.502,56 l0,110" />
        <path id="left-margin-Black-S" d="M615.498,56 l0,110" />
        <path id="right-margin-Black-S" d="M714.502,56 l0,110" />
        <path id="Capline-M" d="M18,276 l800,0" />
        <path id="Baseline-M" d="M18,346 l800,0" />
        <path id="Capline-L" d="M18,476 l800,0" />
        <path id="Baseline-L" d="M18,546 l800,0" />
    </g>
    <g id="Symbols">
        <g id="Ultralight-S">
            <path d="M265,76 C265.097,76.02 265.175,76.059 265.273,76.078 C272.997,78.444 280.701,80.81 288.424,83.156 C293.625,84.74 298.826,86.344 304.047,87.927 C304.556,88.084 304.556,88.084 304.438,88.612 C304.165,89.765 303.891,90.919 303.637,92.073 C303.558,92.425 303.422,92.483 303.089,92.366 C294.798,89.824 286.508,87.282 278.198,84.74 C273.916,83.43 269.653,82.14 265.371,80.83 C265.097,80.751 264.863,80.751 264.608,80.83 C259.309,82.453 253.991,84.075 248.692,85.698 C241.418,87.927 234.164,90.137 226.89,92.366 C226.597,92.464 226.441,92.425 226.362,92.092 C226.089,90.88 225.815,89.687 225.522,88.475 C225.443,88.143 225.561,88.045 225.854,87.947 C228.728,87.087 231.583,86.207 234.457,85.327 C240.108,83.606 245.74,81.886 251.39,80.145 C255.849,78.777 260.287,77.427 264.745,76.059 C264.823,76.059 264.921,76.02 265,76 Z" />
            <path d="M264.765,93.441 C277.025,93.441 289.285,93.441 301.544,93.441 C301.681,93.441 301.818,93.461 301.936,93.441 C302.288,93.402 302.405,93.539 302.405,93.872 C302.385,96.081 302.405,98.31 302.405,100.52 C302.405,101.458 302.385,102.397 302.405,103.335 C302.405,103.629 302.288,103.746 301.975,103.726 C301.877,103.707 301.76,103.726 301.662,103.726 C277.044,103.726 252.427,103.726 227.79,103.726 C226.969,103.726 227.047,103.805 227.047,103.062 C227.047,100.031 227.047,97.02 227.047,93.989 C227.047,93.461 227.047,93.461 227.633,93.461 C240.011,93.441 252.388,93.441 264.765,93.441 Z M264.687,101.869 C276.399,101.869 288.131,101.869 299.843,101.869 C300.371,101.869 300.371,101.869 300.371,101.4 C300.371,99.503 300.371,97.606 300.371,95.71 C300.371,95.377 300.293,95.26 299.902,95.26 C276.458,95.26 252.994,95.26 229.55,95.26 C229.159,95.26 229.061,95.377 229.08,95.71 C229.1,97.587 229.08,99.444 229.08,101.321 C229.08,101.849 229.08,101.849 229.687,101.849 C241.36,101.869 253.013,101.869 264.687,101.869 Z" />
            <path d="M264.765,105.134 C277.025,105.134 289.285,105.134 301.544,105.134 C301.681,105.134 301.818,105.154 301.936,105.134 C302.288,105.095 302.405,105.232 302.405,105.564 C302.385,107.774 302.405,110.003 302.405,112.213 C302.405,113.151 302.385,114.09 302.405,115.028 C302.405,115.321 302.288,115.439 301.975,115.419 C301.877,115.4 301.76,115.419 301.662,115.419 C277.044,115.419 252.427,115.419 227.79,115.419 C226.969,115.419 227.047,115.497 227.047,114.754 C227.047,111.724 227.047,108.713 227.047,105.682 C227.047,105.154 227.047,105.154 227.633,105.154 C240.011,105.134 252.388,105.134 264.765,105.134 Z M264.687,113.562 C276.399,113.562 288.131,113.562 299.843,113.562 C300.371,113.562 300.371,113.562 300.371,113.092 C300.371,111.196 300.371,109.299 300.371,107.402 C300.371,107.07 300.293,106.953 299.902,106.953 C276.458,106.953 252.994,106.953 229.55,106.953 C229.159,106.953 229.061,107.07 229.08,107.402 C229.1,109.279 229.08,111.137 229.08,113.014 C229.08,113.542 229.08,113.542 229.687,113.542 C241.36,113.562 253.013,113.562 264.687,113.562 Z" />
            <path d="M264.667,116.729 C276.927,116.729 289.186,116.729 301.446,116.729 C301.583,116.729 301.72,116.749 301.837,116.729 C302.189,116.69 302.307,116.827 302.307,117.16 C302.287,119.369 302.307,121.598 302.307,123.808 C302.307,124.746 302.287,125.685 302.307,126.623 C302.307,126.917 302.189,127.034 301.877,127.014 C301.779,126.995 301.661,127.014 301.564,127.014 C276.946,127.014 252.329,127.014 227.692,127.014 C226.87,127.014 226.949,127.093 226.949,126.349 C226.949,123.319 226.949,120.308 226.949,117.277 C226.949,116.749 226.949,116.749 227.535,116.749 C239.912,116.729 252.29,116.729 264.667,116.729 Z M264.589,125.157 C276.301,125.157 288.033,125.157 299.745,125.157 C300.273,125.157 300.273,125.157 300.273,124.688 C300.273,122.791 300.273,120.894 300.273,118.997 C300.273,118.665 300.195,118.548 299.804,118.548 C276.36,118.548 252.896,118.548 229.451,118.548 C229.06,118.548 228.963,118.665 228.982,118.997 C229.002,120.875 228.982,122.732 228.982,124.609 C228.982,125.137 228.982,125.137 229.588,125.137 C241.262,125.157 252.915,125.157 264.589,125.157 Z" />
            <path d="M264.569,128.403 C276.829,128.403 289.089,128.403 301.349,128.403 C301.486,128.403 301.622,128.422 301.74,128.403 C302.092,128.363 302.209,128.5 302.209,128.833 C302.19,131.042 302.209,133.271 302.209,135.481 C302.209,136.419 302.19,137.358 302.209,138.296 C302.209,138.59 302.092,138.707 301.779,138.688 C301.681,138.668 301.564,138.688 301.466,138.688 C276.849,138.688 252.231,138.688 227.594,138.688 C226.773,138.688 226.851,138.766 226.851,138.023 C226.851,134.992 226.851,131.981 226.851,128.95 C226.851,128.422 226.851,128.422 227.438,128.422 C239.815,128.403 252.192,128.403 264.569,128.403 Z M264.491,136.85 C276.203,136.85 287.935,136.85 299.648,136.85 C300.176,136.85 300.176,136.85 300.176,136.38 C300.176,134.484 300.176,132.587 300.176,130.69 C300.176,130.358 300.097,130.241 299.706,130.241 C276.262,130.241 252.798,130.241 229.354,130.241 C228.963,130.241 228.865,130.358 228.885,130.69 C228.904,132.567 228.885,134.425 228.885,136.302 C228.885,136.83 228.885,136.83 229.491,136.83 C241.164,136.85 252.818,136.85 264.491,136.85 Z" />
            <path d="M300.745,138.492 L300.745,145.648 C300.764,145.902 300.666,146 300.412,146 L297.127,146 C296.873,146 296.775,145.902 296.775,145.648 L296.775,138.492 L300.745,138.492 Z" />
            <path d="M292.586,138.492 C292.462,140.293 292.385,142.096 292.472,143.908 C292.511,144.632 292.218,145.199 291.632,145.629 C291.378,145.824 291.103,145.902 290.791,145.902 C289.461,145.941 288.19,145.942 286.899,145.942 L283.224,145.942 C282.168,145.942 281.444,145.238 281.366,144.182 C281.327,143.556 281.327,143.537 280.721,143.478 C279.88,143.4 279.019,143.341 278.179,143.302 C276.341,143.224 274.502,143.185 272.665,143.126 C267.679,142.989 262.712,143.008 257.726,143.067 C254.461,143.106 251.195,143.204 247.949,143.497 C247.617,143.517 247.48,143.635 247.5,143.987 C247.539,145.16 246.581,145.981 245.506,145.961 C243.101,145.903 240.696,145.903 238.291,145.961 C237.235,145.981 236.414,144.964 236.433,144.065 C236.453,142.384 236.511,140.702 236.374,139.001 C236.36,138.831 236.347,138.662 236.333,138.492 L292.586,138.492 Z" />
            <path d="M232.229,138.492 L232.229,145.355 C232.229,145.942 232.229,145.942 231.642,145.942 C230.665,145.942 229.687,145.923 228.709,145.942 C228.338,145.942 228.24,145.824 228.24,145.453 C228.254,143.138 228.25,140.813 228.245,138.492 L232.229,138.492 Z" />
        </g>
        <g id="Regular-S">
            <path d="M465,76 C465.097,76.02 465.175,76.059 465.273,76.078 C472.997,78.444 480.701,80.81 488.424,83.156 C493.625,84.74 498.826,86.344 504.047,87.927 C504.556,88.084 504.556,88.084 504.438,88.612 C504.165,89.765 503.891,90.919 503.637,92.073 C503.558,92.425 503.422,92.483 503.089,92.366 C494.798,89.824 486.508,87.282 478.198,84.74 C473.916,83.43 469.653,82.14 465.371,80.83 C465.097,80.751 464.863,80.751 464.608,80.83 C459.309,82.453 453.991,84.075 448.692,85.698 C441.418,87.927 434.164,90.137 426.89,92.366 C426.597,92.464 426.441,92.425 426.362,92.092 C426.089,90.88 425.815,89.687 425.522,88.475 C425.443,88.143 425.561,88.045 425.854,87.947 C428.728,87.087 431.583,86.207 434.457,85.327 C440.108,83.606 445.74,81.886 451.39,80.145 C455.849,78.777 460.287,77.427 464.745,76.059 C464.823,76.059 464.921,76.02 465,76 Z" />
            <path d="M464.765,93.441 C477.025,93.441 489.285,93.441 501.544,93.441 C501.681,93.441 501.818,93.461 501.936,93.441 C502.288,93.402 502.405,93.539 502.405,93.872 C502.385,96.081 502.405,98.31 502.405,100.52 C502.405,101.458 502.385,102.397 502.405,103.335 C502.405,103.629 502.288,103.746 501.975,103.726 C501.877,103.707 501.76,103.726 501.662,103.726 C477.044,103.726 452.427,103.726 427.79,103.726 C426.969,103.726 427.047,103.805 427.047,103.062 C427.047,100.031 427.047,97.02 427.047,93.989 C427.047,93.461 427.047,93.461 427.633,93.461 C440.011,93.441 452.388,93.441 464.765,93.441 Z M464.687,101.869 C476.399,101.869 488.131,101.869 499.843,101.869 C500.371,101.869 500.371,101.869 500.371,101.4 C500.371,99.503 500.371,97.606 500.371,95.71 C500.371,95.377 500.293,95.26 499.902,95.26 C476.458,95.26 452.994,95.26 429.55,95.26 C429.159,95.26 429.061,95.377 429.08,95.71 C429.1,97.587 429.08,99.444 429.08,101.321 C429.08,101.849 429.08,101.849 429.686,101.849 C441.36,101.869 453.013,101.869 464.687,101.869 Z" />
            <path d="M464.765,105.134 C477.025,105.134 489.285,105.134 501.544,105.134 C501.681,105.134 501.818,105.154 501.936,105.134 C502.288,105.095 502.405,105.232 502.405,105.564 C502.385,107.774 502.405,110.003 502.405,112.213 C502.405,113.151 502.385,114.09 502.405,115.028 C502.405,115.321 502.288,115.439 501.975,115.419 C501.877,115.4 501.76,115.419 501.662,115.419 C477.044,115.419 452.427,115.419 427.79,115.419 C426.969,115.419 427.047,115.497 427.047,114.754 C427.047,111.724 427.047,108.713 427.047,105.682 C427.047,105.154 427.047,105.154 427.633,105.154 C440.011,105.134 452.388,105.134 464.765,105.134 Z M464.687,113.562 C476.399,113.562 488.131,113.562 499.843,113.562 C500.371,113.562 500.371,113.562 500.371,113.092 C500.371,111.196 500.371,109.299 500.371,107.402 C500.371,107.07 500.293,106.953 499.902,106.953 C476.458,106.953 452.994,106.953 429.55,106.953 C429.159,106.953 429.061,107.07 429.08,107.402 C429.1,109.279 429.08,111.137 429.08,113.014 C429.08,113.542 429.08,113.542 429.686,113.542 C441.36,113.562 453.013,113.562 464.687,113.562 Z" />
            <path d="M464.667,116.729 C476.927,116.729 489.186,116.729 501.446,116.729 C501.583,116.729 501.72,116.749 501.837,116.729 C502.189,116.69 502.307,116.827 502.307,117.16 C502.287,119.369 502.307,121.598 502.307,123.808 C502.307,124.746 502.287,125.685 502.307,126.623 C502.307,126.917 502.189,127.034 501.877,127.014 C501.779,126.995 501.661,127.014 501.564,127.014 C476.946,127.014 452.329,127.014 427.692,127.014 C426.87,127.014 426.949,127.093 426.949,126.349 C426.949,123.319 426.949,120.308 426.949,117.277 C426.949,116.749 426.949,116.749 427.535,116.749 C439.912,116.729 452.29,116.729 464.667,116.729 Z M464.589,125.157 C476.301,125.157 488.033,125.157 499.745,125.157 C500.273,125.157 500.273,125.157 500.273,124.688 C500.273,122.791 500.273,120.894 500.273,118.997 C500.273,118.665 500.195,118.548 499.804,118.548 C476.36,118.548 452.896,118.548 429.451,118.548 C429.06,118.548 428.963,118.665 428.982,118.997 C429.002,120.875 428.982,122.732 428.982,124.609 C428.982,125.137 428.982,125.137 429.588,125.137 C441.262,125.157 452.915,125.157 464.589,125.157 Z" />
            <path d="M464.569,128.403 C476.829,128.403 489.089,128.403 501.349,128.403 C501.486,128.403 501.622,128.422 501.74,128.403 C502.092,128.363 502.209,128.5 502.209,128.833 C502.19,131.042 502.209,133.271 502.209,135.481 C502.209,136.419 502.19,137.358 502.209,138.296 C502.209,138.59 502.092,138.707 501.779,138.688 C501.681,138.668 501.564,138.688 501.466,138.688 C476.849,138.688 452.231,138.688 427.594,138.688 C426.773,138.688 426.851,138.766 426.851,138.023 C426.851,134.992 426.851,131.981 426.851,128.95 C426.851,128.422 426.851,128.422 427.438,128.422 C439.815,128.403 452.192,128.403 464.569,128.403 Z M464.491,136.85 C476.203,136.85 487.935,136.85 499.648,136.85 C500.176,136.85 500.176,136.85 500.176,136.38 C500.176,134.484 500.176,132.587 500.176,130.69 C500.176,130.358 500.097,130.241 499.706,130.241 C476.262,130.241 452.798,130.241 429.354,130.241 C428.963,130.241 428.865,130.358 428.885,130.69 C428.904,132.567 428.885,134.425 428.885,136.302 C428.885,136.83 428.885,136.83 429.491,136.83 C441.164,136.85 452.818,136.85 464.491,136.85 Z" />
            <path d="M500.745,138.492 L500.745,145.648 C500.764,145.902 500.666,146 500.412,146 L497.127,146 C496.873,146 496.775,145.902 496.775,145.648 L496.775,138.492 L500.745,138.492 Z" />
            <path d="M492.586,138.492 C492.462,140.293 492.385,142.096 492.472,143.908 C492.511,144.632 492.218,145.199 491.632,145.629 C491.378,145.824 491.103,145.902 490.791,145.902 C489.461,145.941 488.19,145.942 486.899,145.942 L483.224,145.942 C482.168,145.942 481.444,145.238 481.366,144.182 C481.327,143.556 481.327,143.537 480.721,143.478 C479.88,143.4 479.019,143.341 478.179,143.302 C476.341,143.224 474.502,143.185 472.665,143.126 C467.679,142.989 462.712,143.008 457.726,143.067 C454.461,143.106 451.195,143.204 447.949,143.497 C447.617,143.517 447.48,143.635 447.5,143.987 C447.539,145.16 446.581,145.981 445.506,145.961 C443.101,145.903 440.696,145.903 438.291,145.961 C437.235,145.981 436.414,144.964 436.433,144.065 C436.453,142.384 436.511,140.702 436.374,139.001 C436.36,138.831 436.347,138.662 436.333,138.492 L492.586,138.492 Z" />
            <path d="M432.229,138.492 L432.229,145.355 C432.229,145.942 432.229,145.942 431.642,145.942 C430.665,145.942 429.687,145.923 428.709,145.942 C428.338,145.942 428.24,145.824 428.24,145.453 C428.254,143.138 428.25,140.813 428.245,138.492 L432.229,138.492 Z" />
        </g>
        <g id="Black-S">
            <path d="M665,76 C665.097,76.02 665.175,76.059 665.273,76.078 C672.997,78.444 680.701,80.81 688.424,83.156 C693.625,84.74 698.826,86.344 704.047,87.927 C704.556,88.084 704.556,88.084 704.438,88.612 C704.165,89.765 703.891,90.919 703.637,92.073 C703.558,92.425 703.422,92.483 703.089,92.366 C694.799,89.824 686.508,87.282 678.198,84.74 C673.916,83.43 669.653,82.14 665.371,80.83 C665.097,80.751 664.863,80.751 664.608,80.83 C659.309,82.453 653.991,84.075 648.692,85.698 C641.418,87.927 634.164,90.137 626.89,92.366 C626.597,92.464 626.441,92.425 626.362,92.092 C626.089,90.88 625.815,89.687 625.522,88.475 C625.443,88.143 625.561,88.045 625.854,87.947 C628.728,87.087 631.583,86.207 634.457,85.327 C640.108,83.606 645.74,81.886 651.39,80.145 C655.849,78.777 660.287,77.427 664.745,76.059 C664.823,76.059 664.921,76.02 665,76 Z" />
            <path d="M664.765,93.441 C677.025,93.441 689.285,93.441 701.544,93.441 C701.681,93.441 701.818,93.461 701.936,93.441 C702.288,93.402 702.405,93.539 702.405,93.872 C702.385,96.081 702.405,98.31 702.405,100.52 C702.405,101.458 702.385,102.397 702.405,103.335 C702.405,103.629 702.288,103.746 701.975,103.726 C701.877,103.707 701.76,103.726 701.662,103.726 C677.044,103.726 652.427,103.726 627.79,103.726 C626.969,103.726 627.047,103.805 627.047,103.062 C627.047,100.031 627.047,97.02 627.047,93.989 C627.047,93.461 627.047,93.461 627.633,93.461 C640.011,93.441 652.388,93.441 664.765,93.441 Z M664.687,101.869 C676.399,101.869 688.131,101.869 699.843,101.869 C700.371,101.869 700.371,101.869 700.371,101.4 C700.371,99.503 700.371,97.606 700.371,95.71 C700.371,95.377 700.293,95.26 699.902,95.26 C676.458,95.26 652.994,95.26 629.55,95.26 C629.159,95.26 629.061,95.377 629.08,95.71 C629.1,97.587 629.08,99.444 629.08,101.321 C629.08,101.849 629.08,101.849 629.687,101.849 C641.36,101.869 653.013,101.869 664.687,101.869 Z" />
            <path d="M664.765,105.134 C677.025,105.134 689.285,105.134 701.544,105.134 C701.681,105.134 701.818,105.154 701.936,105.134 C702.288,105.095 702.405,105.232 702.405,105.564 C702.385,107.774 702.405,110.003 702.405,112.213 C702.405,113.151 702.385,114.09 702.405,115.028 C702.405,115.321 702.288,115.439 701.975,115.419 C701.877,115.4 701.76,115.419 701.662,115.419 C677.044,115.419 652.427,115.419 627.79,115.419 C626.969,115.419 627.047,115.497 627.047,114.754 C627.047,111.724 627.047,108.713 627.047,105.682 C627.047,105.154 627.047,105.154 627.633,105.154 C640.011,105.134 652.388,105.134 664.765,105.134 Z M664.687,113.562 C676.399,113.562 688.131,113.562 699.843,113.562 C700.371,113.562 700.371,113.562 700.371,113.092 C700.371,111.196 700.371,109.299 700.371,107.402 C700.371,107.07 700.293,106.953 699.902,106.953 C676.458,106.953 652.994,106.953 629.55,106.953 C629.159,106.953 629.061,107.07 629.08,107.402 C629.1,109.279 629.08,111.137 629.08,113.014 C629.08,113.542 629.08,113.542 629.687,113.542 C641.36,113.562 653.013,113.562 664.687,113.562 Z" />
            <path d="M664.667,116.729 C676.927,116.729 689.187,116.729 701.446,116.729 C701.583,116.729 701.72,116.749 701.837,116.729 C702.189,116.69 702.307,116.827 702.307,117.16 C702.287,119.369 702.307,121.598 702.307,123.808 C702.307,124.746 702.287,125.685 702.307,126.623 C702.307,126.917 702.189,127.034 701.877,127.014 C701.779,126.995 701.661,127.014 701.564,127.014 C676.946,127.014 652.329,127.014 627.692,127.014 C626.87,127.014 626.949,127.093 626.949,126.349 C626.949,123.319 626.949,120.308 626.949,117.277 C626.949,116.749 626.949,116.749 627.535,116.749 C639.912,116.729 652.29,116.729 664.667,116.729 Z M664.589,125.157 C676.301,125.157 688.033,125.157 699.745,125.157 C700.273,125.157 700.273,125.157 700.273,124.688 C700.273,122.791 700.273,120.894 700.273,118.997 C700.273,118.665 700.195,118.548 699.804,118.548 C676.36,118.548 652.896,118.548 629.451,118.548 C629.06,118.548 628.963,118.665 628.982,118.997 C629.002,120.875 628.982,122.732 628.982,124.609 C628.982,125.137 628.982,125.137 629.588,125.137 C641.262,125.157 652.915,125.157 664.589,125.157 Z" />
            <path d="M664.569,128.403 C676.829,128.403 689.089,128.403 701.349,128.403 C701.486,128.403 701.622,128.422 701.74,128.403 C702.092,128.363 702.209,128.5 702.209,128.833 C702.19,131.042 702.209,133.271 702.209,135.481 C702.209,136.419 702.19,137.358 702.209,138.296 C702.209,138.59 702.092,138.707 701.779,138.688 C701.681,138.668 701.564,138.688 701.466,138.688 C676.849,138.688 652.231,138.688 627.594,138.688 C626.773,138.688 626.851,138.766 626.851,138.023 C626.851,134.992 626.851,131.981 626.851,128.95 C626.851,128.422 626.851,128.422 627.438,128.422 C639.815,128.403 652.192,128.403 664.569,128.403 Z M664.491,136.85 C676.203,136.85 687.935,136.85 699.648,136.85 C700.176,136.85 700.176,136.85 700.176,136.38 C700.176,134.484 700.176,132.587 700.176,130.69 C700.176,130.358 700.097,130.241 699.706,130.241 C676.262,130.241 652.798,130.241 629.354,130.241 C628.963,130.241 628.865,130.358 628.885,130.69 C628.904,132.567 628.885,134.425 628.885,136.302 C628.885,136.83 628.885,136.83 629.491,136.83 C641.164,136.85 652.818,136.85 664.491,136.85 Z" />
            <path d="M700.745,138.492 L700.745,145.648 C700.764,145.902 700.666,146 700.412,146 L697.127,146 C696.873,146 696.775,145.902 696.775,145.648 L696.775,138.492 L700.745,138.492 Z" />
            <path d="M692.586,138.492 C692.462,140.293 692.385,142.096 692.472,143.908 C692.511,144.632 692.218,145.199 691.632,145.629 C691.378,145.824 691.103,145.902 690.791,145.902 C689.461,145.941 688.19,145.942 686.899,145.942 L683.224,145.942 C682.168,145.942 681.444,145.238 681.366,144.182 C681.327,143.556 681.327,143.537 680.721,143.478 C679.88,143.4 679.019,143.341 678.179,143.302 C676.341,143.224 674.502,143.185 672.665,143.126 C667.679,142.989 662.712,143.008 657.726,143.067 C654.461,143.106 651.195,143.204 647.949,143.497 C647.617,143.517 647.48,143.635 647.5,143.987 C647.539,145.16 646.581,145.981 645.506,145.961 C643.101,145.903 640.696,145.903 638.291,145.961 C637.235,145.981 636.414,144.964 636.433,144.065 C636.453,142.384 636.511,140.702 636.374,139.001 C636.36,138.831 636.347,138.662 636.333,138.492 L692.586,138.492 Z" />
            <path d="M632.229,138.492 L632.229,145.355 C632.229,145.942 632.229,145.942 631.642,145.942 C630.665,145.942 629.687,145.923 628.709,145.942 C628.338,145.942 628.24,145.824 628.24,145.453 C628.254,143.138 628.25,140.813 628.245,138.492 L632.229,138.492 Z" />
        </g>
    </g>
</svg>