<svg width="64" height="49" viewBox="0 0 64 49" fill="none" xmlns="http://www.w3.org/2000/svg">
<g clip-path="url(#clip0_5611_49605)">
<path fill-rule="evenodd" clip-rule="evenodd" d="M8.52604 34.3874C8.84135 34.4053 9.12176 34.5926 9.25754 34.876C9.30799 34.9813 9.35518 35.0886 9.39538 35.1799C9.40417 35.1999 9.41263 35.2191 9.42071 35.2374C9.468 35.3443 9.50745 35.4303 9.54865 35.5088C9.60809 35.6178 9.65005 35.6994 9.68692 35.7712C9.73539 35.8655 9.77507 35.9427 9.83416 36.0425L9.83509 36.0441C9.86763 36.0994 9.8984 36.1521 9.92802 36.2028C10.0264 36.3713 10.1122 36.5183 10.2092 36.6667L10.2106 36.6688C10.3708 36.9153 10.5377 37.1591 10.7075 37.4017C10.878 37.6431 11.0514 37.8761 11.2279 38.0966L11.2331 38.1031C11.4715 38.4071 11.7224 38.7087 11.9836 39.016C12.1131 39.1658 12.234 39.3331 12.3253 39.4593C12.3495 39.4928 12.3716 39.5233 12.3912 39.5499L12.3937 39.5533C12.6619 39.9206 12.9098 40.3183 13.1118 40.7566C13.2545 41.0585 13.3156 41.3804 13.3543 41.5837C13.3567 41.5963 13.359 41.6085 13.3612 41.6201L13.3634 41.6316C13.4094 41.891 13.4144 42.1352 13.4144 42.3301C13.4144 42.532 13.3823 42.7226 13.3623 42.8411C13.3613 42.8472 13.3603 42.8532 13.3593 42.859C13.3553 42.883 13.351 42.9092 13.3465 42.9372C13.3206 43.0974 13.2849 43.3182 13.224 43.5298L13.2209 43.5407C13.161 43.7392 13.09 43.9234 13.0221 44.0921L13.0155 44.1082C12.8472 44.5028 12.629 44.8549 12.3878 45.1704C12.0346 45.632 11.6079 46.0238 11.1168 46.3366C10.7575 46.5678 10.3757 46.7435 9.98099 46.8722L9.96788 46.8763C9.81665 46.923 9.65383 46.9606 9.53225 46.9886C9.50032 46.996 9.47124 47.0027 9.44595 47.0088C9.12413 47.0883 8.81212 47.1132 8.53382 47.1193L8.5146 47.1195C8.50591 47.1195 8.49705 47.1195 8.48804 47.1195C8.271 47.1197 7.96404 47.1198 7.64556 47.052L7.64443 47.0518C7.62021 47.0466 7.59521 47.0413 7.56951 47.0358C7.32581 46.9841 7.01924 46.9191 6.71616 46.8084L6.7017 46.803C6.4016 46.6873 6.09247 46.5454 5.7926 46.3558C5.39857 46.1076 5.0448 45.8077 4.73234 45.4583L4.72785 45.4532C4.55805 45.2603 4.38313 45.0421 4.22916 44.7917L4.2255 44.7857C4.08191 44.5479 3.94117 44.2891 3.82273 44.0078L3.8216 44.0051C3.71446 43.7483 3.62008 43.4708 3.55777 43.1757C3.51564 42.9796 3.49538 42.7845 3.48024 42.6388L3.47861 42.6231C3.42845 42.1388 3.48042 41.6796 3.59342 41.2435L3.59839 41.2252C3.60376 41.2062 3.6096 41.1851 3.61595 41.162C3.65517 41.0199 3.71367 40.8078 3.79987 40.6101L3.80307 40.6028C3.85944 40.4767 3.9236 40.3551 3.99589 40.2384C4.00895 40.2154 4.02381 40.1886 4.04029 40.1589C4.12214 40.0115 4.24393 39.7922 4.38356 39.6071L4.38687 39.6027C4.43949 39.5339 4.49818 39.4548 4.56086 39.3704C4.70386 39.1776 4.86776 38.9568 5.02847 38.7651L5.03064 38.7625C5.25407 38.4981 5.46742 38.2393 5.67353 37.973C5.93765 37.6317 6.18791 37.2947 6.42595 36.9501L6.42963 36.9447C6.52974 36.8021 6.61896 36.6649 6.71675 36.5145C6.77006 36.4325 6.82593 36.3466 6.88751 36.2537L6.88801 36.2529L7.61014 36.726L6.88751 36.2537C6.89625 36.2405 6.90489 36.2274 6.91341 36.2145C7.02192 36.0503 7.11276 35.9128 7.19095 35.7737L7.19409 35.7681C7.23313 35.6999 7.27059 35.6352 7.30663 35.5729C7.42783 35.3634 7.53312 35.1814 7.62982 34.9854C7.63783 34.9692 7.64635 34.9532 7.65537 34.9375L7.65718 34.9344C7.67829 34.8977 7.70709 34.8476 7.74329 34.79C7.91067 34.5238 8.21073 34.3694 8.52604 34.3874ZM8.42644 37.0565C8.40482 37.0894 8.3838 37.1212 8.36365 37.1516C8.35325 37.1673 8.34309 37.1827 8.3332 37.1977L8.33226 37.1991C8.28861 37.2649 8.2415 37.3373 8.19214 37.4132C8.08456 37.5784 7.96634 37.7601 7.85013 37.9258L7.85194 37.9232L7.13894 37.4366L7.84824 37.9285L7.85013 37.9258C7.59046 38.3016 7.32139 38.6636 7.04456 39.0213C6.81775 39.3143 6.58737 39.5935 6.35624 39.867L6.35728 39.8657L5.69288 39.3154L6.35511 39.8683L6.35624 39.867C6.22774 40.0203 6.11936 40.1668 5.99589 40.3336C5.92616 40.4277 5.85163 40.5284 5.76594 40.6406L5.76735 40.6387L5.07547 40.1229L5.76403 40.6431L5.76594 40.6406C5.70565 40.7208 5.66326 40.7967 5.5953 40.9185C5.56621 40.9706 5.53244 41.0311 5.49058 41.1039C5.48493 41.1137 5.4791 41.1234 5.47307 41.133C5.44194 41.1825 5.4126 41.237 5.38548 41.2972L5.38699 41.2937L4.59343 40.9519L5.38376 41.3011L5.38548 41.2972C5.35235 41.3741 5.33014 41.4533 5.29 41.5965C5.28274 41.6224 5.27489 41.6505 5.26628 41.6809C5.26701 41.6781 5.26774 41.6752 5.26848 41.6724L4.43095 41.458L5.26352 41.6907C5.26445 41.6874 5.26537 41.6842 5.26628 41.6809C5.1969 41.952 5.17383 42.2011 5.19916 42.4462C5.21625 42.6104 5.22854 42.72 5.24954 42.8175L5.2504 42.8215C5.2855 42.9882 5.34238 43.1618 5.41885 43.3453C5.49488 43.5255 5.59158 43.7068 5.70684 43.898C5.79043 44.0334 5.89585 44.1689 6.02739 44.3185C6.23408 44.5492 6.46423 44.7435 6.71889 44.9038L6.72047 44.9048C6.89503 45.0152 7.09228 45.1091 7.3195 45.1971C7.49972 45.2622 7.68639 45.3021 7.9493 45.3583C7.96881 45.3625 7.98874 45.3667 8.00912 45.3711L7.82677 46.2114L8.00799 45.3709C8.12957 45.3968 8.26331 45.4001 8.50465 45.4002C8.7085 45.3953 8.87956 45.3773 9.03058 45.3398L9.03741 45.3381C9.09418 45.3245 9.14318 45.3131 9.18715 45.303C9.29003 45.2791 9.36544 45.2617 9.44884 45.2362C9.71149 45.1501 9.95496 45.0363 10.1781 44.8925L10.1823 44.8898C10.5026 44.6861 10.7794 44.4322 11.0106 44.1301M8.42644 37.0565C8.52617 37.2274 8.63811 37.4188 8.75818 37.6025C8.93321 37.8719 9.11239 38.1333 9.28861 38.3851L9.29077 38.3882C9.47655 38.6512 9.67019 38.9118 9.87155 39.1636C10.1298 39.4927 10.3971 39.8135 10.6648 40.1286L10.6704 40.1351C10.7467 40.223 10.8075 40.3069 10.8894 40.4201C10.9209 40.4634 10.9554 40.5111 10.995 40.5649C11.2128 40.8633 11.397 41.1633 11.5409 41.4762L11.5458 41.4868C11.5869 41.5729 11.6134 41.6886 11.6608 41.9353C11.679 42.0408 11.6846 42.1615 11.6846 42.3301C11.6846 42.376 11.6769 42.4345 11.6531 42.5763C11.6464 42.6165 11.6403 42.6535 11.6346 42.688C11.6087 42.8452 11.5917 42.9486 11.5624 43.0522C11.5258 43.1726 11.4791 43.2967 11.4196 43.445C11.3173 43.6828 11.1791 43.9097 11.0106 44.1301" fill="#007AFF"/>
<path d="M31.8808 20.582C35.9945 20.582 39.3317 23.8991 39.3317 27.988C39.3317 32.0769 35.9945 35.394 31.8808 35.394C27.7671 35.394 24.4299 32.0769 24.4299 27.988C24.4299 23.8991 27.7671 20.582 31.8808 20.582ZM31.8808 18.4958C29.3272 18.4958 26.9345 19.4833 25.1295 21.2774C23.3245 23.0716 22.3311 25.4568 22.3311 27.988C22.3311 30.5192 23.3245 32.9045 25.1295 34.6986C26.9345 36.4927 29.3342 37.4802 31.8808 37.4802C34.4274 37.4802 36.8271 36.4927 38.6321 34.6986C40.4371 32.9045 41.4305 30.5192 41.4305 27.988C41.4305 25.4568 40.4371 23.0716 38.6321 21.2774C36.8341 19.4833 34.4344 18.4958 31.8808 18.4958Z" fill="#282828"/>
<path fill-rule="evenodd" clip-rule="evenodd" d="M30.5073 15.6169V20.0953H28.2729V15.6169H30.5073Z" fill="#282828"/>
<path fill-rule="evenodd" clip-rule="evenodd" d="M36.468 15.6169V20.0953H34.2336V15.6169H36.468Z" fill="#282828"/>
<path fill-rule="evenodd" clip-rule="evenodd" d="M7.6062 23.1272C7.6062 22.5139 8.10639 22.0168 8.7234 22.0168H24.4298C25.0468 22.0168 25.547 22.5139 25.547 23.1272C25.547 23.7405 25.0468 24.2377 24.4298 24.2377H9.8406V31.7384H24.4298C25.0468 31.7384 25.547 32.2356 25.547 32.8488C25.547 33.4621 25.0468 33.9593 24.4298 33.9593H8.7234C8.10639 33.9593 7.6062 33.4621 7.6062 32.8488V23.1272Z" fill="#282828"/>
<path fill-rule="evenodd" clip-rule="evenodd" d="M38.2144 23.1272C38.2144 22.5139 38.7145 22.0168 39.3316 22.0168H55.0449C55.6619 22.0168 56.1621 22.5139 56.1621 23.1272V32.8488C56.1621 33.4621 55.6619 33.9593 55.0449 33.9593H39.3316C38.7145 33.9593 38.2144 33.4621 38.2144 32.8488C38.2144 32.2356 38.7145 31.7384 39.3316 31.7384H53.9277V24.2377H39.3316C38.7145 24.2377 38.2144 23.7405 38.2144 23.1272Z" fill="#282828"/>
<path d="M41.5684 6.38444L36.3913 11.3009C36.1954 11.4886 35.9575 11.586 35.7056 11.586H28.0449V14.1868H37.5107L42.6878 9.27033C42.8837 9.08257 43.1216 8.98522 43.3734 8.98522H61.9832V6.38444H41.5684ZM41.5684 4.29825H61.9832C63.1445 4.29825 64.082 5.23008 64.082 6.38444V8.98522C64.082 10.1396 63.1445 11.0714 61.9832 11.0714H43.8282L38.9659 15.6958C38.5741 16.0643 38.0564 16.273 37.5176 16.273H28.0449C26.8835 16.273 25.946 15.3411 25.946 14.1868V11.586C25.946 10.4316 26.8835 9.49981 28.0449 9.49981H35.2509L40.1132 4.87543C40.505 4.50687 41.0227 4.29825 41.5684 4.29825Z" fill="#282828"/>
</g>
<defs>
<clipPath id="clip0_5611_49605">
<rect width="64" height="49" fill="white"/>
</clipPath>
</defs>
</svg>
