<svg width="64" height="64" viewBox="0 0 64 64" fill="none" xmlns="http://www.w3.org/2000/svg">
<g clip-path="url(#clip0_5611_49605)">
<path fill-rule="evenodd" clip-rule="evenodd" d="M10.0328 44.7558C10.3974 44.7767 10.7216 44.9946 10.8786 45.3243C10.9369 45.4468 10.9915 45.5715 11.0379 45.6778C11.0481 45.701 11.0579 45.7234 11.0672 45.7446C11.1219 45.869 11.1675 45.9691 11.2152 46.0604C11.2839 46.1872 11.3324 46.2821 11.375 46.3656C11.4311 46.4753 11.477 46.5651 11.5453 46.6812L11.5464 46.6831C11.584 46.7474 11.6196 46.8087 11.6538 46.8677C11.7675 47.0637 11.8668 47.2347 11.9789 47.4073L11.9805 47.4097C12.1658 47.6966 12.3587 47.9801 12.555 48.2624C12.7522 48.5431 12.9527 48.8142 13.1568 49.0706L13.1628 49.0783C13.4385 49.4318 13.7286 49.7827 14.0306 50.1402C14.1803 50.3144 14.3202 50.509 14.4257 50.6559C14.4536 50.6948 14.4792 50.7303 14.5019 50.7613L14.5048 50.7652C14.8149 51.1924 15.1015 51.6551 15.3351 52.1649C15.5001 52.5162 15.5708 52.8906 15.6154 53.1271C15.6182 53.1418 15.6208 53.1559 15.6234 53.1695L15.626 53.1828C15.6792 53.4846 15.6849 53.7686 15.6849 53.9953C15.6849 54.2302 15.6478 54.4519 15.6247 54.5897C15.6235 54.5969 15.6223 54.6039 15.6212 54.6106C15.6166 54.6385 15.6117 54.669 15.6064 54.7016C15.5765 54.888 15.5352 55.1448 15.4648 55.391L15.4612 55.4036C15.3919 55.6345 15.3099 55.8488 15.2314 56.045L15.2237 56.0637C15.0292 56.5228 14.7768 56.9324 14.4979 57.2994C14.0895 57.8364 13.5962 58.2922 13.0283 58.656C12.6129 58.9249 12.1715 59.1294 11.7151 59.279L11.6999 59.2838C11.525 59.3381 11.3368 59.3818 11.1962 59.4145C11.1593 59.423 11.1257 59.4308 11.0964 59.4379C10.7243 59.5304 10.3636 59.5593 10.0418 59.5665L10.0196 59.5667C10.0095 59.5667 9.99926 59.5667 9.98884 59.5668C9.73789 59.5669 9.38296 59.5671 9.01472 59.4882L9.01342 59.4879C8.98541 59.4819 8.95651 59.4757 8.92679 59.4694C8.64501 59.4092 8.29054 59.3336 7.9401 59.2048L7.92339 59.1985C7.57639 59.064 7.21896 58.8988 6.87224 58.6783C6.41665 58.3896 6.00759 58.0407 5.64632 57.6342L5.64112 57.6284C5.44479 57.404 5.24254 57.1502 5.06451 56.8588L5.06027 56.8519C4.89425 56.5752 4.73153 56.2742 4.59457 55.947L4.59327 55.9439C4.46939 55.6451 4.36026 55.3223 4.28822 54.979C4.2395 54.7509 4.21608 54.524 4.19857 54.3545L4.19668 54.3362C4.13869 53.7728 4.19878 53.2387 4.32944 52.7314L4.33518 52.7101C4.3414 52.688 4.34815 52.6634 4.35549 52.6366C4.40084 52.4712 4.46848 52.2246 4.56815 51.9946L4.57185 51.986C4.63703 51.8394 4.71121 51.6979 4.79479 51.5621C4.80989 51.5354 4.82708 51.5043 4.84613 51.4697C4.94077 51.2982 5.08159 51.0431 5.24304 50.8278L5.24686 50.8227C5.30771 50.7426 5.37556 50.6507 5.44804 50.5524C5.61338 50.3282 5.80289 50.0713 5.98871 49.8483L5.99122 49.8453C6.24957 49.5377 6.49625 49.2367 6.73456 48.9269C7.03995 48.5299 7.32931 48.1378 7.60455 47.7369L7.6088 47.7307C7.72456 47.5648 7.82771 47.4053 7.94079 47.2303C8.00243 47.1349 8.06702 47.0349 8.13823 46.9269C8.13842 46.9266 8.13861 46.9263 8.13881 46.926L8.97377 47.4763L8.13823 46.9269C8.13806 46.9272 8.1384 46.9266 8.13823 46.9269C8.14834 46.9115 8.15832 46.8963 8.16818 46.8813C8.29363 46.6903 8.39867 46.5303 8.48908 46.3685L8.49271 46.3621C8.53785 46.2827 8.58116 46.2074 8.62283 46.1349C8.76297 45.8912 8.88472 45.6795 8.99652 45.4516C9.00578 45.4327 9.01564 45.4141 9.02607 45.3958L9.02816 45.3922C9.05257 45.3495 9.08587 45.2912 9.12772 45.2242C9.32126 44.9146 9.66821 44.735 10.0328 44.7558ZM9.82087 47.6943C9.82069 47.694 9.82051 47.6937 9.82034 47.6934L10.1415 47.5055C10.141 47.5063 10.1405 47.5071 10.1401 47.5079L9.82142 47.6953C9.82123 47.695 9.82105 47.6947 9.82087 47.6943ZM9.91762 47.8608C9.91475 47.8558 9.9119 47.8509 9.90905 47.846C9.87863 47.7935 9.8492 47.7428 9.82087 47.6943M9.91762 47.8608C9.98876 47.7518 10.0654 47.6324 10.1401 47.5079L10.6833 47.1883L10.1415 47.5055C10.1726 47.4536 10.2033 47.4008 10.233 47.3476C10.2664 47.289 10.3016 47.2278 10.3381 47.1644C10.4784 46.9207 10.6372 46.6449 10.7775 46.3621C10.795 46.3316 10.8083 46.309 10.8237 46.2842M9.91762 47.8608C9.89262 47.899 9.86831 47.936 9.84501 47.9714C9.83299 47.9897 9.82125 48.0076 9.80981 48.025L9.80872 48.0266C9.75825 48.1032 9.70378 48.1874 9.64671 48.2756C9.52232 48.4679 9.38563 48.6792 9.25126 48.872C9.25196 48.871 9.25265 48.87 9.25335 48.869L8.42895 48.3029L9.24908 48.8751C9.2498 48.8741 9.25053 48.873 9.25126 48.872C8.95101 49.3092 8.63991 49.7302 8.31981 50.1463C8.05757 50.4872 7.79119 50.8119 7.52394 51.1301C7.52435 51.1296 7.52475 51.1291 7.52516 51.1286L6.75693 50.4885L7.52264 51.1317C7.52307 51.1311 7.52351 51.1306 7.52394 51.1301C7.37537 51.3085 7.25006 51.4788 7.10729 51.6728C7.02667 51.7824 6.94049 51.8996 6.84141 52.03C6.84195 52.0292 6.8425 52.0285 6.84304 52.0278L6.04306 51.4278L6.8392 52.0329C6.83994 52.0319 6.84067 52.0309 6.84141 52.03C6.7717 52.1233 6.72269 52.2116 6.64411 52.3532C6.61048 52.4139 6.57143 52.4842 6.52302 52.5689C6.5165 52.5804 6.50975 52.5917 6.50278 52.6028C6.46679 52.6604 6.43287 52.7238 6.4015 52.7939C6.40208 52.7925 6.40267 52.7911 6.40326 52.7898L5.4857 52.3922L6.39951 52.7983C6.40017 52.7968 6.40084 52.7953 6.4015 52.7939C6.3632 52.8832 6.33752 52.9754 6.29111 53.142C6.28271 53.1722 6.27364 53.2048 6.26369 53.2402C6.26453 53.2369 6.26537 53.2336 6.26623 53.2303L5.29783 52.9808L6.26049 53.2516C6.26156 53.2477 6.26263 53.244 6.26369 53.2402C6.18345 53.5555 6.15678 53.8452 6.18607 54.1304C6.20584 54.3215 6.22004 54.449 6.24433 54.5623L6.24532 54.567C6.28591 54.7609 6.35168 54.9628 6.44009 55.1763C6.528 55.386 6.63981 55.5968 6.77308 55.8192C6.86972 55.9768 6.99162 56.1344 7.14371 56.3084C7.3827 56.5767 7.64881 56.8028 7.94326 56.9892L7.94508 56.9904C8.14692 57.1188 8.375 57.2281 8.63771 57.3304C8.84609 57.4061 9.06193 57.4526 9.36593 57.518C9.38849 57.5228 9.41153 57.5278 9.43509 57.5329L9.22425 58.5104L9.43378 57.5326C9.57436 57.5627 9.72899 57.5666 10.0081 57.5667C10.2438 57.561 10.4415 57.5401 10.6162 57.4964L10.624 57.4944C10.6897 57.4786 10.7463 57.4654 10.7972 57.4536C10.9161 57.4259 11.0033 57.4056 11.0998 57.376C11.4035 57.2757 11.685 57.1434 11.943 56.9761L11.9478 56.973C12.3181 56.736 12.6383 56.4407 12.9056 56.0893M9.91762 47.8608C10.0329 48.0596 10.1624 48.2822 10.3012 48.4959C10.5036 48.8092 10.7107 49.1134 10.9145 49.4063L10.917 49.4099C11.1318 49.7158 11.3557 50.019 11.5885 50.3119C11.8872 50.6948 12.1962 51.0679 12.5058 51.4344L12.5122 51.442C12.6004 51.5442 12.6707 51.6419 12.7655 51.7735C12.8018 51.8239 12.8417 51.8794 12.8876 51.942C13.1394 52.2891 13.3523 52.638 13.5187 53.0021L13.5244 53.0144C13.5719 53.1145 13.6025 53.2491 13.6573 53.5361C13.6784 53.6588 13.6849 53.7993 13.6849 53.9953C13.6849 54.0487 13.6759 54.1168 13.6484 54.2818C13.6406 54.3285 13.6336 54.3716 13.627 54.4117C13.5971 54.5946 13.5775 54.7148 13.5435 54.8353C13.5012 54.9755 13.4473 55.1198 13.3784 55.2923C13.2602 55.5689 13.1004 55.8329 12.9056 56.0893" fill="#007AFF"/>
<path d="M35.1663 2.07281C35.142 2.0809 35.1178 2.0809 35.0935 2.08899C35.1178 2.08899 35.142 2.0809 35.1663 2.07281Z" fill="#12A71E"/>
<path d="M35.5387 2C35.4902 2.00809 35.4416 2.01618 35.385 2.03236C35.4335 2.01618 35.4902 2.00809 35.5387 2Z" fill="#12A71E"/>
<path d="M35.8622 27.9424C40.6187 27.9424 44.4773 31.8009 44.4773 36.5575C44.4773 41.314 40.6187 45.1726 35.8622 45.1726C31.1057 45.1726 27.2471 41.314 27.2471 36.5575C27.2471 31.8009 31.1057 27.9424 35.8622 27.9424ZM35.8622 25.5156C32.9096 25.5156 30.1431 26.6642 28.056 28.7513C25.969 30.8383 24.8203 33.613 24.8203 36.5575C24.8203 39.502 25.969 42.2766 28.056 44.3636C30.1431 46.4507 32.9177 47.5993 35.8622 47.5993C38.8067 47.5993 41.5813 46.4507 43.6684 44.3636C45.7554 42.2766 46.9041 39.502 46.9041 36.5575C46.9041 33.613 45.7554 30.8383 43.6684 28.7513C41.5894 26.6642 38.8148 25.5156 35.8622 25.5156Z" fill="#282828"/>
<path fill-rule="evenodd" clip-rule="evenodd" d="M34.2742 22.1666V27.3761H31.6907V22.1666H34.2742Z" fill="#282828"/>
<path fill-rule="evenodd" clip-rule="evenodd" d="M41.1663 22.1666V27.3761H38.5828V22.1666H41.1663Z" fill="#282828"/>
<path fill-rule="evenodd" clip-rule="evenodd" d="M7.79468 30.9031C7.79468 30.1896 8.37302 29.6113 9.08644 29.6113H27.2469C27.9603 29.6113 28.5387 30.1896 28.5387 30.9031C28.5387 31.6165 27.9603 32.1948 27.2469 32.1948H10.3782V40.9201H27.2469C27.9603 40.9201 28.5387 41.4985 28.5387 42.2119C28.5387 42.9253 27.9603 43.5037 27.2469 43.5037H9.08644C8.37302 43.5037 7.79468 42.9253 7.79468 42.2119V30.9031Z" fill="#282828"/>
<path fill-rule="evenodd" clip-rule="evenodd" d="M43.1853 30.9031C43.1853 30.1896 43.7636 29.6113 44.4771 29.6113H62.6456C63.359 29.6113 63.9374 30.1896 63.9374 30.9031V42.2119C63.9374 42.9253 63.359 43.5037 62.6456 43.5037H44.4771C43.7636 43.5037 43.1853 42.9253 43.1853 42.2119C43.1853 41.4985 43.7636 40.9201 44.4771 40.9201H61.3539V32.1948H44.4771C43.7636 32.1948 43.1853 31.6165 43.1853 30.9031Z" fill="#282828"/>
<path d="M25.9689 12.2006L31.9549 17.9197C32.1814 18.1381 32.4565 18.2514 32.7477 18.2514H41.6055V21.2768H30.6607L24.6746 15.5577C24.4481 15.3392 24.173 15.226 23.8818 15.226H2.36429V12.2006H25.9689ZM25.9689 9.7738H2.36429C1.02147 9.7738 -0.0625 10.8578 -0.0625 12.2006V15.226C-0.0625 16.5688 1.02147 17.6528 2.36429 17.6528H23.356L28.9781 23.0322C29.4311 23.4609 30.0297 23.7036 30.6526 23.7036H41.6055C42.9483 23.7036 44.0323 22.6196 44.0323 21.2768V18.2514C44.0323 16.9086 42.9483 15.8246 41.6055 15.8246H33.2735L27.6514 10.4452C27.1984 10.0165 26.5998 9.7738 25.9689 9.7738Z" fill="#282828"/>
<path fill-rule="evenodd" clip-rule="evenodd" d="M42.3019 44.8807L28.2266 30.8053L30.0534 28.9785L44.1288 43.0539L42.3019 44.8807Z" fill="#282828"/>
</g>
<defs>
<clipPath id="clip0_5611_49605">
<rect width="63.8748" height="64" fill="white"/>
</clipPath>
</defs>
</svg>
