<svg width="64" height="64" viewBox="0 0 64 64" fill="none" xmlns="http://www.w3.org/2000/svg">
<path d="M30.9917 8.49783C30.9729 8.5041 30.9541 8.5041 30.9353 8.51036C30.9541 8.51036 30.9729 8.5041 30.9917 8.49783Z" fill="#12A71E"/>
<path d="M31.2799 8.4415C31.2423 8.44776 31.2047 8.45402 31.1609 8.46655C31.1985 8.45402 31.2423 8.44776 31.2799 8.4415Z" fill="#12A71E"/>
<path d="M58.007 16.3382V18.6802H41.3495C41.124 18.6802 40.9111 18.7679 40.7358 18.937L36.1017 23.3644H27.6227V21.0223H34.4798C34.7052 21.0223 34.9182 20.9347 35.0935 20.7656L39.7275 16.3382H58.007ZM58.007 14.4595H39.7275C39.2454 14.4595 38.7819 14.6474 38.4313 14.9793L34.079 19.1437H27.6289C26.5894 19.1437 25.7502 19.9828 25.7502 21.0223V23.3644C25.7502 24.4039 26.5894 25.2431 27.6289 25.2431H36.108C36.5902 25.2431 37.0536 25.0552 37.4043 24.7233L41.7565 20.5589H58.007C59.0465 20.5589 59.8857 19.7198 59.8857 18.6802V16.3382C59.8857 15.2986 59.0403 14.4595 58.007 14.4595Z" fill="#282828"/>
<path d="M31.5301 28.5245C35.2123 28.5245 38.1994 31.5116 38.1994 35.1938C38.1994 38.8759 35.2123 41.863 31.5301 41.863C27.8479 41.863 24.8608 38.8759 24.8608 35.1938C24.8608 31.5116 27.8479 28.5245 31.5301 28.5245ZM31.5301 26.6458C29.2444 26.6458 27.1027 27.535 25.4871 29.1507C23.8714 30.7664 22.9822 32.9143 22.9822 35.1938C22.9822 37.4732 23.8714 39.6212 25.4871 41.2368C27.1027 42.8525 29.2507 43.7417 31.5301 43.7417C33.8096 43.7417 35.9575 42.8525 37.5732 41.2368C39.1888 39.6212 40.0781 37.4732 40.0781 35.1938C40.0781 32.9143 39.1888 30.7664 37.5732 29.1507C35.9638 27.535 33.8158 26.6458 31.5301 26.6458Z" fill="#282828"/>
<path fill-rule="evenodd" clip-rule="evenodd" d="M30.3008 24.0533V28.0861H28.3008V24.0533H30.3008Z" fill="#282828"/>
<path fill-rule="evenodd" clip-rule="evenodd" d="M35.6362 24.0533V28.0861H33.6362V24.0533H35.6362Z" fill="#282828"/>
<path fill-rule="evenodd" clip-rule="evenodd" d="M9.80225 30.8165C9.80225 30.2642 10.25 29.8165 10.8022 29.8165H24.861C25.4132 29.8165 25.861 30.2642 25.861 30.8165C25.861 31.3688 25.4132 31.8165 24.861 31.8165H11.8022V38.5711H24.861C25.4132 38.5711 25.861 39.0188 25.861 39.5711C25.861 40.1234 25.4132 40.5711 24.861 40.5711H10.8022C10.25 40.5711 9.80225 40.1234 9.80225 39.5711V30.8165Z" fill="#282828"/>
<path fill-rule="evenodd" clip-rule="evenodd" d="M37.1995 30.8165C37.1995 30.2642 37.6472 29.8165 38.1995 29.8165H52.2644C52.8167 29.8165 53.2644 30.2642 53.2644 30.8165V39.5711C53.2644 40.1234 52.8167 40.5711 52.2644 40.5711H38.1995C37.6472 40.5711 37.1995 40.1234 37.1995 39.5711C37.1995 39.0188 37.6472 38.5711 38.1995 38.5711H51.2644V31.8165H38.1995C37.6472 31.8165 37.1995 31.3688 37.1995 30.8165Z" fill="#282828"/>
<path fill-rule="evenodd" clip-rule="evenodd" d="M10.0328 42.7558C10.3974 42.7767 10.7216 42.9946 10.8786 43.3243C10.9369 43.4468 10.9915 43.5715 11.0379 43.6778C11.0481 43.701 11.0579 43.7234 11.0672 43.7446C11.1219 43.869 11.1675 43.9691 11.2152 44.0604C11.2839 44.1872 11.3324 44.2821 11.375 44.3656C11.4311 44.4753 11.477 44.5651 11.5453 44.6812L11.5464 44.6831C11.584 44.7474 11.6196 44.8087 11.6538 44.8677C11.7675 45.0637 11.8668 45.2347 11.9789 45.4073L11.9805 45.4097C12.1658 45.6966 12.3587 45.9801 12.555 46.2624C12.7522 46.5431 12.9527 46.8142 13.1568 47.0706L13.1628 47.0783C13.4385 47.4318 13.7286 47.7827 14.0306 48.1402C14.1803 48.3144 14.3202 48.509 14.4257 48.6559C14.4536 48.6948 14.4792 48.7303 14.5019 48.7613L14.5048 48.7652C14.8149 49.1924 15.1015 49.6551 15.3351 50.1649C15.5001 50.5162 15.5708 50.8906 15.6154 51.1271C15.6182 51.1418 15.6208 51.1559 15.6234 51.1695L15.626 51.1828C15.6792 51.4846 15.6849 51.7686 15.6849 51.9953C15.6849 52.2302 15.6478 52.4519 15.6247 52.5897C15.6235 52.5969 15.6223 52.6039 15.6212 52.6106C15.6166 52.6385 15.6117 52.669 15.6064 52.7016C15.5765 52.888 15.5352 53.1448 15.4648 53.391L15.4612 53.4036C15.3919 53.6345 15.3099 53.8488 15.2314 54.045L15.2237 54.0637C15.0292 54.5228 14.7768 54.9324 14.4979 55.2994C14.0895 55.8364 13.5962 56.2922 13.0283 56.656C12.6129 56.9249 12.1715 57.1294 11.7151 57.279L11.6999 57.2838C11.525 57.3381 11.3368 57.3818 11.1962 57.4145C11.1593 57.423 11.1257 57.4308 11.0964 57.4379C10.7243 57.5304 10.3636 57.5593 10.0418 57.5665L10.0196 57.5667C10.0095 57.5667 9.99926 57.5667 9.98884 57.5668C9.73789 57.5669 9.38296 57.5671 9.01472 57.4882L9.01342 57.4879C8.98541 57.4819 8.95651 57.4757 8.92679 57.4694C8.64501 57.4092 8.29054 57.3336 7.9401 57.2048L7.92339 57.1985C7.57639 57.064 7.21896 56.8988 6.87224 56.6783C6.41665 56.3896 6.00759 56.0407 5.64632 55.6342L5.64112 55.6284C5.44479 55.404 5.24254 55.1502 5.06451 54.8588L5.06027 54.8519C4.89425 54.5752 4.73153 54.2742 4.59457 53.947L4.59327 53.9439C4.46939 53.6451 4.36026 53.3223 4.28822 52.979C4.2395 52.7509 4.21608 52.524 4.19857 52.3545L4.19668 52.3362C4.13869 51.7728 4.19878 51.2387 4.32944 50.7314L4.33518 50.7101C4.3414 50.688 4.34815 50.6634 4.35549 50.6366C4.40084 50.4712 4.46848 50.2246 4.56815 49.9946L4.57185 49.986C4.63703 49.8394 4.71121 49.6979 4.79479 49.5621C4.80989 49.5354 4.82708 49.5043 4.84613 49.4697C4.94077 49.2982 5.08159 49.0431 5.24304 48.8278L5.24686 48.8227C5.30771 48.7426 5.37556 48.6507 5.44804 48.5524C5.61338 48.3282 5.80289 48.0713 5.98871 47.8483L5.99122 47.8453C6.24957 47.5377 6.49625 47.2367 6.73456 46.9269C7.03995 46.5299 7.32931 46.1378 7.60455 45.7369L7.6088 45.7307C7.72456 45.5648 7.82771 45.4053 7.94079 45.2303C8.00243 45.1349 8.06702 45.0349 8.13823 44.9269C8.13842 44.9266 8.13861 44.9263 8.13881 44.926L8.97377 45.4763L8.13823 44.9269C8.13806 44.9272 8.1384 44.9266 8.13823 44.9269C8.14834 44.9115 8.15832 44.8963 8.16818 44.8813C8.29363 44.6903 8.39867 44.5303 8.48908 44.3685L8.49271 44.3621C8.53785 44.2827 8.58116 44.2074 8.62283 44.1349C8.76297 43.8912 8.88472 43.6795 8.99652 43.4516C9.00578 43.4327 9.01564 43.4141 9.02607 43.3958L9.02816 43.3922C9.05257 43.3495 9.08587 43.2912 9.12772 43.2242C9.32126 42.9146 9.66821 42.735 10.0328 42.7558ZM9.82087 45.6943C9.82069 45.694 9.82051 45.6937 9.82034 45.6934L10.1415 45.5055C10.141 45.5063 10.1405 45.5071 10.1401 45.5079L9.82142 45.6953C9.82123 45.695 9.82105 45.6947 9.82087 45.6943ZM9.91762 45.8608C9.91475 45.8558 9.9119 45.8509 9.90905 45.846C9.87863 45.7935 9.8492 45.7428 9.82087 45.6943M9.91762 45.8608C9.98876 45.7518 10.0654 45.6324 10.1401 45.5079L10.6833 45.1883L10.1415 45.5055C10.1726 45.4536 10.2033 45.4008 10.233 45.3476C10.2664 45.289 10.3016 45.2278 10.3381 45.1644C10.4784 44.9207 10.6372 44.6449 10.7775 44.3621C10.795 44.3316 10.8083 44.309 10.8237 44.2842M9.91762 45.8608C9.89262 45.899 9.86831 45.936 9.84501 45.9714C9.83299 45.9897 9.82125 46.0076 9.80981 46.025L9.80872 46.0266C9.75825 46.1032 9.70378 46.1874 9.64671 46.2756C9.52232 46.4679 9.38563 46.6792 9.25126 46.872C9.25196 46.871 9.25265 46.87 9.25335 46.869L8.42895 46.3029L9.24908 46.8751C9.2498 46.8741 9.25053 46.873 9.25126 46.872C8.95101 47.3092 8.63991 47.7302 8.31981 48.1463C8.05757 48.4872 7.79119 48.8119 7.52394 49.1301C7.52435 49.1296 7.52475 49.1291 7.52516 49.1286L6.75693 48.4885L7.52264 49.1317C7.52307 49.1311 7.52351 49.1306 7.52394 49.1301C7.37537 49.3085 7.25006 49.4788 7.10729 49.6728C7.02667 49.7824 6.94049 49.8996 6.84141 50.03C6.84195 50.0292 6.8425 50.0285 6.84304 50.0278L6.04306 49.4278L6.8392 50.0329C6.83994 50.0319 6.84067 50.0309 6.84141 50.03C6.7717 50.1233 6.72269 50.2116 6.64411 50.3532C6.61048 50.4139 6.57143 50.4842 6.52302 50.5689C6.5165 50.5804 6.50975 50.5917 6.50278 50.6028C6.46679 50.6604 6.43287 50.7238 6.4015 50.7939C6.40208 50.7925 6.40267 50.7911 6.40326 50.7898L5.4857 50.3922L6.39951 50.7983C6.40017 50.7968 6.40084 50.7953 6.4015 50.7939C6.3632 50.8832 6.33752 50.9754 6.29111 51.142C6.28271 51.1722 6.27364 51.2048 6.26369 51.2402C6.26453 51.2369 6.26537 51.2336 6.26623 51.2303L5.29783 50.9808L6.26049 51.2516C6.26156 51.2477 6.26263 51.244 6.26369 51.2402C6.18345 51.5555 6.15678 51.8452 6.18607 52.1304C6.20584 52.3215 6.22004 52.449 6.24433 52.5623L6.24532 52.567C6.28591 52.7609 6.35168 52.9628 6.44009 53.1763C6.528 53.386 6.63981 53.5968 6.77308 53.8192C6.86972 53.9768 6.99162 54.1344 7.14371 54.3084C7.3827 54.5767 7.64881 54.8028 7.94326 54.9892L7.94508 54.9904C8.14692 55.1188 8.375 55.2281 8.63771 55.3304C8.84609 55.4061 9.06193 55.4526 9.36593 55.518C9.38849 55.5228 9.41153 55.5278 9.43509 55.5329L9.22425 56.5104L9.43378 55.5326C9.57436 55.5627 9.72899 55.5666 10.0081 55.5667C10.2438 55.561 10.4415 55.5401 10.6162 55.4964L10.624 55.4944C10.6897 55.4786 10.7463 55.4654 10.7972 55.4536C10.9161 55.4259 11.0033 55.4056 11.0998 55.376C11.4035 55.2757 11.685 55.1434 11.943 54.9761L11.9478 54.973C12.3181 54.736 12.6383 54.4407 12.9056 54.0893M9.91762 45.8608C10.0329 46.0596 10.1624 46.2822 10.3012 46.4959C10.5036 46.8092 10.7107 47.1134 10.9145 47.4063L10.917 47.4099C11.1318 47.7158 11.3557 48.019 11.5885 48.3119C11.8872 48.6948 12.1962 49.0679 12.5058 49.4344L12.5122 49.442C12.6004 49.5442 12.6707 49.6419 12.7655 49.7735C12.8018 49.8239 12.8417 49.8794 12.8876 49.942C13.1394 50.2891 13.3523 50.638 13.5187 51.0021L13.5244 51.0144C13.5719 51.1145 13.6025 51.2491 13.6573 51.5361C13.6784 51.6588 13.6849 51.7993 13.6849 51.9953C13.6849 52.0487 13.6759 52.1168 13.6484 52.2818C13.6406 52.3285 13.6336 52.3716 13.627 52.4117C13.5971 52.5946 13.5775 52.7148 13.5435 52.8353C13.5012 52.9755 13.4473 53.1198 13.3784 53.2923C13.2602 53.5689 13.1004 53.8329 12.9056 54.0893" fill="#282828"/>
</svg>
