<svg width="24" height="24" viewBox="0 0 24 24" fill="none" xmlns="http://www.w3.org/2000/svg">
<path fill-rule="evenodd" clip-rule="evenodd" d="M19.0965 3.86778C19.4456 3.64492 19.9093 3.7473 20.1322 4.09644C21.5988 6.39411 22.5 8.61478 22.5 12C22.5 15.3817 21.601 17.6514 20.1282 19.9097C19.9019 20.2566 19.4372 20.3545 19.0903 20.1282C18.7433 19.9019 18.6455 19.4372 18.8718 19.0903C20.2115 17.036 21 15.0467 21 12C21 8.95673 20.2137 7.01208 18.8678 4.9035C18.6449 4.55435 18.7473 4.09064 19.0965 3.86778ZM10.7813 4.50456C10.9884 4.48725 11.1963 4.52767 11.3819 4.62132C11.5675 4.71498 11.7234 4.85821 11.8326 5.03514C11.9417 5.21206 11.9996 5.41575 12 5.62361L12 5.62497L12 18.3763C11.9996 18.5842 11.9417 18.7879 11.8326 18.9648C11.7234 19.1417 11.5675 19.285 11.3819 19.3786C11.1963 19.4723 10.9884 19.5127 10.7813 19.4954C10.5742 19.4781 10.3759 19.4037 10.2084 19.2806C10.198 19.2729 10.1877 19.2649 10.1777 19.2567L5.8946 15.75L5.88984 15.75L2.625 15.75C2.32663 15.75 2.04048 15.6314 1.8295 15.4205C1.61853 15.2095 1.5 14.9233 1.5 14.625V9.37497C1.5 9.0766 1.61853 8.79045 1.8295 8.57948C2.04048 8.3685 2.32663 8.24997 2.625 8.24997H5.89462L10.1777 4.74326C10.1877 4.73504 10.198 4.72708 10.2084 4.71939C10.3759 4.59623 10.5742 4.52187 10.7813 4.50456ZM10.5 6.41799V17.582L6.84028 14.5856L6.83659 14.5826C6.56801 14.3655 6.23265 14.248 5.88739 14.25H5.88984V15L5.88388 14.25C5.88505 14.25 5.88622 14.25 5.88739 14.25H3V9.74997H5.90394H5.90625V8.99997L5.90069 9.74995C5.90177 9.74996 5.90286 9.74997 5.90394 9.74997C6.24747 9.75175 6.58049 9.63176 6.84391 9.41137L10.5 6.41799ZM3 9.74997V9.37497C3 9.47443 2.96049 9.56981 2.89017 9.64014C2.81984 9.71046 2.72445 9.74997 2.625 9.74997H3ZM3 14.25H2.625C2.72445 14.25 2.81984 14.2895 2.89017 14.3598C2.96049 14.4301 3 14.5255 3 14.625V14.25ZM16.8719 6.10226C17.2296 5.89343 17.6889 6.01414 17.8977 6.37186C18.8818 8.05752 19.5 9.5845 19.5 12C19.5 14.419 18.8549 15.9614 17.9004 17.6235C17.6941 17.9827 17.2357 18.1066 16.8765 17.9003C16.5173 17.6941 16.3933 17.2357 16.5996 16.8765C17.4713 15.3586 18 14.0753 18 12C18 9.92107 17.4932 8.6543 16.6023 7.12809C16.3935 6.77037 16.5142 6.31109 16.8719 6.10226ZM14.6589 8.33204C15.0278 8.14364 15.4795 8.28995 15.6679 8.65884C16.1822 9.66582 16.5 10.7636 16.5 12C16.5 13.2241 16.1686 14.3449 15.6701 15.3368C15.4841 15.7069 15.0333 15.8561 14.6632 15.6701C14.2931 15.4841 14.1439 15.0333 14.3299 14.6632C14.7445 13.8381 15 12.9471 15 12C15 11.0351 14.7553 10.1697 14.3321 9.3411C14.1437 8.97221 14.29 8.52044 14.6589 8.33204Z" fill="black"/>
</svg>
