<svg width="64" height="64" viewBox="0 0 64 64" fill="none" xmlns="http://www.w3.org/2000/svg">
<path fill-rule="evenodd" clip-rule="evenodd" d="M23.8623 6.13897V57.0611L41.7123 52.7106V10.4895L23.8623 6.13897ZM23.6512 4.02897C23.2058 3.91879 22.7281 4.01528 22.3663 4.33182C22.0136 4.64043 21.8623 5.07523 21.8623 5.48752V57.7125C21.8623 58.1272 22.0189 58.5542 22.3597 58.8577C22.711 59.1706 23.1882 59.2855 23.6507 59.1712C23.6521 59.1708 23.6535 59.1705 23.6548 59.1702L42.5741 54.5591L42.5798 54.5577C43.0267 54.446 43.3032 54.1298 43.4472 53.8953C43.6023 53.6428 43.6973 53.341 43.7113 53.0329L43.7123 53.0102V10.2125C43.7123 9.87266 43.6076 9.55241 43.4464 9.29597C43.2962 9.05699 43.0162 8.75147 42.5798 8.64238L23.6548 4.02988C23.6536 4.02957 23.6524 4.02927 23.6512 4.02897Z" fill="#FCFCFC"/>
<path d="M29.2496 31.5875C29.2496 32.4375 28.6996 33.1375 27.9996 33.1375C27.2996 33.15 26.7246 32.45 26.7246 31.5875C26.7246 30.725 27.2996 30.025 27.9996 30.0375C28.6871 30.05 29.2496 30.7375 29.2496 31.5875Z" fill="#050505"/>
<path d="M30.6875 18.7001L36.6375 19.5126V21.5625L30.6875 20.9501V18.7001ZM30.5 18.175C30.325 18.175 30.1875 18.3376 30.1875 18.5751V20.9625C30.1875 21.2 30.3375 21.4125 30.5375 21.4375L36.85 22.0875C36.8625 22.0875 36.8625 22.0875 36.875 22.0875C37.025 22.0875 37.15 21.925 37.15 21.7125V19.4875C37.15 19.2625 37.0125 19.0625 36.85 19.0375L30.5375 18.175C30.525 18.175 30.5125 18.175 30.5 18.175Z" fill="#FCFCFC"/>
<path fill-rule="evenodd" clip-rule="evenodd" d="M8.5127 53.4875C8.5127 52.9352 8.96041 52.4875 9.5127 52.4875H20.0252C20.5775 52.4875 21.0252 52.9352 21.0252 53.4875C21.0252 54.0398 20.5775 54.4875 20.0252 54.4875H9.5127C8.96041 54.4875 8.5127 54.0398 8.5127 53.4875Z" fill="#FCFCFC"/>
<path fill-rule="evenodd" clip-rule="evenodd" d="M8.5127 50.6125C8.5127 50.0602 8.96041 49.6125 9.5127 49.6125H20.0252C20.5775 49.6125 21.0252 50.0602 21.0252 50.6125C21.0252 51.1648 20.5775 51.6125 20.0252 51.6125H9.5127C8.96041 51.6125 8.5127 51.1648 8.5127 50.6125Z" fill="#FCFCFC"/>
<path fill-rule="evenodd" clip-rule="evenodd" d="M41.7749 53.4875C41.7749 52.9352 42.2226 52.4875 42.7749 52.4875H53.2874C53.8397 52.4875 54.2874 52.9352 54.2874 53.4875C54.2874 54.0398 53.8397 54.4875 53.2874 54.4875H42.7749C42.2226 54.4875 41.7749 54.0398 41.7749 53.4875Z" fill="#FCFCFC"/>
<path fill-rule="evenodd" clip-rule="evenodd" d="M41.7749 50.6125C41.7749 50.0602 42.2226 49.6125 42.7749 49.6125H53.2874C53.8397 49.6125 54.2874 50.0602 54.2874 50.6125C54.2874 51.1648 53.8397 51.6125 53.2874 51.6125H42.7749C42.2226 51.6125 41.7749 51.1648 41.7749 50.6125Z" fill="#FCFCFC"/>
<path d="M22.8626 9.6875H20.6751C20.3876 9.6875 20.1626 9.9125 20.1626 10.2V52.975C20.1626 53.2625 20.3876 53.4875 20.6751 53.4875H22.8626V9.6875Z" fill="#FFE836"/>
<path fill-rule="evenodd" clip-rule="evenodd" d="M19.1626 10.2C19.1626 9.36022 19.8353 8.6875 20.6751 8.6875H23.8626V54.4875H20.6751C19.8353 54.4875 19.1626 53.8148 19.1626 52.975V10.2ZM21.1626 10.6875V52.4875H21.8626V10.6875H21.1626Z" fill="#FCFCFC"/>
</svg>
