<svg width="64" height="64" viewBox="0 0 64 64" fill="none" xmlns="http://www.w3.org/2000/svg">
<path fill-rule="evenodd" clip-rule="evenodd" d="M23.2654 2.49584V61.5047L43.9501 56.4633V7.53722L23.2654 2.49584ZM23.0208 0.0507632C22.5046 -0.0769178 21.951 0.0348937 21.5318 0.401698C21.1231 0.759325 20.9478 1.26317 20.9478 1.74093V62.2596C20.9478 62.7401 21.1293 63.235 21.5242 63.5867C21.9312 63.9492 22.4842 64.0823 23.0202 63.9499C23.0218 63.9495 23.0234 63.9491 23.025 63.9487L44.9487 58.6054L44.9554 58.6037C45.4731 58.4743 45.7936 58.1079 45.9605 57.8362C46.1402 57.5435 46.2503 57.1938 46.2665 56.8368L46.2677 56.8106V7.21629C46.2677 6.82246 46.1464 6.45136 45.9596 6.15419C45.7855 5.87726 45.4611 5.52323 44.9554 5.3968L23.025 0.0518077C23.0236 0.0514578 23.0222 0.0511096 23.0208 0.0507632Z" fill="#282828"/>
<path d="M29.508 31.9858C29.508 32.9707 28.8707 33.7819 28.0595 33.7819C27.2483 33.7964 26.582 32.9852 26.582 31.9858C26.582 30.9863 27.2483 30.1751 28.0595 30.1896C28.8562 30.2041 29.508 31.0008 29.508 31.9858Z" fill="#050505"/>
<path d="M31.1741 17.0517L38.069 17.9932V20.3688L31.1741 19.659V17.0517ZM30.9569 16.4433C30.7541 16.4433 30.5947 16.6316 30.5947 16.9068V19.6735C30.5947 19.9487 30.7685 20.1949 31.0003 20.2239L38.3153 20.9771C38.3298 20.9771 38.3298 20.9771 38.3442 20.9771C38.5181 20.9771 38.6629 20.7888 38.6629 20.5426V17.9642C38.6629 17.7035 38.5036 17.4717 38.3153 17.4428L31.0003 16.4433C30.9858 16.4433 30.9713 16.4433 30.9569 16.4433Z" fill="#282828"/>
<path fill-rule="evenodd" clip-rule="evenodd" d="M5.47803 57.3636C5.47803 56.7236 5.99684 56.2048 6.63683 56.2048H18.8188C19.4588 56.2048 19.9776 56.7236 19.9776 57.3636C19.9776 58.0036 19.4588 58.5224 18.8188 58.5224H6.63683C5.99684 58.5224 5.47803 58.0036 5.47803 57.3636Z" fill="#282828"/>
<path fill-rule="evenodd" clip-rule="evenodd" d="M5.47803 54.0321C5.47803 53.3921 5.99684 52.8733 6.63683 52.8733H18.8188C19.4588 52.8733 19.9776 53.3921 19.9776 54.0321C19.9776 54.6721 19.4588 55.1909 18.8188 55.1909H6.63683C5.99684 55.1909 5.47803 54.6721 5.47803 54.0321Z" fill="#282828"/>
<path fill-rule="evenodd" clip-rule="evenodd" d="M44.0225 57.3636C44.0225 56.7236 44.5413 56.2048 45.1813 56.2048H57.3632C58.0032 56.2048 58.522 56.7236 58.522 57.3636C58.522 58.0036 58.0032 58.5224 57.3632 58.5224H45.1813C44.5413 58.5224 44.0225 58.0036 44.0225 57.3636Z" fill="#282828"/>
<path fill-rule="evenodd" clip-rule="evenodd" d="M44.0225 54.0321C44.0225 53.3921 44.5413 52.8733 45.1813 52.8733H57.3632C58.0032 52.8733 58.522 53.3921 58.522 54.0321C58.522 54.6721 58.0032 55.1909 57.3632 55.1909H45.1813C44.5413 55.1909 44.0225 54.6721 44.0225 54.0321Z" fill="#282828"/>
<path d="M22.1068 6.60794H19.5719C19.2388 6.60794 18.978 6.86867 18.978 7.20183V56.7698C18.978 57.1029 19.2388 57.3637 19.5719 57.3637H22.1068V6.60794Z" fill="#FFE836"/>
<path fill-rule="evenodd" clip-rule="evenodd" d="M17.8193 7.20182C17.8193 6.22868 18.5989 5.44913 19.572 5.44913H23.2657V58.5225H19.572C18.5989 58.5225 17.8193 57.7429 17.8193 56.7698V7.20182ZM20.1369 7.76674V56.2048H20.9481V7.76674H20.1369Z" fill="#282828"/>
</svg>
