<svg width="24" height="24" viewBox="0 0 24 24" fill="none" xmlns="http://www.w3.org/2000/svg">
<path d="M13.3022 5.7747C16.0308 5.7747 18.2501 7.99395 18.2501 10.7226C18.2501 10.7378 18.248 10.7536 18.2473 10.7687C18.2453 10.8051 18.2425 10.8416 18.2419 10.8787L18.2233 11.6267L18.9727 11.6295C20.7856 11.6343 22.261 13.1144 22.261 14.9274C22.261 16.7355 20.789 18.215 18.9795 18.2246L18.8194 18.2253H5.40141C3.38223 18.2233 1.7391 16.5795 1.7391 14.561C1.7391 12.9969 2.7346 11.6047 4.21616 11.096L4.62866 10.955L4.70154 10.5253C4.88098 9.4652 5.79191 8.69589 6.86648 8.69589C7.20885 8.69589 7.54023 8.77564 7.85029 8.9317L8.51854 9.2672L8.84098 8.59276C9.66048 6.8802 11.4115 5.77401 13.3015 5.77401L13.3022 5.7747ZM13.3022 5.04114C11.0417 5.04114 9.09466 6.36458 8.18029 8.27583C7.78498 8.07645 7.33948 7.96233 6.86648 7.96233C5.41516 7.96233 4.21341 9.01833 3.97898 10.403C2.2506 10.9956 1.00623 12.6305 1.00623 14.561C1.00623 16.9885 2.97385 18.9561 5.40073 18.9582L18.983 18.9575C21.2002 18.9458 22.9938 17.1466 22.9938 14.9274C22.9938 12.7047 21.196 10.9028 18.9747 10.8966C18.9761 10.8381 18.983 10.7811 18.983 10.7226C18.983 7.58489 16.4392 5.04183 13.3022 5.04183V5.04114Z" fill="white"/>
</svg>
