<?xml version="1.0" encoding="UTF-8"?>
<svg height="600" width="800" xmlns="http://www.w3.org/2000/svg" xmlns:xlink="http://www.w3.org/1999/xlink">
    <g id="Notes" font-family="'LucidaGrande', 'Lucida Grande', sans-serif" font-size="13">
        <rect fill="white" height="600.0" width="800.0" x="0.0" y="0.0" />
        <g font-size="13">
            <text x="18.0" y="176.0">Small</text>
            <text x="18.0" y="376.0">Medium</text>
            <text x="18.0" y="576.0">Large</text>
        </g>
        <g font-size="9">
            <text x="250.0" y="30.0">Ultralight</text>
            <text x="450.0" y="30.0">Regular</text>
            <text x="650.0" y="30.0">Black</text>
            <text id="template-version" fill="#505050" text-anchor="end" x="785.0" y="575.0">Template v.3.0</text>
            <a href="https://github.com/swhitty/SwiftDraw">
                <text fill="#505050" text-anchor="end" x="785.0" y="590.0">https://github.com/swhitty/SwiftDraw</text>
            </a>
        </g>
    </g>
    <g id="Guides" stroke="rgb(39, 170, 225)" stroke-width="0.5">
        <path id="Capline-S" d="M18,76 l800,0" />
        <path id="H-reference" d="M85,145.755 L87.685,145.755 L113.369,79.287 L114.052,79.287 L114.052,76 L112.148,76 L85,145.755 Z M95.693,121.536 L130.996,121.536 L130.263,119.313 L96.474,119.313 L95.693,121.536 Z M139.15,145.755 L141.787,145.755 L114.638,76 L113.466,76 L113.466,79.287 L139.15,145.755 Z" stroke="none" />
        <path id="Baseline-S" d="M18,146 l800,0" />
        <path id="left-margin-Ultralight-S" d="M220.005,56 l0,110" />
        <path id="right-margin-Ultralight-S" d="M309.995,56 l0,110" />
        <path id="left-margin-Regular-S" d="M420.005,56 l0,110" />
        <path id="right-margin-Regular-S" d="M509.995,56 l0,110" />
        <path id="left-margin-Black-S" d="M620.005,56 l0,110" />
        <path id="right-margin-Black-S" d="M709.995,56 l0,110" />
        <path id="Capline-M" d="M18,276 l800,0" />
        <path id="Baseline-M" d="M18,346 l800,0" />
        <path id="Capline-L" d="M18,476 l800,0" />
        <path id="Baseline-L" d="M18,546 l800,0" />
    </g>
    <g id="Symbols">
        <g id="Ultralight-S">
            <path d="M277.714,123.298 L252.704,98.295 C251.93,97.515 250.857,97.068 249.76,97.068 C249.457,97.066 249.16,97.099 248.868,97.16 C247.473,97.452 246.338,98.42 245.828,99.751 L230.286,140.295 C229.885,141.343 229.914,142.485 230.371,143.509 C230.828,144.534 231.657,145.32 232.705,145.721 C233.181,145.903 233.68,145.997 234.19,146 C234.708,146 235.22,145.905 235.706,145.716 L276.251,130.174 C277.296,129.773 278.123,128.989 278.579,127.968 C279.034,126.947 279.066,125.807 278.665,124.762 C278.453,124.208 278.134,123.716 277.714,123.296 L277.714,123.298 Z M241.48,140.3 L234.647,142.909 C234.513,142.966 234.37,142.994 234.224,143 L234.168,143 L234.114,142.996 C233.842,142.971 233.583,142.852 233.383,142.665 C233.019,142.333 232.904,141.8 233.096,141.348 L241.48,119.471 L241.48,140.298 L241.48,140.3 Z M252.959,135.896 L244.481,139.144 L244.481,111.659 L248.627,100.842 C248.769,100.447 249.114,100.157 249.529,100.084 L249.598,100.075 C249.665,100.068 249.733,100.068 249.799,100.072 C250.103,100.082 250.392,100.213 250.603,100.432 L252.957,102.785 L252.957,135.894 L252.959,135.896 Z M264.429,131.495 L255.953,134.746 L255.953,105.77 L264.429,114.247 L264.429,131.494 L264.429,131.495 Z M275.595,127.112 C275.476,127.231 275.335,127.321 275.179,127.382 L267.426,130.354 L267.426,117.244 L275.6,125.418 C276.068,125.889 276.066,126.648 275.597,127.114 L275.595,127.112 Z" />
            <path d="M266.845,101.764 C267.17,102.226 267.646,102.571 268.184,102.736 L272.061,103.939 L273.266,107.813 C273.55,108.739 274.35,109.43 275.303,109.578 C275.439,109.598 275.577,109.61 275.714,109.61 C276.537,109.61 277.313,109.206 277.789,108.53 L280.133,105.217 L284.191,105.266 L284.23,105.266 C285.633,105.266 286.777,104.127 286.78,102.724 C286.78,102.174 286.602,101.628 286.27,101.188 L283.841,97.941 L285.144,94.098 C285.365,93.451 285.322,92.759 285.023,92.149 C284.724,91.539 284.204,91.081 283.56,90.86 C283.294,90.768 283.017,90.722 282.735,90.722 L282.733,90.722 C282.451,90.722 282.172,90.768 281.904,90.86 L278.062,92.165 L274.815,89.74 C274.377,89.41 273.839,89.229 273.293,89.229 L273.101,89.229 C272.761,89.254 272.427,89.348 272.122,89.502 L272.119,89.502 C271.258,89.939 270.711,90.843 270.728,91.808 L270.782,95.868 L267.469,98.213 C266.317,99.022 266.038,100.616 266.845,101.766 L266.845,101.764 Z M273.154,97.858 C273.556,97.573 273.793,97.109 273.786,96.616 L273.735,92.661 L276.904,95.029 C277.164,95.221 277.474,95.325 277.802,95.326 C277.962,95.326 278.123,95.299 278.278,95.247 L282.024,93.977 L280.759,97.72 C280.599,98.188 280.681,98.702 280.974,99.098 L283.341,102.267 L279.384,102.216 L279.365,102.216 C278.88,102.216 278.422,102.452 278.142,102.85 L275.862,106.078 L274.686,102.303 C274.54,101.832 274.172,101.465 273.701,101.319 L269.924,100.145 L273.152,97.861 L273.154,97.858 Z" />
            <path d="M291.629,108.282 L291.486,108.282 C291.276,108.302 291.07,108.368 290.885,108.474 L278.555,115.592 C277.853,116.022 277.629,116.941 278.056,117.647 C278.472,118.335 279.348,118.571 280.052,118.187 L292.382,111.068 C293.089,110.652 293.326,109.733 292.907,109.021 C292.64,108.569 292.149,108.285 291.626,108.282 L291.629,108.282 Z" />
            <path d="M298.493,104.274 C297.667,104.274 296.995,104.945 296.995,105.772 C296.995,106.6 297.666,107.272 298.493,107.274 L298.495,107.274 C298.894,107.274 299.271,107.118 299.555,106.836 C299.839,106.552 299.995,106.176 299.995,105.775 C299.995,105.38 299.835,104.992 299.555,104.712 C299.271,104.43 298.894,104.274 298.495,104.272 L298.493,104.272 L298.493,104.274 Z" />
            <path d="M259.494,98.159 C259.879,98.055 260.202,97.807 260.403,97.462 L267.527,85.125 C267.939,84.41 267.691,83.493 266.976,83.08 C266.75,82.949 266.492,82.881 266.23,82.879 L266.229,82.879 C265.695,82.879 265.196,83.167 264.929,83.629 L257.812,95.965 C257.399,96.681 257.645,97.598 258.359,98.011 C258.705,98.211 259.108,98.264 259.495,98.16 L259.494,98.159 Z" />
            <path d="M270.23,76 C269.832,76 269.457,76.158 269.175,76.442 C268.893,76.725 268.738,77.103 268.74,77.502 C268.74,77.901 268.898,78.277 269.181,78.559 C269.464,78.839 269.839,78.994 270.237,78.994 L270.242,78.994 C270.641,78.994 271.016,78.836 271.298,78.552 C271.581,78.268 271.735,77.891 271.733,77.492 C271.733,77.098 271.57,76.712 271.29,76.433 C271.006,76.155 270.631,76 270.23,76 Z" />
            <path d="M255.783,86.35 C255.783,85.525 255.112,84.854 254.286,84.854 L253.267,84.854 L253.267,83.834 C253.267,83.01 252.594,82.339 251.768,82.337 C250.946,82.337 250.275,83.01 250.273,83.836 L250.273,84.854 L249.254,84.854 C248.428,84.854 247.757,85.525 247.757,86.35 C247.757,87.176 248.428,87.847 249.254,87.847 L250.273,87.847 L250.273,88.867 C250.273,89.268 250.428,89.643 250.711,89.925 C250.993,90.209 251.371,90.364 251.77,90.364 C252.169,90.364 252.545,90.209 252.828,89.925 C253.112,89.643 253.267,89.266 253.267,88.867 L253.267,87.846 L254.286,87.846 C255.112,87.846 255.783,87.175 255.783,86.349 L255.783,86.35 Z" />
            <path d="M298.293,94.39 C298.293,93.991 298.138,93.614 297.854,93.332 C297.572,93.05 297.197,92.893 296.799,92.893 L296.791,92.893 C296.402,92.893 296.021,93.051 295.744,93.327 L295.02,94.05 L294.297,93.327 C294.013,93.041 293.636,92.885 293.235,92.885 C292.834,92.885 292.456,93.041 292.173,93.323 C291.587,93.908 291.585,94.861 292.171,95.447 L292.9,96.176 L292.166,96.9 C291.585,97.479 291.585,98.431 292.169,99.015 C292.754,99.6 293.704,99.6 294.29,99.015 L295.014,98.29 L295.739,99.015 C296.323,99.598 297.273,99.598 297.856,99.015 C298.138,98.731 298.294,98.356 298.294,97.957 C298.294,97.557 298.138,97.18 297.856,96.898 L297.127,96.179 L297.854,95.45 C298.138,95.167 298.294,94.791 298.294,94.392 L298.293,94.39 Z" />
            <path d="M296.801,77.699 C296.408,77.699 296.028,77.855 295.751,78.131 L286.904,86.979 C286.314,87.564 286.309,88.512 286.889,89.1 C287.171,89.383 287.545,89.541 287.944,89.543 C288.347,89.543 288.72,89.392 289.004,89.11 L297.87,80.246 C298.449,79.663 298.446,78.713 297.859,78.131 C297.577,77.852 297.205,77.697 296.808,77.696 L296.799,77.696 L296.801,77.699 Z" />
            <path d="M288.787,121.101 C287.607,121.101 286.647,122.061 286.646,123.24 C286.646,124.421 287.606,125.381 288.785,125.382 C289.964,125.382 290.926,124.422 290.926,123.243 C290.924,122.064 289.962,121.104 288.785,121.101 L288.787,121.101 Z" />
            <path d="M282.296,81.751 C282.296,80.572 281.335,79.612 280.156,79.612 C278.976,79.612 278.018,80.574 278.018,81.753 C278.018,82.932 278.978,83.89 280.157,83.89 C281.336,83.89 282.295,82.93 282.295,81.751 L282.296,81.751 Z" />
        </g>
        <g id="Regular-S">
            <path d="M477.714,123.298 L452.704,98.295 C451.93,97.515 450.857,97.068 449.76,97.068 C449.457,97.066 449.16,97.099 448.868,97.16 C447.473,97.452 446.338,98.42 445.828,99.751 L430.286,140.295 C429.885,141.343 429.914,142.485 430.371,143.509 C430.828,144.534 431.657,145.32 432.705,145.721 C433.181,145.903 433.68,145.997 434.19,146 C434.708,146 435.22,145.905 435.706,145.716 L476.251,130.174 C477.296,129.773 478.123,128.989 478.579,127.968 C479.034,126.947 479.066,125.807 478.665,124.762 C478.453,124.208 478.134,123.716 477.714,123.296 L477.714,123.298 Z M441.481,140.3 L434.647,142.909 C434.513,142.966 434.37,142.994 434.224,143 L434.168,143 L434.114,142.996 C433.842,142.971 433.583,142.852 433.383,142.665 C433.019,142.333 432.904,141.8 433.096,141.348 L441.481,119.471 L441.481,140.298 L441.481,140.3 Z M452.959,135.896 L444.481,139.144 L444.481,111.659 L448.627,100.842 C448.769,100.447 449.114,100.157 449.529,100.084 L449.598,100.075 C449.665,100.068 449.733,100.068 449.799,100.072 C450.103,100.082 450.392,100.213 450.603,100.432 L452.957,102.785 L452.957,135.894 L452.959,135.896 Z M464.429,131.495 L455.953,134.746 L455.953,105.77 L464.429,114.247 L464.429,131.494 L464.429,131.495 Z M475.595,127.112 C475.476,127.231 475.335,127.321 475.179,127.382 L467.426,130.354 L467.426,117.244 L475.6,125.418 C476.068,125.889 476.066,126.648 475.597,127.114 L475.595,127.112 Z" />
            <path d="M466.845,101.764 C467.17,102.226 467.646,102.571 468.184,102.736 L472.061,103.939 L473.266,107.813 C473.55,108.739 474.35,109.43 475.303,109.578 C475.439,109.598 475.577,109.61 475.714,109.61 C476.537,109.61 477.313,109.206 477.789,108.53 L480.133,105.217 L484.191,105.266 L484.23,105.266 C485.633,105.266 486.777,104.127 486.78,102.724 C486.78,102.174 486.602,101.628 486.27,101.188 L483.841,97.941 L485.144,94.098 C485.365,93.451 485.322,92.759 485.023,92.149 C484.724,91.539 484.204,91.081 483.56,90.86 C483.294,90.768 483.017,90.722 482.735,90.722 L482.733,90.722 C482.451,90.722 482.172,90.768 481.904,90.86 L478.062,92.165 L474.815,89.74 C474.377,89.41 473.839,89.229 473.293,89.229 L473.101,89.229 C472.761,89.254 472.427,89.348 472.122,89.502 L472.119,89.502 C471.258,89.939 470.711,90.843 470.728,91.808 L470.782,95.868 L467.469,98.213 C466.317,99.022 466.038,100.616 466.845,101.766 L466.845,101.764 Z M473.154,97.858 C473.556,97.573 473.793,97.109 473.786,96.616 L473.735,92.661 L476.904,95.029 C477.164,95.221 477.474,95.325 477.802,95.326 C477.962,95.326 478.123,95.299 478.278,95.247 L482.024,93.977 L480.759,97.72 C480.599,98.188 480.681,98.702 480.974,99.098 L483.341,102.267 L479.384,102.216 L479.365,102.216 C478.88,102.216 478.423,102.452 478.142,102.85 L475.862,106.078 L474.686,102.303 C474.54,101.832 474.172,101.465 473.701,101.319 L469.924,100.145 L473.152,97.861 L473.154,97.858 Z" />
            <path d="M491.629,108.282 L491.486,108.282 C491.276,108.302 491.07,108.368 490.885,108.474 L478.555,115.592 C477.853,116.022 477.629,116.941 478.056,117.647 C478.472,118.335 479.348,118.571 480.052,118.187 L492.382,111.068 C493.089,110.652 493.326,109.733 492.907,109.021 C492.64,108.569 492.149,108.285 491.626,108.282 L491.629,108.282 Z" />
            <path d="M498.493,104.274 C497.667,104.274 496.995,104.945 496.995,105.772 C496.995,106.6 497.666,107.272 498.493,107.274 L498.495,107.274 C498.894,107.274 499.271,107.118 499.555,106.836 C499.839,106.552 499.995,106.176 499.995,105.775 C499.995,105.38 499.835,104.992 499.555,104.712 C499.271,104.43 498.894,104.274 498.495,104.272 L498.493,104.272 L498.493,104.274 Z" />
            <path d="M459.494,98.159 C459.879,98.055 460.202,97.807 460.403,97.462 L467.527,85.125 C467.94,84.41 467.691,83.493 466.976,83.08 C466.75,82.949 466.492,82.881 466.23,82.879 L466.229,82.879 C465.695,82.879 465.196,83.167 464.929,83.629 L457.812,95.965 C457.399,96.681 457.645,97.598 458.359,98.011 C458.705,98.211 459.108,98.264 459.495,98.16 L459.494,98.159 Z" />
            <path d="M470.23,76 C469.832,76 469.457,76.158 469.175,76.442 C468.893,76.725 468.738,77.103 468.74,77.502 C468.74,77.901 468.898,78.277 469.181,78.559 C469.464,78.839 469.839,78.994 470.237,78.994 L470.242,78.994 C470.641,78.994 471.016,78.836 471.298,78.552 C471.581,78.268 471.735,77.891 471.733,77.492 C471.733,77.098 471.57,76.712 471.29,76.433 C471.006,76.155 470.631,76 470.23,76 Z" />
            <path d="M455.783,86.35 C455.783,85.525 455.112,84.854 454.286,84.854 L453.267,84.854 L453.267,83.834 C453.267,83.01 452.594,82.339 451.768,82.337 C450.946,82.337 450.275,83.01 450.273,83.836 L450.273,84.854 L449.254,84.854 C448.428,84.854 447.757,85.525 447.757,86.35 C447.757,87.176 448.428,87.847 449.254,87.847 L450.273,87.847 L450.273,88.867 C450.273,89.268 450.428,89.643 450.711,89.925 C450.993,90.209 451.371,90.364 451.77,90.364 C452.169,90.364 452.545,90.209 452.828,89.925 C453.112,89.643 453.267,89.266 453.267,88.867 L453.267,87.846 L454.286,87.846 C455.112,87.846 455.783,87.175 455.783,86.349 L455.783,86.35 Z" />
            <path d="M498.293,94.39 C498.293,93.991 498.138,93.614 497.854,93.332 C497.572,93.05 497.197,92.893 496.799,92.893 L496.791,92.893 C496.402,92.893 496.021,93.051 495.744,93.327 L495.02,94.05 L494.297,93.327 C494.013,93.041 493.636,92.885 493.235,92.885 C492.834,92.885 492.456,93.041 492.173,93.323 C491.587,93.908 491.585,94.861 492.171,95.447 L492.9,96.176 L492.166,96.9 C491.585,97.479 491.585,98.431 492.169,99.015 C492.754,99.6 493.704,99.6 494.29,99.015 L495.014,98.29 L495.739,99.015 C496.323,99.598 497.273,99.598 497.856,99.015 C498.138,98.731 498.294,98.356 498.294,97.957 C498.294,97.557 498.138,97.18 497.856,96.898 L497.127,96.179 L497.854,95.45 C498.138,95.167 498.294,94.791 498.294,94.392 L498.293,94.39 Z" />
            <path d="M496.801,77.699 C496.408,77.699 496.028,77.855 495.751,78.131 L486.904,86.979 C486.315,87.564 486.309,88.512 486.889,89.1 C487.171,89.383 487.545,89.541 487.944,89.543 C488.347,89.543 488.72,89.392 489.004,89.11 L497.87,80.246 C498.449,79.663 498.446,78.713 497.859,78.131 C497.577,77.852 497.205,77.697 496.808,77.696 L496.799,77.696 L496.801,77.699 Z" />
            <path d="M488.787,121.101 C487.607,121.101 486.648,122.061 486.646,123.24 C486.646,124.421 487.606,125.381 488.785,125.382 C489.964,125.382 490.926,124.422 490.926,123.243 C490.924,122.064 489.962,121.104 488.785,121.101 L488.787,121.101 Z" />
            <path d="M482.296,81.751 C482.296,80.572 481.335,79.612 480.156,79.612 C478.976,79.612 478.018,80.574 478.018,81.753 C478.018,82.932 478.978,83.89 480.157,83.89 C481.336,83.89 482.295,82.93 482.295,81.751 L482.296,81.751 Z" />
        </g>
        <g id="Black-S">
            <path d="M677.714,123.298 L652.704,98.295 C651.93,97.515 650.857,97.068 649.76,97.068 C649.457,97.066 649.16,97.099 648.868,97.16 C647.473,97.452 646.338,98.42 645.828,99.751 L630.286,140.295 C629.885,141.343 629.914,142.485 630.371,143.509 C630.828,144.534 631.657,145.32 632.705,145.721 C633.181,145.903 633.68,145.997 634.19,146 C634.708,146 635.22,145.905 635.706,145.716 L676.251,130.174 C677.296,129.773 678.123,128.989 678.579,127.968 C679.034,126.947 679.066,125.807 678.665,124.762 C678.453,124.208 678.134,123.716 677.714,123.296 L677.714,123.298 Z M641.481,140.3 L634.647,142.909 C634.513,142.966 634.37,142.994 634.224,143 L634.168,143 L634.114,142.996 C633.842,142.971 633.583,142.852 633.383,142.665 C633.019,142.333 632.904,141.8 633.096,141.348 L641.481,119.471 L641.481,140.298 L641.481,140.3 Z M652.959,135.896 L644.481,139.144 L644.481,111.659 L648.627,100.842 C648.769,100.447 649.114,100.157 649.529,100.084 L649.599,100.075 C649.665,100.068 649.733,100.068 649.799,100.072 C650.103,100.082 650.392,100.213 650.603,100.432 L652.957,102.785 L652.957,135.894 L652.959,135.896 Z M664.429,131.495 L655.953,134.746 L655.953,105.77 L664.429,114.247 L664.429,131.494 L664.429,131.495 Z M675.595,127.112 C675.476,127.231 675.335,127.321 675.179,127.382 L667.426,130.354 L667.426,117.244 L675.6,125.418 C676.068,125.889 676.066,126.648 675.597,127.114 L675.595,127.112 Z" />
            <path d="M666.845,101.764 C667.17,102.226 667.646,102.571 668.184,102.736 L672.061,103.939 L673.266,107.813 C673.55,108.739 674.35,109.43 675.303,109.578 C675.439,109.598 675.577,109.61 675.714,109.61 C676.537,109.61 677.313,109.206 677.789,108.53 L680.133,105.217 L684.191,105.266 L684.23,105.266 C685.633,105.266 686.777,104.127 686.78,102.724 C686.78,102.174 686.602,101.628 686.27,101.188 L683.841,97.941 L685.144,94.098 C685.365,93.451 685.322,92.759 685.023,92.149 C684.724,91.539 684.204,91.081 683.56,90.86 C683.294,90.768 683.017,90.722 682.735,90.722 L682.733,90.722 C682.451,90.722 682.172,90.768 681.904,90.86 L678.062,92.165 L674.815,89.74 C674.377,89.41 673.839,89.229 673.293,89.229 L673.101,89.229 C672.761,89.254 672.427,89.348 672.122,89.502 L672.119,89.502 C671.258,89.939 670.711,90.843 670.728,91.808 L670.782,95.868 L667.469,98.213 C666.317,99.022 666.038,100.616 666.845,101.766 L666.845,101.764 Z M673.154,97.858 C673.557,97.573 673.793,97.109 673.786,96.616 L673.735,92.661 L676.904,95.029 C677.164,95.221 677.474,95.325 677.802,95.326 C677.962,95.326 678.123,95.299 678.278,95.247 L682.024,93.977 L680.759,97.72 C680.599,98.188 680.681,98.702 680.974,99.098 L683.341,102.267 L679.384,102.216 L679.365,102.216 C678.88,102.216 678.422,102.452 678.142,102.85 L675.862,106.078 L674.686,102.303 C674.54,101.832 674.172,101.465 673.701,101.319 L669.924,100.145 L673.152,97.861 L673.154,97.858 Z" />
            <path d="M691.629,108.282 L691.486,108.282 C691.276,108.302 691.07,108.368 690.885,108.474 L678.555,115.592 C677.853,116.022 677.629,116.941 678.056,117.647 C678.472,118.335 679.349,118.571 680.052,118.187 L692.382,111.068 C693.089,110.652 693.326,109.733 692.907,109.021 C692.64,108.569 692.149,108.285 691.626,108.282 L691.629,108.282 Z" />
            <path d="M698.493,104.274 C697.667,104.274 696.995,104.945 696.995,105.772 C696.995,106.6 697.666,107.272 698.493,107.274 L698.495,107.274 C698.894,107.274 699.271,107.118 699.555,106.836 C699.839,106.552 699.995,106.176 699.995,105.775 C699.995,105.38 699.835,104.992 699.555,104.712 C699.271,104.43 698.894,104.274 698.495,104.272 L698.493,104.272 L698.493,104.274 Z" />
            <path d="M659.494,98.159 C659.879,98.055 660.202,97.807 660.403,97.462 L667.527,85.125 C667.94,84.41 667.691,83.493 666.976,83.08 C666.75,82.949 666.492,82.881 666.23,82.879 L666.229,82.879 C665.695,82.879 665.196,83.167 664.929,83.629 L657.812,95.965 C657.399,96.681 657.645,97.598 658.359,98.011 C658.705,98.211 659.108,98.264 659.495,98.16 L659.494,98.159 Z" />
            <path d="M670.23,76 C669.832,76 669.457,76.158 669.175,76.442 C668.893,76.725 668.738,77.103 668.74,77.502 C668.74,77.901 668.898,78.277 669.182,78.559 C669.464,78.839 669.839,78.994 670.237,78.994 L670.242,78.994 C670.641,78.994 671.016,78.836 671.298,78.552 C671.581,78.268 671.735,77.891 671.733,77.492 C671.733,77.098 671.57,76.712 671.29,76.433 C671.006,76.155 670.631,76 670.23,76 Z" />
            <path d="M655.783,86.35 C655.783,85.525 655.112,84.854 654.286,84.854 L653.267,84.854 L653.267,83.834 C653.267,83.01 652.594,82.339 651.768,82.337 C650.946,82.337 650.275,83.01 650.273,83.836 L650.273,84.854 L649.254,84.854 C648.428,84.854 647.757,85.525 647.757,86.35 C647.757,87.176 648.428,87.847 649.254,87.847 L650.273,87.847 L650.273,88.867 C650.273,89.268 650.428,89.643 650.711,89.925 C650.993,90.209 651.371,90.364 651.77,90.364 C652.169,90.364 652.545,90.209 652.828,89.925 C653.112,89.643 653.267,89.266 653.267,88.867 L653.267,87.846 L654.286,87.846 C655.112,87.846 655.783,87.175 655.783,86.349 L655.783,86.35 Z" />
            <path d="M698.293,94.39 C698.293,93.991 698.138,93.614 697.854,93.332 C697.572,93.05 697.197,92.893 696.799,92.893 L696.791,92.893 C696.402,92.893 696.021,93.051 695.744,93.327 L695.02,94.05 L694.297,93.327 C694.013,93.041 693.636,92.885 693.235,92.885 C692.834,92.885 692.456,93.041 692.173,93.323 C691.587,93.908 691.585,94.861 692.171,95.447 L692.9,96.176 L692.166,96.9 C691.585,97.479 691.585,98.431 692.169,99.015 C692.754,99.6 693.704,99.6 694.29,99.015 L695.014,98.29 L695.739,99.015 C696.323,99.598 697.273,99.598 697.856,99.015 C698.138,98.731 698.294,98.356 698.294,97.957 C698.294,97.557 698.138,97.18 697.856,96.898 L697.127,96.179 L697.854,95.45 C698.138,95.167 698.294,94.791 698.294,94.392 L698.293,94.39 Z" />
            <path d="M696.801,77.699 C696.408,77.699 696.028,77.855 695.751,78.131 L686.904,86.979 C686.315,87.564 686.309,88.512 686.889,89.1 C687.171,89.383 687.545,89.541 687.944,89.543 C688.347,89.543 688.72,89.392 689.004,89.11 L697.87,80.246 C698.449,79.663 698.446,78.713 697.859,78.131 C697.577,77.852 697.205,77.697 696.808,77.696 L696.799,77.696 L696.801,77.699 Z" />
            <path d="M688.787,121.101 C687.607,121.101 686.648,122.061 686.646,123.24 C686.646,124.421 687.606,125.381 688.785,125.382 C689.964,125.382 690.926,124.422 690.926,123.243 C690.924,122.064 689.962,121.104 688.785,121.101 L688.787,121.101 Z" />
            <path d="M682.296,81.751 C682.296,80.572 681.335,79.612 680.156,79.612 C678.976,79.612 678.018,80.574 678.018,81.753 C678.018,82.932 678.978,83.89 680.157,83.89 C681.336,83.89 682.295,82.93 682.295,81.751 L682.296,81.751 Z" />
        </g>
    </g>
</svg>