<svg width="64" height="64" viewBox="0 0 64 64" fill="none" xmlns="http://www.w3.org/2000/svg">
<path fill-rule="evenodd" clip-rule="evenodd" d="M4.75089 8.07622C5.40681 8.07622 5.93855 8.60795 5.93855 9.26387V62.8124C5.93855 63.4683 5.40681 64 4.75089 64C4.09496 64 3.56323 63.4683 3.56323 62.8124V9.26387C3.56323 8.60795 4.09496 8.07622 4.75089 8.07622Z" fill="#282828"/>
<path fill-rule="evenodd" clip-rule="evenodd" d="M4.76545 13.169C4.99465 12.849 5.4398 12.7755 5.75973 13.0047L23.7676 25.9056C24.0875 26.1348 24.1611 26.58 23.9319 26.8999C23.7027 27.2198 23.2575 27.2934 22.9376 27.0642L4.92973 14.1632C4.6098 13.934 4.53625 13.4889 4.76545 13.169Z" fill="#282828"/>
<path fill-rule="evenodd" clip-rule="evenodd" d="M23.9396 0.78375C24.1627 1.10792 24.0808 1.55162 23.7566 1.77477L5.74879 14.1709C5.42462 14.3941 4.98093 14.3122 4.75777 13.988C4.53462 13.6639 4.61651 13.2202 4.94069 12.997L22.9485 0.600836C23.2727 0.377683 23.7164 0.459576 23.9396 0.78375Z" fill="#282828"/>
<path fill-rule="evenodd" clip-rule="evenodd" d="M21.5316 5.32653C20.6917 7.44141 20.1458 10.4443 20.1458 13.8215C20.1458 17.1987 20.6917 20.2016 21.5316 22.3165C21.953 23.3773 22.4251 24.1558 22.8886 24.6494C23.3501 25.1408 23.7182 25.2676 23.976 25.2676C24.2338 25.2676 24.6019 25.1408 25.0634 24.6494C25.5269 24.1558 25.999 23.3773 26.4204 22.3165C27.2604 20.2016 27.8062 17.1987 27.8062 13.8215C27.8062 10.4443 27.2604 7.44141 26.4204 5.32653C25.999 4.26568 25.5269 3.48723 25.0634 2.99362C24.6019 2.50218 24.2338 2.37547 23.976 2.37547C23.7182 2.37547 23.3501 2.50218 22.8886 2.99362C22.4251 3.48723 21.953 4.26568 21.5316 5.32653ZM21.1571 1.36763C21.8962 0.580474 22.8482 0.000152588 23.976 0.000152588C25.1038 0.000152588 26.0558 0.580474 26.795 1.36763C27.5321 2.15263 28.1412 3.22434 28.628 4.44973C29.6041 6.90736 30.1815 10.2213 30.1815 13.8215C30.1815 17.4217 29.6041 20.7357 28.628 23.1933C28.1412 24.4187 27.5321 25.4904 26.795 26.2754C26.0558 27.0625 25.1038 27.6429 23.976 27.6429C22.8482 27.6429 21.8962 27.0625 21.1571 26.2754C20.4199 25.4904 19.8108 24.4187 19.3241 23.1933C18.348 20.7357 17.7705 17.4217 17.7705 13.8215C17.7705 10.2213 18.348 6.90736 19.3241 4.44973C19.8108 3.22434 20.4199 2.15263 21.1571 1.36763Z" fill="#282828"/>
<path fill-rule="evenodd" clip-rule="evenodd" d="M22.7991 1.02769C22.8875 0.377757 23.4861 -0.0774406 24.136 0.0109823L56.1504 4.36648C56.9833 4.39696 57.6635 4.83458 58.1666 5.36943C58.6859 5.9215 59.0983 6.65623 59.4197 7.46522C60.065 9.08993 60.437 11.2534 60.437 13.584C60.437 15.9145 60.065 18.078 59.4197 19.7027C59.0983 20.5117 58.6859 21.2464 58.1666 21.7985C57.6655 22.3312 56.9887 22.7675 56.1604 22.8011L24.1531 27.6296C23.5045 27.7274 22.8994 27.2809 22.8015 26.6324C22.7037 25.9838 23.1502 25.3787 23.7987 25.2808L55.9684 20.4278H56.0575C56.0663 20.4278 56.1948 20.4279 56.4364 20.1711C56.6812 19.9108 56.9563 19.4699 57.2121 18.8259C57.721 17.5446 58.0617 15.6923 58.0617 13.584C58.0617 11.4756 57.721 9.62337 57.2121 8.34204C56.9563 7.69799 56.6812 7.25714 56.4364 6.99686C56.1948 6.74004 56.0664 6.74009 56.0576 6.74009H55.9771L23.8158 2.36461C23.1659 2.27619 22.7107 1.67763 22.7991 1.02769Z" fill="#282828"/>
<path d="M35.9714 2.27152C34.9768 2.1973 33.9821 1.93007 33.0468 1.60347C32.8687 1.54409 32.6757 1.46986 32.4975 1.41047C32.2897 1.39563 32.067 1.38078 31.8592 1.36594C31.9482 1.52924 31.9334 1.75192 31.9334 1.95976C32.26 2.3606 32.3639 2.92474 32.4827 3.44434H32.4975C33.4477 3.44434 35.6894 6.99246 35.6894 13.8512C35.6894 20.4872 33.611 24.0056 32.6015 24.2432C32.3936 24.451 32.1412 24.4659 31.8443 24.6143C31.7404 24.6589 31.6513 24.7182 31.5623 24.7776H31.6959C32.8687 24.7182 34.0415 24.7776 35.1995 24.7182C35.3331 24.7182 35.4073 24.8073 35.4221 24.9261C35.7191 24.9261 36.016 24.9112 36.3129 24.9261C37.9756 22.3429 38.8367 18.0822 38.8367 13.8512C38.8367 9.33808 37.8568 4.7953 35.9714 2.27152Z" fill="#282828"/>
<path d="M44.1661 3.35527C43.2457 3.28104 42.3401 3.04351 41.479 2.7466C41.3157 2.68721 41.1376 2.62783 40.9743 2.56845C40.7813 2.5536 40.5883 2.53876 40.3805 2.52391C40.4695 2.67237 40.4547 2.88021 40.4398 3.0732C40.7368 3.44434 40.8258 3.96394 40.9446 4.43901H40.9594C41.8353 4.43901 43.884 7.69022 43.884 13.9996C43.884 20.0864 41.969 23.3376 41.0485 23.5454C40.8555 23.7384 40.618 23.7533 40.3508 23.8869C40.2617 23.9314 40.1726 23.976 40.0984 24.0353H40.232C41.3009 23.9908 42.3846 24.0353 43.4535 23.9908C43.5871 23.9908 43.6465 24.0799 43.6465 24.1838H44.463C45.9921 21.8085 46.779 17.8892 46.779 13.9996C46.8087 9.84285 45.9031 5.6712 44.1661 3.35527Z" fill="#282828"/>
<path d="M51.6485 4.75077C50.8617 4.69139 50.0897 4.48355 49.3474 4.23117C49.199 4.18663 49.0505 4.12725 48.9169 4.06787C48.7536 4.05302 48.5754 4.03818 48.4121 4.02333C48.4864 4.15694 48.4715 4.33509 48.4715 4.49839C48.7239 4.825 48.813 5.25552 48.902 5.6712H48.9169C49.674 5.6712 51.4258 8.4622 51.4258 13.866C51.4258 19.0769 49.7928 21.853 49.006 22.046C48.8427 22.2093 48.6348 22.2242 48.4121 22.3429C48.3379 22.3875 48.2637 22.432 48.1895 22.4617H48.3082C49.2287 22.4172 50.1491 22.4617 51.0695 22.4172C51.1734 22.4172 51.2328 22.4914 51.2477 22.5805H51.9454C53.2518 20.5466 53.9347 17.1915 53.9347 13.866C53.9051 10.3031 53.1331 6.72525 51.6485 4.75077Z" fill="#282828"/>
</svg>
