<svg width="64" height="64" viewBox="0 0 64 64" fill="none" xmlns="http://www.w3.org/2000/svg">
<path fill-rule="evenodd" clip-rule="evenodd" d="M10.9624 12.5375C11.5147 12.5375 11.9624 12.9852 11.9624 13.5375V58.625C11.9624 59.1773 11.5147 59.625 10.9624 59.625C10.4101 59.625 9.9624 59.1773 9.9624 58.625V13.5375C9.9624 12.9852 10.4101 12.5375 10.9624 12.5375Z" fill="#282828"/>
<path fill-rule="evenodd" clip-rule="evenodd" d="M10.9746 16.8256C11.1676 16.5562 11.5424 16.4943 11.8118 16.6872L26.9743 27.5497C27.2437 27.7427 27.3056 28.1175 27.1126 28.3869C26.9196 28.6563 26.5448 28.7182 26.2754 28.5252L11.1129 17.6627C10.8435 17.4698 10.7816 17.0949 10.9746 16.8256Z" fill="#282828"/>
<path fill-rule="evenodd" clip-rule="evenodd" d="M27.1191 6.3973C27.307 6.67025 27.238 7.04384 26.9651 7.23173L11.8026 17.6692C11.5296 17.8571 11.156 17.7882 10.9681 17.5152C10.7802 17.2423 10.8492 16.8687 11.1221 16.6808L26.2846 6.24328C26.5576 6.05539 26.9312 6.12434 27.1191 6.3973Z" fill="#282828"/>
<path fill-rule="evenodd" clip-rule="evenodd" d="M25.0917 10.2223C24.3844 12.003 23.9248 14.5315 23.9248 17.375C23.9248 20.2186 24.3844 22.747 25.0917 24.5277C25.4464 25.421 25.8439 26.0764 26.2342 26.492C26.6228 26.9058 26.9327 27.0125 27.1498 27.0125C27.3669 27.0125 27.6768 26.9058 28.0654 26.492C28.4557 26.0764 28.8532 25.421 29.208 24.5277C29.9152 22.747 30.3748 20.2186 30.3748 17.375C30.3748 14.5315 29.9152 12.003 29.208 10.2223C28.8532 9.32905 28.4557 8.6736 28.0654 8.25799C27.6768 7.8442 27.3669 7.7375 27.1498 7.7375C26.9327 7.7375 26.6228 7.8442 26.2342 8.25799C25.8439 8.6736 25.4464 9.32905 25.0917 10.2223ZM24.7763 6.88891C25.3986 6.22613 26.2002 5.7375 27.1498 5.7375C28.0994 5.7375 28.901 6.22613 29.5233 6.88891C30.144 7.54988 30.6569 8.45225 31.0667 9.48402C31.8886 11.5533 32.3748 14.3436 32.3748 17.375C32.3748 20.4064 31.8886 23.1967 31.0667 25.266C30.6569 26.2978 30.144 27.2001 29.5233 27.8611C28.901 28.5239 28.0994 29.0125 27.1498 29.0125C26.2002 29.0125 25.3986 28.5239 24.7763 27.8611C24.1556 27.2001 23.6427 26.2978 23.2329 25.266C22.411 23.1967 21.9248 20.4064 21.9248 17.375C21.9248 14.3436 22.411 11.5533 23.2329 9.48402C23.6427 8.45225 24.1556 7.54988 24.7763 6.88891Z" fill="#282828"/>
<path fill-rule="evenodd" clip-rule="evenodd" d="M26.1589 6.60269C26.2334 6.05545 26.7374 5.67218 27.2846 5.74663L54.2405 9.41393C54.9418 9.4396 55.5146 9.80807 55.9382 10.2584C56.3754 10.7232 56.7227 11.3419 56.9932 12.023C57.5366 13.3911 57.8498 15.2127 57.8498 17.175C57.8498 19.1373 57.5366 20.9589 56.9932 22.327C56.7227 23.0081 56.3754 23.6268 55.9382 24.0916C55.5163 24.5401 54.9464 24.9075 54.2489 24.9357L27.299 29.0013C26.7529 29.0837 26.2434 28.7078 26.161 28.1617C26.0786 27.6156 26.4545 27.1061 27.0006 27.0237L54.0873 22.9375H54.1623C54.1697 22.9375 54.2779 22.9375 54.4813 22.7213C54.6875 22.5022 54.9191 22.131 55.1345 21.5887C55.563 20.5098 55.8498 18.9502 55.8498 17.175C55.8498 15.3998 55.563 13.8402 55.1345 12.7613C54.9191 12.219 54.6875 11.8478 54.4813 11.6287C54.2779 11.4125 54.1698 11.4125 54.1624 11.4125H54.0946L27.015 7.72837C26.4677 7.65392 26.0845 7.14994 26.1589 6.60269Z" fill="#282828"/>
<path d="M37.2499 7.65C36.4124 7.5875 35.5749 7.3625 34.7874 7.0875C34.6374 7.0375 34.4749 6.975 34.3249 6.925C34.1499 6.9125 33.9624 6.9 33.7874 6.8875C33.8624 7.025 33.8499 7.2125 33.8499 7.3875C34.1249 7.725 34.2124 8.2 34.3124 8.6375H34.3249C35.1249 8.6375 37.0124 11.625 37.0124 17.4C37.0124 22.9875 35.2624 25.95 34.4124 26.15C34.2374 26.325 34.0249 26.3375 33.7749 26.4625C33.6874 26.5 33.6124 26.55 33.5374 26.6H33.6499C34.6374 26.55 35.6249 26.6 36.5999 26.55C36.7124 26.55 36.7749 26.625 36.7874 26.725C37.0374 26.725 37.2874 26.7125 37.5374 26.725C38.9374 24.55 39.6624 20.9625 39.6624 17.4C39.6624 13.6 38.8374 9.775 37.2499 7.65Z" fill="#282828"/>
<path d="M44.1499 8.5625C43.3749 8.5 42.6124 8.3 41.8874 8.05C41.7499 8 41.5999 7.95 41.4624 7.9C41.2999 7.8875 41.1374 7.875 40.9624 7.8625C41.0374 7.9875 41.0249 8.1625 41.0124 8.325C41.2624 8.6375 41.3374 9.075 41.4374 9.475H41.4499C42.1874 9.475 43.9124 12.2125 43.9124 17.525C43.9124 22.65 42.2999 25.3875 41.5249 25.5625C41.3624 25.725 41.1624 25.7375 40.9374 25.85C40.8624 25.8875 40.7874 25.925 40.7249 25.975H40.8374C41.7374 25.9375 42.6499 25.975 43.5499 25.9375C43.6624 25.9375 43.7124 26.0125 43.7124 26.1H44.3999C45.6874 24.1 46.3499 20.8 46.3499 17.525C46.3749 14.025 45.6124 10.5125 44.1499 8.5625Z" fill="#282828"/>
<path d="M50.4499 9.7375C49.7874 9.6875 49.1374 9.5125 48.5124 9.3C48.3874 9.2625 48.2624 9.2125 48.1499 9.1625C48.0124 9.15 47.8624 9.1375 47.7249 9.125C47.7874 9.2375 47.7749 9.3875 47.7749 9.525C47.9874 9.8 48.0624 10.1625 48.1374 10.5125H48.1499C48.7874 10.5125 50.2624 12.8625 50.2624 17.4125C50.2624 21.8 48.8874 24.1375 48.2249 24.3C48.0874 24.4375 47.9124 24.45 47.7249 24.55C47.6624 24.5875 47.5999 24.625 47.5374 24.65H47.6374C48.4124 24.6125 49.1874 24.65 49.9624 24.6125C50.0499 24.6125 50.0999 24.675 50.1124 24.75H50.6999C51.7999 23.0375 52.3749 20.2125 52.3749 17.4125C52.3499 14.4125 51.6999 11.4 50.4499 9.7375Z" fill="#282828"/>
</svg>
