<svg width="24" height="24" viewBox="0 0 24 24" fill="none" xmlns="http://www.w3.org/2000/svg">
<path fill-rule="evenodd" clip-rule="evenodd" d="M12.012 8.00155C14.2384 8.00145 16.4647 8.00632 18.691 8.00002C20.7306 7.99422 22.5753 9.50529 22.9276 11.5709C23.1729 13.0088 22.795 14.2771 21.7912 15.3426C21.063 16.1156 20.1583 16.5489 19.1006 16.6659C18.9516 16.6824 18.8032 16.6851 18.6542 16.6851C14.2161 16.6855 9.77804 16.686 5.33994 16.6851C4.15819 16.6848 3.14169 16.2629 2.30066 15.4439C1.55616 14.7188 1.12179 13.8295 1.02301 12.7919C0.896858 11.4674 1.28928 10.3117 2.20571 9.34243C2.91113 8.59634 3.78473 8.17027 4.79997 8.0297C4.95821 8.00781 5.11809 8.00071 5.27854 8.00081C7.52301 8.00204 9.76753 8.00163 12.012 8.00155ZM16.5704 16.1256C15.1563 15.2501 14.3587 14.0231 14.3431 12.3633C14.3275 10.7019 15.1016 9.45723 16.494 8.56127C16.4602 8.56127 16.4386 8.56127 16.4169 8.56127C12.7289 8.56129 9.04076 8.56058 5.35268 8.56288C5.10954 8.56304 4.86636 8.58608 4.62691 8.63449C2.48536 9.06733 1.15758 11.1483 1.68126 13.2647C2.07601 14.86 3.5171 16.1224 5.37632 16.1244C9.06804 16.1285 12.7598 16.1256 16.4515 16.1256C16.484 16.1256 16.5166 16.1256 16.5704 16.1256ZM22.4137 12.3206C22.393 10.2532 20.769 8.56911 18.6463 8.56829C16.5591 8.56752 14.9051 10.2421 14.9024 12.3177C14.8997 14.3915 16.5554 16.083 18.6709 16.0766C20.7503 16.0703 22.3945 14.4023 22.4137 12.3206Z" fill="black"/>
<path fill-rule="evenodd" clip-rule="evenodd" d="M6.81848 14.3788C5.85066 14.3703 5.05231 13.6933 4.89107 12.7506C4.74786 11.9133 4.98618 11.1948 5.67424 10.6788C6.54848 10.0232 7.70172 10.2352 8.33944 11.1369C9.06177 12.1582 8.73319 13.5797 7.63294 14.1757C7.37042 14.3179 7.08639 14.3911 6.81848 14.3788ZM8.05313 12.3465C8.05362 12.0091 7.93798 11.6865 7.72206 11.4229C7.32142 10.9337 6.6381 10.8329 6.11401 11.1857C5.48815 11.6071 5.32323 12.5412 5.77202 13.1572C6.06874 13.5646 6.46714 13.7796 6.97751 13.6939C7.60578 13.5884 8.0522 13.013 8.05313 12.3465Z" fill="black"/>
<path fill-rule="evenodd" clip-rule="evenodd" d="M10.0434 11.7885C10.0207 11.8332 10.0312 11.8731 10.0312 11.9112C10.0303 12.6262 10.0301 13.3413 10.0309 14.0564C10.031 14.1991 9.96818 14.2999 9.83792 14.3562C9.7221 14.4062 9.58218 14.3772 9.49367 14.2899C9.4212 14.2184 9.40296 14.1304 9.40311 14.0314C9.40465 13.0078 9.40406 11.9842 9.40398 10.9606C9.40398 10.9062 9.40344 10.8517 9.40265 10.7973C9.40031 10.6345 9.46626 10.528 9.59899 10.4806C9.74767 10.4275 9.88525 10.4679 9.984 10.6024C10.2032 10.901 10.4195 11.2019 10.6367 11.5019C10.988 11.9874 11.3392 12.473 11.6906 12.9584C11.7074 12.9817 11.7256 13.0039 11.7649 13.0548C11.7649 12.9877 11.7649 12.9506 11.7649 12.9135C11.7649 12.2166 11.7651 11.5197 11.7648 10.8228C11.7648 10.6799 11.8182 10.5687 11.9516 10.5051C12.073 10.4471 12.1857 10.4694 12.2881 10.5502C12.3671 10.6125 12.4057 10.6972 12.4058 10.7971C12.4063 11.8824 12.4068 12.9676 12.4055 14.0529C12.4054 14.1987 12.3158 14.3215 12.1902 14.3635C12.0476 14.4112 11.919 14.3722 11.8168 14.2334C11.5498 13.8707 11.2874 13.5047 11.0237 13.1396C10.7154 12.7126 10.4078 12.2852 10.0997 11.8581C10.0833 11.8354 10.0645 11.8145 10.0434 11.7885Z" fill="black"/>
</svg>
