<svg width="512" height="512" viewBox="0 0 512 512" fill="none" xmlns="http://www.w3.org/2000/svg">
<path d="M417.15 157.51C389.48 123.33 348.61 97.19 301.31 83.24L307.07 60.82C308.39 55.68 305.3 50.45 300.16 49.13C295.02 47.81 289.79 50.9 288.47 56.04L282.71 78.45C234.54 67.88 186.13 71.09 145.42 87.71C101.09 105.8 71.0698 137.57 60.8998 177.18C60.7498 177.76 60.5998 178.34 60.4698 178.92C59.8498 181.61 60.4198 184.43 62.0198 186.67C63.6198 188.91 66.1198 190.35 68.8598 190.63C75.3198 191.28 81.8298 192.44 88.2098 194.08C118.09 201.75 143.49 219.57 156.17 241.73C156.22 241.83 156.28 241.92 156.34 242.02L156.36 242.05V242.07C156.36 242.07 156.39 242.13 156.41 242.16V242.18H156.43V242.2C157.68 244.15 159.51 245.49 161.56 246.16C162.19 246.36 162.84 246.5 163.5 246.57C165.32 246.77 167.2 246.44 168.91 245.56C169.14 245.44 169.36 245.32 169.57 245.18C189.08 233.27 215.86 229.34 242.7 234.16L200.17 399.75C184.46 400.57 168.92 402.88 153.66 406.65C101.38 419.58 70.7298 445.17 69.4498 446.26C65.3998 449.69 64.8998 455.74 68.3298 459.79C71.7598 463.84 77.8098 464.34 81.8598 460.91C82.1398 460.67 110.32 437.15 158.28 425.29C186.53 418.3 215.87 416.78 245.47 420.78C282.69 425.81 320.49 439.62 357.83 461.83C359.37 462.75 361.06 463.18 362.73 463.18C366 463.18 369.19 461.5 370.99 458.49C373.7 453.93 372.2 448.04 367.65 445.33C328.08 421.79 287.83 407.12 248.04 401.75C238.69 400.49 229.35 399.75 220.07 399.5L261.32 238.92C289.88 248.56 313.12 267.54 323.19 289.93C324.39 292.59 326.73 294.56 329.56 295.29C330.35 295.49 331.15 295.59 331.95 295.59C334.01 295.59 336.04 294.93 337.72 293.66C359.4 277.34 393.2 272.42 425.91 280.83C429.16 281.66 432.42 282.63 435.6 283.72C438.13 284.58 440.91 284.35 443.26 283.08C445.61 281.81 447.33 279.62 447.99 277.03L448.09 276.63C458.26 237.05 447.27 194.75 417.14 157.53L417.15 157.51ZM160.92 215.65C144.4 196.96 120.21 182.47 92.9998 175.48C89.4398 174.56 85.8398 173.78 82.2298 173.13C103.23 114.91 177.88 82.37 260.05 93.88C251.73 98.79 242.05 105.25 231.89 113.54C208.37 132.74 178.22 165.44 160.92 215.65ZM327.79 261.14C311.4 240.78 286.3 225.13 256.9 217.58C244.83 214.48 232.57 212.96 220.62 212.96C206.34 212.96 192.5 215.13 179.93 219.38C192.69 183.49 213.99 153.13 243.42 128.92C263.84 112.12 282.41 103.38 289.64 100.32C294.51 106.49 306.57 123.1 316.36 147.65C330.94 184.19 334.76 222.29 327.78 261.15L327.79 261.14ZM431.44 262.41C431.19 262.34 430.94 262.28 430.7 262.22C400.77 254.53 370.68 256.35 346.26 266.78C356.36 212.93 345.49 168.49 333.89 139.74C329.16 128.01 324 117.98 319.22 109.83C393.45 140.18 440.6 202.85 431.44 262.42V262.41Z" fill="#B4B7BA"/>
<path d="M227.66 102.65C227.53 102.1 227.05 101.7 226.48 101.69C226.26 101.69 204.02 101.1 177.47 108.34C152.9 115.04 119.48 129.98 99.7502 163.13C99.5502 163.47 99.5202 163.89 99.6702 164.25C99.8202 164.62 100.14 164.89 100.53 164.98C100.88 165.06 135.87 173.72 154.29 192.49C154.53 192.73 154.85 192.87 155.18 192.87C155.27 192.87 155.37 192.86 155.46 192.84C155.89 192.74 156.23 192.43 156.36 192.01C156.56 191.4 176.87 130.97 227.03 104.04C227.53 103.77 227.79 103.2 227.66 102.65Z" fill="#00D151"/>
<path d="M382.76 164.92C364.89 146.09 346.76 135.11 346.57 135C346.08 134.71 345.45 134.78 345.04 135.19C344.63 135.6 344.56 136.22 344.85 136.72C372.93 183.66 362.85 244.8 362.75 245.41C362.68 245.83 362.82 246.26 363.14 246.55C363.37 246.76 363.68 246.88 363.98 246.88C364.09 246.88 364.2 246.87 364.3 246.84C388.89 240.27 417.25 245.55 417.53 245.6C417.9 245.67 418.27 245.57 418.56 245.34C418.85 245.1 419.01 244.75 419.01 244.38C419.01 210.3 399.29 182.37 382.74 164.93L382.76 164.92Z" fill="#00D151"/>
<path d="M283.07 120.66C282.69 120.3 282.14 120.22 281.67 120.44C281.19 120.67 233.12 144 204.15 200.3C203.93 200.73 203.98 201.25 204.27 201.64C204.57 202.02 205.06 202.2 205.53 202.1C206.14 201.96 266.87 188.99 311.47 232.93C311.71 233.16 312.02 233.29 312.35 233.29C312.46 233.29 312.57 233.28 312.68 233.25C313.69 232.97 313.98 231.82 314.1 231.32C316.59 221.4 312.86 148.92 283.06 120.68L283.07 120.66Z" fill="#00D151"/>
</svg>
