<svg width="64" height="65" viewBox="0 0 64 65" fill="none" xmlns="http://www.w3.org/2000/svg">
<path d="M59.7963 36.5244C59.3214 36.5244 58.9212 36.1376 58.9144 35.6627C58.8194 31.1784 57.7068 26.9111 55.6036 22.9762C53.5955 19.2177 50.7122 15.9002 47.259 13.3832C46.9605 13.1661 46.8791 12.7659 47.0623 12.447L48.6294 9.75366C48.7583 9.53656 48.9958 9.40088 49.2468 9.40088C49.3893 9.40088 49.525 9.44158 49.6471 9.523C58.3174 15.3982 63.487 25.1471 63.487 35.6085V35.6424C63.487 36.1309 63.0867 36.5244 62.605 36.5244H59.7963Z" fill="#EB3A28"/>
<path d="M49.2468 9.90973C49.2875 9.90973 49.3282 9.9233 49.3622 9.94365C57.5847 15.5203 62.985 24.9301 62.985 35.6085C62.985 35.6221 62.985 35.6289 62.985 35.6424C62.985 35.8527 62.8153 36.0156 62.6118 36.0156H59.8031C59.5996 36.0156 59.43 35.8527 59.43 35.6492C59.2265 26.3276 54.5996 18.0983 47.5711 12.9694C47.4897 12.9084 47.4626 12.793 47.5168 12.7048L49.084 10.0115C49.1111 9.94365 49.179 9.90973 49.2468 9.90973ZM49.2468 8.89209C48.8126 8.89209 48.4124 9.12276 48.1885 9.49589L46.6213 12.1892C46.3025 12.732 46.4517 13.424 46.9605 13.7903C48.6498 15.0251 50.2102 16.4498 51.5874 18.0305C52.9714 19.618 54.1722 21.3616 55.1559 23.2137C56.16 25.0929 56.947 27.0943 57.4897 29.1499C58.0528 31.2666 58.3581 33.4579 58.4056 35.6696C58.4191 36.4226 59.0433 37.0332 59.7964 37.0332H62.605C63.3717 37.0332 63.9958 36.409 63.9958 35.6424V35.6085C63.9958 32.9084 63.6566 30.2218 62.9917 27.6234C62.3472 25.1065 61.3839 22.6641 60.1423 20.3778C57.7 15.8799 54.1722 11.9789 49.9253 9.1024C49.7285 8.96672 49.4978 8.89209 49.2468 8.89209Z" fill="#EB3A28"/>
<path d="M1.39753 36.66C0.90906 36.66 0.515573 36.2665 0.508789 35.778V35.7441C0.508789 25.1199 5.81408 15.2828 14.6947 9.42796C14.81 9.35333 14.9457 9.31262 15.0882 9.31262C15.346 9.31262 15.5834 9.44831 15.7055 9.67219L16.4857 11.0426C16.6757 11.375 16.5604 11.8092 16.2279 12.006C12.1438 14.4144 8.69739 17.8404 6.26184 21.911C3.75845 26.0969 2.38124 30.9001 2.2727 35.7984C2.2727 36.2733 1.87243 36.66 1.39753 36.66Z" fill="#00C94C"/>
<path d="M15.0882 9.82147C15.156 9.82147 15.2307 9.85539 15.2646 9.92324L16.0448 11.2937C16.0991 11.3886 16.0651 11.5108 15.9701 11.5718C7.64586 16.4768 1.99457 25.466 1.77069 35.7848C1.76391 35.9884 1.5943 36.1512 1.39077 36.1512C1.18046 36.1512 1.01085 35.9816 1.01085 35.7781C1.01085 35.7645 1.01085 35.7577 1.01085 35.7441C1.01085 24.9232 6.56038 15.3913 14.9729 9.85539C15.0136 9.82826 15.0543 9.82147 15.0882 9.82147ZM15.0882 8.80383C14.8507 8.80383 14.6133 8.87168 14.4166 9.00736C10.0746 11.8703 6.45862 15.7848 3.94844 20.3303C2.673 22.6437 1.68928 25.1064 1.02442 27.6573C0.345997 30.2828 0 33.0033 0 35.7441V35.7781C0 36.5447 0.624152 37.1688 1.39756 37.1688C2.15061 37.1688 2.77476 36.5582 2.78833 35.8052C2.8426 33.3629 3.20896 30.9477 3.88738 28.6207C4.54545 26.3615 5.49525 24.1905 6.70285 22.1688C9.09769 18.1729 12.483 14.8079 16.4925 12.4402C17.0624 12.101 17.2592 11.3615 16.9335 10.7848L16.1533 9.4212C15.9362 9.04128 15.5292 8.80383 15.0882 8.80383Z" fill="#00C94C"/>
<path d="M44.8236 11.816C44.7015 11.816 44.5794 11.7821 44.4708 11.7211C40.2578 9.34658 35.4613 8.09149 30.5902 8.09149C26.6215 8.09149 22.7816 8.89881 19.1723 10.4863C19.0841 10.527 18.9824 10.5474 18.8874 10.5474C18.6296 10.5474 18.3989 10.4117 18.27 10.1878L17.4016 8.66137C17.3067 8.49176 17.2795 8.28823 17.3406 8.10506C17.3949 7.92188 17.5238 7.75906 17.7002 7.67086C22.1574 5.39814 26.9675 4.24481 32.0014 4.24481C37.1099 4.24481 42.1845 5.4999 46.6757 7.86761C46.8453 7.9558 46.9742 8.11862 47.0285 8.3018C47.0828 8.48497 47.0556 8.6885 46.9607 8.85811L45.441 11.4565C45.3121 11.6804 45.0746 11.816 44.8236 11.816Z" fill="#FFE804"/>
<path d="M32.0014 4.76044C37.2117 4.76044 42.1235 6.04945 46.4383 8.32217C46.54 8.37645 46.5739 8.50535 46.5197 8.60711L45 11.2055C44.9593 11.2733 44.8914 11.3072 44.8236 11.3072C44.7897 11.3072 44.7558 11.3005 44.7218 11.2801C40.5495 8.93276 35.7327 7.58947 30.597 7.58947C26.4654 7.58947 22.5305 8.45786 18.9756 10.025C18.9484 10.0386 18.9213 10.0454 18.8942 10.0454C18.8263 10.0454 18.7585 10.0115 18.7178 9.94361L17.8426 8.41715C17.7815 8.31539 17.8222 8.18649 17.924 8.13221C22.1506 5.9816 26.9335 4.76044 32.0014 4.76044ZM32.0014 3.7428C29.4369 3.7428 26.8792 4.04809 24.4098 4.65189C22.0081 5.23533 19.6744 6.10372 17.4695 7.22991C17.171 7.37916 16.9471 7.65053 16.8521 7.96939C16.7571 8.28825 16.7978 8.63425 16.9606 8.92597L17.829 10.4524C18.0461 10.8323 18.4532 11.0698 18.8874 11.0698C19.057 11.0698 19.2266 11.0359 19.3826 10.968C22.924 9.40766 26.6961 8.6139 30.5902 8.6139C33.019 8.6139 35.4274 8.92597 37.7544 9.54334C40.0068 10.1404 42.1845 11.0291 44.2198 12.1756C44.403 12.2774 44.6065 12.3317 44.8168 12.3317C45.251 12.3317 45.6513 12.101 45.8684 11.7279L47.3881 9.1295C47.5577 8.84456 47.5984 8.49856 47.5102 8.1797C47.422 7.86084 47.1981 7.58947 46.9064 7.43343C44.654 6.24619 42.2659 5.33031 39.7965 4.71295C37.2659 4.06844 34.6404 3.7428 32.0014 3.7428Z" fill="#FFE804"/>
<path fill-rule="evenodd" clip-rule="evenodd" d="M37.6257 20.7716L22.2706 39.0138L31.0438 41.5204L24.5031 59.5056L41.7233 39.4143L32.9689 36.9205L37.6257 20.7716ZM37.1529 18.2275C37.6563 17.6342 38.5068 17.4765 39.1863 17.8342L39.1947 17.8386C39.8761 18.2055 40.2262 18.9958 39.9978 19.7637L35.4466 35.5467L42.7918 37.6391C43.3346 37.7967 43.7541 38.2111 43.9158 38.75L43.9183 38.7585C44.0704 39.2824 43.9698 39.8577 43.5965 40.302L43.5901 40.3096L24.7889 62.2455C24.4534 62.6485 23.9711 62.8345 23.5225 62.8345C23.3048 62.8345 22.9769 62.7968 22.6618 62.5986C22.0048 62.1939 21.6958 61.3715 21.9683 60.6241C21.9685 60.6235 21.9687 60.6228 21.9689 60.6223L28.4308 42.8539L21.2133 40.7917C20.6387 40.6344 20.2488 40.1896 20.0878 39.7067L20.0831 39.6923L20.0787 39.6778C19.9171 39.1391 20.043 38.5588 20.3954 38.1359L20.3986 38.1321L37.1504 18.2305L37.1529 18.2275Z" fill="#FCFCFC"/>
<path fill-rule="evenodd" clip-rule="evenodd" d="M13.5548 20.2482L16.935 22.1147L16.9403 22.1178C17.5792 22.4828 17.8032 23.2818 17.4549 23.9235L17.453 23.9269L14.7713 28.7607L14.7711 28.7612C14.307 29.5965 13.2487 29.9023 12.4105 29.4367C12.4104 29.4367 12.4104 29.4367 12.4103 29.4366L9.46157 27.7992L9.45706 27.7966C9.13143 27.6105 8.86899 27.2948 8.7662 26.9039L7.72265 22.9871C7.72248 22.9865 7.72232 22.9859 7.72215 22.9853C7.53916 22.3044 7.92012 21.5754 8.62025 21.3643L12.5947 20.1393L12.6105 20.1351C12.8837 20.0622 13.233 20.067 13.5548 20.2482ZM12.8953 21.8214L9.4502 22.8833L10.3788 26.3685L13.2339 27.9539L13.234 27.954C13.2389 27.9567 13.2428 27.9578 13.2466 27.9582C13.2511 27.9586 13.2569 27.9583 13.2634 27.9565C13.2763 27.9528 13.2837 27.9459 13.2884 27.9376C13.2884 27.9376 13.2884 27.9375 13.2885 27.9375L15.7936 23.4219L12.8953 21.8214Z" fill="#FCFCFC"/>
</svg>
