<svg width="64" height="60" viewBox="0 0 64 60" fill="none" xmlns="http://www.w3.org/2000/svg">
<path d="M59.7963 32.8806C59.3214 32.8806 58.9212 32.4939 58.9144 32.019C58.8194 27.5346 57.7068 23.2673 55.6036 19.3324C53.5955 15.574 50.7122 12.2565 47.259 9.7395C46.9605 9.52241 46.8791 9.12213 47.0623 8.80327L48.6294 6.10992C48.7583 5.89283 48.9958 5.75714 49.2468 5.75714C49.3893 5.75714 49.525 5.79785 49.6471 5.87926C58.3174 11.7544 63.487 21.5034 63.487 31.9647V31.9987C63.487 32.4871 63.0867 32.8806 62.605 32.8806H59.7963Z" fill="#EB3A28"/>
<path d="M49.2468 6.26596C49.2875 6.26596 49.3282 6.27953 49.3622 6.29988C57.5847 11.8765 62.985 21.2863 62.985 31.9647C62.985 31.9783 62.985 31.9851 62.985 31.9987C62.985 32.209 62.8153 32.3718 62.6118 32.3718H59.8031C59.5996 32.3718 59.43 32.209 59.43 32.0054C59.2265 22.6839 54.5996 14.4546 47.5711 9.32566C47.4897 9.2646 47.4626 9.14927 47.5168 9.06108L49.084 6.36772C49.1111 6.29988 49.179 6.26596 49.2468 6.26596ZM49.2468 5.24832C48.8126 5.24832 48.4124 5.47899 48.1885 5.85212L46.6213 8.54547C46.3025 9.08821 46.4517 9.78021 46.9605 10.1466C48.6498 11.3813 50.2102 12.806 51.5874 14.3867C52.9714 15.9742 54.1722 17.7178 55.1559 19.5699C56.16 21.4491 56.947 23.4505 57.4897 25.5061C58.0528 27.6228 58.3581 29.8141 58.4056 32.0258C58.4191 32.7789 59.0433 33.3894 59.7964 33.3894H62.605C63.3717 33.3894 63.9958 32.7653 63.9958 31.9987V31.9647C63.9958 29.2646 63.6566 26.578 62.9917 23.9797C62.3472 21.4627 61.3839 19.0204 60.1423 16.7341C57.7 12.2361 54.1722 8.33516 49.9253 5.45863C49.7285 5.32295 49.4978 5.24832 49.2468 5.24832Z" fill="#EB3A28"/>
<path d="M1.39753 33.0163C0.90906 33.0163 0.515573 32.6228 0.508789 32.1343V32.1004C0.508789 21.4763 5.81408 11.6391 14.6947 5.78426C14.81 5.70964 14.9457 5.66893 15.0882 5.66893C15.346 5.66893 15.5834 5.80462 15.7055 6.0285L16.4857 7.39892C16.6757 7.73135 16.5604 8.16554 16.2279 8.36228C12.1438 10.7707 8.69739 14.1967 6.26184 18.2673C3.75845 22.4532 2.38124 27.2564 2.2727 32.1547C2.2727 32.6296 1.87243 33.0163 1.39753 33.0163Z" fill="#00C94C"/>
<path d="M15.0882 6.17775C15.156 6.17775 15.2307 6.21167 15.2646 6.27951L16.0448 7.64993C16.0991 7.74491 16.0651 7.86703 15.9701 7.92809C7.64586 12.8331 1.99457 21.8223 1.77069 32.1411C1.76391 32.3446 1.5943 32.5075 1.39077 32.5075C1.18046 32.5075 1.01085 32.3379 1.01085 32.1343C1.01085 32.1208 1.01085 32.114 1.01085 32.1004C1.01085 21.2795 6.56038 11.7476 14.9729 6.21167C15.0136 6.18453 15.0543 6.17775 15.0882 6.17775ZM15.0882 5.16011C14.8507 5.16011 14.6133 5.22795 14.4166 5.36364C10.0746 8.2266 6.45862 12.1411 3.94844 16.6866C2.673 19 1.68928 21.4627 1.02442 24.0136C0.345997 26.6391 0 29.3596 0 32.1004V32.1343C0 32.901 0.624152 33.5251 1.39756 33.5251C2.15061 33.5251 2.77476 32.9145 2.78833 32.1615C2.8426 29.7191 3.20896 27.3039 3.88738 24.9769C4.54545 22.7178 5.49525 20.5468 6.70285 18.5251C9.09769 14.5292 12.483 11.1642 16.4925 8.79647C17.0624 8.45726 17.2592 7.71778 16.9335 7.14112L16.1533 5.77748C15.9362 5.39756 15.5292 5.16011 15.0882 5.16011Z" fill="#00C94C"/>
<path d="M44.8236 8.17231C44.7015 8.17231 44.5794 8.13839 44.4708 8.07733C40.2578 5.70284 35.4613 4.44775 30.5902 4.44775C26.6215 4.44775 22.7816 5.25508 19.1723 6.84259C19.0841 6.8833 18.9824 6.90365 18.8874 6.90365C18.6296 6.90365 18.3989 6.76797 18.27 6.54409L17.4016 5.01763C17.3067 4.84802 17.2795 4.64449 17.3406 4.46132C17.3949 4.27814 17.5238 4.11532 17.7002 4.02713C22.1574 1.7544 26.9675 0.601074 32.0014 0.601074C37.1099 0.601074 42.1845 1.85616 46.6757 4.22387C46.8453 4.31207 46.9742 4.47489 47.0285 4.65806C47.0828 4.84124 47.0556 5.04476 46.9607 5.21437L45.441 7.81274C45.3121 8.03662 45.0746 8.17231 44.8236 8.17231Z" fill="#FFE804"/>
<path d="M32.0014 1.11668C37.2117 1.11668 42.1235 2.40569 46.4383 4.67842C46.54 4.73269 46.5739 4.8616 46.5197 4.96336L45 7.56173C44.9593 7.62957 44.8914 7.6635 44.8236 7.6635C44.7897 7.6635 44.7558 7.65671 44.7218 7.63636C40.5495 5.289 35.7327 3.94572 30.597 3.94572C26.4654 3.94572 22.5305 4.81411 18.9756 6.38127C18.9484 6.39484 18.9213 6.40162 18.8942 6.40162C18.8263 6.40162 18.7585 6.3677 18.7178 6.29986L17.8426 4.7734C17.7815 4.67164 17.8222 4.54274 17.924 4.48846C22.1506 2.33785 26.9335 1.11668 32.0014 1.11668ZM32.0014 0.0990448C29.4369 0.0990448 26.8792 0.404336 24.4098 1.00814C22.0081 1.59158 19.6744 2.45997 17.4695 3.58615C17.171 3.73541 16.9471 4.00678 16.8521 4.32564C16.7571 4.6445 16.7978 4.9905 16.9606 5.28222L17.829 6.80868C18.0461 7.1886 18.4532 7.42605 18.8874 7.42605C19.057 7.42605 19.2266 7.39212 19.3826 7.32428C22.924 5.7639 26.6961 4.97014 30.5902 4.97014C33.019 4.97014 35.4274 5.28222 37.7544 5.89959C40.0068 6.4966 42.1845 7.38534 44.2198 8.53188C44.403 8.63364 44.6065 8.68792 44.8168 8.68792C45.251 8.68792 45.6513 8.45725 45.8684 8.08412L47.3881 5.48575C47.5577 5.20081 47.5984 4.85481 47.5102 4.53595C47.422 4.21709 47.1981 3.94572 46.9064 3.78968C44.654 2.60244 42.2659 1.68656 39.7965 1.06919C37.2659 0.424689 34.6404 0.0990448 32.0014 0.0990448Z" fill="#FFE804"/>
<path fill-rule="evenodd" clip-rule="evenodd" d="M37.6257 17.1278L22.2706 35.3701L31.0438 37.8767L24.5031 55.8619L41.7233 35.7706L32.9689 33.2768L37.6257 17.1278ZM37.1529 14.5837C37.6563 13.9905 38.5068 13.8328 39.1863 14.1904L39.1947 14.1948C39.8761 14.5618 40.2262 15.3521 39.9978 16.12L35.4466 31.903L42.7918 33.9954C43.3346 34.153 43.7541 34.5674 43.9158 35.1063L43.9183 35.1148C44.0704 35.6387 43.9698 36.2139 43.5965 36.6583L43.5901 36.6659L24.7889 58.6018C24.4534 59.0047 23.9711 59.1908 23.5225 59.1908C23.3048 59.1908 22.9769 59.1531 22.6618 58.9548C22.0048 58.5502 21.6958 57.7277 21.9683 56.9803C21.9685 56.9797 21.9687 56.9791 21.9689 56.9785L28.4308 39.2101L21.2133 37.148C20.6387 36.9907 20.2488 36.5458 20.0878 36.063L20.0831 36.0486L20.0787 36.0341C19.9171 35.4954 20.043 34.915 20.3954 34.4921L20.3986 34.4883L37.1504 14.5867L37.1529 14.5837Z" fill="#282828"/>
<path fill-rule="evenodd" clip-rule="evenodd" d="M13.5548 16.6044L16.935 18.471L16.9403 18.474C17.5792 18.8391 17.8032 19.6381 17.4549 20.2798L17.453 20.2832L14.7713 25.117L14.7711 25.1174C14.307 25.9528 13.2487 26.2585 12.4105 25.793C12.4104 25.7929 12.4104 25.7929 12.4103 25.7929L9.46157 24.1554L9.45706 24.1529C9.13143 23.9668 8.86899 23.6511 8.7662 23.2601L7.72265 19.3434C7.72248 19.3428 7.72232 19.3422 7.72215 19.3416C7.53916 18.6607 7.92012 17.9316 8.62025 17.7205L12.5947 16.4955L12.6105 16.4913C12.8837 16.4185 13.233 16.4233 13.5548 16.6044ZM12.8953 18.1777L9.4502 19.2395L10.3788 22.7248L13.2339 24.3102L13.234 24.3103C13.2389 24.313 13.2428 24.314 13.2466 24.3144C13.2511 24.3149 13.2569 24.3146 13.2634 24.3127C13.2763 24.309 13.2837 24.3022 13.2884 24.2939C13.2884 24.2938 13.2884 24.2938 13.2885 24.2937L15.7936 19.7782L12.8953 18.1777Z" fill="#282828"/>
</svg>
