<svg width="64" height="64" viewBox="0 0 64 64" fill="none" xmlns="http://www.w3.org/2000/svg">
<path d="M59.7963 35.8806C59.3214 35.8806 58.9212 35.4939 58.9144 35.019C58.8194 30.5346 57.7068 26.2673 55.6036 22.3324C53.5955 18.574 50.7122 15.2565 47.259 12.7395C46.9605 12.5224 46.8791 12.1221 47.0623 11.8033L48.6294 9.10992C48.7583 8.89283 48.9958 8.75714 49.2468 8.75714C49.3893 8.75714 49.525 8.79785 49.6471 8.87926C58.3174 14.7544 63.487 24.5034 63.487 34.9647V34.9987C63.487 35.4871 63.0867 35.8806 62.605 35.8806H59.7963Z" fill="#EB3A28"/>
<path d="M49.2468 9.26596C49.2875 9.26596 49.3282 9.27953 49.3622 9.29988C57.5847 14.8765 62.985 24.2863 62.985 34.9647C62.985 34.9783 62.985 34.9851 62.985 34.9987C62.985 35.209 62.8153 35.3718 62.6118 35.3718H59.8031C59.5996 35.3718 59.43 35.209 59.43 35.0054C59.2265 25.6839 54.5996 17.4546 47.5711 12.3257C47.4897 12.2646 47.4626 12.1493 47.5168 12.0611L49.084 9.36772C49.1111 9.29988 49.179 9.26596 49.2468 9.26596ZM49.2468 8.24832C48.8126 8.24832 48.4124 8.47899 48.1885 8.85212L46.6213 11.5455C46.3025 12.0882 46.4517 12.7802 46.9605 13.1466C48.6498 14.3813 50.2102 15.806 51.5874 17.3867C52.9714 18.9742 54.1722 20.7178 55.1559 22.5699C56.16 24.4491 56.947 26.4505 57.4897 28.5061C58.0528 30.6228 58.3581 32.8141 58.4056 35.0258C58.4191 35.7789 59.0433 36.3894 59.7964 36.3894H62.605C63.3717 36.3894 63.9958 35.7653 63.9958 34.9987V34.9647C63.9958 32.2646 63.6566 29.578 62.9917 26.9797C62.3472 24.4627 61.3839 22.0204 60.1423 19.7341C57.7 15.2361 54.1722 11.3352 49.9253 8.45863C49.7285 8.32295 49.4978 8.24832 49.2468 8.24832Z" fill="#EB3A28"/>
<path d="M1.39753 36.0163C0.90906 36.0163 0.515573 35.6228 0.508789 35.1343V35.1004C0.508789 24.4763 5.81408 14.6391 14.6947 8.78426C14.81 8.70964 14.9457 8.66893 15.0882 8.66893C15.346 8.66893 15.5834 8.80462 15.7055 9.0285L16.4857 10.3989C16.6757 10.7313 16.5604 11.1655 16.2279 11.3623C12.1438 13.7707 8.69739 17.1967 6.26184 21.2673C3.75845 25.4532 2.38124 30.2564 2.2727 35.1547C2.2727 35.6296 1.87243 36.0163 1.39753 36.0163Z" fill="#00C94C"/>
<path d="M15.0882 9.17775C15.156 9.17775 15.2307 9.21167 15.2646 9.27951L16.0448 10.6499C16.0991 10.7449 16.0651 10.867 15.9701 10.9281C7.64586 15.8331 1.99457 24.8223 1.77069 35.1411C1.76391 35.3446 1.5943 35.5075 1.39077 35.5075C1.18046 35.5075 1.01085 35.3379 1.01085 35.1343C1.01085 35.1208 1.01085 35.114 1.01085 35.1004C1.01085 24.2795 6.56038 14.7476 14.9729 9.21167C15.0136 9.18453 15.0543 9.17775 15.0882 9.17775ZM15.0882 8.16011C14.8507 8.16011 14.6133 8.22795 14.4166 8.36364C10.0746 11.2266 6.45862 15.1411 3.94844 19.6866C2.673 22 1.68928 24.4627 1.02442 27.0136C0.345997 29.6391 0 32.3596 0 35.1004V35.1343C0 35.901 0.624152 36.5251 1.39756 36.5251C2.15061 36.5251 2.77476 35.9145 2.78833 35.1615C2.8426 32.7191 3.20896 30.3039 3.88738 27.9769C4.54545 25.7178 5.49525 23.5468 6.70285 21.5251C9.09769 17.5292 12.483 14.1642 16.4925 11.7965C17.0624 11.4573 17.2592 10.7178 16.9335 10.1411L16.1533 8.77748C15.9362 8.39756 15.5292 8.16011 15.0882 8.16011Z" fill="#00C94C"/>
<path d="M44.8236 11.1723C44.7015 11.1723 44.5794 11.1384 44.4708 11.0773C40.2578 8.70284 35.4613 7.44775 30.5902 7.44775C26.6215 7.44775 22.7816 8.25508 19.1723 9.84259C19.0841 9.8833 18.9824 9.90365 18.8874 9.90365C18.6296 9.90365 18.3989 9.76797 18.27 9.54409L17.4016 8.01763C17.3067 7.84802 17.2795 7.64449 17.3406 7.46132C17.3949 7.27814 17.5238 7.11532 17.7002 7.02713C22.1574 4.7544 26.9675 3.60107 32.0014 3.60107C37.1099 3.60107 42.1845 4.85616 46.6757 7.22387C46.8453 7.31207 46.9742 7.47489 47.0285 7.65806C47.0828 7.84124 47.0556 8.04476 46.9607 8.21437L45.441 10.8127C45.3121 11.0366 45.0746 11.1723 44.8236 11.1723Z" fill="#FFE804"/>
<path d="M32.0014 4.11668C37.2117 4.11668 42.1235 5.40569 46.4383 7.67842C46.54 7.73269 46.5739 7.8616 46.5197 7.96336L45 10.5617C44.9593 10.6296 44.8914 10.6635 44.8236 10.6635C44.7897 10.6635 44.7558 10.6567 44.7218 10.6364C40.5495 8.289 35.7327 6.94572 30.597 6.94572C26.4654 6.94572 22.5305 7.81411 18.9756 9.38127C18.9484 9.39484 18.9213 9.40162 18.8942 9.40162C18.8263 9.40162 18.7585 9.3677 18.7178 9.29986L17.8426 7.7734C17.7815 7.67164 17.8222 7.54274 17.924 7.48846C22.1506 5.33785 26.9335 4.11668 32.0014 4.11668ZM32.0014 3.09904C29.4369 3.09904 26.8792 3.40434 24.4098 4.00814C22.0081 4.59158 19.6744 5.45997 17.4695 6.58615C17.171 6.73541 16.9471 7.00678 16.8521 7.32564C16.7571 7.6445 16.7978 7.9905 16.9606 8.28222L17.829 9.80868C18.0461 10.1886 18.4532 10.426 18.8874 10.426C19.057 10.426 19.2266 10.3921 19.3826 10.3243C22.924 8.7639 26.6961 7.97014 30.5902 7.97014C33.019 7.97014 35.4274 8.28222 37.7544 8.89959C40.0068 9.4966 42.1845 10.3853 44.2198 11.5319C44.403 11.6336 44.6065 11.6879 44.8168 11.6879C45.251 11.6879 45.6513 11.4573 45.8684 11.0841L47.3881 8.48575C47.5577 8.20081 47.5984 7.85481 47.5102 7.53595C47.422 7.21709 47.1981 6.94572 46.9064 6.78968C44.654 5.60244 42.2659 4.68656 39.7965 4.06919C37.2659 3.42469 34.6404 3.09904 32.0014 3.09904Z" fill="#FFE804"/>
<path fill-rule="evenodd" clip-rule="evenodd" d="M37.6257 20.1278L22.2706 38.3701L31.0438 40.8767L24.5031 58.8619L41.7233 38.7706L32.9689 36.2768L37.6257 20.1278ZM37.1529 17.5837C37.6563 16.9905 38.5068 16.8328 39.1863 17.1904L39.1947 17.1948C39.8761 17.5618 40.2262 18.3521 39.9978 19.12L35.4466 34.903L42.7918 36.9954C43.3346 37.153 43.7541 37.5674 43.9158 38.1063L43.9183 38.1148C44.0704 38.6387 43.9698 39.2139 43.5965 39.6583L43.5901 39.6659L24.7889 61.6018C24.4534 62.0047 23.9711 62.1908 23.5225 62.1908C23.3048 62.1908 22.9769 62.1531 22.6618 61.9548C22.0048 61.5502 21.6958 60.7277 21.9683 59.9803C21.9685 59.9797 21.9687 59.9791 21.9689 59.9785L28.4308 42.2101L21.2133 40.148C20.6387 39.9907 20.2488 39.5458 20.0878 39.063L20.0831 39.0486L20.0787 39.0341C19.9171 38.4954 20.043 37.915 20.3954 37.4921L20.3986 37.4883L37.1504 17.5867L37.1529 17.5837Z" fill="#282828"/>
<path fill-rule="evenodd" clip-rule="evenodd" d="M13.5548 19.6044L16.935 21.471L16.9403 21.474C17.5792 21.8391 17.8032 22.6381 17.4549 23.2798L17.453 23.2832L14.7713 28.117L14.7711 28.1174C14.307 28.9528 13.2487 29.2585 12.4105 28.793C12.4104 28.7929 12.4104 28.7929 12.4103 28.7929L9.46157 27.1554L9.45706 27.1529C9.13143 26.9668 8.86899 26.6511 8.7662 26.2601L7.72265 22.3434C7.72248 22.3428 7.72232 22.3422 7.72215 22.3416C7.53916 21.6607 7.92012 20.9316 8.62025 20.7205L12.5947 19.4955L12.6105 19.4913C12.8837 19.4185 13.233 19.4233 13.5548 19.6044ZM12.8953 21.1777L9.4502 22.2395L10.3788 25.7248L13.2339 27.3102L13.234 27.3103C13.2389 27.313 13.2428 27.314 13.2466 27.3144C13.2511 27.3149 13.2569 27.3146 13.2634 27.3127C13.2763 27.309 13.2837 27.3022 13.2884 27.2939C13.2884 27.2938 13.2884 27.2938 13.2885 27.2937L15.7936 22.7782L12.8953 21.1777Z" fill="#282828"/>
</svg>
