<svg width="64" height="60" viewBox="0 0 64 60" fill="none" xmlns="http://www.w3.org/2000/svg">
<path d="M59.7963 33.5244C59.3214 33.5244 58.9212 33.1376 58.9144 32.6627C58.8194 28.1784 57.7068 23.9111 55.6036 19.9762C53.5955 16.2177 50.7122 12.9002 47.259 10.3832C46.9605 10.1661 46.8791 9.76587 47.0623 9.44701L48.6294 6.75366C48.7583 6.53656 48.9958 6.40088 49.2468 6.40088C49.3893 6.40088 49.525 6.44158 49.6471 6.523C58.3174 12.3982 63.487 22.1471 63.487 32.6085V32.6424C63.487 33.1309 63.0867 33.5244 62.605 33.5244H59.7963Z" fill="#EB3A28"/>
<path d="M49.2468 6.90973C49.2875 6.90973 49.3282 6.9233 49.3622 6.94365C57.5847 12.5203 62.985 21.9301 62.985 32.6085C62.985 32.6221 62.985 32.6289 62.985 32.6424C62.985 32.8527 62.8153 33.0156 62.6118 33.0156H59.8031C59.5996 33.0156 59.43 32.8527 59.43 32.6492C59.2265 23.3276 54.5996 15.0983 47.5711 9.96943C47.4897 9.90837 47.4626 9.79304 47.5168 9.70484L49.084 7.01149C49.1111 6.94365 49.179 6.90973 49.2468 6.90973ZM49.2468 5.89209C48.8126 5.89209 48.4124 6.12276 48.1885 6.49589L46.6213 9.18924C46.3025 9.73198 46.4517 10.424 46.9605 10.7903C48.6498 12.0251 50.2102 13.4498 51.5874 15.0305C52.9714 16.618 54.1722 18.3616 55.1559 20.2137C56.16 22.0929 56.947 24.0943 57.4897 26.1499C58.0528 28.2666 58.3581 30.4579 58.4056 32.6696C58.4191 33.4226 59.0433 34.0332 59.7964 34.0332H62.605C63.3717 34.0332 63.9958 33.409 63.9958 32.6424V32.6085C63.9958 29.9084 63.6566 27.2218 62.9917 24.6234C62.3472 22.1065 61.3839 19.6641 60.1423 17.3778C57.7 12.8799 54.1722 8.97893 49.9253 6.1024C49.7285 5.96672 49.4978 5.89209 49.2468 5.89209Z" fill="#EB3A28"/>
<path d="M1.39753 33.66C0.90906 33.66 0.515573 33.2665 0.508789 32.778V32.7441C0.508789 22.1199 5.81408 12.2828 14.6947 6.42796C14.81 6.35333 14.9457 6.31262 15.0882 6.31262C15.346 6.31262 15.5834 6.44831 15.7055 6.67219L16.4857 8.04261C16.6757 8.37504 16.5604 8.80923 16.2279 9.00597C12.1438 11.4144 8.69739 14.8404 6.26184 18.911C3.75845 23.0969 2.38124 27.9001 2.2727 32.7984C2.2727 33.2733 1.87243 33.66 1.39753 33.66Z" fill="#00C94C"/>
<path d="M15.0882 6.82147C15.156 6.82147 15.2307 6.85539 15.2646 6.92324L16.0448 8.29366C16.0991 8.38864 16.0651 8.51075 15.9701 8.57181C7.64586 13.4768 1.99457 22.466 1.77069 32.7848C1.76391 32.9884 1.5943 33.1512 1.39077 33.1512C1.18046 33.1512 1.01085 32.9816 1.01085 32.7781C1.01085 32.7645 1.01085 32.7577 1.01085 32.7441C1.01085 21.9232 6.56038 12.3913 14.9729 6.85539C15.0136 6.82826 15.0543 6.82147 15.0882 6.82147ZM15.0882 5.80383C14.8507 5.80383 14.6133 5.87168 14.4166 6.00736C10.0746 8.87032 6.45862 12.7848 3.94844 17.3303C2.673 19.6437 1.68928 22.1064 1.02442 24.6573C0.345997 27.2828 0 30.0033 0 32.7441V32.7781C0 33.5447 0.624152 34.1688 1.39756 34.1688C2.15061 34.1688 2.77476 33.5582 2.78833 32.8052C2.8426 30.3629 3.20896 27.9477 3.88738 25.6207C4.54545 23.3615 5.49525 21.1905 6.70285 19.1688C9.09769 15.1729 12.483 11.8079 16.4925 9.4402C17.0624 9.10098 17.2592 8.3615 16.9335 7.78484L16.1533 6.4212C15.9362 6.04128 15.5292 5.80383 15.0882 5.80383Z" fill="#00C94C"/>
<path d="M44.8236 8.81605C44.7015 8.81605 44.5794 8.78212 44.4708 8.72107C40.2578 6.34658 35.4613 5.09149 30.5902 5.09149C26.6215 5.09149 22.7816 5.89881 19.1723 7.48633C19.0841 7.52704 18.9824 7.54739 18.8874 7.54739C18.6296 7.54739 18.3989 7.41171 18.27 7.18782L17.4016 5.66137C17.3067 5.49176 17.2795 5.28823 17.3406 5.10506C17.3949 4.92188 17.5238 4.75906 17.7002 4.67086C22.1574 2.39814 26.9675 1.24481 32.0014 1.24481C37.1099 1.24481 42.1845 2.4999 46.6757 4.86761C46.8453 4.9558 46.9742 5.11862 47.0285 5.3018C47.0828 5.48497 47.0556 5.6885 46.9607 5.85811L45.441 8.45648C45.3121 8.68036 45.0746 8.81605 44.8236 8.81605Z" fill="#FFE804"/>
<path d="M32.0014 1.76044C37.2117 1.76044 42.1235 3.04945 46.4383 5.32217C46.54 5.37645 46.5739 5.50535 46.5197 5.60711L45 8.20548C44.9593 8.27333 44.8914 8.30725 44.8236 8.30725C44.7897 8.30725 44.7558 8.30046 44.7218 8.28011C40.5495 5.93276 35.7327 4.58947 30.597 4.58947C26.4654 4.58947 22.5305 5.45786 18.9756 7.02502C18.9484 7.03859 18.9213 7.04538 18.8942 7.04538C18.8263 7.04538 18.7585 7.01145 18.7178 6.94361L17.8426 5.41715C17.7815 5.31539 17.8222 5.18649 17.924 5.13221C22.1506 2.9816 26.9335 1.76044 32.0014 1.76044ZM32.0014 0.742798C29.4369 0.742798 26.8792 1.04809 24.4098 1.65189C22.0081 2.23533 19.6744 3.10372 17.4695 4.22991C17.171 4.37916 16.9471 4.65053 16.8521 4.96939C16.7571 5.28825 16.7978 5.63425 16.9606 5.92597L17.829 7.45243C18.0461 7.83235 18.4532 8.0698 18.8874 8.0698C19.057 8.0698 19.2266 8.03588 19.3826 7.96804C22.924 6.40766 26.6961 5.6139 30.5902 5.6139C33.019 5.6139 35.4274 5.92597 37.7544 6.54334C40.0068 7.14036 42.1845 8.02909 44.2198 9.17563C44.403 9.2774 44.6065 9.33167 44.8168 9.33167C45.251 9.33167 45.6513 9.10101 45.8684 8.72787L47.3881 6.1295C47.5577 5.84456 47.5984 5.49856 47.5102 5.1797C47.422 4.86084 47.1981 4.58947 46.9064 4.43343C44.654 3.24619 42.2659 2.33031 39.7965 1.71295C37.2659 1.06844 34.6404 0.742798 32.0014 0.742798Z" fill="#FFE804"/>
<path fill-rule="evenodd" clip-rule="evenodd" d="M37.6257 17.7716L22.2706 36.0138L31.0438 38.5204L24.5031 56.5056L41.7233 36.4143L32.9689 33.9205L37.6257 17.7716ZM37.1529 15.2275C37.6563 14.6342 38.5068 14.4765 39.1863 14.8342L39.1947 14.8386C39.8761 15.2055 40.2262 15.9958 39.9978 16.7637L35.4466 32.5467L42.7918 34.6391C43.3346 34.7967 43.7541 35.2111 43.9158 35.75L43.9183 35.7585C44.0704 36.2824 43.9698 36.8577 43.5965 37.302L43.5901 37.3096L24.7889 59.2455C24.4534 59.6485 23.9711 59.8345 23.5225 59.8345C23.3048 59.8345 22.9769 59.7968 22.6618 59.5986C22.0048 59.1939 21.6958 58.3715 21.9683 57.6241C21.9685 57.6235 21.9687 57.6228 21.9689 57.6223L28.4308 39.8539L21.2133 37.7917C20.6387 37.6344 20.2488 37.1896 20.0878 36.7067L20.0831 36.6923L20.0787 36.6778C19.9171 36.1391 20.043 35.5588 20.3954 35.1359L20.3986 35.1321L37.1504 15.2305L37.1529 15.2275Z" fill="#FCFCFC"/>
<path fill-rule="evenodd" clip-rule="evenodd" d="M13.5548 17.2482L16.935 19.1147L16.9403 19.1178C17.5792 19.4828 17.8032 20.2818 17.4549 20.9235L17.453 20.9269L14.7713 25.7607L14.7711 25.7612C14.307 26.5965 13.2487 26.9023 12.4105 26.4367C12.4104 26.4367 12.4104 26.4367 12.4103 26.4366L9.46157 24.7992L9.45706 24.7966C9.13143 24.6105 8.86899 24.2948 8.7662 23.9039L7.72265 19.9871C7.72248 19.9865 7.72232 19.9859 7.72215 19.9853C7.53916 19.3044 7.92012 18.5754 8.62025 18.3643L12.5947 17.1393L12.6105 17.1351C12.8837 17.0622 13.233 17.067 13.5548 17.2482ZM12.8953 18.8214L9.4502 19.8833L10.3788 23.3685L13.2339 24.9539L13.234 24.954C13.2389 24.9567 13.2428 24.9578 13.2466 24.9582C13.2511 24.9586 13.2569 24.9583 13.2634 24.9565C13.2763 24.9528 13.2837 24.9459 13.2884 24.9376C13.2884 24.9376 13.2884 24.9375 13.2885 24.9375L15.7936 20.4219L12.8953 18.8214Z" fill="#FCFCFC"/>
</svg>
