<svg width="64" height="64" viewBox="0 0 64 64" fill="none" xmlns="http://www.w3.org/2000/svg">
<mask id="mask0_6370_13824" style="mask-type:luminance" maskUnits="userSpaceOnUse" x="0" y="7" width="64" height="41">
<path d="M63.2926 7.75H0.734131V47.6182H63.2926V7.75Z" fill="white"/>
</mask>
<g mask="url(#mask0_6370_13824)">
<path fill-rule="evenodd" clip-rule="evenodd" d="M5.88627 15.785C5.82237 15.785 5.71275 15.8521 5.71275 15.9986V49.2332C5.71275 49.6755 5.35421 50.034 4.91192 50.034C4.46963 50.034 4.11108 49.6755 4.11108 49.2332V15.9986C4.11108 15.0239 4.88239 14.1833 5.88627 14.1833H58.3276C59.3314 14.1833 60.1027 15.0239 60.1027 15.9986V49.2465C60.1027 49.6888 59.7442 50.0474 59.3019 50.0474C58.8596 50.0474 58.5011 49.6888 58.5011 49.2465V15.9986C58.5011 15.8521 58.3915 15.785 58.3276 15.785H5.88627Z" fill="#FCFCFC"/>
</g>
<mask id="mask1_6370_13824" style="mask-type:luminance" maskUnits="userSpaceOnUse" x="0" y="7" width="64" height="41">
<path d="M63.2926 7.75H0.734131V47.6182H63.2926V7.75Z" fill="white"/>
</mask>
<g mask="url(#mask1_6370_13824)">
<path fill-rule="evenodd" clip-rule="evenodd" d="M5.43244 13.476C4.37984 13.476 3.52379 14.3321 3.52379 15.3847V48.6326C3.52379 49.6852 4.37984 50.5413 5.43244 50.5413H58.8481C59.9007 50.5413 60.7567 49.6852 60.7567 48.6326V15.3847C60.7567 14.332 59.9007 13.476 58.8481 13.476H5.43244ZM1.92212 15.3847C1.92212 13.4475 3.49526 11.8743 5.43244 11.8743H58.8481C60.7853 11.8743 62.3584 13.4475 62.3584 15.3847V48.6326C62.3584 50.5698 60.7853 52.1429 58.8481 52.1429H5.43244C3.49526 52.1429 1.92212 50.5698 1.92212 48.6326V15.3847Z" fill="#FCFCFC"/>
</g>
<path fill-rule="evenodd" clip-rule="evenodd" d="M0 46.7906H25.0127V47.8584C25.0127 48.3201 25.3419 48.5391 25.5466 48.5391H38.7203C38.9251 48.5391 39.2542 48.3201 39.2542 47.8584V46.7906H64V50.5145C64 52.5344 62.1923 53.9982 60.2227 53.9982H3.77727C1.81167 53.9982 0 52.5513 0 50.5145V46.7906ZM2.13556 48.9262V50.5145C2.13556 51.1472 2.75308 51.8626 3.77727 51.8626H60.2227C61.2429 51.8626 61.8644 51.1374 61.8644 50.5145V48.9262H41.1871C40.7987 49.9179 39.8836 50.6747 38.7203 50.6747H25.5466C24.3833 50.6747 23.4683 49.9179 23.0798 48.9262H2.13556Z" fill="#FCFCFC"/>
<path fill-rule="evenodd" clip-rule="evenodd" d="M17.672 18.3127C18.089 18.7297 18.089 19.4058 17.672 19.8228L8.82281 28.672C8.40582 29.089 7.72974 29.089 7.31275 28.672C6.89575 28.255 6.89575 27.579 7.31275 27.162L16.162 18.3127C16.579 17.8958 17.255 17.8958 17.672 18.3127Z" fill="#FCFCFC"/>
<path fill-rule="evenodd" clip-rule="evenodd" d="M28.0697 18.313C28.4866 18.7302 28.4863 19.4062 28.0692 19.8231L9.90359 37.9753C9.48644 38.3922 8.81036 38.3919 8.39352 37.9748C7.97668 37.5576 7.97693 36.8815 8.39408 36.4647L26.5597 18.3125C26.9768 17.8956 27.6529 17.8959 28.0697 18.313Z" fill="#FCFCFC"/>
<path fill-rule="evenodd" clip-rule="evenodd" d="M32.4875 25.7071C32.9045 26.1241 32.9045 26.8002 32.4875 27.2172L23.6382 36.0664C23.2212 36.4834 22.5452 36.4834 22.1282 36.0664C21.7112 35.6494 21.7112 34.9733 22.1282 34.5563L30.9774 25.7071C31.3944 25.2901 32.0705 25.2901 32.4875 25.7071Z" fill="#FCFCFC"/>
</svg>
