<svg width="64" height="64" viewBox="0 0 64 64" fill="none" xmlns="http://www.w3.org/2000/svg">
<g clip-path="url(#clip0_6344_14300)">
<path fill-rule="evenodd" clip-rule="evenodd" d="M5.43244 13.1617C4.37984 13.1617 3.52379 14.0177 3.52379 15.0703V48.3183C3.52379 49.3709 4.37984 50.2269 5.43244 50.2269H58.8481C59.9007 50.2269 60.7567 49.3709 60.7567 48.3183V15.0703C60.7567 14.0177 59.9007 13.1617 58.8481 13.1617H5.43244ZM1.92212 15.0703C1.92212 13.1331 3.49526 11.56 5.43244 11.56H58.8481C60.7853 11.56 62.3584 13.1331 62.3584 15.0703V48.3183C62.3584 50.2555 60.7853 51.8286 58.8481 51.8286H5.43244C3.49526 51.8286 1.92212 50.2555 1.92212 48.3183V15.0703Z" fill="#FCFCFC"/>
<path d="M40.3221 47.8645C40.3221 48.8255 39.6013 49.613 38.7204 49.613H25.5467C24.6658 49.613 23.945 48.8255 23.945 47.8645H1.06787V50.5206C1.06787 51.8553 2.28247 52.9365 3.77736 52.9365H60.2228C61.7177 52.9365 62.9323 51.842 62.9323 50.5206V47.8645H40.3221Z" fill="white"/>
<path fill-rule="evenodd" clip-rule="evenodd" d="M0 46.7967H25.0127V47.8645C25.0127 48.3261 25.3419 48.5452 25.5466 48.5452H38.7203C38.9251 48.5452 39.2542 48.3261 39.2542 47.8645V46.7967H64V50.5206C64 52.5404 62.1923 54.0042 60.2227 54.0042H3.77727C1.81167 54.0042 0 52.5574 0 50.5206V46.7967ZM2.13556 48.9322V50.5206C2.13556 51.1532 2.75308 51.8686 3.77727 51.8686H60.2227C61.2429 51.8686 61.8644 51.1435 61.8644 50.5206V48.9322H41.1871C40.7987 49.924 39.8836 50.6807 38.7203 50.6807H25.5466C24.3833 50.6807 23.4683 49.924 23.0798 48.9322H2.13556Z" fill="#FCFCFC"/>
<path fill-rule="evenodd" clip-rule="evenodd" d="M16.9186 16.1972C17.3356 16.6142 17.3356 17.2903 16.9186 17.7073L8.06939 26.5565C7.6524 26.9735 6.97632 26.9735 6.55933 26.5565C6.14233 26.1395 6.14233 25.4634 6.55933 25.0464L15.4085 16.1972C15.8255 15.7802 16.5016 15.7802 16.9186 16.1972Z" fill="#FCFCFC"/>
<path fill-rule="evenodd" clip-rule="evenodd" d="M27.3163 16.1975C27.7332 16.6146 27.7329 17.2907 27.3158 17.7076L9.15017 35.8598C8.73302 36.2766 8.05694 36.2764 7.6401 35.8592C7.22326 35.4421 7.22351 34.766 7.64066 34.3492L25.8062 16.1969C26.2234 15.7801 26.8995 15.7803 27.3163 16.1975Z" fill="#FCFCFC"/>
<path fill-rule="evenodd" clip-rule="evenodd" d="M31.734 23.5916C32.151 24.0086 32.151 24.6847 31.734 25.1017L22.8848 33.9509C22.4678 34.3679 21.7918 34.3679 21.3748 33.9509C20.9578 33.5339 20.9578 32.8578 21.3748 32.4408L30.224 23.5916C30.641 23.1746 31.317 23.1746 31.734 23.5916Z" fill="#FCFCFC"/>
<path fill-rule="evenodd" clip-rule="evenodd" d="M5.76516 15.5098C5.72984 15.5451 5.71275 15.5883 5.71275 15.6309V47.2638C5.71275 47.7061 5.35421 48.0647 4.91192 48.0647C4.46963 48.0647 4.11108 47.7061 4.11108 47.2638V15.6309C4.11108 14.6547 4.91009 13.8557 5.88627 13.8557H58.3276C59.3037 13.8557 60.1027 14.6547 60.1027 15.6309V47.2638C60.1027 47.7061 59.7442 48.0647 59.3019 48.0647C58.8596 48.0647 58.5011 47.7061 58.5011 47.2638V15.6309C58.5011 15.5883 58.484 15.5451 58.4487 15.5098C58.4133 15.4745 58.3702 15.4574 58.3276 15.4574H5.88627C5.84365 15.4574 5.80048 15.4745 5.76516 15.5098Z" fill="#FCFCFC"/>
</g>
<defs>
<clipPath id="clip0_6344_14300">
<rect width="64" height="64" fill="white"/>
</clipPath>
</defs>
</svg>
