<svg width="64" height="64" viewBox="0 0 64 64" fill="none" xmlns="http://www.w3.org/2000/svg">
<path fill-rule="evenodd" clip-rule="evenodd" d="M7.29995 12.95C6.31417 12.95 5.51245 13.7517 5.51245 14.7375V45.875C5.51245 46.8608 6.31416 47.6625 7.29995 47.6625H57.325C58.3107 47.6625 59.1124 46.8608 59.1124 45.875V14.7375C59.1124 13.7517 58.3107 12.95 57.325 12.95H7.29995ZM4.01245 14.7375C4.01245 12.9233 5.48574 11.45 7.29995 11.45H57.325C59.1392 11.45 60.6124 12.9233 60.6124 14.7375V45.875C60.6124 47.6892 59.1392 49.1625 57.325 49.1625H7.29995C5.48574 49.1625 4.01245 47.6892 4.01245 45.875V14.7375Z" fill="#FCFCFC"/>
<path d="M39.9749 45.45C39.9749 46.35 39.2999 47.0875 38.4749 47.0875H26.1374C25.3124 47.0875 24.6374 46.35 24.6374 45.45H3.2124V47.9375C3.2124 49.1875 4.3499 50.2 5.7499 50.2H58.6124C60.0124 50.2 61.1499 49.175 61.1499 47.9375V45.45H39.9749Z" fill="white"/>
<path fill-rule="evenodd" clip-rule="evenodd" d="M2.2124 44.45H25.6374V45.45C25.6374 45.8824 25.9457 46.0875 26.1374 46.0875H38.4749C38.6666 46.0875 38.9749 45.8824 38.9749 45.45V44.45H62.1499V47.9375C62.1499 49.8292 60.457 51.2 58.6124 51.2H5.7499C3.90908 51.2 2.2124 49.845 2.2124 47.9375V44.45ZM4.2124 46.45V47.9375C4.2124 48.53 4.79073 49.2 5.7499 49.2H58.6124C59.5678 49.2 60.1499 48.5209 60.1499 47.9375V46.45H40.7851C40.4213 47.3788 39.5643 48.0875 38.4749 48.0875H26.1374C25.048 48.0875 24.191 47.3788 23.8272 46.45H4.2124Z" fill="#FCFCFC"/>
<path fill-rule="evenodd" clip-rule="evenodd" d="M18.0571 15.7929C18.4476 16.1834 18.4476 16.8166 18.0571 17.2071L9.76961 25.4946C9.37908 25.8851 8.74592 25.8851 8.35539 25.4946C7.96487 25.1041 7.96487 24.4709 8.35539 24.0804L16.6429 15.7929C17.0334 15.4024 17.6666 15.4024 18.0571 15.7929Z" fill="#FCFCFC"/>
<path fill-rule="evenodd" clip-rule="evenodd" d="M27.7948 15.7932C28.1852 16.1838 28.185 16.817 27.7943 17.2074L10.7818 34.2074C10.3911 34.5977 9.75797 34.5975 9.36758 34.2068C8.9772 33.8162 8.97744 33.183 9.3681 32.7926L26.3806 15.7926C26.7713 15.4023 27.4044 15.4025 27.7948 15.7932Z" fill="#FCFCFC"/>
<path fill-rule="evenodd" clip-rule="evenodd" d="M31.9321 22.7179C32.3226 23.1084 32.3226 23.7416 31.9321 24.1321L23.6446 32.4196C23.2541 32.8101 22.6209 32.8101 22.2304 32.4196C21.8399 32.0291 21.8399 31.3959 22.2304 31.0054L30.5179 22.7179C30.9084 22.3274 31.5416 22.3274 31.9321 22.7179Z" fill="#FCFCFC"/>
<path fill-rule="evenodd" clip-rule="evenodd" d="M7.61158 15.1491C7.5785 15.1821 7.5625 15.2226 7.5625 15.2625V44.8875C7.5625 45.3017 7.22671 45.6375 6.8125 45.6375C6.39829 45.6375 6.0625 45.3017 6.0625 44.8875V15.2625C6.0625 14.3483 6.81079 13.6 7.725 13.6H56.8375C57.7517 13.6 58.5 14.3483 58.5 15.2625V44.8875C58.5 45.3017 58.1642 45.6375 57.75 45.6375C57.3358 45.6375 57 45.3017 57 44.8875V15.2625C57 15.2226 56.984 15.1821 56.9509 15.1491C56.9178 15.116 56.8774 15.1 56.8375 15.1H7.725C7.68509 15.1 7.64466 15.116 7.61158 15.1491Z" fill="#FCFCFC"/>
</svg>
