<svg width="512" height="512" viewBox="0 0 512 512" fill="none" xmlns="http://www.w3.org/2000/svg">
<g clip-path="url(#clip0_4666_665)">
<path d="M256.001 512C215.427 512.126 175.416 502.499 139.341 483.93C104.501 465.997 74.1961 440.374 50.7207 409C49.9328 407.949 49.3595 406.754 49.0336 405.482C48.7077 404.21 48.6355 402.886 48.8212 401.586C49.1963 398.96 50.599 396.591 52.7207 395C54.8424 393.409 57.5094 392.725 60.1349 393.101C62.7604 393.476 65.1294 394.878 66.7207 397C111.771 457.36 180.721 492 255.971 492C386.101 492 491.971 386.13 491.971 256C491.972 217.184 482.414 178.965 464.141 144.72C462.93 142.386 462.688 139.669 463.466 137.157C464.244 134.646 465.98 132.542 468.298 131.3C470.615 130.059 473.329 129.781 475.851 130.526C478.372 131.271 480.499 132.979 481.771 135.28C502.629 174.286 513.025 218.032 511.945 262.252C510.865 306.472 498.345 349.657 475.607 387.599C452.869 425.54 420.687 456.942 382.2 478.744C343.713 500.546 300.234 512.004 256.001 512Z" fill="black"/>
<path d="M38.4902 381C36.6706 381.003 34.8849 380.508 33.3254 379.571C31.7659 378.633 30.4918 377.288 29.6402 375.68C-0.683001 318.559 -8.26379 252.079 8.42121 189.597C25.1062 127.116 64.8205 73.265 119.583 38.8656C174.346 4.4661 240.099 -7.93239 303.629 4.16163C367.158 16.2557 423.757 51.9459 462.05 104.06C463.452 106.196 463.984 108.787 463.536 111.303C463.088 113.818 461.694 116.066 459.64 117.586C457.587 119.106 455.029 119.783 452.493 119.477C449.956 119.171 447.633 117.905 446 115.94C423.995 86.2505 395.357 62.1142 362.368 45.4569C329.38 28.7996 292.955 20.0822 256 20.0003C125.87 20.0003 20.0002 125.87 20.0002 256C20.003 294.448 29.3805 332.315 47.3202 366.32C48.1269 367.844 48.5262 369.55 48.4792 371.273C48.4322 372.996 47.9407 374.678 47.0522 376.155C46.1637 377.632 44.9084 378.854 43.4083 379.703C41.9081 380.552 40.214 380.999 38.4902 381Z" fill="black"/>
<path d="M457 122H395C392.348 122 389.804 120.946 387.929 119.071C386.054 117.196 385 114.652 385 112C385 109.348 386.054 106.804 387.929 104.929C389.804 103.054 392.348 102 395 102H447V50C447 47.3478 448.054 44.8043 449.929 42.9289C451.804 41.0536 454.348 40 457 40C459.652 40 462.196 41.0536 464.071 42.9289C465.946 44.8043 467 47.3478 467 50V112C467 114.652 465.946 117.196 464.071 119.071C462.196 120.946 459.652 122 457 122Z" fill="black"/>
<path d="M55 472C52.3478 472 49.8043 470.946 47.9289 469.071C46.0536 467.196 45 464.652 45 462V400C45 397.348 46.0536 394.804 47.9289 392.929C49.8043 391.054 52.3478 390 55 390H117C119.652 390 122.196 391.054 124.071 392.929C125.946 394.804 127 397.348 127 400C127 402.652 125.946 405.196 124.071 407.071C122.196 408.946 119.652 410 117 410H65V462C65 464.652 63.9464 467.196 62.0711 469.071C60.1957 470.946 57.6522 472 55 472Z" fill="black"/>
<path d="M328 232.06C302.77 232.06 276.41 216.49 250.91 201.42C227.73 187.73 203.77 173.56 184 173.56C145.41 173.56 129.91 195.26 129.27 196.18C128.536 197.269 127.595 198.203 126.5 198.929C125.405 199.654 124.177 200.157 122.888 200.408C121.599 200.659 120.273 200.654 118.985 200.393C117.698 200.131 116.475 199.619 115.385 198.885C114.296 198.151 113.362 197.209 112.637 196.114C111.911 195.019 111.408 193.792 111.157 192.503C110.906 191.213 110.911 189.887 111.173 188.6C111.434 187.313 111.946 186.089 112.68 185C113.54 183.71 134.22 153.54 184 153.54C209.23 153.54 235.59 169.12 261.09 184.18C284.27 197.88 308.23 212.04 328 212.04C366.59 212.04 382.09 190.34 382.73 189.42C384.215 187.228 386.508 185.714 389.107 185.21C391.706 184.707 394.399 185.254 396.595 186.733C398.791 188.211 400.311 190.5 400.822 193.098C401.333 195.696 400.793 198.39 399.32 200.59C398.46 201.89 377.78 232.06 328 232.06Z" fill="#00D151"/>
<path d="M327.999 295.25C302.769 295.25 276.409 279.67 250.909 264.61C227.729 250.91 203.769 236.75 183.999 236.75C145.409 236.75 129.909 258.45 129.269 259.37C128.538 260.463 127.597 261.401 126.502 262.131C125.408 262.86 124.179 263.366 122.889 263.62C121.598 263.874 120.27 263.87 118.98 263.61C117.691 263.35 116.465 262.837 115.374 262.103C114.283 261.368 113.347 260.425 112.621 259.328C111.895 258.231 111.392 257.002 111.142 255.711C110.891 254.419 110.898 253.091 111.162 251.802C111.426 250.513 111.942 249.289 112.679 248.2C113.539 246.92 134.219 216.75 183.999 216.75C209.229 216.75 235.589 232.33 261.089 247.39C284.269 261.09 308.229 275.25 327.999 275.25C366.589 275.25 382.089 253.55 382.729 252.63C383.461 251.537 384.401 250.599 385.496 249.869C386.591 249.14 387.819 248.634 389.11 248.38C390.401 248.126 391.729 248.13 393.018 248.39C394.308 248.65 395.533 249.163 396.625 249.897C397.716 250.632 398.651 251.575 399.378 252.672C400.104 253.769 400.607 254.998 400.857 256.289C401.107 257.581 401.1 258.909 400.836 260.198C400.573 261.487 400.057 262.711 399.319 263.8C398.459 265.08 377.779 295.25 327.999 295.25Z" fill="#00D151"/>
<path d="M328 358.44C302.77 358.44 276.41 342.86 250.91 327.8C227.73 314.1 203.77 299.94 184 299.94C145.41 299.94 129.91 321.64 129.27 322.56C127.785 324.752 125.492 326.266 122.893 326.77C120.294 327.274 117.601 326.726 115.405 325.248C113.209 323.769 111.689 321.48 111.178 318.882C110.667 316.285 111.207 313.591 112.68 311.39C113.54 310.11 134.22 279.94 184 279.94C209.23 279.94 235.59 295.51 261.09 310.58C284.27 324.27 308.23 338.44 328 338.44C366.59 338.44 382.09 316.74 382.73 315.82C384.213 313.62 386.508 312.1 389.112 311.592C391.716 311.085 394.415 311.633 396.615 313.115C398.815 314.598 400.336 316.894 400.843 319.498C401.35 322.102 400.803 324.8 399.32 327C398.46 328.27 377.78 358.44 328 358.44Z" fill="#00D151"/>
</g>
<defs>
<clipPath id="clip0_4666_665">
<rect width="512" height="512" fill="white"/>
</clipPath>
</defs>
</svg>
