<svg width="24" height="24" viewBox="0 0 24 24" fill="none" xmlns="http://www.w3.org/2000/svg">
<path d="M12.0001 3.20349C7.14218 3.20349 3.20349 7.14149 3.20349 12.0001C3.20349 16.8586 7.14218 20.7959 12.0001 20.7966C16.8586 20.7959 20.7966 16.8579 20.7966 12.0001C20.7966 7.14218 16.8579 3.20349 12.0001 3.20349ZM11.9994 16.0316C9.77668 16.0316 7.96855 14.2227 7.96855 12.0001C7.96855 9.77737 9.77737 7.96855 12.0001 7.96855C14.2227 7.96855 16.0316 9.77737 16.0316 12.0001C16.0316 14.2227 14.2227 16.0316 11.9994 16.0316ZM16.3966 10.1624L19.1659 8.31093C19.7379 9.41712 20.0631 10.6711 20.0631 12.0001C20.0631 13.3125 19.7461 14.5507 19.1879 15.6472L16.4138 13.7917C16.6386 13.2382 16.7651 12.6346 16.7651 12.0001C16.7651 11.3483 16.6331 10.7282 16.3966 10.1624ZM18.7994 7.6743L16.0563 9.50855C15.6576 8.86093 15.1096 8.31712 14.4579 7.92387L16.2928 5.18005C17.3007 5.81668 18.1573 6.66987 18.7987 7.67499L18.7994 7.6743ZM15.6548 4.81568L13.7999 7.58905C13.2444 7.36218 12.6381 7.23499 12.0007 7.23499C11.3634 7.23499 10.7564 7.36218 10.2009 7.58905L8.34599 4.81568C9.44393 4.25468 10.6849 3.93637 12.0001 3.93637C13.3152 3.93637 14.5569 4.25468 15.6548 4.81568ZM7.7073 5.17868L9.54293 7.92318C8.8898 8.3178 8.34118 8.86299 7.94174 9.51199L5.19793 7.67705C5.84005 6.67055 6.69805 5.81599 7.7073 5.17868ZM4.83218 8.31437L7.60212 10.1665C7.3663 10.7316 7.23568 11.3504 7.23568 12.0001C7.23568 12.6326 7.36149 13.2355 7.58562 13.7869L4.81087 15.6431C4.25399 14.5479 3.93774 13.3104 3.93774 12.0001C3.93774 10.6725 4.26224 9.41987 4.83355 8.31437H4.83218ZM5.17249 16.2825L7.91699 14.4476C8.31299 15.1069 8.86368 15.6617 9.51955 16.0632L7.68462 18.8063C6.67193 18.1621 5.81187 17.2986 5.17249 16.2825ZM8.32193 19.1721L10.1747 16.4014C10.7371 16.6352 11.3524 16.7651 11.9994 16.7651C12.0001 16.7651 12.0001 16.7651 12.0001 16.7651C12.647 16.7651 13.2637 16.6352 13.8261 16.4014L15.6789 19.1721C14.5747 19.7406 13.3249 20.0637 12.0001 20.0637C10.6752 20.0637 9.42537 19.7406 8.32193 19.1721ZM16.3162 18.8056L14.4812 16.0618C15.1357 15.661 15.6851 15.1082 16.0811 14.4503L18.8256 16.2859C18.1862 17.3 17.3275 18.1621 16.3162 18.8056Z" fill="white"/>
</svg>
