<svg width="64" height="64" viewBox="0 0 64 64" fill="none" xmlns="http://www.w3.org/2000/svg">
<path fill-rule="evenodd" clip-rule="evenodd" d="M10.6862 38.019C10.6862 31.5906 10.6879 25.1621 10.6812 18.7337C10.6808 18.3941 10.7659 18.1036 10.9439 17.8211C12.3621 15.57 13.775 13.3155 15.1913 11.0631C15.3528 10.8062 15.5336 10.5639 15.7821 10.3807C16.1739 10.0918 16.6482 10.1027 17.0206 10.4141C17.2145 10.5762 17.3698 10.7725 17.504 10.9855C18.9673 13.3069 20.4318 15.6276 21.8917 17.9512C22.1405 18.347 22.2606 18.7771 22.2563 19.2561C22.2422 20.8526 22.2564 22.4494 22.2457 24.046C22.2439 24.3153 22.3155 24.411 22.5969 24.4063C23.5359 24.3905 24.4754 24.3895 25.4143 24.4067C25.7068 24.4121 25.7844 24.3183 25.7835 24.0328C25.7746 20.7874 25.7812 17.5419 25.773 14.2964C25.7721 13.9577 25.8525 13.6656 26.031 13.3824C27.4548 11.1225 28.8729 8.85887 30.2952 6.5978C30.451 6.35007 30.628 6.11743 30.8667 5.93958C31.2693 5.63969 31.7486 5.65453 32.1296 5.98254C32.313 6.14041 32.4623 6.32802 32.5909 6.53211C34.0598 8.86238 35.5304 11.1915 36.9949 13.5245C37.2375 13.9108 37.3494 14.3335 37.3479 14.8011C37.338 17.8587 37.3427 20.9164 37.343 23.9741C37.343 24.3996 37.3437 24.4001 37.7733 24.4002C38.6708 24.4005 39.5682 24.4007 40.4657 24.4002C40.8689 24.3999 40.8696 24.3991 40.8696 23.9795C40.8699 22.2159 40.8747 20.4522 40.8652 18.6886C40.8636 18.3817 40.9428 18.1173 41.1026 17.8632C42.5357 15.5843 43.9655 13.3034 45.3992 11.025C45.555 10.7775 45.7348 10.547 45.9768 10.3724C46.3582 10.0973 46.8269 10.1059 47.1907 10.4028C47.3864 10.5626 47.5434 10.7577 47.6778 10.9708C49.1467 13.301 50.6173 15.6301 52.0822 17.9629C52.3246 18.349 52.4395 18.7704 52.4393 19.2383C52.433 31.7611 52.4342 44.284 52.4323 56.8069C52.4323 56.9939 52.4375 57.1868 52.396 57.3668C52.2473 58.0103 51.8561 58.3119 51.1475 58.3158C49.5717 58.3247 47.9959 58.3207 46.4201 58.3211C45.0008 58.3214 43.5816 58.3201 42.1623 58.3206C41.9531 58.3206 41.746 58.3128 41.5418 58.2581C41.0586 58.1286 40.8701 57.8887 40.87 57.3859C40.8695 54.9544 40.8699 52.5229 40.8696 50.0914C40.8696 49.6818 40.8687 49.6811 40.4555 49.6809C39.558 49.6804 38.6605 49.6805 37.763 49.6809C37.3428 49.6811 37.3422 49.6816 37.3421 50.1167C37.3418 52.3708 37.3422 54.625 37.3409 56.8791C37.3409 57.0662 37.3474 57.2534 37.2886 57.4372C37.099 58.0301 36.7525 58.304 36.1085 58.3139C35.2217 58.3275 34.3345 58.3208 33.4475 58.321C31.3499 58.3213 29.2523 58.321 27.1548 58.3195C26.9881 58.3194 26.8192 58.3235 26.655 58.2997C26.0005 58.2045 25.778 57.9416 25.778 57.2824C25.778 54.8822 25.7725 52.4819 25.7847 50.0818C25.7862 49.77 25.7097 49.6657 25.3852 49.6733C24.4569 49.6948 23.5277 49.6903 22.5991 49.675C22.3215 49.6705 22.2438 49.7598 22.2449 50.0325C22.2543 52.297 22.2508 54.5616 22.2488 56.8261C22.2487 57.0028 22.2539 57.1848 22.2161 57.3553C22.0737 57.9985 21.6781 58.3092 20.9759 58.3154C19.8071 58.3258 18.6383 58.3208 17.4695 58.321C15.6537 58.3213 13.8379 58.3215 12.0221 58.3189C11.8454 58.3186 11.6653 58.317 11.4927 58.2847C10.8783 58.1697 10.6862 57.9293 10.6862 57.304L10.6862 38.019ZM27.7453 35.4762H27.7487C27.7487 42.1759 27.7484 48.8756 27.749 55.5753C27.7491 56.1952 27.784 56.232 28.4057 56.2327C30.451 56.235 32.4964 56.2338 34.5418 56.2333C34.6461 56.2333 34.7504 56.2271 34.8547 56.2246C35.0708 56.2194 35.1802 56.1095 35.1839 55.8931C35.1868 55.7262 35.1944 55.5593 35.1944 55.3925C35.1952 53.6602 35.1914 51.9279 35.1956 50.1955C35.2169 41.1901 35.1559 32.1845 35.2293 23.1791C35.2499 20.6434 35.2328 18.1074 35.232 15.5715C35.2319 15.0847 35.1556 14.6161 34.8907 14.1938C33.837 12.5145 32.7863 10.8334 31.7298 9.15589C31.5199 8.82274 31.4143 8.82806 31.2004 9.16891C30.1801 10.7952 29.1647 12.4245 28.1428 14.0498C27.8681 14.4865 27.7406 14.9511 27.7411 15.4711C27.7475 22.1395 27.7453 28.8078 27.7453 35.4762ZM12.6534 37.7004H12.6567C12.6567 43.6069 12.6567 49.5134 12.6571 55.42C12.6571 55.5764 12.6587 55.7331 12.6656 55.8893C12.675 56.1016 12.7908 56.2136 13.0022 56.2225C13.1585 56.2291 13.3151 56.2334 13.4716 56.2335C15.3813 56.2342 17.291 56.2358 19.2007 56.2332C20.1554 56.2319 20.1022 56.296 20.1023 55.3287C20.1038 46.4272 20.1002 37.5257 20.1049 28.6242C20.1064 25.755 20.1287 22.8857 20.1401 20.0164C20.1421 19.5183 20.0542 19.0431 19.7828 18.6115C18.7386 16.951 17.6997 15.2872 16.6546 13.6271C16.4232 13.2598 16.327 13.2657 16.0909 13.6421C15.0986 15.2244 14.1136 16.8112 13.113 18.3882C12.7887 18.8992 12.6458 19.4353 12.647 20.0435C12.6578 25.9291 12.6534 31.8147 12.6534 37.7004ZM42.837 37.6734H42.8404C42.8404 43.6112 42.8403 49.5491 42.8405 55.4869C42.8405 56.2261 42.8466 56.233 43.5969 56.2335C45.5275 56.2347 47.4581 56.2357 49.3887 56.2332C50.3398 56.232 50.2857 56.295 50.2859 55.3243C50.2873 46.4229 50.2838 37.5213 50.2885 28.6198C50.2899 25.7505 50.3123 22.8813 50.3236 20.012C50.3256 19.5137 50.2356 19.0391 49.9643 18.6077C48.9257 16.956 47.8925 15.3008 46.8534 13.6494C46.6065 13.2568 46.5143 13.2595 46.2721 13.6457C45.28 15.2281 44.2942 16.8144 43.2947 18.3921C42.9772 18.8931 42.8297 19.4184 42.8308 20.0165C42.8412 25.9021 42.837 31.7878 42.837 37.6734ZM22.2503 37.0257C22.2503 38.9026 22.2538 40.7795 22.246 42.6563C22.245 42.9042 22.3052 43.0084 22.5762 43.0044C23.5353 42.9903 24.4948 42.9929 25.454 43.0032C25.6927 43.0057 25.7832 42.9414 25.7827 42.6864C25.7757 38.9222 25.7757 35.1581 25.7827 31.394C25.7832 31.1377 25.6905 31.0756 25.4531 31.0782C24.5252 31.0884 23.5972 31.0821 22.6691 31.0824C22.2523 31.0826 22.2513 31.0832 22.2512 31.489C22.2509 33.3346 22.2511 35.1802 22.2503 37.0257ZM37.342 37.0443C37.342 38.9107 37.3466 40.7771 37.3369 42.6435C37.3355 42.9108 37.4038 43.0097 37.6866 43.0049C38.6351 42.9891 39.5843 42.9916 40.533 43.0037C40.7887 43.007 40.875 42.9306 40.8745 42.6678C40.8674 38.9142 40.8672 35.1604 40.8748 31.4068C40.8754 31.1349 40.7735 31.0751 40.5263 31.0779C39.5985 31.0889 38.6701 31.095 37.7426 31.0753C37.4283 31.0686 37.3331 31.1548 37.3357 31.4763C37.3505 33.3322 37.3429 35.1882 37.342 37.0443ZM25.7778 27.7396C25.7778 27.1667 25.7691 26.5936 25.782 26.021C25.7874 25.7829 25.7216 25.6884 25.4659 25.6919C24.4974 25.7047 23.5285 25.7051 22.56 25.6917C22.2996 25.6881 22.2456 25.7919 22.2473 26.0245C22.2556 27.1702 22.2561 28.3161 22.247 29.4618C22.2451 29.6994 22.308 29.7943 22.5635 29.7909C23.532 29.778 24.5009 29.7777 25.4694 29.7911C25.73 29.7947 25.7865 29.6913 25.7817 29.4582C25.7699 28.8855 25.7779 28.3125 25.7778 27.7396ZM37.343 27.7428C37.343 28.3156 37.3515 28.8887 37.3389 29.4613C37.3337 29.6987 37.399 29.7942 37.6551 29.7908C38.6237 29.7779 39.5925 29.7775 40.561 29.7909C40.8211 29.7946 40.8754 29.6918 40.8736 29.4584C40.865 28.3128 40.8646 27.1669 40.8738 26.0212C40.8757 25.7839 40.8142 25.6884 40.5582 25.6917C39.5896 25.7046 38.6207 25.705 37.6522 25.6916C37.3923 25.688 37.3344 25.7907 37.3392 26.0241C37.3509 26.5969 37.343 27.1699 37.343 27.7428ZM25.7779 46.372C25.7779 45.7887 25.7698 45.2051 25.7819 44.6221C25.7868 44.3873 25.7274 44.2868 25.4684 44.2903C24.4999 44.3036 23.5309 44.3034 22.5623 44.2904C22.3056 44.287 22.2446 44.3842 22.2464 44.6205C22.2552 45.7663 22.255 46.9122 22.2465 48.058C22.2448 48.2921 22.3019 48.3932 22.5607 48.3897C23.5293 48.3765 24.4983 48.3766 25.4669 48.3896C25.7237 48.3931 25.7875 48.2965 25.782 48.0595C25.7692 47.4972 25.7778 46.9345 25.7779 46.372ZM37.3421 46.3079C37.3421 46.8912 37.35 47.4748 37.3382 48.0578C37.3335 48.2922 37.3936 48.3931 37.6525 48.3896C38.621 48.3763 39.59 48.3765 40.5586 48.3895C40.8155 48.3929 40.8756 48.2961 40.8737 48.0594C40.8647 46.9136 40.8647 45.7677 40.8736 44.6219C40.8754 44.3875 40.8191 44.2867 40.5601 44.2902C39.5915 44.3034 38.6226 44.3032 37.654 44.2903C37.3973 44.2868 37.3329 44.3838 37.3381 44.6204C37.3506 45.1828 37.3421 45.7454 37.3421 46.3079Z" fill="#282828"/>
</svg>
