<svg width="64" height="64" viewBox="0 0 64 64" fill="none" xmlns="http://www.w3.org/2000/svg">
<g clip-path="url(#clip0_5611_1156)">
<path fill-rule="evenodd" clip-rule="evenodd" d="M6.60034 39.2949C6.60034 31.4729 6.60247 23.6508 6.59424 15.8288C6.59378 15.4156 6.69741 15.062 6.91389 14.7184C8.63961 11.9792 10.3588 9.23597 12.0822 6.49522C12.2787 6.18266 12.4987 5.88778 12.801 5.6649C13.2777 5.31333 13.8549 5.32666 14.308 5.70551C14.5439 5.90279 14.7329 6.14167 14.8963 6.40082C16.6768 9.22553 18.4588 12.0493 20.2352 14.8766C20.5378 15.3583 20.684 15.8816 20.6788 16.4644C20.6616 18.407 20.6789 20.35 20.6659 22.2927C20.6637 22.6203 20.7508 22.7368 21.0932 22.7311C22.2357 22.7119 23.379 22.7107 24.5214 22.7316C24.8773 22.7381 24.9717 22.6241 24.9707 22.2767C24.9599 18.3277 24.9679 14.3785 24.9578 10.4294C24.9567 10.0174 25.0546 9.66199 25.2717 9.31735C27.0043 6.56746 28.7298 3.81315 30.4604 1.06189C30.65 0.760457 30.8654 0.477383 31.1559 0.260983C31.6457 -0.103927 32.2289 -0.0858674 32.6925 0.313254C32.9157 0.505348 33.0973 0.733635 33.2539 0.981962C35.0412 3.81742 36.8306 6.65143 38.6126 9.49024C38.9077 9.9603 39.0439 10.4746 39.0421 11.0436C39.0301 14.7641 39.0358 18.4847 39.0361 22.2052C39.0362 22.723 39.037 22.7236 39.5597 22.7237C40.6518 22.7241 41.7438 22.7244 42.8359 22.7237C43.3264 22.7234 43.3272 22.7224 43.3273 22.2118C43.3276 20.0658 43.3334 17.9198 43.3219 15.7739C43.3199 15.4005 43.4163 15.0788 43.6108 14.7695C45.3546 11.9966 47.0943 9.22126 48.8389 6.4489C49.0285 6.14769 49.2473 5.8672 49.5417 5.65484C50.0057 5.32003 50.5761 5.33055 51.0187 5.6918C51.2569 5.88625 51.4479 6.12361 51.6114 6.38291C53.3988 9.21829 55.1882 12.0524 56.9706 14.8909C57.2657 15.3607 57.4055 15.8734 57.4052 16.4427C57.3976 31.6804 57.3989 46.9182 57.3967 62.1559C57.3966 62.3834 57.403 62.6182 57.3524 62.8372C57.1716 63.6202 56.6955 63.9871 55.8333 63.9919C53.9159 64.0027 51.9985 63.9979 50.0811 63.9983C48.3541 63.9987 46.6272 63.9972 44.9003 63.9977C44.6457 63.9978 44.3937 63.9882 44.1452 63.9217C43.5572 63.7642 43.3279 63.4723 43.3278 62.8604C43.3272 59.9017 43.3276 56.9431 43.3273 53.9845C43.3272 53.4861 43.3262 53.4852 42.8234 53.485C41.7314 53.4845 40.6393 53.4846 39.5472 53.485C39.0359 53.4852 39.0351 53.4859 39.035 54.0153C39.0347 56.7581 39.0351 59.5009 39.0336 62.2437C39.0335 62.4714 39.0415 62.6992 38.97 62.9229C38.7393 63.6443 38.3176 63.9775 37.534 63.9896C36.4549 64.0061 35.3754 63.998 34.2961 63.9982C31.7438 63.9986 29.1915 63.9982 26.6392 63.9964C26.4363 63.9963 26.2308 64.0013 26.0311 63.9724C25.2346 63.8565 24.964 63.5366 24.964 62.7345C24.9639 59.8139 24.9573 56.8933 24.9721 53.9728C24.974 53.5935 24.8809 53.4666 24.486 53.4758C23.3564 53.5019 22.2258 53.4965 21.0959 53.4779C20.7581 53.4724 20.6636 53.581 20.6649 53.9129C20.6764 56.6683 20.6721 59.4238 20.6696 62.1793C20.6695 62.3943 20.6759 62.6157 20.6299 62.8232C20.4566 63.6058 19.9753 63.9839 19.1208 63.9915C17.6986 64.0041 16.2764 63.998 14.8543 63.9983C12.6448 63.9986 10.4354 63.9988 8.22586 63.9957C8.0109 63.9954 7.79176 63.9934 7.58176 63.9541C6.83419 63.8142 6.60041 63.5216 6.60041 62.7608L6.60034 39.2949ZM27.3577 36.2009H27.3618C27.3618 44.3531 27.3615 52.5052 27.3623 60.6573C27.3624 61.4116 27.4048 61.4564 28.1613 61.4572C30.6501 61.46 33.1389 61.4586 35.6277 61.458C35.7546 61.4579 35.8815 61.4505 36.0084 61.4474C36.2713 61.4411 36.4045 61.3074 36.409 61.044C36.4125 60.841 36.4217 60.6379 36.4218 60.4348C36.4228 58.327 36.4181 56.2191 36.4232 54.1112C36.4491 43.1535 36.3749 32.1956 36.4642 21.2379C36.4893 18.1525 36.4685 15.0667 36.4675 11.9811C36.4674 11.3887 36.3745 10.8185 36.0522 10.3046C34.7701 8.26125 33.4916 6.21573 32.206 4.17456C31.9507 3.76919 31.8221 3.77566 31.5619 4.19041C30.3204 6.16925 29.0848 8.15176 27.8414 10.1294C27.5071 10.6609 27.352 11.2262 27.3526 11.8588C27.3605 19.9729 27.3577 28.0868 27.3577 36.2009ZM8.99408 38.9072H8.99812C8.99812 46.0942 8.99804 53.2813 8.99857 60.4683C8.99857 60.6586 9.00055 60.8493 9.00894 61.0394C9.02036 61.2977 9.16125 61.434 9.4185 61.4448C9.60868 61.4529 9.79918 61.4581 9.9896 61.4582C12.3133 61.4591 14.637 61.461 16.9607 61.4578C18.1224 61.4562 18.0577 61.5343 18.0578 60.3573C18.0596 49.526 18.0552 38.6947 18.061 27.8635C18.0628 24.3722 18.0899 20.8808 18.1038 17.3895C18.1062 16.7834 17.9992 16.2052 17.6691 15.6801C16.3985 13.6595 15.1343 11.635 13.8626 9.61513C13.5812 9.16815 13.464 9.17539 13.1768 9.63334C11.9694 11.5587 10.7708 13.4895 9.55329 15.4083C9.15874 16.0301 8.98486 16.6824 8.98623 17.4225C8.99941 24.5841 8.99408 31.7457 8.99408 38.9072ZM45.7212 38.8745H45.7253C45.7253 46.0995 45.7252 53.3247 45.7255 60.5497C45.7255 61.4492 45.7329 61.4576 46.6459 61.4582C48.995 61.4596 51.3441 61.4609 53.6932 61.4578C54.8505 61.4563 54.7847 61.533 54.7849 60.3519C54.7866 49.5207 54.7824 38.6894 54.7881 27.8581C54.7898 24.3668 54.8171 20.8755 54.8308 17.3842C54.8332 16.7778 54.7238 16.2004 54.3936 15.6754C53.1299 13.6656 51.8727 11.6517 50.6084 9.64218C50.3079 9.16457 50.1958 9.16777 49.901 9.63776C48.6938 11.5631 47.4943 13.4934 46.2781 15.4131C45.8917 16.0227 45.7123 16.6619 45.7136 17.3896C45.7263 24.5513 45.7212 31.7129 45.7212 38.8745ZM20.6715 38.0864C20.6715 40.3701 20.6757 42.6539 20.6663 44.9376C20.6651 45.2392 20.7383 45.3659 21.0681 45.3611C22.235 45.344 23.4025 45.3471 24.5697 45.3596C24.8601 45.3627 24.9702 45.2845 24.9697 44.9741C24.9611 40.394 24.9611 35.8138 24.9697 31.2337C24.9703 30.9219 24.8575 30.8463 24.5686 30.8494C23.4396 30.8619 22.3103 30.8542 21.1811 30.8545C20.6739 30.8548 20.6727 30.8555 20.6726 31.3493C20.6722 33.595 20.6725 35.8407 20.6715 38.0864ZM39.035 38.1089C39.035 40.38 39.0405 42.651 39.0287 44.922C39.0271 45.2472 39.1102 45.3675 39.4542 45.3618C40.6084 45.3426 41.7633 45.3456 42.9177 45.3603C43.2289 45.3643 43.3339 45.2714 43.3333 44.9516C43.3247 40.3842 43.3244 35.8167 43.3336 31.2492C43.3343 30.9184 43.2103 30.8456 42.9096 30.8491C41.7807 30.8625 40.651 30.8699 39.5223 30.8458C39.1399 30.8377 39.0241 30.9427 39.0272 31.3338C39.0453 33.5921 39.036 35.8505 39.035 38.1089ZM24.9638 26.787C24.9638 26.09 24.9531 25.3926 24.9689 24.6959C24.9754 24.4061 24.8953 24.2912 24.5842 24.2954C23.4057 24.311 22.2267 24.3115 21.0483 24.2952C20.7314 24.2908 20.6658 24.4171 20.6678 24.7001C20.678 26.0943 20.6786 27.4885 20.6674 28.8826C20.6652 29.1717 20.7417 29.2872 21.0525 29.283C22.2311 29.2674 23.41 29.267 24.5885 29.2833C24.9055 29.2877 24.9743 29.1618 24.9684 28.8782C24.9541 28.1814 24.9638 27.4841 24.9638 26.787ZM39.0361 26.7909C39.0361 27.488 39.0465 28.1853 39.0312 28.882C39.0248 29.1709 39.1043 29.2871 39.4159 29.283C40.5944 29.2673 41.7733 29.2668 42.9518 29.2831C43.2683 29.2875 43.3343 29.1624 43.3321 28.8785C43.3217 27.4845 43.3212 26.0902 43.3324 24.6961C43.3347 24.4073 43.2599 24.2911 42.9483 24.2952C41.7698 24.3109 40.5909 24.3113 39.4124 24.2951C39.0962 24.2907 39.0257 24.4157 39.0315 24.6997C39.0457 25.3966 39.0361 26.0939 39.0361 26.7909ZM24.9638 49.4588C24.9638 48.749 24.9539 48.039 24.9687 47.3295C24.9746 47.0439 24.9024 46.9215 24.5873 46.9259C23.4087 46.9419 22.2296 46.9417 21.0511 46.9259C20.7388 46.9217 20.6645 47.04 20.6668 47.3276C20.6774 48.7218 20.6772 50.1161 20.6669 51.5103C20.6648 51.7952 20.7343 51.9182 21.0492 51.9139C22.2277 51.8978 23.4068 51.898 24.5854 51.9138C24.8979 51.918 24.9755 51.8005 24.9689 51.5122C24.9532 50.8279 24.9638 50.1432 24.9638 49.4588ZM39.035 49.3808C39.035 50.0906 39.0447 50.8007 39.0303 51.5101C39.0245 51.7953 39.0978 51.9181 39.4127 51.9137C40.5912 51.8977 41.7702 51.8978 42.9489 51.9137C43.2614 51.9179 43.3346 51.8001 43.3323 51.512C43.3214 50.1178 43.3213 48.7235 43.3321 47.3293C43.3343 47.044 43.2658 46.9214 42.9507 46.9257C41.7721 46.9418 40.5931 46.9416 39.4145 46.9258C39.1022 46.9216 39.0238 47.0395 39.0302 47.3274C39.0453 48.0117 39.035 48.6964 39.035 49.3808Z" fill="#282828"/>
</g>
<defs>
<clipPath id="clip0_5611_1156">
<rect width="64" height="64" fill="white"/>
</clipPath>
</defs>
</svg>
