<svg width="64" height="64" viewBox="0 0 64 64" fill="none" xmlns="http://www.w3.org/2000/svg">
<g clip-path="url(#clip0_6370_22905)">
<path fill-rule="evenodd" clip-rule="evenodd" d="M13.4001 39.2949C13.4001 31.4729 13.4023 23.6508 13.394 15.8288C13.3936 15.4156 13.4972 15.062 13.7137 14.7184C15.4394 11.9792 17.1587 9.23597 18.882 6.49522C19.0785 6.18266 19.2985 5.88778 19.6008 5.6649C20.0775 5.31333 20.6547 5.32666 21.1078 5.70551C21.3437 5.90279 21.5327 6.14167 21.6961 6.40082C23.4766 9.22553 25.2586 12.0493 27.035 14.8766C27.3376 15.3583 27.4838 15.8816 27.4786 16.4644C27.4614 18.407 27.4788 20.35 27.4657 22.2927C27.4635 22.6203 27.5506 22.7368 27.893 22.7311C29.0355 22.7119 30.1788 22.7107 31.3212 22.7316C31.6772 22.7381 31.7715 22.6241 31.7705 22.2767C31.7597 18.3277 31.7677 14.3785 31.7576 10.4294C31.7565 10.0174 31.8544 9.66199 32.0715 9.31735C33.8041 6.56746 35.5296 3.81315 37.2602 1.06189C37.4498 0.760457 37.6652 0.477383 37.9557 0.260983C38.4455 -0.103927 39.0287 -0.0858674 39.4923 0.313254C39.7155 0.505348 39.8971 0.733635 40.0537 0.981962C41.841 3.81742 43.6304 6.65143 45.4124 9.49024C45.7075 9.9603 45.8437 10.4746 45.8419 11.0436C45.8299 14.7641 45.8356 18.4847 45.8359 22.2052C45.836 22.723 45.8368 22.7236 46.3596 22.7237C47.4516 22.7241 48.5436 22.7244 49.6357 22.7237C50.1262 22.7234 50.1271 22.7224 50.1271 22.2118C50.1274 20.0658 50.1332 17.9198 50.1217 15.7739C50.1197 15.4005 50.2161 15.0788 50.4106 14.7695C52.1544 11.9966 53.8941 9.22126 55.6387 6.4489C55.8283 6.14769 56.0471 5.8672 56.3415 5.65484C56.8055 5.32003 57.3759 5.33055 57.8185 5.6918C58.0567 5.88625 58.2477 6.12361 58.4112 6.38291C60.1986 9.21829 61.988 12.0524 63.7704 14.8909C64.0655 15.3607 64.2053 15.8734 64.205 16.4427C64.1974 31.6804 64.1987 46.9182 64.1965 62.1559C64.1964 62.3834 64.2028 62.6182 64.1522 62.8372C63.9714 63.6202 63.4953 63.9871 62.6331 63.9919C60.7157 64.0027 58.7983 63.9979 56.8809 63.9983C55.1539 63.9987 53.427 63.9972 51.7001 63.9977C51.4455 63.9978 51.1935 63.9882 50.945 63.9217C50.357 63.7642 50.1277 63.4723 50.1276 62.8604C50.127 59.9017 50.1274 56.9431 50.1271 53.9845C50.1271 53.4861 50.126 53.4852 49.6232 53.485C48.5312 53.4845 47.4391 53.4846 46.3471 53.485C45.8357 53.4852 45.8349 53.4859 45.8349 54.0153C45.8345 56.7581 45.8349 59.5009 45.8334 62.2437C45.8333 62.4714 45.8413 62.6992 45.7698 62.9229C45.5391 63.6443 45.1174 63.9775 44.3338 63.9896C43.2547 64.0061 42.1752 63.998 41.0959 63.9982C38.5436 63.9986 35.9913 63.9982 33.439 63.9964C33.2362 63.9963 33.0306 64.0013 32.8309 63.9724C32.0344 63.8565 31.7638 63.5366 31.7638 62.7345C31.7637 59.8139 31.7571 56.8933 31.7719 53.9728C31.7738 53.5935 31.6807 53.4666 31.2858 53.4758C30.1563 53.5019 29.0256 53.4965 27.8957 53.4779C27.5579 53.4724 27.4634 53.581 27.4647 53.9129C27.4762 56.6683 27.4719 59.4238 27.4695 62.1793C27.4693 62.3943 27.4757 62.6157 27.4297 62.8232C27.2564 63.6058 26.7751 63.9839 25.9206 63.9915C24.4984 64.0041 23.0762 63.998 21.6541 63.9983C19.4446 63.9986 17.2352 63.9988 15.0257 63.9957C14.8107 63.9954 14.5916 63.9934 14.3816 63.9541C13.634 63.8142 13.4002 63.5216 13.4002 62.7608L13.4001 39.2949ZM34.1575 36.2009H34.1616C34.1616 44.3531 34.1613 52.5052 34.1621 60.6573C34.1622 61.4116 34.2046 61.4564 34.9611 61.4572C37.4499 61.46 39.9387 61.4586 42.4275 61.458C42.5544 61.4579 42.6813 61.4505 42.8082 61.4474C43.0711 61.4411 43.2043 61.3074 43.2088 61.044C43.2123 60.841 43.2215 60.6379 43.2216 60.4348C43.2226 58.327 43.2179 56.2191 43.223 54.1112C43.2489 43.1535 43.1747 32.1956 43.264 21.2379C43.2891 18.1525 43.2683 15.0667 43.2673 11.9811C43.2672 11.3887 43.1743 10.8185 42.852 10.3046C41.5699 8.26125 40.2914 6.21573 39.0058 4.17456C38.7505 3.76919 38.6219 3.77566 38.3617 4.19041C37.1202 6.16925 35.8846 8.15176 34.6412 10.1294C34.307 10.6609 34.1518 11.2262 34.1524 11.8588C34.1603 19.9729 34.1575 28.0868 34.1575 36.2009ZM15.7939 38.9072H15.7979C15.7979 46.0942 15.7978 53.2813 15.7984 60.4683C15.7984 60.6586 15.8004 60.8493 15.8087 61.0394C15.8202 61.2977 15.9611 61.434 16.2183 61.4448C16.4085 61.4529 16.599 61.4581 16.7894 61.4582C19.1131 61.4591 21.4368 61.461 23.7605 61.4578C24.9222 61.4562 24.8575 61.5343 24.8576 60.3573C24.8594 49.526 24.855 38.6947 24.8608 27.8635C24.8626 24.3722 24.8897 20.8808 24.9036 17.3895C24.906 16.7834 24.799 16.2052 24.4689 15.6801C23.1983 13.6595 21.9341 11.635 20.6624 9.61513C20.381 9.16815 20.2638 9.17539 19.9766 9.63334C18.7692 11.5587 17.5706 13.4895 16.3531 15.4083C15.9585 16.0301 15.7847 16.6824 15.786 17.4225C15.7992 24.5841 15.7939 31.7457 15.7939 38.9072ZM52.521 38.8745H52.5251C52.5251 46.0995 52.525 53.3247 52.5253 60.5497C52.5253 61.4492 52.5327 61.4576 53.4457 61.4582C55.7948 61.4596 58.1439 61.4609 60.493 61.4578C61.6503 61.4563 61.5845 61.533 61.5847 60.3519C61.5865 49.5207 61.5822 38.6894 61.5879 27.8581C61.5897 24.3668 61.6169 20.8755 61.6307 17.3842C61.633 16.7778 61.5236 16.2004 61.1934 15.6754C59.9297 13.6656 58.6725 11.6517 57.4082 9.64218C57.1077 9.16457 56.9956 9.16777 56.7008 9.63776C55.4936 11.5631 54.2941 13.4934 53.0779 15.4131C52.6915 16.0227 52.5121 16.6619 52.5134 17.3896C52.5261 24.5513 52.521 31.7129 52.521 38.8745ZM27.4713 38.0864C27.4713 40.3701 27.4756 42.6539 27.4661 44.9376C27.4649 45.2392 27.5381 45.3659 27.8679 45.3611C29.0349 45.344 30.2024 45.3471 31.3695 45.3596C31.6599 45.3627 31.77 45.2845 31.7695 44.9741C31.7609 40.394 31.7609 35.8138 31.7695 31.2337C31.7701 30.9219 31.6573 30.8463 31.3684 30.8494C30.2394 30.8619 29.1101 30.8542 27.9809 30.8545C27.4737 30.8548 27.4725 30.8555 27.4724 31.3493C27.472 33.595 27.4723 35.8407 27.4713 38.0864ZM45.8348 38.1089C45.8348 40.38 45.8403 42.651 45.8285 44.922C45.8269 45.2472 45.91 45.3675 46.254 45.3618C47.4082 45.3426 48.5631 45.3456 49.7175 45.3603C50.0287 45.3643 50.1337 45.2714 50.1331 44.9516C50.1245 40.3842 50.1242 35.8167 50.1335 31.2492C50.1341 30.9184 50.0101 30.8456 49.7094 30.8491C48.5805 30.8625 47.4508 30.8699 46.3221 30.8458C45.9397 30.8377 45.8239 30.9427 45.827 31.3338C45.8451 33.5921 45.8358 35.8505 45.8348 38.1089ZM31.7636 26.787C31.7636 26.09 31.7529 25.3926 31.7687 24.6959C31.7752 24.4061 31.6951 24.2912 31.384 24.2954C30.2056 24.311 29.0265 24.3115 27.8481 24.2952C27.5313 24.2908 27.4656 24.4171 27.4676 24.7001C27.4778 26.0943 27.4784 27.4885 27.4672 28.8826C27.465 29.1717 27.5415 29.2872 27.8523 29.283C29.0309 29.2674 30.2098 29.267 31.3883 29.2833C31.7053 29.2877 31.7741 29.1618 31.7682 28.8782C31.7539 28.1814 31.7636 27.4841 31.7636 26.787ZM45.8359 26.7909C45.8359 27.488 45.8463 28.1853 45.831 28.882C45.8246 29.1709 45.9041 29.2871 46.2157 29.283C47.3942 29.2673 48.5731 29.2668 49.7516 29.2831C50.0681 29.2875 50.1341 29.1624 50.1319 28.8785C50.1215 27.4845 50.121 26.0902 50.1322 24.6961C50.1345 24.4073 50.0597 24.2911 49.7481 24.2952C48.5696 24.3109 47.3907 24.3113 46.2122 24.2951C45.896 24.2907 45.8255 24.4157 45.8313 24.6997C45.8455 25.3966 45.8359 26.0939 45.8359 26.7909ZM31.7636 49.4588C31.7636 48.749 31.7537 48.039 31.7685 47.3295C31.7745 47.0439 31.7022 46.9215 31.3871 46.9259C30.2085 46.9419 29.0294 46.9417 27.8509 46.9259C27.5386 46.9217 27.4643 47.04 27.4666 47.3276C27.4772 48.7218 27.477 50.1161 27.4667 51.5103C27.4646 51.7952 27.5341 51.9182 27.849 51.9139C29.0275 51.8978 30.2066 51.898 31.3852 51.9138C31.6977 51.918 31.7753 51.8005 31.7687 51.5122C31.753 50.8279 31.7636 50.1432 31.7636 49.4588ZM45.8349 49.3808C45.8349 50.0906 45.8445 50.8007 45.8301 51.5101C45.8243 51.7953 45.8976 51.9181 46.2125 51.9137C47.391 51.8977 48.57 51.8978 49.7487 51.9137C50.0612 51.9179 50.1344 51.8001 50.1321 51.512C50.1212 50.1178 50.1211 48.7235 50.1319 47.3293C50.1341 47.044 50.0656 46.9214 49.7505 46.9257C48.5719 46.9418 47.3929 46.9416 46.2143 46.9258C45.902 46.9216 45.8237 47.0395 45.83 47.3274C45.8451 48.0117 45.8349 48.6964 45.8349 49.3808Z" fill="#282828"/>
</g>
<path d="M0 42.8873V23.0648C0 22.6776 0.110637 22.3641 0.313472 22.0322C1.73332 19.7826 3.13472 17.533 4.55457 15.2833C4.73896 14.9883 4.9418 14.6933 5.21839 14.4536C5.6425 14.1032 6.17725 14.1032 6.58292 14.472C6.82263 14.6933 7.00703 14.933 7.17298 15.2096C8.61127 17.4776 10.0496 19.7641 11.4878 22.0322C11.8013 22.5116 11.9673 23.0279 11.9673 23.618C11.9488 36.4704 11.9673 49.3043 11.9673 62.1567V62.4886C11.9488 63.3368 11.5063 63.7793 10.6765 63.7978C9.86516 63.8162 9.03538 63.7978 8.22404 63.7978H1.51204C1.30921 63.7978 1.12481 63.7978 0.921977 63.7793C0.295033 63.7056 0.0368785 63.4105 0.0368785 62.7836C-5.61872e-07 56.1638 0 49.5256 0 42.8873ZM9.71764 42.5554V24.3187C9.71764 23.8393 9.66232 23.3783 9.38573 22.9542C8.29779 21.2393 7.2283 19.506 6.14037 17.7911C5.90065 17.4223 5.80845 17.4223 5.56874 17.7911C4.49925 19.4876 3.44819 21.1656 2.39714 22.862C2.13899 23.2861 2.00991 23.7471 2.00991 24.245V60.9765C2.00991 61.6035 2.08367 61.6772 2.71061 61.6772H8.83254C9.6992 61.6772 9.6992 61.6772 9.6992 60.7921C9.71764 54.7071 9.71764 48.6405 9.71764 42.5554Z" fill="#282828"/>
<defs>
<clipPath id="clip0_6370_22905">
<rect width="51.2" height="64" fill="white" transform="translate(12.7998)"/>
</clipPath>
</defs>
</svg>
