<svg width="64" height="65" viewBox="0 0 64 65" fill="none" xmlns="http://www.w3.org/2000/svg">
<g clip-path="url(#clip0_6694_2188)">
<path d="M62 32.4692C62 15.9007 48.5685 2.46924 32 2.46924C15.4315 2.46924 2 15.9007 2 32.4692C2 49.0378 15.4315 62.4692 32 62.4692V64.4692C14.3269 64.4692 0 50.1423 0 32.4692C0 14.7961 14.3269 0.469238 32 0.469238C49.6731 0.469238 64 14.7961 64 32.4692C64 50.1423 49.6731 64.4692 32 64.4692V62.4692C48.5685 62.4692 62 49.0378 62 32.4692Z" fill="#F5F6F7"/>
<path d="M44.2931 18.7623C44.6836 18.3718 45.3166 18.3718 45.7072 18.7623C46.0976 19.1528 46.0976 19.7859 45.7072 20.1764L33.4142 32.4693L45.7072 44.7623L45.7755 44.8385C46.0958 45.2312 46.0732 45.8103 45.7072 46.1764C45.3411 46.5424 44.762 46.565 44.3693 46.2447L44.2931 46.1764L32.0001 33.8834L19.7072 46.1764L19.631 46.2447C19.2382 46.565 18.6592 46.5424 18.2931 46.1764C17.927 45.8102 17.9044 45.2312 18.2247 44.8385L18.2931 44.7623L30.5861 32.4693L18.2931 20.1764C17.9026 19.7858 17.9026 19.1528 18.2931 18.7623C18.6836 18.3718 19.3166 18.3718 19.7072 18.7623L32.0001 31.0553L44.2931 18.7623Z" fill="#FEE618"/>
</g>
<defs>
<clipPath id="clip0_6694_2188">
<rect width="64" height="64" fill="white" transform="translate(0 0.469238)"/>
</clipPath>
</defs>
</svg>
