<svg width="512" height="512" viewBox="0 0 512 512" fill="none" xmlns="http://www.w3.org/2000/svg">
<g clip-path="url(#clip0_4606_662)">
<path d="M447 188H407C404.348 188 401.804 186.946 399.929 185.071C398.054 183.196 397 180.652 397 178C397 175.348 398.054 172.804 399.929 170.929C401.804 169.054 404.348 168 407 168H447C449.652 168 452.196 169.054 454.071 170.929C455.946 172.804 457 175.348 457 178C457 180.652 455.946 183.196 454.071 185.071C452.196 186.946 449.652 188 447 188Z" fill="#00D151"/>
<path d="M447 344H407C404.348 344 401.804 342.946 399.929 341.071C398.054 339.196 397 336.652 397 334C397 331.348 398.054 328.804 399.929 326.929C401.804 325.054 404.348 324 407 324H447C449.652 324 452.196 325.054 454.071 326.929C455.946 328.804 457 331.348 457 334C457 336.652 455.946 339.196 454.071 341.071C452.196 342.946 449.652 344 447 344Z" fill="#00D151"/>
<path d="M431.75 71H411.75C409.098 71 406.554 69.9464 404.679 68.0711C402.804 66.1957 401.75 63.6522 401.75 61C401.75 58.3478 402.804 55.8043 404.679 53.9289C406.554 52.0536 409.098 51 411.75 51H431.75C434.402 51 436.946 52.0536 438.821 53.9289C440.696 55.8043 441.75 58.3478 441.75 61C441.75 63.6522 440.696 66.1957 438.821 68.0711C436.946 69.9464 434.402 71 431.75 71Z" fill="#00D151"/>
<path d="M431.75 110H411.75C409.098 110 406.554 108.946 404.679 107.071C402.804 105.196 401.75 102.652 401.75 100C401.75 97.3478 402.804 94.8043 404.679 92.9289C406.554 91.0536 409.098 90 411.75 90H431.75C434.402 90 436.946 91.0536 438.821 92.9289C440.696 94.8043 441.75 97.3478 441.75 100C441.75 102.652 440.696 105.196 438.821 107.071C436.946 108.946 434.402 110 431.75 110Z" fill="#00D151"/>
<path d="M431.75 149H411.75C409.098 149 406.554 147.946 404.679 146.071C402.804 144.196 401.75 141.652 401.75 139C401.75 136.348 402.804 133.804 404.679 131.929C406.554 130.054 409.098 129 411.75 129H431.75C434.402 129 436.946 130.054 438.821 131.929C440.696 133.804 441.75 136.348 441.75 139C441.75 141.652 440.696 144.196 438.821 146.071C436.946 147.946 434.402 149 431.75 149Z" fill="#00D151"/>
<path d="M431.75 266H411.75C409.098 266 406.554 264.946 404.679 263.071C402.804 261.196 401.75 258.652 401.75 256C401.75 253.348 402.804 250.804 404.679 248.929C406.554 247.054 409.098 246 411.75 246H431.75C434.402 246 436.946 247.054 438.821 248.929C440.696 250.804 441.75 253.348 441.75 256C441.75 258.652 440.696 261.196 438.821 263.071C436.946 264.946 434.402 266 431.75 266Z" fill="#00D151"/>
<path d="M431.75 305H411.75C409.098 305 406.554 303.946 404.679 302.071C402.804 300.196 401.75 297.652 401.75 295C401.75 292.348 402.804 289.804 404.679 287.929C406.554 286.054 409.098 285 411.75 285H431.75C434.402 285 436.946 286.054 438.821 287.929C440.696 289.804 441.75 292.348 441.75 295C441.75 297.652 440.696 300.196 438.821 302.071C436.946 303.946 434.402 305 431.75 305Z" fill="#00D151"/>
<path d="M431.75 227H411.75C409.098 227 406.554 225.946 404.679 224.071C402.804 222.196 401.75 219.652 401.75 217C401.75 214.348 402.804 211.804 404.679 209.929C406.554 208.054 409.098 207 411.75 207H431.75C434.402 207 436.946 208.054 438.821 209.929C440.696 211.804 441.75 214.348 441.75 217C441.75 219.652 440.696 222.196 438.821 224.071C436.946 225.946 434.402 227 431.75 227Z" fill="#00D151"/>
<path d="M431.75 422H411.75C409.098 422 406.554 420.946 404.679 419.071C402.804 417.196 401.75 414.652 401.75 412C401.75 409.348 402.804 406.804 404.679 404.929C406.554 403.054 409.098 402 411.75 402H431.75C434.402 402 436.946 403.054 438.821 404.929C440.696 406.804 441.75 409.348 441.75 412C441.75 414.652 440.696 417.196 438.821 419.071C436.946 420.946 434.402 422 431.75 422Z" fill="#00D151"/>
<path d="M431.75 461H411.75C409.098 461 406.554 459.946 404.679 458.071C402.804 456.196 401.75 453.652 401.75 451C401.75 448.348 402.804 445.804 404.679 443.929C406.554 442.054 409.098 441 411.75 441H431.75C434.402 441 436.946 442.054 438.821 443.929C440.696 445.804 441.75 448.348 441.75 451C441.75 453.652 440.696 456.196 438.821 458.071C436.946 459.946 434.402 461 431.75 461Z" fill="#00D151"/>
<path d="M431.75 383H411.75C409.098 383 406.554 381.946 404.679 380.071C402.804 378.196 401.75 375.652 401.75 373C401.75 370.348 402.804 367.804 404.679 365.929C406.554 364.054 409.098 363 411.75 363H431.75C434.402 363 436.946 364.054 438.821 365.929C440.696 367.804 441.75 370.348 441.75 373C441.75 375.652 440.696 378.196 438.821 380.071C436.946 381.946 434.402 383 431.75 383Z" fill="#00D151"/>
<path d="M130 502C127.348 502 124.804 500.946 122.929 499.071C121.054 497.196 120 494.652 120 492V452C120 449.348 121.054 446.804 122.929 444.929C124.804 443.054 127.348 442 130 442C132.652 442 135.196 443.054 137.071 444.929C138.946 446.804 140 449.348 140 452V492C140 494.652 138.946 497.196 137.071 499.071C135.196 500.946 132.652 502 130 502Z" fill="#B4B7BA"/>
<path d="M286 502C283.348 502 280.804 500.946 278.929 499.071C277.054 497.196 276 494.652 276 492V452C276 449.348 277.054 446.804 278.929 444.929C280.804 443.054 283.348 442 286 442C288.652 442 291.196 443.054 293.071 444.929C294.946 446.804 296 449.348 296 452V492C296 494.652 294.946 497.196 293.071 499.071C291.196 500.946 288.652 502 286 502Z" fill="#B4B7BA"/>
<path d="M91 502C88.3478 502 85.8043 500.946 83.9289 499.071C82.0536 497.196 81 494.652 81 492V472C81 469.348 82.0536 466.804 83.9289 464.929C85.8043 463.054 88.3478 462 91 462C93.6522 462 96.1957 463.054 98.0711 464.929C99.9464 466.804 101 469.348 101 472V492C101 493.313 100.741 494.614 100.239 495.827C99.7362 497.04 98.9997 498.142 98.0711 499.071C97.1425 500 96.0401 500.736 94.8268 501.239C93.6136 501.741 92.3132 502 91 502Z" fill="#B4B7BA"/>
<path d="M208 502C205.348 502 202.804 500.946 200.929 499.071C199.054 497.196 198 494.652 198 492V472C198 469.348 199.054 466.804 200.929 464.929C202.804 463.054 205.348 462 208 462C210.652 462 213.196 463.054 215.071 464.929C216.946 466.804 218 469.348 218 472V492C218 494.652 216.946 497.196 215.071 499.071C213.196 500.946 210.652 502 208 502Z" fill="#B4B7BA"/>
<path d="M247 502C244.348 502 241.804 500.946 239.929 499.071C238.054 497.196 237 494.652 237 492V472C237 469.348 238.054 466.804 239.929 464.929C241.804 463.054 244.348 462 247 462C249.652 462 252.196 463.054 254.071 464.929C255.946 466.804 257 469.348 257 472V492C257 494.652 255.946 497.196 254.071 499.071C252.196 500.946 249.652 502 247 502Z" fill="#B4B7BA"/>
<path d="M169 502C166.348 502 163.804 500.946 161.929 499.071C160.054 497.196 159 494.652 159 492V472C159 469.348 160.054 466.804 161.929 464.929C163.804 463.054 166.348 462 169 462C171.652 462 174.196 463.054 176.071 464.929C177.946 466.804 179 469.348 179 472V492C179 494.652 177.946 497.196 176.071 499.071C174.196 500.946 171.652 502 169 502Z" fill="#B4B7BA"/>
<path d="M325 502C322.348 502 319.804 500.946 317.929 499.071C316.054 497.196 315 494.652 315 492V472C315 469.348 316.054 466.804 317.929 464.929C319.804 463.054 322.348 462 325 462C327.652 462 330.196 463.054 332.071 464.929C333.946 466.804 335 469.348 335 472V492C335 494.652 333.946 497.196 332.071 499.071C330.196 500.946 327.652 502 325 502Z" fill="#B4B7BA"/>
<path d="M55 236H15C12.3478 236 9.8043 234.946 7.92893 233.071C6.05357 231.196 5 228.652 5 226C5 223.348 6.05357 220.804 7.92893 218.929C9.8043 217.054 12.3478 216 15 216H55C57.6522 216 60.1957 217.054 62.0711 218.929C63.9464 220.804 65 223.348 65 226C65 228.652 63.9464 231.196 62.0711 233.071C60.1957 234.946 57.6522 236 55 236Z" fill="#B4B7BA"/>
<path d="M55 392H15C12.3478 392 9.8043 390.946 7.92893 389.071C6.05357 387.196 5 384.652 5 382C5 379.348 6.05357 376.804 7.92893 374.929C9.8043 373.054 12.3478 372 15 372H55C57.6522 372 60.1957 373.054 62.0711 374.929C63.9464 376.804 65 379.348 65 382C65 384.652 63.9464 387.196 62.0711 389.071C60.1957 390.946 57.6522 392 55 392Z" fill="#B4B7BA"/>
<path d="M35 197H15C12.3478 197 9.8043 195.946 7.92893 194.071C6.05357 192.196 5 189.652 5 187C5 184.348 6.05357 181.804 7.92893 179.929C9.8043 178.054 12.3478 177 15 177H35C37.6522 177 40.1957 178.054 42.0711 179.929C43.9464 181.804 45 184.348 45 187C45 189.652 43.9464 192.196 42.0711 194.071C40.1957 195.946 37.6522 197 35 197Z" fill="#B4B7BA"/>
<path d="M35 314H15C12.3478 314 9.8043 312.946 7.92893 311.071C6.05357 309.196 5 306.652 5 304C5 301.348 6.05357 298.804 7.92893 296.929C9.8043 295.054 12.3478 294 15 294H35C37.6522 294 40.1957 295.054 42.0711 296.929C43.9464 298.804 45 301.348 45 304C45 306.652 43.9464 309.196 42.0711 311.071C40.1957 312.946 37.6522 314 35 314Z" fill="#B4B7BA"/>
<path d="M35 353H15C12.3478 353 9.8043 351.946 7.92893 350.071C6.05357 348.196 5 345.652 5 343C5 340.348 6.05357 337.804 7.92893 335.929C9.8043 334.054 12.3478 333 15 333H35C37.6522 333 40.1957 334.054 42.0711 335.929C43.9464 337.804 45 340.348 45 343C45 345.652 43.9464 348.196 42.0711 350.071C40.1957 351.946 37.6522 353 35 353Z" fill="#B4B7BA"/>
<path d="M35 275H15C12.3478 275 9.8043 273.946 7.92893 272.071C6.05357 270.196 5 267.652 5 265C5 262.348 6.05357 259.804 7.92893 257.929C9.8043 256.054 12.3478 255 15 255H35C37.6522 255 40.1957 256.054 42.0711 257.929C43.9464 259.804 45 262.348 45 265C45 267.652 43.9464 270.196 42.0711 272.071C40.1957 273.946 37.6522 275 35 275Z" fill="#B4B7BA"/>
<path d="M35 431H15C12.3478 431 9.8043 429.946 7.92893 428.071C6.05357 426.196 5 423.652 5 421C5 418.348 6.05357 415.804 7.92893 413.929C9.8043 412.054 12.3478 411 15 411H35C37.6522 411 40.1957 412.054 42.0711 413.929C43.9464 415.804 45 418.348 45 421C45 423.652 43.9464 426.196 42.0711 428.071C40.1957 429.946 37.6522 431 35 431Z" fill="#B4B7BA"/>
<path d="M502 0.000311471H402C399.348 0.000311471 396.804 1.05388 394.929 2.92924C393.054 4.80461 392 7.34815 392 10.0003V377.47L17.56 3.00031C16.6184 2.04838 15.497 1.29299 14.261 0.777996C13.025 0.262999 11.699 -0.00134448 10.36 0.000311471C9.00163 -0.0102626 7.65461 0.248496 6.39683 0.76163C5.13904 1.27477 3.99542 2.0321 3.03208 2.98986C2.06874 3.94762 1.30478 5.08682 0.784345 6.34161C0.263914 7.59639 -0.00266395 8.94188 2.00678e-05 10.3003V501.72C2.00678e-05 504.447 1.08309 507.061 3.01096 508.989C4.93884 510.917 7.55359 512 10.28 512H502.28H502.83C505.372 511.72 507.719 510.504 509.413 508.589C511.108 506.674 512.03 504.197 512 501.64V10.0003C512 7.34815 510.946 4.80461 509.071 2.92924C507.196 1.05388 504.652 0.000311471 502 0.000311471ZM20 33.7603L392 405.76V492H20V33.7603ZM492 492H412V20.0003H492V492Z" fill="#B4B7BA"/>
<path d="M110 242.18L269.82 402H110V242.18ZM101.49 210C99.9825 209.987 98.4874 210.273 97.0913 210.842C95.6952 211.411 94.426 212.252 93.3572 213.315C92.2884 214.378 91.4413 215.643 90.865 217.036C90.2887 218.429 89.9947 219.923 90.0001 221.43V410.59C90.0001 413.617 91.2022 416.519 93.342 418.659C95.4818 420.798 98.384 422 101.41 422H290.57C292.825 421.999 295.03 421.33 296.904 420.077C298.779 418.823 300.241 417.043 301.104 414.959C301.968 412.876 302.195 410.583 301.756 408.371C301.317 406.159 300.233 404.127 298.64 402.53L109.47 213.36C108.428 212.295 107.184 211.449 105.81 210.872C104.436 210.295 102.96 209.999 101.47 210H101.49Z" fill="#B4B7BA"/>
<path d="M502.83 512C505.336 511.791 507.671 510.646 509.37 508.793C511.07 506.939 512.009 504.514 512 502V501.64C512.03 504.197 511.108 506.674 509.413 508.589C507.719 510.503 505.372 511.719 502.83 512Z" fill="#B4B7BA"/>
</g>
<defs>
<clipPath id="clip0_4606_662">
<rect width="512" height="512" fill="white"/>
</clipPath>
</defs>
</svg>
