<svg width="16" height="16" viewBox="0 0 16 16" fill="none" xmlns="http://www.w3.org/2000/svg">
<path d="M3.35437 12.5257C3.48697 12.6632 3.56106 12.8468 3.56106 13.0378C3.56106 13.2288 3.48697 13.4124 3.35437 13.5499C3.28841 13.6156 3.20975 13.6672 3.12319 13.7015C3.03664 13.7359 2.944 13.7522 2.85093 13.7495C2.66436 13.7467 2.48528 13.6757 2.34748 13.5499C0.847235 12.0461 0.0032624 10.0096 9.43825e-06 7.8854C-0.00324352 5.76121 0.834488 3.72211 2.33012 2.21372C2.39712 2.14601 2.47688 2.09226 2.56478 2.05557C2.65269 2.01889 2.74699 2 2.84225 2C2.9375 2 3.03181 2.01889 3.11971 2.05557C3.20762 2.09226 3.28737 2.14601 3.35437 2.21372C3.42208 2.28072 3.47583 2.36047 3.51252 2.44838C3.5492 2.53628 3.56809 2.63059 3.56809 2.72585C3.56809 2.8211 3.5492 2.91541 3.51252 3.00331C3.47583 3.09122 3.42208 3.17097 3.35437 3.23797C2.74391 3.84746 2.25961 4.57133 1.92917 5.36817C1.59874 6.16501 1.42865 7.01918 1.42865 7.88181C1.42865 8.74445 1.59874 9.59862 1.92917 10.3955C2.25961 11.1923 2.74391 11.9162 3.35437 12.5257Z" fill="#EB3A28"/>
<path d="M5.20316 5.09552C4.83599 5.4616 4.54468 5.89654 4.34591 6.37541C4.14714 6.85429 4.04482 7.36768 4.04482 7.88616C4.04482 8.40465 4.14714 8.91804 4.34591 9.39691C4.54468 9.87579 4.83599 10.3107 5.20316 10.6768C5.3011 10.777 5.36772 10.9035 5.39487 11.0409C5.42202 11.1783 5.40852 11.3207 5.35602 11.4506C5.30352 11.5804 5.2143 11.6922 5.09928 11.7721C4.98425 11.8521 4.84842 11.8968 4.7084 11.9007C4.52085 11.8947 4.3419 11.8207 4.20495 11.6924C3.20407 10.6731 2.64331 9.30167 2.64331 7.87314C2.64331 6.44462 3.20407 5.07318 4.20495 4.05391C4.27143 3.98863 4.35037 3.9374 4.43707 3.90326C4.52376 3.86913 4.61644 3.85279 4.70958 3.85522C4.80272 3.85765 4.89442 3.8788 4.97922 3.9174C5.06401 3.95601 5.14017 4.01129 5.20316 4.07995C5.27281 4.14492 5.32836 4.22353 5.36633 4.31089C5.40431 4.39824 5.42391 4.49248 5.42391 4.58773C5.42391 4.68299 5.40431 4.77722 5.36633 4.86458C5.32836 4.95193 5.27281 5.03054 5.20316 5.09552Z" fill="#EB3A28"/>
<path d="M9.40433 6.47563C9.68559 6.75571 9.87738 7.11297 9.95543 7.50215C10.0335 7.89133 9.99426 8.29492 9.84275 8.66179C9.69123 9.02866 9.43424 9.34231 9.10432 9.56301C8.7744 9.7837 8.3864 9.90151 7.98948 9.90151C7.59255 9.90151 7.20455 9.7837 6.87463 9.56301C6.54471 9.34231 6.28772 9.02866 6.1362 8.66179C5.98469 8.29492 5.94547 7.89133 6.02352 7.50215C6.10157 7.11297 6.29337 6.75571 6.57462 6.47563C6.75953 6.28825 6.97982 6.13946 7.2227 6.03791C7.46558 5.93636 7.72622 5.88406 7.98948 5.88406C8.25273 5.88406 8.51337 5.93636 8.75625 6.03791C8.99913 6.13946 9.21942 6.28825 9.40433 6.47563Z" fill="#EB3A28"/>
<path d="M11.8002 11.7184C11.6652 11.8525 11.4826 11.9278 11.2924 11.9278C11.1021 11.9278 10.9196 11.8525 10.7846 11.7184C10.7149 11.6534 10.6594 11.5748 10.6214 11.4875C10.5834 11.4001 10.5638 11.3059 10.5638 11.2106C10.5638 11.1154 10.5834 11.0211 10.6214 10.9338C10.6594 10.8464 10.7149 10.7678 10.7846 10.7028C11.1536 10.3351 11.4464 9.89817 11.6461 9.41705C11.8459 8.93594 11.9488 8.42012 11.9488 7.89917C11.9488 7.37823 11.8459 6.86241 11.6461 6.38129C11.4464 5.90018 11.1536 5.46323 10.7846 5.09551C10.7149 5.03053 10.6594 4.95192 10.6214 4.86457C10.5834 4.77721 10.5638 4.68298 10.5638 4.58772C10.5638 4.49247 10.5834 4.39823 10.6214 4.31088C10.6594 4.22352 10.7149 4.14491 10.7846 4.07994C10.8496 4.01028 10.9282 3.95474 11.0155 3.91676C11.1029 3.87879 11.1971 3.85919 11.2924 3.85919C11.3876 3.85919 11.4819 3.87879 11.5692 3.91676C11.6566 3.95474 11.7352 4.01028 11.8002 4.07994C12.8052 5.09703 13.3688 6.46929 13.3688 7.89917C13.3688 9.32906 12.8052 10.7013 11.8002 11.7184Z" fill="#EB3A28"/>
<path d="M13.649 13.5499C13.583 13.6156 13.5044 13.6672 13.4178 13.7015C13.3313 13.7358 13.2386 13.7522 13.1456 13.7495C12.9613 13.7479 12.7846 13.6766 12.6508 13.5499C12.5809 13.4842 12.5252 13.4048 12.4872 13.3167C12.4491 13.2287 12.4294 13.1337 12.4294 13.0378C12.4294 12.9418 12.4491 12.8469 12.4872 12.7588C12.5252 12.6707 12.5809 12.5914 12.6508 12.5256C13.2613 11.9162 13.7456 11.1923 14.076 10.3954C14.4064 9.5986 14.5765 8.74443 14.5765 7.8818C14.5765 7.01916 14.4064 6.16499 14.076 5.36815C13.7456 4.57131 13.2613 3.84744 12.6508 3.23795C12.5809 3.17221 12.5252 3.09286 12.4872 3.00479C12.4491 2.91671 12.4294 2.82178 12.4294 2.72583C12.4294 2.62988 12.4491 2.53494 12.4872 2.44687C12.5252 2.35879 12.5809 2.27944 12.6508 2.2137C12.7171 2.14625 12.7961 2.09268 12.8833 2.05611C12.9704 2.01954 13.064 2.0007 13.1586 2.0007C13.2531 2.0007 13.3467 2.01954 13.4339 2.05611C13.5211 2.09268 13.6001 2.14625 13.6664 2.2137C15.1641 3.72098 16.0033 5.7605 16.0001 7.88538C15.9968 10.0103 15.1514 12.0472 13.649 13.5499Z" fill="#EB3A28"/>
</svg>
