<svg width="512" height="512" viewBox="0 0 512 512" fill="none" xmlns="http://www.w3.org/2000/svg">
<path d="M281.51 183.09C281.26 182.49 280.67 182.09 280.02 182.09H186.56C185.91 182.09 185.33 182.47 185.07 183.07C184.82 183.66 184.94 184.35 185.39 184.82L231.04 232.62C231.34 232.93 231.75 233.11 232.19 233.12H232.21C232.64 233.12 233.05 232.95 233.35 232.65L281.15 184.85C281.61 184.39 281.75 183.69 281.5 183.09H281.51Z" fill="#00D151"/>
<path d="M388.42 48.84C361.94 48.84 340.15 69.23 337.89 95.13H82.4397C78.6397 95.13 75.1897 97.37 73.6597 100.85C72.1197 104.33 72.7897 108.39 75.3497 111.2L221.3 271.18V389.68C204.93 390.5 189.71 393.3 177.65 397.78C155.2 406.11 150.49 417.46 150.49 425.52C150.49 440.11 165.26 448.65 177.65 453.26C192.17 458.65 211.28 461.62 231.45 461.62C251.62 461.62 270.73 458.65 285.25 453.26C307.7 444.93 312.41 433.58 312.41 425.52C312.41 410.93 297.64 402.39 285.25 397.78C272.92 393.2 257.29 390.38 240.5 389.63V271.41L365.59 144.88C372.63 148.44 380.48 150.33 388.43 150.33C416.41 150.33 439.17 127.57 439.17 99.59C439.17 71.61 416.41 48.85 388.43 48.85L388.42 48.84ZM347.79 114.33C347.79 114.33 347.84 114.33 347.86 114.33H368.78L333.44 150.07H136.8L104.19 114.33H347.79ZM231.17 253.52L154.31 169.27H314.46L231.17 253.52ZM278.55 415.77C289.72 419.92 293.19 424.36 293.19 425.51C293.19 426.66 289.72 431.1 278.55 435.25C266.3 439.8 249.12 442.41 231.43 442.41C213.74 442.41 196.57 439.8 184.32 435.25C173.15 431.1 169.68 426.66 169.68 425.51C169.68 424.36 173.15 419.92 184.32 415.77C194.21 412.1 207.31 409.69 221.29 408.9V418.81C221.29 424.11 225.59 428.41 230.89 428.41C236.19 428.41 240.49 424.11 240.49 418.81V408.84C254.88 409.57 268.4 412 278.55 415.77ZM388.42 131.12C385.65 131.12 382.9 130.75 380.24 130.04L398.59 111.48C401.31 108.73 402.11 104.61 400.62 101.03C399.13 97.46 395.63 95.13 391.76 95.13H357.19C359.36 79.84 372.53 68.04 388.41 68.04C405.8 68.04 419.95 82.19 419.95 99.58C419.95 116.97 405.8 131.12 388.41 131.12H388.42Z" fill="#B4B7BA"/>
</svg>
