<svg width="64" height="64" viewBox="0 0 64 64" fill="none" xmlns="http://www.w3.org/2000/svg">
<g clip-path="url(#clip0_6344_39845)">
<path d="M32.6882 0.453457C32.438 0.156364 32.0628 0 31.6875 0C31.3122 0 30.937 0.172001 30.6868 0.453457C29.7486 1.53237 7.68555 27.1292 7.68555 39.998C7.68555 53.2265 18.4591 64 31.6875 64C44.9159 64 55.6895 53.2265 55.6895 39.998C55.6738 27.1292 33.6264 1.53237 32.6882 0.453457ZM31.6719 61.3262C19.9133 61.3262 10.3437 51.7567 10.3437 39.998C10.3437 29.5842 27.3249 8.60005 31.6719 3.39311C33.5482 5.62912 37.7544 10.7735 41.9137 16.731C49.1691 27.1136 53 35.1507 53 39.998C53.0156 51.7567 43.4461 61.3262 31.6719 61.3262Z" fill="#FCFCFC"/>
<path d="M22.1804 34.838V34.7911C22.1804 32.3205 23.8692 30.2722 26.371 30.2722C28.8728 30.2722 30.5146 32.3205 30.5146 34.7442V34.7911C30.5146 37.246 28.8415 39.31 26.3241 39.31C23.8535 39.31 22.1804 37.2617 22.1804 34.838ZM28.2786 34.838V34.7911C28.2786 33.3682 27.4655 32.2111 26.3397 32.2111C25.1513 32.2111 24.4477 33.3682 24.4477 34.7442V34.7911C24.4477 36.2296 25.2608 37.3711 26.3866 37.3711C27.575 37.3711 28.2786 36.1984 28.2786 34.838ZM25.0888 46.6435L36.691 30.8038C36.863 30.5067 37.1914 30.3503 37.5511 30.3503C38.114 30.3503 38.5674 30.7725 38.5674 31.3354C38.5674 31.5856 38.4736 31.8202 38.3329 31.9922L26.7306 47.8319C26.5274 48.129 26.199 48.2853 25.8394 48.2853C25.2764 48.2853 24.8543 47.8632 24.8543 47.3002C24.8699 47.0501 24.9637 46.8155 25.0888 46.6435ZM32.8758 43.8915V43.8446C32.8758 41.374 34.5645 39.3257 37.0663 39.3257C39.5369 39.3257 41.21 41.374 41.21 43.7977V43.8446C41.21 46.2995 39.5212 48.3635 37.0194 48.3635C34.5489 48.3635 32.8758 46.3152 32.8758 43.8915ZM38.974 43.8915V43.8446C38.974 42.4217 38.1609 41.2646 37.0351 41.2646C35.8467 41.2646 35.143 42.4217 35.143 43.7977V43.8446C35.143 45.2831 35.9561 46.4246 37.082 46.4246C38.2547 46.409 38.974 45.2519 38.974 43.8915Z" fill="#12A71E"/>
</g>
<defs>
<clipPath id="clip0_6344_39845">
<rect width="64" height="64" fill="white"/>
</clipPath>
</defs>
</svg>
