<svg width="64" height="64" viewBox="0 0 64 64" fill="none" xmlns="http://www.w3.org/2000/svg">
<path d="M32.4875 6.28749C32.2875 6.04999 31.9875 5.92499 31.6875 5.92499C31.3875 5.92499 31.0875 6.06249 30.8875 6.28749C30.1375 7.14999 12.5 27.6125 12.5 37.9C12.5 48.475 21.1125 57.0875 31.6875 57.0875C42.2625 57.0875 50.875 48.475 50.875 37.9C50.8625 27.6125 33.2375 7.14999 32.4875 6.28749ZM31.675 54.95C22.275 54.95 14.625 47.3 14.625 37.9C14.625 29.575 28.2 12.8 31.675 8.63749C33.175 10.425 36.5375 14.5375 39.8625 19.3C45.6625 27.6 48.725 34.025 48.725 37.9C48.7375 47.3 41.0875 54.95 31.675 54.95Z" fill="#FCFCFC"/>
<path d="M24.0874 33.775V33.7375C24.0874 31.7625 25.4374 30.125 27.4374 30.125C29.4374 30.125 30.7499 31.7625 30.7499 33.7V33.7375C30.7499 35.7 29.4124 37.35 27.3999 37.35C25.4249 37.35 24.0874 35.7125 24.0874 33.775ZM28.9624 33.775V33.7375C28.9624 32.6 28.3124 31.675 27.4124 31.675C26.4624 31.675 25.8999 32.6 25.8999 33.7V33.7375C25.8999 34.8875 26.5499 35.8 27.4499 35.8C28.3999 35.8 28.9624 34.8625 28.9624 33.775ZM26.4124 43.2125L35.6874 30.55C35.8249 30.3125 36.0874 30.1875 36.3749 30.1875C36.8249 30.1875 37.1874 30.525 37.1874 30.975C37.1874 31.175 37.1124 31.3625 36.9999 31.5L27.7249 44.1625C27.5624 44.4 27.2999 44.525 27.0124 44.525C26.5624 44.525 26.2249 44.1875 26.2249 43.7375C26.2374 43.5375 26.3124 43.35 26.4124 43.2125ZM32.6374 41.0125V40.975C32.6374 39 33.9874 37.3625 35.9874 37.3625C37.9624 37.3625 39.2999 39 39.2999 40.9375V40.975C39.2999 42.9375 37.9499 44.5875 35.9499 44.5875C33.9749 44.5875 32.6374 42.95 32.6374 41.0125ZM37.5124 41.0125V40.975C37.5124 39.8375 36.8624 38.9125 35.9624 38.9125C35.0124 38.9125 34.4499 39.8375 34.4499 40.9375V40.975C34.4499 42.125 35.0999 43.0375 35.9999 43.0375C36.9374 43.025 37.5124 42.1 37.5124 41.0125Z" fill="#12A71E"/>
</svg>
