<svg width="65" height="65" viewBox="0 0 65 65" fill="none" xmlns="http://www.w3.org/2000/svg">
<g clip-path="url(#clip0_5611_1160)">
<path fill-rule="evenodd" clip-rule="evenodd" d="M20.5176 6.81252C20.6319 6.42295 20.9894 6.15535 21.3954 6.15535H57.2983C57.5865 6.15535 57.8578 6.29117 58.0306 6.52187C58.2033 6.75258 58.2572 7.05119 58.176 7.32773L43.2159 58.304C43.1016 58.6935 42.7442 58.9611 42.3382 58.9611H6.43457C6.14636 58.9611 5.87501 58.8253 5.70228 58.5946C5.52955 58.3639 5.47564 58.0653 5.5568 57.7888C10.5437 40.7962 15.5307 23.8041 20.5176 6.81252ZM22.0802 7.98491C17.2723 24.3667 12.4643 40.7489 7.6564 57.1316H41.6533L56.0764 7.98491H22.0802Z" fill="#282828"/>
<path fill-rule="evenodd" clip-rule="evenodd" d="M17.5016 2.54296C17.6146 2.15135 17.973 1.88171 18.3806 1.88171H63.2307C63.5199 1.88171 63.792 2.01845 63.9647 2.25046C64.1373 2.48247 64.19 2.78243 64.1069 3.05941L46.0107 63.3664C45.894 63.7553 45.535 64.0207 45.1291 64.0183L1.05487 63.7569C0.768374 63.7552 0.499221 63.6193 0.327659 63.3899C0.156097 63.1604 0.101946 62.8639 0.181351 62.5886L17.5016 2.54296ZM19.0688 3.71128L2.27418 61.9345L44.4551 62.1847L62.0011 3.71128H19.0688Z" fill="#282828"/>
</g>
<defs>
<clipPath id="clip0_5611_1160">
<rect width="64" height="64" fill="white" transform="translate(0.145508 0.950012)"/>
</clipPath>
</defs>
</svg>
