<svg width="65" height="65" viewBox="0 0 65 65" fill="none" xmlns="http://www.w3.org/2000/svg">
<g clip-path="url(#clip0_5611_1160)">
<path fill-rule="evenodd" clip-rule="evenodd" d="M21.2987 8.46651C21.4054 8.10311 21.7388 7.85349 22.1175 7.85349H55.6087C55.8776 7.85349 56.1307 7.98018 56.2918 8.19539C56.4529 8.41059 56.5032 8.68915 56.4275 8.94711L42.4723 56.4991C42.3657 56.8625 42.0323 57.1122 41.6535 57.1122H8.16169C7.89285 57.1122 7.63972 56.9855 7.4786 56.7702C7.31747 56.555 7.26718 56.2765 7.34289 56.0185C11.9948 40.1674 16.6468 24.3168 21.2987 8.46651ZM22.7564 9.56015C18.2714 24.8415 13.7864 40.1233 9.30145 55.4055H41.0146L54.469 9.56015H22.7564Z" fill="#282828"/>
<path fill-rule="evenodd" clip-rule="evenodd" d="M18.4854 4.48376C18.5908 4.11846 18.9251 3.86693 19.3053 3.86693H61.1428C61.4125 3.86693 61.6664 3.99448 61.8274 4.2109C61.9884 4.42733 62.0376 4.70714 61.9601 4.96552L45.0794 61.2215C44.9706 61.5842 44.6357 61.8318 44.257 61.8296L3.14345 61.5857C2.87619 61.5842 2.62512 61.4575 2.46508 61.2434C2.30504 61.0294 2.25453 60.7527 2.3286 60.4959L18.4854 4.48376ZM19.9473 5.57359L4.28084 59.8858L43.6284 60.1192L59.9958 5.57359H19.9473Z" fill="#282828"/>
</g>
<defs>
<clipPath id="clip0_5611_1160">
<rect width="64" height="64" fill="white" transform="translate(0.145508 0.950012)"/>
</clipPath>
</defs>
</svg>
