<svg width="64" height="64" viewBox="0 0 64 64" fill="none" xmlns="http://www.w3.org/2000/svg">
<path d="M52.9219 54.7593C49.9298 51.1838 46.9378 47.6015 43.9526 44.0192C43.8644 43.9107 43.688 43.8157 43.7558 43.6596C43.8237 43.4968 44.0204 43.5782 44.1561 43.5782C45.6759 43.5714 47.1956 43.5714 48.7086 43.5782C49.0071 43.5782 49.2853 43.5511 49.5363 43.3611C50.1673 42.8726 50.1673 42.1059 49.5431 41.4071C46.585 38.1098 43.6269 34.8192 40.6824 31.5151C40.1939 30.9655 39.6375 30.4567 39.1694 29.7375C39.4543 29.7375 39.6511 29.7375 39.8411 29.7375C41.4897 29.7375 43.1316 29.7239 44.7803 29.7443C45.3841 29.7511 45.8658 29.5815 46.1372 29.0183C46.4086 28.4416 46.1169 28.021 45.7437 27.5936C41.4897 22.7561 37.2493 17.9186 33.0089 13.0744C32.3372 12.3077 31.652 12.2806 30.9871 13.0473C26.7331 17.9051 22.4859 22.7697 18.2319 27.6275C17.8724 28.0414 17.6145 28.462 17.8656 29.0116C18.1302 29.5815 18.6051 29.7579 19.2089 29.7511C20.8712 29.7307 22.5402 29.7443 24.2024 29.7511C24.3856 29.7511 24.5892 29.6968 24.7995 29.8393C23.1576 31.6779 21.5361 33.4962 19.9213 35.3077C18.0691 37.3838 16.2169 39.4531 14.3647 41.5292C14.0187 41.916 13.7948 42.3502 14.0458 42.8794C14.2901 43.395 14.7107 43.6121 15.2874 43.6053C16.4001 43.585 17.5196 43.5986 18.6322 43.5986C19.175 43.5986 19.711 43.5986 20.3827 43.5986C20.1181 43.9242 19.9349 44.1481 19.7517 44.3652C16.8479 47.8322 13.944 51.3127 11.0402 54.8C10.8502 55.0239 10.6671 55.2478 10.6196 55.5531C10.5042 56.3944 11.047 56.9372 12.0308 56.9372C16.2644 56.9372 20.5048 56.9372 24.7384 56.9372C24.908 56.9372 25.0844 56.9372 25.2541 56.9372C25.3762 56.9372 25.478 56.9372 25.5662 56.944C25.5662 56.944 25.5662 56.944 25.5662 56.9372H40.6959C44.4275 56.9372 48.159 56.9372 51.8906 56.9372C52.5012 56.9372 53.0236 56.8015 53.295 56.1977C53.5528 55.6278 53.2747 55.1867 52.9219 54.7593ZM48.9936 54.5965C46.2322 54.5965 43.4641 54.5965 40.7027 54.5965H24.9623C21.6311 54.5965 18.2998 54.5965 14.9685 54.5897C14.7921 54.5897 14.5411 54.6779 14.4529 54.5219C14.3375 54.3047 14.6022 54.1826 14.7175 54.0401C17.6417 50.5325 20.5659 47.018 23.4968 43.5036C23.8632 43.0694 24.1821 42.6216 23.9446 42.0177C23.6868 41.3596 23.1101 41.2443 22.5063 41.2375C21.1493 41.2239 19.7992 41.2307 18.4423 41.2239C18.2726 41.2239 18.0284 41.3189 17.947 41.1222C17.8656 40.9322 18.103 40.8169 18.2184 40.6879C21.5293 36.9767 24.8402 33.2588 28.1579 29.5543C28.565 29.0998 28.721 28.6113 28.4836 28.0481C28.2393 27.4647 27.7169 27.3765 27.1605 27.3765C25.4983 27.3765 23.8293 27.3765 22.167 27.3697C21.9974 27.3697 21.7532 27.4714 21.6785 27.2611C21.6175 27.1051 21.8278 26.9897 21.9296 26.8676C25.1455 23.1903 28.3682 19.5266 31.5706 15.8358C31.9166 15.4355 32.093 15.483 32.4051 15.8425C34.5897 18.3529 36.788 20.8564 38.9862 23.3599C40.0446 24.5676 41.1098 25.7821 42.1682 26.9897C42.236 27.0711 42.2971 27.1593 42.3785 27.2679C42.1953 27.4443 41.985 27.3765 41.8018 27.3765C40.1192 27.3832 38.4366 27.3765 36.754 27.3832C36.3063 27.3832 35.8788 27.4443 35.5871 27.8514C35.2071 28.3874 35.2614 28.9437 35.7906 29.5408C37.7785 31.7661 39.7732 33.9779 41.7611 36.2033C43.0706 37.662 44.3732 39.1207 45.6759 40.5794C45.8319 40.749 45.9744 40.939 46.2186 41.2375C44.6989 41.2375 43.3419 41.2375 41.9918 41.2375C41.6797 41.2375 41.3744 41.2714 41.0623 41.285C40.5467 41.3053 40.1939 41.5564 40.0175 42.0313C39.8411 42.5062 39.9835 42.9201 40.3024 43.3C41.6051 44.8537 42.9077 46.4142 44.2104 47.9747C45.9201 50.0236 47.6366 52.0726 49.3464 54.1283C49.4481 54.2505 49.5295 54.3862 49.6245 54.5219C49.3939 54.6508 49.1835 54.5965 48.9936 54.5965Z" fill="#282828"/>
<path d="M25.6068 58.4841V62.392C25.6068 63.2808 26.4888 64 27.5608 64H36.7201C37.792 64 38.6741 63.274 38.6741 62.392V58.4841H25.6068Z" fill="#282828"/>
<path d="M44.2578 54.9289C44.0611 54.8611 43.9118 54.7322 43.7422 54.6236C43.0976 54.1962 42.4463 53.7755 41.7339 53.4566C41.1776 53.2056 40.6009 53.036 39.9835 53.0563C39.3796 53.0699 38.8165 53.2599 38.2737 53.5177C37.5139 53.8773 36.8083 54.3454 36.1162 54.8136C36.0484 54.8611 35.9737 54.9086 35.8923 54.9561C35.8923 54.8611 35.9534 54.8136 35.9941 54.7525C36.4962 53.9994 37.005 53.2463 37.3782 52.4118C37.5885 51.9504 37.7378 51.4687 37.7717 50.9599C37.8056 50.3764 37.6767 49.8269 37.4596 49.2909C37.1475 48.5378 36.7133 47.8525 36.2723 47.1808C36.1637 47.018 36.0552 46.8552 35.9466 46.6923C35.9263 46.6584 35.8991 46.6313 35.8991 46.5702C36.0552 46.6449 36.1773 46.7466 36.313 46.8348C37.0457 47.3233 37.7852 47.7982 38.5994 48.1443C39.6578 48.5988 40.6891 48.5513 41.7271 48.0764C42.5209 47.71 43.2537 47.2351 43.9796 46.7534C44.0678 46.6923 44.1493 46.6177 44.2782 46.577C44.2239 46.7127 44.1425 46.8077 44.0746 46.9095C43.5726 47.6626 43.0705 48.4224 42.7177 49.2637C42.4463 49.9015 42.3174 50.5596 42.4192 51.2584C42.4938 51.7401 42.6634 52.1879 42.8737 52.6221C43.2333 53.3617 43.6879 54.0469 44.1425 54.7254C44.1764 54.7796 44.2103 54.8271 44.2442 54.8814C44.2442 54.895 44.251 54.9086 44.2578 54.9289Z" fill="#FEE634"/>
<path d="M36.6184 21.0531C36.4827 21.1956 36.3199 21.277 36.157 21.3788C35.5464 21.7723 34.9358 22.1726 34.393 22.6611C33.9656 23.041 33.5992 23.4753 33.3821 24.0113C33.165 24.5405 33.1107 25.0968 33.1243 25.6599C33.1446 26.4537 33.2803 27.234 33.416 28.0142C33.4296 28.0956 33.4432 28.1702 33.4567 28.2652C33.3753 28.2313 33.355 28.1567 33.321 28.1024C32.8665 27.3832 32.4051 26.6573 31.8352 26.0195C31.5163 25.6667 31.1635 25.3478 30.7293 25.1307C30.2408 24.8797 29.7184 24.7779 29.1688 24.7644C28.4022 24.744 27.6491 24.8593 26.896 24.9882C26.7128 25.0154 26.5364 25.0493 26.3532 25.0832C26.3193 25.09 26.2786 25.1036 26.2311 25.0764C26.3532 24.9747 26.4889 24.9 26.611 24.8186C27.3098 24.3708 28.0019 23.9163 28.6125 23.3464C29.4063 22.6136 29.7591 21.6977 29.7387 20.6257C29.7252 19.798 29.5963 18.9906 29.4538 18.1832C29.4334 18.0815 29.3995 17.9865 29.4131 17.8576C29.5081 17.9526 29.5623 18.0611 29.6234 18.1561C30.078 18.8753 30.5461 19.5944 31.1296 20.2186C31.5774 20.6936 32.093 21.0599 32.7308 21.2363C33.1718 21.3585 33.6264 21.3788 34.0809 21.3652C34.8544 21.3381 35.6143 21.2092 36.3809 21.0735C36.442 21.0599 36.4963 21.0531 36.5573 21.0464C36.5777 21.0531 36.598 21.0531 36.6184 21.0531Z" fill="#12A71E"/>
<path d="M41.5168 39.0935C41.3675 39.2156 41.1911 39.2835 41.0283 39.3649C40.377 39.6906 39.7256 40.023 39.1354 40.4504C38.6672 40.7829 38.2602 41.1764 37.982 41.6853C37.7106 42.1873 37.5953 42.7301 37.5478 43.2932C37.4799 44.087 37.5274 44.874 37.5817 45.6611C37.5885 45.7425 37.5885 45.8239 37.5953 45.9121C37.5138 45.8646 37.5071 45.7967 37.4731 45.7357C37.1 44.969 36.7268 44.2024 36.2248 43.5035C35.9466 43.1168 35.6277 42.764 35.2274 42.4994C34.7661 42.1941 34.2572 42.0381 33.7212 41.9634C32.9613 41.8617 32.2015 41.8956 31.4416 41.9363C31.2584 41.9431 31.0752 41.9566 30.892 41.9702C30.8581 41.9702 30.8174 41.977 30.7699 41.9499C30.8988 41.8617 31.0413 41.8074 31.177 41.7395C31.9165 41.3732 32.656 40.9932 33.3277 40.4979C34.1961 39.8534 34.6507 38.985 34.7457 37.9198C34.8203 37.0988 34.7796 36.2779 34.7321 35.4637C34.7253 35.362 34.6982 35.2602 34.7321 35.1381C34.8203 35.2466 34.8543 35.3552 34.9085 35.4637C35.2817 36.2304 35.6616 36.9971 36.1841 37.6823C36.5776 38.2047 37.0525 38.6254 37.6699 38.8696C38.0973 39.0392 38.5451 39.1071 38.9929 39.1478C39.7663 39.2089 40.5398 39.1614 41.3065 39.1071C41.3675 39.1003 41.4218 39.1003 41.4829 39.1003C41.4829 39.0867 41.4964 39.0935 41.5168 39.0935Z" fill="#12A71E"/>
<path d="M30.2069 39.4328C30.0033 39.3581 29.8405 39.2292 29.6709 39.1139C28.9992 38.6661 28.3207 38.2319 27.5812 37.8994C27.0045 37.6416 26.4007 37.4652 25.7561 37.4788C25.1252 37.4924 24.5349 37.6891 23.9718 37.9605C23.178 38.3404 22.4452 38.8222 21.7193 39.3107C21.6446 39.3581 21.57 39.4056 21.4818 39.4599C21.4818 39.3581 21.5429 39.3107 21.5836 39.2496C22.1128 38.4626 22.6352 37.6756 23.0287 36.8071C23.2458 36.3254 23.4019 35.8233 23.4358 35.2874C23.4697 34.6767 23.3408 34.1068 23.1101 33.5437C22.7845 32.7567 22.3299 32.0443 21.8685 31.3387C21.76 31.1691 21.6446 30.9995 21.5293 30.8298C21.509 30.7959 21.4818 30.7688 21.4818 30.7009C21.6446 30.7756 21.7736 30.8841 21.9092 30.9723C22.6759 31.4812 23.4426 31.9764 24.2907 32.3428C25.3898 32.8177 26.4753 32.7702 27.5541 32.2682C28.3818 31.8882 29.1417 31.393 29.9016 30.8841C29.9966 30.8231 30.078 30.7416 30.2137 30.7009C30.1594 30.8434 30.0712 30.9384 30.0033 31.0469C29.4741 31.834 28.9585 32.621 28.5853 33.503C28.3004 34.1679 28.1647 34.8599 28.2733 35.5859C28.3479 36.0879 28.5311 36.5561 28.7482 37.0107C29.1213 37.7841 29.5963 38.4965 30.078 39.2089C30.1119 39.2632 30.1526 39.3174 30.1865 39.3717C30.1865 39.3989 30.1933 39.4192 30.2069 39.4328Z" fill="#FEE634"/>
<path d="M30.5868 48.8634C30.4443 48.9313 30.295 48.9448 30.1526 48.972C29.5826 49.0873 29.0127 49.2095 28.4632 49.4198C28.0357 49.5826 27.6354 49.7997 27.3166 50.1389C27.0045 50.4714 26.8009 50.8717 26.6517 51.2923C26.4413 51.8894 26.3124 52.5136 26.1903 53.131C26.1767 53.192 26.1632 53.2531 26.1496 53.3277C26.0953 53.2802 26.1021 53.2192 26.0953 53.1649C25.9596 52.4932 25.8307 51.8215 25.5865 51.1838C25.4508 50.8242 25.2744 50.4918 25.0234 50.2C24.7316 49.8743 24.372 49.6437 23.9649 49.4808C23.4018 49.2434 22.8048 49.1145 22.2077 48.9923C22.0652 48.9652 21.916 48.9381 21.7735 48.9041C21.7464 48.8974 21.7124 48.8974 21.6853 48.8634C21.8074 48.8227 21.9296 48.8092 22.0449 48.782C22.6962 48.6531 23.3408 48.5106 23.9582 48.2664C24.7588 47.9475 25.288 47.3708 25.5865 46.5634C25.8172 45.946 25.9529 45.3015 26.0818 44.6569C26.0953 44.5755 26.0953 44.4941 26.1496 44.4059C26.1971 44.5077 26.2039 44.6027 26.2175 44.6909C26.3531 45.3626 26.4888 46.0274 26.7467 46.6652C26.9434 47.1469 27.2216 47.5676 27.649 47.8864C27.9408 48.1035 28.2732 48.2528 28.6192 48.3682C29.2027 48.5717 29.8133 48.6938 30.4172 48.8092C30.4646 48.8159 30.5121 48.8295 30.5528 48.8363C30.5596 48.8499 30.5732 48.8566 30.5868 48.8634Z" fill="#12A71E"/>
<path d="M32.0523 0.292084L33.8842 3.9965L37.9753 4.59355L35.0104 7.47703L35.7093 11.5478L32.0523 9.62777L28.3954 11.5478L29.0942 7.47703L26.1361 4.59355L30.2205 3.9965L32.0523 0.292084Z" fill="#FEE634"/>
<path d="M38.1584 5.25167C37.982 5.65875 37.6699 5.94371 37.3171 6.20152C36.7879 6.58825 36.2791 6.99533 35.7499 7.38205C35.5802 7.50418 35.5463 7.6263 35.6142 7.82306C35.8516 8.57615 36.0823 9.32247 36.2926 10.0823C36.4758 10.7269 36.2451 11.3307 35.7024 11.6564C35.1732 11.9753 34.644 11.9278 34.1487 11.5885C33.5177 11.1543 32.8867 10.7201 32.2625 10.2723C32.0794 10.1434 31.9504 10.1502 31.774 10.2791C31.177 10.7065 30.5664 11.1204 29.9625 11.541C29.3858 11.9413 28.7617 11.9685 28.246 11.6021C27.744 11.2493 27.5676 10.6726 27.7711 9.98736C27.9814 9.26819 28.1918 8.5558 28.4224 7.84341C28.4835 7.63987 28.4699 7.51096 28.2867 7.38205C27.6354 6.90713 26.9909 6.41863 26.3599 5.91657C25.7357 5.4145 25.6814 4.51893 26.2174 3.92867C26.5092 3.60979 26.8891 3.48088 27.3165 3.47409C28.0493 3.45374 28.7888 3.48088 29.5215 3.43339C29.7658 3.41982 29.8879 3.34519 29.9625 3.10772C30.1932 2.40212 30.4443 1.69651 30.6953 0.990911C30.9192 0.366723 31.428 -0.0132176 32.0251 0.000351699C32.6221 0.00713635 33.1106 0.373508 33.3277 0.984126C33.5788 1.68973 33.8298 2.38855 34.0605 3.10094C34.1351 3.32483 34.2504 3.41982 34.4947 3.43339C35.1799 3.47409 35.8652 3.48088 36.5504 3.46731C37.3103 3.46052 37.8531 3.75905 38.1448 4.46465C38.1584 4.72247 38.1584 4.98707 38.1584 5.25167ZM28.8092 10.4216C28.7888 10.5369 28.8431 10.6251 28.9245 10.6862C29.0602 10.788 29.1755 10.7133 29.2841 10.6387C30.0915 10.0756 30.9056 9.53279 31.6994 8.94931C31.9437 8.77291 32.1065 8.78648 32.344 8.95609C33.1106 9.51243 33.8976 10.0484 34.6847 10.5912C34.8136 10.6794 34.9425 10.8151 35.1257 10.6794C35.2953 10.5505 35.2274 10.3877 35.1799 10.2316C34.9018 9.31568 34.6304 8.39297 34.3386 7.47704C34.2572 7.22601 34.2979 7.06318 34.5218 6.90713C35.2817 6.35079 36.028 5.77409 36.7743 5.20418C36.9168 5.09563 37.1068 4.99386 37.0322 4.76996C36.9507 4.5325 36.7336 4.59356 36.5572 4.59356C35.6142 4.57321 34.6779 4.54607 33.7348 4.53928C33.477 4.53928 33.3549 4.4443 33.2735 4.20684C32.9681 3.29769 32.6493 2.38855 32.3304 1.48619C32.2761 1.32336 32.2286 1.11982 32.0115 1.1266C31.7944 1.13339 31.7537 1.33014 31.6994 1.49298C31.3941 2.3682 31.0752 3.24342 30.7903 4.13221C30.6885 4.45787 30.5189 4.54607 30.1932 4.54607C29.2434 4.54607 28.2935 4.57999 27.3437 4.60035C27.208 4.60035 27.0655 4.60713 27.0112 4.76318C26.9502 4.92601 27.0316 5.04135 27.1537 5.12955C27.2012 5.16347 27.2487 5.20418 27.303 5.2381C28.0493 5.80801 28.8024 6.37793 29.5555 6.94105C29.7387 7.07674 29.7929 7.21922 29.7183 7.43633C29.5894 7.8027 29.4876 8.17586 29.3723 8.54901C29.1823 9.1732 28.9991 9.79739 28.8092 10.4216Z" fill="#282828"/>
</svg>
