<svg width="64" height="64" viewBox="0 0 64 64" fill="none" xmlns="http://www.w3.org/2000/svg">
<path d="M51.0438 52.1313C48.2875 48.8375 45.5313 45.5375 42.7813 42.2375C42.7 42.1375 42.5375 42.05 42.6 41.9063C42.6625 41.7563 42.8438 41.8313 42.9688 41.8313C44.3688 41.825 45.7688 41.825 47.1625 41.8313C47.4375 41.8313 47.6938 41.8063 47.925 41.6313C48.5063 41.1813 48.5063 40.475 47.9313 39.8313C45.2063 36.7938 42.4813 33.7625 39.7688 30.7188C39.3188 30.2125 38.8063 29.7438 38.375 29.0813C38.6375 29.0813 38.8188 29.0813 38.9938 29.0813C40.5125 29.0813 42.025 29.0688 43.5438 29.0875C44.1 29.0938 44.5438 28.9375 44.7938 28.4188C45.0438 27.8875 44.775 27.5 44.4313 27.1063C40.5125 22.65 36.6063 18.1938 32.7 13.7313C32.0813 13.025 31.45 13 30.8375 13.7063C26.9188 18.1813 23.0063 22.6625 19.0875 27.1375C18.7563 27.5188 18.5188 27.9063 18.75 28.4125C18.9938 28.9375 19.4313 29.1 19.9875 29.0938C21.5188 29.075 23.0563 29.0875 24.5875 29.0938C24.7563 29.0938 24.9438 29.0438 25.1375 29.175C23.625 30.8688 22.1313 32.5438 20.6438 34.2125C18.9375 36.125 17.2313 38.0313 15.525 39.9438C15.2063 40.3 15 40.7 15.2313 41.1875C15.4563 41.6625 15.8438 41.8625 16.375 41.8563C17.4 41.8375 18.4313 41.85 19.4563 41.85C19.9563 41.85 20.45 41.85 21.0688 41.85C20.825 42.15 20.6563 42.3563 20.4875 42.5563C17.8125 45.75 15.1375 48.9563 12.4625 52.1688C12.2875 52.375 12.1188 52.5813 12.075 52.8625C11.9688 53.6375 12.4688 54.1375 13.375 54.1375C17.275 54.1375 21.1813 54.1375 25.0813 54.1375C25.2375 54.1375 25.4 54.1375 25.5563 54.1375C25.6688 54.1375 25.7625 54.1375 25.8438 54.1438C25.8438 54.1438 25.8438 54.1438 25.8438 54.1375H39.7813C43.2188 54.1375 46.6563 54.1375 50.0938 54.1375C50.6563 54.1375 51.1375 54.0125 51.3875 53.4563C51.625 52.9313 51.3688 52.525 51.0438 52.1313ZM47.425 51.9813C44.8813 51.9813 42.3313 51.9813 39.7875 51.9813H25.2875C22.2188 51.9813 19.15 51.9813 16.0813 51.975C15.9188 51.975 15.6875 52.0563 15.6063 51.9125C15.5 51.7125 15.7438 51.6 15.85 51.4688C18.5438 48.2375 21.2375 45 23.9375 41.7625C24.275 41.3625 24.5688 40.95 24.35 40.3938C24.1125 39.7875 23.5813 39.6813 23.025 39.675C21.775 39.6625 20.5313 39.6688 19.2813 39.6625C19.125 39.6625 18.9 39.75 18.825 39.5688C18.75 39.3938 18.9688 39.2875 19.075 39.1688C22.125 35.75 25.175 32.325 28.2313 28.9125C28.6063 28.4938 28.75 28.0438 28.5313 27.525C28.3063 26.9875 27.825 26.9063 27.3125 26.9063C25.7813 26.9063 24.2438 26.9063 22.7125 26.9C22.5563 26.9 22.3313 26.9938 22.2625 26.8C22.2063 26.6563 22.4 26.55 22.4938 26.4375C25.4563 23.05 28.425 19.675 31.375 16.275C31.6938 15.9063 31.8563 15.95 32.1438 16.2813C34.1563 18.5938 36.1813 20.9 38.2063 23.2063C39.1813 24.3188 40.1625 25.4375 41.1375 26.55C41.2 26.625 41.2563 26.7063 41.3313 26.8063C41.1625 26.9688 40.9688 26.9063 40.8 26.9063C39.25 26.9125 37.7 26.9063 36.15 26.9125C35.7375 26.9125 35.3438 26.9688 35.075 27.3438C34.725 27.8375 34.775 28.35 35.2625 28.9C37.0938 30.95 38.9313 32.9875 40.7625 35.0375C41.9688 36.3813 43.1688 37.725 44.3688 39.0688C44.5125 39.225 44.6438 39.4 44.8688 39.675C43.4688 39.675 42.2188 39.675 40.975 39.675C40.6875 39.675 40.4063 39.7063 40.1188 39.7188C39.6438 39.7375 39.3188 39.9688 39.1563 40.4063C38.9938 40.8438 39.125 41.225 39.4188 41.575C40.6188 43.0063 41.8188 44.4438 43.0188 45.8813C44.5938 47.7688 46.175 49.6563 47.75 51.55C47.8438 51.6625 47.9188 51.7875 48.0063 51.9125C47.7938 52.0313 47.6 51.9813 47.425 51.9813Z" fill="#282828"/>
<path d="M25.8812 55.5625V59.1625C25.8812 59.9812 26.6937 60.6437 27.6812 60.6437H36.1187C37.1062 60.6437 37.9187 59.975 37.9187 59.1625V55.5625H25.8812Z" fill="#282828"/>
<path d="M43.0625 52.2875C42.8812 52.225 42.7437 52.1062 42.5875 52.0062C41.9937 51.6125 41.3937 51.225 40.7374 50.9312C40.2249 50.7 39.6937 50.5437 39.125 50.5625C38.5687 50.575 38.0499 50.75 37.5499 50.9875C36.8499 51.3187 36.2 51.75 35.5625 52.1812C35.5 52.225 35.4312 52.2687 35.3562 52.3125C35.3562 52.225 35.4125 52.1812 35.45 52.125C35.9125 51.4312 36.3812 50.7375 36.7249 49.9687C36.9187 49.5437 37.0562 49.1 37.0875 48.6312C37.1187 48.0937 36.9999 47.5875 36.7999 47.0937C36.5124 46.4 36.1124 45.7687 35.7062 45.15C35.6062 45 35.5062 44.85 35.4062 44.7C35.3875 44.6687 35.3624 44.6437 35.3624 44.5875C35.5062 44.6562 35.6187 44.75 35.7437 44.8312C36.4187 45.2812 37.0999 45.7187 37.8499 46.0375C38.8249 46.4562 39.775 46.4125 40.7312 45.975C41.4625 45.6375 42.1375 45.2 42.8062 44.7562C42.8875 44.7 42.9624 44.6312 43.0812 44.5937C43.0312 44.7187 42.9562 44.8062 42.8937 44.9C42.4312 45.5937 41.9687 46.2937 41.6437 47.0687C41.3937 47.6562 41.275 48.2625 41.3687 48.9062C41.4375 49.35 41.5937 49.7625 41.7874 50.1625C42.1187 50.8437 42.5374 51.475 42.9562 52.1C42.9874 52.15 43.0187 52.1937 43.0499 52.2437C43.0499 52.2562 43.0562 52.2687 43.0625 52.2875Z" fill="#FEE634"/>
<path d="M36.0251 21.0813C35.9001 21.2125 35.75 21.2875 35.6 21.3813C35.0375 21.7438 34.475 22.1125 33.975 22.5625C33.5813 22.9125 33.2438 23.3125 33.0438 23.8063C32.8438 24.2938 32.7938 24.8063 32.8063 25.325C32.8251 26.0563 32.9501 26.775 33.0751 27.4938C33.0876 27.5688 33.1 27.6375 33.1125 27.725C33.0375 27.6938 33.0188 27.625 32.9875 27.575C32.5688 26.9125 32.1438 26.2438 31.6188 25.6563C31.325 25.3313 31.0001 25.0375 30.6 24.8375C30.15 24.6063 29.6688 24.5125 29.1625 24.5C28.4563 24.4813 27.7625 24.5875 27.0688 24.7063C26.9 24.7313 26.7375 24.7625 26.5688 24.7938C26.5375 24.8 26.5 24.8125 26.4563 24.7875C26.5688 24.6938 26.6938 24.625 26.8063 24.55C27.45 24.1375 28.0875 23.7188 28.65 23.1938C29.3813 22.5188 29.7063 21.675 29.6875 20.6875C29.675 19.925 29.5563 19.1813 29.425 18.4375C29.4063 18.3438 29.3751 18.2563 29.3876 18.1375C29.4751 18.225 29.525 18.325 29.5813 18.4125C30 19.075 30.4313 19.7375 30.9688 20.3125C31.3813 20.75 31.8563 21.0875 32.4438 21.25C32.85 21.3625 33.2688 21.3813 33.6875 21.3688C34.4 21.3438 35.1001 21.225 35.8063 21.1C35.8626 21.0875 35.9125 21.0813 35.9688 21.075C35.9875 21.0813 36.0063 21.0813 36.0251 21.0813Z" fill="#12A71E"/>
<path d="M40.5374 37.7C40.3999 37.8125 40.2375 37.875 40.0875 37.95C39.4875 38.25 38.8875 38.5562 38.3437 38.95C37.9125 39.2562 37.5375 39.6187 37.2812 40.0875C37.0312 40.55 36.9249 41.05 36.8812 41.5687C36.8187 42.3 36.8624 43.025 36.9124 43.75C36.9187 43.825 36.9187 43.9 36.9249 43.9812C36.8499 43.9375 36.8437 43.875 36.8125 43.8187C36.4687 43.1125 36.1249 42.4062 35.6624 41.7625C35.4062 41.4062 35.1125 41.0812 34.7437 40.8375C34.3187 40.5562 33.85 40.4125 33.3562 40.3437C32.6562 40.25 31.9562 40.2812 31.2562 40.3187C31.0875 40.325 30.9187 40.3375 30.75 40.35C30.7187 40.35 30.6812 40.3562 30.6375 40.3312C30.7562 40.25 30.8875 40.2 31.0125 40.1375C31.6937 39.8 32.375 39.45 32.9937 38.9937C33.7937 38.4 34.2124 37.6 34.2999 36.6187C34.3687 35.8625 34.3312 35.1062 34.2874 34.3562C34.2812 34.2625 34.2562 34.1687 34.2874 34.0562C34.3687 34.1562 34.4 34.2562 34.45 34.3562C34.7937 35.0625 35.1437 35.7687 35.625 36.4C35.9875 36.8812 36.425 37.2687 36.9937 37.4937C37.3875 37.65 37.8 37.7125 38.2125 37.75C38.925 37.8062 39.6375 37.7625 40.3437 37.7125C40.4 37.7062 40.4499 37.7062 40.5062 37.7062C40.5062 37.6937 40.5187 37.7 40.5374 37.7Z" fill="#12A71E"/>
<path d="M30.1188 38.0125C29.9313 37.9438 29.7813 37.825 29.625 37.7188C29.0063 37.3063 28.3813 36.9062 27.7001 36.6C27.1688 36.3625 26.6125 36.2 26.0188 36.2125C25.4375 36.225 24.8938 36.4062 24.375 36.6562C23.6438 37.0062 22.9688 37.45 22.3 37.9C22.2313 37.9438 22.1625 37.9875 22.0813 38.0375C22.0813 37.9437 22.1375 37.9 22.175 37.8438C22.6625 37.1188 23.1438 36.3938 23.5063 35.5938C23.7063 35.15 23.85 34.6875 23.8813 34.1937C23.9125 33.6312 23.7938 33.1063 23.5813 32.5875C23.2813 31.8625 22.8625 31.2062 22.4375 30.5562C22.3375 30.4 22.2313 30.2437 22.125 30.0875C22.1063 30.0562 22.0813 30.0312 22.0813 29.9688C22.2313 30.0375 22.35 30.1375 22.475 30.2188C23.1813 30.6875 23.8876 31.1438 24.6688 31.4813C25.6813 31.9188 26.6813 31.875 27.675 31.4125C28.4375 31.0625 29.1375 30.6063 29.8375 30.1375C29.925 30.0813 30 30.0063 30.125 29.9688C30.075 30.1 29.9938 30.1875 29.9313 30.2875C29.4438 31.0125 28.9688 31.7375 28.625 32.55C28.3625 33.1625 28.2375 33.8 28.3375 34.4688C28.4063 34.9313 28.575 35.3625 28.775 35.7812C29.1188 36.4938 29.5563 37.15 30 37.8063C30.0313 37.8563 30.0688 37.9062 30.1 37.9562C30.1 37.9812 30.1063 38 30.1188 38.0125Z" fill="#FEE634"/>
<path d="M30.4688 46.7C30.3375 46.7625 30.2 46.775 30.0688 46.8C29.5438 46.9062 29.0188 47.0188 28.5126 47.2125C28.1188 47.3625 27.75 47.5625 27.4563 47.875C27.1688 48.1813 26.9813 48.55 26.8438 48.9375C26.65 49.4875 26.5313 50.0625 26.4188 50.6312C26.4063 50.6875 26.3938 50.7437 26.3813 50.8125C26.3313 50.7688 26.3375 50.7125 26.3313 50.6625C26.2063 50.0437 26.0875 49.425 25.8625 48.8375C25.7375 48.5063 25.575 48.2 25.3438 47.9313C25.075 47.6313 24.7438 47.4187 24.3688 47.2687C23.85 47.05 23.3 46.9312 22.75 46.8187C22.6188 46.7937 22.4813 46.7687 22.35 46.7375C22.325 46.7312 22.2938 46.7313 22.2688 46.7C22.3813 46.6625 22.4938 46.65 22.6 46.625C23.2 46.5062 23.7938 46.375 24.3625 46.15C25.1 45.8563 25.5875 45.325 25.8625 44.5812C26.075 44.0125 26.2 43.4188 26.3188 42.825C26.3313 42.75 26.3313 42.675 26.3813 42.5938C26.425 42.6875 26.4313 42.775 26.4438 42.8563C26.5688 43.475 26.6938 44.0875 26.9313 44.675C27.1125 45.1187 27.3688 45.5062 27.7626 45.8C28.0313 46 28.3375 46.1375 28.6563 46.2438C29.1938 46.4313 29.7563 46.5438 30.3125 46.65C30.3563 46.6563 30.4 46.6687 30.4375 46.675C30.4438 46.6875 30.4563 46.6938 30.4688 46.7Z" fill="#12A71E"/>
<path d="M31.8188 1.95624L33.5063 5.36874L37.275 5.91874L34.5438 8.57499L35.1875 12.325L31.8188 10.5562L28.45 12.325L29.0938 8.57499L26.3688 5.91874L30.1313 5.36874L31.8188 1.95624Z" fill="#FEE634"/>
<path d="M37.4437 6.52499C37.2812 6.89999 36.9937 7.16249 36.6687 7.39999C36.1812 7.75624 35.7125 8.13124 35.225 8.48749C35.0687 8.59999 35.0375 8.71249 35.1 8.89374C35.3187 9.58749 35.5312 10.275 35.725 10.975C35.8937 11.5687 35.6813 12.125 35.1813 12.425C34.6938 12.7187 34.2062 12.675 33.75 12.3625C33.1687 11.9625 32.5875 11.5625 32.0125 11.15C31.8438 11.0312 31.725 11.0375 31.5625 11.1562C31.0125 11.55 30.45 11.9312 29.8937 12.3187C29.3625 12.6875 28.7875 12.7125 28.3125 12.375C27.85 12.05 27.6875 11.5187 27.875 10.8875C28.0687 10.225 28.2625 9.56874 28.475 8.91249C28.5312 8.72499 28.5187 8.60624 28.35 8.48749C27.75 8.04999 27.1562 7.59999 26.575 7.13749C26 6.67499 25.95 5.84999 26.4437 5.30624C26.7125 5.01249 27.0625 4.89374 27.4562 4.88749C28.1312 4.86874 28.8125 4.89374 29.4875 4.84999C29.7125 4.83749 29.825 4.76874 29.8937 4.54999C30.1062 3.89999 30.3375 3.24999 30.5687 2.59999C30.775 2.02499 31.2437 1.67499 31.7937 1.68749C32.3438 1.69374 32.7938 2.03124 32.9938 2.59374C33.225 3.24374 33.4562 3.88749 33.6687 4.54374C33.7375 4.74999 33.8437 4.83749 34.0687 4.84999C34.7 4.88749 35.3313 4.89374 35.9625 4.88124C36.6625 4.87499 37.1625 5.14999 37.4313 5.79999C37.4438 6.03749 37.4437 6.28124 37.4437 6.52499ZM28.8312 11.2875C28.8125 11.3937 28.8625 11.475 28.9375 11.5312C29.0625 11.625 29.1687 11.5562 29.2687 11.4875C30.0125 10.9687 30.7625 10.4687 31.4937 9.93124C31.7187 9.76874 31.8688 9.78124 32.0875 9.93749C32.7938 10.45 33.5188 10.9437 34.2438 11.4437C34.3625 11.525 34.4813 11.65 34.65 11.525C34.8063 11.4062 34.7437 11.2562 34.7 11.1125C34.4437 10.2687 34.1937 9.41874 33.925 8.57499C33.85 8.34374 33.8875 8.19374 34.0937 8.04999C34.7937 7.53749 35.4812 7.00624 36.1687 6.48124C36.3 6.38124 36.475 6.28749 36.4062 6.08124C36.3312 5.86249 36.1312 5.91874 35.9687 5.91874C35.1 5.89999 34.2375 5.87499 33.3688 5.86874C33.1313 5.86874 33.0187 5.78124 32.9437 5.56249C32.6625 4.72499 32.3687 3.88749 32.075 3.05624C32.025 2.90624 31.9812 2.71874 31.7812 2.72499C31.5812 2.73124 31.5437 2.91249 31.4937 3.06249C31.2125 3.86874 30.9187 4.67499 30.6562 5.49374C30.5625 5.79374 30.4062 5.87499 30.1062 5.87499C29.2312 5.87499 28.3562 5.90624 27.4812 5.92499C27.3562 5.92499 27.225 5.93124 27.175 6.07499C27.1187 6.22499 27.1937 6.33124 27.3062 6.41249C27.35 6.44374 27.3937 6.48124 27.4437 6.51249C28.1312 7.03749 28.825 7.56249 29.5187 8.08124C29.6875 8.20624 29.7375 8.33749 29.6687 8.53749C29.55 8.87499 29.4562 9.21874 29.35 9.56249C29.175 10.1375 29.0062 10.7125 28.8312 11.2875Z" fill="#282828"/>
</svg>
