<svg width="512" height="512" viewBox="0 0 512 512" fill="none" xmlns="http://www.w3.org/2000/svg">
<g clip-path="url(#clip0_4651_590)">
<path d="M502 173.4C504.652 173.4 507.196 172.346 509.071 170.471C510.946 168.596 512 166.052 512 163.4C512 160.748 510.946 158.204 509.071 156.329C507.196 154.454 504.652 153.4 502 153.4H476V111H502C504.652 111 507.196 109.946 509.071 108.071C510.946 106.196 512 103.652 512 101C512 98.3478 510.946 95.8043 509.071 93.9289C507.196 92.0536 504.652 91 502 91H476V66C476 58.0435 472.839 50.4129 467.213 44.7868C461.587 39.1607 453.956 36 446 36H422V11C422 8.34784 420.946 5.8043 419.071 3.92893C417.196 2.05357 414.652 1 412 1C409.348 1 406.804 2.05357 404.929 3.92893C403.054 5.8043 402 8.34784 402 11V36H359.6V11C359.6 8.34784 358.546 5.8043 356.671 3.92893C354.796 2.05357 352.252 1 349.6 1C346.948 1 344.404 2.05357 342.529 3.92893C340.654 5.8043 339.6 8.34784 339.6 11V36H297.2V11C297.2 8.34784 296.146 5.8043 294.271 3.92893C292.396 2.05357 289.852 1 287.2 1C284.548 1 282.004 2.05357 280.129 3.92893C278.254 5.8043 277.2 8.34784 277.2 11V36H234.8V11C234.8 8.34784 233.746 5.8043 231.871 3.92893C229.996 2.05357 227.452 1 224.8 1C222.148 1 219.604 2.05357 217.729 3.92893C215.854 5.8043 214.8 8.34784 214.8 11V36H172.4V11C172.4 8.34784 171.346 5.8043 169.471 3.92893C167.596 2.05357 165.052 1 162.4 1C159.748 1 157.204 2.05357 155.329 3.92893C153.454 5.8043 152.4 8.34784 152.4 11V36H110V11C110 8.34784 108.946 5.8043 107.071 3.92893C105.196 2.05357 102.652 1 100 1C97.3478 1 94.8043 2.05357 92.9289 3.92893C91.0536 5.8043 90 8.34784 90 11V36H66C58.0435 36 50.4129 39.1607 44.7868 44.7868C39.1607 50.4129 36 58.0435 36 66V91H10C7.34784 91 4.8043 92.0536 2.92893 93.9289C1.05357 95.8043 0 98.3478 0 101C0 103.652 1.05357 106.196 2.92893 108.071C4.8043 109.946 7.34784 111 10 111H36V153.4H10C7.34784 153.4 4.8043 154.454 2.92893 156.329C1.05357 158.204 4.21468e-07 160.748 4.21468e-07 163.4C4.21468e-07 166.052 1.05357 168.596 2.92893 170.471C4.8043 172.346 7.34784 173.4 10 173.4H36V215.8H10C7.34784 215.8 4.8043 216.854 2.92893 218.729C1.05357 220.604 0 223.148 0 225.8C0 228.452 1.05357 230.996 2.92893 232.871C4.8043 234.746 7.34784 235.8 10 235.8H36V278.2H10C7.34784 278.2 4.8043 279.254 2.92893 281.129C1.05357 283.004 0 285.548 0 288.2C0 290.852 1.05357 293.396 2.92893 295.271C4.8043 297.146 7.34784 298.2 10 298.2H36V340.6H10C7.34784 340.6 4.8043 341.654 2.92893 343.529C1.05357 345.404 0 347.948 0 350.6C0 353.252 1.05357 355.796 2.92893 357.671C4.8043 359.546 7.34784 360.6 10 360.6H36V403H10C7.34784 403 4.8043 404.054 2.92893 405.929C1.05357 407.804 0 410.348 0 413C0 415.652 1.05357 418.196 2.92893 420.071C4.8043 421.946 7.34784 423 10 423H36V446C36 453.956 39.1607 461.587 44.7868 467.213C50.4129 472.839 58.0435 476 66 476H90V503C90 505.652 91.0536 508.196 92.9289 510.071C94.8043 511.946 97.3478 513 100 513C102.652 513 105.196 511.946 107.071 510.071C108.946 508.196 110 505.652 110 503V476H214.8V503C214.8 505.652 215.854 508.196 217.729 510.071C219.604 511.946 222.148 513 224.8 513C227.452 513 229.996 511.946 231.871 510.071C233.746 508.196 234.8 505.652 234.8 503V476H277.2V503C277.2 505.652 278.254 508.196 280.129 510.071C282.004 511.946 284.548 513 287.2 513C289.852 513 292.396 511.946 294.271 510.071C296.146 508.196 297.2 505.652 297.2 503V476H339.6V503C339.6 505.652 340.654 508.196 342.529 510.071C344.404 511.946 346.948 513 349.6 513C352.252 513 354.796 511.946 356.671 510.071C358.546 508.196 359.6 505.652 359.6 503V476H402V503C402 505.652 403.054 508.196 404.929 510.071C406.804 511.946 409.348 513 412 513C414.652 513 417.196 511.946 419.071 510.071C420.946 508.196 422 505.652 422 503V476H446C453.956 476 461.587 472.839 467.213 467.213C472.839 461.587 476 453.956 476 446V423H502C504.652 423 507.196 421.946 509.071 420.071C510.946 418.196 512 415.652 512 413C512 410.348 510.946 407.804 509.071 405.929C507.196 404.054 504.652 403 502 403H476V360.6H502C504.652 360.6 507.196 359.546 509.071 357.671C510.946 355.796 512 353.252 512 350.6C512 347.948 510.946 345.404 509.071 343.529C507.196 341.654 504.652 340.6 502 340.6H476V298.2H502C504.652 298.2 507.196 297.146 509.071 295.271C510.946 293.396 512 290.852 512 288.2C512 285.548 510.946 283.004 509.071 281.129C507.196 279.254 504.652 278.2 502 278.2H476V235.8H502C504.652 235.8 507.196 234.746 509.071 232.871C510.946 230.996 512 228.452 512 225.8C512 223.148 510.946 220.604 509.071 218.729C507.196 216.854 504.652 215.8 502 215.8H476V173.4H502ZM456 446C456 448.652 454.946 451.196 453.071 453.071C451.196 454.946 448.652 456 446 456H297.2V388C297.2 386.674 297.727 385.402 298.664 384.464C299.602 383.527 300.874 383 302.2 383H397C398.326 383 399.598 382.473 400.536 381.536C401.473 380.598 402 379.326 402 378V328.28C395.531 330.573 388.469 330.573 382 328.28V358C382 359.326 381.473 360.598 380.536 361.536C379.598 362.473 378.326 363 377 363H282.2C280.874 363 279.602 363.527 278.664 364.464C277.727 365.402 277.2 366.674 277.2 368V456H110V416.83L167.47 384.27C168.239 383.833 168.878 383.201 169.322 382.436C169.767 381.672 170 380.804 170 379.92V329.92C163.613 332.447 156.552 332.701 150 330.64V368.28C150 369.164 149.767 370.032 149.322 370.796C148.878 371.561 148.239 372.193 147.47 372.63L90 405.17V456H66C63.3478 456 60.8043 454.946 58.9289 453.071C57.0536 451.196 56 448.652 56 446V173.4H155.79C157.114 173.4 158.383 173.925 159.32 174.86L214.13 229.67C217.19 223.528 222.256 218.617 228.49 215.75L167.6 154.86C166.663 153.925 165.394 153.4 164.07 153.4H56V66C56 63.3478 57.0536 60.8043 58.9289 58.9289C60.8043 57.0536 63.3478 56 66 56H277.2V105.17C277.2 106.494 277.725 107.763 278.66 108.7L330 160C332.989 153.827 337.99 148.854 344.18 145.9L298.7 100.42C297.765 99.4829 297.24 98.2135 297.24 96.89V56H446C448.652 56 451.196 57.0536 453.071 58.9289C454.946 60.8043 456 63.3478 456 66V446Z" fill="black"/>
<path d="M351.19 164.87C350.89 165.297 350.555 165.698 350.19 166.07C349.803 166.461 349.381 166.816 348.93 167.13C349.557 166.26 350.32 165.497 351.19 164.87Z" fill="black"/>
<path d="M241 213C236.679 212.993 232.41 213.932 228.49 215.75C222.256 218.617 217.19 223.528 214.13 229.67C212.062 233.809 210.991 238.374 211 243C211 248.933 212.76 254.734 216.056 259.667C219.352 264.601 224.038 268.446 229.52 270.716C235.001 272.987 241.033 273.581 246.853 272.424C252.672 271.266 258.018 268.409 262.213 264.213C266.409 260.018 269.266 254.672 270.424 248.853C271.581 243.033 270.987 237.001 268.716 231.52C266.446 226.038 262.601 221.352 257.667 218.056C252.734 214.76 246.934 213 241 213ZM241 253C239.022 253 237.089 252.414 235.444 251.315C233.8 250.216 232.518 248.654 231.761 246.827C231.004 245 230.806 242.989 231.192 241.049C231.578 239.109 232.53 237.327 233.929 235.929C235.328 234.53 237.109 233.578 239.049 233.192C240.989 232.806 243 233.004 244.827 233.761C246.654 234.518 248.216 235.8 249.315 237.444C250.414 239.089 251 241.022 251 243C251 245.652 249.946 248.196 248.071 250.071C246.196 251.946 243.652 253 241 253Z" fill="black"/>
<path d="M357 143C352.551 142.994 348.156 143.985 344.14 145.9C337.965 148.861 332.979 153.833 330 160C327.18 165.866 326.343 172.49 327.618 178.873C328.892 185.256 332.207 191.051 337.064 195.385C341.92 199.718 348.055 202.354 354.541 202.896C361.027 203.438 367.514 201.855 373.022 198.387C378.53 194.919 382.76 189.754 385.075 183.671C387.39 177.587 387.664 170.916 385.856 164.664C384.047 158.411 380.254 152.917 375.049 149.009C369.844 145.101 363.509 142.992 357 143ZM357 183C354.348 183 351.804 181.946 349.929 180.071C348.054 178.196 347 175.652 347 173C346.993 170.894 347.659 168.841 348.9 167.14C349.903 165.753 351.246 164.646 352.799 163.927C354.353 163.207 356.065 162.898 357.772 163.03C359.479 163.161 361.124 163.729 362.548 164.678C363.973 165.628 365.13 166.927 365.909 168.452C366.688 169.976 367.062 171.676 366.996 173.386C366.93 175.097 366.425 176.762 365.531 178.222C364.637 179.682 363.383 180.888 361.889 181.725C360.396 182.562 358.712 183.001 357 183Z" fill="#00D151"/>
<path d="M392 270C384.925 270.003 378.079 272.506 372.671 277.067C367.263 281.628 363.64 287.954 362.444 294.927C361.247 301.899 362.554 309.071 366.132 315.174C369.71 321.277 375.331 325.919 382 328.28C388.469 330.573 395.53 330.573 402 328.28C408.669 325.919 414.289 321.277 417.867 315.174C421.446 309.071 422.752 301.899 421.556 294.927C420.359 287.954 416.737 281.628 411.329 277.067C405.921 272.506 399.074 270.003 392 270ZM392 310C390.022 310 388.089 309.414 386.444 308.315C384.8 307.216 383.518 305.654 382.761 303.827C382.004 302 381.806 299.989 382.192 298.049C382.578 296.109 383.53 294.327 384.929 292.929C386.327 291.53 388.109 290.578 390.049 290.192C391.989 289.806 393.999 290.004 395.827 290.761C397.654 291.518 399.216 292.8 400.314 294.444C401.413 296.089 402 298.022 402 300C402 302.652 400.946 305.196 399.071 307.071C397.195 308.946 394.652 310 392 310Z" fill="black"/>
<path d="M159 272C151.044 272 143.413 275.161 137.787 280.787C132.161 286.413 129 294.044 129 302C129 309.956 132.161 317.587 137.787 323.213C143.413 328.839 151.044 332 159 332C162.767 332.006 166.5 331.293 170 329.9C176.492 327.334 181.886 322.585 185.253 316.47C188.62 310.356 189.749 303.258 188.446 296.401C187.143 289.543 183.49 283.354 178.115 278.9C172.74 274.446 165.98 272.006 159 272ZM159 312C157.022 312 155.089 311.414 153.444 310.315C151.8 309.216 150.518 307.654 149.761 305.827C149.004 304 148.806 301.989 149.192 300.049C149.578 298.109 150.53 296.327 151.929 294.929C153.327 293.53 155.109 292.578 157.049 292.192C158.989 291.806 161 292.004 162.827 292.761C164.654 293.518 166.216 294.8 167.315 296.444C168.414 298.089 169 300.022 169 302C169 303.313 168.741 304.614 168.239 305.827C167.736 307.04 167 308.142 166.071 309.071C165.142 310 164.04 310.736 162.827 311.239C161.614 311.741 160.313 312 159 312Z" fill="#00D151"/>
</g>
<defs>
<clipPath id="clip0_4651_590">
<rect width="512" height="512" fill="white"/>
</clipPath>
</defs>
</svg>
