<?xml version="1.0" encoding="UTF-8"?>
<svg height="600" width="800" xmlns="http://www.w3.org/2000/svg" xmlns:xlink="http://www.w3.org/1999/xlink">
    <g id="Notes" font-family="'LucidaGrande', 'Lucida Grande', sans-serif" font-size="13">
        <rect fill="white" height="600.0" width="800.0" x="0.0" y="0.0" />
        <g font-size="13">
            <text x="18.0" y="176.0">Small</text>
            <text x="18.0" y="376.0">Medium</text>
            <text x="18.0" y="576.0">Large</text>
        </g>
        <g font-size="9">
            <text x="250.0" y="30.0">Ultralight</text>
            <text x="450.0" y="30.0">Regular</text>
            <text x="650.0" y="30.0">Black</text>
            <text id="template-version" fill="#505050" text-anchor="end" x="785.0" y="575.0">Template v.3.0</text>
            <a href="https://github.com/swhitty/SwiftDraw">
                <text fill="#505050" text-anchor="end" x="785.0" y="590.0">https://github.com/swhitty/SwiftDraw</text>
            </a>
        </g>
    </g>
    <g id="Guides" stroke="rgb(39, 170, 225)" stroke-width="0.5">
        <path id="Capline-S" d="M18,76 l800,0" />
        <path id="H-reference" d="M85,145.755 L87.685,145.755 L113.369,79.287 L114.052,79.287 L114.052,76 L112.148,76 L85,145.755 Z M95.693,121.536 L130.996,121.536 L130.263,119.313 L96.474,119.313 L95.693,121.536 Z M139.15,145.755 L141.787,145.755 L114.638,76 L113.466,76 L113.466,79.287 L139.15,145.755 Z" stroke="none" />
        <path id="Baseline-S" d="M18,146 l800,0" />
        <path id="left-margin-Ultralight-S" d="M217.667,56 l0,110" />
        <path id="right-margin-Ultralight-S" d="M312.333,56 l0,110" />
        <path id="left-margin-Regular-S" d="M417.667,56 l0,110" />
        <path id="right-margin-Regular-S" d="M512.333,56 l0,110" />
        <path id="left-margin-Black-S" d="M617.667,56 l0,110" />
        <path id="right-margin-Black-S" d="M712.333,56 l0,110" />
        <path id="Capline-M" d="M18,276 l800,0" />
        <path id="Baseline-M" d="M18,346 l800,0" />
        <path id="Capline-L" d="M18,476 l800,0" />
        <path id="Baseline-L" d="M18,546 l800,0" />
    </g>
    <g id="Symbols">
        <g id="Ultralight-S">
            <path d="M230,84.458 C230,83.653 230.653,83 231.458,83 L298.542,83 C299.347,83 300,83.653 300,84.458 L300,144.542 C300,145.347 299.347,146 298.542,146 L231.458,146 C230.653,146 230,145.347 230,144.542 L230,84.458 Z M232.917,85.917 L232.917,143.083 L297.083,143.083 L297.083,85.917 L232.917,85.917 Z" />
            <path d="M227.667,77.458 C227.667,76.653 228.32,76 229.125,76 L300.875,76 C301.68,76 302.333,76.653 302.333,77.458 L302.333,84.458 C302.333,85.264 301.68,85.917 300.875,85.917 L229.125,85.917 C228.32,85.917 227.667,85.264 227.667,84.458 L227.667,77.458 Z M230.583,78.917 L230.583,83 L299.417,83 L299.417,78.917 L230.583,78.917 Z" />
            <path d="M235.833,84.458 C235.833,83.653 236.486,83 237.292,83 L262.083,83 C262.889,83 263.542,83.653 263.542,84.458 L263.542,108.083 C263.542,108.889 262.889,109.542 262.083,109.542 L237.292,109.542 C236.486,109.542 235.833,108.889 235.833,108.083 L235.833,84.458 Z M238.75,85.917 L238.75,106.625 L260.625,106.625 L260.625,85.917 L238.75,85.917 Z" />
            <path d="M266.458,84.458 C266.458,83.653 267.111,83 267.917,83 L292.708,83 C293.514,83 294.167,83.653 294.167,84.458 L294.167,108.083 C294.167,108.889 293.514,109.542 292.708,109.542 L267.917,109.542 C267.111,109.542 266.458,108.889 266.458,108.083 L266.458,84.458 Z M269.375,85.917 L269.375,106.625 L291.25,106.625 L291.25,85.917 L269.375,85.917 Z" />
            <path d="M235.833,113.917 C235.833,113.111 236.486,112.458 237.292,112.458 L262.083,112.458 C262.889,112.458 263.542,113.111 263.542,113.917 L263.542,138.708 C263.542,139.514 262.889,140.167 262.083,140.167 L237.292,140.167 C236.486,140.167 235.833,139.514 235.833,138.708 L235.833,113.917 Z M238.75,115.375 L238.75,137.25 L260.625,137.25 L260.625,115.375 L238.75,115.375 Z" />
            <path d="M266.458,113.917 C266.458,113.111 267.111,112.458 267.917,112.458 L292.708,112.458 C293.514,112.458 294.167,113.111 294.167,113.917 L294.167,138.708 C294.167,139.514 293.514,140.167 292.708,140.167 L267.917,140.167 C267.111,140.167 266.458,139.514 266.458,138.708 L266.458,113.917 Z M269.375,115.375 L269.375,137.25 L291.25,137.25 L291.25,115.375 L269.375,115.375 Z" />
            <path d="M269.297,93.235 C268.747,93.026 268.179,92.86 267.598,92.74 L267.01,95.597 C268.491,95.902 269.857,96.616 270.953,97.659 C272.049,98.701 272.83,100.03 273.208,101.494 C273.374,102.138 273.955,102.588 274.62,102.588 L276.123,102.588 C277.318,102.588 278.464,103.063 279.309,103.908 C280.154,104.753 280.629,105.899 280.629,107.094 L283.546,107.094 C283.546,106.866 283.535,106.64 283.515,106.415 C286.663,104.676 288.796,101.323 288.796,97.472 C288.796,91.834 284.226,87.264 278.588,87.264 C274.461,87.264 270.907,89.712 269.297,93.235 Z M271.87,94.632 C272.977,92.016 275.568,90.18 278.588,90.18 C282.615,90.18 285.879,93.445 285.879,97.472 C285.879,100.001 284.592,102.229 282.638,103.537 C282.301,102.921 281.877,102.35 281.372,101.845 C279.98,100.453 278.092,99.671 276.123,99.671 L275.688,99.671 C275.106,98.112 274.177,96.7 272.964,95.546 C272.618,95.217 272.252,94.912 271.87,94.632 Z M255.505,108.364 C254.598,106.517 254.227,104.452 254.435,102.405 C254.643,100.357 255.421,98.409 256.681,96.782 C257.94,95.154 259.631,93.913 261.561,93.199 L262.573,95.934 C261.155,96.459 259.913,97.371 258.987,98.567 C258.061,99.763 257.49,101.195 257.337,102.699 C257.184,104.204 257.457,105.721 258.123,107.079 L255.505,108.364 Z" />
        </g>
        <g id="Regular-S">
            <path d="M430,84.458 C430,83.653 430.653,83 431.458,83 L498.542,83 C499.347,83 500,83.653 500,84.458 L500,144.542 C500,145.347 499.347,146 498.542,146 L431.458,146 C430.653,146 430,145.347 430,144.542 L430,84.458 Z M432.917,85.917 L432.917,143.083 L497.083,143.083 L497.083,85.917 L432.917,85.917 Z" />
            <path d="M427.667,77.458 C427.667,76.653 428.32,76 429.125,76 L500.875,76 C501.68,76 502.333,76.653 502.333,77.458 L502.333,84.458 C502.333,85.264 501.68,85.917 500.875,85.917 L429.125,85.917 C428.32,85.917 427.667,85.264 427.667,84.458 L427.667,77.458 Z M430.583,78.917 L430.583,83 L499.417,83 L499.417,78.917 L430.583,78.917 Z" />
            <path d="M435.833,84.458 C435.833,83.653 436.486,83 437.292,83 L462.083,83 C462.889,83 463.542,83.653 463.542,84.458 L463.542,108.083 C463.542,108.889 462.889,109.542 462.083,109.542 L437.292,109.542 C436.486,109.542 435.833,108.889 435.833,108.083 L435.833,84.458 Z M438.75,85.917 L438.75,106.625 L460.625,106.625 L460.625,85.917 L438.75,85.917 Z" />
            <path d="M466.458,84.458 C466.458,83.653 467.111,83 467.917,83 L492.708,83 C493.514,83 494.167,83.653 494.167,84.458 L494.167,108.083 C494.167,108.889 493.514,109.542 492.708,109.542 L467.917,109.542 C467.111,109.542 466.458,108.889 466.458,108.083 L466.458,84.458 Z M469.375,85.917 L469.375,106.625 L491.25,106.625 L491.25,85.917 L469.375,85.917 Z" />
            <path d="M435.833,113.917 C435.833,113.111 436.486,112.458 437.292,112.458 L462.083,112.458 C462.889,112.458 463.542,113.111 463.542,113.917 L463.542,138.708 C463.542,139.514 462.889,140.167 462.083,140.167 L437.292,140.167 C436.486,140.167 435.833,139.514 435.833,138.708 L435.833,113.917 Z M438.75,115.375 L438.75,137.25 L460.625,137.25 L460.625,115.375 L438.75,115.375 Z" />
            <path d="M466.458,113.917 C466.458,113.111 467.111,112.458 467.917,112.458 L492.708,112.458 C493.514,112.458 494.167,113.111 494.167,113.917 L494.167,138.708 C494.167,139.514 493.514,140.167 492.708,140.167 L467.917,140.167 C467.111,140.167 466.458,139.514 466.458,138.708 L466.458,113.917 Z M469.375,115.375 L469.375,137.25 L491.25,137.25 L491.25,115.375 L469.375,115.375 Z" />
            <path d="M469.297,93.235 C468.747,93.026 468.179,92.86 467.598,92.74 L467.01,95.597 C468.491,95.902 469.857,96.616 470.953,97.659 C472.049,98.701 472.83,100.03 473.208,101.494 C473.374,102.138 473.955,102.588 474.62,102.588 L476.123,102.588 C477.318,102.588 478.464,103.063 479.309,103.908 C480.154,104.753 480.629,105.899 480.629,107.094 L483.546,107.094 C483.546,106.866 483.535,106.64 483.515,106.415 C486.663,104.676 488.796,101.323 488.796,97.472 C488.796,91.834 484.226,87.264 478.588,87.264 C474.461,87.264 470.907,89.712 469.297,93.235 Z M471.87,94.632 C472.977,92.016 475.568,90.18 478.588,90.18 C482.615,90.18 485.879,93.445 485.879,97.472 C485.879,100.001 484.592,102.229 482.638,103.537 C482.301,102.921 481.877,102.35 481.372,101.845 C479.98,100.453 478.092,99.671 476.123,99.671 L475.688,99.671 C475.106,98.112 474.177,96.7 472.964,95.546 C472.618,95.217 472.252,94.912 471.87,94.632 Z M455.505,108.364 C454.598,106.517 454.227,104.452 454.435,102.405 C454.643,100.357 455.421,98.409 456.68,96.782 C457.94,95.154 459.631,93.913 461.561,93.199 L462.573,95.934 C461.155,96.459 459.913,97.371 458.987,98.567 C458.061,99.763 457.49,101.195 457.337,102.699 C457.184,104.204 457.457,105.721 458.123,107.079 L455.505,108.364 Z" />
        </g>
        <g id="Black-S">
            <path d="M630,84.458 C630,83.653 630.653,83 631.458,83 L698.542,83 C699.347,83 700,83.653 700,84.458 L700,144.542 C700,145.347 699.347,146 698.542,146 L631.458,146 C630.653,146 630,145.347 630,144.542 L630,84.458 Z M632.917,85.917 L632.917,143.083 L697.083,143.083 L697.083,85.917 L632.917,85.917 Z" />
            <path d="M627.667,77.458 C627.667,76.653 628.32,76 629.125,76 L700.875,76 C701.68,76 702.333,76.653 702.333,77.458 L702.333,84.458 C702.333,85.264 701.68,85.917 700.875,85.917 L629.125,85.917 C628.32,85.917 627.667,85.264 627.667,84.458 L627.667,77.458 Z M630.583,78.917 L630.583,83 L699.417,83 L699.417,78.917 L630.583,78.917 Z" />
            <path d="M635.833,84.458 C635.833,83.653 636.486,83 637.292,83 L662.083,83 C662.889,83 663.542,83.653 663.542,84.458 L663.542,108.083 C663.542,108.889 662.889,109.542 662.083,109.542 L637.292,109.542 C636.486,109.542 635.833,108.889 635.833,108.083 L635.833,84.458 Z M638.75,85.917 L638.75,106.625 L660.625,106.625 L660.625,85.917 L638.75,85.917 Z" />
            <path d="M666.458,84.458 C666.458,83.653 667.111,83 667.917,83 L692.708,83 C693.514,83 694.167,83.653 694.167,84.458 L694.167,108.083 C694.167,108.889 693.514,109.542 692.708,109.542 L667.917,109.542 C667.111,109.542 666.458,108.889 666.458,108.083 L666.458,84.458 Z M669.375,85.917 L669.375,106.625 L691.25,106.625 L691.25,85.917 L669.375,85.917 Z" />
            <path d="M635.833,113.917 C635.833,113.111 636.486,112.458 637.292,112.458 L662.083,112.458 C662.889,112.458 663.542,113.111 663.542,113.917 L663.542,138.708 C663.542,139.514 662.889,140.167 662.083,140.167 L637.292,140.167 C636.486,140.167 635.833,139.514 635.833,138.708 L635.833,113.917 Z M638.75,115.375 L638.75,137.25 L660.625,137.25 L660.625,115.375 L638.75,115.375 Z" />
            <path d="M666.458,113.917 C666.458,113.111 667.111,112.458 667.917,112.458 L692.708,112.458 C693.514,112.458 694.167,113.111 694.167,113.917 L694.167,138.708 C694.167,139.514 693.514,140.167 692.708,140.167 L667.917,140.167 C667.111,140.167 666.458,139.514 666.458,138.708 L666.458,113.917 Z M669.375,115.375 L669.375,137.25 L691.25,137.25 L691.25,115.375 L669.375,115.375 Z" />
            <path d="M669.297,93.235 C668.747,93.026 668.179,92.86 667.598,92.74 L667.01,95.597 C668.491,95.902 669.857,96.616 670.953,97.659 C672.049,98.701 672.83,100.03 673.208,101.494 C673.374,102.138 673.955,102.588 674.62,102.588 L676.123,102.588 C677.318,102.588 678.464,103.063 679.309,103.908 C680.154,104.753 680.629,105.899 680.629,107.094 L683.546,107.094 C683.546,106.866 683.535,106.64 683.515,106.415 C686.663,104.676 688.796,101.323 688.796,97.472 C688.796,91.834 684.226,87.264 678.588,87.264 C674.461,87.264 670.907,89.712 669.297,93.235 Z M671.87,94.632 C672.977,92.016 675.568,90.18 678.588,90.18 C682.615,90.18 685.879,93.445 685.879,97.472 C685.879,100.001 684.592,102.229 682.638,103.537 C682.301,102.921 681.877,102.35 681.372,101.845 C679.98,100.453 678.092,99.671 676.123,99.671 L675.688,99.671 C675.106,98.112 674.177,96.7 672.964,95.546 C672.618,95.217 672.252,94.912 671.87,94.632 Z M655.505,108.364 C654.598,106.517 654.227,104.452 654.435,102.405 C654.643,100.357 655.421,98.409 656.681,96.782 C657.94,95.154 659.631,93.913 661.561,93.199 L662.573,95.934 C661.155,96.459 659.913,97.371 658.987,98.567 C658.061,99.763 657.49,101.195 657.337,102.699 C657.184,104.204 657.457,105.721 658.123,107.079 L655.505,108.364 Z" />
        </g>
    </g>
</svg>