<?xml version="1.0" encoding="UTF-8"?>
<svg height="600" width="800" xmlns="http://www.w3.org/2000/svg" xmlns:xlink="http://www.w3.org/1999/xlink">
    <g id="Notes" font-family="'LucidaGrande', 'Lucida Grande', sans-serif" font-size="13">
        <rect fill="white" height="600.0" width="800.0" x="0.0" y="0.0" />
        <g font-size="13">
            <text x="18.0" y="176.0">Small</text>
            <text x="18.0" y="376.0">Medium</text>
            <text x="18.0" y="576.0">Large</text>
        </g>
        <g font-size="9">
            <text x="250.0" y="30.0">Ultralight</text>
            <text x="450.0" y="30.0">Regular</text>
            <text x="650.0" y="30.0">Black</text>
            <text id="template-version" fill="#505050" text-anchor="end" x="785.0" y="575.0">Template v.3.0</text>
            <a href="https://github.com/swhitty/SwiftDraw">
                <text fill="#505050" text-anchor="end" x="785.0" y="590.0">https://github.com/swhitty/SwiftDraw</text>
            </a>
        </g>
    </g>
    <g id="Guides" stroke="rgb(39, 170, 225)" stroke-width="0.5">
        <path id="Capline-S" d="M18,76 l800,0" />
        <path id="H-reference" d="M85,145.755 L87.685,145.755 L113.369,79.287 L114.052,79.287 L114.052,76 L112.148,76 L85,145.755 Z M95.693,121.536 L130.996,121.536 L130.263,119.313 L96.474,119.313 L95.693,121.536 Z M139.15,145.755 L141.787,145.755 L114.638,76 L113.466,76 L113.466,79.287 L139.15,145.755 Z" stroke="none" />
        <path id="Baseline-S" d="M18,146 l800,0" />
        <path id="left-margin-Ultralight-S" d="M220.384,56 l0,110" />
        <path id="right-margin-Ultralight-S" d="M309.616,56 l0,110" />
        <path id="left-margin-Regular-S" d="M420.384,56 l0,110" />
        <path id="right-margin-Regular-S" d="M509.616,56 l0,110" />
        <path id="left-margin-Black-S" d="M620.384,56 l0,110" />
        <path id="right-margin-Black-S" d="M709.616,56 l0,110" />
        <path id="Capline-M" d="M18,276 l800,0" />
        <path id="Baseline-M" d="M18,346 l800,0" />
        <path id="Capline-L" d="M18,476 l800,0" />
        <path id="Baseline-L" d="M18,546 l800,0" />
    </g>
    <g id="Symbols">
        <g id="Ultralight-S">
            <path d="M242.015,83.477 C242.015,82.406 242.883,81.539 243.953,81.539 L286.047,81.539 C287.117,81.539 287.985,82.406 287.985,83.477 L287.985,137.755 C287.985,138.826 287.117,139.693 286.047,139.693 L243.953,139.693 C242.883,139.693 242.015,138.826 242.015,137.755 L242.015,83.477 Z M244.784,84.308 L244.784,136.924 L285.216,136.924 L285.216,84.308 L244.784,84.308 Z" />
            <path d="M242.015,82.923 C242.015,82.158 242.635,81.539 243.4,81.539 L262.231,81.539 C262.995,81.539 263.615,82.158 263.615,82.923 L263.615,132.77 C263.615,133.535 262.995,134.155 262.231,134.155 L243.4,134.155 C242.635,134.155 242.015,133.535 242.015,132.77 L242.015,82.923 Z M244.784,84.308 L244.784,131.386 L260.846,131.386 L260.846,84.308 L244.784,84.308 Z" />
            <path d="M266.385,82.923 C266.385,82.158 267.005,81.539 267.769,81.539 L286.6,81.539 C287.365,81.539 287.985,82.158 287.985,82.923 L287.985,132.77 C287.985,133.535 287.365,134.155 286.6,134.155 L267.769,134.155 C267.005,134.155 266.385,133.535 266.385,132.77 L266.385,82.923 Z M269.154,84.308 L269.154,131.386 L285.216,131.386 L285.216,84.308 L269.154,84.308 Z" />
            <path d="M233.153,83.477 C233.153,82.406 234.021,81.538 235.092,81.538 L238.415,81.538 C239.486,81.538 240.353,82.406 240.353,83.477 L240.353,144.059 C240.353,145.5 238.837,146.437 237.548,145.793 L234.225,144.131 C233.568,143.803 233.153,143.132 233.153,142.397 L233.153,83.477 Z M235.923,84.308 L235.923,141.884 L237.584,142.715 L237.584,84.308 L235.923,84.308 Z" />
            <path d="M237.584,83.477 C237.584,82.406 238.452,81.538 239.523,81.538 L242.846,81.538 C243.916,81.538 244.784,82.406 244.784,83.477 L244.784,144.059 C244.784,145.5 243.268,146.437 241.979,145.793 L238.656,144.131 C237.999,143.803 237.584,143.132 237.584,142.397 L237.584,83.477 Z M240.353,84.308 L240.353,141.884 L242.015,142.715 L242.015,84.308 L240.353,84.308 Z" />
            <path d="M285.216,83.477 C285.216,82.406 286.084,81.538 287.154,81.538 L290.477,81.538 C291.548,81.538 292.416,82.406 292.416,83.477 L292.416,144.059 C292.416,145.5 290.899,146.437 289.61,145.793 L286.287,144.131 C285.631,143.803 285.216,143.132 285.216,142.397 L285.216,83.477 Z M287.985,84.308 L287.985,141.884 L289.647,142.715 L289.647,84.308 L287.985,84.308 Z" />
            <path d="M289.647,83.477 C289.647,82.406 290.514,81.538 291.585,81.538 L294.908,81.538 C295.979,81.538 296.847,82.406 296.847,83.477 L296.847,144.059 C296.847,145.5 295.33,146.437 294.041,145.793 L290.718,144.131 C290.061,143.803 289.647,143.132 289.647,142.397 L289.647,83.477 Z M292.416,84.308 L292.416,141.884 L294.077,142.715 L294.077,84.308 L292.416,84.308 Z" />
            <path d="M230.384,77.385 C230.384,76.62 231.004,76 231.769,76 L298.231,76 C298.996,76 299.616,76.62 299.616,77.385 L299.616,82.923 C299.616,83.688 298.996,84.308 298.231,84.308 L231.769,84.308 C231.004,84.308 230.384,83.688 230.384,82.923 L230.384,77.385 Z M233.153,78.769 L233.153,81.539 L296.847,81.539 L296.847,78.769 L233.153,78.769 Z" />
        </g>
        <g id="Regular-S">
            <path d="M442.015,83.477 C442.015,82.406 442.883,81.539 443.953,81.539 L486.047,81.539 C487.117,81.539 487.985,82.406 487.985,83.477 L487.985,137.755 C487.985,138.826 487.117,139.693 486.047,139.693 L443.953,139.693 C442.883,139.693 442.015,138.826 442.015,137.755 L442.015,83.477 Z M444.784,84.308 L444.784,136.924 L485.216,136.924 L485.216,84.308 L444.784,84.308 Z" />
            <path d="M442.015,82.923 C442.015,82.158 442.635,81.539 443.4,81.539 L462.231,81.539 C462.995,81.539 463.615,82.158 463.615,82.923 L463.615,132.77 C463.615,133.535 462.995,134.155 462.231,134.155 L443.4,134.155 C442.635,134.155 442.015,133.535 442.015,132.77 L442.015,82.923 Z M444.784,84.308 L444.784,131.386 L460.846,131.386 L460.846,84.308 L444.784,84.308 Z" />
            <path d="M466.385,82.923 C466.385,82.158 467.005,81.539 467.769,81.539 L486.6,81.539 C487.365,81.539 487.985,82.158 487.985,82.923 L487.985,132.77 C487.985,133.535 487.365,134.155 486.6,134.155 L467.769,134.155 C467.005,134.155 466.385,133.535 466.385,132.77 L466.385,82.923 Z M469.154,84.308 L469.154,131.386 L485.216,131.386 L485.216,84.308 L469.154,84.308 Z" />
            <path d="M433.153,83.477 C433.153,82.406 434.021,81.538 435.092,81.538 L438.415,81.538 C439.486,81.538 440.353,82.406 440.353,83.477 L440.353,144.059 C440.353,145.5 438.837,146.437 437.548,145.793 L434.225,144.131 C433.568,143.803 433.153,143.132 433.153,142.397 L433.153,83.477 Z M435.923,84.308 L435.923,141.884 L437.584,142.715 L437.584,84.308 L435.923,84.308 Z" />
            <path d="M437.584,83.477 C437.584,82.406 438.452,81.538 439.523,81.538 L442.846,81.538 C443.916,81.538 444.784,82.406 444.784,83.477 L444.784,144.059 C444.784,145.5 443.268,146.437 441.979,145.793 L438.656,144.131 C437.999,143.803 437.584,143.132 437.584,142.397 L437.584,83.477 Z M440.353,84.308 L440.353,141.884 L442.015,142.715 L442.015,84.308 L440.353,84.308 Z" />
            <path d="M485.216,83.477 C485.216,82.406 486.084,81.538 487.154,81.538 L490.477,81.538 C491.548,81.538 492.416,82.406 492.416,83.477 L492.416,144.059 C492.416,145.5 490.899,146.437 489.61,145.793 L486.287,144.131 C485.631,143.803 485.216,143.132 485.216,142.397 L485.216,83.477 Z M487.985,84.308 L487.985,141.884 L489.647,142.715 L489.647,84.308 L487.985,84.308 Z" />
            <path d="M489.647,83.477 C489.647,82.406 490.514,81.538 491.585,81.538 L494.908,81.538 C495.979,81.538 496.847,82.406 496.847,83.477 L496.847,144.059 C496.847,145.5 495.33,146.437 494.041,145.793 L490.718,144.131 C490.061,143.803 489.647,143.132 489.647,142.397 L489.647,83.477 Z M492.416,84.308 L492.416,141.884 L494.077,142.715 L494.077,84.308 L492.416,84.308 Z" />
            <path d="M430.384,77.385 C430.384,76.62 431.004,76 431.769,76 L498.231,76 C498.996,76 499.616,76.62 499.616,77.385 L499.616,82.923 C499.616,83.688 498.996,84.308 498.231,84.308 L431.769,84.308 C431.004,84.308 430.384,83.688 430.384,82.923 L430.384,77.385 Z M433.153,78.769 L433.153,81.539 L496.847,81.539 L496.847,78.769 L433.153,78.769 Z" />
        </g>
        <g id="Black-S">
            <path d="M642.015,83.477 C642.015,82.406 642.883,81.539 643.953,81.539 L686.047,81.539 C687.117,81.539 687.985,82.406 687.985,83.477 L687.985,137.755 C687.985,138.826 687.117,139.693 686.047,139.693 L643.953,139.693 C642.883,139.693 642.015,138.826 642.015,137.755 L642.015,83.477 Z M644.784,84.308 L644.784,136.924 L685.216,136.924 L685.216,84.308 L644.784,84.308 Z" />
            <path d="M642.015,82.923 C642.015,82.158 642.635,81.539 643.4,81.539 L662.231,81.539 C662.995,81.539 663.615,82.158 663.615,82.923 L663.615,132.77 C663.615,133.535 662.995,134.155 662.231,134.155 L643.4,134.155 C642.635,134.155 642.015,133.535 642.015,132.77 L642.015,82.923 Z M644.784,84.308 L644.784,131.386 L660.846,131.386 L660.846,84.308 L644.784,84.308 Z" />
            <path d="M666.385,82.923 C666.385,82.158 667.005,81.539 667.769,81.539 L686.6,81.539 C687.365,81.539 687.985,82.158 687.985,82.923 L687.985,132.77 C687.985,133.535 687.365,134.155 686.6,134.155 L667.769,134.155 C667.005,134.155 666.385,133.535 666.385,132.77 L666.385,82.923 Z M669.154,84.308 L669.154,131.386 L685.216,131.386 L685.216,84.308 L669.154,84.308 Z" />
            <path d="M633.153,83.477 C633.153,82.406 634.021,81.538 635.092,81.538 L638.415,81.538 C639.486,81.538 640.353,82.406 640.353,83.477 L640.353,144.059 C640.353,145.5 638.837,146.437 637.548,145.793 L634.225,144.131 C633.568,143.803 633.153,143.132 633.153,142.397 L633.153,83.477 Z M635.923,84.308 L635.923,141.884 L637.584,142.715 L637.584,84.308 L635.923,84.308 Z" />
            <path d="M637.584,83.477 C637.584,82.406 638.452,81.538 639.523,81.538 L642.846,81.538 C643.916,81.538 644.784,82.406 644.784,83.477 L644.784,144.059 C644.784,145.5 643.268,146.437 641.979,145.793 L638.656,144.131 C637.999,143.803 637.584,143.132 637.584,142.397 L637.584,83.477 Z M640.353,84.308 L640.353,141.884 L642.015,142.715 L642.015,84.308 L640.353,84.308 Z" />
            <path d="M685.216,83.477 C685.216,82.406 686.084,81.538 687.154,81.538 L690.477,81.538 C691.548,81.538 692.416,82.406 692.416,83.477 L692.416,144.059 C692.416,145.5 690.899,146.437 689.61,145.793 L686.287,144.131 C685.631,143.803 685.216,143.132 685.216,142.397 L685.216,83.477 Z M687.985,84.308 L687.985,141.884 L689.647,142.715 L689.647,84.308 L687.985,84.308 Z" />
            <path d="M689.647,83.477 C689.647,82.406 690.515,81.538 691.585,81.538 L694.908,81.538 C695.979,81.538 696.847,82.406 696.847,83.477 L696.847,144.059 C696.847,145.5 695.33,146.437 694.041,145.793 L690.718,144.131 C690.061,143.803 689.647,143.132 689.647,142.397 L689.647,83.477 Z M692.416,84.308 L692.416,141.884 L694.077,142.715 L694.077,84.308 L692.416,84.308 Z" />
            <path d="M630.384,77.385 C630.384,76.62 631.004,76 631.769,76 L698.231,76 C698.996,76 699.616,76.62 699.616,77.385 L699.616,82.923 C699.616,83.688 698.996,84.308 698.231,84.308 L631.769,84.308 C631.004,84.308 630.384,83.688 630.384,82.923 L630.384,77.385 Z M633.153,78.769 L633.153,81.539 L696.847,81.539 L696.847,78.769 L633.153,78.769 Z" />
        </g>
    </g>
</svg>