<svg width="16" height="16" viewBox="0 0 16 16" fill="none" xmlns="http://www.w3.org/2000/svg">
<circle cx="8" cy="8" r="8" fill="#EB3A28"/>
<path d="M5.09648 10.8285C5.17935 10.9145 5.22566 11.0292 5.22566 11.1486C5.22566 11.268 5.17935 11.3827 5.09648 11.4687C5.05525 11.5098 5.00609 11.542 4.952 11.5635C4.8979 11.5849 4.84 11.5951 4.78183 11.5935C4.66523 11.5917 4.5533 11.5473 4.46718 11.4687C3.52952 10.5288 3.00204 9.25599 3.00001 7.92837C2.99797 6.60076 3.52155 5.32632 4.45633 4.38358C4.4982 4.34126 4.54805 4.30766 4.60299 4.28473C4.65793 4.26181 4.71687 4.25 4.7764 4.25C4.83594 4.25 4.89488 4.26181 4.94982 4.28473C5.00476 4.30766 5.05461 4.34126 5.09648 4.38358C5.1388 4.42545 5.1724 4.4753 5.19532 4.53024C5.21825 4.58518 5.23006 4.64412 5.23006 4.70365C5.23006 4.76319 5.21825 4.82213 5.19532 4.87707C5.1724 4.93201 5.1388 4.98186 5.09648 5.02373C4.71494 5.40466 4.41225 5.85708 4.20573 6.3551C3.99921 6.85313 3.89291 7.38699 3.89291 7.92613C3.89291 8.46528 3.99921 8.99914 4.20573 9.49716C4.41225 9.99519 4.71494 10.4476 5.09648 10.8285Z" fill="white"/>
<path d="M6.25201 6.18549C6.02253 6.41429 5.84045 6.68613 5.71622 6.98543C5.59199 7.28472 5.52804 7.60559 5.52804 7.92965C5.52804 8.2537 5.59199 8.57457 5.71622 8.87386C5.84045 9.17316 6.02253 9.445 6.25201 9.6738C6.31322 9.73639 6.35486 9.81547 6.37183 9.90136C6.3888 9.98725 6.38036 10.0762 6.34754 10.1574C6.31473 10.2386 6.25897 10.3084 6.18708 10.3584C6.11519 10.4083 6.03029 10.4363 5.94278 10.4387C5.82556 10.435 5.71372 10.3887 5.62812 10.3085C5.00258 9.67148 4.6521 8.81433 4.6521 7.92151C4.6521 7.02868 5.00258 6.17153 5.62812 5.53449C5.66968 5.49369 5.71901 5.46167 5.7732 5.44033C5.82738 5.419 5.8853 5.40879 5.94352 5.4103C6.00173 5.41182 6.05904 5.42504 6.11204 5.44917C6.16504 5.4733 6.21264 5.50785 6.25201 5.55076C6.29554 5.59137 6.33025 5.6405 6.35399 5.6951C6.37772 5.7497 6.38997 5.80859 6.38997 5.86813C6.38997 5.92766 6.37772 5.98656 6.35399 6.04115C6.33025 6.09575 6.29554 6.14488 6.25201 6.18549Z" fill="white"/>
<path d="M8.87771 7.04746C9.05349 7.22252 9.17336 7.4458 9.22214 7.68904C9.27092 7.93228 9.24641 8.18452 9.15172 8.41381C9.05702 8.64311 8.8964 8.83914 8.6902 8.97707C8.484 9.11501 8.2415 9.18864 7.99342 9.18864C7.74534 9.18864 7.50284 9.11501 7.29664 8.97707C7.09045 8.83914 6.92982 8.64311 6.83513 8.41381C6.74043 8.18452 6.71592 7.93228 6.7647 7.68904C6.81348 7.4458 6.93335 7.22252 7.10914 7.04746C7.22471 6.93035 7.36239 6.83736 7.51419 6.77389C7.66599 6.71042 7.82889 6.67773 7.99342 6.67773C8.15796 6.67773 8.32085 6.71042 8.47265 6.77389C8.62446 6.83736 8.76214 6.93035 8.87771 7.04746Z" fill="white"/>
<path d="M10.375 10.3241C10.2906 10.4079 10.1765 10.455 10.0576 10.455C9.93871 10.455 9.82462 10.4079 9.74026 10.3241C9.69673 10.2835 9.66201 10.2344 9.63828 10.1798C9.61454 10.1252 9.60229 10.0663 9.60229 10.0068C9.60229 9.94722 9.61454 9.88832 9.63828 9.83373C9.66201 9.77913 9.69673 9.73 9.74026 9.68939C9.97089 9.45956 10.1539 9.18647 10.2787 8.88577C10.4036 8.58508 10.4679 8.26269 10.4679 7.9371C10.4679 7.61151 10.4036 7.28912 10.2787 6.98842C10.1539 6.68773 9.97089 6.41463 9.74026 6.18481C9.69673 6.1442 9.66201 6.09507 9.63828 6.04047C9.61454 5.98587 9.60229 5.92697 9.60229 5.86744C9.60229 5.80791 9.61454 5.74901 9.63828 5.69441C9.66201 5.63981 9.69673 5.59068 9.74026 5.55008C9.78087 5.50654 9.83 5.47183 9.8846 5.44809C9.9392 5.42436 9.99809 5.41211 10.0576 5.41211C10.1172 5.41211 10.1761 5.42436 10.2307 5.44809C10.2853 5.47183 10.3344 5.50654 10.375 5.55008C11.0031 6.18576 11.3554 7.04342 11.3554 7.9371C11.3554 8.83078 11.0031 9.68844 10.375 10.3241Z" fill="white"/>
<path d="M11.5305 11.4682C11.4893 11.5093 11.4402 11.5416 11.3861 11.563C11.332 11.5845 11.2741 11.5947 11.2159 11.593C11.1008 11.592 10.9903 11.5474 10.9067 11.4682C10.863 11.4272 10.8282 11.3776 10.8044 11.3225C10.7806 11.2675 10.7683 11.2081 10.7683 11.1482C10.7683 11.0882 10.7806 11.0289 10.8044 10.9738C10.8282 10.9188 10.863 10.8692 10.9067 10.8281C11.2882 10.4472 11.5909 9.99474 11.7974 9.49671C12.0039 8.99869 12.1102 8.46483 12.1102 7.92568C12.1102 7.38654 12.0039 6.85268 11.7974 6.35466C11.5909 5.85663 11.2882 5.40421 10.9067 5.02328C10.863 4.98219 10.8282 4.9326 10.8044 4.87755C10.7806 4.82251 10.7683 4.76317 10.7683 4.7032C10.7683 4.64324 10.7806 4.5839 10.8044 4.52885C10.8282 4.47381 10.863 4.42421 10.9067 4.38313C10.9481 4.34097 10.9975 4.30749 11.0519 4.28463C11.1064 4.26177 11.1649 4.25 11.224 4.25C11.2831 4.25 11.3416 4.26177 11.3961 4.28463C11.4506 4.30749 11.5 4.34097 11.5414 4.38313C12.4775 5.32517 13.002 6.59988 12.9999 7.92793C12.9979 9.25598 12.4695 10.5291 11.5305 11.4682Z" fill="white"/>
</svg>
