<svg width="120" height="120" viewBox="0 0 120 120" fill="none" xmlns="http://www.w3.org/2000/svg">
<g clip-path="url(#clip0_396_1528)">
<circle cx="60" cy="60" r="60" fill="#FFE804"/>
<path fill-rule="evenodd" clip-rule="evenodd" d="M60 8C31.2812 8 8 31.2812 8 60C8 88.7188 31.2812 112 60 112C88.7188 112 112 88.7188 112 60C112 31.2812 88.7188 8 60 8ZM4 60C4 29.0721 29.0721 4 60 4C90.9279 4 116 29.0721 116 60C116 90.9279 90.9279 116 60 116C29.0721 116 4 90.9279 4 60ZM40.0858 40.0858C40.8668 39.3047 42.1332 39.3047 42.9142 40.0858L60 57.1716L77.0858 40.0858C77.8668 39.3047 79.1332 39.3047 79.9142 40.0858C80.6953 40.8668 80.6953 42.1332 79.9142 42.9142L62.8284 60L79.9142 77.0858C80.6953 77.8668 80.6953 79.1332 79.9142 79.9142C79.1332 80.6953 77.8668 80.6953 77.0858 79.9142L60 62.8284L42.9142 79.9142C42.1332 80.6953 40.8668 80.6953 40.0858 79.9142C39.3047 79.1332 39.3047 77.8668 40.0858 77.0858L57.1716 60L40.0858 42.9142C39.3047 42.1332 39.3047 40.8668 40.0858 40.0858Z" fill="#282828"/>
</g>
<defs>
<clipPath id="clip0_396_1528">
<rect width="120" height="120" fill="white"/>
</clipPath>
</defs>
</svg>
