<?xml version="1.0" encoding="UTF-8"?>
<svg height="600" width="800" xmlns="http://www.w3.org/2000/svg" xmlns:xlink="http://www.w3.org/1999/xlink">
    <g id="Notes" font-family="'LucidaGrande', 'Lucida Grande', sans-serif" font-size="13">
        <rect fill="white" height="600.0" width="800.0" x="0.0" y="0.0" />
        <g font-size="13">
            <text x="18.0" y="176.0">Small</text>
            <text x="18.0" y="376.0">Medium</text>
            <text x="18.0" y="576.0">Large</text>
        </g>
        <g font-size="9">
            <text x="250.0" y="30.0">Ultralight</text>
            <text x="450.0" y="30.0">Regular</text>
            <text x="650.0" y="30.0">Black</text>
            <text id="template-version" fill="#505050" text-anchor="end" x="785.0" y="575.0">Template v.3.0</text>
            <a href="https://github.com/swhitty/SwiftDraw">
                <text fill="#505050" text-anchor="end" x="785.0" y="590.0">https://github.com/swhitty/SwiftDraw</text>
            </a>
        </g>
    </g>
    <g id="Guides" stroke="rgb(39, 170, 225)" stroke-width="0.5">
        <path id="Capline-S" d="M18,76 l800,0" />
        <path id="H-reference" d="M85,145.755 L87.685,145.755 L113.369,79.287 L114.052,79.287 L114.052,76 L112.148,76 L85,145.755 Z M95.693,121.536 L130.996,121.536 L130.263,119.313 L96.474,119.313 L95.693,121.536 Z M139.15,145.755 L141.787,145.755 L114.638,76 L113.466,76 L113.466,79.287 L139.15,145.755 Z" stroke="none" />
        <path id="Baseline-S" d="M18,146 l800,0" />
        <path id="left-margin-Ultralight-S" d="M220.718,56 l0,110" />
        <path id="right-margin-Ultralight-S" d="M309.282,56 l0,110" />
        <path id="left-margin-Regular-S" d="M420.718,56 l0,110" />
        <path id="right-margin-Regular-S" d="M509.282,56 l0,110" />
        <path id="left-margin-Black-S" d="M620.718,56 l0,110" />
        <path id="right-margin-Black-S" d="M709.282,56 l0,110" />
        <path id="Capline-M" d="M18,276 l800,0" />
        <path id="Baseline-M" d="M18,346 l800,0" />
        <path id="Capline-L" d="M18,476 l800,0" />
        <path id="Baseline-L" d="M18,546 l800,0" />
    </g>
    <g id="Symbols">
        <g id="Ultralight-S">
            <path d="M252.461,91.815 C252.461,92.43 252.185,92.785 251.736,92.99 C251.262,93.203 250.829,93.085 250.466,92.722 C249.456,91.712 248.447,90.71 247.437,89.701 C246.838,89.101 246.238,88.51 245.647,87.902 C245.284,87.532 245.213,87.035 245.418,86.625 C245.647,86.159 246.104,85.907 246.609,85.954 C246.893,85.978 247.114,86.12 247.303,86.317 C248.904,87.91 250.497,89.511 252.099,91.113 C252.327,91.318 252.477,91.57 252.461,91.815 Z" />
            <path d="M285.597,93.227 C284.99,93.219 284.643,92.943 284.438,92.509 C284.24,92.099 284.311,91.696 284.603,91.333 C284.619,91.318 284.635,91.294 284.651,91.278 C286.283,89.646 287.908,88.013 289.549,86.388 C290.038,85.907 290.685,85.954 291.158,86.435 C291.592,86.885 291.615,87.492 291.205,87.973 C291.174,88.005 291.142,88.044 291.11,88.076 C289.533,89.661 287.948,91.239 286.37,92.824 C286.125,93.069 285.857,93.242 285.597,93.227 Z" />
            <path d="M269.783,80.575 C269.783,81.687 269.783,82.799 269.783,83.911 C269.783,84.661 269.364,85.087 268.631,85.087 C267.929,85.087 267.511,84.653 267.503,83.927 C267.503,81.671 267.503,79.415 267.503,77.159 C267.503,76.434 267.929,76 268.631,76 C269.341,76 269.767,76.426 269.775,77.144 C269.783,78.28 269.783,79.431 269.783,80.575 Z" />
            <path d="M294.739,108.805 C293.603,108.805 292.467,108.805 291.339,108.805 C290.614,108.805 290.188,108.379 290.188,107.669 C290.188,106.959 290.614,106.533 291.339,106.533 C293.611,106.533 295.875,106.533 298.146,106.533 C298.864,106.533 299.29,106.967 299.282,107.685 C299.282,108.371 298.849,108.805 298.154,108.805 C297.011,108.805 295.875,108.805 294.739,108.805 Z" />
            <path d="M268.434,144.062 C267.314,144.062 266.186,144.062 265.066,144.062 C264.317,144.062 263.891,143.644 263.891,142.911 C263.891,142.209 264.324,141.79 265.058,141.783 C267.314,141.783 269.57,141.783 271.826,141.783 C272.551,141.783 272.977,142.209 272.985,142.911 C272.985,143.62 272.559,144.046 271.841,144.054 C270.698,144.07 269.57,144.062 268.434,144.062 Z" />
            <path d="M268.528,110.745 C266.627,110.745 265.145,109.246 265.145,107.345 C265.145,105.429 266.643,103.954 268.576,103.954 C270.461,103.954 271.944,105.46 271.944,107.377 C271.936,109.27 270.437,110.753 268.528,110.745 Z M268.544,108.939 C269.427,108.939 270.137,108.229 270.13,107.345 C270.122,106.454 269.412,105.76 268.528,105.768 C267.653,105.784 266.967,106.47 266.959,107.345 C266.951,108.221 267.661,108.939 268.544,108.939 Z" />
            <path d="M230.718,126.37 C230.718,115.529 239.506,106.74 250.347,106.74 C261.189,106.74 269.977,115.529 269.977,126.37 C269.977,137.211 261.189,146 250.347,146 C239.506,146 230.718,137.211 230.718,126.37 Z M250.347,109.26 C240.897,109.26 233.237,116.92 233.237,126.37 C233.237,135.82 240.897,143.481 250.347,143.481 C259.797,143.481 267.458,135.82 267.458,126.37 C267.458,116.92 259.797,109.26 250.347,109.26 Z" />
            <path d="M287.395,104.206 C286.599,99.221 284.082,95.19 280.249,91.996 C276.313,88.723 271.738,87.303 266.611,87.745 C263.843,87.989 261.264,88.849 258.881,90.269 C256.373,91.759 254.33,93.755 252.658,96.137 C250.647,98.992 249.416,102.155 249.18,105.649 C249.172,105.728 249.172,105.807 249.164,105.886 C249.558,105.862 249.953,105.855 250.355,105.855 C250.836,105.855 251.309,105.87 251.783,105.902 C251.933,103.362 252.713,100.972 254.062,98.708 C255.356,96.539 257.004,94.694 259.063,93.227 C261.303,91.625 263.795,90.647 266.54,90.355 C270.981,89.874 274.964,91.034 278.427,93.826 C281.89,96.618 284.138,100.191 284.824,104.64 C285.384,108.323 284.627,111.754 282.694,114.941 C281.819,116.392 280.667,117.615 279.5,118.822 C277.26,121.149 275.493,123.775 274.412,126.828 C274.325,127.072 274.183,127.135 273.947,127.135 C272.921,127.135 271.896,127.127 270.871,127.127 C270.839,127.964 270.76,128.792 270.634,129.604 C272.361,129.604 274.097,129.604 275.824,129.612 C276.124,129.612 276.274,129.533 276.36,129.218 C276.621,128.263 276.976,127.348 277.394,126.457 C278.529,124.028 280.107,121.914 282.008,120.021 C283.783,118.254 285.179,116.219 286.173,113.908 C287.498,110.784 287.932,107.543 287.395,104.206 Z" />
            <path d="M275.777,130.795 C275.256,130.811 274.736,130.795 274.215,130.795 C273.718,130.795 273.718,130.795 273.718,131.3 C273.718,133.564 273.71,135.82 273.726,138.083 C273.726,138.438 273.616,138.533 273.269,138.533 C271.313,138.517 269.349,138.525 267.392,138.525 C267.227,138.525 267.053,138.525 266.888,138.525 C266.32,139.298 265.689,140.032 265.018,140.718 C266.13,140.718 267.235,140.718 268.347,140.718 C270.571,140.718 272.795,140.71 275.02,140.726 C275.43,140.726 275.698,140.552 275.887,140.213 C276.021,139.968 276.108,139.7 276.108,139.416 C276.108,136.656 276.108,133.895 276.116,131.142 C276.116,130.898 276.037,130.795 275.777,130.795 Z" />
            <path d="M250.111,111.528 C250.806,111.528 251.37,112.092 251.37,112.788 L251.37,127.127 C251.37,127.823 250.806,128.387 250.111,128.387 C249.415,128.387 248.851,127.823 248.851,127.127 L248.851,112.788 C248.851,112.092 249.415,111.528 250.111,111.528 Z" />
            <path d="M248.851,127.127 C248.851,126.432 249.415,125.868 250.111,125.868 L259.954,125.868 C260.65,125.868 261.214,126.432 261.214,127.127 C261.214,127.823 260.65,128.387 259.954,128.387 L250.111,128.387 C249.415,128.387 248.851,127.823 248.851,127.127 Z" />
        </g>
        <g id="Regular-S">
            <path d="M452.461,91.815 C452.461,92.43 452.185,92.785 451.736,92.99 C451.262,93.203 450.829,93.085 450.466,92.722 C449.456,91.712 448.447,90.71 447.437,89.701 C446.837,89.101 446.238,88.51 445.647,87.902 C445.284,87.532 445.213,87.035 445.418,86.625 C445.647,86.159 446.104,85.907 446.609,85.954 C446.893,85.978 447.114,86.12 447.303,86.317 C448.904,87.91 450.497,89.511 452.099,91.113 C452.327,91.318 452.477,91.57 452.461,91.815 Z" />
            <path d="M485.597,93.227 C484.99,93.219 484.643,92.943 484.438,92.509 C484.24,92.099 484.311,91.696 484.603,91.333 C484.619,91.318 484.635,91.294 484.651,91.278 C486.283,89.646 487.908,88.013 489.549,86.388 C490.038,85.907 490.685,85.954 491.158,86.435 C491.592,86.885 491.615,87.492 491.205,87.973 C491.174,88.005 491.142,88.044 491.11,88.076 C489.533,89.661 487.948,91.239 486.37,92.824 C486.125,93.069 485.857,93.242 485.597,93.227 Z" />
            <path d="M469.783,80.575 C469.783,81.687 469.783,82.799 469.783,83.911 C469.783,84.661 469.364,85.087 468.631,85.087 C467.929,85.087 467.511,84.653 467.503,83.927 C467.503,81.671 467.503,79.415 467.503,77.159 C467.503,76.434 467.929,76 468.631,76 C469.341,76 469.767,76.426 469.775,77.144 C469.783,78.28 469.783,79.431 469.783,80.575 Z" />
            <path d="M494.739,108.805 C493.603,108.805 492.467,108.805 491.339,108.805 C490.614,108.805 490.188,108.379 490.188,107.669 C490.188,106.959 490.614,106.533 491.339,106.533 C493.611,106.533 495.875,106.533 498.146,106.533 C498.864,106.533 499.29,106.967 499.282,107.685 C499.282,108.371 498.848,108.805 498.154,108.805 C497.011,108.805 495.875,108.805 494.739,108.805 Z" />
            <path d="M468.434,144.062 C467.314,144.062 466.186,144.062 465.066,144.062 C464.316,144.062 463.891,143.644 463.891,142.911 C463.891,142.209 464.324,141.79 465.058,141.783 C467.314,141.783 469.57,141.783 471.826,141.783 C472.551,141.783 472.977,142.209 472.985,142.911 C472.985,143.62 472.559,144.046 471.841,144.054 C470.698,144.07 469.57,144.062 468.434,144.062 Z" />
            <path d="M468.528,110.745 C466.627,110.745 465.145,109.246 465.145,107.345 C465.145,105.429 466.643,103.954 468.576,103.954 C470.461,103.954 471.944,105.46 471.944,107.377 C471.936,109.27 470.437,110.753 468.528,110.745 Z M468.544,108.939 C469.427,108.939 470.137,108.229 470.13,107.345 C470.122,106.454 469.412,105.76 468.528,105.768 C467.653,105.784 466.967,106.47 466.959,107.345 C466.951,108.221 467.661,108.939 468.544,108.939 Z" />
            <path d="M430.718,126.37 C430.718,115.529 439.506,106.74 450.347,106.74 C461.189,106.74 469.977,115.529 469.977,126.37 C469.977,137.211 461.189,146 450.347,146 C439.506,146 430.718,137.211 430.718,126.37 Z M450.347,109.26 C440.897,109.26 433.237,116.92 433.237,126.37 C433.237,135.82 440.897,143.481 450.347,143.481 C459.797,143.481 467.458,135.82 467.458,126.37 C467.458,116.92 459.797,109.26 450.347,109.26 Z" />
            <path d="M487.395,104.206 C486.598,99.221 484.082,95.19 480.249,91.996 C476.313,88.723 471.738,87.303 466.611,87.745 C463.843,87.989 461.264,88.849 458.881,90.269 C456.373,91.759 454.33,93.755 452.658,96.137 C450.647,98.992 449.416,102.155 449.18,105.649 C449.172,105.728 449.172,105.807 449.164,105.886 C449.558,105.862 449.953,105.855 450.355,105.855 C450.836,105.855 451.309,105.87 451.783,105.902 C451.933,103.362 452.713,100.972 454.062,98.708 C455.356,96.539 457.004,94.694 459.063,93.227 C461.303,91.625 463.795,90.647 466.54,90.355 C470.981,89.874 474.964,91.034 478.427,93.826 C481.89,96.618 484.138,100.191 484.824,104.64 C485.384,108.323 484.627,111.754 482.694,114.941 C481.819,116.392 480.667,117.615 479.5,118.822 C477.26,121.149 475.493,123.775 474.412,126.828 C474.325,127.072 474.183,127.135 473.947,127.135 C472.921,127.135 471.896,127.127 470.871,127.127 C470.839,127.964 470.76,128.792 470.634,129.604 C472.361,129.604 474.097,129.604 475.824,129.612 C476.124,129.612 476.274,129.533 476.36,129.218 C476.621,128.263 476.976,127.348 477.394,126.457 C478.529,124.028 480.107,121.914 482.008,120.021 C483.783,118.254 485.179,116.219 486.173,113.908 C487.498,110.784 487.932,107.543 487.395,104.206 Z" />
            <path d="M475.777,130.795 C475.256,130.811 474.736,130.795 474.215,130.795 C473.718,130.795 473.718,130.795 473.718,131.3 C473.718,133.564 473.71,135.82 473.726,138.083 C473.726,138.438 473.616,138.533 473.269,138.533 C471.313,138.517 469.349,138.525 467.392,138.525 C467.227,138.525 467.053,138.525 466.888,138.525 C466.32,139.298 465.689,140.032 465.018,140.718 C466.13,140.718 467.235,140.718 468.347,140.718 C470.571,140.718 472.795,140.71 475.02,140.726 C475.43,140.726 475.698,140.552 475.887,140.213 C476.021,139.968 476.108,139.7 476.108,139.416 C476.108,136.656 476.108,133.895 476.116,131.142 C476.116,130.898 476.037,130.795 475.777,130.795 Z" />
            <path d="M450.111,111.528 C450.806,111.528 451.37,112.092 451.37,112.788 L451.37,127.127 C451.37,127.823 450.806,128.387 450.111,128.387 C449.415,128.387 448.851,127.823 448.851,127.127 L448.851,112.788 C448.851,112.092 449.415,111.528 450.111,111.528 Z" />
            <path d="M448.851,127.127 C448.851,126.432 449.415,125.868 450.111,125.868 L459.954,125.868 C460.65,125.868 461.214,126.432 461.214,127.127 C461.214,127.823 460.65,128.387 459.954,128.387 L450.111,128.387 C449.415,128.387 448.851,127.823 448.851,127.127 Z" />
        </g>
        <g id="Black-S">
            <path d="M652.461,91.815 C652.461,92.43 652.185,92.785 651.736,92.99 C651.263,93.203 650.829,93.085 650.466,92.722 C649.456,91.712 648.447,90.71 647.437,89.701 C646.838,89.101 646.238,88.51 645.647,87.902 C645.284,87.532 645.213,87.035 645.418,86.625 C645.647,86.159 646.104,85.907 646.609,85.954 C646.893,85.978 647.114,86.12 647.303,86.317 C648.904,87.91 650.497,89.511 652.099,91.113 C652.327,91.318 652.477,91.57 652.461,91.815 Z" />
            <path d="M685.597,93.227 C684.99,93.219 684.643,92.943 684.438,92.509 C684.24,92.099 684.311,91.696 684.603,91.333 C684.619,91.318 684.635,91.294 684.651,91.278 C686.283,89.646 687.908,88.013 689.549,86.388 C690.038,85.907 690.685,85.954 691.158,86.435 C691.592,86.885 691.615,87.492 691.205,87.973 C691.174,88.005 691.142,88.044 691.11,88.076 C689.533,89.661 687.948,91.239 686.37,92.824 C686.125,93.069 685.857,93.242 685.597,93.227 Z" />
            <path d="M669.783,80.575 C669.783,81.687 669.783,82.799 669.783,83.911 C669.783,84.661 669.364,85.087 668.631,85.087 C667.929,85.087 667.511,84.653 667.503,83.927 C667.503,81.671 667.503,79.415 667.503,77.159 C667.503,76.434 667.929,76 668.631,76 C669.341,76 669.767,76.426 669.775,77.144 C669.783,78.28 669.783,79.431 669.783,80.575 Z" />
            <path d="M694.739,108.805 C693.603,108.805 692.467,108.805 691.339,108.805 C690.614,108.805 690.188,108.379 690.188,107.669 C690.188,106.959 690.614,106.533 691.339,106.533 C693.611,106.533 695.875,106.533 698.146,106.533 C698.864,106.533 699.29,106.967 699.282,107.685 C699.282,108.371 698.849,108.805 698.154,108.805 C697.011,108.805 695.875,108.805 694.739,108.805 Z" />
            <path d="M668.434,144.062 C667.314,144.062 666.186,144.062 665.066,144.062 C664.317,144.062 663.891,143.644 663.891,142.911 C663.891,142.209 664.324,141.79 665.058,141.783 C667.314,141.783 669.57,141.783 671.826,141.783 C672.551,141.783 672.977,142.209 672.985,142.911 C672.985,143.62 672.559,144.046 671.841,144.054 C670.698,144.07 669.57,144.062 668.434,144.062 Z" />
            <path d="M668.528,110.745 C666.627,110.745 665.145,109.246 665.145,107.345 C665.145,105.429 666.643,103.954 668.576,103.954 C670.461,103.954 671.944,105.46 671.944,107.377 C671.936,109.27 670.437,110.753 668.528,110.745 Z M668.544,108.939 C669.427,108.939 670.137,108.229 670.13,107.345 C670.122,106.454 669.412,105.76 668.528,105.768 C667.653,105.784 666.967,106.47 666.959,107.345 C666.951,108.221 667.661,108.939 668.544,108.939 Z" />
            <path d="M630.718,126.37 C630.718,115.529 639.506,106.74 650.347,106.74 C661.189,106.74 669.977,115.529 669.977,126.37 C669.977,137.211 661.189,146 650.347,146 C639.506,146 630.718,137.211 630.718,126.37 Z M650.347,109.26 C640.897,109.26 633.237,116.92 633.237,126.37 C633.237,135.82 640.897,143.481 650.347,143.481 C659.797,143.481 667.458,135.82 667.458,126.37 C667.458,116.92 659.797,109.26 650.347,109.26 Z" />
            <path d="M687.395,104.206 C686.599,99.221 684.082,95.19 680.249,91.996 C676.313,88.723 671.738,87.303 666.611,87.745 C663.843,87.989 661.264,88.849 658.881,90.269 C656.373,91.759 654.33,93.755 652.658,96.137 C650.647,98.992 649.416,102.155 649.18,105.649 C649.172,105.728 649.172,105.807 649.164,105.886 C649.558,105.862 649.953,105.855 650.355,105.855 C650.836,105.855 651.309,105.87 651.783,105.902 C651.933,103.362 652.713,100.972 654.062,98.708 C655.356,96.539 657.004,94.694 659.063,93.227 C661.303,91.625 663.795,90.647 666.54,90.355 C670.981,89.874 674.964,91.034 678.427,93.826 C681.89,96.618 684.138,100.191 684.824,104.64 C685.384,108.323 684.627,111.754 682.694,114.941 C681.819,116.392 680.667,117.615 679.5,118.822 C677.26,121.149 675.493,123.775 674.412,126.828 C674.325,127.072 674.183,127.135 673.947,127.135 C672.921,127.135 671.896,127.127 670.871,127.127 C670.839,127.964 670.76,128.792 670.634,129.604 C672.361,129.604 674.097,129.604 675.824,129.612 C676.124,129.612 676.274,129.533 676.36,129.218 C676.621,128.263 676.976,127.348 677.394,126.457 C678.529,124.028 680.107,121.914 682.008,120.021 C683.783,118.254 685.179,116.219 686.173,113.908 C687.498,110.784 687.932,107.543 687.395,104.206 Z" />
            <path d="M675.777,130.795 C675.256,130.811 674.736,130.795 674.215,130.795 C673.718,130.795 673.718,130.795 673.718,131.3 C673.718,133.564 673.71,135.82 673.726,138.083 C673.726,138.438 673.616,138.533 673.269,138.533 C671.313,138.517 669.349,138.525 667.392,138.525 C667.227,138.525 667.053,138.525 666.888,138.525 C666.32,139.298 665.689,140.032 665.018,140.718 C666.13,140.718 667.235,140.718 668.347,140.718 C670.571,140.718 672.795,140.71 675.02,140.726 C675.43,140.726 675.698,140.552 675.887,140.213 C676.021,139.968 676.108,139.7 676.108,139.416 C676.108,136.656 676.108,133.895 676.116,131.142 C676.116,130.898 676.037,130.795 675.777,130.795 Z" />
            <path d="M650.111,111.528 C650.806,111.528 651.37,112.092 651.37,112.788 L651.37,127.127 C651.37,127.823 650.806,128.387 650.111,128.387 C649.415,128.387 648.851,127.823 648.851,127.127 L648.851,112.788 C648.851,112.092 649.415,111.528 650.111,111.528 Z" />
            <path d="M648.851,127.127 C648.851,126.432 649.415,125.868 650.111,125.868 L659.954,125.868 C660.65,125.868 661.214,126.432 661.214,127.127 C661.214,127.823 660.65,128.387 659.954,128.387 L650.111,128.387 C649.415,128.387 648.851,127.823 648.851,127.127 Z" />
        </g>
    </g>
</svg>