<svg width="512" height="512" viewBox="0 0 512 512" fill="none" xmlns="http://www.w3.org/2000/svg">
<path d="M105.31 319.29V366.98L102.39 368.32C86.7702 375.48 79.8903 394.01 87.0403 409.63C90.5103 417.2 96.7102 422.96 104.52 425.86C112.32 428.76 120.79 428.44 128.35 424.98C143.97 417.82 150.85 399.29 143.7 383.67C140.59 376.88 135.14 371.44 128.35 368.33L125.43 366.99V319.29C125.43 313.75 120.91 309.24 115.36 309.23C109.82 309.23 105.3 313.75 105.3 319.3L105.31 319.29Z" fill="#B4B7BA"/>
<path d="M476.57 171.33C476.43 165.99 472.15 161.69 466.82 161.52H434.98L452.95 143.54C456.87 139.62 456.87 133.23 452.95 129.31C449.03 125.39 442.64 125.39 438.72 129.31L406.52 161.51H384.62L383.51 158.02C381.52 151.75 378.11 145.87 373.66 141.03L371.18 138.32L382.15 119.35L426.15 107.55C428.75 106.86 430.92 105.19 432.27 102.87C433.62 100.54 433.98 97.8301 433.28 95.2401C432.11 90.8401 428.11 87.7801 423.56 87.7801C422.68 87.7801 421.8 87.9001 420.94 88.1201L396.39 94.7001L412.37 67.0201C413.71 64.6901 414.07 61.9801 413.37 59.3801C412.67 56.7801 411.01 54.6101 408.68 53.2701C403.88 50.5001 397.71 52.1501 394.93 56.9601L378.96 84.6301L372.38 60.0701C371.2 55.6801 367.21 52.6101 362.66 52.6101C359.97 52.6101 357.44 53.6601 355.54 55.5601C353.64 57.4601 352.59 60.0001 352.59 62.6901C352.59 63.5701 352.71 64.4501 352.94 65.3101L364.74 109.32L353.78 128.29L350.2 127.49C343.78 126.06 336.99 126.06 330.56 127.49L326.98 128.29L316.02 109.32L327.82 65.3201C328.52 62.7201 328.17 60.0001 326.82 57.6701C325.5 55.3701 323.37 53.7201 320.83 53.0001L320.69 52.9601C319.85 52.7301 318.98 52.6201 318.11 52.6201H318.1C313.56 52.6201 309.56 55.6901 308.38 60.0801L301.77 84.6101L285.81 56.9501C284.02 53.8901 280.67 51.9701 277.09 51.9701C274.42 51.9701 271.89 53.0301 270 54.9401C268.1 56.8501 267.07 59.3701 267.07 62.0601C267.07 63.8101 267.54 65.5401 268.42 67.0601L284.38 94.7001L259.82 88.1101C258.98 87.8901 258.09 87.7701 257.2 87.7701C251.65 87.7701 247.14 92.2801 247.14 97.8301C247.14 102.38 250.21 106.38 254.6 107.55L298.6 119.34L309.57 138.31L307.09 141.02C302.64 145.87 299.24 151.75 297.25 158.02L296.14 161.51H274.23L242.03 129.31C238.11 125.39 231.72 125.39 227.8 129.31C225.9 131.21 224.85 133.74 224.85 136.42C224.85 139.1 225.9 141.63 227.8 143.53L245.77 161.51H213.88C211.21 161.59 208.73 162.7 206.9 164.64C205.05 166.59 204.07 169.14 204.14 171.83C204.28 177.17 208.55 181.47 213.89 181.64H245.78L227.81 199.62C225.92 201.52 224.87 204.05 224.88 206.74C224.88 209.43 225.94 211.96 227.84 213.86C229.74 215.75 232.26 216.8 234.93 216.8H234.95C237.59 216.8 240.17 215.73 242.03 213.86L274.24 181.65H296.14L297.25 185.14C299.24 191.41 302.65 197.29 307.1 202.13L309.58 204.84L298.61 223.81L254.61 235.61C252.01 236.3 249.84 237.97 248.49 240.29C247.14 242.62 246.78 245.33 247.48 247.92C248.65 252.31 252.65 255.38 257.19 255.38H257.2C258.08 255.38 258.94 255.26 259.78 255.04L284.35 248.47L268.38 276.14C267.04 278.47 266.69 281.18 267.39 283.78C268.09 286.38 269.76 288.55 272.1 289.89C273.61 290.76 275.33 291.22 277.08 291.23C280.64 291.23 283.99 289.29 285.79 286.18L301.76 258.52L308.35 283.08C309.05 285.68 310.71 287.85 313.04 289.19C315.37 290.53 318.08 290.89 320.68 290.19C323.28 289.49 325.45 287.83 326.79 285.5C328.13 283.17 328.49 280.46 327.79 277.86L315.99 233.86L326.95 214.89L330.53 215.69C336.95 217.12 343.74 217.12 350.17 215.69L353.75 214.89L364.71 233.86L352.91 277.86C351.48 283.22 354.67 288.75 360.03 290.18C365.39 291.62 370.92 288.42 372.35 283.06L378.94 258.5L394.91 286.17C396.71 289.27 400.06 291.2 403.65 291.21C406.31 291.2 408.84 290.14 410.73 288.22C412.62 286.3 413.66 283.77 413.65 281.08C413.65 279.34 413.18 277.61 412.31 276.1L396.34 248.43L420.9 255.02C426.27 256.46 431.79 253.26 433.23 247.9C434.67 242.54 431.47 237.01 426.11 235.57L382.11 223.77L371.14 204.8L373.62 202.09C378.07 197.24 381.47 191.37 383.47 185.09L384.58 181.61H406.48L438.69 213.81C440.59 215.71 443.12 216.76 445.81 216.76C448.5 216.76 451.02 215.71 452.92 213.81C454.82 211.91 455.87 209.38 455.87 206.7C455.87 204.02 454.82 201.49 452.92 199.59L434.92 181.61H466.82C472.34 181.44 476.71 176.82 476.57 171.29V171.33ZM365.47 171.68C365.45 185.5 354.2 196.75 340.39 196.77H340.38C333.67 196.77 327.38 194.16 322.63 189.43C317.89 184.69 315.27 178.39 315.27 171.68C315.27 157.84 326.52 146.58 340.36 146.57H340.37C354.21 146.57 365.46 157.82 365.47 171.66V171.68Z" fill="#B4B7BA"/>
<path d="M115.38 35C86.6098 35.03 63.1698 58.47 63.1398 87.26V335.49L61.4698 336.98C44.4898 352.12 34.8498 373.85 35.0098 396.59C35.1998 413.92 40.8198 430.38 51.2698 444.18L51.7698 444.83C67.0598 464.93 90.2298 476.46 115.39 476.5C140.87 476.46 164.23 464.7 179.47 444.22C189.95 430.39 195.57 413.92 195.76 396.58C195.91 373.87 186.27 352.15 169.31 337.02L167.64 335.53V87.28C167.62 58.49 144.18 35.04 115.38 35ZM124.99 57.1C137.88 61.11 147.21 72.96 147.49 87.16V340.38C147.49 343.53 149 346.54 151.51 348.44C178.08 368.35 183.49 406.19 163.57 432.77C152.26 447.86 134.24 456.88 115.37 456.88C82.1498 456.86 55.1398 429.82 55.1498 396.6C55.1498 377.75 64.1598 359.73 79.2398 348.42C81.7298 346.54 83.2298 343.53 83.2398 340.4V87.25C83.5098 73.01 92.9598 61.11 105.8 57.1C105.8 57.1 114.94 54.12 125 57.1H124.99Z" fill="#B4B7BA"/>
</svg>
