<?xml version="1.0" encoding="UTF-8"?>
<svg height="600" width="800" xmlns="http://www.w3.org/2000/svg" xmlns:xlink="http://www.w3.org/1999/xlink">
    <g id="Notes" font-family="'LucidaGrande', 'Lucida Grande', sans-serif" font-size="13">
        <rect fill="white" height="600.0" width="800.0" x="0.0" y="0.0" />
        <g font-size="13">
            <text x="18.0" y="176.0">Small</text>
            <text x="18.0" y="376.0">Medium</text>
            <text x="18.0" y="576.0">Large</text>
        </g>
        <g font-size="9">
            <text x="250.0" y="30.0">Ultralight</text>
            <text x="450.0" y="30.0">Regular</text>
            <text x="650.0" y="30.0">Black</text>
            <text id="template-version" fill="#505050" text-anchor="end" x="785.0" y="575.0">Template v.3.0</text>
            <a href="https://github.com/swhitty/SwiftDraw">
                <text fill="#505050" text-anchor="end" x="785.0" y="590.0">https://github.com/swhitty/SwiftDraw</text>
            </a>
        </g>
    </g>
    <g id="Guides" stroke="rgb(39, 170, 225)" stroke-width="0.5">
        <path id="Capline-S" d="M18,76 l800,0" />
        <path id="H-reference" d="M85,145.755 L87.685,145.755 L113.369,79.287 L114.052,79.287 L114.052,76 L112.148,76 L85,145.755 Z M95.693,121.536 L130.996,121.536 L130.263,119.313 L96.474,119.313 L95.693,121.536 Z M139.15,145.755 L141.787,145.755 L114.638,76 L113.466,76 L113.466,79.287 L139.15,145.755 Z" stroke="none" />
        <path id="Baseline-S" d="M18,146 l800,0" />
        <path id="left-margin-Ultralight-S" d="M211,56 l0,110" />
        <path id="right-margin-Ultralight-S" d="M319,56 l0,110" />
        <path id="left-margin-Regular-S" d="M411,56 l0,110" />
        <path id="right-margin-Regular-S" d="M519,56 l0,110" />
        <path id="left-margin-Black-S" d="M611,56 l0,110" />
        <path id="right-margin-Black-S" d="M719,56 l0,110" />
        <path id="Capline-M" d="M18,276 l800,0" />
        <path id="Baseline-M" d="M18,346 l800,0" />
        <path id="Capline-L" d="M18,476 l800,0" />
        <path id="Baseline-L" d="M18,546 l800,0" />
    </g>
    <g id="Symbols">
        <g id="Ultralight-S">
            <path d="M275.533,111.736 L272.198,111.736 L272.198,115.441 L278.497,115.441 C279.111,115.441 279.609,115.939 279.609,116.553 C279.609,117.167 279.111,117.664 278.497,117.664 L271.087,117.664 L257.748,117.664 C255.087,117.664 252.931,119.821 252.931,122.481 L252.931,125.445 L257.377,125.445 L257.377,123.222 C257.377,122.608 257.875,122.111 258.489,122.111 L278.497,122.111 C279.111,122.111 279.609,122.608 279.609,123.222 C279.609,123.836 279.111,124.334 278.497,124.334 L259.6,124.334 L259.6,126.557 C259.6,127.171 259.103,127.669 258.489,127.669 L251.819,127.669 C251.205,127.669 250.708,127.171 250.708,126.557 L250.708,122.481 C250.708,118.593 253.86,115.441 257.748,115.441 L269.975,115.441 L269.975,111.736 L266.64,111.736 C266.026,111.736 265.529,111.238 265.529,110.624 C265.529,110.01 266.026,109.513 266.64,109.513 L271.087,109.513 L275.533,109.513 C276.147,109.513 276.645,110.01 276.645,110.624 C276.645,111.238 276.147,111.736 275.533,111.736 Z M254.78,128.78 C254.45,128.78 254.131,128.891 253.873,129.092 L250.708,134.304 C250.709,136.555 252.521,138.414 254.783,138.414 C257.045,138.414 258.859,136.56 258.859,134.306 L258.859,134.307 L257.747,134.305 L258.859,134.305 L258.859,134.306 C258.861,132.934 258.172,131.742 257.51,130.899 C256.834,130.037 256.072,129.394 255.689,129.095 C255.431,128.892 255.111,128.78 254.78,128.78 Z M255.762,132.272 C256.3,132.958 256.637,133.663 256.636,134.303 L256.636,134.305 C256.636,135.355 255.793,136.191 254.783,136.191 C253.775,136.191 252.931,135.354 252.931,134.301 L252.931,134.295 C252.927,133.64 253.263,132.936 253.796,132.259 C254.12,131.848 254.477,131.496 254.777,131.23 C255.076,131.5 255.436,131.857 255.762,132.272 Z" />
            <path d="M228.791,142.301 C225.518,136.257 223.779,129.472 223.779,122.431 C223.779,108.563 230.571,95.854 241.706,88.153 C242.337,87.717 242.495,86.852 242.059,86.22 C241.622,85.589 240.757,85.431 240.125,85.868 C228.246,94.083 221,107.642 221,122.431 C221,129.937 222.856,137.176 226.348,143.624 C226.713,144.299 227.556,144.55 228.231,144.185 C228.906,143.819 229.157,142.976 228.791,142.301 Z M303.652,143.624 C307.144,137.176 309,129.937 309,122.431 C309,97.956 289.303,78.111 265,78.111 C261.903,78.111 258.847,78.433 255.865,79.067 C255.114,79.227 254.635,79.965 254.795,80.716 C254.955,81.466 255.693,81.945 256.443,81.786 C259.235,81.192 262.098,80.89 265,80.89 C287.763,80.89 306.221,99.486 306.221,122.431 C306.221,129.472 304.482,136.257 301.209,142.301 C300.843,142.976 301.094,143.819 301.769,144.185 C302.444,144.55 303.287,144.299 303.652,143.624 Z" />
            <path d="M242.768,83.205 C242.768,80.136 245.257,77.648 248.326,77.648 C251.396,77.648 253.884,80.136 253.884,83.205 C253.884,86.275 251.396,88.763 248.326,88.763 C245.257,88.763 242.768,86.275 242.768,83.205 Z" />
            <path d="M263.611,79.5 L263.611,86.911 C263.611,87.678 264.233,88.3 265,88.3 C265.767,88.3 266.389,87.678 266.389,86.911 L266.389,79.5 C266.389,78.733 265.767,78.111 265,78.111 C264.233,78.111 263.611,78.733 263.611,79.5 Z" />
            <path d="M307.611,122.574 L300.2,122.574 C299.433,122.574 298.811,123.196 298.811,123.963 C298.811,124.731 299.433,125.353 300.2,125.353 L307.611,125.353 C308.378,125.353 309,124.731 309,123.963 C309,123.196 308.378,122.574 307.611,122.574 Z" />
            <path d="M229.8,122.574 L222.389,122.574 C221.622,122.574 221,123.196 221,123.963 C221,124.731 221.622,125.353 222.389,125.353 L229.8,125.353 C230.567,125.353 231.189,124.731 231.189,123.963 C231.189,123.196 230.567,122.574 229.8,122.574 Z" />
            <path d="M295.512,93.339 L290.272,98.579 C289.73,99.121 289.73,100.001 290.272,100.544 C290.815,101.086 291.695,101.086 292.237,100.544 L297.477,95.304 C298.02,94.761 298.02,93.881 297.477,93.339 C296.935,92.796 296.055,92.796 295.512,93.339 Z" />
            <path d="M232.523,95.304 L237.763,100.544 C238.305,101.086 239.185,101.086 239.728,100.544 C240.27,100.001 240.27,99.121 239.728,98.579 L234.488,93.339 C233.945,92.796 233.065,92.796 232.523,93.339 C231.98,93.881 231.98,94.761 232.523,95.304 Z" />
        </g>
        <g id="Regular-S">
            <path d="M475.533,111.736 L472.198,111.736 L472.198,115.441 L478.497,115.441 C479.111,115.441 479.609,115.939 479.609,116.553 C479.609,117.167 479.111,117.664 478.497,117.664 L471.087,117.664 L457.748,117.664 C455.087,117.664 452.931,119.821 452.931,122.481 L452.931,125.445 L457.377,125.445 L457.377,123.222 C457.377,122.608 457.875,122.111 458.489,122.111 L478.497,122.111 C479.111,122.111 479.609,122.608 479.609,123.222 C479.609,123.836 479.111,124.334 478.497,124.334 L459.6,124.334 L459.6,126.557 C459.6,127.171 459.103,127.669 458.489,127.669 L451.819,127.669 C451.205,127.669 450.708,127.171 450.708,126.557 L450.708,122.481 C450.708,118.593 453.86,115.441 457.748,115.441 L469.975,115.441 L469.975,111.736 L466.64,111.736 C466.026,111.736 465.529,111.238 465.529,110.624 C465.529,110.01 466.026,109.513 466.64,109.513 L471.087,109.513 L475.533,109.513 C476.147,109.513 476.645,110.01 476.645,110.624 C476.645,111.238 476.147,111.736 475.533,111.736 Z M454.78,128.78 C454.45,128.78 454.131,128.891 453.873,129.092 L450.708,134.304 C450.709,136.555 452.521,138.414 454.783,138.414 C457.045,138.414 458.859,136.56 458.859,134.306 L458.859,134.307 L457.747,134.305 L458.859,134.305 L458.859,134.306 C458.861,132.934 458.172,131.742 457.51,130.899 C456.834,130.037 456.072,129.394 455.689,129.095 C455.431,128.892 455.111,128.78 454.78,128.78 Z M455.762,132.272 C456.3,132.958 456.637,133.663 456.636,134.303 L456.636,134.305 C456.636,135.355 455.793,136.191 454.783,136.191 C453.775,136.191 452.931,135.354 452.931,134.301 L452.931,134.295 C452.927,133.64 453.263,132.936 453.796,132.259 C454.12,131.848 454.477,131.496 454.777,131.23 C455.076,131.5 455.436,131.857 455.762,132.272 Z" />
            <path d="M428.791,142.301 C425.518,136.257 423.779,129.472 423.779,122.431 C423.779,108.563 430.571,95.854 441.706,88.153 C442.337,87.717 442.495,86.852 442.059,86.22 C441.622,85.589 440.757,85.431 440.125,85.868 C428.246,94.083 421,107.642 421,122.431 C421,129.937 422.856,137.176 426.348,143.624 C426.713,144.299 427.556,144.55 428.231,144.185 C428.906,143.819 429.157,142.976 428.791,142.301 Z M503.652,143.624 C507.144,137.176 509,129.937 509,122.431 C509,97.956 489.303,78.111 465,78.111 C461.903,78.111 458.847,78.433 455.865,79.067 C455.114,79.227 454.635,79.965 454.795,80.716 C454.955,81.466 455.693,81.945 456.443,81.786 C459.235,81.192 462.098,80.89 465,80.89 C487.763,80.89 506.221,99.486 506.221,122.431 C506.221,129.472 504.482,136.257 501.209,142.301 C500.843,142.976 501.094,143.819 501.769,144.185 C502.444,144.55 503.287,144.299 503.652,143.624 Z" />
            <path d="M442.768,83.205 C442.768,80.136 445.257,77.648 448.326,77.648 C451.396,77.648 453.884,80.136 453.884,83.205 C453.884,86.275 451.396,88.763 448.326,88.763 C445.257,88.763 442.768,86.275 442.768,83.205 Z" />
            <path d="M463.611,79.5 L463.611,86.911 C463.611,87.678 464.233,88.3 465,88.3 C465.767,88.3 466.389,87.678 466.389,86.911 L466.389,79.5 C466.389,78.733 465.767,78.111 465,78.111 C464.233,78.111 463.611,78.733 463.611,79.5 Z" />
            <path d="M507.611,122.574 L500.2,122.574 C499.433,122.574 498.811,123.196 498.811,123.963 C498.811,124.731 499.433,125.353 500.2,125.353 L507.611,125.353 C508.378,125.353 509,124.731 509,123.963 C509,123.196 508.378,122.574 507.611,122.574 Z" />
            <path d="M429.8,122.574 L422.389,122.574 C421.622,122.574 421,123.196 421,123.963 C421,124.731 421.622,125.353 422.389,125.353 L429.8,125.353 C430.567,125.353 431.189,124.731 431.189,123.963 C431.189,123.196 430.567,122.574 429.8,122.574 Z" />
            <path d="M495.512,93.339 L490.272,98.579 C489.73,99.121 489.73,100.001 490.272,100.544 C490.815,101.086 491.695,101.086 492.237,100.544 L497.477,95.304 C498.02,94.761 498.02,93.881 497.477,93.339 C496.935,92.796 496.055,92.796 495.512,93.339 Z" />
            <path d="M432.523,95.304 L437.763,100.544 C438.305,101.086 439.185,101.086 439.728,100.544 C440.27,100.001 440.27,99.121 439.728,98.579 L434.488,93.339 C433.945,92.796 433.065,92.796 432.523,93.339 C431.98,93.881 431.98,94.761 432.523,95.304 Z" />
        </g>
        <g id="Black-S">
            <path d="M675.533,111.736 L672.198,111.736 L672.198,115.441 L678.497,115.441 C679.111,115.441 679.609,115.939 679.609,116.553 C679.609,117.167 679.111,117.664 678.497,117.664 L671.087,117.664 L657.748,117.664 C655.087,117.664 652.931,119.821 652.931,122.481 L652.931,125.445 L657.377,125.445 L657.377,123.222 C657.377,122.608 657.875,122.111 658.489,122.111 L678.497,122.111 C679.111,122.111 679.609,122.608 679.609,123.222 C679.609,123.836 679.111,124.334 678.497,124.334 L659.6,124.334 L659.6,126.557 C659.6,127.171 659.103,127.669 658.489,127.669 L651.819,127.669 C651.205,127.669 650.708,127.171 650.708,126.557 L650.708,122.481 C650.708,118.593 653.86,115.441 657.748,115.441 L669.975,115.441 L669.975,111.736 L666.64,111.736 C666.026,111.736 665.529,111.238 665.529,110.624 C665.529,110.01 666.026,109.513 666.64,109.513 L671.087,109.513 L675.533,109.513 C676.147,109.513 676.645,110.01 676.645,110.624 C676.645,111.238 676.147,111.736 675.533,111.736 Z M654.78,128.78 C654.45,128.78 654.131,128.891 653.873,129.092 L650.708,134.304 C650.709,136.555 652.521,138.414 654.784,138.414 C657.045,138.414 658.859,136.56 658.859,134.306 L658.859,134.307 L657.748,134.305 L658.859,134.305 L658.859,134.306 C658.862,132.934 658.172,131.742 657.51,130.899 C656.834,130.037 656.072,129.394 655.689,129.095 C655.431,128.892 655.111,128.78 654.78,128.78 Z M655.762,132.272 C656.3,132.958 656.637,133.663 656.636,134.303 L656.636,134.305 C656.636,135.355 655.793,136.191 654.784,136.191 C653.776,136.191 652.931,135.354 652.931,134.301 L652.931,134.295 C652.927,133.64 653.263,132.936 653.796,132.259 C654.12,131.848 654.477,131.496 654.777,131.23 C655.076,131.5 655.436,131.857 655.762,132.272 Z" />
            <path d="M628.791,142.301 C625.518,136.257 623.779,129.472 623.779,122.431 C623.779,108.563 630.571,95.854 641.706,88.153 C642.337,87.717 642.495,86.852 642.059,86.22 C641.622,85.589 640.757,85.431 640.125,85.868 C628.246,94.083 621,107.642 621,122.431 C621,129.937 622.856,137.176 626.348,143.624 C626.713,144.299 627.556,144.55 628.231,144.185 C628.906,143.819 629.157,142.976 628.791,142.301 Z M703.652,143.624 C707.144,137.176 709,129.937 709,122.431 C709,97.956 689.303,78.111 665,78.111 C661.903,78.111 658.847,78.433 655.865,79.067 C655.114,79.227 654.635,79.965 654.795,80.716 C654.955,81.466 655.693,81.945 656.443,81.786 C659.235,81.192 662.098,80.89 665,80.89 C687.763,80.89 706.221,99.486 706.221,122.431 C706.221,129.472 704.482,136.257 701.209,142.301 C700.843,142.976 701.094,143.819 701.769,144.185 C702.444,144.55 703.287,144.299 703.652,143.624 Z" />
            <path d="M642.768,83.205 C642.768,80.136 645.257,77.648 648.326,77.648 C651.396,77.648 653.884,80.136 653.884,83.205 C653.884,86.275 651.396,88.763 648.326,88.763 C645.257,88.763 642.768,86.275 642.768,83.205 Z" />
            <path d="M663.611,79.5 L663.611,86.911 C663.611,87.678 664.233,88.3 665,88.3 C665.767,88.3 666.39,87.678 666.39,86.911 L666.39,79.5 C666.39,78.733 665.767,78.111 665,78.111 C664.233,78.111 663.611,78.733 663.611,79.5 Z" />
            <path d="M707.611,122.574 L700.2,122.574 C699.433,122.574 698.811,123.196 698.811,123.963 C698.811,124.731 699.433,125.353 700.2,125.353 L707.611,125.353 C708.378,125.353 709,124.731 709,123.963 C709,123.196 708.378,122.574 707.611,122.574 Z" />
            <path d="M629.8,122.574 L622.39,122.574 C621.622,122.574 621,123.196 621,123.963 C621,124.731 621.622,125.353 622.39,125.353 L629.8,125.353 C630.567,125.353 631.19,124.731 631.19,123.963 C631.19,123.196 630.567,122.574 629.8,122.574 Z" />
            <path d="M695.512,93.339 L690.272,98.579 C689.73,99.121 689.73,100.001 690.272,100.544 C690.815,101.086 691.695,101.086 692.237,100.544 L697.477,95.304 C698.02,94.761 698.02,93.881 697.477,93.339 C696.935,92.796 696.055,92.796 695.512,93.339 Z" />
            <path d="M632.523,95.304 L637.763,100.544 C638.305,101.086 639.185,101.086 639.728,100.544 C640.27,100.001 640.27,99.121 639.728,98.579 L634.488,93.339 C633.945,92.796 633.065,92.796 632.523,93.339 C631.98,93.881 631.98,94.761 632.523,95.304 Z" />
        </g>
    </g>
</svg>