<?xml version="1.0" encoding="UTF-8"?>
<svg height="600" width="800" xmlns="http://www.w3.org/2000/svg" xmlns:xlink="http://www.w3.org/1999/xlink">
    <g id="Notes" font-family="'LucidaGrande', 'Lucida Grande', sans-serif" font-size="13">
        <rect fill="white" height="600.0" width="800.0" x="0.0" y="0.0" />
        <g font-size="13">
            <text x="18.0" y="176.0">Small</text>
            <text x="18.0" y="376.0">Medium</text>
            <text x="18.0" y="576.0">Large</text>
        </g>
        <g font-size="9">
            <text x="250.0" y="30.0">Ultralight</text>
            <text x="450.0" y="30.0">Regular</text>
            <text x="650.0" y="30.0">Black</text>
            <text id="template-version" fill="#505050" text-anchor="end" x="785.0" y="575.0">Template v.3.0</text>
            <a href="https://github.com/swhitty/SwiftDraw">
                <text fill="#505050" text-anchor="end" x="785.0" y="590.0">https://github.com/swhitty/SwiftDraw</text>
            </a>
        </g>
    </g>
    <g id="Guides" stroke="rgb(39, 170, 225)" stroke-width="0.5">
        <path id="Capline-S" d="M18,76 l800,0" />
        <path id="H-reference" d="M85,145.755 L87.685,145.755 L113.369,79.287 L114.052,79.287 L114.052,76 L112.148,76 L85,145.755 Z M95.693,121.536 L130.996,121.536 L130.263,119.313 L96.474,119.313 L95.693,121.536 Z M139.15,145.755 L141.787,145.755 L114.638,76 L113.466,76 L113.466,79.287 L139.15,145.755 Z" stroke="none" />
        <path id="Baseline-S" d="M18,146 l800,0" />
        <path id="left-margin-Ultralight-S" d="M221,56 l0,110" />
        <path id="right-margin-Ultralight-S" d="M309,56 l0,110" />
        <path id="left-margin-Regular-S" d="M421,56 l0,110" />
        <path id="right-margin-Regular-S" d="M509,56 l0,110" />
        <path id="left-margin-Black-S" d="M621,56 l0,110" />
        <path id="right-margin-Black-S" d="M709,56 l0,110" />
        <path id="Capline-M" d="M18,276 l800,0" />
        <path id="Baseline-M" d="M18,346 l800,0" />
        <path id="Capline-L" d="M18,476 l800,0" />
        <path id="Baseline-L" d="M18,546 l800,0" />
    </g>
    <g id="Symbols">
        <g id="Ultralight-S">
            <path d="M292.223,94.361 C287.549,88.586 280.644,84.17 272.654,81.814 L273.627,78.026 C273.85,77.158 273.328,76.274 272.459,76.051 C271.591,75.828 270.708,76.35 270.485,77.219 L269.511,81.005 C261.374,79.219 253.196,79.761 246.318,82.569 C238.83,85.625 233.758,90.992 232.04,97.684 C232.015,97.781 231.989,97.879 231.967,97.977 C231.863,98.432 231.959,98.908 232.229,99.287 C232.5,99.665 232.922,99.908 233.385,99.956 C234.476,100.065 235.576,100.261 236.654,100.538 C241.702,101.834 245.992,104.845 248.135,108.588 C248.143,108.605 248.153,108.62 248.163,108.637 L248.167,108.642 L248.167,108.646 C248.167,108.646 248.172,108.656 248.175,108.661 L248.175,108.664 L248.178,108.664 L248.178,108.668 C248.39,108.997 248.699,109.223 249.045,109.337 C249.152,109.37 249.261,109.394 249.373,109.406 C249.68,109.44 249.998,109.384 250.287,109.235 C250.326,109.215 250.363,109.195 250.398,109.171 C253.694,107.159 258.218,106.495 262.752,107.309 L255.568,135.283 C252.914,135.422 250.288,135.812 247.711,136.449 C238.879,138.633 233.701,142.956 233.485,143.14 C232.8,143.72 232.716,144.742 233.295,145.426 C233.875,146.11 234.897,146.195 235.581,145.615 C235.628,145.575 240.389,141.601 248.491,139.598 C253.263,138.417 258.22,138.16 263.22,138.836 C269.508,139.686 275.894,142.019 282.202,145.771 C282.462,145.926 282.747,145.999 283.03,145.999 C283.582,145.999 284.121,145.715 284.425,145.206 C284.883,144.436 284.629,143.441 283.861,142.983 C277.176,139.007 270.376,136.528 263.655,135.621 C262.075,135.408 260.497,135.283 258.929,135.241 L265.898,108.114 C270.723,109.742 274.649,112.948 276.35,116.731 C276.553,117.18 276.948,117.513 277.426,117.636 C277.559,117.67 277.695,117.687 277.83,117.687 C278.178,117.687 278.521,117.576 278.805,117.361 C282.467,114.604 288.177,113.773 293.703,115.194 C294.252,115.334 294.803,115.498 295.34,115.682 C295.767,115.827 296.237,115.788 296.634,115.574 C297.031,115.359 297.321,114.989 297.433,114.552 L297.45,114.484 C299.168,107.798 297.311,100.652 292.221,94.364 L292.223,94.361 Z M248.937,104.182 C246.146,101.025 242.06,98.577 237.463,97.396 C236.862,97.241 236.253,97.109 235.643,96.999 C239.191,87.164 251.802,81.667 265.683,83.611 C264.278,84.441 262.643,85.532 260.926,86.933 C256.953,90.176 251.86,95.7 248.937,104.182 Z M277.127,111.867 C274.358,108.428 270.118,105.784 265.151,104.508 C263.112,103.985 261.041,103.728 259.022,103.728 C256.61,103.728 254.272,104.095 252.148,104.813 C254.304,98.749 257.902,93.621 262.874,89.531 C266.324,86.693 269.461,85.216 270.682,84.699 C271.505,85.742 273.542,88.548 275.196,92.695 C277.659,98.868 278.304,105.304 277.125,111.869 L277.127,111.867 Z M294.637,112.082 C294.595,112.07 294.553,112.06 294.512,112.05 C289.456,110.751 284.373,111.058 280.247,112.82 C281.953,103.723 280.117,96.215 278.158,91.359 C277.358,89.377 276.487,87.683 275.679,86.306 C288.219,91.433 296.184,102.02 294.637,112.083 L294.637,112.082 Z" />
        </g>
        <g id="Regular-S">
            <path d="M492.223,94.361 C487.549,88.586 480.644,84.17 472.654,81.814 L473.627,78.026 C473.85,77.158 473.328,76.274 472.459,76.051 C471.591,75.828 470.708,76.35 470.485,77.219 L469.511,81.005 C461.374,79.219 453.196,79.761 446.318,82.569 C438.83,85.625 433.758,90.992 432.04,97.684 C432.015,97.781 431.989,97.879 431.967,97.977 C431.863,98.432 431.959,98.908 432.229,99.287 C432.5,99.665 432.922,99.908 433.385,99.956 C434.476,100.065 435.576,100.261 436.654,100.538 C441.702,101.834 445.992,104.845 448.135,108.588 C448.143,108.605 448.153,108.62 448.163,108.637 L448.167,108.642 L448.167,108.646 C448.167,108.646 448.172,108.656 448.175,108.661 L448.175,108.664 L448.178,108.664 L448.178,108.668 C448.39,108.997 448.699,109.223 449.045,109.337 C449.152,109.37 449.261,109.394 449.373,109.406 C449.68,109.44 449.998,109.384 450.287,109.235 C450.326,109.215 450.363,109.195 450.398,109.171 C453.694,107.159 458.218,106.495 462.752,107.309 L455.568,135.283 C452.914,135.422 450.288,135.812 447.711,136.449 C438.879,138.633 433.701,142.956 433.485,143.14 C432.8,143.72 432.716,144.742 433.295,145.426 C433.875,146.11 434.897,146.195 435.581,145.615 C435.628,145.575 440.389,141.601 448.491,139.598 C453.263,138.417 458.22,138.16 463.22,138.836 C469.508,139.686 475.894,142.019 482.202,145.771 C482.462,145.926 482.747,145.999 483.03,145.999 C483.582,145.999 484.121,145.715 484.425,145.206 C484.883,144.436 484.629,143.441 483.861,142.983 C477.176,139.007 470.376,136.528 463.655,135.621 C462.075,135.408 460.497,135.283 458.929,135.241 L465.898,108.114 C470.723,109.742 474.649,112.948 476.35,116.731 C476.553,117.18 476.948,117.513 477.426,117.636 C477.559,117.67 477.695,117.687 477.83,117.687 C478.178,117.687 478.521,117.576 478.805,117.361 C482.467,114.604 488.177,113.773 493.703,115.194 C494.252,115.334 494.803,115.498 495.34,115.682 C495.767,115.827 496.237,115.788 496.634,115.574 C497.031,115.359 497.321,114.989 497.433,114.552 L497.45,114.484 C499.168,107.798 497.311,100.652 492.221,94.364 L492.223,94.361 Z M448.937,104.182 C446.146,101.025 442.06,98.577 437.463,97.396 C436.862,97.241 436.253,97.109 435.643,96.999 C439.191,87.164 451.802,81.667 465.683,83.611 C464.278,84.441 462.643,85.532 460.926,86.933 C456.953,90.176 451.86,95.7 448.937,104.182 Z M477.127,111.867 C474.358,108.428 470.118,105.784 465.151,104.508 C463.112,103.985 461.041,103.728 459.022,103.728 C456.61,103.728 454.272,104.095 452.148,104.813 C454.304,98.749 457.902,93.621 462.874,89.531 C466.324,86.693 469.461,85.216 470.682,84.699 C471.505,85.742 473.542,88.548 475.196,92.695 C477.659,98.868 478.304,105.304 477.125,111.869 L477.127,111.867 Z M494.637,112.082 C494.595,112.07 494.553,112.06 494.512,112.05 C489.456,110.751 484.373,111.058 480.247,112.82 C481.953,103.723 480.117,96.215 478.158,91.359 C477.358,89.377 476.487,87.683 475.679,86.306 C488.219,91.433 496.184,102.02 494.637,112.083 L494.637,112.082 Z" />
        </g>
        <g id="Black-S">
            <path d="M692.223,94.361 C687.549,88.586 680.644,84.17 672.654,81.814 L673.627,78.026 C673.85,77.158 673.328,76.274 672.459,76.051 C671.591,75.828 670.708,76.35 670.484,77.219 L669.511,81.005 C661.374,79.219 653.196,79.761 646.318,82.569 C638.83,85.625 633.758,90.992 632.04,97.684 C632.015,97.781 631.989,97.879 631.967,97.977 C631.863,98.432 631.959,98.908 632.229,99.287 C632.5,99.665 632.922,99.908 633.385,99.956 C634.476,100.065 635.576,100.261 636.654,100.538 C641.702,101.834 645.992,104.845 648.135,108.588 C648.143,108.605 648.153,108.62 648.163,108.637 L648.167,108.642 L648.167,108.646 C648.167,108.646 648.172,108.656 648.175,108.661 L648.175,108.664 L648.178,108.664 L648.178,108.668 C648.39,108.997 648.699,109.223 649.045,109.337 C649.151,109.37 649.261,109.394 649.373,109.406 C649.68,109.44 649.998,109.384 650.287,109.235 C650.326,109.215 650.363,109.195 650.398,109.171 C653.694,107.159 658.218,106.495 662.752,107.309 L655.568,135.283 C652.914,135.422 650.288,135.812 647.711,136.449 C638.879,138.633 633.701,142.956 633.484,143.14 C632.8,143.72 632.716,144.742 633.295,145.426 C633.875,146.11 634.897,146.195 635.581,145.615 C635.628,145.575 640.389,141.601 648.491,139.598 C653.263,138.417 658.22,138.16 663.22,138.836 C669.508,139.686 675.894,142.019 682.202,145.771 C682.462,145.926 682.747,145.999 683.03,145.999 C683.582,145.999 684.121,145.715 684.425,145.206 C684.883,144.436 684.629,143.441 683.861,142.983 C677.176,139.007 670.376,136.528 663.654,135.621 C662.075,135.408 660.497,135.283 658.929,135.241 L665.898,108.114 C670.723,109.742 674.649,112.948 676.35,116.731 C676.553,117.18 676.948,117.513 677.426,117.636 C677.56,117.67 677.695,117.687 677.83,117.687 C678.178,117.687 678.521,117.576 678.805,117.361 C682.467,114.604 688.177,113.773 693.703,115.194 C694.252,115.334 694.803,115.498 695.34,115.682 C695.767,115.827 696.237,115.788 696.634,115.574 C697.031,115.359 697.321,114.989 697.433,114.552 L697.45,114.484 C699.168,107.798 697.311,100.652 692.221,94.364 L692.223,94.361 Z M648.937,104.182 C646.146,101.025 642.06,98.577 637.463,97.396 C636.862,97.241 636.253,97.109 635.643,96.999 C639.191,87.164 651.802,81.667 665.683,83.611 C664.278,84.441 662.643,85.532 660.926,86.933 C656.953,90.176 651.859,95.7 648.937,104.182 Z M677.127,111.867 C674.358,108.428 670.118,105.784 665.151,104.508 C663.112,103.985 661.041,103.728 659.022,103.728 C656.61,103.728 654.272,104.095 652.148,104.813 C654.304,98.749 657.902,93.621 662.874,89.531 C666.324,86.693 669.461,85.216 670.682,84.699 C671.505,85.742 673.542,88.548 675.196,92.695 C677.659,98.868 678.305,105.304 677.125,111.869 L677.127,111.867 Z M694.637,112.082 C694.595,112.07 694.553,112.06 694.512,112.05 C689.456,110.751 684.373,111.058 680.247,112.82 C681.953,103.723 680.117,96.215 678.158,91.359 C677.358,89.377 676.487,87.683 675.679,86.306 C688.219,91.433 696.184,102.02 694.637,112.083 L694.637,112.082 Z" />
        </g>
    </g>
</svg>