<?xml version="1.0" encoding="UTF-8"?>
<svg height="600" width="800" xmlns="http://www.w3.org/2000/svg" xmlns:xlink="http://www.w3.org/1999/xlink">
    <g id="Notes" font-family="'LucidaGrande', 'Lucida Grande', sans-serif" font-size="13">
        <rect fill="white" height="600.0" width="800.0" x="0.0" y="0.0" />
        <g font-size="13">
            <text x="18.0" y="176.0">Small</text>
            <text x="18.0" y="376.0">Medium</text>
            <text x="18.0" y="576.0">Large</text>
        </g>
        <g font-size="9">
            <text x="250.0" y="30.0">Ultralight</text>
            <text x="450.0" y="30.0">Regular</text>
            <text x="650.0" y="30.0">Black</text>
            <text id="template-version" fill="#505050" text-anchor="end" x="785.0" y="575.0">Template v.3.0</text>
            <a href="https://github.com/swhitty/SwiftDraw">
                <text fill="#505050" text-anchor="end" x="785.0" y="590.0">https://github.com/swhitty/SwiftDraw</text>
            </a>
        </g>
    </g>
    <g id="Guides" stroke="rgb(39, 170, 225)" stroke-width="0.5">
        <path id="Capline-S" d="M18,76 l800,0" />
        <path id="H-reference" d="M85,145.755 L87.685,145.755 L113.369,79.287 L114.052,79.287 L114.052,76 L112.148,76 L85,145.755 Z M95.693,121.536 L130.996,121.536 L130.263,119.313 L96.474,119.313 L95.693,121.536 Z M139.15,145.755 L141.787,145.755 L114.638,76 L113.466,76 L113.466,79.287 L139.15,145.755 Z" stroke="none" />
        <path id="Baseline-S" d="M18,146 l800,0" />
        <path id="left-margin-Ultralight-S" d="M219.992,56 l0,110" />
        <path id="right-margin-Ultralight-S" d="M310.008,56 l0,110" />
        <path id="left-margin-Regular-S" d="M419.992,56 l0,110" />
        <path id="right-margin-Regular-S" d="M510.008,56 l0,110" />
        <path id="left-margin-Black-S" d="M619.992,56 l0,110" />
        <path id="right-margin-Black-S" d="M710.008,56 l0,110" />
        <path id="Capline-M" d="M18,276 l800,0" />
        <path id="Baseline-M" d="M18,346 l800,0" />
        <path id="Capline-L" d="M18,476 l800,0" />
        <path id="Baseline-L" d="M18,546 l800,0" />
    </g>
    <g id="Symbols">
        <g id="Ultralight-S">
            <path d="M241.138,99.895 L241.138,128.636 L240.675,128.848 C239.475,129.399 238.561,130.382 238.102,131.62 C237.642,132.856 237.693,134.199 238.241,135.398 C238.79,136.597 239.774,137.511 241.013,137.971 C242.249,138.431 243.592,138.38 244.791,137.832 C247.267,136.696 248.358,133.759 247.223,131.282 C246.73,130.206 245.866,129.343 244.791,128.85 L244.328,128.638 L244.328,99.893 C244.328,99.015 243.611,98.3 242.731,98.298 C241.853,98.298 241.136,99.015 241.136,99.895 L241.138,99.895 Z" />
            <path d="M242.734,76.002 C238.173,76.006 234.457,79.723 234.452,84.287 L234.452,123.643 L234.187,123.88 C231.495,126.28 229.967,129.725 229.992,133.331 C230.022,136.078 230.913,138.688 232.57,140.876 L232.649,140.979 C235.073,144.166 238.747,145.994 242.736,146 C246.776,145.994 250.479,144.129 252.896,140.882 C254.557,138.689 255.448,136.078 255.478,133.329 C255.502,129.728 253.974,126.285 251.285,123.886 L251.02,123.65 L251.02,84.29 C251.017,79.726 247.301,76.008 242.734,76.002 Z M244.258,79.505 C246.302,80.141 247.781,82.02 247.825,84.271 L247.825,124.419 C247.825,124.918 248.065,125.395 248.463,125.696 C252.675,128.853 253.533,134.853 250.375,139.067 C248.582,141.459 245.725,142.889 242.733,142.889 C237.466,142.886 233.183,138.599 233.185,133.332 C233.185,130.344 234.614,127.486 237.004,125.693 C237.399,125.395 237.637,124.918 237.639,124.422 L237.639,84.286 C237.681,82.028 239.18,80.141 241.215,79.505 C241.215,79.505 242.665,79.033 244.26,79.505 L244.258,79.505 Z" />
            <path d="M278.406,87.149 C272.608,87.149 267.891,91.866 267.891,97.664 C267.891,103.462 272.608,108.179 278.406,108.179 C284.204,108.179 288.921,103.462 288.921,97.664 C288.914,91.872 284.198,87.155 278.406,87.149 Z M285.729,97.664 C285.726,101.699 282.441,104.982 278.406,104.986 C274.368,104.986 271.083,101.7 271.083,97.662 C271.083,93.624 274.368,90.339 278.406,90.339 C282.444,90.339 285.729,93.624 285.729,97.662 L285.729,97.664 Z" />
            <path d="M276.811,77.598 L276.811,80.512 C276.824,80.936 277,81.329 277.307,81.619 C277.616,81.912 278.021,82.068 278.447,82.056 C279.294,82.034 279.975,81.357 280.002,80.511 L280.002,77.595 C280.002,76.717 279.284,76 278.406,76 C277.529,76 276.812,76.717 276.811,77.597 L276.811,77.598 Z" />
            <path d="M276.811,114.804 L276.811,117.718 C276.824,118.142 277,118.535 277.307,118.825 C277.616,119.118 278.021,119.277 278.447,119.264 C279.294,119.242 279.975,118.563 280.002,117.718 L280.002,114.803 C280.002,113.924 279.286,113.209 278.406,113.208 C277.527,113.208 276.811,113.924 276.811,114.804 Z" />
            <path d="M262.802,97.623 C262.779,96.776 262.102,96.094 261.256,96.067 L258.351,96.067 C257.476,96.094 256.783,96.827 256.805,97.703 C256.828,98.55 257.506,99.232 258.351,99.259 L261.256,99.259 C262.131,99.232 262.824,98.499 262.802,97.623 Z" />
            <path d="M300.008,97.623 C299.986,96.776 299.309,96.094 298.462,96.067 L295.557,96.067 C294.682,96.094 293.989,96.827 294.012,97.703 C294.034,98.55 294.712,99.232 295.557,99.259 L298.462,99.259 C299.337,99.232 300.03,98.499 300.008,97.623 Z" />
            <path d="M265.345,82.345 C265.064,82.064 264.684,81.898 264.289,81.881 L264.216,81.881 C263.789,81.881 263.39,82.047 263.089,82.348 C262.787,82.649 262.621,83.051 262.621,83.475 C262.621,83.902 262.787,84.302 263.089,84.604 L265.113,86.631 C265.735,87.252 266.746,87.252 267.369,86.631 C267.992,86.009 267.991,84.996 267.369,84.374 L265.345,82.347 L265.345,82.345 Z" />
            <path d="M290.573,108.233 L290.49,108.233 C289.647,108.272 288.971,108.971 288.971,109.824 C288.971,110.246 289.141,110.657 289.439,110.955 L291.467,112.983 C292.085,113.606 293.09,113.61 293.712,112.995 C293.864,112.843 293.983,112.666 294.065,112.466 C294.324,111.86 294.191,111.185 293.729,110.733 L291.695,108.699 C291.4,108.402 290.991,108.233 290.573,108.233 Z" />
            <path d="M267.374,110.955 C267.996,110.333 267.996,109.322 267.374,108.7 C267.073,108.399 266.672,108.233 266.247,108.233 L266.118,108.233 C265.743,108.263 265.384,108.428 265.116,108.696 L263.087,110.725 C262.466,111.346 262.466,112.36 263.087,112.981 C263.709,113.603 264.722,113.603 265.343,112.981 L267.376,110.955 L267.374,110.955 Z" />
            <path d="M292.596,81.882 L292.516,81.882 C292.123,81.9 291.743,82.066 291.464,82.347 L289.441,84.373 C288.819,84.996 288.819,86.011 289.444,86.632 C289.745,86.932 290.145,87.098 290.57,87.098 L290.573,87.098 C290.991,87.098 291.4,86.929 291.695,86.632 L293.725,84.603 C294.026,84.302 294.192,83.9 294.192,83.475 C294.192,83.049 294.026,82.649 293.725,82.348 C293.423,82.047 293.022,81.881 292.597,81.881 L292.596,81.882 Z" />
        </g>
        <g id="Regular-S">
            <path d="M441.138,99.895 L441.138,128.636 L440.675,128.848 C439.475,129.399 438.561,130.382 438.102,131.62 C437.642,132.856 437.693,134.199 438.241,135.398 C438.79,136.597 439.774,137.511 441.013,137.971 C442.249,138.431 443.592,138.38 444.791,137.832 C447.267,136.696 448.358,133.759 447.223,131.282 C446.73,130.206 445.866,129.343 444.791,128.85 L444.328,128.638 L444.328,99.893 C444.328,99.015 443.611,98.3 442.731,98.298 C441.853,98.298 441.136,99.015 441.136,99.895 L441.138,99.895 Z" />
            <path d="M442.734,76.002 C438.173,76.006 434.457,79.723 434.452,84.287 L434.452,123.643 L434.187,123.88 C431.495,126.28 429.967,129.725 429.992,133.331 C430.022,136.078 430.913,138.688 432.57,140.876 L432.649,140.979 C435.073,144.166 438.747,145.994 442.736,146 C446.776,145.994 450.479,144.129 452.896,140.882 C454.557,138.689 455.448,136.078 455.478,133.329 C455.502,129.728 453.974,126.285 451.285,123.886 L451.02,123.65 L451.02,84.29 C451.017,79.726 447.301,76.008 442.734,76.002 Z M444.258,79.505 C446.302,80.141 447.781,82.02 447.825,84.271 L447.825,124.419 C447.825,124.918 448.065,125.395 448.463,125.696 C452.675,128.853 453.533,134.853 450.375,139.067 C448.582,141.459 445.725,142.889 442.733,142.889 C437.466,142.886 433.184,138.599 433.185,133.332 C433.185,130.344 434.614,127.486 437.004,125.693 C437.399,125.395 437.637,124.918 437.639,124.422 L437.639,84.286 C437.681,82.028 439.18,80.141 441.216,79.505 C441.216,79.505 442.665,79.033 444.26,79.505 L444.258,79.505 Z" />
            <path d="M478.406,87.149 C472.608,87.149 467.891,91.866 467.891,97.664 C467.891,103.462 472.608,108.179 478.406,108.179 C484.204,108.179 488.921,103.462 488.921,97.664 C488.914,91.872 484.198,87.155 478.406,87.149 Z M485.729,97.664 C485.726,101.699 482.441,104.982 478.406,104.986 C474.368,104.986 471.083,101.7 471.083,97.662 C471.083,93.624 474.368,90.339 478.406,90.339 C482.444,90.339 485.729,93.624 485.729,97.662 L485.729,97.664 Z" />
            <path d="M476.811,77.598 L476.811,80.512 C476.824,80.936 477,81.329 477.307,81.619 C477.616,81.912 478.021,82.068 478.447,82.056 C479.294,82.034 479.975,81.357 480.002,80.511 L480.002,77.595 C480.002,76.717 479.284,76 478.406,76 C477.529,76 476.812,76.717 476.811,77.597 L476.811,77.598 Z" />
            <path d="M476.811,114.804 L476.811,117.718 C476.824,118.142 477,118.535 477.307,118.825 C477.616,119.118 478.021,119.277 478.447,119.264 C479.294,119.242 479.975,118.563 480.002,117.718 L480.002,114.803 C480.002,113.924 479.286,113.209 478.406,113.208 C477.527,113.208 476.811,113.924 476.811,114.804 Z" />
            <path d="M462.802,97.623 C462.779,96.776 462.102,96.094 461.256,96.067 L458.351,96.067 C457.476,96.094 456.783,96.827 456.805,97.703 C456.828,98.55 457.506,99.232 458.351,99.259 L461.256,99.259 C462.131,99.232 462.824,98.499 462.802,97.623 Z" />
            <path d="M500.008,97.623 C499.986,96.776 499.309,96.094 498.462,96.067 L495.557,96.067 C494.682,96.094 493.989,96.827 494.012,97.703 C494.034,98.55 494.712,99.232 495.557,99.259 L498.462,99.259 C499.337,99.232 500.03,98.499 500.008,97.623 Z" />
            <path d="M465.345,82.345 C465.064,82.064 464.684,81.898 464.289,81.881 L464.216,81.881 C463.789,81.881 463.39,82.047 463.089,82.348 C462.787,82.649 462.621,83.051 462.621,83.475 C462.621,83.902 462.787,84.302 463.089,84.604 L465.113,86.631 C465.735,87.252 466.746,87.252 467.369,86.631 C467.992,86.009 467.991,84.996 467.369,84.374 L465.345,82.347 L465.345,82.345 Z" />
            <path d="M490.573,108.233 L490.49,108.233 C489.647,108.272 488.971,108.971 488.971,109.824 C488.971,110.246 489.141,110.657 489.439,110.955 L491.467,112.983 C492.085,113.606 493.09,113.61 493.712,112.995 C493.864,112.843 493.983,112.666 494.065,112.466 C494.324,111.86 494.191,111.185 493.729,110.733 L491.695,108.699 C491.4,108.402 490.991,108.233 490.573,108.233 Z" />
            <path d="M467.374,110.955 C467.996,110.333 467.996,109.322 467.374,108.7 C467.073,108.399 466.672,108.233 466.247,108.233 L466.118,108.233 C465.743,108.263 465.384,108.428 465.116,108.696 L463.087,110.725 C462.466,111.346 462.466,112.36 463.087,112.981 C463.709,113.603 464.722,113.603 465.343,112.981 L467.376,110.955 L467.374,110.955 Z" />
            <path d="M492.596,81.882 L492.516,81.882 C492.123,81.9 491.743,82.066 491.464,82.347 L489.441,84.373 C488.819,84.996 488.819,86.011 489.444,86.632 C489.745,86.932 490.145,87.098 490.57,87.098 L490.573,87.098 C490.991,87.098 491.4,86.929 491.695,86.632 L493.725,84.603 C494.026,84.302 494.192,83.9 494.192,83.475 C494.192,83.049 494.026,82.649 493.725,82.348 C493.423,82.047 493.022,81.881 492.597,81.881 L492.596,81.882 Z" />
        </g>
        <g id="Black-S">
            <path d="M641.138,99.895 L641.138,128.636 L640.675,128.848 C639.475,129.399 638.561,130.382 638.102,131.62 C637.642,132.856 637.693,134.199 638.241,135.398 C638.79,136.597 639.774,137.511 641.013,137.971 C642.249,138.431 643.592,138.38 644.791,137.832 C647.267,136.696 648.358,133.759 647.223,131.282 C646.73,130.206 645.866,129.343 644.791,128.85 L644.328,128.638 L644.328,99.893 C644.328,99.015 643.611,98.3 642.731,98.298 C641.853,98.298 641.136,99.015 641.136,99.895 L641.138,99.895 Z" />
            <path d="M642.734,76.002 C638.173,76.006 634.457,79.723 634.452,84.287 L634.452,123.643 L634.187,123.88 C631.495,126.28 629.967,129.725 629.992,133.331 C630.022,136.078 630.913,138.688 632.57,140.876 L632.649,140.979 C635.073,144.166 638.747,145.994 642.736,146 C646.776,145.994 650.479,144.129 652.896,140.882 C654.557,138.689 655.448,136.078 655.478,133.329 C655.502,129.728 653.974,126.285 651.285,123.886 L651.02,123.65 L651.02,84.29 C651.017,79.726 647.301,76.008 642.734,76.002 Z M644.258,79.505 C646.302,80.141 647.781,82.02 647.825,84.271 L647.825,124.419 C647.825,124.918 648.065,125.395 648.463,125.696 C652.675,128.853 653.533,134.853 650.375,139.067 C648.582,141.459 645.725,142.889 642.733,142.889 C637.466,142.886 633.184,138.599 633.185,133.332 C633.185,130.344 634.614,127.486 637.005,125.693 C637.399,125.395 637.637,124.918 637.639,124.422 L637.639,84.286 C637.682,82.028 639.18,80.141 641.216,79.505 C641.216,79.505 642.665,79.033 644.26,79.505 L644.258,79.505 Z" />
            <path d="M678.406,87.149 C672.608,87.149 667.891,91.866 667.891,97.664 C667.891,103.462 672.608,108.179 678.406,108.179 C684.204,108.179 688.921,103.462 688.921,97.664 C688.914,91.872 684.198,87.155 678.406,87.149 Z M685.729,97.664 C685.726,101.699 682.441,104.982 678.406,104.986 C674.368,104.986 671.083,101.7 671.083,97.662 C671.083,93.624 674.368,90.339 678.406,90.339 C682.444,90.339 685.729,93.624 685.729,97.662 L685.729,97.664 Z" />
            <path d="M676.811,77.598 L676.811,80.512 C676.824,80.936 677,81.329 677.307,81.619 C677.616,81.912 678.021,82.068 678.447,82.056 C679.294,82.034 679.975,81.357 680.002,80.511 L680.002,77.595 C680.002,76.717 679.284,76 678.406,76 C677.529,76 676.812,76.717 676.811,77.597 L676.811,77.598 Z" />
            <path d="M676.811,114.804 L676.811,117.718 C676.824,118.142 677,118.535 677.307,118.825 C677.616,119.118 678.021,119.277 678.447,119.264 C679.294,119.242 679.975,118.563 680.002,117.718 L680.002,114.803 C680.002,113.924 679.286,113.209 678.406,113.208 C677.528,113.208 676.811,113.924 676.811,114.804 Z" />
            <path d="M662.802,97.623 C662.779,96.776 662.102,96.094 661.256,96.067 L658.351,96.067 C657.476,96.094 656.783,96.827 656.805,97.703 C656.828,98.55 657.506,99.232 658.351,99.259 L661.256,99.259 C662.131,99.232 662.824,98.499 662.802,97.623 Z" />
            <path d="M700.008,97.623 C699.986,96.776 699.309,96.094 698.462,96.067 L695.557,96.067 C694.682,96.094 693.989,96.827 694.012,97.703 C694.034,98.55 694.712,99.232 695.557,99.259 L698.462,99.259 C699.337,99.232 700.03,98.499 700.008,97.623 Z" />
            <path d="M665.345,82.345 C665.064,82.064 664.684,81.898 664.289,81.881 L664.216,81.881 C663.789,81.881 663.39,82.047 663.089,82.348 C662.787,82.649 662.621,83.051 662.621,83.475 C662.621,83.902 662.787,84.302 663.089,84.604 L665.113,86.631 C665.735,87.252 666.746,87.252 667.369,86.631 C667.992,86.009 667.991,84.996 667.369,84.374 L665.345,82.347 L665.345,82.345 Z" />
            <path d="M690.573,108.233 L690.49,108.233 C689.647,108.272 688.971,108.971 688.971,109.824 C688.971,110.246 689.141,110.657 689.439,110.955 L691.467,112.983 C692.085,113.606 693.09,113.61 693.712,112.995 C693.864,112.843 693.983,112.666 694.066,112.466 C694.324,111.86 694.191,111.185 693.729,110.733 L691.695,108.699 C691.4,108.402 690.991,108.233 690.573,108.233 Z" />
            <path d="M667.374,110.955 C667.996,110.333 667.996,109.322 667.374,108.7 C667.073,108.399 666.672,108.233 666.247,108.233 L666.118,108.233 C665.743,108.263 665.384,108.428 665.116,108.696 L663.087,110.725 C662.466,111.346 662.466,112.36 663.087,112.981 C663.709,113.603 664.722,113.603 665.343,112.981 L667.376,110.955 L667.374,110.955 Z" />
            <path d="M692.596,81.882 L692.517,81.882 C692.123,81.9 691.743,82.066 691.464,82.347 L689.441,84.373 C688.819,84.996 688.819,86.011 689.444,86.632 C689.745,86.932 690.145,87.098 690.57,87.098 L690.573,87.098 C690.991,87.098 691.4,86.929 691.695,86.632 L693.725,84.603 C694.026,84.302 694.192,83.9 694.192,83.475 C694.192,83.049 694.026,82.649 693.725,82.348 C693.423,82.047 693.022,81.881 692.597,81.881 L692.596,81.882 Z" />
        </g>
    </g>
</svg>