<svg width="64" height="65" viewBox="0 0 64 65" fill="none" xmlns="http://www.w3.org/2000/svg">
<path d="M38.6387 0.525513L38.7412 0.530396C39.2453 0.581727 39.6387 1.00784 39.6387 1.52551V7.4718C41.2695 7.96833 42.8328 8.61933 44.3115 9.40833L48.5186 5.20325L48.5947 5.13489C48.9875 4.81453 49.5665 4.83713 49.9326 5.20325L59.3223 14.5929C59.5098 14.7804 59.6152 15.0347 59.6152 15.2999C59.6152 15.5651 59.5098 15.8194 59.3223 16.007L55.1152 20.2111C55.9048 21.6903 56.5559 23.2542 57.0527 24.8859H63C63.5523 24.8859 64 25.3336 64 25.8859V39.1642C64 39.7165 63.5523 40.1642 63 40.1642H57.0527C56.556 41.7953 55.9044 43.3584 55.1152 44.837L59.3223 49.0441C59.5098 49.2316 59.6152 49.4859 59.6152 49.7511C59.6152 50.0163 59.5098 50.2706 59.3223 50.4581L49.9326 59.8468C49.5421 60.2373 48.9091 60.2373 48.5186 59.8468L44.3125 55.6407C42.8334 56.43 41.2698 57.0807 39.6387 57.5773V63.5255C39.6387 64.0778 39.191 64.5255 38.6387 64.5255H25.3613C24.809 64.5255 24.3613 64.0778 24.3613 63.5255V57.5773C22.7297 57.0806 21.1652 56.4303 19.6855 55.6407L15.4814 59.8468C15.2939 60.0343 15.0396 60.1398 14.7744 60.1398C14.5092 60.1398 14.2549 60.0343 14.0674 59.8468L4.67773 50.4581C4.28727 50.0677 4.28735 49.4346 4.67773 49.0441L8.88184 44.837C8.09303 43.3583 7.44357 41.7947 6.94727 40.1642H1C0.447715 40.1642 0 39.7165 0 39.1642V25.8859C0 25.3336 0.447715 24.8859 1 24.8859H6.94727C7.44386 23.2546 8.09351 21.6902 8.88281 20.2111L4.67773 16.007C4.49021 15.8194 4.38478 15.5651 4.38477 15.2999C4.38477 15.0347 4.4902 14.7804 4.67773 14.5929L14.0674 5.20325L14.1436 5.13489C14.5363 4.81454 15.1153 4.83713 15.4814 5.20325L19.6865 9.40833C21.1658 8.61899 22.7299 7.9684 24.3613 7.4718V1.52551C24.3613 0.973228 24.809 0.525513 25.3613 0.525513H38.6387ZM26.3613 8.22375C26.3613 8.67477 26.0592 9.07 25.624 9.1886C23.6387 9.7297 21.7547 10.5164 20.0078 11.5157C19.6163 11.7395 19.1236 11.6735 18.8047 11.3546L14.7744 7.32434L6.79883 15.299L10.8291 19.3292C11.148 19.6481 11.214 20.1408 10.9902 20.5323C9.99094 22.2791 9.20424 24.1633 8.66309 26.1486C8.54448 26.5837 8.14925 26.8859 7.69824 26.8859H2V38.1642H7.69824C8.14925 38.1642 8.54449 38.4664 8.66309 38.9015C9.20411 40.8865 9.99032 42.7703 10.9893 44.5167C11.2129 44.9082 11.1469 45.401 10.8281 45.7198L6.79785 49.7501L14.7734 57.7247L18.8037 53.6954L18.9307 53.588C19.2441 53.3646 19.6651 53.3382 20.0078 53.5343C21.7547 54.5337 23.6384 55.3202 25.624 55.8615C26.0592 55.98 26.3613 56.3753 26.3613 56.8263V62.5255H37.6387V56.8263C37.6387 56.3753 37.9408 55.98 38.376 55.8615C40.3613 55.3203 42.2453 54.5336 43.9922 53.5343L44.1426 53.464C44.5037 53.3308 44.9161 53.4163 45.1953 53.6954L49.2256 57.7257L57.2002 49.7501L53.1699 45.7198C52.851 45.401 52.7851 44.9082 53.0088 44.5167C54.0082 42.7696 54.7959 40.8862 55.3369 38.9015L55.3936 38.7443C55.5548 38.395 55.9072 38.1642 56.3018 38.1642H62V26.8859H56.3018C55.8508 26.8859 55.4555 26.5837 55.3369 26.1486C54.7958 24.1635 54.0083 22.2804 53.0088 20.5333C52.7848 20.1417 52.8509 19.6482 53.1699 19.3292L57.2002 15.299L49.2246 7.32336L45.1943 11.3546C44.8754 11.6734 44.3827 11.7395 43.9912 11.5157C42.2444 10.5166 40.3609 9.72958 38.376 9.1886C37.9408 9.07 37.6387 8.67477 37.6387 8.22375V2.52551H26.3613V8.22375Z" fill="#F5F6F7"/>
<path d="M41.8281 32.5255C41.8281 27.0976 37.4279 22.6974 32 22.6974C26.5721 22.6974 22.1719 27.0976 22.1719 32.5255C22.1719 37.9534 26.5721 42.3536 32 42.3536C37.4279 42.3536 41.8281 37.9534 41.8281 32.5255ZM43.8281 32.5255C43.8281 39.058 38.5325 44.3536 32 44.3536C25.4675 44.3536 20.1719 39.058 20.1719 32.5255C20.1719 25.993 25.4675 20.6974 32 20.6974C38.5325 20.6974 43.8281 25.993 43.8281 32.5255Z" fill="#FEE618"/>
</svg>
