<svg width="64" height="64" viewBox="0 0 64 64" fill="none" xmlns="http://www.w3.org/2000/svg">
<path d="M25.9084 0C30.0306 0 34.1529 0 38.4 0C38.4509 2.2176 38.5018 4.4352 38.5542 6.72C39.4703 7.0368 40.3863 7.3536 41.3301 7.68C42.5899 8.22931 43.8136 8.80133 45.0313 9.44C45.1043 9.36347 45.1772 9.28694 45.2524 9.20809C45.5895 8.85495 45.9273 8.50247 46.265 8.15C46.4371 7.96948 46.4371 7.96948 46.6126 7.78531C47.6318 6.72338 48.7026 5.75923 49.812 4.8C52.662 7.7568 55.5119 10.7136 58.4482 13.76C57.8537 14.4796 57.269 15.166 56.6229 15.8294C56.5016 15.9548 56.5016 15.9548 56.3779 16.0829C56.1238 16.3456 55.8691 16.6078 55.6144 16.87C55.4403 17.0499 55.2662 17.2298 55.0922 17.4097C54.6691 17.8469 54.2455 18.2836 53.8217 18.72C53.8857 18.8684 53.8857 18.8684 53.951 19.0197C56.1349 24.1007 56.1349 24.1007 56.1349 25.44C58.425 25.44 60.7152 25.44 63.0747 25.44C63.0747 29.7168 63.0747 33.9936 63.0747 38.4C60.7337 38.4 58.3927 38.4 55.9807 38.4C55.9298 38.7168 55.8789 39.0336 55.8265 39.36C55.4517 40.5393 54.963 41.6815 54.4867 42.82C54.4409 42.9299 54.395 43.0398 54.3478 43.153C54.1474 43.6258 53.9444 44.0491 53.6675 44.48C53.7128 45.0512 53.9616 45.3204 54.3494 45.7087C54.4567 45.8179 54.5641 45.927 54.6747 46.0394C54.7876 46.1518 54.9005 46.2642 55.0169 46.38C55.7392 47.1065 56.4275 47.8281 57.0602 48.64C57.1906 48.7753 57.321 48.9106 57.4554 49.05C57.8313 49.44 57.8313 49.44 58.4482 50.24C55.5983 53.1968 52.7483 56.1536 49.812 59.2C49.0826 58.5513 48.3897 57.9064 47.7163 57.2012C47.6254 57.1067 47.5345 57.0122 47.4408 56.9148C47.1546 56.6169 46.8688 56.3185 46.5831 56.02C46.3875 55.8162 46.1918 55.6125 45.9961 55.4087C45.5199 54.9129 45.0441 54.4166 44.5687 53.92C44.3876 54.0128 44.2065 54.1056 44.0199 54.2012C42.7612 54.838 41.5044 55.4453 40.1831 55.93C40.0748 55.9701 39.9665 56.0103 39.8548 56.0516C39.3355 56.2358 38.9561 56.32 38.4 56.32C38.4 58.8544 38.4 61.3888 38.4 64C34.2778 64 30.1556 64 25.9084 64C25.9084 61.4656 25.9084 58.9312 25.9084 56.32C25.4504 56.2144 24.9924 56.1088 24.5205 56C24.2923 55.9262 24.0655 55.8472 23.8428 55.7575C23.7303 55.7123 23.6179 55.6672 23.5021 55.6206C23.3897 55.5742 23.2773 55.5278 23.1614 55.48C23.0508 55.4361 22.9402 55.3921 22.8262 55.3469C21.8073 54.9322 20.8845 54.4338 19.894 53.92C17.3748 56.5336 17.3748 56.5336 14.8048 59.2C14.1367 58.6058 13.5115 58.0379 12.8949 57.3966C12.8195 57.3185 12.7442 57.2403 12.6665 57.1598C12.4217 56.9056 12.1774 56.651 11.9331 56.3962C11.7618 56.2182 11.5905 56.0402 11.4191 55.8623C10.9713 55.3971 10.524 54.9314 10.0767 54.4656C9.61899 53.9891 9.16082 53.513 8.7027 53.0369C7.80618 52.105 6.91016 51.1727 6.01445 50.24C6.50538 49.6411 6.99649 49.0448 7.51565 48.4719C7.61624 48.3608 7.71683 48.2497 7.82047 48.1353C7.92424 48.0213 8.02801 47.9074 8.13493 47.79C8.24267 47.6714 8.35042 47.5528 8.46143 47.4307C9.27563 46.5375 10.1024 45.6598 10.9494 44.8C10.8711 44.6412 10.7927 44.4824 10.712 44.3187C8.48192 39.7646 8.48192 39.7646 8.48192 38.4C6.1409 38.4 3.79989 38.4 1.38794 38.4C1.38794 34.1232 1.38794 29.8464 1.38794 25.44C3.62717 25.3872 5.8664 25.3344 8.17348 25.28C8.47883 24.3296 8.78418 23.3792 9.09878 22.4C9.30957 21.8672 9.5188 21.3492 9.7542 20.83C9.85793 20.5957 9.96154 20.3613 10.065 20.1269C10.1092 20.0287 10.1534 19.9306 10.1989 19.8295C10.3566 19.4643 10.4977 19.0916 10.641 18.72C9.1142 17.136 7.58746 15.552 6.01445 13.92C6.58714 13.2268 7.13449 12.5782 7.75262 11.9385C7.82797 11.8603 7.90331 11.7821 7.98094 11.7015C8.22588 11.4475 8.47136 11.1941 8.71686 10.9406C8.88845 10.7629 9.06 10.5851 9.23152 10.4073C9.67992 9.94274 10.1288 9.47862 10.5777 9.0146C11.037 8.53971 11.4959 8.06437 11.9548 7.58906C12.853 6.65893 13.7516 5.7293 14.6506 4.8C14.8244 4.95364 14.9981 5.10743 15.1717 5.26129C15.2684 5.34692 15.3652 5.43254 15.4648 5.52076C15.7434 5.772 16.0046 6.03379 16.2602 6.31C16.629 6.69946 17.0077 7.06462 17.4072 7.42C18.1187 8.05539 18.7747 8.7446 19.4313 9.44C19.6088 9.34904 19.7864 9.25809 19.9693 9.16437C21.2829 8.50004 22.5999 7.87667 23.9711 7.35C24.0941 7.30224 24.2171 7.25448 24.3439 7.20527C24.9176 6.99041 25.2839 6.88 25.9084 6.88C25.9084 4.6096 25.9084 2.3392 25.9084 0ZM28.3759 2.56C28.3759 4.6192 28.3759 6.6784 28.3759 8.8C27.5616 9.0112 26.7474 9.2224 25.9084 9.44C25.3431 9.63616 24.7938 9.834 24.241 10.06C24.1032 10.1155 23.9655 10.1709 23.8236 10.228C22.8279 10.6368 21.8874 11.0985 20.9735 11.68C20.8325 11.7681 20.6916 11.8561 20.5464 11.9469C20.2814 12.1124 20.0172 12.2793 19.7542 12.4481C19.4313 12.64 19.4313 12.64 18.9687 12.8C17.5946 11.3744 16.2205 9.9488 14.8048 8.48C14.0754 9.12869 13.3825 9.77355 12.709 10.4787C12.6181 10.5733 12.5272 10.6678 12.4336 10.7652C12.1473 11.0631 11.8616 11.3615 11.5759 11.66C11.3802 11.8638 11.1846 12.0675 10.9888 12.2712C10.5126 12.7671 10.0369 13.2634 9.56143 13.76C9.70952 13.9403 9.85775 14.1205 10.006 14.3007C10.0886 14.401 10.1711 14.5014 10.2561 14.6048C10.4983 14.8938 10.7506 15.1648 11.0169 15.43C11.3986 15.8191 11.7568 16.2193 12.106 16.64C12.6183 17.257 13.1628 17.8324 13.7253 18.4C13.5974 18.6654 13.4695 18.9307 13.3415 19.1961C13.2295 19.4286 13.1179 19.6613 13.0067 19.8943C12.7463 20.4383 12.4824 20.9773 12.2018 21.5106C11.6245 22.6241 11.228 23.7167 10.8916 24.93C10.8529 25.0695 10.8142 25.2089 10.7743 25.3526C10.5364 26.2566 10.4352 27.0411 10.3325 28C8.19507 28 6.05763 28 3.85541 28C3.85541 30.5872 3.85541 33.1744 3.85541 35.84C6.04375 35.84 8.23208 35.84 10.4867 35.84C10.5376 36.2624 10.5885 36.6848 10.641 37.12C10.7176 37.4256 10.8031 37.729 10.8988 38.0287C10.9505 38.1907 11.0022 38.3526 11.0554 38.5194C11.1365 38.7672 11.1365 38.7672 11.2193 39.02C11.271 39.184 11.3226 39.3479 11.3759 39.5169C11.8553 40.9997 12.4873 42.3399 13.2916 43.66C13.6168 44.1956 13.9147 44.7131 14.1879 45.28C12.6612 46.864 11.1344 48.448 9.56143 50.08C10.1867 50.8368 10.8082 51.5557 11.4879 52.2544C11.5791 52.3487 11.6702 52.443 11.764 52.5401C12.0512 52.8371 12.3388 53.1336 12.6265 53.43C12.8229 53.633 13.0193 53.836 13.2157 54.0391C13.6936 54.5331 14.1719 55.0267 14.6506 55.52C15.3453 54.9166 16.008 54.2943 16.6452 53.6262C16.7258 53.5424 16.8064 53.4585 16.8895 53.3721C17.1428 53.1084 17.3955 52.8442 17.6482 52.58C17.8215 52.3993 17.9949 52.2187 18.1684 52.0381C18.5898 51.5992 19.0107 51.1597 19.4313 50.72C19.7516 50.8713 20.0716 51.023 20.3916 51.175C20.5698 51.2595 20.748 51.3439 20.9317 51.4309C21.3381 51.6316 21.7245 51.8416 22.1108 52.08C23.5 52.8976 25.029 53.4284 26.5542 53.9C26.7204 53.9517 26.7204 53.9517 26.89 54.0044C27.412 54.16 27.8277 54.24 28.3759 54.24C28.3759 56.616 28.3759 58.992 28.3759 61.44C30.8696 61.44 33.3633 61.44 35.9325 61.44C35.9325 59.064 35.9325 56.688 35.9325 54.24C36.4414 54.1872 36.9503 54.1344 37.4747 54.08C38.0554 53.9223 38.0554 53.9223 38.5994 53.7075C38.6973 53.6706 38.7953 53.6336 38.8962 53.5956C39.1006 53.5179 39.3047 53.4394 39.5084 53.3599C39.817 53.2399 40.1269 53.1239 40.437 53.0081C41.611 52.5784 41.611 52.5784 42.6681 51.9125C43.1807 51.52 43.1807 51.52 45.0313 50.72C46.5581 52.304 48.0848 53.888 49.6578 55.52C50.3873 54.8713 51.0802 54.2264 51.7536 53.5212C51.8445 53.4267 51.9354 53.3322 52.029 53.2348C52.3153 52.9369 52.601 52.6385 52.8867 52.34C53.0824 52.1362 53.2781 51.9325 53.4738 51.7287C53.95 51.2329 54.4257 50.7366 54.9012 50.24C54.3196 49.5193 53.7198 48.8317 53.0759 48.1706C52.995 48.087 52.9142 48.0033 52.8309 47.9171C52.5768 47.6544 52.3221 47.3922 52.0675 47.13C51.8933 46.9501 51.7192 46.7702 51.5452 46.5903C51.1221 46.1531 50.6985 45.7164 50.2747 45.28C50.6767 44.5122 51.0824 43.7662 51.5663 43.05C52.5556 41.4523 53.101 39.5878 53.6578 37.79C53.6904 37.6858 53.7231 37.5816 53.7567 37.4743C53.9321 36.8846 53.9759 36.4739 53.9759 35.84C56.1642 35.84 58.3526 35.84 60.6072 35.84C60.6072 33.2528 60.6072 30.6656 60.6072 28C58.4698 28 56.3323 28 54.1301 28C54.0792 27.5776 54.0283 27.1552 53.9759 26.72C53.5111 24.3126 52.698 22.1548 51.4879 20.0519C51.1945 19.5099 50.9634 18.9747 50.7373 18.4C50.9189 18.2144 50.9189 18.2144 51.1042 18.025C51.901 17.2067 52.6832 16.389 53.4102 15.5025C53.8811 14.9488 54.3922 14.4357 54.9012 13.92C54.2899 13.1599 53.6524 12.4422 52.9747 11.7456C52.8836 11.6513 52.7925 11.557 52.6986 11.4599C52.4115 11.1629 52.1238 10.8664 51.8361 10.57C51.6397 10.367 51.4433 10.164 51.247 9.96094C50.7691 9.46686 50.2907 8.97329 49.812 8.48C49.1552 9.05239 48.5238 9.637 47.9187 10.2687C47.776 10.4172 47.6334 10.5657 47.4864 10.7187C47.3395 10.8725 47.1927 11.0262 47.0458 11.18C46.8947 11.3375 46.7436 11.495 46.5925 11.6525C46.2259 12.0346 45.8598 12.4171 45.494 12.8C45.2014 12.6507 44.9091 12.5008 44.6169 12.3506C44.454 12.2672 44.2912 12.1838 44.1235 12.0979C43.6924 11.8663 43.2825 11.6187 42.8723 11.35C42.0374 10.8192 41.1628 10.444 40.2506 10.08C40.0433 9.99616 40.0433 9.99616 39.8319 9.91062C37.9279 9.1185 37.9279 9.1185 35.9325 8.8C35.9325 6.7408 35.9325 4.6816 35.9325 2.56C33.4388 2.56 30.9451 2.56 28.3759 2.56Z" fill="white"/>
<path d="M38.8627 22.56C39.9644 23.3922 40.6273 24.1566 41.3301 25.12C43.5608 28.1777 43.9913 31.0301 43.1325 34.76C42.7369 36.4786 42.3278 37.448 41.3301 38.88C40.5318 40.0258 39.9677 40.6126 38.8627 41.44C38.402 41.785 38.0506 41.99 37.6289 42.24C37.5309 42.2986 37.4329 42.3571 37.3319 42.4175C34.8793 43.7873 31.5831 43.9395 28.9235 43.1847C27.1603 42.6231 25.821 41.6467 24.5205 40.32C24.3449 40.1607 24.3449 40.1607 24.1657 39.9981C22.2205 38.1682 21.2181 35.5911 21.0705 32.9062C20.9586 29.4965 21.7227 26.6435 23.986 24.1026C28.1329 19.6925 34.1425 18.9946 38.8627 22.56ZM26.988 24.8C26.2406 25.3861 25.8568 25.7848 25.2916 26.56C23.6452 28.8178 23.3324 30.9904 23.6554 33.6081C23.9412 35.0126 24.3386 36.1357 25.2916 37.44C25.8576 38.2146 26.2408 38.6136 26.988 39.2C29.3053 41.0186 31.4845 41.4674 34.2687 40.79C36.7374 39.929 38.7172 38.4293 39.9422 36C40.4 35.013 40.8104 34.0654 40.8675 32.96C40.8752 32.821 40.883 32.682 40.891 32.5387C40.9633 30.2401 40.5848 28.5057 39.1711 26.56C38.6071 25.7838 38.222 25.3863 37.4747 24.8C36.0742 23.7012 35.0531 23.2667 33.3109 23.04C30.7742 22.7099 29.0274 23.2005 26.988 24.8Z" fill="#FEE618"/>
</svg>
