<?xml version="1.0" encoding="UTF-8"?>
<svg height="600" width="800" xmlns="http://www.w3.org/2000/svg" xmlns:xlink="http://www.w3.org/1999/xlink">
    <g id="Notes" font-family="'LucidaGrande', 'Lucida Grande', sans-serif" font-size="13">
        <rect fill="white" height="600.0" width="800.0" x="0.0" y="0.0" />
        <g font-size="13">
            <text x="18.0" y="176.0">Small</text>
            <text x="18.0" y="376.0">Medium</text>
            <text x="18.0" y="576.0">Large</text>
        </g>
        <g font-size="9">
            <text x="250.0" y="30.0">Ultralight</text>
            <text x="450.0" y="30.0">Regular</text>
            <text x="650.0" y="30.0">Black</text>
            <text id="template-version" fill="#505050" text-anchor="end" x="785.0" y="575.0">Template v.3.0</text>
            <a href="https://github.com/swhitty/SwiftDraw">
                <text fill="#505050" text-anchor="end" x="785.0" y="590.0">https://github.com/swhitty/SwiftDraw</text>
            </a>
        </g>
    </g>
    <g id="Guides" stroke="rgb(39, 170, 225)" stroke-width="0.5">
        <path id="Capline-S" d="M18,76 l800,0" />
        <path id="H-reference" d="M85,145.755 L87.685,145.755 L113.369,79.287 L114.052,79.287 L114.052,76 L112.148,76 L85,145.755 Z M95.693,121.536 L130.996,121.536 L130.263,119.313 L96.474,119.313 L95.693,121.536 Z M139.15,145.755 L141.787,145.755 L114.638,76 L113.466,76 L113.466,79.287 L139.15,145.755 Z" stroke="none" />
        <path id="Baseline-S" d="M18,146 l800,0" />
        <path id="left-margin-Ultralight-S" d="M216.923,56 l0,110" />
        <path id="right-margin-Ultralight-S" d="M313.077,56 l0,110" />
        <path id="left-margin-Regular-S" d="M416.923,56 l0,110" />
        <path id="right-margin-Regular-S" d="M513.077,56 l0,110" />
        <path id="left-margin-Black-S" d="M616.923,56 l0,110" />
        <path id="right-margin-Black-S" d="M713.077,56 l0,110" />
        <path id="Capline-M" d="M18,276 l800,0" />
        <path id="Baseline-M" d="M18,346 l800,0" />
        <path id="Capline-L" d="M18,476 l800,0" />
        <path id="Baseline-L" d="M18,546 l800,0" />
    </g>
    <g id="Symbols">
        <g id="Ultralight-S">
            <path d="M238.047,113.183 C236.87,116.364 236.266,119.694 236.247,123.083 C236.28,124.011 237.055,124.746 237.989,124.721 C238.889,124.696 239.612,123.975 239.641,123.079 C239.66,120.085 240.199,117.143 241.239,114.337 C241.556,113.464 241.102,112.489 240.223,112.168 C240.037,112.101 239.841,112.066 239.643,112.066 C238.933,112.066 238.291,112.518 238.047,113.185 L238.047,113.183 Z" />
            <path d="M294.111,86.799 L301.847,86.799 C302.163,86.807 302.47,86.693 302.701,86.476 C302.934,86.257 303.066,85.961 303.076,85.643 C303.095,84.986 302.576,84.434 301.918,84.415 C301.893,84.415 301.868,84.415 301.845,84.415 L296.817,84.415 L302.693,77.998 C302.909,77.763 303.018,77.459 303.005,77.14 C302.991,76.823 302.853,76.529 302.618,76.313 C302.399,76.113 302.115,76.002 301.816,76 L294.113,76 C293.456,76 292.921,76.535 292.921,77.192 C292.921,77.85 293.456,78.384 294.113,78.384 L299.109,78.384 L293.233,84.803 C292.788,85.288 292.821,86.043 293.306,86.488 C293.527,86.69 293.811,86.801 294.111,86.801 L294.111,86.799 Z" />
            <path d="M279.605,90.228 L285.787,90.228 C286.106,90.235 286.41,90.122 286.641,89.905 C286.872,89.687 287.006,89.389 287.016,89.072 C287.025,88.753 286.91,88.449 286.691,88.218 C286.472,87.986 286.177,87.853 285.858,87.843 C285.833,87.843 285.808,87.843 285.785,87.843 L282.31,87.843 L286.641,83.115 C286.854,82.88 286.966,82.574 286.95,82.257 C286.935,81.94 286.798,81.644 286.562,81.43 C286.341,81.228 286.056,81.119 285.756,81.119 L281.682,81.119 L281.691,81.115 L279.582,81.115 C278.924,81.098 278.372,81.615 278.353,82.273 C278.334,82.93 278.853,83.482 279.511,83.501 C279.534,83.501 279.559,83.501 279.582,83.501 L283.058,83.501 L278.728,88.228 C278.28,88.712 278.311,89.47 278.795,89.914 C279.016,90.118 279.303,90.23 279.603,90.23 L279.605,90.228 Z" />
            <path d="M298.457,101.765 L298.486,101.765 C298.803,101.773 299.107,101.659 299.34,101.442 C299.572,101.225 299.705,100.927 299.715,100.61 C299.724,100.29 299.609,99.986 299.39,99.756 C299.171,99.523 298.874,99.39 298.557,99.381 C298.532,99.381 298.509,99.381 298.484,99.381 L295.009,99.381 L299.338,94.654 C299.553,94.42 299.663,94.116 299.649,93.797 C299.636,93.479 299.497,93.185 299.263,92.97 C299.074,92.797 298.836,92.691 298.584,92.664 L292.302,92.664 C291.983,92.664 291.685,92.789 291.46,93.014 C291.235,93.239 291.11,93.539 291.11,93.856 C291.11,94.175 291.233,94.473 291.458,94.7 C291.683,94.927 291.983,95.05 292.3,95.05 L295.748,95.05 L291.421,99.779 C291.21,100.011 291.102,100.317 291.117,100.635 C291.133,100.952 291.271,101.246 291.508,101.459 C291.727,101.658 292.01,101.767 292.306,101.767 L298.457,101.767 L298.457,101.765 Z" />
            <path d="M282.976,134.797 L282.68,134.451 L282.76,134.003 C283.401,130.411 283.735,126.74 283.758,123.092 C283.735,119.446 283.401,115.776 282.76,112.184 L282.68,111.736 L282.976,111.389 C285.408,108.545 285.076,104.252 282.232,101.819 C281.003,100.769 279.438,100.188 277.82,100.188 L277.809,100.188 C276.249,100.188 274.728,100.733 273.523,101.721 L273.171,102.011 L272.723,101.921 C267.152,100.794 261.445,100.211 255.759,100.19 C250.08,100.211 244.373,100.794 238.802,101.921 L238.356,102.011 L238.004,101.723 C236.599,100.577 234.832,100.046 233.028,100.229 C231.224,100.411 229.599,101.286 228.453,102.69 C226.377,105.234 226.419,108.893 228.551,111.391 L228.848,111.737 L228.767,112.185 C228.126,115.779 227.79,119.45 227.767,123.1 C227.79,126.738 228.126,130.413 228.767,134.005 L228.848,134.453 L228.551,134.799 C226.121,137.645 226.457,141.937 229.303,144.369 C231.799,146.502 235.459,146.544 238.004,144.467 L238.356,144.179 L238.802,144.269 C244.373,145.396 250.082,145.979 255.766,146 C261.445,145.979 267.152,145.396 272.723,144.269 L273.169,144.179 L273.521,144.467 C276.419,146.836 280.703,146.408 283.072,143.51 C285.154,140.962 285.114,137.299 282.974,134.799 L282.976,134.797 Z M279.168,111.401 C279.93,115.228 280.332,119.162 280.364,123.081 C280.332,127.015 279.928,130.951 279.165,134.795 C279.047,135.424 279.307,136.087 279.83,136.476 C281.336,137.576 281.666,139.704 280.562,141.214 C280.028,141.946 279.24,142.425 278.343,142.566 C277.447,142.706 276.551,142.487 275.819,141.952 C275.555,141.76 275.323,141.533 275.124,141.273 C274.803,140.858 274.309,140.616 273.778,140.614 C273.663,140.614 273.542,140.627 273.423,140.652 C267.637,141.916 261.693,142.571 255.763,142.596 C249.825,142.571 243.881,141.916 238.089,140.65 C237.976,140.625 237.854,140.614 237.733,140.614 C237.203,140.614 236.708,140.856 236.382,141.277 C236.133,141.602 235.826,141.877 235.482,142.091 C235.482,142.091 234.462,142.771 233.024,142.537 C231.467,142.283 230.311,140.85 230.309,139.212 C230.307,138.128 230.832,137.101 231.715,136.468 C232.226,136.089 232.486,135.426 232.365,134.786 C231.603,130.951 231.199,127.017 231.167,123.1 C231.195,119.166 231.595,115.229 232.355,111.386 C232.474,110.757 232.217,110.093 231.697,109.705 C230.832,109.076 230.313,108.051 230.317,106.969 C230.317,106.067 230.67,105.215 231.313,104.573 C231.953,103.932 232.805,103.58 233.711,103.58 L233.713,103.58 C234.759,103.58 235.764,104.077 236.401,104.905 C236.72,105.317 237.226,105.565 237.751,105.565 L237.753,105.565 C237.874,105.565 237.995,105.553 238.112,105.528 C243.896,104.265 249.84,103.611 255.768,103.584 C261.706,103.609 267.65,104.265 273.444,105.53 C274.076,105.667 274.744,105.423 275.14,104.907 C275.69,104.19 276.488,103.727 277.386,103.607 C278.284,103.488 279.176,103.725 279.895,104.277 C280.614,104.826 281.078,105.626 281.197,106.524 C281.316,107.422 281.08,108.315 280.528,109.034 C280.33,109.291 280.097,109.52 279.834,109.713 C279.307,110.097 279.041,110.761 279.157,111.401 L279.168,111.401 Z" />
        </g>
        <g id="Regular-S">
            <path d="M438.047,113.183 C436.87,116.364 436.266,119.694 436.247,123.083 C436.28,124.011 437.055,124.746 437.989,124.721 C438.889,124.696 439.612,123.975 439.641,123.079 C439.66,120.085 440.198,117.143 441.239,114.337 C441.556,113.464 441.102,112.489 440.224,112.168 C440.037,112.101 439.841,112.066 439.643,112.066 C438.933,112.066 438.291,112.518 438.047,113.185 L438.047,113.183 Z" />
            <path d="M494.111,86.799 L501.847,86.799 C502.163,86.807 502.47,86.693 502.701,86.476 C502.934,86.257 503.066,85.961 503.076,85.643 C503.095,84.986 502.576,84.434 501.918,84.415 C501.893,84.415 501.868,84.415 501.845,84.415 L496.817,84.415 L502.693,77.998 C502.909,77.763 503.018,77.459 503.005,77.14 C502.991,76.823 502.853,76.529 502.618,76.313 C502.399,76.113 502.115,76.002 501.816,76 L494.113,76 C493.456,76 492.921,76.535 492.921,77.192 C492.921,77.85 493.456,78.384 494.113,78.384 L499.109,78.384 L493.233,84.803 C492.788,85.288 492.821,86.043 493.306,86.488 C493.527,86.69 493.811,86.801 494.111,86.801 L494.111,86.799 Z" />
            <path d="M479.605,90.228 L485.787,90.228 C486.106,90.235 486.41,90.122 486.641,89.905 C486.872,89.687 487.006,89.389 487.016,89.072 C487.025,88.753 486.91,88.449 486.691,88.218 C486.472,87.986 486.177,87.853 485.858,87.843 C485.833,87.843 485.808,87.843 485.785,87.843 L482.31,87.843 L486.641,83.115 C486.854,82.88 486.966,82.574 486.95,82.257 C486.935,81.94 486.798,81.644 486.562,81.43 C486.341,81.228 486.056,81.119 485.756,81.119 L481.682,81.119 L481.691,81.115 L479.582,81.115 C478.924,81.098 478.372,81.615 478.353,82.273 C478.334,82.93 478.853,83.482 479.511,83.501 C479.534,83.501 479.559,83.501 479.582,83.501 L483.058,83.501 L478.728,88.228 C478.28,88.712 478.311,89.47 478.795,89.914 C479.016,90.118 479.303,90.23 479.603,90.23 L479.605,90.228 Z" />
            <path d="M498.457,101.765 L498.486,101.765 C498.803,101.773 499.107,101.659 499.34,101.442 C499.572,101.225 499.705,100.927 499.715,100.61 C499.724,100.29 499.609,99.986 499.39,99.756 C499.171,99.523 498.874,99.39 498.557,99.381 C498.532,99.381 498.509,99.381 498.484,99.381 L495.009,99.381 L499.338,94.654 C499.553,94.42 499.663,94.116 499.649,93.797 C499.636,93.479 499.497,93.185 499.263,92.97 C499.074,92.797 498.836,92.691 498.584,92.664 L492.302,92.664 C491.983,92.664 491.685,92.789 491.46,93.014 C491.235,93.239 491.11,93.539 491.11,93.856 C491.11,94.175 491.233,94.473 491.458,94.7 C491.683,94.927 491.983,95.05 492.3,95.05 L495.748,95.05 L491.421,99.779 C491.21,100.011 491.102,100.317 491.117,100.635 C491.133,100.952 491.271,101.246 491.508,101.459 C491.727,101.658 492.01,101.767 492.306,101.767 L498.457,101.767 L498.457,101.765 Z" />
            <path d="M482.976,134.797 L482.68,134.451 L482.76,134.003 C483.401,130.411 483.735,126.74 483.758,123.092 C483.735,119.446 483.401,115.776 482.76,112.184 L482.68,111.736 L482.976,111.389 C485.408,108.545 485.076,104.252 482.232,101.819 C481.003,100.769 479.438,100.188 477.82,100.188 L477.809,100.188 C476.249,100.188 474.728,100.733 473.523,101.721 L473.171,102.011 L472.723,101.921 C467.152,100.794 461.445,100.211 455.759,100.19 C450.08,100.211 444.373,100.794 438.802,101.921 L438.356,102.011 L438.004,101.723 C436.599,100.577 434.832,100.046 433.028,100.229 C431.224,100.411 429.599,101.286 428.453,102.69 C426.377,105.234 426.419,108.893 428.551,111.391 L428.848,111.737 L428.767,112.185 C428.126,115.779 427.79,119.45 427.767,123.1 C427.79,126.738 428.126,130.413 428.767,134.005 L428.848,134.453 L428.551,134.799 C426.121,137.645 426.457,141.937 429.303,144.369 C431.799,146.502 435.458,146.544 438.004,144.467 L438.356,144.179 L438.802,144.269 C444.373,145.396 450.082,145.979 455.766,146 C461.445,145.979 467.152,145.396 472.723,144.269 L473.169,144.179 L473.521,144.467 C476.419,146.836 480.703,146.408 483.072,143.51 C485.154,140.962 485.114,137.299 482.974,134.799 L482.976,134.797 Z M479.168,111.401 C479.93,115.228 480.332,119.162 480.364,123.081 C480.332,127.015 479.928,130.951 479.165,134.795 C479.047,135.424 479.307,136.087 479.83,136.476 C481.336,137.576 481.666,139.704 480.562,141.214 C480.028,141.946 479.24,142.425 478.343,142.566 C477.447,142.706 476.551,142.487 475.819,141.952 C475.555,141.76 475.323,141.533 475.124,141.273 C474.803,140.858 474.309,140.616 473.778,140.614 C473.663,140.614 473.542,140.627 473.423,140.652 C467.637,141.916 461.693,142.571 455.763,142.596 C449.825,142.571 443.881,141.916 438.089,140.65 C437.976,140.625 437.854,140.614 437.733,140.614 C437.203,140.614 436.708,140.856 436.382,141.277 C436.133,141.602 435.826,141.877 435.482,142.091 C435.482,142.091 434.462,142.771 433.024,142.537 C431.467,142.283 430.311,140.85 430.309,139.212 C430.307,138.128 430.832,137.101 431.715,136.468 C432.226,136.089 432.486,135.426 432.365,134.786 C431.603,130.951 431.199,127.017 431.167,123.1 C431.195,119.166 431.595,115.229 432.355,111.386 C432.474,110.757 432.216,110.093 431.697,109.705 C430.832,109.076 430.313,108.051 430.317,106.969 C430.317,106.067 430.67,105.215 431.313,104.573 C431.953,103.932 432.805,103.58 433.711,103.58 L433.713,103.58 C434.759,103.58 435.764,104.077 436.401,104.905 C436.72,105.317 437.226,105.565 437.751,105.565 L437.753,105.565 C437.874,105.565 437.995,105.553 438.112,105.528 C443.896,104.265 449.84,103.611 455.768,103.584 C461.706,103.609 467.65,104.265 473.444,105.53 C474.076,105.667 474.744,105.423 475.14,104.907 C475.69,104.19 476.488,103.727 477.386,103.607 C478.284,103.488 479.176,103.725 479.895,104.277 C480.614,104.826 481.078,105.626 481.197,106.524 C481.316,107.422 481.08,108.315 480.528,109.034 C480.33,109.291 480.097,109.52 479.834,109.713 C479.307,110.097 479.041,110.761 479.157,111.401 L479.168,111.401 Z" />
        </g>
        <g id="Black-S">
            <path d="M638.047,113.183 C636.87,116.364 636.266,119.694 636.247,123.083 C636.28,124.011 637.055,124.746 637.989,124.721 C638.889,124.696 639.612,123.975 639.641,123.079 C639.66,120.085 640.198,117.143 641.239,114.337 C641.556,113.464 641.102,112.489 640.224,112.168 C640.037,112.101 639.841,112.066 639.643,112.066 C638.933,112.066 638.291,112.518 638.047,113.185 L638.047,113.183 Z" />
            <path d="M694.111,86.799 L701.847,86.799 C702.163,86.807 702.47,86.693 702.701,86.476 C702.934,86.257 703.066,85.961 703.076,85.643 C703.095,84.986 702.576,84.434 701.918,84.415 C701.893,84.415 701.868,84.415 701.845,84.415 L696.817,84.415 L702.693,77.998 C702.909,77.763 703.018,77.459 703.005,77.14 C702.991,76.823 702.853,76.529 702.618,76.313 C702.399,76.113 702.115,76.002 701.817,76 L694.113,76 C693.456,76 692.921,76.535 692.921,77.192 C692.921,77.85 693.456,78.384 694.113,78.384 L699.109,78.384 L693.233,84.803 C692.788,85.288 692.821,86.043 693.306,86.488 C693.527,86.69 693.811,86.801 694.111,86.801 L694.111,86.799 Z" />
            <path d="M679.605,90.228 L685.787,90.228 C686.106,90.235 686.41,90.122 686.641,89.905 C686.872,89.687 687.006,89.389 687.016,89.072 C687.025,88.753 686.91,88.449 686.691,88.218 C686.472,87.986 686.177,87.853 685.858,87.843 C685.833,87.843 685.808,87.843 685.785,87.843 L682.31,87.843 L686.641,83.115 C686.854,82.88 686.966,82.574 686.95,82.257 C686.935,81.94 686.799,81.644 686.562,81.43 C686.341,81.228 686.056,81.119 685.756,81.119 L681.682,81.119 L681.691,81.115 L679.582,81.115 C678.924,81.098 678.372,81.615 678.353,82.273 C678.334,82.93 678.853,83.482 679.511,83.501 C679.534,83.501 679.559,83.501 679.582,83.501 L683.058,83.501 L678.728,88.228 C678.28,88.712 678.311,89.47 678.795,89.914 C679.016,90.118 679.303,90.23 679.603,90.23 L679.605,90.228 Z" />
            <path d="M698.457,101.765 L698.486,101.765 C698.803,101.773 699.107,101.659 699.34,101.442 C699.572,101.225 699.705,100.927 699.715,100.61 C699.724,100.29 699.609,99.986 699.39,99.756 C699.171,99.523 698.874,99.39 698.557,99.381 C698.532,99.381 698.509,99.381 698.484,99.381 L695.009,99.381 L699.338,94.654 C699.553,94.42 699.663,94.116 699.649,93.797 C699.636,93.479 699.497,93.185 699.263,92.97 C699.074,92.797 698.836,92.691 698.584,92.664 L692.302,92.664 C691.983,92.664 691.685,92.789 691.46,93.014 C691.235,93.239 691.11,93.539 691.11,93.856 C691.11,94.175 691.233,94.473 691.458,94.7 C691.683,94.927 691.983,95.05 692.3,95.05 L695.748,95.05 L691.421,99.779 C691.21,100.011 691.102,100.317 691.117,100.635 C691.133,100.952 691.271,101.246 691.508,101.459 C691.727,101.658 692.01,101.767 692.306,101.767 L698.457,101.767 L698.457,101.765 Z" />
            <path d="M682.976,134.797 L682.68,134.451 L682.76,134.003 C683.401,130.411 683.735,126.74 683.758,123.092 C683.735,119.446 683.401,115.776 682.76,112.184 L682.68,111.736 L682.976,111.389 C685.408,108.545 685.076,104.252 682.232,101.819 C681.003,100.769 679.438,100.188 677.82,100.188 L677.809,100.188 C676.249,100.188 674.728,100.733 673.523,101.721 L673.171,102.011 L672.723,101.921 C667.152,100.794 661.445,100.211 655.759,100.19 C650.08,100.211 644.373,100.794 638.802,101.921 L638.356,102.011 L638.004,101.723 C636.599,100.577 634.832,100.046 633.028,100.229 C631.224,100.411 629.599,101.286 628.453,102.69 C626.377,105.234 626.419,108.893 628.551,111.391 L628.848,111.737 L628.767,112.185 C628.126,115.779 627.79,119.45 627.767,123.1 C627.79,126.738 628.126,130.413 628.767,134.005 L628.848,134.453 L628.551,134.799 C626.121,137.645 626.457,141.937 629.303,144.369 C631.799,146.502 635.458,146.544 638.004,144.467 L638.356,144.179 L638.802,144.269 C644.373,145.396 650.082,145.979 655.766,146 C661.445,145.979 667.152,145.396 672.723,144.269 L673.169,144.179 L673.521,144.467 C676.419,146.836 680.703,146.408 683.072,143.51 C685.154,140.962 685.114,137.299 682.974,134.799 L682.976,134.797 Z M679.168,111.401 C679.93,115.228 680.332,119.162 680.364,123.081 C680.332,127.015 679.928,130.951 679.165,134.795 C679.047,135.424 679.307,136.087 679.83,136.476 C681.336,137.576 681.666,139.704 680.562,141.214 C680.028,141.946 679.24,142.425 678.343,142.566 C677.447,142.706 676.551,142.487 675.819,141.952 C675.555,141.76 675.323,141.533 675.124,141.273 C674.803,140.858 674.309,140.616 673.778,140.614 C673.663,140.614 673.542,140.627 673.423,140.652 C667.637,141.916 661.693,142.571 655.763,142.596 C649.825,142.571 643.881,141.916 638.089,140.65 C637.976,140.625 637.854,140.614 637.733,140.614 C637.203,140.614 636.708,140.856 636.382,141.277 C636.133,141.602 635.826,141.877 635.482,142.091 C635.482,142.091 634.462,142.771 633.024,142.537 C631.467,142.283 630.311,140.85 630.309,139.212 C630.307,138.128 630.832,137.101 631.715,136.468 C632.226,136.089 632.486,135.426 632.365,134.786 C631.603,130.951 631.199,127.017 631.167,123.1 C631.195,119.166 631.595,115.229 632.355,111.386 C632.474,110.757 632.216,110.093 631.697,109.705 C630.832,109.076 630.313,108.051 630.317,106.969 C630.317,106.067 630.67,105.215 631.313,104.573 C631.953,103.932 632.805,103.58 633.711,103.58 L633.713,103.58 C634.759,103.58 635.764,104.077 636.401,104.905 C636.72,105.317 637.226,105.565 637.751,105.565 L637.753,105.565 C637.874,105.565 637.995,105.553 638.112,105.528 C643.896,104.265 649.84,103.611 655.768,103.584 C661.706,103.609 667.65,104.265 673.444,105.53 C674.076,105.667 674.744,105.423 675.14,104.907 C675.69,104.19 676.488,103.727 677.386,103.607 C678.284,103.488 679.176,103.725 679.895,104.277 C680.614,104.826 681.078,105.626 681.197,106.524 C681.316,107.422 681.08,108.315 680.528,109.034 C680.33,109.291 680.097,109.52 679.834,109.713 C679.307,110.097 679.041,110.761 679.157,111.401 L679.168,111.401 Z" />
        </g>
    </g>
</svg>