<svg width="32" height="32" viewBox="0 0 32 32" fill="none" xmlns="http://www.w3.org/2000/svg">
<mask id="mask0_7415_20431" style="mask-type:alpha" maskUnits="userSpaceOnUse" x="0" y="0" width="32" height="32">
<rect width="32" height="32" fill="#D9D9D9"/>
</mask>
<g mask="url(#mask0_7415_20431)">
<path d="M4.56777 27.3331C4.34177 27.3331 4.13877 27.2779 3.95877 27.1674C3.77877 27.057 3.63888 26.9113 3.5391 26.7304C3.4351 26.5509 3.37788 26.3564 3.36743 26.1471C3.35699 25.9377 3.41343 25.7304 3.53677 25.5251L14.9511 5.80775C15.0747 5.60241 15.2291 5.45064 15.4144 5.35241C15.6 5.25419 15.7953 5.20508 16.0004 5.20508C16.2055 5.20508 16.4009 5.25419 16.5864 5.35241C16.7718 5.45064 16.9262 5.60241 17.0498 5.80775L28.4641 25.5251C28.5874 25.7304 28.6435 25.9369 28.6324 26.1444C28.6213 26.3522 28.5644 26.5475 28.4618 26.7304C28.3593 26.9133 28.2188 27.0595 28.0401 27.1691C27.8614 27.2784 27.6591 27.3331 27.4331 27.3331H4.56777ZM16.7644 23.4304C16.9731 23.222 17.0774 22.9673 17.0774 22.6664C17.0774 22.3655 16.9731 22.1109 16.7644 21.9024C16.556 21.6937 16.3013 21.5894 16.0004 21.5894C15.6995 21.5894 15.4449 21.6937 15.2364 21.9024C15.0278 22.1109 14.9234 22.3655 14.9234 22.6664C14.9234 22.9673 15.0278 23.222 15.2364 23.4304C15.4449 23.6391 15.6995 23.7434 16.0004 23.7434C16.3013 23.7434 16.556 23.6391 16.7644 23.4304ZM16.7131 19.9687C16.9047 19.777 17.0004 19.5394 17.0004 19.2561V14.5894C17.0004 14.3061 16.9045 14.0686 16.7128 13.8771C16.521 13.6853 16.2834 13.5894 16.0001 13.5894C15.7165 13.5894 15.4791 13.6853 15.2878 13.8771C15.0962 14.0686 15.0004 14.3061 15.0004 14.5894V19.2561C15.0004 19.5394 15.0963 19.777 15.2881 19.9687C15.4799 20.1603 15.7174 20.2561 16.0008 20.2561C16.2843 20.2561 16.5218 20.1603 16.7131 19.9687Z" fill="#AD6309"/>
</g>
</svg>
