<svg width="64" height="64" viewBox="0 0 64 64" fill="none" xmlns="http://www.w3.org/2000/svg">
<path fill-rule="evenodd" clip-rule="evenodd" d="M5.8877 19.275V40.3125H9.0752V19.275H5.8877ZM3.8877 18.525C3.8877 17.8352 4.44791 17.275 5.1377 17.275H9.8252C10.515 17.275 11.0752 17.8352 11.0752 18.525V41.0625C11.0752 41.7523 10.515 42.3125 9.8252 42.3125H5.1377C4.44791 42.3125 3.8877 41.7523 3.8877 41.0625V18.525Z" fill="#FCFCFC"/>
<path fill-rule="evenodd" clip-rule="evenodd" d="M2.0625 42.7375C2.0625 41.3977 3.14772 40.3125 4.4875 40.3125H10.2375C11.5705 40.3125 12.65 41.4035 12.65 42.7375V45.3625H2.0625V42.7375ZM4.4875 42.3125C4.25228 42.3125 4.0625 42.5023 4.0625 42.7375V43.3625H10.65V42.7375C10.65 42.4965 10.4545 42.3125 10.2375 42.3125H4.4875Z" fill="#FCFCFC"/>
<path fill-rule="evenodd" clip-rule="evenodd" d="M55.6377 19.4375V40.475H58.8252V19.4375H55.6377ZM53.6377 18.6875C53.6377 17.9977 54.1979 17.4375 54.8877 17.4375H59.5752C60.265 17.4375 60.8252 17.9977 60.8252 18.6875V41.225C60.8252 41.9148 60.265 42.475 59.5752 42.475H54.8877C54.1979 42.475 53.6377 41.9148 53.6377 41.225V18.6875Z" fill="#FCFCFC"/>
<path fill-rule="evenodd" clip-rule="evenodd" d="M51.8252 42.9C51.8252 41.5602 52.9104 40.475 54.2502 40.475H59.9877C61.3236 40.475 62.3916 41.5655 62.4126 42.8841L62.4127 42.892V45.525H51.8252V42.9ZM54.2502 42.475C54.015 42.475 53.8252 42.6648 53.8252 42.9V43.525H60.4127V42.9101C60.4056 42.6567 60.2002 42.475 59.9877 42.475H54.2502Z" fill="#FCFCFC"/>
<mask id="mask0_6024_3586" style="mask-type:luminance" maskUnits="userSpaceOnUse" x="4" y="12" width="23" height="37">
<path d="M4.2998 12.85L26.7123 19.075V42.125L4.2998 48.35V12.85Z" fill="white"/>
</mask>
<g mask="url(#mask0_6024_3586)">
<path fill-rule="evenodd" clip-rule="evenodd" d="M25.9482 20.4238L26.9801 23.1714C27.0749 23.4068 27.1119 23.683 27.1119 23.875V40.0875C27.1119 40.377 27.0085 40.6275 26.8766 40.8108C26.7621 40.9698 26.5325 41.2035 26.1689 41.2784L24.0564 41.7591L24.0158 41.7649C23.6931 41.811 23.3531 41.7196 23.0936 41.4874C22.8327 41.254 22.7119 40.9327 22.7119 40.625V23.5C22.7119 23.2333 22.7908 22.9482 22.8678 22.7685L22.8714 22.76L23.9628 20.339C24.0386 20.1746 24.3856 19.5702 25.1274 19.7093C25.4402 19.7679 25.6406 19.9492 25.7437 20.0711C25.8504 20.1974 25.9121 20.3275 25.9482 20.4238ZM24.8601 23.215L24.7119 23.5438V39.5588L25.1119 39.4678V23.8877C25.1118 23.8866 25.1116 23.8854 25.1114 23.8842L24.8601 23.215Z" fill="#FCFCFC"/>
<path fill-rule="evenodd" clip-rule="evenodd" d="M29.5876 21.2881C29.5595 21.1999 29.5118 21.0843 29.4282 20.9673C29.3364 20.8388 29.1413 20.6284 28.8106 20.5521C28.4457 20.4679 28.1346 20.5956 27.9428 20.744C27.7707 20.8771 27.6775 21.0335 27.6304 21.1277L27.6137 21.161L26.6959 23.399C26.5842 23.6469 26.5498 23.9279 26.5498 24.1124V39.7624C26.5498 40.2918 27.0052 41.0274 27.8517 40.8863L27.8811 40.8814L29.6535 40.4763C30.0234 40.3953 30.2454 40.1504 30.3495 39.9977C30.4701 39.8207 30.5623 39.5838 30.5623 39.3124V24.4249C30.5623 24.2128 30.5139 23.9778 30.4738 23.8377L30.466 23.8104L29.5876 21.2881ZM28.5498 24.3893V38.677L28.5623 38.6742V24.4462C28.5618 24.4428 28.5612 24.4384 28.5603 24.4331C28.5586 24.4227 28.5565 24.412 28.5544 24.4025L28.5498 24.3893Z" fill="#FCFCFC"/>
<path fill-rule="evenodd" clip-rule="evenodd" d="M20.7329 21.6058C21.271 21.6955 21.4963 22.132 21.5441 22.2278L21.5592 22.2579L22.8294 25.2938L22.836 25.3114C22.9043 25.4935 22.9747 25.7891 22.9747 26.0375V41.0125C22.9747 41.5403 22.6283 42.0736 22.0422 42.2201L22.032 42.2227L19.4967 42.8L19.4916 42.8012C19.1636 42.8741 18.7915 42.8107 18.4956 42.5662C18.2045 42.3257 18.0747 41.9827 18.0747 41.6625V25.75C18.0747 25.4891 18.1451 25.1762 18.2646 24.9341L19.6024 22.1827L19.619 22.1538C19.7011 22.0102 20.0569 21.4931 20.7329 21.6058ZM20.5006 24.9093L20.0747 25.7852V40.6172L20.9747 40.4122V26.0671C20.9739 26.0622 20.9728 26.0566 20.9716 26.0504C20.9689 26.0372 20.9659 26.0248 20.9632 26.0151L20.5006 24.9093Z" fill="#FCFCFC"/>
<path fill-rule="evenodd" clip-rule="evenodd" d="M16.2178 24.5885L17.7583 27.8323L17.7634 27.8438C17.8723 28.0888 17.9371 28.4152 17.9371 28.6625V42.1625C17.9371 42.6977 17.5665 43.2671 16.9384 43.4019L13.8003 44.1174L13.7785 44.1213C13.495 44.1729 13.1538 44.1353 12.8553 43.9294C12.5385 43.7109 12.3496 43.3527 12.3496 42.9625V28.5375C12.3496 28.2933 12.4085 27.9332 12.5697 27.6372L14.2283 24.5195C14.3855 24.2225 14.7643 23.8565 15.3362 23.928C15.8382 23.9908 16.1076 24.352 16.2178 24.5885ZM15.1608 27.025L14.35 28.5492C14.3498 28.55 14.3497 28.5507 14.3496 28.5514V41.9408L15.9371 41.5789V28.6826L15.9362 28.6766C15.9354 28.6716 15.9343 28.666 15.9331 28.6602C15.9319 28.6544 15.9307 28.6489 15.9294 28.644L15.9291 28.6427L15.1608 27.025Z" fill="#FCFCFC"/>
</g>
<mask id="mask1_6024_3586" style="mask-type:luminance" maskUnits="userSpaceOnUse" x="4" y="12" width="23" height="37">
<path d="M4.2998 12.85L26.7123 19.075V42.125L4.2998 48.35V12.85Z" fill="white"/>
</mask>
<g mask="url(#mask1_6024_3586)">
<path fill-rule="evenodd" clip-rule="evenodd" d="M13.2451 39.6769L10.6076 40.0644L10.3169 38.0856L12.9544 37.6981L13.2451 39.6769Z" fill="#FCFCFC"/>
</g>
<mask id="mask2_6024_3586" style="mask-type:luminance" maskUnits="userSpaceOnUse" x="4" y="12" width="23" height="37">
<path d="M4.2998 12.85L26.7123 19.075V42.125L4.2998 48.35V12.85Z" fill="white"/>
</mask>
<g mask="url(#mask2_6024_3586)">
<path fill-rule="evenodd" clip-rule="evenodd" d="M19.2193 38.752L17.0818 39.0645L16.7925 37.0855L18.93 36.773L19.2193 38.752Z" fill="#FCFCFC"/>
</g>
<mask id="mask3_6024_3586" style="mask-type:luminance" maskUnits="userSpaceOnUse" x="4" y="12" width="23" height="37">
<path d="M4.2998 12.85L26.7123 19.075V42.125L4.2998 48.35V12.85Z" fill="white"/>
</mask>
<g mask="url(#mask3_6024_3586)">
<path fill-rule="evenodd" clip-rule="evenodd" d="M23.8557 38.0771L22.2182 38.3146L21.9312 36.3353L23.5687 36.0978L23.8557 38.0771Z" fill="#FCFCFC"/>
</g>
<mask id="mask4_6024_3586" style="mask-type:luminance" maskUnits="userSpaceOnUse" x="4" y="12" width="23" height="37">
<path d="M4.2998 12.85L26.7123 19.075V42.125L4.2998 48.35V12.85Z" fill="white"/>
</mask>
<g mask="url(#mask4_6024_3586)">
<mask id="mask5_6024_3586" style="mask-type:luminance" maskUnits="userSpaceOnUse" x="10" y="24" width="27" height="18">
<path d="M36.1624 32.1C36.1624 35.6375 32.6124 39.3875 26.9749 40.7875C19.2249 42.7 10.3999 39.7 10.3999 33.3125C10.3999 26.925 19.2124 23.1 26.9749 24.2875C32.5999 25.1375 36.1624 28.55 36.1624 32.1Z" fill="white"/>
</mask>
<g mask="url(#mask5_6024_3586)">
<path fill-rule="evenodd" clip-rule="evenodd" d="M25.0333 18.025L26.8972 22.9952L28.6653 18.6611L30.5622 24.1572V24.5203L31.714 21.3777L33.3939 26.4927L34.3372 23.6628L36.0122 29.0994V30.521C39.0882 34.78 40.7622 41.3053 40.7622 48.8249C40.7622 60.8256 36.114 76.9937 27.7871 88.5955C24.3206 93.4187 20.4212 97.2448 16.494 99.7655C12.5771 102.28 8.55413 103.543 4.88147 103.088C1.157 102.626 -2.03779 100.419 -4.26488 96.3558C-6.47193 92.3296 -7.73779 86.479 -7.73779 78.6124C-7.73779 58.9294 1.69331 40.1407 12.3747 30.8893V28.1402L15.2683 22.6462L17.4765 27.2689C17.6805 27.1566 17.8842 27.0481 18.0872 26.9436V25.3807L20.6594 20.1292L22.7247 25.0713V23.1605L25.0333 18.025ZM20.9872 26.1005L20.515 24.9707L20.0872 25.8442V28.1905L19.5215 28.4632C18.852 28.786 18.1692 29.1573 17.4855 29.5771L15.9622 30.5124V28.739L15.1811 27.1037L14.3747 28.6347V31.8144L14.0198 32.1141C3.67128 40.8498 -5.73779 59.2633 -5.73779 78.6124C-5.73779 86.3022 -4.49428 91.7766 -2.51109 95.3945C-0.547951 98.9758 2.12836 100.731 5.12732 101.103C8.1781 101.481 11.7309 100.446 15.4137 98.0824C19.086 95.7253 22.8104 92.0931 26.1627 87.4288C34.2356 76.1806 38.7622 60.4241 38.7622 48.8249C38.7622 41.3822 37.0594 35.2266 34.2137 31.4519L34.0122 31.1847V30.9622L33.9974 31.0068L32.8561 29.9078C32.5351 29.5987 32.2159 29.3149 31.8953 29.0716L31.4997 28.7715V28.6805L30.3286 28.0761C29.9704 27.8912 29.6007 27.724 29.2294 27.5929L28.5622 27.3575V26.1249H26.5622V25.9624H25.1122V23.9313L24.8661 23.2749L24.7247 23.5894V26.9593L23.8752 27.0886C23.3426 27.1696 22.8064 27.2859 22.2538 27.4388L20.9872 27.7891V26.1005Z" fill="#FCFCFC"/>
</g>
</g>
<mask id="mask6_6024_3586" style="mask-type:luminance" maskUnits="userSpaceOnUse" x="31" y="8" width="28" height="38">
<path d="M58.9127 8.46252H31.8252V45.9625H58.9127V8.46252Z" fill="white"/>
</mask>
<g mask="url(#mask6_6024_3586)">
<path fill-rule="evenodd" clip-rule="evenodd" d="M35.3124 13.5563C35.9149 13.5563 36.22 14.0042 36.3193 14.2028L36.3235 14.2111L38.1496 18.0384C38.285 18.3148 38.3624 18.6893 38.3624 18.975V43.6C38.3624 44.2586 37.8328 44.8625 37.0999 44.8625H33.5374C32.8788 44.8625 32.2749 44.3329 32.2749 43.6V19C32.2749 18.8336 32.3019 18.663 32.3311 18.5302C32.3588 18.4047 32.4065 18.2301 32.4863 18.0664L34.3002 14.2134L34.3055 14.2028C34.4048 14.0042 34.7099 13.5563 35.3124 13.5563ZM35.3177 16.7476L34.2943 18.9214C34.2916 18.9302 34.288 18.9437 34.2843 18.9605C34.28 18.9802 34.277 18.9979 34.2753 19.0104C34.2752 19.0118 34.275 19.0129 34.2749 19.014V42.8625H36.3624V18.984C36.3623 18.9826 36.362 18.9808 36.3617 18.9785C36.3603 18.967 36.3576 18.9515 36.3538 18.9344C36.3505 18.9198 36.3473 18.9082 36.345 18.9007L35.3177 16.7476Z" fill="#FCFCFC"/>
<path fill-rule="evenodd" clip-rule="evenodd" d="M42.1127 17.4688C42.7152 17.4688 43.0203 17.9166 43.1196 18.1153L43.1237 18.1235L44.9499 21.9509C45.0853 22.2273 45.1627 22.6018 45.1627 22.8875V43.6C45.1627 44.2586 44.6332 44.8625 43.9002 44.8625H40.3377C39.6791 44.8625 39.0752 44.3329 39.0752 43.6V22.9C39.0752 22.7336 39.1022 22.563 39.1314 22.4301C39.1591 22.3045 39.2069 22.1296 39.2869 21.9657L41.1008 18.1253L41.1058 18.1153C41.2051 17.9166 41.5102 17.4688 42.1127 17.4688ZM42.1167 20.6573L41.0946 22.8215C41.0919 22.8303 41.0883 22.8437 41.0846 22.8605C41.0802 22.8802 41.0773 22.8978 41.0756 22.9104C41.0755 22.9117 41.0753 22.9129 41.0752 22.9139V42.8625H43.1627V22.8965C43.1625 22.8951 43.1623 22.8933 43.162 22.8909C43.1606 22.8795 43.1579 22.864 43.1541 22.8468C43.1508 22.8323 43.1476 22.8207 43.1453 22.8132L42.1167 20.6573Z" fill="#FCFCFC"/>
<path fill-rule="evenodd" clip-rule="evenodd" d="M48.9252 21.3688C49.5277 21.3688 49.8328 21.8167 49.9321 22.0153L49.9362 22.0236L51.7624 25.8509C51.8978 26.1273 51.9752 26.5018 51.9752 26.7875V43.6125C51.9752 44.2711 51.4457 44.875 50.7127 44.875H47.1502C46.4916 44.875 45.8877 44.3455 45.8877 43.6125V26.8125C45.8877 26.6461 45.9147 26.4755 45.9439 26.3427C45.9716 26.2172 46.0193 26.0426 46.0991 25.8789L47.913 22.0259L47.9183 22.0153C48.0176 21.8167 48.3227 21.3688 48.9252 21.3688ZM48.9305 24.5601L47.9071 26.7339C47.9044 26.7427 47.9008 26.7562 47.8971 26.773C47.8927 26.7927 47.8898 26.8104 47.8881 26.8229C47.888 26.8243 47.8878 26.8254 47.8877 26.8265V42.875H49.9752V26.7965C49.975 26.7951 49.9748 26.7933 49.9745 26.791C49.9731 26.7795 49.9704 26.764 49.9666 26.7469C49.9633 26.7323 49.9601 26.7207 49.9578 26.7132L48.9305 24.5601Z" fill="#FCFCFC"/>
</g>
<mask id="mask7_6024_3586" style="mask-type:luminance" maskUnits="userSpaceOnUse" x="31" y="8" width="28" height="38">
<path d="M58.9127 8.46252H31.8252V45.9625H58.9127V8.46252Z" fill="white"/>
</mask>
<g mask="url(#mask7_6024_3586)">
<path fill-rule="evenodd" clip-rule="evenodd" d="M40.0753 39.525H37.3628V37.525H40.0753V39.525Z" fill="#FCFCFC"/>
</g>
<mask id="mask8_6024_3586" style="mask-type:luminance" maskUnits="userSpaceOnUse" x="31" y="8" width="28" height="38">
<path d="M58.9127 8.46252H31.8252V45.9625H58.9127V8.46252Z" fill="white"/>
</mask>
<g mask="url(#mask8_6024_3586)">
<path fill-rule="evenodd" clip-rule="evenodd" d="M46.8878 39.525H44.1753V37.525H46.8878V39.525Z" fill="#FCFCFC"/>
</g>
<mask id="mask9_6024_3586" style="mask-type:luminance" maskUnits="userSpaceOnUse" x="31" y="8" width="28" height="38">
<path d="M58.9127 8.46252H31.8252V45.9625H58.9127V8.46252Z" fill="white"/>
</mask>
<g mask="url(#mask9_6024_3586)">
<path fill-rule="evenodd" clip-rule="evenodd" d="M54.3129 39.525H50.8379V37.525H54.3129V39.525Z" fill="#FCFCFC"/>
</g>
<mask id="mask10_6024_3586" style="mask-type:luminance" maskUnits="userSpaceOnUse" x="31" y="8" width="28" height="38">
<path d="M58.9127 8.46252H31.8252V45.9625H58.9127V8.46252Z" fill="white"/>
</mask>
<g mask="url(#mask10_6024_3586)">
<mask id="mask11_6024_3586" style="mask-type:luminance" maskUnits="userSpaceOnUse" x="9" y="19" width="46" height="26">
<path d="M32.15 44.975C44.4521 44.975 54.425 39.2499 54.425 32.1875C54.425 25.1252 44.4521 19.4 32.15 19.4C19.8479 19.4 9.875 25.1252 9.875 32.1875C9.875 39.2499 19.8479 44.975 32.15 44.975Z" fill="white"/>
</mask>
<g mask="url(#mask11_6024_3586)">
<path fill-rule="evenodd" clip-rule="evenodd" d="M35.3377 12.1653L38.3877 18.6V21.8596C38.6924 21.9317 38.9966 22.0093 39.2993 22.0924L42.1476 16.0833L45.2002 22.4864V24.4321C45.6352 24.664 46.0688 24.906 46.4991 25.1606L48.946 19.9799L52.0002 26.3864V29.2267C61.7642 38.0347 68.1252 53.1172 68.1252 70.15C68.1252 83.6073 64.1585 95.828 57.6946 104.709C51.2314 113.589 42.2172 119.188 32.1627 119.188C22.108 119.188 13.0938 113.585 6.63069 104.704C0.16689 95.8217 -3.7998 83.6011 -3.7998 70.15C-3.7998 53.3772 2.36503 38.4983 11.8752 29.6365V26.4014L14.8946 19.9897L17.4627 25.3763C17.8587 25.1346 18.2583 24.9019 18.6627 24.6785V22.5125L21.7101 16.0833L24.6229 22.1931C24.9053 22.1108 25.1897 22.0328 25.4752 21.9599V18.6L28.5226 12.1708L31.5752 18.5739V22.1625H29.5752V19.0262L28.5278 16.8293L27.4752 19.05V23.5546L26.6893 23.7268C25.8185 23.9177 24.9418 24.1695 24.0829 24.4599L22.7627 24.9062V22.9387L21.7153 20.7418L20.6627 22.9625V25.8784L20.1289 26.1597C19.2356 26.6305 18.3642 27.1508 17.5022 27.7214L15.9502 28.7488V26.8512L14.9057 24.6604L13.8752 26.8487V30.5171L13.5483 30.8146C4.34384 39.1911 -1.7998 53.6393 -1.7998 70.15C-1.7998 83.224 2.0585 95.0221 8.24782 103.527C14.4378 112.033 22.9049 117.188 32.1627 117.188C41.4207 117.188 49.8877 112.036 56.0776 103.532C62.2669 95.0284 66.1252 83.2303 66.1252 70.15C66.1252 53.3794 59.7838 38.7381 50.3395 30.4257L50.0002 30.127V26.8387L48.9544 24.6451L47.3411 28.061L46.3815 27.4393C45.5286 26.8868 44.6465 26.3908 43.7434 25.9271L43.2002 25.6482V22.9387L42.1528 20.7418L41.1002 22.9625V24.7501L39.792 24.3264C38.9417 24.0509 38.065 23.8226 37.1864 23.6421L36.3877 23.4779V19.05L35.3377 16.8348L34.2877 19.05V22.1375H32.2877V18.6L35.3377 12.1653Z" fill="#FCFCFC"/>
</g>
</g>
</svg>
