<svg width="64" height="34" viewBox="0 0 64 34" fill="none" xmlns="http://www.w3.org/2000/svg">
<g clip-path="url(#clip0_6344_13538)">
<path fill-rule="evenodd" clip-rule="evenodd" d="M4.0565 5.95485V28.2646H7.43677V5.95485H4.0565ZM1.93555 5.15949C1.93555 4.42799 2.52964 3.83389 3.26114 3.83389H8.23213C8.96363 3.83389 9.55773 4.42799 9.55773 5.15949V29.06C9.55773 29.7915 8.96363 30.3856 8.23213 30.3856H3.26114C2.52964 30.3856 1.93555 29.7915 1.93555 29.06V5.15949Z" fill="#282828"/>
<path fill-rule="evenodd" clip-rule="evenodd" d="M0 30.8363C0 29.4155 1.15085 28.2646 2.57166 28.2646H8.6694C10.083 28.2646 11.2278 29.4216 11.2278 30.8363V33.62H0V30.8363ZM2.57166 30.3856C2.32222 30.3856 2.12095 30.5868 2.12095 30.8363V31.4991H9.10685V30.8363C9.10685 30.5807 8.89952 30.3856 8.6694 30.3856H2.57166Z" fill="#282828"/>
<path fill-rule="evenodd" clip-rule="evenodd" d="M56.8153 6.12718V28.437H60.1956V6.12718H56.8153ZM54.6943 5.33182C54.6943 4.60032 55.2884 4.00623 56.0199 4.00623H60.9909C61.7224 4.00623 62.3165 4.60032 62.3165 5.33182V29.2323C62.3165 29.9638 61.7224 30.5579 60.9909 30.5579H56.0199C55.2884 30.5579 54.6943 29.9638 54.6943 29.2323V5.33182Z" fill="#282828"/>
<path fill-rule="evenodd" clip-rule="evenodd" d="M52.772 31.0086C52.772 29.5878 53.9228 28.437 55.3436 28.437H61.4281C62.8448 28.437 63.9774 29.5934 63.9996 30.9918L63.9998 31.0002V33.7924H52.772V31.0086ZM55.3436 30.5579C55.0942 30.5579 54.8929 30.7592 54.8929 31.0086V31.6714H61.8788V31.0193C61.8713 30.7506 61.6535 30.5579 61.4281 30.5579H55.3436Z" fill="#282828"/>
<path fill-rule="evenodd" clip-rule="evenodd" d="M28.3941 0.181854C29.033 0.181854 29.3565 0.656831 29.4619 0.867491L29.4663 0.87625L31.4028 4.93501C31.5464 5.22817 31.6285 5.62534 31.6285 5.92832V32.0426C31.6285 32.741 31.0669 33.3814 30.2897 33.3814H26.5117C25.8132 33.3814 25.1729 32.8198 25.1729 32.0426V5.95483C25.1729 5.77833 25.2014 5.59746 25.2325 5.45654C25.2618 5.32346 25.3124 5.13836 25.397 4.96474L27.3206 0.878708L27.3262 0.867491C27.4316 0.656831 27.7552 0.181854 28.3941 0.181854ZM28.3997 3.56615L27.3144 5.87149C27.3115 5.88082 27.3077 5.89508 27.3038 5.91293C27.2992 5.9338 27.296 5.95254 27.2943 5.96586C27.2941 5.96728 27.2939 5.96852 27.2938 5.9696V31.2605H29.5076V5.93788C29.5074 5.9364 29.5072 5.93443 29.5069 5.93197C29.5053 5.91985 29.5025 5.90336 29.4984 5.8852C29.495 5.86974 29.4916 5.85746 29.4891 5.8495L28.3997 3.56615Z" fill="#282828"/>
<path fill-rule="evenodd" clip-rule="evenodd" d="M21.1831 4.33096C21.822 4.33096 22.1456 4.80594 22.2509 5.0166L22.2553 5.02536L24.1919 9.08413C24.3355 9.37729 24.4176 9.77445 24.4176 10.0774V32.0426C24.4176 32.741 23.856 33.3814 23.0787 33.3814H19.3008C18.6023 33.3814 17.9619 32.8198 17.9619 32.0426V10.0907C17.9619 9.91418 17.9905 9.73332 18.0216 9.5924C18.0509 9.45913 18.1016 9.27367 18.1864 9.09983L20.11 5.02722L20.1153 5.0166C20.2206 4.80594 20.5442 4.33096 21.1831 4.33096ZM21.1874 7.71239L20.1034 10.0074C20.1006 10.0167 20.0967 10.031 20.0928 10.0488C20.0882 10.0696 20.0851 10.0884 20.0833 10.1017C20.0832 10.1031 20.083 10.1044 20.0829 10.1055V31.2605H22.2966V10.087C22.2965 10.0855 22.2962 10.0835 22.2959 10.0811C22.2944 10.069 22.2916 10.0525 22.2875 10.0343C22.284 10.0188 22.2806 10.0066 22.2782 9.9986L21.1874 7.71239Z" fill="#282828"/>
<path fill-rule="evenodd" clip-rule="evenodd" d="M13.9585 8.46683C14.5974 8.46683 14.921 8.94181 15.0263 9.15246L15.0307 9.16122L16.9672 13.22C17.1109 13.5132 17.193 13.9103 17.193 14.2133V32.0426C17.193 32.741 16.6314 33.3814 15.8541 33.3814H12.0762C11.3777 33.3814 10.7373 32.8198 10.7373 32.0426V14.2265C10.7373 14.05 10.7659 13.8692 10.7969 13.7283C10.8263 13.595 10.877 13.4095 10.9618 13.2357L12.8854 9.16309L12.8907 9.15246C12.996 8.94181 13.3196 8.46683 13.9585 8.46683ZM13.9628 11.8483L12.8788 14.1433C12.876 14.1526 12.8721 14.1668 12.8682 14.1846C12.8636 14.2055 12.8605 14.2243 12.8587 14.2376C12.8585 14.239 12.8584 14.2402 12.8583 14.2413V31.2605H15.072V14.2229C15.0718 14.2214 15.0716 14.2194 15.0713 14.2169C15.0698 14.2048 15.067 14.1883 15.0629 14.1702C15.0594 14.1547 15.056 14.1424 15.0536 14.1345L13.9628 11.8483Z" fill="#282828"/>
<path fill-rule="evenodd" clip-rule="evenodd" d="M11.7977 27.7079H8.24512V25.5869H11.7977V27.7079Z" fill="#282828"/>
<path fill-rule="evenodd" clip-rule="evenodd" d="M19.0225 27.7079H16.146V25.5869H19.0225V27.7079Z" fill="#282828"/>
<path fill-rule="evenodd" clip-rule="evenodd" d="M26.2335 27.7079H23.5293V25.5869H26.2335V27.7079Z" fill="#282828"/>
<mask id="mask0_6344_13538" style="mask-type:alpha" maskUnits="userSpaceOnUse" x="0" y="0" width="33" height="34">
<rect y="0.181854" width="32.2648" height="33.1996" fill="#D9D9D9"/>
</mask>
<g mask="url(#mask0_6344_13538)">
<mask id="mask1_6344_13538" style="mask-type:luminance" maskUnits="userSpaceOnUse" x="8" y="6" width="48" height="28">
<path d="M32.2647 33.5007C45.3108 33.5007 55.8868 27.4293 55.8868 19.9399C55.8868 12.4504 45.3108 6.37903 32.2647 6.37903C19.2186 6.37903 8.64258 12.4504 8.64258 19.9399C8.64258 27.4293 19.2186 33.5007 32.2647 33.5007Z" fill="white"/>
</mask>
<g mask="url(#mask1_6344_13538)">
<path fill-rule="evenodd" clip-rule="evenodd" d="M28.4183 -1.28741L31.6555 5.50288V9.30859H29.5345V5.98259L28.4238 3.65278L27.3075 6.00785V10.7848L26.4741 10.9675C25.5507 11.1699 24.6209 11.437 23.7101 11.7449L22.31 12.2181V10.1317L21.2009 7.80513L20.0963 10.143V13.2359L19.5303 13.5342C18.5829 14.0335 17.6588 14.5852 16.7446 15.1904L15.0988 16.2799V14.2543L13.9881 11.9245L12.8718 14.2796V18.1684L12.525 18.484C2.7774 27.3537 -3.73793 42.6755 -3.73793 60.185C-3.73793 74.0496 0.353711 86.5612 6.91735 95.5808C13.4817 104.601 22.4609 110.067 32.2785 110.067C42.0964 110.067 51.0755 104.604 57.6398 95.5856C64.2033 86.5679 68.295 74.0563 68.295 60.185C68.295 42.4001 61.5701 26.8734 51.5546 18.0582L51.1948 17.7415V14.2543L50.0828 11.9219L48.3592 15.549L47.3439 14.8912C46.4395 14.3053 45.504 13.7793 44.5463 13.2876L43.9703 12.9918V10.1185L42.8596 7.78864L41.7433 10.1437V12.0394L40.356 11.59C39.4542 11.2979 38.5245 11.0558 37.5928 10.8643L36.7458 10.6903V5.99585L35.6352 3.66635L34.532 5.99452V9.26882H32.4111V5.51745L35.6294 -1.27448L38.8667 5.51613V8.97404C39.1899 9.05056 39.5124 9.13286 39.8335 9.22096L42.854 2.84845L46.0912 9.63874V11.7021C46.5534 11.9485 47.014 12.2056 47.4711 12.4762L50.0797 6.98691L53.3157 13.7746V16.7867C63.6703 26.1274 70.4159 42.122 70.4159 60.185C70.4159 74.4561 66.2094 87.4158 59.3546 96.8338C52.5005 106.251 42.9411 112.188 32.2785 112.188C21.6157 112.188 12.0564 106.247 5.20242 96.8287C-1.6523 87.4092 -5.85889 74.4495 -5.85889 60.185C-5.85889 42.3983 0.678428 26.6197 10.7508 17.2346V13.8024L13.9825 6.98431L16.7077 12.7005C17.126 12.4452 17.5482 12.1995 17.9753 11.9634V9.6672L21.1922 2.85846L24.2827 9.34105C24.5823 9.25369 24.8838 9.17096 25.1866 9.09365V5.53064L28.4183 -1.28741Z" fill="#282828"/>
</g>
</g>
<path d="M46.9637 14.97C47.4815 14.97 47.8733 15.1772 48.1391 15.5914C48.4084 16.0022 48.543 16.5839 48.543 17.3364C48.543 18.089 48.4136 18.6758 48.1546 19.097C47.8957 19.5147 47.4988 19.7235 46.9637 19.7235C46.4666 19.7235 46.0851 19.5147 45.8193 19.097C45.557 18.6758 45.4258 18.089 45.4258 17.3364C45.4258 16.5839 45.5518 16.0022 45.8038 15.5914C46.0558 15.1772 46.4424 14.97 46.9637 14.97ZM46.9637 15.5862C46.6841 15.5862 46.4787 15.7329 46.3475 16.0264C46.2163 16.3163 46.1507 16.753 46.1507 17.3364C46.1507 17.9198 46.2163 18.36 46.3475 18.6568C46.4787 18.9537 46.6841 19.1022 46.9637 19.1022C47.2537 19.1022 47.4694 18.9537 47.6109 18.6568C47.7525 18.36 47.8232 17.9198 47.8232 17.3364C47.8232 16.7565 47.7525 16.3198 47.6109 16.0264C47.4729 15.7329 47.2571 15.5862 46.9637 15.5862ZM51.7586 15.0788L47.5592 22.6492H46.8032L51.0026 15.0788H51.7586ZM51.5567 18.0044C52.071 18.0044 52.4628 18.2115 52.7321 18.6258C53.0014 19.0366 53.136 19.6182 53.136 20.3708C53.136 21.1199 53.0065 21.705 52.7476 22.1262C52.4887 22.5439 52.0917 22.7527 51.5567 22.7527C51.0561 22.7527 50.6747 22.5439 50.4123 22.1262C50.1499 21.705 50.0188 21.1199 50.0188 20.3708C50.0188 19.6182 50.143 19.0366 50.3916 18.6258C50.6436 18.2115 51.0319 18.0044 51.5567 18.0044ZM51.5567 18.6258C51.277 18.6258 51.0716 18.7708 50.9405 19.0607C50.8093 19.3507 50.7437 19.7874 50.7437 20.3708C50.7437 20.9542 50.8093 21.3943 50.9405 21.6912C51.0716 21.9846 51.277 22.1314 51.5567 22.1314C51.8466 22.1314 52.0624 21.9864 52.2039 21.6964C52.3455 21.403 52.4162 20.9611 52.4162 20.3708C52.4162 19.7909 52.3455 19.3559 52.2039 19.0659C52.0658 18.7725 51.8501 18.6258 51.5567 18.6258Z" fill="#282828"/>
<path d="M44.354 18.8536C44.354 19.4681 44.3074 20.0169 44.2142 20.5002C44.121 20.9835 43.9743 21.3926 43.7741 21.7274C43.5738 22.0623 43.3149 22.3178 42.9973 22.4938C42.6797 22.6664 42.2983 22.7527 41.853 22.7527C41.2903 22.7527 40.8243 22.5991 40.4549 22.2919C40.089 21.9846 39.8145 21.541 39.6316 20.9611C39.4521 20.3777 39.3623 19.6752 39.3623 18.8536C39.3623 18.0458 39.4434 17.3519 39.6057 16.772C39.7714 16.1886 40.0372 15.7416 40.4031 15.4309C40.769 15.1167 41.2523 14.9597 41.853 14.9597C42.4226 14.9597 42.8921 15.115 43.2614 15.4257C43.6308 15.7329 43.9052 16.1782 44.0847 16.7616C44.2642 17.3416 44.354 18.0389 44.354 18.8536ZM40.227 18.8536C40.227 19.5578 40.2806 20.1447 40.3876 20.6142C40.4946 21.0836 40.6672 21.4357 40.9054 21.6705C41.147 21.9018 41.4629 22.0174 41.853 22.0174C42.2431 22.0174 42.5572 21.9018 42.7954 21.6705C43.037 21.4392 43.2114 21.0888 43.3184 20.6193C43.4288 20.1498 43.4841 19.5613 43.4841 18.8536C43.4841 18.1597 43.4306 17.5798 43.3236 17.1137C43.2165 16.6443 43.0439 16.2922 42.8057 16.0574C42.5676 15.8192 42.25 15.7001 41.853 15.7001C41.456 15.7001 41.1384 15.8192 40.9002 16.0574C40.662 16.2922 40.4894 16.6443 40.3824 17.1137C40.2788 17.5798 40.227 18.1597 40.227 18.8536Z" fill="#282828"/>
<path d="M35.6756 18.0199C36.19 18.0199 36.637 18.108 37.0167 18.284C37.3965 18.4566 37.6899 18.7086 37.897 19.04C38.1076 19.3714 38.2129 19.7736 38.2129 20.2465C38.2129 20.7643 38.1007 21.2114 37.8763 21.5877C37.6519 21.9605 37.3292 22.2487 36.908 22.4524C36.4869 22.6526 35.9828 22.7527 35.396 22.7527C35.0025 22.7527 34.6365 22.7182 34.2982 22.6492C33.9599 22.5801 33.6751 22.4766 33.4438 22.3385V21.5203C33.6958 21.6722 34.0014 21.793 34.3604 21.8828C34.7194 21.9726 35.068 22.0174 35.4064 22.0174C35.7895 22.0174 36.1244 21.957 36.4109 21.8362C36.7009 21.7119 36.9253 21.5255 37.0841 21.277C37.2463 21.025 37.3274 20.7091 37.3274 20.3294C37.3274 19.8254 37.1721 19.437 36.8614 19.1643C36.5542 18.8881 36.0674 18.75 35.4012 18.75C35.1871 18.75 34.9524 18.7673 34.697 18.8018C34.4415 18.8363 34.2309 18.8743 34.0652 18.9157L33.6303 18.6309L33.9202 15.0788H37.6847V15.8658H34.6555L34.4639 18.1494C34.5951 18.1218 34.7643 18.0942 34.9714 18.0665C35.1785 18.0355 35.4133 18.0199 35.6756 18.0199Z" fill="#282828"/>
</g>
<defs>
<clipPath id="clip0_6344_13538">
<rect width="64" height="34" fill="white"/>
</clipPath>
</defs>
</svg>
