<svg width="64" height="65" viewBox="0 0 64 65" fill="none" xmlns="http://www.w3.org/2000/svg">
<path fill-rule="evenodd" clip-rule="evenodd" d="M4.0565 21.9548V44.2646H7.43677V21.9548H4.0565ZM1.93555 21.1595C1.93555 20.428 2.52964 19.8339 3.26114 19.8339H8.23213C8.96363 19.8339 9.55773 20.428 9.55773 21.1595V45.06C9.55773 45.7915 8.96363 46.3856 8.23213 46.3856H3.26114C2.52964 46.3856 1.93555 45.7915 1.93555 45.06V21.1595Z" fill="#282828"/>
<path fill-rule="evenodd" clip-rule="evenodd" d="M0 46.8363C0 45.4155 1.15085 44.2646 2.57166 44.2646H8.6694C10.083 44.2646 11.2278 45.4216 11.2278 46.8363V49.62H0V46.8363ZM2.57166 46.3856C2.32222 46.3856 2.12095 46.5868 2.12095 46.8363V47.4991H9.10685V46.8363C9.10685 46.5807 8.89952 46.3856 8.6694 46.3856H2.57166Z" fill="#282828"/>
<path fill-rule="evenodd" clip-rule="evenodd" d="M56.8153 22.1272V44.437H60.1956V22.1272H56.8153ZM54.6943 21.3318C54.6943 20.6003 55.2884 20.0062 56.0199 20.0062H60.9909C61.7224 20.0062 62.3165 20.6003 62.3165 21.3318V45.2323C62.3165 45.9638 61.7224 46.5579 60.9909 46.5579H56.0199C55.2884 46.5579 54.6943 45.9638 54.6943 45.2323V21.3318Z" fill="#282828"/>
<path fill-rule="evenodd" clip-rule="evenodd" d="M52.772 47.0086C52.772 45.5878 53.9228 44.437 55.3436 44.437H61.4281C62.8448 44.437 63.9774 45.5934 63.9996 46.9918L63.9998 47.0002V49.7924H52.772V47.0086ZM55.3436 46.5579C55.0942 46.5579 54.8929 46.7592 54.8929 47.0086V47.6714H61.8788V47.0193C61.8713 46.7506 61.6535 46.5579 61.4281 46.5579H55.3436Z" fill="#282828"/>
<path fill-rule="evenodd" clip-rule="evenodd" d="M28.3941 16.1819C29.033 16.1819 29.3565 16.6568 29.4619 16.8675L29.4663 16.8763L31.4028 20.935C31.5464 21.2282 31.6285 21.6253 31.6285 21.9283V48.0426C31.6285 48.741 31.0669 49.3814 30.2897 49.3814H26.5117C25.8132 49.3814 25.1729 48.8198 25.1729 48.0426V21.9548C25.1729 21.7783 25.2014 21.5975 25.2325 21.4565C25.2618 21.3235 25.3124 21.1384 25.397 20.9647L27.3206 16.8787L27.3262 16.8675C27.4316 16.6568 27.7552 16.1819 28.3941 16.1819ZM28.3997 19.5661L27.3144 21.8715C27.3115 21.8808 27.3077 21.8951 27.3038 21.9129C27.2992 21.9338 27.296 21.9525 27.2943 21.9659C27.2941 21.9673 27.2939 21.9685 27.2938 21.9696V47.2605H29.5076V21.9379C29.5074 21.9364 29.5072 21.9344 29.5069 21.932C29.5053 21.9199 29.5025 21.9034 29.4984 21.8852C29.495 21.8697 29.4916 21.8575 29.4891 21.8495L28.3997 19.5661Z" fill="#282828"/>
<path fill-rule="evenodd" clip-rule="evenodd" d="M21.1831 20.331C21.822 20.331 22.1456 20.8059 22.2509 21.0166L22.2553 21.0254L24.1919 25.0841C24.3355 25.3773 24.4176 25.7745 24.4176 26.0774V48.0426C24.4176 48.741 23.856 49.3814 23.0787 49.3814H19.3008C18.6023 49.3814 17.9619 48.8198 17.9619 48.0426V26.0907C17.9619 25.9142 17.9905 25.7333 18.0216 25.5924C18.0509 25.4591 18.1016 25.2737 18.1864 25.0998L20.11 21.0272L20.1153 21.0166C20.2206 20.8059 20.5442 20.331 21.1831 20.331ZM21.1874 23.7124L20.1034 26.0074C20.1006 26.0167 20.0967 26.031 20.0928 26.0488C20.0882 26.0696 20.0851 26.0884 20.0833 26.1017C20.0832 26.1031 20.083 26.1044 20.0829 26.1055V47.2605H22.2966V26.087C22.2965 26.0855 22.2962 26.0835 22.2959 26.0811C22.2944 26.069 22.2916 26.0525 22.2875 26.0343C22.284 26.0188 22.2806 26.0066 22.2782 25.9986L21.1874 23.7124Z" fill="#282828"/>
<path fill-rule="evenodd" clip-rule="evenodd" d="M13.9585 24.4668C14.5974 24.4668 14.921 24.9418 15.0263 25.1525L15.0307 25.1612L16.9672 29.22C17.1109 29.5132 17.193 29.9103 17.193 30.2133V48.0426C17.193 48.741 16.6314 49.3814 15.8541 49.3814H12.0762C11.3777 49.3814 10.7373 48.8198 10.7373 48.0426V30.2265C10.7373 30.05 10.7659 29.8692 10.7969 29.7283C10.8263 29.595 10.877 29.4095 10.9618 29.2357L12.8854 25.1631L12.8907 25.1525C12.996 24.9418 13.3196 24.4668 13.9585 24.4668ZM13.9628 27.8483L12.8788 30.1433C12.876 30.1526 12.8721 30.1668 12.8682 30.1846C12.8636 30.2055 12.8605 30.2243 12.8587 30.2376C12.8585 30.239 12.8584 30.2402 12.8583 30.2413V47.2605H15.072V30.2229C15.0718 30.2214 15.0716 30.2194 15.0713 30.2169C15.0698 30.2048 15.067 30.1883 15.0629 30.1702C15.0594 30.1547 15.056 30.1424 15.0536 30.1345L13.9628 27.8483Z" fill="#282828"/>
<path fill-rule="evenodd" clip-rule="evenodd" d="M11.7977 43.7079H8.24512V41.5869H11.7977V43.7079Z" fill="#282828"/>
<path fill-rule="evenodd" clip-rule="evenodd" d="M19.0225 43.7079H16.146V41.5869H19.0225V43.7079Z" fill="#282828"/>
<path fill-rule="evenodd" clip-rule="evenodd" d="M26.2335 43.7079H23.5293V41.5869H26.2335V43.7079Z" fill="#282828"/>
<mask id="mask0_6344_13538" style="mask-type:alpha" maskUnits="userSpaceOnUse" x="0" y="16" width="33" height="34">
<rect y="16.1819" width="32.2648" height="33.1996" fill="#D9D9D9"/>
</mask>
<g mask="url(#mask0_6344_13538)">
<mask id="mask1_6344_13538" style="mask-type:luminance" maskUnits="userSpaceOnUse" x="8" y="22" width="48" height="28">
<path d="M32.2647 49.5007C45.3108 49.5007 55.8868 43.4293 55.8868 35.9399C55.8868 28.4504 45.3108 22.379 32.2647 22.379C19.2186 22.379 8.64258 28.4504 8.64258 35.9399C8.64258 43.4293 19.2186 49.5007 32.2647 49.5007Z" fill="white"/>
</mask>
<g mask="url(#mask1_6344_13538)">
<path fill-rule="evenodd" clip-rule="evenodd" d="M28.4183 14.7126L31.6555 21.5029V25.3086H29.5345V21.9826L28.4238 19.6528L27.3075 22.0078V26.7848L26.4741 26.9675C25.5507 27.1699 24.6209 27.437 23.7101 27.7449L22.31 28.2181V26.1317L21.2009 23.8051L20.0963 26.143V29.2359L19.5303 29.5342C18.5829 30.0335 17.6588 30.5852 16.7446 31.1904L15.0988 32.2799V30.2543L13.9881 27.9245L12.8718 30.2796V34.1684L12.525 34.484C2.7774 43.3537 -3.73793 58.6755 -3.73793 76.185C-3.73793 90.0496 0.353711 102.561 6.91735 111.581C13.4817 120.601 22.4609 126.067 32.2785 126.067C42.0964 126.067 51.0755 120.604 57.6398 111.586C64.2033 102.568 68.295 90.0563 68.295 76.185C68.295 58.4001 61.5701 42.8734 51.5546 34.0582L51.1948 33.7415V30.2543L50.0828 27.9219L48.3592 31.549L47.3439 30.8912C46.4395 30.3053 45.504 29.7793 44.5463 29.2876L43.9703 28.9918V26.1185L42.8596 23.7886L41.7433 26.1437V28.0394L40.356 27.59C39.4542 27.2979 38.5245 27.0558 37.5928 26.8643L36.7458 26.6903V21.9958L35.6352 19.6664L34.532 21.9945V25.2688H32.4111V21.5175L35.6294 14.7255L38.8667 21.5161V24.974C39.1899 25.0506 39.5124 25.1329 39.8335 25.221L42.854 18.8484L46.0912 25.6387V27.7021C46.5534 27.9485 47.014 28.2056 47.4711 28.4762L50.0797 22.9869L53.3157 29.7746V32.7867C63.6703 42.1274 70.4159 58.122 70.4159 76.185C70.4159 90.4561 66.2094 103.416 59.3546 112.834C52.5005 122.251 42.9411 128.188 32.2785 128.188C21.6157 128.188 12.0564 122.247 5.20242 112.829C-1.6523 103.409 -5.85889 90.4495 -5.85889 76.185C-5.85889 58.3983 0.678428 42.6197 10.7508 33.2346V29.8024L13.9825 22.9843L16.7077 28.7005C17.126 28.4452 17.5482 28.1995 17.9753 27.9634V25.6672L21.1922 18.8585L24.2827 25.341C24.5823 25.2537 24.8838 25.171 25.1866 25.0937V21.5306L28.4183 14.7126Z" fill="#282828"/>
</g>
</g>
<path d="M46.9637 30.97C47.4815 30.97 47.8733 31.1772 48.1391 31.5914C48.4084 32.0022 48.543 32.5839 48.543 33.3364C48.543 34.089 48.4136 34.6758 48.1546 35.097C47.8957 35.5147 47.4988 35.7235 46.9637 35.7235C46.4666 35.7235 46.0851 35.5147 45.8193 35.097C45.557 34.6758 45.4258 34.089 45.4258 33.3364C45.4258 32.5839 45.5518 32.0022 45.8038 31.5914C46.0558 31.1772 46.4424 30.97 46.9637 30.97ZM46.9637 31.5862C46.6841 31.5862 46.4787 31.7329 46.3475 32.0264C46.2163 32.3163 46.1507 32.753 46.1507 33.3364C46.1507 33.9198 46.2163 34.36 46.3475 34.6568C46.4787 34.9537 46.6841 35.1022 46.9637 35.1022C47.2537 35.1022 47.4694 34.9537 47.6109 34.6568C47.7525 34.36 47.8232 33.9198 47.8232 33.3364C47.8232 32.7565 47.7525 32.3198 47.6109 32.0264C47.4729 31.7329 47.2571 31.5862 46.9637 31.5862ZM51.7586 31.0788L47.5592 38.6492H46.8032L51.0026 31.0788H51.7586ZM51.5567 34.0044C52.071 34.0044 52.4628 34.2115 52.7321 34.6258C53.0014 35.0366 53.136 35.6182 53.136 36.3708C53.136 37.1199 53.0065 37.705 52.7476 38.1262C52.4887 38.5439 52.0917 38.7527 51.5567 38.7527C51.0561 38.7527 50.6747 38.5439 50.4123 38.1262C50.1499 37.705 50.0188 37.1199 50.0188 36.3708C50.0188 35.6182 50.143 35.0366 50.3916 34.6258C50.6436 34.2115 51.0319 34.0044 51.5567 34.0044ZM51.5567 34.6258C51.277 34.6258 51.0716 34.7708 50.9405 35.0607C50.8093 35.3507 50.7437 35.7874 50.7437 36.3708C50.7437 36.9542 50.8093 37.3943 50.9405 37.6912C51.0716 37.9846 51.277 38.1314 51.5567 38.1314C51.8466 38.1314 52.0624 37.9864 52.2039 37.6964C52.3455 37.403 52.4162 36.9611 52.4162 36.3708C52.4162 35.7909 52.3455 35.3559 52.2039 35.0659C52.0658 34.7725 51.8501 34.6258 51.5567 34.6258Z" fill="#282828"/>
<path d="M44.354 34.8536C44.354 35.4681 44.3074 36.0169 44.2142 36.5002C44.121 36.9835 43.9743 37.3926 43.7741 37.7274C43.5738 38.0623 43.3149 38.3178 42.9973 38.4938C42.6797 38.6664 42.2983 38.7527 41.853 38.7527C41.2903 38.7527 40.8243 38.5991 40.4549 38.2919C40.089 37.9846 39.8145 37.541 39.6316 36.9611C39.4521 36.3777 39.3623 35.6752 39.3623 34.8536C39.3623 34.0458 39.4434 33.3519 39.6057 32.772C39.7714 32.1886 40.0372 31.7416 40.4031 31.4309C40.769 31.1167 41.2523 30.9597 41.853 30.9597C42.4226 30.9597 42.8921 31.115 43.2614 31.4257C43.6308 31.7329 43.9052 32.1782 44.0847 32.7616C44.2642 33.3416 44.354 34.0389 44.354 34.8536ZM40.227 34.8536C40.227 35.5578 40.2806 36.1447 40.3876 36.6142C40.4946 37.0836 40.6672 37.4357 40.9054 37.6705C41.147 37.9018 41.4629 38.0174 41.853 38.0174C42.2431 38.0174 42.5572 37.9018 42.7954 37.6705C43.037 37.4392 43.2114 37.0888 43.3184 36.6193C43.4288 36.1498 43.4841 35.5613 43.4841 34.8536C43.4841 34.1597 43.4306 33.5798 43.3236 33.1137C43.2165 32.6443 43.0439 32.2922 42.8057 32.0574C42.5676 31.8192 42.25 31.7001 41.853 31.7001C41.456 31.7001 41.1384 31.8192 40.9002 32.0574C40.662 32.2922 40.4894 32.6443 40.3824 33.1137C40.2788 33.5798 40.227 34.1597 40.227 34.8536Z" fill="#282828"/>
<path d="M35.6756 34.0199C36.19 34.0199 36.637 34.108 37.0167 34.284C37.3965 34.4566 37.6899 34.7086 37.897 35.04C38.1076 35.3714 38.2129 35.7736 38.2129 36.2465C38.2129 36.7643 38.1007 37.2114 37.8763 37.5877C37.6519 37.9605 37.3292 38.2487 36.908 38.4524C36.4869 38.6526 35.9828 38.7527 35.396 38.7527C35.0025 38.7527 34.6365 38.7182 34.2982 38.6492C33.9599 38.5801 33.6751 38.4766 33.4438 38.3385V37.5203C33.6958 37.6722 34.0014 37.793 34.3604 37.8828C34.7194 37.9726 35.068 38.0174 35.4064 38.0174C35.7895 38.0174 36.1244 37.957 36.4109 37.8362C36.7009 37.7119 36.9253 37.5255 37.0841 37.277C37.2463 37.025 37.3274 36.7091 37.3274 36.3294C37.3274 35.8254 37.1721 35.437 36.8614 35.1643C36.5542 34.8881 36.0674 34.75 35.4012 34.75C35.1871 34.75 34.9524 34.7673 34.697 34.8018C34.4415 34.8363 34.2309 34.8743 34.0652 34.9157L33.6303 34.6309L33.9202 31.0788H37.6847V31.8658H34.6555L34.4639 34.1494C34.5951 34.1218 34.7643 34.0942 34.9714 34.0665C35.1785 34.0355 35.4133 34.0199 35.6756 34.0199Z" fill="#282828"/>
</svg>
