<svg width="64" height="34" viewBox="0 0 64 34" fill="none" xmlns="http://www.w3.org/2000/svg">
<g clip-path="url(#clip0_6399_13615)">
<path fill-rule="evenodd" clip-rule="evenodd" d="M4.0565 5.95488V28.2647H7.43677V5.95488H4.0565ZM1.93555 5.15952C1.93555 4.42802 2.52964 3.83392 3.26114 3.83392H8.23213C8.96363 3.83392 9.55773 4.42802 9.55773 5.15952V29.06C9.55773 29.7915 8.96363 30.3856 8.23213 30.3856H3.26114C2.52964 30.3856 1.93555 29.7915 1.93555 29.06V5.15952Z" fill="#FCFCFC"/>
<path fill-rule="evenodd" clip-rule="evenodd" d="M0 30.8363C0 29.4155 1.15085 28.2646 2.57166 28.2646H8.6694C10.083 28.2646 11.2278 29.4216 11.2278 30.8363V33.6201H0V30.8363ZM2.57166 30.3856C2.32222 30.3856 2.12095 30.5869 2.12095 30.8363V31.4991H9.10685V30.8363C9.10685 30.5808 8.89952 30.3856 8.6694 30.3856H2.57166Z" fill="#FCFCFC"/>
<path fill-rule="evenodd" clip-rule="evenodd" d="M56.8153 6.12718V28.437H60.1956V6.12718H56.8153ZM54.6943 5.33182C54.6943 4.60032 55.2884 4.00623 56.0199 4.00623H60.9909C61.7224 4.00623 62.3165 4.60032 62.3165 5.33182V29.2323C62.3165 29.9638 61.7224 30.5579 60.9909 30.5579H56.0199C55.2884 30.5579 54.6943 29.9638 54.6943 29.2323V5.33182Z" fill="#FCFCFC"/>
<path fill-rule="evenodd" clip-rule="evenodd" d="M52.772 31.0087C52.772 29.5879 53.9228 28.437 55.3436 28.437H61.4281C62.8448 28.437 63.9774 29.5935 63.9996 30.9918L63.9998 31.0003V33.7924H52.772V31.0087ZM55.3436 30.558C55.0942 30.558 54.8929 30.7592 54.8929 31.0087V31.6715H61.8788V31.0194C61.8713 30.7507 61.6535 30.558 61.4281 30.558H55.3436Z" fill="#FCFCFC"/>
<path fill-rule="evenodd" clip-rule="evenodd" d="M28.3941 0.181885C29.033 0.181885 29.3565 0.656862 29.4619 0.867522L29.4663 0.876281L31.4028 4.93504C31.5464 5.2282 31.6285 5.62537 31.6285 5.92835V32.0426C31.6285 32.7411 31.0669 33.3815 30.2897 33.3815H26.5117C25.8132 33.3815 25.1729 32.8199 25.1729 32.0426V5.95486C25.1729 5.77836 25.2014 5.59749 25.2325 5.45657C25.2618 5.32349 25.3124 5.13839 25.397 4.96477L27.3206 0.878738L27.3262 0.867522C27.4316 0.656862 27.7552 0.181885 28.3941 0.181885ZM28.3997 3.56618L27.3144 5.87152C27.3115 5.88085 27.3077 5.89511 27.3038 5.91296C27.2992 5.93383 27.296 5.95257 27.2943 5.96589C27.2941 5.96731 27.2939 5.96855 27.2938 5.96963V31.2605H29.5076V5.93791C29.5074 5.93643 29.5072 5.93446 29.5069 5.932C29.5053 5.91988 29.5025 5.90339 29.4984 5.88523C29.495 5.86977 29.4916 5.85749 29.4891 5.84953L28.3997 3.56618Z" fill="#FCFCFC"/>
<path fill-rule="evenodd" clip-rule="evenodd" d="M21.1831 4.33099C21.822 4.33099 22.1456 4.80597 22.2509 5.01663L22.2553 5.02539L24.1919 9.08416C24.3355 9.37732 24.4176 9.77449 24.4176 10.0775V32.0426C24.4176 32.741 23.856 33.3814 23.0787 33.3814H19.3008C18.6023 33.3814 17.9619 32.8199 17.9619 32.0426V10.0907C17.9619 9.91421 17.9905 9.73335 18.0216 9.59243C18.0509 9.45916 18.1016 9.2737 18.1864 9.09986L20.11 5.02725L20.1153 5.01663C20.2206 4.80597 20.5442 4.33099 21.1831 4.33099ZM21.1874 7.71242L20.1034 10.0074C20.1006 10.0167 20.0967 10.031 20.0928 10.0488C20.0882 10.0697 20.0851 10.0884 20.0833 10.1017C20.0832 10.1032 20.083 10.1044 20.0829 10.1055V31.2605H22.2966V10.087C22.2965 10.0855 22.2962 10.0836 22.2959 10.0811C22.2944 10.069 22.2916 10.0525 22.2875 10.0343C22.284 10.0189 22.2806 10.0066 22.2782 9.99863L21.1874 7.71242Z" fill="#FCFCFC"/>
<path fill-rule="evenodd" clip-rule="evenodd" d="M13.9585 8.46686C14.5974 8.46686 14.921 8.94184 15.0263 9.15249L15.0307 9.16125L16.9672 13.22C17.1109 13.5132 17.193 13.9103 17.193 14.2133V32.0426C17.193 32.741 16.6314 33.3814 15.8541 33.3814H12.0762C11.3777 33.3814 10.7373 32.8199 10.7373 32.0426V14.2266C10.7373 14.0501 10.7659 13.8692 10.7969 13.7283C10.8263 13.595 10.877 13.4096 10.9618 13.2357L12.8854 9.16312L12.8907 9.15249C12.996 8.94184 13.3196 8.46686 13.9585 8.46686ZM13.9628 11.8483L12.8788 14.1433C12.876 14.1526 12.8721 14.1669 12.8682 14.1847C12.8636 14.2055 12.8605 14.2243 12.8587 14.2376C12.8585 14.239 12.8584 14.2403 12.8583 14.2413V31.2605H15.072V14.2229C15.0718 14.2214 15.0716 14.2194 15.0713 14.217C15.0698 14.2049 15.067 14.1884 15.0629 14.1702C15.0594 14.1547 15.056 14.1425 15.0536 14.1345L13.9628 11.8483Z" fill="#FCFCFC"/>
<path fill-rule="evenodd" clip-rule="evenodd" d="M11.7977 27.7079H8.24512V25.587H11.7977V27.7079Z" fill="#FCFCFC"/>
<path fill-rule="evenodd" clip-rule="evenodd" d="M19.0225 27.7079H16.146V25.587H19.0225V27.7079Z" fill="#FCFCFC"/>
<path fill-rule="evenodd" clip-rule="evenodd" d="M26.2335 27.7079H23.5293V25.587H26.2335V27.7079Z" fill="#FCFCFC"/>
<mask id="mask0_6399_13615" style="mask-type:alpha" maskUnits="userSpaceOnUse" x="0" y="0" width="33" height="34">
<rect y="0.181885" width="32.2648" height="33.1996" fill="#D9D9D9"/>
</mask>
<g mask="url(#mask0_6399_13615)">
<mask id="mask1_6399_13615" style="mask-type:luminance" maskUnits="userSpaceOnUse" x="8" y="6" width="48" height="28">
<path d="M32.2647 33.5007C45.3108 33.5007 55.8868 27.4293 55.8868 19.9399C55.8868 12.4504 45.3108 6.37903 32.2647 6.37903C19.2186 6.37903 8.64258 12.4504 8.64258 19.9399C8.64258 27.4293 19.2186 33.5007 32.2647 33.5007Z" fill="white"/>
</mask>
<g mask="url(#mask1_6399_13615)">
<path fill-rule="evenodd" clip-rule="evenodd" d="M28.4183 -1.28741L31.6555 5.50288V9.30859H29.5345V5.98259L28.4238 3.65278L27.3075 6.00785V10.7848L26.4741 10.9675C25.5507 11.1699 24.6209 11.437 23.7101 11.7449L22.31 12.2181V10.1317L21.2009 7.80513L20.0963 10.143V13.2359L19.5303 13.5342C18.5829 14.0335 17.6588 14.5852 16.7446 15.1904L15.0988 16.2799V14.2543L13.9881 11.9245L12.8718 14.2796V18.1684L12.525 18.484C2.7774 27.3537 -3.73793 42.6755 -3.73793 60.185C-3.73793 74.0496 0.353711 86.5612 6.91735 95.5808C13.4817 104.601 22.4609 110.067 32.2785 110.067C42.0964 110.067 51.0755 104.604 57.6398 95.5856C64.2033 86.5679 68.295 74.0563 68.295 60.185C68.295 42.4001 61.5701 26.8734 51.5546 18.0582L51.1948 17.7415V14.2543L50.0828 11.9219L48.3592 15.549L47.3439 14.8912C46.4395 14.3053 45.504 13.7793 44.5463 13.2876L43.9703 12.9918V10.1185L42.8596 7.78864L41.7433 10.1437V12.0394L40.356 11.59C39.4542 11.2979 38.5245 11.0558 37.5928 10.8643L36.7458 10.6903V5.99585L35.6352 3.66635L34.532 5.99452V9.26882H32.4111V5.51745L35.6294 -1.27448L38.8667 5.51613V8.97404C39.1899 9.05056 39.5124 9.13286 39.8335 9.22096L42.854 2.84845L46.0912 9.63874V11.7021C46.5534 11.9485 47.014 12.2056 47.4711 12.4762L50.0797 6.98691L53.3157 13.7746V16.7867C63.6703 26.1274 70.4159 42.122 70.4159 60.185C70.4159 74.4561 66.2094 87.4158 59.3546 96.8338C52.5005 106.251 42.9411 112.188 32.2785 112.188C21.6157 112.188 12.0564 106.247 5.20242 96.8287C-1.6523 87.4092 -5.85889 74.4495 -5.85889 60.185C-5.85889 42.3983 0.678428 26.6197 10.7508 17.2346V13.8024L13.9825 6.98431L16.7077 12.7005C17.126 12.4452 17.5482 12.1995 17.9753 11.9634V9.6672L21.1922 2.85846L24.2827 9.34105C24.5823 9.25369 24.8838 9.17096 25.1866 9.09365V5.53064L28.4183 -1.28741Z" fill="#FCFCFC"/>
</g>
</g>
<path d="M46.9637 14.9701C47.4815 14.9701 47.8733 15.1772 48.1391 15.5915C48.4084 16.0023 48.543 16.5839 48.543 17.3365C48.543 18.089 48.4136 18.6759 48.1546 19.097C47.8957 19.5147 47.4988 19.7236 46.9637 19.7236C46.4666 19.7236 46.0851 19.5147 45.8193 19.097C45.557 18.6759 45.4258 18.089 45.4258 17.3365C45.4258 16.5839 45.5518 16.0023 45.8038 15.5915C46.0558 15.1772 46.4424 14.9701 46.9637 14.9701ZM46.9637 15.5863C46.6841 15.5863 46.4787 15.733 46.3475 16.0264C46.2163 16.3164 46.1507 16.7531 46.1507 17.3365C46.1507 17.9199 46.2163 18.36 46.3475 18.6569C46.4787 18.9538 46.6841 19.1022 46.9637 19.1022C47.2537 19.1022 47.4694 18.9538 47.6109 18.6569C47.7525 18.36 47.8232 17.9199 47.8232 17.3365C47.8232 16.7565 47.7525 16.3199 47.6109 16.0264C47.4729 15.733 47.2571 15.5863 46.9637 15.5863ZM51.7586 15.0788L47.5592 22.6492H46.8032L51.0026 15.0788H51.7586ZM51.5567 18.0045C52.071 18.0045 52.4628 18.2116 52.7321 18.6258C53.0014 19.0366 53.136 19.6183 53.136 20.3709C53.136 21.12 53.0065 21.7051 52.7476 22.1262C52.4887 22.5439 52.0917 22.7528 51.5567 22.7528C51.0561 22.7528 50.6747 22.5439 50.4123 22.1262C50.1499 21.7051 50.0188 21.12 50.0188 20.3709C50.0188 19.6183 50.143 19.0366 50.3916 18.6258C50.6436 18.2116 51.0319 18.0045 51.5567 18.0045ZM51.5567 18.6258C51.277 18.6258 51.0716 18.7708 50.9405 19.0608C50.8093 19.3508 50.7437 19.7875 50.7437 20.3709C50.7437 20.9543 50.8093 21.3944 50.9405 21.6913C51.0716 21.9847 51.277 22.1314 51.5567 22.1314C51.8466 22.1314 52.0624 21.9864 52.2039 21.6965C52.3455 21.403 52.4162 20.9612 52.4162 20.3709C52.4162 19.7909 52.3455 19.356 52.2039 19.066C52.0658 18.7726 51.8501 18.6258 51.5567 18.6258Z" fill="#FCFCFC"/>
<path d="M44.354 18.8537C44.354 19.4681 44.3074 20.017 44.2142 20.5003C44.121 20.9836 43.9743 21.3927 43.7741 21.7275C43.5738 22.0624 43.3149 22.3178 42.9973 22.4939C42.6797 22.6665 42.2983 22.7528 41.853 22.7528C41.2903 22.7528 40.8243 22.5992 40.4549 22.2919C40.089 21.9847 39.8145 21.5411 39.6316 20.9611C39.4521 20.3777 39.3623 19.6753 39.3623 18.8537C39.3623 18.0459 39.4434 17.352 39.6057 16.7721C39.7714 16.1887 40.0372 15.7416 40.4031 15.4309C40.769 15.1168 41.2523 14.9597 41.853 14.9597C42.4226 14.9597 42.8921 15.1151 43.2614 15.4257C43.6308 15.733 43.9052 16.1783 44.0847 16.7617C44.2642 17.3416 44.354 18.039 44.354 18.8537ZM40.227 18.8537C40.227 19.5579 40.2806 20.1447 40.3876 20.6142C40.4946 21.0837 40.6672 21.4358 40.9054 21.6705C41.147 21.9018 41.4629 22.0175 41.853 22.0175C42.2431 22.0175 42.5572 21.9018 42.7954 21.6705C43.037 21.4393 43.2114 21.0889 43.3184 20.6194C43.4288 20.1499 43.4841 19.5613 43.4841 18.8537C43.4841 18.1598 43.4306 17.5798 43.3236 17.1138C43.2165 16.6443 43.0439 16.2922 42.8057 16.0575C42.5676 15.8193 42.25 15.7002 41.853 15.7002C41.456 15.7002 41.1384 15.8193 40.9002 16.0575C40.662 16.2922 40.4894 16.6443 40.3824 17.1138C40.2788 17.5798 40.227 18.1598 40.227 18.8537Z" fill="#FCFCFC"/>
<path d="M35.6756 18.02C36.19 18.02 36.637 18.108 37.0167 18.284C37.3965 18.4567 37.6899 18.7087 37.897 19.0401C38.1076 19.3715 38.2129 19.7736 38.2129 20.2466C38.2129 20.7644 38.1007 21.2114 37.8763 21.5877C37.6519 21.9605 37.3292 22.2488 36.908 22.4524C36.4869 22.6526 35.9828 22.7528 35.396 22.7528C35.0025 22.7528 34.6365 22.7182 34.2982 22.6492C33.9599 22.5802 33.6751 22.4766 33.4438 22.3385V21.5204C33.6958 21.6723 34.0014 21.7931 34.3604 21.8828C34.7194 21.9726 35.068 22.0175 35.4064 22.0175C35.7895 22.0175 36.1244 21.9571 36.4109 21.8362C36.7009 21.712 36.9253 21.5255 37.0841 21.277C37.2463 21.025 37.3274 20.7091 37.3274 20.3294C37.3274 19.8254 37.1721 19.437 36.8614 19.1643C36.5542 18.8882 36.0674 18.7501 35.4012 18.7501C35.1871 18.7501 34.9524 18.7673 34.697 18.8019C34.4415 18.8364 34.2309 18.8744 34.0652 18.9158L33.6303 18.631L33.9202 15.0788H37.6847V15.8659H34.6555L34.4639 18.1494C34.5951 18.1218 34.7643 18.0942 34.9714 18.0666C35.1785 18.0355 35.4133 18.02 35.6756 18.02Z" fill="#FCFCFC"/>
</g>
<defs>
<clipPath id="clip0_6399_13615">
<rect width="64" height="34" fill="white"/>
</clipPath>
</defs>
</svg>
