<svg width="25" height="24" viewBox="0 0 25 24" fill="none" xmlns="http://www.w3.org/2000/svg">
<g id="Component 1">
<path id="Vector (Stroke)" fill-rule="evenodd" clip-rule="evenodd" d="M8.625 1.25C9.03921 1.25 9.375 1.58579 9.375 2V2.75H15.875V2C15.875 1.58579 16.2108 1.25 16.625 1.25C17.0392 1.25 17.375 1.58579 17.375 2V2.78025C18.9109 2.90808 20.1288 3.44034 20.9871 4.36466C21.9714 5.42465 22.375 6.88503 22.375 8.5V17C22.375 18.615 21.9714 20.0754 20.9871 21.1353C19.9935 22.2054 18.518 22.75 16.625 22.75H8.625C6.73205 22.75 5.25652 22.2054 4.2629 21.1353C3.27863 20.0754 2.875 18.615 2.875 17V8.5C2.875 6.88503 3.27863 5.42465 4.2629 4.36466C5.1212 3.44034 6.33909 2.90808 7.875 2.78025V2C7.875 1.58579 8.21079 1.25 8.625 1.25ZM7.875 4.28628C6.69002 4.40668 5.88912 4.81778 5.3621 5.38534C4.74628 6.04852 4.40238 7.03465 4.37657 8.34H20.8734C20.8476 7.03465 20.5037 6.04852 19.8879 5.38534C19.3609 4.81778 18.56 4.40668 17.375 4.28628V5C17.375 5.41421 17.0392 5.75 16.625 5.75C16.2108 5.75 15.875 5.41421 15.875 5V4.25H9.375V5C9.375 5.41421 9.03921 5.75 8.625 5.75C8.21079 5.75 7.875 5.41421 7.875 5V4.28628ZM20.875 9.84H4.375V17C4.375 18.385 4.72137 19.4246 5.3621 20.1147C5.99348 20.7946 7.01795 21.25 8.625 21.25H16.625C18.232 21.25 19.2565 20.7946 19.8879 20.1147C20.5286 19.4246 20.875 18.385 20.875 17V9.84Z" fill="black"/>
<path id="Vector (Stroke)_2" fill-rule="evenodd" clip-rule="evenodd" d="M7.91895 13.7002C7.91895 13.1479 8.36666 12.7002 8.91895 12.7002H8.92895C9.48123 12.7002 9.92895 13.1479 9.92895 13.7002C9.92895 14.2525 9.48123 14.7002 8.92895 14.7002H8.91895C8.36666 14.7002 7.91895 14.2525 7.91895 13.7002ZM11.6199 13.7002C11.6199 13.1479 12.0677 12.7002 12.6199 12.7002H12.6299C13.1822 12.7002 13.6299 13.1479 13.6299 13.7002C13.6299 14.2525 13.1822 14.7002 12.6299 14.7002H12.6199C12.0677 14.7002 11.6199 14.2525 11.6199 13.7002ZM15.3199 13.7002C15.3199 13.1479 15.7677 12.7002 16.3199 12.7002H16.3289C16.8812 12.7002 17.3289 13.1479 17.3289 13.7002C17.3289 14.2525 16.8812 14.7002 16.3289 14.7002H16.3199C15.7677 14.7002 15.3199 14.2525 15.3199 13.7002ZM7.91895 16.7002C7.91895 16.1479 8.36666 15.7002 8.91895 15.7002H8.92895C9.48123 15.7002 9.92895 16.1479 9.92895 16.7002C9.92895 17.2525 9.48123 17.7002 8.92895 17.7002H8.91895C8.36666 17.7002 7.91895 17.2525 7.91895 16.7002ZM11.6199 16.7002C11.6199 16.1479 12.0677 15.7002 12.6199 15.7002H12.6299C13.1822 15.7002 13.6299 16.1479 13.6299 16.7002C13.6299 17.2525 13.1822 17.7002 12.6299 17.7002H12.6199C12.0677 17.7002 11.6199 17.2525 11.6199 16.7002ZM15.3199 16.7002C15.3199 16.1479 15.7677 15.7002 16.3199 15.7002H16.3289C16.8812 15.7002 17.3289 16.1479 17.3289 16.7002C17.3289 17.2525 16.8812 17.7002 16.3289 17.7002H16.3199C15.7677 17.7002 15.3199 17.2525 15.3199 16.7002Z" fill="black"/>
</g>
</svg>
