<?xml version="1.0" encoding="UTF-8"?>
<svg height="600" width="800" xmlns="http://www.w3.org/2000/svg" xmlns:xlink="http://www.w3.org/1999/xlink">
    <g id="Notes" font-family="'LucidaGrande', 'Lucida Grande', sans-serif" font-size="13">
        <rect fill="white" height="600.0" width="800.0" x="0.0" y="0.0" />
        <g font-size="13">
            <text x="18.0" y="176.0">Small</text>
            <text x="18.0" y="376.0">Medium</text>
            <text x="18.0" y="576.0">Large</text>
        </g>
        <g font-size="9">
            <text x="250.0" y="30.0">Ultralight</text>
            <text x="450.0" y="30.0">Regular</text>
            <text x="650.0" y="30.0">Black</text>
            <text id="template-version" fill="#505050" text-anchor="end" x="785.0" y="575.0">Template v.3.0</text>
            <a href="https://github.com/swhitty/SwiftDraw">
                <text fill="#505050" text-anchor="end" x="785.0" y="590.0">https://github.com/swhitty/SwiftDraw</text>
            </a>
        </g>
    </g>
    <g id="Guides" stroke="rgb(39, 170, 225)" stroke-width="0.5">
        <path id="Capline-S" d="M18,76 l800,0" />
        <path id="H-reference" d="M85,145.755 L87.685,145.755 L113.369,79.287 L114.052,79.287 L114.052,76 L112.148,76 L85,145.755 Z M95.693,121.536 L130.996,121.536 L130.263,119.313 L96.474,119.313 L95.693,121.536 Z M139.15,145.755 L141.787,145.755 L114.638,76 L113.466,76 L113.466,79.287 L139.15,145.755 Z" stroke="none" />
        <path id="Baseline-S" d="M18,146 l800,0" />
        <path id="left-margin-Ultralight-S" d="M220,56 l0,110" />
        <path id="right-margin-Ultralight-S" d="M310,56 l0,110" />
        <path id="left-margin-Regular-S" d="M420,56 l0,110" />
        <path id="right-margin-Regular-S" d="M510,56 l0,110" />
        <path id="left-margin-Black-S" d="M620,56 l0,110" />
        <path id="right-margin-Black-S" d="M710,56 l0,110" />
        <path id="Capline-M" d="M18,276 l800,0" />
        <path id="Baseline-M" d="M18,346 l800,0" />
        <path id="Capline-L" d="M18,476 l800,0" />
        <path id="Baseline-L" d="M18,546 l800,0" />
    </g>
    <g id="Symbols">
        <g id="Ultralight-S">
            <path d="M263.6,83.56 C263.6,82.478 264.478,81.6 265.56,81.6 L295.24,81.6 C296.322,81.6 297.2,82.478 297.2,83.56 L297.2,144.04 C297.2,145.122 296.322,146 295.24,146 L265.56,146 C264.478,146 263.6,145.122 263.6,144.04 L263.6,83.56 Z M266.4,84.4 L266.4,143.2 L294.4,143.2 L294.4,84.4 L266.4,84.4 Z" />
            <path d="M232.8,83.56 C232.8,82.478 233.678,81.6 234.76,81.6 L264.44,81.6 C265.522,81.6 266.4,82.478 266.4,83.56 L266.4,144.04 C266.4,145.122 265.522,146 264.44,146 L234.76,146 C233.678,146 232.8,145.122 232.8,144.04 L232.8,83.56 Z M235.6,84.4 L235.6,143.2 L263.6,143.2 L263.6,84.4 L235.6,84.4 Z" />
            <path d="M230,77.4 C230,76.627 230.627,76 231.4,76 L298.6,76 C299.373,76 300,76.627 300,77.4 L300,83 C300,83.773 299.373,84.4 298.6,84.4 L231.4,84.4 C230.627,84.4 230,83.773 230,83 L230,77.4 Z M232.8,78.8 L232.8,81.6 L297.2,81.6 L297.2,78.8 L232.8,78.8 Z" />
            <path d="M244.56,115.2 C245.333,115.2 245.96,115.827 245.96,116.6 L245.96,144.6 C245.96,145.373 245.333,146 244.56,146 C243.787,146 243.16,145.373 243.16,144.6 L243.16,116.6 C243.16,115.827 243.787,115.2 244.56,115.2 Z" />
            <path d="M254.64,115.2 C255.413,115.2 256.04,115.827 256.04,116.6 L256.04,144.6 C256.04,145.373 255.413,146 254.64,146 C253.867,146 253.24,145.373 253.24,144.6 L253.24,116.6 C253.24,115.827 253.867,115.2 254.64,115.2 Z" />
            <path d="M275.36,115.2 C276.133,115.2 276.76,115.827 276.76,116.6 L276.76,144.6 C276.76,145.373 276.133,146 275.36,146 C274.587,146 273.96,145.373 273.96,144.6 L273.96,116.6 C273.96,115.827 274.587,115.2 275.36,115.2 Z" />
            <path d="M285.44,115.2 C286.213,115.2 286.84,115.827 286.84,116.6 L286.84,144.6 C286.84,145.373 286.213,146 285.44,146 C284.667,146 284.04,145.373 284.04,144.6 L284.04,116.6 C284.04,115.827 284.667,115.2 285.44,115.2 Z" />
        </g>
        <g id="Regular-S">
            <path d="M463.6,83.56 C463.6,82.478 464.478,81.6 465.56,81.6 L495.24,81.6 C496.322,81.6 497.2,82.478 497.2,83.56 L497.2,144.04 C497.2,145.122 496.322,146 495.24,146 L465.56,146 C464.478,146 463.6,145.122 463.6,144.04 L463.6,83.56 Z M466.4,84.4 L466.4,143.2 L494.4,143.2 L494.4,84.4 L466.4,84.4 Z" />
            <path d="M432.8,83.56 C432.8,82.478 433.678,81.6 434.76,81.6 L464.44,81.6 C465.522,81.6 466.4,82.478 466.4,83.56 L466.4,144.04 C466.4,145.122 465.522,146 464.44,146 L434.76,146 C433.678,146 432.8,145.122 432.8,144.04 L432.8,83.56 Z M435.6,84.4 L435.6,143.2 L463.6,143.2 L463.6,84.4 L435.6,84.4 Z" />
            <path d="M430,77.4 C430,76.627 430.627,76 431.4,76 L498.6,76 C499.373,76 500,76.627 500,77.4 L500,83 C500,83.773 499.373,84.4 498.6,84.4 L431.4,84.4 C430.627,84.4 430,83.773 430,83 L430,77.4 Z M432.8,78.8 L432.8,81.6 L497.2,81.6 L497.2,78.8 L432.8,78.8 Z" />
            <path d="M444.56,115.2 C445.333,115.2 445.96,115.827 445.96,116.6 L445.96,144.6 C445.96,145.373 445.333,146 444.56,146 C443.787,146 443.16,145.373 443.16,144.6 L443.16,116.6 C443.16,115.827 443.787,115.2 444.56,115.2 Z" />
            <path d="M454.64,115.2 C455.413,115.2 456.04,115.827 456.04,116.6 L456.04,144.6 C456.04,145.373 455.413,146 454.64,146 C453.867,146 453.24,145.373 453.24,144.6 L453.24,116.6 C453.24,115.827 453.867,115.2 454.64,115.2 Z" />
            <path d="M475.36,115.2 C476.133,115.2 476.76,115.827 476.76,116.6 L476.76,144.6 C476.76,145.373 476.133,146 475.36,146 C474.587,146 473.96,145.373 473.96,144.6 L473.96,116.6 C473.96,115.827 474.587,115.2 475.36,115.2 Z" />
            <path d="M485.44,115.2 C486.213,115.2 486.84,115.827 486.84,116.6 L486.84,144.6 C486.84,145.373 486.213,146 485.44,146 C484.667,146 484.04,145.373 484.04,144.6 L484.04,116.6 C484.04,115.827 484.667,115.2 485.44,115.2 Z" />
        </g>
        <g id="Black-S">
            <path d="M663.6,83.56 C663.6,82.478 664.477,81.6 665.56,81.6 L695.24,81.6 C696.322,81.6 697.2,82.478 697.2,83.56 L697.2,144.04 C697.2,145.122 696.322,146 695.24,146 L665.56,146 C664.477,146 663.6,145.122 663.6,144.04 L663.6,83.56 Z M666.4,84.4 L666.4,143.2 L694.4,143.2 L694.4,84.4 L666.4,84.4 Z" />
            <path d="M632.8,83.56 C632.8,82.478 633.677,81.6 634.76,81.6 L664.44,81.6 C665.522,81.6 666.4,82.478 666.4,83.56 L666.4,144.04 C666.4,145.122 665.522,146 664.44,146 L634.76,146 C633.677,146 632.8,145.122 632.8,144.04 L632.8,83.56 Z M635.6,84.4 L635.6,143.2 L663.6,143.2 L663.6,84.4 L635.6,84.4 Z" />
            <path d="M630,77.4 C630,76.627 630.627,76 631.4,76 L698.6,76 C699.373,76 700,76.627 700,77.4 L700,83 C700,83.773 699.373,84.4 698.6,84.4 L631.4,84.4 C630.627,84.4 630,83.773 630,83 L630,77.4 Z M632.8,78.8 L632.8,81.6 L697.2,81.6 L697.2,78.8 L632.8,78.8 Z" />
            <path d="M644.56,115.2 C645.333,115.2 645.96,115.827 645.96,116.6 L645.96,144.6 C645.96,145.373 645.333,146 644.56,146 C643.787,146 643.16,145.373 643.16,144.6 L643.16,116.6 C643.16,115.827 643.787,115.2 644.56,115.2 Z" />
            <path d="M654.64,115.2 C655.413,115.2 656.04,115.827 656.04,116.6 L656.04,144.6 C656.04,145.373 655.413,146 654.64,146 C653.867,146 653.24,145.373 653.24,144.6 L653.24,116.6 C653.24,115.827 653.867,115.2 654.64,115.2 Z" />
            <path d="M675.36,115.2 C676.133,115.2 676.76,115.827 676.76,116.6 L676.76,144.6 C676.76,145.373 676.133,146 675.36,146 C674.587,146 673.96,145.373 673.96,144.6 L673.96,116.6 C673.96,115.827 674.587,115.2 675.36,115.2 Z" />
            <path d="M685.44,115.2 C686.213,115.2 686.84,115.827 686.84,116.6 L686.84,144.6 C686.84,145.373 686.213,146 685.44,146 C684.667,146 684.04,145.373 684.04,144.6 L684.04,116.6 C684.04,115.827 684.667,115.2 685.44,115.2 Z" />
        </g>
    </g>
</svg>