<svg width="64" height="64" viewBox="0 0 64 64" fill="none" xmlns="http://www.w3.org/2000/svg">
<path d="M16.3394 50.3939C19.1062 50.3939 21.3491 48.8384 21.3491 46.9196C21.3491 45.0009 19.1062 43.4454 16.3394 43.4454C13.5725 43.4454 11.3296 45.0009 11.3296 46.9196C11.3296 48.8384 13.5725 50.3939 16.3394 50.3939Z" fill="#FFE836"/>
<path d="M47.6231 50.3939C50.3899 50.3939 52.6328 48.8384 52.6328 46.9196C52.6328 45.0009 50.3899 43.4454 47.6231 43.4454C44.8562 43.4454 42.6133 45.0009 42.6133 46.9196C42.6133 48.8384 44.8562 50.3939 47.6231 50.3939Z" fill="#FFE836"/>
<path d="M50.1049 60.2581C49.107 60.2581 48.1091 60.2581 47.0953 60.2581C46.24 60.2581 45.6381 59.7037 45.5747 58.8642C45.543 58.3573 45.543 58.3415 45.0362 58.3098C44.355 58.2465 43.6581 58.1989 42.9611 58.1673C41.4564 58.1039 39.9674 58.0722 38.4627 58.0247C34.4077 57.9138 30.3527 57.9297 26.2819 57.9772C23.6208 58.0089 20.9598 58.0881 18.2987 58.3098C18.0294 58.3257 17.9185 58.4207 17.9344 58.7058C17.966 59.6404 17.1899 60.3056 16.3029 60.274C14.3387 60.2264 12.3746 60.2264 10.4263 60.274C9.57098 60.2898 8.88987 59.482 8.90571 58.7692C8.92155 57.4228 8.96907 56.0922 8.85819 54.7459C8.73147 53.2569 8.62059 51.7521 8.49388 50.2632C8.383 48.7901 8.383 47.3329 8.50972 45.8598C8.58891 45.0519 8.66811 44.2441 8.90571 43.468C9.25418 42.3592 9.72937 41.3138 10.6639 40.5693C10.854 40.4109 10.7748 40.3475 10.6006 40.2683C9.95113 39.9832 9.31754 39.6664 8.88987 39.0804C8.28796 38.2409 8.31964 37.7023 9.33338 37.1479C10.062 36.7361 10.8857 36.641 11.7093 36.5302C12.1845 36.4668 12.6597 36.451 13.1349 36.4034C13.42 36.3718 13.6259 36.4668 13.8002 36.7044C13.9586 36.9103 14.117 37.1004 14.2754 37.3063C14.4021 37.4964 14.4971 37.4806 14.5763 37.2588C14.744 36.7911 14.9264 36.3332 15.1208 35.8825C15.2754 35.5241 15.8468 35.6662 16.192 35.6662C16.984 35.6662 16.984 35.6662 17.4116 35.6662C18.0928 35.6662 22.1765 35.6662 22.9637 35.6662C24.0974 35.6662 24.6013 35.6662 26.963 35.6662C28.6321 35.6662 30.3686 35.6662 32.0318 35.6662C35.7858 35.6662 36.4669 35.6662 39.465 35.6662C40.902 35.6662 44.07 35.6662 46.2875 35.6662C47.2379 35.6662 47.6211 35.6662 48.4095 35.8825C48.5797 36.2855 48.7433 36.6916 48.9011 37.1004C48.9327 37.1638 48.9486 37.243 48.9802 37.3063C49.0436 37.4806 49.1386 37.4806 49.2495 37.338C49.4238 37.1162 49.598 36.8786 49.7722 36.6569C49.8831 36.5143 50.0098 36.4193 50.1999 36.4193C51.5146 36.4826 52.8135 36.5777 54.049 37.0846C54.1123 37.1162 54.1598 37.1321 54.2232 37.1638C55.0627 37.6073 55.2369 38.2567 54.6826 39.0328C54.2549 39.6348 53.6213 39.9832 52.9719 40.2683C52.6392 40.4109 52.6392 40.4109 52.8927 40.6327C54.0331 41.6147 54.54 42.9294 54.7934 44.3708C55.1261 46.2558 55.1261 48.1565 55.0152 50.0731C54.8568 52.956 54.445 55.823 54.5875 58.7217C54.6192 59.3077 54.3816 59.7512 53.9064 60.0839C53.7005 60.2264 53.4787 60.3056 53.2253 60.3056C52.1957 60.2423 51.1503 60.2423 50.1049 60.2581C50.1049 60.2423 50.1049 60.2423 50.1049 60.2581ZM29.8602 35.6662C29.073 35.6662 28.6951 35.6662 27.9078 35.6662C27.278 35.6662 27.152 35.6662 26.3611 35.6662C24.4287 35.6662 23.7951 35.6662 21.8943 35.6662C21.2607 35.6662 21.2449 35.6662 20.643 35.6662C19.5942 35.6662 18.9959 35.6662 17.8695 35.6662C17.5518 36.3439 17.257 37.0329 16.984 37.734C16.8731 38.0191 16.9048 38.0508 17.2057 38.0191C18.3462 37.8765 19.4867 37.7973 20.643 37.7498C22.5437 37.6706 24.4445 37.5756 26.3611 37.5598C29.8458 37.5281 33.3306 37.4964 36.8153 37.5914C38.6527 37.639 40.506 37.6548 42.3434 37.734C43.6581 37.7973 44.9728 37.8765 46.2875 38.0191C46.6201 38.0508 46.6676 38.0191 46.5409 37.7182C46.3018 37.0951 46.0376 36.4845 45.7564 35.8825C44.472 35.6662 43.4364 35.6662 41.9842 35.6662C40.7561 35.6662 39.4335 35.6662 37.7341 35.6662C34.5661 35.6662 33.6459 35.6662 29.8602 35.6662ZM16.1603 49.5504C16.8573 49.5346 17.5542 49.5663 18.2353 49.5346C19.1699 49.4871 19.5817 48.8376 19.2807 47.9664C18.9639 47.0794 18.3145 46.5726 17.4116 46.4142C15.9544 46.1607 14.4813 45.9548 13.0082 45.8281C12.0261 45.7489 11.5351 46.3983 11.7885 47.3329C11.8677 47.618 11.9945 47.8714 12.1053 48.1407C12.533 49.0752 13.2616 49.5346 14.2754 49.5504C14.8931 49.5663 15.5267 49.5504 16.1603 49.5504ZM47.3804 49.5663C47.3804 49.5504 47.3804 49.5504 47.3804 49.5663C47.9348 49.5663 48.4892 49.5663 49.0436 49.5663C49.2337 49.5663 49.4238 49.5504 49.6138 49.5346C50.9602 49.392 51.6255 48.109 51.768 47.0477C51.8789 46.2874 51.5304 45.9073 50.7701 45.8281C50.6276 45.8122 50.4692 45.8281 50.3266 45.8439C49.8514 45.8914 49.3762 45.939 48.9011 46.0023C47.919 46.1449 46.9211 46.2082 45.9707 46.4458C45.1154 46.6518 44.5451 47.1745 44.26 48.014C44.0066 48.7901 44.355 49.392 45.1629 49.5346C45.3529 49.5663 45.543 49.5663 45.7331 49.5821C46.2717 49.5663 46.826 49.5663 47.3804 49.5663ZM46.5409 51.2928C45.8123 51.2928 45.0678 51.2928 44.3392 51.2928C44.1175 51.2928 43.8957 51.3245 43.6898 51.4512C43.2304 51.7363 43.2463 52.3065 43.7056 52.56C43.8957 52.6709 44.1174 52.7342 44.355 52.7342C45.8123 52.7342 47.2696 52.7501 48.7268 52.7342C49.0278 52.7342 49.3129 52.655 49.5505 52.4491C49.8831 52.1481 49.8673 51.768 49.4871 51.5145C49.2654 51.372 49.0278 51.2928 48.7585 51.2928C48.0299 51.2928 47.2854 51.2928 46.5409 51.2928ZM16.9681 51.277C16.2712 51.277 15.5901 51.277 14.8931 51.277C14.6714 51.277 14.4496 51.2928 14.2437 51.4037C13.9903 51.5146 13.8319 51.7046 13.816 51.9897C13.8002 52.2907 13.9744 52.4649 14.212 52.5917C14.4179 52.6867 14.6397 52.7501 14.8615 52.7501C16.287 52.7501 17.7126 52.7501 19.1382 52.7501C19.4391 52.7501 19.7084 52.655 19.946 52.4966C20.3262 52.2273 20.3262 51.8155 19.946 51.5462C19.6767 51.3562 19.3599 51.2928 19.0431 51.2928C18.362 51.277 17.6651 51.277 16.9681 51.277Z" fill="#282828"/>
<path d="M31.9996 3.6944C32.0788 3.71024 32.1421 3.74192 32.2213 3.75776C38.478 5.67436 44.7189 7.59097 50.9756 9.49174C55.189 10.7748 59.4023 12.0736 63.6315 13.3566C64.0434 13.4834 64.0434 13.4834 63.9483 13.911C63.7266 14.8456 63.5048 15.7801 63.2989 16.7147C63.2355 16.9998 63.1247 17.0473 62.8554 16.9523C56.1393 14.8931 49.4233 12.8339 42.6914 10.7748C39.2225 9.7135 35.7694 8.66808 32.3005 7.60681C32.0788 7.54345 31.8887 7.54345 31.6828 7.60681C27.3902 8.92151 23.0818 10.2362 18.7892 11.5509C12.8968 13.3566 7.0203 15.1465 1.12792 16.9523C0.890322 17.0315 0.763604 16.9998 0.700245 16.7305C0.478489 15.7484 0.256732 14.7822 0.0191364 13.8002C-0.0442226 13.5309 0.0508154 13.4517 0.288411 13.3725C2.61685 12.6755 4.92945 11.9627 7.2579 11.25C11.8356 9.85606 16.3974 8.46216 20.9751 7.05242C24.5866 5.94364 28.1822 4.8507 31.7937 3.74192C31.857 3.74192 31.9362 3.71024 31.9996 3.6944Z" fill="#282828"/>
<path fill-rule="evenodd" clip-rule="evenodd" d="M32.9312 27.8811H31.6966C21.7068 27.8811 11.7169 27.8811 1.72702 27.8658C1.48767 27.8658 1.36932 27.8658 1.3108 27.925C1.25357 27.9829 1.25357 28.0974 1.25357 28.3238V36.1544C1.25357 36.4721 1.23807 36.6173 1.30305 36.6831C1.36922 36.75 1.51884 36.7345 1.85328 36.7345H61.4768C61.5026 36.7345 61.53 36.7329 61.558 36.7312C61.6159 36.7278 61.6762 36.7242 61.7294 36.7345C61.9819 36.7498 62.0766 36.6582 62.0766 36.3987C62.066 35.8593 62.0695 35.32 62.073 34.7806C62.0748 34.511 62.0766 34.2413 62.0766 33.9716C62.0766 33.3356 62.0748 32.6996 62.073 32.0636C62.0695 30.7915 62.066 29.5195 62.0766 28.2475C62.0766 27.9574 61.9819 27.8506 61.6978 27.8811C61.6352 27.8912 61.5657 27.8879 61.4938 27.8846C61.457 27.8829 61.4196 27.8811 61.3822 27.8811H58.2748V29.4533H60.0565C60.3721 29.4533 60.4352 29.5602 60.4352 29.8502V34.7501C60.4352 34.9438 60.4352 35.043 60.3857 35.0938C60.3337 35.147 60.2272 35.147 60.0091 35.147H31.6335H3.38411C3.1341 35.147 3.01185 35.147 2.95207 35.0859C2.89487 35.0274 2.89487 34.913 2.89487 34.689C2.89487 34.1491 2.89663 33.6109 2.89839 33.0733C2.90189 31.9997 2.90539 30.9283 2.89487 29.8502C2.87909 29.5602 2.958 29.4533 3.27364 29.4533H32.9312V27.8811Z" fill="#282828"/>
<path fill-rule="evenodd" clip-rule="evenodd" d="M61.604 17.8235H31.8094C21.7829 17.8235 11.7563 17.8235 1.72974 17.8076C1.49215 17.8076 1.37335 17.8076 1.31395 17.867C1.25455 17.9264 1.25455 18.0452 1.25455 18.2828V26.4086C1.25455 26.7412 1.23871 26.8917 1.30603 26.959C1.37335 27.0263 1.52383 27.0105 1.85646 27.0105H32.9312V25.3632H31.7461H3.39292C3.14472 25.3632 3.02197 25.3632 2.96127 25.3018C2.90188 25.2418 2.90188 25.123 2.90188 24.888C2.90188 24.3277 2.90365 23.7692 2.90541 23.2113C2.90893 22.0973 2.91244 20.9855 2.90188 19.8668C2.88604 19.5658 2.96524 19.4549 3.28204 19.4549H60.2734C60.5902 19.4549 60.6536 19.5658 60.6536 19.8668V24.9513C60.6536 25.1547 60.6536 25.2576 60.6021 25.3097C60.5493 25.3632 60.4424 25.3632 60.2259 25.3632H58.2748V27.0105H61.699C61.7248 27.0105 61.7524 27.0088 61.7805 27.0071C61.8385 27.0035 61.8991 26.9998 61.9524 27.0105C62.2059 27.0263 62.3009 26.9313 62.3009 26.662C62.2904 26.1024 62.2939 25.5427 62.2974 24.983C62.2992 24.7032 62.3009 24.4233 62.3009 24.1435C62.3009 23.4835 62.2992 22.8235 62.2974 22.1635C62.2939 20.8436 62.2904 19.5236 62.3009 18.2036C62.3009 17.9027 62.2059 17.7918 61.9208 17.8235C61.8579 17.8339 61.7882 17.8306 61.716 17.8271C61.6791 17.8253 61.6415 17.8235 61.604 17.8235Z" fill="#282828"/>
<path d="M5.51544 48.7659C5.51544 52.4826 5.51544 56.1993 5.51544 59.916C5.51544 60.255 5.51544 60.255 5.04025 60.255C4.24827 60.255 3.44044 60.2437 2.64845 60.255C2.3475 60.255 2.2683 60.1872 2.2683 59.9838C2.28414 58.1198 2.2683 56.2445 2.2683 54.3805C2.2683 48.8224 2.2683 43.253 2.2683 37.6949C2.2683 37.6158 2.2683 37.5254 2.2683 37.4463C2.25246 37.2995 2.3475 37.243 2.55341 37.243C3.44044 37.243 4.34331 37.243 5.23033 37.243C5.43625 37.243 5.51544 37.2995 5.51544 37.4463C5.51544 37.5254 5.51544 37.5932 5.51544 37.6723C5.51544 41.3664 5.51544 45.0718 5.51544 48.7659Z" fill="#282828"/>
<path d="M58.1511 48.7616C58.1511 45.0314 58.1511 41.3124 58.1511 37.5821C58.1511 37.243 58.1511 37.243 58.6263 37.243C59.4183 37.243 60.2261 37.2543 61.0181 37.243C61.3191 37.243 61.3983 37.3108 61.3983 37.5143C61.3824 39.0177 61.3983 40.5211 61.3983 42.0358C61.3983 47.9704 61.3983 53.8936 61.3983 59.8281C61.3983 59.9073 61.3983 59.9977 61.3983 60.0768C61.4141 60.2238 61.3349 60.2803 61.1131 60.2803C60.2261 60.2803 59.3233 60.2803 58.4362 60.2803C58.2303 60.2803 58.1353 60.2238 58.1511 60.0768C58.1511 59.9977 58.1511 59.9299 58.1511 59.8508C58.1511 56.1544 58.1511 52.458 58.1511 48.7616Z" fill="#282828"/>
<path d="M50.1824 22.4223C50.8011 22.4223 51.2693 22.6698 51.5869 23.1648C51.9087 23.6556 52.0695 24.3507 52.0695 25.2499C52.0695 26.1491 51.9149 26.8504 51.6055 27.3536C51.2961 27.8527 50.8217 28.1023 50.1824 28.1023C49.5884 28.1023 49.1326 27.8527 48.815 27.3536C48.5015 26.8504 48.3447 26.1491 48.3447 25.2499C48.3447 24.3507 48.4953 23.6556 48.7964 23.1648C49.0975 22.6698 49.5595 22.4223 50.1824 22.4223ZM50.1824 23.1586C49.8483 23.1586 49.6028 23.3339 49.4461 23.6845C49.2893 24.031 49.211 24.5528 49.211 25.2499C49.211 25.947 49.2893 26.473 49.4461 26.8277C49.6028 27.1824 49.8483 27.3598 50.1824 27.3598C50.5289 27.3598 50.7867 27.1824 50.9558 26.8277C51.1249 26.473 51.2095 25.947 51.2095 25.2499C51.2095 24.5569 51.1249 24.0351 50.9558 23.6845C50.7908 23.3339 50.533 23.1586 50.1824 23.1586ZM55.9119 22.5522L50.8939 31.5982H49.9906L55.0086 22.5522H55.9119ZM55.6706 26.0481C56.2852 26.0481 56.7534 26.2956 57.0751 26.7906C57.3969 27.2814 57.5578 27.9765 57.5578 28.8757C57.5578 29.7708 57.4031 30.47 57.0937 30.9733C56.7843 31.4724 56.31 31.7219 55.6706 31.7219C55.0725 31.7219 54.6167 31.4724 54.3032 30.9733C53.9897 30.47 53.8329 29.7708 53.8329 28.8757C53.8329 27.9765 53.9814 27.2814 54.2784 26.7906C54.5796 26.2956 55.0436 26.0481 55.6706 26.0481ZM55.6706 26.7906C55.3365 26.7906 55.0911 26.9638 54.9343 27.3103C54.7776 27.6568 54.6992 28.1786 54.6992 28.8757C54.6992 29.5728 54.7776 30.0988 54.9343 30.4535C55.0911 30.8041 55.3365 30.9794 55.6706 30.9794C56.0171 30.9794 56.2749 30.8062 56.444 30.4597C56.6132 30.1091 56.6977 29.5811 56.6977 28.8757C56.6977 28.1827 56.6132 27.663 56.444 27.3165C56.279 26.9659 56.0212 26.7906 55.6706 26.7906Z" fill="#282828"/>
<path d="M47.0638 27.0628C47.0638 27.797 47.0081 28.4529 46.8967 29.0304C46.7853 29.6079 46.61 30.0967 46.3708 30.4968C46.1315 30.8969 45.8222 31.2022 45.4427 31.4125C45.0632 31.6188 44.6074 31.7219 44.0753 31.7219C43.4029 31.7219 42.846 31.5384 42.4047 31.1712C41.9674 30.8041 41.6395 30.2741 41.4209 29.5811C41.2064 28.884 41.0991 28.0445 41.0991 27.0628C41.0991 26.0976 41.1961 25.2685 41.3899 24.5755C41.5879 23.8784 41.9055 23.3442 42.3428 22.9729C42.78 22.5976 43.3575 22.4099 44.0753 22.4099C44.7559 22.4099 45.3169 22.5955 45.7582 22.9667C46.1996 23.3339 46.5275 23.866 46.742 24.5631C46.9565 25.2561 47.0638 26.0893 47.0638 27.0628ZM42.1324 27.0628C42.1324 27.9043 42.1964 28.6055 42.3242 29.1665C42.4521 29.7275 42.6583 30.1483 42.943 30.4288C43.2317 30.7051 43.6091 30.8433 44.0753 30.8433C44.5414 30.8433 44.9167 30.7051 45.2014 30.4288C45.4901 30.1524 45.6984 29.7337 45.8263 29.1727C45.9583 28.6117 46.0243 27.9084 46.0243 27.0628C46.0243 26.2337 45.9604 25.5407 45.8325 24.9838C45.7046 24.4228 45.4984 24.0021 45.2137 23.7216C44.9291 23.437 44.5496 23.2947 44.0753 23.2947C43.6009 23.2947 43.2214 23.437 42.9368 23.7216C42.6522 24.0021 42.4459 24.4228 42.318 24.9838C42.1943 25.5407 42.1324 26.2337 42.1324 27.0628Z" fill="#282828"/>
<path d="M36.6936 26.0666C37.3082 26.0666 37.8424 26.1718 38.2962 26.3822C38.7499 26.5884 39.1005 26.8896 39.348 27.2855C39.5996 27.6815 39.7254 28.1621 39.7254 28.7272C39.7254 29.3459 39.5914 29.8801 39.3233 30.3297C39.0551 30.7752 38.6695 31.1197 38.1662 31.363C37.663 31.6023 37.0607 31.7219 36.3595 31.7219C35.8893 31.7219 35.452 31.6807 35.0478 31.5982C34.6435 31.5157 34.3032 31.3919 34.0269 31.2269V30.2493C34.328 30.4308 34.693 30.5752 35.122 30.6824C35.551 30.7897 35.9676 30.8433 36.3719 30.8433C36.8297 30.8433 37.2299 30.7711 37.5722 30.6267C37.9187 30.4782 38.1869 30.2555 38.3766 29.9585C38.5705 29.6574 38.6674 29.2799 38.6674 28.8262C38.6674 28.224 38.4818 27.7599 38.1105 27.434C37.7434 27.104 37.1618 26.9391 36.3657 26.9391C36.1099 26.9391 35.8295 26.9597 35.5242 27.0009C35.219 27.0422 34.9673 27.0875 34.7693 27.137L34.2496 26.7967L34.5961 22.5522H39.0943V23.4927H35.4747L35.2458 26.2213C35.4025 26.1883 35.6046 26.1553 35.8521 26.1223C36.0996 26.0852 36.3801 26.0666 36.6936 26.0666Z" fill="#282828"/>
</svg>
