<svg width="64" height="64" viewBox="0 0 64 64" fill="none" xmlns="http://www.w3.org/2000/svg">
<path d="M19.3749 46.9625C21.6048 46.9625 23.4124 45.7089 23.4124 44.1625C23.4124 42.6161 21.6048 41.3625 19.3749 41.3625C17.1451 41.3625 15.3374 42.6161 15.3374 44.1625C15.3374 45.7089 17.1451 46.9625 19.3749 46.9625Z" fill="#FFE836"/>
<path d="M44.5873 46.9625C46.8172 46.9625 48.6248 45.7089 48.6248 44.1625C48.6248 42.6161 46.8172 41.3625 44.5873 41.3625C42.3575 41.3625 40.5498 42.6161 40.5498 44.1625C40.5498 45.7089 42.3575 46.9625 44.5873 46.9625Z" fill="#FFE836"/>
<path d="M46.2625 54.5625C45.475 54.5625 44.6875 54.5625 43.8875 54.5625C43.2125 54.5625 42.7375 54.125 42.6875 53.4625C42.6625 53.0625 42.6625 53.05 42.2625 53.025C41.725 52.975 41.175 52.9375 40.625 52.9125C39.4375 52.8625 38.2625 52.8375 37.075 52.8C33.875 52.7125 30.675 52.725 27.4625 52.7625C25.3625 52.7875 23.2625 52.85 21.1625 53.025C20.95 53.0375 20.8625 53.1125 20.875 53.3375C20.9 54.075 20.2875 54.6 19.5875 54.575C18.0375 54.5375 16.4875 54.5375 14.95 54.575C14.275 54.5875 13.7375 53.95 13.75 53.3875C13.7625 52.325 13.8 51.275 13.7125 50.2125C13.6125 49.0375 13.525 47.85 13.425 46.675C13.3375 45.5125 13.3375 44.3625 13.4375 43.2C13.5 42.5625 13.5625 41.925 13.75 41.3125C14.025 40.4375 14.4 39.6125 15.1375 39.025C15.2875 38.9 15.225 38.85 15.0875 38.7875C14.575 38.5625 14.075 38.3125 13.7375 37.85C13.2625 37.1875 13.2875 36.7625 14.0875 36.325C14.6625 36 15.3125 35.925 15.9625 35.8375C16.3375 35.7875 16.7125 35.775 17.0875 35.7375C17.3125 35.7125 17.475 35.7875 17.6125 35.975C17.7375 36.1375 17.8625 36.2875 17.9875 36.45C18.0875 36.6 18.1625 36.5875 18.225 36.4125C18.3573 36.0434 18.5012 35.6821 18.6547 35.3263C18.7766 35.0435 19.2276 35.1557 19.5 35.1557C20.125 35.1557 20.125 35.1557 20.4625 35.1557C21 35.1557 24.2227 35.1557 24.8439 35.1557C25.7386 35.1557 26.1362 35.1557 28 35.1557C29.3171 35.1557 30.6875 35.1557 32 35.1557C34.9625 35.1557 35.5 35.1557 37.866 35.1556C39 35.1557 41.5 35.1556 43.25 35.1557C44 35.1557 44.3024 35.1557 44.9245 35.3263C45.0589 35.6444 45.188 35.9649 45.3125 36.2875C45.3375 36.3375 45.35 36.4 45.375 36.45C45.425 36.5875 45.5 36.5875 45.5875 36.475C45.725 36.3 45.8625 36.1125 46 35.9375C46.0875 35.825 46.1875 35.75 46.3375 35.75C47.375 35.8 48.4 35.875 49.375 36.275C49.425 36.3 49.4625 36.3125 49.5125 36.3375C50.175 36.6875 50.3125 37.2 49.875 37.8125C49.5375 38.2875 49.0375 38.5625 48.525 38.7875C48.2625 38.9 48.2625 38.9 48.4625 39.075C49.3625 39.85 49.7625 40.8875 49.9625 42.025C50.225 43.5125 50.225 45.0125 50.1375 46.525C50.0125 48.8 49.6875 51.0625 49.8 53.35C49.825 53.8125 49.6375 54.1625 49.2625 54.425C49.1 54.5375 48.925 54.6 48.725 54.6C47.9125 54.55 47.0875 54.55 46.2625 54.5625C46.2625 54.55 46.2625 54.55 46.2625 54.5625ZM30.2863 35.1557C29.6651 35.1557 29.3669 35.1557 28.7456 35.1557C28.2485 35.1557 28.1491 35.1557 27.525 35.1557C26 35.1557 25.5 35.1557 24 35.1557C23.5 35.1557 23.4875 35.1557 23.0125 35.1557C22.1849 35.1557 21.7127 35.1557 20.8238 35.1557C20.5731 35.6905 20.3404 36.2342 20.125 36.7875C20.0375 37.0125 20.0625 37.0375 20.3 37.0125C21.2 36.9 22.1 36.8375 23.0125 36.8C24.5125 36.7375 26.0125 36.6625 27.525 36.65C30.275 36.625 33.025 36.6 35.775 36.675C37.225 36.7125 38.6875 36.725 40.1375 36.7875C41.175 36.8375 42.2125 36.9 43.25 37.0125C43.5125 37.0375 43.55 37.0125 43.45 36.775C43.2612 36.2833 43.0528 35.8014 42.8308 35.3263C41.8173 35.1557 41 35.1557 39.8541 35.1557C38.8849 35.1557 37.8411 35.1557 36.5 35.1557C34 35.1557 33.2738 35.1557 30.2863 35.1557ZM19.475 46.1125C20.025 46.1 20.575 46.125 21.1125 46.1C21.85 46.0625 22.175 45.55 21.9375 44.8625C21.6875 44.1625 21.175 43.7625 20.4625 43.6375C19.3125 43.4375 18.15 43.275 16.9875 43.175C16.2125 43.1125 15.825 43.625 16.025 44.3625C16.0875 44.5875 16.1875 44.7875 16.275 45C16.6125 45.7375 17.1875 46.1 17.9875 46.1125C18.475 46.125 18.975 46.1125 19.475 46.1125ZM44.1125 46.125C44.1125 46.1125 44.1125 46.1125 44.1125 46.125C44.55 46.125 44.9875 46.125 45.425 46.125C45.575 46.125 45.725 46.1125 45.875 46.1C46.9375 45.9875 47.4625 44.975 47.575 44.1375C47.6625 43.5375 47.3875 43.2375 46.7875 43.175C46.675 43.1625 46.55 43.175 46.4375 43.1875C46.0625 43.225 45.6875 43.2625 45.3125 43.3125C44.5375 43.425 43.75 43.475 43 43.6625C42.325 43.825 41.875 44.2375 41.65 44.9C41.45 45.5125 41.725 45.9875 42.3625 46.1C42.5125 46.125 42.6625 46.125 42.8125 46.1375C43.2375 46.125 43.675 46.125 44.1125 46.125ZM43.45 47.4875C42.875 47.4875 42.2875 47.4875 41.7125 47.4875C41.5375 47.4875 41.3625 47.5125 41.2 47.6125C40.8375 47.8375 40.85 48.2875 41.2125 48.4875C41.3625 48.575 41.5375 48.625 41.725 48.625C42.875 48.625 44.025 48.6375 45.175 48.625C45.4125 48.625 45.6375 48.5625 45.825 48.4C46.0875 48.1625 46.075 47.8625 45.775 47.6625C45.6 47.55 45.4125 47.4875 45.2 47.4875C44.625 47.4875 44.0375 47.4875 43.45 47.4875ZM20.1125 47.475C19.5625 47.475 19.025 47.475 18.475 47.475C18.3 47.475 18.125 47.4875 17.9625 47.575C17.7625 47.6625 17.6375 47.8125 17.625 48.0375C17.6125 48.275 17.75 48.4125 17.9375 48.5125C18.1 48.5875 18.275 48.6375 18.45 48.6375C19.575 48.6375 20.7 48.6375 21.825 48.6375C22.0625 48.6375 22.275 48.5625 22.4625 48.4375C22.7625 48.225 22.7625 47.9 22.4625 47.6875C22.25 47.5375 22 47.4875 21.75 47.4875C21.2125 47.475 20.6625 47.475 20.1125 47.475Z" fill="#282828"/>
<path d="M31.9748 9.92499C32.0373 9.93749 32.0873 9.96249 32.1498 9.97499C37.0873 11.4875 42.0123 13 46.9498 14.5C50.2748 15.5125 53.5998 16.5375 56.9373 17.55C57.2623 17.65 57.2623 17.65 57.1873 17.9875C57.0123 18.725 56.8373 19.4625 56.6748 20.2C56.6248 20.425 56.5373 20.4625 56.3248 20.3875C51.0248 18.7625 45.7248 17.1375 40.4123 15.5125C37.6748 14.675 34.9498 13.85 32.2123 13.0125C32.0373 12.9625 31.8873 12.9625 31.7248 13.0125C28.3373 14.05 24.9373 15.0875 21.5498 16.125C16.8998 17.55 12.2623 18.9625 7.61227 20.3875C7.42477 20.45 7.32477 20.425 7.27477 20.2125C7.09977 19.4375 6.92477 18.675 6.73727 17.9C6.68727 17.6875 6.76227 17.625 6.94977 17.5625C8.78727 17.0125 10.6123 16.45 12.4498 15.8875C16.0623 14.7875 19.6623 13.6875 23.2748 12.575C26.1248 11.7 28.9623 10.8375 31.8123 9.96249C31.8623 9.96249 31.9248 9.93749 31.9748 9.92499Z" fill="#282828"/>
<path d="M31.8247 21.075C39.6622 21.075 47.4997 21.075 55.3372 21.075C55.4247 21.075 55.5122 21.0875 55.5872 21.075C55.8122 21.05 55.8872 21.1375 55.8872 21.375C55.8747 22.9375 55.8872 24.5 55.8872 26.0625C55.8872 26.725 55.8747 27.3875 55.8872 28.05C55.8872 28.2625 55.8122 28.3375 55.6122 28.325C55.5497 28.3125 55.4747 28.325 55.4122 28.325C39.6747 28.325 23.9372 28.325 8.18722 28.325C7.66222 28.325 7.71222 28.375 7.71222 27.85C7.71222 25.7125 7.71222 23.575 7.71222 21.4375C7.71222 21.0625 7.71222 21.0625 8.08722 21.0625C15.9997 21.075 23.9122 21.075 31.8247 21.075ZM31.7747 27.025C39.2622 27.025 46.7622 27.025 54.2497 27.025C54.5872 27.025 54.5872 27.025 54.5872 26.7C54.5872 25.3625 54.5872 24.025 54.5872 22.6875C54.5872 22.45 54.5372 22.3625 54.2872 22.3625C39.2997 22.3625 24.2997 22.3625 9.31222 22.3625C9.06222 22.3625 8.99972 22.45 9.01222 22.6875C9.02472 24.0125 9.01222 25.325 9.01222 26.65C9.01222 27.025 9.01222 27.025 9.39972 27.025C16.8622 27.025 24.3122 27.025 31.7747 27.025Z" fill="#282828"/>
<path d="M31.7355 29.012C39.5443 29.012 47.3532 29.012 55.162 29.012C55.2492 29.012 55.3363 29.0241 55.4111 29.012C55.6352 28.988 55.71 29.0723 55.71 29.3011C55.6975 30.8069 55.71 32.3126 55.71 33.8184C55.71 34.4568 55.6975 35.0953 55.71 35.7337C55.71 35.9385 55.6352 36.0108 55.436 35.9987C55.3737 35.9867 55.299 35.9987 55.2367 35.9987C39.5568 35.9987 23.8769 35.9987 8.1845 35.9987C7.66142 35.9987 7.71124 36.0469 7.71124 35.541C7.71124 33.4811 7.71124 31.4212 7.71124 29.3614C7.71124 29 7.71124 29 8.08486 29C15.9684 29.012 23.852 29.012 31.7355 29.012ZM31.6857 34.7459C39.1458 34.7459 46.6184 34.7459 54.0785 34.7459C54.4147 34.7459 54.4147 34.7459 54.4147 34.4327C54.4147 33.1438 54.4147 31.8549 54.4147 30.566C54.4147 30.3371 54.3649 30.2528 54.1158 30.2528C39.1832 30.2528 24.238 30.2528 9.30538 30.2528C9.0563 30.2528 8.99402 30.3371 9.00648 30.566C9.01893 31.8429 9.00648 33.1077 9.00648 34.3846C9.00648 34.7459 9.00648 34.7459 9.39256 34.7459C16.8278 34.7459 24.2505 34.7459 31.6857 34.7459Z" fill="#282828"/>
<path d="M11.0746 45.4934C11.0746 48.4264 11.0746 51.3595 11.0746 54.2925C11.0746 54.56 11.0746 54.56 10.6996 54.56C10.0746 54.56 9.43708 54.5511 8.81208 54.56C8.57458 54.56 8.51208 54.5065 8.51208 54.346C8.52458 52.875 8.51208 51.3951 8.51208 49.9242C8.51208 45.5379 8.51208 41.1428 8.51208 36.7566C8.51208 36.6942 8.51208 36.6229 8.51208 36.5605C8.49958 36.4446 8.57458 36.4 8.73708 36.4C9.43708 36.4 10.1496 36.4 10.8496 36.4C11.0121 36.4 11.0746 36.4446 11.0746 36.5605C11.0746 36.6229 11.0746 36.6764 11.0746 36.7388C11.0746 39.654 11.0746 42.5781 11.0746 45.4934Z" fill="#282828"/>
<path d="M52.6122 45.49C52.6122 42.5462 52.6122 39.6114 52.6122 36.6676C52.6122 36.4 52.6122 36.4 52.9872 36.4C53.6122 36.4 54.2497 36.4089 54.8747 36.4C55.1122 36.4 55.1747 36.4535 55.1747 36.6141C55.1622 37.8005 55.1747 38.9869 55.1747 40.1823C55.1747 44.8656 55.1747 49.5399 55.1747 54.2232C55.1747 54.2856 55.1747 54.357 55.1747 54.4194C55.1872 54.5354 55.1247 54.58 54.9497 54.58C54.2497 54.58 53.5372 54.58 52.8372 54.58C52.6747 54.58 52.5997 54.5354 52.6122 54.4194C52.6122 54.357 52.6122 54.3035 52.6122 54.241C52.6122 51.324 52.6122 48.407 52.6122 45.49Z" fill="#282828"/>
</svg>
