<svg width="64" height="58" viewBox="0 0 64 58" fill="none" xmlns="http://www.w3.org/2000/svg">
<g clip-path="url(#clip0_6311_2067)">
<path d="M16.3394 47.3939C19.1062 47.3939 21.3491 45.8384 21.3491 43.9196C21.3491 42.0009 19.1062 40.4454 16.3394 40.4454C13.5725 40.4454 11.3296 42.0009 11.3296 43.9196C11.3296 45.8384 13.5725 47.3939 16.3394 47.3939Z" fill="#FFE836"/>
<path d="M47.6231 47.3939C50.3899 47.3939 52.6328 45.8384 52.6328 43.9196C52.6328 42.0009 50.3899 40.4454 47.6231 40.4454C44.8562 40.4454 42.6133 42.0009 42.6133 43.9196C42.6133 45.8384 44.8562 47.3939 47.6231 47.3939Z" fill="#FFE836"/>
<path d="M50.1049 57.2581C49.107 57.2581 48.1091 57.2581 47.0953 57.2581C46.24 57.2581 45.6381 56.7037 45.5747 55.8642C45.543 55.3573 45.543 55.3415 45.0362 55.3098C44.355 55.2465 43.6581 55.1989 42.9611 55.1673C41.4564 55.1039 39.9674 55.0722 38.4627 55.0247C34.4077 54.9138 30.3527 54.9297 26.2819 54.9772C23.6208 55.0089 20.9598 55.0881 18.2987 55.3098C18.0294 55.3257 17.9185 55.4207 17.9344 55.7058C17.966 56.6404 17.1899 57.3056 16.3029 57.274C14.3387 57.2264 12.3746 57.2264 10.4263 57.274C9.57098 57.2898 8.88987 56.482 8.90571 55.7692C8.92155 54.4228 8.96907 53.0922 8.85819 51.7459C8.73147 50.2569 8.62059 48.7521 8.49388 47.2632C8.383 45.7901 8.383 44.3329 8.50972 42.8598C8.58891 42.0519 8.66811 41.2441 8.90571 40.468C9.25418 39.3592 9.72937 38.3138 10.6639 37.5693C10.854 37.4109 10.7748 37.3475 10.6006 37.2683C9.95113 36.9832 9.31754 36.6664 8.88987 36.0804C8.28796 35.2409 8.31964 34.7023 9.33338 34.1479C10.062 33.7361 10.8857 33.641 11.7093 33.5302C12.1845 33.4668 12.6597 33.451 13.1349 33.4034C13.42 33.3718 13.6259 33.4668 13.8002 33.7044C13.9586 33.9103 14.117 34.1004 14.2754 34.3063C14.4021 34.4964 14.4971 34.4806 14.5763 34.2588C14.744 33.7911 14.9264 33.3332 15.1208 32.8825C15.2754 32.5241 15.8468 32.6662 16.192 32.6662C16.984 32.6662 16.984 32.6662 17.4116 32.6662C18.0928 32.6662 22.1765 32.6662 22.9637 32.6662C24.0974 32.6662 24.6013 32.6662 26.963 32.6662C28.6321 32.6662 30.3686 32.6662 32.0318 32.6662C35.7858 32.6662 36.4669 32.6662 39.465 32.6662C40.902 32.6662 44.07 32.6662 46.2875 32.6662C47.2379 32.6662 47.6211 32.6662 48.4095 32.8825C48.5797 33.2855 48.7433 33.6916 48.9011 34.1004C48.9327 34.1638 48.9486 34.243 48.9802 34.3063C49.0436 34.4806 49.1386 34.4806 49.2495 34.338C49.4238 34.1162 49.598 33.8786 49.7722 33.6569C49.8831 33.5143 50.0098 33.4193 50.1999 33.4193C51.5146 33.4826 52.8135 33.5777 54.049 34.0846C54.1123 34.1162 54.1598 34.1321 54.2232 34.1638C55.0627 34.6073 55.2369 35.2567 54.6826 36.0328C54.2549 36.6348 53.6213 36.9832 52.9719 37.2683C52.6392 37.4109 52.6392 37.4109 52.8927 37.6327C54.0331 38.6147 54.54 39.9294 54.7934 41.3708C55.1261 43.2558 55.1261 45.1565 55.0152 47.0731C54.8568 49.956 54.445 52.823 54.5875 55.7217C54.6192 56.3077 54.3816 56.7512 53.9064 57.0839C53.7005 57.2264 53.4787 57.3056 53.2253 57.3056C52.1957 57.2423 51.1503 57.2423 50.1049 57.2581C50.1049 57.2423 50.1049 57.2423 50.1049 57.2581ZM29.8602 32.6662C29.073 32.6662 28.6951 32.6662 27.9078 32.6662C27.278 32.6662 27.152 32.6662 26.3611 32.6662C24.4287 32.6662 23.7951 32.6662 21.8943 32.6662C21.2607 32.6662 21.2449 32.6662 20.643 32.6662C19.5942 32.6662 18.9959 32.6662 17.8695 32.6662C17.5518 33.3439 17.257 34.0329 16.984 34.734C16.8731 35.0191 16.9048 35.0508 17.2057 35.0191C18.3462 34.8765 19.4867 34.7973 20.643 34.7498C22.5437 34.6706 24.4445 34.5756 26.3611 34.5598C29.8458 34.5281 33.3306 34.4964 36.8153 34.5914C38.6527 34.639 40.506 34.6548 42.3434 34.734C43.6581 34.7973 44.9728 34.8765 46.2875 35.0191C46.6201 35.0508 46.6676 35.0191 46.5409 34.7182C46.3018 34.0951 46.0376 33.4845 45.7564 32.8825C44.472 32.6662 43.4364 32.6662 41.9842 32.6662C40.7561 32.6662 39.4335 32.6662 37.7341 32.6662C34.5661 32.6662 33.6459 32.6662 29.8602 32.6662ZM16.1603 46.5504C16.8573 46.5346 17.5542 46.5663 18.2353 46.5346C19.1699 46.4871 19.5817 45.8376 19.2807 44.9664C18.9639 44.0794 18.3145 43.5726 17.4116 43.4142C15.9544 43.1607 14.4813 42.9548 13.0082 42.8281C12.0261 42.7489 11.5351 43.3983 11.7885 44.3329C11.8677 44.618 11.9945 44.8714 12.1053 45.1407C12.533 46.0752 13.2616 46.5346 14.2754 46.5504C14.8931 46.5663 15.5267 46.5504 16.1603 46.5504ZM47.3804 46.5663C47.3804 46.5504 47.3804 46.5504 47.3804 46.5663C47.9348 46.5663 48.4892 46.5663 49.0436 46.5663C49.2337 46.5663 49.4238 46.5504 49.6138 46.5346C50.9602 46.392 51.6255 45.109 51.768 44.0477C51.8789 43.2874 51.5304 42.9073 50.7701 42.8281C50.6276 42.8122 50.4692 42.8281 50.3266 42.8439C49.8514 42.8914 49.3762 42.939 48.9011 43.0023C47.919 43.1449 46.9211 43.2082 45.9707 43.4458C45.1154 43.6518 44.5451 44.1745 44.26 45.014C44.0066 45.7901 44.355 46.392 45.1629 46.5346C45.3529 46.5663 45.543 46.5663 45.7331 46.5821C46.2717 46.5663 46.826 46.5663 47.3804 46.5663ZM46.5409 48.2928C45.8123 48.2928 45.0678 48.2928 44.3392 48.2928C44.1175 48.2928 43.8957 48.3245 43.6898 48.4512C43.2304 48.7363 43.2463 49.3065 43.7056 49.56C43.8957 49.6709 44.1174 49.7342 44.355 49.7342C45.8123 49.7342 47.2696 49.7501 48.7268 49.7342C49.0278 49.7342 49.3129 49.655 49.5505 49.4491C49.8831 49.1481 49.8673 48.768 49.4871 48.5145C49.2654 48.372 49.0278 48.2928 48.7585 48.2928C48.0299 48.2928 47.2854 48.2928 46.5409 48.2928ZM16.9681 48.277C16.2712 48.277 15.5901 48.277 14.8931 48.277C14.6714 48.277 14.4496 48.2928 14.2437 48.4037C13.9903 48.5146 13.8319 48.7046 13.816 48.9897C13.8002 49.2907 13.9744 49.4649 14.212 49.5917C14.4179 49.6867 14.6397 49.7501 14.8615 49.7501C16.287 49.7501 17.7126 49.7501 19.1382 49.7501C19.4391 49.7501 19.7084 49.655 19.946 49.4966C20.3262 49.2273 20.3262 48.8155 19.946 48.5462C19.6767 48.3562 19.3599 48.2928 19.0431 48.2928C18.362 48.277 17.6651 48.277 16.9681 48.277Z" fill="#282828"/>
<path d="M31.9996 0.694397C32.0788 0.710237 32.1421 0.741916 32.2213 0.757756C38.478 2.67436 44.7189 4.59097 50.9756 6.49174C55.189 7.77476 59.4023 9.07362 63.6315 10.3566C64.0434 10.4834 64.0434 10.4834 63.9483 10.911C63.7266 11.8456 63.5048 12.7801 63.2989 13.7147C63.2355 13.9998 63.1247 14.0473 62.8554 13.9523C56.1393 11.8931 49.4233 9.83393 42.6914 7.77476C39.2225 6.7135 35.7694 5.66808 32.3005 4.60681C32.0788 4.54345 31.8887 4.54345 31.6828 4.60681C27.3902 5.92151 23.0818 7.23621 18.7892 8.55091C12.8968 10.3566 7.0203 12.1465 1.12792 13.9523C0.890322 14.0315 0.763604 13.9998 0.700245 13.7305C0.478489 12.7484 0.256732 11.7822 0.0191364 10.8002C-0.0442226 10.5309 0.0508154 10.4517 0.288411 10.3725C2.61685 9.67553 4.92945 8.96274 7.2579 8.24995C11.8356 6.85606 16.3974 5.46216 20.9751 4.05242C24.5866 2.94364 28.1822 1.8507 31.7937 0.741915C31.857 0.741915 31.9362 0.710237 31.9996 0.694397Z" fill="#282828"/>
<path fill-rule="evenodd" clip-rule="evenodd" d="M32.9312 24.8811H31.6966C21.7068 24.8811 11.7169 24.8811 1.72702 24.8658C1.48767 24.8658 1.36932 24.8658 1.3108 24.925C1.25357 24.9829 1.25357 25.0974 1.25357 25.3238V33.1544C1.25357 33.4721 1.23807 33.6173 1.30305 33.6831C1.36922 33.75 1.51884 33.7345 1.85328 33.7345H61.4768C61.5026 33.7345 61.53 33.7329 61.558 33.7312C61.6159 33.7278 61.6762 33.7242 61.7294 33.7345C61.9819 33.7498 62.0766 33.6582 62.0766 33.3987C62.066 32.8593 62.0695 32.32 62.073 31.7806C62.0748 31.511 62.0766 31.2413 62.0766 30.9716C62.0766 30.3356 62.0748 29.6996 62.073 29.0636C62.0695 27.7915 62.066 26.5195 62.0766 25.2475C62.0766 24.9574 61.9819 24.8506 61.6978 24.8811C61.6352 24.8912 61.5657 24.8879 61.4938 24.8846C61.457 24.8829 61.4196 24.8811 61.3822 24.8811H58.2748V26.4533H60.0565C60.3721 26.4533 60.4352 26.5602 60.4352 26.8502V31.7501C60.4352 31.9438 60.4352 32.043 60.3857 32.0938C60.3337 32.147 60.2272 32.147 60.0091 32.147H31.6335H3.38411C3.1341 32.147 3.01185 32.147 2.95207 32.0859C2.89487 32.0274 2.89487 31.913 2.89487 31.689C2.89487 31.1491 2.89663 30.6109 2.89839 30.0733C2.90189 28.9997 2.90539 27.9283 2.89487 26.8502C2.87909 26.5602 2.958 26.4533 3.27364 26.4533H32.9312V24.8811Z" fill="#282828"/>
<path fill-rule="evenodd" clip-rule="evenodd" d="M61.604 14.8235H31.8094C21.7829 14.8235 11.7563 14.8235 1.72974 14.8076C1.49215 14.8076 1.37335 14.8076 1.31395 14.867C1.25455 14.9264 1.25455 15.0452 1.25455 15.2828V23.4086C1.25455 23.7412 1.23871 23.8917 1.30603 23.959C1.37335 24.0263 1.52383 24.0105 1.85646 24.0105H32.9312V22.3632H31.7461H3.39292C3.14472 22.3632 3.02197 22.3632 2.96127 22.3018C2.90188 22.2418 2.90188 22.123 2.90188 21.888C2.90188 21.3277 2.90365 20.7692 2.90541 20.2113C2.90893 19.0973 2.91244 17.9855 2.90188 16.8668C2.88604 16.5658 2.96524 16.4549 3.28204 16.4549H60.2734C60.5902 16.4549 60.6536 16.5658 60.6536 16.8668V21.9513C60.6536 22.1547 60.6536 22.2576 60.6021 22.3097C60.5493 22.3632 60.4424 22.3632 60.2259 22.3632H58.2748V24.0105H61.699C61.7248 24.0105 61.7524 24.0088 61.7805 24.0071C61.8385 24.0035 61.8991 23.9998 61.9524 24.0105C62.2059 24.0263 62.3009 23.9313 62.3009 23.662C62.2904 23.1024 62.2939 22.5427 62.2974 21.983C62.2992 21.7032 62.3009 21.4233 62.3009 21.1435C62.3009 20.4835 62.2992 19.8235 62.2974 19.1635C62.2939 17.8436 62.2904 16.5236 62.3009 15.2036C62.3009 14.9027 62.2059 14.7918 61.9208 14.8235C61.8579 14.8339 61.7882 14.8306 61.716 14.8271C61.6791 14.8253 61.6415 14.8235 61.604 14.8235Z" fill="#282828"/>
<path d="M5.51544 45.7659C5.51544 49.4826 5.51544 53.1993 5.51544 56.916C5.51544 57.255 5.51544 57.255 5.04025 57.255C4.24827 57.255 3.44044 57.2437 2.64845 57.255C2.3475 57.255 2.2683 57.1872 2.2683 56.9838C2.28414 55.1198 2.2683 53.2445 2.2683 51.3805C2.2683 45.8224 2.2683 40.253 2.2683 34.6949C2.2683 34.6158 2.2683 34.5254 2.2683 34.4463C2.25246 34.2995 2.3475 34.243 2.55341 34.243C3.44044 34.243 4.34331 34.243 5.23033 34.243C5.43625 34.243 5.51544 34.2995 5.51544 34.4463C5.51544 34.5254 5.51544 34.5932 5.51544 34.6723C5.51544 38.3664 5.51544 42.0718 5.51544 45.7659Z" fill="#282828"/>
<path d="M58.1511 45.7616C58.1511 42.0314 58.1511 38.3124 58.1511 34.5821C58.1511 34.243 58.1511 34.243 58.6263 34.243C59.4183 34.243 60.2261 34.2543 61.0181 34.243C61.3191 34.243 61.3983 34.3108 61.3983 34.5143C61.3824 36.0177 61.3983 37.5211 61.3983 39.0358C61.3983 44.9704 61.3983 50.8936 61.3983 56.8281C61.3983 56.9073 61.3983 56.9977 61.3983 57.0768C61.4141 57.2238 61.3349 57.2803 61.1131 57.2803C60.2261 57.2803 59.3233 57.2803 58.4362 57.2803C58.2303 57.2803 58.1353 57.2238 58.1511 57.0768C58.1511 56.9977 58.1511 56.9299 58.1511 56.8508C58.1511 53.1544 58.1511 49.458 58.1511 45.7616Z" fill="#282828"/>
<path d="M50.1824 19.4223C50.8011 19.4223 51.2693 19.6698 51.5869 20.1648C51.9087 20.6556 52.0695 21.3507 52.0695 22.2499C52.0695 23.1491 51.9149 23.8504 51.6055 24.3536C51.2961 24.8527 50.8217 25.1023 50.1824 25.1023C49.5884 25.1023 49.1326 24.8527 48.815 24.3536C48.5015 23.8504 48.3447 23.1491 48.3447 22.2499C48.3447 21.3507 48.4953 20.6556 48.7964 20.1648C49.0975 19.6698 49.5595 19.4223 50.1824 19.4223ZM50.1824 20.1586C49.8483 20.1586 49.6028 20.3339 49.4461 20.6845C49.2893 21.031 49.211 21.5528 49.211 22.2499C49.211 22.947 49.2893 23.473 49.4461 23.8277C49.6028 24.1824 49.8483 24.3598 50.1824 24.3598C50.5289 24.3598 50.7867 24.1824 50.9558 23.8277C51.1249 23.473 51.2095 22.947 51.2095 22.2499C51.2095 21.5569 51.1249 21.0351 50.9558 20.6845C50.7908 20.3339 50.533 20.1586 50.1824 20.1586ZM55.9119 19.5522L50.8939 28.5982H49.9906L55.0086 19.5522H55.9119ZM55.6706 23.0481C56.2852 23.0481 56.7534 23.2956 57.0751 23.7906C57.3969 24.2814 57.5578 24.9765 57.5578 25.8757C57.5578 26.7708 57.4031 27.47 57.0937 27.9733C56.7843 28.4724 56.31 28.7219 55.6706 28.7219C55.0725 28.7219 54.6167 28.4724 54.3032 27.9733C53.9897 27.47 53.8329 26.7708 53.8329 25.8757C53.8329 24.9765 53.9814 24.2814 54.2784 23.7906C54.5796 23.2956 55.0436 23.0481 55.6706 23.0481ZM55.6706 23.7906C55.3365 23.7906 55.0911 23.9638 54.9343 24.3103C54.7776 24.6568 54.6992 25.1786 54.6992 25.8757C54.6992 26.5728 54.7776 27.0988 54.9343 27.4535C55.0911 27.8041 55.3365 27.9794 55.6706 27.9794C56.0171 27.9794 56.2749 27.8062 56.444 27.4597C56.6132 27.1091 56.6977 26.5811 56.6977 25.8757C56.6977 25.1827 56.6132 24.663 56.444 24.3165C56.279 23.9659 56.0212 23.7906 55.6706 23.7906Z" fill="#282828"/>
<path d="M47.0638 24.0628C47.0638 24.797 47.0081 25.4529 46.8967 26.0304C46.7853 26.6079 46.61 27.0967 46.3708 27.4968C46.1315 27.8969 45.8222 28.2022 45.4427 28.4125C45.0632 28.6188 44.6074 28.7219 44.0753 28.7219C43.4029 28.7219 42.846 28.5384 42.4047 28.1712C41.9674 27.8041 41.6395 27.2741 41.4209 26.5811C41.2064 25.884 41.0991 25.0445 41.0991 24.0628C41.0991 23.0976 41.1961 22.2685 41.3899 21.5755C41.5879 20.8784 41.9055 20.3442 42.3428 19.9729C42.78 19.5976 43.3575 19.4099 44.0753 19.4099C44.7559 19.4099 45.3169 19.5955 45.7582 19.9667C46.1996 20.3339 46.5275 20.866 46.742 21.5631C46.9565 22.2561 47.0638 23.0893 47.0638 24.0628ZM42.1324 24.0628C42.1324 24.9043 42.1964 25.6055 42.3242 26.1665C42.4521 26.7275 42.6583 27.1483 42.943 27.4288C43.2317 27.7051 43.6091 27.8433 44.0753 27.8433C44.5414 27.8433 44.9167 27.7051 45.2014 27.4288C45.4901 27.1524 45.6984 26.7337 45.8263 26.1727C45.9583 25.6117 46.0243 24.9084 46.0243 24.0628C46.0243 23.2337 45.9604 22.5407 45.8325 21.9838C45.7046 21.4228 45.4984 21.0021 45.2137 20.7216C44.9291 20.437 44.5496 20.2947 44.0753 20.2947C43.6009 20.2947 43.2214 20.437 42.9368 20.7216C42.6522 21.0021 42.4459 21.4228 42.318 21.9838C42.1943 22.5407 42.1324 23.2337 42.1324 24.0628Z" fill="#282828"/>
<path d="M36.6936 23.0666C37.3082 23.0666 37.8424 23.1718 38.2962 23.3822C38.7499 23.5884 39.1005 23.8896 39.348 24.2855C39.5996 24.6815 39.7254 25.1621 39.7254 25.7272C39.7254 26.3459 39.5914 26.8801 39.3233 27.3297C39.0551 27.7752 38.6695 28.1197 38.1662 28.363C37.663 28.6023 37.0607 28.7219 36.3595 28.7219C35.8893 28.7219 35.452 28.6807 35.0478 28.5982C34.6435 28.5157 34.3032 28.3919 34.0269 28.2269V27.2493C34.328 27.4308 34.693 27.5752 35.122 27.6824C35.551 27.7897 35.9676 27.8433 36.3719 27.8433C36.8297 27.8433 37.2299 27.7711 37.5722 27.6267C37.9187 27.4782 38.1869 27.2555 38.3766 26.9585C38.5705 26.6574 38.6674 26.2799 38.6674 25.8262C38.6674 25.224 38.4818 24.7599 38.1105 24.434C37.7434 24.104 37.1618 23.9391 36.3657 23.9391C36.1099 23.9391 35.8295 23.9597 35.5242 24.0009C35.219 24.0422 34.9673 24.0875 34.7693 24.137L34.2496 23.7967L34.5961 19.5522H39.0943V20.4927H35.4747L35.2458 23.2213C35.4025 23.1883 35.6046 23.1553 35.8521 23.1223C36.0996 23.0852 36.3801 23.0666 36.6936 23.0666Z" fill="#282828"/>
</g>
<defs>
<clipPath id="clip0_6311_2067">
<rect width="64" height="58" fill="white"/>
</clipPath>
</defs>
</svg>
