<svg width="144" height="144" viewBox="0 0 144 144" fill="none" xmlns="http://www.w3.org/2000/svg">
<g id="Karta hotelowa - on">
<g id="Group 90">
<path id="Rectangle 86" d="M104 28H124C125.105 28 126 28.8954 126 30V134C126 135.105 125.105 136 124 136H20C18.8954 136 18 135.105 18 134V30C18 28.8954 18.8954 28 20 28H40" stroke="#FCFCFC" stroke-width="4"/>
</g>
<g id="Group 87">
<rect id="Rectangle 88" x="40" y="62" width="54" height="64" rx="2" transform="rotate(-90 40 62)" stroke="#FCFCFC" stroke-width="4"/>
<rect id="Rectangle 89" x="66" y="62" width="16" height="54" transform="rotate(180 66 62)" fill="#FCFCFC"/>
</g>
<g id="Group 91">
<rect id="Rectangle 86_2" x="28" y="62" width="88" height="64" rx="1" stroke="#FCFCFC" stroke-width="4"/>
</g>
<g id="Group 85">
<g id="Group 86">
<circle id="Ellipse 95" cx="84" cy="94" r="6" stroke="#00D151" stroke-width="4"/>
<path id="Vector 28" d="M78 94H62.25M54 99.9999V94H62.25M62.25 94V99.9999" stroke="#00D151" stroke-width="4" stroke-linecap="round" stroke-linejoin="round"/>
</g>
</g>
</g>
</svg>
