<?xml version="1.0" encoding="UTF-8"?>
<svg height="600" width="800" xmlns="http://www.w3.org/2000/svg" xmlns:xlink="http://www.w3.org/1999/xlink">
    <g id="Notes" font-family="'LucidaGrande', 'Lucida Grande', sans-serif" font-size="13">
        <rect fill="white" height="600.0" width="800.0" x="0.0" y="0.0" />
        <g font-size="13">
            <text x="18.0" y="176.0">Small</text>
            <text x="18.0" y="376.0">Medium</text>
            <text x="18.0" y="576.0">Large</text>
        </g>
        <g font-size="9">
            <text x="250.0" y="30.0">Ultralight</text>
            <text x="450.0" y="30.0">Regular</text>
            <text x="650.0" y="30.0">Black</text>
            <text id="template-version" fill="#505050" text-anchor="end" x="785.0" y="575.0">Template v.3.0</text>
            <a href="https://github.com/swhitty/SwiftDraw">
                <text fill="#505050" text-anchor="end" x="785.0" y="590.0">https://github.com/swhitty/SwiftDraw</text>
            </a>
        </g>
    </g>
    <g id="Guides" stroke="rgb(39, 170, 225)" stroke-width="0.5">
        <path id="Capline-S" d="M18,76 l800,0" />
        <path id="H-reference" d="M85,145.755 L87.685,145.755 L113.369,79.287 L114.052,79.287 L114.052,76 L112.148,76 L85,145.755 Z M95.693,121.536 L130.996,121.536 L130.263,119.313 L96.474,119.313 L95.693,121.536 Z M139.15,145.755 L141.787,145.755 L114.638,76 L113.466,76 L113.466,79.287 L139.15,145.755 Z" stroke="none" />
        <path id="Baseline-S" d="M18,146 l800,0" />
        <path id="left-margin-Ultralight-S" d="M216,56 l0,110" />
        <path id="right-margin-Ultralight-S" d="M314,56 l0,110" />
        <path id="left-margin-Regular-S" d="M416,56 l0,110" />
        <path id="right-margin-Regular-S" d="M514,56 l0,110" />
        <path id="left-margin-Black-S" d="M616,56 l0,110" />
        <path id="right-margin-Black-S" d="M714,56 l0,110" />
        <path id="Capline-M" d="M18,276 l800,0" />
        <path id="Baseline-M" d="M18,346 l800,0" />
        <path id="Capline-L" d="M18,476 l800,0" />
        <path id="Baseline-L" d="M18,546 l800,0" />
    </g>
    <g id="Symbols">
        <g id="Ultralight-S">
            <path d="M293.863,91.498 C294.197,91.06 294.51,90.663 294.823,90.267 C295.052,89.975 295.345,89.829 295.741,89.829 C297.619,89.85 299.476,90.058 301.291,90.58 C301.896,90.747 302.481,90.997 302.981,91.394 C303.879,92.103 304.046,92.896 303.482,93.877 C303.002,94.711 302.293,95.296 301.458,95.755 C301.062,95.984 300.644,96.151 300.227,96.36 C300.039,96.443 299.935,96.548 300.144,96.715 C302.355,98.53 303.148,101.034 303.586,103.726 C303.962,106.021 304.066,108.337 303.962,110.674 C303.858,112.802 303.712,114.952 303.524,117.08 C303.357,118.812 303.253,120.564 303.169,122.296 C303.086,123.903 303.065,125.51 303.128,127.095 C303.169,128.41 302.042,129.745 300.519,129.704 C298.307,129.641 296.075,129.704 293.863,129.662 C292.82,129.641 291.755,129.683 290.712,129.683 C289.293,129.704 288.146,128.744 288.062,127.325 C288,126.365 287.791,126.49 287.123,126.407 C286.769,126.365 286.664,126.24 286.664,125.885 C286.685,123.11 286.664,120.335 286.664,117.581 C286.664,117.08 286.685,117.038 287.207,117.059 C288.709,117.142 290.191,117.101 291.693,117.101 C292.298,117.101 292.903,117.059 293.508,117.038 C293.967,117.017 294.385,116.871 294.718,116.537 C295.157,116.099 295.115,115.515 294.635,115.139 C294.218,114.805 293.738,114.722 293.237,114.722 C291.276,114.722 289.293,114.722 287.332,114.722 C286.685,114.722 286.685,114.722 286.685,114.054 C286.685,113.324 286.685,112.594 286.685,111.842 C286.685,111.696 286.664,111.509 286.936,111.571 C288.104,111.884 289.314,111.801 290.504,111.822 C291.776,111.822 293.049,111.822 294.322,111.759 C296.221,111.675 297.348,110.59 298.036,108.942 C298.266,108.4 298.37,107.836 298.37,107.252 C298.37,106.25 297.89,105.729 296.889,105.645 C296.221,105.583 295.574,105.666 294.927,105.75 C293.07,105.979 291.213,106.209 289.356,106.522 C288.5,106.668 287.708,106.96 287.04,107.523 C286.956,107.586 286.873,107.753 286.748,107.669 C286.643,107.607 286.685,107.461 286.685,107.335 C286.685,104.393 286.664,101.451 286.685,98.509 C286.685,97.904 286.539,97.403 286.226,96.923 C285.266,95.4 284.306,93.877 283.326,92.374 C283.284,92.291 283.18,92.228 283.263,92.124 C283.326,92.062 283.409,92.082 283.493,92.082 C285.35,92.208 287.207,92.27 289.064,92.5 C289.147,92.521 289.252,92.5 289.335,92.5 C289.586,92.5 289.648,92.395 289.544,92.187 C288.292,89.14 286.915,86.136 285.141,83.34 C284.515,82.359 283.597,82.004 282.512,81.837 C280.404,81.524 278.297,81.149 276.169,80.898 C274.583,80.71 272.997,80.564 271.39,80.46 C269.116,80.335 266.821,80.231 264.546,80.251 C261.98,80.272 259.413,80.418 256.847,80.627 C253.592,80.877 250.358,81.399 247.144,81.9 C246.143,82.067 245.35,82.568 244.828,83.444 C244.682,83.673 244.557,83.924 244.39,84.153 C242.7,86.49 241.615,89.14 240.509,91.769 C240.196,92.521 240.258,92.583 241.093,92.479 C242.637,92.27 244.181,92.145 245.725,92.103 C245.83,92.103 245.997,92.041 246.059,92.145 C246.143,92.27 245.976,92.374 245.913,92.479 C245.079,93.793 244.244,95.129 243.409,96.443 C242.95,97.174 242.721,97.967 242.741,98.822 C242.762,100.783 242.741,102.745 242.741,104.685 C242.741,105.666 242.721,105.687 241.74,105.687 C241.031,105.687 240.947,105.604 240.947,104.873 C240.947,103.121 240.905,101.347 240.947,99.594 C240.989,98.384 240.655,97.32 239.987,96.339 C239.215,95.171 238.485,93.96 237.734,92.771 C237.4,92.27 237.066,91.749 236.461,91.519 C236.21,91.415 236.273,91.248 236.357,91.06 C236.795,89.975 237.212,88.89 237.692,87.826 C238.652,85.614 239.82,83.486 241.072,81.42 C242.366,79.292 244.223,78.102 246.685,77.727 C248.876,77.393 251.046,76.975 253.258,76.746 C254.614,76.6 255.97,76.516 257.327,76.391 C259.246,76.224 261.166,76.099 263.107,76.037 C264.087,75.995 265.047,75.974 266.028,76.057 C266.153,76.057 266.257,76.078 266.383,76.078 C269.554,76.078 272.705,76.245 275.835,76.621 C278.506,76.955 281.156,77.372 283.806,77.81 C286.122,78.186 287.812,79.5 289.022,81.462 C290.504,83.861 291.776,86.386 292.882,88.994 C293.174,89.808 293.508,90.643 293.863,91.498 Z" />
            <path d="M231.808,121.649 C231.808,113.866 231.808,106.083 231.808,98.28 C231.808,97.904 231.891,97.57 232.1,97.257 C233.06,95.734 234.02,94.211 234.979,92.687 C235.042,92.583 235.105,92.5 235.188,92.395 C235.689,91.749 236.231,91.749 236.711,92.416 C237.024,92.854 237.316,93.334 237.609,93.814 C238.381,95.045 239.132,96.256 239.925,97.487 C240.196,97.904 240.321,98.321 240.321,98.822 C240.3,101.284 240.321,103.767 240.3,106.229 C240.3,106.605 240.405,106.709 240.78,106.689 C241.469,106.668 242.136,106.668 242.825,106.689 C243.221,106.709 243.347,106.605 243.347,106.188 C243.326,103.559 243.347,100.93 243.326,98.3 C243.326,97.904 243.43,97.57 243.639,97.236 C244.599,95.734 245.538,94.211 246.498,92.708 C246.581,92.562 246.685,92.416 246.79,92.291 C247.207,91.811 247.729,91.79 248.125,92.291 C248.438,92.687 248.688,93.147 248.98,93.564 C249.815,94.878 250.65,96.214 251.484,97.528 C251.735,97.904 251.839,98.3 251.839,98.759 C251.818,101.243 251.839,103.726 251.818,106.209 C251.818,106.563 251.902,106.689 252.277,106.689 C252.966,106.668 253.634,106.668 254.322,106.689 C254.677,106.709 254.76,106.584 254.76,106.229 C254.739,103.559 254.76,100.888 254.739,98.238 C254.739,97.883 254.823,97.612 255.011,97.32 C255.991,95.776 256.951,94.232 257.932,92.687 C258.036,92.521 258.162,92.333 258.308,92.187 C258.641,91.853 259.1,91.853 259.434,92.187 C259.58,92.333 259.726,92.521 259.831,92.708 C260.832,94.315 261.834,95.922 262.856,97.508 C263.107,97.904 263.232,98.321 263.232,98.801 C263.211,101.263 263.232,103.705 263.232,106.167 C263.232,106.668 263.232,106.668 263.754,106.689 C264.442,106.689 265.11,106.668 265.798,106.689 C266.132,106.709 266.257,106.584 266.257,106.25 C266.237,103.58 266.257,100.909 266.237,98.259 C266.237,97.925 266.32,97.633 266.508,97.341 C267.489,95.797 268.448,94.252 269.429,92.708 C269.513,92.583 269.596,92.437 269.7,92.333 C270.118,91.832 270.618,91.832 271.036,92.312 C271.161,92.458 271.265,92.604 271.349,92.75 C272.35,94.336 273.331,95.901 274.333,97.487 C274.604,97.904 274.729,98.342 274.729,98.843 C274.708,101.305 274.729,103.746 274.708,106.209 C274.708,106.584 274.813,106.709 275.188,106.689 C275.814,106.668 276.44,106.647 277.087,106.689 C277.504,106.709 277.588,106.563 277.588,106.167 C277.567,103.6 277.588,101.013 277.567,98.446 C277.567,98.113 277.65,97.821 277.838,97.528 C278.861,95.943 279.862,94.336 280.864,92.729 C280.947,92.604 281.01,92.479 281.114,92.374 C281.594,91.79 282.136,91.769 282.575,92.395 C283.096,93.126 283.555,93.898 284.014,94.649 C284.64,95.63 285.266,96.631 285.892,97.612 C286.059,97.883 286.164,98.175 286.164,98.509 C286.164,114.033 286.164,129.558 286.164,145.082 C286.164,145.708 285.913,146 285.266,146 C283.013,146 280.738,146 278.485,146 C277.817,146 277.609,145.77 277.609,145.082 C277.609,142.348 277.609,139.615 277.609,136.881 C277.609,136.485 277.504,136.36 277.108,136.381 C276.482,136.423 275.856,136.402 275.209,136.381 C274.813,136.36 274.729,136.506 274.729,136.881 C274.75,139.552 274.729,142.223 274.729,144.873 C274.729,145.729 274.458,146 273.602,146 C271.453,146 269.304,146 267.134,146 C267.009,146 266.904,146 266.779,145.979 C266.424,145.937 266.237,145.77 266.237,145.353 C266.257,142.536 266.237,139.698 266.257,136.881 C266.257,136.485 266.153,136.36 265.757,136.381 C265.068,136.423 264.359,136.402 263.67,136.381 C263.315,136.36 263.232,136.506 263.232,136.84 C263.253,139.511 263.232,142.202 263.232,144.873 C263.232,145.729 262.982,146 262.105,146 C259.956,146 257.807,146 255.637,146 C255.512,146 255.407,146 255.282,145.979 C254.927,145.937 254.739,145.77 254.739,145.353 C254.76,142.536 254.739,139.698 254.76,136.881 C254.76,136.485 254.656,136.339 254.26,136.36 C253.592,136.402 252.924,136.381 252.256,136.36 C251.902,136.339 251.818,136.485 251.818,136.819 C251.839,139.49 251.818,142.182 251.818,144.852 C251.818,145.708 251.568,145.979 250.691,145.979 C248.542,145.979 246.393,145.979 244.223,145.979 C244.14,145.979 244.035,145.979 243.952,145.979 C243.472,145.937 243.326,145.791 243.326,145.311 C243.326,142.494 243.326,139.698 243.326,136.881 C243.326,136.485 243.242,136.339 242.825,136.36 C242.136,136.402 241.427,136.381 240.739,136.36 C240.384,136.339 240.3,136.464 240.3,136.819 C240.321,139.49 240.3,142.182 240.3,144.852 C240.3,145.708 240.05,145.979 239.174,145.979 C237.024,145.979 234.875,145.979 232.705,145.979 C232.622,145.979 232.538,145.979 232.476,145.979 C231.954,145.937 231.808,145.812 231.808,145.27 C231.808,138.05 231.808,130.83 231.808,123.611 C231.808,122.943 231.808,122.296 231.808,121.649 Z M284.682,121.587 C284.682,114.221 284.682,106.855 284.682,99.49 C284.682,99.052 284.599,98.634 284.369,98.259 C283.618,97.049 282.867,95.838 282.095,94.628 C281.886,94.315 281.823,94.315 281.615,94.649 C280.864,95.838 280.112,97.028 279.382,98.217 C279.153,98.613 278.986,99.031 278.986,99.511 C278.986,114.242 278.986,128.973 278.986,143.705 C278.986,144.289 279.048,144.372 279.653,144.372 C281.114,144.372 282.575,144.372 284.035,144.372 C284.682,144.372 284.703,144.352 284.703,143.705 C284.682,136.318 284.682,128.952 284.682,121.587 Z M233.122,121.629 C233.122,128.973 233.122,136.339 233.122,143.684 C233.122,144.289 233.164,144.352 233.728,144.352 C235.209,144.352 236.69,144.352 238.172,144.352 C238.694,144.352 238.819,144.226 238.819,143.684 C238.819,128.994 238.819,114.305 238.819,99.594 C238.819,99.114 238.715,98.634 238.464,98.196 C237.713,96.986 236.962,95.797 236.211,94.586 C236.002,94.252 235.918,94.252 235.689,94.607 C235.042,95.651 234.416,96.694 233.728,97.695 C233.289,98.342 233.122,99.01 233.122,99.761 C233.143,107.085 233.122,114.367 233.122,121.629 Z M250.337,121.67 C250.337,114.367 250.337,107.064 250.337,99.761 C250.337,99.219 250.253,98.676 249.961,98.217 C249.231,97.028 248.48,95.838 247.729,94.649 C247.499,94.273 247.416,94.294 247.186,94.649 C246.539,95.692 245.913,96.735 245.225,97.737 C244.786,98.384 244.64,99.052 244.64,99.803 C244.64,107.857 244.64,115.932 244.64,123.986 C244.64,130.559 244.64,137.111 244.64,143.684 C244.64,144.289 244.682,144.331 245.287,144.331 C246.706,144.331 248.125,144.331 249.544,144.331 C250.274,144.331 250.337,144.268 250.337,143.538 C250.337,136.276 250.337,128.973 250.337,121.67 Z M256.054,121.649 C256.054,128.994 256.054,136.36 256.054,143.705 C256.054,144.31 256.096,144.372 256.701,144.372 C258.141,144.372 259.58,144.372 261.041,144.372 C261.646,144.372 261.75,144.268 261.75,143.663 C261.75,142.787 261.75,141.91 261.75,141.034 C261.75,127.283 261.75,113.533 261.75,99.782 C261.75,99.219 261.646,98.655 261.333,98.175 C260.603,97.007 259.893,95.859 259.163,94.711 C258.913,94.294 258.829,94.294 258.579,94.711 C257.932,95.734 257.327,96.777 256.638,97.779 C256.2,98.426 256.033,99.093 256.033,99.845 C256.054,107.085 256.054,114.367 256.054,121.649 Z M267.572,121.608 C267.572,128.973 267.572,136.339 267.572,143.705 C267.572,144.31 267.614,144.372 268.219,144.372 C269.659,144.372 271.098,144.372 272.559,144.372 C273.164,144.372 273.268,144.268 273.268,143.663 C273.268,142.703 273.268,141.743 273.268,140.783 C273.268,127.116 273.268,113.449 273.268,99.782 C273.268,99.219 273.164,98.655 272.851,98.175 C272.121,97.007 271.411,95.859 270.681,94.711 C270.431,94.294 270.347,94.294 270.097,94.711 C269.45,95.734 268.845,96.777 268.156,97.779 C267.718,98.426 267.551,99.093 267.551,99.845 C267.572,107.085 267.572,114.346 267.572,121.608 Z M240.3,121.482 C240.3,124.174 240.3,126.866 240.3,129.558 C240.3,129.891 240.384,130.017 240.739,130.017 C241.469,129.996 242.199,129.996 242.95,130.017 C243.242,130.017 243.326,129.912 243.326,129.62 C243.326,124.216 243.326,118.833 243.326,113.428 C243.326,113.136 243.242,113.032 242.95,113.032 C242.22,113.053 241.51,113.053 240.78,113.032 C240.384,113.011 240.3,113.157 240.3,113.533 C240.3,116.183 240.3,118.833 240.3,121.482 Z M266.257,121.524 C266.257,118.853 266.257,116.162 266.257,113.491 C266.257,113.157 266.174,113.032 265.819,113.032 C265.089,113.053 264.359,113.053 263.608,113.032 C263.315,113.032 263.232,113.136 263.232,113.428 C263.232,118.833 263.232,124.216 263.232,129.62 C263.232,129.912 263.315,130.017 263.608,130.017 C264.338,129.996 265.047,129.996 265.778,130.017 C266.174,130.038 266.257,129.891 266.257,129.516 C266.237,126.845 266.257,124.174 266.257,121.524 Z M254.739,121.566 C254.739,118.874 254.739,116.183 254.739,113.491 C254.739,113.157 254.656,113.032 254.301,113.032 C253.592,113.053 252.882,113.053 252.173,113.032 C251.881,113.032 251.797,113.136 251.797,113.428 C251.797,118.833 251.797,124.216 251.797,129.62 C251.797,129.912 251.881,130.017 252.173,130.017 C252.862,129.996 253.571,129.996 254.26,130.017 C254.656,130.038 254.739,129.891 254.739,129.516 C254.739,126.866 254.739,124.216 254.739,121.566 Z M277.588,121.566 C277.588,118.874 277.588,116.183 277.588,113.491 C277.588,113.157 277.504,113.032 277.15,113.032 C276.503,113.053 275.856,113.074 275.23,113.032 C274.813,113.011 274.729,113.157 274.729,113.553 C274.75,116.349 274.729,119.146 274.729,121.942 C274.729,124.487 274.729,127.033 274.729,129.578 C274.729,129.891 274.813,130.017 275.146,130.017 C275.793,129.996 276.461,129.996 277.108,130.017 C277.504,130.038 277.588,129.891 277.588,129.516 C277.588,126.866 277.588,124.216 277.588,121.566 Z M266.257,109.881 C266.257,109.464 266.257,109.046 266.257,108.629 C266.257,108.4 266.174,108.295 265.924,108.295 C265.131,108.295 264.338,108.295 263.566,108.295 C263.336,108.295 263.232,108.358 263.232,108.608 C263.232,109.443 263.232,110.257 263.232,111.091 C263.232,111.3 263.315,111.404 263.545,111.404 C264.338,111.404 265.152,111.404 265.945,111.404 C266.195,111.404 266.257,111.3 266.257,111.07 C266.237,110.674 266.257,110.277 266.257,109.881 Z M243.326,133.23 C243.326,132.813 243.326,132.395 243.326,131.978 C243.326,131.749 243.242,131.644 243.013,131.644 C242.22,131.644 241.406,131.644 240.613,131.644 C240.384,131.644 240.321,131.749 240.321,131.957 C240.321,132.792 240.321,133.606 240.321,134.44 C240.321,134.649 240.405,134.753 240.613,134.753 C241.406,134.753 242.22,134.753 243.013,134.753 C243.263,134.753 243.347,134.649 243.326,134.419 C243.305,134.002 243.326,133.606 243.326,133.23 Z M266.257,133.188 C266.257,132.771 266.257,132.375 266.257,131.957 C266.257,131.728 266.195,131.623 265.945,131.623 C265.152,131.623 264.338,131.623 263.545,131.623 C263.295,131.623 263.232,131.728 263.232,131.957 C263.232,132.771 263.232,133.585 263.232,134.399 C263.232,134.628 263.315,134.732 263.566,134.711 C264.359,134.711 265.152,134.711 265.924,134.711 C266.195,134.711 266.257,134.586 266.257,134.357 C266.237,133.981 266.257,133.585 266.257,133.188 Z M243.326,109.902 C243.326,109.485 243.326,109.067 243.326,108.65 C243.326,108.42 243.242,108.316 243.013,108.316 C242.22,108.316 241.427,108.316 240.655,108.316 C240.425,108.316 240.321,108.379 240.321,108.629 C240.321,109.464 240.321,110.277 240.321,111.112 C240.321,111.321 240.405,111.425 240.613,111.425 C241.406,111.425 242.22,111.425 243.013,111.425 C243.263,111.425 243.326,111.321 243.326,111.091 C243.305,110.674 243.326,110.277 243.326,109.902 Z M251.797,109.86 C251.797,110.277 251.797,110.695 251.797,111.112 C251.797,111.3 251.881,111.404 252.069,111.404 C252.862,111.404 253.654,111.404 254.427,111.404 C254.656,111.404 254.719,111.3 254.719,111.091 C254.719,110.257 254.719,109.443 254.719,108.608 C254.719,108.4 254.635,108.295 254.427,108.295 C253.654,108.295 252.882,108.295 252.11,108.295 C251.86,108.295 251.777,108.4 251.797,108.629 C251.818,109.046 251.797,109.443 251.797,109.86 Z M254.739,133.209 C254.739,132.792 254.739,132.395 254.739,131.978 C254.739,131.728 254.677,131.623 254.406,131.623 C253.654,131.644 252.882,131.623 252.11,131.623 C251.881,131.623 251.777,131.707 251.797,131.957 C251.797,132.771 251.797,133.585 251.797,134.399 C251.797,134.628 251.86,134.732 252.11,134.732 C252.882,134.732 253.654,134.732 254.427,134.732 C254.656,134.732 254.739,134.649 254.719,134.419 C254.739,134.023 254.739,133.606 254.739,133.209 Z M277.588,109.86 C277.588,109.443 277.588,109.026 277.588,108.608 C277.588,108.42 277.504,108.316 277.316,108.316 C276.544,108.316 275.793,108.316 275.021,108.316 C274.792,108.316 274.729,108.42 274.729,108.629 C274.729,109.464 274.729,110.277 274.729,111.112 C274.729,111.321 274.813,111.425 275.021,111.425 C275.772,111.425 276.523,111.425 277.275,111.425 C277.525,111.425 277.609,111.321 277.588,111.091 C277.588,110.674 277.588,110.257 277.588,109.86 Z M277.588,133.23 C277.588,132.813 277.588,132.395 277.588,131.978 C277.588,131.749 277.504,131.644 277.275,131.644 C276.523,131.644 275.772,131.644 275.021,131.644 C274.792,131.644 274.729,131.749 274.729,131.957 C274.729,132.792 274.729,133.606 274.729,134.44 C274.729,134.649 274.813,134.753 275.021,134.753 C275.772,134.753 276.523,134.753 277.275,134.753 C277.525,134.753 277.609,134.649 277.588,134.419 C277.588,134.002 277.588,133.606 277.588,133.23 Z" />
            <path d="M230.013,129.641 C229.763,129.641 229.512,129.662 229.262,129.641 C227.822,129.558 226.883,128.556 226.883,127.033 C226.862,125.489 226.883,123.966 226.862,122.421 C226.842,120.669 226.633,118.937 226.487,117.205 C226.403,116.141 226.32,115.098 226.236,114.033 C226.111,112.385 225.965,110.737 226.007,109.088 C226.07,106.668 226.132,104.226 226.779,101.868 C227.322,99.886 228.198,98.092 229.825,96.735 C230.138,96.464 229.867,96.402 229.679,96.318 C228.74,95.922 227.864,95.421 227.155,94.691 C226.737,94.252 226.445,93.752 226.236,93.188 C226.111,92.813 226.153,92.479 226.362,92.145 C226.779,91.477 227.405,91.039 228.135,90.789 C229.533,90.267 230.994,90.038 232.475,89.933 C232.997,89.892 233.519,89.871 234.04,89.829 C234.416,89.808 234.729,89.933 234.979,90.225 C235.209,90.538 235.459,90.851 235.71,91.164 C235.835,91.331 235.877,91.456 235.605,91.519 C235.084,91.644 234.729,91.978 234.458,92.416 C233.56,93.835 232.663,95.254 231.766,96.673 C231.328,97.362 231.223,98.133 231.223,98.926 C231.223,105.395 231.223,111.884 231.223,118.353 C231.223,121.879 231.223,125.426 231.223,128.952 C231.223,129.662 231.223,129.662 230.535,129.662 C230.347,129.641 230.18,129.641 230.013,129.641 Z" />
            <path d="M264.63,91.728 C266.028,91.728 267.447,91.728 268.845,91.728 C269.012,91.728 269.241,91.644 269.325,91.811 C269.387,91.957 269.158,92.041 269.074,92.166 C268.511,92.938 268.031,93.752 267.53,94.545 C267.134,95.191 266.717,95.838 266.32,96.485 C265.861,97.195 265.652,97.967 265.673,98.801 C265.694,100.763 265.673,102.745 265.673,104.706 C265.673,105.687 265.652,105.729 264.672,105.729 C263.962,105.729 263.879,105.666 263.858,104.915 C263.858,103.121 263.816,101.347 263.858,99.552 C263.879,98.446 263.608,97.466 263.002,96.548 C262.168,95.275 261.396,94.002 260.582,92.729 C260.436,92.479 260.227,92.27 260.06,92.041 C259.998,91.978 259.893,91.916 259.935,91.811 C259.977,91.707 260.102,91.749 260.186,91.749 C261.041,91.749 261.897,91.749 262.752,91.749 C263.357,91.707 263.983,91.707 264.63,91.728 Z" />
            <path d="M252.403,101.848 C252.403,100.95 252.382,100.032 252.403,99.135 C252.423,98.3 252.194,97.549 251.756,96.861 C250.775,95.317 249.857,93.752 248.814,92.249 C248.772,92.187 248.668,92.103 248.709,92.02 C248.751,91.916 248.876,91.957 248.96,91.957 C250.316,91.916 251.693,91.853 253.049,91.811 C254.468,91.769 255.908,91.749 257.348,91.728 C257.494,91.728 257.723,91.644 257.786,91.79 C257.87,91.957 257.64,92.041 257.557,92.145 C256.972,92.938 256.492,93.773 255.971,94.586 C255.574,95.191 255.22,95.817 254.823,96.422 C254.343,97.174 254.114,97.987 254.134,98.885 C254.155,100.825 254.134,102.766 254.134,104.706 C254.134,105.687 254.114,105.708 253.133,105.708 C252.528,105.708 252.423,105.624 252.423,104.998 C252.403,103.955 252.403,102.912 252.403,101.848 Z" />
            <path d="M275.334,101.827 C275.334,100.93 275.334,100.032 275.334,99.156 C275.334,98.405 275.188,97.695 274.791,97.049 C273.852,95.525 272.893,94.023 271.954,92.521 C271.912,92.458 271.849,92.395 271.808,92.333 C271.724,92.145 271.39,92.02 271.495,91.832 C271.599,91.644 271.912,91.749 272.121,91.749 C272.517,91.749 272.913,91.769 273.31,91.79 C275.626,91.853 277.921,91.895 280.237,91.957 C280.342,91.957 280.488,91.916 280.55,92.041 C280.592,92.145 280.488,92.228 280.425,92.312 C279.486,93.773 278.568,95.233 277.629,96.694 C277.17,97.403 276.961,98.196 276.982,99.052 C277.003,100.888 276.982,102.724 276.982,104.56 C276.982,105.708 276.92,105.77 275.793,105.708 C275.563,105.687 275.438,105.583 275.397,105.374 C275.334,105.124 275.334,104.873 275.334,104.623 C275.334,103.684 275.334,102.766 275.334,101.827 Z" />
            <path d="M240.905,121.629 C240.905,120.272 240.926,118.916 240.905,117.581 C240.905,117.184 241.03,117.038 241.427,117.08 C241.74,117.101 242.053,117.101 242.366,117.08 C242.616,117.059 242.72,117.184 242.72,117.434 C242.72,117.518 242.72,117.601 242.72,117.664 C242.72,120.314 242.72,122.964 242.72,125.614 C242.72,126.198 242.72,126.198 242.136,126.198 C240.905,126.198 240.905,126.198 240.905,124.988 C240.905,123.861 240.905,122.755 240.905,121.629 Z" />
            <path d="M241.781,114.68 C241.615,114.68 241.468,114.68 241.302,114.68 C241.093,114.68 240.884,114.659 240.926,114.367 C240.947,114.138 240.988,113.908 241.302,113.929 C241.635,113.929 241.948,113.95 242.282,113.929 C242.616,113.908 242.679,114.138 242.679,114.388 C242.699,114.68 242.491,114.68 242.282,114.68 C242.115,114.68 241.948,114.68 241.781,114.68 Z" />
            <path d="M263.837,119.897 C263.837,118.248 263.837,116.6 263.837,114.931 C263.837,114.805 263.837,114.701 263.837,114.576 C263.858,113.971 263.921,113.908 264.526,113.908 C264.651,113.908 264.797,113.908 264.922,113.908 C265.569,113.908 265.632,113.971 265.632,114.618 C265.632,118.165 265.632,121.733 265.632,125.28 C265.632,125.572 265.548,125.718 265.214,125.697 C264.881,125.677 264.526,125.677 264.192,125.697 C263.858,125.718 263.795,125.53 263.795,125.259 C263.795,124.195 263.795,123.131 263.795,122.067 C263.837,121.378 263.837,120.627 263.837,119.897 Z" />
            <path d="M254.155,119.98 C254.155,121.733 254.155,123.465 254.155,125.217 C254.155,125.614 254.03,125.781 253.633,125.718 C253.404,125.697 253.154,125.697 252.924,125.718 C252.528,125.76 252.402,125.614 252.402,125.217 C252.423,121.733 252.402,118.248 252.402,114.743 C252.402,114.638 252.402,114.534 252.423,114.43 C252.444,114.075 252.569,113.866 252.987,113.908 C253.112,113.929 253.258,113.908 253.383,113.908 C254.092,113.908 254.155,113.95 254.155,114.701 C254.155,116.475 254.155,118.227 254.155,119.98 Z" />
            <path d="M275.334,119.897 C275.334,118.269 275.334,116.642 275.334,115.014 C275.334,114.868 275.334,114.722 275.334,114.576 C275.355,113.971 275.418,113.908 276.023,113.908 C276.983,113.908 276.983,113.908 276.983,114.889 C276.983,118.29 276.983,121.691 276.983,125.092 C276.983,125.718 276.983,125.718 276.378,125.718 C275.314,125.718 275.314,125.718 275.314,124.654 C275.334,123.068 275.334,121.482 275.334,119.897 Z" />
        </g>
        <g id="Regular-S">
            <path d="M493.863,91.498 C494.197,91.06 494.51,90.663 494.823,90.267 C495.052,89.975 495.345,89.829 495.741,89.829 C497.619,89.85 499.476,90.058 501.291,90.58 C501.896,90.747 502.481,90.997 502.981,91.394 C503.879,92.103 504.046,92.896 503.482,93.877 C503.002,94.711 502.293,95.296 501.458,95.755 C501.062,95.984 500.644,96.151 500.227,96.36 C500.039,96.443 499.935,96.548 500.144,96.715 C502.355,98.53 503.148,101.034 503.586,103.726 C503.962,106.021 504.066,108.337 503.962,110.674 C503.858,112.802 503.712,114.952 503.524,117.08 C503.357,118.812 503.253,120.564 503.169,122.296 C503.086,123.903 503.065,125.51 503.128,127.095 C503.169,128.41 502.042,129.745 500.519,129.704 C498.307,129.641 496.075,129.704 493.863,129.662 C492.82,129.641 491.755,129.683 490.712,129.683 C489.293,129.704 488.146,128.744 488.062,127.325 C488,126.365 487.791,126.49 487.123,126.407 C486.769,126.365 486.664,126.24 486.664,125.885 C486.685,123.11 486.664,120.335 486.664,117.581 C486.664,117.08 486.685,117.038 487.207,117.059 C488.709,117.142 490.191,117.101 491.693,117.101 C492.298,117.101 492.903,117.059 493.508,117.038 C493.967,117.017 494.385,116.871 494.718,116.537 C495.157,116.099 495.115,115.515 494.635,115.139 C494.218,114.805 493.738,114.722 493.237,114.722 C491.276,114.722 489.293,114.722 487.332,114.722 C486.685,114.722 486.685,114.722 486.685,114.054 C486.685,113.324 486.685,112.594 486.685,111.842 C486.685,111.696 486.664,111.509 486.936,111.571 C488.104,111.884 489.314,111.801 490.504,111.822 C491.776,111.822 493.049,111.822 494.322,111.759 C496.221,111.675 497.348,110.59 498.036,108.942 C498.266,108.4 498.37,107.836 498.37,107.252 C498.37,106.25 497.89,105.729 496.889,105.645 C496.221,105.583 495.574,105.666 494.927,105.75 C493.07,105.979 491.213,106.209 489.356,106.522 C488.5,106.668 487.708,106.96 487.04,107.523 C486.956,107.586 486.873,107.753 486.748,107.669 C486.643,107.607 486.685,107.461 486.685,107.335 C486.685,104.393 486.664,101.451 486.685,98.509 C486.685,97.904 486.539,97.403 486.226,96.923 C485.266,95.4 484.306,93.877 483.326,92.374 C483.284,92.291 483.18,92.228 483.263,92.124 C483.326,92.062 483.409,92.082 483.493,92.082 C485.35,92.208 487.207,92.27 489.064,92.5 C489.147,92.521 489.252,92.5 489.335,92.5 C489.586,92.5 489.648,92.395 489.544,92.187 C488.292,89.14 486.915,86.136 485.141,83.34 C484.515,82.359 483.597,82.004 482.512,81.837 C480.404,81.524 478.297,81.149 476.169,80.898 C474.583,80.71 472.997,80.564 471.39,80.46 C469.116,80.335 466.821,80.231 464.546,80.251 C461.98,80.272 459.413,80.418 456.847,80.627 C453.592,80.877 450.358,81.399 447.144,81.9 C446.143,82.067 445.35,82.568 444.828,83.444 C444.682,83.673 444.557,83.924 444.39,84.153 C442.7,86.49 441.615,89.14 440.509,91.769 C440.196,92.521 440.258,92.583 441.093,92.479 C442.637,92.27 444.181,92.145 445.725,92.103 C445.83,92.103 445.997,92.041 446.059,92.145 C446.143,92.27 445.976,92.374 445.913,92.479 C445.079,93.793 444.244,95.129 443.409,96.443 C442.95,97.174 442.721,97.967 442.741,98.822 C442.762,100.783 442.741,102.745 442.741,104.685 C442.741,105.666 442.721,105.687 441.74,105.687 C441.031,105.687 440.947,105.604 440.947,104.873 C440.947,103.121 440.905,101.347 440.947,99.594 C440.989,98.384 440.655,97.32 439.987,96.339 C439.215,95.171 438.485,93.96 437.734,92.771 C437.4,92.27 437.066,91.749 436.461,91.519 C436.21,91.415 436.273,91.248 436.357,91.06 C436.795,89.975 437.212,88.89 437.692,87.826 C438.652,85.614 439.82,83.486 441.072,81.42 C442.366,79.292 444.223,78.102 446.685,77.727 C448.876,77.393 451.046,76.975 453.258,76.746 C454.614,76.6 455.97,76.516 457.327,76.391 C459.246,76.224 461.166,76.099 463.107,76.037 C464.087,75.995 465.047,75.974 466.028,76.057 C466.153,76.057 466.257,76.078 466.383,76.078 C469.554,76.078 472.705,76.245 475.835,76.621 C478.506,76.955 481.156,77.372 483.806,77.81 C486.122,78.186 487.812,79.5 489.022,81.462 C490.504,83.861 491.776,86.386 492.882,88.994 C493.174,89.808 493.508,90.643 493.863,91.498 Z" />
            <path d="M431.808,121.649 C431.808,113.866 431.808,106.083 431.808,98.28 C431.808,97.904 431.891,97.57 432.1,97.257 C433.06,95.734 434.02,94.211 434.979,92.687 C435.042,92.583 435.105,92.5 435.188,92.395 C435.689,91.749 436.231,91.749 436.711,92.416 C437.024,92.854 437.316,93.334 437.609,93.814 C438.381,95.045 439.132,96.256 439.925,97.487 C440.196,97.904 440.321,98.321 440.321,98.822 C440.3,101.284 440.321,103.767 440.3,106.229 C440.3,106.605 440.405,106.709 440.78,106.689 C441.469,106.668 442.136,106.668 442.825,106.689 C443.221,106.709 443.347,106.605 443.347,106.188 C443.326,103.559 443.347,100.93 443.326,98.3 C443.326,97.904 443.43,97.57 443.639,97.236 C444.599,95.734 445.538,94.211 446.497,92.708 C446.581,92.562 446.685,92.416 446.79,92.291 C447.207,91.811 447.729,91.79 448.125,92.291 C448.438,92.687 448.688,93.147 448.98,93.564 C449.815,94.878 450.65,96.214 451.484,97.528 C451.735,97.904 451.839,98.3 451.839,98.759 C451.818,101.243 451.839,103.726 451.818,106.209 C451.818,106.563 451.902,106.689 452.277,106.689 C452.966,106.668 453.634,106.668 454.322,106.689 C454.677,106.709 454.76,106.584 454.76,106.229 C454.74,103.559 454.76,100.888 454.74,98.238 C454.74,97.883 454.823,97.612 455.011,97.32 C455.991,95.776 456.951,94.232 457.932,92.687 C458.036,92.521 458.162,92.333 458.308,92.187 C458.641,91.853 459.1,91.853 459.434,92.187 C459.58,92.333 459.726,92.521 459.831,92.708 C460.832,94.315 461.834,95.922 462.856,97.508 C463.107,97.904 463.232,98.321 463.232,98.801 C463.211,101.263 463.232,103.705 463.232,106.167 C463.232,106.668 463.232,106.668 463.754,106.689 C464.442,106.689 465.11,106.668 465.798,106.689 C466.132,106.709 466.257,106.584 466.257,106.25 C466.237,103.58 466.257,100.909 466.237,98.259 C466.237,97.925 466.32,97.633 466.508,97.341 C467.489,95.797 468.448,94.252 469.429,92.708 C469.513,92.583 469.596,92.437 469.7,92.333 C470.118,91.832 470.618,91.832 471.036,92.312 C471.161,92.458 471.265,92.604 471.349,92.75 C472.35,94.336 473.331,95.901 474.333,97.487 C474.604,97.904 474.729,98.342 474.729,98.843 C474.708,101.305 474.729,103.746 474.708,106.209 C474.708,106.584 474.813,106.709 475.188,106.689 C475.814,106.668 476.44,106.647 477.087,106.689 C477.504,106.709 477.588,106.563 477.588,106.167 C477.567,103.6 477.588,101.013 477.567,98.446 C477.567,98.113 477.65,97.821 477.838,97.528 C478.861,95.943 479.862,94.336 480.864,92.729 C480.947,92.604 481.01,92.479 481.114,92.374 C481.594,91.79 482.136,91.769 482.575,92.395 C483.096,93.126 483.555,93.898 484.014,94.649 C484.64,95.63 485.266,96.631 485.892,97.612 C486.059,97.883 486.164,98.175 486.164,98.509 C486.164,114.033 486.164,129.558 486.164,145.082 C486.164,145.708 485.913,146 485.266,146 C483.013,146 480.738,146 478.485,146 C477.817,146 477.609,145.77 477.609,145.082 C477.609,142.348 477.609,139.615 477.609,136.881 C477.609,136.485 477.504,136.36 477.108,136.381 C476.482,136.423 475.856,136.402 475.209,136.381 C474.813,136.36 474.729,136.506 474.729,136.881 C474.75,139.552 474.729,142.223 474.729,144.873 C474.729,145.729 474.458,146 473.602,146 C471.453,146 469.304,146 467.134,146 C467.009,146 466.904,146 466.779,145.979 C466.424,145.937 466.237,145.77 466.237,145.353 C466.257,142.536 466.237,139.698 466.257,136.881 C466.257,136.485 466.153,136.36 465.757,136.381 C465.068,136.423 464.359,136.402 463.67,136.381 C463.315,136.36 463.232,136.506 463.232,136.84 C463.253,139.511 463.232,142.202 463.232,144.873 C463.232,145.729 462.982,146 462.105,146 C459.956,146 457.807,146 455.637,146 C455.512,146 455.407,146 455.282,145.979 C454.927,145.937 454.74,145.77 454.74,145.353 C454.76,142.536 454.74,139.698 454.76,136.881 C454.76,136.485 454.656,136.339 454.26,136.36 C453.592,136.402 452.924,136.381 452.256,136.36 C451.902,136.339 451.818,136.485 451.818,136.819 C451.839,139.49 451.818,142.182 451.818,144.852 C451.818,145.708 451.568,145.979 450.691,145.979 C448.542,145.979 446.393,145.979 444.223,145.979 C444.14,145.979 444.035,145.979 443.952,145.979 C443.472,145.937 443.326,145.791 443.326,145.311 C443.326,142.494 443.326,139.698 443.326,136.881 C443.326,136.485 443.242,136.339 442.825,136.36 C442.136,136.402 441.427,136.381 440.738,136.36 C440.384,136.339 440.3,136.464 440.3,136.819 C440.321,139.49 440.3,142.182 440.3,144.852 C440.3,145.708 440.05,145.979 439.173,145.979 C437.024,145.979 434.875,145.979 432.705,145.979 C432.622,145.979 432.538,145.979 432.476,145.979 C431.954,145.937 431.808,145.812 431.808,145.27 C431.808,138.05 431.808,130.83 431.808,123.611 C431.808,122.943 431.808,122.296 431.808,121.649 Z M484.682,121.587 C484.682,114.221 484.682,106.855 484.682,99.49 C484.682,99.052 484.599,98.634 484.369,98.259 C483.618,97.049 482.867,95.838 482.095,94.628 C481.886,94.315 481.823,94.315 481.615,94.649 C480.864,95.838 480.112,97.028 479.382,98.217 C479.153,98.613 478.986,99.031 478.986,99.511 C478.986,114.242 478.986,128.973 478.986,143.705 C478.986,144.289 479.048,144.372 479.653,144.372 C481.114,144.372 482.575,144.372 484.035,144.372 C484.682,144.372 484.703,144.352 484.703,143.705 C484.682,136.318 484.682,128.952 484.682,121.587 Z M433.122,121.629 C433.122,128.973 433.122,136.339 433.122,143.684 C433.122,144.289 433.164,144.352 433.728,144.352 C435.209,144.352 436.69,144.352 438.172,144.352 C438.694,144.352 438.819,144.226 438.819,143.684 C438.819,128.994 438.819,114.305 438.819,99.594 C438.819,99.114 438.715,98.634 438.464,98.196 C437.713,96.986 436.962,95.797 436.211,94.586 C436.002,94.252 435.918,94.252 435.689,94.607 C435.042,95.651 434.416,96.694 433.728,97.695 C433.289,98.342 433.122,99.01 433.122,99.761 C433.143,107.085 433.122,114.367 433.122,121.629 Z M450.337,121.67 C450.337,114.367 450.337,107.064 450.337,99.761 C450.337,99.219 450.253,98.676 449.961,98.217 C449.231,97.028 448.48,95.838 447.729,94.649 C447.499,94.273 447.416,94.294 447.186,94.649 C446.539,95.692 445.913,96.735 445.225,97.737 C444.786,98.384 444.64,99.052 444.64,99.803 C444.64,107.857 444.64,115.932 444.64,123.986 C444.64,130.559 444.64,137.111 444.64,143.684 C444.64,144.289 444.682,144.331 445.287,144.331 C446.706,144.331 448.125,144.331 449.544,144.331 C450.274,144.331 450.337,144.268 450.337,143.538 C450.337,136.276 450.337,128.973 450.337,121.67 Z M456.054,121.649 C456.054,128.994 456.054,136.36 456.054,143.705 C456.054,144.31 456.096,144.372 456.701,144.372 C458.141,144.372 459.58,144.372 461.041,144.372 C461.646,144.372 461.75,144.268 461.75,143.663 C461.75,142.787 461.75,141.91 461.75,141.034 C461.75,127.283 461.75,113.533 461.75,99.782 C461.75,99.219 461.646,98.655 461.333,98.175 C460.603,97.007 459.893,95.859 459.163,94.711 C458.913,94.294 458.829,94.294 458.579,94.711 C457.932,95.734 457.327,96.777 456.638,97.779 C456.2,98.426 456.033,99.093 456.033,99.845 C456.054,107.085 456.054,114.367 456.054,121.649 Z M467.572,121.608 C467.572,128.973 467.572,136.339 467.572,143.705 C467.572,144.31 467.614,144.372 468.219,144.372 C469.659,144.372 471.098,144.372 472.559,144.372 C473.164,144.372 473.268,144.268 473.268,143.663 C473.268,142.703 473.268,141.743 473.268,140.783 C473.268,127.116 473.268,113.449 473.268,99.782 C473.268,99.219 473.164,98.655 472.851,98.175 C472.121,97.007 471.411,95.859 470.681,94.711 C470.431,94.294 470.347,94.294 470.097,94.711 C469.45,95.734 468.845,96.777 468.156,97.779 C467.718,98.426 467.551,99.093 467.551,99.845 C467.572,107.085 467.572,114.346 467.572,121.608 Z M440.3,121.482 C440.3,124.174 440.3,126.866 440.3,129.558 C440.3,129.891 440.384,130.017 440.738,130.017 C441.469,129.996 442.199,129.996 442.95,130.017 C443.242,130.017 443.326,129.912 443.326,129.62 C443.326,124.216 443.326,118.833 443.326,113.428 C443.326,113.136 443.242,113.032 442.95,113.032 C442.22,113.053 441.51,113.053 440.78,113.032 C440.384,113.011 440.3,113.157 440.3,113.533 C440.3,116.183 440.3,118.833 440.3,121.482 Z M466.257,121.524 C466.257,118.853 466.257,116.162 466.257,113.491 C466.257,113.157 466.174,113.032 465.819,113.032 C465.089,113.053 464.359,113.053 463.608,113.032 C463.315,113.032 463.232,113.136 463.232,113.428 C463.232,118.833 463.232,124.216 463.232,129.62 C463.232,129.912 463.315,130.017 463.608,130.017 C464.338,129.996 465.047,129.996 465.778,130.017 C466.174,130.038 466.257,129.891 466.257,129.516 C466.237,126.845 466.257,124.174 466.257,121.524 Z M454.74,121.566 C454.74,118.874 454.74,116.183 454.74,113.491 C454.74,113.157 454.656,113.032 454.301,113.032 C453.592,113.053 452.882,113.053 452.173,113.032 C451.881,113.032 451.797,113.136 451.797,113.428 C451.797,118.833 451.797,124.216 451.797,129.62 C451.797,129.912 451.881,130.017 452.173,130.017 C452.862,129.996 453.571,129.996 454.26,130.017 C454.656,130.038 454.74,129.891 454.74,129.516 C454.74,126.866 454.74,124.216 454.74,121.566 Z M477.588,121.566 C477.588,118.874 477.588,116.183 477.588,113.491 C477.588,113.157 477.504,113.032 477.15,113.032 C476.503,113.053 475.856,113.074 475.23,113.032 C474.813,113.011 474.729,113.157 474.729,113.553 C474.75,116.349 474.729,119.146 474.729,121.942 C474.729,124.487 474.729,127.033 474.729,129.578 C474.729,129.891 474.813,130.017 475.146,130.017 C475.793,129.996 476.461,129.996 477.108,130.017 C477.504,130.038 477.588,129.891 477.588,129.516 C477.588,126.866 477.588,124.216 477.588,121.566 Z M466.257,109.881 C466.257,109.464 466.257,109.046 466.257,108.629 C466.257,108.4 466.174,108.295 465.924,108.295 C465.131,108.295 464.338,108.295 463.566,108.295 C463.336,108.295 463.232,108.358 463.232,108.608 C463.232,109.443 463.232,110.257 463.232,111.091 C463.232,111.3 463.315,111.404 463.545,111.404 C464.338,111.404 465.152,111.404 465.945,111.404 C466.195,111.404 466.257,111.3 466.257,111.07 C466.237,110.674 466.257,110.277 466.257,109.881 Z M443.326,133.23 C443.326,132.813 443.326,132.395 443.326,131.978 C443.326,131.749 443.242,131.644 443.013,131.644 C442.22,131.644 441.406,131.644 440.613,131.644 C440.384,131.644 440.321,131.749 440.321,131.957 C440.321,132.792 440.321,133.606 440.321,134.44 C440.321,134.649 440.405,134.753 440.613,134.753 C441.406,134.753 442.22,134.753 443.013,134.753 C443.263,134.753 443.347,134.649 443.326,134.419 C443.305,134.002 443.326,133.606 443.326,133.23 Z M466.257,133.188 C466.257,132.771 466.257,132.375 466.257,131.957 C466.257,131.728 466.195,131.623 465.945,131.623 C465.152,131.623 464.338,131.623 463.545,131.623 C463.295,131.623 463.232,131.728 463.232,131.957 C463.232,132.771 463.232,133.585 463.232,134.399 C463.232,134.628 463.315,134.732 463.566,134.711 C464.359,134.711 465.152,134.711 465.924,134.711 C466.195,134.711 466.257,134.586 466.257,134.357 C466.237,133.981 466.257,133.585 466.257,133.188 Z M443.326,109.902 C443.326,109.485 443.326,109.067 443.326,108.65 C443.326,108.42 443.242,108.316 443.013,108.316 C442.22,108.316 441.427,108.316 440.655,108.316 C440.425,108.316 440.321,108.379 440.321,108.629 C440.321,109.464 440.321,110.277 440.321,111.112 C440.321,111.321 440.405,111.425 440.613,111.425 C441.406,111.425 442.22,111.425 443.013,111.425 C443.263,111.425 443.326,111.321 443.326,111.091 C443.305,110.674 443.326,110.277 443.326,109.902 Z M451.797,109.86 C451.797,110.277 451.797,110.695 451.797,111.112 C451.797,111.3 451.881,111.404 452.069,111.404 C452.862,111.404 453.654,111.404 454.427,111.404 C454.656,111.404 454.719,111.3 454.719,111.091 C454.719,110.257 454.719,109.443 454.719,108.608 C454.719,108.4 454.635,108.295 454.427,108.295 C453.654,108.295 452.882,108.295 452.11,108.295 C451.86,108.295 451.777,108.4 451.797,108.629 C451.818,109.046 451.797,109.443 451.797,109.86 Z M454.74,133.209 C454.74,132.792 454.74,132.395 454.74,131.978 C454.74,131.728 454.677,131.623 454.406,131.623 C453.654,131.644 452.882,131.623 452.11,131.623 C451.881,131.623 451.777,131.707 451.797,131.957 C451.797,132.771 451.797,133.585 451.797,134.399 C451.797,134.628 451.86,134.732 452.11,134.732 C452.882,134.732 453.654,134.732 454.427,134.732 C454.656,134.732 454.74,134.649 454.719,134.419 C454.74,134.023 454.74,133.606 454.74,133.209 Z M477.588,109.86 C477.588,109.443 477.588,109.026 477.588,108.608 C477.588,108.42 477.504,108.316 477.316,108.316 C476.544,108.316 475.793,108.316 475.021,108.316 C474.792,108.316 474.729,108.42 474.729,108.629 C474.729,109.464 474.729,110.277 474.729,111.112 C474.729,111.321 474.813,111.425 475.021,111.425 C475.772,111.425 476.523,111.425 477.275,111.425 C477.525,111.425 477.609,111.321 477.588,111.091 C477.588,110.674 477.588,110.257 477.588,109.86 Z M477.588,133.23 C477.588,132.813 477.588,132.395 477.588,131.978 C477.588,131.749 477.504,131.644 477.275,131.644 C476.523,131.644 475.772,131.644 475.021,131.644 C474.792,131.644 474.729,131.749 474.729,131.957 C474.729,132.792 474.729,133.606 474.729,134.44 C474.729,134.649 474.813,134.753 475.021,134.753 C475.772,134.753 476.523,134.753 477.275,134.753 C477.525,134.753 477.609,134.649 477.588,134.419 C477.588,134.002 477.588,133.606 477.588,133.23 Z" />
            <path d="M430.013,129.641 C429.763,129.641 429.512,129.662 429.262,129.641 C427.822,129.558 426.883,128.556 426.883,127.033 C426.862,125.489 426.883,123.966 426.862,122.421 C426.842,120.669 426.633,118.937 426.487,117.205 C426.403,116.141 426.32,115.098 426.236,114.033 C426.111,112.385 425.965,110.737 426.007,109.088 C426.07,106.668 426.132,104.226 426.779,101.868 C427.322,99.886 428.198,98.092 429.825,96.735 C430.138,96.464 429.867,96.402 429.679,96.318 C428.74,95.922 427.864,95.421 427.155,94.691 C426.737,94.252 426.445,93.752 426.236,93.188 C426.111,92.813 426.153,92.479 426.362,92.145 C426.779,91.477 427.405,91.039 428.135,90.789 C429.533,90.267 430.994,90.038 432.475,89.933 C432.997,89.892 433.519,89.871 434.04,89.829 C434.416,89.808 434.729,89.933 434.979,90.225 C435.209,90.538 435.459,90.851 435.71,91.164 C435.835,91.331 435.877,91.456 435.605,91.519 C435.084,91.644 434.729,91.978 434.458,92.416 C433.56,93.835 432.663,95.254 431.766,96.673 C431.328,97.362 431.223,98.133 431.223,98.926 C431.223,105.395 431.223,111.884 431.223,118.353 C431.223,121.879 431.223,125.426 431.223,128.952 C431.223,129.662 431.223,129.662 430.535,129.662 C430.347,129.641 430.18,129.641 430.013,129.641 Z" />
            <path d="M464.63,91.728 C466.028,91.728 467.447,91.728 468.845,91.728 C469.012,91.728 469.241,91.644 469.325,91.811 C469.387,91.957 469.158,92.041 469.074,92.166 C468.511,92.938 468.031,93.752 467.53,94.545 C467.134,95.191 466.717,95.838 466.32,96.485 C465.861,97.195 465.652,97.967 465.673,98.801 C465.694,100.763 465.673,102.745 465.673,104.706 C465.673,105.687 465.652,105.729 464.672,105.729 C463.962,105.729 463.879,105.666 463.858,104.915 C463.858,103.121 463.816,101.347 463.858,99.552 C463.879,98.446 463.608,97.466 463.002,96.548 C462.168,95.275 461.396,94.002 460.582,92.729 C460.436,92.479 460.227,92.27 460.06,92.041 C459.998,91.978 459.893,91.916 459.935,91.811 C459.977,91.707 460.102,91.749 460.186,91.749 C461.041,91.749 461.897,91.749 462.752,91.749 C463.357,91.707 463.983,91.707 464.63,91.728 Z" />
            <path d="M452.403,101.848 C452.403,100.95 452.382,100.032 452.403,99.135 C452.423,98.3 452.194,97.549 451.756,96.861 C450.775,95.317 449.857,93.752 448.814,92.249 C448.772,92.187 448.668,92.103 448.709,92.02 C448.751,91.916 448.876,91.957 448.96,91.957 C450.316,91.916 451.693,91.853 453.049,91.811 C454.468,91.769 455.908,91.749 457.348,91.728 C457.494,91.728 457.723,91.644 457.786,91.79 C457.87,91.957 457.64,92.041 457.557,92.145 C456.972,92.938 456.492,93.773 455.971,94.586 C455.574,95.191 455.22,95.817 454.823,96.422 C454.343,97.174 454.114,97.987 454.134,98.885 C454.155,100.825 454.134,102.766 454.134,104.706 C454.134,105.687 454.114,105.708 453.133,105.708 C452.528,105.708 452.423,105.624 452.423,104.998 C452.403,103.955 452.403,102.912 452.403,101.848 Z" />
            <path d="M475.334,101.827 C475.334,100.93 475.334,100.032 475.334,99.156 C475.334,98.405 475.188,97.695 474.791,97.049 C473.852,95.525 472.893,94.023 471.954,92.521 C471.912,92.458 471.849,92.395 471.808,92.333 C471.724,92.145 471.39,92.02 471.495,91.832 C471.599,91.644 471.912,91.749 472.121,91.749 C472.517,91.749 472.913,91.769 473.31,91.79 C475.626,91.853 477.921,91.895 480.237,91.957 C480.342,91.957 480.488,91.916 480.55,92.041 C480.592,92.145 480.488,92.228 480.425,92.312 C479.486,93.773 478.568,95.233 477.629,96.694 C477.17,97.403 476.961,98.196 476.982,99.052 C477.003,100.888 476.982,102.724 476.982,104.56 C476.982,105.708 476.92,105.77 475.793,105.708 C475.563,105.687 475.438,105.583 475.397,105.374 C475.334,105.124 475.334,104.873 475.334,104.623 C475.334,103.684 475.334,102.766 475.334,101.827 Z" />
            <path d="M440.905,121.629 C440.905,120.272 440.926,118.916 440.905,117.581 C440.905,117.184 441.03,117.038 441.427,117.08 C441.74,117.101 442.053,117.101 442.366,117.08 C442.616,117.059 442.72,117.184 442.72,117.434 C442.72,117.518 442.72,117.601 442.72,117.664 C442.72,120.314 442.72,122.964 442.72,125.614 C442.72,126.198 442.72,126.198 442.136,126.198 C440.905,126.198 440.905,126.198 440.905,124.988 C440.905,123.861 440.905,122.755 440.905,121.629 Z" />
            <path d="M441.781,114.68 C441.615,114.68 441.468,114.68 441.302,114.68 C441.093,114.68 440.884,114.659 440.926,114.367 C440.947,114.138 440.988,113.908 441.302,113.929 C441.635,113.929 441.948,113.95 442.282,113.929 C442.616,113.908 442.679,114.138 442.679,114.388 C442.699,114.68 442.491,114.68 442.282,114.68 C442.115,114.68 441.948,114.68 441.781,114.68 Z" />
            <path d="M463.837,119.897 C463.837,118.248 463.837,116.6 463.837,114.931 C463.837,114.805 463.837,114.701 463.837,114.576 C463.858,113.971 463.921,113.908 464.526,113.908 C464.651,113.908 464.797,113.908 464.922,113.908 C465.569,113.908 465.632,113.971 465.632,114.618 C465.632,118.165 465.632,121.733 465.632,125.28 C465.632,125.572 465.548,125.718 465.214,125.697 C464.881,125.677 464.526,125.677 464.192,125.697 C463.858,125.718 463.795,125.53 463.795,125.259 C463.795,124.195 463.795,123.131 463.795,122.067 C463.837,121.378 463.837,120.627 463.837,119.897 Z" />
            <path d="M454.155,119.98 C454.155,121.733 454.155,123.465 454.155,125.217 C454.155,125.614 454.03,125.781 453.633,125.718 C453.404,125.697 453.154,125.697 452.924,125.718 C452.528,125.76 452.402,125.614 452.402,125.217 C452.423,121.733 452.402,118.248 452.402,114.743 C452.402,114.638 452.402,114.534 452.423,114.43 C452.444,114.075 452.569,113.866 452.987,113.908 C453.112,113.929 453.258,113.908 453.383,113.908 C454.092,113.908 454.155,113.95 454.155,114.701 C454.155,116.475 454.155,118.227 454.155,119.98 Z" />
            <path d="M475.334,119.897 C475.334,118.269 475.334,116.642 475.334,115.014 C475.334,114.868 475.334,114.722 475.334,114.576 C475.355,113.971 475.418,113.908 476.023,113.908 C476.983,113.908 476.983,113.908 476.983,114.889 C476.983,118.29 476.983,121.691 476.983,125.092 C476.983,125.718 476.983,125.718 476.378,125.718 C475.314,125.718 475.314,125.718 475.314,124.654 C475.334,123.068 475.334,121.482 475.334,119.897 Z" />
        </g>
        <g id="Black-S">
            <path d="M693.863,91.498 C694.197,91.06 694.51,90.663 694.823,90.267 C695.052,89.975 695.344,89.829 695.741,89.829 C697.619,89.85 699.476,90.058 701.291,90.58 C701.896,90.747 702.481,90.997 702.981,91.394 C703.879,92.103 704.046,92.896 703.482,93.877 C703.002,94.711 702.293,95.296 701.458,95.755 C701.062,95.984 700.644,96.151 700.227,96.36 C700.039,96.443 699.935,96.548 700.144,96.715 C702.355,98.53 703.148,101.034 703.586,103.726 C703.962,106.021 704.066,108.337 703.962,110.674 C703.858,112.802 703.712,114.952 703.524,117.08 C703.357,118.812 703.253,120.564 703.169,122.296 C703.086,123.903 703.065,125.51 703.128,127.095 C703.169,128.41 702.042,129.745 700.519,129.704 C698.307,129.641 696.075,129.704 693.863,129.662 C692.82,129.641 691.755,129.683 690.712,129.683 C689.293,129.704 688.146,128.744 688.062,127.325 C688,126.365 687.791,126.49 687.123,126.407 C686.769,126.365 686.664,126.24 686.664,125.885 C686.685,123.11 686.664,120.335 686.664,117.581 C686.664,117.08 686.685,117.038 687.207,117.059 C688.709,117.142 690.191,117.101 691.693,117.101 C692.298,117.101 692.903,117.059 693.508,117.038 C693.967,117.017 694.385,116.871 694.718,116.537 C695.157,116.099 695.115,115.515 694.635,115.139 C694.218,114.805 693.738,114.722 693.237,114.722 C691.276,114.722 689.293,114.722 687.332,114.722 C686.685,114.722 686.685,114.722 686.685,114.054 C686.685,113.324 686.685,112.594 686.685,111.842 C686.685,111.696 686.664,111.509 686.936,111.571 C688.104,111.884 689.314,111.801 690.504,111.822 C691.776,111.822 693.049,111.822 694.322,111.759 C696.221,111.675 697.348,110.59 698.036,108.942 C698.266,108.4 698.37,107.836 698.37,107.252 C698.37,106.25 697.89,105.729 696.889,105.645 C696.221,105.583 695.574,105.666 694.927,105.75 C693.07,105.979 691.213,106.209 689.356,106.522 C688.5,106.668 687.708,106.96 687.04,107.523 C686.956,107.586 686.873,107.753 686.748,107.669 C686.643,107.607 686.685,107.461 686.685,107.335 C686.685,104.393 686.664,101.451 686.685,98.509 C686.685,97.904 686.539,97.403 686.226,96.923 C685.266,95.4 684.306,93.877 683.326,92.374 C683.284,92.291 683.18,92.228 683.263,92.124 C683.326,92.062 683.409,92.082 683.493,92.082 C685.35,92.208 687.207,92.27 689.064,92.5 C689.147,92.521 689.252,92.5 689.335,92.5 C689.586,92.5 689.648,92.395 689.544,92.187 C688.292,89.14 686.915,86.136 685.141,83.34 C684.515,82.359 683.597,82.004 682.512,81.837 C680.404,81.524 678.297,81.149 676.169,80.898 C674.583,80.71 672.997,80.564 671.39,80.46 C669.116,80.335 666.821,80.231 664.546,80.251 C661.98,80.272 659.413,80.418 656.847,80.627 C653.592,80.877 650.358,81.399 647.144,81.9 C646.143,82.067 645.35,82.568 644.828,83.444 C644.682,83.673 644.557,83.924 644.39,84.153 C642.7,86.49 641.615,89.14 640.509,91.769 C640.196,92.521 640.258,92.583 641.093,92.479 C642.637,92.27 644.181,92.145 645.725,92.103 C645.83,92.103 645.997,92.041 646.059,92.145 C646.143,92.27 645.976,92.374 645.913,92.479 C645.078,93.793 644.244,95.129 643.409,96.443 C642.95,97.174 642.721,97.967 642.741,98.822 C642.762,100.783 642.741,102.745 642.741,104.685 C642.741,105.666 642.721,105.687 641.74,105.687 C641.031,105.687 640.947,105.604 640.947,104.873 C640.947,103.121 640.905,101.347 640.947,99.594 C640.989,98.384 640.655,97.32 639.987,96.339 C639.215,95.171 638.485,93.96 637.734,92.771 C637.4,92.27 637.066,91.749 636.461,91.519 C636.21,91.415 636.273,91.248 636.357,91.06 C636.795,89.975 637.212,88.89 637.692,87.826 C638.652,85.614 639.82,83.486 641.072,81.42 C642.366,79.292 644.223,78.102 646.685,77.727 C648.876,77.393 651.046,76.975 653.258,76.746 C654.614,76.6 655.97,76.516 657.327,76.391 C659.246,76.224 661.166,76.099 663.107,76.037 C664.087,75.995 665.047,75.974 666.028,76.057 C666.153,76.057 666.257,76.078 666.383,76.078 C669.554,76.078 672.705,76.245 675.835,76.621 C678.506,76.955 681.156,77.372 683.806,77.81 C686.122,78.186 687.812,79.5 689.022,81.462 C690.504,83.861 691.776,86.386 692.882,88.994 C693.174,89.808 693.508,90.643 693.863,91.498 Z" />
            <path d="M631.808,121.649 C631.808,113.866 631.808,106.083 631.808,98.28 C631.808,97.904 631.891,97.57 632.1,97.257 C633.06,95.734 634.02,94.211 634.979,92.687 C635.042,92.583 635.105,92.5 635.188,92.395 C635.689,91.749 636.231,91.749 636.711,92.416 C637.024,92.854 637.316,93.334 637.609,93.814 C638.381,95.045 639.132,96.256 639.925,97.487 C640.196,97.904 640.321,98.321 640.321,98.822 C640.3,101.284 640.321,103.767 640.3,106.229 C640.3,106.605 640.405,106.709 640.78,106.689 C641.469,106.668 642.136,106.668 642.825,106.689 C643.221,106.709 643.347,106.605 643.347,106.188 C643.326,103.559 643.347,100.93 643.326,98.3 C643.326,97.904 643.43,97.57 643.639,97.236 C644.599,95.734 645.538,94.211 646.497,92.708 C646.581,92.562 646.685,92.416 646.79,92.291 C647.207,91.811 647.729,91.79 648.125,92.291 C648.438,92.687 648.688,93.147 648.98,93.564 C649.815,94.878 650.65,96.214 651.484,97.528 C651.735,97.904 651.839,98.3 651.839,98.759 C651.818,101.243 651.839,103.726 651.818,106.209 C651.818,106.563 651.902,106.689 652.277,106.689 C652.966,106.668 653.634,106.668 654.322,106.689 C654.677,106.709 654.76,106.584 654.76,106.229 C654.74,103.559 654.76,100.888 654.74,98.238 C654.74,97.883 654.823,97.612 655.011,97.32 C655.991,95.776 656.951,94.232 657.932,92.687 C658.036,92.521 658.161,92.333 658.307,92.187 C658.641,91.853 659.1,91.853 659.434,92.187 C659.58,92.333 659.726,92.521 659.831,92.708 C660.832,94.315 661.834,95.922 662.856,97.508 C663.107,97.904 663.232,98.321 663.232,98.801 C663.211,101.263 663.232,103.705 663.232,106.167 C663.232,106.668 663.232,106.668 663.754,106.689 C664.442,106.689 665.11,106.668 665.798,106.689 C666.132,106.709 666.258,106.584 666.258,106.25 C666.237,103.58 666.258,100.909 666.237,98.259 C666.237,97.925 666.32,97.633 666.508,97.341 C667.489,95.797 668.448,94.252 669.429,92.708 C669.513,92.583 669.596,92.437 669.7,92.333 C670.118,91.832 670.618,91.832 671.036,92.312 C671.161,92.458 671.265,92.604 671.349,92.75 C672.35,94.336 673.331,95.901 674.333,97.487 C674.604,97.904 674.729,98.342 674.729,98.843 C674.708,101.305 674.729,103.746 674.708,106.209 C674.708,106.584 674.813,106.709 675.188,106.689 C675.814,106.668 676.44,106.647 677.087,106.689 C677.504,106.709 677.588,106.563 677.588,106.167 C677.567,103.6 677.588,101.013 677.567,98.446 C677.567,98.113 677.65,97.821 677.838,97.528 C678.861,95.943 679.862,94.336 680.864,92.729 C680.947,92.604 681.01,92.479 681.114,92.374 C681.594,91.79 682.136,91.769 682.575,92.395 C683.096,93.126 683.555,93.898 684.014,94.649 C684.64,95.63 685.266,96.631 685.892,97.612 C686.059,97.883 686.164,98.175 686.164,98.509 C686.164,114.033 686.164,129.558 686.164,145.082 C686.164,145.708 685.913,146 685.266,146 C683.013,146 680.738,146 678.485,146 C677.817,146 677.609,145.77 677.609,145.082 C677.609,142.348 677.609,139.615 677.609,136.881 C677.609,136.485 677.504,136.36 677.108,136.381 C676.482,136.423 675.856,136.402 675.209,136.381 C674.813,136.36 674.729,136.506 674.729,136.881 C674.75,139.552 674.729,142.223 674.729,144.873 C674.729,145.729 674.458,146 673.602,146 C671.453,146 669.304,146 667.134,146 C667.009,146 666.904,146 666.779,145.979 C666.424,145.937 666.237,145.77 666.237,145.353 C666.258,142.536 666.237,139.698 666.258,136.881 C666.258,136.485 666.153,136.36 665.757,136.381 C665.068,136.423 664.359,136.402 663.67,136.381 C663.315,136.36 663.232,136.506 663.232,136.84 C663.253,139.511 663.232,142.202 663.232,144.873 C663.232,145.729 662.982,146 662.105,146 C659.956,146 657.807,146 655.637,146 C655.512,146 655.407,146 655.282,145.979 C654.927,145.937 654.74,145.77 654.74,145.353 C654.76,142.536 654.74,139.698 654.76,136.881 C654.76,136.485 654.656,136.339 654.26,136.36 C653.592,136.402 652.924,136.381 652.256,136.36 C651.902,136.339 651.818,136.485 651.818,136.819 C651.839,139.49 651.818,142.182 651.818,144.852 C651.818,145.708 651.568,145.979 650.692,145.979 C648.542,145.979 646.393,145.979 644.223,145.979 C644.14,145.979 644.035,145.979 643.952,145.979 C643.472,145.937 643.326,145.791 643.326,145.311 C643.326,142.494 643.326,139.698 643.326,136.881 C643.326,136.485 643.242,136.339 642.825,136.36 C642.136,136.402 641.427,136.381 640.739,136.36 C640.384,136.339 640.3,136.464 640.3,136.819 C640.321,139.49 640.3,142.182 640.3,144.852 C640.3,145.708 640.05,145.979 639.174,145.979 C637.024,145.979 634.875,145.979 632.705,145.979 C632.622,145.979 632.538,145.979 632.476,145.979 C631.954,145.937 631.808,145.812 631.808,145.27 C631.808,138.05 631.808,130.83 631.808,123.611 C631.808,122.943 631.808,122.296 631.808,121.649 Z M684.682,121.587 C684.682,114.221 684.682,106.855 684.682,99.49 C684.682,99.052 684.599,98.634 684.369,98.259 C683.618,97.049 682.867,95.838 682.095,94.628 C681.886,94.315 681.823,94.315 681.615,94.649 C680.864,95.838 680.112,97.028 679.382,98.217 C679.153,98.613 678.986,99.031 678.986,99.511 C678.986,114.242 678.986,128.973 678.986,143.705 C678.986,144.289 679.048,144.372 679.653,144.372 C681.114,144.372 682.575,144.372 684.035,144.372 C684.682,144.372 684.703,144.352 684.703,143.705 C684.682,136.318 684.682,128.952 684.682,121.587 Z M633.122,121.629 C633.122,128.973 633.122,136.339 633.122,143.684 C633.122,144.289 633.164,144.352 633.727,144.352 C635.209,144.352 636.69,144.352 638.172,144.352 C638.694,144.352 638.819,144.226 638.819,143.684 C638.819,128.994 638.819,114.305 638.819,99.594 C638.819,99.114 638.715,98.634 638.464,98.196 C637.713,96.986 636.962,95.797 636.211,94.586 C636.002,94.252 635.918,94.252 635.689,94.607 C635.042,95.651 634.416,96.694 633.727,97.695 C633.289,98.342 633.122,99.01 633.122,99.761 C633.143,107.085 633.122,114.367 633.122,121.629 Z M650.337,121.67 C650.337,114.367 650.337,107.064 650.337,99.761 C650.337,99.219 650.253,98.676 649.961,98.217 C649.231,97.028 648.48,95.838 647.729,94.649 C647.499,94.273 647.416,94.294 647.186,94.649 C646.539,95.692 645.913,96.735 645.225,97.737 C644.786,98.384 644.64,99.052 644.64,99.803 C644.64,107.857 644.64,115.932 644.64,123.986 C644.64,130.559 644.64,137.111 644.64,143.684 C644.64,144.289 644.682,144.331 645.287,144.331 C646.706,144.331 648.125,144.331 649.544,144.331 C650.274,144.331 650.337,144.268 650.337,143.538 C650.337,136.276 650.337,128.973 650.337,121.67 Z M656.054,121.649 C656.054,128.994 656.054,136.36 656.054,143.705 C656.054,144.31 656.096,144.372 656.701,144.372 C658.141,144.372 659.58,144.372 661.041,144.372 C661.646,144.372 661.75,144.268 661.75,143.663 C661.75,142.787 661.75,141.91 661.75,141.034 C661.75,127.283 661.75,113.533 661.75,99.782 C661.75,99.219 661.646,98.655 661.333,98.175 C660.603,97.007 659.893,95.859 659.163,94.711 C658.913,94.294 658.829,94.294 658.579,94.711 C657.932,95.734 657.327,96.777 656.638,97.779 C656.2,98.426 656.033,99.093 656.033,99.845 C656.054,107.085 656.054,114.367 656.054,121.649 Z M667.572,121.608 C667.572,128.973 667.572,136.339 667.572,143.705 C667.572,144.31 667.614,144.372 668.219,144.372 C669.659,144.372 671.098,144.372 672.559,144.372 C673.164,144.372 673.268,144.268 673.268,143.663 C673.268,142.703 673.268,141.743 673.268,140.783 C673.268,127.116 673.268,113.449 673.268,99.782 C673.268,99.219 673.164,98.655 672.851,98.175 C672.121,97.007 671.411,95.859 670.681,94.711 C670.431,94.294 670.347,94.294 670.097,94.711 C669.45,95.734 668.845,96.777 668.156,97.779 C667.718,98.426 667.551,99.093 667.551,99.845 C667.572,107.085 667.572,114.346 667.572,121.608 Z M640.3,121.482 C640.3,124.174 640.3,126.866 640.3,129.558 C640.3,129.891 640.384,130.017 640.739,130.017 C641.469,129.996 642.199,129.996 642.95,130.017 C643.242,130.017 643.326,129.912 643.326,129.62 C643.326,124.216 643.326,118.833 643.326,113.428 C643.326,113.136 643.242,113.032 642.95,113.032 C642.22,113.053 641.51,113.053 640.78,113.032 C640.384,113.011 640.3,113.157 640.3,113.533 C640.3,116.183 640.3,118.833 640.3,121.482 Z M666.258,121.524 C666.258,118.853 666.258,116.162 666.258,113.491 C666.258,113.157 666.174,113.032 665.819,113.032 C665.089,113.053 664.359,113.053 663.608,113.032 C663.315,113.032 663.232,113.136 663.232,113.428 C663.232,118.833 663.232,124.216 663.232,129.62 C663.232,129.912 663.315,130.017 663.608,130.017 C664.338,129.996 665.047,129.996 665.778,130.017 C666.174,130.038 666.258,129.891 666.258,129.516 C666.237,126.845 666.258,124.174 666.258,121.524 Z M654.74,121.566 C654.74,118.874 654.74,116.183 654.74,113.491 C654.74,113.157 654.656,113.032 654.301,113.032 C653.592,113.053 652.882,113.053 652.173,113.032 C651.881,113.032 651.797,113.136 651.797,113.428 C651.797,118.833 651.797,124.216 651.797,129.62 C651.797,129.912 651.881,130.017 652.173,130.017 C652.862,129.996 653.571,129.996 654.26,130.017 C654.656,130.038 654.74,129.891 654.74,129.516 C654.74,126.866 654.74,124.216 654.74,121.566 Z M677.588,121.566 C677.588,118.874 677.588,116.183 677.588,113.491 C677.588,113.157 677.504,113.032 677.15,113.032 C676.503,113.053 675.856,113.074 675.23,113.032 C674.813,113.011 674.729,113.157 674.729,113.553 C674.75,116.349 674.729,119.146 674.729,121.942 C674.729,124.487 674.729,127.033 674.729,129.578 C674.729,129.891 674.813,130.017 675.146,130.017 C675.793,129.996 676.461,129.996 677.108,130.017 C677.504,130.038 677.588,129.891 677.588,129.516 C677.588,126.866 677.588,124.216 677.588,121.566 Z M666.258,109.881 C666.258,109.464 666.258,109.046 666.258,108.629 C666.258,108.4 666.174,108.295 665.924,108.295 C665.131,108.295 664.338,108.295 663.566,108.295 C663.336,108.295 663.232,108.358 663.232,108.608 C663.232,109.443 663.232,110.257 663.232,111.091 C663.232,111.3 663.315,111.404 663.545,111.404 C664.338,111.404 665.152,111.404 665.945,111.404 C666.195,111.404 666.258,111.3 666.258,111.07 C666.237,110.674 666.258,110.277 666.258,109.881 Z M643.326,133.23 C643.326,132.813 643.326,132.395 643.326,131.978 C643.326,131.749 643.242,131.644 643.013,131.644 C642.22,131.644 641.406,131.644 640.613,131.644 C640.384,131.644 640.321,131.749 640.321,131.957 C640.321,132.792 640.321,133.606 640.321,134.44 C640.321,134.649 640.405,134.753 640.613,134.753 C641.406,134.753 642.22,134.753 643.013,134.753 C643.263,134.753 643.347,134.649 643.326,134.419 C643.305,134.002 643.326,133.606 643.326,133.23 Z M666.258,133.188 C666.258,132.771 666.258,132.375 666.258,131.957 C666.258,131.728 666.195,131.623 665.945,131.623 C665.152,131.623 664.338,131.623 663.545,131.623 C663.295,131.623 663.232,131.728 663.232,131.957 C663.232,132.771 663.232,133.585 663.232,134.399 C663.232,134.628 663.315,134.732 663.566,134.711 C664.359,134.711 665.152,134.711 665.924,134.711 C666.195,134.711 666.258,134.586 666.258,134.357 C666.237,133.981 666.258,133.585 666.258,133.188 Z M643.326,109.902 C643.326,109.485 643.326,109.067 643.326,108.65 C643.326,108.42 643.242,108.316 643.013,108.316 C642.22,108.316 641.427,108.316 640.655,108.316 C640.425,108.316 640.321,108.379 640.321,108.629 C640.321,109.464 640.321,110.277 640.321,111.112 C640.321,111.321 640.405,111.425 640.613,111.425 C641.406,111.425 642.22,111.425 643.013,111.425 C643.263,111.425 643.326,111.321 643.326,111.091 C643.305,110.674 643.326,110.277 643.326,109.902 Z M651.797,109.86 C651.797,110.277 651.797,110.695 651.797,111.112 C651.797,111.3 651.881,111.404 652.069,111.404 C652.862,111.404 653.654,111.404 654.427,111.404 C654.656,111.404 654.719,111.3 654.719,111.091 C654.719,110.257 654.719,109.443 654.719,108.608 C654.719,108.4 654.635,108.295 654.427,108.295 C653.654,108.295 652.882,108.295 652.11,108.295 C651.86,108.295 651.777,108.4 651.797,108.629 C651.818,109.046 651.797,109.443 651.797,109.86 Z M654.74,133.209 C654.74,132.792 654.74,132.395 654.74,131.978 C654.74,131.728 654.677,131.623 654.406,131.623 C653.654,131.644 652.882,131.623 652.11,131.623 C651.881,131.623 651.777,131.707 651.797,131.957 C651.797,132.771 651.797,133.585 651.797,134.399 C651.797,134.628 651.86,134.732 652.11,134.732 C652.882,134.732 653.654,134.732 654.427,134.732 C654.656,134.732 654.74,134.649 654.719,134.419 C654.74,134.023 654.74,133.606 654.74,133.209 Z M677.588,109.86 C677.588,109.443 677.588,109.026 677.588,108.608 C677.588,108.42 677.504,108.316 677.316,108.316 C676.544,108.316 675.793,108.316 675.021,108.316 C674.792,108.316 674.729,108.42 674.729,108.629 C674.729,109.464 674.729,110.277 674.729,111.112 C674.729,111.321 674.813,111.425 675.021,111.425 C675.772,111.425 676.523,111.425 677.275,111.425 C677.525,111.425 677.609,111.321 677.588,111.091 C677.588,110.674 677.588,110.257 677.588,109.86 Z M677.588,133.23 C677.588,132.813 677.588,132.395 677.588,131.978 C677.588,131.749 677.504,131.644 677.275,131.644 C676.523,131.644 675.772,131.644 675.021,131.644 C674.792,131.644 674.729,131.749 674.729,131.957 C674.729,132.792 674.729,133.606 674.729,134.44 C674.729,134.649 674.813,134.753 675.021,134.753 C675.772,134.753 676.523,134.753 677.275,134.753 C677.525,134.753 677.609,134.649 677.588,134.419 C677.588,134.002 677.588,133.606 677.588,133.23 Z" />
            <path d="M630.013,129.641 C629.763,129.641 629.512,129.662 629.262,129.641 C627.822,129.558 626.883,128.556 626.883,127.033 C626.862,125.489 626.883,123.966 626.862,122.421 C626.842,120.669 626.633,118.937 626.487,117.205 C626.403,116.141 626.32,115.098 626.237,114.033 C626.111,112.385 625.965,110.737 626.007,109.088 C626.07,106.668 626.132,104.226 626.779,101.868 C627.322,99.886 628.198,98.092 629.825,96.735 C630.138,96.464 629.867,96.402 629.679,96.318 C628.74,95.922 627.864,95.421 627.155,94.691 C626.737,94.252 626.445,93.752 626.237,93.188 C626.111,92.813 626.153,92.479 626.362,92.145 C626.779,91.477 627.405,91.039 628.135,90.789 C629.533,90.267 630.994,90.038 632.475,89.933 C632.997,89.892 633.519,89.871 634.04,89.829 C634.416,89.808 634.729,89.933 634.979,90.225 C635.209,90.538 635.459,90.851 635.71,91.164 C635.835,91.331 635.877,91.456 635.605,91.519 C635.084,91.644 634.729,91.978 634.458,92.416 C633.56,93.835 632.663,95.254 631.766,96.673 C631.328,97.362 631.223,98.133 631.223,98.926 C631.223,105.395 631.223,111.884 631.223,118.353 C631.223,121.879 631.223,125.426 631.223,128.952 C631.223,129.662 631.223,129.662 630.535,129.662 C630.347,129.641 630.18,129.641 630.013,129.641 Z" />
            <path d="M664.63,91.728 C666.028,91.728 667.447,91.728 668.845,91.728 C669.012,91.728 669.241,91.644 669.325,91.811 C669.387,91.957 669.158,92.041 669.074,92.166 C668.511,92.938 668.031,93.752 667.53,94.545 C667.134,95.191 666.717,95.838 666.32,96.485 C665.861,97.195 665.652,97.967 665.673,98.801 C665.694,100.763 665.673,102.745 665.673,104.706 C665.673,105.687 665.652,105.729 664.672,105.729 C663.962,105.729 663.879,105.666 663.858,104.915 C663.858,103.121 663.816,101.347 663.858,99.552 C663.879,98.446 663.608,97.466 663.002,96.548 C662.168,95.275 661.396,94.002 660.582,92.729 C660.436,92.479 660.227,92.27 660.06,92.041 C659.998,91.978 659.893,91.916 659.935,91.811 C659.977,91.707 660.102,91.749 660.185,91.749 C661.041,91.749 661.897,91.749 662.752,91.749 C663.357,91.707 663.983,91.707 664.63,91.728 Z" />
            <path d="M652.403,101.848 C652.403,100.95 652.382,100.032 652.403,99.135 C652.423,98.3 652.194,97.549 651.756,96.861 C650.775,95.317 649.857,93.752 648.814,92.249 C648.772,92.187 648.668,92.103 648.709,92.02 C648.751,91.916 648.876,91.957 648.96,91.957 C650.316,91.916 651.693,91.853 653.049,91.811 C654.468,91.769 655.908,91.749 657.348,91.728 C657.494,91.728 657.723,91.644 657.786,91.79 C657.87,91.957 657.64,92.041 657.557,92.145 C656.972,92.938 656.492,93.773 655.971,94.586 C655.574,95.191 655.22,95.817 654.823,96.422 C654.343,97.174 654.114,97.987 654.135,98.885 C654.155,100.825 654.135,102.766 654.135,104.706 C654.135,105.687 654.114,105.708 653.133,105.708 C652.528,105.708 652.423,105.624 652.423,104.998 C652.403,103.955 652.403,102.912 652.403,101.848 Z" />
            <path d="M675.334,101.827 C675.334,100.93 675.334,100.032 675.334,99.156 C675.334,98.405 675.188,97.695 674.792,97.049 C673.852,95.525 672.893,94.023 671.954,92.521 C671.912,92.458 671.849,92.395 671.808,92.333 C671.724,92.145 671.39,92.02 671.495,91.832 C671.599,91.644 671.912,91.749 672.121,91.749 C672.517,91.749 672.914,91.769 673.31,91.79 C675.626,91.853 677.921,91.895 680.237,91.957 C680.342,91.957 680.488,91.916 680.55,92.041 C680.592,92.145 680.488,92.228 680.425,92.312 C679.486,93.773 678.568,95.233 677.629,96.694 C677.17,97.403 676.961,98.196 676.982,99.052 C677.003,100.888 676.982,102.724 676.982,104.56 C676.982,105.708 676.92,105.77 675.793,105.708 C675.563,105.687 675.438,105.583 675.397,105.374 C675.334,105.124 675.334,104.873 675.334,104.623 C675.334,103.684 675.334,102.766 675.334,101.827 Z" />
            <path d="M640.905,121.629 C640.905,120.272 640.926,118.916 640.905,117.581 C640.905,117.184 641.03,117.038 641.427,117.08 C641.74,117.101 642.053,117.101 642.366,117.08 C642.616,117.059 642.72,117.184 642.72,117.434 C642.72,117.518 642.72,117.601 642.72,117.664 C642.72,120.314 642.72,122.964 642.72,125.614 C642.72,126.198 642.72,126.198 642.136,126.198 C640.905,126.198 640.905,126.198 640.905,124.988 C640.905,123.861 640.905,122.755 640.905,121.629 Z" />
            <path d="M641.781,114.68 C641.615,114.68 641.468,114.68 641.302,114.68 C641.093,114.68 640.884,114.659 640.926,114.367 C640.947,114.138 640.988,113.908 641.302,113.929 C641.635,113.929 641.948,113.95 642.282,113.929 C642.616,113.908 642.679,114.138 642.679,114.388 C642.699,114.68 642.491,114.68 642.282,114.68 C642.115,114.68 641.948,114.68 641.781,114.68 Z" />
            <path d="M663.837,119.897 C663.837,118.248 663.837,116.6 663.837,114.931 C663.837,114.805 663.837,114.701 663.837,114.576 C663.858,113.971 663.921,113.908 664.526,113.908 C664.651,113.908 664.797,113.908 664.922,113.908 C665.569,113.908 665.632,113.971 665.632,114.618 C665.632,118.165 665.632,121.733 665.632,125.28 C665.632,125.572 665.548,125.718 665.214,125.697 C664.881,125.677 664.526,125.677 664.192,125.697 C663.858,125.718 663.795,125.53 663.795,125.259 C663.795,124.195 663.795,123.131 663.795,122.067 C663.837,121.378 663.837,120.627 663.837,119.897 Z" />
            <path d="M654.155,119.98 C654.155,121.733 654.155,123.465 654.155,125.217 C654.155,125.614 654.03,125.781 653.633,125.718 C653.404,125.697 653.154,125.697 652.924,125.718 C652.528,125.76 652.402,125.614 652.402,125.217 C652.423,121.733 652.402,118.248 652.402,114.743 C652.402,114.638 652.402,114.534 652.423,114.43 C652.444,114.075 652.569,113.866 652.987,113.908 C653.112,113.929 653.258,113.908 653.383,113.908 C654.092,113.908 654.155,113.95 654.155,114.701 C654.155,116.475 654.155,118.227 654.155,119.98 Z" />
            <path d="M675.334,119.897 C675.334,118.269 675.334,116.642 675.334,115.014 C675.334,114.868 675.334,114.722 675.334,114.576 C675.355,113.971 675.418,113.908 676.023,113.908 C676.983,113.908 676.983,113.908 676.983,114.889 C676.983,118.29 676.983,121.691 676.983,125.092 C676.983,125.718 676.983,125.718 676.378,125.718 C675.314,125.718 675.314,125.718 675.314,124.654 C675.334,123.068 675.334,121.482 675.334,119.897 Z" />
        </g>
    </g>
</svg>