<svg width="64" height="64" viewBox="0 0 64 64" fill="none" xmlns="http://www.w3.org/2000/svg">
<path d="M14.4225 4.375C10.8262 4.37875 7.89622 7.30875 7.89247 10.9075V41.9362L7.68372 42.1225C5.56122 44.015 4.35622 46.7313 4.37622 49.5737C4.39997 51.74 5.10247 53.7975 6.40872 55.5225L6.47122 55.6037C8.38247 58.1162 11.2787 59.5575 14.4237 59.5625C17.6087 59.5575 20.5287 58.0875 22.4337 55.5275C23.7437 53.7988 24.4462 51.74 24.47 49.5725C24.4887 46.7337 23.2837 44.0187 21.1637 42.1275L20.955 41.9412V10.91C20.9525 7.31125 18.0225 4.38 14.4225 4.375ZM15.6237 7.1375C17.235 7.63875 18.4012 9.12 18.4362 10.895V42.5475C18.4362 42.9412 18.625 43.3175 18.9387 43.555C22.26 46.0438 22.9362 50.7738 20.4462 54.0962C19.0325 55.9825 16.78 57.11 14.4212 57.11C10.2687 57.1075 6.89247 53.7275 6.89372 49.575C6.89372 47.2188 8.01997 44.9663 9.90497 43.5525C10.2162 43.3175 10.4037 42.9412 10.405 42.55V10.9062C10.4387 9.12625 11.62 7.63875 13.225 7.1375C13.225 7.1375 14.3675 6.765 15.625 7.1375H15.6237Z" fill="#FCFCFC"/>
<path d="M13.1637 23.2125V45.8725L12.7987 46.04C11.8524 46.4737 11.1324 47.2487 10.7699 48.225C10.4074 49.2 10.4474 50.2587 10.8799 51.2037C11.3124 52.1487 12.0887 52.87 13.0649 53.2325C14.0399 53.595 15.0987 53.555 16.0437 53.1225C17.9962 52.2275 18.8562 49.9112 17.9612 47.9587C17.5724 47.11 16.8912 46.43 16.0437 46.0412L15.6787 45.8737V23.2112C15.6787 22.5187 15.1137 21.955 14.4199 21.9537C13.7274 21.9537 13.1624 22.5187 13.1624 23.2125H13.1637Z" fill="#00D151"/>
<path fill-rule="evenodd" clip-rule="evenodd" d="M41.911 15.4334C42.1668 15.3539 42.4457 15.4205 42.6379 15.6072C44.3173 17.2379 45.1756 18.8135 45.4398 20.3021C45.7048 21.7954 45.3566 23.1149 44.7815 24.2004C44.2111 25.2771 43.4115 26.1373 42.7372 26.7489C42.3977 27.0568 42.0845 27.3066 41.84 27.4932C41.7228 27.5827 41.6208 27.6581 41.5418 27.7165L41.5323 27.7235C41.4913 27.7538 41.459 27.7777 41.4328 27.7974C41.42 27.8071 41.4099 27.8148 41.4022 27.8208L41.3933 27.8278L41.3909 27.8298C41.3904 27.8302 41.3901 27.8304 41.3901 27.8304C41.2586 27.94 41.0929 28 40.9217 28H40.8289C40.6628 28 40.5016 27.9435 40.3718 27.8397C40.3528 27.8244 40.3223 27.8016 40.2822 27.7716C39.9386 27.5145 38.8847 26.726 38.1864 25.5855C37.7877 24.9343 37.48 24.134 37.4872 23.217C37.4944 22.2925 37.8213 21.3193 38.5749 20.3308C39.9546 18.4911 40.677 17.3589 41.0507 16.6994C41.2373 16.3701 41.3338 16.1643 41.381 16.0518C41.404 15.9971 41.4146 15.9662 41.4181 15.9555C41.4795 15.7081 41.6659 15.5095 41.911 15.4334ZM42.3316 17.4073C42.329 17.4118 42.3265 17.4163 42.3239 17.4209C41.909 18.1531 41.1471 19.3403 39.7438 21.2112L39.7402 21.2161L39.7402 21.2161C39.1495 21.99 38.955 22.6631 38.9506 23.2284C38.9461 23.8021 39.1372 24.3358 39.4345 24.8214C39.8637 25.5223 40.4624 26.0514 40.8793 26.3828C41.5523 25.8734 42.7552 24.8994 43.4884 23.5153C43.9458 22.6519 44.195 21.663 43.9989 20.5578C43.8359 19.6395 43.355 18.5822 42.3316 17.4073Z" fill="#FCFCFC"/>
<path fill-rule="evenodd" clip-rule="evenodd" d="M37.5899 8.02731C37.9927 7.94098 38.4315 8.05988 38.7478 8.37618C38.7723 8.40067 38.795 8.42685 38.8157 8.45455C39.7362 9.68178 40.6325 11.7821 40.6325 14.0905C40.6325 15.0265 40.2605 15.8879 39.7917 16.663C39.3931 17.3222 38.8837 17.9816 38.3955 18.6135C38.3127 18.7206 38.2305 18.827 38.1496 18.9324C36.9764 20.4612 36.0642 21.8205 36.1753 23.3074C36.2975 24.5517 36.8313 25.4855 37.2022 26.1345L37.2184 26.1628C37.3065 26.3169 37.4027 26.4857 37.4693 26.6336C37.5031 26.7087 37.5425 26.8065 37.5673 26.915C37.5902 27.0156 37.618 27.1973 37.5535 27.4016C37.4772 27.6433 37.3046 27.8159 37.1048 27.9078C36.9359 27.9856 36.7725 27.9956 36.6696 27.9949C36.4633 27.9935 36.2287 27.9426 36.0025 27.8831L35.9877 27.879C34.1272 27.3475 32.3627 25.7368 31.5206 23.6699C30.6616 21.5613 30.7563 18.9648 32.6385 16.522C35.2662 13.0783 36.3386 10.1991 36.687 8.89494C36.8084 8.42037 37.1794 8.11527 37.5899 8.02731ZM37.9516 9.78531C37.4469 11.3974 36.263 14.1849 33.8008 17.4112L33.7986 17.414L33.7986 17.414C32.2482 19.4254 32.2039 21.4683 32.8759 23.1178C33.4217 24.4574 34.4365 25.5302 35.5244 26.1155C35.1873 25.4466 34.8246 24.5424 34.718 23.4411L34.7168 23.4267C34.553 21.2972 35.867 19.5031 36.9887 18.0415C37.0756 17.9283 37.1615 17.8169 37.2463 17.7071C37.7374 17.0708 38.1878 16.4873 38.5395 15.9057C38.9495 15.2279 39.1691 14.6393 39.1691 14.0905C39.1691 12.3977 38.592 10.8266 37.9516 9.78531Z" fill="#FCFCFC"/>
</svg>
