<svg width="65" height="60" viewBox="0 0 65 60" fill="none" xmlns="http://www.w3.org/2000/svg">
<path d="M60.3588 32.8595C59.8771 32.8595 59.4904 32.4796 59.4769 31.9979C59.3955 27.5678 58.2625 23.2191 56.1661 19.3113C54.1377 15.5257 51.2883 12.2489 47.8215 9.71838C47.523 9.50129 47.4416 9.10102 47.6248 8.78216L49.1919 6.0888C49.3208 5.87171 49.5583 5.73602 49.8093 5.73602C49.9518 5.73602 50.0942 5.77673 50.2096 5.85814C58.8663 11.713 64.0562 21.4891 64.0495 31.9436V31.9775C64.0495 32.466 63.656 32.8595 63.1675 32.8595H60.3588Z" fill="#EB3A28"/>
<path d="M49.8093 6.24487C49.85 6.24487 49.8907 6.25844 49.9247 6.27879C58.1472 11.8555 63.5475 21.2652 63.5475 31.9436V31.9776C63.5475 32.1811 63.3846 32.3507 63.1743 32.3507H60.3656C60.1621 32.3507 59.9925 32.1879 59.9925 31.9844C59.789 22.6628 55.1621 14.4335 48.1336 9.30457C48.0522 9.24352 48.0251 9.12818 48.0793 9.03999L49.6465 6.34664C49.6736 6.28558 49.7415 6.24487 49.8093 6.24487ZM49.8093 5.22723C49.3751 5.22723 48.9749 5.4579 48.751 5.83103L47.1838 8.52438C46.865 9.06713 47.0142 9.75912 47.523 10.1255C49.2191 11.3602 50.7727 12.7849 52.1499 14.3656C56.424 19.2639 58.8324 25.5054 58.9681 32.0047C58.9884 32.7578 59.599 33.3683 60.3589 33.3683H63.1675C63.9342 33.3683 64.5583 32.7442 64.5583 31.9776V31.9436C64.5583 29.2503 64.2191 26.5705 63.5542 23.9586C62.9029 21.4348 61.9464 18.9993 60.7048 16.713C58.2489 12.1947 54.7415 8.32764 50.4878 5.43755C50.291 5.30186 50.0536 5.22723 49.8093 5.22723Z" fill="#EB3A28"/>
<path d="M1.96003 32.9952C1.47156 32.9952 1.07807 32.6017 1.07129 32.1132V32.0793C1.07129 21.4552 6.37658 11.618 15.2572 5.76316C15.3725 5.68853 15.5082 5.64783 15.6507 5.64783C15.9085 5.64783 16.1459 5.78351 16.268 6.00739L17.0482 7.37781C17.2382 7.71703 17.1229 8.14444 16.7904 8.34118C8.33045 13.314 3.04551 22.3168 2.8352 32.1336C2.82841 32.6085 2.43493 32.9952 1.96003 32.9952Z" fill="#00C94C"/>
<path d="M15.6508 6.15662C15.7254 6.15662 15.7932 6.19732 15.8271 6.25838L16.6073 7.6288C16.6616 7.72378 16.6277 7.8459 16.5327 7.90696C8.20842 12.812 2.55713 21.8011 2.33325 32.12C2.32646 32.3235 2.15686 32.4863 1.95333 32.4863C1.74302 32.4863 1.57341 32.3235 1.57341 32.1132V32.0793C1.57341 21.2584 7.12294 11.7265 15.5354 6.19054C15.5693 6.17018 15.61 6.15662 15.6508 6.15662ZM15.6508 5.13898C15.4133 5.13898 15.1759 5.20682 14.9791 5.3425C10.6304 8.21903 7.03474 12.0996 4.511 16.6654C3.23555 18.9789 2.25184 21.4416 1.58698 23.9924C0.908553 26.6315 0.562555 29.352 0.562555 32.0793V32.1132C0.555771 32.8798 1.17314 33.5108 1.93976 33.5243C2.70638 33.5379 3.33732 32.9137 3.35089 32.1471C3.5612 22.5067 8.74437 13.6668 17.0551 8.78213C17.625 8.44291 17.8217 7.71021 17.4961 7.12677L16.7159 5.75635C16.4988 5.37643 16.0917 5.13898 15.6508 5.13898Z" fill="#00C94C"/>
<path d="M45.3862 8.15125C45.2641 8.15125 45.142 8.11732 45.0335 8.05627C37.2587 3.69399 27.8964 3.23944 19.735 6.82153C19.6468 6.86224 19.545 6.88259 19.45 6.88259C19.1922 6.88259 18.9616 6.7469 18.8327 6.52302L17.9643 4.99657C17.8693 4.82696 17.8421 4.62343 17.9032 4.44026C17.9575 4.2503 18.0864 4.09426 18.2628 4.00606C22.6861 1.74012 27.5911 0.566443 32.564 0.580011C37.6793 0.580011 42.7133 1.82832 47.2384 4.20281C47.5843 4.38598 47.72 4.82017 47.5369 5.17296C47.5301 5.17974 47.5301 5.18652 47.5233 5.19331L46.0036 7.79168C45.8747 8.01556 45.6441 8.15125 45.3862 8.15125Z" fill="#FFE804"/>
<path d="M32.5639 1.09561C37.5978 1.08883 42.5503 2.30999 47.0008 4.65735C47.1025 4.71162 47.1364 4.84052 47.0822 4.94229L45.5625 7.54066C45.5286 7.60172 45.4607 7.64242 45.3861 7.64242C45.3522 7.64242 45.3183 7.63564 45.2843 7.61528C37.3739 3.17838 27.842 2.71705 19.5381 6.3602C19.5109 6.37376 19.4838 6.38055 19.4567 6.38055C19.382 6.38055 19.3142 6.33984 19.2803 6.27878L18.4051 4.75233C18.3508 4.65735 18.378 4.52845 18.4729 4.47417C18.4797 4.47417 18.4797 4.46739 18.4865 4.46739C22.8488 2.24893 27.6724 1.08883 32.5639 1.09561ZM32.5639 0.0779706C27.5096 0.0711864 22.5299 1.26522 18.032 3.56508C17.7335 3.71433 17.5096 3.9857 17.4146 4.30456C17.3196 4.62343 17.3603 4.96942 17.5231 5.26115L18.3915 6.7876C18.6086 7.16752 19.0089 7.40497 19.4499 7.40497C19.6195 7.40497 19.7891 7.37105 19.9451 7.30321C23.4729 5.74283 27.2925 4.94229 31.1527 4.94907C33.5679 4.94907 35.9763 5.26115 38.3169 5.87851C40.5761 6.47553 42.747 7.36427 44.7823 8.51081C45.359 8.83645 46.0917 8.63292 46.4309 8.06305L47.9506 5.46467C48.2898 4.88123 48.093 4.13496 47.5164 3.79575C47.5028 3.78896 47.4892 3.77539 47.4689 3.76861C42.8691 1.35341 37.7606 0.0847549 32.5639 0.0779706Z" fill="#FFE804"/>
<path fill-rule="evenodd" clip-rule="evenodd" d="M14.1173 16.5833L17.49 18.4457C18.1552 18.8092 18.3588 19.6297 18.0174 20.2587L18.0155 20.2621L15.3338 25.0959L15.3336 25.0963C14.8695 25.9316 13.8112 26.2374 12.973 25.7718C12.9729 25.7718 12.9729 25.7718 12.9728 25.7718L10.0241 24.1343L10.0196 24.1317C9.69393 23.9457 9.43149 23.63 9.3287 23.239L8.28515 19.3223C8.28498 19.3217 8.28482 19.3211 8.28465 19.3204C8.10166 18.6395 8.48262 17.9105 9.18275 17.6994L13.1572 16.4744L13.173 16.4702C13.4462 16.3973 13.7955 16.4022 14.1173 16.5833ZM13.4578 18.1566L10.0127 19.2184L10.9413 22.7036L13.7964 24.2891L13.7965 24.2891C13.8014 24.2919 13.8053 24.2929 13.8091 24.2933C13.8136 24.2938 13.8194 24.2935 13.8259 24.2916C13.8388 24.2879 13.8462 24.281 13.8509 24.2728C13.8509 24.2727 13.8509 24.2727 13.851 24.2726L16.3561 19.757L13.4578 18.1566Z" fill="#FCFCFC"/>
<path fill-rule="evenodd" clip-rule="evenodd" d="M16.9466 30.5868C16.1463 30.5868 15.4948 31.2383 15.4948 32.0386V56.0617C15.4948 56.862 16.1463 57.5135 16.9466 57.5135H17.3672C18.1675 57.5135 18.8191 56.862 18.8191 56.0617V32.0386C18.8191 31.2383 18.1675 30.5868 17.3672 30.5868H16.9466ZM13.7987 32.0386C13.7987 30.3016 15.2096 28.8907 16.9466 28.8907H17.3672C19.1042 28.8907 20.5151 30.3016 20.5151 32.0386V56.0617C20.5151 57.7987 19.1042 59.2096 17.3672 59.2096H16.9466C15.2096 59.2096 13.7987 57.7987 13.7987 56.0617V32.0386Z" fill="#FCFCFC"/>
<path fill-rule="evenodd" clip-rule="evenodd" d="M25.6845 30.5868C24.8842 30.5868 24.2327 31.2383 24.2327 32.0386V56.0617C24.2327 56.862 24.8842 57.5135 25.6845 57.5135H26.1051C26.9054 57.5135 27.557 56.862 27.557 56.0617V32.0386C27.557 31.2383 26.9054 30.5868 26.1051 30.5868H25.6845ZM22.5366 32.0386C22.5366 30.3016 23.9475 28.8907 25.6845 28.8907H26.1051C27.8422 28.8907 29.253 30.3016 29.253 32.0386V56.0617C29.253 57.7987 27.8422 59.2096 26.1051 59.2096H25.6845C23.9475 59.2096 22.5366 57.7987 22.5366 56.0617V32.0386Z" fill="#FCFCFC"/>
<path fill-rule="evenodd" clip-rule="evenodd" d="M34.4227 30.5868C33.6224 30.5868 32.9708 31.2383 32.9708 32.0386V56.0617C32.9708 56.862 33.6224 57.5135 34.4227 57.5135H34.8433C35.6529 57.5135 36.2994 56.8604 36.2951 56.0662L36.2951 56.0617V32.0386C36.2951 31.2383 35.6436 30.5868 34.8433 30.5868H34.4227ZM31.2748 32.0386C31.2748 30.3016 32.6857 28.8907 34.4227 28.8907H34.8433C36.5803 28.8907 37.9912 30.3016 37.9912 32.0386V56.0595C37.9992 57.8015 36.5838 59.2096 34.8433 59.2096H34.4227C32.6857 59.2096 31.2748 57.7987 31.2748 56.0617V32.0386Z" fill="#FCFCFC"/>
<path fill-rule="evenodd" clip-rule="evenodd" d="M43.1678 30.5868C42.3675 30.5868 41.716 31.2383 41.716 32.0386V56.0617C41.716 56.862 42.3675 57.5135 43.1678 57.5135H43.5884C44.3887 57.5135 45.0402 56.862 45.0402 56.0617V32.0386C45.0402 31.2383 44.3887 30.5868 43.5884 30.5868H43.1678ZM40.0199 32.0386C40.0199 30.3016 41.4308 28.8907 43.1678 28.8907H43.5884C45.3254 28.8907 46.7363 30.3016 46.7363 32.0386V56.0617C46.7363 57.7987 45.3254 59.2096 43.5884 59.2096H43.1678C41.4308 59.2096 40.0199 57.7987 40.0199 56.0617V32.0386Z" fill="#FCFCFC"/>
<path fill-rule="evenodd" clip-rule="evenodd" d="M51.3493 33.7008C50.4238 33.7008 49.6736 34.451 49.6736 35.3765C49.6736 36.3019 50.4238 37.0522 51.3493 37.0522C52.2748 37.0522 53.025 36.3019 53.025 35.3765C53.025 34.451 52.2748 33.7008 51.3493 33.7008ZM47.9775 35.3765C47.9775 33.5143 49.4871 32.0047 51.3493 32.0047C53.2115 32.0047 54.7211 33.5143 54.7211 35.3765C54.7211 37.2387 53.2115 38.7483 51.3493 38.7483C49.4871 38.7483 47.9775 37.2387 47.9775 35.3765Z" fill="#FCFCFC"/>
<path fill-rule="evenodd" clip-rule="evenodd" d="M23.3847 34.9965H20.2572V33.3005H23.3847V34.9965Z" fill="#FCFCFC"/>
<path fill-rule="evenodd" clip-rule="evenodd" d="M32.1228 34.9965H28.405V33.3005H32.1228V34.9965Z" fill="#FCFCFC"/>
<path fill-rule="evenodd" clip-rule="evenodd" d="M40.861 34.9965H37.7198V33.3005H40.861V34.9965Z" fill="#FCFCFC"/>
<path fill-rule="evenodd" clip-rule="evenodd" d="M23.3849 37.7645H19.6671V36.0684H23.3849V37.7645Z" fill="#FCFCFC"/>
<path fill-rule="evenodd" clip-rule="evenodd" d="M32.7334 37.7645H28.405V36.0684H32.7334V37.7645Z" fill="#FCFCFC"/>
<path fill-rule="evenodd" clip-rule="evenodd" d="M40.861 37.7645H37.7198V36.0684H40.861V37.7645Z" fill="#FCFCFC"/>
<path fill-rule="evenodd" clip-rule="evenodd" d="M49.5312 34.9965H46.0848V33.3005H49.5312V34.9965Z" fill="#FCFCFC"/>
<path fill-rule="evenodd" clip-rule="evenodd" d="M49.5312 37.7645H46.0848V36.0684H49.5312V37.7645Z" fill="#FCFCFC"/>
<path fill-rule="evenodd" clip-rule="evenodd" d="M23.1813 51.5976H20.0537V49.9016H23.1813V51.5976Z" fill="#FCFCFC"/>
<path fill-rule="evenodd" clip-rule="evenodd" d="M31.9194 51.5976H28.2084V49.9016H31.9194V51.5976Z" fill="#FCFCFC"/>
<path fill-rule="evenodd" clip-rule="evenodd" d="M40.6643 51.5976H37.5232V49.9016H40.6643V51.5976Z" fill="#FCFCFC"/>
<path fill-rule="evenodd" clip-rule="evenodd" d="M23.5204 54.7727H19.8094V53.0766H23.5204V54.7727Z" fill="#FCFCFC"/>
<path fill-rule="evenodd" clip-rule="evenodd" d="M32.8692 54.7727H28.5476V53.0766H32.8692V54.7727Z" fill="#FCFCFC"/>
<path fill-rule="evenodd" clip-rule="evenodd" d="M41.0035 54.7727H37.8624V53.0766H41.0035V54.7727Z" fill="#FCFCFC"/>
</svg>
