<svg width="65" height="60" viewBox="0 0 65 60" fill="none" xmlns="http://www.w3.org/2000/svg">
<path d="M60.3588 32.9407C59.8771 32.9407 59.4904 32.5608 59.4769 32.0791C59.3955 27.649 58.2625 23.3003 56.1661 19.3926C54.1377 15.6069 51.2883 12.3302 47.8215 9.79962C47.523 9.58253 47.4416 9.18225 47.6248 8.86339L49.1919 6.17004C49.3208 5.95295 49.5583 5.81726 49.8093 5.81726C49.9518 5.81726 50.0942 5.85797 50.2096 5.93938C58.8663 11.7942 64.0562 21.5703 64.0495 32.0249V32.0588C64.0495 32.5472 63.656 32.9407 63.1675 32.9407H60.3588Z" fill="#EB3A28"/>
<path d="M49.8093 6.32608C49.85 6.32608 49.8907 6.33965 49.9247 6.36C58.1472 11.9367 63.5475 21.3464 63.5475 32.0249V32.0588C63.5475 32.2623 63.3846 32.4319 63.1743 32.4319H60.3656C60.1621 32.4319 59.9925 32.2691 59.9925 32.0656C59.789 22.744 55.1621 14.5147 48.1336 9.38578C48.0522 9.32472 48.0251 9.20939 48.0793 9.1212L49.6465 6.42784C49.6736 6.36679 49.7415 6.32608 49.8093 6.32608ZM49.8093 5.30844C49.3751 5.30844 48.9749 5.53911 48.751 5.91224L47.1838 8.60559C46.865 9.14833 47.0142 9.84033 47.523 10.2067C49.2191 11.4414 50.7727 12.8661 52.1499 14.4468C56.424 19.3451 58.8324 25.5866 58.9681 32.0859C58.9884 32.839 59.599 33.4496 60.3589 33.4496H63.1675C63.9342 33.4496 64.5583 32.8254 64.5583 32.0588V32.0249C64.5583 29.3315 64.2191 26.6517 63.5542 24.0398C62.9029 21.516 61.9464 19.0805 60.7048 16.7942C58.2489 12.2759 54.7415 8.40885 50.4878 5.51875C50.291 5.38307 50.0536 5.30844 49.8093 5.30844Z" fill="#EB3A28"/>
<path d="M1.96003 33.0764C1.47156 33.0764 1.07807 32.6829 1.07129 32.1944V32.1605C1.07129 21.5364 6.37658 11.6992 15.2572 5.84437C15.3725 5.76974 15.5082 5.72903 15.6507 5.72903C15.9085 5.72903 16.1459 5.86472 16.268 6.0886L17.0482 7.45902C17.2382 7.79823 17.1229 8.22564 16.7904 8.42239C8.33045 13.3952 3.04551 22.398 2.8352 32.2148C2.82841 32.6897 2.43493 33.0764 1.96003 33.0764Z" fill="#00C94C"/>
<path d="M15.6508 6.23785C15.7254 6.23785 15.7932 6.27856 15.8271 6.33962L16.6073 7.71004C16.6616 7.80502 16.6277 7.92713 16.5327 7.98819C8.20842 12.8932 2.55713 21.8824 2.33325 32.2012C2.32646 32.4047 2.15686 32.5676 1.95333 32.5676C1.74302 32.5676 1.57341 32.4047 1.57341 32.1944V32.1605C1.57341 21.3396 7.12294 11.8077 15.5354 6.27178C15.5693 6.25142 15.61 6.23785 15.6508 6.23785ZM15.6508 5.22021C15.4133 5.22021 15.1759 5.28806 14.9791 5.42374C10.6304 8.30027 7.03474 12.1809 4.511 16.7467C3.23555 19.0601 2.25184 21.5228 1.58698 24.0737C0.908553 26.7128 0.562555 29.4332 0.562555 32.1605V32.1944C0.555771 32.9611 1.17314 33.592 1.93976 33.6056C2.70638 33.6191 3.33732 32.995 3.35089 32.2284C3.5612 22.5879 8.74437 13.748 17.0551 8.86336C17.625 8.52415 17.8217 7.79145 17.4961 7.208L16.7159 5.83758C16.4988 5.45766 16.0917 5.22021 15.6508 5.22021Z" fill="#00C94C"/>
<path d="M45.3862 8.23242C45.2641 8.23242 45.142 8.1985 45.0335 8.13744C37.2587 3.77516 27.8964 3.32062 19.735 6.90271C19.6468 6.94341 19.545 6.96377 19.45 6.96377C19.1922 6.96377 18.9616 6.82808 18.8327 6.6042L17.9643 5.07774C17.8693 4.90814 17.8421 4.70461 17.9032 4.52143C17.9575 4.33147 18.0864 4.17543 18.2628 4.08724C22.6861 1.8213 27.5911 0.64762 32.564 0.661188C37.6793 0.661188 42.7133 1.90949 47.2384 4.28398C47.5843 4.46716 47.72 4.90135 47.5369 5.25413C47.5301 5.26092 47.5301 5.2677 47.5233 5.27449L46.0036 7.87286C45.8747 8.09674 45.6441 8.23242 45.3862 8.23242Z" fill="#FFE804"/>
<path d="M32.5639 1.17682C37.5978 1.17003 42.5503 2.3912 47.0008 4.73855C47.1025 4.79283 47.1364 4.92173 47.0822 5.02349L45.5625 7.62186C45.5286 7.68292 45.4607 7.72363 45.3861 7.72363C45.3522 7.72363 45.3183 7.71684 45.2843 7.69649C37.3739 3.25958 27.842 2.79825 19.5381 6.4414C19.5109 6.45497 19.4838 6.46176 19.4567 6.46176C19.382 6.46176 19.3142 6.42105 19.2803 6.35999L18.4051 4.83353C18.3508 4.73855 18.378 4.60965 18.4729 4.55538C18.4797 4.55538 18.4797 4.54859 18.4865 4.54859C22.8488 2.33014 27.6724 1.17003 32.5639 1.17682ZM32.5639 0.159178C27.5096 0.152394 22.5299 1.34642 18.032 3.64629C17.7335 3.79554 17.5096 4.06691 17.4146 4.38577C17.3196 4.70463 17.3603 5.05063 17.5231 5.34235L18.3915 6.86881C18.6086 7.24873 19.0089 7.48618 19.4499 7.48618C19.6195 7.48618 19.7891 7.45226 19.9451 7.38442C23.4729 5.82404 27.2925 5.02349 31.1527 5.03028C33.5679 5.03028 35.9763 5.34235 38.3169 5.95972C40.5761 6.55674 42.747 7.44547 44.7823 8.59201C45.359 8.91766 46.0917 8.71413 46.4309 8.14425L47.9506 5.54588C48.2898 4.96243 48.093 4.21617 47.5164 3.87695C47.5028 3.87017 47.4892 3.8566 47.4689 3.84982C42.8691 1.43462 37.7606 0.165962 32.5639 0.159178Z" fill="#FFE804"/>
<path fill-rule="evenodd" clip-rule="evenodd" d="M14.1173 16.6645L17.49 18.5269C18.1552 18.8904 18.3588 19.7109 18.0174 20.3399L18.0155 20.3433L15.3338 25.1771L15.3336 25.1775C14.8695 26.0128 13.8112 26.3186 12.973 25.8531C12.9729 25.853 12.9729 25.853 12.9728 25.853L10.0241 24.2155L10.0196 24.213C9.69393 24.0269 9.43149 23.7112 9.3287 23.3202L8.28515 19.4035C8.28498 19.4029 8.28482 19.4023 8.28465 19.4016C8.10166 18.7207 8.48262 17.9917 9.18275 17.7806L13.1572 16.5556L13.173 16.5514C13.4462 16.4785 13.7955 16.4834 14.1173 16.6645ZM13.4578 18.2378L10.0127 19.2996L10.9413 22.7848L13.7964 24.3703L13.7965 24.3703C13.8014 24.3731 13.8053 24.3741 13.8091 24.3745C13.8136 24.375 13.8194 24.3747 13.8259 24.3728C13.8388 24.3691 13.8462 24.3622 13.8509 24.354C13.8509 24.3539 13.8509 24.3539 13.851 24.3538L16.3561 19.8382L13.4578 18.2378Z" fill="#282828"/>
<path fill-rule="evenodd" clip-rule="evenodd" d="M16.9466 30.668C16.1463 30.668 15.4948 31.3195 15.4948 32.1198V56.1429C15.4948 56.9432 16.1463 57.5947 16.9466 57.5947H17.3672C18.1675 57.5947 18.8191 56.9432 18.8191 56.1429V32.1198C18.8191 31.3195 18.1675 30.668 17.3672 30.668H16.9466ZM13.7987 32.1198C13.7987 30.3828 15.2096 28.9719 16.9466 28.9719H17.3672C19.1042 28.9719 20.5151 30.3828 20.5151 32.1198V56.1429C20.5151 57.8799 19.1042 59.2908 17.3672 59.2908H16.9466C15.2096 59.2908 13.7987 57.8799 13.7987 56.1429V32.1198Z" fill="#282828"/>
<path fill-rule="evenodd" clip-rule="evenodd" d="M25.6845 30.668C24.8842 30.668 24.2327 31.3195 24.2327 32.1198V56.1429C24.2327 56.9432 24.8842 57.5947 25.6845 57.5947H26.1051C26.9054 57.5947 27.557 56.9432 27.557 56.1429V32.1198C27.557 31.3195 26.9054 30.668 26.1051 30.668H25.6845ZM22.5366 32.1198C22.5366 30.3828 23.9475 28.9719 25.6845 28.9719H26.1051C27.8422 28.9719 29.253 30.3828 29.253 32.1198V56.1429C29.253 57.8799 27.8422 59.2908 26.1051 59.2908H25.6845C23.9475 59.2908 22.5366 57.8799 22.5366 56.1429V32.1198Z" fill="#282828"/>
<path fill-rule="evenodd" clip-rule="evenodd" d="M34.4227 30.668C33.6224 30.668 32.9708 31.3195 32.9708 32.1198V56.1429C32.9708 56.9432 33.6224 57.5947 34.4227 57.5947H34.8433C35.6529 57.5947 36.2994 56.9417 36.2951 56.1474L36.2951 56.1429V32.1198C36.2951 31.3195 35.6436 30.668 34.8433 30.668H34.4227ZM31.2748 32.1198C31.2748 30.3828 32.6857 28.9719 34.4227 28.9719H34.8433C36.5803 28.9719 37.9912 30.3828 37.9912 32.1198V56.1407C37.9992 57.8827 36.5838 59.2908 34.8433 59.2908H34.4227C32.6857 59.2908 31.2748 57.8799 31.2748 56.1429V32.1198Z" fill="#282828"/>
<path fill-rule="evenodd" clip-rule="evenodd" d="M43.1678 30.668C42.3675 30.668 41.716 31.3195 41.716 32.1198V56.1429C41.716 56.9432 42.3675 57.5947 43.1678 57.5947H43.5884C44.3887 57.5947 45.0402 56.9432 45.0402 56.1429V32.1198C45.0402 31.3195 44.3887 30.668 43.5884 30.668H43.1678ZM40.0199 32.1198C40.0199 30.3828 41.4308 28.9719 43.1678 28.9719H43.5884C45.3254 28.9719 46.7363 30.3828 46.7363 32.1198V56.1429C46.7363 57.8799 45.3254 59.2908 43.5884 59.2908H43.1678C41.4308 59.2908 40.0199 57.8799 40.0199 56.1429V32.1198Z" fill="#282828"/>
<path fill-rule="evenodd" clip-rule="evenodd" d="M51.3493 33.782C50.4238 33.782 49.6736 34.5322 49.6736 35.4577C49.6736 36.3832 50.4238 37.1334 51.3493 37.1334C52.2748 37.1334 53.025 36.3832 53.025 35.4577C53.025 34.5322 52.2748 33.782 51.3493 33.782ZM47.9775 35.4577C47.9775 33.5955 49.4871 32.0859 51.3493 32.0859C53.2115 32.0859 54.7211 33.5955 54.7211 35.4577C54.7211 37.3199 53.2115 38.8295 51.3493 38.8295C49.4871 38.8295 47.9775 37.3199 47.9775 35.4577Z" fill="#282828"/>
<path fill-rule="evenodd" clip-rule="evenodd" d="M23.3847 35.0777H20.2572V33.3817H23.3847V35.0777Z" fill="#282828"/>
<path fill-rule="evenodd" clip-rule="evenodd" d="M32.1228 35.0777H28.405V33.3817H32.1228V35.0777Z" fill="#282828"/>
<path fill-rule="evenodd" clip-rule="evenodd" d="M40.861 35.0777H37.7198V33.3817H40.861V35.0777Z" fill="#282828"/>
<path fill-rule="evenodd" clip-rule="evenodd" d="M23.3849 37.8457H19.6671V36.1497H23.3849V37.8457Z" fill="#282828"/>
<path fill-rule="evenodd" clip-rule="evenodd" d="M32.7334 37.8457H28.405V36.1497H32.7334V37.8457Z" fill="#282828"/>
<path fill-rule="evenodd" clip-rule="evenodd" d="M40.861 37.8457H37.7198V36.1497H40.861V37.8457Z" fill="#282828"/>
<path fill-rule="evenodd" clip-rule="evenodd" d="M49.5312 35.0777H46.0848V33.3817H49.5312V35.0777Z" fill="#282828"/>
<path fill-rule="evenodd" clip-rule="evenodd" d="M49.5312 37.8457H46.0848V36.1497H49.5312V37.8457Z" fill="#282828"/>
<path fill-rule="evenodd" clip-rule="evenodd" d="M23.1813 51.6789H20.0537V49.9828H23.1813V51.6789Z" fill="#282828"/>
<path fill-rule="evenodd" clip-rule="evenodd" d="M31.9194 51.6789H28.2084V49.9828H31.9194V51.6789Z" fill="#282828"/>
<path fill-rule="evenodd" clip-rule="evenodd" d="M40.6643 51.6789H37.5232V49.9828H40.6643V51.6789Z" fill="#282828"/>
<path fill-rule="evenodd" clip-rule="evenodd" d="M23.5204 54.8539H19.8094V53.1578H23.5204V54.8539Z" fill="#282828"/>
<path fill-rule="evenodd" clip-rule="evenodd" d="M32.8692 54.8539H28.5476V53.1578H32.8692V54.8539Z" fill="#282828"/>
<path fill-rule="evenodd" clip-rule="evenodd" d="M41.0035 54.8539H37.8624V53.1578H41.0035V54.8539Z" fill="#282828"/>
</svg>
