<svg width="65" height="65" viewBox="0 0 65 65" fill="none" xmlns="http://www.w3.org/2000/svg">
<path d="M60.3588 35.9407C59.8771 35.9407 59.4904 35.5608 59.4769 35.0791C59.3955 30.649 58.2625 26.3003 56.1661 22.3926C54.1377 18.6069 51.2883 15.3302 47.8215 12.7996C47.523 12.5825 47.4416 12.1823 47.6248 11.8634L49.1919 9.17004C49.3208 8.95295 49.5583 8.81726 49.8093 8.81726C49.9518 8.81726 50.0942 8.85797 50.2096 8.93938C58.8663 14.7942 64.0562 24.5703 64.0495 35.0249V35.0588C64.0495 35.5472 63.656 35.9407 63.1675 35.9407H60.3588Z" fill="#EB3A28"/>
<path d="M49.8093 9.32608C49.85 9.32608 49.8907 9.33965 49.9247 9.36C58.1472 14.9367 63.5475 24.3464 63.5475 35.0249V35.0588C63.5475 35.2623 63.3846 35.4319 63.1743 35.4319H60.3656C60.1621 35.4319 59.9925 35.2691 59.9925 35.0656C59.789 25.744 55.1621 17.5147 48.1336 12.3858C48.0522 12.3247 48.0251 12.2094 48.0793 12.1212L49.6465 9.42784C49.6736 9.36679 49.7415 9.32608 49.8093 9.32608ZM49.8093 8.30844C49.3751 8.30844 48.9749 8.53911 48.751 8.91224L47.1838 11.6056C46.865 12.1483 47.0142 12.8403 47.523 13.2067C49.2191 14.4414 50.7727 15.8661 52.1499 17.4468C56.424 22.3451 58.8324 28.5866 58.9681 35.0859C58.9884 35.839 59.599 36.4496 60.3589 36.4496H63.1675C63.9342 36.4496 64.5583 35.8254 64.5583 35.0588V35.0249C64.5583 32.3315 64.2191 29.6517 63.5542 27.0398C62.9029 24.516 61.9464 22.0805 60.7048 19.7942C58.2489 15.2759 54.7415 11.4088 50.4878 8.51875C50.291 8.38307 50.0536 8.30844 49.8093 8.30844Z" fill="#EB3A28"/>
<path d="M1.96003 36.0764C1.47156 36.0764 1.07807 35.6829 1.07129 35.1944V35.1605C1.07129 24.5364 6.37658 14.6992 15.2572 8.84437C15.3725 8.76974 15.5082 8.72903 15.6507 8.72903C15.9085 8.72903 16.1459 8.86472 16.268 9.0886L17.0482 10.459C17.2382 10.7982 17.1229 11.2256 16.7904 11.4224C8.33045 16.3952 3.04551 25.398 2.8352 35.2148C2.82841 35.6897 2.43493 36.0764 1.96003 36.0764Z" fill="#00C94C"/>
<path d="M15.6508 9.23785C15.7254 9.23785 15.7932 9.27856 15.8271 9.33962L16.6073 10.71C16.6616 10.805 16.6277 10.9271 16.5327 10.9882C8.20842 15.8932 2.55713 24.8824 2.33325 35.2012C2.32646 35.4047 2.15686 35.5676 1.95333 35.5676C1.74302 35.5676 1.57341 35.4047 1.57341 35.1944V35.1605C1.57341 24.3396 7.12294 14.8077 15.5354 9.27178C15.5693 9.25142 15.61 9.23785 15.6508 9.23785ZM15.6508 8.22021C15.4133 8.22021 15.1759 8.28806 14.9791 8.42374C10.6304 11.3003 7.03474 15.1809 4.511 19.7467C3.23555 22.0601 2.25184 24.5228 1.58698 27.0737C0.908553 29.7128 0.562555 32.4332 0.562555 35.1605V35.1944C0.555771 35.9611 1.17314 36.592 1.93976 36.6056C2.70638 36.6191 3.33732 35.995 3.35089 35.2284C3.5612 25.5879 8.74437 16.748 17.0551 11.8634C17.625 11.5242 17.8217 10.7914 17.4961 10.208L16.7159 8.83758C16.4988 8.45766 16.0917 8.22021 15.6508 8.22021Z" fill="#00C94C"/>
<path d="M45.3862 11.2324C45.2641 11.2324 45.142 11.1985 45.0335 11.1374C37.2587 6.77516 27.8964 6.32062 19.735 9.90271C19.6468 9.94341 19.545 9.96377 19.45 9.96377C19.1922 9.96377 18.9616 9.82808 18.8327 9.6042L17.9643 8.07774C17.8693 7.90814 17.8421 7.70461 17.9032 7.52143C17.9575 7.33147 18.0864 7.17543 18.2628 7.08724C22.6861 4.8213 27.5911 3.64762 32.564 3.66119C37.6793 3.66119 42.7133 4.90949 47.2384 7.28398C47.5843 7.46716 47.72 7.90135 47.5369 8.25413C47.5301 8.26092 47.5301 8.2677 47.5233 8.27449L46.0036 10.8729C45.8747 11.0967 45.6441 11.2324 45.3862 11.2324Z" fill="#FFE804"/>
<path d="M32.5639 4.17682C37.5978 4.17003 42.5503 5.3912 47.0008 7.73855C47.1025 7.79283 47.1364 7.92173 47.0822 8.02349L45.5625 10.6219C45.5286 10.6829 45.4607 10.7236 45.3861 10.7236C45.3522 10.7236 45.3183 10.7168 45.2843 10.6965C37.3739 6.25958 27.842 5.79825 19.5381 9.4414C19.5109 9.45497 19.4838 9.46176 19.4567 9.46176C19.382 9.46176 19.3142 9.42105 19.2803 9.35999L18.4051 7.83353C18.3508 7.73855 18.378 7.60965 18.4729 7.55538C18.4797 7.55538 18.4797 7.54859 18.4865 7.54859C22.8488 5.33014 27.6724 4.17003 32.5639 4.17682ZM32.5639 3.15918C27.5096 3.15239 22.5299 4.34642 18.032 6.64629C17.7335 6.79554 17.5096 7.06691 17.4146 7.38577C17.3196 7.70463 17.3603 8.05063 17.5231 8.34235L18.3915 9.86881C18.6086 10.2487 19.0089 10.4862 19.4499 10.4862C19.6195 10.4862 19.7891 10.4523 19.9451 10.3844C23.4729 8.82404 27.2925 8.02349 31.1527 8.03028C33.5679 8.03028 35.9763 8.34235 38.3169 8.95972C40.5761 9.55674 42.747 10.4455 44.7823 11.592C45.359 11.9177 46.0917 11.7141 46.4309 11.1443L47.9506 8.54588C48.2898 7.96243 48.093 7.21617 47.5164 6.87695C47.5028 6.87017 47.4892 6.8566 47.4689 6.84982C42.8691 4.43462 37.7606 3.16596 32.5639 3.15918Z" fill="#FFE804"/>
<path fill-rule="evenodd" clip-rule="evenodd" d="M14.1173 19.6645L17.49 21.5269C18.1552 21.8904 18.3588 22.7109 18.0174 23.3399L18.0155 23.3433L15.3338 28.1771L15.3336 28.1775C14.8695 29.0128 13.8112 29.3186 12.973 28.8531C12.9729 28.853 12.9729 28.853 12.9728 28.853L10.0241 27.2155L10.0196 27.213C9.69393 27.0269 9.43149 26.7112 9.3287 26.3202L8.28515 22.4035C8.28498 22.4029 8.28482 22.4023 8.28465 22.4016C8.10166 21.7207 8.48262 20.9917 9.18275 20.7806L13.1572 19.5556L13.173 19.5514C13.4462 19.4785 13.7955 19.4834 14.1173 19.6645ZM13.4578 21.2378L10.0127 22.2996L10.9413 25.7848L13.7964 27.3703L13.7965 27.3703C13.8014 27.3731 13.8053 27.3741 13.8091 27.3745C13.8136 27.375 13.8194 27.3747 13.8259 27.3728C13.8388 27.3691 13.8462 27.3622 13.8509 27.354C13.8509 27.3539 13.8509 27.3539 13.851 27.3538L16.3561 22.8382L13.4578 21.2378Z" fill="#282828"/>
<path fill-rule="evenodd" clip-rule="evenodd" d="M16.9466 33.668C16.1463 33.668 15.4948 34.3195 15.4948 35.1198V59.1429C15.4948 59.9432 16.1463 60.5947 16.9466 60.5947H17.3672C18.1675 60.5947 18.8191 59.9432 18.8191 59.1429V35.1198C18.8191 34.3195 18.1675 33.668 17.3672 33.668H16.9466ZM13.7987 35.1198C13.7987 33.3828 15.2096 31.9719 16.9466 31.9719H17.3672C19.1042 31.9719 20.5151 33.3828 20.5151 35.1198V59.1429C20.5151 60.8799 19.1042 62.2908 17.3672 62.2908H16.9466C15.2096 62.2908 13.7987 60.8799 13.7987 59.1429V35.1198Z" fill="#282828"/>
<path fill-rule="evenodd" clip-rule="evenodd" d="M25.6845 33.668C24.8842 33.668 24.2327 34.3195 24.2327 35.1198V59.1429C24.2327 59.9432 24.8842 60.5947 25.6845 60.5947H26.1051C26.9054 60.5947 27.557 59.9432 27.557 59.1429V35.1198C27.557 34.3195 26.9054 33.668 26.1051 33.668H25.6845ZM22.5366 35.1198C22.5366 33.3828 23.9475 31.9719 25.6845 31.9719H26.1051C27.8422 31.9719 29.253 33.3828 29.253 35.1198V59.1429C29.253 60.8799 27.8422 62.2908 26.1051 62.2908H25.6845C23.9475 62.2908 22.5366 60.8799 22.5366 59.1429V35.1198Z" fill="#282828"/>
<path fill-rule="evenodd" clip-rule="evenodd" d="M34.4227 33.668C33.6224 33.668 32.9708 34.3195 32.9708 35.1198V59.1429C32.9708 59.9432 33.6224 60.5947 34.4227 60.5947H34.8433C35.6529 60.5947 36.2994 59.9417 36.2951 59.1474L36.2951 59.1429V35.1198C36.2951 34.3195 35.6436 33.668 34.8433 33.668H34.4227ZM31.2748 35.1198C31.2748 33.3828 32.6857 31.9719 34.4227 31.9719H34.8433C36.5803 31.9719 37.9912 33.3828 37.9912 35.1198V59.1407C37.9992 60.8827 36.5838 62.2908 34.8433 62.2908H34.4227C32.6857 62.2908 31.2748 60.8799 31.2748 59.1429V35.1198Z" fill="#282828"/>
<path fill-rule="evenodd" clip-rule="evenodd" d="M43.1678 33.668C42.3675 33.668 41.716 34.3195 41.716 35.1198V59.1429C41.716 59.9432 42.3675 60.5947 43.1678 60.5947H43.5884C44.3887 60.5947 45.0402 59.9432 45.0402 59.1429V35.1198C45.0402 34.3195 44.3887 33.668 43.5884 33.668H43.1678ZM40.0199 35.1198C40.0199 33.3828 41.4308 31.9719 43.1678 31.9719H43.5884C45.3254 31.9719 46.7363 33.3828 46.7363 35.1198V59.1429C46.7363 60.8799 45.3254 62.2908 43.5884 62.2908H43.1678C41.4308 62.2908 40.0199 60.8799 40.0199 59.1429V35.1198Z" fill="#282828"/>
<path fill-rule="evenodd" clip-rule="evenodd" d="M51.3493 36.782C50.4238 36.782 49.6736 37.5322 49.6736 38.4577C49.6736 39.3832 50.4238 40.1334 51.3493 40.1334C52.2748 40.1334 53.025 39.3832 53.025 38.4577C53.025 37.5322 52.2748 36.782 51.3493 36.782ZM47.9775 38.4577C47.9775 36.5955 49.4871 35.0859 51.3493 35.0859C53.2115 35.0859 54.7211 36.5955 54.7211 38.4577C54.7211 40.3199 53.2115 41.8295 51.3493 41.8295C49.4871 41.8295 47.9775 40.3199 47.9775 38.4577Z" fill="#282828"/>
<path fill-rule="evenodd" clip-rule="evenodd" d="M23.3847 38.0777H20.2572V36.3817H23.3847V38.0777Z" fill="#282828"/>
<path fill-rule="evenodd" clip-rule="evenodd" d="M32.1228 38.0777H28.405V36.3817H32.1228V38.0777Z" fill="#282828"/>
<path fill-rule="evenodd" clip-rule="evenodd" d="M40.861 38.0777H37.7198V36.3817H40.861V38.0777Z" fill="#282828"/>
<path fill-rule="evenodd" clip-rule="evenodd" d="M23.3849 40.8457H19.6671V39.1497H23.3849V40.8457Z" fill="#282828"/>
<path fill-rule="evenodd" clip-rule="evenodd" d="M32.7334 40.8457H28.405V39.1497H32.7334V40.8457Z" fill="#282828"/>
<path fill-rule="evenodd" clip-rule="evenodd" d="M40.861 40.8457H37.7198V39.1497H40.861V40.8457Z" fill="#282828"/>
<path fill-rule="evenodd" clip-rule="evenodd" d="M49.5312 38.0777H46.0848V36.3817H49.5312V38.0777Z" fill="#282828"/>
<path fill-rule="evenodd" clip-rule="evenodd" d="M49.5312 40.8457H46.0848V39.1497H49.5312V40.8457Z" fill="#282828"/>
<path fill-rule="evenodd" clip-rule="evenodd" d="M23.1813 54.6789H20.0537V52.9828H23.1813V54.6789Z" fill="#282828"/>
<path fill-rule="evenodd" clip-rule="evenodd" d="M31.9194 54.6789H28.2084V52.9828H31.9194V54.6789Z" fill="#282828"/>
<path fill-rule="evenodd" clip-rule="evenodd" d="M40.6643 54.6789H37.5232V52.9828H40.6643V54.6789Z" fill="#282828"/>
<path fill-rule="evenodd" clip-rule="evenodd" d="M23.5204 57.8539H19.8094V56.1578H23.5204V57.8539Z" fill="#282828"/>
<path fill-rule="evenodd" clip-rule="evenodd" d="M32.8692 57.8539H28.5476V56.1578H32.8692V57.8539Z" fill="#282828"/>
<path fill-rule="evenodd" clip-rule="evenodd" d="M41.0035 57.8539H37.8624V56.1578H41.0035V57.8539Z" fill="#282828"/>
</svg>
