<svg width="512" height="512" viewBox="0 0 512 512" fill="none" xmlns="http://www.w3.org/2000/svg">
<g clip-path="url(#clip0_4680_633)">
<path d="M215.45 2.38047C213.949 1.49739 212.243 1.02178 210.501 1.00073C208.759 0.979683 207.042 1.41393 205.52 2.26047L81.79 71.0005H10C7.34784 71.0005 4.8043 72.054 2.92893 73.9294C1.05357 75.8048 0 78.3483 0 81.0005L0 186C0 188.653 1.05357 191.196 2.92893 193.072C4.8043 194.947 7.34784 196 10 196H81.79L205.52 264.74C207.042 265.587 208.759 266.021 210.501 266C212.242 265.979 213.948 265.504 215.45 264.621C216.951 263.738 218.196 262.478 219.06 260.966C219.925 259.454 220.38 257.742 220.38 256V11.0005C220.38 9.25875 219.925 7.54721 219.061 6.03529C218.196 4.52338 216.951 3.26353 215.45 2.38047ZM20 91.0005H74.38V176H20V91.0005ZM200.38 239L94.38 180.12V86.8805L200.38 28.0005V239Z" fill="#B4B7BA"/>
<path d="M118 514H54C51.3478 514 48.8043 512.946 46.9289 511.071C45.0536 509.196 44 506.652 44 504V424C44 421.348 45.0536 418.804 46.9289 416.929C48.8043 415.054 51.3478 414 54 414H118C120.652 414 123.196 415.054 125.071 416.929C126.946 418.804 128 421.348 128 424V504C128 506.652 126.946 509.196 125.071 511.071C123.196 512.946 120.652 514 118 514ZM64 494H108V434H64V494Z" fill="#B4B7BA"/>
<path d="M214 514H150C147.348 514 144.804 512.946 142.929 511.071C141.054 509.196 140 506.652 140 504V360C140 357.348 141.054 354.804 142.929 352.929C144.804 351.054 147.348 350 150 350H214C216.652 350 219.196 351.054 221.071 352.929C222.946 354.804 224 357.348 224 360V504C224 506.652 222.946 509.196 221.071 511.071C219.196 512.946 216.652 514 214 514ZM160 494H204V370H160V494Z" fill="#B4B7BA"/>
<path d="M310 514H246C243.348 514 240.804 512.946 238.929 511.071C237.054 509.196 236 506.652 236 504V280C236 277.348 237.054 274.804 238.929 272.929C240.804 271.054 243.348 270 246 270H310C312.652 270 315.196 271.054 317.071 272.929C318.946 274.804 320 277.348 320 280V504C320 506.652 318.946 509.196 317.071 511.071C315.196 512.946 312.652 514 310 514ZM256 494H300V290H256V494Z" fill="#B4B7BA"/>
<path d="M406 514H342C339.348 514 336.804 512.946 334.929 511.071C333.054 509.196 332 506.652 332 504V200C332 197.348 333.054 194.804 334.929 192.929C336.804 191.054 339.348 190 342 190H406C408.652 190 411.196 191.054 413.071 192.929C414.946 194.804 416 197.348 416 200V504C416 506.652 414.946 509.196 413.071 511.071C411.196 512.946 408.652 514 406 514ZM352 494H396V210H352V494Z" fill="#00D151"/>
<path d="M502 514H438C435.348 514 432.804 512.946 430.929 511.071C429.054 509.196 428 506.652 428 504V120C428 117.348 429.054 114.804 430.929 112.929C432.804 111.054 435.348 110 438 110H502C504.652 110 507.196 111.054 509.071 112.929C510.946 114.804 512 117.348 512 120V504C512 506.652 510.946 509.196 509.071 511.071C507.196 512.946 504.652 514 502 514ZM448 494H492V130H448V494Z" fill="#B4B7BA"/>
</g>
<defs>
<clipPath id="clip0_4680_633">
<rect width="512" height="512" fill="white"/>
</clipPath>
</defs>
</svg>
