<?xml version="1.0" encoding="UTF-8"?>
<svg height="600" width="800" xmlns="http://www.w3.org/2000/svg" xmlns:xlink="http://www.w3.org/1999/xlink">
    <g id="Notes" font-family="'LucidaGrande', 'Lucida Grande', sans-serif" font-size="13">
        <rect fill="white" height="600.0" width="800.0" x="0.0" y="0.0" />
        <g font-size="13">
            <text x="18.0" y="176.0">Small</text>
            <text x="18.0" y="376.0">Medium</text>
            <text x="18.0" y="576.0">Large</text>
        </g>
        <g font-size="9">
            <text x="250.0" y="30.0">Ultralight</text>
            <text x="450.0" y="30.0">Regular</text>
            <text x="650.0" y="30.0">Black</text>
            <text id="template-version" fill="#505050" text-anchor="end" x="785.0" y="575.0">Template v.3.0</text>
            <a href="https://github.com/swhitty/SwiftDraw">
                <text fill="#505050" text-anchor="end" x="785.0" y="590.0">https://github.com/swhitty/SwiftDraw</text>
            </a>
        </g>
    </g>
    <g id="Guides" stroke="rgb(39, 170, 225)" stroke-width="0.5">
        <path id="Capline-S" d="M18,76 l800,0" />
        <path id="H-reference" d="M85,145.755 L87.685,145.755 L113.369,79.287 L114.052,79.287 L114.052,76 L112.148,76 L85,145.755 Z M95.693,121.536 L130.996,121.536 L130.263,119.313 L96.474,119.313 L95.693,121.536 Z M139.15,145.755 L141.787,145.755 L114.638,76 L113.466,76 L113.466,79.287 L139.15,145.755 Z" stroke="none" />
        <path id="Baseline-S" d="M18,146 l800,0" />
        <path id="left-margin-Ultralight-S" d="M221,56 l0,110" />
        <path id="right-margin-Ultralight-S" d="M309,56 l0,110" />
        <path id="left-margin-Regular-S" d="M421,56 l0,110" />
        <path id="right-margin-Regular-S" d="M509,56 l0,110" />
        <path id="left-margin-Black-S" d="M621,56 l0,110" />
        <path id="right-margin-Black-S" d="M709,56 l0,110" />
        <path id="Capline-M" d="M18,276 l800,0" />
        <path id="Baseline-M" d="M18,346 l800,0" />
        <path id="Capline-L" d="M18,476 l800,0" />
        <path id="Baseline-L" d="M18,546 l800,0" />
    </g>
    <g id="Symbols">
        <g id="Ultralight-S">
            <path d="M255.179,76.056 C254.614,75.916 254.009,76.038 253.55,76.439 C253.103,76.831 252.911,77.382 252.911,77.904 L252.911,144.096 C252.911,144.622 253.11,145.163 253.542,145.548 C253.987,145.944 254.592,146.09 255.178,145.945 L255.183,145.944 L279.163,140.1 L279.17,140.098 C279.736,139.956 280.087,139.556 280.269,139.258 C280.466,138.938 280.586,138.556 280.604,138.165 L280.605,138.137 L280.605,83.893 C280.605,83.462 280.473,83.056 280.268,82.731 C280.078,82.428 279.723,82.041 279.17,81.903 L255.183,76.057 L255.179,76.056 Z M255.446,78.73 L278.07,84.244 L278.07,137.757 L255.446,143.271 L255.446,78.73 Z" />
            <path d="M262.274,110.984 C262.274,112.062 261.577,112.949 260.69,112.949 C259.803,112.965 259.074,112.078 259.074,110.984 C259.074,109.891 259.803,109.004 260.69,109.02 C261.561,109.036 262.274,109.907 262.274,110.984 Z" />
            <path d="M264.097,94.65 L271.638,95.68 L271.638,98.278 L264.097,97.502 L264.097,94.65 Z M263.859,93.985 C263.637,93.985 263.463,94.191 263.463,94.492 L263.463,97.518 C263.463,97.819 263.653,98.088 263.907,98.12 L271.907,98.944 C271.923,98.944 271.923,98.944 271.939,98.944 C272.129,98.944 272.288,98.738 272.288,98.468 L272.288,95.648 C272.288,95.363 272.113,95.11 271.907,95.078 L263.907,93.985 C263.891,93.985 263.875,93.985 263.859,93.985 Z" />
            <path d="M235.992,138.741 C235.992,138.041 236.559,137.474 237.259,137.474 L250.583,137.474 C250.583,138.829 250.583,138.829 250.583,140.009 L237.259,140.009 C236.559,140.009 235.992,139.441 235.992,138.741 Z" />
            <path d="M235.992,135.098 C235.992,134.398 236.559,133.83 237.259,133.83 L250.583,133.83 C250.781,135.062 250.781,135.062 250.781,135.062 C250.781,135.062 250.781,135.062 250.583,136.365 L237.259,136.365 C236.559,136.365 235.992,135.798 235.992,135.098 Z" />
            <path d="M278.15,138.741 C278.15,138.041 278.717,137.474 279.417,137.474 L292.741,137.474 C293.441,137.474 294.008,138.041 294.008,138.741 C294.008,139.441 293.441,140.009 292.741,140.009 L279.417,140.009 C278.717,140.009 278.15,139.441 278.15,138.741 Z" />
            <path d="M278.15,135.098 C278.15,134.398 278.717,133.83 279.417,133.83 L292.741,133.83 C293.441,133.83 294.008,134.398 294.008,135.098 C294.008,135.798 293.441,136.365 292.741,136.365 L279.417,136.365 C278.717,136.365 278.15,135.798 278.15,135.098 Z" />
            <path d="M249.49,83.877 C249.49,82.813 250.342,81.96 251.407,81.96 L255.447,81.96 L255.447,140.009 L249.49,140.009 C249.49,140.009 249.49,89.805 249.49,83.877 Z M250.781,83.877 L250.781,138.344 L252.912,138.344 L252.912,83.877 L250.781,83.877 Z" />
        </g>
        <g id="Regular-S">
            <path d="M455.179,76.056 C454.614,75.916 454.009,76.038 453.55,76.439 C453.103,76.831 452.911,77.382 452.911,77.904 L452.911,144.096 C452.911,144.622 453.11,145.163 453.542,145.548 C453.987,145.944 454.592,146.09 455.178,145.945 L455.183,145.944 L479.163,140.1 L479.17,140.098 C479.736,139.956 480.087,139.556 480.269,139.258 C480.466,138.938 480.586,138.556 480.604,138.165 L480.605,138.137 L480.605,83.893 C480.605,83.462 480.473,83.056 480.268,82.731 C480.078,82.428 479.723,82.041 479.17,81.903 L455.183,76.057 L455.179,76.056 Z M455.446,78.73 L478.07,84.244 L478.07,137.757 L455.446,143.271 L455.446,78.73 Z" />
            <path d="M462.274,110.984 C462.274,112.062 461.577,112.949 460.69,112.949 C459.803,112.965 459.074,112.078 459.074,110.984 C459.074,109.891 459.803,109.004 460.69,109.02 C461.561,109.036 462.274,109.907 462.274,110.984 Z" />
            <path d="M464.097,94.65 L471.638,95.68 L471.638,98.278 L464.097,97.502 L464.097,94.65 Z M463.859,93.985 C463.637,93.985 463.463,94.191 463.463,94.492 L463.463,97.518 C463.463,97.819 463.653,98.088 463.907,98.12 L471.907,98.944 C471.923,98.944 471.923,98.944 471.939,98.944 C472.129,98.944 472.288,98.738 472.288,98.468 L472.288,95.648 C472.288,95.363 472.113,95.11 471.907,95.078 L463.907,93.985 C463.891,93.985 463.875,93.985 463.859,93.985 Z" />
            <path d="M435.992,138.741 C435.992,138.041 436.559,137.474 437.259,137.474 L450.583,137.474 C450.583,138.829 450.583,138.829 450.583,140.009 L437.259,140.009 C436.559,140.009 435.992,139.441 435.992,138.741 Z" />
            <path d="M435.992,135.098 C435.992,134.398 436.559,133.83 437.259,133.83 L450.583,133.83 C450.781,135.062 450.781,135.062 450.781,135.062 C450.781,135.062 450.781,135.062 450.583,136.365 L437.259,136.365 C436.559,136.365 435.992,135.798 435.992,135.098 Z" />
            <path d="M478.15,138.741 C478.15,138.041 478.717,137.474 479.417,137.474 L492.741,137.474 C493.441,137.474 494.008,138.041 494.008,138.741 C494.008,139.441 493.441,140.009 492.741,140.009 L479.417,140.009 C478.717,140.009 478.15,139.441 478.15,138.741 Z" />
            <path d="M478.15,135.098 C478.15,134.398 478.717,133.83 479.417,133.83 L492.741,133.83 C493.441,133.83 494.008,134.398 494.008,135.098 C494.008,135.798 493.441,136.365 492.741,136.365 L479.417,136.365 C478.717,136.365 478.15,135.798 478.15,135.098 Z" />
            <path d="M449.49,83.877 C449.49,82.813 450.342,81.96 451.407,81.96 L455.447,81.96 L455.447,140.009 L449.49,140.009 C449.49,140.009 449.49,89.805 449.49,83.877 Z M450.781,83.877 L450.781,138.344 L452.912,138.344 L452.912,83.877 L450.781,83.877 Z" />
        </g>
        <g id="Black-S">
            <path d="M655.179,76.056 C654.614,75.916 654.009,76.038 653.55,76.439 C653.103,76.831 652.911,77.382 652.911,77.904 L652.911,144.096 C652.911,144.622 653.11,145.163 653.542,145.548 C653.987,145.944 654.592,146.09 655.178,145.945 L655.183,145.944 L679.163,140.1 L679.17,140.098 C679.736,139.956 680.087,139.556 680.269,139.258 C680.466,138.938 680.586,138.556 680.604,138.165 L680.605,138.137 L680.605,83.893 C680.605,83.462 680.473,83.056 680.268,82.731 C680.078,82.428 679.723,82.041 679.17,81.903 L655.183,76.057 L655.179,76.056 Z M655.446,78.73 L678.07,84.244 L678.07,137.757 L655.446,143.271 L655.446,78.73 Z" />
            <path d="M662.274,110.984 C662.274,112.062 661.577,112.949 660.69,112.949 C659.803,112.965 659.074,112.078 659.074,110.984 C659.074,109.891 659.803,109.004 660.69,109.02 C661.561,109.036 662.274,109.907 662.274,110.984 Z" />
            <path d="M664.097,94.65 L671.638,95.68 L671.638,98.278 L664.097,97.502 L664.097,94.65 Z M663.859,93.985 C663.637,93.985 663.463,94.191 663.463,94.492 L663.463,97.518 C663.463,97.819 663.653,98.088 663.907,98.12 L671.907,98.944 C671.923,98.944 671.923,98.944 671.939,98.944 C672.129,98.944 672.288,98.738 672.288,98.468 L672.288,95.648 C672.288,95.363 672.113,95.11 671.907,95.078 L663.907,93.985 C663.891,93.985 663.875,93.985 663.859,93.985 Z" />
            <path d="M635.992,138.741 C635.992,138.041 636.559,137.474 637.259,137.474 L650.583,137.474 C650.583,138.829 650.583,138.829 650.583,140.009 L637.259,140.009 C636.559,140.009 635.992,139.441 635.992,138.741 Z" />
            <path d="M635.992,135.098 C635.992,134.398 636.559,133.83 637.259,133.83 L650.583,133.83 C650.781,135.062 650.781,135.062 650.781,135.062 C650.781,135.062 650.781,135.062 650.583,136.365 L637.259,136.365 C636.559,136.365 635.992,135.798 635.992,135.098 Z" />
            <path d="M678.15,138.741 C678.15,138.041 678.717,137.474 679.417,137.474 L692.741,137.474 C693.441,137.474 694.008,138.041 694.008,138.741 C694.008,139.441 693.441,140.009 692.741,140.009 L679.417,140.009 C678.717,140.009 678.15,139.441 678.15,138.741 Z" />
            <path d="M678.15,135.098 C678.15,134.398 678.717,133.83 679.417,133.83 L692.741,133.83 C693.441,133.83 694.008,134.398 694.008,135.098 C694.008,135.798 693.441,136.365 692.741,136.365 L679.417,136.365 C678.717,136.365 678.15,135.798 678.15,135.098 Z" />
            <path d="M649.49,83.877 C649.49,82.813 650.342,81.96 651.407,81.96 L655.447,81.96 L655.447,140.009 L649.49,140.009 C649.49,140.009 649.49,89.805 649.49,83.877 Z M650.781,83.877 L650.781,138.344 L652.912,138.344 L652.912,83.877 L650.781,83.877 Z" />
        </g>
    </g>
</svg>