<svg width="64" height="60" viewBox="0 0 64 60" fill="none" xmlns="http://www.w3.org/2000/svg">
<path d="M59.8002 33.1783C59.3253 33.1783 58.925 32.7916 58.9182 32.3167C58.8232 27.8323 57.7105 23.565 55.6073 19.6301C53.599 15.8716 50.7155 12.5541 47.2621 10.0372C46.9636 9.82007 46.8821 9.4198 47.0653 9.10094L48.6326 6.40759C48.7615 6.19049 48.999 6.05481 49.25 6.05481C49.3925 6.05481 49.5282 6.09552 49.6503 6.17693C58.3211 12.0521 63.4911 21.8011 63.4911 32.2624V32.2963C63.4911 32.7848 63.0908 33.1783 62.6091 33.1783H59.8002Z" fill="#EB3A28"/>
<path d="M49.2501 6.5636C49.2908 6.5636 49.3315 6.57717 49.3654 6.59752C57.5885 12.1742 62.9891 21.584 62.9891 32.2624C62.9891 32.2759 62.9891 32.2827 62.9891 32.2963C62.9891 32.5066 62.8195 32.6694 62.6159 32.6694H59.8071C59.6035 32.6694 59.4339 32.5066 59.4339 32.3031C59.2304 22.9815 54.6032 14.7522 47.5742 9.6233C47.4928 9.56224 47.4657 9.44691 47.52 9.35871L49.0872 6.66536C49.1144 6.59752 49.1822 6.5636 49.2501 6.5636ZM49.2501 5.54596C48.8158 5.54596 48.4155 5.77662 48.1916 6.14976L46.6244 8.84311C46.3055 9.38585 46.4548 10.0778 46.9636 10.4442C48.653 11.6789 50.2135 13.1036 51.5908 14.6844C52.9749 16.2719 54.1758 18.0154 55.1595 19.8675C56.1637 21.7468 56.9507 23.7481 57.4935 25.8038C58.0566 27.9204 58.3619 30.1118 58.4094 32.3234C58.423 33.0765 59.0472 33.6871 59.8003 33.6871H62.6091C63.3758 33.6871 64 33.0629 64 32.2963V32.2624C64 29.5622 63.6608 26.8757 62.9959 24.2773C62.3513 21.7603 61.3879 19.318 60.1463 17.0317C57.7038 12.5337 54.1758 8.6328 49.9285 5.75627C49.7318 5.62059 49.5011 5.54596 49.2501 5.54596Z" fill="#EB3A28"/>
<path d="M1.39771 33.3139C0.909208 33.3139 0.515696 32.9204 0.508911 32.432V32.398C0.508911 21.7739 5.81455 11.9367 14.6957 6.08189C14.8111 6.00726 14.9468 5.96655 15.0892 5.96655C15.3471 5.96655 15.5845 6.10224 15.7066 6.32612L16.4869 7.69654C16.6769 8.02897 16.5615 8.46316 16.2291 8.6599C12.1447 11.0683 8.69804 14.4944 6.26234 18.5649C3.75878 22.7508 2.38149 27.5541 2.27293 32.4523C2.27293 32.9272 1.87264 33.3139 1.39771 33.3139Z" fill="#00C94C"/>
<path d="M15.0892 6.47534C15.157 6.47534 15.2317 6.50926 15.2656 6.57711L16.0458 7.94753C16.1001 8.04251 16.0662 8.16462 15.9712 8.22568C7.64636 13.1307 1.9947 22.1198 1.77081 32.4387C1.76402 32.6422 1.5944 32.8051 1.39086 32.8051C1.18054 32.8051 1.01092 32.6355 1.01092 32.4319C1.01092 32.4184 1.01092 32.4116 1.01092 32.398C1.01092 21.5771 6.56081 12.0452 14.9738 6.50926C15.0145 6.48213 15.0552 6.47534 15.0892 6.47534ZM15.0892 5.4577C14.8517 5.4577 14.6142 5.52555 14.4175 5.66123C10.0753 8.52419 6.45903 12.4387 3.9487 16.9842C2.67317 19.2976 1.68939 21.7603 1.02449 24.3112C0.34602 26.9367 0 29.6572 0 32.398V32.4319C0 33.1985 0.624192 33.8227 1.39765 33.8227C2.15075 33.8227 2.77494 33.2121 2.78851 32.4591C2.84279 30.0167 3.20916 27.6015 3.88763 25.2745C4.54575 23.0154 5.49561 20.8444 6.70328 18.8227C9.09828 14.8268 12.4838 11.4618 16.4936 9.09407C17.0635 8.75485 17.2603 8.01537 16.9346 7.43871L16.1544 6.07507C15.9373 5.69515 15.5302 5.4577 15.0892 5.4577Z" fill="#00C94C"/>
<path d="M44.8265 8.46992C44.7044 8.46992 44.5823 8.43599 44.4737 8.37494C40.2604 6.00045 35.4636 4.74536 30.5922 4.74536C26.6232 4.74536 22.783 5.55268 19.1736 7.1402C19.0854 7.18091 18.9836 7.20126 18.8886 7.20126C18.6308 7.20126 18.4001 7.06557 18.2712 6.84169L17.4027 5.31524C17.3078 5.14563 17.2806 4.9421 17.3417 4.75893C17.396 4.57575 17.5249 4.41293 17.7013 4.32473C22.1588 2.05201 26.9692 0.898682 32.0034 0.898682C37.1123 0.898682 42.1873 2.15377 46.6787 4.52148C46.8483 4.60967 46.9773 4.77249 47.0315 4.95567C47.0858 5.13884 47.0587 5.34237 46.9637 5.51198L45.4439 8.11035C45.315 8.33423 45.0775 8.46992 44.8265 8.46992Z" fill="#FFE804"/>
<path d="M32.0034 1.41431C37.2141 1.41431 42.1262 2.70332 46.4413 4.97604C46.543 5.03032 46.577 5.15922 46.5227 5.26098L45.0029 7.85935C44.9622 7.9272 44.8944 7.96112 44.8265 7.96112C44.7926 7.96112 44.7587 7.95433 44.7248 7.93398C40.5522 5.58663 35.735 4.24334 30.599 4.24334C26.4671 4.24334 22.532 5.11173 18.9768 6.67889C18.9497 6.69246 18.9225 6.69924 18.8954 6.69924C18.8275 6.69924 18.7597 6.66532 18.719 6.59748L17.8438 5.07102C17.7827 4.96926 17.8234 4.84036 17.9252 4.78608C22.1521 2.63547 26.9353 1.41431 32.0034 1.41431ZM32.0034 0.396667C29.4388 0.396667 26.881 0.701959 24.4114 1.30576C22.0096 1.8892 19.6756 2.75759 17.4706 3.88378C17.1721 4.03303 16.9482 4.3044 16.8532 4.62326C16.7582 4.94212 16.7989 5.28812 16.9618 5.57984L17.8302 7.1063C18.0473 7.48622 18.4544 7.72367 18.8886 7.72367C19.0582 7.72367 19.2278 7.68975 19.3839 7.6219C22.9255 6.06152 26.6978 5.26777 30.5922 5.26777C33.0211 5.26777 35.4297 5.57984 37.7569 6.19721C40.0094 6.79422 42.1873 7.68296 44.2227 8.8295C44.4059 8.93127 44.6094 8.98554 44.8197 8.98554C45.254 8.98554 45.6543 8.75488 45.8714 8.38174L47.3911 5.78337C47.5608 5.49843 47.6015 5.15243 47.5133 4.83357C47.4251 4.51471 47.2012 4.24334 46.9094 4.0873C44.6569 2.90006 42.2687 1.98418 39.7991 1.36682C37.2684 0.722312 34.6427 0.396667 32.0034 0.396667Z" fill="#FFE804"/>
<path fill-rule="evenodd" clip-rule="evenodd" d="M13.5557 16.902L16.936 18.7686L16.9414 18.7716C17.5803 19.1367 17.8044 19.9357 17.456 20.5774L17.4541 20.5808L14.7723 25.4146L14.772 25.415C14.3079 26.2504 13.2496 26.5562 12.4113 26.0906C12.4112 26.0905 12.4112 26.0905 12.4111 26.0905L9.46217 24.453L9.45767 24.4505C9.13202 24.2644 8.86956 23.9487 8.76676 23.5577L7.72314 19.641C7.72297 19.6404 7.72281 19.6398 7.72264 19.6392C7.53964 18.9583 7.92062 18.2292 8.6208 18.0181L12.5955 16.7931L12.6113 16.7889C12.8846 16.7161 13.2339 16.7209 13.5557 16.902ZM12.8961 18.4753L9.4508 19.5371L10.3795 23.0224L13.2347 24.6078L13.2349 24.6079C13.2398 24.6106 13.2437 24.6116 13.2475 24.612C13.252 24.6125 13.2578 24.6122 13.2643 24.6103C13.2772 24.6066 13.2846 24.5998 13.2892 24.5915C13.2892 24.5915 13.2893 24.5914 13.2893 24.5913L15.7946 20.0758L12.8961 18.4753Z" fill="#FCFCFC"/>
<path fill-rule="evenodd" clip-rule="evenodd" d="M28.7711 20.696C29.0888 20.7103 29.3718 20.901 29.5042 21.1901C29.6392 21.4849 29.7587 21.7596 29.8732 22.0227C30.0621 22.4568 30.2374 22.8595 30.4461 23.2698C30.6051 23.559 30.738 23.8165 30.8651 24.0627C31.0369 24.3954 31.198 24.7075 31.3984 25.0492C31.3994 25.0509 31.4003 25.0526 31.4013 25.0543C31.8072 25.7579 32.2126 26.4485 32.6418 27.1155C33.1629 27.9237 33.7052 28.7206 34.2565 29.5072C34.8242 30.3046 35.3826 31.0752 35.9776 31.8222L35.9808 31.8262C36.7742 32.8348 37.5879 33.8299 38.4217 34.8117C38.7578 35.2023 39.0704 35.6364 39.3539 36.0302C39.4477 36.1606 39.5384 36.2865 39.6257 36.405C40.4427 37.5039 41.1589 38.6793 41.7355 39.9385C42.0794 40.6729 42.2343 41.466 42.3657 42.1391C42.3733 42.1782 42.3809 42.2168 42.3884 42.2551C42.3895 42.2609 42.3906 42.2668 42.3916 42.2727C42.5068 42.9328 42.5196 43.5782 42.5196 44.1687C42.5196 44.6175 42.4523 45.0611 42.3967 45.4274C42.3914 45.4621 42.3863 45.4961 42.3813 45.5293L42.3806 45.5338C42.369 45.6085 42.3574 45.6852 42.3455 45.7635C42.2655 46.2909 42.1738 46.895 41.9966 47.4815C41.8373 48.038 41.6433 48.5754 41.424 49.106C41.4231 49.1081 41.4222 49.1102 41.4214 49.1123C40.9616 50.1995 40.3597 51.1827 39.6675 52.0961C38.678 53.4032 37.4919 54.5024 36.1126 55.3905C35.1147 56.034 34.059 56.5328 32.9341 56.9008C32.5388 57.0323 32.1165 57.1287 31.7432 57.2139C31.6143 57.2433 31.4912 57.2714 31.3771 57.2991C30.5328 57.5081 29.7003 57.5871 28.8767 57.6014C28.8744 57.6015 28.8721 57.6015 28.8698 57.6015C28.1312 57.6083 27.317 57.6043 26.4999 57.435C26.4993 57.4349 26.4988 57.4347 26.4982 57.4346L26.4979 57.4346C25.6336 57.2604 24.7026 57.0728 23.7911 56.7347C22.8921 56.4038 22.0373 55.9914 21.2229 55.4752L21.2208 55.4738C20.1228 54.7732 19.1329 53.9277 18.2596 52.9391L18.2575 52.9367C17.7569 52.3657 17.2767 51.7567 16.8635 51.0854C16.8623 51.0834 16.8611 51.0814 16.8599 51.0793C16.4381 50.3811 16.017 49.6298 15.693 48.82C15.3949 48.0819 15.1404 47.3146 14.9716 46.5148L14.9712 46.5127C14.8605 45.9815 14.7959 45.4526 14.7472 44.9379C14.6138 43.6575 14.742 42.4088 15.0628 41.1915C15.0633 41.1894 15.0639 41.1873 15.0644 41.1853C15.0755 41.1444 15.0867 41.1031 15.098 41.0613C15.2332 40.5611 15.3865 39.9942 15.6206 39.4551C15.6225 39.4507 15.6244 39.4463 15.6264 39.442C15.7762 39.1125 15.9462 38.7951 16.1274 38.4902C16.1938 38.3741 16.2619 38.2526 16.3319 38.1275C16.5995 37.6495 16.8967 37.1187 17.2474 36.6395L17.2508 36.6348C17.417 36.4109 17.5854 36.1794 17.7566 35.9441C18.2245 35.3008 18.7132 34.629 19.2352 34.0047L19.2368 34.0027C19.9521 33.1526 20.654 32.2967 21.3199 31.4178L21.3229 31.4139C22.163 30.3185 22.9832 29.1957 23.7769 28.0591L23.7796 28.0553C24.2301 27.4177 24.6549 26.7591 25.0926 26.0805C25.1502 25.9912 25.208 25.9016 25.2661 25.8117L25.2676 25.8094C25.3044 25.7529 25.341 25.6967 25.3774 25.6409C25.7101 25.1303 26.0252 24.6468 26.3031 24.1489L26.3042 24.147C26.4536 23.881 26.6015 23.6234 26.7468 23.3703C27.1014 22.7525 27.4408 22.1613 27.7495 21.5394L27.7506 21.5371C27.802 21.4343 27.858 21.3452 27.8972 21.2834C27.904 21.2727 27.9104 21.2626 27.9165 21.253C27.9496 21.2009 27.9726 21.1646 27.9967 21.1225C28.1545 20.8464 28.4534 20.6818 28.7711 20.696ZM28.6521 23.452C28.4993 23.7249 28.3446 23.9944 28.1924 24.2595C28.0529 24.5024 27.9156 24.7417 27.7837 24.9764C27.4758 25.528 27.1283 26.0611 26.8003 26.564C26.7633 26.6208 26.7265 26.6772 26.6901 26.7332C26.633 26.8216 26.5758 26.9103 26.5184 26.9992C26.0833 27.6739 25.6384 28.3637 25.1663 29.032C24.3597 30.1871 23.5255 31.329 22.6704 32.444C21.98 33.3551 21.2579 34.235 20.5356 35.0936C20.0535 35.6704 19.6162 36.2715 19.1603 36.8982C18.9825 37.1426 18.8019 37.391 18.6146 37.6432C18.3315 38.0306 18.1012 38.4411 17.8422 38.903C17.7635 39.0435 17.6821 39.1886 17.5957 39.3393C17.5934 39.3434 17.591 39.3474 17.5886 39.3515C17.4333 39.6124 17.2935 39.8741 17.1736 40.1372C16.9924 40.5562 16.8704 41.0063 16.7283 41.5304C16.7196 41.5622 16.7109 41.5943 16.7021 41.6267C16.4268 42.6729 16.3246 43.7148 16.4346 44.7657C16.4349 44.7685 16.4352 44.7713 16.4354 44.7741C16.4816 45.2619 16.539 45.7217 16.6315 46.1658C16.7747 46.8441 16.9948 47.5142 17.2663 48.1863L17.2673 48.1889C17.5399 48.8703 17.9049 49.5287 18.31 50.1995C18.6561 50.7615 19.0705 51.291 19.5322 51.8177C20.3002 52.687 21.1685 53.4284 22.1321 54.0434C22.8367 54.4899 23.5822 54.8506 24.3784 55.1436L24.3805 55.1443C25.1497 55.4297 25.9536 55.5947 26.8381 55.773L26.8429 55.7739C27.4626 55.9026 28.1122 55.9123 28.8508 55.9056C29.5855 55.8926 30.2845 55.8225 30.9716 55.6522L30.9751 55.6514C31.1416 55.6109 31.2959 55.5757 31.4422 55.5423C31.7872 55.4636 32.0881 55.3949 32.4 55.291L32.4047 55.2894C33.3955 54.9655 34.32 54.5284 35.1938 53.9649L35.1943 53.9646C36.4067 53.1839 37.4459 52.2208 38.3153 51.0721L38.3156 51.0717C38.9389 50.2493 39.4627 49.3882 39.8577 48.455C40.0577 47.971 40.229 47.4939 40.3675 47.009C40.3688 47.0046 40.3701 47.0002 40.3714 46.9958C40.5119 46.533 40.5845 46.0574 40.6668 45.5186C40.679 45.4389 40.6914 45.3578 40.7043 45.2751C40.7083 45.2485 40.7122 45.2223 40.7161 45.1964C40.7752 44.804 40.8234 44.4837 40.8234 44.1687C40.8234 43.5956 40.8092 43.0767 40.7222 42.5726L40.7154 42.5383C40.5714 41.804 40.4521 41.1962 40.1982 40.6553C40.197 40.6528 40.1959 40.6503 40.1947 40.6478C39.6727 39.5072 39.0193 38.432 38.2635 37.4156L38.2613 37.4126C38.149 37.2602 38.0429 37.1129 37.9399 36.9699C37.6687 36.5933 37.419 36.2466 37.1344 35.9161L37.1307 35.9117C36.2831 34.9138 35.4559 33.9022 34.6492 32.8768C34.0243 32.0921 33.4439 31.2903 32.8729 30.4882C32.8717 30.4865 32.8705 30.4848 32.8693 30.4831C32.3086 29.6832 31.7526 28.8665 31.2159 28.0339L31.2155 28.0334C30.7633 27.3307 30.3414 26.6112 29.9336 25.9044C29.7265 25.551 29.5152 25.1444 29.317 24.763C29.1888 24.5163 29.0661 24.2801 28.9536 24.0757C28.9493 24.0679 28.9451 24.06 28.941 24.052C28.8422 23.8583 28.746 23.6566 28.6521 23.452Z" fill="#FCFCFC"/>
<path fill-rule="evenodd" clip-rule="evenodd" d="M38.4216 20.7168C38.7326 20.7342 39.009 20.9207 39.1416 21.2025C39.2412 21.4142 39.3216 21.5972 39.3957 21.7661C39.5106 22.0277 39.6105 22.2553 39.7441 22.5029C39.8431 22.6848 39.9264 22.8455 40.005 22.9972C40.1185 23.216 40.2222 23.416 40.3489 23.6337L40.3508 23.637C40.6059 24.0801 40.8629 24.5147 41.1305 24.9324L41.1319 24.9346C41.454 25.4406 41.7978 25.9434 42.1462 26.4392C42.5029 26.9371 42.8591 27.4249 43.2321 27.8961L43.2328 27.897C43.7353 28.5334 44.2513 29.1633 44.7808 29.7866L44.7813 29.7872C45.0019 30.0473 45.2087 30.3344 45.3917 30.5886C45.4487 30.6677 45.5034 30.7436 45.5554 30.8145C46.0866 31.5254 46.5592 32.2943 46.9332 33.1148C47.1722 33.6274 47.2774 34.1794 47.3597 34.6108C47.3629 34.6276 47.3661 34.6443 47.3692 34.6608C47.3695 34.6621 47.3697 34.6634 47.37 34.6647C47.3702 34.6659 47.3704 34.6671 47.3706 34.6683C47.4533 35.1229 47.4589 35.5559 47.4589 35.9326C47.4589 36.2706 47.4076 36.596 47.3682 36.8449L47.3671 36.8519C47.3607 36.8929 47.3541 36.9353 47.3473 36.9789C47.295 37.3165 47.2321 37.723 47.1129 38.1241C47.0075 38.4922 46.8808 38.841 46.7356 39.1896L46.7344 39.1925C46.4327 39.909 46.0423 40.5607 45.5827 41.1614C44.9338 42.0186 44.1551 42.7452 43.2418 43.3292C42.8488 43.5812 42.4367 43.8064 42.0055 43.9955C41.5765 44.1836 41.0763 43.9884 40.8881 43.5595C40.7 43.1306 40.8952 42.6304 41.3242 42.4423C41.6662 42.2923 42.0003 42.1105 42.3264 41.9013L42.3274 41.9006C43.0685 41.4268 43.7004 40.8381 44.2315 40.136L44.2344 40.1322C44.6152 39.6348 44.9298 39.1071 45.1705 38.5358C45.2957 38.2351 45.3991 37.9481 45.4833 37.6535C45.4842 37.6504 45.4851 37.6472 45.486 37.6441C45.571 37.3593 45.6163 37.0697 45.6713 36.7175C45.6779 36.6751 45.6847 36.6317 45.6917 36.5873C45.7337 36.3215 45.7628 36.1207 45.7628 35.9326C45.7628 35.5645 45.7549 35.2658 45.7025 34.9753C45.6104 34.4939 45.5383 34.1358 45.3949 33.8292C45.3936 33.8266 45.3924 33.824 45.3912 33.8214C45.074 33.1247 44.666 32.4575 44.1947 31.827C44.1933 31.8252 44.1919 31.8233 44.1905 31.8214C44.1166 31.7208 44.0483 31.626 43.9831 31.5355C43.8113 31.2971 43.6611 31.0887 43.4879 30.8844C42.9455 30.246 42.4168 29.6006 41.9018 28.9483C41.5023 28.4437 41.1266 27.9286 40.765 27.4237C40.7641 27.4224 40.7632 27.4212 40.7623 27.4199C40.7617 27.4191 40.7612 27.4183 40.7606 27.4175C40.4043 26.9105 40.0436 26.3836 39.7016 25.8462C39.4135 25.3965 39.1418 24.9365 38.8818 24.4849C38.7424 24.2452 38.5983 23.9688 38.4661 23.7149C38.4124 23.612 38.3607 23.5128 38.3121 23.4212C38.2185 23.5846 38.128 23.7431 38.044 23.8946C38.042 23.8983 38.0399 23.902 38.0378 23.9057C37.8177 24.2891 37.578 24.6697 37.3331 25.034L37.333 25.034C37.0253 25.5157 36.7047 26.0174 36.3612 26.5014C35.8469 27.2418 35.3169 27.9715 34.7645 28.6827C34.4466 29.0974 34.1217 29.5052 33.7898 29.9061C33.4912 30.2669 32.9566 30.3174 32.5957 30.0188C32.2349 29.7202 32.1845 29.1856 32.4831 28.8248C32.802 28.4394 33.1143 28.0474 33.42 27.6487L33.4233 27.6444C33.955 26.9599 34.4684 26.2533 34.9705 25.5303C34.9715 25.5289 34.9725 25.5274 34.9735 25.526C34.9742 25.525 34.975 25.524 34.9757 25.523C35.2941 25.0747 35.595 24.6039 35.9091 24.1124C35.9127 24.1067 35.9164 24.1011 35.9202 24.0955C36.147 23.7586 36.3656 23.4113 36.5636 23.0667C36.6763 22.8635 36.7848 22.6741 36.8897 22.4911C37.097 22.1292 37.2899 21.7927 37.4714 21.4253C37.4765 21.4151 37.4817 21.4049 37.4872 21.3949C37.5325 21.3119 37.5855 21.2264 37.6276 21.1585C37.6362 21.1446 37.6444 21.1314 37.6519 21.1191C37.8152 20.8539 38.1107 20.6994 38.4216 20.7168Z" fill="#FCFCFC"/>
</svg>
