<svg width="60" height="60" viewBox="0 0 60 60" fill="none" xmlns="http://www.w3.org/2000/svg">
<path d="M55.6499 34.0542C55.2124 34.0542 54.8436 33.6979 54.8374 33.2604C54.7499 29.1292 53.7249 25.1979 51.7874 21.5729C49.9374 18.1104 47.2811 15.0542 44.0999 12.7354C43.8249 12.5354 43.7499 12.1667 43.9186 11.8729L45.3624 9.39168C45.4811 9.19168 45.6999 9.06668 45.9311 9.06668C46.0624 9.06668 46.1874 9.10418 46.2999 9.17918C54.2874 14.5917 59.0499 23.5729 59.0499 33.2104V33.2417C59.0499 33.6917 58.6811 34.0542 58.2374 34.0542H55.6499Z" fill="#EB3A28"/>
<path d="M45.9312 9.53543C45.9687 9.53543 46.0062 9.54793 46.0374 9.56668C53.6124 14.7042 58.5874 23.3729 58.5874 33.2104C58.5874 33.2229 58.5874 33.2292 58.5874 33.2417C58.5874 33.4354 58.4312 33.5854 58.2437 33.5854H55.6562C55.4687 33.5854 55.3124 33.4354 55.3124 33.2479C55.1249 24.6604 50.8624 17.0792 44.3874 12.3542C44.3124 12.2979 44.2874 12.1917 44.3374 12.1104L45.7812 9.62918C45.8062 9.56668 45.8687 9.53543 45.9312 9.53543ZM45.9312 8.59793C45.5312 8.59793 45.1624 8.81043 44.9562 9.15418L43.5124 11.6354C43.2187 12.1354 43.3562 12.7729 43.8249 13.1104C45.3812 14.2479 46.8187 15.5604 48.0874 17.0167C49.3624 18.4792 50.4687 20.0854 51.3749 21.7917C52.2999 23.5229 53.0249 25.3667 53.5249 27.2604C54.0437 29.2104 54.3249 31.2292 54.3687 33.2667C54.3812 33.9604 54.9562 34.5229 55.6499 34.5229H58.2374C58.9437 34.5229 59.5187 33.9479 59.5187 33.2417V33.2104C59.5187 30.7229 59.2062 28.2479 58.5937 25.8542C57.9999 23.5354 57.1124 21.2854 55.9687 19.1792C53.7187 15.0354 50.4687 11.4417 46.5562 8.79168C46.3749 8.66668 46.1624 8.59793 45.9312 8.59793Z" fill="#EB3A28"/>
<path d="M1.85 34.1792C1.4 34.1792 1.0375 33.8167 1.03125 33.3667V33.3354C1.03125 23.5479 5.91875 14.4854 14.1 9.09166C14.2063 9.02291 14.3312 8.98541 14.4625 8.98541C14.7 8.98541 14.9187 9.11041 15.0312 9.31666L15.75 10.5792C15.925 10.8854 15.8188 11.2854 15.5125 11.4667C11.75 13.6854 8.575 16.8417 6.33125 20.5917C4.025 24.4479 2.75625 28.8729 2.65625 33.3854C2.65625 33.8229 2.2875 34.1792 1.85 34.1792Z" fill="#00C94C"/>
<path d="M14.4625 9.45416C14.525 9.45416 14.5938 9.48541 14.625 9.54791L15.3438 10.8104C15.3938 10.8979 15.3625 11.0104 15.275 11.0667C7.60625 15.5854 2.4 23.8667 2.19375 33.3729C2.1875 33.5604 2.03125 33.7104 1.84375 33.7104C1.65 33.7104 1.49375 33.5542 1.49375 33.3667C1.49375 33.3542 1.49375 33.3479 1.49375 33.3354C1.49375 23.3667 6.60625 14.5854 14.3563 9.48541C14.3938 9.46041 14.4312 9.45416 14.4625 9.45416ZM14.4625 8.51666C14.2437 8.51666 14.025 8.57916 13.8438 8.70416C9.84375 11.3417 6.5125 14.9479 4.2 19.1354C3.025 21.2667 2.11875 23.5354 1.50625 25.8854C0.88125 28.3042 0.5625 30.8104 0.5625 33.3354V33.3667C0.5625 34.0729 1.1375 34.6479 1.85 34.6479C2.54375 34.6479 3.11875 34.0854 3.13125 33.3917C3.18125 31.1417 3.51875 28.9167 4.14375 26.7729C4.75 24.6917 5.625 22.6917 6.7375 20.8292C8.94375 17.1479 12.0625 14.0479 15.7563 11.8667C16.2812 11.5542 16.4625 10.8729 16.1625 10.3417L15.4438 9.08541C15.2438 8.73541 14.8687 8.51666 14.4625 8.51666Z" fill="#00C94C"/>
<path d="M41.8562 11.2917C41.7437 11.2917 41.6312 11.2604 41.5312 11.2042C37.65 9.01665 33.2312 7.8604 28.7437 7.8604C25.0875 7.8604 21.55 8.60415 18.225 10.0667C18.1437 10.1042 18.05 10.1229 17.9625 10.1229C17.725 10.1229 17.5125 9.9979 17.3937 9.79165L16.5937 8.3854C16.5062 8.22915 16.4812 8.04165 16.5375 7.8729C16.5875 7.70415 16.7062 7.55415 16.8687 7.4729C20.975 5.37915 25.4062 4.31665 30.0437 4.31665C34.75 4.31665 39.425 5.4729 43.5625 7.65415C43.7187 7.7354 43.8375 7.8854 43.8875 8.05415C43.9375 8.2229 43.9125 8.4104 43.825 8.56665L42.425 10.9604C42.3062 11.1667 42.0875 11.2917 41.8562 11.2917Z" fill="#FFE804"/>
<path d="M30.0438 4.79166C34.8438 4.79166 39.3688 5.97916 43.3438 8.07291C43.4375 8.12291 43.4688 8.24166 43.4188 8.33541L42.0188 10.7292C41.9813 10.7917 41.9188 10.8229 41.8563 10.8229C41.825 10.8229 41.7938 10.8167 41.7625 10.7979C37.9188 8.63541 33.4813 7.39791 28.75 7.39791C24.9438 7.39791 21.3188 8.19791 18.0438 9.64166C18.0188 9.65416 17.9938 9.66041 17.9688 9.66041C17.9063 9.66041 17.8438 9.62916 17.8063 9.56666L17 8.16041C16.9438 8.06666 16.9813 7.94791 17.075 7.89791C20.9688 5.91666 25.375 4.79166 30.0438 4.79166ZM30.0438 3.85416C27.6813 3.85416 25.325 4.13541 23.05 4.69166C20.8375 5.22916 18.6875 6.02916 16.6563 7.06666C16.3813 7.20416 16.175 7.45416 16.0875 7.74791C16 8.04166 16.0375 8.36041 16.1875 8.62916L16.9875 10.0354C17.1875 10.3854 17.5625 10.6042 17.9625 10.6042C18.1188 10.6042 18.275 10.5729 18.4188 10.5104C21.6813 9.07291 25.1563 8.34166 28.7438 8.34166C30.9813 8.34166 33.2 8.62916 35.3438 9.19791C37.4188 9.74791 39.425 10.5667 41.3 11.6229C41.4688 11.7167 41.6563 11.7667 41.85 11.7667C42.25 11.7667 42.6188 11.5542 42.8188 11.2104L44.2188 8.81666C44.375 8.55416 44.4125 8.23541 44.3313 7.94166C44.25 7.64791 44.0438 7.39791 43.775 7.25416C41.7 6.16041 39.5 5.31666 37.225 4.74791C34.8938 4.15416 32.475 3.85416 30.0438 3.85416Z" fill="#FFE804"/>
<path fill-rule="evenodd" clip-rule="evenodd" d="M13.0499 19.0597L16.1639 20.7793L16.1688 20.7821C16.7574 21.1184 16.9637 21.8545 16.6428 22.4456L16.6411 22.4488L14.1706 26.9019L14.1704 26.9023C13.7429 27.6719 12.7679 27.9536 11.9957 27.5247C11.9956 27.5247 11.9956 27.5246 11.9956 27.5246L9.27901 26.0161L9.27485 26.0137C8.97487 25.8423 8.73309 25.5515 8.63839 25.1913L7.67702 21.583C7.67687 21.5824 7.67672 21.5819 7.67657 21.5813C7.50798 20.954 7.85894 20.2824 8.50394 20.088L12.1654 18.9594L12.1799 18.9555C12.4317 18.8884 12.7535 18.8929 13.0499 19.0597ZM12.4423 20.5091L9.26853 21.4873L10.124 24.6981L12.7542 26.1587L12.7544 26.1587C12.7589 26.1613 12.7625 26.1622 12.766 26.1626C12.7701 26.163 12.7755 26.1627 12.7814 26.161C12.7934 26.1576 12.8002 26.1513 12.8044 26.1437C12.8045 26.1436 12.8045 26.1436 12.8045 26.1435L15.1124 21.9835L12.4423 20.5091Z" fill="#282828"/>
<path fill-rule="evenodd" clip-rule="evenodd" d="M27.0662 22.555C27.3588 22.5681 27.6195 22.7438 27.7415 23.0101C27.8658 23.2817 27.9759 23.5347 28.0814 23.7771C28.2555 24.177 28.4169 24.5481 28.6092 24.926C28.7556 25.1925 28.8781 25.4297 28.9952 25.6565C29.1534 25.963 29.3018 26.2505 29.4864 26.5653C29.4873 26.5669 29.4882 26.5684 29.4891 26.57C29.863 27.2182 30.2364 27.8544 30.6319 28.4689C31.1118 29.2134 31.6115 29.9476 32.1193 30.6722C32.6423 31.4068 33.1567 32.1168 33.7048 32.8049L33.7077 32.8086C34.4386 33.7378 35.1881 34.6545 35.9562 35.559C36.2658 35.9188 36.5538 36.3188 36.8149 36.6816C36.9014 36.8017 36.9849 36.9177 37.0653 37.0268C37.818 38.0392 38.4777 39.1221 39.0088 40.2821C39.3257 40.9586 39.4683 41.6893 39.5894 42.3094C39.5964 42.3454 39.6034 42.381 39.6103 42.4162C39.6113 42.4216 39.6123 42.427 39.6133 42.4324C39.7194 43.0406 39.7312 43.6351 39.7312 44.1792C39.7312 44.5926 39.6691 45.0013 39.6179 45.3388C39.6131 45.3707 39.6083 45.402 39.6038 45.4326L39.6031 45.4368C39.5924 45.5056 39.5817 45.5762 39.5708 45.6484C39.4971 46.1342 39.4127 46.6907 39.2494 47.231C39.1026 47.7438 38.9239 48.2388 38.7219 48.7276C38.7211 48.7295 38.7203 48.7315 38.7195 48.7334C38.296 49.735 37.7415 50.6408 37.1038 51.4823C36.1923 52.6864 35.0997 53.699 33.8291 54.5173C32.9099 55.1101 31.9373 55.5696 30.9011 55.9085C30.5369 56.0298 30.148 56.1185 29.8041 56.197C29.6853 56.2241 29.5719 56.25 29.4668 56.2756C28.689 56.468 27.9222 56.5409 27.1635 56.5541C27.1613 56.5541 27.1592 56.5541 27.1571 56.5541C26.4767 56.5604 25.7266 56.5567 24.974 56.4007C24.9735 56.4006 24.9729 56.4005 24.9724 56.4004L24.9722 56.4003C24.1759 56.2399 23.3183 56.067 22.4787 55.7556C21.6505 55.4507 20.8631 55.0708 20.1129 54.5953L20.1109 54.594C19.0994 53.9485 18.1875 53.1697 17.3831 52.2588L17.3812 52.2566C16.92 51.7306 16.4776 51.1696 16.097 50.5511C16.0959 50.5493 16.0948 50.5474 16.0937 50.5456C15.7052 49.9023 15.3172 49.2101 15.0187 48.4642C14.7442 47.7842 14.5097 47.0773 14.3542 46.3405L14.3538 46.3385C14.2519 45.8492 14.1924 45.3619 14.1475 44.8878C14.0246 43.7082 14.1427 42.5579 14.4382 41.4364C14.4387 41.4345 14.4392 41.4326 14.4397 41.4306C14.4499 41.393 14.4602 41.3549 14.4706 41.3164C14.5952 40.8556 14.7364 40.3334 14.952 39.8368C14.9538 39.8327 14.9556 39.8287 14.9574 39.8246C15.0954 39.5211 15.252 39.2287 15.4189 38.9478C15.4801 38.8409 15.5428 38.729 15.6073 38.6137C15.8538 38.1734 16.1276 37.6844 16.4507 37.2428L16.4538 37.2386C16.6069 37.0322 16.762 36.819 16.9197 36.6022C17.3508 36.0096 17.8009 35.3907 18.2818 34.8156L18.2833 34.8137C18.9422 34.0305 19.5888 33.2421 20.2022 32.4324L20.205 32.4288C20.9788 31.4196 21.7345 30.3853 22.4656 29.3382L22.4681 29.3347C22.883 28.7472 23.2743 28.1406 23.6776 27.5154C23.7306 27.4332 23.7839 27.3506 23.8374 27.2677L23.8388 27.2656C23.8727 27.2135 23.9064 27.1618 23.9399 27.1104C24.2465 26.64 24.5367 26.1946 24.7927 25.7359L24.7937 25.7342C24.9313 25.4891 25.0675 25.2518 25.2014 25.0186C25.5281 24.4495 25.8408 23.9048 26.1251 23.3319L26.1261 23.3298C26.1735 23.2351 26.2251 23.153 26.2611 23.0961C26.2674 23.0862 26.2733 23.0769 26.2789 23.0681C26.3094 23.0201 26.3307 22.9866 26.3528 22.9478C26.4982 22.6935 26.7736 22.5418 27.0662 22.555ZM26.9566 25.0939C26.8158 25.3453 26.6733 25.5935 26.5331 25.8378C26.4046 26.0616 26.2781 26.282 26.1566 26.4983C25.873 27.0064 25.5528 27.4975 25.2507 27.9608C25.2166 28.0132 25.1827 28.0651 25.1492 28.1167C25.0966 28.1981 25.0439 28.2798 24.991 28.3618C24.5902 28.9833 24.1803 29.6187 23.7454 30.2345C23.0024 31.2986 22.2339 32.3505 21.4462 33.3778C20.8103 34.2171 20.1451 35.0278 19.4798 35.8187C19.0356 36.35 18.6328 36.9038 18.2128 37.4812C18.049 37.7064 17.8826 37.9351 17.7101 38.1676C17.4493 38.5244 17.2372 38.9026 16.9986 39.3282C16.9261 39.4575 16.8511 39.5913 16.7715 39.7301C16.7694 39.7338 16.7672 39.7376 16.765 39.7413C16.6219 39.9816 16.4931 40.2227 16.3826 40.4651C16.2158 40.8511 16.1033 41.2658 15.9724 41.7486C15.9645 41.7779 15.9565 41.8075 15.9484 41.8373C15.6948 42.8011 15.6006 43.761 15.7019 44.7291C15.7022 44.7317 15.7024 44.7343 15.7027 44.7368C15.7452 45.1862 15.7981 45.6098 15.8833 46.0189C16.0152 46.6438 16.218 47.2611 16.4681 47.8804L16.469 47.8828C16.7201 48.5105 17.0563 49.117 17.4295 49.735C17.7484 50.2527 18.13 50.7405 18.5554 51.2258C19.2629 52.0266 20.0628 52.7096 20.9504 53.2762C21.5995 53.6876 22.2863 54.0198 23.0197 54.2897L23.0216 54.2904C23.7302 54.5533 24.4707 54.7053 25.2855 54.8696L25.2899 54.8705C25.8608 54.989 26.4592 54.9979 27.1396 54.9917C27.8164 54.9798 28.4603 54.9152 29.0933 54.7584L29.0965 54.7576C29.2498 54.7203 29.392 54.6878 29.5268 54.6571C29.8446 54.5845 30.1218 54.5213 30.4091 54.4255L30.4134 54.4241C31.3262 54.1257 32.1778 53.723 32.9827 53.2039L32.9832 53.2036C34.1 52.4844 35.0573 51.5971 35.8582 50.5389L35.8585 50.5386C36.4327 49.7809 36.9152 48.9876 37.2791 48.1279C37.4633 47.682 37.6211 47.2425 37.7487 46.7958C37.7499 46.7917 37.7511 46.7877 37.7523 46.7836C37.8817 46.3572 37.9486 45.9191 38.0244 45.4227C38.0356 45.3493 38.0471 45.2746 38.0589 45.1984C38.0626 45.1739 38.0662 45.1498 38.0698 45.1259C38.1242 44.7645 38.1687 44.4693 38.1687 44.1792C38.1687 43.6512 38.1556 43.1731 38.0754 42.7087L38.0692 42.6772C37.9365 42.0007 37.8266 41.4408 37.5927 40.9424C37.5916 40.9401 37.5906 40.9378 37.5895 40.9355C37.1087 39.8848 36.5067 38.8942 35.8105 37.9578L35.8085 37.9551C35.705 37.8147 35.6073 37.679 35.5124 37.5472C35.2625 37.2003 35.0326 36.8809 34.7704 36.5765L34.7669 36.5724C33.9861 35.6531 33.2242 34.7211 32.4811 33.7765C31.9053 33.0535 31.3707 32.3149 30.8447 31.576C30.8436 31.5744 30.8425 31.5729 30.8414 31.5713C30.3249 30.8344 29.8127 30.082 29.3183 29.315L29.3179 29.3145C28.9014 28.6672 28.5127 28.0043 28.137 27.3532C27.9463 27.0276 27.7517 26.653 27.5691 26.3016C27.451 26.0744 27.338 25.8568 27.2343 25.6685C27.2303 25.6612 27.2264 25.654 27.2227 25.6466C27.1317 25.4682 27.0431 25.2824 26.9566 25.0939Z" fill="#282828"/>
<path fill-rule="evenodd" clip-rule="evenodd" d="M35.9561 22.5741C36.2425 22.5902 36.4971 22.7619 36.6193 23.0215C36.7111 23.2166 36.7851 23.3852 36.8534 23.5407C36.9593 23.7818 37.0513 23.9914 37.1744 24.2195C37.2655 24.3871 37.3423 24.5352 37.4147 24.6749C37.5192 24.8765 37.6148 25.0607 37.7314 25.2613L37.7332 25.2643C37.9682 25.6725 38.205 26.0729 38.4515 26.4577L38.4528 26.4597C38.7494 26.9259 39.0662 27.3891 39.3871 27.8459C39.7157 28.3046 40.0438 28.7539 40.3875 29.188L40.3881 29.1888C40.851 29.7752 41.3263 30.3554 41.8141 30.9296L41.8146 30.9302C42.0177 31.1698 42.2083 31.4343 42.3769 31.6685C42.4294 31.7414 42.4797 31.8113 42.5277 31.8766C43.017 32.5315 43.4523 33.2399 43.7969 33.9957C44.017 34.468 44.114 34.9765 44.1897 35.3739C44.1927 35.3894 44.1956 35.4048 44.1985 35.42C44.1988 35.4212 44.199 35.4224 44.1992 35.4236C44.1994 35.4247 44.1996 35.4258 44.1998 35.4269C44.276 35.8458 44.2812 36.2447 44.2812 36.5917C44.2812 36.903 44.2338 37.2028 44.1976 37.4321L44.1966 37.4385C44.1906 37.4764 44.1846 37.5154 44.1784 37.5555C44.1302 37.8666 44.0722 38.2411 43.9624 38.6105C43.8653 38.9496 43.7486 39.271 43.6148 39.5921L43.6137 39.5948C43.3358 40.2549 42.9762 40.8553 42.5528 41.4087C41.955 42.1984 41.2377 42.8677 40.3964 43.4057C40.0344 43.6379 39.6548 43.8454 39.2575 44.0196C38.8623 44.1929 38.4015 44.0131 38.2282 43.618C38.0549 43.2228 38.2347 42.762 38.6299 42.5887C38.9449 42.4505 39.2527 42.283 39.5531 42.0903L39.5541 42.0897C40.2368 41.6532 40.8188 41.1108 41.3081 40.4641L41.3108 40.4606C41.6616 40.0023 41.9513 39.5161 42.1731 38.9899C42.2885 38.7128 42.3837 38.4484 42.4612 38.177C42.4621 38.1741 42.4629 38.1713 42.4638 38.1684C42.542 37.906 42.5837 37.6392 42.6344 37.3148C42.6405 37.2757 42.6468 37.2357 42.6532 37.1948C42.6919 36.95 42.7187 36.7649 42.7187 36.5917C42.7187 36.2526 42.7114 35.9773 42.6631 35.7097C42.5783 35.2663 42.5119 34.9364 42.3798 34.6539C42.3786 34.6515 42.3775 34.6491 42.3764 34.6467C42.0842 34.0048 41.7083 33.3902 41.2742 32.8094C41.2729 32.8077 41.2716 32.806 41.2703 32.8042C41.2022 32.7116 41.1393 32.6242 41.0792 32.5408C40.921 32.3212 40.7826 32.1292 40.623 31.941C40.1235 31.3528 39.6364 30.7583 39.162 30.1573C38.794 29.6925 38.4479 29.2179 38.1148 28.7528C38.114 28.7517 38.1131 28.7505 38.1123 28.7494C38.1118 28.7486 38.1112 28.7478 38.1107 28.7471C37.7825 28.2801 37.4502 27.7946 37.1352 27.2996C36.8698 26.8853 36.6195 26.4615 36.38 26.0455C36.2516 25.8246 36.1189 25.57 35.997 25.3361C35.9476 25.2413 35.9 25.1499 35.8552 25.0655C35.769 25.2161 35.6856 25.3621 35.6082 25.5016C35.6063 25.5051 35.6044 25.5085 35.6025 25.5119C35.3997 25.865 35.179 26.2157 34.9533 26.5513L34.9533 26.5513C34.6698 26.995 34.3745 27.4573 34.058 27.9031C33.5843 28.5852 33.096 29.2575 32.5872 29.9127C32.2943 30.2947 31.995 30.6704 31.6893 31.0398C31.4142 31.3722 30.9217 31.4186 30.5893 31.1435C30.2569 30.8684 30.2105 30.376 30.4856 30.0436C30.7793 29.6886 31.067 29.3274 31.3487 28.9601L31.3517 28.9562C31.8415 28.3256 32.3144 27.6746 32.777 27.0085C32.7779 27.0072 32.7788 27.0059 32.7797 27.0046C32.7804 27.0037 32.781 27.0027 32.7817 27.0018C33.075 26.5888 33.3523 26.1551 33.6416 25.7023C33.6449 25.697 33.6483 25.6918 33.6518 25.6867C33.8607 25.3763 34.0621 25.0564 34.2445 24.7389C34.3483 24.5518 34.4483 24.3772 34.5449 24.2087C34.7359 23.8753 34.9135 23.5653 35.0808 23.2268C35.0854 23.2174 35.0903 23.208 35.0953 23.1988C35.137 23.1223 35.1859 23.0435 35.2246 22.981C35.2326 22.9682 35.2401 22.956 35.2471 22.9447C35.3974 22.7004 35.6696 22.5581 35.9561 22.5741Z" fill="#282828"/>
</svg>
