<svg width="60" height="60" viewBox="0 0 60 60" fill="none" xmlns="http://www.w3.org/2000/svg">
<path d="M55.6499 33.9729C55.2124 33.9729 54.8436 33.6167 54.8374 33.1792C54.7499 29.0479 53.7249 25.1167 51.7874 21.4917C49.9374 18.0292 47.2811 14.9729 44.0999 12.6542C43.8249 12.4542 43.7499 12.0854 43.9186 11.7917L45.3624 9.31041C45.4811 9.11041 45.6999 8.98541 45.9311 8.98541C46.0624 8.98541 46.1874 9.02291 46.2999 9.09791C54.2874 14.5104 59.0499 23.4917 59.0499 33.1292V33.1604C59.0499 33.6104 58.6811 33.9729 58.2374 33.9729H55.6499Z" fill="#EB3A28"/>
<path d="M45.9312 9.45416C45.9687 9.45416 46.0062 9.46666 46.0374 9.48541C53.6124 14.6229 58.5874 23.2917 58.5874 33.1292C58.5874 33.1417 58.5874 33.1479 58.5874 33.1604C58.5874 33.3542 58.4312 33.5042 58.2437 33.5042H55.6562C55.4687 33.5042 55.3124 33.3542 55.3124 33.1667C55.1249 24.5792 50.8624 16.9979 44.3874 12.2729C44.3124 12.2167 44.2874 12.1104 44.3374 12.0292L45.7812 9.54791C45.8062 9.48541 45.8687 9.45416 45.9312 9.45416ZM45.9312 8.51666C45.5312 8.51666 45.1624 8.72916 44.9562 9.07291L43.5124 11.5542C43.2187 12.0542 43.3562 12.6917 43.8249 13.0292C45.3812 14.1667 46.8187 15.4792 48.0874 16.9354C49.3624 18.3979 50.4687 20.0042 51.3749 21.7104C52.2999 23.4417 53.0249 25.2854 53.5249 27.1792C54.0437 29.1292 54.3249 31.1479 54.3687 33.1854C54.3812 33.8792 54.9562 34.4417 55.6499 34.4417H58.2374C58.9437 34.4417 59.5187 33.8667 59.5187 33.1604V33.1292C59.5187 30.6417 59.2062 28.1667 58.5937 25.7729C57.9999 23.4542 57.1124 21.2042 55.9687 19.0979C53.7187 14.9542 50.4687 11.3604 46.5562 8.71041C46.3749 8.58541 46.1624 8.51666 45.9312 8.51666Z" fill="#EB3A28"/>
<path d="M1.85 34.0979C1.4 34.0979 1.0375 33.7354 1.03125 33.2854V33.2542C1.03125 23.4667 5.91875 14.4042 14.1 9.01043C14.2063 8.94168 14.3312 8.90417 14.4625 8.90417C14.7 8.90417 14.9187 9.02917 15.0312 9.23542L15.75 10.4979C15.925 10.8042 15.8188 11.2042 15.5125 11.3854C11.75 13.6042 8.575 16.7604 6.33125 20.5104C4.025 24.3667 2.75625 28.7917 2.65625 33.3042C2.65625 33.7417 2.2875 34.0979 1.85 34.0979Z" fill="#00C94C"/>
<path d="M14.4625 9.37292C14.525 9.37292 14.5938 9.40417 14.625 9.46667L15.3438 10.7292C15.3938 10.8167 15.3625 10.9292 15.275 10.9854C7.60625 15.5042 2.4 23.7854 2.19375 33.2917C2.1875 33.4792 2.03125 33.6292 1.84375 33.6292C1.65 33.6292 1.49375 33.4729 1.49375 33.2854C1.49375 33.2729 1.49375 33.2667 1.49375 33.2542C1.49375 23.2854 6.60625 14.5042 14.3563 9.40417C14.3938 9.37917 14.4312 9.37292 14.4625 9.37292ZM14.4625 8.43542C14.2437 8.43542 14.025 8.49792 13.8438 8.62292C9.84375 11.2604 6.5125 14.8667 4.2 19.0542C3.025 21.1854 2.11875 23.4542 1.50625 25.8042C0.88125 28.2229 0.5625 30.7292 0.5625 33.2542V33.2854C0.5625 33.9917 1.1375 34.5667 1.85 34.5667C2.54375 34.5667 3.11875 34.0042 3.13125 33.3104C3.18125 31.0604 3.51875 28.8354 4.14375 26.6917C4.75 24.6104 5.625 22.6104 6.7375 20.7479C8.94375 17.0667 12.0625 13.9667 15.7563 11.7854C16.2812 11.4729 16.4625 10.7917 16.1625 10.2604L15.4438 9.00418C15.2438 8.65418 14.8687 8.43542 14.4625 8.43542Z" fill="#00C94C"/>
<path d="M41.8562 11.2104C41.7437 11.2104 41.6312 11.1792 41.5312 11.1229C37.65 8.93541 33.2312 7.77916 28.7437 7.77916C25.0875 7.77916 21.55 8.52291 18.225 9.98541C18.1437 10.0229 18.05 10.0417 17.9625 10.0417C17.725 10.0417 17.5125 9.91666 17.3937 9.71041L16.5937 8.30416C16.5062 8.14791 16.4812 7.96041 16.5375 7.79166C16.5875 7.62291 16.7062 7.47291 16.8687 7.39166C20.975 5.29791 25.4062 4.23541 30.0437 4.23541C34.75 4.23541 39.425 5.39166 43.5625 7.57291C43.7187 7.65416 43.8375 7.80416 43.8875 7.97291C43.9375 8.14166 43.9125 8.32916 43.825 8.48541L42.425 10.8792C42.3062 11.0854 42.0875 11.2104 41.8562 11.2104Z" fill="#FFE804"/>
<path d="M30.0438 4.71039C34.8438 4.71039 39.3688 5.89789 43.3438 7.99164C43.4375 8.04164 43.4688 8.16039 43.4188 8.25414L42.0188 10.6479C41.9813 10.7104 41.9188 10.7416 41.8563 10.7416C41.825 10.7416 41.7938 10.7354 41.7625 10.7166C37.9188 8.55414 33.4813 7.31664 28.75 7.31664C24.9438 7.31664 21.3188 8.11664 18.0438 9.56039C18.0188 9.57289 17.9938 9.57914 17.9688 9.57914C17.9063 9.57914 17.8438 9.54789 17.8063 9.48539L17 8.07914C16.9438 7.98539 16.9813 7.86664 17.075 7.81664C20.9688 5.83539 25.375 4.71039 30.0438 4.71039ZM30.0438 3.77289C27.6813 3.77289 25.325 4.05414 23.05 4.61039C20.8375 5.14789 18.6875 5.94789 16.6563 6.98539C16.3813 7.12289 16.175 7.37289 16.0875 7.66664C16 7.96039 16.0375 8.27914 16.1875 8.54789L16.9875 9.95414C17.1875 10.3041 17.5625 10.5229 17.9625 10.5229C18.1188 10.5229 18.275 10.4916 18.4188 10.4291C21.6813 8.99164 25.1563 8.26039 28.7438 8.26039C30.9813 8.26039 33.2 8.54789 35.3438 9.11664C37.4188 9.66664 39.425 10.4854 41.3 11.5416C41.4688 11.6354 41.6563 11.6854 41.85 11.6854C42.25 11.6854 42.6188 11.4729 42.8188 11.1291L44.2188 8.73539C44.375 8.47289 44.4125 8.15414 44.3313 7.86039C44.25 7.56664 44.0438 7.31664 43.775 7.17289C41.7 6.07914 39.5 5.23539 37.225 4.66664C34.8938 4.07289 32.475 3.77289 30.0438 3.77289Z" fill="#FFE804"/>
<path fill-rule="evenodd" clip-rule="evenodd" d="M13.0499 18.9785L16.1639 20.698L16.1688 20.7008C16.7574 21.0371 16.9637 21.7732 16.6428 22.3644L16.6411 22.3675L14.1706 26.8207L14.1704 26.8211C13.7429 27.5906 12.7679 27.8723 11.9957 27.4434C11.9956 27.4434 11.9956 27.4434 11.9956 27.4433L9.27901 25.9348L9.27485 25.9325C8.97487 25.761 8.73309 25.4702 8.63839 25.11L7.67702 21.5017C7.67687 21.5012 7.67672 21.5006 7.67657 21.5001C7.50798 20.8728 7.85894 20.2011 8.50394 20.0067L12.1654 18.8781L12.1799 18.8743C12.4317 18.8071 12.7535 18.8116 13.0499 18.9785ZM12.4423 20.4278L9.26853 21.4061L10.124 24.6168L12.7542 26.0774L12.7544 26.0775C12.7589 26.08 12.7625 26.0809 12.766 26.0813C12.7701 26.0817 12.7755 26.0815 12.7814 26.0797C12.7934 26.0763 12.8002 26.07 12.8044 26.0624C12.8045 26.0623 12.8045 26.0623 12.8045 26.0622L15.1124 21.9023L12.4423 20.4278Z" fill="#FCFCFC"/>
<path fill-rule="evenodd" clip-rule="evenodd" d="M27.0662 22.4737C27.3588 22.4868 27.6195 22.6625 27.7415 22.9289C27.8658 23.2004 27.9759 23.4535 28.0814 23.6958C28.2555 24.0957 28.4169 24.4668 28.6092 24.8447C28.7556 25.1112 28.8781 25.3484 28.9952 25.5752C29.1534 25.8818 29.3018 26.1692 29.4864 26.4841C29.4873 26.4856 29.4882 26.4872 29.4891 26.4887C29.863 27.1369 30.2364 27.7732 30.6319 28.3876C31.1118 29.1321 31.6115 29.8663 32.1193 30.591C32.6423 31.3256 33.1567 32.0355 33.7048 32.7237L33.7077 32.7274C34.4386 33.6565 35.1881 34.5733 35.9562 35.4777C36.2658 35.8375 36.5538 36.2375 36.8149 36.6003C36.9014 36.7204 36.9849 36.8364 37.0653 36.9456C37.818 37.9579 38.4777 39.0408 39.0088 40.2008C39.3257 40.8774 39.4683 41.608 39.5894 42.2281C39.5964 42.2641 39.6034 42.2997 39.6103 42.3349C39.6113 42.3403 39.6123 42.3457 39.6133 42.3512C39.7194 42.9593 39.7312 43.5539 39.7312 44.0979C39.7312 44.5114 39.6691 44.92 39.6179 45.2575C39.6131 45.2894 39.6083 45.3207 39.6038 45.3513L39.6031 45.3555C39.5924 45.4243 39.5817 45.4949 39.5708 45.5671C39.4971 46.053 39.4127 46.6095 39.2494 47.1498C39.1026 47.6625 38.9239 48.1576 38.7219 48.6463C38.7211 48.6483 38.7203 48.6502 38.7195 48.6522C38.296 49.6538 37.7415 50.5595 37.1038 51.401C36.1923 52.6052 35.0997 53.6178 33.8291 54.436C32.9099 55.0288 31.9373 55.4883 30.9011 55.8273C30.5369 55.9485 30.148 56.0373 29.8041 56.1157C29.6853 56.1428 29.5719 56.1687 29.4668 56.1943C28.689 56.3868 27.9222 56.4596 27.1635 56.4728C27.1613 56.4728 27.1592 56.4729 27.1571 56.4729C26.4767 56.4791 25.7266 56.4754 24.974 56.3194C24.9735 56.3193 24.9729 56.3192 24.9724 56.3191L24.9722 56.3191C24.1759 56.1586 23.3183 55.9857 22.4787 55.6743C21.6505 55.3694 20.8631 54.9896 20.1129 54.514L20.1109 54.5127C19.0994 53.8673 18.1875 53.0884 17.3831 52.1776L17.3812 52.1754C16.92 51.6493 16.4776 51.0883 16.097 50.4699C16.0959 50.468 16.0948 50.4662 16.0937 50.4643C15.7052 49.821 15.3172 49.1289 15.0187 48.3829C14.7442 47.7029 14.5097 46.996 14.3542 46.2592L14.3538 46.2572C14.2519 45.7679 14.1924 45.2806 14.1475 44.8065C14.0246 43.627 14.1427 42.4766 14.4382 41.3551C14.4387 41.3532 14.4392 41.3513 14.4397 41.3494C14.4499 41.3118 14.4602 41.2737 14.4706 41.2352C14.5952 40.7743 14.7364 40.2521 14.952 39.7555C14.9538 39.7514 14.9556 39.7474 14.9574 39.7434C15.0954 39.4399 15.252 39.1474 15.4189 38.8665C15.4801 38.7596 15.5428 38.6477 15.6073 38.5324C15.8538 38.0921 16.1276 37.6031 16.4507 37.1616L16.4538 37.1573C16.6069 36.951 16.762 36.7377 16.9197 36.521C17.3508 35.9283 17.8009 35.3094 18.2818 34.7343L18.2833 34.7325C18.9422 33.9493 19.5888 33.1608 20.2022 32.3511L20.205 32.3475C20.9788 31.3384 21.7345 30.304 22.4656 29.2569L22.4681 29.2534C22.883 28.666 23.2743 28.0593 23.6776 27.4341C23.7306 27.3519 23.7839 27.2693 23.8374 27.1865L23.8388 27.1844C23.8727 27.1323 23.9064 27.0805 23.9399 27.0291C24.2465 26.5587 24.5367 26.1133 24.7927 25.6546L24.7937 25.6529C24.9313 25.4078 25.0675 25.1705 25.2014 24.9373C25.5281 24.3682 25.8408 23.8236 26.1251 23.2506L26.1261 23.2485C26.1735 23.1538 26.2251 23.0717 26.2611 23.0148C26.2674 23.0049 26.2733 22.9956 26.2789 22.9868C26.3094 22.9388 26.3307 22.9054 26.3528 22.8665C26.4982 22.6122 26.7736 22.4606 27.0662 22.4737ZM26.9566 25.0127C26.8158 25.264 26.6733 25.5123 26.5331 25.7565C26.4046 25.9803 26.2781 26.2007 26.1566 26.417C25.873 26.9251 25.5528 27.4162 25.2507 27.8796C25.2166 27.9319 25.1827 27.9839 25.1492 28.0355C25.0966 28.1168 25.0439 28.1986 24.991 28.2805C24.5902 28.902 24.1803 29.5375 23.7454 30.1532C23.0024 31.2173 22.2339 32.2693 21.4462 33.2965C20.8103 34.1359 20.1451 34.9465 19.4798 35.7374C19.0356 36.2688 18.6328 36.8226 18.2128 37.3999C18.049 37.6251 17.8826 37.8539 17.7101 38.0863C17.4493 38.4431 17.2372 38.8214 16.9986 39.2469C16.9261 39.3763 16.8511 39.51 16.7715 39.6488C16.7694 39.6526 16.7672 39.6563 16.765 39.66C16.6219 39.9004 16.4931 40.1415 16.3826 40.3839C16.2158 40.7698 16.1033 41.1845 15.9724 41.6673C15.9645 41.6966 15.9565 41.7262 15.9484 41.756C15.6948 42.7198 15.6006 43.6797 15.7019 44.6478C15.7022 44.6504 15.7024 44.653 15.7027 44.6556C15.7452 45.1049 15.7981 45.5285 15.8833 45.9377C16.0152 46.5626 16.218 47.1799 16.4681 47.7991L16.469 47.8015C16.7201 48.4292 17.0563 49.0358 17.4295 49.6537C17.7484 50.1714 18.13 50.6592 18.5554 51.1445C19.2629 51.9453 20.0628 52.6283 20.9504 53.1949C21.5995 53.6063 22.2863 53.9386 23.0197 54.2085L23.0216 54.2092C23.7302 54.472 24.4707 54.6241 25.2855 54.7883L25.2899 54.7892C25.8608 54.9077 26.4592 54.9167 27.1396 54.9105C27.8164 54.8985 28.4603 54.8339 29.0933 54.6771L29.0965 54.6763C29.2498 54.639 29.392 54.6066 29.5268 54.5758C29.8446 54.5033 30.1218 54.44 30.4091 54.3442L30.4134 54.3428C31.3262 54.0444 32.1778 53.6417 32.9827 53.1226L32.9832 53.1223C34.1 52.4031 35.0573 51.5158 35.8582 50.4577L35.8585 50.4573C36.4327 49.6996 36.9152 48.9064 37.2791 48.0466C37.4633 47.6008 37.6211 47.1612 37.7487 46.7145C37.7499 46.7105 37.7511 46.7064 37.7523 46.7024C37.8817 46.276 37.9486 45.8378 38.0244 45.3414C38.0356 45.268 38.0471 45.1933 38.0589 45.1172C38.0626 45.0927 38.0662 45.0685 38.0698 45.0446C38.1242 44.6832 38.1687 44.388 38.1687 44.0979C38.1687 43.5699 38.1556 43.0919 38.0754 42.6275L38.0692 42.5959C37.9365 41.9194 37.8266 41.3595 37.5927 40.8611C37.5916 40.8588 37.5906 40.8565 37.5895 40.8543C37.1087 39.8035 36.5067 38.8129 35.8105 37.8766L35.8085 37.8738C35.705 37.7334 35.6073 37.5977 35.5124 37.466C35.2625 37.119 35.0326 36.7997 34.7704 36.4952L34.7669 36.4911C33.9861 35.5718 33.2242 34.6398 32.4811 33.6953C31.9053 32.9723 31.3707 32.2337 30.8447 31.4947C30.8436 31.4932 30.8425 31.4916 30.8414 31.49C30.3249 30.7531 29.8127 30.0007 29.3183 29.2337L29.3179 29.2332C28.9014 28.5859 28.5127 27.923 28.137 27.2719C27.9463 26.9463 27.7517 26.5717 27.5691 26.2203C27.451 25.9931 27.338 25.7755 27.2343 25.5872C27.2303 25.58 27.2264 25.5727 27.2227 25.5653C27.1317 25.3869 27.0431 25.2011 26.9566 25.0127Z" fill="#FCFCFC"/>
<path fill-rule="evenodd" clip-rule="evenodd" d="M35.9561 22.4929C36.2425 22.5089 36.4971 22.6806 36.6193 22.9402C36.7111 23.1353 36.7851 23.3039 36.8534 23.4595C36.9593 23.7005 37.0513 23.9101 37.1744 24.1383C37.2655 24.3059 37.3423 24.4539 37.4147 24.5937C37.5192 24.7952 37.6148 24.9795 37.7314 25.18L37.7332 25.1831C37.9682 25.5912 38.205 25.9916 38.4515 26.3765L38.4528 26.3785C38.7494 26.8446 39.0662 27.3079 39.3871 27.7646C39.7157 28.2233 40.0438 28.6726 40.3875 29.1067L40.3881 29.1075C40.851 29.6939 41.3263 30.2742 41.8141 30.8484L41.8146 30.8489C42.0177 31.0885 42.2083 31.3531 42.3769 31.5872C42.4294 31.6601 42.4797 31.73 42.5277 31.7953C43.017 32.4503 43.4523 33.1586 43.7969 33.9144C44.017 34.3867 44.114 34.8952 44.1897 35.2926C44.1927 35.3082 44.1956 35.3235 44.1985 35.3387C44.1988 35.3399 44.199 35.3411 44.1992 35.3423C44.1994 35.3434 44.1996 35.3445 44.1998 35.3456C44.276 35.7645 44.2812 36.1634 44.2812 36.5104C44.2812 36.8218 44.2338 37.1215 44.1976 37.3509L44.1966 37.3572C44.1906 37.3951 44.1846 37.4341 44.1784 37.4742C44.1302 37.7853 44.0722 38.1598 43.9624 38.5293C43.8653 38.8684 43.7486 39.1897 43.6148 39.5109L43.6137 39.5136C43.3358 40.1736 42.9762 40.774 42.5528 41.3274C41.955 42.1171 41.2377 42.7864 40.3964 43.3245C40.0344 43.5567 39.6548 43.7641 39.2575 43.9384C38.8623 44.1117 38.4015 43.9318 38.2282 43.5367C38.0549 43.1416 38.2347 42.6807 38.6299 42.5074C38.9449 42.3692 39.2527 42.2018 39.5531 42.0091L39.5541 42.0084C40.2368 41.5719 40.8188 41.0296 41.3081 40.3828L41.3108 40.3793C41.6616 39.921 41.9513 39.4349 42.1731 38.9086C42.2885 38.6316 42.3837 38.3672 42.4612 38.0958C42.4621 38.0929 42.4629 38.09 42.4638 38.0871C42.542 37.8248 42.5837 37.5579 42.6344 37.2335C42.6405 37.1944 42.6468 37.1544 42.6532 37.1135C42.6919 36.8687 42.7187 36.6836 42.7187 36.5104C42.7187 36.1713 42.7114 35.896 42.6631 35.6284C42.5783 35.185 42.5119 34.8551 42.3798 34.5726C42.3786 34.5702 42.3775 34.5678 42.3764 34.5654C42.0842 33.9236 41.7083 33.309 41.2742 32.7281C41.2729 32.7264 41.2716 32.7247 41.2703 32.723C41.2022 32.6303 41.1393 32.5429 41.0792 32.4596C40.921 32.2399 40.7826 32.048 40.623 31.8597C40.1235 31.2716 39.6364 30.677 39.162 30.0761C38.794 29.6112 38.4479 29.1367 38.1148 28.6715C38.114 28.6704 38.1131 28.6692 38.1123 28.6681C38.1118 28.6673 38.1112 28.6666 38.1107 28.6658C37.7825 28.1988 37.4502 27.7133 37.1352 27.2183C36.8698 26.804 36.6195 26.3802 36.38 25.9642C36.2516 25.7434 36.1189 25.4887 35.997 25.2548C35.9476 25.16 35.9 25.0686 35.8552 24.9843C35.769 25.1348 35.6856 25.2808 35.6082 25.4204C35.6063 25.4238 35.6044 25.4272 35.6025 25.4306C35.3997 25.7838 35.179 26.1344 34.9533 26.4701L34.9533 26.4701C34.6698 26.9138 34.3745 27.376 34.058 27.8219C33.5843 28.504 33.096 29.1762 32.5872 29.8314C32.2943 30.2134 31.995 30.5891 31.6893 30.9585C31.4142 31.2909 30.9217 31.3374 30.5893 31.0623C30.2569 30.7872 30.2105 30.2947 30.4856 29.9623C30.7793 29.6073 31.067 29.2461 31.3487 28.8788L31.3517 28.8749C31.8415 28.2443 32.3144 27.5934 32.777 26.9273C32.7779 26.926 32.7788 26.9246 32.7797 26.9233C32.7804 26.9224 32.781 26.9215 32.7817 26.9205C33.075 26.5075 33.3523 26.0738 33.6416 25.621C33.6449 25.6158 33.6483 25.6106 33.6518 25.6054C33.8607 25.2951 34.0621 24.9751 34.2445 24.6577C34.3483 24.4705 34.4483 24.296 34.5449 24.1274C34.7359 23.794 34.9135 23.484 35.0808 23.1456C35.0854 23.1361 35.0903 23.1268 35.0953 23.1175C35.137 23.041 35.1859 22.9622 35.2246 22.8998C35.2326 22.8869 35.2401 22.8748 35.2471 22.8634C35.3974 22.6191 35.6696 22.4768 35.9561 22.4929Z" fill="#FCFCFC"/>
</svg>
