<svg width="64" height="64" viewBox="0 0 64 64" fill="none" xmlns="http://www.w3.org/2000/svg">
<path fill-rule="evenodd" clip-rule="evenodd" d="M22.2374 20.0375H17.7499C16.8064 20.0375 15.8904 20.4164 15.1634 20.9669C14.4349 21.5186 13.8181 22.3012 13.5332 23.2134C13.5331 23.2138 13.5329 23.2143 13.5328 23.2147L4.99606 50.3373L4.99529 50.3397C4.70917 51.257 4.79286 52.2055 5.30515 52.9519C5.8237 53.7073 6.68439 54.1125 7.64993 54.1125H41.6374V54.1H56.2249C57.1905 54.1 58.0511 53.6948 58.5697 52.9394C59.082 52.193 59.1657 51.2445 58.8796 50.3272L50.3421 23.2022C50.3419 23.2017 50.3417 23.2011 50.3415 23.2005C50.0565 22.2884 49.4399 21.506 48.7114 20.9544C47.9844 20.4039 47.0684 20.025 46.1249 20.025H22.2374V20.0375ZM39.6374 52.1125V52.1H56.2249C56.6219 52.1 56.8237 51.949 56.9208 51.8075C57.024 51.6571 57.109 51.3686 56.9707 50.9241C56.9706 50.9237 56.9704 50.9232 56.9703 50.9228L48.4336 23.8003L48.4328 23.7978C48.2925 23.3481 47.9595 22.8937 47.504 22.5488C47.0467 22.2024 46.5439 22.025 46.1249 22.025H24.2374V22.0375H17.7499C17.3309 22.0375 16.8282 22.2149 16.3708 22.5613C15.9154 22.9062 15.5823 23.3606 15.4421 23.8103L15.4413 23.8128L6.90456 50.9353C6.90446 50.9356 6.90436 50.9359 6.90426 50.9363C6.7658 51.381 6.85082 51.6696 6.95407 51.82C7.05115 51.9615 7.25296 52.1125 7.64993 52.1125H39.6374Z" fill="#FCFCFC"/>
<path fill-rule="evenodd" clip-rule="evenodd" d="M31.9999 9.4375C29.1487 9.4375 26.8374 11.7488 26.8374 14.6C26.8374 17.4512 29.1487 19.7625 31.9999 19.7625C34.8511 19.7625 37.1624 17.4512 37.1624 14.6C37.1624 11.7488 34.8511 9.4375 31.9999 9.4375ZM24.8374 14.6C24.8374 10.6443 28.0442 7.4375 31.9999 7.4375C35.9556 7.4375 39.1624 10.6443 39.1624 14.6C39.1624 18.5557 35.9556 21.7625 31.9999 21.7625C28.0442 21.7625 24.8374 18.5557 24.8374 14.6Z" fill="#FCFCFC"/>
<path d="M21.9624 41.5625V32.45C21.9624 32 22.3374 31.6 22.8249 31.6C23.3124 31.6 23.6749 32 23.6749 32.45V36.9125L28.7249 31.85C29.0624 31.5125 29.5999 31.5125 29.9374 31.85C30.2624 32.175 30.2624 32.725 29.9374 33.0625L26.4999 36.4875L29.9499 41.0125C30.2624 41.375 30.1999 41.9125 29.8249 42.2126C29.6749 42.35 29.4874 42.4125 29.2749 42.4125C29.0374 42.4125 28.8124 42.3 28.6374 42.1L25.2749 37.7L23.6499 39.35V41.5625C23.6499 42.025 23.2749 42.4125 22.7999 42.4125C22.3249 42.4125 21.9624 42.0375 21.9624 41.5625Z" fill="#FCFCFC"/>
<path d="M31.825 36.8375C31.825 33.7125 34.4125 31.2125 37.575 31.2125C38.9 31.2125 40.1625 31.6625 41.125 32.425C41.525 32.725 41.5875 33.3 41.2999 33.6875C40.9999 34.0625 40.4249 34.1375 40.0374 33.825C39.3624 33.3125 38.5125 32.9875 37.575 32.9875C36.45 32.9875 35.475 33.4125 34.775 34.125C34.0375 34.825 33.6124 35.775 33.6124 36.8375C33.6124 37.8625 34.05 38.8125 34.775 39.5125C35.475 40.225 36.4625 40.65 37.575 40.65C38.35 40.65 39.0875 40.4125 39.7125 40.0625V37.925H37.4874C36.9999 37.925 36.5999 37.525 36.5999 37.0375C36.5999 36.5375 36.9999 36.1625 37.4874 36.1625H40.5499C40.5624 36.1625 40.5625 36.1625 40.5625 36.1625C40.575 36.1625 40.575 36.1625 40.575 36.1625C41.075 36.1625 41.4749 36.5375 41.4749 37.0375V40.475C41.4749 40.5875 41.4499 40.65 41.4249 40.7375C41.4124 40.7625 41.4125 40.7875 41.4 40.8125V40.825C41.35 40.9625 41.2624 41.0875 41.0999 41.2C40.1249 41.9625 38.8875 42.4125 37.5625 42.4125C34.4125 42.425 31.825 39.95 31.825 36.8375Z" fill="#FCFCFC"/>
<path fill-rule="evenodd" clip-rule="evenodd" d="M32.0001 12.3875C30.7782 12.3875 29.7876 13.3781 29.7876 14.6C29.7876 15.8219 30.7782 16.8125 32.0001 16.8125C33.222 16.8125 34.2126 15.8219 34.2126 14.6C34.2126 13.3781 33.222 12.3875 32.0001 12.3875ZM27.7876 14.6C27.7876 12.2735 29.6736 10.3875 32.0001 10.3875C34.3266 10.3875 36.2126 12.2735 36.2126 14.6C36.2126 16.9265 34.3266 18.8125 32.0001 18.8125C29.6736 18.8125 27.7876 16.9265 27.7876 14.6Z" fill="#FCFCFC"/>
</svg>
