<svg width="64" height="64" viewBox="0 0 64 64" fill="none" xmlns="http://www.w3.org/2000/svg">
<path fill-rule="evenodd" clip-rule="evenodd" d="M20.5482 19.3234H15.2503C14.1364 19.3234 13.0549 19.7706 12.1966 20.4205C11.3365 21.0719 10.6084 21.9958 10.272 23.0728C10.2719 23.0733 10.2717 23.0738 10.2715 23.0744L0.193074 55.0952L0.192167 55.0981C-0.145623 56.181 -0.0468228 57.3009 0.55799 58.182C1.17019 59.0739 2.18631 59.5522 3.32623 59.5522H43.4518V59.5375H60.6738C61.8137 59.5375 62.8298 59.0591 63.442 58.1672C64.0468 57.2861 64.1456 56.1663 63.8078 55.0833L53.7285 23.0596C53.7283 23.0589 53.728 23.0582 53.7278 23.0575C53.3914 21.9808 52.6634 21.057 51.8034 20.4058C50.9451 19.7558 49.8636 19.3086 48.7497 19.3086H20.5482V19.3234ZM41.0906 57.191V57.1763H60.6738C61.1424 57.1763 61.3807 56.9979 61.4953 56.831C61.6172 56.6534 61.7175 56.3127 61.5542 55.788C61.5541 55.7875 61.5539 55.7869 61.5537 55.7864L51.4753 23.7656L51.4744 23.7627C51.3088 23.2318 50.9156 22.6953 50.3779 22.2882C49.8379 21.8792 49.2444 21.6698 48.7497 21.6698H22.9094V21.6845H15.2503C14.7556 21.6845 14.1621 21.894 13.6221 22.3029C13.0844 22.7101 12.6912 23.2466 12.5256 23.7775L12.5247 23.7804L2.44625 55.8012C2.44613 55.8016 2.44601 55.802 2.44589 55.8023C2.28243 56.3273 2.3828 56.6681 2.5047 56.8457C2.61931 57.0127 2.85757 57.191 3.32623 57.191H41.0906Z" fill="#FCFCFC"/>
<path fill-rule="evenodd" clip-rule="evenodd" d="M32.0737 6.80901C28.7076 6.80901 25.9789 9.53776 25.9789 12.9038C25.9789 16.2699 28.7076 18.9987 32.0737 18.9987C35.4398 18.9987 38.1685 16.2699 38.1685 12.9038C38.1685 9.53776 35.4398 6.80901 32.0737 6.80901ZM23.6177 12.9038C23.6177 8.23371 27.4036 4.44781 32.0737 4.44781C36.7438 4.44781 40.5297 8.23371 40.5297 12.9038C40.5297 17.574 36.7438 21.3599 32.0737 21.3599C27.4036 21.3599 23.6177 17.574 23.6177 12.9038Z" fill="#FCFCFC"/>
<path d="M20.2234 44.7357V33.9775C20.2234 33.4463 20.6661 32.974 21.2417 32.974C21.8172 32.974 22.2452 33.4463 22.2452 33.9775V39.246L28.2072 33.2692C28.6056 32.8707 29.2402 32.8707 29.6387 33.2692C30.0224 33.6529 30.0224 34.3022 29.6387 34.7007L25.5804 38.7442L29.6534 44.0864C30.0224 44.5144 29.9486 45.1489 29.5058 45.5031C29.3288 45.6655 29.1074 45.7392 28.8565 45.7392C28.5761 45.7392 28.3105 45.6064 28.1039 45.3703L24.1341 40.1757L22.2156 42.1237V44.7357C22.2156 45.2818 21.7729 45.7392 21.2121 45.7392C20.6514 45.7392 20.2234 45.2965 20.2234 44.7357Z" fill="#FCFCFC"/>
<path d="M31.8672 39.1574C31.8672 35.468 34.922 32.5165 38.6556 32.5165C40.2199 32.5165 41.7104 33.0478 42.8467 33.948C43.319 34.3022 43.3928 34.981 43.0534 35.4385C42.6992 35.8812 42.0203 35.9698 41.5628 35.6009C40.7659 34.9958 39.7624 34.6121 38.6556 34.6121C37.3275 34.6121 36.1764 35.1139 35.35 35.955C34.4793 36.7815 33.9775 37.903 33.9775 39.1574C33.9775 40.3675 34.494 41.4891 35.35 42.3155C36.1764 43.1567 37.3422 43.6584 38.6556 43.6584C39.5706 43.6584 40.4413 43.378 41.1792 42.9648V40.4413H38.5523C37.9768 40.4413 37.5045 39.9691 37.5045 39.3935C37.5045 38.8032 37.9768 38.3605 38.5523 38.3605H42.1679C42.1827 38.3605 42.1827 38.3605 42.1827 38.3605C42.1974 38.3605 42.1974 38.3605 42.1974 38.3605C42.7877 38.3605 43.26 38.8032 43.26 39.3935V43.4518C43.26 43.5846 43.2304 43.6584 43.2009 43.7617C43.1862 43.7913 43.1862 43.8208 43.1714 43.8503V43.865C43.1124 44.0274 43.0091 44.1749 42.8172 44.3078C41.6661 45.208 40.2052 45.7392 38.6409 45.7392C34.922 45.754 31.8672 42.832 31.8672 39.1574Z" fill="#FCFCFC"/>
<path fill-rule="evenodd" clip-rule="evenodd" d="M32.0741 10.2918C30.6315 10.2918 29.462 11.4613 29.462 12.9039C29.462 14.3465 30.6315 15.5159 32.0741 15.5159C33.5167 15.5159 34.6862 14.3465 34.6862 12.9039C34.6862 11.4613 33.5167 10.2918 32.0741 10.2918ZM27.1008 12.9039C27.1008 10.1572 29.3274 7.9306 32.0741 7.9306C34.8208 7.9306 37.0474 10.1572 37.0474 12.9039C37.0474 15.6505 34.8208 17.8771 32.0741 17.8771C29.3274 17.8771 27.1008 15.6505 27.1008 12.9039Z" fill="#FCFCFC"/>
</svg>
