<svg width="64" height="64" viewBox="0 0 64 64" fill="none" xmlns="http://www.w3.org/2000/svg">
<path fill-rule="evenodd" clip-rule="evenodd" d="M14.7899 52.9142C14.7897 52.9142 14.7906 52.9127 14.7929 52.9096C14.7911 52.9127 14.79 52.9142 14.7899 52.9142ZM14.9586 52.7625C15.1016 52.6587 15.3242 52.5314 15.649 52.3915C16.4671 52.039 17.7125 51.6984 19.3276 51.404C22.5413 50.8183 27.0222 50.45 32 50.45C36.9777 50.45 41.4586 50.8183 44.6723 51.404C46.2874 51.6984 47.5328 52.039 48.3509 52.3915C48.6757 52.5314 48.8983 52.6587 49.0413 52.7625C48.8983 52.8663 48.6757 52.9936 48.3509 53.1335C47.5328 53.486 46.2874 53.8267 44.6723 54.121C41.4586 54.7067 36.9777 55.075 32 55.075C27.0222 55.075 22.5413 54.7067 19.3276 54.121C17.7125 53.8267 16.4671 53.486 15.649 53.1335C15.3242 52.9936 15.1016 52.8663 14.9586 52.7625ZM49.21 52.9142C49.2099 52.9142 49.2087 52.9126 49.2069 52.9095C49.2092 52.9126 49.2102 52.9142 49.21 52.9142ZM49.2069 52.6156C49.2088 52.6124 49.2099 52.6108 49.21 52.6108C49.2102 52.6108 49.2093 52.6124 49.2069 52.6156ZM14.7929 52.6154C14.7906 52.6124 14.7897 52.6108 14.7899 52.6108C14.79 52.6108 14.7911 52.6124 14.7929 52.6154ZM18.969 49.4364C22.3333 48.8233 26.9399 48.45 32 48.45C37.06 48.45 41.6666 48.8233 45.0309 49.4364C46.7049 49.7415 48.1211 50.1147 49.1424 50.5548C49.6492 50.7732 50.1155 51.0317 50.4708 51.3482C50.8222 51.6612 51.1749 52.1341 51.1749 52.7625C51.1749 53.3909 50.8222 53.8639 50.4708 54.1768C50.1155 54.4933 49.6492 54.7519 49.1424 54.9703C48.1211 55.4103 46.7049 55.7835 45.0309 56.0886C41.6666 56.7018 37.06 57.075 32 57.075C26.9399 57.075 22.3333 56.7018 18.969 56.0886C17.295 55.7835 15.8788 55.4103 14.8575 54.9703C14.3507 54.7519 13.8844 54.4933 13.5291 54.1768C13.1777 53.8639 12.825 53.3909 12.825 52.7625C12.825 52.1341 13.1777 51.6612 13.5291 51.3482C13.8844 51.0317 14.3507 50.7732 14.8575 50.5548C15.8788 50.1147 17.295 49.7415 18.969 49.4364Z" fill="#282828"/>
<path fill-rule="evenodd" clip-rule="evenodd" d="M14.7899 12.1392C14.7897 12.1392 14.7906 12.1376 14.7929 12.1346C14.7911 12.1376 14.79 12.1392 14.7899 12.1392ZM14.9586 11.9875C15.1016 11.8837 15.3242 11.7564 15.649 11.6165C16.4671 11.264 17.7125 10.9233 19.3276 10.629C22.5413 10.0433 27.0222 9.67499 32 9.67499C36.9777 9.67499 41.4586 10.0433 44.6723 10.629C46.2874 10.9233 47.5328 11.264 48.3509 11.6165C48.6757 11.7564 48.8983 11.8837 49.0413 11.9875C48.8983 12.0913 48.6757 12.2186 48.3509 12.3585C47.5328 12.711 46.2874 13.0516 44.6723 13.346C41.4586 13.9317 36.9777 14.3 32 14.3C27.0222 14.3 22.5413 13.9317 19.3276 13.346C17.7125 13.0516 16.4671 12.711 15.649 12.3585C15.3242 12.2186 15.1016 12.0913 14.9586 11.9875ZM49.21 12.1392C49.2099 12.1392 49.2087 12.1376 49.2069 12.1345C49.2092 12.1376 49.2102 12.1392 49.21 12.1392ZM49.2069 11.8405C49.2088 11.8374 49.2099 11.8358 49.21 11.8358C49.2102 11.8358 49.2093 11.8374 49.2069 11.8405ZM14.7929 11.8404C14.7906 11.8373 14.7897 11.8358 14.7899 11.8358C14.79 11.8358 14.7911 11.8373 14.7929 11.8404ZM18.969 8.6614C22.3333 8.04824 26.9399 7.67499 32 7.67499C37.06 7.67499 41.6666 8.04824 45.0309 8.6614C46.7049 8.96649 48.1211 9.33967 49.1424 9.77974C49.6492 9.99813 50.1155 10.2567 50.4708 10.5732C50.8222 10.8861 51.1749 11.3591 51.1749 11.9875C51.1749 12.6159 50.8222 13.0888 50.4708 13.4018C50.1155 13.7183 49.6492 13.9768 49.1424 14.1952C48.1211 14.6353 46.7049 15.0085 45.0309 15.3136C41.6666 15.9267 37.06 16.3 32 16.3C26.9399 16.3 22.3333 15.9267 18.969 15.3136C17.295 15.0085 15.8788 14.6353 14.8575 14.1952C14.3507 13.9768 13.8844 13.7183 13.5291 13.4018C13.1777 13.0888 12.825 12.6159 12.825 11.9875C12.825 11.3591 13.1777 10.8861 13.5291 10.5732C13.8844 10.2567 14.3507 9.99813 14.8575 9.77974C15.8788 9.33967 17.295 8.96649 18.969 8.6614Z" fill="#282828"/>
<path fill-rule="evenodd" clip-rule="evenodd" d="M12.825 52.7625V11.9875H14.825V52.7625H12.825Z" fill="#282828"/>
<path fill-rule="evenodd" clip-rule="evenodd" d="M49.175 52.7625V11.9875H51.175V52.7625H49.175Z" fill="#282828"/>
<path d="M32.3001 23.2125C32.2251 23.125 32.1251 23.075 32.0126 23.075C31.9001 23.075 31.7876 23.125 31.7251 23.2125C31.4501 23.525 25.0376 30.9625 25.0376 34.7125C25.0376 38.5625 28.1626 41.6875 32.0126 41.6875C35.8626 41.6875 38.9876 38.5625 38.9876 34.7125C38.9876 30.9625 32.5751 23.525 32.3001 23.2125ZM32.0126 40.9C28.5876 40.9 25.8126 38.1125 25.8126 34.7C25.8126 31.675 30.7501 25.575 32.0126 24.0625C32.5626 24.7125 33.7751 26.2125 34.9876 27.9375C37.1001 30.95 38.2126 33.2875 38.2126 34.7C38.2126 38.125 35.4251 40.9 32.0126 40.9Z" fill="#12A71E"/>
<path fill-rule="evenodd" clip-rule="evenodd" d="M30.9508 22.5789C31.2328 22.2231 31.6517 22.075 32.0126 22.075C32.4421 22.075 32.8083 22.2721 33.0542 22.5557C33.2265 22.7521 34.9136 24.7109 36.5694 27.1046C37.4026 28.3091 38.2428 29.645 38.8785 30.9358C39.4997 32.1974 39.9876 33.5366 39.9876 34.7125C39.9876 39.1148 36.4149 42.6875 32.0126 42.6875C27.6103 42.6875 24.0376 39.1148 24.0376 34.7125C24.0376 33.5366 24.5255 32.1974 25.1467 30.9358C25.7824 29.645 26.6226 28.3091 27.4558 27.1046C29.0606 24.7847 30.6947 22.8733 30.9508 22.5789ZM32.0139 25.6422C31.266 26.5775 30.2292 27.9292 29.2717 29.3681C28.5897 30.3929 27.9618 31.4416 27.5079 32.4018C27.0412 33.3891 26.8126 34.1723 26.8126 34.7C26.8126 37.5615 29.1412 39.9 32.0126 39.9C34.8741 39.9 37.2126 37.5714 37.2126 34.7C37.2126 34.2185 37.0113 33.4435 36.4896 32.349C35.9792 31.2782 35.2057 29.9903 34.1689 28.5117M32.0139 25.6422C32.6098 26.3884 33.3896 27.4031 34.1688 28.5117Z" fill="#12A71E"/>
</svg>
