<svg width="50" height="64" viewBox="0 0 50 64" fill="none" xmlns="http://www.w3.org/2000/svg">
<path fill-rule="evenodd" clip-rule="evenodd" d="M3.48737 57.6178C3.48723 57.6178 3.48835 57.6159 3.49119 57.6121C3.48894 57.6159 3.48752 57.6178 3.48737 57.6178ZM3.69832 57.4275C3.87705 57.2972 4.15537 57.1375 4.56126 56.9619C5.58391 56.5195 7.14072 56.0921 9.15955 55.7227C13.1767 54.9876 18.7778 54.5255 25 54.5255C31.2221 54.5255 36.8233 54.9876 40.8405 55.7227C42.8593 56.0921 44.4161 56.5195 45.4387 56.9619C45.8446 57.1375 46.1229 57.2972 46.3017 57.4274C46.1229 57.5577 45.8446 57.7174 45.4387 57.893C44.4161 58.3354 42.8593 58.7628 40.8405 59.1322C36.8233 59.8673 31.2221 60.3294 25 60.3294C18.7778 60.3294 13.1767 59.8673 9.15955 59.1322C7.14072 58.7628 5.58391 58.3354 4.56126 57.893C4.15537 57.7174 3.87705 57.5577 3.69832 57.4275ZM46.5126 57.6178C46.5125 57.6178 46.511 57.6158 46.5087 57.6119C46.5116 57.6158 46.5128 57.6178 46.5126 57.6178ZM46.5087 57.243C46.511 57.2391 46.5125 57.2371 46.5126 57.2371C46.5128 57.2371 46.5116 57.2391 46.5087 57.243ZM3.49119 57.2429C3.48835 57.239 3.48723 57.2371 3.48737 57.2371C3.48752 57.2371 3.48894 57.239 3.49119 57.2429ZM8.71129 53.2535C12.9167 52.4841 18.6749 52.0157 25 52.0157C31.3251 52.0157 37.0833 52.4841 41.2887 53.2535C43.3812 53.6364 45.1514 54.1047 46.4281 54.6569C47.0616 54.931 47.6444 55.2555 48.0886 55.6526C48.5278 56.0454 48.9688 56.6389 48.9688 57.4275C48.9688 58.216 48.5278 58.8095 48.0886 59.2023C47.6444 59.5994 47.0616 59.9239 46.4281 60.198C45.1514 60.7502 43.3812 61.2185 41.2887 61.6014C37.0833 62.3708 31.3251 62.8392 25 62.8392C18.6749 62.8392 12.9167 62.3708 8.71129 61.6014C6.61883 61.2185 4.84856 60.7502 3.57194 60.198C2.93843 59.9239 2.35559 59.5994 1.91144 59.2023C1.47217 58.8095 1.03125 58.216 1.03125 57.4275C1.03125 56.6389 1.47217 56.0454 1.91144 55.6526C2.35559 55.2555 2.93843 54.931 3.57194 54.6569C4.84856 54.1047 6.61883 53.6364 8.71129 53.2535Z" fill="#FCFCFC"/>
<path fill-rule="evenodd" clip-rule="evenodd" d="M3.48737 6.44915C3.48723 6.44915 3.48835 6.44724 3.49119 6.44341C3.48894 6.44724 3.48752 6.44915 3.48737 6.44915ZM3.69832 6.25881C3.87705 6.12853 4.15537 5.96882 4.56126 5.79323C5.58391 5.35085 7.14072 4.92342 9.15955 4.55403C13.1767 3.819 18.7778 3.35685 25 3.35685C31.2221 3.35685 36.8233 3.819 40.8405 4.55403C42.8593 4.92342 44.4161 5.35085 45.4387 5.79323C45.8446 5.96882 46.1229 6.12853 46.3017 6.2588C46.1229 6.38908 45.8446 6.5488 45.4387 6.72439C44.4161 7.16677 42.8593 7.5942 40.8405 7.96359C36.8233 8.69862 31.2221 9.16077 25 9.16077C18.7778 9.16077 13.1767 8.69862 9.15955 7.96359C7.14072 7.5942 5.58391 7.16677 4.56126 6.72439C4.15537 6.5488 3.87705 6.38909 3.69832 6.25881ZM46.5126 6.44915C46.5125 6.44915 46.511 6.44719 46.5087 6.44324C46.5116 6.44718 46.5128 6.44915 46.5126 6.44915ZM46.5087 6.0744C46.511 6.07044 46.5125 6.06847 46.5126 6.06847C46.5128 6.06847 46.5116 6.07045 46.5087 6.0744ZM3.49119 6.07421C3.48835 6.07038 3.48723 6.06847 3.48737 6.06847C3.48752 6.06847 3.48894 6.07038 3.49119 6.07421ZM8.71129 2.0849C12.9167 1.31544 18.6749 0.847046 25 0.847046C31.3251 0.847046 37.0833 1.31544 41.2887 2.0849C43.3812 2.46776 45.1514 2.93606 46.4281 3.48831C47.0616 3.76236 47.6444 4.08681 48.0886 4.48396C48.5278 4.87673 48.9688 5.47027 48.9688 6.25881C48.9688 7.04735 48.5278 7.64089 48.0886 8.03366C47.6444 8.43081 47.0616 8.75526 46.4281 9.02931C45.1514 9.58156 43.3812 10.0499 41.2887 10.4327C37.0833 11.2022 31.3251 11.6706 25 11.6706C18.6749 11.6706 12.9167 11.2022 8.71129 10.4327C6.61883 10.0499 4.84856 9.58156 3.57194 9.02931C2.93843 8.75526 2.35559 8.43081 1.91144 8.03366C1.47217 7.64089 1.03125 7.04735 1.03125 6.25881C1.03125 5.47027 1.47217 4.87673 1.91144 4.48396C2.35559 4.08681 2.93843 3.76236 3.57194 3.48831C4.84856 2.93606 6.61883 2.46776 8.71129 2.0849Z" fill="#FCFCFC"/>
<path fill-rule="evenodd" clip-rule="evenodd" d="M1.03125 57.4275V6.25885H3.53125V57.4275H1.03125Z" fill="#FCFCFC"/>
<path fill-rule="evenodd" clip-rule="evenodd" d="M46.4688 57.4275V6.25885H48.9688V57.4275H46.4688Z" fill="#FCFCFC"/>
<path fill-rule="evenodd" clip-rule="evenodd" d="M23.8017 20.5867C24.1199 20.1724 24.5928 20 25 20C25.4847 20 25.898 20.2294 26.1755 20.5597C26.37 20.7884 28.2738 23.0691 30.1425 25.8561C31.0828 27.2586 32.031 28.8141 32.7483 30.3169C33.4494 31.7859 34 33.3452 34 34.7144C34 39.8401 29.9681 44 25 44C20.0319 44 16 39.8401 16 34.7144C16 33.3452 16.5506 31.7859 17.2517 30.3169C17.969 28.8141 18.9172 27.2586 19.8576 25.8561C21.6686 23.155 23.5127 20.9295 23.8017 20.5867ZM25 24.1753C24.156 25.2643 22.9873 26.8162 21.9068 28.4916C21.1372 29.6849 20.4286 30.9059 19.9163 32.0239C19.3896 33.1734 19.1317 34.0854 19.1317 34.6998C19.1317 38.0316 21.7595 40.7544 25 40.7544C28.2293 40.7544 30.8683 38.0431 30.8683 34.6998C30.8683 34.1392 30.6411 33.2368 30.0524 31.9625C29.4764 30.7157 28.6035 29.2161 27.4334 27.4945M25 24.1753C25.6725 25.0441 26.554 26.2038 27.4334 27.4945L25 24.1753Z" fill="#12A71E"/>
</svg>
