<svg width="24" height="24" viewBox="0 0 24 24" fill="none" xmlns="http://www.w3.org/2000/svg">
<path fill-rule="evenodd" clip-rule="evenodd" d="M20.1561 5.43343C18.8301 4.83566 17.373 4.58762 15.9239 4.71298C14.4749 4.83834 13.0821 5.33288 11.8785 6.14943C11.4003 6.47488 10.9003 6.76703 10.382 7.02382L10.3805 7.02455L10.3791 7.02526C8.71626 7.82922 6.97332 8.0807 5.15022 7.62653L5.15021 7.62653C4.05555 7.35378 3.06954 6.85904 2.15218 6.24956C1.99547 6.14545 1.95284 5.93402 2.05695 5.77731C2.16106 5.62061 2.37249 5.57797 2.5292 5.68208C3.40128 6.26148 4.31576 6.71648 5.31493 6.96544C6.96594 7.37673 8.54556 7.15464 10.081 6.41261C10.5709 6.16983 11.0434 5.89364 11.4954 5.58602L11.4958 5.58573C12.7958 4.70376 14.3001 4.16961 15.8652 4.03421C17.4301 3.89883 19.0036 4.16666 20.4357 4.81213C20.923 5.02988 21.3934 5.28369 21.8429 5.57143C22.0014 5.67286 22.0476 5.88353 21.9462 6.04199C21.8448 6.20045 21.6341 6.24668 21.4757 6.14526C21.0545 5.87567 20.6137 5.63789 20.1571 5.4339L20.1561 5.43343ZM20.1561 11.1581C18.8301 10.5604 17.373 10.3123 15.9239 10.4377C14.4749 10.563 13.0821 11.0576 11.8785 11.8741C11.4003 12.1996 10.9003 12.4917 10.382 12.7485L10.3805 12.7493L10.3791 12.75C8.71626 13.5539 6.97332 13.8054 5.15022 13.3512L5.15021 13.3512C4.05555 13.0785 3.06954 12.5837 2.15218 11.9743C1.99547 11.8702 1.95284 11.6587 2.05695 11.502C2.16106 11.3453 2.37249 11.3027 2.5292 11.4068C3.40128 11.9862 4.31576 12.4412 5.31493 12.6901C6.96594 13.1014 8.54556 12.8794 10.081 12.1373C10.5709 11.8945 11.0434 11.6184 11.4954 11.3107L11.4958 11.3104C12.7958 10.4285 14.3001 9.89432 15.8652 9.75892C17.4301 9.62354 19.0036 9.89137 20.4357 10.5368C20.923 10.7546 21.3934 11.0084 21.8429 11.2961C22.0014 11.3976 22.0476 11.6082 21.9462 11.7667C21.8448 11.9252 21.6341 11.9714 21.4757 11.87C21.0545 11.6004 20.6137 11.3626 20.1571 11.1586L20.1561 11.1581ZM15.9239 16.1624C17.373 16.037 18.8301 16.2851 20.1561 16.8829L20.1571 16.8833C20.6137 17.0873 21.0545 17.3251 21.4757 17.5947C21.6341 17.6961 21.8448 17.6499 21.9462 17.4914C22.0476 17.3329 22.0014 17.1223 21.8429 17.0209C21.3934 16.7331 20.923 16.4793 20.4357 16.2615C19.0036 15.6161 17.4301 15.3483 15.8652 15.4836C14.3001 15.619 12.7958 16.1532 11.4958 17.0352L11.4954 17.0354C11.0434 17.3431 10.5709 17.6192 10.081 17.862C8.54556 18.6041 6.96594 18.8262 5.31493 18.4149C4.31576 18.1659 3.40128 17.7109 2.5292 17.1315C2.37249 17.0274 2.16106 17.07 2.05695 17.2267C1.95284 17.3834 1.99547 17.5949 2.15218 17.699C3.06954 18.3085 4.05555 18.8032 5.15021 19.0759L5.15022 19.076C6.97332 19.5301 8.71626 19.2786 10.3791 18.4747L10.3805 18.474L10.382 18.4732C10.9003 18.2164 11.4003 17.9243 11.8785 17.5988C13.0821 16.7823 14.4749 16.2878 15.9239 16.1624Z" fill="white"/>
</svg>
