<svg width="512" height="512" viewBox="0 0 512 512" fill="none" xmlns="http://www.w3.org/2000/svg">
<path d="M112.999 179.63C110.37 179.63 107.846 178.594 105.974 176.747C104.102 174.9 103.034 172.389 102.999 169.76C102.831 156.594 106.758 143.701 114.238 132.864C121.718 122.028 132.38 113.784 144.75 109.273C157.121 104.761 170.587 104.205 183.287 107.682C195.987 111.159 207.292 118.497 215.639 128.68C217.27 130.738 218.026 133.354 217.745 135.965C217.463 138.575 216.165 140.97 214.133 142.632C212.101 144.294 209.496 145.09 206.881 144.849C204.267 144.607 201.853 143.347 200.159 141.34C194.438 134.367 186.691 129.344 177.99 126.966C169.289 124.588 160.064 124.972 151.591 128.065C143.118 131.159 135.815 136.808 130.693 144.233C125.571 151.658 122.882 160.49 122.999 169.51C123.031 172.16 122.01 174.715 120.159 176.613C118.308 178.51 115.78 179.596 113.129 179.63H112.999Z" fill="#00D151"/>
<path d="M458.559 74.0001C457.719 74.0008 456.882 73.8933 456.07 73.6801C453.501 73.0207 451.3 71.3682 449.949 69.086C448.599 66.8037 448.211 64.0787 448.869 61.5101C449.733 58.107 449.519 54.5196 448.257 51.2435C446.994 47.9673 444.745 45.1642 441.821 43.2211C438.896 41.2781 435.441 40.2912 431.931 40.3967C428.422 40.5022 425.032 41.6949 422.23 43.8101C420.108 45.408 417.438 46.0976 414.808 45.7272C412.178 45.3569 409.802 43.9568 408.204 41.8351C406.607 39.7133 405.917 37.0437 406.287 34.4135C406.658 31.7833 408.058 29.408 410.179 27.8101C416.292 23.1976 423.686 20.598 431.34 20.3708C438.994 20.1435 446.53 22.2998 452.905 26.5415C459.28 30.7832 464.18 36.9008 466.927 44.0484C469.674 51.1959 470.133 59.0205 468.239 66.4401C467.697 68.5974 466.45 70.5121 464.697 71.8813C462.944 73.2505 460.784 73.9961 458.559 74.0001Z" fill="#00D151"/>
<path d="M160.409 496C155.321 495.997 150.288 494.945 145.625 492.91C140.962 490.874 136.768 487.898 133.307 484.169C129.846 480.439 127.191 476.036 125.509 471.234C123.826 466.432 123.153 461.334 123.529 456.26C123.767 453.644 125.025 451.227 127.031 449.53C129.037 447.834 131.629 446.995 134.248 447.195C136.867 447.395 139.303 448.617 141.028 450.597C142.754 452.578 143.631 455.158 143.469 457.78C143.21 461.281 144.045 464.776 145.858 467.783C147.671 470.789 150.372 473.159 153.59 474.564C156.807 475.969 160.381 476.34 163.819 475.627C167.256 474.913 170.387 473.149 172.779 470.58C173.674 469.618 174.749 468.842 175.943 468.295C177.137 467.749 178.428 467.443 179.74 467.395C181.053 467.347 182.362 467.558 183.593 468.016C184.824 468.474 185.952 469.171 186.914 470.065C187.876 470.959 188.653 472.034 189.199 473.229C189.746 474.423 190.051 475.713 190.099 477.026C190.147 478.338 189.936 479.647 189.478 480.878C189.02 482.109 188.324 483.238 187.429 484.2C183.979 487.919 179.799 490.887 175.15 492.917C170.501 494.948 165.483 495.997 160.409 496Z" fill="black"/>
<path d="M32.2203 193.4C30.3149 193.401 28.4489 192.857 26.8421 191.833C25.2352 190.809 23.9544 189.348 23.1503 187.62C19.9171 180.672 18.9245 172.89 20.31 165.352C21.6956 157.814 25.3907 150.894 30.8836 145.549C36.3765 140.205 43.3953 136.7 50.9681 135.522C58.5409 134.343 66.2928 135.548 73.1503 138.97C74.3553 139.538 75.4347 140.341 76.3251 141.332C77.2155 142.323 77.899 143.482 78.3353 144.741C78.7716 145.999 78.952 147.332 78.866 148.662C78.7799 149.991 78.4291 151.29 77.8341 152.482C77.2392 153.674 76.412 154.735 75.4013 155.603C74.3906 156.471 73.2167 157.128 71.9485 157.536C70.6803 157.944 69.3433 158.094 68.0162 157.978C66.6891 157.862 65.3985 157.482 64.2203 156.86C61.0744 155.301 57.5219 154.756 54.0534 155.303C50.5849 155.849 47.3717 157.459 44.8578 159.911C42.3439 162.362 40.6533 165.534 40.0196 168.987C39.3859 172.441 39.8404 176.006 41.3203 179.19C42.0275 180.714 42.3395 182.391 42.2274 184.068C42.1153 185.744 41.5828 187.365 40.679 188.781C39.7752 190.197 38.5292 191.362 37.0561 192.169C35.583 192.977 33.9302 193.4 32.2503 193.4H32.2203Z" fill="black"/>
<path d="M452.429 292.86C450.053 292.864 447.752 292.021 445.94 290.483C444.128 288.945 442.923 286.811 442.542 284.465C442.16 282.119 442.627 279.714 443.858 277.681C445.089 275.648 447.004 274.119 449.259 273.37C452.593 272.252 455.496 270.125 457.566 267.283C459.637 264.442 460.773 261.027 460.817 257.512C460.861 253.996 459.811 250.554 457.812 247.662C455.813 244.77 452.964 242.571 449.659 241.37C447.212 240.427 445.233 238.561 444.148 236.173C443.064 233.784 442.961 231.066 443.862 228.603C444.763 226.139 446.596 224.129 448.965 223.004C451.335 221.879 454.051 221.731 456.529 222.59C463.721 225.22 469.917 230.019 474.262 236.324C478.608 242.629 480.887 250.128 480.784 257.785C480.682 265.441 478.204 272.877 473.692 279.063C469.181 285.25 462.858 289.883 455.599 292.32C454.579 292.67 453.508 292.852 452.429 292.86Z" fill="#00D151"/>
<path d="M370.17 447.28C370.206 460.058 366.388 472.55 359.215 483.126C352.043 493.701 341.849 501.869 329.964 506.563C318.079 511.256 305.055 512.258 292.592 509.437C280.129 506.617 268.806 500.104 260.1 490.75C259.18 489.793 258.46 488.661 257.982 487.423C257.503 486.184 257.277 484.862 257.315 483.534C257.353 482.207 257.655 480.9 258.203 479.691C258.752 478.481 259.536 477.393 260.509 476.49C261.483 475.587 262.627 474.886 263.874 474.43C265.121 473.974 266.447 473.77 267.773 473.832C269.1 473.893 270.401 474.218 271.601 474.788C272.8 475.358 273.875 476.161 274.76 477.15C280.439 483.263 287.756 487.614 295.838 489.686C303.92 491.758 312.428 491.462 320.347 488.835C328.266 486.208 335.263 481.36 340.505 474.868C345.746 468.377 349.011 460.515 349.91 452.22C354.014 451.877 358.078 451.157 362.05 450.07C364.815 449.319 367.528 448.387 370.17 447.28Z" fill="#00D151"/>
<path d="M446.06 401C434.329 404.243 421.839 403.36 410.68 398.5C408.368 409.297 403.475 419.373 396.42 427.868C389.366 436.363 380.359 443.023 370.17 447.28C367.528 448.387 364.815 449.319 362.05 450.07C358.078 451.157 354.014 451.876 349.91 452.22C347.97 452.4 346.03 452.48 344.09 452.48C327.454 452.461 311.405 446.325 299 435.24C297.988 434.376 297.158 433.319 296.559 432.131C295.961 430.942 295.605 429.646 295.514 428.319C295.422 426.991 295.597 425.659 296.027 424.399C296.457 423.14 297.134 421.979 298.019 420.985C298.903 419.991 299.977 419.183 301.178 418.609C302.378 418.035 303.681 417.707 305.01 417.643C306.34 417.579 307.668 417.781 308.918 418.238C310.168 418.694 311.315 419.395 312.29 420.3C319.389 426.616 328.202 430.683 337.614 431.986C347.026 433.289 356.613 431.77 365.16 427.62C373.708 423.471 380.832 416.878 385.629 408.676C390.427 400.475 392.682 391.034 392.11 381.55C391.985 379.545 392.467 377.55 393.492 375.823C394.517 374.096 396.038 372.718 397.857 371.868C399.676 371.018 401.709 370.735 403.691 371.056C405.673 371.377 407.513 372.288 408.97 373.67C414.269 378.709 421.071 381.874 428.338 382.684C435.605 383.493 442.937 381.901 449.214 378.15C455.491 374.4 460.368 368.699 463.099 361.916C465.831 355.133 466.266 347.643 464.34 340.59C463.976 339.281 463.542 337.992 463.04 336.73C462.512 335.505 462.234 334.186 462.223 332.852C462.212 331.518 462.468 330.195 462.976 328.962C463.484 327.728 464.234 326.609 465.181 325.669C466.128 324.73 467.254 323.989 468.492 323.492C469.729 322.994 471.054 322.749 472.388 322.771C473.722 322.793 475.038 323.082 476.259 323.62C477.479 324.159 478.58 324.936 479.495 325.906C480.411 326.876 481.123 328.02 481.59 329.27C482.371 331.25 483.039 333.273 483.59 335.33C487.304 349.014 485.438 363.613 478.402 375.924C471.367 388.235 459.736 397.253 446.06 401Z" fill="black"/>
<path d="M131.449 404.4C119.22 411.495 105.032 414.464 90.9848 412.869C76.9372 411.273 63.7765 405.198 53.4503 395.541C43.124 385.885 36.181 373.16 33.6486 359.251C31.1162 345.342 33.1291 330.987 39.3893 318.31C34.2107 313.984 30.0007 308.616 27.033 302.555C24.0652 296.494 22.4063 289.877 22.1639 283.133C21.9215 276.39 23.1011 269.67 25.626 263.412C28.151 257.154 31.9647 251.498 36.8193 246.81C38.7284 244.979 41.2856 243.978 43.9308 244.028C46.576 244.078 49.0936 245.174 50.9324 247.076C52.7712 248.979 53.7812 251.532 53.7412 254.177C53.7013 256.823 52.6146 259.344 50.7193 261.19C46.8353 264.951 44.1158 269.751 42.8852 275.015C41.6546 280.28 41.965 285.787 43.7793 290.88C45.8931 296.873 49.9981 301.959 55.4093 305.29C58.6856 307.325 62.3451 308.664 66.1606 309.224C69.9761 309.785 73.8661 309.556 77.5893 308.55C80.1486 307.854 82.8797 308.203 85.1817 309.521C87.4837 310.838 89.1681 313.016 89.8643 315.575C90.5604 318.135 90.2114 320.866 88.894 323.168C87.5766 325.47 85.3986 327.154 82.8393 327.85C74.3929 330.136 65.4828 330.074 57.0693 327.67C53.5981 334.952 52.106 343.02 52.7432 351.062C53.3805 359.104 56.1245 366.836 60.6993 373.48C66.5533 382.029 75.1565 388.318 85.0793 391.3C91.0996 393.123 97.4298 393.692 103.679 392.971C109.927 392.25 115.962 390.256 121.409 387.11C122.547 386.372 123.823 385.872 125.16 385.643C126.497 385.413 127.867 385.457 129.186 385.774C130.505 386.09 131.746 386.671 132.833 387.482C133.92 388.293 134.831 389.317 135.51 390.492C136.19 391.666 136.623 392.966 136.784 394.313C136.944 395.66 136.829 397.025 136.446 398.326C136.062 399.627 135.418 400.837 134.552 401.881C133.686 402.925 132.617 403.782 131.409 404.4H131.449Z" fill="black"/>
<path d="M336.77 85.9999C336.219 86.0958 335.66 86.1426 335.101 86.1399C332.738 86.1373 330.453 85.2983 328.65 83.7718C326.847 82.2452 325.643 80.1296 325.251 77.7999C324.359 72.4953 321.957 67.5599 318.334 63.5839C314.711 59.608 310.02 56.7598 304.821 55.38C298.718 53.7457 292.241 54.2432 286.46 56.79C282.946 58.3316 279.785 60.5794 277.176 63.3937C274.566 66.2081 272.563 69.5289 271.291 73.1499C270.857 74.3896 270.184 75.5318 269.309 76.5113C268.434 77.4908 267.375 78.2883 266.192 78.8585C263.803 80.01 261.054 80.1652 258.55 79.2899C257.311 78.8566 256.169 78.1833 255.189 77.3085C254.21 76.4337 253.412 75.3746 252.842 74.1916C251.69 71.8024 251.535 69.0536 252.411 66.5499C254.549 60.4492 257.903 54.8461 262.27 50.08C258.807 41.9755 253.089 35.0366 245.796 30.0887C238.502 25.1408 229.941 22.3922 221.131 22.17C210.777 21.9016 200.641 25.1754 192.4 31.45C187.392 35.2542 183.217 40.0451 180.133 45.5267C177.049 51.0083 175.122 57.0642 174.471 63.32C174.223 65.7849 173.069 68.0701 171.232 69.7328C169.396 71.3956 167.008 72.3175 164.53 72.3199C164.196 72.3185 163.862 72.2985 163.53 72.2599C162.22 72.1276 160.949 71.7377 159.789 71.1127C158.63 70.4876 157.606 69.6396 156.775 68.6175C155.944 67.5954 155.324 66.4193 154.949 65.1567C154.574 63.894 154.452 62.5698 154.59 61.2599C156.035 47.0975 162.031 33.7848 171.68 23.3174C181.329 12.85 194.11 5.79194 208.108 3.20114C222.107 0.610332 236.567 2.62639 249.323 8.94711C262.079 15.2678 272.443 25.5527 278.86 38.2599C285.538 35.4065 292.777 34.1071 300.031 34.46C307.284 34.8128 314.363 36.8086 320.733 40.2967C327.102 43.7848 332.596 48.6742 336.8 54.5957C341.004 60.5173 343.808 67.3164 345.001 74.4799C345.218 75.7769 345.178 77.104 344.882 78.3854C344.585 79.6667 344.04 80.877 343.275 81.9471C342.511 83.0172 341.543 83.9259 340.426 84.6214C339.31 85.3168 338.068 85.7853 336.77 85.9999Z" fill="black"/>
<path d="M497.51 218.59C495.886 218.59 494.286 218.195 492.85 217.438C491.413 216.682 490.182 215.586 489.263 214.247C488.345 212.908 487.766 211.366 487.577 209.753C487.388 208.14 487.595 206.505 488.18 204.99C490.003 200.252 490.735 195.164 490.322 190.105C489.909 185.045 488.361 180.143 485.794 175.763C483.227 171.383 479.707 167.638 475.494 164.805C471.281 161.973 466.484 160.125 461.46 159.4C459.258 159.078 457.227 158.031 455.687 156.425C454.147 154.818 453.188 152.744 452.96 150.53C452.557 146.595 451.18 142.822 448.952 139.553C446.725 136.284 443.717 133.622 440.201 131.808C436.686 129.994 432.773 129.086 428.818 129.165C424.863 129.244 420.99 130.308 417.55 132.26C415.241 133.567 412.508 133.902 409.952 133.193C407.396 132.484 405.226 130.789 403.92 128.48C402.614 126.172 402.278 123.439 402.987 120.883C403.696 118.326 405.391 116.157 407.7 114.85C413.482 111.574 419.935 109.656 426.569 109.242C433.202 108.829 439.843 109.93 445.988 112.463C452.133 114.997 457.621 118.895 462.035 123.864C466.45 128.832 469.677 134.74 471.47 141.14C473.01 141.58 474.53 142.09 476.03 142.67C489.324 147.817 500.034 158.027 505.81 171.06C511.586 184.093 511.956 198.885 506.84 212.19C506.113 214.075 504.832 215.694 503.167 216.837C501.501 217.979 499.529 218.59 497.51 218.59Z" fill="black"/>
<path d="M156.901 211.88C160.378 211.882 163.774 212.927 166.651 214.88C169.733 216.94 172.258 219.729 174.001 223C175.84 226.5 176.801 230.396 176.801 234.35C176.801 238.304 175.84 242.199 174.001 245.7C172.248 248.972 169.725 251.769 166.651 253.85C163.779 255.813 160.38 256.859 156.901 256.85H138.501L139.501 255.05V275.75C139.55 277.352 138.977 278.911 137.901 280.1C137.37 280.679 136.719 281.135 135.993 281.437C135.268 281.739 134.486 281.88 133.701 281.85C132.931 281.873 132.166 281.729 131.458 281.427C130.75 281.125 130.116 280.672 129.601 280.1C128.525 278.911 127.952 277.352 128.001 275.75V218C127.987 217.195 128.136 216.396 128.438 215.65C128.739 214.903 129.188 214.226 129.757 213.656C130.327 213.087 131.004 212.638 131.751 212.337C132.497 212.035 133.296 211.886 134.101 211.9L156.901 211.88ZM156.901 245.48C158.292 245.431 159.613 244.86 160.601 243.88C161.872 242.714 162.893 241.302 163.601 239.73C164.391 238.048 164.801 236.213 164.801 234.355C164.801 232.497 164.391 230.662 163.601 228.98C162.889 227.453 161.867 226.091 160.601 224.98C159.599 224.028 158.282 223.477 156.901 223.43H138.301L139.501 221.63V247.13L138.401 245.53L156.901 245.48Z" fill="black"/>
<path d="M194.601 211.78C195.645 211.795 196.672 212.052 197.601 212.53C198.546 212.955 199.358 213.629 199.951 214.48L224.251 251.88L219.251 251.68L244.151 214.48C244.671 213.651 245.394 212.968 246.251 212.496C247.109 212.024 248.072 211.777 249.051 211.78C250.648 211.781 252.185 212.388 253.351 213.48C253.972 214.028 254.465 214.706 254.793 215.467C255.122 216.228 255.278 217.051 255.251 217.88V275.78C255.278 276.596 255.135 277.41 254.832 278.169C254.529 278.928 254.071 279.616 253.489 280.19C252.906 280.763 252.211 281.209 251.447 281.5C250.683 281.791 249.867 281.92 249.051 281.88C248.213 281.914 247.377 281.776 246.594 281.475C245.812 281.174 245.099 280.716 244.501 280.13C243.927 279.563 243.476 278.884 243.175 278.136C242.874 277.388 242.729 276.586 242.751 275.78V228.68L246.651 229.58L226.251 260.68C225.618 261.44 224.856 262.083 224.001 262.58C223.179 263.093 222.218 263.338 221.251 263.28C220.316 263.329 219.389 263.085 218.601 262.58C217.745 262.083 216.983 261.44 216.351 260.68L197.251 230.48L199.851 225.18V275.78C199.9 277.382 199.326 278.941 198.251 280.13C197.719 280.708 197.068 281.164 196.343 281.467C195.618 281.769 194.836 281.91 194.051 281.88C193.281 281.903 192.516 281.759 191.808 281.457C191.1 281.154 190.466 280.701 189.951 280.13C188.875 278.941 188.301 277.382 188.351 275.78V217.88C188.343 217.074 188.504 216.275 188.822 215.535C189.141 214.794 189.61 214.128 190.201 213.58C190.778 213.003 191.464 212.546 192.22 212.237C192.975 211.928 193.784 211.773 194.601 211.78Z" fill="black"/>
<path d="M314.5 281.88C313.655 281.911 312.812 281.772 312.022 281.472C311.232 281.171 310.51 280.715 309.9 280.13C309.314 279.57 308.851 278.894 308.541 278.145C308.231 277.396 308.081 276.59 308.1 275.78V225.38L309.5 227.58L302.2 232.98C301.193 233.735 299.958 234.123 298.7 234.08C297.914 234.082 297.136 233.924 296.414 233.614C295.691 233.305 295.04 232.85 294.5 232.28C293.921 231.724 293.463 231.056 293.154 230.316C292.844 229.577 292.69 228.782 292.7 227.98C292.709 226.916 293.001 225.874 293.546 224.96C294.09 224.046 294.868 223.294 295.8 222.78L310.2 213.18C310.878 212.704 311.642 212.364 312.45 212.18C313.218 211.987 314.007 211.886 314.8 211.88C315.646 211.837 316.492 211.971 317.283 212.272C318.075 212.573 318.796 213.036 319.4 213.63C319.959 214.204 320.398 214.885 320.69 215.633C320.982 216.38 321.122 217.178 321.1 217.98V275.78C321.116 276.594 320.959 277.403 320.641 278.153C320.322 278.903 319.848 279.576 319.25 280.13C317.96 281.318 316.252 281.948 314.5 281.88Z" fill="black"/>
<path d="M360.3 282.88C355.076 283.042 349.95 281.439 345.75 278.33C341.591 275.039 338.453 270.635 336.7 265.63C332.566 253.454 332.566 240.255 336.7 228.08C338.461 223.093 341.599 218.707 345.75 215.43C350.024 212.467 355.1 210.88 360.3 210.88C365.5 210.88 370.576 212.467 374.85 215.43C378.976 218.72 382.094 223.103 383.85 228.08C387.984 240.255 387.984 253.454 383.85 265.63C382.103 270.625 378.984 275.026 374.85 278.33C370.648 281.436 365.523 283.039 360.3 282.88ZM360.3 270.88C362.962 270.93 365.548 269.985 367.55 268.23C369.833 266.046 371.476 263.28 372.3 260.23C374.567 251.457 374.567 242.252 372.3 233.48C371.467 230.448 369.825 227.7 367.55 225.53C365.532 223.818 362.971 222.878 360.325 222.878C357.679 222.878 355.118 223.818 353.1 225.53C350.793 227.683 349.131 230.436 348.3 233.48C346.033 242.252 346.033 251.457 348.3 260.23C349.123 263.292 350.785 266.063 353.1 268.23C355.09 269.973 357.655 270.917 360.3 270.88Z" fill="black"/>
<path d="M467.43 490C481.237 490 492.43 478.807 492.43 465C492.43 451.193 481.237 440 467.43 440C453.623 440 442.43 451.193 442.43 465C442.43 478.807 453.623 490 467.43 490Z" fill="black"/>
<path d="M54.4297 479C68.2368 479 79.4297 467.807 79.4297 454C79.4297 440.193 68.2368 429 54.4297 429C40.6226 429 29.4297 440.193 29.4297 454C29.4297 467.807 40.6226 479 54.4297 479Z" fill="black"/>
<path d="M233.43 407C247.237 407 258.43 395.807 258.43 382C258.43 368.193 247.237 357 233.43 357C219.623 357 208.43 368.193 208.43 382C208.43 395.807 219.623 407 233.43 407Z" fill="black"/>
<path d="M337.43 171C351.237 171 362.43 159.807 362.43 146C362.43 132.193 351.237 121 337.43 121C323.623 121 312.43 132.193 312.43 146C312.43 159.807 323.623 171 337.43 171Z" fill="black"/>
<path d="M73.4297 78C87.2368 78 98.4297 66.8071 98.4297 53C98.4297 39.1929 87.2368 28 73.4297 28C59.6226 28 48.4297 39.1929 48.4297 53C48.4297 66.8071 59.6226 78 73.4297 78Z" fill="black"/>
</svg>
