<svg width="64" height="64" viewBox="0 0 64 64" fill="none" xmlns="http://www.w3.org/2000/svg">
<path d="M52.1751 2.66249L18.2251 22.2375C18.8626 22.5375 19.4251 23.0375 19.8001 23.6875C19.8001 23.6875 19.8001 23.6875 19.8001 23.7C19.8001 23.7 19.8001 23.7 19.8001 23.7125C20.1876 24.3875 20.3376 25.15 20.2626 25.875L54.2501 6.26249C54.5876 6.06249 54.7126 5.62499 54.5126 5.28749L53.1376 2.91249C52.9501 2.57499 52.5126 2.46249 52.1751 2.66249Z" fill="#12A71E"/>
<mask id="mask0_6024_3508" style="mask-type:luminance" maskUnits="userSpaceOnUse" x="18" y="2" width="37" height="24">
<path d="M52.1751 2.66249L18.2251 22.2375C18.8626 22.5375 19.4251 23.0375 19.8001 23.6875C19.8001 23.6875 19.8001 23.6875 19.8001 23.7C19.8001 23.7 19.8001 23.7 19.8001 23.7125C20.1876 24.3875 20.3376 25.15 20.2626 25.875L54.2501 6.26249C54.5876 6.06249 54.7126 5.62499 54.5126 5.28749L53.1376 2.91249C52.9501 2.57499 52.5126 2.46249 52.1751 2.66249Z" fill="white"/>
</mask>
<g mask="url(#mask0_6024_3508)">
<path fill-rule="evenodd" clip-rule="evenodd" d="M25.0718 23.3783L27.3468 14.9033L29.2784 15.4218L27.0034 23.8968L25.0718 23.3783Z" fill="#FCFCFC"/>
</g>
<mask id="mask1_6024_3508" style="mask-type:luminance" maskUnits="userSpaceOnUse" x="18" y="2" width="37" height="24">
<path d="M52.1751 2.66249L18.2251 22.2375C18.8626 22.5375 19.4251 23.0375 19.8001 23.6875C19.8001 23.6875 19.8001 23.6875 19.8001 23.7C19.8001 23.7 19.8001 23.7 19.8001 23.7125C20.1876 24.3875 20.3376 25.15 20.2626 25.875L54.2501 6.26249C54.5876 6.06249 54.7126 5.62499 54.5126 5.28749L53.1376 2.91249C52.9501 2.57499 52.5126 2.46249 52.1751 2.66249Z" fill="white"/>
</mask>
<g mask="url(#mask1_6024_3508)">
<path fill-rule="evenodd" clip-rule="evenodd" d="M31.2969 20.3657L33.5719 11.8907L35.5035 12.4093L33.2285 20.8843L31.2969 20.3657Z" fill="#FCFCFC"/>
</g>
<mask id="mask2_6024_3508" style="mask-type:luminance" maskUnits="userSpaceOnUse" x="18" y="2" width="37" height="24">
<path d="M52.1751 2.66249L18.2251 22.2375C18.8626 22.5375 19.4251 23.0375 19.8001 23.6875C19.8001 23.6875 19.8001 23.6875 19.8001 23.7C19.8001 23.7 19.8001 23.7 19.8001 23.7125C20.1876 24.3875 20.3376 25.15 20.2626 25.875L54.2501 6.26249C54.5876 6.06249 54.7126 5.62499 54.5126 5.28749L53.1376 2.91249C52.9501 2.57499 52.5126 2.46249 52.1751 2.66249Z" fill="white"/>
</mask>
<g mask="url(#mask2_6024_3508)">
<path fill-rule="evenodd" clip-rule="evenodd" d="M37.8218 16.1032L40.0968 7.62823L42.0284 8.14675L39.7534 16.6218L37.8218 16.1032Z" fill="#FCFCFC"/>
</g>
<mask id="mask3_6024_3508" style="mask-type:luminance" maskUnits="userSpaceOnUse" x="18" y="2" width="37" height="24">
<path d="M52.1751 2.66249L18.2251 22.2375C18.8626 22.5375 19.4251 23.0375 19.8001 23.6875C19.8001 23.6875 19.8001 23.6875 19.8001 23.7C19.8001 23.7 19.8001 23.7 19.8001 23.7125C20.1876 24.3875 20.3376 25.15 20.2626 25.875L54.2501 6.26249C54.5876 6.06249 54.7126 5.62499 54.5126 5.28749L53.1376 2.91249C52.9501 2.57499 52.5126 2.46249 52.1751 2.66249Z" fill="white"/>
</mask>
<g mask="url(#mask3_6024_3508)">
<path fill-rule="evenodd" clip-rule="evenodd" d="M44.4341 12.2161L46.7091 3.72858L48.6409 4.24638L46.3659 12.7339L44.4341 12.2161Z" fill="#FCFCFC"/>
</g>
<path fill-rule="evenodd" clip-rule="evenodd" d="M54.0066 2.41757L55.3729 4.77771C55.3739 4.77946 55.375 4.78121 55.376 4.78296C55.8696 5.62249 55.5426 6.65899 54.7599 7.1228L54.75 7.12871L19.0664 27.7198L19.2679 25.7721C19.3217 25.2521 19.2141 24.7003 18.9329 24.2104L18.8003 23.9794C18.5379 23.6116 18.1871 23.3248 17.7993 23.1423L16.0674 22.3273L51.6714 1.79862C52.4716 1.32891 53.5339 1.57903 54.0066 2.41757ZM52.4229 3.67394L20.0409 22.3449C20.2774 22.5972 20.4883 22.8792 20.6663 23.1878L20.8001 23.4197V23.463C20.9247 23.7142 21.0248 23.9733 21.1008 24.2368L53.5028 5.53919L52.4229 3.67394Z" fill="#FCFCFC"/>
<path fill-rule="evenodd" clip-rule="evenodd" d="M54.219 2.29257L55.5853 4.65271C55.5863 4.65446 55.5874 4.65621 55.5884 4.65796C56.082 5.49749 55.755 6.53399 54.9723 6.9978L54.9624 7.00371L19.2788 27.5948L19.4803 25.6471C19.5341 25.1271 19.4265 24.5753 19.1453 24.0854L19.0127 23.8544C18.7503 23.4866 18.3995 23.1998 18.0117 23.0173L16.2798 22.2023L51.8838 1.67362C52.684 1.20391 53.7463 1.45404 54.219 2.29257ZM52.6353 3.54894L20.2533 22.2199C20.4898 22.4722 20.7007 22.7542 20.8787 23.0628L21.0125 23.2947V23.338C21.1371 23.5892 21.2372 23.8483 21.3132 24.1118L53.7152 5.41419L52.6353 3.54894Z" fill="#FCFCFC"/>
<path fill-rule="evenodd" clip-rule="evenodd" d="M4.3374 50.85C4.3374 49.0733 5.78569 47.625 7.5624 47.625H16.1874C17.9654 47.625 19.4086 49.0731 19.4249 50.8431L19.4249 50.85L19.4249 54.125H4.3374V50.85ZM7.5624 49.125C6.61412 49.125 5.8374 49.9017 5.8374 50.85V52.625H17.9249V50.8538C17.9145 49.9002 17.1333 49.125 16.1874 49.125H7.5624Z" fill="#FCFCFC"/>
<path fill-rule="evenodd" clip-rule="evenodd" d="M15.5498 20.775H16.5498C19.0918 20.775 21.1498 22.8374 21.1498 25.3875L19.1498 25.3938C19.1407 23.9502 17.9691 22.7875 16.5498 22.7875H15.5498V20.775Z" fill="#FCFCFC"/>
<path fill-rule="evenodd" clip-rule="evenodd" d="M6.4624 19.9875C6.4624 18.5358 7.64819 17.35 9.0999 17.35H14.6499C16.1016 17.35 17.2874 18.5358 17.2874 19.9875V22.5375H16.5374C14.9641 22.5375 13.6874 23.8142 13.6874 25.3875C13.6874 26.9608 14.9641 28.2375 16.5374 28.2375C18.1098 28.2375 19.39 26.9606 19.3999 25.3828L20.8999 25.3875V25.3997C20.8999 27.5457 19.3444 29.3299 17.2999 29.6855V47.7953C18.5377 48.249 19.4249 49.4376 19.4249 50.825V54.1H4.3374V50.825C4.3374 49.4376 5.2246 48.249 6.4624 47.7953V19.9875ZM15.7999 29.6752C13.7492 29.3247 12.1874 27.5378 12.1874 25.3875C12.1874 23.2415 13.7429 21.4575 15.7874 21.1019V19.9875C15.7874 19.3642 15.2732 18.85 14.6499 18.85H9.0999C8.47662 18.85 7.9624 19.3642 7.9624 19.9875V49.0235L7.32063 49.1171C6.48181 49.2395 5.8374 49.9672 5.8374 50.825V52.6H17.9249V50.825C17.9249 49.9672 17.2805 49.2395 16.4417 49.1171L15.7999 49.0235V29.6752Z" fill="#FCFCFC"/>
<path fill-rule="evenodd" clip-rule="evenodd" d="M16.5373 22.9C15.1635 22.9 14.0498 24.0137 14.0498 25.3875C14.0498 26.7613 15.1635 27.875 16.5373 27.875C17.9111 27.875 19.0248 26.7613 19.0248 25.3875C19.0248 24.0137 17.9111 22.9 16.5373 22.9ZM12.0498 25.3875C12.0498 22.9091 14.0589 20.9 16.5373 20.9C19.0157 20.9 21.0248 22.9091 21.0248 25.3875C21.0248 27.8659 19.0157 29.875 16.5373 29.875C14.0589 29.875 12.0498 27.8659 12.0498 25.3875Z" fill="#FCFCFC"/>
</svg>
