<svg width="64" height="64" viewBox="0 0 64 64" fill="none" xmlns="http://www.w3.org/2000/svg">
<g clip-path="url(#clip0_6344_14693)">
<path d="M58.8401 1.48632L17.5996 25.2649C18.374 25.6293 19.0573 26.2367 19.5128 27.0263C19.5128 27.0263 19.5128 27.0263 19.5128 27.0415C19.5128 27.0415 19.5128 27.0415 19.5128 27.0567C19.9835 27.8766 20.1658 28.8029 20.0746 29.6835L61.3607 5.8594C61.7707 5.61645 61.9225 5.085 61.6796 4.67502L60.0093 1.79001C59.7816 1.38003 59.2501 1.24337 58.8401 1.48632Z" fill="#12A71E"/>
<mask id="mask0_6344_14693" style="mask-type:luminance" maskUnits="userSpaceOnUse" x="17" y="1" width="45" height="29">
<path d="M58.8401 1.48632L17.5996 25.2649C18.374 25.6293 19.0573 26.2367 19.5128 27.0263C19.5128 27.0263 19.5128 27.0263 19.5128 27.0415C19.5128 27.0415 19.5128 27.0415 19.5128 27.0567C19.9835 27.8766 20.1658 28.8029 20.0746 29.6835L61.3607 5.8594C61.7707 5.61645 61.9225 5.085 61.6796 4.67502L60.0093 1.79001C59.7816 1.38003 59.2501 1.24337 58.8401 1.48632Z" fill="white"/>
</mask>
<g mask="url(#mask0_6344_14693)">
<path fill-rule="evenodd" clip-rule="evenodd" d="M25.9165 26.6506L28.68 16.3557L31.0265 16.9855L28.2629 27.2805L25.9165 26.6506Z" fill="#FCFCFC"/>
</g>
<mask id="mask1_6344_14693" style="mask-type:luminance" maskUnits="userSpaceOnUse" x="17" y="1" width="45" height="29">
<path d="M58.8401 1.48632L17.5996 25.2649C18.374 25.6293 19.0573 26.2367 19.5128 27.0263C19.5128 27.0263 19.5128 27.0263 19.5128 27.0415C19.5128 27.0415 19.5128 27.0415 19.5128 27.0567C19.9835 27.8766 20.1658 28.8029 20.0746 29.6835L61.3607 5.8594C61.7707 5.61645 61.9225 5.085 61.6796 4.67502L60.0093 1.79001C59.7816 1.38003 59.2501 1.24337 58.8401 1.48632Z" fill="white"/>
</mask>
<g mask="url(#mask1_6344_14693)">
<path fill-rule="evenodd" clip-rule="evenodd" d="M33.4785 22.9912L36.2421 12.6962L38.5885 13.3261L35.8249 23.621L33.4785 22.9912Z" fill="#FCFCFC"/>
</g>
<mask id="mask2_6344_14693" style="mask-type:luminance" maskUnits="userSpaceOnUse" x="17" y="1" width="45" height="29">
<path d="M58.8401 1.48632L17.5996 25.2649C18.374 25.6293 19.0573 26.2367 19.5128 27.0263C19.5128 27.0263 19.5128 27.0263 19.5128 27.0415C19.5128 27.0415 19.5128 27.0415 19.5128 27.0567C19.9835 27.8766 20.1658 28.8029 20.0746 29.6835L61.3607 5.8594C61.7707 5.61645 61.9225 5.085 61.6796 4.67502L60.0093 1.79001C59.7816 1.38003 59.2501 1.24337 58.8401 1.48632Z" fill="white"/>
</mask>
<g mask="url(#mask2_6344_14693)">
<path fill-rule="evenodd" clip-rule="evenodd" d="M41.4043 17.8134L44.1678 7.51843L46.5143 8.1483L43.7507 18.4432L41.4043 17.8134Z" fill="#FCFCFC"/>
</g>
<mask id="mask3_6344_14693" style="mask-type:luminance" maskUnits="userSpaceOnUse" x="17" y="1" width="45" height="29">
<path d="M58.8401 1.48632L17.5996 25.2649C18.374 25.6293 19.0573 26.2367 19.5128 27.0263C19.5128 27.0263 19.5128 27.0263 19.5128 27.0415C19.5128 27.0415 19.5128 27.0415 19.5128 27.0567C19.9835 27.8766 20.1658 28.8029 20.0746 29.6835L61.3607 5.8594C61.7707 5.61645 61.9225 5.085 61.6796 4.67502L60.0093 1.79001C59.7816 1.38003 59.2501 1.24337 58.8401 1.48632Z" fill="white"/>
</mask>
<g mask="url(#mask3_6344_14693)">
<path fill-rule="evenodd" clip-rule="evenodd" d="M49.4365 13.0915L52.2001 2.78137L54.5467 3.41037L51.7832 13.7205L49.4365 13.0915Z" fill="#FCFCFC"/>
</g>
<path fill-rule="evenodd" clip-rule="evenodd" d="M61.0649 1.18876L62.7246 4.05573C62.7259 4.05786 62.7271 4.05998 62.7284 4.06211C63.3279 5.08192 62.9307 6.341 61.98 6.90442L61.9679 6.91159L18.6216 31.9245L18.8663 29.5585C18.9317 28.9269 18.801 28.2565 18.4593 27.6614L18.2983 27.3809C17.9795 26.9341 17.5534 26.5857 17.0824 26.364L14.9785 25.374L58.2282 0.436907C59.2002 -0.133681 60.4907 0.170159 61.0649 1.18876ZM59.1412 2.71493L19.8053 25.3953C20.0926 25.7018 20.3488 26.0444 20.565 26.4192L20.7276 26.701V26.7536C20.8789 27.0587 21.0005 27.3734 21.0928 27.6935L60.4529 4.98073L59.1412 2.71493Z" fill="#FCFCFC"/>
<path fill-rule="evenodd" clip-rule="evenodd" d="M0.729492 60.0217C0.729492 57.8635 2.48879 56.1042 4.64704 56.1042H15.1242C17.284 56.1042 19.0372 57.8633 19.0569 60.0134L19.057 60.0217L19.0569 64H0.729492V60.0217ZM4.64704 57.9263C3.49511 57.9263 2.55161 58.8698 2.55161 60.0217V62.1779H17.2348V60.0263C17.2221 58.8679 16.2733 57.9263 15.1242 57.9263H4.64704Z" fill="#FCFCFC"/>
<path fill-rule="evenodd" clip-rule="evenodd" d="M14.3496 23.4883H15.5644C18.6523 23.4883 21.1522 25.9937 21.1522 29.0913L18.7227 29.099C18.7117 27.3454 17.2884 25.933 15.5644 25.933H14.3496V23.4883Z" fill="#FCFCFC"/>
<path fill-rule="evenodd" clip-rule="evenodd" d="M3.31082 22.5317C3.31082 20.7682 4.75125 19.3278 6.51471 19.3278H13.2565C15.02 19.3278 16.4604 20.7682 16.4604 22.5317V25.6293H15.5494C13.6382 25.6293 12.0873 27.1802 12.0873 29.0913C12.0873 31.0025 13.6382 32.5533 15.5494 32.5533C17.4594 32.5533 19.0145 31.0023 19.0266 29.0856L20.8487 29.0913V29.1062C20.8487 31.713 18.9592 33.8804 16.4756 34.3123V56.3111C17.9792 56.8621 19.0569 58.306 19.0569 59.9913V63.9696H0.729492V59.9913C0.729492 58.306 1.80721 56.8621 3.31082 56.3111V22.5317ZM14.6535 34.2998C12.1624 33.874 10.2652 31.7034 10.2652 29.0913C10.2652 26.4845 12.1547 24.3175 14.6383 23.8855V22.5317C14.6383 21.7746 14.0137 21.1499 13.2565 21.1499H6.51471C5.75757 21.1499 5.13293 21.7746 5.13293 22.5317V57.803L4.35335 57.9167C3.3344 58.0653 2.55161 58.9494 2.55161 59.9913V62.1475H17.2348V59.9913C17.2348 58.9494 16.452 58.0653 15.4331 57.9167L14.6535 57.803V34.2998Z" fill="#FCFCFC"/>
<path fill-rule="evenodd" clip-rule="evenodd" d="M15.5493 26.0696C13.8805 26.0696 12.5276 27.4225 12.5276 29.0913C12.5276 30.7601 13.8805 32.113 15.5493 32.113C17.2181 32.113 18.571 30.7601 18.571 29.0913C18.571 27.4225 17.2181 26.0696 15.5493 26.0696ZM10.0981 29.0913C10.0981 26.0807 12.5387 23.6401 15.5493 23.6401C18.5599 23.6401 21.0005 26.0807 21.0005 29.0913C21.0005 32.1019 18.5599 34.5425 15.5493 34.5425C12.5387 34.5425 10.0981 32.1019 10.0981 29.0913Z" fill="#FCFCFC"/>
</g>
<defs>
<clipPath id="clip0_6344_14693">
<rect width="64" height="64" fill="white"/>
</clipPath>
</defs>
</svg>
