<?xml version="1.0" encoding="UTF-8"?>
<svg height="600" width="800" xmlns="http://www.w3.org/2000/svg" xmlns:xlink="http://www.w3.org/1999/xlink">
    <g id="Notes" font-family="'LucidaGrande', 'Lucida Grande', sans-serif" font-size="13">
        <rect fill="white" height="600.0" width="800.0" x="0.0" y="0.0" />
        <g font-size="13">
            <text x="18.0" y="176.0">Small</text>
            <text x="18.0" y="376.0">Medium</text>
            <text x="18.0" y="576.0">Large</text>
        </g>
        <g font-size="9">
            <text x="250.0" y="30.0">Ultralight</text>
            <text x="450.0" y="30.0">Regular</text>
            <text x="650.0" y="30.0">Black</text>
            <text id="template-version" fill="#505050" text-anchor="end" x="785.0" y="575.0">Template v.3.0</text>
            <a href="https://github.com/swhitty/SwiftDraw">
                <text fill="#505050" text-anchor="end" x="785.0" y="590.0">https://github.com/swhitty/SwiftDraw</text>
            </a>
        </g>
    </g>
    <g id="Guides" stroke="rgb(39, 170, 225)" stroke-width="0.5">
        <path id="Capline-S" d="M18,76 l800,0" />
        <path id="H-reference" d="M85,145.755 L87.685,145.755 L113.369,79.287 L114.052,79.287 L114.052,76 L112.148,76 L85,145.755 Z M95.693,121.536 L130.996,121.536 L130.263,119.313 L96.474,119.313 L95.693,121.536 Z M139.15,145.755 L141.787,145.755 L114.638,76 L113.466,76 L113.466,79.287 L139.15,145.755 Z" stroke="none" />
        <path id="Baseline-S" d="M18,146 l800,0" />
        <path id="left-margin-Ultralight-S" d="M220.859,56 l0,110" />
        <path id="right-margin-Ultralight-S" d="M309.141,56 l0,110" />
        <path id="left-margin-Regular-S" d="M420.859,56 l0,110" />
        <path id="right-margin-Regular-S" d="M509.141,56 l0,110" />
        <path id="left-margin-Black-S" d="M620.859,56 l0,110" />
        <path id="right-margin-Black-S" d="M709.141,56 l0,110" />
        <path id="Capline-M" d="M18,276 l800,0" />
        <path id="Baseline-M" d="M18,346 l800,0" />
        <path id="Capline-L" d="M18,476 l800,0" />
        <path id="Baseline-L" d="M18,546 l800,0" />
    </g>
    <g id="Symbols">
        <g id="Ultralight-S">
            <path d="M276.118,143.675 C274.774,143.675 273.421,143.675 272.077,143.675 C271.178,143.675 270.667,143.173 270.667,142.293 C270.667,141.45 271.187,140.949 272.067,140.939 C274.774,140.939 277.481,140.939 280.188,140.939 C281.059,140.939 281.57,141.45 281.58,142.293 C281.58,143.145 281.069,143.656 280.207,143.665 C278.835,143.684 277.481,143.675 276.118,143.675 Z" />
            <path d="M276.232,103.694 C273.951,103.694 272.171,101.896 272.171,99.615 C272.171,97.315 273.97,95.545 276.289,95.545 C278.551,95.545 280.33,97.353 280.33,99.653 C280.321,101.924 278.522,103.704 276.232,103.694 Z M276.251,101.527 C277.311,101.527 278.163,100.675 278.153,99.615 C278.144,98.545 277.292,97.713 276.232,97.722 C275.181,97.741 274.358,98.564 274.348,99.615 C274.339,100.666 275.191,101.527 276.251,101.527 Z" />
            <path d="M230.859,122.445 C230.859,109.435 241.406,98.889 254.415,98.889 C267.424,98.889 277.97,109.435 277.97,122.445 C277.97,135.454 267.424,146 254.415,146 C241.406,146 230.859,135.454 230.859,122.445 Z M254.415,101.912 C243.075,101.912 233.882,111.105 233.882,122.445 C233.882,133.784 243.075,142.977 254.415,142.977 C265.755,142.977 274.947,133.784 274.947,122.445 C274.947,111.105 265.755,101.912 254.415,101.912 Z" />
            <path d="M298.872,95.848 C297.916,89.866 294.896,85.029 290.296,81.196 C285.573,77.268 280.084,75.564 273.931,76.094 C270.609,76.388 267.514,77.419 264.656,79.123 C261.646,80.912 259.194,83.307 257.188,86.165 C254.774,89.592 253.298,93.387 253.014,97.58 C253.004,97.675 253.004,97.769 252.995,97.864 C253.468,97.835 253.941,97.826 254.424,97.826 C255.001,97.826 255.569,97.845 256.137,97.883 C256.317,94.835 257.254,91.967 258.873,89.251 C260.425,86.648 262.403,84.433 264.873,82.673 C267.561,80.751 270.552,79.577 273.846,79.227 C279.175,78.65 283.955,80.041 288.11,83.392 C292.265,86.742 294.963,91.03 295.786,96.368 C296.458,100.789 295.549,104.906 293.23,108.73 C292.18,110.471 290.798,111.938 289.397,113.386 C286.709,116.179 284.589,119.331 283.292,122.993 C283.188,123.287 283.018,123.363 282.734,123.363 C281.503,123.363 280.273,123.353 279.042,123.353 C279.005,124.356 278.91,125.35 278.759,126.325 C280.831,126.325 282.914,126.325 284.987,126.335 C285.346,126.335 285.526,126.24 285.63,125.861 C285.942,124.716 286.368,123.618 286.87,122.549 C288.233,119.633 290.126,117.097 292.407,114.825 C294.537,112.705 296.212,110.263 297.405,107.49 C298.995,103.742 299.515,99.852 298.872,95.848 Z" />
            <path d="M284.93,127.754 C284.305,127.773 283.681,127.754 283.056,127.754 C282.46,127.754 282.46,127.754 282.46,128.36 C282.46,131.077 282.45,133.784 282.469,136.5 C282.469,136.926 282.337,137.04 281.92,137.04 C279.573,137.021 277.216,137.03 274.869,137.03 C274.67,137.03 274.462,137.03 274.263,137.03 C273.581,137.958 272.824,138.838 272.02,139.661 C273.354,139.661 274.679,139.661 276.014,139.661 C278.683,139.661 281.352,139.652 284.021,139.671 C284.514,139.671 284.835,139.463 285.063,139.056 C285.223,138.762 285.328,138.44 285.328,138.1 C285.328,134.787 285.328,131.474 285.337,128.171 C285.337,127.877 285.242,127.754 284.93,127.754 Z" />
            <path d="M254.131,104.634 C254.965,104.634 255.642,105.311 255.642,106.146 L255.642,123.353 C255.642,124.188 254.965,124.865 254.131,124.865 C253.296,124.865 252.619,124.188 252.619,123.353 L252.619,106.146 C252.619,105.311 253.296,104.634 254.131,104.634 Z" />
            <path d="M252.619,123.353 C252.619,122.518 253.296,121.842 254.131,121.842 L265.943,121.842 C266.778,121.842 267.454,122.518 267.454,123.353 C267.454,124.188 266.778,124.865 265.943,124.865 L254.131,124.865 C253.296,124.865 252.619,124.188 252.619,123.353 Z" />
        </g>
        <g id="Regular-S">
            <path d="M476.118,143.675 C474.774,143.675 473.421,143.675 472.077,143.675 C471.178,143.675 470.667,143.173 470.667,142.293 C470.667,141.45 471.187,140.949 472.067,140.939 C474.774,140.939 477.481,140.939 480.188,140.939 C481.059,140.939 481.57,141.45 481.58,142.293 C481.58,143.145 481.069,143.656 480.207,143.665 C478.835,143.684 477.481,143.675 476.118,143.675 Z" />
            <path d="M476.232,103.694 C473.951,103.694 472.171,101.896 472.171,99.615 C472.171,97.315 473.97,95.545 476.289,95.545 C478.551,95.545 480.33,97.353 480.33,99.653 C480.321,101.924 478.522,103.704 476.232,103.694 Z M476.251,101.527 C477.311,101.527 478.163,100.675 478.153,99.615 C478.144,98.545 477.292,97.713 476.232,97.722 C475.181,97.741 474.358,98.564 474.348,99.615 C474.339,100.666 475.191,101.527 476.251,101.527 Z" />
            <path d="M430.859,122.445 C430.859,109.435 441.406,98.889 454.415,98.889 C467.424,98.889 477.97,109.435 477.97,122.445 C477.97,135.454 467.424,146 454.415,146 C441.406,146 430.859,135.454 430.859,122.445 Z M454.415,101.912 C443.075,101.912 433.882,111.105 433.882,122.445 C433.882,133.784 443.075,142.977 454.415,142.977 C465.755,142.977 474.947,133.784 474.947,122.445 C474.947,111.105 465.755,101.912 454.415,101.912 Z" />
            <path d="M498.872,95.848 C497.916,89.866 494.896,85.029 490.296,81.196 C485.573,77.268 480.084,75.564 473.931,76.094 C470.609,76.388 467.514,77.419 464.656,79.123 C461.646,80.912 459.194,83.307 457.188,86.165 C454.774,89.592 453.298,93.387 453.014,97.58 C453.004,97.675 453.004,97.769 452.995,97.864 C453.468,97.835 453.941,97.826 454.424,97.826 C455.001,97.826 455.569,97.845 456.137,97.883 C456.317,94.835 457.254,91.967 458.873,89.251 C460.425,86.648 462.403,84.433 464.873,82.673 C467.561,80.751 470.552,79.577 473.846,79.227 C479.175,78.65 483.955,80.041 488.11,83.392 C492.265,86.742 494.963,91.03 495.786,96.368 C496.458,100.789 495.549,104.906 493.231,108.73 C492.18,110.471 490.798,111.938 489.397,113.386 C486.709,116.179 484.589,119.331 483.292,122.993 C483.188,123.287 483.018,123.363 482.734,123.363 C481.503,123.363 480.273,123.353 479.042,123.353 C479.005,124.356 478.91,125.35 478.759,126.325 C480.831,126.325 482.914,126.325 484.987,126.335 C485.346,126.335 485.526,126.24 485.63,125.861 C485.942,124.716 486.368,123.618 486.87,122.549 C488.233,119.633 490.126,117.097 492.407,114.825 C494.537,112.705 496.212,110.263 497.405,107.49 C498.995,103.742 499.515,99.852 498.872,95.848 Z" />
            <path d="M484.93,127.754 C484.305,127.773 483.681,127.754 483.056,127.754 C482.46,127.754 482.46,127.754 482.46,128.36 C482.46,131.077 482.45,133.784 482.469,136.5 C482.469,136.926 482.337,137.04 481.92,137.04 C479.573,137.021 477.216,137.03 474.869,137.03 C474.67,137.03 474.462,137.03 474.263,137.03 C473.581,137.958 472.824,138.838 472.02,139.661 C473.354,139.661 474.679,139.661 476.014,139.661 C478.683,139.661 481.352,139.652 484.021,139.671 C484.514,139.671 484.835,139.463 485.063,139.056 C485.223,138.762 485.328,138.44 485.328,138.1 C485.328,134.787 485.328,131.474 485.337,128.171 C485.337,127.877 485.242,127.754 484.93,127.754 Z" />
            <path d="M454.131,104.634 C454.965,104.634 455.642,105.311 455.642,106.146 L455.642,123.353 C455.642,124.188 454.965,124.865 454.131,124.865 C453.296,124.865 452.619,124.188 452.619,123.353 L452.619,106.146 C452.619,105.311 453.296,104.634 454.131,104.634 Z" />
            <path d="M452.619,123.353 C452.619,122.518 453.296,121.842 454.131,121.842 L465.943,121.842 C466.778,121.842 467.454,122.518 467.454,123.353 C467.454,124.188 466.778,124.865 465.943,124.865 L454.131,124.865 C453.296,124.865 452.619,124.188 452.619,123.353 Z" />
        </g>
        <g id="Black-S">
            <path d="M676.118,143.675 C674.774,143.675 673.421,143.675 672.077,143.675 C671.178,143.675 670.667,143.173 670.667,142.293 C670.667,141.45 671.187,140.949 672.067,140.939 C674.774,140.939 677.481,140.939 680.188,140.939 C681.059,140.939 681.57,141.45 681.58,142.293 C681.58,143.145 681.069,143.656 680.207,143.665 C678.835,143.684 677.481,143.675 676.118,143.675 Z" />
            <path d="M676.232,103.694 C673.951,103.694 672.171,101.896 672.171,99.615 C672.171,97.315 673.97,95.545 676.289,95.545 C678.551,95.545 680.33,97.353 680.33,99.653 C680.321,101.924 678.522,103.704 676.232,103.694 Z M676.251,101.527 C677.311,101.527 678.163,100.675 678.153,99.615 C678.144,98.545 677.292,97.713 676.232,97.722 C675.181,97.741 674.358,98.564 674.348,99.615 C674.339,100.666 675.191,101.527 676.251,101.527 Z" />
            <path d="M630.859,122.445 C630.859,109.435 641.406,98.889 654.415,98.889 C667.424,98.889 677.97,109.435 677.97,122.445 C677.97,135.454 667.424,146 654.415,146 C641.406,146 630.859,135.454 630.859,122.445 Z M654.415,101.912 C643.075,101.912 633.882,111.105 633.882,122.445 C633.882,133.784 643.075,142.977 654.415,142.977 C665.755,142.977 674.947,133.784 674.947,122.445 C674.947,111.105 665.755,101.912 654.415,101.912 Z" />
            <path d="M698.872,95.848 C697.916,89.866 694.896,85.029 690.296,81.196 C685.573,77.268 680.084,75.564 673.931,76.094 C670.609,76.388 667.514,77.419 664.656,79.123 C661.646,80.912 659.194,83.307 657.188,86.165 C654.774,89.592 653.298,93.387 653.014,97.58 C653.004,97.675 653.004,97.769 652.995,97.864 C653.468,97.835 653.941,97.826 654.424,97.826 C655.001,97.826 655.569,97.845 656.137,97.883 C656.317,94.835 657.254,91.967 658.873,89.251 C660.425,86.648 662.403,84.433 664.873,82.673 C667.561,80.751 670.552,79.577 673.846,79.227 C679.175,78.65 683.955,80.041 688.11,83.392 C692.265,86.742 694.963,91.03 695.786,96.368 C696.458,100.789 695.549,104.906 693.231,108.73 C692.18,110.471 690.798,111.938 689.397,113.386 C686.709,116.179 684.589,119.331 683.292,122.993 C683.188,123.287 683.018,123.363 682.734,123.363 C681.503,123.363 680.273,123.353 679.042,123.353 C679.005,124.356 678.91,125.35 678.759,126.325 C680.831,126.325 682.914,126.325 684.987,126.335 C685.346,126.335 685.526,126.24 685.63,125.861 C685.942,124.716 686.368,123.618 686.87,122.549 C688.233,119.633 690.126,117.097 692.407,114.825 C694.537,112.705 696.212,110.263 697.405,107.49 C698.995,103.742 699.515,99.852 698.872,95.848 Z" />
            <path d="M684.93,127.754 C684.305,127.773 683.681,127.754 683.056,127.754 C682.46,127.754 682.46,127.754 682.46,128.36 C682.46,131.077 682.45,133.784 682.469,136.5 C682.469,136.926 682.337,137.04 681.92,137.04 C679.573,137.021 677.216,137.03 674.869,137.03 C674.67,137.03 674.462,137.03 674.263,137.03 C673.581,137.958 672.824,138.838 672.02,139.661 C673.354,139.661 674.679,139.661 676.014,139.661 C678.683,139.661 681.352,139.652 684.021,139.671 C684.514,139.671 684.835,139.463 685.063,139.056 C685.223,138.762 685.328,138.44 685.328,138.1 C685.328,134.787 685.328,131.474 685.337,128.171 C685.337,127.877 685.242,127.754 684.93,127.754 Z" />
            <path d="M654.131,104.634 C654.965,104.634 655.642,105.311 655.642,106.146 L655.642,123.353 C655.642,124.188 654.965,124.865 654.131,124.865 C653.296,124.865 652.619,124.188 652.619,123.353 L652.619,106.146 C652.619,105.311 653.296,104.634 654.131,104.634 Z" />
            <path d="M652.619,123.353 C652.619,122.518 653.296,121.842 654.131,121.842 L665.943,121.842 C666.778,121.842 667.454,122.518 667.454,123.353 C667.454,124.188 666.778,124.865 665.943,124.865 L654.131,124.865 C653.296,124.865 652.619,124.188 652.619,123.353 Z" />
        </g>
    </g>
</svg>