<svg width="24" height="24" viewBox="0 0 24 24" fill="none" xmlns="http://www.w3.org/2000/svg">
<path fill-rule="evenodd" clip-rule="evenodd" d="M18.6572 16.6855L5.33841 16.6855C2.94921 16.6855 0.995608 14.7319 1.00001 12.3427C1.00001 9.95355 2.95361 7.99995 5.34281 7.99995L18.6572 7.99995C21.0464 7.99995 23 9.95355 23 12.3427C23 14.7319 21.0464 16.6855 18.6572 16.6855ZM22.428 12.3647C22.428 10.2791 20.7384 8.58955 18.6528 8.58955C16.5672 8.58955 14.8776 10.2791 14.8776 12.3647C14.8776 14.4503 16.5672 16.1399 18.6528 16.1399C20.7384 16.1399 22.428 14.4503 22.428 12.3647ZM6.56599 10.3495C6.04679 10.3495 5.55399 10.5827 5.22399 10.9479C4.87639 11.3131 4.65639 11.8103 4.65639 12.3647C4.65639 12.9191 4.87639 13.4119 5.22399 13.7815C5.55839 14.1511 6.05119 14.3799 6.56599 14.3799C7.10279 14.3799 7.59559 14.1511 7.93879 13.7815C8.28639 13.4119 8.49319 12.9191 8.49319 12.3647C8.49319 11.8103 8.28639 11.3131 7.93879 10.9479C7.59999 10.5871 7.10279 10.3495 6.56599 10.3495ZM9.7826 11.9002C9.7807 11.8703 9.77871 11.839 9.79597 11.805C9.80306 11.8137 9.80989 11.8218 9.81645 11.8297C9.82945 11.8452 9.84141 11.8595 9.85228 11.8746C9.98707 12.0614 10.1218 12.2483 10.2564 12.4351C10.4297 12.6755 10.6029 12.9159 10.7763 13.1561C10.8321 13.2333 10.8878 13.3106 10.9435 13.3879C11.1512 13.6759 11.3589 13.9639 11.5694 14.2498C11.6716 14.3887 11.8002 14.4276 11.9428 14.3799C12.0683 14.338 12.158 14.2152 12.1581 14.0694C12.1593 12.9841 12.1589 11.8988 12.1584 10.8136C12.1583 10.7137 12.1196 10.629 12.0407 10.5667C11.9383 10.4859 11.8256 10.4636 11.7042 10.5215C11.5708 10.5852 11.5173 10.6963 11.5174 10.8393C11.5176 11.3483 11.5176 11.8573 11.5175 12.3663C11.5175 12.5542 11.5175 12.7421 11.5175 12.93V13.0713C11.5031 13.0526 11.4915 13.0378 11.4818 13.0254C11.465 13.0039 11.4538 12.9896 11.4432 12.9749C11.2627 12.7256 11.0824 12.4763 10.902 12.227C10.7311 11.9908 10.5602 11.7546 10.3893 11.5184C10.3345 11.4427 10.2798 11.367 10.2251 11.2913C10.0628 11.0667 9.90053 10.8422 9.73659 10.6189C9.63783 10.4843 9.50025 10.444 9.35157 10.4971C9.21885 10.5444 9.1529 10.651 9.15523 10.8138C9.15603 10.8682 9.15657 10.9227 9.15657 10.9771C9.15658 11.1763 9.15662 11.3755 9.15665 11.5747C9.1568 12.3991 9.15694 13.2235 9.1557 14.0478C9.15554 14.1468 9.17378 14.2349 9.24626 14.3064C9.33477 14.3937 9.47469 14.4227 9.59051 14.3726C9.72076 14.3163 9.78361 14.2156 9.78345 14.0728C9.78266 13.3578 9.78291 12.6427 9.78376 11.9276C9.78377 11.9186 9.78319 11.9095 9.7826 11.9002Z" fill="#B4B7BA"/>
<path d="M6.60561 10.948C6.24481 10.948 5.93241 11.0932 5.69921 11.344C5.46161 11.5904 5.31641 11.9424 5.31641 12.3252C5.31641 12.708 5.46161 13.06 5.69921 13.302C5.93681 13.5528 6.24921 13.7068 6.60561 13.7068C6.94001 13.7068 7.25681 13.5572 7.49001 13.302C7.71881 13.06 7.87281 12.708 7.87281 12.3252C7.87281 11.9424 7.72321 11.5904 7.49001 11.344C7.25681 11.0932 6.94441 10.948 6.60561 10.948Z" fill="#B4B7BA"/>
<line x1="18.655" y1="12.345" x2="18.655" y2="9.93501" stroke="#B4B7BA" stroke-width="0.59" stroke-linecap="round"/>
<line x1="18.655" y1="12.345" x2="21.065" y2="12.345" stroke="#B4B7BA" stroke-width="0.59" stroke-linecap="round"/>
</svg>
