<?xml version="1.0" encoding="UTF-8"?>
<svg height="600" width="800" xmlns="http://www.w3.org/2000/svg" xmlns:xlink="http://www.w3.org/1999/xlink">
    <g id="Notes" font-family="'LucidaGrande', 'Lucida Grande', sans-serif" font-size="13">
        <rect fill="white" height="600.0" width="800.0" x="0.0" y="0.0" />
        <g font-size="13">
            <text x="18.0" y="176.0">Small</text>
            <text x="18.0" y="376.0">Medium</text>
            <text x="18.0" y="576.0">Large</text>
        </g>
        <g font-size="9">
            <text x="250.0" y="30.0">Ultralight</text>
            <text x="450.0" y="30.0">Regular</text>
            <text x="650.0" y="30.0">Black</text>
            <text id="template-version" fill="#505050" text-anchor="end" x="785.0" y="575.0">Template v.3.0</text>
            <a href="https://github.com/swhitty/SwiftDraw">
                <text fill="#505050" text-anchor="end" x="785.0" y="590.0">https://github.com/swhitty/SwiftDraw</text>
            </a>
        </g>
    </g>
    <g id="Guides" stroke="rgb(39, 170, 225)" stroke-width="0.5">
        <path id="Capline-S" d="M18,76 l800,0" />
        <path id="H-reference" d="M85,145.755 L87.685,145.755 L113.369,79.287 L114.052,79.287 L114.052,76 L112.148,76 L85,145.755 Z M95.693,121.536 L130.996,121.536 L130.263,119.313 L96.474,119.313 L95.693,121.536 Z M139.15,145.755 L141.787,145.755 L114.638,76 L113.466,76 L113.466,79.287 L139.15,145.755 Z" stroke="none" />
        <path id="Baseline-S" d="M18,146 l800,0" />
        <path id="left-margin-Ultralight-S" d="M219.931,56 l0,110" />
        <path id="right-margin-Ultralight-S" d="M310.069,56 l0,110" />
        <path id="left-margin-Regular-S" d="M419.931,56 l0,110" />
        <path id="right-margin-Regular-S" d="M510.069,56 l0,110" />
        <path id="left-margin-Black-S" d="M619.931,56 l0,110" />
        <path id="right-margin-Black-S" d="M710.069,56 l0,110" />
        <path id="Capline-M" d="M18,276 l800,0" />
        <path id="Baseline-M" d="M18,346 l800,0" />
        <path id="Capline-L" d="M18,476 l800,0" />
        <path id="Baseline-L" d="M18,546 l800,0" />
    </g>
    <g id="Symbols">
        <g id="Ultralight-S">
            <path d="M241.621,101.717 C241.621,100.653 242.483,99.791 243.546,99.791 L286.454,99.791 C287.517,99.791 288.379,100.653 288.379,101.717 L288.379,144.075 C288.379,145.138 287.517,146 286.454,146 L243.546,146 C242.483,146 241.621,145.138 241.621,144.075 L241.621,101.717 Z M244.371,102.542 L244.371,143.249 L285.629,143.249 L285.629,102.542 L244.371,102.542 Z" />
            <path d="M247.122,101.167 C247.122,100.407 247.737,99.791 248.497,99.791 L263.075,99.791 C263.834,99.791 264.45,100.407 264.45,101.167 L264.45,139.781 C264.45,140.541 263.834,141.156 263.075,141.156 L248.497,141.156 C247.737,141.156 247.122,140.541 247.122,139.781 L247.122,101.167 Z M249.872,102.542 L249.872,138.406 L261.699,138.406 L261.699,102.542 L249.872,102.542 Z" />
            <path d="M266.1,101.167 C266.1,100.407 266.716,99.791 267.475,99.791 L282.053,99.791 C282.813,99.791 283.428,100.407 283.428,101.167 L283.428,139.781 C283.428,140.541 282.813,141.156 282.053,141.156 L267.475,141.156 C266.716,141.156 266.1,140.541 266.1,139.781 L266.1,101.167 Z M268.851,102.542 L268.851,138.406 L280.678,138.406 L280.678,102.542 L268.851,102.542 Z" />
            <path d="M243.338,76.573 C243.597,76.213 244.012,76 244.455,76 L285.545,76 C285.988,76 286.403,76.213 286.662,76.573 L299.81,94.863 C300.112,95.282 300.153,95.835 299.918,96.294 C299.682,96.753 299.21,97.041 298.694,97.041 L231.306,97.041 C230.79,97.041 230.318,96.753 230.082,96.294 C229.847,95.835 229.888,95.282 230.19,94.863 L243.338,76.573 Z M245.16,78.751 L233.989,94.291 L296.011,94.291 L284.84,78.751 L245.16,78.751 Z" />
            <path d="M229.931,95.666 C229.931,94.906 230.547,94.29 231.306,94.29 L298.694,94.29 C299.453,94.29 300.069,94.906 300.069,95.666 L300.069,101.167 C300.069,101.926 299.453,102.542 298.694,102.542 L231.306,102.542 C230.547,102.542 229.931,101.926 229.931,101.167 L229.931,95.666 Z M232.681,97.041 L232.681,99.791 L297.319,99.791 L297.319,97.041 L232.681,97.041 Z" />
        </g>
        <g id="Regular-S">
            <path d="M441.621,101.717 C441.621,100.653 442.483,99.791 443.546,99.791 L486.454,99.791 C487.517,99.791 488.379,100.653 488.379,101.717 L488.379,144.075 C488.379,145.138 487.517,146 486.454,146 L443.546,146 C442.483,146 441.621,145.138 441.621,144.075 L441.621,101.717 Z M444.371,102.542 L444.371,143.249 L485.629,143.249 L485.629,102.542 L444.371,102.542 Z" />
            <path d="M447.122,101.167 C447.122,100.407 447.737,99.791 448.497,99.791 L463.075,99.791 C463.834,99.791 464.45,100.407 464.45,101.167 L464.45,139.781 C464.45,140.541 463.834,141.156 463.075,141.156 L448.497,141.156 C447.737,141.156 447.122,140.541 447.122,139.781 L447.122,101.167 Z M449.872,102.542 L449.872,138.406 L461.699,138.406 L461.699,102.542 L449.872,102.542 Z" />
            <path d="M466.1,101.167 C466.1,100.407 466.716,99.791 467.475,99.791 L482.053,99.791 C482.813,99.791 483.428,100.407 483.428,101.167 L483.428,139.781 C483.428,140.541 482.813,141.156 482.053,141.156 L467.475,141.156 C466.716,141.156 466.1,140.541 466.1,139.781 L466.1,101.167 Z M468.851,102.542 L468.851,138.406 L480.678,138.406 L480.678,102.542 L468.851,102.542 Z" />
            <path d="M443.338,76.573 C443.597,76.213 444.012,76 444.455,76 L485.545,76 C485.988,76 486.403,76.213 486.662,76.573 L499.81,94.863 C500.112,95.282 500.153,95.835 499.918,96.294 C499.682,96.753 499.21,97.041 498.694,97.041 L431.306,97.041 C430.79,97.041 430.318,96.753 430.082,96.294 C429.847,95.835 429.888,95.282 430.19,94.863 L443.338,76.573 Z M445.16,78.751 L433.989,94.291 L496.011,94.291 L484.84,78.751 L445.16,78.751 Z" />
            <path d="M429.931,95.666 C429.931,94.906 430.547,94.29 431.306,94.29 L498.694,94.29 C499.453,94.29 500.069,94.906 500.069,95.666 L500.069,101.167 C500.069,101.926 499.453,102.542 498.694,102.542 L431.306,102.542 C430.547,102.542 429.931,101.926 429.931,101.167 L429.931,95.666 Z M432.681,97.041 L432.681,99.791 L497.319,99.791 L497.319,97.041 L432.681,97.041 Z" />
        </g>
        <g id="Black-S">
            <path d="M641.621,101.717 C641.621,100.653 642.483,99.791 643.546,99.791 L686.454,99.791 C687.517,99.791 688.379,100.653 688.379,101.717 L688.379,144.075 C688.379,145.138 687.517,146 686.454,146 L643.546,146 C642.483,146 641.621,145.138 641.621,144.075 L641.621,101.717 Z M644.371,102.542 L644.371,143.249 L685.629,143.249 L685.629,102.542 L644.371,102.542 Z" />
            <path d="M647.122,101.167 C647.122,100.407 647.737,99.791 648.497,99.791 L663.075,99.791 C663.834,99.791 664.45,100.407 664.45,101.167 L664.45,139.781 C664.45,140.541 663.834,141.156 663.075,141.156 L648.497,141.156 C647.737,141.156 647.122,140.541 647.122,139.781 L647.122,101.167 Z M649.872,102.542 L649.872,138.406 L661.699,138.406 L661.699,102.542 L649.872,102.542 Z" />
            <path d="M666.1,101.167 C666.1,100.407 666.716,99.791 667.475,99.791 L682.053,99.791 C682.813,99.791 683.428,100.407 683.428,101.167 L683.428,139.781 C683.428,140.541 682.813,141.156 682.053,141.156 L667.475,141.156 C666.716,141.156 666.1,140.541 666.1,139.781 L666.1,101.167 Z M668.851,102.542 L668.851,138.406 L680.678,138.406 L680.678,102.542 L668.851,102.542 Z" />
            <path d="M643.338,76.573 C643.597,76.213 644.012,76 644.455,76 L685.545,76 C685.988,76 686.403,76.213 686.662,76.573 L699.81,94.863 C700.112,95.282 700.153,95.835 699.918,96.294 C699.682,96.753 699.21,97.041 698.694,97.041 L631.306,97.041 C630.79,97.041 630.318,96.753 630.082,96.294 C629.847,95.835 629.888,95.282 630.19,94.863 L643.338,76.573 Z M645.16,78.751 L633.989,94.291 L696.011,94.291 L684.84,78.751 L645.16,78.751 Z" />
            <path d="M629.931,95.666 C629.931,94.906 630.547,94.29 631.306,94.29 L698.694,94.29 C699.453,94.29 700.069,94.906 700.069,95.666 L700.069,101.167 C700.069,101.926 699.453,102.542 698.694,102.542 L631.306,102.542 C630.547,102.542 629.931,101.926 629.931,101.167 L629.931,95.666 Z M632.682,97.041 L632.682,99.791 L697.319,99.791 L697.319,97.041 L632.682,97.041 Z" />
        </g>
    </g>
</svg>