<?xml version="1.0" encoding="UTF-8"?>
<svg height="600" width="800" xmlns="http://www.w3.org/2000/svg" xmlns:xlink="http://www.w3.org/1999/xlink">
    <g id="Notes" font-family="'LucidaGrande', 'Lucida Grande', sans-serif" font-size="13">
        <rect fill="white" height="600.0" width="800.0" x="0.0" y="0.0" />
        <g font-size="13">
            <text x="18.0" y="176.0">Small</text>
            <text x="18.0" y="376.0">Medium</text>
            <text x="18.0" y="576.0">Large</text>
        </g>
        <g font-size="9">
            <text x="250.0" y="30.0">Ultralight</text>
            <text x="450.0" y="30.0">Regular</text>
            <text x="650.0" y="30.0">Black</text>
            <text id="template-version" fill="#505050" text-anchor="end" x="785.0" y="575.0">Template v.3.0</text>
            <a href="https://github.com/swhitty/SwiftDraw">
                <text fill="#505050" text-anchor="end" x="785.0" y="590.0">https://github.com/swhitty/SwiftDraw</text>
            </a>
        </g>
    </g>
    <g id="Guides" stroke="rgb(39, 170, 225)" stroke-width="0.5">
        <path id="Capline-S" d="M18,76 l800,0" />
        <path id="H-reference" d="M85,145.755 L87.685,145.755 L113.369,79.287 L114.052,79.287 L114.052,76 L112.148,76 L85,145.755 Z M95.693,121.536 L130.996,121.536 L130.263,119.313 L96.474,119.313 L95.693,121.536 Z M139.15,145.755 L141.787,145.755 L114.638,76 L113.466,76 L113.466,79.287 L139.15,145.755 Z" stroke="none" />
        <path id="Baseline-S" d="M18,146 l800,0" />
        <path id="left-margin-Ultralight-S" d="M218.947,56 l0,110" />
        <path id="right-margin-Ultralight-S" d="M311.053,56 l0,110" />
        <path id="left-margin-Regular-S" d="M418.947,56 l0,110" />
        <path id="right-margin-Regular-S" d="M511.053,56 l0,110" />
        <path id="left-margin-Black-S" d="M618.947,56 l0,110" />
        <path id="right-margin-Black-S" d="M711.053,56 l0,110" />
        <path id="Capline-M" d="M18,276 l800,0" />
        <path id="Baseline-M" d="M18,346 l800,0" />
        <path id="Capline-L" d="M18,476 l800,0" />
        <path id="Baseline-L" d="M18,546 l800,0" />
    </g>
    <g id="Symbols">
        <g id="Ultralight-S">
            <path d="M249.465,76 C249.034,76 248.655,76.285 248.535,76.7 L235.257,122.724 L235.277,122.729 L231.8,128.406 C231.617,128.704 231.609,129.079 231.78,129.384 C231.952,129.69 232.275,129.879 232.625,129.879 L233.194,129.879 L228.985,144.469 C228.901,144.76 228.958,145.074 229.14,145.317 C229.321,145.559 229.606,145.703 229.909,145.705 L279.656,146 C280.085,146.003 280.465,145.722 280.588,145.31 L301.012,77.246 C301.1,76.953 301.044,76.636 300.862,76.39 C300.679,76.145 300.391,76 300.085,76 L249.465,76 Z M235.209,129.879 L237.188,129.879 L234.263,139.844 C234.177,140.137 234.234,140.453 234.417,140.697 C234.6,140.941 234.887,141.085 235.192,141.085 L276.83,141.085 C277.26,141.085 277.638,140.801 277.759,140.389 L295.109,81.271 C295.195,80.978 295.138,80.662 294.955,80.418 C294.772,80.174 294.485,80.03 294.18,80.03 L252.542,80.03 C252.113,80.03 251.735,80.313 251.614,80.725 L242.91,110.268 L239.045,116.578 L250.193,77.936 L298.784,77.936 L278.942,144.06 L231.199,143.777 L235.209,129.879 Z M239.206,129.879 L274.263,129.879 C274.6,129.879 274.913,129.704 275.089,129.417 C277.832,124.937 280.098,121.238 282.525,117.276 L276.106,139.149 L236.485,139.149 L239.206,129.879 Z M284.612,110.165 C280.637,116.652 277.66,121.511 273.721,127.943 L234.353,127.943 L255.651,93.175 L289.598,93.175 L288.923,95.474 L256.991,95.474 C256.653,95.474 256.339,95.65 256.164,95.939 L238.752,124.589 C238.57,124.888 238.564,125.261 238.736,125.566 C238.907,125.871 239.23,126.059 239.579,126.059 L271.825,126.059 C272.163,126.059 272.477,125.883 272.652,125.594 L287.024,101.946 L284.612,110.165 Z M290.166,91.24 L255.109,91.24 C254.772,91.24 254.459,91.415 254.283,91.702 L246.798,103.921 L253.266,81.966 L292.887,81.966 L290.166,91.24 Z M287.515,97.41 L271.281,124.124 L241.3,124.124 L257.535,97.41 L287.515,97.41 Z" />
        </g>
        <g id="Regular-S">
            <path d="M449.465,76 C449.034,76 448.655,76.285 448.535,76.7 L435.257,122.724 L435.277,122.729 L431.8,128.406 C431.617,128.704 431.609,129.079 431.78,129.384 C431.952,129.69 432.275,129.879 432.625,129.879 L433.194,129.879 L428.985,144.469 C428.901,144.76 428.958,145.074 429.14,145.317 C429.321,145.559 429.606,145.703 429.909,145.705 L479.656,146 C480.085,146.003 480.465,145.722 480.588,145.31 L501.012,77.246 C501.1,76.953 501.044,76.636 500.862,76.39 C500.679,76.145 500.391,76 500.085,76 L449.465,76 Z M435.209,129.879 L437.188,129.879 L434.263,139.844 C434.177,140.137 434.234,140.453 434.417,140.697 C434.6,140.941 434.887,141.085 435.192,141.085 L476.83,141.085 C477.26,141.085 477.638,140.801 477.759,140.389 L495.109,81.271 C495.195,80.978 495.138,80.662 494.955,80.418 C494.772,80.174 494.485,80.03 494.18,80.03 L452.542,80.03 C452.113,80.03 451.735,80.313 451.614,80.725 L442.91,110.268 L439.045,116.578 L450.193,77.936 L498.784,77.936 L478.942,144.06 L431.199,143.777 L435.209,129.879 Z M439.206,129.879 L474.263,129.879 C474.6,129.879 474.913,129.704 475.089,129.417 C477.832,124.937 480.098,121.238 482.525,117.276 L476.106,139.149 L436.485,139.149 L439.206,129.879 Z M484.612,110.165 C480.637,116.652 477.66,121.511 473.721,127.943 L434.353,127.943 L455.651,93.175 L489.598,93.175 L488.923,95.474 L456.991,95.474 C456.653,95.474 456.339,95.65 456.164,95.939 L438.752,124.589 C438.57,124.888 438.564,125.261 438.736,125.566 C438.907,125.871 439.23,126.059 439.579,126.059 L471.825,126.059 C472.163,126.059 472.477,125.883 472.652,125.594 L487.024,101.946 L484.612,110.165 Z M490.166,91.24 L455.109,91.24 C454.772,91.24 454.459,91.415 454.283,91.702 L446.798,103.921 L453.266,81.966 L492.887,81.966 L490.166,91.24 Z M487.515,97.41 L471.281,124.124 L441.3,124.124 L457.535,97.41 L487.515,97.41 Z" />
        </g>
        <g id="Black-S">
            <path d="M649.465,76 C649.034,76 648.655,76.285 648.535,76.7 L635.257,122.724 L635.277,122.729 L631.8,128.406 C631.617,128.704 631.609,129.079 631.781,129.384 C631.952,129.69 632.275,129.879 632.625,129.879 L633.194,129.879 L628.985,144.469 C628.901,144.76 628.958,145.074 629.14,145.317 C629.321,145.559 629.606,145.703 629.909,145.705 L679.656,146 C680.085,146.003 680.465,145.722 680.588,145.31 L701.012,77.246 C701.1,76.953 701.044,76.636 700.862,76.39 C700.679,76.145 700.391,76 700.085,76 L649.465,76 Z M635.209,129.879 L637.188,129.879 L634.263,139.844 C634.177,140.137 634.234,140.453 634.417,140.697 C634.6,140.941 634.887,141.085 635.192,141.085 L676.83,141.085 C677.26,141.085 677.638,140.801 677.759,140.389 L695.109,81.271 C695.195,80.978 695.138,80.662 694.955,80.418 C694.772,80.174 694.485,80.03 694.18,80.03 L652.542,80.03 C652.113,80.03 651.735,80.313 651.614,80.725 L642.91,110.268 L639.045,116.578 L650.193,77.936 L698.784,77.936 L678.942,144.06 L631.199,143.777 L635.209,129.879 Z M639.206,129.879 L674.263,129.879 C674.6,129.879 674.913,129.704 675.089,129.417 C677.832,124.937 680.098,121.238 682.525,117.276 L676.106,139.149 L636.485,139.149 L639.206,129.879 Z M684.612,110.165 C680.637,116.652 677.66,121.511 673.721,127.943 L634.353,127.943 L655.651,93.175 L689.598,93.175 L688.923,95.474 L656.991,95.474 C656.653,95.474 656.339,95.65 656.164,95.939 L638.752,124.589 C638.57,124.888 638.564,125.261 638.736,125.566 C638.907,125.871 639.23,126.059 639.579,126.059 L671.825,126.059 C672.163,126.059 672.477,125.883 672.652,125.594 L687.024,101.946 L684.612,110.165 Z M690.166,91.24 L655.109,91.24 C654.772,91.24 654.459,91.415 654.283,91.702 L646.798,103.921 L653.266,81.966 L692.887,81.966 L690.166,91.24 Z M687.515,97.41 L671.281,124.124 L641.3,124.124 L657.535,97.41 L687.515,97.41 Z" />
        </g>
    </g>
</svg>