<svg width="512" height="512" viewBox="0 0 512 512" fill="none" xmlns="http://www.w3.org/2000/svg">
<path d="M311.06 332H300.75C300.107 332.005 299.471 332.138 298.879 332.39C298.286 332.642 297.75 333.008 297.3 333.468C296.85 333.928 296.496 334.473 296.257 335.07C296.019 335.668 295.901 336.307 295.91 336.95V337C295.91 347.585 291.705 357.736 284.221 365.221C276.736 372.705 266.585 376.91 256 376.91C245.415 376.91 235.264 372.705 227.779 365.221C220.295 357.736 216.09 347.585 216.09 337C216.099 336.357 215.981 335.718 215.743 335.12C215.504 334.523 215.15 333.978 214.7 333.518C214.25 333.058 213.714 332.692 213.121 332.44C212.529 332.188 211.893 332.055 211.25 332.05H200.94C199.664 332.045 198.438 332.544 197.529 333.44C196.621 334.336 196.103 335.554 196.09 336.83V337C196.09 352.889 202.402 368.128 213.637 379.363C224.873 390.598 240.111 396.91 256 396.91C271.889 396.91 287.127 390.598 298.363 379.363C309.598 368.128 315.91 352.889 315.91 337V336.78C315.897 335.504 315.379 334.286 314.471 333.39C313.562 332.494 312.336 331.995 311.06 332ZM311.06 332H300.75C300.107 332.005 299.471 332.138 298.879 332.39C298.286 332.642 297.75 333.008 297.3 333.468C296.85 333.928 296.496 334.473 296.257 335.07C296.019 335.668 295.901 336.307 295.91 336.95V337C295.91 347.585 291.705 357.736 284.221 365.221C276.736 372.705 266.585 376.91 256 376.91C245.415 376.91 235.264 372.705 227.779 365.221C220.295 357.736 216.09 347.585 216.09 337C216.099 336.357 215.981 335.718 215.743 335.12C215.504 334.523 215.15 333.978 214.7 333.518C214.25 333.058 213.714 332.692 213.121 332.44C212.529 332.188 211.893 332.055 211.25 332.05H200.94C199.664 332.045 198.438 332.544 197.529 333.44C196.621 334.336 196.103 335.554 196.09 336.83V337C196.09 352.889 202.402 368.128 213.637 379.363C224.873 390.598 240.111 396.91 256 396.91C271.889 396.91 287.127 390.598 298.363 379.363C309.598 368.128 315.91 352.889 315.91 337V336.78C315.897 335.504 315.379 334.286 314.471 333.39C313.562 332.494 312.336 331.995 311.06 332ZM410 336.85V353.85L364 362L362.26 368C360.025 375.739 356.943 383.207 353.07 390.27L350.07 395.8L377.28 433.58L353 457.86L314.83 431.1L309.36 434.1C302.254 438.041 294.735 441.186 286.94 443.48L281 445.28L272.89 491H238.52L230.92 445.4L224.92 443.66C217.095 441.39 209.543 438.268 202.4 434.35L196.94 431.35L159 457.86L134.7 433.54L161.49 396.06L158.44 390.54C154.477 383.372 151.324 375.785 149.04 367.92L147.31 361.92L101.97 353.92V336.85C101.97 335.571 101.465 334.343 100.564 333.435C99.6627 332.526 98.4394 332.011 97.16 332H86.86C86.2222 331.999 85.5905 332.123 85.0009 332.366C84.4113 332.609 83.8755 332.967 83.4241 333.417C82.9726 333.868 82.6145 334.403 82.3701 334.992C82.1258 335.581 82 336.212 82 336.85V356.31C81.9993 360.335 83.4161 364.232 86.0017 367.317C88.5873 370.402 92.1767 372.477 96.14 373.18L131.76 379.5C133.529 384.64 135.613 389.666 138 394.55L117 423.88C114.631 427.187 113.518 431.231 113.861 435.284C114.204 439.338 115.979 443.137 118.87 446L146.6 473.7C149.444 476.555 153.205 478.314 157.219 478.665C161.234 479.017 165.244 477.938 168.54 475.62L198.31 454.77C203.152 457.156 208.138 459.236 213.24 461L219.19 496.72C219.839 500.724 221.898 504.364 224.995 506.982C228.093 509.601 232.024 511.026 236.08 511H275.29C279.316 511.005 283.215 509.589 286.301 507.003C289.386 504.417 291.461 500.825 292.16 496.86L298.56 460.8C303.65 459.032 308.626 456.952 313.46 454.57L343.46 475.57C346.759 477.906 350.779 478.998 354.806 478.652C358.833 478.306 362.608 476.544 365.46 473.68L393.14 446C396.021 443.128 397.782 439.323 398.109 435.268C398.435 431.214 397.304 427.176 394.92 423.88L373.56 394.23C375.852 389.475 377.855 384.586 379.56 379.59L415.78 373.23C419.768 372.547 423.385 370.472 425.989 367.374C428.592 364.276 430.013 360.356 430 356.31V336.85C430 335.564 429.489 334.33 428.579 333.421C427.67 332.511 426.436 332 425.15 332H414.85C413.564 332 412.33 332.511 411.421 333.421C410.511 334.33 410 335.564 410 336.85ZM311.06 332H300.75C300.107 332.005 299.471 332.138 298.879 332.39C298.286 332.642 297.75 333.008 297.3 333.468C296.85 333.928 296.496 334.473 296.257 335.07C296.019 335.668 295.901 336.307 295.91 336.95V337C295.91 347.585 291.705 357.736 284.221 365.221C276.736 372.705 266.585 376.91 256 376.91C245.415 376.91 235.264 372.705 227.779 365.221C220.295 357.736 216.09 347.585 216.09 337C216.099 336.357 215.981 335.718 215.743 335.12C215.504 334.523 215.15 333.978 214.7 333.518C214.25 333.058 213.714 332.692 213.121 332.44C212.529 332.188 211.893 332.055 211.25 332.05H200.94C199.664 332.045 198.438 332.544 197.529 333.44C196.621 334.336 196.103 335.554 196.09 336.83V337C196.09 352.889 202.402 368.128 213.637 379.363C224.873 390.598 240.111 396.91 256 396.91C271.889 396.91 287.127 390.598 298.363 379.363C309.598 368.128 315.91 352.889 315.91 337V336.78C315.897 335.504 315.379 334.286 314.471 333.39C313.562 332.494 312.336 331.995 311.06 332ZM311.06 332H300.75C300.107 332.005 299.471 332.138 298.879 332.39C298.286 332.642 297.75 333.008 297.3 333.468C296.85 333.928 296.496 334.473 296.257 335.07C296.019 335.668 295.901 336.307 295.91 336.95V337C295.91 347.585 291.705 357.736 284.221 365.221C276.736 372.705 266.585 376.91 256 376.91C245.415 376.91 235.264 372.705 227.779 365.221C220.295 357.736 216.09 347.585 216.09 337C216.099 336.357 215.981 335.718 215.743 335.12C215.504 334.523 215.15 333.978 214.7 333.518C214.25 333.058 213.714 332.692 213.121 332.44C212.529 332.188 211.893 332.055 211.25 332.05H200.94C199.664 332.045 198.438 332.544 197.529 333.44C196.621 334.336 196.103 335.554 196.09 336.83V337C196.09 352.889 202.402 368.128 213.637 379.363C224.873 390.598 240.111 396.91 256 396.91C271.889 396.91 287.127 390.598 298.363 379.363C309.598 368.128 315.91 352.889 315.91 337V336.78C315.897 335.504 315.379 334.286 314.471 333.39C313.562 332.494 312.336 331.995 311.06 332ZM311.06 332H300.75C300.107 332.005 299.471 332.138 298.879 332.39C298.286 332.642 297.75 333.008 297.3 333.468C296.85 333.928 296.496 334.473 296.257 335.07C296.019 335.668 295.901 336.307 295.91 336.95V337C295.91 347.585 291.705 357.736 284.221 365.221C276.736 372.705 266.585 376.91 256 376.91C245.415 376.91 235.264 372.705 227.779 365.221C220.295 357.736 216.09 347.585 216.09 337C216.099 336.357 215.981 335.718 215.743 335.12C215.504 334.523 215.15 333.978 214.7 333.518C214.25 333.058 213.714 332.692 213.121 332.44C212.529 332.188 211.893 332.055 211.25 332.05H200.94C199.664 332.045 198.438 332.544 197.529 333.44C196.621 334.336 196.103 335.554 196.09 336.83V337C196.09 352.889 202.402 368.128 213.637 379.363C224.873 390.598 240.111 396.91 256 396.91C271.889 396.91 287.127 390.598 298.363 379.363C309.598 368.128 315.91 352.889 315.91 337V336.78C315.897 335.504 315.379 334.286 314.471 333.39C313.562 332.494 312.336 331.995 311.06 332ZM311.06 332H300.75C300.107 332.005 299.471 332.138 298.879 332.39C298.286 332.642 297.75 333.008 297.3 333.468C296.85 333.928 296.496 334.473 296.257 335.07C296.019 335.668 295.901 336.307 295.91 336.95V337C295.91 347.585 291.705 357.736 284.221 365.221C276.736 372.705 266.585 376.91 256 376.91C245.415 376.91 235.264 372.705 227.779 365.221C220.295 357.736 216.09 347.585 216.09 337C216.099 336.357 215.981 335.718 215.743 335.12C215.504 334.523 215.15 333.978 214.7 333.518C214.25 333.058 213.714 332.692 213.121 332.44C212.529 332.188 211.893 332.055 211.25 332.05H200.94C199.664 332.045 198.438 332.544 197.529 333.44C196.621 334.336 196.103 335.554 196.09 336.83V337C196.09 352.889 202.402 368.128 213.637 379.363C224.873 390.598 240.111 396.91 256 396.91C271.889 396.91 287.127 390.598 298.363 379.363C309.598 368.128 315.91 352.889 315.91 337V336.78C315.897 335.504 315.379 334.286 314.471 333.39C313.562 332.494 312.336 331.995 311.06 332Z" fill="#B4B7BA"/>
<path d="M170 312H70V222C70 216.696 72.1071 211.609 75.8579 207.858C79.6086 204.107 84.6957 202 90 202H150C155.304 202 160.391 204.107 164.142 207.858C167.893 211.609 170 216.696 170 222V312ZM90 292H150V222H90V292Z" fill="#B4B7BA"/>
<path d="M304.5 312H204.5V172C204.5 166.696 206.607 161.609 210.358 157.858C214.109 154.107 219.196 152 224.5 152H284.5C289.804 152 294.891 154.107 298.642 157.858C302.393 161.609 304.5 166.696 304.5 172V312ZM224.5 292H284.5V172H224.5V292Z" fill="#00D151"/>
<path d="M442 312H342V122C342 116.696 344.107 111.609 347.858 107.858C351.609 104.107 356.696 102 362 102H422C427.304 102 432.391 104.107 436.142 107.858C439.893 111.609 442 116.696 442 122V312ZM362 292H422V122H362V292Z" fill="#B4B7BA"/>
<path d="M499 312H13C10.3478 312 7.8043 310.946 5.92893 309.071C4.05357 307.196 3 304.652 3 302C3 299.348 4.05357 296.804 5.92893 294.929C7.8043 293.054 10.3478 292 13 292H499C501.652 292 504.196 293.054 506.071 294.929C507.946 296.804 509 299.348 509 302C509 304.652 507.946 307.196 506.071 309.071C504.196 310.946 501.652 312 499 312Z" fill="#B4B7BA"/>
<path d="M433.85 23.61L426.16 62.86C425.715 65.1334 424.495 67.182 422.708 68.6557C420.92 70.1293 418.677 70.9367 416.36 70.94C415.712 70.9407 415.066 70.877 414.43 70.75C413.14 70.4975 411.912 69.9931 410.817 69.2657C409.723 68.5383 408.782 67.6022 408.049 66.5109C407.316 65.4195 406.806 64.1944 406.547 62.9056C406.288 61.6168 406.286 60.2896 406.54 59L409.45 44.12L300.68 119.23C299.587 119.983 298.355 120.51 297.056 120.782C295.758 121.054 294.417 121.065 293.114 120.813C291.811 120.562 290.571 120.054 289.467 119.318C288.362 118.583 287.415 117.635 286.68 116.53L252.78 65.46L91.0001 159.64C89.8629 160.391 88.584 160.902 87.242 161.141C85.9001 161.381 84.5234 161.343 83.1966 161.03C81.8698 160.718 80.6209 160.138 79.5265 159.325C78.4321 158.513 77.5153 157.485 76.8326 156.305C76.1499 155.126 75.7155 153.819 75.5563 152.465C75.397 151.111 75.5162 149.739 75.9065 148.433C76.2968 147.127 76.95 145.915 77.8259 144.87C78.7018 143.826 79.782 142.972 81.0001 142.36L250.86 43.43C253.065 42.1445 255.677 41.7504 258.163 42.3286C260.649 42.9068 262.819 44.4135 264.23 46.54L297.7 97L399.08 27L382.86 23.82C380.257 23.3108 377.963 21.7883 376.482 19.5876C375.002 17.3868 374.456 14.6881 374.965 12.085C375.474 9.48188 376.997 7.18768 379.198 5.70708C381.398 4.22648 384.097 3.68076 386.7 4.18998L426 11.87C428.596 12.3892 430.88 13.9166 432.352 16.1174C433.823 18.3181 434.362 21.0126 433.85 23.61Z" fill="#B4B7BA"/>
</svg>
