<svg width="512" height="512" viewBox="0 0 512 512" fill="none" xmlns="http://www.w3.org/2000/svg">
<path d="M501 1H11C8.34784 1 5.8043 2.05357 3.92893 3.92893C2.05357 5.8043 1 8.34784 1 11V501C1 503.652 2.05357 506.196 3.92893 508.071C5.8043 509.946 8.34784 511 11 511H501C503.652 511 506.196 509.946 508.071 508.071C509.946 506.196 511 503.652 511 501V11C511 8.34784 509.946 5.8043 508.071 3.92893C506.196 2.05357 503.652 1 501 1ZM491 491H21V21H491V491Z" fill="black"/>
<path d="M60 90C54.0666 90 48.2664 88.2406 43.3329 84.9441C38.3994 81.6477 34.5543 76.9623 32.2836 71.4805C30.013 65.9987 29.4189 59.9667 30.5765 54.1473C31.734 48.3279 34.5912 42.9824 38.7868 38.7868C42.9824 34.5912 48.3279 31.734 54.1473 30.5765C59.9667 29.4189 65.9987 30.013 71.4805 32.2836C76.9623 34.5543 81.6477 38.3994 84.9441 43.3329C88.2406 48.2664 90 54.0666 90 60C90 67.9565 86.8393 75.5871 81.2132 81.2132C75.5871 86.8393 67.9565 90 60 90ZM60 50C58.0222 50 56.0888 50.5865 54.4443 51.6853C52.7998 52.7841 51.5181 54.3459 50.7612 56.1732C50.0043 58.0004 49.8063 60.0111 50.1922 61.9509C50.578 63.8907 51.5304 65.6726 52.9289 67.0711C54.3275 68.4696 56.1093 69.422 58.0491 69.8079C59.9889 70.1937 61.9996 69.9957 63.8269 69.2388C65.6541 68.4819 67.2159 67.2002 68.3147 65.5557C69.4135 63.9112 70 61.9778 70 60C70 57.3478 68.9464 54.8043 67.0711 52.9289C65.1957 51.0536 62.6522 50 60 50Z" fill="#00D151"/>
<path d="M452 90C446.067 90 440.266 88.2406 435.333 84.9441C430.399 81.6477 426.554 76.9623 424.284 71.4805C422.013 65.9987 421.419 59.9667 422.576 54.1473C423.734 48.3279 426.591 42.9824 430.787 38.7868C434.982 34.5912 440.328 31.734 446.147 30.5765C451.967 29.4189 457.999 30.013 463.481 32.2836C468.962 34.5543 473.648 38.3994 476.944 43.3329C480.241 48.2664 482 54.0666 482 60C482 67.9565 478.839 75.5871 473.213 81.2132C467.587 86.8393 459.957 90 452 90ZM452 50C450.022 50 448.089 50.5865 446.444 51.6853C444.8 52.7841 443.518 54.3459 442.761 56.1732C442.004 58.0004 441.806 60.0111 442.192 61.9509C442.578 63.8907 443.53 65.6726 444.929 67.0711C446.327 68.4696 448.109 69.422 450.049 69.8079C451.989 70.1937 454 69.9957 455.827 69.2388C457.654 68.4819 459.216 67.2002 460.315 65.5557C461.414 63.9112 462 61.9778 462 60C462 57.3478 460.946 54.8043 459.071 52.9289C457.196 51.0536 454.652 50 452 50Z" fill="#00D151"/>
<path d="M60 481C54.0666 481 48.2664 479.241 43.3329 475.944C38.3994 472.648 34.5543 467.962 32.2836 462.481C30.013 456.999 29.4189 450.967 30.5765 445.147C31.734 439.328 34.5912 433.982 38.7868 429.787C42.9824 425.591 48.3279 422.734 54.1473 421.576C59.9667 420.419 65.9987 421.013 71.4805 423.284C76.9623 425.554 81.6477 429.399 84.9441 434.333C88.2406 439.266 90 445.067 90 451C90 458.957 86.8393 466.587 81.2132 472.213C75.5871 477.839 67.9565 481 60 481ZM60 441C58.0222 441 56.0888 441.587 54.4443 442.685C52.7998 443.784 51.5181 445.346 50.7612 447.173C50.0043 449 49.8063 451.011 50.1922 452.951C50.578 454.891 51.5304 456.673 52.9289 458.071C54.3275 459.47 56.1093 460.422 58.0491 460.808C59.9889 461.194 61.9996 460.996 63.8269 460.239C65.6541 459.482 67.2159 458.2 68.3147 456.556C69.4135 454.911 70 452.978 70 451C70 448.348 68.9464 445.804 67.0711 443.929C65.1957 442.054 62.6522 441 60 441Z" fill="#00D151"/>
<path d="M452 481C446.067 481 440.266 479.241 435.333 475.944C430.399 472.648 426.554 467.962 424.284 462.481C422.013 456.999 421.419 450.967 422.576 445.147C423.734 439.328 426.591 433.982 430.787 429.787C434.982 425.591 440.328 422.734 446.147 421.576C451.967 420.419 457.999 421.013 463.481 423.284C468.962 425.554 473.648 429.399 476.944 434.333C480.241 439.266 482 445.067 482 451C482 458.957 478.839 466.587 473.213 472.213C467.587 477.839 459.957 481 452 481ZM452 441C450.022 441 448.089 441.587 446.444 442.685C444.8 443.784 443.518 445.346 442.761 447.173C442.004 449 441.806 451.011 442.192 452.951C442.578 454.891 443.53 456.673 444.929 458.071C446.327 459.47 448.109 460.422 450.049 460.808C451.989 461.194 454 460.996 455.827 460.239C457.654 459.482 459.216 458.2 460.315 456.556C461.414 454.911 462 452.978 462 451C462 448.348 460.946 445.804 459.071 443.929C457.196 442.054 454.652 441 452 441Z" fill="#00D151"/>
<path d="M407.32 104.68C387.472 84.6986 363.876 68.8316 337.884 57.9886C311.891 47.1456 284.014 41.5397 255.851 41.4925C227.688 41.4453 199.792 46.9576 173.764 57.7134C147.735 68.4692 124.086 84.2569 104.171 104.171C84.2569 124.086 68.4692 147.735 57.7134 173.764C46.9576 199.792 41.4453 227.688 41.4925 255.851C41.5397 284.014 47.1456 311.891 57.9886 337.884C68.8316 363.876 84.6986 387.472 104.68 407.32C124.527 427.301 148.124 443.168 174.116 454.011C200.108 464.854 227.985 470.46 256.148 470.507C284.312 470.554 312.207 465.042 338.236 454.286C364.264 443.53 387.914 427.743 407.828 407.828C427.743 387.914 443.53 364.264 454.286 338.236C465.042 312.207 470.554 284.312 470.507 256.148C470.46 227.985 464.854 200.108 454.011 174.116C443.168 148.124 427.301 124.527 407.32 104.68ZM256 450C149 450 61.9997 363 61.9997 256C61.9997 149 149 61.9997 256 61.9997C363 61.9997 450 149 450 256C450 363 363 450 256 450Z" fill="black"/>
<path d="M417.91 198C405.91 183.88 384.31 167.05 349.44 167.05C302.71 167.05 277.34 194.91 267.85 208.31C266.69 209.94 265.77 211.36 265.07 212.48C264.97 210.87 264.93 209.29 264.93 207.76C264.93 183.89 275.32 168.91 283.84 156.64C293.62 142.55 295.59 128.1 289.67 113.64C275 77.8898 207.48 82.8198 176.89 95.3698C158.89 102.74 142.32 118.47 132.51 137.45C124 153.9 116.63 180.29 129.86 212.54C152.43 267.54 203.58 273.45 207.02 273.79C207.32 274.79 207.65 275.79 208.02 276.79C187.36 293.33 167.84 293.63 152.02 293.87C134.87 294.14 122.02 300.98 113.72 314.19C104.53 328.89 107.42 349.59 121.86 372.48C132.75 389.74 149.56 407.01 164.67 416.48C177.67 424.58 194.28 428.97 211.09 428.97C215.659 428.967 220.221 428.633 224.74 427.97C243.07 425.29 268.8 415.89 287.28 386.32C312.6 345.83 301.42 308.82 295.14 294.32C294.46 292.75 293.84 291.43 293.33 290.41C293.899 290.723 294.499 290.974 295.12 291.16C295.847 291.38 296.567 291.61 297.28 291.85C323.2 300.47 334.04 317.21 342.78 330.73C352.1 345.13 364.73 352.44 380.31 352.44C418.93 352.4 440 288.05 440 255C440 235.56 431.74 214.24 417.91 198ZM288.91 259.13C288.91 265.459 287.034 271.646 283.517 276.908C280.001 282.17 275.003 286.272 269.156 288.694C263.309 291.116 256.875 291.75 250.667 290.515C244.46 289.28 238.758 286.232 234.283 281.757C229.808 277.282 226.76 271.58 225.525 265.373C224.29 259.165 224.924 252.731 227.346 246.884C229.768 241.037 233.87 236.039 239.132 232.523C244.394 229.007 250.581 227.13 256.91 227.13C265.383 227.138 273.507 230.506 279.501 236.495C285.494 242.485 288.867 250.607 288.88 259.08L288.91 259.13ZM205.26 253.34C194.48 251.19 163.54 241.93 148.39 205C138.06 179.82 143.73 159.39 150.3 146.69C159.37 129.16 173.92 118.26 184.51 113.92C198.22 108.3 219.08 105.22 236.42 106.26C255.07 107.37 267.74 112.85 271.2 121.26C273.43 126.69 275.01 134.32 267.44 145.26C258.23 158.52 244.72 177.97 244.97 208.55C234.552 211.021 225.149 216.642 218.038 224.647C210.928 232.652 206.456 242.653 205.23 253.29L205.26 253.34ZM270.3 375.72C255.88 398.8 235.98 406.11 221.83 408.18C202.29 411.04 184.96 405.58 175.25 399.51C162.69 391.65 148.02 376.51 138.75 361.82C128.75 346.01 125.84 332.53 130.66 324.82C133.77 319.82 139.05 314.1 152.32 313.89C168.81 313.64 193.16 313.26 218.43 294.04C225.829 302.195 235.629 307.788 246.414 310.009C257.199 312.231 268.411 310.967 278.43 306.4C283.18 319.53 288.64 346.37 270.3 375.72ZM407.39 305.92C399.27 322.75 389.39 332.4 380.29 332.4C374.43 332.4 366.76 330.97 359.55 319.82C350.49 305.82 337.08 285.09 306.72 273.93C309.835 263.458 309.573 252.271 305.97 241.957C302.368 231.642 295.608 222.725 286.65 216.47C295.44 205.47 315.24 187 349.44 187C376.66 187 393.44 200 402.67 210.9C415.45 225.94 420 243.54 420 255C420 269.8 414.93 290.27 407.39 305.92Z" fill="black"/>
<path d="M295.1 291.12C294.478 290.934 293.878 290.683 293.31 290.37C293.82 291.37 294.44 292.71 295.12 294.28C295.86 293.48 296.57 292.66 297.26 291.81C296.553 291.57 295.833 291.34 295.1 291.12ZM264.93 207.71C264.93 209.24 264.93 210.82 265.07 212.43C265.77 211.31 266.69 209.89 267.85 208.26C266.89 208 265.91 207.86 264.93 207.71Z" fill="black"/>
<path d="M256.889 277.93C267.3 277.93 275.739 269.491 275.739 259.08C275.739 248.67 267.3 240.23 256.889 240.23C246.479 240.23 238.039 248.67 238.039 259.08C238.039 269.491 246.479 277.93 256.889 277.93Z" fill="black"/>
</svg>
