<svg width="512" height="512" viewBox="0 0 512 512" fill="none" xmlns="http://www.w3.org/2000/svg">
<path d="M240 60V160H60V60H240ZM250 40H50C47.3478 40 44.8043 41.0536 42.9289 42.9289C41.0536 44.8043 40 47.3478 40 50V170C40 172.652 41.0536 175.196 42.9289 177.071C44.8043 178.946 47.3478 180 50 180H250C252.652 180 255.196 178.946 257.071 177.071C258.946 175.196 260 172.652 260 170V50C260 47.3478 258.946 44.8043 257.071 42.9289C255.196 41.0536 252.652 40 250 40Z" fill="#B4B7BA"/>
<path d="M178.28 365.28C174.34 365.29 170.437 364.519 166.797 363.012C163.157 361.505 159.851 359.292 157.07 356.5L100.5 299.93C94.8739 294.304 91.7129 286.673 91.7129 278.715C91.7129 270.758 94.8739 263.127 100.5 257.5C106.127 251.874 113.758 248.713 121.715 248.713C129.673 248.713 137.304 251.874 142.93 257.5L199.5 314.07C203.695 318.267 206.552 323.612 207.708 329.432C208.865 335.251 208.27 341.283 205.999 346.765C203.728 352.246 199.882 356.931 194.948 360.227C190.014 363.522 184.214 365.281 178.28 365.28ZM121.72 268.72C119.742 268.719 117.808 269.304 116.162 270.402C114.516 271.5 113.234 273.062 112.476 274.889C111.718 276.717 111.519 278.728 111.904 280.668C112.289 282.609 113.242 284.391 114.64 285.79L171.21 342.36C173.087 344.237 175.632 345.291 178.285 345.291C180.939 345.291 183.484 344.237 185.36 342.36C187.237 340.484 188.291 337.939 188.291 335.285C188.291 332.632 187.237 330.087 185.36 328.21L128.79 271.64C126.914 269.769 124.371 268.718 121.72 268.72Z" fill="#00D151"/>
<path d="M150 226C165.823 226 181.29 230.692 194.446 239.482C207.602 248.273 217.855 260.767 223.91 275.385C229.965 290.003 231.55 306.089 228.463 321.607C225.376 337.126 217.757 351.38 206.569 362.569C195.38 373.757 181.126 381.376 165.607 384.463C150.089 387.55 134.003 385.965 119.385 379.91C104.767 373.855 92.273 363.602 83.4825 350.446C74.692 337.29 70 321.823 70 306C70.0239 284.79 78.4601 264.456 93.4578 249.458C108.456 234.46 128.79 226.024 150 226ZM150 206C130.222 206 110.888 211.865 94.443 222.853C77.9981 233.841 65.1809 249.459 57.6121 267.732C50.0433 286.004 48.063 306.111 51.9215 325.509C55.78 344.907 65.3041 362.725 79.2894 376.711C93.2746 390.696 111.093 400.22 130.491 404.079C149.889 407.937 169.996 405.957 188.268 398.388C206.541 390.819 222.159 378.002 233.147 361.557C244.135 345.112 250 325.778 250 306C250 279.478 239.464 254.043 220.711 235.289C201.957 216.536 176.522 206 150 206Z" fill="#B4B7BA"/>
<path d="M485 159H477V118C477 115.348 475.946 112.804 474.071 110.929C472.196 109.054 469.652 108 467 108C464.348 108 461.804 109.054 459.929 110.929C458.054 112.804 457 115.348 457 118V159H449C446.348 159 443.804 160.054 441.929 161.929C440.054 163.804 439 166.348 439 169V349C439 351.652 440.054 354.196 441.929 356.071C443.804 357.946 446.348 359 449 359H458V386C457.984 399.256 452.711 411.964 443.338 421.338C433.964 430.711 421.256 435.984 408 436H350C356.658 429.488 361.946 421.709 365.553 413.122C369.159 404.535 371.011 395.314 371 386V313H378C380.652 313 383.196 311.946 385.071 310.071C386.946 308.196 388 305.652 388 303V123C388 120.348 386.946 117.804 385.071 115.929C383.196 114.054 380.652 113 378 113H370V72C370 69.3478 368.946 66.8043 367.071 64.9289C365.196 63.0536 362.652 62 360 62C357.348 62 354.804 63.0536 352.929 64.9289C351.054 66.8043 350 69.3478 350 72V113H342C339.348 113 336.804 114.054 334.929 115.929C333.054 117.804 332 120.348 332 123V303C332 305.652 333.054 308.196 334.929 310.071C336.804 311.946 339.348 313 342 313H351V386C350.984 399.256 345.711 411.964 336.338 421.338C326.964 430.711 314.256 435.984 301 436H300V30C300 22.0435 296.839 14.4129 291.213 8.7868C285.587 3.16071 277.956 0 270 0L30 0C22.0435 0 14.4129 3.16071 8.7868 8.7868C3.16071 14.4129 0 22.0435 0 30L0 482C0 489.956 3.16071 497.587 8.7868 503.213C14.4129 508.839 22.0435 512 30 512H270C277.956 512 285.587 508.839 291.213 503.213C296.839 497.587 300 489.956 300 482V456H408C426.559 455.979 444.351 448.597 457.474 435.474C470.597 422.351 477.979 404.559 478 386V359H485C487.652 359 490.196 357.946 492.071 356.071C493.946 354.196 495 351.652 495 349V169C495 166.348 493.946 163.804 492.071 161.929C490.196 160.054 487.652 159 485 159ZM352 133H368V293H352V133ZM280 436H243.28C241.21 430.154 237.38 425.093 232.315 421.513C227.251 417.934 221.202 416.012 215 416.012C208.798 416.012 202.749 417.934 197.685 421.513C192.62 425.093 188.79 430.154 186.72 436H114.28C111.921 429.328 107.279 423.704 101.175 420.124C95.0711 416.543 87.8976 415.235 80.9227 416.432C73.9477 417.629 67.6204 421.253 63.0589 426.663C58.4975 432.074 55.9957 438.923 55.9957 446C55.9957 453.077 58.4975 459.926 63.0589 465.337C67.6204 470.747 73.9477 474.371 80.9227 475.568C87.8976 476.765 95.0711 475.457 101.175 471.876C107.279 468.296 111.921 462.672 114.28 456H186.72C188.79 461.846 192.62 466.907 197.685 470.487C202.749 474.066 208.798 475.988 215 475.988C221.202 475.988 227.251 474.066 232.315 470.487C237.38 466.907 241.21 461.846 243.28 456H280V482C280 484.652 278.946 487.196 277.071 489.071C275.196 490.946 272.652 492 270 492H30C27.3478 492 24.8043 490.946 22.9289 489.071C21.0536 487.196 20 484.652 20 482V30C20 27.3478 21.0536 24.8043 22.9289 22.9289C24.8043 21.0536 27.3478 20 30 20H270C272.652 20 275.196 21.0536 277.071 22.9289C278.946 24.8043 280 27.3478 280 30V436ZM225 446C225 447.978 224.414 449.911 223.315 451.556C222.216 453.2 220.654 454.482 218.827 455.239C217 455.996 214.989 456.194 213.049 455.808C211.109 455.422 209.327 454.47 207.929 453.071C206.53 451.673 205.578 449.891 205.192 447.951C204.806 446.011 205.004 444 205.761 442.173C206.518 440.346 207.8 438.784 209.444 437.685C211.089 436.586 213.022 436 215 436C217.652 436 220.196 437.054 222.071 438.929C223.946 440.804 225 443.348 225 446ZM96 446C96 447.978 95.4135 449.911 94.3147 451.556C93.2159 453.2 91.6541 454.482 89.8268 455.239C87.9996 455.996 85.9889 456.194 84.0491 455.808C82.1093 455.422 80.3275 454.47 78.9289 453.071C77.5304 451.673 76.578 449.891 76.1921 447.951C75.8063 446.011 76.0043 444 76.7612 442.173C77.5181 440.346 78.7998 438.784 80.4443 437.685C82.0888 436.586 84.0222 436 86 436C87.3132 436 88.6136 436.259 89.8268 436.761C91.0401 437.264 92.1425 438 93.0711 438.929C93.9997 439.858 94.7362 440.96 95.2388 442.173C95.7413 443.386 96 444.687 96 446ZM475 339H459V179H475V339Z" fill="#B4B7BA"/>
<path d="M390 178.8H330C327.348 178.8 324.804 177.746 322.929 175.871C321.054 173.996 320 171.452 320 168.8C320 166.148 321.054 163.604 322.929 161.729C324.804 159.853 327.348 158.8 330 158.8H390C392.652 158.8 395.196 159.853 397.071 161.729C398.946 163.604 400 166.148 400 168.8C400 171.452 398.946 173.996 397.071 175.871C395.196 177.746 392.652 178.8 390 178.8Z" fill="#00D151"/>
<path d="M497 224.8H437C434.348 224.8 431.804 223.746 429.929 221.871C428.054 219.996 427 217.452 427 214.8C427 212.148 428.054 209.604 429.929 207.729C431.804 205.853 434.348 204.8 437 204.8H497C499.652 204.8 502.196 205.853 504.071 207.729C505.946 209.604 507 212.148 507 214.8C507 217.452 505.946 219.996 504.071 221.871C502.196 223.746 499.652 224.8 497 224.8Z" fill="#00D151"/>
</svg>
