<svg width="64" height="64" viewBox="0 0 64 64" fill="none" xmlns="http://www.w3.org/2000/svg">
<path fill-rule="evenodd" clip-rule="evenodd" d="M0.000182041 24.5298C0.000182041 15.6354 6.78249 9.30341 15.6769 9.30341C24.5697 9.30341 31.7754 16.5057 31.7605 25.3877V28.0167L31.9639 51.8442H9.26013e-05M15.6769 11.628C8.06636 11.628 2.32482 16.9193 2.32482 24.5298V49.5196H13.9478H30.2204L29.6393 33.8283L29.4358 25.387C29.4492 17.7937 23.2885 11.628 15.6769 11.628Z" fill="#282828"/>
<path fill-rule="evenodd" clip-rule="evenodd" d="M48.0419 11.628H15.8655V9.30341H48.0575C56.8743 9.38171 64 16.5539 64 25.387V51.7425H30.6124V49.4179H61.6753V25.387C61.6753 17.8331 55.5823 11.6977 48.0419 11.628Z" fill="#282828"/>
<path d="M56.3867 24.0358H50.8076V34.9616H56.3867V24.0358Z" fill="#282828"/>
<path fill-rule="evenodd" clip-rule="evenodd" d="M49.6453 24.0358C49.6453 23.3939 50.1657 22.8735 50.8076 22.8735H56.3867C57.0286 22.8735 57.549 23.3939 57.549 24.0358V34.9616C57.549 35.6035 57.0286 36.1239 56.3867 36.1239H50.8076C50.1657 36.1239 49.6453 35.6035 49.6453 34.9616V24.0358ZM51.9699 25.1981V33.7993H55.2244V25.1981H51.9699Z" fill="#282828"/>
<path fill-rule="evenodd" clip-rule="evenodd" d="M25.6723 50.6529C26.3143 50.6529 26.8346 51.1732 26.8346 51.8152V60.8377C26.8346 61.4796 26.3143 62 25.6723 62C25.0304 62 24.51 61.4796 24.51 60.8377V51.8152C24.51 51.1732 25.0304 50.6529 25.6723 50.6529Z" fill="#282828"/>
<path fill-rule="evenodd" clip-rule="evenodd" d="M36.8891 50.1444C37.5311 50.1444 38.0514 50.6648 38.0514 51.3067V60.3292C38.0514 60.9711 37.5311 61.4915 36.8891 61.4915C36.2472 61.4915 35.7268 60.9711 35.7268 60.3292V51.3067C35.7268 50.6648 36.2472 50.1444 36.8891 50.1444Z" fill="#282828"/>
<path fill-rule="evenodd" clip-rule="evenodd" d="M35.7268 24.0358C35.7268 23.3939 36.2472 22.8735 36.8891 22.8735H51.7813C52.4233 22.8735 52.9436 23.3939 52.9436 24.0358C52.9436 24.6778 52.4233 25.1981 51.7813 25.1981H36.8891C36.2472 25.1981 35.7268 24.6778 35.7268 24.0358Z" fill="#282828"/>
<path fill-rule="evenodd" clip-rule="evenodd" d="M4.9397 45.5241C4.9397 45.0427 5.32999 44.6524 5.81144 44.6524H25.0914C25.5728 44.6524 25.9631 45.0427 25.9631 45.5241C25.9631 46.0056 25.5728 46.3959 25.0914 46.3959H5.81144C5.32999 46.3959 4.9397 46.0056 4.9397 45.5241Z" fill="#282828"/>
</svg>
