<svg width="64" height="64" viewBox="0 0 64 64" fill="none" xmlns="http://www.w3.org/2000/svg">
<path fill-rule="evenodd" clip-rule="evenodd" d="M3.50016 23C3.50016 15.3477 9.33532 9.89999 16.9876 9.89999C24.6385 9.89999 30.838 16.0965 30.8251 23.7382V26L31.0002 46.5H3.50008M16.9876 11.9C10.4399 11.9 5.50016 16.4523 5.50016 23V44.5H15.5H29.5002L29.0002 31L28.8251 23.7375C28.8366 17.2046 23.5363 11.9 16.9876 11.9Z" fill="#282828"/>
<path fill-rule="evenodd" clip-rule="evenodd" d="M44.8329 11.9H17.1499V9.89999H44.8463C52.4319 9.96736 58.5624 16.138 58.5624 23.7375V46.4125H29.8374V44.4125H56.5624V23.7375C56.5624 17.2385 51.3203 11.9599 44.8329 11.9Z" fill="#282828"/>
<path d="M52.0124 22.575H47.2124V31.975H52.0124V22.575Z" fill="#282828"/>
<path fill-rule="evenodd" clip-rule="evenodd" d="M46.2124 22.575C46.2124 22.0227 46.6601 21.575 47.2124 21.575H52.0124C52.5647 21.575 53.0124 22.0227 53.0124 22.575V31.975C53.0124 32.5273 52.5647 32.975 52.0124 32.975H47.2124C46.6601 32.975 46.2124 32.5273 46.2124 31.975V22.575ZM48.2124 23.575V30.975H51.0124V23.575H48.2124Z" fill="#282828"/>
<path fill-rule="evenodd" clip-rule="evenodd" d="M25.5874 45.475C26.1397 45.475 26.5874 45.9227 26.5874 46.475V54.2375C26.5874 54.7898 26.1397 55.2375 25.5874 55.2375C25.0351 55.2375 24.5874 54.7898 24.5874 54.2375V46.475C24.5874 45.9227 25.0351 45.475 25.5874 45.475Z" fill="#282828"/>
<path fill-rule="evenodd" clip-rule="evenodd" d="M35.2375 45.0375C35.7898 45.0375 36.2375 45.4852 36.2375 46.0375V53.8C36.2375 54.3523 35.7898 54.8 35.2375 54.8C34.6853 54.8 34.2375 54.3523 34.2375 53.8V46.0375C34.2375 45.4852 34.6853 45.0375 35.2375 45.0375Z" fill="#282828"/>
<path fill-rule="evenodd" clip-rule="evenodd" d="M34.2375 22.575C34.2375 22.0227 34.6853 21.575 35.2375 21.575H48.05C48.6023 21.575 49.05 22.0227 49.05 22.575C49.05 23.1273 48.6023 23.575 48.05 23.575H35.2375C34.6853 23.575 34.2375 23.1273 34.2375 22.575Z" fill="#282828"/>
<path fill-rule="evenodd" clip-rule="evenodd" d="M7.75 41.0625C7.75 40.6483 8.08579 40.3125 8.5 40.3125H25.0875C25.5017 40.3125 25.8375 40.6483 25.8375 41.0625C25.8375 41.4767 25.5017 41.8125 25.0875 41.8125H8.5C8.08579 41.8125 7.75 41.4767 7.75 41.0625Z" fill="#282828"/>
</svg>
