<svg width="31" height="40" viewBox="0 0 31 40" fill="none" xmlns="http://www.w3.org/2000/svg">
<path d="M17.6673 40C14.6395 40 12.0284 39.2222 9.83398 37.6667C7.63954 36.1111 6.05621 34.0417 5.08398 31.4583L0.833985 20.3333C0.750651 20.1111 0.688151 19.8819 0.646484 19.6458C0.604818 19.4097 0.583984 19.1667 0.583984 18.9167C0.583984 18.1944 0.861762 17.5556 1.41732 17C1.97287 16.4444 2.61176 16.1667 3.33398 16.1667C3.50065 16.1667 3.66037 16.1736 3.81315 16.1875C3.96593 16.2014 4.11176 16.2361 4.25065 16.2917L5.50065 16.625C6.05621 16.7639 6.49371 16.9514 6.81315 17.1875C7.1326 17.4236 7.48676 17.8472 7.87565 18.4583V6.875C7.87565 5.90278 8.22287 5.06944 8.91732 4.375C9.61176 3.68056 10.4451 3.33333 11.4173 3.33333C11.7507 3.33333 12.0562 3.38194 12.334 3.47917C12.6118 3.57639 12.8618 3.70833 13.084 3.875V3.54167C13.084 2.56944 13.4382 1.73611 14.1465 1.04167C14.8548 0.347222 15.6951 0 16.6673 0C17.5562 0 18.3201 0.291667 18.959 0.875C19.5979 1.45833 19.9868 2.13889 20.1257 2.91667C20.2368 2.77778 20.4729 2.67361 20.834 2.60417C21.1951 2.53472 21.5284 2.5 21.834 2.5C22.8895 2.5 23.7437 2.89583 24.3965 3.6875C25.0493 4.47917 25.3757 5.36111 25.3757 6.33333V7.95833C25.5701 7.79167 25.8201 7.67361 26.1257 7.60417C26.4312 7.53472 26.7368 7.5 27.0423 7.5C28.0145 7.5 28.8479 7.84722 29.5423 8.54167C30.2368 9.23611 30.584 10.0694 30.584 11.0417V27.0833C30.584 30.8889 29.3826 33.9931 26.9798 36.3958C24.577 38.7986 21.4729 40 17.6673 40ZM17.6673 37.5C20.7784 37.5 23.2923 36.5347 25.209 34.6042C27.1257 32.6736 28.084 30.1667 28.084 27.0833V11.0417C28.084 10.7361 27.9868 10.4861 27.7923 10.2917C27.5979 10.0972 27.3479 10 27.0423 10C26.7368 10 26.4868 10.0972 26.2923 10.2917C26.0979 10.4861 26.0007 10.7361 26.0007 11.0417V20H22.8757V6.04167C22.8757 5.73611 22.7784 5.48611 22.584 5.29167C22.3895 5.09722 22.1395 5 21.834 5C21.5284 5 21.2784 5.09722 21.084 5.29167C20.8895 5.48611 20.7923 5.73611 20.7923 6.04167V20H17.6673V3.54167C17.6673 3.23611 17.5701 2.98611 17.3757 2.79167C17.1812 2.59722 16.9312 2.5 16.6257 2.5C16.3201 2.5 16.0701 2.59722 15.8757 2.79167C15.6812 2.98611 15.584 3.23611 15.584 3.54167V20H12.459V6.875C12.459 6.56944 12.3618 6.31944 12.1673 6.125C11.9729 5.93056 11.7229 5.83333 11.4173 5.83333C11.1118 5.83333 10.8618 5.93056 10.6673 6.125C10.4729 6.31944 10.3757 6.56944 10.3757 6.875V24.5833H7.95898L6.41732 20.6667C6.13954 19.9444 5.78537 19.4792 5.35482 19.2708C4.92426 19.0625 4.36176 18.875 3.66732 18.7083C3.38954 18.6528 3.20204 18.6806 3.10482 18.7917C3.0076 18.9028 3.01454 19.0833 3.12565 19.3333L7.45898 30.5833C8.26454 32.6667 9.52843 34.3403 11.2507 35.6042C12.9729 36.8681 15.1118 37.5 17.6673 37.5Z" fill="#00D151"/>
</svg>
