<?xml version="1.0" encoding="UTF-8"?>
<svg height="600" width="800" xmlns="http://www.w3.org/2000/svg" xmlns:xlink="http://www.w3.org/1999/xlink">
    <g id="Notes" font-family="'LucidaGrande', 'Lucida Grande', sans-serif" font-size="13">
        <rect fill="white" height="600.0" width="800.0" x="0.0" y="0.0" />
        <g font-size="13">
            <text x="18.0" y="176.0">Small</text>
            <text x="18.0" y="376.0">Medium</text>
            <text x="18.0" y="576.0">Large</text>
        </g>
        <g font-size="9">
            <text x="250.0" y="30.0">Ultralight</text>
            <text x="450.0" y="30.0">Regular</text>
            <text x="650.0" y="30.0">Black</text>
            <text id="template-version" fill="#505050" text-anchor="end" x="785.0" y="575.0">Template v.3.0</text>
            <a href="https://github.com/swhitty/SwiftDraw">
                <text fill="#505050" text-anchor="end" x="785.0" y="590.0">https://github.com/swhitty/SwiftDraw</text>
            </a>
        </g>
    </g>
    <g id="Guides" stroke="rgb(39, 170, 225)" stroke-width="0.5">
        <path id="Capline-S" d="M18,76 l800,0" />
        <path id="H-reference" d="M85,145.755 L87.685,145.755 L113.369,79.287 L114.052,79.287 L114.052,76 L112.148,76 L85,145.755 Z M95.693,121.536 L130.996,121.536 L130.263,119.313 L96.474,119.313 L95.693,121.536 Z M139.15,145.755 L141.787,145.755 L114.638,76 L113.466,76 L113.466,79.287 L139.15,145.755 Z" stroke="none" />
        <path id="Baseline-S" d="M18,146 l800,0" />
        <path id="left-margin-Ultralight-S" d="M221,56 l0,110" />
        <path id="right-margin-Ultralight-S" d="M309,56 l0,110" />
        <path id="left-margin-Regular-S" d="M421,56 l0,110" />
        <path id="right-margin-Regular-S" d="M509,56 l0,110" />
        <path id="left-margin-Black-S" d="M621,56 l0,110" />
        <path id="right-margin-Black-S" d="M709,56 l0,110" />
        <path id="Capline-M" d="M18,276 l800,0" />
        <path id="Baseline-M" d="M18,346 l800,0" />
        <path id="Capline-L" d="M18,476 l800,0" />
        <path id="Baseline-L" d="M18,546 l800,0" />
    </g>
    <g id="Symbols">
        <g id="Ultralight-S">
            <path d="M237.106,102.121 C233.846,109.928 233.823,118.534 237.035,126.357 C240.25,134.18 246.318,140.284 254.123,143.543 C261.717,146.714 270.126,146.819 277.796,143.837 C285.468,140.856 291.597,135.1 295.056,127.632 C295.799,126.048 295.117,124.153 293.54,123.405 C293.115,123.206 292.643,123.102 292.174,123.102 C291.751,123.102 291.339,123.183 290.949,123.347 C290.927,123.356 290.908,123.363 290.888,123.372 L290.7,123.466 L290.65,123.466 C287.594,124.686 284.435,125.265 281.325,125.265 C271.346,125.265 261.872,119.312 257.89,109.512 C255.26,103.039 255.441,95.692 258.385,89.356 C259.131,87.777 258.465,85.894 256.904,85.136 L256.864,85.117 C256.441,84.919 255.972,84.815 255.505,84.815 L255.491,84.815 C255.075,84.815 254.674,84.895 254.294,85.054 C246.563,88.201 240.299,94.421 237.105,102.123 L237.106,102.121 Z M251.857,90.535 C251.857,90.535 253.892,89.21 254.015,89.714 C254.075,89.961 253.553,91.316 253.553,91.316 L253.424,91.757 C251.216,99.2 252.04,107.056 255.743,113.878 C259.446,120.699 265.582,125.671 273.024,127.879 C277.997,129.353 283.286,129.468 288.319,128.215 L291.013,127.543 L289.464,129.84 C284.099,137.853 275.267,142.186 266.279,142.186 C260.952,142.186 255.571,140.664 250.822,137.483 C238.06,128.937 234.632,111.603 243.178,98.841 C245.418,95.497 248.419,92.625 251.859,90.535 L251.857,90.535 Z" />
            <path d="M285.291,87.303 L293.462,87.303 C293.78,87.303 294.08,87.178 294.303,86.955 C294.529,86.729 294.653,86.431 294.653,86.113 C294.653,85.795 294.529,85.495 294.305,85.269 C294.08,85.044 293.781,84.919 293.463,84.919 L288.003,84.919 L294.335,77.997 C294.778,77.512 294.744,76.757 294.259,76.313 C294.039,76.113 293.755,76.003 293.456,76.001 L285.262,76.001 C284.602,75.978 284.056,76.5 284.037,77.157 C284.028,77.475 284.143,77.778 284.362,78.009 C284.58,78.24 284.875,78.373 285.193,78.382 C285.216,78.382 285.239,78.382 285.26,78.382 L290.743,78.382 L284.41,85.305 C284.195,85.539 284.085,85.845 284.099,86.163 C284.113,86.48 284.25,86.773 284.486,86.988 C284.706,87.189 284.992,87.301 285.291,87.301 L285.291,87.303 Z" />
            <path d="M269.915,90.947 L276.466,90.947 C276.784,90.956 277.088,90.842 277.319,90.624 C277.549,90.405 277.683,90.11 277.692,89.793 C277.711,89.135 277.192,88.585 276.535,88.567 C276.512,88.567 276.489,88.567 276.464,88.567 L272.623,88.567 L277.322,83.435 C277.537,83.2 277.647,82.897 277.633,82.579 C277.619,82.261 277.482,81.968 277.248,81.753 C277.027,81.552 276.743,81.44 276.445,81.44 L269.89,81.44 C269.877,81.44 269.867,81.44 269.854,81.44 C269.213,81.44 268.682,81.952 268.663,82.597 C268.643,83.254 269.162,83.802 269.817,83.822 C269.842,83.822 269.865,83.822 269.89,83.822 L273.735,83.822 L269.029,88.951 C268.712,89.297 268.629,89.801 268.821,90.235 C269.013,90.67 269.441,90.949 269.913,90.949 L269.915,90.947 Z" />
            <path d="M283.373,103.174 L289.924,103.174 C290.581,103.19 291.13,102.675 291.149,102.018 C291.169,101.361 290.65,100.812 289.993,100.793 C289.97,100.793 289.947,100.793 289.924,100.793 L286.079,100.793 L290.778,95.66 C290.993,95.426 291.103,95.122 291.089,94.804 C291.075,94.486 290.938,94.193 290.704,93.978 C290.483,93.778 290.199,93.666 289.901,93.666 L283.346,93.666 C283.028,93.657 282.724,93.771 282.494,93.989 C282.263,94.207 282.13,94.502 282.121,94.82 C282.112,95.138 282.227,95.442 282.446,95.673 C282.664,95.903 282.959,96.037 283.277,96.046 C283.3,96.046 283.323,96.046 283.344,96.046 L287.187,96.046 L282.488,101.178 C282.17,101.524 282.089,102.029 282.277,102.46 C282.467,102.892 282.897,103.172 283.369,103.172 L283.373,103.174 Z" />
        </g>
        <g id="Regular-S">
            <path d="M437.106,102.121 C433.846,109.928 433.823,118.534 437.035,126.357 C440.25,134.18 446.318,140.284 454.123,143.543 C461.717,146.714 470.126,146.819 477.796,143.837 C485.468,140.856 491.597,135.1 495.056,127.632 C495.799,126.048 495.117,124.153 493.54,123.405 C493.115,123.206 492.643,123.102 492.174,123.102 C491.751,123.102 491.339,123.183 490.949,123.347 C490.927,123.356 490.908,123.363 490.888,123.372 L490.7,123.466 L490.65,123.466 C487.594,124.686 484.435,125.265 481.325,125.265 C471.346,125.265 461.872,119.312 457.89,109.512 C455.26,103.039 455.441,95.692 458.385,89.356 C459.131,87.777 458.465,85.894 456.904,85.136 L456.864,85.117 C456.441,84.919 455.972,84.815 455.505,84.815 L455.491,84.815 C455.075,84.815 454.674,84.895 454.294,85.054 C446.563,88.201 440.299,94.421 437.105,102.123 L437.106,102.121 Z M451.857,90.535 C451.857,90.535 453.892,89.21 454.015,89.714 C454.075,89.961 453.553,91.316 453.553,91.316 L453.424,91.757 C451.216,99.2 452.04,107.056 455.743,113.878 C459.446,120.699 465.582,125.671 473.024,127.879 C477.997,129.353 483.286,129.468 488.319,128.215 L491.013,127.543 L489.464,129.84 C484.099,137.853 475.267,142.186 466.279,142.186 C460.952,142.186 455.571,140.664 450.822,137.483 C438.06,128.937 434.632,111.603 443.178,98.841 C445.418,95.497 448.419,92.625 451.859,90.535 L451.857,90.535 Z" />
            <path d="M485.291,87.303 L493.462,87.303 C493.78,87.303 494.08,87.178 494.303,86.955 C494.529,86.729 494.653,86.431 494.653,86.113 C494.653,85.795 494.529,85.495 494.305,85.269 C494.08,85.044 493.781,84.919 493.463,84.919 L488.003,84.919 L494.335,77.997 C494.778,77.512 494.744,76.757 494.259,76.313 C494.039,76.113 493.755,76.003 493.456,76.001 L485.262,76.001 C484.602,75.978 484.056,76.5 484.037,77.157 C484.028,77.475 484.143,77.778 484.362,78.009 C484.58,78.24 484.875,78.373 485.193,78.382 C485.216,78.382 485.239,78.382 485.26,78.382 L490.743,78.382 L484.41,85.305 C484.195,85.539 484.085,85.845 484.099,86.163 C484.113,86.48 484.25,86.773 484.486,86.988 C484.706,87.189 484.992,87.301 485.291,87.301 L485.291,87.303 Z" />
            <path d="M469.915,90.947 L476.466,90.947 C476.784,90.956 477.088,90.842 477.319,90.624 C477.549,90.405 477.683,90.11 477.692,89.793 C477.711,89.135 477.192,88.585 476.535,88.567 C476.512,88.567 476.489,88.567 476.464,88.567 L472.623,88.567 L477.322,83.435 C477.537,83.2 477.647,82.897 477.633,82.579 C477.619,82.261 477.482,81.968 477.248,81.753 C477.027,81.552 476.743,81.44 476.445,81.44 L469.89,81.44 C469.877,81.44 469.867,81.44 469.854,81.44 C469.213,81.44 468.682,81.952 468.663,82.597 C468.643,83.254 469.162,83.802 469.817,83.822 C469.842,83.822 469.865,83.822 469.89,83.822 L473.735,83.822 L469.029,88.951 C468.712,89.297 468.629,89.801 468.821,90.235 C469.013,90.67 469.441,90.949 469.913,90.949 L469.915,90.947 Z" />
            <path d="M483.373,103.174 L489.924,103.174 C490.581,103.19 491.13,102.675 491.149,102.018 C491.169,101.361 490.65,100.812 489.993,100.793 C489.97,100.793 489.947,100.793 489.924,100.793 L486.079,100.793 L490.778,95.66 C490.993,95.426 491.103,95.122 491.089,94.804 C491.075,94.486 490.938,94.193 490.704,93.978 C490.483,93.778 490.199,93.666 489.901,93.666 L483.346,93.666 C483.028,93.657 482.724,93.771 482.494,93.989 C482.263,94.207 482.13,94.502 482.121,94.82 C482.112,95.138 482.227,95.442 482.446,95.673 C482.664,95.903 482.959,96.037 483.277,96.046 C483.3,96.046 483.323,96.046 483.344,96.046 L487.187,96.046 L482.488,101.178 C482.17,101.524 482.089,102.029 482.277,102.46 C482.467,102.892 482.897,103.172 483.369,103.172 L483.373,103.174 Z" />
        </g>
        <g id="Black-S">
            <path d="M637.106,102.121 C633.846,109.928 633.823,118.534 637.035,126.357 C640.25,134.18 646.318,140.284 654.123,143.543 C661.717,146.714 670.126,146.819 677.796,143.837 C685.468,140.856 691.597,135.1 695.057,127.632 C695.799,126.048 695.117,124.153 693.54,123.405 C693.115,123.206 692.643,123.102 692.174,123.102 C691.752,123.102 691.339,123.183 690.949,123.347 C690.927,123.356 690.908,123.363 690.888,123.372 L690.7,123.466 L690.65,123.466 C687.594,124.686 684.435,125.265 681.325,125.265 C671.346,125.265 661.872,119.312 657.89,109.512 C655.26,103.039 655.441,95.692 658.385,89.356 C659.131,87.777 658.465,85.894 656.904,85.136 L656.864,85.117 C656.441,84.919 655.972,84.815 655.505,84.815 L655.491,84.815 C655.075,84.815 654.674,84.895 654.294,85.054 C646.563,88.201 640.299,94.421 637.105,102.123 L637.106,102.121 Z M651.857,90.535 C651.857,90.535 653.892,89.21 654.015,89.714 C654.075,89.961 653.553,91.316 653.553,91.316 L653.424,91.757 C651.216,99.2 652.04,107.056 655.743,113.878 C659.446,120.699 665.582,125.671 673.024,127.879 C677.997,129.353 683.286,129.468 688.319,128.215 L691.013,127.543 L689.464,129.84 C684.099,137.853 675.267,142.186 666.279,142.186 C660.952,142.186 655.571,140.664 650.822,137.483 C638.06,128.937 634.633,111.603 643.178,98.841 C645.418,95.497 648.419,92.625 651.859,90.535 L651.857,90.535 Z" />
            <path d="M685.291,87.303 L693.462,87.303 C693.78,87.303 694.08,87.178 694.304,86.955 C694.529,86.729 694.653,86.431 694.653,86.113 C694.653,85.795 694.529,85.495 694.305,85.269 C694.08,85.044 693.781,84.919 693.464,84.919 L688.003,84.919 L694.335,77.997 C694.778,77.512 694.744,76.757 694.259,76.313 C694.039,76.113 693.755,76.003 693.456,76.001 L685.262,76.001 C684.602,75.978 684.056,76.5 684.037,77.157 C684.028,77.475 684.143,77.778 684.362,78.009 C684.58,78.24 684.875,78.373 685.193,78.382 C685.216,78.382 685.239,78.382 685.26,78.382 L690.743,78.382 L684.41,85.305 C684.195,85.539 684.085,85.845 684.099,86.163 C684.113,86.48 684.25,86.773 684.486,86.988 C684.706,87.189 684.992,87.301 685.291,87.301 L685.291,87.303 Z" />
            <path d="M669.915,90.947 L676.466,90.947 C676.784,90.956 677.088,90.842 677.319,90.624 C677.549,90.405 677.683,90.11 677.692,89.793 C677.711,89.135 677.193,88.585 676.535,88.567 C676.512,88.567 676.489,88.567 676.464,88.567 L672.623,88.567 L677.322,83.435 C677.537,83.2 677.647,82.897 677.633,82.579 C677.619,82.261 677.482,81.968 677.248,81.753 C677.027,81.552 676.743,81.44 676.445,81.44 L669.89,81.44 C669.878,81.44 669.867,81.44 669.854,81.44 C669.213,81.44 668.682,81.952 668.663,82.597 C668.643,83.254 669.162,83.802 669.817,83.822 C669.842,83.822 669.865,83.822 669.89,83.822 L673.735,83.822 L669.029,88.951 C668.712,89.297 668.629,89.801 668.821,90.235 C669.013,90.67 669.441,90.949 669.913,90.949 L669.915,90.947 Z" />
            <path d="M683.373,103.174 L689.924,103.174 C690.581,103.19 691.13,102.675 691.149,102.018 C691.169,101.361 690.65,100.812 689.993,100.793 C689.97,100.793 689.947,100.793 689.924,100.793 L686.079,100.793 L690.778,95.66 C690.993,95.426 691.103,95.122 691.089,94.804 C691.075,94.486 690.938,94.193 690.704,93.978 C690.484,93.778 690.199,93.666 689.901,93.666 L683.346,93.666 C683.028,93.657 682.724,93.771 682.494,93.989 C682.263,94.207 682.13,94.502 682.121,94.82 C682.112,95.138 682.227,95.442 682.446,95.673 C682.664,95.903 682.959,96.037 683.277,96.046 C683.3,96.046 683.323,96.046 683.344,96.046 L687.187,96.046 L682.488,101.178 C682.17,101.524 682.089,102.029 682.277,102.46 C682.467,102.892 682.897,103.172 683.369,103.172 L683.373,103.174 Z" />
        </g>
    </g>
</svg>