<svg width="64" height="65" viewBox="0 0 64 65" fill="none" xmlns="http://www.w3.org/2000/svg">
<g clip-path="url(#clip0_6344_14013)">
<path d="M60.4251 27.8468H49.9302V33.8904H60.4251V27.8468Z" fill="#FFE836"/>
<path d="M55.6823 16.5643C55.9562 16.2048 56.213 15.8795 56.4698 15.5542C56.6582 15.3145 56.8979 15.1947 57.2232 15.1947C58.764 15.2118 60.2877 15.383 61.7772 15.811C62.2737 15.948 62.7531 16.1534 63.164 16.4787C63.9002 17.0608 64.0372 17.7114 63.5749 18.5161C63.1811 19.2009 62.599 19.6803 61.9142 20.0569C61.5889 20.2452 61.2465 20.3822 60.9041 20.5534C60.75 20.6219 60.6644 20.7075 60.8356 20.8445C62.6504 22.334 63.301 24.3884 63.6605 26.597C63.9687 28.4803 64.0543 30.3807 63.9687 32.2982C63.8831 34.0445 63.7632 35.8079 63.6092 37.5542C63.4722 38.9752 63.3866 40.4134 63.3181 41.8344C63.2496 43.1527 63.2325 44.4709 63.2839 45.7721C63.3181 46.8507 62.3936 47.9464 61.1438 47.9122C59.329 47.8608 57.4971 47.9122 55.6823 47.8779C54.8263 47.8608 53.9531 47.8951 53.0971 47.8951C51.9329 47.9122 50.9912 47.1246 50.9228 45.9604C50.8714 45.1729 50.7002 45.2756 50.1523 45.2071C49.8613 45.1729 49.7757 45.0702 49.7757 44.7791C49.7928 42.5021 49.7757 40.225 49.7757 37.9651C49.7757 37.5542 49.7928 37.52 50.2208 37.5371C51.4535 37.6056 52.6691 37.5713 53.9018 37.5713C54.3983 37.5713 54.8948 37.5371 55.3913 37.52C55.7679 37.5028 56.1103 37.383 56.3842 37.1091C56.7438 36.7495 56.7095 36.2702 56.3158 35.962C55.9734 35.6881 55.5796 35.6196 55.1687 35.6196C53.5593 35.6196 51.9329 35.6196 50.3235 35.6196C49.7928 35.6196 49.7928 35.6196 49.7928 35.0717C49.7928 34.4725 49.7928 33.8733 49.7928 33.2569C49.7928 33.1371 49.7757 32.983 49.9983 33.0344C50.957 33.2912 51.95 33.2227 52.9259 33.2398C53.9702 33.2398 55.0146 33.2398 56.059 33.1884C57.6169 33.12 58.5415 32.2297 59.1064 30.8772C59.2948 30.432 59.3804 29.9698 59.3804 29.4904C59.3804 28.6686 58.9866 28.2406 58.1648 28.1721C57.6169 28.1207 57.0862 28.1892 56.5555 28.2577C55.0317 28.446 53.508 28.6344 51.9842 28.8912C51.2823 29.011 50.6317 29.2507 50.0839 29.713C50.0154 29.7643 49.9469 29.9013 49.8442 29.8328C49.7586 29.7814 49.7928 29.6616 49.7928 29.5589C49.7928 27.1449 49.7757 24.7309 49.7928 22.3168C49.7928 21.8203 49.673 21.4095 49.4162 21.0157C48.6286 19.7659 47.8411 18.5161 47.0364 17.2834C47.0021 17.2149 46.9165 17.1635 46.985 17.0779C47.0364 17.0266 47.1049 17.0437 47.1733 17.0437C48.6971 17.1464 50.2208 17.1978 51.7446 17.3861C51.813 17.4032 51.8986 17.3861 51.9671 17.3861C52.1726 17.3861 52.2239 17.3005 52.1383 17.1293C51.1111 14.6297 49.9811 12.1643 48.5259 9.87014C48.0123 9.06547 47.2589 8.77442 46.3687 8.63746C44.6395 8.38065 42.9103 8.07248 41.164 7.86703C39.8628 7.71294 38.5617 7.5931 37.2434 7.5075C35.3772 7.40477 33.494 7.31917 31.6278 7.33629C29.522 7.35341 27.4161 7.47326 25.3103 7.64446C22.6395 7.84991 19.9858 8.27793 17.3492 8.68882C16.5274 8.82579 15.8768 9.23668 15.4488 9.95575C15.329 10.1441 15.2262 10.3495 15.0893 10.5378C13.7025 12.4554 12.8122 14.6297 11.9048 16.7869C11.648 17.4032 11.6994 17.4546 12.3842 17.369C13.6511 17.1978 14.9181 17.0951 16.185 17.0608C16.2706 17.0608 16.4076 17.0094 16.4589 17.0951C16.5274 17.1978 16.3904 17.2834 16.3391 17.369C15.6543 18.4476 14.9694 19.5433 14.2846 20.6219C13.908 21.2211 13.7196 21.8717 13.7367 22.5737C13.7539 24.183 13.7367 25.7923 13.7367 27.3846C13.7367 28.1892 13.7196 28.2063 12.915 28.2063C12.3329 28.2063 12.2644 28.1379 12.2644 27.5386C12.2644 26.1005 12.2301 24.6453 12.2644 23.2071C12.2986 22.2141 12.0247 21.341 11.4768 20.5363C10.8434 19.5775 10.2441 18.5845 9.62779 17.6087C9.35386 17.1978 9.07993 16.7698 8.58343 16.5814C8.37799 16.4958 8.42935 16.3589 8.49783 16.2048C8.85736 15.3145 9.19978 14.4242 9.59355 13.5511C10.3811 11.7363 11.3399 9.98999 12.3671 8.29505C13.4286 6.54874 14.9523 5.57287 16.9725 5.26469C18.7702 4.99076 20.5508 4.64835 22.3655 4.46002C23.4784 4.34018 24.5912 4.2717 25.7041 4.16897C27.2792 4.03201 28.8543 3.92928 30.4465 3.87792C31.2512 3.84368 32.0387 3.82656 32.8434 3.89504C32.9461 3.89504 33.0317 3.91216 33.1344 3.91216C35.7368 3.91216 38.322 4.04913 40.8901 4.3573C43.0815 4.63123 45.2558 4.97364 47.4302 5.33318C49.3305 5.64135 50.7173 6.71995 51.7103 8.32929C52.9259 10.2982 53.9702 12.3698 54.8776 14.5098C55.1173 15.1775 55.3913 15.8624 55.6823 16.5643Z" fill="#FCFCFC"/>
<path d="M4.76562 41.3036C4.76562 34.9176 4.76562 28.5316 4.76562 22.1285C4.76562 21.8203 4.83411 21.5464 5.00531 21.2896C5.79286 20.0398 6.58041 18.79 7.36796 17.5402C7.41932 17.4546 7.47068 17.3861 7.53917 17.3005C7.95006 16.7697 8.3952 16.7697 8.78897 17.3176C9.04578 17.6771 9.28547 18.0709 9.52516 18.4647C10.1586 19.4748 10.775 20.4678 11.4256 21.4779C11.6481 21.8203 11.7508 22.1627 11.7508 22.5736C11.7337 24.5939 11.7508 26.6312 11.7337 28.6515C11.7337 28.9596 11.8193 29.0452 12.1275 29.0281C12.6925 29.011 13.2403 29.011 13.8053 29.0281C14.1306 29.0452 14.2333 28.9596 14.2333 28.6172C14.2162 26.46 14.2333 24.3028 14.2162 22.1456C14.2162 21.8203 14.3018 21.5464 14.473 21.2725C15.2606 20.0398 16.031 18.79 16.8186 17.5573C16.887 17.4374 16.9726 17.3176 17.0582 17.2149C17.4007 16.8211 17.8287 16.804 18.154 17.2149C18.4108 17.5402 18.6162 17.9168 18.8559 18.2592C19.5407 19.3378 20.2256 20.4336 20.9104 21.5122C21.1158 21.8203 21.2014 22.1456 21.2014 22.5223C21.1843 24.5596 21.2014 26.597 21.1843 28.6343C21.1843 28.9254 21.2528 29.0281 21.561 29.0281C22.1259 29.011 22.6738 29.011 23.2388 29.0281C23.5298 29.0452 23.5983 28.9425 23.5983 28.6515C23.5812 26.46 23.5983 24.2686 23.5812 22.0943C23.5812 21.8032 23.6497 21.5806 23.8038 21.341C24.6084 20.074 25.396 18.8071 26.2007 17.5402C26.2863 17.4032 26.389 17.2491 26.5088 17.1293C26.7828 16.8553 27.1594 16.8553 27.4333 17.1293C27.5532 17.2491 27.673 17.4032 27.7586 17.5573C28.5804 18.8756 29.4022 20.1939 30.2411 21.495C30.4466 21.8203 30.5493 22.1627 30.5493 22.5565C30.5322 24.5767 30.5493 26.5799 30.5493 28.6001C30.5493 29.011 30.5493 29.011 30.9773 29.0281C31.5423 29.0281 32.0902 29.011 32.6551 29.0281C32.9291 29.0452 33.0318 28.9425 33.0318 28.6686C33.0147 26.4771 33.0318 24.2857 33.0147 22.1114C33.0147 21.8374 33.0832 21.5978 33.2372 21.3581C34.0419 20.0911 34.8295 18.8242 35.6341 17.5573C35.7026 17.4546 35.7711 17.3347 35.8567 17.2491C36.1991 16.8382 36.61 16.8382 36.9524 17.232C37.0551 17.3518 37.1407 17.4717 37.2092 17.5915C38.031 18.8927 38.8357 20.1767 39.6575 21.4779C39.88 21.8203 39.9828 22.1799 39.9828 22.5908C39.9656 24.611 39.9828 26.6141 39.9656 28.6343C39.9656 28.9425 40.0513 29.0452 40.3594 29.0281C40.873 29.011 41.3867 28.9939 41.9174 29.0281C42.2598 29.0452 42.3283 28.9254 42.3283 28.6001C42.3112 26.4943 42.3283 24.3713 42.3112 22.2655C42.3112 21.9915 42.3797 21.7518 42.5337 21.5122C43.3727 20.211 44.1944 18.8927 45.0162 17.5744C45.0847 17.4717 45.1361 17.369 45.2217 17.2834C45.6155 16.804 46.0606 16.7869 46.4201 17.3005C46.8481 17.8997 47.2248 18.5332 47.6015 19.1495C48.1151 19.9542 48.6287 20.776 49.1423 21.5806C49.2793 21.8032 49.3649 22.0429 49.3649 22.3168C49.3649 35.0546 49.3649 47.7923 49.3649 60.5301C49.3649 61.0437 49.1594 61.2834 48.6287 61.2834C46.7797 61.2834 44.9135 61.2834 43.0645 61.2834C42.5166 61.2834 42.3454 61.0951 42.3454 60.5301C42.3454 58.2873 42.3454 56.0445 42.3454 53.8017C42.3454 53.4764 42.2598 53.3737 41.9345 53.3908C41.4209 53.425 40.9073 53.4079 40.3765 53.3908C40.0513 53.3737 39.9828 53.4935 39.9828 53.8017C39.9999 55.9931 39.9828 58.1846 39.9828 60.3589C39.9828 61.0608 39.7602 61.2834 39.0583 61.2834C37.2948 61.2834 35.5314 61.2834 33.7509 61.2834C33.6481 61.2834 33.5625 61.2834 33.4598 61.2663C33.1688 61.232 33.0147 61.0951 33.0147 60.7526C33.0318 58.4414 33.0147 56.113 33.0318 53.8017C33.0318 53.4764 32.9462 53.3737 32.6209 53.3908C32.0559 53.425 31.4738 53.4079 30.9088 53.3908C30.6178 53.3737 30.5493 53.4935 30.5493 53.7674C30.5664 55.9589 30.5493 58.1674 30.5493 60.3589C30.5493 61.0608 30.3439 61.2834 29.6248 61.2834C27.8614 61.2834 26.0979 61.2834 24.3174 61.2834C24.2147 61.2834 24.1291 61.2834 24.0263 61.2663C23.7353 61.232 23.5812 61.0951 23.5812 60.7526C23.5983 58.4414 23.5812 56.113 23.5983 53.8017C23.5983 53.4764 23.5127 53.3565 23.1874 53.3737C22.6396 53.4079 22.0917 53.3908 21.5438 53.3737C21.2528 53.3565 21.1843 53.4764 21.1843 53.7503C21.2014 55.9418 21.1843 58.1503 21.1843 60.3418C21.1843 61.0437 20.9789 61.2663 20.2598 61.2663C18.4964 61.2663 16.7329 61.2663 14.9524 61.2663C14.8839 61.2663 14.7983 61.2663 14.7298 61.2663C14.3361 61.232 14.2162 61.1122 14.2162 60.7184C14.2162 58.4071 14.2162 56.113 14.2162 53.8017C14.2162 53.4764 14.1477 53.3565 13.8053 53.3737C13.2403 53.4079 12.6582 53.3908 12.0933 53.3737C11.8022 53.3565 11.7337 53.4593 11.7337 53.7503C11.7508 55.9418 11.7337 58.1503 11.7337 60.3418C11.7337 61.0437 11.5283 61.2663 10.8092 61.2663C9.04578 61.2663 7.28236 61.2663 5.50181 61.2663C5.43333 61.2663 5.36485 61.2663 5.31348 61.2663C4.88547 61.232 4.76562 61.1293 4.76562 60.6842C4.76562 54.7604 4.76562 48.8367 4.76562 42.9129C4.76562 42.3651 4.76562 41.8344 4.76562 41.3036ZM48.1493 41.2523C48.1493 35.2087 48.1493 29.1651 48.1493 23.1215C48.1493 22.762 48.0808 22.4196 47.8925 22.1114C47.2762 21.1184 46.6598 20.1254 46.0264 19.1324C45.8551 18.8756 45.8038 18.8756 45.6326 19.1495C45.0162 20.1254 44.3999 21.1013 43.8007 22.0771C43.6123 22.4024 43.4754 22.7448 43.4754 23.1386C43.4754 35.2258 43.4754 47.313 43.4754 59.4001C43.4754 59.8795 43.5267 59.948 44.0232 59.948C45.2217 59.948 46.4201 59.948 47.6186 59.948C48.1493 59.948 48.1664 59.9309 48.1664 59.4001C48.1493 53.3394 48.1493 47.2958 48.1493 41.2523ZM5.84422 41.2865C5.84422 47.313 5.84422 53.3565 5.84422 59.383C5.84422 59.8795 5.87847 59.9309 6.34072 59.9309C7.55629 59.9309 8.77185 59.9309 9.98742 59.9309C10.4154 59.9309 10.5182 59.8281 10.5182 59.383C10.5182 47.3301 10.5182 35.2771 10.5182 23.2071C10.5182 22.8133 10.4326 22.4196 10.2271 22.06C9.61076 21.067 8.99442 20.0911 8.37808 19.0981C8.20687 18.8242 8.13839 18.8242 7.95006 19.1153C7.41932 19.9713 6.9057 20.8273 6.34072 21.6491C5.98119 22.1799 5.84422 22.7277 5.84422 23.3441C5.86134 29.3534 5.84422 35.3285 5.84422 41.2865ZM19.9687 41.3207C19.9687 35.3285 19.9687 29.3363 19.9687 23.3441C19.9687 22.8989 19.9003 22.4538 19.6606 22.0771C19.0614 21.1013 18.445 20.1254 17.8287 19.1495C17.6403 18.8413 17.5719 18.8585 17.3835 19.1495C16.8528 20.0055 16.3392 20.8616 15.7742 21.6834C15.4147 22.2141 15.2948 22.762 15.2948 23.3783C15.2948 29.9869 15.2948 36.6126 15.2948 43.2211C15.2948 48.6141 15.2948 53.99 15.2948 59.383C15.2948 59.8795 15.3291 59.9137 15.8256 59.9137C16.9898 59.9137 18.154 59.9137 19.3182 59.9137C19.9174 59.9137 19.9687 59.8624 19.9687 59.2632C19.9687 53.3052 19.9687 47.313 19.9687 41.3207ZM24.6598 41.3036C24.6598 47.3301 24.6598 53.3737 24.6598 59.4001C24.6598 59.8966 24.694 59.948 25.1905 59.948C26.3719 59.948 27.5532 59.948 28.7516 59.948C29.2481 59.948 29.3337 59.8624 29.3337 59.3659C29.3337 58.6468 29.3337 57.9277 29.3337 57.2087C29.3337 45.9262 29.3337 34.6437 29.3337 23.3612C29.3337 22.8989 29.2481 22.4367 28.9913 22.0429C28.3921 21.0841 27.81 20.1425 27.2108 19.2009C27.0053 18.8585 26.9368 18.8585 26.7314 19.2009C26.2007 20.0398 25.7042 20.8958 25.1392 21.7176C24.7796 22.2483 24.6427 22.7962 24.6427 23.4125C24.6598 29.3534 24.6598 35.3285 24.6598 41.3036ZM34.1104 41.2694C34.1104 47.313 34.1104 53.3565 34.1104 59.4001C34.1104 59.8966 34.1446 59.948 34.6411 59.948C35.8225 59.948 37.0038 59.948 38.2022 59.948C38.6987 59.948 38.7843 59.8624 38.7843 59.3659C38.7843 58.5783 38.7843 57.7908 38.7843 57.0032C38.7843 45.7892 38.7843 34.5752 38.7843 23.3612C38.7843 22.8989 38.6987 22.4367 38.4419 22.0429C37.8427 21.0841 37.2606 20.1425 36.6614 19.2009C36.4559 18.8585 36.3874 18.8585 36.182 19.2009C35.6512 20.0398 35.1548 20.8958 34.5898 21.7176C34.2302 22.2483 34.0933 22.7962 34.0933 23.4125C34.1104 29.3534 34.1104 35.3114 34.1104 41.2694ZM11.7337 41.1666C11.7337 43.3752 11.7337 45.5838 11.7337 47.7923C11.7337 48.0663 11.8022 48.169 12.0933 48.169C12.6925 48.1519 13.2917 48.1519 13.908 48.169C14.1477 48.169 14.2162 48.0834 14.2162 47.8437C14.2162 43.4095 14.2162 38.9923 14.2162 34.5581C14.2162 34.3184 14.1477 34.2328 13.908 34.2328C13.3088 34.2499 12.7267 34.2499 12.1275 34.2328C11.8022 34.2157 11.7337 34.3355 11.7337 34.6437C11.7337 36.818 11.7337 38.9923 11.7337 41.1666ZM33.0318 41.2009C33.0318 39.0094 33.0318 36.8009 33.0318 34.6094C33.0318 34.3355 32.9633 34.2328 32.6723 34.2328C32.073 34.2499 31.4738 34.2499 30.8575 34.2328C30.6178 34.2328 30.5493 34.3184 30.5493 34.5581C30.5493 38.9923 30.5493 43.4095 30.5493 47.8437C30.5493 48.0834 30.6178 48.169 30.8575 48.169C31.4567 48.1519 32.0388 48.1519 32.638 48.169C32.9633 48.1861 33.0318 48.0663 33.0318 47.7581C33.0147 45.5667 33.0318 43.3752 33.0318 41.2009ZM23.5812 41.2351C23.5812 39.0266 23.5812 36.818 23.5812 34.6094C23.5812 34.3355 23.5127 34.2328 23.2217 34.2328C22.6396 34.2499 22.0575 34.2499 21.4754 34.2328C21.2357 34.2328 21.1672 34.3184 21.1672 34.5581C21.1672 38.9923 21.1672 43.4095 21.1672 47.8437C21.1672 48.0834 21.2357 48.169 21.4754 48.169C22.0403 48.1519 22.6224 48.1519 23.1874 48.169C23.5127 48.1861 23.5812 48.0663 23.5812 47.7581C23.5812 45.5838 23.5812 43.4094 23.5812 41.2351ZM42.3283 41.2351C42.3283 39.0266 42.3283 36.818 42.3283 34.6094C42.3283 34.3355 42.2598 34.2328 41.9688 34.2328C41.438 34.2499 40.9073 34.267 40.3937 34.2328C40.0513 34.2157 39.9828 34.3355 39.9828 34.6608C39.9999 36.955 39.9828 39.2491 39.9828 41.5433C39.9828 43.632 39.9828 45.7207 39.9828 47.8095C39.9828 48.0663 40.0513 48.169 40.3252 48.169C40.8559 48.1519 41.4038 48.1519 41.9345 48.169C42.2598 48.1861 42.3283 48.0663 42.3283 47.7581C42.3283 45.5838 42.3283 43.4094 42.3283 41.2351ZM33.0318 31.6476C33.0318 31.3052 33.0318 30.9627 33.0318 30.6203C33.0318 30.432 32.9633 30.3464 32.7579 30.3464C32.1073 30.3464 31.4567 30.3464 30.8232 30.3464C30.6349 30.3464 30.5493 30.3978 30.5493 30.6032C30.5493 31.288 30.5493 31.9557 30.5493 32.6406C30.5493 32.8118 30.6178 32.8974 30.8061 32.8974C31.4567 32.8974 32.1244 32.8974 32.775 32.8974C32.9804 32.8974 33.0318 32.8118 33.0318 32.6234C33.0147 32.2982 33.0318 31.9729 33.0318 31.6476ZM14.2162 50.8056C14.2162 50.4632 14.2162 50.1207 14.2162 49.7783C14.2162 49.59 14.1477 49.5044 13.9594 49.5044C13.3088 49.5044 12.6411 49.5044 11.9905 49.5044C11.8022 49.5044 11.7508 49.59 11.7508 49.7612C11.7508 50.446 11.7508 51.1137 11.7508 51.7986C11.7508 51.9698 11.8193 52.0554 11.9905 52.0554C12.6411 52.0554 13.3088 52.0554 13.9594 52.0554C14.1649 52.0554 14.2333 51.9698 14.2162 51.7814C14.1991 51.439 14.2162 51.1137 14.2162 50.8056ZM33.0318 50.7713C33.0318 50.4289 33.0318 50.1036 33.0318 49.7612C33.0318 49.5729 32.9804 49.4873 32.775 49.4873C32.1244 49.4873 31.4567 49.4873 30.8061 49.4873C30.6007 49.4873 30.5493 49.5729 30.5493 49.7612C30.5493 50.4289 30.5493 51.0966 30.5493 51.7643C30.5493 51.9526 30.6178 52.0382 30.8232 52.0211C31.4738 52.0211 32.1244 52.0211 32.7579 52.0211C32.9804 52.0211 33.0318 51.9184 33.0318 51.7301C33.0147 51.4219 33.0318 51.0966 33.0318 50.7713ZM14.2162 31.6647C14.2162 31.3223 14.2162 30.9799 14.2162 30.6375C14.2162 30.4491 14.1477 30.3635 13.9594 30.3635C13.3088 30.3635 12.6582 30.3635 12.0248 30.3635C11.8364 30.3635 11.7508 30.4149 11.7508 30.6203C11.7508 31.3052 11.7508 31.9729 11.7508 32.6577C11.7508 32.8289 11.8193 32.9145 11.9905 32.9145C12.6411 32.9145 13.3088 32.9145 13.9594 32.9145C14.1649 32.9145 14.2162 32.8289 14.2162 32.6406C14.1991 32.2982 14.2162 31.9729 14.2162 31.6647ZM21.1672 31.6305C21.1672 31.9729 21.1672 32.3153 21.1672 32.6577C21.1672 32.8118 21.2357 32.8974 21.3898 32.8974C22.0403 32.8974 22.6909 32.8974 23.3244 32.8974C23.5127 32.8974 23.5641 32.8118 23.5641 32.6406C23.5641 31.9557 23.5641 31.288 23.5641 30.6032C23.5641 30.432 23.4956 30.3464 23.3244 30.3464C22.6909 30.3464 22.0575 30.3464 21.424 30.3464C21.2186 30.3464 21.1501 30.432 21.1672 30.6203C21.1843 30.9627 21.1672 31.288 21.1672 31.6305ZM23.5812 50.7884C23.5812 50.446 23.5812 50.1207 23.5812 49.7783C23.5812 49.5729 23.5298 49.4873 23.3073 49.4873C22.6909 49.5044 22.0575 49.4873 21.424 49.4873C21.2357 49.4873 21.1501 49.5558 21.1672 49.7612C21.1672 50.4289 21.1672 51.0966 21.1672 51.7643C21.1672 51.9526 21.2186 52.0382 21.424 52.0382C22.0575 52.0382 22.6909 52.0382 23.3244 52.0382C23.5127 52.0382 23.5812 51.9698 23.5641 51.7814C23.5812 51.4562 23.5812 51.1137 23.5812 50.7884ZM42.3283 31.6305C42.3283 31.288 42.3283 30.9456 42.3283 30.6032C42.3283 30.4491 42.2598 30.3635 42.1057 30.3635C41.4723 30.3635 40.8559 30.3635 40.2225 30.3635C40.0341 30.3635 39.9828 30.4491 39.9828 30.6203C39.9828 31.3052 39.9828 31.9729 39.9828 32.6577C39.9828 32.8289 40.0513 32.9145 40.2225 32.9145C40.8388 32.9145 41.4551 32.9145 42.0715 32.9145C42.2769 32.9145 42.3454 32.8289 42.3283 32.6406C42.3283 32.2982 42.3283 31.9557 42.3283 31.6305ZM42.3283 50.8056C42.3283 50.4632 42.3283 50.1207 42.3283 49.7783C42.3283 49.59 42.2598 49.5044 42.0715 49.5044C41.4551 49.5044 40.8388 49.5044 40.2225 49.5044C40.0341 49.5044 39.9828 49.59 39.9828 49.7612C39.9828 50.446 39.9828 51.1137 39.9828 51.7986C39.9828 51.9698 40.0513 52.0554 40.2225 52.0554C40.8388 52.0554 41.4551 52.0554 42.0715 52.0554C42.2769 52.0554 42.3454 51.9698 42.3283 51.7814C42.3283 51.439 42.3283 51.1137 42.3283 50.8056Z" fill="#FCFCFC"/>
<path d="M3.29313 47.8608C3.08768 47.8608 2.88223 47.8779 2.67679 47.8608C1.49546 47.7923 0.725033 46.9705 0.725033 45.7207C0.707912 44.4538 0.725033 43.204 0.707912 41.9371C0.690792 40.4989 0.519586 39.0779 0.399742 37.6569C0.331259 36.7838 0.262776 35.9277 0.194293 35.0546C0.0915695 33.702 -0.0282746 32.3495 0.00596663 30.997C0.0573285 29.011 0.10869 27.0079 0.63943 25.0732C1.08457 23.4468 1.80363 21.9744 3.13904 20.8616C3.39585 20.639 3.17328 20.5876 3.0192 20.5192C2.24877 20.1939 1.5297 19.783 0.947602 19.1837C0.605189 18.8242 0.3655 18.4133 0.194293 17.9511C0.0915695 17.6429 0.125811 17.369 0.297017 17.095C0.63943 16.5472 1.15305 16.1876 1.75227 15.9822C2.89935 15.5542 4.0978 15.3658 5.31336 15.2802C5.74138 15.246 6.1694 15.2289 6.59741 15.1946C6.90558 15.1775 7.16239 15.2802 7.36784 15.5199C7.55617 15.7767 7.76161 16.0336 7.96706 16.2904C8.06979 16.4273 8.10403 16.53 7.88146 16.5814C7.45344 16.6841 7.16239 16.9581 6.93982 17.3176C6.20364 18.4818 5.46745 19.646 4.73126 20.8102C4.37173 21.3752 4.28613 22.0087 4.28613 22.6592C4.28613 27.9666 4.28613 33.2912 4.28613 38.5985C4.28613 41.4919 4.28613 44.4024 4.28613 47.2958C4.28613 47.8779 4.28613 47.8779 3.72114 47.8779C3.56706 47.8608 3.43009 47.8608 3.29313 47.8608Z" fill="#FCFCFC"/>
<path d="M31.6964 16.7527C32.8435 16.7527 34.0077 16.7527 35.1548 16.7527C35.2918 16.7527 35.4801 16.6842 35.5486 16.8211C35.5999 16.941 35.4116 17.0095 35.3431 17.1122C34.8809 17.7457 34.4871 18.4134 34.0762 19.0639C33.7509 19.5947 33.4085 20.1254 33.0832 20.6562C32.7066 21.2383 32.5353 21.8717 32.5525 22.5565C32.5696 24.1659 32.5525 25.7924 32.5525 27.4017C32.5525 28.2064 32.5353 28.2406 31.7307 28.2406C31.1486 28.2406 31.0801 28.1892 31.063 27.5729C31.063 26.1005 31.0287 24.6453 31.063 23.1729C31.0801 22.2655 30.8575 21.4608 30.361 20.7075C29.6762 19.6632 29.0427 18.6188 28.375 17.5744C28.2552 17.369 28.084 17.1978 27.947 17.0095C27.8956 16.9581 27.81 16.9067 27.8443 16.8211C27.8785 16.7355 27.9813 16.7698 28.0497 16.7698C28.7517 16.7698 29.4536 16.7698 30.1556 16.7698C30.6521 16.7355 31.1657 16.7355 31.6964 16.7527Z" fill="#FCFCFC"/>
<path d="M21.6638 25.0561C21.6638 24.32 21.6467 23.5666 21.6638 22.8305C21.6809 22.1456 21.4926 21.5293 21.133 20.9643C20.3284 19.6974 19.5751 18.4133 18.719 17.1806C18.6848 17.1293 18.5992 17.0608 18.6334 16.9923C18.6677 16.9067 18.7704 16.941 18.8389 16.941C19.9517 16.9067 21.0817 16.8554 22.1945 16.8211C23.3587 16.7869 24.54 16.7698 25.7214 16.7526C25.8412 16.7526 26.0295 16.6842 26.0809 16.804C26.1494 16.941 25.9611 17.0094 25.8926 17.095C25.4132 17.7456 25.0194 18.4305 24.5914 19.0982C24.2661 19.5947 23.9751 20.1083 23.6498 20.6048C23.256 21.2211 23.0677 21.8888 23.0848 22.625C23.1019 24.2172 23.0848 25.8094 23.0848 27.4017C23.0848 28.2063 23.0677 28.2235 22.263 28.2235C21.7665 28.2235 21.6809 28.155 21.6809 27.6414C21.6638 26.7853 21.6638 25.9293 21.6638 25.0561Z" fill="#FCFCFC"/>
<path d="M40.4791 25.039C40.4791 24.3028 40.4791 23.5666 40.4791 22.8476C40.4791 22.2312 40.3593 21.6491 40.034 21.1184C39.2635 19.8686 38.476 18.6359 37.7056 17.4032C37.6713 17.3518 37.62 17.3005 37.5857 17.2491C37.5172 17.095 37.2433 16.9923 37.3289 16.8382C37.4145 16.6841 37.6713 16.7697 37.8425 16.7697C38.1678 16.7697 38.4931 16.7869 38.8184 16.804C40.7188 16.8553 42.6021 16.8896 44.5024 16.941C44.5881 16.941 44.7079 16.9067 44.7593 17.0094C44.7935 17.095 44.7079 17.1635 44.6565 17.232C43.8861 18.4304 43.1328 19.6289 42.3624 20.8273C41.9857 21.4094 41.8145 22.06 41.8316 22.762C41.8488 24.2686 41.8316 25.7752 41.8316 27.2818C41.8316 28.2234 41.7803 28.2748 40.8558 28.2234C40.6674 28.2063 40.5647 28.1207 40.5305 27.9495C40.4791 27.7441 40.4791 27.5386 40.4791 27.3332C40.4791 26.5627 40.4791 25.8094 40.4791 25.039Z" fill="#FCFCFC"/>
<path d="M12.23 41.2865C12.23 40.1737 12.2471 39.0608 12.23 37.9651C12.23 37.6398 12.3327 37.52 12.658 37.5542C12.9148 37.5713 13.1716 37.5713 13.4284 37.5542C13.6339 37.5371 13.7195 37.6398 13.7195 37.8453C13.7195 37.9138 13.7195 37.9822 13.7195 38.0336C13.7195 40.2079 13.7195 42.3822 13.7195 44.5566C13.7195 45.0359 13.7195 45.0359 13.2401 45.0359C12.23 45.0359 12.23 45.0359 12.23 44.0429C12.23 43.1184 12.23 42.211 12.23 41.2865Z" fill="#FCFCFC"/>
<path d="M12.949 35.5853C12.8121 35.5853 12.6922 35.5853 12.5553 35.5853C12.384 35.5853 12.2128 35.5682 12.2471 35.3285C12.2642 35.1402 12.2984 34.9519 12.5553 34.969C12.8292 34.969 13.086 34.9861 13.3599 34.969C13.6339 34.9519 13.6852 35.1402 13.6852 35.3456C13.7023 35.5853 13.5311 35.5853 13.3599 35.5853C13.223 35.5853 13.086 35.5853 12.949 35.5853Z" fill="#FCFCFC"/>
<path d="M31.046 39.8655C31.046 38.513 31.046 37.1605 31.046 35.7908C31.046 35.6881 31.046 35.6025 31.046 35.4998C31.0631 35.0033 31.1144 34.9519 31.6109 34.9519C31.7137 34.9519 31.8335 34.9519 31.9362 34.9519C32.467 34.9519 32.5183 35.0033 32.5183 35.534C32.5183 38.4445 32.5183 41.3721 32.5183 44.2826C32.5183 44.5223 32.4498 44.6422 32.1759 44.6251C31.902 44.6079 31.6109 44.6079 31.337 44.6251C31.0631 44.6422 31.0117 44.4881 31.0117 44.2655C31.0117 43.3924 31.0117 42.5192 31.0117 41.6461C31.046 41.0811 31.046 40.4648 31.046 39.8655Z" fill="#FCFCFC"/>
<path d="M23.1017 39.9339C23.1017 41.3721 23.1017 42.7931 23.1017 44.2312C23.1017 44.5565 22.999 44.6935 22.6737 44.6421C22.4854 44.625 22.2799 44.625 22.0916 44.6421C21.7663 44.6764 21.6636 44.5565 21.6636 44.2312C21.6807 41.3721 21.6636 38.5129 21.6636 35.6367C21.6636 35.5511 21.6636 35.4655 21.6807 35.3799C21.6978 35.0888 21.8005 34.9176 22.143 34.9518C22.2457 34.969 22.3655 34.9518 22.4682 34.9518C23.0503 34.9518 23.1017 34.9861 23.1017 35.6024C23.1017 37.0577 23.1017 38.4958 23.1017 39.9339Z" fill="#FCFCFC"/>
<path d="M40.4795 39.8655C40.4795 38.5301 40.4795 37.1947 40.4795 35.8593C40.4795 35.7395 40.4795 35.6196 40.4795 35.4998C40.4966 35.0033 40.548 34.9519 41.0445 34.9519C41.8321 34.9519 41.8321 34.9519 41.8321 35.7566C41.8321 38.5472 41.8321 41.3379 41.8321 44.1286C41.8321 44.6422 41.8321 44.6422 41.3356 44.6422C40.4624 44.6422 40.4624 44.6422 40.4624 43.769C40.4795 42.4679 40.4795 41.1667 40.4795 39.8655Z" fill="#FCFCFC"/>
</g>
<defs>
<clipPath id="clip0_6344_14013">
<rect width="64" height="64" fill="white" transform="translate(0 0.565674)"/>
</clipPath>
</defs>
</svg>
