<svg width="64" height="65" viewBox="0 0 64 65" fill="none" xmlns="http://www.w3.org/2000/svg">
<g clip-path="url(#clip0_5611_1112)">
<path d="M60.4251 27.8468H49.9302V33.8904H60.4251V27.8468Z" fill="#FFE836"/>
<path d="M55.6823 16.5643C55.9562 16.2047 56.213 15.8794 56.4698 15.5541C56.6582 15.3145 56.8979 15.1946 57.2232 15.1946C58.764 15.2117 60.2877 15.3829 61.7772 15.811C62.2737 15.9479 62.7531 16.1534 63.164 16.4787C63.9002 17.0608 64.0372 17.7114 63.5749 18.516C63.1811 19.2008 62.599 19.6802 61.9142 20.0569C61.5889 20.2452 61.2465 20.3822 60.9041 20.5534C60.75 20.6219 60.6644 20.7075 60.8356 20.8444C62.6504 22.3339 63.301 24.3884 63.6605 26.597C63.9687 28.4802 64.0543 30.3806 63.9687 32.2981C63.8831 34.0444 63.7632 35.8079 63.6092 37.5542C63.4722 38.9752 63.3866 40.4133 63.3181 41.8343C63.2496 43.1526 63.2325 44.4709 63.2839 45.7721C63.3181 46.8507 62.3936 47.9464 61.1438 47.9121C59.329 47.8608 57.4971 47.9121 55.6823 47.8779C54.8263 47.8608 53.9531 47.895 53.0971 47.895C51.9329 47.9121 50.9912 47.1246 50.9228 45.9604C50.8714 45.1728 50.7002 45.2756 50.1523 45.2071C49.8613 45.1728 49.7757 45.0701 49.7757 44.7791C49.7928 42.502 49.7757 40.225 49.7757 37.9651C49.7757 37.5542 49.7928 37.5199 50.2208 37.537C51.4535 37.6055 52.6691 37.5713 53.9018 37.5713C54.3983 37.5713 54.8948 37.537 55.3913 37.5199C55.7679 37.5028 56.1103 37.383 56.3842 37.109C56.7438 36.7495 56.7095 36.2701 56.3158 35.9619C55.9734 35.688 55.5796 35.6195 55.1687 35.6195C53.5593 35.6195 51.9329 35.6195 50.3235 35.6195C49.7928 35.6195 49.7928 35.6195 49.7928 35.0717C49.7928 34.4725 49.7928 33.8732 49.7928 33.2569C49.7928 33.137 49.7757 32.983 49.9983 33.0343C50.957 33.2911 51.95 33.2226 52.9259 33.2398C53.9702 33.2398 55.0146 33.2398 56.059 33.1884C57.6169 33.1199 58.5415 32.2296 59.1064 30.8771C59.2948 30.432 59.3804 29.9697 59.3804 29.4903C59.3804 28.6686 58.9866 28.2405 58.1648 28.1721C57.6169 28.1207 57.0862 28.1892 56.5555 28.2577C55.0317 28.446 53.508 28.6343 51.9842 28.8911C51.2823 29.011 50.6317 29.2507 50.0839 29.7129C50.0154 29.7643 49.9469 29.9012 49.8442 29.8328C49.7586 29.7814 49.7928 29.6616 49.7928 29.5588C49.7928 27.1448 49.7757 24.7308 49.7928 22.3168C49.7928 21.8203 49.673 21.4094 49.4162 21.0156C48.6286 19.7658 47.8411 18.516 47.0364 17.2833C47.0021 17.2149 46.9165 17.1635 46.985 17.0779C47.0364 17.0265 47.1049 17.0436 47.1733 17.0436C48.6971 17.1464 50.2208 17.1977 51.7446 17.3861C51.813 17.4032 51.8986 17.3861 51.9671 17.3861C52.1726 17.3861 52.2239 17.3005 52.1383 17.1292C51.1111 14.6296 49.9811 12.1643 48.5259 9.8701C48.0123 9.06543 47.2589 8.77438 46.3687 8.63741C44.6395 8.3806 42.9103 8.07243 41.164 7.86698C39.8628 7.7129 38.5617 7.59305 37.2434 7.50745C35.3772 7.40473 33.494 7.31912 31.6278 7.33624C29.522 7.35337 27.4161 7.47321 25.3103 7.64442C22.6395 7.84986 19.9858 8.27788 17.3492 8.68878C16.5274 8.82574 15.8768 9.23663 15.4488 9.9557C15.329 10.144 15.2262 10.3495 15.0893 10.5378C13.7025 12.4553 12.8122 14.6296 11.9048 16.7868C11.648 17.4032 11.6994 17.4545 12.3842 17.3689C13.6511 17.1977 14.9181 17.095 16.185 17.0608C16.2706 17.0608 16.4076 17.0094 16.4589 17.095C16.5274 17.1977 16.3904 17.2833 16.3391 17.3689C15.6543 18.4475 14.9694 19.5433 14.2846 20.6219C13.908 21.2211 13.7196 21.8717 13.7367 22.5736C13.7539 24.1829 13.7367 25.7923 13.7367 27.3845C13.7367 28.1892 13.7196 28.2063 12.915 28.2063C12.3329 28.2063 12.2644 28.1378 12.2644 27.5386C12.2644 26.1005 12.2301 24.6452 12.2644 23.2071C12.2986 22.2141 12.0247 21.3409 11.4768 20.5363C10.8434 19.5775 10.2441 18.5845 9.62779 17.6086C9.35386 17.1977 9.07993 16.7697 8.58343 16.5814C8.37799 16.4958 8.42935 16.3588 8.49783 16.2047C8.85736 15.3145 9.19978 14.4242 9.59355 13.551C10.3811 11.7362 11.3399 9.98994 12.3671 8.295C13.4286 6.5487 14.9523 5.57282 16.9725 5.26465C18.7702 4.99072 20.5508 4.6483 22.3655 4.45998C23.4784 4.34013 24.5912 4.27165 25.7041 4.16893C27.2792 4.03196 28.8543 3.92924 30.4465 3.87788C31.2512 3.84364 32.0387 3.82651 32.8434 3.895C32.9461 3.895 33.0317 3.91212 33.1344 3.91212C35.7368 3.91212 38.322 4.04908 40.8901 4.35725C43.0815 4.63118 45.2558 4.9736 47.4302 5.33313C49.3305 5.6413 50.7173 6.7199 51.7103 8.32924C52.9259 10.2981 53.9702 12.3697 54.8776 14.5098C55.1173 15.1775 55.3913 15.8623 55.6823 16.5643Z" fill="#282828"/>
<path d="M4.76562 41.3036C4.76562 34.9176 4.76562 28.5316 4.76562 22.1285C4.76562 21.8203 4.83411 21.5464 5.00531 21.2896C5.79286 20.0398 6.58041 18.7899 7.36796 17.5401C7.41932 17.4545 7.47068 17.3861 7.53917 17.3005C7.95006 16.7697 8.3952 16.7697 8.78897 17.3176C9.04578 17.6771 9.28547 18.0709 9.52516 18.4647C10.1586 19.4748 10.775 20.4678 11.4256 21.4779C11.6481 21.8203 11.7508 22.1627 11.7508 22.5736C11.7337 24.5938 11.7508 26.6312 11.7337 28.6514C11.7337 28.9596 11.8193 29.0452 12.1275 29.0281C12.6925 29.011 13.2403 29.011 13.8053 29.0281C14.1306 29.0452 14.2333 28.9596 14.2333 28.6172C14.2162 26.46 14.2333 24.3028 14.2162 22.1456C14.2162 21.8203 14.3018 21.5464 14.473 21.2724C15.2606 20.0398 16.031 18.7899 16.8186 17.5573C16.887 17.4374 16.9726 17.3176 17.0582 17.2148C17.4007 16.8211 17.8287 16.804 18.154 17.2148C18.4108 17.5401 18.6162 17.9168 18.8559 18.2592C19.5407 19.3378 20.2256 20.4335 20.9104 21.5121C21.1158 21.8203 21.2014 22.1456 21.2014 22.5222C21.1843 24.5596 21.2014 26.597 21.1843 28.6343C21.1843 28.9254 21.2528 29.0281 21.561 29.0281C22.1259 29.011 22.6738 29.011 23.2388 29.0281C23.5298 29.0452 23.5983 28.9425 23.5983 28.6514C23.5812 26.46 23.5983 24.2685 23.5812 22.0942C23.5812 21.8032 23.6497 21.5806 23.8038 21.3409C24.6084 20.074 25.396 18.8071 26.2007 17.5401C26.2863 17.4032 26.389 17.2491 26.5088 17.1292C26.7828 16.8553 27.1594 16.8553 27.4333 17.1292C27.5532 17.2491 27.673 17.4032 27.7586 17.5573C28.5804 18.8755 29.4022 20.1938 30.2411 21.495C30.4466 21.8203 30.5493 22.1627 30.5493 22.5565C30.5322 24.5767 30.5493 26.5798 30.5493 28.6001C30.5493 29.011 30.5493 29.011 30.9773 29.0281C31.5423 29.0281 32.0902 29.011 32.6551 29.0281C32.9291 29.0452 33.0318 28.9425 33.0318 28.6686C33.0147 26.4771 33.0318 24.2857 33.0147 22.1113C33.0147 21.8374 33.0832 21.5977 33.2372 21.358C34.0419 20.0911 34.8295 18.8242 35.6341 17.5573C35.7026 17.4545 35.7711 17.3347 35.8567 17.2491C36.1991 16.8382 36.61 16.8382 36.9524 17.232C37.0551 17.3518 37.1407 17.4717 37.2092 17.5915C38.031 18.8927 38.8357 20.1767 39.6575 21.4779C39.88 21.8203 39.9828 22.1798 39.9828 22.5907C39.9656 24.611 39.9828 26.6141 39.9656 28.6343C39.9656 28.9425 40.0513 29.0452 40.3594 29.0281C40.873 29.011 41.3867 28.9938 41.9174 29.0281C42.2598 29.0452 42.3283 28.9254 42.3283 28.6001C42.3112 26.4942 42.3283 24.3713 42.3112 22.2654C42.3112 21.9915 42.3797 21.7518 42.5337 21.5121C43.3727 20.211 44.1944 18.8927 45.0162 17.5744C45.0847 17.4717 45.1361 17.3689 45.2217 17.2833C45.6155 16.804 46.0606 16.7868 46.4201 17.3005C46.8481 17.8997 47.2248 18.5331 47.6015 19.1495C48.1151 19.9541 48.6287 20.7759 49.1423 21.5806C49.2793 21.8032 49.3649 22.0429 49.3649 22.3168C49.3649 35.0545 49.3649 47.7923 49.3649 60.5301C49.3649 61.0437 49.1594 61.2834 48.6287 61.2834C46.7797 61.2834 44.9135 61.2834 43.0645 61.2834C42.5166 61.2834 42.3454 61.095 42.3454 60.5301C42.3454 58.2873 42.3454 56.0444 42.3454 53.8016C42.3454 53.4764 42.2598 53.3736 41.9345 53.3907C41.4209 53.425 40.9073 53.4079 40.3765 53.3907C40.0513 53.3736 39.9828 53.4935 39.9828 53.8016C39.9999 55.9931 39.9828 58.1845 39.9828 60.3588C39.9828 61.0608 39.7602 61.2834 39.0583 61.2834C37.2948 61.2834 35.5314 61.2834 33.7509 61.2834C33.6481 61.2834 33.5625 61.2834 33.4598 61.2662C33.1688 61.232 33.0147 61.095 33.0147 60.7526C33.0318 58.4413 33.0147 56.1129 33.0318 53.8016C33.0318 53.4764 32.9462 53.3736 32.6209 53.3907C32.0559 53.425 31.4738 53.4079 30.9088 53.3907C30.6178 53.3736 30.5493 53.4935 30.5493 53.7674C30.5664 55.9588 30.5493 58.1674 30.5493 60.3588C30.5493 61.0608 30.3439 61.2834 29.6248 61.2834C27.8614 61.2834 26.0979 61.2834 24.3174 61.2834C24.2147 61.2834 24.1291 61.2834 24.0263 61.2662C23.7353 61.232 23.5812 61.095 23.5812 60.7526C23.5983 58.4413 23.5812 56.1129 23.5983 53.8016C23.5983 53.4764 23.5127 53.3565 23.1874 53.3736C22.6396 53.4079 22.0917 53.3907 21.5438 53.3736C21.2528 53.3565 21.1843 53.4764 21.1843 53.7503C21.2014 55.9417 21.1843 58.1503 21.1843 60.3417C21.1843 61.0437 20.9789 61.2662 20.2598 61.2662C18.4964 61.2662 16.7329 61.2662 14.9524 61.2662C14.8839 61.2662 14.7983 61.2662 14.7298 61.2662C14.3361 61.232 14.2162 61.1122 14.2162 60.7184C14.2162 58.4071 14.2162 56.1129 14.2162 53.8016C14.2162 53.4764 14.1477 53.3565 13.8053 53.3736C13.2403 53.4079 12.6582 53.3907 12.0933 53.3736C11.8022 53.3565 11.7337 53.4592 11.7337 53.7503C11.7508 55.9417 11.7337 58.1503 11.7337 60.3417C11.7337 61.0437 11.5283 61.2662 10.8092 61.2662C9.04578 61.2662 7.28236 61.2662 5.50181 61.2662C5.43333 61.2662 5.36485 61.2662 5.31348 61.2662C4.88547 61.232 4.76562 61.1293 4.76562 60.6841C4.76562 54.7604 4.76562 48.8367 4.76562 42.9129C4.76562 42.3651 4.76562 41.8343 4.76562 41.3036ZM48.1493 41.2522C48.1493 35.2086 48.1493 29.165 48.1493 23.1215C48.1493 22.7619 48.0808 22.4195 47.8925 22.1113C47.2762 21.1184 46.6598 20.1254 46.0264 19.1324C45.8551 18.8755 45.8038 18.8755 45.6326 19.1495C45.0162 20.1254 44.3999 21.1012 43.8007 22.0771C43.6123 22.4024 43.4754 22.7448 43.4754 23.1386C43.4754 35.2258 43.4754 47.3129 43.4754 59.4001C43.4754 59.8795 43.5267 59.9479 44.0232 59.9479C45.2217 59.9479 46.4201 59.9479 47.6186 59.9479C48.1493 59.9479 48.1664 59.9308 48.1664 59.4001C48.1493 53.3394 48.1493 47.2958 48.1493 41.2522ZM5.84422 41.2865C5.84422 47.3129 5.84422 53.3565 5.84422 59.383C5.84422 59.8795 5.87847 59.9308 6.34072 59.9308C7.55629 59.9308 8.77185 59.9308 9.98742 59.9308C10.4154 59.9308 10.5182 59.8281 10.5182 59.383C10.5182 47.33 10.5182 35.2771 10.5182 23.2071C10.5182 22.8133 10.4326 22.4195 10.2271 22.06C9.61076 21.067 8.99442 20.0911 8.37808 19.0981C8.20687 18.8242 8.13839 18.8242 7.95006 19.1152C7.41932 19.9713 6.9057 20.8273 6.34072 21.6491C5.98119 22.1798 5.84422 22.7277 5.84422 23.344C5.86134 29.3534 5.84422 35.3285 5.84422 41.2865ZM19.9687 41.3207C19.9687 35.3285 19.9687 29.3363 19.9687 23.344C19.9687 22.8989 19.9003 22.4538 19.6606 22.0771C19.0614 21.1012 18.445 20.1254 17.8287 19.1495C17.6403 18.8413 17.5719 18.8584 17.3835 19.1495C16.8528 20.0055 16.3392 20.8615 15.7742 21.6833C15.4147 22.2141 15.2948 22.7619 15.2948 23.3783C15.2948 29.9868 15.2948 36.6125 15.2948 43.2211C15.2948 48.6141 15.2948 53.99 15.2948 59.383C15.2948 59.8795 15.3291 59.9137 15.8256 59.9137C16.9898 59.9137 18.154 59.9137 19.3182 59.9137C19.9174 59.9137 19.9687 59.8623 19.9687 59.2631C19.9687 53.3051 19.9687 47.3129 19.9687 41.3207ZM24.6598 41.3036C24.6598 47.33 24.6598 53.3736 24.6598 59.4001C24.6598 59.8966 24.694 59.9479 25.1905 59.9479C26.3719 59.9479 27.5532 59.9479 28.7516 59.9479C29.2481 59.9479 29.3337 59.8623 29.3337 59.3658C29.3337 58.6468 29.3337 57.9277 29.3337 57.2086C29.3337 45.9261 29.3337 34.6437 29.3337 23.3612C29.3337 22.8989 29.2481 22.4366 28.9913 22.0429C28.3921 21.0841 27.81 20.1425 27.2108 19.2008C27.0053 18.8584 26.9368 18.8584 26.7314 19.2008C26.2007 20.0398 25.7042 20.8958 25.1392 21.7176C24.7796 22.2483 24.6427 22.7962 24.6427 23.4125C24.6598 29.3534 24.6598 35.3285 24.6598 41.3036ZM34.1104 41.2693C34.1104 47.3129 34.1104 53.3565 34.1104 59.4001C34.1104 59.8966 34.1446 59.9479 34.6411 59.9479C35.8225 59.9479 37.0038 59.9479 38.2022 59.9479C38.6987 59.9479 38.7843 59.8623 38.7843 59.3658C38.7843 58.5783 38.7843 57.7908 38.7843 57.0032C38.7843 45.7892 38.7843 34.5752 38.7843 23.3612C38.7843 22.8989 38.6987 22.4366 38.4419 22.0429C37.8427 21.0841 37.2606 20.1425 36.6614 19.2008C36.4559 18.8584 36.3874 18.8584 36.182 19.2008C35.6512 20.0398 35.1548 20.8958 34.5898 21.7176C34.2302 22.2483 34.0933 22.7962 34.0933 23.4125C34.1104 29.3534 34.1104 35.3114 34.1104 41.2693ZM11.7337 41.1666C11.7337 43.3752 11.7337 45.5837 11.7337 47.7923C11.7337 48.0662 11.8022 48.169 12.0933 48.169C12.6925 48.1518 13.2917 48.1518 13.908 48.169C14.1477 48.169 14.2162 48.0834 14.2162 47.8437C14.2162 43.4094 14.2162 38.9923 14.2162 34.5581C14.2162 34.3184 14.1477 34.2328 13.908 34.2328C13.3088 34.2499 12.7267 34.2499 12.1275 34.2328C11.8022 34.2156 11.7337 34.3355 11.7337 34.6437C11.7337 36.818 11.7337 38.9923 11.7337 41.1666ZM33.0318 41.2009C33.0318 39.0094 33.0318 36.8009 33.0318 34.6094C33.0318 34.3355 32.9633 34.2328 32.6723 34.2328C32.073 34.2499 31.4738 34.2499 30.8575 34.2328C30.6178 34.2328 30.5493 34.3184 30.5493 34.5581C30.5493 38.9923 30.5493 43.4094 30.5493 47.8437C30.5493 48.0834 30.6178 48.169 30.8575 48.169C31.4567 48.1518 32.0388 48.1518 32.638 48.169C32.9633 48.1861 33.0318 48.0662 33.0318 47.7581C33.0147 45.5666 33.0318 43.3752 33.0318 41.2009ZM23.5812 41.2351C23.5812 39.0265 23.5812 36.818 23.5812 34.6094C23.5812 34.3355 23.5127 34.2328 23.2217 34.2328C22.6396 34.2499 22.0575 34.2499 21.4754 34.2328C21.2357 34.2328 21.1672 34.3184 21.1672 34.5581C21.1672 38.9923 21.1672 43.4094 21.1672 47.8437C21.1672 48.0834 21.2357 48.169 21.4754 48.169C22.0403 48.1518 22.6224 48.1518 23.1874 48.169C23.5127 48.1861 23.5812 48.0662 23.5812 47.7581C23.5812 45.5837 23.5812 43.4094 23.5812 41.2351ZM42.3283 41.2351C42.3283 39.0265 42.3283 36.818 42.3283 34.6094C42.3283 34.3355 42.2598 34.2328 41.9688 34.2328C41.438 34.2499 40.9073 34.267 40.3937 34.2328C40.0513 34.2156 39.9828 34.3355 39.9828 34.6608C39.9999 36.9549 39.9828 39.2491 39.9828 41.5433C39.9828 43.632 39.9828 45.7207 39.9828 47.8094C39.9828 48.0662 40.0513 48.169 40.3252 48.169C40.8559 48.1518 41.4038 48.1518 41.9345 48.169C42.2598 48.1861 42.3283 48.0662 42.3283 47.7581C42.3283 45.5837 42.3283 43.4094 42.3283 41.2351ZM33.0318 31.6475C33.0318 31.3051 33.0318 30.9627 33.0318 30.6203C33.0318 30.432 32.9633 30.3464 32.7579 30.3464C32.1073 30.3464 31.4567 30.3464 30.8232 30.3464C30.6349 30.3464 30.5493 30.3977 30.5493 30.6032C30.5493 31.288 30.5493 31.9557 30.5493 32.6405C30.5493 32.8117 30.6178 32.8973 30.8061 32.8973C31.4567 32.8973 32.1244 32.8973 32.775 32.8973C32.9804 32.8973 33.0318 32.8117 33.0318 32.6234C33.0147 32.2981 33.0318 31.9728 33.0318 31.6475ZM14.2162 50.8055C14.2162 50.4631 14.2162 50.1207 14.2162 49.7783C14.2162 49.59 14.1477 49.5044 13.9594 49.5044C13.3088 49.5044 12.6411 49.5044 11.9905 49.5044C11.8022 49.5044 11.7508 49.59 11.7508 49.7612C11.7508 50.446 11.7508 51.1137 11.7508 51.7985C11.7508 51.9697 11.8193 52.0553 11.9905 52.0553C12.6411 52.0553 13.3088 52.0553 13.9594 52.0553C14.1649 52.0553 14.2333 51.9697 14.2162 51.7814C14.1991 51.439 14.2162 51.1137 14.2162 50.8055ZM33.0318 50.7713C33.0318 50.4289 33.0318 50.1036 33.0318 49.7612C33.0318 49.5728 32.9804 49.4872 32.775 49.4872C32.1244 49.4872 31.4567 49.4872 30.8061 49.4872C30.6007 49.4872 30.5493 49.5728 30.5493 49.7612C30.5493 50.4289 30.5493 51.0966 30.5493 51.7643C30.5493 51.9526 30.6178 52.0382 30.8232 52.0211C31.4738 52.0211 32.1244 52.0211 32.7579 52.0211C32.9804 52.0211 33.0318 51.9184 33.0318 51.73C33.0147 51.4219 33.0318 51.0966 33.0318 50.7713ZM14.2162 31.6647C14.2162 31.3223 14.2162 30.9798 14.2162 30.6374C14.2162 30.4491 14.1477 30.3635 13.9594 30.3635C13.3088 30.3635 12.6582 30.3635 12.0248 30.3635C11.8364 30.3635 11.7508 30.4149 11.7508 30.6203C11.7508 31.3051 11.7508 31.9728 11.7508 32.6577C11.7508 32.8289 11.8193 32.9145 11.9905 32.9145C12.6411 32.9145 13.3088 32.9145 13.9594 32.9145C14.1649 32.9145 14.2162 32.8289 14.2162 32.6405C14.1991 32.2981 14.2162 31.9728 14.2162 31.6647ZM21.1672 31.6304C21.1672 31.9728 21.1672 32.3152 21.1672 32.6577C21.1672 32.8117 21.2357 32.8973 21.3898 32.8973C22.0403 32.8973 22.6909 32.8973 23.3244 32.8973C23.5127 32.8973 23.5641 32.8117 23.5641 32.6405C23.5641 31.9557 23.5641 31.288 23.5641 30.6032C23.5641 30.432 23.4956 30.3464 23.3244 30.3464C22.6909 30.3464 22.0575 30.3464 21.424 30.3464C21.2186 30.3464 21.1501 30.432 21.1672 30.6203C21.1843 30.9627 21.1672 31.288 21.1672 31.6304ZM23.5812 50.7884C23.5812 50.446 23.5812 50.1207 23.5812 49.7783C23.5812 49.5728 23.5298 49.4872 23.3073 49.4872C22.6909 49.5044 22.0575 49.4872 21.424 49.4872C21.2357 49.4872 21.1501 49.5557 21.1672 49.7612C21.1672 50.4289 21.1672 51.0966 21.1672 51.7643C21.1672 51.9526 21.2186 52.0382 21.424 52.0382C22.0575 52.0382 22.6909 52.0382 23.3244 52.0382C23.5127 52.0382 23.5812 51.9697 23.5641 51.7814C23.5812 51.4561 23.5812 51.1137 23.5812 50.7884ZM42.3283 31.6304C42.3283 31.288 42.3283 30.9456 42.3283 30.6032C42.3283 30.4491 42.2598 30.3635 42.1057 30.3635C41.4723 30.3635 40.8559 30.3635 40.2225 30.3635C40.0341 30.3635 39.9828 30.4491 39.9828 30.6203C39.9828 31.3051 39.9828 31.9728 39.9828 32.6577C39.9828 32.8289 40.0513 32.9145 40.2225 32.9145C40.8388 32.9145 41.4551 32.9145 42.0715 32.9145C42.2769 32.9145 42.3454 32.8289 42.3283 32.6405C42.3283 32.2981 42.3283 31.9557 42.3283 31.6304ZM42.3283 50.8055C42.3283 50.4631 42.3283 50.1207 42.3283 49.7783C42.3283 49.59 42.2598 49.5044 42.0715 49.5044C41.4551 49.5044 40.8388 49.5044 40.2225 49.5044C40.0341 49.5044 39.9828 49.59 39.9828 49.7612C39.9828 50.446 39.9828 51.1137 39.9828 51.7985C39.9828 51.9697 40.0513 52.0553 40.2225 52.0553C40.8388 52.0553 41.4551 52.0553 42.0715 52.0553C42.2769 52.0553 42.3454 51.9697 42.3283 51.7814C42.3283 51.439 42.3283 51.1137 42.3283 50.8055Z" fill="#282828"/>
<path d="M3.29313 47.8608C3.08768 47.8608 2.88223 47.8779 2.67679 47.8608C1.49546 47.7923 0.725033 46.9705 0.725033 45.7207C0.707912 44.4538 0.725033 43.204 0.707912 41.937C0.690792 40.4989 0.519586 39.0779 0.399742 37.6569C0.331259 36.7837 0.262776 35.9277 0.194293 35.0545C0.0915695 33.702 -0.0282746 32.3495 0.00596663 30.997C0.0573285 29.011 0.10869 27.0078 0.63943 25.0732C1.08457 23.4468 1.80363 21.9744 3.13904 20.8615C3.39585 20.639 3.17328 20.5876 3.0192 20.5191C2.24877 20.1938 1.5297 19.7829 0.947602 19.1837C0.605189 18.8242 0.3655 18.4133 0.194293 17.951C0.0915695 17.6429 0.125811 17.3689 0.297017 17.095C0.63943 16.5471 1.15305 16.1876 1.75227 15.9822C2.89935 15.5541 4.0978 15.3658 5.31336 15.2802C5.74138 15.246 6.1694 15.2288 6.59741 15.1946C6.90558 15.1775 7.16239 15.2802 7.36784 15.5199C7.55617 15.7767 7.76161 16.0335 7.96706 16.2903C8.06979 16.4273 8.10403 16.53 7.88146 16.5814C7.45344 16.6841 7.16239 16.958 6.93982 17.3176C6.20364 18.4818 5.46745 19.646 4.73126 20.8102C4.37173 21.3752 4.28613 22.0086 4.28613 22.6592C4.28613 27.9666 4.28613 33.2911 4.28613 38.5985C4.28613 41.4919 4.28613 44.4024 4.28613 47.2958C4.28613 47.8779 4.28613 47.8779 3.72114 47.8779C3.56706 47.8608 3.43009 47.8608 3.29313 47.8608Z" fill="#282828"/>
<path d="M31.6964 16.7526C32.8435 16.7526 34.0077 16.7526 35.1548 16.7526C35.2918 16.7526 35.4801 16.6841 35.5486 16.8211C35.5999 16.9409 35.4116 17.0094 35.3431 17.1121C34.8809 17.7456 34.4871 18.4133 34.0762 19.0639C33.7509 19.5946 33.4085 20.1254 33.0832 20.6561C32.7066 21.2382 32.5353 21.8717 32.5525 22.5565C32.5696 24.1658 32.5525 25.7923 32.5525 27.4016C32.5525 28.2063 32.5353 28.2405 31.7307 28.2405C31.1486 28.2405 31.0801 28.1892 31.063 27.5728C31.063 26.1005 31.0287 24.6452 31.063 23.1728C31.0801 22.2654 30.8575 21.4608 30.361 20.7075C29.6762 19.6631 29.0427 18.6187 28.375 17.5744C28.2552 17.3689 28.084 17.1977 27.947 17.0094C27.8956 16.958 27.81 16.9067 27.8443 16.8211C27.8785 16.7355 27.9813 16.7697 28.0497 16.7697C28.7517 16.7697 29.4536 16.7697 30.1556 16.7697C30.6521 16.7355 31.1657 16.7355 31.6964 16.7526Z" fill="#282828"/>
<path d="M21.6638 25.0561C21.6638 24.3199 21.6467 23.5666 21.6638 22.8304C21.6809 22.1456 21.4926 21.5292 21.133 20.9643C20.3284 19.6973 19.5751 18.4133 18.719 17.1806C18.6848 17.1292 18.5992 17.0608 18.6334 16.9923C18.6677 16.9067 18.7704 16.9409 18.8389 16.9409C19.9517 16.9067 21.0817 16.8553 22.1945 16.8211C23.3587 16.7868 24.54 16.7697 25.7214 16.7526C25.8412 16.7526 26.0295 16.6841 26.0809 16.804C26.1494 16.9409 25.9611 17.0094 25.8926 17.095C25.4132 17.7456 25.0194 18.4304 24.5914 19.0981C24.2661 19.5946 23.9751 20.1082 23.6498 20.6047C23.256 21.2211 23.0677 21.8888 23.0848 22.625C23.1019 24.2172 23.0848 25.8094 23.0848 27.4016C23.0848 28.2063 23.0677 28.2234 22.263 28.2234C21.7665 28.2234 21.6809 28.1549 21.6809 27.6413C21.6638 26.7853 21.6638 25.9292 21.6638 25.0561Z" fill="#282828"/>
<path d="M40.4791 25.039C40.4791 24.3028 40.4791 23.5666 40.4791 22.8475C40.4791 22.2312 40.3593 21.6491 40.034 21.1184C39.2635 19.8685 38.476 18.6359 37.7056 17.4032C37.6713 17.3518 37.62 17.3005 37.5857 17.2491C37.5172 17.095 37.2433 16.9923 37.3289 16.8382C37.4145 16.6841 37.6713 16.7697 37.8425 16.7697C38.1678 16.7697 38.4931 16.7868 38.8184 16.804C40.7188 16.8553 42.6021 16.8896 44.5024 16.9409C44.5881 16.9409 44.7079 16.9067 44.7593 17.0094C44.7935 17.095 44.7079 17.1635 44.6565 17.232C43.8861 18.4304 43.1328 19.6289 42.3624 20.8273C41.9857 21.4094 41.8145 22.06 41.8316 22.7619C41.8488 24.2686 41.8316 25.7752 41.8316 27.2818C41.8316 28.2234 41.7803 28.2748 40.8558 28.2234C40.6674 28.2063 40.5647 28.1207 40.5305 27.9495C40.4791 27.744 40.4791 27.5386 40.4791 27.3331C40.4791 26.5627 40.4791 25.8094 40.4791 25.039Z" fill="#282828"/>
<path d="M12.23 41.2865C12.23 40.1736 12.2471 39.0608 12.23 37.9651C12.23 37.6398 12.3327 37.5199 12.658 37.5542C12.9148 37.5713 13.1716 37.5713 13.4284 37.5542C13.6339 37.537 13.7195 37.6398 13.7195 37.8452C13.7195 37.9137 13.7195 37.9822 13.7195 38.0335C13.7195 40.2079 13.7195 42.3822 13.7195 44.5565C13.7195 45.0359 13.7195 45.0359 13.2401 45.0359C12.23 45.0359 12.23 45.0359 12.23 44.0429C12.23 43.1184 12.23 42.211 12.23 41.2865Z" fill="#282828"/>
<path d="M12.949 35.5853C12.8121 35.5853 12.6922 35.5853 12.5553 35.5853C12.384 35.5853 12.2128 35.5682 12.2471 35.3285C12.2642 35.1402 12.2984 34.9518 12.5553 34.969C12.8292 34.969 13.086 34.9861 13.3599 34.969C13.6339 34.9518 13.6852 35.1402 13.6852 35.3456C13.7023 35.5853 13.5311 35.5853 13.3599 35.5853C13.223 35.5853 13.086 35.5853 12.949 35.5853Z" fill="#282828"/>
<path d="M31.046 39.8655C31.046 38.5129 31.046 37.1604 31.046 35.7908C31.046 35.688 31.046 35.6024 31.046 35.4997C31.0631 35.0032 31.1144 34.9518 31.6109 34.9518C31.7137 34.9518 31.8335 34.9518 31.9362 34.9518C32.467 34.9518 32.5183 35.0032 32.5183 35.5339C32.5183 38.4445 32.5183 41.3721 32.5183 44.2826C32.5183 44.5223 32.4498 44.6421 32.1759 44.625C31.902 44.6079 31.6109 44.6079 31.337 44.625C31.0631 44.6421 31.0117 44.488 31.0117 44.2655C31.0117 43.3923 31.0117 42.5192 31.0117 41.646C31.046 41.081 31.046 40.4647 31.046 39.8655Z" fill="#282828"/>
<path d="M23.1017 39.9339C23.1017 41.3721 23.1017 42.7931 23.1017 44.2312C23.1017 44.5565 22.999 44.6935 22.6737 44.6421C22.4854 44.625 22.2799 44.625 22.0916 44.6421C21.7663 44.6763 21.6636 44.5565 21.6636 44.2312C21.6807 41.3721 21.6636 38.5129 21.6636 35.6367C21.6636 35.551 21.6636 35.4654 21.6807 35.3798C21.6978 35.0888 21.8005 34.9176 22.143 34.9518C22.2457 34.9689 22.3655 34.9518 22.4682 34.9518C23.0503 34.9518 23.1017 34.9861 23.1017 35.6024C23.1017 37.0577 23.1017 38.4958 23.1017 39.9339Z" fill="#282828"/>
<path d="M40.4795 39.8655C40.4795 38.5301 40.4795 37.1946 40.4795 35.8592C40.4795 35.7394 40.4795 35.6196 40.4795 35.4997C40.4966 35.0032 40.548 34.9518 41.0445 34.9518C41.8321 34.9518 41.8321 34.9518 41.8321 35.7565C41.8321 38.5472 41.8321 41.3378 41.8321 44.1285C41.8321 44.6421 41.8321 44.6421 41.3356 44.6421C40.4624 44.6421 40.4624 44.6421 40.4624 43.769C40.4795 42.4678 40.4795 41.1666 40.4795 39.8655Z" fill="#282828"/>
</g>
<defs>
<clipPath id="clip0_5611_1112">
<rect width="64" height="64" fill="white" transform="translate(0 0.565643)"/>
</clipPath>
</defs>
</svg>
