<svg width="64" height="64" viewBox="0 0 64 64" fill="none" xmlns="http://www.w3.org/2000/svg">
<path d="M52.9252 28.1H45.2627V32.5125H52.9252V28.1Z" fill="#FFE836"/>
<path d="M49.4623 19.8625C49.6623 19.6 49.8498 19.3625 50.0373 19.125C50.1748 18.95 50.3498 18.8625 50.5873 18.8625C51.7123 18.875 52.8248 19 53.9123 19.3125C54.2748 19.4125 54.6248 19.5625 54.9248 19.8C55.4623 20.225 55.5623 20.7 55.2248 21.2875C54.9373 21.7875 54.5123 22.1375 54.0123 22.4125C53.7748 22.55 53.5248 22.65 53.2748 22.775C53.1623 22.825 53.0998 22.8875 53.2248 22.9875C54.5498 24.075 55.0248 25.575 55.2873 27.1875C55.5123 28.5625 55.5748 29.95 55.5123 31.35C55.4498 32.625 55.3623 33.9125 55.2498 35.1875C55.1498 36.225 55.0873 37.275 55.0373 38.3125C54.9873 39.275 54.9748 40.2375 55.0123 41.1875C55.0373 41.975 54.3623 42.775 53.4498 42.75C52.1248 42.7125 50.7873 42.75 49.4623 42.725C48.8373 42.7125 48.1998 42.7375 47.5748 42.7375C46.7248 42.75 46.0373 42.175 45.9873 41.325C45.9498 40.75 45.8248 40.825 45.4248 40.775C45.2123 40.75 45.1498 40.675 45.1498 40.4625C45.1623 38.8 45.1498 37.1375 45.1498 35.4875C45.1498 35.1875 45.1623 35.1625 45.4748 35.175C46.3748 35.225 47.2623 35.2 48.1623 35.2C48.5248 35.2 48.8873 35.175 49.2498 35.1625C49.5248 35.15 49.7748 35.0625 49.9748 34.8625C50.2373 34.6 50.2123 34.25 49.9248 34.025C49.6748 33.825 49.3873 33.775 49.0873 33.775C47.9123 33.775 46.7248 33.775 45.5498 33.775C45.1623 33.775 45.1623 33.775 45.1623 33.375C45.1623 32.9375 45.1623 32.5 45.1623 32.05C45.1623 31.9625 45.1498 31.85 45.3123 31.8875C46.0123 32.075 46.7373 32.025 47.4498 32.0375C48.2123 32.0375 48.9748 32.0375 49.7373 32C50.8748 31.95 51.5498 31.3 51.9623 30.3125C52.0998 29.9875 52.1623 29.65 52.1623 29.3C52.1623 28.7 51.8748 28.3875 51.2748 28.3375C50.8748 28.3 50.4873 28.35 50.0998 28.4C48.9873 28.5375 47.8748 28.675 46.7623 28.8625C46.2498 28.95 45.7748 29.125 45.3748 29.4625C45.3248 29.5 45.2748 29.6 45.1998 29.55C45.1373 29.5125 45.1623 29.425 45.1623 29.35C45.1623 27.5875 45.1498 25.825 45.1623 24.0625C45.1623 23.7 45.0748 23.4 44.8873 23.1125C44.3123 22.2 43.7373 21.2875 43.1498 20.3875C43.1248 20.3375 43.0623 20.3 43.1123 20.2375C43.1498 20.2 43.1998 20.2125 43.2498 20.2125C44.3623 20.2875 45.4748 20.325 46.5873 20.4625C46.6373 20.475 46.6998 20.4625 46.7498 20.4625C46.8998 20.4625 46.9373 20.4 46.8748 20.275C46.1248 18.45 45.2998 16.65 44.2373 14.975C43.8623 14.3875 43.3123 14.175 42.6623 14.075C41.3998 13.8875 40.1373 13.6625 38.8623 13.5125C37.9123 13.4 36.9623 13.3125 35.9998 13.25C34.6373 13.175 33.2623 13.1125 31.8998 13.125C30.3623 13.1375 28.8248 13.225 27.2873 13.35C25.3373 13.5 23.3998 13.8125 21.4748 14.1125C20.8748 14.2125 20.3998 14.5125 20.0873 15.0375C19.9998 15.175 19.9248 15.325 19.8248 15.4625C18.8123 16.8625 18.1623 18.45 17.4998 20.025C17.3123 20.475 17.3498 20.5125 17.8498 20.45C18.7748 20.325 19.6998 20.25 20.6248 20.225C20.6873 20.225 20.7873 20.1875 20.8248 20.25C20.8748 20.325 20.7748 20.3875 20.7373 20.45C20.2373 21.2375 19.7373 22.0375 19.2373 22.825C18.9623 23.2625 18.8248 23.7375 18.8373 24.25C18.8498 25.425 18.8373 26.6 18.8373 27.7625C18.8373 28.35 18.8248 28.3625 18.2373 28.3625C17.8123 28.3625 17.7623 28.3125 17.7623 27.875C17.7623 26.825 17.7373 25.7625 17.7623 24.7125C17.7873 23.9875 17.5873 23.35 17.1873 22.7625C16.7248 22.0625 16.2873 21.3375 15.8373 20.625C15.6373 20.325 15.4373 20.0125 15.0748 19.875C14.9248 19.8125 14.9623 19.7125 15.0123 19.6C15.2748 18.95 15.5248 18.3 15.8123 17.6625C16.3873 16.3375 17.0873 15.0625 17.8373 13.825C18.6123 12.55 19.7248 11.8375 21.1998 11.6125C22.5123 11.4125 23.8123 11.1625 25.1373 11.025C25.9498 10.9375 26.7623 10.8875 27.5748 10.8125C28.7248 10.7125 29.8748 10.6375 31.0373 10.6C31.6248 10.575 32.1998 10.5625 32.7873 10.6125C32.8623 10.6125 32.9248 10.625 32.9998 10.625C34.8998 10.625 36.7873 10.725 38.6623 10.95C40.2623 11.15 41.8498 11.4 43.4373 11.6625C44.8248 11.8875 45.8373 12.675 46.5623 13.85C47.4498 15.2875 48.2123 16.8 48.8748 18.3625C49.0498 18.85 49.2498 19.35 49.4623 19.8625Z" fill="#FCFCFC"/>
<path d="M12.2876 37.925C12.2876 33.2625 12.2876 28.6 12.2876 23.925C12.2876 23.7 12.3376 23.5 12.4626 23.3125C13.0376 22.4 13.6126 21.4875 14.1876 20.575C14.2251 20.5125 14.2626 20.4625 14.3126 20.4C14.6126 20.0125 14.9376 20.0125 15.2251 20.4125C15.4126 20.675 15.5876 20.9625 15.7626 21.25C16.2251 21.9875 16.6751 22.7125 17.1501 23.45C17.3126 23.7 17.3876 23.95 17.3876 24.25C17.3751 25.725 17.3876 27.2125 17.3751 28.6875C17.3751 28.9125 17.4376 28.975 17.6626 28.9625C18.0751 28.95 18.4751 28.95 18.8876 28.9625C19.1251 28.975 19.2001 28.9125 19.2001 28.6625C19.1876 27.0875 19.2001 25.5125 19.1876 23.9375C19.1876 23.7 19.2501 23.5 19.3751 23.3C19.9501 22.4 20.5126 21.4875 21.0876 20.5875C21.1376 20.5 21.2001 20.4125 21.2626 20.3375C21.5126 20.05 21.8251 20.0375 22.0626 20.3375C22.2501 20.575 22.4001 20.85 22.5751 21.1C23.0751 21.8875 23.5751 22.6875 24.0751 23.475C24.2251 23.7 24.2876 23.9375 24.2876 24.2125C24.2751 25.7 24.2876 27.1875 24.2751 28.675C24.2751 28.8875 24.3251 28.9625 24.5501 28.9625C24.9626 28.95 25.3626 28.95 25.7751 28.9625C25.9876 28.975 26.0376 28.9 26.0376 28.6875C26.0251 27.0875 26.0376 25.4875 26.0251 23.9C26.0251 23.6875 26.0751 23.525 26.1876 23.35C26.7751 22.425 27.3501 21.5 27.9376 20.575C28.0001 20.475 28.0751 20.3625 28.1626 20.275C28.3626 20.075 28.6376 20.075 28.8376 20.275C28.9251 20.3625 29.0126 20.475 29.0751 20.5875C29.6751 21.55 30.2751 22.5125 30.8876 23.4625C31.0376 23.7 31.1126 23.95 31.1126 24.2375C31.1001 25.7125 31.1126 27.175 31.1126 28.65C31.1126 28.95 31.1126 28.95 31.4251 28.9625C31.8376 28.9625 32.2376 28.95 32.6501 28.9625C32.8501 28.975 32.9251 28.9 32.9251 28.7C32.9126 27.1 32.9251 25.5 32.9126 23.9125C32.9126 23.7125 32.9626 23.5375 33.0751 23.3625C33.6626 22.4375 34.2376 21.5125 34.8251 20.5875C34.8751 20.5125 34.9251 20.425 34.9876 20.3625C35.2376 20.0625 35.5376 20.0625 35.7876 20.35C35.8626 20.4375 35.9251 20.525 35.9751 20.6125C36.5751 21.5625 37.1626 22.5 37.7626 23.45C37.9251 23.7 38.0001 23.9625 38.0001 24.2625C37.9876 25.7375 38.0001 27.2 37.9876 28.675C37.9876 28.9 38.0501 28.975 38.2751 28.9625C38.6501 28.95 39.0251 28.9375 39.4126 28.9625C39.6626 28.975 39.7126 28.8875 39.7126 28.65C39.7001 27.1125 39.7126 25.5625 39.7001 24.025C39.7001 23.825 39.7501 23.65 39.8626 23.475C40.4751 22.525 41.0751 21.5625 41.6751 20.6C41.7251 20.525 41.7626 20.45 41.8251 20.3875C42.1126 20.0375 42.4376 20.025 42.7001 20.4C43.0126 20.8375 43.2876 21.3 43.5626 21.75C43.9376 22.3375 44.3126 22.9375 44.6876 23.525C44.7876 23.6875 44.8501 23.8625 44.8501 24.0625C44.8501 33.3625 44.8501 42.6625 44.8501 51.9625C44.8501 52.3375 44.7001 52.5125 44.3126 52.5125C42.9626 52.5125 41.6001 52.5125 40.2501 52.5125C39.8501 52.5125 39.7251 52.375 39.7251 51.9625C39.7251 50.325 39.7251 48.6875 39.7251 47.05C39.7251 46.8125 39.6626 46.7375 39.4251 46.75C39.0501 46.775 38.6751 46.7625 38.2876 46.75C38.0501 46.7375 38.0001 46.825 38.0001 47.05C38.0126 48.65 38.0001 50.25 38.0001 51.8375C38.0001 52.35 37.8376 52.5125 37.3251 52.5125C36.0376 52.5125 34.7501 52.5125 33.4501 52.5125C33.3751 52.5125 33.3126 52.5125 33.2376 52.5C33.0251 52.475 32.9126 52.375 32.9126 52.125C32.9251 50.4375 32.9126 48.7375 32.9251 47.05C32.9251 46.8125 32.8626 46.7375 32.6251 46.75C32.2126 46.775 31.7876 46.7625 31.3751 46.75C31.1626 46.7375 31.1126 46.825 31.1126 47.025C31.1251 48.625 31.1126 50.2375 31.1126 51.8375C31.1126 52.35 30.9626 52.5125 30.4376 52.5125C29.1501 52.5125 27.8626 52.5125 26.5626 52.5125C26.4876 52.5125 26.4251 52.5125 26.3501 52.5C26.1376 52.475 26.0251 52.375 26.0251 52.125C26.0376 50.4375 26.0251 48.7375 26.0376 47.05C26.0376 46.8125 25.9751 46.725 25.7376 46.7375C25.3376 46.7625 24.9376 46.75 24.5376 46.7375C24.3251 46.725 24.2751 46.8125 24.2751 47.0125C24.2876 48.6125 24.2751 50.225 24.2751 51.825C24.2751 52.3375 24.1251 52.5 23.6001 52.5C22.3126 52.5 21.0251 52.5 19.7251 52.5C19.6751 52.5 19.6126 52.5 19.5626 52.5C19.2751 52.475 19.1876 52.3875 19.1876 52.1C19.1876 50.4125 19.1876 48.7375 19.1876 47.05C19.1876 46.8125 19.1376 46.725 18.8876 46.7375C18.4751 46.7625 18.0501 46.75 17.6376 46.7375C17.4251 46.725 17.3751 46.8 17.3751 47.0125C17.3876 48.6125 17.3751 50.225 17.3751 51.825C17.3751 52.3375 17.2251 52.5 16.7001 52.5C15.4126 52.5 14.1251 52.5 12.8251 52.5C12.7751 52.5 12.7251 52.5 12.6876 52.5C12.3751 52.475 12.2876 52.4 12.2876 52.075C12.2876 47.75 12.2876 43.425 12.2876 39.1C12.2876 38.7 12.2876 38.3125 12.2876 37.925ZM43.9626 37.8875C43.9626 33.475 43.9626 29.0625 43.9626 24.65C43.9626 24.3875 43.9126 24.1375 43.7751 23.9125C43.3251 23.1875 42.8751 22.4625 42.4126 21.7375C42.2876 21.55 42.2501 21.55 42.1251 21.75C41.6751 22.4625 41.2251 23.175 40.7876 23.8875C40.6501 24.125 40.5501 24.375 40.5501 24.6625C40.5501 33.4875 40.5501 42.3125 40.5501 51.1375C40.5501 51.4875 40.5876 51.5375 40.9501 51.5375C41.8251 51.5375 42.7001 51.5375 43.5751 51.5375C43.9626 51.5375 43.9751 51.525 43.9751 51.1375C43.9626 46.7125 43.9626 42.3 43.9626 37.8875ZM13.0751 37.9125C13.0751 42.3125 13.0751 46.725 13.0751 51.125C13.0751 51.4875 13.1001 51.525 13.4376 51.525C14.3251 51.525 15.2126 51.525 16.1001 51.525C16.4126 51.525 16.4876 51.45 16.4876 51.125C16.4876 42.325 16.4876 33.525 16.4876 24.7125C16.4876 24.425 16.4251 24.1375 16.2751 23.875C15.8251 23.15 15.3751 22.4375 14.9251 21.7125C14.8001 21.5125 14.7501 21.5125 14.6126 21.725C14.2251 22.35 13.8501 22.975 13.4376 23.575C13.1751 23.9625 13.0751 24.3625 13.0751 24.8125C13.0876 29.2 13.0751 33.5625 13.0751 37.9125ZM23.3876 37.9375C23.3876 33.5625 23.3876 29.1875 23.3876 24.8125C23.3876 24.4875 23.3376 24.1625 23.1626 23.8875C22.7251 23.175 22.2751 22.4625 21.8251 21.75C21.6876 21.525 21.6376 21.5375 21.5001 21.75C21.1126 22.375 20.7376 23 20.3251 23.6C20.0626 23.9875 19.9751 24.3875 19.9751 24.8375C19.9751 29.6625 19.9751 34.5 19.9751 39.325C19.9751 43.2625 19.9751 47.1875 19.9751 51.125C19.9751 51.4875 20.0001 51.5125 20.3626 51.5125C21.2126 51.5125 22.0626 51.5125 22.9126 51.5125C23.3501 51.5125 23.3876 51.475 23.3876 51.0375C23.3876 46.6875 23.3876 42.3125 23.3876 37.9375ZM26.8126 37.925C26.8126 42.325 26.8126 46.7375 26.8126 51.1375C26.8126 51.5 26.8376 51.5375 27.2001 51.5375C28.0626 51.5375 28.9251 51.5375 29.8001 51.5375C30.1626 51.5375 30.2251 51.475 30.2251 51.1125C30.2251 50.5875 30.2251 50.0625 30.2251 49.5375C30.2251 41.3 30.2251 33.0625 30.2251 24.825C30.2251 24.4875 30.1626 24.15 29.9751 23.8625C29.5376 23.1625 29.1126 22.475 28.6751 21.7875C28.5251 21.5375 28.4751 21.5375 28.3251 21.7875C27.9376 22.4 27.5751 23.025 27.1626 23.625C26.9001 24.0125 26.8001 24.4125 26.8001 24.8625C26.8126 29.2 26.8126 33.5625 26.8126 37.925ZM33.7126 37.9C33.7126 42.3125 33.7126 46.725 33.7126 51.1375C33.7126 51.5 33.7376 51.5375 34.1001 51.5375C34.9626 51.5375 35.8251 51.5375 36.7001 51.5375C37.0626 51.5375 37.1251 51.475 37.1251 51.1125C37.1251 50.5375 37.1251 49.9625 37.1251 49.3875C37.1251 41.2 37.1251 33.0125 37.1251 24.825C37.1251 24.4875 37.0626 24.15 36.8751 23.8625C36.4376 23.1625 36.0126 22.475 35.5751 21.7875C35.4251 21.5375 35.3751 21.5375 35.2251 21.7875C34.8376 22.4 34.4751 23.025 34.0626 23.625C33.8001 24.0125 33.7001 24.4125 33.7001 24.8625C33.7126 29.2 33.7126 33.55 33.7126 37.9ZM17.3751 37.825C17.3751 39.4375 17.3751 41.05 17.3751 42.6625C17.3751 42.8625 17.4251 42.9375 17.6376 42.9375C18.0751 42.925 18.5126 42.925 18.9626 42.9375C19.1376 42.9375 19.1876 42.875 19.1876 42.7C19.1876 39.4625 19.1876 36.2375 19.1876 33C19.1876 32.825 19.1376 32.7625 18.9626 32.7625C18.5251 32.775 18.1001 32.775 17.6626 32.7625C17.4251 32.75 17.3751 32.8375 17.3751 33.0625C17.3751 34.65 17.3751 36.2375 17.3751 37.825ZM32.9251 37.85C32.9251 36.25 32.9251 34.6375 32.9251 33.0375C32.9251 32.8375 32.8751 32.7625 32.6626 32.7625C32.2251 32.775 31.7876 32.775 31.3376 32.7625C31.1626 32.7625 31.1126 32.825 31.1126 33C31.1126 36.2375 31.1126 39.4625 31.1126 42.7C31.1126 42.875 31.1626 42.9375 31.3376 42.9375C31.7751 42.925 32.2001 42.925 32.6376 42.9375C32.8751 42.95 32.9251 42.8625 32.9251 42.6375C32.9126 41.0375 32.9251 39.4375 32.9251 37.85ZM26.0251 37.875C26.0251 36.2625 26.0251 34.65 26.0251 33.0375C26.0251 32.8375 25.9751 32.7625 25.7626 32.7625C25.3376 32.775 24.9126 32.775 24.4876 32.7625C24.3126 32.7625 24.2626 32.825 24.2626 33C24.2626 36.2375 24.2626 39.4625 24.2626 42.7C24.2626 42.875 24.3126 42.9375 24.4876 42.9375C24.9001 42.925 25.3251 42.925 25.7376 42.9375C25.9751 42.95 26.0251 42.8625 26.0251 42.6375C26.0251 41.05 26.0251 39.4625 26.0251 37.875ZM39.7126 37.875C39.7126 36.2625 39.7126 34.65 39.7126 33.0375C39.7126 32.8375 39.6626 32.7625 39.4501 32.7625C39.0626 32.775 38.6751 32.7875 38.3001 32.7625C38.0501 32.75 38.0001 32.8375 38.0001 33.075C38.0126 34.75 38.0001 36.425 38.0001 38.1C38.0001 39.625 38.0001 41.15 38.0001 42.675C38.0001 42.8625 38.0501 42.9375 38.2501 42.9375C38.6376 42.925 39.0376 42.925 39.4251 42.9375C39.6626 42.95 39.7126 42.8625 39.7126 42.6375C39.7126 41.05 39.7126 39.4625 39.7126 37.875ZM32.9251 30.875C32.9251 30.625 32.9251 30.375 32.9251 30.125C32.9251 29.9875 32.8751 29.925 32.7251 29.925C32.2501 29.925 31.7751 29.925 31.3126 29.925C31.1751 29.925 31.1126 29.9625 31.1126 30.1125C31.1126 30.6125 31.1126 31.1 31.1126 31.6C31.1126 31.725 31.1626 31.7875 31.3001 31.7875C31.7751 31.7875 32.2626 31.7875 32.7376 31.7875C32.8876 31.7875 32.9251 31.725 32.9251 31.5875C32.9126 31.35 32.9251 31.1125 32.9251 30.875ZM19.1876 44.8625C19.1876 44.6125 19.1876 44.3625 19.1876 44.1125C19.1876 43.975 19.1376 43.9125 19.0001 43.9125C18.5251 43.9125 18.0376 43.9125 17.5626 43.9125C17.4251 43.9125 17.3876 43.975 17.3876 44.1C17.3876 44.6 17.3876 45.0875 17.3876 45.5875C17.3876 45.7125 17.4376 45.775 17.5626 45.775C18.0376 45.775 18.5251 45.775 19.0001 45.775C19.1501 45.775 19.2001 45.7125 19.1876 45.575C19.1751 45.325 19.1876 45.0875 19.1876 44.8625ZM32.9251 44.8375C32.9251 44.5875 32.9251 44.35 32.9251 44.1C32.9251 43.9625 32.8876 43.9 32.7376 43.9C32.2626 43.9 31.7751 43.9 31.3001 43.9C31.1501 43.9 31.1126 43.9625 31.1126 44.1C31.1126 44.5875 31.1126 45.075 31.1126 45.5625C31.1126 45.7 31.1626 45.7625 31.3126 45.75C31.7876 45.75 32.2626 45.75 32.7251 45.75C32.8876 45.75 32.9251 45.675 32.9251 45.5375C32.9126 45.3125 32.9251 45.075 32.9251 44.8375ZM19.1876 30.8875C19.1876 30.6375 19.1876 30.3875 19.1876 30.1375C19.1876 30 19.1376 29.9375 19.0001 29.9375C18.5251 29.9375 18.0501 29.9375 17.5876 29.9375C17.4501 29.9375 17.3876 29.975 17.3876 30.125C17.3876 30.625 17.3876 31.1125 17.3876 31.6125C17.3876 31.7375 17.4376 31.8 17.5626 31.8C18.0376 31.8 18.5251 31.8 19.0001 31.8C19.1501 31.8 19.1876 31.7375 19.1876 31.6C19.1751 31.35 19.1876 31.1125 19.1876 30.8875ZM24.2626 30.8625C24.2626 31.1125 24.2626 31.3625 24.2626 31.6125C24.2626 31.725 24.3126 31.7875 24.4251 31.7875C24.9001 31.7875 25.3751 31.7875 25.8376 31.7875C25.9751 31.7875 26.0126 31.725 26.0126 31.6C26.0126 31.1 26.0126 30.6125 26.0126 30.1125C26.0126 29.9875 25.9626 29.925 25.8376 29.925C25.3751 29.925 24.9126 29.925 24.4501 29.925C24.3001 29.925 24.2501 29.9875 24.2626 30.125C24.2751 30.375 24.2626 30.6125 24.2626 30.8625ZM26.0251 44.85C26.0251 44.6 26.0251 44.3625 26.0251 44.1125C26.0251 43.9625 25.9876 43.9 25.8251 43.9C25.3751 43.9125 24.9126 43.9 24.4501 43.9C24.3126 43.9 24.2501 43.95 24.2626 44.1C24.2626 44.5875 24.2626 45.075 24.2626 45.5625C24.2626 45.7 24.3001 45.7625 24.4501 45.7625C24.9126 45.7625 25.3751 45.7625 25.8376 45.7625C25.9751 45.7625 26.0251 45.7125 26.0126 45.575C26.0251 45.3375 26.0251 45.0875 26.0251 44.85ZM39.7126 30.8625C39.7126 30.6125 39.7126 30.3625 39.7126 30.1125C39.7126 30 39.6626 29.9375 39.5501 29.9375C39.0876 29.9375 38.6376 29.9375 38.1751 29.9375C38.0376 29.9375 38.0001 30 38.0001 30.125C38.0001 30.625 38.0001 31.1125 38.0001 31.6125C38.0001 31.7375 38.0501 31.8 38.1751 31.8C38.6251 31.8 39.0751 31.8 39.5251 31.8C39.6751 31.8 39.7251 31.7375 39.7126 31.6C39.7126 31.35 39.7126 31.1 39.7126 30.8625ZM39.7126 44.8625C39.7126 44.6125 39.7126 44.3625 39.7126 44.1125C39.7126 43.975 39.6626 43.9125 39.5251 43.9125C39.0751 43.9125 38.6251 43.9125 38.1751 43.9125C38.0376 43.9125 38.0001 43.975 38.0001 44.1C38.0001 44.6 38.0001 45.0875 38.0001 45.5875C38.0001 45.7125 38.0501 45.775 38.1751 45.775C38.6251 45.775 39.0751 45.775 39.5251 45.775C39.6751 45.775 39.7251 45.7125 39.7126 45.575C39.7126 45.325 39.7126 45.0875 39.7126 44.8625Z" fill="#FCFCFC"/>
<path d="M11.2125 42.7125C11.0625 42.7125 10.9125 42.725 10.7625 42.7125C9.89996 42.6625 9.33746 42.0625 9.33746 41.15C9.32496 40.225 9.33746 39.3125 9.32496 38.3875C9.31246 37.3375 9.18746 36.3 9.09996 35.2625C9.04996 34.625 8.99996 34 8.94996 33.3625C8.87496 32.375 8.78746 31.3875 8.81246 30.4C8.84996 28.95 8.88746 27.4875 9.27496 26.075C9.59996 24.8875 10.125 23.8125 11.1 23C11.2875 22.8375 11.125 22.8 11.0125 22.75C10.45 22.5125 9.92496 22.2125 9.49996 21.775C9.24996 21.5125 9.07496 21.2125 8.94996 20.875C8.87496 20.65 8.89996 20.45 9.02496 20.25C9.27496 19.85 9.64996 19.5875 10.0875 19.4375C10.925 19.125 11.8 18.9875 12.6875 18.925C13 18.9 13.3125 18.8875 13.625 18.8625C13.85 18.85 14.0375 18.925 14.1875 19.1C14.325 19.2875 14.475 19.475 14.625 19.6625C14.7 19.7625 14.725 19.8375 14.5625 19.875C14.25 19.95 14.0375 20.15 13.875 20.4125C13.3375 21.2625 12.8 22.1125 12.2625 22.9625C12 23.375 11.9375 23.8375 11.9375 24.3125C11.9375 28.1875 11.9375 32.075 11.9375 35.95C11.9375 38.0625 11.9375 40.1875 11.9375 42.3C11.9375 42.725 11.9375 42.725 11.525 42.725C11.4125 42.7125 11.3125 42.7125 11.2125 42.7125Z" fill="#FCFCFC"/>
<path d="M31.9501 20C32.7876 20 33.6376 20 34.4751 20C34.5751 20 34.7126 19.95 34.7626 20.05C34.8001 20.1375 34.6626 20.1875 34.6126 20.2625C34.2751 20.725 33.9876 21.2125 33.6876 21.6875C33.4501 22.075 33.2001 22.4625 32.9626 22.85C32.6876 23.275 32.5626 23.7375 32.5751 24.2375C32.5876 25.4125 32.5751 26.6 32.5751 27.775C32.5751 28.3625 32.5626 28.3875 31.9751 28.3875C31.5501 28.3875 31.5001 28.35 31.4876 27.9C31.4876 26.825 31.4626 25.7625 31.4876 24.6875C31.5001 24.025 31.3376 23.4375 30.9751 22.8875C30.4751 22.125 30.0126 21.3625 29.5251 20.6C29.4376 20.45 29.3126 20.325 29.2126 20.1875C29.1751 20.15 29.1126 20.1125 29.1376 20.05C29.1626 19.9875 29.2376 20.0125 29.2876 20.0125C29.8001 20.0125 30.3126 20.0125 30.8251 20.0125C31.1876 19.9875 31.5626 19.9875 31.9501 20Z" fill="#FCFCFC"/>
<path d="M24.625 26.0625C24.625 25.525 24.6125 24.975 24.625 24.4375C24.6375 23.9375 24.5 23.4875 24.2375 23.075C23.65 22.15 23.1 21.2125 22.475 20.3125C22.45 20.275 22.3875 20.225 22.4125 20.175C22.4375 20.1125 22.5125 20.1375 22.5625 20.1375C23.375 20.1125 24.2 20.075 25.0125 20.05C25.8625 20.025 26.725 20.0125 27.5875 20C27.675 20 27.8125 19.95 27.85 20.0375C27.9 20.1375 27.7625 20.1875 27.7125 20.25C27.3625 20.725 27.075 21.225 26.7625 21.7125C26.525 22.075 26.3125 22.45 26.075 22.8125C25.7875 23.2625 25.65 23.75 25.6625 24.2875C25.675 25.45 25.6625 26.6125 25.6625 27.775C25.6625 28.3625 25.65 28.375 25.0625 28.375C24.7 28.375 24.6375 28.325 24.6375 27.95C24.625 27.325 24.625 26.7 24.625 26.0625Z" fill="#FCFCFC"/>
<path d="M38.3623 26.05C38.3623 25.5125 38.3623 24.975 38.3623 24.45C38.3623 24 38.2748 23.575 38.0373 23.1875C37.4748 22.275 36.8998 21.375 36.3373 20.475C36.3123 20.4375 36.2748 20.4 36.2498 20.3625C36.1998 20.25 35.9998 20.175 36.0623 20.0625C36.1248 19.95 36.3123 20.0125 36.4373 20.0125C36.6748 20.0125 36.9123 20.025 37.1498 20.0375C38.5373 20.075 39.9123 20.1 41.2998 20.1375C41.3623 20.1375 41.4498 20.1125 41.4873 20.1875C41.5123 20.25 41.4498 20.3 41.4123 20.35C40.8498 21.225 40.2998 22.1 39.7373 22.975C39.4623 23.4 39.3373 23.875 39.3498 24.3875C39.3623 25.4875 39.3498 26.5875 39.3498 27.6875C39.3498 28.375 39.3123 28.4125 38.6373 28.375C38.4998 28.3625 38.4248 28.3 38.3998 28.175C38.3623 28.025 38.3623 27.875 38.3623 27.725C38.3623 27.1625 38.3623 26.6125 38.3623 26.05Z" fill="#FCFCFC"/>
<path d="M17.7373 37.9125C17.7373 37.1 17.7498 36.2875 17.7373 35.4875C17.7373 35.25 17.8123 35.1625 18.0498 35.1875C18.2373 35.2 18.4248 35.2 18.6123 35.1875C18.7623 35.175 18.8248 35.25 18.8248 35.4C18.8248 35.45 18.8248 35.5 18.8248 35.5375C18.8248 37.125 18.8248 38.7125 18.8248 40.3C18.8248 40.65 18.8248 40.65 18.4748 40.65C17.7373 40.65 17.7373 40.65 17.7373 39.925C17.7373 39.25 17.7373 38.5875 17.7373 37.9125Z" fill="#FCFCFC"/>
<path d="M18.2623 33.75C18.1623 33.75 18.0748 33.75 17.9748 33.75C17.8498 33.75 17.7248 33.7375 17.7498 33.5625C17.7623 33.425 17.7873 33.2875 17.9748 33.3C18.1748 33.3 18.3623 33.3125 18.5623 33.3C18.7623 33.2875 18.7998 33.425 18.7998 33.575C18.8123 33.75 18.6873 33.75 18.5623 33.75C18.4623 33.75 18.3623 33.75 18.2623 33.75Z" fill="#FCFCFC"/>
<path d="M31.4752 36.875C31.4752 35.8875 31.4752 34.9 31.4752 33.9C31.4752 33.825 31.4752 33.7625 31.4752 33.6875C31.4877 33.325 31.5252 33.2875 31.8877 33.2875C31.9627 33.2875 32.0502 33.2875 32.1252 33.2875C32.5127 33.2875 32.5502 33.325 32.5502 33.7125C32.5502 35.8375 32.5502 37.975 32.5502 40.1C32.5502 40.275 32.5002 40.3625 32.3002 40.35C32.1002 40.3375 31.8877 40.3375 31.6877 40.35C31.4877 40.3625 31.4502 40.25 31.4502 40.0875C31.4502 39.45 31.4502 38.8125 31.4502 38.175C31.4752 37.7625 31.4752 37.3125 31.4752 36.875Z" fill="#FCFCFC"/>
<path d="M25.675 36.925C25.675 37.975 25.675 39.0125 25.675 40.0625C25.675 40.3 25.6 40.4 25.3625 40.3625C25.225 40.35 25.075 40.35 24.9375 40.3625C24.7 40.3875 24.625 40.3 24.625 40.0625C24.6375 37.975 24.625 35.8875 24.625 33.7875C24.625 33.725 24.625 33.6625 24.6375 33.6C24.65 33.3875 24.725 33.2625 24.975 33.2875C25.05 33.3 25.1375 33.2875 25.2125 33.2875C25.6375 33.2875 25.675 33.3125 25.675 33.7625C25.675 34.825 25.675 35.875 25.675 36.925Z" fill="#FCFCFC"/>
<path d="M38.3626 36.875C38.3626 35.9 38.3626 34.925 38.3626 33.95C38.3626 33.8625 38.3626 33.775 38.3626 33.6875C38.3751 33.325 38.4126 33.2875 38.7751 33.2875C39.3501 33.2875 39.3501 33.2875 39.3501 33.875C39.3501 35.9125 39.3501 37.95 39.3501 39.9875C39.3501 40.3625 39.3501 40.3625 38.9876 40.3625C38.3501 40.3625 38.3501 40.3625 38.3501 39.725C38.3626 38.775 38.3626 37.825 38.3626 36.875Z" fill="#FCFCFC"/>
</svg>
