<svg width="24" height="24" viewBox="0 0 24 24" fill="none" xmlns="http://www.w3.org/2000/svg">
<path d="M10.3633 4.25837L2.25653 17.792C2.08938 18.0815 2.00094 18.4097 2.00001 18.7439C1.99907 19.0782 2.08567 19.4068 2.25119 19.6972C2.41671 19.9876 2.65538 20.2296 2.94346 20.3991C3.23153 20.5686 3.55897 20.6597 3.8932 20.6634H20.1068C20.441 20.6597 20.7685 20.5686 21.0565 20.3991C21.3446 20.2296 21.5833 19.9876 21.7488 19.6972C21.9143 19.4068 22.0009 19.0782 22 18.7439C21.9991 18.4097 21.9106 18.0815 21.7435 17.792L13.6367 4.25837C13.466 3.97708 13.2258 3.74452 12.9391 3.58311C12.6524 3.42171 12.329 3.33691 12 3.33691C11.671 3.33691 11.3476 3.42171 11.0609 3.58311C10.7742 3.74452 10.534 3.97708 10.3633 4.25837Z" fill="#E3A400"/>
<path d="M12 9.17822V13.0067" stroke="white" stroke-width="1.5" stroke-linecap="round" stroke-linejoin="round"/>
<path d="M12 16.835H12.01" stroke="white" stroke-width="1.5" stroke-linecap="round" stroke-linejoin="round"/>
</svg>
