<?xml version="1.0" encoding="UTF-8"?>
<svg height="600" width="800" xmlns="http://www.w3.org/2000/svg" xmlns:xlink="http://www.w3.org/1999/xlink">
    <g id="Notes" font-family="'LucidaGrande', 'Lucida Grande', sans-serif" font-size="13">
        <rect fill="white" height="600.0" width="800.0" x="0.0" y="0.0" />
        <g font-size="13">
            <text x="18.0" y="176.0">Small</text>
            <text x="18.0" y="376.0">Medium</text>
            <text x="18.0" y="576.0">Large</text>
        </g>
        <g font-size="9">
            <text x="250.0" y="30.0">Ultralight</text>
            <text x="450.0" y="30.0">Regular</text>
            <text x="650.0" y="30.0">Black</text>
            <text id="template-version" fill="#505050" text-anchor="end" x="785.0" y="575.0">Template v.3.0</text>
            <a href="https://github.com/swhitty/SwiftDraw">
                <text fill="#505050" text-anchor="end" x="785.0" y="590.0">https://github.com/swhitty/SwiftDraw</text>
            </a>
        </g>
    </g>
    <g id="Guides" stroke="rgb(39, 170, 225)" stroke-width="0.5">
        <path id="Capline-S" d="M18,76 l800,0" />
        <path id="H-reference" d="M85,145.755 L87.685,145.755 L113.369,79.287 L114.052,79.287 L114.052,76 L112.148,76 L85,145.755 Z M95.693,121.536 L130.996,121.536 L130.263,119.313 L96.474,119.313 L95.693,121.536 Z M139.15,145.755 L141.787,145.755 L114.638,76 L113.466,76 L113.466,79.287 L139.15,145.755 Z" stroke="none" />
        <path id="Baseline-S" d="M18,146 l800,0" />
        <path id="left-margin-Ultralight-S" d="M211,56 l0,110" />
        <path id="right-margin-Ultralight-S" d="M319,56 l0,110" />
        <path id="left-margin-Regular-S" d="M411,56 l0,110" />
        <path id="right-margin-Regular-S" d="M519,56 l0,110" />
        <path id="left-margin-Black-S" d="M611,56 l0,110" />
        <path id="right-margin-Black-S" d="M719,56 l0,110" />
        <path id="Capline-M" d="M18,276 l800,0" />
        <path id="Baseline-M" d="M18,346 l800,0" />
        <path id="Capline-L" d="M18,476 l800,0" />
        <path id="Baseline-L" d="M18,546 l800,0" />
    </g>
    <g id="Symbols">
        <g id="Ultralight-S">
            <path d="M279.979,121.961 C279.964,121.387 279.498,120.926 278.918,120.907 L275.454,120.907 L277.409,118.977 C277.835,118.556 277.835,117.87 277.409,117.45 C276.982,117.029 276.287,117.029 275.861,117.45 L272.357,120.906 L269.974,120.906 L269.854,120.532 C269.637,119.859 269.266,119.227 268.782,118.708 L268.512,118.417 L269.706,116.38 L274.493,115.114 C274.776,115.039 275.012,114.86 275.159,114.611 C275.306,114.361 275.345,114.07 275.269,113.792 C275.141,113.32 274.706,112.991 274.211,112.991 C274.115,112.991 274.02,113.004 273.926,113.028 L271.255,113.734 L272.994,110.763 C273.139,110.512 273.179,110.222 273.102,109.942 C273.026,109.663 272.846,109.43 272.592,109.287 C272.07,108.989 271.399,109.166 271.096,109.683 L269.358,112.653 L268.643,110.016 C268.514,109.545 268.08,109.216 267.585,109.216 C267.292,109.216 267.017,109.328 266.81,109.532 C266.604,109.736 266.489,110.009 266.489,110.298 C266.489,110.392 266.502,110.487 266.527,110.579 L267.811,115.304 L266.619,117.34 L266.229,117.254 C265.531,117.101 264.792,117.101 264.092,117.254 L263.703,117.34 L262.51,115.304 L263.794,110.58 C263.87,110.301 263.832,110.009 263.686,109.759 C263.542,109.512 263.31,109.335 263.034,109.258 L263.019,109.253 C262.927,109.229 262.832,109.217 262.738,109.217 L262.737,109.217 C262.243,109.217 261.808,109.546 261.679,110.018 L260.96,112.651 L259.223,109.681 C259.029,109.353 258.664,109.147 258.275,109.147 C257.984,109.147 257.709,109.261 257.503,109.466 C257.297,109.671 257.184,109.941 257.184,110.23 C257.184,110.418 257.236,110.604 257.331,110.767 L259.068,113.734 L256.396,113.027 C256.304,113.003 256.207,112.99 256.111,112.99 C255.507,112.99 255.016,113.474 255.016,114.07 C255.016,114.559 255.35,114.988 255.828,115.114 L260.615,116.379 L261.809,118.416 L261.539,118.707 C261.055,119.227 260.685,119.859 260.468,120.532 L260.347,120.906 L257.964,120.906 L254.46,117.45 C254.034,117.029 253.338,117.029 252.912,117.45 C252.705,117.654 252.591,117.925 252.591,118.213 C252.591,118.501 252.705,118.772 252.912,118.976 L254.867,120.906 L251.397,120.906 C251.107,120.915 250.837,121.034 250.638,121.242 C250.436,121.452 250.33,121.725 250.338,122.014 C250.353,122.587 250.817,123.049 251.398,123.067 L254.868,123.067 L252.913,124.998 C252.707,125.202 252.593,125.473 252.594,125.762 C252.594,126.051 252.709,126.322 252.916,126.526 C253.123,126.729 253.397,126.842 253.687,126.842 L253.69,126.842 C253.977,126.842 254.258,126.727 254.46,126.526 L257.965,123.068 L260.347,123.068 L260.468,123.443 C260.685,124.116 261.056,124.747 261.54,125.267 L261.81,125.558 L260.616,127.594 L255.829,128.861 C255.546,128.935 255.31,129.114 255.163,129.363 C255.016,129.614 254.977,129.905 255.053,130.183 C255.18,130.654 255.615,130.983 256.109,130.983 L256.111,130.983 C256.206,130.983 256.3,130.971 256.391,130.947 L259.065,130.242 L257.327,133.212 C257.181,133.462 257.143,133.753 257.219,134.032 C257.295,134.311 257.477,134.544 257.732,134.688 C257.896,134.782 258.083,134.831 258.274,134.832 C258.661,134.832 259.025,134.624 259.221,134.29 L260.959,131.321 L261.676,133.957 C261.752,134.236 261.933,134.469 262.186,134.613 C262.44,134.757 262.735,134.796 263.017,134.72 C263.3,134.645 263.536,134.467 263.682,134.217 C263.828,133.967 263.867,133.676 263.791,133.397 L262.507,128.673 L263.7,126.637 L264.089,126.723 C264.788,126.876 265.527,126.876 266.226,126.723 L266.615,126.637 L267.808,128.673 L266.524,133.397 C266.369,133.972 266.716,134.566 267.299,134.719 C267.882,134.874 268.484,134.53 268.639,133.955 L269.356,131.318 L271.094,134.289 C271.29,134.622 271.654,134.829 272.045,134.83 C272.334,134.829 272.609,134.715 272.815,134.509 C273.021,134.303 273.134,134.031 273.133,133.743 C273.133,133.556 273.082,133.37 272.987,133.208 L271.249,130.237 L273.922,130.945 C274.506,131.099 275.107,130.756 275.263,130.18 C275.42,129.605 275.072,129.011 274.489,128.857 L269.701,127.59 L268.508,125.554 L268.777,125.263 C269.262,124.742 269.632,124.112 269.849,123.438 L269.97,123.064 L272.353,123.064 L275.857,126.521 C276.064,126.725 276.339,126.838 276.632,126.838 C276.925,126.838 277.199,126.725 277.406,126.521 C277.612,126.317 277.727,126.045 277.727,125.758 C277.727,125.47 277.612,125.198 277.406,124.994 L275.447,123.064 L278.918,123.064 C279.519,123.046 279.994,122.55 279.979,121.956 L279.979,121.961 Z M267.891,121.998 C267.889,123.482 266.665,124.689 265.162,124.692 L265.161,124.692 C264.431,124.692 263.746,124.411 263.23,123.904 C262.714,123.395 262.429,122.718 262.429,121.998 C262.429,120.512 263.653,119.304 265.159,119.303 L265.16,119.303 C266.666,119.303 267.89,120.51 267.891,121.996 L267.891,121.998 Z" />
            <path d="M228.791,142.301 C225.518,136.257 223.779,129.472 223.779,122.431 C223.779,108.563 230.571,95.854 241.706,88.153 C242.337,87.717 242.495,86.852 242.059,86.22 C241.622,85.589 240.757,85.431 240.125,85.868 C228.246,94.083 221,107.642 221,122.431 C221,129.937 222.856,137.176 226.348,143.624 C226.713,144.299 227.556,144.55 228.231,144.185 C228.906,143.819 229.157,142.976 228.791,142.301 Z M303.652,143.624 C307.144,137.176 309,129.937 309,122.431 C309,97.956 289.303,78.111 265,78.111 C261.903,78.111 258.847,78.433 255.865,79.067 C255.114,79.227 254.635,79.965 254.795,80.716 C254.955,81.466 255.693,81.945 256.443,81.786 C259.235,81.192 262.098,80.89 265,80.89 C287.763,80.89 306.221,99.486 306.221,122.431 C306.221,129.472 304.482,136.257 301.209,142.301 C300.843,142.976 301.094,143.819 301.769,144.185 C302.444,144.55 303.287,144.299 303.652,143.624 Z" />
            <path d="M242.768,83.205 C242.768,80.136 245.257,77.648 248.326,77.648 C251.396,77.648 253.884,80.136 253.884,83.205 C253.884,86.275 251.396,88.763 248.326,88.763 C245.257,88.763 242.768,86.275 242.768,83.205 Z" />
            <path d="M263.611,79.5 L263.611,86.911 C263.611,87.678 264.233,88.3 265,88.3 C265.767,88.3 266.389,87.678 266.389,86.911 L266.389,79.5 C266.389,78.733 265.767,78.111 265,78.111 C264.233,78.111 263.611,78.733 263.611,79.5 Z" />
            <path d="M307.611,122.574 L300.2,122.574 C299.433,122.574 298.811,123.196 298.811,123.963 C298.811,124.731 299.433,125.353 300.2,125.353 L307.611,125.353 C308.378,125.353 309,124.731 309,123.963 C309,123.196 308.378,122.574 307.611,122.574 Z" />
            <path d="M229.8,122.574 L222.389,122.574 C221.622,122.574 221,123.196 221,123.963 C221,124.731 221.622,125.353 222.389,125.353 L229.8,125.353 C230.567,125.353 231.189,124.731 231.189,123.963 C231.189,123.196 230.567,122.574 229.8,122.574 Z" />
            <path d="M295.512,93.339 L290.272,98.579 C289.73,99.121 289.73,100.001 290.272,100.544 C290.815,101.086 291.695,101.086 292.237,100.544 L297.477,95.304 C298.02,94.761 298.02,93.881 297.477,93.339 C296.935,92.796 296.055,92.796 295.512,93.339 Z" />
            <path d="M232.523,95.304 L237.763,100.544 C238.305,101.086 239.185,101.086 239.728,100.544 C240.27,100.001 240.27,99.121 239.728,98.579 L234.488,93.339 C233.945,92.796 233.065,92.796 232.523,93.339 C231.98,93.881 231.98,94.761 232.523,95.304 Z" />
        </g>
        <g id="Regular-S">
            <path d="M479.979,121.961 C479.964,121.387 479.498,120.926 478.918,120.907 L475.454,120.907 L477.409,118.977 C477.835,118.556 477.835,117.87 477.409,117.45 C476.982,117.029 476.287,117.029 475.861,117.45 L472.357,120.906 L469.974,120.906 L469.854,120.532 C469.637,119.859 469.266,119.227 468.782,118.708 L468.512,118.417 L469.706,116.38 L474.493,115.114 C474.776,115.039 475.012,114.86 475.159,114.611 C475.306,114.361 475.345,114.07 475.269,113.792 C475.141,113.32 474.706,112.991 474.211,112.991 C474.115,112.991 474.02,113.004 473.926,113.028 L471.255,113.734 L472.994,110.763 C473.139,110.512 473.179,110.222 473.102,109.942 C473.026,109.663 472.846,109.43 472.592,109.287 C472.07,108.989 471.399,109.166 471.096,109.683 L469.358,112.653 L468.643,110.016 C468.514,109.545 468.08,109.216 467.585,109.216 C467.292,109.216 467.017,109.328 466.81,109.532 C466.604,109.736 466.489,110.009 466.489,110.298 C466.489,110.392 466.502,110.487 466.527,110.579 L467.811,115.304 L466.619,117.34 L466.229,117.254 C465.531,117.101 464.792,117.101 464.092,117.254 L463.703,117.34 L462.51,115.304 L463.794,110.58 C463.87,110.301 463.832,110.009 463.686,109.759 C463.542,109.512 463.31,109.335 463.034,109.258 L463.019,109.253 C462.927,109.229 462.832,109.217 462.738,109.217 L462.737,109.217 C462.243,109.217 461.808,109.546 461.679,110.018 L460.96,112.651 L459.223,109.681 C459.029,109.353 458.664,109.147 458.275,109.147 C457.984,109.147 457.709,109.261 457.503,109.466 C457.297,109.671 457.184,109.941 457.184,110.23 C457.184,110.418 457.236,110.604 457.331,110.767 L459.068,113.734 L456.396,113.027 C456.304,113.003 456.207,112.99 456.111,112.99 C455.507,112.99 455.016,113.474 455.016,114.07 C455.016,114.559 455.35,114.988 455.828,115.114 L460.615,116.379 L461.809,118.416 L461.539,118.707 C461.055,119.227 460.685,119.859 460.468,120.532 L460.347,120.906 L457.964,120.906 L454.46,117.45 C454.034,117.029 453.338,117.029 452.912,117.45 C452.705,117.654 452.591,117.925 452.591,118.213 C452.591,118.501 452.705,118.772 452.912,118.976 L454.867,120.906 L451.397,120.906 C451.107,120.915 450.837,121.034 450.638,121.242 C450.436,121.452 450.33,121.725 450.338,122.014 C450.353,122.587 450.817,123.049 451.398,123.067 L454.868,123.067 L452.913,124.998 C452.707,125.202 452.593,125.473 452.594,125.762 C452.594,126.051 452.709,126.322 452.916,126.526 C453.123,126.729 453.397,126.842 453.687,126.842 L453.69,126.842 C453.977,126.842 454.258,126.727 454.46,126.526 L457.965,123.068 L460.347,123.068 L460.468,123.443 C460.685,124.116 461.056,124.747 461.54,125.267 L461.81,125.558 L460.616,127.594 L455.829,128.861 C455.546,128.935 455.31,129.114 455.163,129.363 C455.016,129.614 454.977,129.905 455.053,130.183 C455.18,130.654 455.615,130.983 456.109,130.983 L456.111,130.983 C456.206,130.983 456.3,130.971 456.391,130.947 L459.065,130.242 L457.327,133.212 C457.181,133.462 457.143,133.753 457.219,134.032 C457.295,134.311 457.477,134.544 457.732,134.688 C457.896,134.782 458.083,134.831 458.274,134.832 C458.661,134.832 459.025,134.624 459.221,134.29 L460.959,131.321 L461.676,133.957 C461.752,134.236 461.933,134.469 462.186,134.613 C462.44,134.757 462.735,134.796 463.017,134.72 C463.3,134.645 463.536,134.467 463.682,134.217 C463.828,133.967 463.867,133.676 463.791,133.397 L462.507,128.673 L463.7,126.637 L464.089,126.723 C464.788,126.876 465.527,126.876 466.226,126.723 L466.615,126.637 L467.808,128.673 L466.524,133.397 C466.369,133.972 466.716,134.566 467.299,134.719 C467.882,134.874 468.484,134.53 468.639,133.955 L469.356,131.318 L471.094,134.289 C471.29,134.622 471.654,134.829 472.045,134.83 C472.334,134.829 472.609,134.715 472.815,134.509 C473.021,134.303 473.134,134.031 473.133,133.743 C473.133,133.556 473.082,133.37 472.987,133.208 L471.249,130.237 L473.922,130.945 C474.506,131.099 475.107,130.756 475.263,130.18 C475.42,129.605 475.072,129.011 474.489,128.857 L469.701,127.59 L468.508,125.554 L468.777,125.263 C469.262,124.742 469.632,124.112 469.849,123.438 L469.97,123.064 L472.353,123.064 L475.857,126.521 C476.064,126.725 476.339,126.838 476.632,126.838 C476.925,126.838 477.199,126.725 477.406,126.521 C477.612,126.317 477.727,126.045 477.727,125.758 C477.727,125.47 477.612,125.198 477.406,124.994 L475.447,123.064 L478.918,123.064 C479.519,123.046 479.994,122.55 479.979,121.956 L479.979,121.961 Z M467.891,121.998 C467.889,123.482 466.665,124.689 465.162,124.692 L465.161,124.692 C464.431,124.692 463.746,124.411 463.23,123.904 C462.714,123.395 462.429,122.718 462.429,121.998 C462.429,120.512 463.653,119.304 465.159,119.303 L465.16,119.303 C466.666,119.303 467.89,120.51 467.891,121.996 L467.891,121.998 Z" />
            <path d="M428.791,142.301 C425.518,136.257 423.779,129.472 423.779,122.431 C423.779,108.563 430.571,95.854 441.706,88.153 C442.337,87.717 442.495,86.852 442.059,86.22 C441.622,85.589 440.757,85.431 440.125,85.868 C428.246,94.083 421,107.642 421,122.431 C421,129.937 422.856,137.176 426.348,143.624 C426.713,144.299 427.556,144.55 428.231,144.185 C428.906,143.819 429.157,142.976 428.791,142.301 Z M503.652,143.624 C507.144,137.176 509,129.937 509,122.431 C509,97.956 489.303,78.111 465,78.111 C461.903,78.111 458.847,78.433 455.865,79.067 C455.114,79.227 454.635,79.965 454.795,80.716 C454.955,81.466 455.693,81.945 456.443,81.786 C459.235,81.192 462.098,80.89 465,80.89 C487.763,80.89 506.221,99.486 506.221,122.431 C506.221,129.472 504.482,136.257 501.209,142.301 C500.843,142.976 501.094,143.819 501.769,144.185 C502.444,144.55 503.287,144.299 503.652,143.624 Z" />
            <path d="M442.768,83.205 C442.768,80.136 445.257,77.648 448.326,77.648 C451.396,77.648 453.884,80.136 453.884,83.205 C453.884,86.275 451.396,88.763 448.326,88.763 C445.257,88.763 442.768,86.275 442.768,83.205 Z" />
            <path d="M463.611,79.5 L463.611,86.911 C463.611,87.678 464.233,88.3 465,88.3 C465.767,88.3 466.389,87.678 466.389,86.911 L466.389,79.5 C466.389,78.733 465.767,78.111 465,78.111 C464.233,78.111 463.611,78.733 463.611,79.5 Z" />
            <path d="M507.611,122.574 L500.2,122.574 C499.433,122.574 498.811,123.196 498.811,123.963 C498.811,124.731 499.433,125.353 500.2,125.353 L507.611,125.353 C508.378,125.353 509,124.731 509,123.963 C509,123.196 508.378,122.574 507.611,122.574 Z" />
            <path d="M429.8,122.574 L422.389,122.574 C421.622,122.574 421,123.196 421,123.963 C421,124.731 421.622,125.353 422.389,125.353 L429.8,125.353 C430.567,125.353 431.189,124.731 431.189,123.963 C431.189,123.196 430.567,122.574 429.8,122.574 Z" />
            <path d="M495.512,93.339 L490.272,98.579 C489.73,99.121 489.73,100.001 490.272,100.544 C490.815,101.086 491.695,101.086 492.237,100.544 L497.477,95.304 C498.02,94.761 498.02,93.881 497.477,93.339 C496.935,92.796 496.055,92.796 495.512,93.339 Z" />
            <path d="M432.523,95.304 L437.763,100.544 C438.305,101.086 439.185,101.086 439.728,100.544 C440.27,100.001 440.27,99.121 439.728,98.579 L434.488,93.339 C433.945,92.796 433.065,92.796 432.523,93.339 C431.98,93.881 431.98,94.761 432.523,95.304 Z" />
        </g>
        <g id="Black-S">
            <path d="M679.979,121.961 C679.964,121.387 679.498,120.926 678.918,120.907 L675.454,120.907 L677.409,118.977 C677.835,118.556 677.835,117.87 677.409,117.45 C676.982,117.029 676.287,117.029 675.861,117.45 L672.357,120.906 L669.974,120.906 L669.854,120.532 C669.637,119.859 669.266,119.227 668.782,118.708 L668.512,118.417 L669.706,116.38 L674.493,115.114 C674.776,115.039 675.012,114.86 675.159,114.611 C675.306,114.361 675.345,114.07 675.269,113.792 C675.142,113.32 674.706,112.991 674.211,112.991 C674.115,112.991 674.02,113.004 673.926,113.028 L671.255,113.734 L672.994,110.763 C673.139,110.512 673.179,110.222 673.103,109.942 C673.026,109.663 672.846,109.43 672.592,109.287 C672.07,108.989 671.399,109.166 671.096,109.683 L669.359,112.653 L668.643,110.016 C668.514,109.545 668.08,109.216 667.585,109.216 C667.292,109.216 667.017,109.328 666.81,109.532 C666.604,109.736 666.489,110.009 666.489,110.298 C666.489,110.392 666.503,110.487 666.528,110.579 L667.811,115.304 L666.619,117.34 L666.229,117.254 C665.531,117.101 664.792,117.101 664.092,117.254 L663.703,117.34 L662.51,115.304 L663.794,110.58 C663.87,110.301 663.832,110.009 663.686,109.759 C663.542,109.512 663.31,109.335 663.034,109.258 L663.019,109.253 C662.927,109.229 662.832,109.217 662.738,109.217 L662.737,109.217 C662.243,109.217 661.808,109.546 661.679,110.018 L660.96,112.651 L659.224,109.681 C659.029,109.353 658.664,109.147 658.275,109.147 C657.984,109.147 657.709,109.261 657.503,109.466 C657.297,109.671 657.185,109.941 657.185,110.23 C657.185,110.418 657.236,110.604 657.331,110.767 L659.068,113.734 L656.396,113.027 C656.304,113.003 656.207,112.99 656.111,112.99 C655.507,112.99 655.016,113.474 655.016,114.07 C655.016,114.559 655.35,114.988 655.828,115.114 L660.615,116.379 L661.809,118.416 L661.539,118.707 C661.055,119.227 660.685,119.859 660.468,120.532 L660.348,120.906 L657.964,120.906 L654.46,117.45 C654.034,117.029 653.338,117.029 652.912,117.45 C652.705,117.654 652.591,117.925 652.591,118.213 C652.591,118.501 652.705,118.772 652.912,118.976 L654.867,120.906 L651.397,120.906 C651.107,120.915 650.837,121.034 650.638,121.242 C650.436,121.452 650.33,121.725 650.338,122.014 C650.353,122.587 650.817,123.049 651.398,123.067 L654.868,123.067 L652.913,124.998 C652.707,125.202 652.593,125.473 652.594,125.762 C652.594,126.051 652.709,126.322 652.916,126.526 C653.123,126.729 653.397,126.842 653.688,126.842 L653.69,126.842 C653.977,126.842 654.258,126.727 654.46,126.526 L657.965,123.068 L660.348,123.068 L660.468,123.443 C660.685,124.116 661.056,124.747 661.54,125.267 L661.81,125.558 L660.616,127.594 L655.829,128.861 C655.546,128.935 655.31,129.114 655.163,129.363 C655.016,129.614 654.977,129.905 655.053,130.183 C655.18,130.654 655.616,130.983 656.109,130.983 L656.111,130.983 C656.206,130.983 656.3,130.971 656.391,130.947 L659.065,130.242 L657.327,133.212 C657.181,133.462 657.143,133.753 657.219,134.032 C657.295,134.311 657.477,134.544 657.732,134.688 C657.896,134.782 658.083,134.831 658.274,134.832 C658.661,134.832 659.025,134.624 659.221,134.29 L660.959,131.321 L661.676,133.957 C661.752,134.236 661.933,134.469 662.186,134.613 C662.44,134.757 662.735,134.796 663.018,134.72 C663.3,134.645 663.536,134.467 663.682,134.217 C663.828,133.967 663.867,133.676 663.791,133.397 L662.507,128.673 L663.7,126.637 L664.089,126.723 C664.788,126.876 665.527,126.876 666.226,126.723 L666.616,126.637 L667.808,128.673 L666.524,133.397 C666.369,133.972 666.716,134.566 667.299,134.719 C667.882,134.874 668.484,134.53 668.639,133.955 L669.356,131.318 L671.094,134.289 C671.29,134.622 671.654,134.829 672.045,134.83 C672.334,134.829 672.609,134.715 672.815,134.509 C673.021,134.303 673.134,134.031 673.133,133.743 C673.133,133.556 673.082,133.37 672.987,133.208 L671.25,130.237 L673.922,130.945 C674.506,131.099 675.107,130.756 675.263,130.18 C675.42,129.605 675.072,129.011 674.489,128.857 L669.701,127.59 L668.508,125.554 L668.778,125.263 C669.262,124.742 669.632,124.112 669.849,123.438 L669.97,123.064 L672.353,123.064 L675.857,126.521 C676.064,126.725 676.339,126.838 676.632,126.838 C676.925,126.838 677.199,126.725 677.406,126.521 C677.612,126.317 677.727,126.045 677.727,125.758 C677.727,125.47 677.612,125.198 677.406,124.994 L675.447,123.064 L678.918,123.064 C679.519,123.046 679.994,122.55 679.979,121.956 L679.979,121.961 Z M667.891,121.998 C667.889,123.482 666.665,124.689 665.162,124.692 L665.161,124.692 C664.431,124.692 663.747,124.411 663.23,123.904 C662.714,123.395 662.429,122.718 662.429,121.998 C662.429,120.512 663.653,119.304 665.159,119.303 L665.16,119.303 C666.666,119.303 667.89,120.51 667.891,121.996 L667.891,121.998 Z" />
            <path d="M628.791,142.301 C625.518,136.257 623.779,129.472 623.779,122.431 C623.779,108.563 630.571,95.854 641.706,88.153 C642.337,87.717 642.495,86.852 642.059,86.22 C641.622,85.589 640.757,85.431 640.125,85.868 C628.246,94.083 621,107.642 621,122.431 C621,129.937 622.856,137.176 626.348,143.624 C626.713,144.299 627.556,144.55 628.231,144.185 C628.906,143.819 629.157,142.976 628.791,142.301 Z M703.652,143.624 C707.144,137.176 709,129.937 709,122.431 C709,97.956 689.303,78.111 665,78.111 C661.903,78.111 658.847,78.433 655.865,79.067 C655.114,79.227 654.635,79.965 654.795,80.716 C654.955,81.466 655.693,81.945 656.443,81.786 C659.235,81.192 662.098,80.89 665,80.89 C687.763,80.89 706.221,99.486 706.221,122.431 C706.221,129.472 704.482,136.257 701.209,142.301 C700.843,142.976 701.094,143.819 701.769,144.185 C702.444,144.55 703.287,144.299 703.652,143.624 Z" />
            <path d="M642.768,83.205 C642.768,80.136 645.257,77.648 648.326,77.648 C651.396,77.648 653.884,80.136 653.884,83.205 C653.884,86.275 651.396,88.763 648.326,88.763 C645.257,88.763 642.768,86.275 642.768,83.205 Z" />
            <path d="M663.611,79.5 L663.611,86.911 C663.611,87.678 664.233,88.3 665,88.3 C665.767,88.3 666.39,87.678 666.39,86.911 L666.39,79.5 C666.39,78.733 665.767,78.111 665,78.111 C664.233,78.111 663.611,78.733 663.611,79.5 Z" />
            <path d="M707.611,122.574 L700.2,122.574 C699.433,122.574 698.811,123.196 698.811,123.963 C698.811,124.731 699.433,125.353 700.2,125.353 L707.611,125.353 C708.378,125.353 709,124.731 709,123.963 C709,123.196 708.378,122.574 707.611,122.574 Z" />
            <path d="M629.8,122.574 L622.39,122.574 C621.622,122.574 621,123.196 621,123.963 C621,124.731 621.622,125.353 622.39,125.353 L629.8,125.353 C630.567,125.353 631.19,124.731 631.19,123.963 C631.19,123.196 630.567,122.574 629.8,122.574 Z" />
            <path d="M695.512,93.339 L690.272,98.579 C689.73,99.121 689.73,100.001 690.272,100.544 C690.815,101.086 691.695,101.086 692.237,100.544 L697.477,95.304 C698.02,94.761 698.02,93.881 697.477,93.339 C696.935,92.796 696.055,92.796 695.512,93.339 Z" />
            <path d="M632.523,95.304 L637.763,100.544 C638.305,101.086 639.185,101.086 639.728,100.544 C640.27,100.001 640.27,99.121 639.728,98.579 L634.488,93.339 C633.945,92.796 633.065,92.796 632.523,93.339 C631.98,93.881 631.98,94.761 632.523,95.304 Z" />
        </g>
    </g>
</svg>