<svg width="512" height="512" viewBox="0 0 512 512" fill="none" xmlns="http://www.w3.org/2000/svg">
<path d="M98.8202 206.08C80.4602 250.04 80.3302 298.5 98.4202 342.55C116.52 386.6 150.69 420.97 194.64 439.32C237.4 457.18 284.75 457.77 327.94 440.98C371.14 424.19 405.65 391.78 425.13 349.73C429.31 340.81 425.47 330.14 416.59 325.93C414.2 324.81 411.54 324.22 408.9 324.22C406.52 324.22 404.2 324.68 402 325.6C401.88 325.65 401.77 325.69 401.66 325.74L400.6 326.27H400.32C383.11 333.14 365.32 336.4 347.81 336.4C291.62 336.4 238.27 302.88 215.85 247.7C201.04 211.25 202.06 169.88 218.64 134.2C222.84 125.31 219.09 114.71 210.3 110.44L210.07 110.33C207.69 109.22 205.05 108.63 202.42 108.63H202.34C200 108.63 197.74 109.08 195.6 109.98C152.07 127.7 116.8 162.72 98.8102 206.09L98.8202 206.08ZM181.88 140.84C181.88 140.84 193.34 133.38 194.03 136.22C194.37 137.61 191.43 145.24 191.43 145.24L190.7 147.72C178.27 189.63 182.91 233.87 203.76 272.28C224.61 310.69 259.16 338.69 301.07 351.12C329.07 359.42 358.85 360.07 387.19 353.01L402.36 349.23L393.64 362.16C363.43 407.28 313.7 431.68 263.09 431.68C233.09 431.68 202.79 423.11 176.05 405.2C104.19 357.08 84.8902 259.47 133.01 187.61C145.62 168.78 162.52 152.61 181.89 140.84H181.88Z" fill="#B4B7BA"/>
<path d="M370.14 122.64H416.15C417.94 122.64 419.63 121.94 420.89 120.68C422.16 119.41 422.86 117.73 422.86 115.94C422.86 114.15 422.16 112.46 420.9 111.19C419.63 109.92 417.95 109.22 416.16 109.22H385.41L421.07 70.24C423.56 67.51 423.37 63.26 420.64 60.76C419.4 59.63 417.8 59.01 416.12 59H369.98C366.26 58.87 363.19 61.81 363.08 65.51C363.03 67.3 363.68 69.01 364.91 70.31C366.14 71.61 367.8 72.36 369.59 72.41C369.72 72.41 369.85 72.41 369.97 72.41H400.84L365.18 111.39C363.97 112.71 363.35 114.43 363.43 116.22C363.51 118.01 364.28 119.66 365.61 120.87C366.85 122 368.46 122.63 370.14 122.63V122.64Z" fill="#B4B7BA"/>
<path d="M283.56 143.16H320.45C322.24 143.21 323.95 142.57 325.25 141.34C326.55 140.11 327.3 138.45 327.35 136.66C327.46 132.96 324.54 129.86 320.84 129.76C320.71 129.76 320.58 129.76 320.44 129.76H298.81L325.27 100.86C326.48 99.5399 327.1 97.8299 327.02 96.0399C326.94 94.2499 326.17 92.5999 324.85 91.3899C323.61 90.2599 322.01 89.6299 320.33 89.6299H283.42C283.35 89.6299 283.29 89.6299 283.22 89.6299C279.61 89.6299 276.62 92.5099 276.51 96.1399C276.4 99.8399 279.32 102.93 283.01 103.04C283.15 103.04 283.28 103.04 283.42 103.04H305.07L278.57 131.92C276.79 133.87 276.32 136.71 277.4 139.15C278.48 141.6 280.89 143.17 283.55 143.17L283.56 143.16Z" fill="#B4B7BA"/>
<path d="M359.34 212.01H396.23C399.93 212.1 403.02 209.2 403.13 205.5C403.24 201.8 400.32 198.71 396.62 198.6C396.49 198.6 396.36 198.6 396.23 198.6H374.58L401.04 169.7C402.25 168.38 402.87 166.67 402.79 164.88C402.71 163.09 401.94 161.44 400.62 160.23C399.38 159.1 397.78 158.47 396.1 158.47H359.19C357.4 158.42 355.69 159.06 354.39 160.29C353.09 161.52 352.34 163.18 352.29 164.97C352.24 166.76 352.89 168.47 354.12 169.77C355.35 171.07 357.01 171.82 358.8 171.87C358.93 171.87 359.06 171.87 359.18 171.87H380.82L354.36 200.77C352.57 202.72 352.11 205.56 353.17 207.99C354.24 210.42 356.66 212 359.32 212L359.34 212.01Z" fill="#B4B7BA"/>
</svg>
