<svg width="512" height="512" viewBox="0 0 512 512" fill="none" xmlns="http://www.w3.org/2000/svg">
<g clip-path="url(#clip0_4666_594)">
<path d="M510.32 178.82C510.338 162.217 504.105 146.216 492.86 134C501.513 120.286 506.072 104.386 506 88.1703C505.995 70.9898 500.854 54.2032 491.237 39.9667C481.619 25.7301 467.966 14.6937 452.029 8.27506C436.093 1.85643 418.602 0.348687 401.802 3.9455C385.002 7.54232 369.661 16.0794 357.75 28.4603C343.818 15.9363 326.266 8.16449 307.628 6.26714C288.991 4.36979 270.233 8.4451 254.063 17.9046C237.892 27.364 225.147 41.7181 217.668 58.8939C210.188 76.0696 208.361 95.1783 212.45 113.46C190.608 117.894 170.756 129.198 155.798 145.72C140.839 162.242 131.557 183.116 129.31 205.29C121.19 206.417 113.376 209.155 106.328 213.343C99.2803 217.531 93.1398 223.084 88.2672 229.677C83.3946 236.271 79.888 243.77 77.9531 251.737C76.0183 259.704 75.6943 267.977 77 276.07C64.46 287.2 56.9 306 56.9 326.87C56.8969 331.607 57.3051 336.334 58.12 341H12C10.6868 341 9.38642 341.259 8.17317 341.761C6.95991 342.264 5.85752 343.001 4.92893 343.929C3.05357 345.805 2 348.348 2 351V384.22C2 386.872 3.05357 389.416 4.92893 391.291C5.85752 392.22 6.95991 392.957 8.17317 393.459C9.38642 393.962 10.6868 394.22 12 394.22H22V503C22 505.652 23.0536 508.196 24.9289 510.071C26.8043 511.947 29.3478 513 32 513H170C172.652 513 175.196 511.947 177.071 510.071C178.946 508.196 180 505.652 180 503V394.21H190C192.652 394.21 195.196 393.157 197.071 391.281C198.946 389.406 200 386.862 200 384.21V351C200 348.348 198.946 345.805 197.071 343.929C195.196 342.054 192.652 341 190 341H146.48C147.292 336.361 147.704 331.66 147.71 326.95C161.423 324.715 173.967 317.881 183.28 307.57C201.321 317.374 221.85 321.643 242.303 319.845C262.757 318.047 282.227 310.261 298.28 297.46C310.452 304.149 324.727 305.911 338.16 302.38C349.571 314.43 364.334 322.78 380.54 326.352C396.747 329.923 413.652 328.55 429.071 322.412C444.489 316.274 457.712 305.652 467.03 291.92C476.348 278.187 481.333 261.976 481.34 245.38C481.34 241.634 481.09 237.893 480.59 234.18C489.756 228.151 497.275 219.931 502.466 210.265C507.657 200.599 510.356 189.792 510.32 178.82ZM72.84 493H42V473.33H72.84V493ZM109.16 433.66V453.33H42V433.66H109.16ZM42 413.66V394H72.84V413.67L42 413.66ZM160 493H92.84V473.33H160V493ZM160 453.33H129.16V433.66H160V453.33ZM160 413.66H92.84V394H160V413.66ZM180 361V374.22H22V361H180ZM465 220.12C463.019 221.131 461.431 222.772 460.487 224.786C459.544 226.8 459.298 229.071 459.79 231.24C460.834 235.868 461.36 240.597 461.36 245.34C461.366 258.399 457.309 271.136 449.752 281.786C442.195 292.437 431.511 300.472 419.183 304.778C406.854 309.085 393.492 309.449 380.947 305.821C368.402 302.193 357.297 294.752 349.17 284.53C347.814 282.823 345.936 281.606 343.824 281.064C341.712 280.523 339.481 280.686 337.47 281.53C331.933 283.837 325.883 284.637 319.937 283.851C313.99 283.064 308.357 280.718 303.61 277.05C301.735 275.596 299.404 274.856 297.033 274.962C294.663 275.068 292.407 276.014 290.67 277.63C276.771 290.557 258.921 298.422 240.002 299.955C221.083 301.489 202.199 296.6 186.4 286.08C185.301 285.345 184.067 284.835 182.77 284.58C181.473 284.325 180.138 284.33 178.842 284.594C177.547 284.858 176.317 285.376 175.223 286.119C174.129 286.862 173.193 287.814 172.47 288.92C168.708 294.707 163.557 299.461 157.488 302.748C151.418 306.035 144.622 307.751 137.72 307.74H137.6C136.142 307.673 134.687 307.926 133.337 308.48C131.988 309.035 130.776 309.879 129.786 310.952C128.797 312.025 128.055 313.301 127.612 314.692C127.168 316.082 127.035 317.553 127.22 319C127.546 321.628 127.709 324.273 127.71 326.92C127.715 331.66 127.171 336.385 126.09 341H78.52C77.4356 336.372 76.892 331.634 76.9 326.88C76.9 310.25 83.55 294.88 93.45 288.64C95.2718 287.49 96.6735 285.783 97.4465 283.772C98.2195 281.761 98.3224 279.554 97.74 277.48C96.017 271.309 95.7451 264.822 96.9455 258.528C98.1459 252.234 100.786 246.303 104.659 241.199C108.533 236.095 113.535 231.956 119.273 229.106C125.012 226.256 131.332 224.772 137.74 224.77H138C139.369 224.883 140.746 224.713 142.046 224.27C143.346 223.826 144.541 223.12 145.556 222.195C146.571 221.27 147.385 220.146 147.947 218.893C148.508 217.639 148.805 216.284 148.82 214.91C148.962 193.876 156.991 173.661 171.319 158.261C185.647 142.862 205.231 133.398 226.2 131.74C227.745 131.614 229.24 131.129 230.566 130.326C231.892 129.522 233.013 128.421 233.84 127.11C234.667 125.798 235.178 124.313 235.333 122.77C235.487 121.227 235.281 119.67 234.73 118.22C229.036 103.158 228.845 86.569 234.19 71.3796C239.535 56.1901 250.072 43.3761 263.943 35.1982C277.814 27.0202 294.128 24.0037 310.006 26.6807C325.884 29.3578 340.307 37.5564 350.73 49.8303C351.71 50.9805 352.938 51.8938 354.321 52.5013C355.705 53.1089 357.208 53.3951 358.718 53.3383C360.228 53.2815 361.706 52.8833 363.039 52.1735C364.373 51.4637 365.529 50.4609 366.42 49.2403C374.649 37.9783 386.226 29.6049 399.498 25.3164C412.77 21.0279 427.058 21.0437 440.321 25.3614C453.584 29.6792 465.142 38.078 473.346 49.3581C481.55 60.6382 485.979 74.2225 486 88.1703C486.054 103.023 481.057 117.452 471.83 129.09C470.208 131.145 469.457 133.754 469.738 136.357C470.018 138.959 471.308 141.348 473.33 143.01C479.288 147.887 483.937 154.173 486.854 161.299C489.772 168.424 490.867 176.165 490.04 183.82C489.213 191.476 486.49 198.804 482.118 205.142C477.746 211.48 471.862 216.628 465 220.12Z" fill="black"/>
<path d="M92.2602 165C82.0769 164.962 72.281 161.092 64.8211 154.161C57.3612 147.229 52.784 137.743 52.0002 127.59C45.0533 125.824 38.5785 122.556 33.0321 118.016C27.4858 113.475 23.003 107.774 19.9 101.312C16.797 94.8513 15.1493 87.788 15.0731 80.6207C14.9969 73.4534 16.494 66.3567 19.4589 59.8309C22.4238 53.3052 26.7842 47.5094 32.2328 42.8522C37.6813 38.195 44.0852 34.7899 50.9929 32.8769C57.9006 30.964 65.1439 30.5898 72.212 31.7807C79.28 32.9717 86.0007 35.6988 91.9002 39.7697C92.5802 40.2397 93.2502 40.7197 93.9002 41.2297C103.128 37.8909 113.253 38.015 122.396 41.5789C131.539 45.1428 139.078 51.9044 143.611 60.6073C148.145 69.3102 149.365 79.3629 147.046 88.8979C144.726 98.4328 139.025 106.802 131 112.45C132.706 117.922 133.231 123.694 132.54 129.384C131.85 135.075 129.959 140.553 126.994 145.459C124.029 150.364 120.057 154.585 115.34 157.841C110.623 161.098 105.268 163.316 99.6302 164.35C97.1979 164.787 94.7313 165.004 92.2602 165ZM64.1202 51.1097C56.4289 50.9307 48.9815 53.8144 43.4164 59.1263C37.8512 64.4383 34.6242 71.7435 34.4452 79.4347C34.2661 87.126 37.1498 94.5734 42.4618 100.139C47.7737 105.704 55.0789 108.931 62.7702 109.11C64.1964 109.171 65.593 109.537 66.866 110.183C68.139 110.83 69.2589 111.741 70.1504 112.856C71.0418 113.971 71.6842 115.264 72.0343 116.648C72.3844 118.032 72.4342 119.475 72.1802 120.88C71.4825 124.761 71.9157 128.761 73.4281 132.403C74.9405 136.045 77.4683 139.175 80.7102 141.42C85.1863 144.506 90.7048 145.689 96.0528 144.709C101.401 143.728 106.141 140.664 109.23 136.19C111.533 132.858 112.796 128.919 112.86 124.869C112.924 120.82 111.786 116.842 109.59 113.44C108.775 112.172 108.258 110.736 108.076 109.24C107.895 107.743 108.053 106.226 108.541 104.799C109.029 103.373 109.832 102.076 110.892 101.004C111.951 99.9321 113.24 99.1136 114.66 98.6097C117.339 97.6376 119.786 96.1177 121.844 94.1469C123.902 92.1762 125.527 89.7979 126.615 87.164C127.703 84.53 128.229 81.6982 128.161 78.8493C128.093 76.0004 127.432 73.197 126.219 70.618C125.007 68.0391 123.27 65.7412 121.12 63.8711C118.97 62.001 116.453 60.5997 113.731 59.7568C111.009 58.9138 108.141 58.6477 105.31 58.9753C102.479 59.303 99.7478 60.2172 97.2902 61.6597C95.3537 62.8063 93.087 63.2662 90.8568 62.965C88.6265 62.6637 86.5631 61.619 85.0002 59.9997C82.3017 57.1886 79.0629 54.9519 75.4781 53.4242C71.8934 51.8965 68.0368 51.1092 64.1402 51.1097H64.1202Z" fill="#00D151"/>
</g>
<defs>
<clipPath id="clip0_4666_594">
<rect width="512" height="512" fill="white"/>
</clipPath>
</defs>
</svg>
