<svg width="512" height="512" viewBox="0 0 512 512" fill="none" xmlns="http://www.w3.org/2000/svg">
<path d="M365.61 133.17C355.48 103.72 334.51 79.9901 306.55 66.3401C278.59 52.6901 246.98 50.7401 217.55 60.8601C170.5 77.0401 138.91 121.34 138.94 171.1V182.6H127.44C107.8 182.82 89.3398 190.7 75.5498 204.8C61.7598 218.9 54.2798 237.53 54.4998 257.25C54.7198 276.66 62.3898 294.92 76.1198 308.64C89.8498 322.37 108.1 330.05 127.51 330.26H362.12C414.57 330.26 457.25 287.6 457.26 235.14C457.26 211.97 448.83 189.62 433.52 172.23C418.41 155.04 397.6 143.87 374.93 140.77L367.93 139.82L365.61 133.14V133.17ZM437.62 235.14C437.62 276.77 403.75 310.64 362.12 310.64L127.43 310.61C97.5598 310.61 73.2598 286.3 73.2598 256.44C73.2598 226.57 97.5598 202.27 127.43 202.27C134.61 202.27 141.61 203.67 148.23 206.43C149.44 206.94 150.69 207.19 151.96 207.19C151.96 207.19 151.97 207.19 151.98 207.19C154.62 207.19 157.09 206.17 158.95 204.31C160.81 202.45 161.83 199.98 161.84 197.35C161.84 196.53 161.74 195.72 161.54 194.93C148.51 143.13 180.05 90.4001 231.84 77.3701C283.63 64.3501 336.36 95.8801 349.39 147.67C349.73 149.01 350.04 150.38 350.32 151.73C351.26 156.31 355.32 159.63 359.98 159.63H362.11C403.74 159.63 437.61 193.5 437.61 235.13L437.62 235.14Z" fill="#B4B7BA"/>
<path d="M286.6 405.8C286.6 403.16 285.57 400.69 283.71 398.83C281.85 396.98 279.39 395.96 276.76 395.96H276.75C274.13 395.96 271.67 396.98 269.82 398.83L227.16 441.49C225.3 443.35 224.28 445.82 224.28 448.44C224.28 451.06 225.3 453.53 227.16 455.39C229.02 457.25 231.49 458.27 234.11 458.27C236.73 458.27 239.2 457.25 241.06 455.39L283.73 412.72C285.57 410.89 286.61 408.37 286.6 405.8Z" fill="#B4B7BA"/>
<path d="M177.06 412.73C180.88 408.9 180.88 402.66 177.06 398.82C173.24 395.02 167 395.02 163.16 398.82L120.55 441.44C116.82 445.34 116.93 451.54 120.81 455.3C124.63 459 130.61 459.01 134.44 455.34L177.06 412.72V412.73Z" fill="#B4B7BA"/>
<path d="M383.42 395.96C380.8 395.96 378.34 396.98 376.48 398.83L333.82 441.49C331.96 443.35 330.94 445.82 330.94 448.44C330.94 451.06 331.96 453.53 333.82 455.39C335.68 457.25 338.15 458.27 340.77 458.27C343.39 458.27 345.86 457.25 347.72 455.39L390.38 412.72C392.22 410.89 393.26 408.37 393.25 405.8C393.25 400.36 388.84 395.95 383.42 395.95V395.96Z" fill="#B4B7BA"/>
</svg>
