<svg width="64" height="64" viewBox="0 0 64 64" fill="none" xmlns="http://www.w3.org/2000/svg">
<path d="M51.0438 52.1313C48.2875 48.8375 45.5313 45.5375 42.7813 42.2375C42.7 42.1375 42.5375 42.05 42.6 41.9063C42.6625 41.7563 42.8438 41.8313 42.9688 41.8313C44.3688 41.825 45.7688 41.825 47.1625 41.8313C47.4375 41.8313 47.6938 41.8063 47.925 41.6313C48.5063 41.1813 48.5063 40.475 47.9313 39.8313C45.2063 36.7938 42.4813 33.7625 39.7688 30.7188C39.3188 30.2125 38.8063 29.7438 38.375 29.0813C38.6375 29.0813 38.8188 29.0813 38.9938 29.0813C40.5125 29.0813 42.025 29.0688 43.5438 29.0875C44.1 29.0938 44.5438 28.9375 44.7938 28.4188C45.0438 27.8875 44.775 27.5 44.4313 27.1063C40.5125 22.65 36.6063 18.1938 32.7 13.7313C32.0813 13.025 31.45 13 30.8375 13.7063C26.9188 18.1813 23.0063 22.6625 19.0875 27.1375C18.7563 27.5188 18.5188 27.9063 18.75 28.4125C18.9938 28.9375 19.4313 29.1 19.9875 29.0938C21.5188 29.075 23.0563 29.0875 24.5875 29.0938C24.7563 29.0938 24.9438 29.0438 25.1375 29.175C23.625 30.8688 22.1313 32.5438 20.6438 34.2125C18.9375 36.125 17.2313 38.0313 15.525 39.9438C15.2063 40.3 15 40.7 15.2313 41.1875C15.4563 41.6625 15.8438 41.8625 16.375 41.8563C17.4 41.8375 18.4313 41.85 19.4563 41.85C19.9563 41.85 20.45 41.85 21.0688 41.85C20.825 42.15 20.6563 42.3563 20.4875 42.5563C17.8125 45.75 15.1375 48.9563 12.4625 52.1688C12.2875 52.375 12.1188 52.5813 12.075 52.8625C11.9688 53.6375 12.4688 54.1375 13.375 54.1375C17.275 54.1375 21.1813 54.1375 25.0813 54.1375C25.2375 54.1375 25.4 54.1375 25.5563 54.1375C25.6688 54.1375 25.7625 54.1375 25.8438 54.1438C25.8438 54.1438 25.8438 54.1438 25.8438 54.1375H39.7813C43.2188 54.1375 46.6563 54.1375 50.0938 54.1375C50.6563 54.1375 51.1375 54.0125 51.3875 53.4563C51.625 52.9313 51.3688 52.525 51.0438 52.1313ZM47.425 51.9813C44.8813 51.9813 42.3313 51.9813 39.7875 51.9813H25.2875C22.2188 51.9813 19.15 51.9813 16.0813 51.975C15.9188 51.975 15.6875 52.0563 15.6063 51.9125C15.5 51.7125 15.7438 51.6 15.85 51.4688C18.5438 48.2375 21.2375 45 23.9375 41.7625C24.275 41.3625 24.5688 40.95 24.35 40.3938C24.1125 39.7875 23.5813 39.6813 23.025 39.675C21.775 39.6625 20.5313 39.6688 19.2813 39.6625C19.125 39.6625 18.9 39.75 18.825 39.5688C18.75 39.3938 18.9688 39.2875 19.075 39.1688C22.125 35.75 25.175 32.325 28.2313 28.9125C28.6063 28.4938 28.75 28.0438 28.5313 27.525C28.3063 26.9875 27.825 26.9063 27.3125 26.9063C25.7813 26.9063 24.2438 26.9063 22.7125 26.9C22.5563 26.9 22.3313 26.9938 22.2625 26.8C22.2063 26.6563 22.4 26.55 22.4938 26.4375C25.4563 23.05 28.425 19.675 31.375 16.275C31.6938 15.9063 31.8563 15.95 32.1438 16.2813C34.1563 18.5938 36.1813 20.9 38.2063 23.2063C39.1813 24.3188 40.1625 25.4375 41.1375 26.55C41.2 26.625 41.2563 26.7063 41.3313 26.8063C41.1625 26.9688 40.9688 26.9063 40.8 26.9063C39.25 26.9125 37.7 26.9063 36.15 26.9125C35.7375 26.9125 35.3438 26.9688 35.075 27.3438C34.725 27.8375 34.775 28.35 35.2625 28.9C37.0938 30.95 38.9313 32.9875 40.7625 35.0375C41.9688 36.3813 43.1688 37.725 44.3688 39.0688C44.5125 39.225 44.6438 39.4 44.8688 39.675C43.4688 39.675 42.2188 39.675 40.975 39.675C40.6875 39.675 40.4063 39.7063 40.1188 39.7188C39.6438 39.7375 39.3188 39.9688 39.1563 40.4063C38.9938 40.8438 39.125 41.225 39.4188 41.575C40.6188 43.0063 41.8188 44.4438 43.0188 45.8813C44.5938 47.7688 46.175 49.6563 47.75 51.55C47.8438 51.6625 47.9188 51.7875 48.0063 51.9125C47.7938 52.0313 47.6 51.9813 47.425 51.9813Z" fill="#282828"/>
<path d="M25.8812 55.5625V59.1625C25.8812 59.9812 26.6937 60.6437 27.6812 60.6437H36.1187C37.1062 60.6437 37.9187 59.975 37.9187 59.1625V55.5625H25.8812Z" fill="#282828"/>
<path d="M37.4437 6.525C37.2812 6.9 36.9937 7.1625 36.6687 7.4C36.1812 7.75625 35.7125 8.13125 35.225 8.4875C35.0687 8.6 35.0375 8.7125 35.1 8.89375C35.3187 9.5875 35.5312 10.275 35.725 10.975C35.8937 11.5688 35.6813 12.125 35.1813 12.425C34.6938 12.7188 34.2062 12.675 33.75 12.3625C33.1687 11.9625 32.5875 11.5625 32.0125 11.15C31.8438 11.0313 31.725 11.0375 31.5625 11.1563C31.0125 11.55 30.45 11.9313 29.8937 12.3188C29.3625 12.6875 28.7875 12.7125 28.3125 12.375C27.85 12.05 27.6875 11.5188 27.875 10.8875C28.0687 10.225 28.2625 9.56875 28.475 8.9125C28.5312 8.725 28.5187 8.60625 28.35 8.4875C27.75 8.05 27.1562 7.6 26.575 7.1375C26 6.675 25.95 5.85 26.4437 5.30625C26.7125 5.0125 27.0625 4.89375 27.4562 4.8875C28.1312 4.86875 28.8125 4.89375 29.4875 4.85C29.7125 4.8375 29.825 4.76875 29.8937 4.55C30.1062 3.9 30.3375 3.25 30.5687 2.6C30.775 2.025 31.2437 1.675 31.7937 1.6875C32.3438 1.69375 32.7938 2.03125 32.9938 2.59375C33.225 3.24375 33.4562 3.8875 33.6687 4.54375C33.7375 4.75 33.8437 4.8375 34.0687 4.85C34.7 4.8875 35.3313 4.89375 35.9625 4.88125C36.6625 4.875 37.1625 5.15 37.4313 5.8C37.4438 6.0375 37.4437 6.28125 37.4437 6.525ZM28.8312 11.2875C28.8125 11.3938 28.8625 11.475 28.9375 11.5313C29.0625 11.625 29.1687 11.5563 29.2687 11.4875C30.0125 10.9688 30.7625 10.4688 31.4937 9.93125C31.7187 9.76875 31.8688 9.78125 32.0875 9.9375C32.7938 10.45 33.5188 10.9438 34.2438 11.4438C34.3625 11.525 34.4813 11.65 34.65 11.525C34.8063 11.4063 34.7437 11.2563 34.7 11.1125C34.4437 10.2688 34.1937 9.41875 33.925 8.575C33.85 8.34375 33.8875 8.19375 34.0937 8.05C34.7937 7.5375 35.4812 7.00625 36.1687 6.48125C36.3 6.38125 36.475 6.2875 36.4062 6.08125C36.3312 5.8625 36.1312 5.91875 35.9687 5.91875C35.1 5.9 34.2375 5.875 33.3688 5.86875C33.1313 5.86875 33.0187 5.78125 32.9437 5.5625C32.6625 4.725 32.3687 3.8875 32.075 3.05625C32.025 2.90625 31.9812 2.71875 31.7812 2.725C31.5812 2.73125 31.5437 2.9125 31.4937 3.0625C31.2125 3.86875 30.9187 4.675 30.6562 5.49375C30.5625 5.79375 30.4062 5.875 30.1062 5.875C29.2312 5.875 28.3562 5.90625 27.4812 5.925C27.3562 5.925 27.225 5.93125 27.175 6.075C27.1187 6.225 27.1937 6.33125 27.3062 6.4125C27.35 6.44375 27.3937 6.48125 27.4437 6.5125C28.1312 7.0375 28.825 7.5625 29.5187 8.08125C29.6875 8.20625 29.7375 8.3375 29.6687 8.5375C29.55 8.875 29.4562 9.21875 29.35 9.5625C29.175 10.1375 29.0062 10.7125 28.8312 11.2875Z" fill="#282828"/>
</svg>
