<svg width="64" height="64" viewBox="0 0 64 64" fill="none" xmlns="http://www.w3.org/2000/svg">
<path d="M52.9219 54.7593C49.9299 51.1838 46.9378 47.6015 43.9526 44.0192C43.8644 43.9107 43.688 43.8157 43.7558 43.6596C43.8237 43.4968 44.0204 43.5782 44.1561 43.5782C45.6759 43.5714 47.1956 43.5714 48.7086 43.5782C49.0071 43.5782 49.2853 43.5511 49.5363 43.3611C50.1673 42.8726 50.1673 42.1059 49.5431 41.4071C46.585 38.1098 43.6269 34.8192 40.6824 31.5151C40.1939 30.9655 39.6375 30.4567 39.1694 29.7375C39.4543 29.7375 39.6511 29.7375 39.8411 29.7375C41.4897 29.7375 43.1316 29.7239 44.7803 29.7443C45.3841 29.7511 45.8658 29.5815 46.1372 29.0183C46.4086 28.4417 46.1169 28.021 45.7437 27.5936C41.4897 22.7561 37.2493 17.9186 33.0089 13.0744C32.3372 12.3077 31.652 12.2806 30.9871 13.0473C26.7331 17.9051 22.4859 22.7697 18.2319 27.6275C17.8724 28.0414 17.6145 28.462 17.8656 29.0116C18.1302 29.5815 18.6051 29.7579 19.2089 29.7511C20.8712 29.7307 22.5402 29.7443 24.2024 29.7511C24.3856 29.7511 24.5892 29.6968 24.7995 29.8393C23.1576 31.6779 21.5361 33.4962 19.9213 35.3077C18.0691 37.3838 16.2169 39.4531 14.3647 41.5292C14.0187 41.916 13.7948 42.3502 14.0458 42.8794C14.2901 43.395 14.7107 43.6121 15.2874 43.6054C16.4001 43.585 17.5196 43.5986 18.6322 43.5986C19.175 43.5986 19.711 43.5986 20.3827 43.5986C20.1181 43.9242 19.9349 44.1481 19.7517 44.3652C16.8479 47.8322 13.944 51.3127 11.0402 54.8C10.8502 55.0239 10.6671 55.2478 10.6196 55.5531C10.5042 56.3944 11.047 56.9372 12.0308 56.9372C16.2644 56.9372 20.5048 56.9372 24.7384 56.9372C24.908 56.9372 25.0844 56.9372 25.2541 56.9372C25.3762 56.9372 25.478 56.9372 25.5662 56.944C25.5662 56.944 25.5662 56.944 25.5662 56.9372H40.6959C44.4275 56.9372 48.1591 56.9372 51.8906 56.9372C52.5012 56.9372 53.0237 56.8015 53.295 56.1977C53.5529 55.6278 53.2747 55.1868 52.9219 54.7593ZM48.9936 54.5965C46.2322 54.5965 43.4641 54.5965 40.7027 54.5965H24.9623C21.6311 54.5965 18.2998 54.5965 14.9685 54.5897C14.7921 54.5897 14.5411 54.6779 14.4529 54.5219C14.3375 54.3048 14.6022 54.1826 14.7175 54.0402C17.6417 50.5325 20.5659 47.018 23.4968 43.5036C23.8632 43.0694 24.1821 42.6216 23.9446 42.0177C23.6868 41.3596 23.1101 41.2443 22.5063 41.2375C21.1493 41.2239 19.7992 41.2307 18.4423 41.2239C18.2726 41.2239 18.0284 41.3189 17.947 41.1222C17.8656 40.9322 18.103 40.8169 18.2184 40.688C21.5293 36.9767 24.8402 33.2588 28.1579 29.5543C28.565 29.0998 28.721 28.6113 28.4836 28.0481C28.2393 27.4647 27.7169 27.3765 27.1605 27.3765C25.4983 27.3765 23.8293 27.3765 22.167 27.3697C21.9974 27.3697 21.7532 27.4714 21.6785 27.2611C21.6175 27.1051 21.8278 26.9897 21.9296 26.8676C25.1455 23.1903 28.3682 19.5266 31.5706 15.8358C31.9166 15.4355 32.093 15.483 32.4051 15.8425C34.5897 18.3529 36.788 20.8564 38.9862 23.3599C40.0446 24.5676 41.1098 25.7821 42.1682 26.9897C42.2361 27.0711 42.2971 27.1593 42.3785 27.2679C42.1953 27.4443 41.985 27.3765 41.8018 27.3765C40.1192 27.3832 38.4366 27.3765 36.7541 27.3832C36.3063 27.3832 35.8788 27.4443 35.5871 27.8514C35.2072 28.3874 35.2614 28.9437 35.7906 29.5408C37.7785 31.7661 39.7732 33.9779 41.7611 36.2033C43.0706 37.662 44.3732 39.1207 45.6759 40.5794C45.8319 40.749 45.9744 40.939 46.2186 41.2375C44.6989 41.2375 43.342 41.2375 41.9918 41.2375C41.6797 41.2375 41.3744 41.2714 41.0623 41.285C40.5467 41.3054 40.1939 41.5564 40.0175 42.0313C39.8411 42.5062 39.9835 42.9201 40.3024 43.3C41.6051 44.8537 42.9077 46.4142 44.2104 47.9747C45.9201 50.0236 47.6366 52.0726 49.3464 54.1284C49.4481 54.2505 49.5296 54.3862 49.6245 54.5219C49.3939 54.6508 49.1835 54.5965 48.9936 54.5965Z" fill="#FCFCFC"/>
<path d="M25.6068 58.4841V62.392C25.6068 63.2808 26.4888 64 27.5608 64H36.7201C37.7921 64 38.6741 63.274 38.6741 62.392V58.4841H25.6068Z" fill="#FCFCFC"/>
<path d="M38.1584 5.25167C37.982 5.65875 37.6699 5.94371 37.3171 6.20153C36.7879 6.58825 36.2791 6.99533 35.7499 7.38206C35.5802 7.50418 35.5463 7.6263 35.6142 7.82306C35.8516 8.57615 36.0823 9.32247 36.2926 10.0823C36.4758 10.7269 36.2451 11.3307 35.7024 11.6564C35.1732 11.9753 34.644 11.9278 34.1487 11.5885C33.5177 11.1543 32.8867 10.7201 32.2625 10.2723C32.0794 10.1434 31.9505 10.1502 31.774 10.2791C31.177 10.7065 30.5664 11.1204 29.9625 11.541C29.3859 11.9413 28.7617 11.9685 28.246 11.6021C27.744 11.2493 27.5676 10.6726 27.7711 9.98736C27.9814 9.26819 28.1918 8.5558 28.4224 7.84341C28.4835 7.63987 28.4699 7.51096 28.2867 7.38206C27.6354 6.90713 26.9909 6.41863 26.3599 5.91657C25.7357 5.41451 25.6814 4.51893 26.2174 3.92867C26.5092 3.60979 26.8891 3.48088 27.3165 3.47409C28.0493 3.45374 28.7888 3.48088 29.5215 3.43339C29.7658 3.41982 29.8879 3.34519 29.9625 3.10772C30.1932 2.40212 30.4443 1.69652 30.6953 0.990911C30.9192 0.366723 31.428 -0.0132176 32.0251 0.000351699C32.6221 0.00713635 33.1106 0.373508 33.3277 0.984127C33.5788 1.68973 33.8298 2.38855 34.0605 3.10094C34.1351 3.32483 34.2504 3.41982 34.4947 3.43339C35.1799 3.47409 35.8652 3.48088 36.5504 3.46731C37.3103 3.46053 37.8531 3.75905 38.1448 4.46465C38.1584 4.72247 38.1584 4.98707 38.1584 5.25167ZM28.8092 10.4216C28.7888 10.5369 28.8431 10.6251 28.9245 10.6862C29.0602 10.788 29.1755 10.7133 29.2841 10.6387C30.0915 10.0756 30.9056 9.53279 31.6994 8.94931C31.9437 8.77291 32.1065 8.78648 32.344 8.9561C33.1106 9.51244 33.8976 10.0484 34.6847 10.5912C34.8136 10.6794 34.9425 10.8151 35.1257 10.6794C35.2953 10.5505 35.2274 10.3877 35.1799 10.2316C34.9018 9.31568 34.6304 8.39297 34.3386 7.47704C34.2572 7.22601 34.2979 7.06318 34.5218 6.90713C35.2817 6.35079 36.028 5.77409 36.7743 5.20418C36.9168 5.09563 37.1068 4.99386 37.0322 4.76996C36.9507 4.5325 36.7336 4.59356 36.5572 4.59356C35.6142 4.57321 34.6779 4.54607 33.7348 4.53929C33.477 4.53929 33.3549 4.4443 33.2735 4.20684C32.9681 3.29769 32.6493 2.38855 32.3304 1.48619C32.2761 1.32336 32.2286 1.11982 32.0115 1.1266C31.7944 1.13339 31.7537 1.33014 31.6994 1.49298C31.3941 2.3682 31.0752 3.24342 30.7903 4.13221C30.6885 4.45787 30.5189 4.54607 30.1932 4.54607C29.2434 4.54607 28.2935 4.57999 27.3437 4.60035C27.208 4.60035 27.0655 4.60713 27.0112 4.76318C26.9502 4.92601 27.0316 5.04135 27.1537 5.12955C27.2012 5.16347 27.2487 5.20418 27.303 5.2381C28.0493 5.80802 28.8024 6.37793 29.5555 6.94105C29.7387 7.07675 29.7929 7.21922 29.7183 7.43633C29.5894 7.8027 29.4876 8.17586 29.3723 8.54902C29.1823 9.1732 28.9991 9.79739 28.8092 10.4216Z" fill="#FCFCFC"/>
</svg>
