<?xml version="1.0" encoding="UTF-8"?>
<svg height="600" width="800" xmlns="http://www.w3.org/2000/svg" xmlns:xlink="http://www.w3.org/1999/xlink">
    <g id="Notes" font-family="'LucidaGrande', 'Lucida Grande', sans-serif" font-size="13">
        <rect fill="white" height="600.0" width="800.0" x="0.0" y="0.0" />
        <g font-size="13">
            <text x="18.0" y="176.0">Small</text>
            <text x="18.0" y="376.0">Medium</text>
            <text x="18.0" y="576.0">Large</text>
        </g>
        <g font-size="9">
            <text x="250.0" y="30.0">Ultralight</text>
            <text x="450.0" y="30.0">Regular</text>
            <text x="650.0" y="30.0">Black</text>
            <text id="template-version" fill="#505050" text-anchor="end" x="785.0" y="575.0">Template v.3.0</text>
            <a href="https://github.com/swhitty/SwiftDraw">
                <text fill="#505050" text-anchor="end" x="785.0" y="590.0">https://github.com/swhitty/SwiftDraw</text>
            </a>
        </g>
    </g>
    <g id="Guides" stroke="rgb(39, 170, 225)" stroke-width="0.5">
        <path id="Capline-S" d="M18,76 l800,0" />
        <path id="H-reference" d="M85,145.755 L87.685,145.755 L113.369,79.287 L114.052,79.287 L114.052,76 L112.148,76 L85,145.755 Z M95.693,121.536 L130.996,121.536 L130.263,119.313 L96.474,119.313 L95.693,121.536 Z M139.15,145.755 L141.787,145.755 L114.638,76 L113.466,76 L113.466,79.287 L139.15,145.755 Z" stroke="none" />
        <path id="Baseline-S" d="M18,146 l800,0" />
        <path id="left-margin-Ultralight-S" d="M218.95,56 l0,110" />
        <path id="right-margin-Ultralight-S" d="M311.05,56 l0,110" />
        <path id="left-margin-Regular-S" d="M418.95,56 l0,110" />
        <path id="right-margin-Regular-S" d="M511.05,56 l0,110" />
        <path id="left-margin-Black-S" d="M618.95,56 l0,110" />
        <path id="right-margin-Black-S" d="M711.05,56 l0,110" />
        <path id="Capline-M" d="M18,276 l800,0" />
        <path id="Baseline-M" d="M18,346 l800,0" />
        <path id="Capline-L" d="M18,476 l800,0" />
        <path id="Baseline-L" d="M18,546 l800,0" />
    </g>
    <g id="Symbols">
        <g id="Ultralight-S">
            <path d="M251.901,81.555 C252.029,81.116 252.432,80.814 252.889,80.814 L293.336,80.814 C293.661,80.814 293.966,80.967 294.161,81.227 C294.355,81.487 294.416,81.824 294.325,82.135 L277.471,139.563 C277.343,140.001 276.94,140.303 276.483,140.303 L236.035,140.303 C235.711,140.303 235.405,140.15 235.21,139.89 C235.016,139.63 234.955,139.294 235.046,138.982 C240.664,119.839 246.283,100.697 251.901,81.555 Z M253.661,82.876 C248.245,101.33 242.828,119.786 237.412,138.242 L275.711,138.242 L291.959,82.876 L253.661,82.876 Z" />
            <path d="M248.503,76.745 C248.63,76.304 249.034,76 249.493,76 L300.019,76 C300.345,76 300.651,76.154 300.846,76.415 C301.04,76.677 301.1,77.015 301.006,77.327 L280.62,145.266 C280.488,145.704 280.084,146.003 279.627,146 L229.975,145.706 C229.652,145.704 229.349,145.55 229.156,145.292 C228.962,145.034 228.901,144.699 228.991,144.389 L248.503,76.745 Z M250.268,78.061 L231.348,143.652 L278.867,143.934 L298.634,78.061 L250.268,78.061 Z" />
        </g>
        <g id="Regular-S">
            <path d="M451.901,81.555 C452.029,81.116 452.432,80.814 452.889,80.814 L493.336,80.814 C493.661,80.814 493.966,80.967 494.161,81.227 C494.355,81.487 494.416,81.824 494.325,82.135 L477.471,139.563 C477.343,140.001 476.94,140.303 476.483,140.303 L436.035,140.303 C435.711,140.303 435.405,140.15 435.21,139.89 C435.016,139.63 434.955,139.294 435.046,138.982 C440.664,119.839 446.283,100.697 451.901,81.555 Z M453.661,82.876 C448.245,101.33 442.828,119.786 437.412,138.242 L475.711,138.242 L491.959,82.876 L453.661,82.876 Z" />
            <path d="M448.503,76.745 C448.63,76.304 449.034,76 449.493,76 L500.019,76 C500.345,76 500.651,76.154 500.846,76.415 C501.04,76.677 501.1,77.015 501.006,77.327 L480.62,145.266 C480.488,145.704 480.084,146.003 479.627,146 L429.975,145.706 C429.652,145.704 429.349,145.55 429.156,145.292 C428.962,145.034 428.901,144.699 428.991,144.389 L448.503,76.745 Z M450.268,78.061 L431.348,143.652 L478.867,143.934 L498.634,78.061 L450.268,78.061 Z" />
        </g>
        <g id="Black-S">
            <path d="M651.901,81.555 C652.029,81.116 652.432,80.814 652.889,80.814 L693.336,80.814 C693.661,80.814 693.966,80.967 694.161,81.227 C694.355,81.487 694.416,81.824 694.325,82.135 L677.471,139.563 C677.343,140.001 676.94,140.303 676.483,140.303 L636.035,140.303 C635.711,140.303 635.405,140.15 635.21,139.89 C635.016,139.63 634.955,139.294 635.047,138.982 C640.664,119.839 646.283,100.697 651.901,81.555 Z M653.661,82.876 C648.245,101.33 642.828,119.786 637.412,138.242 L675.711,138.242 L691.959,82.876 L653.661,82.876 Z" />
            <path d="M648.503,76.745 C648.63,76.304 649.034,76 649.493,76 L700.019,76 C700.345,76 700.651,76.154 700.846,76.415 C701.04,76.677 701.1,77.015 701.006,77.327 L680.62,145.266 C680.488,145.704 680.084,146.003 679.627,146 L629.975,145.706 C629.652,145.704 629.349,145.55 629.156,145.292 C628.962,145.034 628.901,144.699 628.991,144.389 L648.503,76.745 Z M650.268,78.061 L631.348,143.652 L678.867,143.934 L698.634,78.061 L650.268,78.061 Z" />
        </g>
    </g>
</svg>