<?xml version="1.0" encoding="UTF-8"?>
<svg height="600" width="800" xmlns="http://www.w3.org/2000/svg" xmlns:xlink="http://www.w3.org/1999/xlink">
    <g id="Notes" font-family="'LucidaGrande', 'Lucida Grande', sans-serif" font-size="13">
        <rect fill="white" height="600.0" width="800.0" x="0.0" y="0.0" />
        <g font-size="13">
            <text x="18.0" y="176.0">Small</text>
            <text x="18.0" y="376.0">Medium</text>
            <text x="18.0" y="576.0">Large</text>
        </g>
        <g font-size="9">
            <text x="250.0" y="30.0">Ultralight</text>
            <text x="450.0" y="30.0">Regular</text>
            <text x="650.0" y="30.0">Black</text>
            <text id="template-version" fill="#505050" text-anchor="end" x="785.0" y="575.0">Template v.3.0</text>
            <a href="https://github.com/swhitty/SwiftDraw">
                <text fill="#505050" text-anchor="end" x="785.0" y="590.0">https://github.com/swhitty/SwiftDraw</text>
            </a>
        </g>
    </g>
    <g id="Guides" stroke="rgb(39, 170, 225)" stroke-width="0.5">
        <path id="Capline-S" d="M18,76 l800,0" />
        <path id="H-reference" d="M85,145.755 L87.685,145.755 L113.369,79.287 L114.052,79.287 L114.052,76 L112.148,76 L85,145.755 Z M95.693,121.536 L130.996,121.536 L130.263,119.313 L96.474,119.313 L95.693,121.536 Z M139.15,145.755 L141.787,145.755 L114.638,76 L113.466,76 L113.466,79.287 L139.15,145.755 Z" stroke="none" />
        <path id="Baseline-S" d="M18,146 l800,0" />
        <path id="left-margin-Ultralight-S" d="M211,56 l0,110" />
        <path id="right-margin-Ultralight-S" d="M319,56 l0,110" />
        <path id="left-margin-Regular-S" d="M411,56 l0,110" />
        <path id="right-margin-Regular-S" d="M519,56 l0,110" />
        <path id="left-margin-Black-S" d="M611,56 l0,110" />
        <path id="right-margin-Black-S" d="M719,56 l0,110" />
        <path id="Capline-M" d="M18,276 l800,0" />
        <path id="Baseline-M" d="M18,346 l800,0" />
        <path id="Capline-L" d="M18,476 l800,0" />
        <path id="Baseline-L" d="M18,546 l800,0" />
    </g>
    <g id="Symbols">
        <g id="Ultralight-S">
            <path d="M291.629,128.371 L238.354,128.371 C228.797,128.371 220.982,120.557 221,111 C221,101.443 228.814,93.629 238.371,93.629 L291.629,93.629 C301.186,93.629 309,101.443 309,111 C309,120.557 301.186,128.371 291.629,128.371 Z M306.712,111.088 C306.712,102.746 299.954,95.987 291.611,95.987 C283.269,95.987 276.51,102.746 276.51,111.088 C276.51,119.43 283.269,126.189 291.611,126.189 C299.954,126.189 306.712,119.43 306.712,111.088 Z M243.264,103.027 C241.187,103.027 239.216,103.96 237.896,105.421 C236.506,106.882 235.626,108.87 235.626,111.088 C235.626,113.305 236.506,115.277 237.896,116.755 C239.234,118.233 241.205,119.149 243.264,119.149 C245.411,119.149 247.382,118.233 248.755,116.755 C250.145,115.277 250.973,113.305 250.973,111.088 C250.973,108.87 250.145,106.882 248.755,105.421 C247.4,103.978 245.411,103.027 243.264,103.027 Z M256.13,109.23 C256.123,109.11 256.115,108.985 256.184,108.849 C256.212,108.884 256.239,108.916 256.266,108.948 C256.318,109.01 256.366,109.067 256.409,109.128 C256.948,109.875 257.487,110.622 258.026,111.369 C258.718,112.331 259.411,113.293 260.105,114.253 C260.328,114.562 260.551,114.871 260.774,115.181 C261.605,116.333 262.436,117.485 263.278,118.628 C263.686,119.184 264.2,119.339 264.771,119.149 C265.273,118.981 265.632,118.49 265.632,117.907 C265.637,113.565 265.636,109.224 265.633,104.884 C265.633,104.484 265.478,104.145 265.163,103.896 C264.753,103.573 264.302,103.484 263.817,103.715 C263.283,103.97 263.069,104.414 263.07,104.986 C263.07,107.022 263.07,109.058 263.07,111.094 C263.07,111.846 263.07,112.598 263.07,113.349 L263.07,113.914 C263.012,113.839 262.966,113.78 262.927,113.731 C262.86,113.645 262.815,113.587 262.772,113.529 C262.051,112.532 261.329,111.534 260.608,110.537 C259.924,109.592 259.241,108.648 258.557,107.703 C258.338,107.4 258.119,107.097 257.9,106.794 C257.251,105.896 256.602,104.998 255.946,104.105 C255.551,103.566 255.001,103.405 254.406,103.618 C253.875,103.807 253.611,104.233 253.621,104.884 C253.624,105.102 253.626,105.32 253.626,105.538 C253.626,106.334 253.626,107.131 253.627,107.928 C253.627,111.226 253.628,114.523 253.623,117.82 C253.622,118.216 253.695,118.569 253.985,118.855 C254.339,119.204 254.899,119.32 255.362,119.119 C255.883,118.894 256.134,118.491 256.134,117.92 C256.13,115.06 256.132,112.2 256.135,109.34 C256.135,109.304 256.132,109.267 256.13,109.23 Z" />
            <path d="M243.422,105.421 C241.979,105.421 240.73,106.002 239.797,107.005 C238.846,107.991 238.266,109.399 238.266,110.93 C238.266,112.461 238.846,113.869 239.797,114.837 C240.747,115.84 241.997,116.456 243.422,116.456 C244.76,116.456 246.027,115.858 246.96,114.837 C247.875,113.869 248.491,112.461 248.491,110.93 C248.491,109.399 247.893,107.991 246.96,107.005 C246.027,106.002 244.778,105.421 243.422,105.421 Z" />
        </g>
        <g id="Regular-S">
            <path d="M491.629,128.371 L438.354,128.371 C428.797,128.371 420.982,120.557 421,111 C421,101.443 428.814,93.629 438.371,93.629 L491.629,93.629 C501.186,93.629 509,101.443 509,111 C509,120.557 501.186,128.371 491.629,128.371 Z M506.712,111.088 C506.712,102.746 499.954,95.987 491.611,95.987 C483.269,95.987 476.51,102.746 476.51,111.088 C476.51,119.43 483.269,126.189 491.611,126.189 C499.954,126.189 506.712,119.43 506.712,111.088 Z M443.264,103.027 C441.187,103.027 439.216,103.96 437.896,105.421 C436.506,106.882 435.626,108.87 435.626,111.088 C435.626,113.305 436.506,115.277 437.896,116.755 C439.234,118.233 441.205,119.149 443.264,119.149 C445.411,119.149 447.382,118.233 448.755,116.755 C450.146,115.277 450.973,113.305 450.973,111.088 C450.973,108.87 450.146,106.882 448.755,105.421 C447.4,103.978 445.411,103.027 443.264,103.027 Z M456.13,109.23 C456.123,109.11 456.115,108.985 456.184,108.849 C456.212,108.884 456.239,108.916 456.266,108.948 C456.318,109.01 456.366,109.067 456.409,109.128 C456.948,109.875 457.487,110.622 458.026,111.369 C458.719,112.331 459.411,113.293 460.105,114.253 C460.328,114.562 460.551,114.871 460.774,115.181 C461.605,116.333 462.436,117.485 463.278,118.628 C463.686,119.184 464.201,119.339 464.771,119.149 C465.273,118.981 465.632,118.49 465.632,117.907 C465.637,113.565 465.636,109.224 465.633,104.884 C465.633,104.484 465.478,104.145 465.163,103.896 C464.753,103.573 464.302,103.484 463.817,103.715 C463.283,103.97 463.069,104.414 463.07,104.986 C463.07,107.022 463.07,109.058 463.07,111.094 C463.07,111.846 463.07,112.598 463.07,113.349 L463.07,113.914 C463.012,113.839 462.966,113.78 462.927,113.731 C462.86,113.645 462.815,113.587 462.772,113.529 C462.051,112.532 461.329,111.534 460.608,110.537 C459.924,109.592 459.241,108.648 458.557,107.703 C458.338,107.4 458.119,107.097 457.9,106.794 C457.251,105.896 456.602,104.998 455.946,104.105 C455.551,103.566 455.001,103.405 454.406,103.618 C453.875,103.807 453.612,104.233 453.621,104.884 C453.624,105.102 453.626,105.32 453.626,105.538 C453.626,106.334 453.626,107.131 453.627,107.928 C453.627,111.226 453.628,114.523 453.623,117.82 C453.622,118.216 453.695,118.569 453.985,118.855 C454.339,119.204 454.899,119.32 455.362,119.119 C455.883,118.894 456.134,118.491 456.134,117.92 C456.13,115.06 456.132,112.2 456.135,109.34 C456.135,109.304 456.133,109.267 456.13,109.23 Z" />
            <path d="M443.422,105.421 C441.979,105.421 440.73,106.002 439.797,107.005 C438.846,107.991 438.266,109.399 438.266,110.93 C438.266,112.461 438.846,113.869 439.797,114.837 C440.747,115.84 441.997,116.456 443.422,116.456 C444.76,116.456 446.027,115.858 446.96,114.837 C447.875,113.869 448.491,112.461 448.491,110.93 C448.491,109.399 447.893,107.991 446.96,107.005 C446.027,106.002 444.778,105.421 443.422,105.421 Z" />
        </g>
        <g id="Black-S">
            <path d="M691.629,128.371 L638.354,128.371 C628.797,128.371 620.982,120.557 621,111 C621,101.443 628.814,93.629 638.371,93.629 L691.629,93.629 C701.186,93.629 709,101.443 709,111 C709,120.557 701.186,128.371 691.629,128.371 Z M706.712,111.088 C706.712,102.746 699.954,95.987 691.611,95.987 C683.269,95.987 676.51,102.746 676.51,111.088 C676.51,119.43 683.269,126.189 691.611,126.189 C699.954,126.189 706.712,119.43 706.712,111.088 Z M643.264,103.027 C641.187,103.027 639.216,103.96 637.896,105.421 C636.506,106.882 635.626,108.87 635.626,111.088 C635.626,113.305 636.506,115.277 637.896,116.755 C639.234,118.233 641.205,119.149 643.264,119.149 C645.411,119.149 647.382,118.233 648.755,116.755 C650.146,115.277 650.973,113.305 650.973,111.088 C650.973,108.87 650.146,106.882 648.755,105.421 C647.4,103.978 645.411,103.027 643.264,103.027 Z M656.13,109.23 C656.123,109.11 656.115,108.985 656.184,108.849 C656.212,108.884 656.239,108.916 656.266,108.948 C656.318,109.01 656.366,109.067 656.409,109.128 C656.948,109.875 657.487,110.622 658.026,111.369 C658.719,112.331 659.411,113.293 660.105,114.253 C660.328,114.562 660.551,114.871 660.774,115.181 C661.605,116.333 662.436,117.485 663.278,118.628 C663.686,119.184 664.201,119.339 664.771,119.149 C665.273,118.981 665.632,118.49 665.633,117.907 C665.637,113.565 665.636,109.224 665.633,104.884 C665.633,104.484 665.479,104.145 665.163,103.896 C664.753,103.573 664.302,103.484 663.817,103.715 C663.283,103.97 663.069,104.414 663.07,104.986 C663.07,107.022 663.07,109.058 663.07,111.094 C663.07,111.846 663.07,112.598 663.07,113.349 L663.07,113.914 C663.012,113.839 662.966,113.78 662.927,113.731 C662.86,113.645 662.815,113.587 662.772,113.529 C662.051,112.532 661.329,111.534 660.608,110.537 C659.924,109.592 659.241,108.648 658.557,107.703 C658.338,107.4 658.119,107.097 657.9,106.794 C657.251,105.896 656.602,104.998 655.946,104.105 C655.551,103.566 655.001,103.405 654.406,103.618 C653.875,103.807 653.612,104.233 653.621,104.884 C653.624,105.102 653.626,105.32 653.626,105.538 C653.626,106.334 653.626,107.131 653.627,107.928 C653.627,111.226 653.628,114.523 653.623,117.82 C653.622,118.216 653.695,118.569 653.985,118.855 C654.339,119.204 654.899,119.32 655.362,119.119 C655.883,118.894 656.135,118.491 656.134,117.92 C656.13,115.06 656.132,112.2 656.135,109.34 C656.135,109.304 656.133,109.267 656.13,109.23 Z" />
            <path d="M643.422,105.421 C641.979,105.421 640.73,106.002 639.797,107.005 C638.846,107.991 638.266,109.399 638.266,110.93 C638.266,112.461 638.846,113.869 639.797,114.837 C640.747,115.84 641.997,116.456 643.422,116.456 C644.76,116.456 646.027,115.858 646.96,114.837 C647.875,113.869 648.491,112.461 648.491,110.93 C648.491,109.399 647.893,107.991 646.96,107.005 C646.027,106.002 644.778,105.421 643.422,105.421 Z" />
        </g>
    </g>
</svg>