<svg width="48" height="36" viewBox="0 0 48 36" fill="none" xmlns="http://www.w3.org/2000/svg">
<g id="Group 73">
<g id="Group 59">
<path id="Vector (Stroke)" fill-rule="evenodd" clip-rule="evenodd" d="M27.0023 22.9467C27.2069 22.8831 27.43 22.9364 27.5838 23.0857C28.9273 24.3903 29.614 25.6508 29.8253 26.8417C30.0373 28.0363 29.7588 29.0919 29.2987 29.9603C28.8424 30.8217 28.2027 31.5098 27.6632 31.9991C27.3916 32.2454 27.1411 32.4453 26.9455 32.5946C26.8518 32.6661 26.7701 32.7264 26.7069 32.7732L26.6993 32.7788C26.6666 32.803 26.6407 32.8221 26.6198 32.8379C26.6095 32.8457 26.6014 32.8518 26.5952 32.8567L26.5881 32.8623L26.5862 32.8638C26.5858 32.8642 26.5856 32.8643 26.5856 32.8643C26.4804 32.952 26.3478 33 26.2109 33H26.1366C26.0037 33 25.8747 32.9548 25.7709 32.8717C25.7557 32.8595 25.7313 32.8413 25.6992 32.8173C25.4244 32.6116 24.5812 31.9808 24.0226 31.0684C23.7037 30.5474 23.4575 29.9072 23.4632 29.1736C23.469 28.434 23.7305 27.6554 24.3334 26.8646C25.4371 25.3929 26.0151 24.4871 26.3141 23.9595C26.4634 23.696 26.5405 23.5314 26.5783 23.4414C26.5967 23.3977 26.6051 23.373 26.6079 23.3644C26.6571 23.1665 26.8062 23.0076 27.0023 22.9467ZM27.3388 24.5259C27.3367 24.5295 27.3347 24.5331 27.3326 24.5367C27.0007 25.1225 26.3911 26.0722 25.2686 27.569L25.2656 27.5729L25.2656 27.5729C24.7931 28.192 24.6374 28.7305 24.6339 29.1827C24.6304 29.6417 24.7833 30.0686 25.0211 30.4571C25.3644 31.0179 25.8434 31.4411 26.1769 31.7062C26.7153 31.2987 27.6776 30.5195 28.2642 29.4122C28.6301 28.7215 28.8295 27.9304 28.6726 27.0463C28.5422 26.3116 28.1575 25.4658 27.3388 24.5259Z" fill="#B4B7BA"/>
<path id="Vector (Stroke)_2" fill-rule="evenodd" clip-rule="evenodd" d="M23.5452 17.0218C23.8675 16.9528 24.2185 17.0479 24.4716 17.3009C24.4911 17.3205 24.5093 17.3415 24.5259 17.3636C25.2623 18.3454 25.9794 20.0257 25.9794 21.8724C25.9794 22.6212 25.6818 23.3103 25.3067 23.9304C24.9878 24.4578 24.5803 24.9853 24.1897 25.4908C24.1235 25.5765 24.0578 25.6616 23.993 25.7459C23.0544 26.969 22.3247 28.0564 22.4136 29.246C22.5113 30.2414 22.9384 30.9884 23.2351 31.5076L23.2481 31.5303C23.3185 31.6535 23.3955 31.7885 23.4488 31.9069C23.4758 31.967 23.5073 32.0452 23.5271 32.132C23.5455 32.2124 23.5678 32.3578 23.5161 32.5213C23.4551 32.7147 23.3171 32.8527 23.1572 32.9263C23.0221 32.9885 22.8913 32.9965 22.809 32.9959C22.644 32.9948 22.4563 32.9541 22.2754 32.9065L22.2635 32.9032C20.7751 32.478 19.3635 31.1894 18.6899 29.5359C18.0026 27.849 18.0784 25.7718 19.5841 23.8176C21.6863 21.0627 22.5442 18.7593 22.823 17.716C22.9201 17.3363 23.2168 17.0922 23.5452 17.0218ZM23.8346 18.4282C23.4308 19.7179 22.4837 21.9479 20.514 24.529L20.5122 24.5312L20.5122 24.5312C19.2719 26.1403 19.2365 27.7746 19.7741 29.0942C20.2107 30.1659 21.0226 31.0241 21.8928 31.4924C21.6232 30.9573 21.333 30.2339 21.2478 29.3529L21.2468 29.3414C21.1157 27.6378 22.1669 26.2025 23.0643 25.0332C23.1338 24.9426 23.2026 24.8535 23.2704 24.7657C23.6633 24.2566 24.0236 23.7898 24.305 23.3246C24.6329 22.7823 24.8086 22.3114 24.8086 21.8724C24.8086 20.5181 24.347 19.2613 23.8346 18.4282Z" fill="#B4B7BA"/>
</g>
<path id="Ellipse 85" d="M3.79603 35.2553C2.01321 31.9632 1 28.1871 1 24.1727C1 16.2354 4.96094 9.23014 11 5.05392M44.204 35.2553C45.9868 31.9632 47 28.1871 47 24.1727C47 11.3748 36.7025 1 24 1C22.3628 1 20.7656 1.17234 19.2252 1.5" stroke="#B4B7BA" stroke-width="1.5" stroke-linecap="round"/>
<circle id="Ellipse 84" cx="15" cy="3" r="3" fill="#EB3A28"/>
<g id="Group 70">
<path id="Vector 10" d="M24 1V5" stroke="#B4B7BA" stroke-width="1.5" stroke-linecap="round" stroke-linejoin="round"/>
<path id="Vector 12" d="M47 25L43 25" stroke="#B4B7BA" stroke-width="1.5" stroke-linecap="round" stroke-linejoin="round"/>
<path id="Vector 13" d="M5 25L1 25" stroke="#B4B7BA" stroke-width="1.5" stroke-linecap="round" stroke-linejoin="round"/>
<path id="Vector 11" d="M41 9L38.1716 11.8284" stroke="#B4B7BA" stroke-width="1.5" stroke-linecap="round" stroke-linejoin="round"/>
<path id="Vector 14" d="M7 9L9.82843 11.8284" stroke="#B4B7BA" stroke-width="1.5" stroke-linecap="round" stroke-linejoin="round"/>
</g>
</g>
</svg>
