<svg width="512" height="512" viewBox="0 0 512 512" fill="none" xmlns="http://www.w3.org/2000/svg">
<path d="M115.92 173.92L115.64 174.71L97.5896 225.52H63.3496V193.13L70.1396 174.71L70.4296 173.92H115.92Z" fill="#00D151"/>
<path d="M448.319 176.89V228.49H402.899L421.909 176.89H448.319Z" fill="#00D151"/>
<path d="M184.75 225.52H138.59L157.6 173.92H203.08L184.75 225.52Z" fill="#00D151"/>
<path d="M274.96 225.52H228.8L247.81 173.92H293.29L274.96 225.52Z" fill="#00D151"/>
<path d="M362.18 225.52H316.02L335.03 173.92H380.51L362.18 225.52Z" fill="#00D151"/>
<path d="M92.0595 169.22L63.5095 173.92L57.7295 138.82C56.9595 134.18 57.8095 129.71 59.7995 126.2L65.3495 125.12L92.0695 169.22H92.0595Z" fill="#00D151"/>
<path d="M125.519 160.81L170.839 152.01L142.339 104.98L97.6895 113.65L125.519 160.81Z" fill="#00D151"/>
<path d="M210.659 147.1L255.979 138.3L227.479 91.27L182.829 99.94L210.659 147.1Z" fill="#00D151"/>
<path d="M299.559 132.9L344.879 124.1L316.379 77.07L271.729 85.74L299.559 132.9Z" fill="#00D151"/>
<path d="M390.809 119.18L436.129 110.38L407.639 63.35L362.979 72.02L390.809 119.18Z" fill="#00D151"/>
<path d="M448.32 165.11H176.2L444.93 120.9C450.16 120.04 453.7 115.1 452.84 109.87L447.07 74.76C447.05 74.64 447.03 74.52 447.01 74.41C444.44 59.86 431.84 49.82 418.75 51.97L67.7904 109.71H67.7704C60.9904 110.83 55.0404 115.12 51.4404 121.47C48.3004 127.01 47.1704 133.7 48.2504 140.31C48.2504 140.33 48.2504 140.36 48.2504 140.38L53.7904 173.99C53.7704 174.23 53.7504 174.46 53.7504 174.71V448.32C53.7504 453.62 58.0504 457.92 63.3504 457.92H448.32C453.62 457.92 457.92 453.62 457.92 448.32V174.71C457.92 169.41 453.62 165.11 448.32 165.11ZM438.72 215.92H72.9504V184.31H438.72V215.92ZM421.86 70.92C424.21 70.53 427.38 73.43 428.12 77.88C428.14 77.98 428.15 78.07 428.17 78.17L432.34 103.52L71.4204 162.89L67.2004 137.26C66.8204 134.96 67.1704 132.66 68.1504 130.93C68.5704 130.18 69.4904 128.9 70.8904 128.66L421.86 70.92ZM72.9504 438.72V235.12H438.72V438.72H72.9504Z" fill="#B4B7BA"/>
<path d="M378.061 304.73H108.441C103.141 304.73 98.8408 309.03 98.8408 314.33C98.8408 319.63 103.141 323.93 108.441 323.93H378.061C383.361 323.93 387.661 319.63 387.661 314.33C387.661 309.03 383.361 304.73 378.061 304.73Z" fill="#B4B7BA"/>
<path d="M301.171 362.65H108.441C103.141 362.65 98.8408 366.95 98.8408 372.25C98.8408 377.55 103.141 381.85 108.441 381.85H301.171C306.471 381.85 310.771 377.55 310.771 372.25C310.771 366.95 306.471 362.65 301.171 362.65Z" fill="#B4B7BA"/>
</svg>
