<svg width="512" height="512" viewBox="0 0 512 512" fill="none" xmlns="http://www.w3.org/2000/svg">
<path d="M401 197.86H210V161.86C210 159.208 208.946 156.665 207.071 154.789C205.196 152.914 202.652 151.86 200 151.86H128C125.348 151.86 122.804 152.914 120.929 154.789C119.054 156.665 118 159.208 118 161.86V197.86H111C81.8367 197.895 53.8778 209.495 33.2563 230.117C12.6347 250.738 1.0344 278.697 1 307.86V353.86C1.03176 383.024 12.6312 410.985 33.2533 431.607C53.8755 452.229 81.8359 463.829 111 463.86H118V482.86C118 485.513 119.054 488.056 120.929 489.931C122.804 491.807 125.348 492.86 128 492.86H200C202.652 492.86 205.196 491.807 207.071 489.931C208.946 488.056 210 485.513 210 482.86V463.86H302V482.86C302 485.513 303.054 488.056 304.929 489.931C306.804 491.807 309.348 492.86 312 492.86H384C386.652 492.86 389.196 491.807 391.071 489.931C392.946 488.056 394 485.513 394 482.86V463.86H401C430.164 463.829 458.125 452.229 478.747 431.607C499.369 410.985 510.968 383.024 511 353.86V307.86C510.966 278.697 499.365 250.738 478.744 230.117C458.122 209.495 430.163 197.895 401 197.86ZM118 443.86H111C87.1386 443.834 64.2622 434.343 47.3896 417.471C30.5171 400.598 21.0265 377.722 21 353.86V307.86C21.0265 283.999 30.5171 261.123 47.3896 244.25C64.2622 227.377 87.1386 217.887 111 217.86H118V443.86ZM138 171.86H190V197.86H138V171.86ZM190 472.86H138V463.86H190V472.86ZM138 443.86V217.86H373V443.86H138ZM374 472.86H322V463.86H374V472.86ZM491 353.86C490.974 377.722 481.483 400.598 464.61 417.471C447.738 434.343 424.861 443.834 401 443.86H393V217.86H401C424.861 217.887 447.738 227.377 464.61 244.25C481.483 261.123 490.974 283.999 491 307.86V353.86Z" fill="black"/>
<path d="M144 134C141.348 134 138.804 132.946 136.929 131.071C135.053 129.196 134 126.652 134 124C133.928 117.687 135.923 111.524 139.68 106.45C141.37 103.92 142 103 142 100C142 97 141.37 96.08 139.68 93.55C135.994 88.4404 134.011 82.3001 134.011 76C134.011 69.6999 135.994 63.5596 139.68 58.45C141.37 55.92 142 55 142 52C142 49.3478 143.053 46.8043 144.929 44.9289C146.804 43.0536 149.348 42 152 42C154.652 42 157.196 43.0536 159.071 44.9289C160.946 46.8043 162 49.3478 162 52C162.074 58.3133 160.079 64.4772 156.32 69.55C154.63 72.08 154 73 154 76C154 79 154.63 79.92 156.32 82.45C160.005 87.5596 161.989 93.6999 161.989 100C161.989 106.3 160.005 112.44 156.32 117.55C154.63 120.08 154 121 154 124C154 126.652 152.946 129.196 151.071 131.071C149.196 132.946 146.652 134 144 134Z" fill="black"/>
<path d="M180 134C177.348 134 174.804 132.946 172.929 131.071C171.053 129.196 170 126.652 170 124C169.928 117.687 171.923 111.524 175.68 106.45C177.37 103.92 178 103 178 100C178 97 177.37 96.08 175.68 93.55C171.994 88.4404 170.011 82.3001 170.011 76C170.011 69.6999 171.994 63.5596 175.68 58.45C177.37 55.92 178 55 178 52C178 49.3478 179.053 46.8043 180.929 44.9289C182.804 43.0536 185.348 42 188 42C190.652 42 193.196 43.0536 195.071 44.9289C196.946 46.8043 198 49.3478 198 52C198.074 58.3133 196.079 64.4772 192.32 69.55C190.63 72.08 190 73 190 76C190 79 190.63 79.92 192.32 82.45C196.005 87.5596 197.989 93.6999 197.989 100C197.989 106.3 196.005 112.44 192.32 117.55C190.63 120.08 190 121 190 124C190 126.652 188.946 129.196 187.071 131.071C185.196 132.946 182.652 134 180 134Z" fill="black"/>
<path d="M296.819 400.93H215.179C208.282 400.933 201.59 398.582 196.209 394.267C190.829 389.951 187.082 383.929 185.587 377.195C184.093 370.462 184.94 363.42 187.99 357.233C191.039 351.047 196.109 346.086 202.359 343.17C201.143 340.057 200.522 336.743 200.529 333.4C200.539 328.057 202.134 322.837 205.113 318.401C208.091 313.965 212.318 310.512 217.259 308.48C216.82 306.67 216.598 304.813 216.599 302.95V284.33C216.607 278.089 219.09 272.106 223.503 267.694C227.916 263.281 233.899 260.798 240.139 260.79H249.449C250.931 260.793 252.393 261.124 253.731 261.761C255.068 262.398 256.247 263.324 257.183 264.472C258.119 265.621 258.788 266.963 259.142 268.401C259.496 269.839 259.526 271.339 259.229 272.79C258.702 275.516 258.538 278.301 258.739 281.07H274.399C289.999 281.07 300.479 291.21 300.479 306.29C300.479 307.956 300.27 309.615 299.859 311.23C304.839 314.673 308.513 319.694 310.288 325.482C312.062 331.27 311.834 337.488 309.639 343.13C315.89 346.046 320.96 351.007 324.009 357.193C327.059 363.38 327.906 370.422 326.412 377.155C324.917 383.889 321.17 389.911 315.79 394.227C310.409 398.542 303.717 400.893 296.819 400.89V400.93ZM215.179 360.32C213.799 360.277 212.424 360.512 211.137 361.01C209.849 361.509 208.674 362.261 207.683 363.222C206.691 364.183 205.903 365.334 205.364 366.606C204.826 367.877 204.548 369.244 204.548 370.625C204.548 372.006 204.826 373.373 205.364 374.645C205.903 375.916 206.691 377.067 207.683 378.028C208.674 378.989 209.849 379.741 211.137 380.24C212.424 380.738 213.799 380.973 215.179 380.93H296.819C298.2 380.973 299.575 380.738 300.862 380.24C302.15 379.741 303.325 378.989 304.316 378.028C305.308 377.067 306.096 375.916 306.635 374.645C307.173 373.373 307.451 372.006 307.451 370.625C307.451 369.244 307.173 367.877 306.635 366.606C306.096 365.334 305.308 364.183 304.316 363.222C303.325 362.261 302.15 361.509 300.862 361.01C299.575 360.512 298.2 360.277 296.819 360.32H284.549C281.897 360.32 279.354 359.266 277.478 357.391C275.603 355.516 274.549 352.972 274.549 350.32C274.549 347.668 275.603 345.124 277.478 343.249C279.354 341.374 281.897 340.32 284.549 340.32C286.385 340.32 288.145 339.591 289.443 338.293C290.74 336.995 291.469 335.235 291.469 333.4C291.469 331.565 290.74 329.805 289.443 328.507C288.145 327.209 286.385 326.48 284.549 326.48H280.319C277.667 326.48 275.124 325.426 273.248 323.551C271.373 321.676 270.319 319.132 270.319 316.48C270.319 313.828 271.373 311.284 273.248 309.409C275.124 307.534 277.667 306.48 280.319 306.48C280.36 306.477 280.398 306.46 280.426 306.43C280.454 306.4 280.47 306.361 280.469 306.32C280.469 303.87 280.469 301.1 274.389 301.1H256.209C253.754 301.138 251.323 300.618 249.099 299.579C246.874 298.539 244.915 297.008 243.369 295.1C240.139 291.1 238.949 285.92 238.679 281.1C238.06 281.38 237.535 281.833 237.166 282.404C236.797 282.975 236.6 283.64 236.599 284.32V303C236.599 303.937 236.971 304.836 237.633 305.5C238.294 306.163 239.192 306.537 240.129 306.54C242.782 306.54 245.325 307.594 247.201 309.469C249.076 311.344 250.129 313.888 250.129 316.54C250.129 319.192 249.076 321.736 247.201 323.611C245.325 325.486 242.782 326.54 240.129 326.54H227.429C225.594 326.54 223.834 327.269 222.536 328.567C221.239 329.865 220.509 331.625 220.509 333.46C220.509 335.295 221.239 337.055 222.536 338.353C223.834 339.651 225.594 340.38 227.429 340.38C230.082 340.38 232.625 341.434 234.501 343.309C236.376 345.184 237.429 347.728 237.429 350.38C237.429 353.032 236.376 355.576 234.501 357.451C232.625 359.326 230.082 360.38 227.429 360.38L215.179 360.32Z" fill="#00D151"/>
<path d="M227 83C232.523 83 237 78.5228 237 73C237 67.4772 232.523 63 227 63C221.477 63 217 67.4772 217 73C217 78.5228 221.477 83 227 83Z" fill="black"/>
<path d="M82 124C87.5228 124 92 119.523 92 114C92 108.477 87.5228 104 82 104C76.4772 104 72 108.477 72 114C72 119.523 76.4772 124 82 124Z" fill="black"/>
<path d="M120 45C125.523 45 130 40.5228 130 35C130 29.4772 125.523 25 120 25C114.477 25 110 29.4772 110 35C110 40.5228 114.477 45 120 45Z" fill="black"/>
</svg>
