<svg width="512" height="512" viewBox="0 0 512 512" fill="none" xmlns="http://www.w3.org/2000/svg">
<path d="M405.9 431.36C405.969 430.91 406.002 430.455 406 430V429.5C406.002 430.121 405.969 430.742 405.9 431.36ZM106 429.5V430C105.998 430.455 106.031 430.91 106.1 431.36C106.031 430.742 105.998 430.121 106 429.5Z" fill="#FCFCFC"/>
<path d="M405.9 39.6396C405.969 40.2572 406.002 40.8783 406 41.4996V40.9996C406.002 40.5444 405.969 40.0897 405.9 39.6396ZM106 40.9996V41.4996C105.998 40.8783 106.031 40.2572 106.1 39.6396C106.031 40.0897 105.998 40.5444 106 40.9996Z" fill="#FCFCFC"/>
<path d="M405.9 39.64C405.9 39.64 405.9 39.53 405.9 39.48C404.39 26.92 388.75 18 357 11.55C329.91 6 294 3 256 3C218 3 182.09 6 155 11.55C123.24 18.02 107.6 26.92 106.11 39.48C106.11 39.53 106.11 39.59 106.11 39.64C106.041 40.2576 106.008 40.8786 106.01 41.5V429.5C106.008 430.121 106.041 430.742 106.11 431.36C106.11 431.41 106.11 431.47 106.11 431.52C107.32 441.75 117.93 449.52 138.98 455.59L132 500C132 502.652 133.053 505.196 134.929 507.071C136.804 508.946 139.348 510 142 510H188C190.652 510 193.196 508.946 195.071 507.071C196.946 505.196 198 502.652 198 500L205 466.08C221.08 467.34 238.3 468 256 468C275.54 468 294.5 467.2 312 465.67L319 500C319 502.652 320.053 505.196 321.929 507.071C323.804 508.946 326.348 510 329 510H375C377.652 510 380.196 508.946 382.071 507.071C383.946 505.196 385 502.652 385 500L378 454.06C395.74 448.25 404.76 440.91 405.87 431.52C405.87 431.52 405.87 431.41 405.87 431.36C405.939 430.742 405.972 430.121 405.97 429.5V41.5C405.982 40.8792 405.959 40.2582 405.9 39.64ZM159.74 31C161.553 30.64 163.46 30.28 165.46 29.92C190.42 25.46 222.57 23 256 23C289.43 23 321.58 25.46 346.54 29.92C348.54 30.28 350.447 30.64 352.26 31C371.26 34.81 380.65 39 384.44 41.5C380.98 43.79 372.86 47.5 356.99 51C353.82 51.7 350.35 52.4 346.54 53.08C321.58 57.54 289.43 60 256 60C222.57 60 190.42 57.54 165.46 53.08C161.65 52.4 158.18 51.7 155 51C139.13 47.48 131 43.79 127.55 41.5C131.35 39 140.72 34.81 159.74 31ZM178 490H152L159 460.23C167 461.74 175.75 463.05 185 464.14L178 490ZM339 490L332 463.53C340.94 462.37 349.32 461.01 357 459.45L358 459.24L365 490H339ZM386 420C386 420 386 429 384.44 429.5C381.31 431.58 374.36 434.79 361.29 438C358.55 438.67 355.55 439.34 352.29 440C350.477 440.36 348.57 440.72 346.57 441.08C336.25 442.92 324.69 444.43 312.33 445.55C294.8 447.15 275.63 448 256.03 448C238.31 448 220.96 447.31 204.84 446C190.55 444.84 177.22 443.19 165.49 441.09C163.49 440.73 161.583 440.37 159.77 440.01C156.48 439.35 153.48 438.68 150.77 438.01C137.7 434.8 130.77 431.59 127.62 429.51C126 428 126 420 126 420V164.23C126.9 165.04 127.86 165.99 128.94 167.07C134.4 172.53 141.87 180 156 180C170.13 180 177.61 172.53 183.07 167.07C187.97 162.17 190.37 160 195.99 160C201.61 160 203.99 162.17 208.92 167.07C214.38 172.53 221.85 180 236 180C250.15 180 257.62 172.53 263.07 167.07C267.97 162.17 270.38 160 276 160C281.62 160 284 162.17 288.92 167.07C294.37 172.53 301.84 180 316 180C330.16 180 337.61 172.53 343.07 167.07C347.97 162.17 350.38 160 356 160C361.62 160 364 162.17 368.93 167.07C372.93 171.07 378.02 176.16 386.02 178.58L386 420ZM386 155.78C385.1 154.97 384.14 154.02 383.05 152.93C377.59 147.47 370.12 140 356 140C341.88 140 334.38 147.47 328.93 152.93C324 157.83 321.6 160 316 160C310.4 160 308 157.83 303.08 152.93C297.6 147.47 290.13 140 276 140C261.87 140 254.38 147.47 248.93 152.93C244 157.83 241.61 160 236 160C230.39 160 228 157.83 223.08 152.93C217.61 147.47 210.14 140 196 140C181.86 140 174.39 147.47 168.93 152.93C164.03 157.83 161.63 160 156.01 160C150.39 160 148.01 157.83 143.09 152.93C139.09 148.93 134 143.84 126 141.42V63.09C133.48 66.26 143.11 69.02 155 71.45C182.09 77 218 80 256 80C294 80 329.91 77 357 71.45C368.9 69.02 378.53 66.26 386 63.09V155.78Z" fill="#FCFCFC"/>
<path d="M256 354C250.484 354 245.023 352.913 239.927 350.803C234.832 348.692 230.202 345.598 226.302 341.698C222.401 337.798 219.308 333.168 217.197 328.073C215.086 322.977 214 317.515 214 312C214 284.65 245.35 252.5 248.93 248.93C250.805 247.055 253.348 246.002 256 246.002C258.652 246.002 261.195 247.055 263.07 248.93C266.65 252.5 298 284.65 298 312C298 317.515 296.914 322.977 294.803 328.073C292.692 333.168 289.599 337.798 285.698 341.698C281.798 345.598 277.168 348.692 272.073 350.803C266.977 352.913 261.516 354 256 354ZM256 270.79C245.61 283 234 300.37 234 312C234 317.835 236.318 323.43 240.444 327.556C244.569 331.682 250.165 334 256 334C261.835 334 267.431 331.682 271.556 327.556C275.682 323.43 278 317.835 278 312C278 300.37 266.39 283 256 270.79Z" fill="#00D151"/>
</svg>
