<svg width="62" height="64" viewBox="0 0 62 64" fill="none" xmlns="http://www.w3.org/2000/svg">
<path d="M24.5658 4.72929C26.6785 4.72929 28.3758 4.89725 29.9493 5.65747C31.8763 6.57681 32.9106 8.08841 32.9725 10.2542C33.0167 11.6774 32.6277 12.9945 31.9647 14.2321C30.9393 16.1591 30.1791 18.1746 29.8255 20.3315C29.6222 21.5691 29.5249 22.8155 29.6929 24.0707C29.7194 24.2829 29.6752 24.5392 29.9581 24.6188C30.2675 24.7072 30.4708 24.5746 30.6476 24.3006C32.9017 20.968 35.9957 18.8111 39.9028 17.8917C44.3846 16.8398 48.6277 17.5116 52.4023 20.1901C55.4962 22.3823 57.1581 25.5116 57.7062 29.2332C58.2542 32.937 57.4498 36.4287 55.9559 39.8055C55.178 41.5558 54.2321 43.1912 52.8354 44.526C50.5725 46.6917 47.4785 46.7006 45.1714 44.5702C44.1813 43.6597 43.5006 42.5194 42.6785 41.4851C40.9636 39.3105 38.9393 37.5337 36.4023 36.3757C36.252 36.305 36.1017 36.2519 35.9515 36.1901C35.7482 36.1194 35.536 35.9691 35.3592 36.2254C35.1824 36.4818 34.9437 36.6763 35.147 37.0741C36.199 39.1249 36.7117 41.3348 36.7294 43.6243C36.7559 46.842 35.8896 49.821 34.104 52.5083C33.6089 53.242 33.0785 53.9315 32.4951 54.568C32.3006 54.7801 32.1062 54.9834 31.894 55.1868C31.7172 55.3547 31.5316 55.5138 31.3459 55.6729C31.1603 55.8321 30.9747 55.9823 30.789 56.1238C30.5857 56.2829 30.3824 56.4332 30.1702 56.5834C29.2244 57.4232 27.8984 57.8652 26.7493 58.3602C26.4664 58.4575 26.1835 58.5459 25.9095 58.6166C23.0896 59.3857 20.2609 59.1381 17.441 58.042C13.9051 56.663 11.2354 54.2055 9.05202 51.1647C8.00892 49.7149 7.09843 48.1856 6.62108 46.4354C6.19677 44.8884 6.16141 43.368 7.00119 41.9448C7.84981 40.5039 9.19345 39.726 10.7581 39.2752C11.8454 38.9658 12.968 38.9746 14.073 38.8243C16.9813 38.4442 19.6951 37.5514 22.073 35.7834C22.1791 35.7039 22.2852 35.6243 22.3824 35.5271C22.515 35.3768 22.7979 35.3061 22.6564 35.0055C22.515 34.7138 22.4708 34.3868 22.0023 34.3514C19.2885 34.1127 16.8222 33.158 14.5946 31.6022C11.483 29.4188 9.32605 26.5105 8.2918 22.8508C6.97467 18.2276 7.82329 14.0111 10.9702 10.3337C13.2686 7.64642 16.2653 6.12598 19.6509 5.31272C21.4012 4.94145 23.1691 4.73813 24.5658 4.72929ZM22.347 58.2365C23.399 58.1569 24.5482 58.1569 25.6001 57.8387C25.7857 57.7857 25.9625 57.7326 26.1393 57.6796C26.3161 57.6265 26.4929 57.5735 26.6785 57.5293C27.1117 57.3525 27.5537 57.1757 28.0222 56.9547C28.2785 56.8221 28.5349 56.6807 28.7824 56.5304C31.01 55.2044 32.7603 53.3746 34.0067 51.0586C36.3139 46.7713 36.5261 42.3691 34.6255 37.8785C34.4045 37.3658 34.4045 37.3746 33.9802 37.7017C32.1592 39.1249 30.1084 39.6464 27.8365 39.1779C26.0244 38.8066 24.5924 37.8343 23.4697 36.3757C23.3017 36.1547 23.1957 36.0044 22.8863 36.252C20.3139 38.3205 17.3084 39.2928 14.0819 39.6995C12.9327 39.8409 11.757 39.8321 10.6432 40.221C9.03434 40.7868 7.76141 41.7061 7.31058 43.4564C7.00119 44.6497 7.21334 45.8078 7.65533 46.9127C8.96362 50.2188 11.1382 52.8707 13.8962 55.0542C15.9382 56.663 18.1923 57.6973 20.5614 58.0685C20.8531 58.1127 21.1537 58.1481 21.4542 58.1746C21.7459 58.2188 22.0465 58.2276 22.347 58.2365ZM8.54815 18.8906C8.53931 19.7392 8.63655 20.5702 8.79566 21.4011C9.48517 24.9194 11.2354 27.81 13.9581 30.1171C16.1857 32 18.7493 33.1315 21.631 33.5558C21.9669 33.6089 22.1526 33.5735 22.073 33.1227C21.8343 31.7879 21.9846 30.4707 22.515 29.2243C23.6465 26.5812 25.6708 25.0785 28.4995 24.6542C28.8001 24.61 28.8973 24.5216 28.8531 24.2122C28.7028 23.1426 28.7382 22.0641 28.8708 20.9945C29.1714 18.5105 29.9758 16.1856 31.1426 13.9757C31.5139 13.2862 31.8233 12.5702 31.9736 11.7923C32.2211 10.537 32.2476 9.29946 31.5669 8.15029C30.7714 6.78012 29.4365 6.18786 27.9691 5.86079C26.0509 5.43648 24.1062 5.51603 22.1703 5.76355C18.9879 6.16134 16.0266 7.15139 13.4807 9.16686C10.3515 11.6332 8.64539 14.8597 8.54815 18.8906ZM57.0609 31.4873C57.0609 30.7271 56.9813 29.9845 56.8664 29.242C56.4509 26.4663 55.2929 24.0265 53.304 22.0376C50.9614 19.695 48.0266 18.5989 44.7824 18.3249C42.2189 18.1127 39.7349 18.5459 37.3835 19.6332C35.0056 20.7381 33.052 22.347 31.5316 24.4774C31.3459 24.7337 31.3548 24.8663 31.6819 24.9812C32.8575 25.3879 33.8653 26.0243 34.7139 26.9613C36.694 29.1359 37.1625 31.6022 36.3227 34.3779C36.2343 34.6696 35.9338 34.9525 36.0487 35.2354C36.1636 35.5182 36.5703 35.5182 36.8443 35.642C39.5758 36.9238 41.7592 38.8508 43.5537 41.2464C44.2697 42.2011 44.9062 43.2089 45.8167 44.0044C47.5227 45.4895 49.5028 45.7459 51.315 44.6586C52.0664 44.2078 52.694 43.589 53.2067 42.8818C55.6819 39.4962 56.9106 35.6685 57.0609 31.4873ZM29.2951 38.5149C32.9194 38.5415 35.9073 35.6862 35.8984 31.9912C35.8896 28.084 32.7957 25.5116 29.4542 25.4497C25.9979 25.3879 22.8598 28.1724 22.8156 31.947C22.7625 35.5006 25.7327 38.4973 29.2951 38.5149Z" fill="#282828"/>
<path fill-rule="evenodd" clip-rule="evenodd" d="M24.5626 4.2293L24.5657 4.22928C26.6969 4.22929 28.4875 4.39627 30.1656 5.20672C31.1944 5.69774 32.0108 6.35984 32.5767 7.21175C33.1432 8.06458 33.4388 9.07787 33.4721 10.2389C33.5196 11.7674 33.1004 13.1707 32.4056 14.4677C31.4002 16.3573 30.6617 18.3206 30.3188 20.4124L30.3188 20.4126C30.1197 21.6243 30.0295 22.8168 30.1884 24.0044L30.189 24.0087C30.1919 24.032 30.1941 24.0546 30.1958 24.0754C30.2054 24.0624 30.2159 24.0472 30.2274 24.0295L30.2333 24.0204L30.2334 24.0204C32.5567 20.5855 35.7568 18.3536 39.7882 17.405L39.7885 17.4049C44.3969 16.3233 48.7894 17.0134 52.6913 19.7821C55.914 22.0656 57.6361 25.3263 58.2007 29.1603C58.7667 32.986 57.9316 36.5754 56.413 40.0078L56.4127 40.0086C55.6219 41.788 54.6439 43.4891 53.1811 44.8872C51.9653 46.0508 50.5059 46.6518 49.0224 46.6591C47.5393 46.6664 46.0696 46.0803 44.8321 44.9375C44.3041 44.4518 43.8652 43.911 43.4621 43.3743C43.3051 43.1652 43.157 42.9619 43.0115 42.7621C42.7726 42.4339 42.5406 42.1152 42.287 41.7962L42.2858 41.7947C40.6081 39.6673 38.6434 37.9483 36.1946 36.8306L36.1893 36.8281L36.1893 36.8281C36.103 36.7875 36.0283 36.7583 35.9393 36.7235C35.8897 36.7041 35.8357 36.683 35.7728 36.6573C35.7407 36.6457 35.7111 36.6339 35.6871 36.6242C35.663 36.6562 35.6451 36.6797 35.627 36.7046C35.5911 36.7539 35.5767 36.7791 35.5703 36.7932C35.5726 36.802 35.5783 36.8193 35.5922 36.8465C36.6814 38.9702 37.211 41.2572 37.2293 43.6202C37.2566 46.9357 36.3623 50.0129 34.5203 52.785L34.5183 52.7879C34.012 53.5384 33.4665 54.2481 32.8636 54.9058C32.6644 55.1231 32.4622 55.3347 32.2399 55.5477L32.2383 55.5492C32.0522 55.7261 31.8584 55.8922 31.6757 56.0488L31.6713 56.0526C31.4795 56.2169 31.2873 56.3726 31.0946 56.5195C30.892 56.678 30.69 56.8275 30.4811 56.9759C29.9609 57.4324 29.3521 57.7715 28.7476 58.0541C28.3654 58.2327 27.9577 58.4002 27.5717 58.5589C27.3537 58.6484 27.1426 58.7352 26.947 58.8194L26.9296 58.8269L26.9117 58.8331C26.6217 58.9328 26.3269 59.0251 26.0375 59.0999C23.1021 59.8996 20.1645 59.6372 17.2597 58.508L17.2592 58.5078C13.6086 57.0841 10.868 54.5511 8.64607 51.4567C7.58845 49.9868 6.639 48.4012 6.1388 46.5676C5.69442 44.9475 5.63671 43.2732 6.57048 41.6907C7.50577 40.1029 8.98076 39.2669 10.6196 38.7947L10.6212 38.7942C11.2077 38.6273 11.7951 38.5487 12.3593 38.4925C12.5573 38.4728 12.7488 38.4561 12.9367 38.4396C13.2993 38.408 13.6485 38.3774 14.0055 38.3289L14.0081 38.3285C16.8552 37.9564 19.4816 37.0868 21.7738 35.3828C21.8793 35.3037 21.9549 35.246 22.021 35.1812C22.055 35.1444 22.0887 35.1142 22.1166 35.0908C22.1241 35.0845 22.1316 35.0784 22.1389 35.0725C22.1329 35.0582 22.1272 35.0447 22.122 35.0323C22.114 35.0133 22.1071 34.9968 22.1017 34.9843C22.0738 34.92 22.057 34.8897 22.0446 34.8723C22.042 34.8686 22.0401 34.8663 22.0389 34.8649L22.038 34.8639L22.0361 34.8631C22.034 34.8622 22.0304 34.8609 22.0249 34.8594C22.0139 34.8563 21.9947 34.8522 21.9646 34.85L21.9584 34.8495L21.9584 34.8495C19.1506 34.6025 16.6017 33.6139 14.3082 32.0121L14.3073 32.0115C11.1078 29.7664 8.87822 26.7644 7.81065 22.9872C6.44942 18.2084 7.33086 13.8174 10.5903 10.0086C12.9738 7.22179 16.074 5.65768 19.534 4.82654L19.547 4.82342L19.5471 4.8236C21.3239 4.44669 23.126 4.23839 24.5626 4.2293ZM22.3334 33.9081C22.441 33.9424 22.5364 33.9906 22.6204 34.0508C22.5819 33.927 22.5468 33.8018 22.5153 33.6753C22.4757 33.7594 22.4174 33.8392 22.3334 33.9081ZM29.086 24.9535C29.2112 24.9488 29.337 24.9476 29.4631 24.9498L29.4634 24.9498C29.4834 24.9502 29.5033 24.9506 29.5233 24.9512C29.4926 24.9271 29.4633 24.9004 29.4358 24.871C29.3755 24.8065 29.332 24.7379 29.3005 24.6714C29.2738 24.7347 29.2369 24.7972 29.1865 24.8564C29.1551 24.8934 29.1213 24.9255 29.086 24.9535ZM30.5535 25.0538C30.723 25.0831 30.8912 25.1185 31.0578 25.1597C31.0022 25.0911 30.955 25.0065 30.9293 24.9036C30.9187 24.8612 30.9128 24.82 30.9106 24.7803C30.8209 24.8811 30.7119 24.9742 30.5779 25.0419C30.5698 25.046 30.5617 25.05 30.5535 25.0538ZM43.0705 41.1747C43.0707 41.175 43.0709 41.1752 43.0711 41.1755L42.9462 41.274C42.9459 41.2736 42.9456 41.2733 42.9454 41.2729L43.0699 41.174C43.0701 41.1742 43.0703 41.1745 43.0705 41.1747ZM36.6358 36.0965C39.1759 37.2893 41.2334 39.0606 42.9454 41.2729L42.6785 41.4851L42.9462 41.274C43.0158 41.364 43.0849 41.4547 43.1534 41.5462L43.1536 41.5464C43.297 41.7376 43.4405 41.9362 43.5866 42.1385C44.1187 42.8747 44.6859 43.6597 45.4092 44.3114C45.4094 44.3116 45.4096 44.3117 45.4098 44.3119C45.4355 44.3351 45.4614 44.3581 45.4876 44.3809L45.4883 44.3816C46.4029 45.1777 47.4148 45.6645 48.4655 45.7925C49.5196 45.9208 50.5786 45.6835 51.5722 45.0873C51.9515 44.8597 52.3 44.594 52.6189 44.2998C52.6189 44.2997 52.619 44.2997 52.619 44.2996C52.9887 43.9585 53.3186 43.579 53.611 43.1759C54.4292 42.0566 55.1143 40.8901 55.6723 39.6801L55.9554 39.8053L55.6726 39.6796C56.8454 37.1362 57.4564 34.4004 57.5604 31.5053L57.5608 31.4963V31.4873C57.5608 30.7332 57.4859 30.0015 57.3781 29.2817C57.3781 29.2816 57.3781 29.2815 57.3781 29.2815C57.3723 29.2432 57.3665 29.205 57.3606 29.1668C56.9304 26.2941 55.7275 23.7541 53.6574 21.684C53.1995 21.2261 52.72 20.8142 52.2213 20.4453C52.2213 20.4453 52.2212 20.4452 52.2212 20.4452C50.0586 18.8458 47.5336 18.0555 44.8244 17.8266L44.8236 17.8266C43.1717 17.6899 41.5504 17.8127 39.9746 18.197L39.9035 17.895L39.9744 18.197C39.0231 18.429 38.0884 18.7563 37.1736 19.1793L37.1727 19.1797C34.7183 20.3203 32.6969 21.9842 31.1255 24.1855C31.1252 24.186 31.1248 24.1864 31.1245 24.1869M39.9746 18.197C39.9745 18.197 39.9745 18.197 39.9744 18.197L39.9746 18.197ZM55.6726 39.6796C55.6725 39.6798 55.6724 39.68 55.6723 39.6801L55.4985 39.6032C55.4987 39.603 55.4988 39.6027 55.4989 39.6025M36.6358 36.0965C36.6367 36.0969 36.6375 36.0973 36.6384 36.0977L36.6996 35.9622C36.6981 35.9614 36.6965 35.9607 36.695 35.96M35.6717 35.585C35.639 35.537 35.6097 35.4834 35.5854 35.4236C35.5755 35.3991 35.5669 35.3749 35.5595 35.3508C35.5132 35.4362 35.4652 35.5205 35.4155 35.6036C35.5076 35.5808 35.5949 35.578 35.6717 35.585ZM34.5705 36.7361C34.4966 36.8165 34.4209 36.8951 34.3434 36.972C34.3943 36.9711 34.4484 36.9766 34.5049 36.9913C34.5379 36.9998 34.5686 37.0108 34.5972 37.0235C34.5738 36.9254 34.5653 36.8295 34.5705 36.7361ZM23.0103 35.6387C23.1164 35.6162 23.2316 35.6156 23.3529 35.6517C23.2896 35.5497 23.2289 35.4461 23.1708 35.3408C23.1365 35.4694 23.0716 35.5678 23.0103 35.6387ZM29.2921 39.0149C29.2919 39.0149 29.2916 39.0149 29.2914 39.0149L29.2926 38.844C29.2929 38.844 29.2931 38.844 29.2934 38.844L29.2925 39.0149C29.2924 39.0149 29.2923 39.0149 29.2921 39.0149ZM29.2934 38.844L29.295 38.5149L29.2926 38.844C28.8511 38.8352 28.3995 38.7835 27.9375 38.6882L27.9368 38.6881C26.2554 38.3436 24.9243 37.4454 23.8667 36.0719M36.5481 36.0656C36.5872 36.0774 36.6147 36.0872 36.6358 36.0965L36.5481 36.0656ZM27.8607 6.34889C26.0237 5.94263 24.1446 6.01517 22.2336 6.25951L22.2322 6.25968C19.114 6.64946 16.2467 7.61479 13.791 9.55888L13.7902 9.55955C10.7729 11.9376 9.14235 15.0261 9.048 18.8992C9.0399 19.7047 9.13214 20.4999 9.28646 21.3061C9.95338 24.7078 11.6417 27.4988 14.2808 29.7353M27.8607 6.34889C29.2736 6.66386 30.4422 7.2092 31.1345 8.40135L31.1344 8.40136L31.1367 8.40509C31.7252 9.39875 31.7209 10.4886 31.4829 11.6955L31.4826 11.6974C31.3456 12.4065 31.061 13.0725 30.7023 13.7386L30.7004 13.7422C29.5101 15.9966 28.6835 18.3797 28.3744 20.9337C28.2427 21.9963 28.2024 23.0835 28.3431 24.1723C25.3921 24.6383 23.2466 26.2447 22.0553 29.0275L22.0548 29.0285C21.5094 30.3104 21.3386 31.6661 21.5519 33.0381C18.8217 32.61 16.3963 31.5233 14.2813 29.7357M37.5935 20.0869C35.36 21.1249 33.518 22.6191 32.068 24.5891C33.2231 25.0234 34.2293 25.6817 35.084 26.6252C37.1899 28.9383 37.6885 31.5901 36.8012 34.5227L36.8012 34.5229C36.7641 34.6451 36.7093 34.7531 36.6665 34.8325C36.6435 34.8751 36.626 34.9062 36.6109 34.9332C36.592 34.9668 36.5768 34.9939 36.5591 35.0287C36.598 35.0414 36.6375 35.0522 36.6891 35.0663C36.7089 35.0718 36.7304 35.0776 36.7544 35.0843C36.8352 35.1068 36.9439 35.1384 37.05 35.1863L37.0566 35.1893L37.0566 35.1894C39.8738 36.5113 42.1183 38.4964 43.9536 40.9464C44.1205 41.169 44.2794 41.3884 44.435 41.6034C44.9765 42.3514 45.4785 43.0449 46.1449 43.6273C46.9364 44.3163 47.7676 44.7001 48.5864 44.7998C49.4019 44.8991 50.2391 44.721 51.0577 44.2298C51.7411 43.8198 52.3211 43.2514 52.8018 42.5883L52.803 42.5867C55.2128 39.2905 56.4123 35.5642 56.5608 31.4784C56.5601 30.7557 56.4844 30.0434 56.3722 29.3185L56.3718 29.316C55.9709 26.6378 54.8578 24.2986 52.9503 22.3911C50.7093 20.1501 47.8951 19.0897 44.7411 18.8232C42.2632 18.6181 39.8658 19.0362 37.5935 20.0869ZM36.4727 34.9934C36.4727 34.9934 36.4732 34.9937 36.4741 34.9944L36.4727 34.9934ZM29.4452 25.9496C26.2555 25.8925 23.3563 28.4661 23.3154 31.9528L23.3154 31.9544C23.2666 35.2263 26.0095 37.9986 29.2975 38.0149L29.2987 38.0149C32.6533 38.0395 35.4065 35.4011 35.3983 31.9924V31.9923C35.3902 28.3857 32.5437 26.0072 29.4452 25.9496ZM23.1028 36.7187C20.4586 38.8094 17.391 39.7864 14.1443 40.1955L14.1428 40.1957C13.8457 40.2323 13.5487 40.2589 13.2596 40.284L13.1749 40.2914C12.913 40.3141 12.6581 40.3362 12.4044 40.3644C11.8436 40.4267 11.314 40.5164 10.8089 40.6927C9.28424 41.2289 8.18771 42.0552 7.79469 43.5811L7.7945 43.5818C7.52097 44.6369 7.70104 45.6809 8.11949 46.727L8.12017 46.7287C9.39047 49.9388 11.5043 52.5229 14.2065 54.6621C16.1886 56.2235 18.3635 57.2177 20.6371 57.5743C20.9175 57.6168 21.2073 57.6509 21.4981 57.6765L21.5136 57.6779L21.529 57.6802C21.7784 57.718 22.0402 57.7272 22.3356 57.7359C22.5653 57.7188 22.7929 57.7053 23.0182 57.692C23.8681 57.6416 24.6846 57.5932 25.4552 57.3601L25.4626 57.3579L25.4626 57.3579C25.6446 57.3059 25.8183 57.2538 25.9956 57.2007L26.0011 57.199C26.1633 57.1503 26.3388 57.0977 26.5244 57.0521C26.5549 57.0397 26.5854 57.0273 26.6159 57.0148C27.0073 56.8554 27.3936 56.698 27.8005 56.5064C28.0463 56.3791 28.2896 56.2446 28.5228 56.103L28.5266 56.1007C30.6756 54.8216 32.3624 53.0587 33.5663 50.8216C35.7867 46.6956 36.0034 42.4816 34.2022 38.1619C32.2916 39.6214 30.1217 40.1597 27.7355 39.6676C25.8094 39.2728 24.2862 38.2407 23.1028 36.7187Z" fill="#282828"/>
<path d="M32.8842 31.9735C32.8842 33.9359 31.293 35.5359 29.3659 35.5359C27.4212 35.5359 25.8389 33.9359 25.8389 31.9823C25.8389 29.9934 27.3858 28.4553 29.3483 28.4287C31.2488 28.4022 32.9637 30.1171 32.8842 31.9735ZM26.6698 31.9558C26.661 33.4497 27.8455 34.6608 29.3394 34.6873C30.7891 34.7138 32.0444 33.4763 32.0532 32C32.0621 30.4442 30.9041 29.2685 29.3659 29.2685C27.8455 29.2685 26.6786 30.4442 26.6698 31.9558Z" fill="#282828"/>
<path fill-rule="evenodd" clip-rule="evenodd" d="M33.3842 31.9841C33.4696 29.832 31.5123 27.8986 29.3415 27.9288L33.3842 31.9841ZM33.3842 31.9841C33.3784 34.213 31.5705 36.0359 29.3659 36.0359C27.141 36.0359 25.3389 34.208 25.3389 31.9823C25.3389 29.7169 27.1085 27.9591 29.3413 27.9288M29.3659 29.7685C28.1232 29.7685 27.177 30.7194 27.1698 31.9587L27.1698 31.9588C27.1626 33.1784 28.1277 34.1657 29.3483 34.1874L29.3486 34.1874C30.5136 34.2087 31.5459 33.201 31.5532 31.9972M29.3659 29.7685C30.6219 29.7685 31.5605 30.7137 31.5532 31.997L29.3659 29.7685Z" fill="#282828"/>
<path fill-rule="evenodd" clip-rule="evenodd" d="M29.3921 25.4597C25.8044 25.4597 22.896 28.3681 22.896 31.9558C22.896 35.5435 25.8044 38.4519 29.3921 38.4519C32.9798 38.4519 35.8883 35.5435 35.8883 31.9558C35.8883 28.3681 32.9798 25.4597 29.3921 25.4597ZM20.896 31.9558C20.896 27.2635 24.6998 23.4597 29.3921 23.4597C34.0844 23.4597 37.8883 27.2635 37.8883 31.9558C37.8883 36.6481 34.0844 40.4519 29.3921 40.4519C24.6998 40.4519 20.896 36.6481 20.896 31.9558Z" fill="#282828"/>
<path fill-rule="evenodd" clip-rule="evenodd" d="M29.3481 30.1801C28.3576 30.1801 27.5547 30.983 27.5547 31.9735C27.5547 32.9639 28.3576 33.7669 29.3481 33.7669C30.3385 33.7669 31.1414 32.9639 31.1414 31.9735C31.1414 30.983 30.3385 30.1801 29.3481 30.1801ZM25.5547 31.9735C25.5547 29.8785 27.253 28.1801 29.3481 28.1801C31.4431 28.1801 33.1414 29.8785 33.1414 31.9735C33.1414 34.0685 31.4431 35.7669 29.3481 35.7669C27.253 35.7669 25.5547 34.0685 25.5547 31.9735Z" fill="#282828"/>
</svg>
