<?xml version="1.0" encoding="UTF-8"?>
<svg height="600" width="800" xmlns="http://www.w3.org/2000/svg" xmlns:xlink="http://www.w3.org/1999/xlink">
    <g id="Notes" font-family="'LucidaGrande', 'Lucida Grande', sans-serif" font-size="13">
        <rect fill="white" height="600.0" width="800.0" x="0.0" y="0.0" />
        <g font-size="13">
            <text x="18.0" y="176.0">Small</text>
            <text x="18.0" y="376.0">Medium</text>
            <text x="18.0" y="576.0">Large</text>
        </g>
        <g font-size="9">
            <text x="250.0" y="30.0">Ultralight</text>
            <text x="450.0" y="30.0">Regular</text>
            <text x="650.0" y="30.0">Black</text>
            <text id="template-version" fill="#505050" text-anchor="end" x="785.0" y="575.0">Template v.3.0</text>
            <a href="https://github.com/swhitty/SwiftDraw">
                <text fill="#505050" text-anchor="end" x="785.0" y="590.0">https://github.com/swhitty/SwiftDraw</text>
            </a>
        </g>
    </g>
    <g id="Guides" stroke="rgb(39, 170, 225)" stroke-width="0.5">
        <path id="Capline-S" d="M18,76 l800,0" />
        <path id="H-reference" d="M85,145.755 L87.685,145.755 L113.369,79.287 L114.052,79.287 L114.052,76 L112.148,76 L85,145.755 Z M95.693,121.536 L130.996,121.536 L130.263,119.313 L96.474,119.313 L95.693,121.536 Z M139.15,145.755 L141.787,145.755 L114.638,76 L113.466,76 L113.466,79.287 L139.15,145.755 Z" stroke="none" />
        <path id="Baseline-S" d="M18,146 l800,0" />
        <path id="left-margin-Ultralight-S" d="M219.98,56 l0,110" />
        <path id="right-margin-Ultralight-S" d="M310.02,56 l0,110" />
        <path id="left-margin-Regular-S" d="M419.98,56 l0,110" />
        <path id="right-margin-Regular-S" d="M510.02,56 l0,110" />
        <path id="left-margin-Black-S" d="M619.98,56 l0,110" />
        <path id="right-margin-Black-S" d="M710.02,56 l0,110" />
        <path id="Capline-M" d="M18,276 l800,0" />
        <path id="Baseline-M" d="M18,346 l800,0" />
        <path id="Capline-L" d="M18,476 l800,0" />
        <path id="Baseline-L" d="M18,546 l800,0" />
    </g>
    <g id="Symbols">
        <g id="Ultralight-S">
            <path d="M287.875,100.556 L282.946,95.951 L282.946,80.29 C282.944,79.557 282.345,78.956 281.611,78.954 L272.733,78.954 C271.993,78.954 271.393,79.551 271.39,80.288 L271.39,85.243 L261.809,76.354 C261.554,76.118 261.227,76 260.899,76 C260.571,76 260.243,76.118 259.989,76.355 L230.897,103.346 C230.315,103.884 229.982,104.647 229.98,105.438 C229.982,106.987 231.245,108.251 232.797,108.252 L238.855,108.252 L238.855,129.102 C238.858,132.283 241.448,134.873 244.63,134.877 L255.003,134.877 C255.742,134.893 256.357,134.313 256.376,133.575 C256.386,133.219 256.256,132.878 256.01,132.619 C255.764,132.36 255.432,132.212 255.074,132.203 C255.05,132.203 255.027,132.203 255.005,132.203 L244.629,132.203 C242.921,132.202 241.53,130.81 241.529,129.103 L241.529,106.915 C241.528,106.179 240.927,105.58 240.19,105.578 L232.434,105.569 L260.9,79.157 L271.824,89.285 C272.073,89.515 272.394,89.638 272.733,89.64 C272.921,89.64 273.1,89.604 273.27,89.533 C273.754,89.322 274.071,88.841 274.071,88.309 L274.071,81.633 L280.271,81.633 L280.271,96.543 C280.271,96.909 280.427,97.267 280.694,97.521 L286.047,102.521 C286.588,103.024 287.439,102.994 287.943,102.452 C288.187,102.189 288.315,101.847 288.302,101.489 C288.289,101.131 288.137,100.799 287.875,100.555 L287.875,100.556 Z" />
            <path d="M281.218,108.394 C270.849,108.394 262.414,116.829 262.414,127.198 C262.414,137.567 270.849,146 281.218,146 C291.587,146 300.02,137.565 300.02,127.198 C300.02,116.83 291.585,108.394 281.218,108.394 Z M281.216,143.186 C272.401,143.186 265.229,136.013 265.229,127.198 C265.229,118.383 272.401,111.21 281.216,111.21 C290.023,111.22 297.194,118.392 297.204,127.198 C297.204,136.013 290.032,143.186 281.216,143.186 Z" />
            <path d="M279.494,133.875 C279.133,133.875 278.795,133.734 278.54,133.48 L273.242,128.182 C272.982,127.923 272.843,127.577 272.848,127.209 L272.848,127.187 C272.843,126.819 272.983,126.472 273.242,126.214 L278.54,120.916 C278.794,120.662 279.133,120.521 279.494,120.521 C279.855,120.521 280.193,120.662 280.448,120.916 C280.702,121.17 280.843,121.509 280.843,121.87 C280.843,122.231 280.702,122.569 280.448,122.824 L277.291,125.981 L288.382,125.981 C289.126,125.981 289.731,126.586 289.731,127.33 C289.731,128.074 289.126,128.679 288.382,128.679 L277.554,128.679 L280.448,131.573 C280.702,131.827 280.843,132.166 280.843,132.527 C280.843,132.888 280.702,133.226 280.448,133.481 C280.194,133.737 279.855,133.876 279.494,133.876 L279.494,133.875 Z" />
        </g>
        <g id="Regular-S">
            <path d="M487.875,100.556 L482.946,95.951 L482.946,80.29 C482.944,79.557 482.345,78.956 481.611,78.954 L472.733,78.954 C471.993,78.954 471.393,79.551 471.39,80.288 L471.39,85.243 L461.809,76.354 C461.554,76.118 461.227,76 460.899,76 C460.571,76 460.243,76.118 459.989,76.355 L430.897,103.346 C430.315,103.884 429.982,104.647 429.98,105.438 C429.982,106.987 431.245,108.251 432.797,108.252 L438.855,108.252 L438.855,129.102 C438.858,132.283 441.448,134.873 444.63,134.877 L455.003,134.877 C455.742,134.893 456.356,134.313 456.376,133.575 C456.386,133.219 456.256,132.878 456.01,132.619 C455.764,132.36 455.432,132.212 455.074,132.203 C455.05,132.203 455.027,132.203 455.005,132.203 L444.629,132.203 C442.921,132.202 441.53,130.81 441.529,129.103 L441.529,106.915 C441.527,106.179 440.927,105.58 440.19,105.578 L432.434,105.569 L460.9,79.157 L471.824,89.285 C472.073,89.515 472.394,89.638 472.733,89.64 C472.921,89.64 473.1,89.604 473.27,89.533 C473.754,89.322 474.071,88.841 474.071,88.309 L474.071,81.633 L480.271,81.633 L480.271,96.543 C480.271,96.909 480.427,97.267 480.694,97.521 L486.047,102.521 C486.588,103.024 487.439,102.994 487.943,102.452 C488.187,102.189 488.315,101.847 488.302,101.489 C488.289,101.131 488.137,100.799 487.875,100.555 L487.875,100.556 Z" />
            <path d="M481.218,108.394 C470.849,108.394 462.414,116.829 462.414,127.198 C462.414,137.567 470.849,146 481.218,146 C491.587,146 500.02,137.565 500.02,127.198 C500.02,116.83 491.585,108.394 481.218,108.394 Z M481.216,143.186 C472.401,143.186 465.229,136.013 465.229,127.198 C465.229,118.383 472.401,111.21 481.216,111.21 C490.023,111.22 497.194,118.392 497.204,127.198 C497.204,136.013 490.032,143.186 481.216,143.186 Z" />
            <path d="M479.494,133.875 C479.133,133.875 478.795,133.734 478.54,133.48 L473.242,128.182 C472.982,127.923 472.843,127.577 472.848,127.209 L472.848,127.187 C472.843,126.819 472.983,126.472 473.242,126.214 L478.54,120.916 C478.794,120.662 479.133,120.521 479.494,120.521 C479.855,120.521 480.193,120.662 480.448,120.916 C480.702,121.17 480.843,121.509 480.843,121.87 C480.843,122.231 480.702,122.569 480.448,122.824 L477.291,125.981 L488.382,125.981 C489.126,125.981 489.731,126.586 489.731,127.33 C489.731,128.074 489.126,128.679 488.382,128.679 L477.554,128.679 L480.448,131.573 C480.702,131.827 480.843,132.166 480.843,132.527 C480.843,132.888 480.702,133.226 480.448,133.481 C480.194,133.737 479.855,133.876 479.494,133.876 L479.494,133.875 Z" />
        </g>
        <g id="Black-S">
            <path d="M687.875,100.556 L682.946,95.951 L682.946,80.29 C682.944,79.557 682.345,78.956 681.611,78.954 L672.733,78.954 C671.993,78.954 671.393,79.551 671.39,80.288 L671.39,85.243 L661.809,76.354 C661.554,76.118 661.227,76 660.899,76 C660.571,76 660.243,76.118 659.989,76.355 L630.897,103.346 C630.315,103.884 629.982,104.647 629.98,105.438 C629.982,106.987 631.245,108.251 632.797,108.252 L638.855,108.252 L638.855,129.102 C638.858,132.283 641.448,134.873 644.63,134.877 L655.003,134.877 C655.742,134.893 656.357,134.313 656.376,133.575 C656.386,133.219 656.256,132.878 656.01,132.619 C655.764,132.36 655.432,132.212 655.074,132.203 C655.05,132.203 655.027,132.203 655.005,132.203 L644.629,132.203 C642.921,132.202 641.53,130.81 641.529,129.103 L641.529,106.915 C641.528,106.179 640.927,105.58 640.19,105.578 L632.434,105.569 L660.9,79.157 L671.824,89.285 C672.073,89.515 672.394,89.638 672.733,89.64 C672.921,89.64 673.1,89.604 673.27,89.533 C673.754,89.322 674.071,88.841 674.071,88.309 L674.071,81.633 L680.271,81.633 L680.271,96.543 C680.271,96.909 680.427,97.267 680.694,97.521 L686.047,102.521 C686.588,103.024 687.439,102.994 687.943,102.452 C688.187,102.189 688.315,101.847 688.302,101.489 C688.289,101.131 688.137,100.799 687.875,100.555 L687.875,100.556 Z" />
            <path d="M681.218,108.394 C670.849,108.394 662.414,116.829 662.414,127.198 C662.414,137.567 670.849,146 681.218,146 C691.587,146 700.02,137.565 700.02,127.198 C700.02,116.83 691.585,108.394 681.218,108.394 Z M681.216,143.186 C672.401,143.186 665.229,136.013 665.229,127.198 C665.229,118.383 672.401,111.21 681.216,111.21 C690.023,111.22 697.194,118.392 697.204,127.198 C697.204,136.013 690.032,143.186 681.216,143.186 Z" />
            <path d="M679.494,133.875 C679.133,133.875 678.795,133.734 678.54,133.48 L673.242,128.182 C672.982,127.923 672.843,127.577 672.848,127.209 L672.848,127.187 C672.843,126.819 672.983,126.472 673.242,126.214 L678.54,120.916 C678.794,120.662 679.133,120.521 679.494,120.521 C679.855,120.521 680.193,120.662 680.448,120.916 C680.702,121.17 680.843,121.509 680.843,121.87 C680.843,122.231 680.702,122.569 680.448,122.824 L677.291,125.981 L688.382,125.981 C689.126,125.981 689.731,126.586 689.731,127.33 C689.731,128.074 689.126,128.679 688.382,128.679 L677.554,128.679 L680.448,131.573 C680.702,131.827 680.843,132.166 680.843,132.527 C680.843,132.888 680.702,133.226 680.448,133.481 C680.194,133.737 679.855,133.876 679.494,133.876 L679.494,133.875 Z" />
        </g>
    </g>
</svg>