<svg width="48" height="48" viewBox="0 0 48 48" fill="none" xmlns="http://www.w3.org/2000/svg">
<path d="M25.2732 30.9856C25.265 30.6762 25.0137 30.427 24.7006 30.4172H22.8307L23.8861 29.3753C24.1163 29.1481 24.1163 28.7779 23.8861 28.5507C23.6558 28.3236 23.2806 28.3236 23.0503 28.5507L21.1593 30.4166H19.8731L19.8079 30.2143C19.691 29.851 19.4908 29.5103 19.2294 29.2298L19.0838 29.0728L19.728 27.9736L22.3121 27.2898C22.4648 27.2498 22.5923 27.1531 22.6715 27.0186C22.7508 26.8836 22.772 26.7266 22.7309 26.5765C22.6621 26.3215 22.4272 26.1442 22.16 26.1442C22.1083 26.1442 22.0566 26.1512 22.0061 26.1639L20.5643 26.5452L21.5028 24.9413C21.5815 24.8062 21.6027 24.6492 21.5616 24.4986C21.5204 24.3479 21.423 24.2222 21.2861 24.1445C21.0042 23.984 20.6419 24.0796 20.4786 24.3583L19.5407 25.9617L19.1542 24.5385C19.0849 24.2842 18.8506 24.1063 18.5834 24.1063C18.4254 24.1063 18.2768 24.1671 18.1652 24.2772C18.0537 24.3873 17.992 24.5345 17.992 24.6904C17.992 24.7413 17.999 24.7923 18.0126 24.8422L18.7056 27.3924L18.0619 28.4916L17.8516 28.4453C17.4746 28.3624 17.0758 28.3624 16.6982 28.4453L16.4879 28.4916L15.8443 27.3924L16.5373 24.8428C16.5784 24.6921 16.5578 24.5345 16.4785 24.3995C16.401 24.2662 16.2759 24.1706 16.1268 24.1289L16.1185 24.1265C16.0692 24.1132 16.0181 24.1068 15.967 24.1068H15.9664C15.6998 24.1068 15.4649 24.2847 15.3956 24.5391L15.0074 25.9605L14.0701 24.3577C13.9649 24.1804 13.7682 24.0692 13.5579 24.0692C13.4011 24.0692 13.2525 24.1306 13.1415 24.2413C13.03 24.352 12.9695 24.498 12.9695 24.6539C12.9695 24.7553 12.9971 24.8555 13.0488 24.9436L13.9861 26.5452L12.5437 26.1633C12.4944 26.1506 12.4421 26.1436 12.3898 26.1436C12.0639 26.1436 11.799 26.405 11.799 26.7266C11.799 26.9902 11.9793 27.222 12.2371 27.2898L14.8212 27.973L15.4655 29.0722L15.3198 29.2293C15.0585 29.5103 14.8588 29.851 14.7419 30.2143L14.6767 30.4166H13.39L11.4989 28.5507C11.2687 28.3236 10.8934 28.3236 10.6632 28.5507C10.5516 28.6608 10.4899 28.8074 10.4899 28.9627C10.4899 29.118 10.5516 29.2646 10.6632 29.3747L11.7185 30.4166H9.84567C9.68886 30.4212 9.54321 30.4855 9.43574 30.5979C9.32709 30.7109 9.26953 30.8587 9.27364 31.0146C9.28187 31.324 9.53264 31.5732 9.84625 31.583H11.7191L10.6638 32.6249C10.5528 32.735 10.4911 32.8816 10.4917 33.0375C10.4917 33.1933 10.5539 33.3399 10.6655 33.45C10.7771 33.5596 10.9251 33.6204 11.0819 33.6204H11.0831C11.2381 33.6204 11.3897 33.5584 11.4989 33.45L13.3906 31.5836H14.6767L14.7419 31.7858C14.8588 32.1492 15.0591 32.4899 15.3204 32.7703L15.4661 32.9274L14.8218 34.0266L12.2377 34.7104C12.085 34.7503 11.9576 34.8471 11.8783 34.9816C11.799 35.1166 11.7779 35.2736 11.819 35.4237C11.8877 35.6781 12.1226 35.856 12.3892 35.856H12.3898C12.4415 35.856 12.492 35.849 12.5413 35.8363L13.9843 35.4555L13.0464 37.0589C12.9677 37.1939 12.9472 37.351 12.9883 37.5016C13.0294 37.6523 13.1275 37.778 13.2649 37.8557C13.3536 37.9061 13.4546 37.9327 13.5574 37.9333C13.7664 37.9333 13.9632 37.8209 14.0689 37.6407L15.0068 36.0379L15.3938 37.4611C15.4349 37.6117 15.5324 37.7375 15.6693 37.8151C15.8061 37.8928 15.9653 37.9136 16.1179 37.8731C16.2706 37.8325 16.3981 37.7363 16.4768 37.6013C16.5555 37.4663 16.5766 37.3092 16.5355 37.1586L15.8425 34.609L16.4862 33.5097L16.6964 33.5561C17.0735 33.6389 17.4722 33.6389 17.8499 33.5561L18.0601 33.5097L18.7038 34.609L18.0108 37.1586C17.9268 37.4692 18.1142 37.7896 18.4289 37.8725C18.7437 37.9559 19.0685 37.7705 19.1525 37.4599L19.5395 36.0367L20.4774 37.6401C20.5831 37.8197 20.7799 37.9316 20.9907 37.9322C21.1469 37.9316 21.2955 37.8702 21.4065 37.7589C21.5175 37.6476 21.5786 37.501 21.578 37.3452C21.578 37.2443 21.5504 37.1441 21.4993 37.0566L20.5614 35.4532L22.0038 35.8351C22.3192 35.9185 22.6434 35.7331 22.7279 35.4225C22.8125 35.1119 22.6246 34.7915 22.3098 34.708L19.7257 34.0243L19.0814 32.9251L19.2271 32.768C19.4884 32.487 19.6881 32.1468 19.8056 31.7829L19.8707 31.5813H21.1569L23.0486 33.4471C23.1602 33.5572 23.3088 33.6181 23.4667 33.6181C23.6247 33.6181 23.7727 33.5572 23.8843 33.4471C23.9959 33.337 24.0575 33.1904 24.0575 33.0351C24.0575 32.8799 23.9959 32.7332 23.8843 32.6232L22.8272 31.5813H24.7006C25.0248 31.5714 25.2815 31.3037 25.2732 30.9833V30.9856ZM18.7484 31.0059C18.7473 31.8067 18.0866 32.4586 17.2755 32.4597H17.2749C16.8808 32.4597 16.5114 32.3085 16.2325 32.0344C15.9541 31.7598 15.8002 31.3947 15.8002 31.0059C15.8002 30.2039 16.4609 29.5514 17.2737 29.5509H17.2743C18.0871 29.5509 18.7478 30.2028 18.7484 31.0047V31.0059Z" fill="#FCFCFC"/>
<path fill-rule="evenodd" clip-rule="evenodd" d="M36.0021 28.9468C36.2068 28.8832 36.4299 28.9365 36.5837 29.0858C37.9272 30.3904 38.6139 31.6509 38.8252 32.8418C39.0372 34.0364 38.7586 35.092 38.2986 35.9604C37.8423 36.8218 37.2025 37.5099 36.6631 37.9992C36.3915 38.2455 36.141 38.4454 35.9454 38.5947C35.8516 38.6662 35.77 38.7266 35.7068 38.7733L35.6992 38.7789C35.6664 38.8031 35.6406 38.8222 35.6196 38.838C35.6093 38.8458 35.6013 38.8519 35.5951 38.8568L35.588 38.8624L35.5861 38.8639C35.5857 38.8643 35.5855 38.8644 35.5855 38.8644C35.4803 38.9521 35.3477 39.0001 35.2107 39.0001H35.1365C35.0036 39.0001 34.8746 38.9549 34.7708 38.8718C34.7556 38.8596 34.7312 38.8414 34.6991 38.8174C34.4242 38.6117 33.5811 37.9809 33.0225 37.0685C32.7036 36.5476 32.4574 35.9073 32.4631 35.1737C32.4689 34.4341 32.7304 33.6555 33.3333 32.8647C34.437 31.393 35.015 30.4872 35.3139 29.9596C35.4632 29.6961 35.5404 29.5315 35.5782 29.4415C35.5966 29.3978 35.605 29.3731 35.6078 29.3645C35.657 29.1666 35.8061 29.0077 36.0021 28.9468ZM36.3386 30.526C36.3366 30.5296 36.3346 30.5332 36.3325 30.5368C36.0005 31.1226 35.391 32.0723 34.2684 33.5691L34.2655 33.573L34.2655 33.573C33.793 34.1921 33.6373 34.7306 33.6338 35.1828C33.6302 35.6418 33.7831 36.0687 34.021 36.4572C34.3643 37.018 34.8433 37.4412 35.1768 37.7063C35.7152 37.2988 36.6775 36.5196 37.2641 35.4123C37.63 34.7216 37.8294 33.9305 37.6725 33.0464C37.5421 32.3117 37.1574 31.4659 36.3386 30.526Z" fill="#FCFCFC"/>
<path fill-rule="evenodd" clip-rule="evenodd" d="M32.5452 23.0218C32.8675 22.9528 33.2185 23.0479 33.4716 23.3009C33.4911 23.3205 33.5093 23.3415 33.5259 23.3636C34.2623 24.3454 34.9794 26.0257 34.9794 27.8724C34.9794 28.6212 34.6818 29.3103 34.3067 29.9304C33.9878 30.4578 33.5803 30.9853 33.1897 31.4908C33.1235 31.5765 33.0578 31.6616 32.993 31.7459C32.0544 32.969 31.3247 34.0564 31.4136 35.246C31.5113 36.2414 31.9384 36.9884 32.2351 37.5076L32.2481 37.5303C32.3185 37.6535 32.3955 37.7885 32.4488 37.9069C32.4758 37.967 32.5073 38.0452 32.5271 38.132C32.5455 38.2124 32.5678 38.3578 32.5161 38.5213C32.4551 38.7147 32.3171 38.8527 32.1572 38.9263C32.0221 38.9885 31.8913 38.9965 31.809 38.9959C31.644 38.9948 31.4563 38.9541 31.2754 38.9065L31.2635 38.9032C29.7751 38.478 28.3635 37.1894 27.6899 35.5359C27.0026 33.849 27.0784 31.7718 28.5841 29.8176C30.6863 27.0627 31.5442 24.7593 31.823 23.716C31.9201 23.3363 32.2168 23.0922 32.5452 23.0218ZM32.8346 24.4282C32.4308 25.7179 31.4837 27.9479 29.514 30.529L29.5122 30.5312L29.5122 30.5312C28.2719 32.1403 28.2365 33.7746 28.7741 35.0942C29.2107 36.1659 30.0226 37.0241 30.8928 37.4924C30.6232 36.9573 30.333 36.2339 30.2478 35.3529L30.2468 35.3414C30.1157 33.6378 31.1669 32.2025 32.0643 31.0332C32.1338 30.9426 32.2026 30.8535 32.2704 30.7657C32.6633 30.2566 33.0236 29.7898 33.305 29.3246C33.6329 28.7823 33.8086 28.3114 33.8086 27.8724C33.8086 26.5181 33.347 25.2613 32.8346 24.4282Z" fill="#FCFCFC"/>
<path d="M3.79603 41.2553C2.01321 37.9632 1 34.1871 1 30.1727C1 22.2354 4.96094 15.2301 11 11.0539M44.204 41.2553C45.9868 37.9632 47 34.1871 47 30.1727C47 17.3748 36.7025 7 24 7C22.3628 7 20.7656 7.17234 19.2252 7.5" stroke="#FCFCFC" stroke-width="1.5" stroke-linecap="round"/>
<circle cx="15" cy="9" r="3" fill="#00D151"/>
<path d="M24 7V11" stroke="#FCFCFC" stroke-width="1.5" stroke-linecap="round" stroke-linejoin="round"/>
<path d="M47 31L43 31" stroke="#FCFCFC" stroke-width="1.5" stroke-linecap="round" stroke-linejoin="round"/>
<path d="M5 31L1 31" stroke="#FCFCFC" stroke-width="1.5" stroke-linecap="round" stroke-linejoin="round"/>
<path d="M41 15L38.1716 17.8284" stroke="#FCFCFC" stroke-width="1.5" stroke-linecap="round" stroke-linejoin="round"/>
<path d="M7 15L9.82843 17.8284" stroke="#FCFCFC" stroke-width="1.5" stroke-linecap="round" stroke-linejoin="round"/>
</svg>
