<svg width="64" height="65" viewBox="0 0 64 65" fill="none" xmlns="http://www.w3.org/2000/svg">
<g clip-path="url(#clip0_6344_13903)">
<path d="M35.0769 62.2935C34.0529 62.2935 33.0216 62.2935 31.9976 62.2935C31.3125 62.2935 30.9231 61.9113 30.9231 61.2406C30.9231 60.5988 31.3197 60.2166 31.9904 60.2094C34.0529 60.2094 36.1154 60.2094 38.1779 60.2094C38.8413 60.2094 39.2308 60.5988 39.238 61.2406C39.238 61.8897 38.8486 62.2791 38.1923 62.2863C37.1466 62.3007 36.1154 62.2935 35.0769 62.2935Z" fill="#282828"/>
<path d="M35.1633 31.832C33.4253 31.832 32.0696 30.4619 32.0696 28.7239C32.0696 26.9715 33.4398 25.6229 35.2066 25.6229C36.9301 25.6229 38.2859 27.0003 38.2859 28.7527C38.2787 30.4835 36.9085 31.8393 35.1633 31.832ZM35.1777 30.1806C35.9854 30.1806 36.6345 29.5316 36.6273 28.7239C36.6201 27.909 35.971 27.2744 35.1633 27.2816C34.3628 27.296 33.7354 27.9234 33.7282 28.7239C33.721 29.5244 34.3701 30.1806 35.1777 30.1806Z" fill="#282828"/>
<path fill-rule="evenodd" clip-rule="evenodd" d="M18.5407 30.474C9.90076 30.474 2.89669 37.4781 2.89669 46.1181C2.89669 54.758 9.90076 61.7621 18.5407 61.7621C27.1807 61.7621 34.1848 54.758 34.1848 46.1181C34.1848 37.4781 27.1807 30.474 18.5407 30.474ZM0.593506 46.1181C0.593506 36.2061 8.62875 28.1708 18.5407 28.1708C28.4527 28.1708 36.488 36.2061 36.488 46.1181C36.488 56.03 28.4527 64.0653 18.5407 64.0653C8.62875 64.0653 0.593506 56.03 0.593506 46.1181Z" fill="#282828"/>
<path d="M52.413 25.8537C51.6846 21.296 49.3841 17.6109 45.8794 14.6902C42.2808 11.6975 38.0981 10.3994 33.4106 10.8032C30.8794 11.0268 28.5212 11.8128 26.3433 13.1109C24.0501 14.4739 22.1823 16.2984 20.6534 18.4763C18.8145 21.0869 17.6895 23.9787 17.4732 27.1734C17.466 27.2455 17.466 27.3176 17.4587 27.3897C17.8193 27.3681 18.1799 27.3609 18.5477 27.3609C18.9876 27.3609 19.4203 27.3753 19.853 27.4042C19.99 25.082 20.7039 22.897 21.9371 20.8273C23.1198 18.8441 24.627 17.1566 26.5092 15.8152C28.5573 14.3513 30.8361 13.4571 33.3457 13.1903C37.4058 12.7503 41.0476 13.8104 44.2135 16.3633C47.3793 18.9162 49.4346 22.183 50.062 26.2503C50.5741 29.6181 49.8817 32.7551 48.1149 35.6686C47.3144 36.9955 46.2616 38.1133 45.1943 39.2166C43.1462 41.344 41.5308 43.7455 40.5428 46.5363C40.4635 46.7599 40.3337 46.8176 40.1173 46.8176C39.1798 46.8176 38.2423 46.8104 37.3048 46.8104C37.276 47.5748 37.2039 48.332 37.0885 49.0748C38.6678 49.0748 40.2544 49.0748 41.8337 49.082C42.1077 49.082 42.2447 49.0099 42.3241 48.7214C42.562 47.8488 42.8866 47.0123 43.2688 46.1974C44.3072 43.9762 45.7495 42.0435 47.4875 40.3128C49.1101 38.6974 50.3866 36.8368 51.2952 34.7239C52.5067 31.8681 52.9034 28.9042 52.413 25.8537Z" fill="#282828"/>
<path d="M41.7906 50.1638C41.3147 50.1782 40.8387 50.1638 40.3627 50.1638C39.9084 50.1638 39.9084 50.1638 39.9084 50.6253C39.9084 52.695 39.9012 54.7575 39.9156 56.8272C39.9156 57.1517 39.8147 57.2383 39.4974 57.2383C37.7089 57.2238 35.9132 57.231 34.1248 57.231C33.9733 57.231 33.8147 57.231 33.6632 57.231C33.144 57.9378 32.5671 58.6084 31.9541 59.2359C32.9709 59.2359 33.9805 59.2359 34.9974 59.2359C37.031 59.2359 39.0647 59.2286 41.0983 59.2431C41.4733 59.2431 41.7185 59.0844 41.8916 58.7743C42.0142 58.5508 42.0935 58.3056 42.0935 58.046C42.0935 55.5219 42.0935 52.9979 42.1007 50.4811C42.1007 50.2575 42.0286 50.1638 41.7906 50.1638Z" fill="#282828"/>
<path fill-rule="evenodd" clip-rule="evenodd" d="M18.3242 32.5482C18.9602 32.5482 19.4758 33.0638 19.4758 33.6998V46.8104C19.4758 47.4464 18.9602 47.9619 18.3242 47.9619C17.6882 47.9619 17.1726 47.4464 17.1726 46.8104V33.6998C17.1726 33.0638 17.6882 32.5482 18.3242 32.5482Z" fill="#282828"/>
<path fill-rule="evenodd" clip-rule="evenodd" d="M17.1726 46.8104C17.1726 46.1744 17.6882 45.6588 18.3242 45.6588H27.3242C27.9602 45.6588 28.4758 46.1744 28.4758 46.8104C28.4758 47.4464 27.9602 47.962 27.3242 47.962H18.3242C17.6882 47.962 17.1726 47.4464 17.1726 46.8104Z" fill="#282828"/>
</g>
<defs>
<clipPath id="clip0_6344_13903">
<rect width="63.8748" height="64" fill="white" transform="translate(0 0.0652771)"/>
</clipPath>
</defs>
</svg>
