<svg width="64" height="64" viewBox="0 0 64 64" fill="none" xmlns="http://www.w3.org/2000/svg">
<path d="M32.3131 57.4873C31.4239 57.4873 30.5284 57.4873 29.6391 57.4873C29.0442 57.4873 28.7061 57.1554 28.7061 56.573C28.7061 56.0157 29.0505 55.6838 29.6329 55.6775C31.4239 55.6775 33.2149 55.6775 35.0059 55.6775C35.582 55.6775 35.9201 56.0157 35.9264 56.573C35.9264 57.1366 35.5882 57.4748 35.0184 57.481C34.1104 57.4935 33.2149 57.4873 32.3131 57.4873Z" fill="#FCFCFC"/>
<path d="M32.3882 31.0356C30.879 31.0356 29.7017 29.8458 29.7017 28.3366C29.7017 26.8149 30.8915 25.6439 32.4257 25.6439C33.9224 25.6439 35.0997 26.8399 35.0997 28.3617C35.0934 29.8646 33.9036 31.0419 32.3882 31.0356ZM32.4007 29.6016C33.1021 29.6016 33.6657 29.038 33.6594 28.3366C33.6531 27.629 33.0895 27.0779 32.3882 27.0842C31.6931 27.0967 31.1482 27.6415 31.142 28.3366C31.1357 29.0317 31.6993 29.6016 32.4007 29.6016Z" fill="#FCFCFC"/>
<path fill-rule="evenodd" clip-rule="evenodd" d="M17.9539 29.8564C10.4512 29.8564 4.36914 35.9385 4.36914 43.4411C4.36914 50.9438 10.4512 57.0259 17.9539 57.0259C25.4565 57.0259 31.5386 50.9438 31.5386 43.4411C31.5386 35.9385 25.4565 29.8564 17.9539 29.8564ZM2.36914 43.4411C2.36914 34.8339 9.34666 27.8564 17.9539 27.8564C26.5611 27.8564 33.5386 34.8339 33.5386 43.4411C33.5386 52.0483 26.5611 59.0259 17.9539 59.0259C9.34666 59.0259 2.36914 52.0483 2.36914 43.4411Z" fill="#FCFCFC"/>
<path d="M47.3674 25.8442C46.735 21.8865 44.7373 18.6865 41.6939 16.1503C38.569 13.5515 34.9369 12.4243 30.8665 12.7749C28.6684 12.9691 26.6207 13.6517 24.7295 14.7789C22.7381 15.9624 21.1162 17.5468 19.7886 19.438C18.1917 21.7049 17.2148 24.216 17.0269 26.9902C17.0207 27.0528 17.0207 27.1155 17.0144 27.1781C17.3275 27.1593 17.6406 27.153 17.96 27.153C18.342 27.153 18.7177 27.1656 19.0935 27.1906C19.2124 25.1742 19.8324 23.2767 20.9032 21.4794C21.9303 19.7573 23.2391 18.292 24.8735 17.1272C26.652 15.856 28.6308 15.0794 30.8101 14.8477C34.3357 14.4657 37.4982 15.3863 40.2473 17.6031C42.9964 19.82 44.7811 22.6567 45.326 26.1886C45.7706 29.1131 45.1694 31.8372 43.6352 34.3671C42.94 35.5194 42.0258 36.49 41.0989 37.4481C39.3205 39.2955 37.9177 41.3808 37.0598 43.8043C36.9909 43.9984 36.8782 44.0485 36.6903 44.0485C35.8762 44.0485 35.0622 44.0423 34.2481 44.0423C34.223 44.7061 34.1604 45.3636 34.0602 46.0086C35.4316 46.0086 36.8093 46.0086 38.1807 46.0149C38.4187 46.0149 38.5377 45.9522 38.6066 45.7018C38.8132 44.944 39.095 44.2176 39.4269 43.51C40.3287 41.5812 41.5811 39.9029 43.0903 38.4C44.4993 36.9973 45.6078 35.3816 46.3968 33.5468C47.4489 31.0669 47.7933 28.4931 47.3674 25.8442Z" fill="#FCFCFC"/>
<path d="M38.1432 46.9542C37.7299 46.9667 37.3166 46.9542 36.9033 46.9542C36.5088 46.9542 36.5088 46.9542 36.5088 47.355C36.5088 49.1523 36.5025 50.9433 36.5151 52.7405C36.5151 53.0223 36.4274 53.0975 36.1519 53.0975C34.5988 53.0849 33.0395 53.0912 31.4865 53.0912C31.355 53.0912 31.2172 53.0912 31.0857 53.0912C30.6348 53.7049 30.1339 54.2873 29.6016 54.8321C30.4845 54.8321 31.3613 54.8321 32.2442 54.8321C34.0102 54.8321 35.7761 54.8258 37.5421 54.8384C37.8677 54.8384 38.0806 54.7006 38.2309 54.4313C38.3374 54.2372 38.4063 54.0243 38.4063 53.7988C38.4063 51.6071 38.4063 49.4153 38.4125 47.2298C38.4125 47.0356 38.3499 46.9542 38.1432 46.9542Z" fill="#FCFCFC"/>
<path fill-rule="evenodd" clip-rule="evenodd" d="M17.7659 31.6575C18.3182 31.6575 18.7659 32.1052 18.7659 32.6575V44.0423C18.7659 44.5946 18.3182 45.0423 17.7659 45.0423C17.2136 45.0423 16.7659 44.5946 16.7659 44.0423V32.6575C16.7659 32.1052 17.2136 31.6575 17.7659 31.6575Z" fill="#FCFCFC"/>
<path fill-rule="evenodd" clip-rule="evenodd" d="M16.7659 44.0423C16.7659 43.49 17.2136 43.0423 17.7659 43.0423H25.5811C26.1334 43.0423 26.5811 43.49 26.5811 44.0423C26.5811 44.5946 26.1334 45.0423 25.5811 45.0423H17.7659C17.2136 45.0423 16.7659 44.5946 16.7659 44.0423Z" fill="#FCFCFC"/>
</svg>
