<svg width="24" height="24" viewBox="0 0 24 24" fill="none" xmlns="http://www.w3.org/2000/svg">
<g id="Icon">
<path id="Vector" d="M23.9997 12.0187C23.9874 11.5483 23.6103 11.1695 23.1408 11.1545H20.3359L21.9189 9.57059C22.2643 9.22526 22.2643 8.66234 21.9189 8.31702C21.5736 7.97169 21.0107 7.97169 20.6654 8.31702L17.8287 11.1536H15.8995L15.8017 10.8462C15.6264 10.2938 15.326 9.77585 14.934 9.34948L14.7155 9.11074L15.6819 7.4396L19.558 6.40009C19.7871 6.33931 19.9782 6.19219 20.0972 5.98782C20.2161 5.78256 20.2478 5.54382 20.1861 5.31566C20.0831 4.92805 19.7307 4.65848 19.3299 4.65848C19.2523 4.65848 19.1748 4.66905 19.0991 4.68843L16.9363 5.26809L18.3441 2.82965C18.4621 2.62439 18.4938 2.38566 18.4322 2.15661C18.3705 1.92757 18.2243 1.73641 18.019 1.61836C17.5962 1.37434 17.0526 1.5197 16.8077 1.94343L15.4009 4.38098L14.8212 2.2174C14.7173 1.83067 14.3658 1.56022 13.9649 1.56022C13.728 1.56022 13.5051 1.65272 13.3377 1.8201C13.1703 1.98747 13.0778 2.21123 13.0778 2.44821C13.0778 2.52573 13.0884 2.60325 13.1087 2.67901L14.1482 6.55602L13.1827 8.22716L12.8673 8.15668C12.3017 8.03071 11.7036 8.03071 11.1371 8.15668L10.8218 8.22716L9.85625 6.55602L10.8958 2.67989C10.9574 2.45085 10.9266 2.21123 10.8077 2.00597C10.6914 1.80336 10.5037 1.658 10.28 1.59458L10.2676 1.59105C10.1936 1.57079 10.117 1.5611 10.0404 1.5611H10.0395C9.63954 1.5611 9.28716 1.83155 9.18321 2.21828L8.60091 4.37922L7.19493 1.94255C7.03724 1.67298 6.74213 1.50384 6.42675 1.50384C6.19154 1.50384 5.96867 1.59722 5.80217 1.76548C5.63479 1.93374 5.54405 2.15573 5.54405 2.39271C5.54405 2.54687 5.58546 2.69927 5.66298 2.83318L7.06896 5.26809L4.90537 4.68755C4.83137 4.66817 4.75297 4.6576 4.67457 4.6576C4.18565 4.6576 3.78834 5.0549 3.78834 5.54382C3.78834 5.94465 4.05879 6.29702 4.44552 6.40009L8.32165 7.43872L9.28804 9.10986L9.06957 9.3486C8.67755 9.77585 8.37803 10.2938 8.20273 10.8462L8.10494 11.1536H6.17481L3.33818 8.31702C2.99286 7.97169 2.42994 7.97169 2.08461 8.31702C1.91723 8.48439 1.82473 8.70727 1.82473 8.94336C1.82473 9.17945 1.91723 9.40233 2.08461 9.56971L3.66766 11.1536H0.858343C0.623133 11.1607 0.404659 11.2585 0.243447 11.4294C0.0804738 11.6012 -0.00585765 11.8258 0.00030892 12.0628C0.0126421 12.5332 0.388803 12.912 0.859224 12.927H3.66854L2.08549 14.5109C1.91899 14.6783 1.82649 14.9011 1.82738 15.1381C1.82738 15.3751 1.92075 15.598 2.08813 15.7653C2.25551 15.9318 2.47751 16.0243 2.71272 16.0243H2.71448C2.94705 16.0243 3.17433 15.9301 3.33818 15.7653L6.17569 12.9278H8.10494L8.20273 13.2353C8.37803 13.7876 8.67843 14.3056 9.07045 14.732L9.28892 14.9707L8.32253 16.6419L4.4464 17.6814C4.21736 17.7422 4.0262 17.8893 3.90727 18.0937C3.78834 18.2989 3.75663 18.5377 3.81829 18.7658C3.92136 19.1526 4.27374 19.423 4.67369 19.423H4.67457C4.75209 19.423 4.82785 19.4124 4.90185 19.3931L7.06632 18.8143L5.65946 21.2518C5.54141 21.4571 5.51058 21.6958 5.57224 21.9249C5.63391 22.1539 5.78103 22.3451 5.98717 22.4631C6.12019 22.5398 6.27171 22.5803 6.42587 22.5812C6.73949 22.5812 7.0346 22.4103 7.19317 22.1363L8.60003 19.6996L9.18057 21.8632C9.24223 22.0922 9.38847 22.2834 9.59373 22.4015C9.79899 22.5195 10.0377 22.5512 10.2668 22.4895C10.4958 22.4279 10.687 22.2816 10.805 22.0764C10.9231 21.8711 10.9548 21.6324 10.8931 21.4034L9.8536 17.5272L10.8191 15.8561L11.1345 15.9266C11.7001 16.0525 12.2982 16.0525 12.8647 15.9266L13.18 15.8561L14.1455 17.5272L13.106 21.4034C12.9801 21.8755 13.2611 22.3627 13.7333 22.4887C14.2054 22.6155 14.6926 22.3336 14.8186 21.8614L15.3991 19.6979L16.806 22.1354C16.9645 22.4085 17.2597 22.5785 17.5759 22.5794C17.8102 22.5785 18.0331 22.4851 18.1996 22.316C18.3661 22.1469 18.4577 21.924 18.4568 21.687C18.4568 21.5337 18.4154 21.3813 18.3388 21.2483L16.9319 18.8108L19.0955 19.3913C19.5686 19.5181 20.0549 19.2362 20.1817 18.7641C20.3086 18.2919 20.0267 17.8047 19.5545 17.6779L15.6784 16.6384L14.712 14.9672L14.9305 14.7285C15.3225 14.3012 15.622 13.7841 15.7982 13.2309L15.896 12.9243H17.8252L20.6627 15.7609C20.8301 15.9283 21.053 16.0208 21.2899 16.0208C21.5269 16.0208 21.7489 15.9283 21.9163 15.7609C22.0837 15.5936 22.1762 15.3707 22.1762 15.1346C22.1762 14.8985 22.0837 14.6756 21.9163 14.5082L20.3306 12.9243H23.1408C23.6271 12.9093 24.012 12.5024 23.9997 12.0152V12.0187ZM14.2125 12.0496C14.2107 13.267 13.2197 14.2581 12.0031 14.2598H12.0022C11.4111 14.2598 10.857 14.0299 10.4385 13.6132C10.021 13.1957 9.79018 12.6407 9.79018 12.0496C9.79018 10.8303 10.7812 9.8384 12.0004 9.83752H12.0013C13.2205 9.83752 14.2116 10.8286 14.2125 12.0478V12.0496Z" fill="white"/>
</g>
</svg>
