<svg width="512" height="512" viewBox="0 0 512 512" fill="none" xmlns="http://www.w3.org/2000/svg">
<path d="M97.8401 202.63C103.403 202.634 108.837 204.306 113.44 207.43C118.373 210.726 122.413 215.192 125.2 220.43C128.146 226.03 129.686 232.262 129.686 238.59C129.686 244.917 128.146 251.15 125.2 256.75C122.391 261.972 118.355 266.433 113.44 269.75C108.857 272.923 103.415 274.626 97.8401 274.63H68.4001L70.0001 271.75V304.87C70.0923 307.448 69.1736 309.96 67.4401 311.87C66.5899 312.796 65.5486 313.526 64.3882 314.009C63.2278 314.493 61.9762 314.718 60.7201 314.67C59.4889 314.708 58.2643 314.477 57.1314 313.993C55.9985 313.51 54.9846 312.785 54.1601 311.87C52.4265 309.96 51.5079 307.448 51.6001 304.87V212.39C51.5742 211.101 51.809 209.82 52.2903 208.624C52.7717 207.429 53.4896 206.342 54.4011 205.431C55.3126 204.519 56.3989 203.801 57.5947 203.32C58.7905 202.839 60.0713 202.604 61.3601 202.63H97.8401ZM97.8401 256.39C100.065 256.311 102.178 255.397 103.76 253.83C105.796 251.967 107.43 249.708 108.56 247.19C110.403 243.249 110.931 238.821 110.067 234.558C109.203 230.295 106.992 226.422 103.76 223.51C102.163 221.973 100.055 221.079 97.8401 221H68.0801L70.0001 218.15V259L68.2401 256.44L97.8401 256.39Z" fill="#B4B7BA"/>
<path d="M255.12 212.23V304.87C255.165 306.177 254.937 307.48 254.452 308.695C253.967 309.91 253.236 311.011 252.303 311.928C251.371 312.846 250.258 313.559 249.035 314.025C247.812 314.49 246.506 314.696 245.2 314.63C243.86 314.683 242.523 314.463 241.271 313.981C240.019 313.5 238.879 312.768 237.92 311.83C236.998 310.918 236.273 309.826 235.792 308.621C235.31 307.417 235.081 306.126 235.12 304.83V240.46L208.72 280.71C207.707 281.916 206.488 282.931 205.12 283.71C203.808 284.537 202.268 284.929 200.72 284.83C199.224 284.913 197.74 284.521 196.48 283.71C195.112 282.931 193.893 281.916 192.88 280.71L166.48 239V304.9C166.572 307.478 165.654 309.99 163.92 311.9C163.071 312.828 162.03 313.559 160.869 314.042C159.709 314.526 158.456 314.75 157.2 314.7C155.969 314.737 154.744 314.506 153.612 314.022C152.479 313.539 151.465 312.815 150.64 311.9C148.91 309.988 147.992 307.477 148.08 304.9V212.23C148.074 210.938 148.338 209.658 148.854 208.474C149.371 207.289 150.129 206.225 151.08 205.35C152.014 204.418 153.125 203.683 154.348 203.188C155.571 202.694 156.881 202.449 158.2 202.47C159.844 202.506 161.458 202.916 162.92 203.67C164.434 204.349 165.734 205.427 166.68 206.79L201.51 260.4L237.4 206.79C238.232 205.463 239.389 204.371 240.761 203.615C242.132 202.859 243.674 202.465 245.24 202.47C247.797 202.464 250.259 203.437 252.12 205.19C253.107 206.071 253.887 207.158 254.406 208.375C254.924 209.592 255.168 210.908 255.12 212.23Z" fill="#B4B7BA"/>
<path d="M360.561 212.39V304.87C360.591 306.183 360.338 307.488 359.821 308.695C359.303 309.903 358.533 310.986 357.561 311.87C355.498 313.772 352.765 314.779 349.961 314.67C348.609 314.72 347.261 314.498 345.997 314.017C344.732 313.536 343.578 312.805 342.601 311.87C341.656 310.97 340.912 309.882 340.416 308.676C339.919 307.47 339.683 306.173 339.721 304.87V229.41L330.281 236.41C328.673 237.624 326.695 238.246 324.681 238.17C323.423 238.174 322.179 237.92 321.023 237.425C319.867 236.93 318.825 236.203 317.961 235.29C317.036 234.401 316.303 233.332 315.808 232.148C315.312 230.965 315.065 229.692 315.081 228.41C315.081 224.996 316.747 222.223 320.081 220.09L343.081 204.73C344.171 203.977 345.392 203.435 346.681 203.13C347.911 202.823 349.173 202.662 350.441 202.65C351.794 202.583 353.147 202.797 354.414 203.279C355.681 203.761 356.834 204.5 357.801 205.45C358.7 206.364 359.408 207.449 359.882 208.641C360.356 209.833 360.587 211.107 360.561 212.39Z" fill="#B4B7BA"/>
<path d="M423.28 316.23C414.1 316.23 406.34 313.803 400 308.95C393.66 304.097 388.833 297.323 385.52 288.63C382.186 279.963 380.52 269.963 380.52 258.63C380.52 247.297 382.186 237.27 385.52 228.55C388.853 219.883 393.68 213.137 400 208.31C406.32 203.483 414.08 201.047 423.28 201C432.446 201 440.206 203.427 446.56 208.28C452.913 213.133 457.726 219.89 461 228.55C464.3 237.217 465.966 247.243 466 258.63C466 269.963 464.333 279.963 461 288.63C457.666 297.297 452.853 304.087 446.56 309C440.186 313.827 432.426 316.237 423.28 316.23ZM423.28 297.03C427.539 297.111 431.676 295.599 434.88 292.79C438.133 289.97 440.666 285.703 442.48 279.99C444.293 274.277 445.2 267.157 445.2 258.63C445.2 249.963 444.293 242.817 442.48 237.19C440.666 231.563 438.133 227.323 434.88 224.47C431.65 221.733 427.553 220.23 423.32 220.23C419.086 220.23 414.989 221.733 411.76 224.47C408.426 227.303 405.866 231.543 404.08 237.19C402.293 242.837 401.386 249.983 401.36 258.63C401.36 267.17 402.266 274.29 404.08 279.99C405.893 285.69 408.453 289.957 411.76 292.79C414.949 295.565 419.052 297.065 423.28 297V297.03Z" fill="#B4B7BA"/>
<path d="M123.531 166.38C120.901 166.38 118.377 165.344 116.505 163.497C114.633 161.65 113.565 159.139 113.531 156.51C113.362 143.344 117.29 130.451 124.769 119.614C132.249 108.778 142.912 100.534 155.282 96.0225C167.652 91.5111 181.118 90.9554 193.818 94.4322C206.518 97.909 217.823 105.247 226.171 115.43C227.801 117.488 228.558 120.104 228.276 122.715C227.994 125.325 226.697 127.72 224.664 129.382C222.632 131.044 220.027 131.84 217.413 131.599C214.798 131.357 212.384 130.097 210.691 128.09C204.969 121.117 197.223 116.095 188.523 113.716C179.823 111.338 170.599 111.721 162.127 114.814C153.654 117.906 146.352 123.554 141.229 130.977C136.106 138.4 133.416 147.231 133.531 156.25C133.548 157.564 133.306 158.868 132.818 160.089C132.331 161.309 131.608 162.422 130.69 163.363C129.773 164.304 128.679 165.054 127.471 165.572C126.263 166.09 124.965 166.364 123.651 166.38H123.531Z" fill="#00D151"/>
<path d="M474.6 85.9998C473.757 85.9997 472.917 85.8956 472.1 85.6898C469.531 85.0305 467.33 83.378 465.98 81.0957C464.63 78.8135 464.241 76.0884 464.9 73.5198C465.77 70.1155 465.56 66.5248 464.3 63.245C463.039 59.9652 460.789 57.1586 457.862 55.2141C454.936 53.2695 451.477 52.2832 447.964 52.3917C444.452 52.5003 441.061 53.6983 438.26 55.8198C437.209 56.6078 436.014 57.1811 434.742 57.507C433.469 57.8329 432.146 57.905 430.846 57.7193C429.546 57.5336 428.295 57.0937 427.165 56.4246C426.035 55.7555 425.048 54.8704 424.26 53.8198C422.669 51.6981 421.985 49.0311 422.36 46.4056C422.735 43.7801 424.138 41.4111 426.26 39.8198C432.372 35.2074 439.766 32.6078 447.42 32.3805C455.074 32.1533 462.61 34.3096 468.985 38.5513C475.36 42.793 480.26 48.9105 483.007 56.0581C485.754 63.2057 486.213 71.0302 484.32 78.4498C483.773 80.6119 482.52 82.5293 480.759 83.8973C478.998 85.2653 476.83 86.0054 474.6 85.9998Z" fill="#00D151"/>
<path d="M170.73 509C165.641 508.998 160.608 507.946 155.945 505.91C151.282 503.874 147.089 500.899 143.627 497.169C140.166 493.439 137.511 489.036 135.829 484.234C134.147 479.432 133.473 474.334 133.85 469.26C134.051 466.608 135.298 464.144 137.316 462.412C139.334 460.679 141.957 459.819 144.61 460.02C147.262 460.222 149.725 461.469 151.458 463.486C153.191 465.504 154.051 468.128 153.85 470.78C153.583 474.283 154.413 477.782 156.224 480.792C158.036 483.802 160.738 486.174 163.958 487.58C167.177 488.985 170.754 489.354 174.193 488.636C177.632 487.917 180.762 486.147 183.15 483.57C184.957 481.627 187.462 480.482 190.114 480.387C192.766 480.291 195.347 481.253 197.29 483.06C199.232 484.868 200.377 487.373 200.473 490.024C200.569 492.676 199.607 495.257 197.8 497.2C194.344 500.926 190.156 503.897 185.497 505.928C180.839 507.958 175.811 509.004 170.73 509Z" fill="#B4B7BA"/>
<path d="M19.3699 180.55C17.4634 180.549 15.5967 180.004 13.9897 178.979C12.3828 177.953 11.1025 176.489 10.2999 174.76C7.06359 167.811 6.06881 160.028 7.45347 152.49C8.83812 144.951 12.5336 138.029 18.0278 132.685C23.522 127.34 30.5427 123.837 38.1168 122.66C45.691 121.484 53.4435 122.693 60.2999 126.12C61.4843 126.702 62.5418 127.513 63.4114 128.505C64.281 129.498 64.9455 130.653 65.3665 131.904C65.7876 133.155 65.9569 134.476 65.8647 135.793C65.7726 137.109 65.4207 138.395 64.8294 139.574C64.2382 140.754 63.4192 141.805 62.4198 142.667C61.4203 143.529 60.2602 144.185 59.0062 144.596C57.7522 145.007 56.4292 145.167 55.1134 145.064C53.7977 144.962 52.5152 144.6 51.3399 144C48.1941 142.44 44.6415 141.896 41.173 142.442C37.7045 142.989 34.4913 144.599 31.9774 147.05C29.4635 149.501 27.7729 152.673 27.1392 156.127C26.5055 159.58 26.96 163.145 28.4399 166.33C29.1471 167.853 29.4591 169.531 29.347 171.207C29.2349 172.883 28.7024 174.504 27.7986 175.92C26.8948 177.336 25.6488 178.501 24.1757 179.309C22.7026 180.116 21.0498 180.54 19.3699 180.54V180.55Z" fill="#B4B7BA"/>
<path d="M370.17 447.28C370.206 460.058 366.388 472.55 359.215 483.126C352.043 493.701 341.849 501.869 329.964 506.563C318.079 511.256 305.055 512.258 292.592 509.437C280.129 506.617 268.806 500.104 260.1 490.75C259.18 489.793 258.46 488.661 257.982 487.423C257.503 486.184 257.277 484.862 257.315 483.534C257.353 482.207 257.655 480.9 258.203 479.691C258.752 478.481 259.536 477.393 260.509 476.49C261.483 475.587 262.627 474.886 263.874 474.43C265.121 473.974 266.447 473.77 267.773 473.832C269.1 473.893 270.401 474.218 271.601 474.788C272.8 475.358 273.875 476.161 274.76 477.15C280.439 483.263 287.756 487.614 295.838 489.686C303.92 491.758 312.428 491.462 320.347 488.835C328.266 486.208 335.263 481.36 340.505 474.868C345.746 468.377 349.011 460.515 349.91 452.22C354.014 451.877 358.078 451.157 362.05 450.07C364.815 449.319 367.528 448.387 370.17 447.28Z" fill="#00D151"/>
<path d="M446.06 401C434.329 404.243 421.839 403.36 410.68 398.5C408.368 409.297 403.475 419.373 396.42 427.868C389.366 436.363 380.359 443.023 370.17 447.28C367.528 448.387 364.815 449.319 362.05 450.07C358.078 451.157 354.014 451.876 349.91 452.22C347.97 452.4 346.03 452.48 344.09 452.48C327.454 452.461 311.405 446.325 299 435.24C297.988 434.376 297.158 433.319 296.559 432.131C295.961 430.942 295.605 429.646 295.514 428.319C295.422 426.991 295.597 425.659 296.027 424.399C296.457 423.14 297.134 421.979 298.019 420.985C298.903 419.991 299.977 419.183 301.178 418.609C302.378 418.035 303.681 417.707 305.01 417.643C306.34 417.579 307.668 417.781 308.918 418.238C310.168 418.694 311.315 419.395 312.29 420.3C319.389 426.616 328.202 430.683 337.614 431.986C347.026 433.289 356.613 431.77 365.16 427.62C373.708 423.471 380.832 416.878 385.629 408.676C390.427 400.475 392.682 391.034 392.11 381.55C391.985 379.545 392.467 377.55 393.492 375.823C394.517 374.096 396.038 372.718 397.857 371.868C399.676 371.018 401.709 370.735 403.691 371.056C405.673 371.377 407.513 372.288 408.97 373.67C414.269 378.709 421.071 381.874 428.338 382.684C435.605 383.493 442.937 381.901 449.214 378.15C455.491 374.4 460.368 368.699 463.099 361.916C465.831 355.133 466.266 347.643 464.34 340.59C463.976 339.281 463.542 337.992 463.04 336.73C462.512 335.505 462.234 334.186 462.223 332.852C462.212 331.518 462.468 330.195 462.976 328.962C463.484 327.728 464.234 326.609 465.181 325.669C466.128 324.73 467.254 323.989 468.492 323.492C469.729 322.994 471.054 322.749 472.388 322.771C473.722 322.793 475.038 323.082 476.259 323.62C477.479 324.159 478.58 324.936 479.495 325.906C480.411 326.876 481.123 328.02 481.59 329.27C482.371 331.25 483.039 333.273 483.59 335.33C487.304 349.014 485.438 363.613 478.402 375.924C471.367 388.235 459.736 397.253 446.06 401Z" fill="#B4B7BA"/>
<path d="M155.66 417.05C150.011 424.105 142.973 429.924 134.983 434.147C126.993 438.37 118.221 440.907 109.21 441.6C107.57 441.72 105.92 441.79 104.28 441.79C95.1455 441.797 86.1097 439.904 77.7468 436.23C69.3839 432.556 61.877 427.182 55.7034 420.449C49.5298 413.717 44.8246 405.774 41.887 397.125C38.9493 388.476 37.8435 379.31 38.6399 370.21C32.2473 368.05 26.3805 364.569 21.4205 359.994C16.4604 355.419 12.5181 349.852 9.84929 343.655C7.18052 337.457 5.84504 330.768 5.92956 324.02C6.01408 317.273 7.51671 310.619 10.3399 304.49C11.4485 302.081 13.4689 300.211 15.9565 299.291C18.4442 298.371 21.1954 298.477 23.6049 299.585C26.0144 300.694 27.8848 302.714 28.8047 305.202C29.7245 307.69 29.6185 310.441 28.5099 312.85C26.25 317.765 25.4529 323.226 26.2136 328.581C26.9743 333.937 29.2608 338.96 32.7999 343.05C36.9474 347.861 42.6135 351.11 48.8599 352.26C52.6502 352.967 56.5453 352.888 60.3038 352.028C64.0623 351.168 67.6042 349.545 70.7099 347.26C72.8444 345.723 75.4988 345.088 78.098 345.494C80.6972 345.9 83.0317 347.313 84.5958 349.429C86.1599 351.544 86.8274 354.19 86.4538 356.794C86.0802 359.398 84.6956 361.75 82.5999 363.34C75.5558 368.529 67.2308 371.699 58.5199 372.51C57.9325 380.556 59.4712 388.614 62.9816 395.877C66.492 403.14 71.8506 409.352 78.5199 413.89C87.0778 419.728 97.3722 422.469 107.7 421.66C113.965 421.171 120.063 419.403 125.618 416.465C131.174 413.527 136.068 409.483 140 404.58C141.675 402.575 144.069 401.305 146.669 401.042C149.269 400.779 151.868 401.544 153.911 403.174C155.954 404.804 157.278 407.169 157.599 409.762C157.92 412.355 157.213 414.972 155.63 417.05H155.66Z" fill="#B4B7BA"/>
<path d="M390.44 72.2497C390.108 72.2885 389.774 72.3086 389.44 72.3097C386.963 72.3072 384.575 71.3853 382.738 69.7225C380.902 68.0598 379.748 65.7746 379.5 63.3097C378.848 57.0531 376.919 50.9968 373.834 45.5151C370.748 40.0335 366.571 35.243 361.56 31.4397C353.325 25.163 343.192 21.8888 332.84 22.1597C324.026 22.3817 315.461 25.1324 308.165 30.0841C300.87 35.0358 295.151 41.98 291.69 50.0897C291.573 50.3739 291.44 50.651 291.29 50.9197C293.756 54.464 295.73 58.3257 297.16 62.3997C297.594 63.6407 297.778 64.9549 297.704 66.2672C297.629 67.5796 297.297 68.8644 296.726 70.0484C296.155 71.2323 295.356 72.2922 294.375 73.1675C293.395 74.0428 292.251 74.7163 291.01 75.1497C289.769 75.583 288.455 75.7677 287.143 75.6932C285.83 75.6187 284.545 75.2864 283.362 74.7153C282.178 74.1442 281.118 73.3455 280.242 72.3648C279.367 71.3841 278.694 70.2407 278.26 68.9997C276.98 65.3824 274.973 62.0655 272.362 59.2536C269.752 56.4416 266.593 54.1941 263.08 52.6497C257.305 50.0925 250.828 49.5948 244.73 51.2397C239.529 52.6178 234.835 55.4653 231.211 59.4414C227.586 63.4175 225.183 68.3538 224.29 73.6597C223.898 75.9893 222.694 78.1049 220.891 79.6315C219.088 81.158 216.803 81.997 214.44 81.9997C213.881 82.0023 213.322 81.9555 212.77 81.8597C210.155 81.4191 207.823 79.958 206.285 77.7976C204.747 75.6373 204.13 72.9547 204.57 70.3397C205.784 63.1488 208.62 56.329 212.864 50.3981C217.107 44.4672 222.646 39.5811 229.06 36.111C235.474 32.6408 242.595 30.6777 249.881 30.3708C257.167 30.0639 264.427 31.4212 271.11 34.3397C272.756 35.064 274.358 35.882 275.91 36.7897C282.588 24.3863 293.068 14.4518 305.81 8.44564C318.552 2.43951 332.885 0.678484 346.702 3.42132C360.519 6.16415 373.092 13.2662 382.574 23.684C392.056 34.1018 397.946 47.2861 399.38 61.2997C399.646 63.937 398.853 66.5718 397.177 68.6251C395.5 70.6783 393.077 71.982 390.44 72.2497Z" fill="#B4B7BA"/>
<path d="M497.51 218.59C495.886 218.59 494.286 218.195 492.85 217.438C491.413 216.682 490.182 215.586 489.263 214.247C488.345 212.908 487.766 211.366 487.577 209.753C487.388 208.14 487.595 206.505 488.18 204.99C490.003 200.252 490.735 195.164 490.322 190.105C489.909 185.045 488.361 180.143 485.794 175.763C483.227 171.383 479.707 167.638 475.494 164.805C471.281 161.973 466.484 160.125 461.46 159.4C459.258 159.078 457.227 158.031 455.687 156.425C454.147 154.818 453.188 152.744 452.96 150.53C452.557 146.595 451.18 142.822 448.952 139.553C446.725 136.284 443.717 133.622 440.201 131.808C436.686 129.994 432.773 129.086 428.818 129.165C424.863 129.244 420.99 130.308 417.55 132.26C415.241 133.567 412.508 133.902 409.952 133.193C407.396 132.484 405.226 130.789 403.92 128.48C402.614 126.172 402.278 123.439 402.987 120.883C403.696 118.326 405.391 116.157 407.7 114.85C413.482 111.574 419.935 109.656 426.569 109.242C433.202 108.829 439.843 109.93 445.988 112.463C452.133 114.997 457.621 118.895 462.035 123.864C466.45 128.832 469.677 134.74 471.47 141.14C473.01 141.58 474.53 142.09 476.03 142.67C489.324 147.817 500.034 158.027 505.81 171.06C511.586 184.093 511.956 198.885 506.84 212.19C506.113 214.075 504.832 215.694 503.167 216.837C501.501 217.979 499.529 218.59 497.51 218.59Z" fill="#B4B7BA"/>
<path d="M454.43 498C476.521 498 494.43 480.091 494.43 458C494.43 435.909 476.521 418 454.43 418C432.338 418 414.43 435.909 414.43 458C414.43 480.091 432.338 498 454.43 498Z" fill="#B4B7BA"/>
<path d="M40 512C62.0914 512 80 494.091 80 472C80 449.909 62.0914 432 40 432C17.9086 432 0 449.909 0 472C0 494.091 17.9086 512 40 512Z" fill="#B4B7BA"/>
<path d="M229.43 441C251.521 441 269.43 423.091 269.43 401C269.43 378.909 251.521 361 229.43 361C207.338 361 189.43 378.909 189.43 401C189.43 423.091 207.338 441 229.43 441Z" fill="#B4B7BA"/>
<path d="M334.43 155C356.521 155 374.43 137.091 374.43 115C374.43 92.9086 356.521 75 334.43 75C312.338 75 294.43 92.9086 294.43 115C294.43 137.091 312.338 155 334.43 155Z" fill="#B4B7BA"/>
<path d="M96.4297 95C118.521 95 136.43 77.0914 136.43 55C136.43 32.9086 118.521 15 96.4297 15C74.3383 15 56.4297 32.9086 56.4297 55C56.4297 77.0914 74.3383 95 96.4297 95Z" fill="#B4B7BA"/>
</svg>
