<svg width="64" height="64" viewBox="0 0 64 64" fill="none" xmlns="http://www.w3.org/2000/svg">
<path fill-rule="evenodd" clip-rule="evenodd" d="M44.8329 11.7875H17.1499V9.78751H44.8463C52.4319 9.85487 58.5624 16.0255 58.5624 23.625V46.3H29.8374V44.3H56.5624V23.625C56.5624 17.126 51.3203 11.8475 44.8329 11.7875Z" fill="#282828"/>
<path fill-rule="evenodd" clip-rule="evenodd" d="M25.5874 45.3625C26.1397 45.3625 26.5874 45.8102 26.5874 46.3625V54.125C26.5874 54.6773 26.1397 55.125 25.5874 55.125C25.0351 55.125 24.5874 54.6773 24.5874 54.125V46.3625C24.5874 45.8102 25.0351 45.3625 25.5874 45.3625Z" fill="#282828"/>
<path fill-rule="evenodd" clip-rule="evenodd" d="M35.2375 44.9375C35.7898 44.9375 36.2375 45.3852 36.2375 45.9375V53.7C36.2375 54.2523 35.7898 54.7 35.2375 54.7C34.6853 54.7 34.2375 54.2523 34.2375 53.7V45.9375C34.2375 45.3852 34.6853 44.9375 35.2375 44.9375Z" fill="#282828"/>
<path d="M44.6376 3.3875H35.2375V8.1875H44.6376V3.3875Z" fill="#282828"/>
<path fill-rule="evenodd" clip-rule="evenodd" d="M34.2375 3.3875C34.2375 2.83521 34.6853 2.3875 35.2375 2.3875H44.6376C45.1898 2.3875 45.6376 2.83521 45.6376 3.3875V8.1875C45.6376 8.73978 45.1898 9.1875 44.6376 9.1875H35.2375C34.6853 9.1875 34.2375 8.73978 34.2375 8.1875V3.3875ZM36.2375 4.3875V7.1875H43.6376V4.3875H36.2375Z" fill="#282828"/>
<path fill-rule="evenodd" clip-rule="evenodd" d="M35.2375 7.22501C35.7898 7.22501 36.2375 7.67272 36.2375 8.22501V21.0375C36.2375 21.5898 35.7898 22.0375 35.2375 22.0375C34.6853 22.0375 34.2375 21.5898 34.2375 21.0375V8.22501C34.2375 7.67272 34.6853 7.22501 35.2375 7.22501Z" fill="#282828"/>
<mask id="mask0_5611_49657" style="mask-type:luminance" maskUnits="userSpaceOnUse" x="3" y="18" width="27" height="25">
<path d="M29.4624 18.6625H3.7749V42.95H29.4624V18.6625Z" fill="white"/>
</mask>
<g mask="url(#mask0_5611_49657)">
<path fill-rule="evenodd" clip-rule="evenodd" d="M42.5427 21.7698C42.8701 22.2146 42.7748 22.8406 42.33 23.1679L28.605 33.2679L28.6037 33.2689C28.1329 33.6142 27.55 33.7777 27.0138 33.8078C26.4816 33.8377 25.8788 33.7426 25.3667 33.4363L7.83595 23.2777C7.35809 23.0008 7.19519 22.389 7.47209 21.9111C7.749 21.4333 8.36085 21.2704 8.8387 21.5473L26.3762 31.7098L26.3919 31.7191C26.4779 31.771 26.6587 31.8246 26.9015 31.811C27.1429 31.7974 27.3285 31.7237 27.4204 31.6565C27.4206 31.6564 27.4208 31.6562 27.421 31.6561L41.1446 21.5571C41.5894 21.2297 42.2154 21.325 42.5427 21.7698Z" fill="#12A71E"/>
<path fill-rule="evenodd" clip-rule="evenodd" d="M25.9857 31.6412C26.2667 32.1167 26.1091 32.7299 25.6336 33.0109L12.0336 41.0484C11.5581 41.3294 10.9449 41.1718 10.6639 40.6963C10.3829 40.2208 10.5406 39.6076 11.016 39.3266L24.616 31.2891C25.0915 31.0081 25.7047 31.1658 25.9857 31.6412Z" fill="#12A71E"/>
<path fill-rule="evenodd" clip-rule="evenodd" d="M27.7252 31.7007C27.9664 31.2039 28.5647 30.9967 29.0615 31.238L45.5365 39.238C46.0334 39.4792 46.2405 40.0775 45.9993 40.5743C45.758 41.0711 45.1597 41.2783 44.6629 41.0371L28.1879 33.0371C27.6911 32.7958 27.4839 32.1975 27.7252 31.7007Z" fill="#12A71E"/>
</g>
<mask id="mask1_5611_49657" style="mask-type:luminance" maskUnits="userSpaceOnUse" x="3" y="18" width="27" height="25">
<path d="M29.4624 18.6625H3.7749V42.95H29.4624V18.6625Z" fill="white"/>
</mask>
<g mask="url(#mask1_5611_49657)">
<path fill-rule="evenodd" clip-rule="evenodd" d="M42.4734 20.475C42.9583 20.4743 43.3738 20.8215 43.4592 21.2988L46.9342 40.7113C46.9863 41.0024 46.9069 41.3017 46.7173 41.5286C46.5277 41.7556 46.2474 41.887 45.9516 41.8875L10.9641 41.95C10.4794 41.9509 10.0638 41.6039 9.9781 41.1267L6.4906 21.7017C6.43831 21.4105 6.51768 21.1111 6.70736 20.884C6.89704 20.6569 7.17755 20.5254 7.47343 20.525L42.4734 20.475ZM8.67008 22.5233L11.7985 39.9485L44.7553 39.8896L41.6382 22.4762L8.67008 22.5233Z" fill="#12A71E"/>
</g>
<path fill-rule="evenodd" clip-rule="evenodd" d="M3.13745 23.6375C3.13745 15.9852 9.33517 9.78751 16.9875 9.78751C24.6384 9.78751 30.8378 15.984 30.825 23.6257V46.5H3.13745M16.9875 11.7875C10.4397 11.7875 5.13745 17.0898 5.13745 23.6375V44.3125H28.825V23.625C28.8365 17.0921 23.5361 11.7875 16.9875 11.7875Z" fill="#282828"/>
</svg>
