<svg width="64" height="64" viewBox="0 0 64 64" fill="none" xmlns="http://www.w3.org/2000/svg">
<path fill-rule="evenodd" clip-rule="evenodd" d="M48.1464 12.9576H16.1804V10.6482H48.1618C56.921 10.726 64 17.8512 64 26.6265V52.8097H30.8309V50.5002H61.6906V26.6265C61.6906 19.122 55.6375 13.0268 48.1464 12.9576Z" fill="#282828"/>
<path fill-rule="evenodd" clip-rule="evenodd" d="M25.9233 51.7271C26.561 51.7271 27.078 52.2441 27.078 52.8818V61.8453C27.078 62.483 26.561 63 25.9233 63C25.2855 63 24.7686 62.483 24.7686 61.8453V52.8818C24.7686 52.2441 25.2855 51.7271 25.9233 51.7271Z" fill="#282828"/>
<path fill-rule="evenodd" clip-rule="evenodd" d="M37.0663 51.2364C37.7041 51.2364 38.2211 51.7533 38.2211 52.3911V61.3545C38.2211 61.9923 37.7041 62.5093 37.0663 62.5093C36.4286 62.5093 35.9116 61.9923 35.9116 61.3545V52.3911C35.9116 51.7533 36.4286 51.2364 37.0663 51.2364Z" fill="#282828"/>
<path d="M47.9207 3.25797H37.0664V8.8006H47.9207V3.25797Z" fill="#282828"/>
<path fill-rule="evenodd" clip-rule="evenodd" d="M35.9116 3.25797C35.9116 2.62024 36.4286 2.10326 37.0663 2.10326H47.9207C48.5584 2.10326 49.0754 2.62024 49.0754 3.25797V8.8006C49.0754 9.43833 48.5584 9.95532 47.9207 9.95532H37.0663C36.4286 9.95532 35.9116 9.43833 35.9116 8.8006V3.25797ZM38.2211 4.41269V7.64589H46.7659V4.41269H38.2211Z" fill="#282828"/>
<path fill-rule="evenodd" clip-rule="evenodd" d="M37.0663 7.68919C37.7041 7.68919 38.2211 8.20618 38.2211 8.84391V23.6387C38.2211 24.2764 37.7041 24.7934 37.0663 24.7934C36.4286 24.7934 35.9116 24.2764 35.9116 23.6387V8.84391C35.9116 8.20618 36.4286 7.68919 37.0663 7.68919Z" fill="#282828"/>
<mask id="mask0_5611_49657" style="mask-type:luminance" maskUnits="userSpaceOnUse" x="0" y="20" width="31" height="29">
<path d="M30.3978 20.8962H0.736084V48.9414H30.3978V20.8962Z" fill="white"/>
</mask>
<g mask="url(#mask0_5611_49657)">
<path fill-rule="evenodd" clip-rule="evenodd" d="M45.5018 24.4843C45.8798 24.9979 45.7698 25.7207 45.2561 26.0987L29.4077 37.7613L29.4061 37.7625C28.8625 38.1611 28.1894 38.3499 27.5702 38.3847C26.9557 38.4193 26.2597 38.3095 25.6683 37.9558L5.42532 26.2255C4.87354 25.9058 4.68543 25.1993 5.00518 24.6475C5.32492 24.0957 6.03143 23.9076 6.58322 24.2273L26.834 35.9621L26.8522 35.9729C26.9515 36.0328 27.1602 36.0947 27.4406 36.079C27.7194 36.0633 27.9337 35.9781 28.0398 35.9006C28.04 35.9005 28.0402 35.9003 28.0404 35.9001L43.8873 24.2387C44.401 23.8607 45.1238 23.9706 45.5018 24.4843Z" fill="#12A71E"/>
<path fill-rule="evenodd" clip-rule="evenodd" d="M26.3831 35.883C26.7076 36.432 26.5256 37.1401 25.9765 37.4646L10.2724 46.7456C9.7234 47.07 9.0153 46.888 8.69084 46.339C8.36637 45.79 8.54841 45.0819 9.09743 44.7574L24.8015 35.4764C25.3506 35.1519 26.0587 35.3339 26.3831 35.883Z" fill="#12A71E"/>
<path fill-rule="evenodd" clip-rule="evenodd" d="M28.3919 35.9516C28.6705 35.378 29.3613 35.1387 29.935 35.4173L48.9589 44.655C49.5326 44.9336 49.7718 45.6245 49.4933 46.1981C49.2147 46.7718 48.5238 47.011 47.9501 46.7325L28.9262 37.4948C28.3525 37.2162 28.1133 36.5253 28.3919 35.9516Z" fill="#12A71E"/>
</g>
<mask id="mask1_5611_49657" style="mask-type:luminance" maskUnits="userSpaceOnUse" x="0" y="20" width="31" height="29">
<path d="M30.3978 20.8962H0.736084V48.9414H30.3978V20.8962Z" fill="white"/>
</mask>
<g mask="url(#mask1_5611_49657)">
<path fill-rule="evenodd" clip-rule="evenodd" d="M45.4218 22.9892C45.9817 22.9884 46.4615 23.3893 46.5601 23.9404L50.5728 46.3563C50.6329 46.6925 50.5412 47.038 50.3223 47.3001C50.1034 47.5621 49.7797 47.7139 49.4382 47.7145L9.03761 47.7867C8.47782 47.7877 7.99793 47.387 7.89901 46.836L3.87194 24.4057C3.81156 24.0694 3.90321 23.7236 4.12224 23.4614C4.34126 23.1992 4.66517 23.0474 5.00683 23.0469L45.4218 22.9892ZM6.38862 25.3544L10.0011 45.4755L48.0568 45.4075L44.4574 25.3L6.38862 25.3544Z" fill="#12A71E"/>
</g>
<path fill-rule="evenodd" clip-rule="evenodd" d="M0 26.641C0 17.8048 7.15659 10.6482 15.9928 10.6482C24.8274 10.6482 31.986 17.8034 31.9712 26.6273V53.0406H0M15.9928 12.9576C8.43205 12.9576 2.30943 19.0802 2.30943 26.641V50.5147H29.6617V26.6265C29.675 19.0829 23.5547 12.9576 15.9928 12.9576Z" fill="#282828"/>
</svg>
