<svg width="48" height="48" viewBox="0 0 48 48" fill="none" xmlns="http://www.w3.org/2000/svg">
<rect x="1" y="1" width="46" height="46" rx="23" stroke="white" stroke-width="2"/>
<path fill-rule="evenodd" clip-rule="evenodd" d="M23.125 21.125C23.125 21.6082 23.5168 22 24 22C24.4833 22 24.875 21.6082 24.875 21.125V14.875C24.875 14.3918 24.4833 14 24 14C23.5168 14 23.125 14.3918 23.125 14.875V21.125ZM18.1298 30.7452C14.9567 27.5722 14.9567 22.4278 18.1298 19.2548C18.4715 18.913 18.4715 18.359 18.1298 18.0173C17.788 17.6756 17.234 17.6756 16.8923 18.0173C13.0359 21.8737 13.0359 28.1263 16.8923 31.9827C20.7487 35.8391 27.0013 35.8391 30.8577 31.9827C34.7141 28.1263 34.7141 21.8737 30.8577 18.0173C30.516 17.6756 29.962 17.6756 29.6202 18.0173C29.2785 18.359 29.2785 18.913 29.6202 19.2548C32.7933 22.4278 32.7933 27.5722 29.6202 30.7452C26.4472 33.9183 21.3028 33.9183 18.1298 30.7452Z" fill="#EB3A28"/>
</svg>
