<svg width="512" height="512" viewBox="0 0 512 512" fill="none" xmlns="http://www.w3.org/2000/svg">
<g clip-path="url(#clip0_4680_615)">
<path d="M50 128V383C50 385.652 48.9464 388.196 47.0711 390.071C45.1957 391.946 42.6522 393 40 393C37.3478 393 34.8043 391.946 32.9289 390.071C31.0536 388.196 30 385.652 30 383V128C30 125.348 31.0536 122.804 32.9289 120.929C34.8043 119.054 37.3478 118 40 118C42.6522 118 45.1957 119.054 47.0711 120.929C48.9464 122.804 50 125.348 50 128Z" fill="#FCFCFC"/>
<path d="M242 128V383C242 385.652 240.946 388.196 239.071 390.071C237.196 391.946 234.652 393 232 393C229.348 393 226.804 391.946 224.929 390.071C223.054 388.196 222 385.652 222 383V128C222 125.348 223.054 122.804 224.929 120.929C226.804 119.054 229.348 118 232 118C234.652 118 237.196 119.054 239.071 120.929C240.946 122.804 242 125.348 242 128Z" fill="#FCFCFC"/>
<path d="M434 128V383C434 385.652 432.946 388.196 431.071 390.071C429.196 391.946 426.652 393 424 393C421.348 393 418.804 391.946 416.929 390.071C415.054 388.196 414 385.652 414 383V128C414 125.348 415.054 122.804 416.929 120.929C418.804 119.054 421.348 118 424 118C426.652 118 429.196 119.054 431.071 120.929C432.946 122.804 434 125.348 434 128Z" fill="#FCFCFC"/>
<path d="M290 168V343C290 345.652 288.946 348.196 287.071 350.071C285.196 351.946 282.652 353 280 353C277.348 353 274.804 351.946 272.929 350.071C271.054 348.196 270 345.652 270 343V168C270 165.348 271.054 162.804 272.929 160.929C274.804 159.054 277.348 158 280 158C282.652 158 285.196 159.054 287.071 160.929C288.946 162.804 290 165.348 290 168Z" fill="#FCFCFC"/>
<path d="M386 168V343C386 345.652 384.946 348.196 383.071 350.071C381.196 351.946 378.652 353 376 353C373.348 353 370.804 351.946 368.929 350.071C367.054 348.196 366 345.652 366 343V168C366 165.348 367.054 162.804 368.929 160.929C370.804 159.054 373.348 158 376 158C378.652 158 381.196 159.054 383.071 160.929C384.946 162.804 386 165.348 386 168Z" fill="#FCFCFC"/>
<path d="M338 200V311C338 313.652 336.946 316.196 335.071 318.071C333.196 319.946 330.652 321 328 321C325.348 321 322.804 319.946 320.929 318.071C319.054 316.196 318 313.652 318 311V200C318 197.348 319.054 194.804 320.929 192.929C322.804 191.054 325.348 190 328 190C330.652 190 333.196 191.054 335.071 192.929C336.946 194.804 338 197.348 338 200Z" fill="#FCFCFC"/>
<path d="M98 64V447C98 449.652 96.9464 452.196 95.0711 454.071C93.1957 455.946 90.6522 457 88 457C85.3478 457 82.8043 455.946 80.9289 454.071C79.0536 452.196 78 449.652 78 447V64C78 61.3478 79.0536 58.8043 80.9289 56.9289C82.8043 55.0536 85.3478 54 88 54C90.6522 54 93.1957 55.0536 95.0711 56.9289C96.9464 58.8043 98 61.3478 98 64Z" fill="#FCFCFC"/>
<path d="M194 64V447C194 449.652 192.946 452.196 191.071 454.071C189.196 455.946 186.652 457 184 457C181.348 457 178.804 455.946 176.929 454.071C175.054 452.196 174 449.652 174 447V64C174 61.3478 175.054 58.8043 176.929 56.9289C178.804 55.0536 181.348 54 184 54C186.652 54 189.196 55.0536 191.071 56.9289C192.946 58.8043 194 61.3478 194 64Z" fill="#FCFCFC"/>
<path d="M482 64V447C482 449.652 480.946 452.196 479.071 454.071C477.196 455.946 474.652 457 472 457C469.348 457 466.804 455.946 464.929 454.071C463.054 452.196 462 449.652 462 447V64C462 61.3478 463.054 58.8043 464.929 56.9289C466.804 55.0536 469.348 54 472 54C474.652 54 477.196 55.0536 479.071 56.9289C480.946 58.8043 482 61.3478 482 64Z" fill="#FCFCFC"/>
<path d="M146 10V501C146 503.652 144.946 506.196 143.071 508.071C141.196 509.946 138.652 511 136 511C133.348 511 130.804 509.946 128.929 508.071C127.054 506.196 126 503.652 126 501V10C126 7.34784 127.054 4.8043 128.929 2.92893C130.804 1.05357 133.348 0 136 0C138.652 0 141.196 1.05357 143.071 2.92893C144.946 4.8043 146 7.34784 146 10Z" fill="#FCFCFC"/>
<path d="M502 266H10C7.34784 266 4.8043 264.946 2.92893 263.071C1.05357 261.196 0 258.652 0 256C0 253.348 1.05357 250.804 2.92893 248.929C4.8043 247.054 7.34784 246 10 246H502C504.652 246 507.196 247.054 509.071 248.929C510.946 250.804 512 253.348 512 256C512 258.652 510.946 261.196 509.071 263.071C507.196 264.946 504.652 266 502 266Z" fill="#00D151"/>
</g>
<defs>
<clipPath id="clip0_4680_615">
<rect width="512" height="512" fill="white"/>
</clipPath>
</defs>
</svg>
