<svg width="512" height="512" viewBox="0 0 512 512" fill="none" xmlns="http://www.w3.org/2000/svg">
<path d="M415.71 181.95L381 149.52V39.23C380.99 34.07 376.77 29.84 371.6 29.82H309.08C303.87 29.82 299.64 34.03 299.62 39.22V74.11L232.15 11.51C230.35 9.85002 228.05 9.02002 225.74 9.02002C223.43 9.02002 221.12 9.85002 219.33 11.52L14.46 201.6C10.36 205.39 8.01 210.76 8 216.33C8.01 227.24 16.91 236.14 27.84 236.15H70.5V382.98C70.52 405.38 88.76 423.62 111.17 423.65H184.22C189.42 423.76 193.75 419.68 193.89 414.48C193.96 411.97 193.04 409.57 191.31 407.75C189.58 405.92 187.24 404.88 184.72 404.82C184.55 404.82 184.39 404.82 184.23 404.82H111.16C99.13 404.81 89.34 395.01 89.33 382.99V226.73C89.32 221.55 85.09 217.33 79.9 217.32L25.28 217.25L225.75 31.25L302.68 102.58C304.43 104.2 306.69 105.06 309.08 105.08C310.4 105.08 311.66 104.82 312.86 104.32C316.27 102.84 318.5 99.45 318.5 95.7V48.69H362.16V153.69C362.16 156.27 363.26 158.79 365.14 160.58L402.84 195.79C406.65 199.33 412.64 199.12 416.19 195.3C417.91 193.45 418.81 191.04 418.72 188.52C418.63 186 417.56 183.66 415.71 181.94V181.95Z" fill="#B4B7BA"/>
<path d="M368.83 237.15C295.81 237.15 236.41 296.55 236.41 369.57C236.41 442.59 295.81 501.98 368.83 501.98C441.85 501.98 501.24 442.58 501.24 369.57C501.24 296.56 441.84 237.15 368.83 237.15ZM368.82 482.16C306.74 482.16 256.23 431.65 256.23 369.57C256.23 307.49 306.74 256.98 368.82 256.98C430.84 257.05 481.34 307.56 481.41 369.57C481.41 431.65 430.9 482.16 368.82 482.16Z" fill="#B4B7BA"/>
<path d="M356.69 416.59C354.15 416.59 351.77 415.6 349.97 413.81L312.66 376.5C310.83 374.68 309.85 372.24 309.89 369.65V369.49C309.85 366.9 310.84 364.46 312.66 362.64L349.97 325.33C351.76 323.54 354.15 322.55 356.69 322.55C359.23 322.55 361.61 323.54 363.41 325.33C365.2 327.12 366.19 329.51 366.19 332.05C366.19 334.59 365.2 336.97 363.41 338.77L341.18 361H419.28C424.52 361 428.78 365.26 428.78 370.5C428.78 375.74 424.52 380 419.28 380H343.03L363.41 400.38C365.2 402.17 366.19 404.56 366.19 407.1C366.19 409.64 365.2 412.02 363.41 413.82C361.62 415.62 359.23 416.6 356.69 416.6V416.59Z" fill="#B4B7BA"/>
</svg>
