<svg width="512" height="512" viewBox="0 0 512 512" fill="none" xmlns="http://www.w3.org/2000/svg">
<path fill-rule="evenodd" clip-rule="evenodd" d="M0 26C0 20.4772 4.47715 16 10 16H502C507.523 16 512 20.4772 512 26V74C512 79.5228 507.523 84 502 84H10C4.47715 84 0 79.5228 0 74V26ZM20 36V64H492V36H20Z" fill="#FCFCFC"/>
<path fill-rule="evenodd" clip-rule="evenodd" d="M0 102C0 96.4772 4.47715 92 10 92H502C507.523 92 512 96.4772 512 102V150C512 155.523 507.523 160 502 160H10C4.47715 160 0 155.523 0 150V102ZM20 112V140H492V112H20Z" fill="#FCFCFC"/>
<path fill-rule="evenodd" clip-rule="evenodd" d="M0 178C0 172.477 4.47715 168 10 168H502C507.523 168 512 172.477 512 178V226C512 231.523 507.523 236 502 236H10C4.47715 236 0 231.523 0 226V178ZM20 188V216H492V188H20Z" fill="#FCFCFC"/>
<path fill-rule="evenodd" clip-rule="evenodd" d="M0 254C0 248.477 4.47715 244 10 244H502C507.523 244 512 248.477 512 254V302C512 307.523 507.523 312 502 312H10C4.47715 312 0 307.523 0 302V254ZM20 264V292H492V264H20Z" fill="#FCFCFC"/>
<path fill-rule="evenodd" clip-rule="evenodd" d="M0 330C0 324.477 4.47715 320 10 320H502C507.523 320 512 324.477 512 330V378C512 383.523 507.523 388 502 388H10C4.47715 388 0 383.523 0 378V330ZM20 340V368H492V340H20Z" fill="#FCFCFC"/>
<path fill-rule="evenodd" clip-rule="evenodd" d="M0 406C0 400.477 4.47715 396 10 396H502C507.523 396 512 400.477 512 406V454C512 459.523 507.523 464 502 464H10C4.47715 464 0 459.523 0 454V406ZM20 416V444H492V416H20Z" fill="#FCFCFC"/>
<path d="M496 485.999C496 491.522 491.523 495.999 486 495.999H26C20.4772 495.999 16 491.522 16 485.999V453.443H36V475.999H476V453.443H496V485.999Z" fill="#FCFCFC"/>
</svg>
