<svg width="59" height="64" viewBox="0 0 59 64" fill="none" xmlns="http://www.w3.org/2000/svg">
<g clip-path="url(#clip0_6344_14372)">
<path fill-rule="evenodd" clip-rule="evenodd" d="M23.3127 60.0548C23.3127 59.1662 24.0349 58.4475 24.9205 58.4475H33.8045C34.6904 58.4475 35.4118 59.167 35.4118 60.0548C35.4118 60.9414 34.6912 61.6621 33.8045 61.6621H24.9205C24.0342 61.6621 23.3127 60.9422 23.3127 60.0548Z" fill="#FCFCFC"/>
<path fill-rule="evenodd" clip-rule="evenodd" d="M24.4529 13.6863V4.17902H26.7323V13.6863H24.4529Z" fill="#FCFCFC"/>
<path fill-rule="evenodd" clip-rule="evenodd" d="M26.3228 13.6863V4.17902H28.6022V13.6863H26.3228Z" fill="#FCFCFC"/>
<path fill-rule="evenodd" clip-rule="evenodd" d="M28.1931 13.6863V4.17902H30.4726V13.6863H28.1931Z" fill="#FCFCFC"/>
<path fill-rule="evenodd" clip-rule="evenodd" d="M30.0632 13.6863V4.17902H32.3427V13.6863H30.0632Z" fill="#FCFCFC"/>
<path fill-rule="evenodd" clip-rule="evenodd" d="M31.9336 13.6863V4.17902H34.213V13.6863H31.9336Z" fill="#FCFCFC"/>
<path d="M23.5862 49.5342H25.219V53.1014C25.219 53.598 25.2807 53.9192 25.4055 54.0679C25.5304 54.2152 25.7857 54.2895 26.1714 54.2895H26.4716C26.8546 54.2895 27.1071 54.2166 27.2305 54.0721C27.3539 53.9262 27.4157 53.6036 27.4157 53.1014V49.5342H29.0484V53.2291C29.0484 53.7775 29.0148 54.1801 28.9475 54.4382C28.8801 54.6949 28.7665 54.9194 28.6052 55.1073C28.413 55.3304 28.1731 55.4889 27.887 55.5843C27.6008 55.681 27.2137 55.7287 26.7255 55.7287H25.9175C25.4294 55.7287 25.0422 55.681 24.7561 55.5843C24.4699 55.4889 24.2314 55.3304 24.0421 55.1073C23.878 54.9166 23.7615 54.6893 23.6914 54.427C23.6212 54.1661 23.5862 53.7663 23.5862 53.2291V49.5342ZM29.7372 49.5342H31.4794L32.6661 54.3134L33.9117 49.5342H35.6455L33.9033 55.653H31.4219L29.7372 49.5342Z" fill="#FCFCFC"/>
<path fill-rule="evenodd" clip-rule="evenodd" d="M19.7771 62.6265C19.7771 61.87 20.3906 61.253 21.1506 61.253H37.5159C38.274 61.253 38.8894 61.8685 38.8894 62.6265C38.8894 63.3845 38.274 64 37.5159 64H21.1506C20.3906 64 19.7771 63.3831 19.7771 62.6265Z" fill="#FCFCFC"/>
<path fill-rule="evenodd" clip-rule="evenodd" d="M22.5827 2.27945C22.4375 2.27945 22.3197 2.39721 22.3197 2.54247V56.3142C22.3197 56.4594 22.4375 56.5772 22.5827 56.5772H36.1426C36.2878 56.5772 36.4056 56.4594 36.4056 56.3142V2.54247C36.4056 2.39721 36.2878 2.27945 36.1426 2.27945H22.5827ZM20.0403 2.54247C20.0403 1.1383 21.1786 0 22.5827 0H36.1426C37.5467 0 38.685 1.1383 38.685 2.54247V56.3142C38.685 57.7183 37.5467 58.8566 36.1426 58.8566H22.5827C21.1786 58.8566 20.0403 57.7183 20.0403 56.3142V2.54247Z" fill="#FCFCFC"/>
</g>
<defs>
<clipPath id="clip0_6344_14372">
<rect width="58.6667" height="64" fill="white"/>
</clipPath>
</defs>
</svg>
