<svg width="59" height="64" viewBox="0 0 59 64" fill="none" xmlns="http://www.w3.org/2000/svg">
<path fill-rule="evenodd" clip-rule="evenodd" d="M23.6409 56.6154C23.6409 55.8358 24.2745 55.2051 25.0515 55.2051H32.8464C33.6237 55.2051 34.2567 55.8364 34.2567 56.6154C34.2567 57.3933 33.6243 58.0257 32.8464 58.0257H25.0515C24.2738 58.0257 23.6409 57.394 23.6409 56.6154Z" fill="#FCFCFC"/>
<path fill-rule="evenodd" clip-rule="evenodd" d="M24.6411 15.9315V7.58978H26.6411V15.9315H24.6411Z" fill="#FCFCFC"/>
<path fill-rule="evenodd" clip-rule="evenodd" d="M26.2817 15.9315V7.58978H28.2817V15.9315H26.2817Z" fill="#FCFCFC"/>
<path fill-rule="evenodd" clip-rule="evenodd" d="M27.9229 15.9315V7.58978H29.9229V15.9315H27.9229Z" fill="#FCFCFC"/>
<path fill-rule="evenodd" clip-rule="evenodd" d="M29.5637 15.9315V7.58978H31.5637V15.9315H29.5637Z" fill="#FCFCFC"/>
<path fill-rule="evenodd" clip-rule="evenodd" d="M31.2048 15.9315V7.58978H33.2048V15.9315H31.2048Z" fill="#FCFCFC"/>
<path d="M23.8806 47.3846H25.3132V50.5145C25.3132 50.9502 25.3674 51.232 25.4769 51.3625C25.5865 51.4917 25.8105 51.557 26.1489 51.557H26.4123C26.7483 51.557 26.9698 51.493 27.0782 51.3662C27.1865 51.2382 27.2406 50.9551 27.2406 50.5145V47.3846H28.6732V50.6265C28.6732 51.1077 28.6437 51.461 28.5846 51.6874C28.5255 51.9126 28.4258 52.1096 28.2843 52.2745C28.1157 52.4702 27.9052 52.6093 27.6542 52.6929C27.4031 52.7779 27.0634 52.8197 26.6351 52.8197H25.9262C25.4978 52.8197 25.1582 52.7779 24.9071 52.6929C24.656 52.6093 24.4468 52.4702 24.2806 52.2745C24.1366 52.1071 24.0345 51.9077 23.9729 51.6776C23.9114 51.4486 23.8806 51.0979 23.8806 50.6265V47.3846ZM29.2775 47.3846H30.8062L31.8474 51.5779L32.9403 47.3846H34.4615L32.9329 52.7533H30.7557L29.2775 47.3846Z" fill="#FCFCFC"/>
<path fill-rule="evenodd" clip-rule="evenodd" d="M20.5386 58.8718C20.5386 58.208 21.0769 57.6667 21.7437 57.6667H36.1027C36.7678 57.6667 37.3078 58.2067 37.3078 58.8718C37.3078 59.5369 36.7678 60.0769 36.1027 60.0769H21.7437C21.0769 60.0769 20.5386 59.5356 20.5386 58.8718Z" fill="#FCFCFC"/>
<path fill-rule="evenodd" clip-rule="evenodd" d="M23.0003 5.9231C22.8728 5.9231 22.7695 6.02641 22.7695 6.15386V53.3334C22.7695 53.4608 22.8728 53.5641 23.0003 53.5641H34.8977C35.0252 53.5641 35.1285 53.4608 35.1285 53.3334V6.15386C35.1285 6.02641 35.0252 5.9231 34.8977 5.9231H23.0003ZM20.7695 6.15386C20.7695 4.92184 21.7683 3.9231 23.0003 3.9231H34.8977C36.1298 3.9231 37.1285 4.92184 37.1285 6.15386V53.3334C37.1285 54.5654 36.1298 55.5641 34.8977 55.5641H23.0003C21.7683 55.5641 20.7695 54.5654 20.7695 53.3334V6.15386Z" fill="#FCFCFC"/>
</svg>
