<svg width="512" height="512" viewBox="0 0 512 512" fill="none" xmlns="http://www.w3.org/2000/svg">
<rect x="100" y="56" width="312" height="400" rx="4" stroke="#B4B7BA" stroke-width="20"/>
<rect x="100" y="56" width="136" height="360" stroke="#B4B7BA" stroke-width="20" stroke-linejoin="round"/>
<rect x="276" y="56" width="136" height="360" stroke="#B4B7BA" stroke-width="20" stroke-linejoin="round"/>
<path d="M36 59.9981C36 57.7889 37.7909 55.998 40 55.998H64C66.2091 55.998 68 57.7889 68 59.998V497.528C68 500.502 64.8707 502.436 62.2111 501.106L38.2111 489.106C36.856 488.428 36 487.043 36 485.528V59.9981Z" stroke="#B4B7BA" stroke-width="20"/>
<path d="M68 59.9981C68 57.7889 69.7909 55.998 72 55.998H96C98.2091 55.998 100 57.7889 100 59.998V497.528C100 500.502 96.8707 502.436 94.2111 501.106L70.2111 489.106C68.856 488.428 68 487.043 68 485.528V59.9981Z" stroke="#B4B7BA" stroke-width="20"/>
<path d="M412 59.9981C412 57.7889 413.791 55.998 416 55.998H440C442.209 55.998 444 57.7889 444 59.998V497.528C444 500.502 440.871 502.436 438.211 501.106L414.211 489.106C412.856 488.428 412 487.043 412 485.528V59.9981Z" stroke="#B4B7BA" stroke-width="20"/>
<path d="M444 59.9981C444 57.7889 445.791 55.998 448 55.998H472C474.209 55.998 476 57.7889 476 59.998V497.528C476 500.502 472.871 502.436 470.211 501.106L446.211 489.106C444.856 488.428 444 487.043 444 485.528V59.9981Z" stroke="#B4B7BA" stroke-width="20"/>
<rect x="16" y="16" width="480" height="40" stroke="#00D151" stroke-width="20" stroke-linejoin="round"/>
</svg>
