<svg width="65" height="60" viewBox="0 0 65 60" fill="none" xmlns="http://www.w3.org/2000/svg">
<path d="M60.3588 33.0941C59.8839 33.0941 59.4837 32.7073 59.4769 32.2325C59.3819 27.7481 58.2693 23.4808 56.1661 19.5459C54.158 15.7874 51.2747 12.4699 47.8215 9.95294C47.523 9.73585 47.4416 9.33557 47.6248 9.01671L49.1919 6.32336C49.3208 6.10627 49.5583 5.97058 49.8093 5.97058C49.9518 5.97058 50.0875 6.01129 50.2096 6.0927C58.8799 11.9679 64.0495 21.7168 64.0495 32.1782V32.2121C64.0495 32.7006 63.6492 33.0941 63.1675 33.0941H60.3588Z" fill="#EB3A28"/>
<path d="M49.8093 6.4794C49.85 6.4794 49.8907 6.49297 49.9247 6.51332C58.1472 12.09 63.5475 21.4998 63.5475 32.1782C63.5475 32.1917 63.5475 32.1985 63.5475 32.2121C63.5475 32.4224 63.3778 32.5852 63.1743 32.5852H60.3656C60.1621 32.5852 59.9925 32.4224 59.9925 32.2189C59.789 22.8973 55.1621 14.668 48.1336 9.5391C48.0522 9.47804 48.0251 9.36271 48.0793 9.27452L49.6465 6.58116C49.6736 6.51332 49.7415 6.4794 49.8093 6.4794ZM49.8093 5.46176C49.3751 5.46176 48.9749 5.69243 48.751 6.06556L47.1838 8.75891C46.865 9.30165 47.0142 9.99365 47.523 10.36C49.2123 11.5947 50.7727 13.0194 52.1499 14.6002C53.5339 16.1877 54.7347 17.9312 55.7184 19.7833C56.7225 21.6626 57.5095 23.6639 58.0522 25.7196C58.6153 27.8363 58.9206 30.0276 58.9681 32.2392C58.9816 32.9923 59.6058 33.6029 60.3589 33.6029H63.1675C63.9342 33.6029 64.5583 32.9787 64.5583 32.2121V32.1782C64.5583 29.478 64.2191 26.7915 63.5542 24.1931C62.9097 21.6761 61.9464 19.2338 60.7048 16.9475C58.2625 12.4495 54.7347 8.5486 50.4878 5.67207C50.291 5.53639 50.0603 5.46176 49.8093 5.46176Z" fill="#EB3A28"/>
<path d="M1.96003 33.2297C1.47156 33.2297 1.07807 32.8362 1.07129 32.3478V32.3138C1.07129 21.6897 6.37658 11.8525 15.2572 5.9977C15.3725 5.92308 15.5082 5.88237 15.6507 5.88237C15.9085 5.88237 16.1459 6.01806 16.268 6.24194L17.0482 7.61236C17.2382 7.94479 17.1229 8.37898 16.7904 8.57572C12.7063 10.9841 9.25989 14.4102 6.82434 18.4807C4.32095 22.6666 2.94374 27.4699 2.8352 32.3681C2.8352 32.843 2.43493 33.2297 1.96003 33.2297Z" fill="#00C94C"/>
<path d="M15.6507 6.39119C15.7185 6.39119 15.7932 6.42511 15.8271 6.49295L16.6073 7.86337C16.6616 7.95835 16.6276 8.08047 16.5326 8.14153C8.20836 13.0465 2.55707 22.0357 2.33319 32.3546C2.32641 32.5581 2.1568 32.7209 1.95327 32.7209C1.74296 32.7209 1.57335 32.5513 1.57335 32.3478C1.57335 32.3342 1.57335 32.3274 1.57335 32.3138C1.57335 21.493 7.12288 11.9611 15.5354 6.42511C15.5761 6.39797 15.6168 6.39119 15.6507 6.39119ZM15.6507 5.37355C15.4132 5.37355 15.1758 5.44139 14.9791 5.57708C10.6371 8.44004 7.02112 12.3546 4.51094 16.9C3.2355 19.2134 2.25178 21.6761 1.58692 24.227C0.908497 26.8525 0.5625 29.573 0.5625 32.3138V32.3478C0.5625 33.1144 1.18665 33.7385 1.96006 33.7385C2.71311 33.7385 3.33726 33.128 3.35083 32.3749C3.4051 29.9326 3.77146 27.5174 4.44988 25.1904C5.10795 22.9312 6.05775 20.7603 7.26535 18.7385C9.66019 14.7426 13.0455 11.3776 17.055 9.00991C17.6249 8.6707 17.8217 7.93122 17.496 7.35456L16.7158 5.99092C16.4987 5.611 16.0917 5.37355 15.6507 5.37355Z" fill="#00C94C"/>
<path d="M45.3861 8.38575C45.264 8.38575 45.1419 8.35183 45.0333 8.29077C40.8203 5.91628 36.0238 4.66119 31.1527 4.66119C27.184 4.66119 23.3441 5.46852 19.7348 7.05603C19.6466 7.09674 19.5449 7.11709 19.4499 7.11709C19.1921 7.11709 18.9614 6.98141 18.8325 6.75753L17.9641 5.23107C17.8692 5.06146 17.842 4.85793 17.9031 4.67476C17.9574 4.49158 18.0863 4.32876 18.2627 4.24057C22.7199 1.96784 27.53 0.814514 32.5639 0.814514C37.6724 0.814514 42.747 2.0696 47.2382 4.43731C47.4078 4.52551 47.5367 4.68833 47.591 4.8715C47.6453 5.05468 47.6181 5.2582 47.5232 5.42781L46.0035 8.02618C45.8746 8.25006 45.6371 8.38575 45.3861 8.38575Z" fill="#FFE804"/>
<path d="M32.5639 1.33012C37.7742 1.33012 42.686 2.61913 47.0008 4.89186C47.1025 4.94613 47.1364 5.07504 47.0822 5.1768L45.5625 7.77517C45.5218 7.84301 45.4539 7.87694 45.3861 7.87694C45.3522 7.87694 45.3183 7.87015 45.2843 7.8498C41.112 5.50244 36.2952 4.15916 31.1595 4.15916C27.0279 4.15916 23.093 5.02754 19.5381 6.59471C19.5109 6.60828 19.4838 6.61506 19.4567 6.61506C19.3888 6.61506 19.321 6.58114 19.2803 6.5133L18.4051 4.98684C18.344 4.88508 18.3847 4.75618 18.4865 4.7019C22.7131 2.55129 27.496 1.33012 32.5639 1.33012ZM32.5639 0.312485C29.9994 0.312485 27.4417 0.617776 24.9723 1.22158C22.5706 1.80502 20.2369 2.67341 18.032 3.79959C17.7335 3.94885 17.5096 4.22022 17.4146 4.53908C17.3196 4.85794 17.3603 5.20394 17.5231 5.49566L18.3915 7.02212C18.6086 7.40204 19.0157 7.63949 19.4499 7.63949C19.6195 7.63949 19.7891 7.60556 19.9451 7.53772C23.4865 5.97734 27.2586 5.18358 31.1527 5.18358C33.5815 5.18358 35.9899 5.49566 38.3169 6.11303C40.5693 6.71004 42.747 7.59878 44.7823 8.74532C44.9655 8.84708 45.169 8.90136 45.3793 8.90136C45.8135 8.90136 46.2138 8.67069 46.4309 8.29756L47.9506 5.69919C48.1202 5.41425 48.1609 5.06825 48.0727 4.74939C47.9845 4.43053 47.7606 4.15916 47.4689 4.00312C45.2165 2.81588 42.8284 1.9 40.359 1.28263C37.8284 0.638129 35.2029 0.312485 32.5639 0.312485Z" fill="#FFE804"/>
<path fill-rule="evenodd" clip-rule="evenodd" d="M14.1173 16.8179L17.4975 18.6844L17.5028 18.6875C18.1417 19.0525 18.3657 19.8515 18.0174 20.4932L18.0155 20.4966L15.3338 25.3304L15.3336 25.3309C14.8695 26.1662 13.8112 26.472 12.973 26.0064C12.9729 26.0064 12.9729 26.0064 12.9728 26.0063L10.0241 24.3689L10.0196 24.3663C9.69393 24.1802 9.43149 23.8645 9.3287 23.4736L8.28515 19.5568C8.28498 19.5562 8.28482 19.5556 8.28465 19.555C8.10166 18.8741 8.48262 18.1451 9.18275 17.934L13.1572 16.709L13.173 16.7048C13.4462 16.6319 13.7955 16.6367 14.1173 16.8179ZM13.4578 18.3911L10.0127 19.453L10.9413 22.9382L13.7964 24.5236L13.7965 24.5237C13.8014 24.5264 13.8053 24.5275 13.8091 24.5279C13.8136 24.5283 13.8194 24.528 13.8259 24.5262C13.8388 24.5225 13.8462 24.5156 13.8509 24.5073C13.8509 24.5073 13.8509 24.5072 13.851 24.5072L16.3561 19.9916L13.4578 18.3911Z" fill="#282828"/>
<path fill-rule="evenodd" clip-rule="evenodd" d="M34.6772 17.4486C35.1858 17.0753 35.8554 17.0448 36.3904 17.3191L36.3979 17.323L36.4054 17.327C36.9306 17.6098 37.2856 18.1598 37.2856 18.786C37.2856 22.198 38.9764 24.5069 41.1686 27.4596C41.1686 27.4596 41.1687 27.4596 41.1686 27.4596L41.1915 27.4903C43.5375 30.6499 46.3212 34.3991 46.781 40.3558L46.7812 40.3575L46.7813 40.3592L45.9355 40.421C46.7813 40.3592 46.7813 40.3591 46.7813 40.3592L46.7813 40.3592L46.7814 40.3601L46.7823 40.3725C46.7829 40.381 46.7838 40.3934 46.7849 40.4093C46.7864 40.4307 46.7884 40.4584 46.7907 40.4913C46.7918 40.5073 46.793 40.5245 46.7943 40.5427C46.802 40.6546 46.8123 40.8083 46.8226 40.9749C46.8426 41.2969 46.865 41.7026 46.865 41.9339C46.865 50.3052 40.0617 57.1231 31.69 57.1375H31.6479C23.2558 57.1375 16.4308 50.313 16.4308 41.9271C16.4308 41.6446 16.4378 41.3621 16.4518 41.0796C16.5759 36.8641 17.6802 34.1555 18.8367 32.4672C19.9787 30.8 21.1389 30.1756 21.3493 30.0733C21.844 29.8286 22.3986 29.8688 22.8368 30.0946C23.3083 30.3375 23.6282 30.7987 23.7013 31.315C23.7019 31.3183 23.7025 31.3216 23.7031 31.325C23.7608 31.633 23.9416 32.5987 24.4205 33.6593C24.8108 34.5237 25.3379 35.3056 26.036 35.7873C26.0866 33.7634 26.2597 31.1475 26.8636 28.7549L26.8636 28.7548C27.9386 24.4976 30.995 20.0849 34.6772 17.4486ZM45.0899 40.4844C45.0899 40.485 45.09 40.4857 45.09 40.4863L45.0899 40.4844ZM35.5899 18.8815C35.6217 22.8348 37.6281 25.5366 39.7348 28.3735L39.8069 28.4707C42.1506 31.6272 44.6688 35.0368 45.0899 40.4844M35.5899 18.8815C32.2539 21.3001 29.4738 25.3454 28.5081 29.17C27.8228 31.8852 27.7265 34.9714 27.713 37.0615L27.7063 38.1018L26.6887 37.8856C24.6535 37.4531 23.4992 35.7406 22.8746 34.3572C22.241 32.9537 22.0246 31.5845 22.0396 31.6444L22.0356 31.6287C21.8265 31.7481 21.0438 32.2463 20.2359 33.4257C19.2833 34.8164 18.2614 37.2035 18.1468 41.1377L18.1466 41.1466L18.1461 41.1554C18.1333 41.4127 18.1269 41.6699 18.1269 41.9271C18.1269 49.3758 24.192 55.4414 31.6479 55.4414H31.6871C39.1228 55.4286 45.1689 49.37 45.1689 41.9339C45.1689 41.765 45.1506 41.4142 45.1298 41.0799C45.1198 40.9183 45.1098 40.7688 45.1022 40.6595C45.0985 40.605 45.0953 40.5606 45.0931 40.53L45.09 40.4863" fill="#282828"/>
<path fill-rule="evenodd" clip-rule="evenodd" d="M32.917 41.2877C33.2218 41.3526 33.4664 41.5795 33.5541 41.8786C33.8548 42.9046 34.4413 43.7516 35.1037 44.6969L35.1038 44.697L35.1293 44.7334C36.0667 46.0715 37.1425 47.6069 37.3304 50.174C37.3458 50.339 37.3536 50.4986 37.3536 50.672C37.3536 53.9451 34.8392 56.7033 31.6413 56.7033C28.4448 56.7033 25.9221 53.9467 25.9221 50.672L25.9221 50.6674C25.9221 50.5758 25.9221 50.4585 25.9296 50.3181C25.9674 49.0183 26.2179 48.0854 26.5228 47.426C26.6616 47.126 26.9619 46.934 27.2923 46.9339C27.6228 46.9338 27.9232 47.1257 28.0621 47.4256C28.457 48.2785 29.0573 48.8594 29.9384 48.8739C29.939 47.729 29.9668 46.3279 30.2731 45.0295L30.2743 45.0248C30.5678 43.812 31.2483 42.5621 32.0944 41.5676C32.2963 41.3302 32.6122 41.2227 32.917 41.2877ZM31.9233 45.4215C31.664 46.5222 31.6345 47.7615 31.6345 48.9149C31.6345 49.8403 30.8792 50.5703 29.9723 50.5703C29.002 50.5703 28.2453 50.2164 27.6681 49.7122C27.6465 49.9157 27.6314 50.1369 27.6246 50.377C27.6244 50.3848 27.6241 50.3925 27.6237 50.4002C27.6183 50.4963 27.6182 50.5769 27.6182 50.672C27.6182 53.1097 29.4782 55.0072 31.6413 55.0072C33.8028 55.0072 35.6575 53.1113 35.6575 50.672C35.6575 50.5504 35.6521 50.4416 35.641 50.325C35.6404 50.3186 35.6399 50.3122 35.6394 50.3058C35.4878 48.2072 34.6427 46.9949 33.7147 45.6702M31.9233 45.4215C32.046 44.9157 32.2655 44.38 32.5552 43.8631C32.9054 44.5155 33.3114 45.0948 33.6816 45.623C33.6926 45.6387 33.7037 45.6545 33.7147 45.6701" fill="#282828"/>
</svg>
