<svg width="65" height="65" viewBox="0 0 65 65" fill="none" xmlns="http://www.w3.org/2000/svg">
<path d="M60.3588 37.0941C59.8839 37.0941 59.4837 36.7073 59.4769 36.2325C59.3819 31.7481 58.2693 27.4808 56.1661 23.5459C54.158 19.7874 51.2747 16.4699 47.8215 13.9529C47.523 13.7358 47.4416 13.3356 47.6248 13.0167L49.1919 10.3234C49.3208 10.1063 49.5583 9.97058 49.8093 9.97058C49.9518 9.97058 50.0875 10.0113 50.2096 10.0927C58.8799 15.9679 64.0495 25.7168 64.0495 36.1782V36.2121C64.0495 36.7006 63.6492 37.0941 63.1675 37.0941H60.3588Z" fill="#EB3A28"/>
<path d="M49.8093 10.4794C49.85 10.4794 49.8907 10.493 49.9247 10.5133C58.1472 16.09 63.5475 25.4998 63.5475 36.1782C63.5475 36.1917 63.5475 36.1985 63.5475 36.2121C63.5475 36.4224 63.3778 36.5852 63.1743 36.5852H60.3656C60.1621 36.5852 59.9925 36.4224 59.9925 36.2189C59.789 26.8973 55.1621 18.668 48.1336 13.5391C48.0522 13.478 48.0251 13.3627 48.0793 13.2745L49.6465 10.5812C49.6736 10.5133 49.7415 10.4794 49.8093 10.4794ZM49.8093 9.46176C49.3751 9.46176 48.9749 9.69243 48.751 10.0656L47.1838 12.7589C46.865 13.3017 47.0142 13.9936 47.523 14.36C49.2123 15.5947 50.7727 17.0194 52.1499 18.6002C53.5339 20.1877 54.7347 21.9312 55.7184 23.7833C56.7225 25.6626 57.5095 27.6639 58.0522 29.7196C58.6153 31.8363 58.9206 34.0276 58.9681 36.2392C58.9816 36.9923 59.6058 37.6029 60.3589 37.6029H63.1675C63.9342 37.6029 64.5583 36.9787 64.5583 36.2121V36.1782C64.5583 33.478 64.2191 30.7915 63.5542 28.1931C62.9097 25.6761 61.9464 23.2338 60.7048 20.9475C58.2625 16.4495 54.7347 12.5486 50.4878 9.67207C50.291 9.53639 50.0603 9.46176 49.8093 9.46176Z" fill="#EB3A28"/>
<path d="M1.96003 37.2297C1.47156 37.2297 1.07807 36.8362 1.07129 36.3478V36.3138C1.07129 25.6897 6.37658 15.8525 15.2572 9.9977C15.3725 9.92308 15.5082 9.88237 15.6507 9.88237C15.9085 9.88237 16.1459 10.0181 16.268 10.2419L17.0482 11.6124C17.2382 11.9448 17.1229 12.379 16.7904 12.5757C12.7063 14.9841 9.25989 18.4102 6.82434 22.4807C4.32095 26.6666 2.94374 31.4699 2.8352 36.3681C2.8352 36.843 2.43493 37.2297 1.96003 37.2297Z" fill="#00C94C"/>
<path d="M15.6507 10.3912C15.7185 10.3912 15.7932 10.4251 15.8271 10.493L16.6073 11.8634C16.6616 11.9584 16.6276 12.0805 16.5326 12.1415C8.20836 17.0465 2.55707 26.0357 2.33319 36.3546C2.32641 36.5581 2.1568 36.7209 1.95327 36.7209C1.74296 36.7209 1.57335 36.5513 1.57335 36.3478C1.57335 36.3342 1.57335 36.3274 1.57335 36.3138C1.57335 25.493 7.12288 15.9611 15.5354 10.4251C15.5761 10.398 15.6168 10.3912 15.6507 10.3912ZM15.6507 9.37355C15.4132 9.37355 15.1758 9.44139 14.9791 9.57708C10.6371 12.44 7.02112 16.3546 4.51094 20.9C3.2355 23.2134 2.25178 25.6761 1.58692 28.227C0.908497 30.8525 0.5625 33.573 0.5625 36.3138V36.3478C0.5625 37.1144 1.18665 37.7385 1.96006 37.7385C2.71311 37.7385 3.33726 37.128 3.35083 36.3749C3.4051 33.9326 3.77146 31.5174 4.44988 29.1904C5.10795 26.9312 6.05775 24.7603 7.26535 22.7385C9.66019 18.7426 13.0455 15.3776 17.055 13.0099C17.6249 12.6707 17.8217 11.9312 17.496 11.3546L16.7158 9.99092C16.4987 9.611 16.0917 9.37355 15.6507 9.37355Z" fill="#00C94C"/>
<path d="M45.3861 12.3857C45.264 12.3857 45.1419 12.3518 45.0333 12.2908C40.8203 9.91628 36.0238 8.66119 31.1527 8.66119C27.184 8.66119 23.3441 9.46852 19.7348 11.056C19.6466 11.0967 19.5449 11.1171 19.4499 11.1171C19.1921 11.1171 18.9614 10.9814 18.8325 10.7575L17.9641 9.23107C17.8692 9.06146 17.842 8.85793 17.9031 8.67476C17.9574 8.49158 18.0863 8.32876 18.2627 8.24057C22.7199 5.96784 27.53 4.81451 32.5639 4.81451C37.6724 4.81451 42.747 6.0696 47.2382 8.43731C47.4078 8.52551 47.5367 8.68833 47.591 8.8715C47.6453 9.05468 47.6181 9.2582 47.5232 9.42781L46.0035 12.0262C45.8746 12.2501 45.6371 12.3857 45.3861 12.3857Z" fill="#FFE804"/>
<path d="M32.5639 5.33012C37.7742 5.33012 42.686 6.61913 47.0008 8.89186C47.1025 8.94613 47.1364 9.07504 47.0822 9.1768L45.5625 11.7752C45.5218 11.843 45.4539 11.8769 45.3861 11.8769C45.3522 11.8769 45.3183 11.8702 45.2843 11.8498C41.112 9.50244 36.2952 8.15916 31.1595 8.15916C27.0279 8.15916 23.093 9.02754 19.5381 10.5947C19.5109 10.6083 19.4838 10.6151 19.4567 10.6151C19.3888 10.6151 19.321 10.5811 19.2803 10.5133L18.4051 8.98684C18.344 8.88508 18.3847 8.75618 18.4865 8.7019C22.7131 6.55129 27.496 5.33012 32.5639 5.33012ZM32.5639 4.31248C29.9994 4.31248 27.4417 4.61778 24.9723 5.22158C22.5706 5.80502 20.2369 6.67341 18.032 7.79959C17.7335 7.94885 17.5096 8.22022 17.4146 8.53908C17.3196 8.85794 17.3603 9.20394 17.5231 9.49566L18.3915 11.0221C18.6086 11.402 19.0157 11.6395 19.4499 11.6395C19.6195 11.6395 19.7891 11.6056 19.9451 11.5377C23.4865 9.97734 27.2586 9.18358 31.1527 9.18358C33.5815 9.18358 35.9899 9.49566 38.3169 10.113C40.5693 10.71 42.747 11.5988 44.7823 12.7453C44.9655 12.8471 45.169 12.9014 45.3793 12.9014C45.8135 12.9014 46.2138 12.6707 46.4309 12.2976L47.9506 9.69919C48.1202 9.41425 48.1609 9.06825 48.0727 8.74939C47.9845 8.43053 47.7606 8.15916 47.4689 8.00312C45.2165 6.81588 42.8284 5.9 40.359 5.28263C37.8284 4.63813 35.2029 4.31248 32.5639 4.31248Z" fill="#FFE804"/>
<path fill-rule="evenodd" clip-rule="evenodd" d="M14.1173 20.8179L17.4975 22.6844L17.5028 22.6875C18.1417 23.0525 18.3657 23.8515 18.0174 24.4932L18.0155 24.4966L15.3338 29.3304L15.3336 29.3309C14.8695 30.1662 13.8112 30.472 12.973 30.0064C12.9729 30.0064 12.9729 30.0064 12.9728 30.0063L10.0241 28.3689L10.0196 28.3663C9.69393 28.1802 9.43149 27.8645 9.3287 27.4736L8.28515 23.5568C8.28498 23.5562 8.28482 23.5556 8.28465 23.555C8.10166 22.8741 8.48262 22.1451 9.18275 21.934L13.1572 20.709L13.173 20.7048C13.4462 20.6319 13.7955 20.6367 14.1173 20.8179ZM13.4578 22.3911L10.0127 23.453L10.9413 26.9382L13.7964 28.5236L13.7965 28.5237C13.8014 28.5264 13.8053 28.5275 13.8091 28.5279C13.8136 28.5283 13.8194 28.528 13.8259 28.5262C13.8388 28.5225 13.8462 28.5156 13.8509 28.5073C13.8509 28.5073 13.8509 28.5072 13.851 28.5072L16.3561 23.9916L13.4578 22.3911Z" fill="#282828"/>
<path fill-rule="evenodd" clip-rule="evenodd" d="M34.6772 21.4486C35.1858 21.0753 35.8554 21.0448 36.3904 21.3191L36.3979 21.323L36.4054 21.327C36.9306 21.6098 37.2856 22.1598 37.2856 22.786C37.2856 26.198 38.9764 28.5069 41.1686 31.4596C41.1686 31.4596 41.1687 31.4596 41.1686 31.4596L41.1915 31.4903C43.5375 34.6499 46.3212 38.3991 46.781 44.3558L46.7812 44.3575L46.7813 44.3592L45.9355 44.421C46.7813 44.3592 46.7813 44.3591 46.7813 44.3592L46.7813 44.3592L46.7814 44.3601L46.7823 44.3725C46.7829 44.381 46.7838 44.3934 46.7849 44.4093C46.7864 44.4307 46.7884 44.4584 46.7907 44.4913C46.7918 44.5073 46.793 44.5245 46.7943 44.5427C46.802 44.6546 46.8123 44.8083 46.8226 44.9749C46.8426 45.2969 46.865 45.7026 46.865 45.9339C46.865 54.3052 40.0617 61.1231 31.69 61.1375H31.6479C23.2558 61.1375 16.4308 54.313 16.4308 45.9271C16.4308 45.6446 16.4378 45.3621 16.4518 45.0796C16.5759 40.8641 17.6802 38.1555 18.8367 36.4672C19.9787 34.8 21.1389 34.1756 21.3493 34.0733C21.844 33.8286 22.3986 33.8688 22.8368 34.0946C23.3083 34.3375 23.6282 34.7987 23.7013 35.315C23.7019 35.3183 23.7025 35.3216 23.7031 35.325C23.7608 35.633 23.9416 36.5987 24.4205 37.6593C24.8108 38.5237 25.3379 39.3056 26.036 39.7873C26.0866 37.7634 26.2597 35.1475 26.8636 32.7549L26.8636 32.7548C27.9386 28.4976 30.995 24.0849 34.6772 21.4486ZM45.0899 44.4844C45.0899 44.485 45.09 44.4857 45.09 44.4863L45.0899 44.4844ZM35.5899 22.8815C35.6217 26.8348 37.6281 29.5366 39.7348 32.3735L39.8069 32.4707C42.1506 35.6272 44.6688 39.0368 45.0899 44.4844M35.5899 22.8815C32.2539 25.3001 29.4738 29.3454 28.5081 33.17C27.8228 35.8852 27.7265 38.9714 27.713 41.0615L27.7063 42.1018L26.6887 41.8856C24.6535 41.4531 23.4992 39.7406 22.8746 38.3572C22.241 36.9537 22.0246 35.5845 22.0396 35.6444L22.0356 35.6287C21.8265 35.7481 21.0438 36.2463 20.2359 37.4257C19.2833 38.8164 18.2614 41.2035 18.1468 45.1377L18.1466 45.1466L18.1461 45.1554C18.1333 45.4127 18.1269 45.6699 18.1269 45.9271C18.1269 53.3758 24.192 59.4414 31.6479 59.4414H31.6871C39.1228 59.4286 45.1689 53.37 45.1689 45.9339C45.1689 45.765 45.1506 45.4142 45.1298 45.0799C45.1198 44.9183 45.1098 44.7688 45.1022 44.6595C45.0985 44.605 45.0953 44.5606 45.0931 44.53L45.09 44.4863" fill="#282828"/>
<path fill-rule="evenodd" clip-rule="evenodd" d="M32.917 45.2877C33.2218 45.3526 33.4664 45.5795 33.5541 45.8786C33.8548 46.9046 34.4413 47.7516 35.1037 48.6969L35.1038 48.697L35.1293 48.7334C36.0667 50.0715 37.1425 51.6069 37.3304 54.174C37.3458 54.339 37.3536 54.4986 37.3536 54.672C37.3536 57.9451 34.8392 60.7033 31.6413 60.7033C28.4448 60.7033 25.9221 57.9467 25.9221 54.672L25.9221 54.6674C25.9221 54.5758 25.9221 54.4585 25.9296 54.3181C25.9674 53.0183 26.2179 52.0854 26.5228 51.426C26.6616 51.126 26.9619 50.934 27.2923 50.9339C27.6228 50.9338 27.9232 51.1257 28.0621 51.4256C28.457 52.2785 29.0573 52.8594 29.9384 52.8739C29.939 51.729 29.9668 50.3279 30.2731 49.0295L30.2743 49.0248C30.5678 47.812 31.2483 46.5621 32.0944 45.5676C32.2963 45.3302 32.6122 45.2227 32.917 45.2877ZM31.9233 49.4215C31.664 50.5222 31.6345 51.7615 31.6345 52.9149C31.6345 53.8403 30.8792 54.5703 29.9723 54.5703C29.002 54.5703 28.2453 54.2164 27.6681 53.7122C27.6465 53.9157 27.6314 54.1369 27.6246 54.377C27.6244 54.3848 27.6241 54.3925 27.6237 54.4002C27.6183 54.4963 27.6182 54.5769 27.6182 54.672C27.6182 57.1097 29.4782 59.0072 31.6413 59.0072C33.8028 59.0072 35.6575 57.1113 35.6575 54.672C35.6575 54.5504 35.6521 54.4416 35.641 54.325C35.6404 54.3186 35.6399 54.3122 35.6394 54.3058C35.4878 52.2072 34.6427 50.9949 33.7147 49.6702M31.9233 49.4215C32.046 48.9157 32.2655 48.38 32.5552 47.8631C32.9054 48.5155 33.3114 49.0948 33.6816 49.623C33.6926 49.6387 33.7037 49.6545 33.7147 49.6701" fill="#282828"/>
</svg>
