<svg width="65" height="60" viewBox="0 0 65 60" fill="none" xmlns="http://www.w3.org/2000/svg">
<path d="M60.3588 34.0129C59.8839 34.0129 59.4837 33.6262 59.4769 33.1513C59.3819 28.6669 58.2693 24.3996 56.1661 20.4647C54.158 16.7062 51.2747 13.3887 47.8215 10.8718C47.523 10.6547 47.4416 10.2544 47.6248 9.93554L49.1919 7.24219C49.3208 7.02509 49.5583 6.8894 49.8093 6.8894C49.9518 6.8894 50.0875 6.93011 50.2096 7.01152C58.8799 12.8867 64.0495 22.6357 64.0495 33.097V33.1309C64.0495 33.6194 63.6492 34.0129 63.1675 34.0129H60.3588Z" fill="#EB3A28"/>
<path d="M49.8093 7.39819C49.85 7.39819 49.8907 7.41176 49.9247 7.43211C58.1472 13.0088 63.5475 22.4185 63.5475 33.097C63.5475 33.1105 63.5475 33.1173 63.5475 33.1309C63.5475 33.3412 63.3778 33.504 63.1743 33.504H60.3656C60.1621 33.504 59.9925 33.3412 59.9925 33.1377C59.789 23.8161 55.1621 15.5868 48.1336 10.4579C48.0522 10.3968 48.0251 10.2815 48.0793 10.1933L49.6465 7.49996C49.6736 7.43211 49.7415 7.39819 49.8093 7.39819ZM49.8093 6.38055C49.3751 6.38055 48.9749 6.61122 48.751 6.98435L47.1838 9.67771C46.865 10.2204 47.0142 10.9124 47.523 11.2788C49.2123 12.5135 50.7727 13.9382 52.1499 15.519C53.5339 17.1065 54.7347 18.85 55.7184 20.7021C56.7225 22.5814 57.5095 24.5827 58.0522 26.6384C58.6153 28.755 58.9206 30.9464 58.9681 33.158C58.9816 33.9111 59.6058 34.5217 60.3589 34.5217H63.1675C63.9342 34.5217 64.5583 33.8975 64.5583 33.1309V33.097C64.5583 30.3968 64.2191 27.7103 63.5542 25.1119C62.9097 22.5949 61.9464 20.1526 60.7048 17.8663C58.2625 13.3683 54.7347 9.46739 50.4878 6.59087C50.291 6.45518 50.0603 6.38055 49.8093 6.38055Z" fill="#EB3A28"/>
<path d="M1.96003 34.1484C1.47156 34.1484 1.07807 33.755 1.07129 33.2665V33.2326C1.07129 22.6084 6.37658 12.7712 15.2572 6.91642C15.3725 6.84179 15.5082 6.80109 15.6507 6.80109C15.9085 6.80109 16.1459 6.93677 16.268 7.16065L17.0482 8.53107C17.2382 8.8635 17.1229 9.29769 16.7904 9.49444C12.7063 11.9029 9.25989 15.3289 6.82434 19.3995C4.32095 23.5853 2.94374 28.3886 2.8352 33.2868C2.8352 33.7617 2.43493 34.1484 1.96003 34.1484Z" fill="#00C94C"/>
<path d="M15.6507 7.30994C15.7185 7.30994 15.7932 7.34386 15.8271 7.4117L16.6073 8.78212C16.6616 8.8771 16.6276 8.99922 16.5326 9.06028C8.20836 13.9653 2.55707 22.9544 2.33319 33.2733C2.32641 33.4768 2.1568 33.6397 1.95327 33.6397C1.74296 33.6397 1.57335 33.47 1.57335 33.2665C1.57335 33.2529 1.57335 33.2462 1.57335 33.2326C1.57335 22.4117 7.12288 12.8798 15.5354 7.34386C15.5761 7.31672 15.6168 7.30994 15.6507 7.30994ZM15.6507 6.2923C15.4132 6.2923 15.1758 6.36014 14.9791 6.49583C10.6371 9.35878 7.02112 13.2733 4.51094 17.8188C3.2355 20.1322 2.25178 22.5949 1.58692 25.1458C0.908497 27.7713 0.5625 30.4918 0.5625 33.2326V33.2665C0.5625 34.0331 1.18665 34.6573 1.96006 34.6573C2.71311 34.6573 3.33726 34.0467 3.35083 33.2937C3.4051 30.8513 3.77146 28.4361 4.44988 26.1091C5.10795 23.85 6.05775 21.679 7.26535 19.6573C9.66019 15.6614 13.0455 12.2964 17.055 9.92866C17.6249 9.58945 17.8217 8.84996 17.496 8.2733L16.7158 6.90967C16.4987 6.52975 16.0917 6.2923 15.6507 6.2923Z" fill="#00C94C"/>
<path d="M45.3861 9.30451C45.264 9.30451 45.1419 9.27059 45.0333 9.20953C40.8203 6.83504 36.0238 5.57995 31.1527 5.57995C27.184 5.57995 23.3441 6.38728 19.7348 7.9748C19.6466 8.0155 19.5449 8.03585 19.4499 8.03585C19.1921 8.03585 18.9614 7.90017 18.8325 7.67629L17.9641 6.14983C17.8692 5.98022 17.842 5.7767 17.9031 5.59352C17.9574 5.41035 18.0863 5.24752 18.2627 5.15933C22.7199 2.8866 27.53 1.73328 32.5639 1.73328C37.6724 1.73328 42.747 2.98837 47.2382 5.35607C47.4078 5.44427 47.5367 5.60709 47.591 5.79026C47.6453 5.97344 47.6181 6.17697 47.5232 6.34657L46.0035 8.94495C45.8746 9.16883 45.6371 9.30451 45.3861 9.30451Z" fill="#FFE804"/>
<path d="M32.5639 2.2489C37.7742 2.2489 42.686 3.53791 47.0008 5.81064C47.1025 5.86491 47.1364 5.99381 47.0822 6.09558L45.5625 8.69395C45.5218 8.76179 45.4539 8.79571 45.3861 8.79571C45.3522 8.79571 45.3183 8.78893 45.2843 8.76857C41.112 6.42122 36.2952 5.07794 31.1595 5.07794C27.0279 5.07794 23.093 5.94632 19.5381 7.51349C19.5109 7.52706 19.4838 7.53384 19.4567 7.53384C19.3888 7.53384 19.321 7.49992 19.2803 7.43208L18.4051 5.90562C18.344 5.80385 18.3847 5.67495 18.4865 5.62068C22.7131 3.47007 27.496 2.2489 32.5639 2.2489ZM32.5639 1.23126C29.9994 1.23126 27.4417 1.53655 24.9723 2.14035C22.5706 2.7238 20.2369 3.59218 18.032 4.71837C17.7335 4.86763 17.5096 5.139 17.4146 5.45786C17.3196 5.77672 17.3603 6.12271 17.5231 6.41444L18.3915 7.9409C18.6086 8.32081 19.0157 8.55826 19.4499 8.55826C19.6195 8.55826 19.7891 8.52434 19.9451 8.4565C23.4865 6.89612 27.2586 6.10236 31.1527 6.10236C33.5815 6.10236 35.9899 6.41444 38.3169 7.0318C40.5693 7.62882 42.747 8.51756 44.7823 9.6641C44.9655 9.76586 45.169 9.82014 45.3793 9.82014C45.8135 9.82014 46.2138 9.58947 46.4309 9.21634L47.9506 6.61796C48.1202 6.33303 48.1609 5.98703 48.0727 5.66817C47.9845 5.34931 47.7606 5.07794 47.4689 4.9219C45.2165 3.73465 42.8284 2.81878 40.359 2.20141C37.8284 1.55691 35.2029 1.23126 32.5639 1.23126Z" fill="#FFE804"/>
<path fill-rule="evenodd" clip-rule="evenodd" d="M14.1173 17.7366L17.4975 19.6032L17.5028 19.6062C18.1417 19.9713 18.3657 20.7703 18.0174 21.412L18.0155 21.4154L15.3338 26.2492L15.3336 26.2496C14.8695 27.085 13.8112 27.3907 12.973 26.9252C12.9729 26.9251 12.9729 26.9251 12.9728 26.9251L10.0241 25.2876L10.0196 25.2851C9.69393 25.099 9.43149 24.7833 9.3287 24.3923L8.28515 20.4756C8.28498 20.475 8.28482 20.4744 8.28465 20.4738C8.10166 19.7929 8.48262 19.0638 9.18275 18.8527L13.1572 17.6277L13.173 17.6235C13.4462 17.5507 13.7955 17.5555 14.1173 17.7366ZM13.4578 19.3099L10.0127 20.3717L10.9413 23.857L13.7964 25.4424L13.7965 25.4425C13.8014 25.4452 13.8053 25.4462 13.8091 25.4466C13.8136 25.4471 13.8194 25.4468 13.8259 25.4449C13.8388 25.4412 13.8462 25.4344 13.8509 25.4261C13.8509 25.426 13.8509 25.426 13.851 25.4259L16.3561 20.9104L13.4578 19.3099Z" fill="#FCFCFC"/>
<path fill-rule="evenodd" clip-rule="evenodd" d="M34.6772 18.3674C35.1858 17.994 35.8554 17.9635 36.3904 18.2379L36.3979 18.2418L36.4054 18.2458C36.9306 18.5286 37.2856 19.0786 37.2856 19.7048C37.2856 23.1168 38.9764 25.4257 41.1686 28.3784C41.1686 28.3784 41.1687 28.3784 41.1686 28.3784L41.1915 28.4091C43.5375 31.5687 46.3212 35.3178 46.781 41.2745L46.7812 41.2762L46.7813 41.2779L45.9355 41.3398C46.7813 41.2779 46.7813 41.2779 46.7813 41.2779L46.7813 41.278L46.7814 41.2789L46.7823 41.2913C46.7829 41.2998 46.7838 41.3122 46.7849 41.3281C46.7864 41.3495 46.7884 41.3772 46.7907 41.4101C46.7918 41.4261 46.793 41.4432 46.7943 41.4615C46.802 41.5734 46.8123 41.7271 46.8226 41.8937C46.8426 42.2157 46.865 42.6214 46.865 42.8527C46.865 51.224 40.0617 58.0419 31.69 58.0562H31.6479C23.2558 58.0562 16.4308 51.2318 16.4308 42.8459C16.4308 42.5634 16.4378 42.2808 16.4518 41.9983C16.5759 37.7829 17.6802 35.0742 18.8367 33.386C19.9787 31.7188 21.1389 31.0944 21.3493 30.9921C21.844 30.7474 22.3986 30.7876 22.8368 31.0133C23.3083 31.2562 23.6282 31.7175 23.7013 32.2338C23.7019 32.237 23.7025 32.2404 23.7031 32.2438C23.7608 32.5517 23.9416 33.5175 24.4205 34.578C24.8108 35.4425 25.3379 36.2244 26.036 36.7061C26.0866 34.6822 26.2597 32.0663 26.8636 29.6737L26.8636 29.6736C27.9386 25.4164 30.995 21.0037 34.6772 18.3674ZM45.0899 41.4031C45.0899 41.4038 45.09 41.4044 45.09 41.4051L45.0899 41.4031ZM35.5899 19.8003C35.6217 23.7536 37.6281 26.4554 39.7348 29.2923L39.8069 29.3894C42.1506 32.546 44.6688 35.9556 45.0899 41.4031M35.5899 19.8003C32.2539 22.2188 29.4738 26.2642 28.5081 30.0888C27.8228 32.804 27.7265 35.8902 27.713 37.9803L27.7063 39.0206L26.6887 38.8043C24.6535 38.3719 23.4992 36.6594 22.8746 35.276C22.241 33.8725 22.0246 32.5033 22.0396 32.5631L22.0356 32.5475C21.8265 32.6669 21.0438 33.1651 20.2359 34.3445C19.2833 35.7352 18.2614 38.1223 18.1468 42.0565L18.1466 42.0653L18.1461 42.0742C18.1333 42.3314 18.1269 42.5887 18.1269 42.8459C18.1269 50.2945 24.192 56.3602 31.6479 56.3602H31.6871C39.1228 56.3474 45.1689 50.2888 45.1689 42.8527C45.1689 42.6838 45.1506 42.333 45.1298 41.9987C45.1198 41.8371 45.1098 41.6875 45.1022 41.5783C45.0985 41.5238 45.0953 41.4794 45.0931 41.4488L45.09 41.4051" fill="#FCFCFC"/>
<path fill-rule="evenodd" clip-rule="evenodd" d="M32.917 42.2064C33.2218 42.2714 33.4664 42.4983 33.5541 42.7973C33.8548 43.8233 34.4413 44.6704 35.1037 45.6157L35.1038 45.6158L35.1293 45.6521C36.0667 46.9902 37.1425 48.5257 37.3304 51.0928C37.3458 51.2577 37.3536 51.4174 37.3536 51.5908C37.3536 54.8639 34.8392 57.622 31.6413 57.622C28.4448 57.622 25.9221 54.8655 25.9221 51.5908L25.9221 51.5861C25.9221 51.4946 25.9221 51.3773 25.9296 51.2369C25.9674 49.9371 26.2179 49.0041 26.5228 48.3447C26.6616 48.0448 26.9619 47.8528 27.2923 47.8527C27.6228 47.8526 27.9232 48.0445 28.0621 48.3444C28.457 49.1972 29.0573 49.7782 29.9384 49.7927C29.939 48.6478 29.9668 47.2466 30.2731 45.9483L30.2743 45.9436C30.5678 44.7308 31.2483 43.4809 32.0944 42.4864C32.2963 42.249 32.6122 42.1415 32.917 42.2064ZM31.9233 46.3403C31.664 47.441 31.6345 48.6803 31.6345 49.8337C31.6345 50.759 30.8792 51.489 29.9723 51.489C29.002 51.489 28.2453 51.1352 27.6681 50.6309C27.6465 50.8344 27.6314 51.0556 27.6246 51.2958C27.6244 51.3035 27.6241 51.3113 27.6237 51.319C27.6183 51.4151 27.6182 51.4956 27.6182 51.5908C27.6182 54.0285 29.4782 55.926 31.6413 55.926C33.8028 55.926 35.6575 54.0301 35.6575 51.5908C35.6575 51.4692 35.6521 51.3603 35.641 51.2438C35.6404 51.2374 35.6399 51.231 35.6394 51.2245C35.4878 49.126 34.6427 47.9136 33.7147 46.589M31.9233 46.3403C32.046 45.8344 32.2655 45.2987 32.5552 44.7819C32.9054 45.4343 33.3114 46.0135 33.6816 46.5417C33.6926 46.5575 33.7037 46.5732 33.7147 46.5889" fill="#FCFCFC"/>
</svg>
