<svg width="65" height="65" viewBox="0 0 65 65" fill="none" xmlns="http://www.w3.org/2000/svg">
<path d="M60.3588 37.0129C59.8839 37.0129 59.4837 36.6262 59.4769 36.1513C59.3819 31.6669 58.2693 27.3996 56.1661 23.4647C54.158 19.7062 51.2747 16.3887 47.8215 13.8718C47.523 13.6547 47.4416 13.2544 47.6248 12.9355L49.1919 10.2422C49.3208 10.0251 49.5583 9.8894 49.8093 9.8894C49.9518 9.8894 50.0875 9.93011 50.2096 10.0115C58.8799 15.8867 64.0495 25.6357 64.0495 36.097V36.1309C64.0495 36.6194 63.6492 37.0129 63.1675 37.0129H60.3588Z" fill="#EB3A28"/>
<path d="M49.8093 10.3982C49.85 10.3982 49.8907 10.4118 49.9247 10.4321C58.1472 16.0088 63.5475 25.4185 63.5475 36.097C63.5475 36.1105 63.5475 36.1173 63.5475 36.1309C63.5475 36.3412 63.3778 36.504 63.1743 36.504H60.3656C60.1621 36.504 59.9925 36.3412 59.9925 36.1377C59.789 26.8161 55.1621 18.5868 48.1336 13.4579C48.0522 13.3968 48.0251 13.2815 48.0793 13.1933L49.6465 10.5C49.6736 10.4321 49.7415 10.3982 49.8093 10.3982ZM49.8093 9.38055C49.3751 9.38055 48.9749 9.61122 48.751 9.98435L47.1838 12.6777C46.865 13.2204 47.0142 13.9124 47.523 14.2788C49.2123 15.5135 50.7727 16.9382 52.1499 18.519C53.5339 20.1065 54.7347 21.85 55.7184 23.7021C56.7225 25.5814 57.5095 27.5827 58.0522 29.6384C58.6153 31.755 58.9206 33.9464 58.9681 36.158C58.9816 36.9111 59.6058 37.5217 60.3589 37.5217H63.1675C63.9342 37.5217 64.5583 36.8975 64.5583 36.1309V36.097C64.5583 33.3968 64.2191 30.7103 63.5542 28.1119C62.9097 25.5949 61.9464 23.1526 60.7048 20.8663C58.2625 16.3683 54.7347 12.4674 50.4878 9.59087C50.291 9.45518 50.0603 9.38055 49.8093 9.38055Z" fill="#EB3A28"/>
<path d="M1.96003 37.1484C1.47156 37.1484 1.07807 36.755 1.07129 36.2665V36.2326C1.07129 25.6084 6.37658 15.7712 15.2572 9.91642C15.3725 9.84179 15.5082 9.80109 15.6507 9.80109C15.9085 9.80109 16.1459 9.93677 16.268 10.1607L17.0482 11.5311C17.2382 11.8635 17.1229 12.2977 16.7904 12.4944C12.7063 14.9029 9.25989 18.3289 6.82434 22.3995C4.32095 26.5853 2.94374 31.3886 2.8352 36.2868C2.8352 36.7617 2.43493 37.1484 1.96003 37.1484Z" fill="#00C94C"/>
<path d="M15.6507 10.3099C15.7185 10.3099 15.7932 10.3439 15.8271 10.4117L16.6073 11.7821C16.6616 11.8771 16.6276 11.9992 16.5326 12.0603C8.20836 16.9653 2.55707 25.9544 2.33319 36.2733C2.32641 36.4768 2.1568 36.6397 1.95327 36.6397C1.74296 36.6397 1.57335 36.47 1.57335 36.2665C1.57335 36.2529 1.57335 36.2462 1.57335 36.2326C1.57335 25.4117 7.12288 15.8798 15.5354 10.3439C15.5761 10.3167 15.6168 10.3099 15.6507 10.3099ZM15.6507 9.2923C15.4132 9.2923 15.1758 9.36014 14.9791 9.49583C10.6371 12.3588 7.02112 16.2733 4.51094 20.8188C3.2355 23.1322 2.25178 25.5949 1.58692 28.1458C0.908497 30.7713 0.5625 33.4918 0.5625 36.2326V36.2665C0.5625 37.0331 1.18665 37.6573 1.96006 37.6573C2.71311 37.6573 3.33726 37.0467 3.35083 36.2937C3.4051 33.8513 3.77146 31.4361 4.44988 29.1091C5.10795 26.85 6.05775 24.679 7.26535 22.6573C9.66019 18.6614 13.0455 15.2964 17.055 12.9287C17.6249 12.5894 17.8217 11.85 17.496 11.2733L16.7158 9.90967C16.4987 9.52975 16.0917 9.2923 15.6507 9.2923Z" fill="#00C94C"/>
<path d="M45.3861 12.3045C45.264 12.3045 45.1419 12.2706 45.0333 12.2095C40.8203 9.83504 36.0238 8.57995 31.1527 8.57995C27.184 8.57995 23.3441 9.38728 19.7348 10.9748C19.6466 11.0155 19.5449 11.0359 19.4499 11.0359C19.1921 11.0359 18.9614 10.9002 18.8325 10.6763L17.9641 9.14983C17.8692 8.98022 17.842 8.7767 17.9031 8.59352C17.9574 8.41035 18.0863 8.24752 18.2627 8.15933C22.7199 5.8866 27.53 4.73328 32.5639 4.73328C37.6724 4.73328 42.747 5.98837 47.2382 8.35607C47.4078 8.44427 47.5367 8.60709 47.591 8.79026C47.6453 8.97344 47.6181 9.17697 47.5232 9.34657L46.0035 11.9449C45.8746 12.1688 45.6371 12.3045 45.3861 12.3045Z" fill="#FFE804"/>
<path d="M32.5639 5.2489C37.7742 5.2489 42.686 6.53791 47.0008 8.81064C47.1025 8.86491 47.1364 8.99381 47.0822 9.09558L45.5625 11.6939C45.5218 11.7618 45.4539 11.7957 45.3861 11.7957C45.3522 11.7957 45.3183 11.7889 45.2843 11.7686C41.112 9.42122 36.2952 8.07794 31.1595 8.07794C27.0279 8.07794 23.093 8.94632 19.5381 10.5135C19.5109 10.5271 19.4838 10.5338 19.4567 10.5338C19.3888 10.5338 19.321 10.4999 19.2803 10.4321L18.4051 8.90562C18.344 8.80385 18.3847 8.67495 18.4865 8.62068C22.7131 6.47007 27.496 5.2489 32.5639 5.2489ZM32.5639 4.23126C29.9994 4.23126 27.4417 4.53655 24.9723 5.14035C22.5706 5.7238 20.2369 6.59218 18.032 7.71837C17.7335 7.86763 17.5096 8.139 17.4146 8.45786C17.3196 8.77672 17.3603 9.12271 17.5231 9.41444L18.3915 10.9409C18.6086 11.3208 19.0157 11.5583 19.4499 11.5583C19.6195 11.5583 19.7891 11.5243 19.9451 11.4565C23.4865 9.89612 27.2586 9.10236 31.1527 9.10236C33.5815 9.10236 35.9899 9.41444 38.3169 10.0318C40.5693 10.6288 42.747 11.5176 44.7823 12.6641C44.9655 12.7659 45.169 12.8201 45.3793 12.8201C45.8135 12.8201 46.2138 12.5895 46.4309 12.2163L47.9506 9.61796C48.1202 9.33303 48.1609 8.98703 48.0727 8.66817C47.9845 8.34931 47.7606 8.07794 47.4689 7.9219C45.2165 6.73465 42.8284 5.81878 40.359 5.20141C37.8284 4.55691 35.2029 4.23126 32.5639 4.23126Z" fill="#FFE804"/>
<path fill-rule="evenodd" clip-rule="evenodd" d="M14.1173 20.7366L17.4975 22.6032L17.5028 22.6062C18.1417 22.9713 18.3657 23.7703 18.0174 24.412L18.0155 24.4154L15.3338 29.2492L15.3336 29.2496C14.8695 30.085 13.8112 30.3907 12.973 29.9252C12.9729 29.9251 12.9729 29.9251 12.9728 29.9251L10.0241 28.2876L10.0196 28.2851C9.69393 28.099 9.43149 27.7833 9.3287 27.3923L8.28515 23.4756C8.28498 23.475 8.28482 23.4744 8.28465 23.4738C8.10166 22.7929 8.48262 22.0638 9.18275 21.8527L13.1572 20.6277L13.173 20.6235C13.4462 20.5507 13.7955 20.5555 14.1173 20.7366ZM13.4578 22.3099L10.0127 23.3717L10.9413 26.857L13.7964 28.4424L13.7965 28.4425C13.8014 28.4452 13.8053 28.4462 13.8091 28.4466C13.8136 28.4471 13.8194 28.4468 13.8259 28.4449C13.8388 28.4412 13.8462 28.4344 13.8509 28.4261C13.8509 28.426 13.8509 28.426 13.851 28.4259L16.3561 23.9104L13.4578 22.3099Z" fill="#FCFCFC"/>
<path fill-rule="evenodd" clip-rule="evenodd" d="M34.6772 21.3674C35.1858 20.994 35.8554 20.9635 36.3904 21.2379L36.3979 21.2418L36.4054 21.2458C36.9306 21.5286 37.2856 22.0786 37.2856 22.7048C37.2856 26.1168 38.9764 28.4257 41.1686 31.3784C41.1686 31.3784 41.1687 31.3784 41.1686 31.3784L41.1915 31.4091C43.5375 34.5687 46.3212 38.3178 46.781 44.2745L46.7812 44.2762L46.7813 44.2779L45.9355 44.3398C46.7813 44.2779 46.7813 44.2779 46.7813 44.2779L46.7813 44.278L46.7814 44.2789L46.7823 44.2913C46.7829 44.2998 46.7838 44.3122 46.7849 44.3281C46.7864 44.3495 46.7884 44.3772 46.7907 44.4101C46.7918 44.4261 46.793 44.4432 46.7943 44.4615C46.802 44.5734 46.8123 44.7271 46.8226 44.8937C46.8426 45.2157 46.865 45.6214 46.865 45.8527C46.865 54.224 40.0617 61.0419 31.69 61.0562H31.6479C23.2558 61.0562 16.4308 54.2318 16.4308 45.8459C16.4308 45.5634 16.4378 45.2808 16.4518 44.9983C16.5759 40.7829 17.6802 38.0742 18.8367 36.386C19.9787 34.7188 21.1389 34.0944 21.3493 33.9921C21.844 33.7474 22.3986 33.7876 22.8368 34.0133C23.3083 34.2562 23.6282 34.7175 23.7013 35.2338C23.7019 35.237 23.7025 35.2404 23.7031 35.2438C23.7608 35.5517 23.9416 36.5175 24.4205 37.578C24.8108 38.4425 25.3379 39.2244 26.036 39.7061C26.0866 37.6822 26.2597 35.0663 26.8636 32.6737L26.8636 32.6736C27.9386 28.4164 30.995 24.0037 34.6772 21.3674ZM45.0899 44.4031C45.0899 44.4038 45.09 44.4044 45.09 44.4051L45.0899 44.4031ZM35.5899 22.8003C35.6217 26.7536 37.6281 29.4554 39.7348 32.2923L39.8069 32.3894C42.1506 35.546 44.6688 38.9556 45.0899 44.4031M35.5899 22.8003C32.2539 25.2188 29.4738 29.2642 28.5081 33.0888C27.8228 35.804 27.7265 38.8902 27.713 40.9803L27.7063 42.0206L26.6887 41.8043C24.6535 41.3719 23.4992 39.6594 22.8746 38.276C22.241 36.8725 22.0246 35.5033 22.0396 35.5631L22.0356 35.5475C21.8265 35.6669 21.0438 36.1651 20.2359 37.3445C19.2833 38.7352 18.2614 41.1223 18.1468 45.0565L18.1466 45.0653L18.1461 45.0742C18.1333 45.3314 18.1269 45.5887 18.1269 45.8459C18.1269 53.2945 24.192 59.3602 31.6479 59.3602H31.6871C39.1228 59.3474 45.1689 53.2888 45.1689 45.8527C45.1689 45.6838 45.1506 45.333 45.1298 44.9987C45.1198 44.8371 45.1098 44.6875 45.1022 44.5783C45.0985 44.5238 45.0953 44.4794 45.0931 44.4488L45.09 44.4051" fill="#FCFCFC"/>
<path fill-rule="evenodd" clip-rule="evenodd" d="M32.917 45.2064C33.2218 45.2714 33.4664 45.4983 33.5541 45.7973C33.8548 46.8233 34.4413 47.6704 35.1037 48.6157L35.1038 48.6158L35.1293 48.6521C36.0667 49.9902 37.1425 51.5257 37.3304 54.0928C37.3458 54.2577 37.3536 54.4174 37.3536 54.5908C37.3536 57.8639 34.8392 60.622 31.6413 60.622C28.4448 60.622 25.9221 57.8655 25.9221 54.5908L25.9221 54.5861C25.9221 54.4946 25.9221 54.3773 25.9296 54.2369C25.9674 52.9371 26.2179 52.0041 26.5228 51.3447C26.6616 51.0448 26.9619 50.8528 27.2923 50.8527C27.6228 50.8526 27.9232 51.0445 28.0621 51.3444C28.457 52.1972 29.0573 52.7782 29.9384 52.7927C29.939 51.6478 29.9668 50.2466 30.2731 48.9483L30.2743 48.9436C30.5678 47.7308 31.2483 46.4809 32.0944 45.4864C32.2963 45.249 32.6122 45.1415 32.917 45.2064ZM31.9233 49.3403C31.664 50.441 31.6345 51.6803 31.6345 52.8337C31.6345 53.759 30.8792 54.489 29.9723 54.489C29.002 54.489 28.2453 54.1352 27.6681 53.6309C27.6465 53.8344 27.6314 54.0556 27.6246 54.2958C27.6244 54.3035 27.6241 54.3113 27.6237 54.319C27.6183 54.4151 27.6182 54.4956 27.6182 54.5908C27.6182 57.0285 29.4782 58.926 31.6413 58.926C33.8028 58.926 35.6575 57.0301 35.6575 54.5908C35.6575 54.4692 35.6521 54.3603 35.641 54.2438C35.6404 54.2374 35.6399 54.231 35.6394 54.2245C35.4878 52.126 34.6427 50.9136 33.7147 49.589M31.9233 49.3403C32.046 48.8344 32.2655 48.2987 32.5552 47.7819C32.9054 48.4343 33.3114 49.0135 33.6816 49.5417C33.6926 49.5575 33.7037 49.5732 33.7147 49.5889" fill="#FCFCFC"/>
</svg>
