<?xml version="1.0" encoding="UTF-8"?>
<svg height="600" width="800" xmlns="http://www.w3.org/2000/svg" xmlns:xlink="http://www.w3.org/1999/xlink">
    <g id="Notes" font-family="'LucidaGrande', 'Lucida Grande', sans-serif" font-size="13">
        <rect fill="white" height="600.0" width="800.0" x="0.0" y="0.0" />
        <g font-size="13">
            <text x="18.0" y="176.0">Small</text>
            <text x="18.0" y="376.0">Medium</text>
            <text x="18.0" y="576.0">Large</text>
        </g>
        <g font-size="9">
            <text x="250.0" y="30.0">Ultralight</text>
            <text x="450.0" y="30.0">Regular</text>
            <text x="650.0" y="30.0">Black</text>
            <text id="template-version" fill="#505050" text-anchor="end" x="785.0" y="575.0">Template v.3.0</text>
            <a href="https://github.com/swhitty/SwiftDraw">
                <text fill="#505050" text-anchor="end" x="785.0" y="590.0">https://github.com/swhitty/SwiftDraw</text>
            </a>
        </g>
    </g>
    <g id="Guides" stroke="rgb(39, 170, 225)" stroke-width="0.5">
        <path id="Capline-S" d="M18,76 l800,0" />
        <path id="H-reference" d="M85,145.755 L87.685,145.755 L113.369,79.287 L114.052,79.287 L114.052,76 L112.148,76 L85,145.755 Z M95.693,121.536 L130.996,121.536 L130.263,119.313 L96.474,119.313 L95.693,121.536 Z M139.15,145.755 L141.787,145.755 L114.638,76 L113.466,76 L113.466,79.287 L139.15,145.755 Z" stroke="none" />
        <path id="Baseline-S" d="M18,146 l800,0" />
        <path id="left-margin-Ultralight-S" d="M220,56 l0,110" />
        <path id="right-margin-Ultralight-S" d="M310,56 l0,110" />
        <path id="left-margin-Regular-S" d="M420,56 l0,110" />
        <path id="right-margin-Regular-S" d="M510,56 l0,110" />
        <path id="left-margin-Black-S" d="M620,56 l0,110" />
        <path id="right-margin-Black-S" d="M710,56 l0,110" />
        <path id="Capline-M" d="M18,276 l800,0" />
        <path id="Baseline-M" d="M18,346 l800,0" />
        <path id="Capline-L" d="M18,476 l800,0" />
        <path id="Baseline-L" d="M18,546 l800,0" />
    </g>
    <g id="Symbols">
        <g id="Ultralight-S">
            <path d="M265,90.298 C253.586,90.298 244.298,99.584 244.298,111 C244.298,122.416 253.586,131.702 265,131.702 C276.414,131.702 285.702,122.416 285.702,111 C285.702,99.584 276.414,90.298 265,90.298 Z M265,128.426 C255.392,128.426 247.574,120.608 247.574,111 C247.588,101.404 255.404,93.588 264.999,93.574 C274.608,93.574 282.426,101.392 282.426,111 C282.426,120.608 274.608,128.426 265,128.426 Z" />
            <path d="M254.723,111 C254.729,105.339 259.339,100.729 264.999,100.723 C265.903,100.723 266.638,99.989 266.638,99.085 C266.638,98.181 265.904,97.447 265,97.447 C257.534,97.454 251.454,103.535 251.447,111.001 C251.447,111.904 252.181,112.638 253.085,112.638 C253.989,112.638 254.723,111.904 254.723,111 Z" />
            <path d="M266.638,82.404 L266.638,77.638 C266.638,76.734 265.904,76 265,76 C264.096,76 263.362,76.734 263.362,77.638 L263.362,82.404 C263.362,83.308 264.096,84.043 265,84.043 C265.904,84.043 266.638,83.308 266.638,82.404 Z" />
            <path d="M284.059,91.938 C284.698,92.577 285.738,92.577 286.377,91.938 L289.738,88.576 C290.334,87.943 290.331,86.956 289.732,86.326 C289.113,85.673 288.078,85.645 287.422,86.26 L284.059,89.622 C283.422,90.261 283.422,91.299 284.059,91.938 L283.534,92.465 L284.061,91.938 L284.059,91.938 Z" />
            <path d="M298.362,112.638 C299.266,112.638 300,111.904 300,111 C300,110.096 299.266,109.362 298.362,109.362 L293.596,109.362 C292.692,109.362 291.957,110.096 291.957,111 C291.957,111.904 292.692,112.638 293.596,112.638 L298.362,112.638 Z" />
            <path d="M287.468,135.786 C287.784,136.093 288.194,136.26 288.635,136.251 C289.072,136.245 289.481,136.067 289.786,135.753 C290.091,135.439 290.255,135.025 290.249,134.587 C290.243,134.149 290.066,133.741 289.752,133.436 L286.378,130.062 C286.058,129.754 285.65,129.599 285.24,129.599 C284.831,129.599 284.42,129.754 284.099,130.065 C283.785,130.371 283.609,130.779 283.602,131.217 C283.596,131.654 283.76,132.069 284.065,132.383 L287.468,135.784 L287.468,135.786 Z" />
            <path d="M266.638,144.362 L266.638,139.596 C266.638,138.692 265.904,137.957 265,137.957 C264.096,137.957 263.362,138.692 263.362,139.596 L263.362,144.362 C263.362,145.266 264.096,146 265,146 C265.904,146 266.638,145.266 266.638,144.362 Z" />
            <path d="M239.772,134.59 C239.772,135.028 239.943,135.439 240.253,135.749 C240.562,136.057 240.974,136.228 241.41,136.228 C241.848,136.228 242.259,136.057 242.569,135.749 L245.941,132.378 C246.554,131.745 246.554,130.743 245.932,130.104 C245.626,129.79 245.218,129.614 244.78,129.608 C244.349,129.599 243.931,129.764 243.619,130.068 L240.251,133.433 C239.941,133.743 239.77,134.155 239.77,134.593 L239.772,134.59 Z" />
            <path d="M236.404,112.638 C237.308,112.638 238.043,111.904 238.043,111 C238.043,110.096 237.308,109.362 236.404,109.362 L231.638,109.362 C230.734,109.362 230,110.096 230,111 C230,111.904 230.734,112.638 231.638,112.638 L236.404,112.638 Z" />
            <path d="M245.938,91.95 C246.247,91.64 246.417,91.229 246.417,90.791 C246.417,90.353 246.247,89.942 245.938,89.632 L242.578,86.271 C241.945,85.675 240.957,85.678 240.327,86.277 C239.675,86.896 239.645,87.931 240.262,88.587 L243.623,91.944 C243.927,92.247 244.347,92.422 244.776,92.422 L244.94,92.422 C245.317,92.384 245.667,92.221 245.938,91.95 Z" />
        </g>
        <g id="Regular-S">
            <path d="M465,90.298 C453.586,90.298 444.298,99.584 444.298,111 C444.298,122.416 453.586,131.702 465,131.702 C476.414,131.702 485.702,122.416 485.702,111 C485.702,99.584 476.414,90.298 465,90.298 Z M465,128.426 C455.392,128.426 447.574,120.608 447.574,111 C447.588,101.404 455.404,93.588 464.999,93.574 C474.608,93.574 482.426,101.392 482.426,111 C482.426,120.608 474.608,128.426 465,128.426 Z" />
            <path d="M454.723,111 C454.729,105.339 459.339,100.729 464.999,100.723 C465.903,100.723 466.638,99.989 466.638,99.085 C466.638,98.181 465.904,97.447 465,97.447 C457.534,97.454 451.454,103.535 451.447,111.001 C451.447,111.904 452.181,112.638 453.085,112.638 C453.989,112.638 454.723,111.904 454.723,111 Z" />
            <path d="M466.638,82.404 L466.638,77.638 C466.638,76.734 465.904,76 465,76 C464.096,76 463.362,76.734 463.362,77.638 L463.362,82.404 C463.362,83.308 464.096,84.043 465,84.043 C465.904,84.043 466.638,83.308 466.638,82.404 Z" />
            <path d="M484.059,91.938 C484.698,92.577 485.738,92.577 486.377,91.938 L489.738,88.576 C490.334,87.943 490.331,86.956 489.732,86.326 C489.113,85.673 488.078,85.645 487.422,86.26 L484.059,89.622 C483.422,90.261 483.422,91.299 484.059,91.938 L483.534,92.465 L484.061,91.938 L484.059,91.938 Z" />
            <path d="M498.362,112.638 C499.266,112.638 500,111.904 500,111 C500,110.096 499.266,109.362 498.362,109.362 L493.596,109.362 C492.692,109.362 491.957,110.096 491.957,111 C491.957,111.904 492.692,112.638 493.596,112.638 L498.362,112.638 Z" />
            <path d="M487.468,135.786 C487.784,136.093 488.194,136.26 488.635,136.251 C489.072,136.245 489.481,136.067 489.786,135.753 C490.091,135.439 490.255,135.025 490.249,134.587 C490.243,134.149 490.066,133.741 489.752,133.436 L486.378,130.062 C486.058,129.754 485.65,129.599 485.24,129.599 C484.831,129.599 484.42,129.754 484.099,130.065 C483.785,130.371 483.609,130.779 483.602,131.217 C483.596,131.654 483.76,132.069 484.065,132.383 L487.468,135.784 L487.468,135.786 Z" />
            <path d="M466.638,144.362 L466.638,139.596 C466.638,138.692 465.904,137.957 465,137.957 C464.096,137.957 463.362,138.692 463.362,139.596 L463.362,144.362 C463.362,145.266 464.096,146 465,146 C465.904,146 466.638,145.266 466.638,144.362 Z" />
            <path d="M439.772,134.59 C439.772,135.028 439.943,135.439 440.253,135.749 C440.562,136.057 440.974,136.228 441.41,136.228 C441.848,136.228 442.259,136.057 442.569,135.749 L445.941,132.378 C446.554,131.745 446.554,130.743 445.932,130.104 C445.626,129.79 445.218,129.614 444.78,129.608 C444.349,129.599 443.931,129.764 443.619,130.068 L440.251,133.433 C439.941,133.743 439.77,134.155 439.77,134.593 L439.772,134.59 Z" />
            <path d="M436.404,112.638 C437.308,112.638 438.043,111.904 438.043,111 C438.043,110.096 437.308,109.362 436.404,109.362 L431.638,109.362 C430.734,109.362 430,110.096 430,111 C430,111.904 430.734,112.638 431.638,112.638 L436.404,112.638 Z" />
            <path d="M445.938,91.95 C446.247,91.64 446.417,91.229 446.417,90.791 C446.417,90.353 446.247,89.942 445.938,89.632 L442.578,86.271 C441.945,85.675 440.957,85.678 440.327,86.277 C439.675,86.896 439.645,87.931 440.262,88.587 L443.623,91.944 C443.927,92.247 444.347,92.422 444.776,92.422 L444.94,92.422 C445.317,92.384 445.667,92.221 445.938,91.95 Z" />
        </g>
        <g id="Black-S">
            <path d="M665,90.298 C653.586,90.298 644.298,99.584 644.298,111 C644.298,122.416 653.586,131.702 665,131.702 C676.414,131.702 685.702,122.416 685.702,111 C685.702,99.584 676.414,90.298 665,90.298 Z M665,128.426 C655.392,128.426 647.574,120.608 647.574,111 C647.588,101.404 655.404,93.588 664.998,93.574 C674.608,93.574 682.426,101.392 682.426,111 C682.426,120.608 674.608,128.426 665,128.426 Z" />
            <path d="M654.723,111 C654.729,105.339 659.339,100.729 664.998,100.723 C665.903,100.723 666.638,99.989 666.638,99.085 C666.638,98.181 665.904,97.447 665,97.447 C657.534,97.454 651.454,103.535 651.447,111.001 C651.447,111.904 652.181,112.638 653.085,112.638 C653.989,112.638 654.723,111.904 654.723,111 Z" />
            <path d="M666.638,82.404 L666.638,77.638 C666.638,76.734 665.904,76 665,76 C664.096,76 663.362,76.734 663.362,77.638 L663.362,82.404 C663.362,83.308 664.096,84.043 665,84.043 C665.904,84.043 666.638,83.308 666.638,82.404 Z" />
            <path d="M684.059,91.938 C684.698,92.577 685.738,92.577 686.377,91.938 L689.738,88.576 C690.334,87.943 690.331,86.956 689.732,86.326 C689.113,85.673 688.078,85.645 687.422,86.26 L684.059,89.622 C683.422,90.261 683.422,91.299 684.059,91.938 L683.534,92.465 L684.061,91.938 L684.059,91.938 Z" />
            <path d="M698.362,112.638 C699.266,112.638 700,111.904 700,111 C700,110.096 699.266,109.362 698.362,109.362 L693.596,109.362 C692.692,109.362 691.957,110.096 691.957,111 C691.957,111.904 692.692,112.638 693.596,112.638 L698.362,112.638 Z" />
            <path d="M687.468,135.786 C687.784,136.093 688.194,136.26 688.635,136.251 C689.072,136.245 689.481,136.067 689.786,135.753 C690.091,135.439 690.255,135.025 690.249,134.587 C690.243,134.149 690.066,133.741 689.752,133.436 L686.378,130.062 C686.058,129.754 685.65,129.599 685.24,129.599 C684.831,129.599 684.42,129.754 684.099,130.065 C683.785,130.371 683.609,130.779 683.602,131.217 C683.596,131.654 683.76,132.069 684.065,132.383 L687.468,135.784 L687.468,135.786 Z" />
            <path d="M666.638,144.362 L666.638,139.596 C666.638,138.692 665.904,137.957 665,137.957 C664.096,137.957 663.362,138.692 663.362,139.596 L663.362,144.362 C663.362,145.266 664.096,146 665,146 C665.904,146 666.638,145.266 666.638,144.362 Z" />
            <path d="M639.772,134.59 C639.772,135.028 639.943,135.439 640.253,135.749 C640.562,136.057 640.974,136.228 641.41,136.228 C641.848,136.228 642.259,136.057 642.569,135.749 L645.941,132.378 C646.554,131.745 646.554,130.743 645.932,130.104 C645.626,129.79 645.218,129.614 644.78,129.608 C644.349,129.599 643.931,129.764 643.619,130.068 L640.251,133.433 C639.941,133.743 639.77,134.155 639.77,134.593 L639.772,134.59 Z" />
            <path d="M636.404,112.638 C637.308,112.638 638.043,111.904 638.043,111 C638.043,110.096 637.308,109.362 636.404,109.362 L631.638,109.362 C630.734,109.362 630,110.096 630,111 C630,111.904 630.734,112.638 631.638,112.638 L636.404,112.638 Z" />
            <path d="M645.938,91.95 C646.247,91.64 646.417,91.229 646.417,90.791 C646.417,90.353 646.247,89.942 645.938,89.632 L642.578,86.271 C641.945,85.675 640.957,85.678 640.327,86.277 C639.675,86.896 639.645,87.931 640.262,88.587 L643.623,91.944 C643.927,92.247 644.347,92.422 644.776,92.422 L644.94,92.422 C645.317,92.384 645.667,92.221 645.938,91.95 Z" />
        </g>
    </g>
</svg>