<?xml version="1.0" encoding="UTF-8"?>
<svg height="600" width="800" xmlns="http://www.w3.org/2000/svg" xmlns:xlink="http://www.w3.org/1999/xlink">
    <g id="Notes" font-family="'LucidaGrande', 'Lucida Grande', sans-serif" font-size="13">
        <rect fill="white" height="600.0" width="800.0" x="0.0" y="0.0" />
        <g font-size="13">
            <text x="18.0" y="176.0">Small</text>
            <text x="18.0" y="376.0">Medium</text>
            <text x="18.0" y="576.0">Large</text>
        </g>
        <g font-size="9">
            <text x="250.0" y="30.0">Ultralight</text>
            <text x="450.0" y="30.0">Regular</text>
            <text x="650.0" y="30.0">Black</text>
            <text id="template-version" fill="#505050" text-anchor="end" x="785.0" y="575.0">Template v.3.0</text>
            <a href="https://github.com/swhitty/SwiftDraw">
                <text fill="#505050" text-anchor="end" x="785.0" y="590.0">https://github.com/swhitty/SwiftDraw</text>
            </a>
        </g>
    </g>
    <g id="Guides" stroke="rgb(39, 170, 225)" stroke-width="0.5">
        <path id="Capline-S" d="M18,76 l800,0" />
        <path id="H-reference" d="M85,145.755 L87.685,145.755 L113.369,79.287 L114.052,79.287 L114.052,76 L112.148,76 L85,145.755 Z M95.693,121.536 L130.996,121.536 L130.263,119.313 L96.474,119.313 L95.693,121.536 Z M139.15,145.755 L141.787,145.755 L114.638,76 L113.466,76 L113.466,79.287 L139.15,145.755 Z" stroke="none" />
        <path id="Baseline-S" d="M18,146 l800,0" />
        <path id="left-margin-Ultralight-S" d="M219.67,56 l0,110" />
        <path id="right-margin-Ultralight-S" d="M310.33,56 l0,110" />
        <path id="left-margin-Regular-S" d="M419.67,56 l0,110" />
        <path id="right-margin-Regular-S" d="M510.33,56 l0,110" />
        <path id="left-margin-Black-S" d="M619.67,56 l0,110" />
        <path id="right-margin-Black-S" d="M710.33,56 l0,110" />
        <path id="Capline-M" d="M18,276 l800,0" />
        <path id="Baseline-M" d="M18,346 l800,0" />
        <path id="Capline-L" d="M18,476 l800,0" />
        <path id="Baseline-L" d="M18,546 l800,0" />
    </g>
    <g id="Symbols">
        <g id="Ultralight-S">
            <path d="M241.399,97.063 L241.351,97.2 L238.241,105.955 L232.341,105.955 L232.341,100.374 L233.511,97.2 L233.561,97.063 L241.399,97.063 Z" />
            <path d="M298.675,97.575 L298.675,106.466 L290.849,106.466 L294.125,97.575 L298.675,97.575 Z" />
            <path d="M253.259,105.955 L245.305,105.955 L248.581,97.063 L256.418,97.063 L253.259,105.955 Z" />
            <path d="M268.804,105.955 L260.85,105.955 L264.125,97.063 L271.962,97.063 L268.804,105.955 Z" />
            <path d="M283.833,105.955 L275.879,105.955 L279.154,97.063 L286.991,97.063 L283.833,105.955 Z" />
            <path d="M237.288,96.254 L232.368,97.063 L231.372,91.015 C231.24,90.216 231.386,89.445 231.729,88.841 L232.685,88.655 L237.289,96.254 L237.288,96.254 Z" />
            <path d="M243.053,94.804 L250.862,93.288 L245.951,85.184 L238.258,86.678 L243.053,94.804 Z" />
            <path d="M257.724,92.442 L265.533,90.926 L260.622,82.822 L252.928,84.316 L257.724,92.442 Z" />
            <path d="M273.042,89.995 L280.852,88.479 L275.941,80.375 L268.247,81.869 L273.042,89.995 Z" />
            <path d="M288.766,87.631 L296.575,86.115 L291.666,78.011 L283.97,79.505 L288.766,87.631 Z" />
            <path d="M298.676,95.545 L251.786,95.545 L298.091,87.927 C298.993,87.779 299.603,86.928 299.454,86.027 L298.46,79.977 C298.457,79.956 298.453,79.936 298.45,79.917 C298.007,77.41 295.836,75.679 293.58,76.05 L233.106,85.999 L233.102,85.999 C231.934,86.192 230.909,86.931 230.289,88.026 C229.747,88.98 229.553,90.133 229.739,91.272 C229.739,91.275 229.739,91.281 229.739,91.284 L230.693,97.075 C230.69,97.117 230.687,97.156 230.687,97.2 L230.687,144.346 C230.687,145.259 231.428,146 232.341,146 L298.676,146 C299.589,146 300.33,145.259 300.33,144.346 L300.33,97.2 C300.33,96.286 299.589,95.545 298.676,95.545 Z M297.021,104.3 L233.995,104.3 L233.995,98.854 L297.021,98.854 L297.021,104.3 Z M294.116,79.315 C294.521,79.248 295.067,79.748 295.195,80.515 C295.198,80.532 295.2,80.547 295.204,80.565 L295.922,84.933 L233.731,95.163 L233.004,90.746 C232.939,90.35 232.999,89.954 233.168,89.656 C233.24,89.526 233.399,89.306 233.64,89.265 L294.116,79.315 Z M233.995,142.692 L233.995,107.609 L297.021,107.609 L297.021,142.692 L233.995,142.692 Z" />
            <path d="M286.569,119.604 L240.11,119.604 C239.197,119.604 238.456,120.344 238.456,121.258 C238.456,122.171 239.197,122.912 240.11,122.912 L286.569,122.912 C287.482,122.912 288.223,122.171 288.223,121.258 C288.223,120.344 287.482,119.604 286.569,119.604 Z" />
            <path d="M273.32,129.584 L240.11,129.584 C239.197,129.584 238.456,130.325 238.456,131.238 C238.456,132.151 239.197,132.892 240.11,132.892 L273.32,132.892 C274.233,132.892 274.974,132.151 274.974,131.238 C274.974,130.325 274.233,129.584 273.32,129.584 Z" />
        </g>
        <g id="Regular-S">
            <path d="M441.399,97.063 L441.351,97.2 L438.241,105.955 L432.341,105.955 L432.341,100.374 L433.511,97.2 L433.561,97.063 L441.399,97.063 Z" />
            <path d="M498.675,97.575 L498.675,106.466 L490.849,106.466 L494.125,97.575 L498.675,97.575 Z" />
            <path d="M453.259,105.955 L445.305,105.955 L448.581,97.063 L456.418,97.063 L453.259,105.955 Z" />
            <path d="M468.804,105.955 L460.85,105.955 L464.125,97.063 L471.962,97.063 L468.804,105.955 Z" />
            <path d="M483.833,105.955 L475.879,105.955 L479.154,97.063 L486.991,97.063 L483.833,105.955 Z" />
            <path d="M437.288,96.254 L432.368,97.063 L431.372,91.015 C431.24,90.216 431.386,89.445 431.729,88.841 L432.685,88.655 L437.289,96.254 L437.288,96.254 Z" />
            <path d="M443.053,94.804 L450.862,93.288 L445.951,85.184 L438.258,86.678 L443.053,94.804 Z" />
            <path d="M457.724,92.442 L465.533,90.926 L460.622,82.822 L452.928,84.316 L457.724,92.442 Z" />
            <path d="M473.042,89.995 L480.852,88.479 L475.941,80.375 L468.247,81.869 L473.042,89.995 Z" />
            <path d="M488.766,87.631 L496.575,86.115 L491.666,78.011 L483.97,79.505 L488.766,87.631 Z" />
            <path d="M498.676,95.545 L451.786,95.545 L498.091,87.927 C498.993,87.779 499.603,86.928 499.454,86.027 L498.46,79.977 C498.457,79.956 498.453,79.936 498.45,79.917 C498.007,77.41 495.836,75.679 493.58,76.05 L433.106,85.999 L433.102,85.999 C431.934,86.192 430.909,86.931 430.289,88.026 C429.747,88.98 429.553,90.133 429.739,91.272 C429.739,91.275 429.739,91.281 429.739,91.284 L430.693,97.075 C430.69,97.117 430.687,97.156 430.687,97.2 L430.687,144.346 C430.687,145.259 431.428,146 432.341,146 L498.676,146 C499.589,146 500.33,145.259 500.33,144.346 L500.33,97.2 C500.33,96.286 499.589,95.545 498.676,95.545 Z M497.021,104.3 L433.995,104.3 L433.995,98.854 L497.021,98.854 L497.021,104.3 Z M494.116,79.315 C494.521,79.248 495.067,79.748 495.195,80.515 C495.198,80.532 495.2,80.547 495.204,80.565 L495.922,84.933 L433.731,95.163 L433.004,90.746 C432.939,90.35 432.999,89.954 433.168,89.656 C433.24,89.526 433.399,89.306 433.64,89.265 L494.116,79.315 Z M433.995,142.692 L433.995,107.609 L497.021,107.609 L497.021,142.692 L433.995,142.692 Z" />
            <path d="M486.569,119.604 L440.11,119.604 C439.197,119.604 438.456,120.344 438.456,121.258 C438.456,122.171 439.197,122.912 440.11,122.912 L486.569,122.912 C487.482,122.912 488.223,122.171 488.223,121.258 C488.223,120.344 487.482,119.604 486.569,119.604 Z" />
            <path d="M473.32,129.584 L440.11,129.584 C439.197,129.584 438.456,130.325 438.456,131.238 C438.456,132.151 439.197,132.892 440.11,132.892 L473.32,132.892 C474.233,132.892 474.974,132.151 474.974,131.238 C474.974,130.325 474.233,129.584 473.32,129.584 Z" />
        </g>
        <g id="Black-S">
            <path d="M641.399,97.063 L641.351,97.2 L638.241,105.955 L632.341,105.955 L632.341,100.374 L633.511,97.2 L633.561,97.063 L641.399,97.063 Z" />
            <path d="M698.675,97.575 L698.675,106.466 L690.849,106.466 L694.125,97.575 L698.675,97.575 Z" />
            <path d="M653.259,105.955 L645.305,105.955 L648.581,97.063 L656.418,97.063 L653.259,105.955 Z" />
            <path d="M668.804,105.955 L660.85,105.955 L664.125,97.063 L671.962,97.063 L668.804,105.955 Z" />
            <path d="M683.833,105.955 L675.879,105.955 L679.154,97.063 L686.991,97.063 L683.833,105.955 Z" />
            <path d="M637.288,96.254 L632.368,97.063 L631.372,91.015 C631.24,90.216 631.386,89.445 631.729,88.841 L632.685,88.655 L637.289,96.254 L637.288,96.254 Z" />
            <path d="M643.053,94.804 L650.862,93.288 L645.951,85.184 L638.258,86.678 L643.053,94.804 Z" />
            <path d="M657.724,92.442 L665.533,90.926 L660.622,82.822 L652.928,84.316 L657.724,92.442 Z" />
            <path d="M673.042,89.995 L680.852,88.479 L675.941,80.375 L668.247,81.869 L673.042,89.995 Z" />
            <path d="M688.766,87.631 L696.575,86.115 L691.666,78.011 L683.97,79.505 L688.766,87.631 Z" />
            <path d="M698.676,95.545 L651.786,95.545 L698.091,87.927 C698.993,87.779 699.603,86.928 699.454,86.027 L698.46,79.977 C698.457,79.956 698.453,79.936 698.45,79.917 C698.007,77.41 695.836,75.679 693.58,76.05 L633.106,85.999 L633.102,85.999 C631.934,86.192 630.909,86.931 630.289,88.026 C629.747,88.98 629.553,90.133 629.739,91.272 C629.739,91.275 629.739,91.281 629.739,91.284 L630.693,97.075 C630.69,97.117 630.687,97.156 630.687,97.2 L630.687,144.346 C630.687,145.259 631.428,146 632.341,146 L698.676,146 C699.589,146 700.33,145.259 700.33,144.346 L700.33,97.2 C700.33,96.286 699.589,95.545 698.676,95.545 Z M697.021,104.3 L633.995,104.3 L633.995,98.854 L697.021,98.854 L697.021,104.3 Z M694.116,79.315 C694.521,79.248 695.067,79.748 695.195,80.515 C695.198,80.532 695.2,80.547 695.204,80.565 L695.922,84.933 L633.731,95.163 L633.004,90.746 C632.939,90.35 632.999,89.954 633.168,89.656 C633.24,89.526 633.399,89.306 633.64,89.265 L694.116,79.315 Z M633.995,142.692 L633.995,107.609 L697.021,107.609 L697.021,142.692 L633.995,142.692 Z" />
            <path d="M686.569,119.604 L640.11,119.604 C639.197,119.604 638.456,120.344 638.456,121.258 C638.456,122.171 639.197,122.912 640.11,122.912 L686.569,122.912 C687.482,122.912 688.223,122.171 688.223,121.258 C688.223,120.344 687.482,119.604 686.569,119.604 Z" />
            <path d="M673.32,129.584 L640.11,129.584 C639.197,129.584 638.456,130.325 638.456,131.238 C638.456,132.151 639.197,132.892 640.11,132.892 L673.32,132.892 C674.233,132.892 674.974,132.151 674.974,131.238 C674.974,130.325 674.233,129.584 673.32,129.584 Z" />
        </g>
    </g>
</svg>