<?xml version="1.0" encoding="UTF-8"?>
<svg height="600" width="800" xmlns="http://www.w3.org/2000/svg" xmlns:xlink="http://www.w3.org/1999/xlink">
    <g id="Notes" font-family="'LucidaGrande', 'Lucida Grande', sans-serif" font-size="13">
        <rect fill="white" height="600.0" width="800.0" x="0.0" y="0.0" />
        <g font-size="13">
            <text x="18.0" y="176.0">Small</text>
            <text x="18.0" y="376.0">Medium</text>
            <text x="18.0" y="576.0">Large</text>
        </g>
        <g font-size="9">
            <text x="250.0" y="30.0">Ultralight</text>
            <text x="450.0" y="30.0">Regular</text>
            <text x="650.0" y="30.0">Black</text>
            <text id="template-version" fill="#505050" text-anchor="end" x="785.0" y="575.0">Template v.3.0</text>
            <a href="https://github.com/swhitty/SwiftDraw">
                <text fill="#505050" text-anchor="end" x="785.0" y="590.0">https://github.com/swhitty/SwiftDraw</text>
            </a>
        </g>
    </g>
    <g id="Guides" stroke="rgb(39, 170, 225)" stroke-width="0.5">
        <path id="Capline-S" d="M18,76 l800,0" />
        <path id="H-reference" d="M85,145.755 L87.685,145.755 L113.369,79.287 L114.052,79.287 L114.052,76 L112.148,76 L85,145.755 Z M95.693,121.536 L130.996,121.536 L130.263,119.313 L96.474,119.313 L95.693,121.536 Z M139.15,145.755 L141.787,145.755 L114.638,76 L113.466,76 L113.466,79.287 L139.15,145.755 Z" stroke="none" />
        <path id="Baseline-S" d="M18,146 l800,0" />
        <path id="left-margin-Ultralight-S" d="M219.888,56 l0,110" />
        <path id="right-margin-Ultralight-S" d="M310.112,56 l0,110" />
        <path id="left-margin-Regular-S" d="M419.888,56 l0,110" />
        <path id="right-margin-Regular-S" d="M510.112,56 l0,110" />
        <path id="left-margin-Black-S" d="M619.888,56 l0,110" />
        <path id="right-margin-Black-S" d="M710.112,56 l0,110" />
        <path id="Capline-M" d="M18,276 l800,0" />
        <path id="Baseline-M" d="M18,346 l800,0" />
        <path id="Capline-L" d="M18,476 l800,0" />
        <path id="Baseline-L" d="M18,546 l800,0" />
    </g>
    <g id="Symbols">
        <g id="Ultralight-S">
            <path d="M244.544,118.979 C244.544,110.423 244.547,101.868 244.538,93.313 C244.537,92.861 244.65,92.474 244.887,92.098 C246.775,89.102 248.655,86.102 250.54,83.104 C250.755,82.762 250.996,82.44 251.326,82.196 C251.848,81.811 252.479,81.826 252.975,82.24 C253.233,82.456 253.439,82.717 253.618,83.001 C255.565,86.09 257.514,89.179 259.457,92.271 C259.788,92.798 259.948,93.37 259.943,94.008 C259.924,96.133 259.943,98.258 259.928,100.383 C259.926,100.741 260.021,100.868 260.396,100.862 C261.645,100.841 262.896,100.84 264.145,100.863 C264.535,100.87 264.638,100.745 264.637,100.365 C264.625,96.046 264.634,91.726 264.623,87.407 C264.622,86.957 264.729,86.568 264.966,86.191 C266.861,83.183 268.748,80.171 270.641,77.161 C270.849,76.832 271.084,76.522 271.402,76.285 C271.938,75.886 272.576,75.906 273.083,76.343 C273.327,76.553 273.525,76.802 273.697,77.074 C275.651,80.175 277.609,83.275 279.558,86.38 C279.88,86.894 280.029,87.457 280.027,88.079 C280.014,92.148 280.021,96.218 280.021,100.287 C280.021,100.853 280.022,100.854 280.594,100.854 C281.788,100.854 282.982,100.855 284.177,100.854 C284.713,100.854 284.714,100.853 284.714,100.294 C284.715,97.947 284.721,95.6 284.708,93.253 C284.706,92.844 284.812,92.492 285.024,92.154 C286.932,89.121 288.835,86.086 290.743,83.053 C290.95,82.724 291.189,82.417 291.511,82.185 C292.019,81.819 292.643,81.83 293.127,82.225 C293.387,82.438 293.596,82.698 293.775,82.981 C295.73,86.083 297.687,89.182 299.637,92.287 C299.96,92.801 300.112,93.362 300.112,93.984 C300.104,110.65 300.105,127.317 300.103,143.983 C300.103,144.232 300.11,144.489 300.054,144.728 C299.857,145.585 299.336,145.986 298.393,145.991 C296.296,146.003 294.199,145.998 292.101,145.998 C290.212,145.999 288.324,145.997 286.435,145.997 C286.156,145.998 285.881,145.987 285.609,145.914 C284.966,145.742 284.715,145.423 284.715,144.754 C284.714,141.517 284.715,138.281 284.714,135.046 C284.714,134.5 284.713,134.499 284.163,134.499 C282.969,134.499 281.774,134.499 280.58,134.499 C280.021,134.499 280.02,134.5 280.02,135.079 C280.019,138.079 280.02,141.079 280.018,144.079 C280.018,144.328 280.027,144.577 279.949,144.822 C279.696,145.611 279.235,145.975 278.378,145.989 C277.198,146.007 276.017,145.998 274.837,145.998 C272.045,145.998 269.253,145.998 266.462,145.996 C266.24,145.996 266.015,146.001 265.797,145.97 C264.926,145.843 264.63,145.493 264.63,144.616 C264.629,141.421 264.622,138.227 264.638,135.033 C264.64,134.618 264.539,134.479 264.107,134.489 C262.871,134.518 261.635,134.512 260.399,134.491 C260.029,134.485 259.926,134.604 259.927,134.967 C259.94,137.981 259.935,140.995 259.933,144.009 C259.932,144.244 259.939,144.486 259.889,144.713 C259.7,145.569 259.173,145.982 258.239,145.991 C256.683,146.004 255.127,145.998 253.572,145.998 C251.155,145.998 248.739,145.999 246.322,145.995 C246.087,145.995 245.847,145.993 245.618,145.95 C244.8,145.797 244.544,145.477 244.544,144.645 L244.544,118.979 Z M267.248,115.595 L267.252,115.595 C267.252,124.511 267.252,133.428 267.253,142.344 C267.253,143.169 267.299,143.218 268.127,143.219 C270.849,143.222 273.571,143.22 276.293,143.22 C276.432,143.22 276.571,143.211 276.709,143.208 C276.997,143.201 277.143,143.055 277.148,142.767 C277.151,142.545 277.161,142.323 277.161,142.101 C277.163,139.795 277.157,137.49 277.163,135.184 C277.191,123.199 277.11,111.214 277.208,99.229 C277.235,95.854 277.213,92.479 277.211,89.104 C277.211,88.456 277.11,87.833 276.757,87.271 C275.355,85.036 273.957,82.798 272.55,80.566 C272.271,80.123 272.131,80.13 271.846,80.583 C270.488,82.748 269.137,84.916 267.777,87.079 C267.411,87.66 267.241,88.279 267.242,88.971 C267.251,97.845 267.248,106.72 267.248,115.595 Z M247.162,118.555 L247.167,118.555 C247.167,126.416 247.167,134.276 247.167,142.137 C247.167,142.345 247.17,142.554 247.179,142.762 C247.191,143.044 247.345,143.193 247.627,143.205 C247.835,143.214 248.043,143.22 248.251,143.22 C250.793,143.221 253.334,143.223 255.876,143.219 C257.147,143.218 257.076,143.303 257.076,142.016 C257.078,130.169 257.073,118.322 257.079,106.476 C257.081,102.657 257.111,98.838 257.126,95.02 C257.129,94.357 257.012,93.724 256.651,93.15 C255.261,90.94 253.878,88.726 252.487,86.517 C252.18,86.028 252.051,86.036 251.737,86.536 C250.417,88.642 249.106,90.754 247.774,92.853 C247.342,93.533 247.152,94.246 247.154,95.056 C247.168,102.889 247.162,110.722 247.162,118.555 Z M287.333,118.519 L287.337,118.519 C287.337,126.421 287.337,134.324 287.337,142.226 C287.337,143.21 287.346,143.219 288.344,143.22 C290.913,143.221 293.483,143.223 296.052,143.219 C297.318,143.218 297.246,143.302 297.246,142.01 C297.248,130.163 297.243,118.317 297.25,106.47 C297.252,102.651 297.281,98.833 297.296,95.014 C297.299,94.351 297.179,93.719 296.818,93.145 C295.436,90.947 294.061,88.744 292.678,86.546 C292.349,86.024 292.227,86.027 291.904,86.541 C290.584,88.647 289.272,90.758 287.942,92.858 C287.519,93.525 287.323,94.224 287.324,95.02 C287.338,102.853 287.333,110.686 287.333,118.519 Z M259.935,117.657 C259.935,120.155 259.939,122.653 259.929,125.15 C259.928,125.48 260.008,125.619 260.368,125.614 C261.645,125.595 262.922,125.598 264.198,125.612 C264.516,125.615 264.636,125.53 264.636,125.19 C264.626,120.181 264.626,115.171 264.636,110.162 C264.636,109.821 264.513,109.738 264.197,109.742 C262.962,109.755 261.727,109.747 260.492,109.747 C259.937,109.747 259.936,109.748 259.936,110.288 C259.935,112.745 259.936,115.201 259.935,117.657 Z M280.02,117.682 C280.02,120.166 280.026,122.65 280.013,125.133 C280.011,125.489 280.102,125.621 280.478,125.614 C281.741,125.593 283.004,125.597 284.266,125.613 C284.607,125.617 284.722,125.516 284.721,125.166 C284.712,120.17 284.711,115.175 284.721,110.179 C284.722,109.817 284.586,109.737 284.258,109.741 C283.023,109.756 281.787,109.764 280.553,109.738 C280.134,109.729 280.008,109.844 280.011,110.271 C280.031,112.741 280.021,115.211 280.02,117.682 Z M264.629,105.298 C264.629,104.536 264.618,103.773 264.635,103.011 C264.642,102.694 264.554,102.568 264.214,102.573 C262.925,102.59 261.636,102.591 260.347,102.573 C260,102.568 259.928,102.706 259.931,103.016 C259.942,104.541 259.942,106.066 259.93,107.59 C259.928,107.907 260.011,108.033 260.351,108.028 C261.64,108.011 262.93,108.011 264.219,108.029 C264.566,108.033 264.641,107.896 264.634,107.586 C264.619,106.823 264.629,106.061 264.629,105.298 Z M280.021,105.303 C280.021,106.065 280.032,106.828 280.016,107.59 C280.009,107.906 280.095,108.033 280.436,108.028 C281.725,108.011 283.015,108.011 284.304,108.028 C284.65,108.033 284.722,107.896 284.72,107.586 C284.708,106.061 284.708,104.536 284.72,103.011 C284.722,102.695 284.641,102.568 284.3,102.573 C283.011,102.59 281.721,102.59 280.432,102.573 C280.087,102.568 280.01,102.705 280.016,103.015 C280.031,103.778 280.021,104.54 280.021,105.303 Z M264.629,130.096 C264.629,129.319 264.618,128.543 264.635,127.767 C264.641,127.454 264.562,127.32 264.218,127.325 C262.928,127.343 261.639,127.342 260.35,127.325 C260.008,127.321 259.927,127.45 259.929,127.765 C259.941,129.289 259.941,130.814 259.93,132.339 C259.927,132.651 260.003,132.786 260.348,132.781 C261.637,132.763 262.926,132.763 264.215,132.781 C264.557,132.785 264.642,132.657 264.635,132.341 C264.618,131.593 264.629,130.844 264.629,130.096 Z M280.02,130.01 C280.02,130.787 280.03,131.563 280.015,132.339 C280.008,132.651 280.088,132.785 280.433,132.781 C281.722,132.763 283.011,132.763 284.301,132.781 C284.642,132.785 284.722,132.656 284.72,132.341 C284.708,130.816 284.708,129.291 284.72,127.766 C284.722,127.454 284.647,127.32 284.302,127.325 C283.013,127.343 281.724,127.342 280.435,127.325 C280.093,127.32 280.008,127.449 280.014,127.764 C280.031,128.513 280.02,129.262 280.02,130.01 Z" />
            <path d="M229.888,122.908 L229.888,101.227 C229.888,100.804 230.009,100.461 230.231,100.098 C231.784,97.637 233.316,95.177 234.869,92.716 C235.071,92.393 235.293,92.071 235.596,91.809 C236.059,91.425 236.644,91.425 237.088,91.829 C237.35,92.071 237.552,92.333 237.733,92.635 C239.306,95.116 240.88,97.617 242.453,100.098 C242.796,100.622 242.977,101.187 242.977,101.832 C242.957,115.889 242.977,129.927 242.977,143.984 L242.977,144.347 C242.957,145.275 242.473,145.759 241.565,145.779 C240.678,145.799 239.77,145.779 238.883,145.779 L231.542,145.779 C231.32,145.779 231.118,145.779 230.896,145.759 C230.211,145.678 229.928,145.355 229.928,144.67 C229.888,137.429 229.888,130.169 229.888,122.908 Z M240.517,122.545 L240.517,102.599 C240.517,102.074 240.456,101.57 240.154,101.106 C238.964,99.23 237.794,97.335 236.604,95.459 C236.342,95.056 236.241,95.056 235.979,95.459 C234.809,97.315 233.659,99.15 232.51,101.005 C232.227,101.469 232.086,101.973 232.086,102.518 L232.086,142.693 C232.086,143.379 232.167,143.459 232.853,143.459 L239.548,143.459 C240.496,143.459 240.496,143.459 240.496,142.491 C240.517,135.836 240.517,129.201 240.517,122.545 Z" />
        </g>
        <g id="Regular-S">
            <path d="M444.544,118.979 C444.544,110.423 444.547,101.868 444.538,93.313 C444.537,92.861 444.65,92.474 444.887,92.098 C446.775,89.102 448.655,86.102 450.54,83.104 C450.755,82.762 450.996,82.44 451.326,82.196 C451.848,81.811 452.479,81.826 452.975,82.24 C453.233,82.456 453.439,82.717 453.618,83.001 C455.565,86.09 457.514,89.179 459.457,92.271 C459.788,92.798 459.948,93.37 459.943,94.008 C459.924,96.133 459.943,98.258 459.929,100.383 C459.926,100.741 460.021,100.868 460.396,100.862 C461.645,100.841 462.896,100.84 464.145,100.863 C464.535,100.87 464.638,100.745 464.637,100.365 C464.625,96.046 464.634,91.726 464.623,87.407 C464.622,86.957 464.729,86.568 464.966,86.191 C466.861,83.183 468.748,80.171 470.641,77.161 C470.849,76.832 471.084,76.522 471.402,76.285 C471.938,75.886 472.576,75.906 473.083,76.343 C473.327,76.553 473.525,76.802 473.697,77.074 C475.651,80.175 477.609,83.275 479.558,86.38 C479.88,86.894 480.029,87.457 480.027,88.079 C480.014,92.148 480.021,96.218 480.021,100.287 C480.021,100.853 480.022,100.854 480.594,100.854 C481.788,100.854 482.982,100.855 484.177,100.854 C484.713,100.854 484.714,100.853 484.714,100.294 C484.715,97.947 484.721,95.6 484.708,93.253 C484.706,92.844 484.812,92.492 485.024,92.154 C486.932,89.121 488.835,86.086 490.743,83.053 C490.95,82.724 491.189,82.417 491.511,82.185 C492.019,81.819 492.643,81.83 493.127,82.225 C493.387,82.438 493.596,82.698 493.775,82.981 C495.73,86.083 497.687,89.182 499.637,92.287 C499.96,92.801 500.112,93.362 500.112,93.984 C500.104,110.65 500.105,127.317 500.103,143.983 C500.103,144.232 500.11,144.489 500.054,144.728 C499.857,145.585 499.336,145.986 498.393,145.991 C496.296,146.003 494.199,145.998 492.101,145.998 C490.212,145.999 488.324,145.997 486.435,145.997 C486.156,145.998 485.881,145.987 485.609,145.914 C484.966,145.742 484.715,145.423 484.715,144.754 C484.714,141.517 484.715,138.281 484.714,135.046 C484.714,134.5 484.713,134.499 484.163,134.499 C482.969,134.499 481.774,134.499 480.58,134.499 C480.021,134.499 480.02,134.5 480.02,135.079 C480.019,138.079 480.02,141.079 480.018,144.079 C480.018,144.328 480.027,144.577 479.949,144.822 C479.696,145.611 479.235,145.975 478.378,145.989 C477.198,146.007 476.017,145.998 474.837,145.998 C472.045,145.998 469.253,145.998 466.462,145.996 C466.24,145.996 466.015,146.001 465.797,145.97 C464.926,145.843 464.63,145.493 464.63,144.616 C464.629,141.421 464.622,138.227 464.638,135.033 C464.641,134.618 464.539,134.479 464.107,134.489 C462.871,134.518 461.635,134.512 460.399,134.491 C460.029,134.485 459.926,134.604 459.927,134.967 C459.94,137.981 459.935,140.995 459.933,144.009 C459.932,144.244 459.939,144.486 459.889,144.713 C459.7,145.569 459.173,145.982 458.239,145.991 C456.683,146.004 455.128,145.998 453.572,145.998 C451.155,145.998 448.739,145.999 446.322,145.995 C446.087,145.995 445.847,145.993 445.618,145.95 C444.8,145.797 444.544,145.477 444.544,144.645 L444.544,118.979 Z M467.248,115.595 L467.252,115.595 C467.252,124.511 467.252,133.428 467.253,142.344 C467.253,143.169 467.299,143.218 468.127,143.219 C470.849,143.222 473.571,143.22 476.293,143.22 C476.432,143.22 476.571,143.211 476.709,143.208 C476.997,143.201 477.143,143.055 477.148,142.767 C477.151,142.545 477.161,142.323 477.162,142.101 C477.163,139.795 477.157,137.49 477.163,135.184 C477.191,123.199 477.11,111.214 477.208,99.229 C477.235,95.854 477.213,92.479 477.212,89.104 C477.211,88.456 477.11,87.833 476.757,87.271 C475.355,85.036 473.957,82.798 472.55,80.566 C472.271,80.123 472.131,80.13 471.846,80.583 C470.488,82.748 469.137,84.916 467.777,87.079 C467.411,87.66 467.241,88.279 467.242,88.971 C467.251,97.845 467.248,106.72 467.248,115.595 Z M447.162,118.555 L447.167,118.555 C447.167,126.416 447.167,134.276 447.167,142.137 C447.167,142.345 447.17,142.554 447.179,142.762 C447.191,143.044 447.345,143.193 447.627,143.205 C447.835,143.214 448.043,143.22 448.251,143.22 C450.793,143.221 453.334,143.223 455.876,143.219 C457.147,143.218 457.076,143.303 457.076,142.016 C457.078,130.169 457.073,118.322 457.079,106.476 C457.081,102.657 457.111,98.838 457.126,95.02 C457.129,94.357 457.012,93.724 456.651,93.15 C455.261,90.94 453.878,88.726 452.487,86.517 C452.18,86.028 452.051,86.036 451.737,86.536 C450.417,88.642 449.106,90.754 447.774,92.853 C447.343,93.533 447.152,94.246 447.154,95.056 C447.168,102.889 447.162,110.722 447.162,118.555 Z M487.333,118.519 L487.337,118.519 C487.337,126.421 487.337,134.324 487.337,142.226 C487.337,143.21 487.346,143.219 488.344,143.22 C490.913,143.221 493.483,143.223 496.052,143.219 C497.318,143.218 497.246,143.302 497.246,142.01 C497.248,130.163 497.243,118.317 497.25,106.47 C497.252,102.651 497.281,98.833 497.296,95.014 C497.299,94.351 497.179,93.719 496.818,93.145 C495.436,90.947 494.061,88.744 492.678,86.546 C492.349,86.024 492.227,86.027 491.904,86.541 C490.584,88.647 489.272,90.758 487.942,92.858 C487.519,93.525 487.323,94.224 487.324,95.02 C487.338,102.853 487.333,110.686 487.333,118.519 Z M459.935,117.657 C459.935,120.155 459.939,122.653 459.929,125.15 C459.928,125.48 460.008,125.619 460.368,125.614 C461.645,125.595 462.922,125.598 464.198,125.612 C464.516,125.615 464.636,125.53 464.636,125.19 C464.626,120.181 464.626,115.171 464.636,110.162 C464.636,109.821 464.513,109.738 464.197,109.742 C462.962,109.755 461.727,109.747 460.492,109.747 C459.937,109.747 459.936,109.748 459.936,110.288 C459.935,112.745 459.936,115.201 459.935,117.657 Z M480.02,117.682 C480.02,120.166 480.026,122.65 480.013,125.133 C480.011,125.489 480.102,125.621 480.478,125.614 C481.741,125.593 483.004,125.597 484.266,125.613 C484.607,125.617 484.722,125.516 484.721,125.166 C484.712,120.17 484.711,115.175 484.721,110.179 C484.722,109.817 484.586,109.737 484.258,109.741 C483.023,109.756 481.787,109.764 480.553,109.738 C480.134,109.729 480.008,109.844 480.011,110.271 C480.031,112.741 480.021,115.211 480.02,117.682 Z M464.629,105.298 C464.629,104.536 464.618,103.773 464.635,103.011 C464.642,102.694 464.554,102.568 464.214,102.573 C462.925,102.59 461.636,102.591 460.347,102.573 C460,102.568 459.928,102.706 459.931,103.016 C459.942,104.541 459.942,106.066 459.93,107.59 C459.928,107.907 460.011,108.033 460.351,108.028 C461.64,108.011 462.93,108.011 464.219,108.029 C464.566,108.033 464.641,107.896 464.634,107.586 C464.619,106.823 464.629,106.061 464.629,105.298 Z M480.021,105.303 C480.021,106.065 480.032,106.828 480.016,107.59 C480.009,107.906 480.096,108.033 480.436,108.028 C481.725,108.011 483.015,108.011 484.304,108.028 C484.65,108.033 484.722,107.896 484.72,107.586 C484.708,106.061 484.708,104.536 484.72,103.011 C484.723,102.695 484.641,102.568 484.3,102.573 C483.011,102.59 481.721,102.59 480.432,102.573 C480.087,102.568 480.01,102.705 480.016,103.015 C480.031,103.778 480.021,104.54 480.021,105.303 Z M464.629,130.096 C464.629,129.319 464.618,128.543 464.635,127.767 C464.641,127.454 464.562,127.32 464.218,127.325 C462.928,127.343 461.639,127.342 460.35,127.325 C460.008,127.321 459.927,127.45 459.93,127.765 C459.941,129.289 459.941,130.814 459.93,132.339 C459.927,132.651 460.003,132.786 460.348,132.781 C461.637,132.763 462.926,132.763 464.215,132.781 C464.557,132.785 464.642,132.657 464.635,132.341 C464.618,131.593 464.629,130.844 464.629,130.096 Z M480.02,130.01 C480.02,130.787 480.03,131.563 480.015,132.339 C480.008,132.651 480.088,132.785 480.433,132.781 C481.722,132.763 483.011,132.763 484.301,132.781 C484.642,132.785 484.722,132.656 484.72,132.341 C484.708,130.816 484.708,129.291 484.72,127.766 C484.722,127.454 484.647,127.32 484.302,127.325 C483.013,127.343 481.724,127.342 480.435,127.325 C480.093,127.32 480.008,127.449 480.014,127.764 C480.031,128.513 480.02,129.262 480.02,130.01 Z" />
            <path d="M429.888,122.908 L429.888,101.227 C429.888,100.804 430.009,100.461 430.231,100.098 C431.784,97.637 433.316,95.177 434.869,92.716 C435.071,92.393 435.293,92.071 435.596,91.809 C436.059,91.425 436.644,91.425 437.088,91.829 C437.35,92.071 437.552,92.333 437.733,92.635 C439.306,95.116 440.88,97.617 442.453,100.098 C442.796,100.622 442.977,101.187 442.977,101.832 C442.957,115.889 442.977,129.927 442.977,143.984 L442.977,144.347 C442.957,145.275 442.473,145.759 441.565,145.779 C440.678,145.799 439.77,145.779 438.883,145.779 L431.542,145.779 C431.32,145.779 431.118,145.779 430.896,145.759 C430.211,145.678 429.928,145.355 429.928,144.67 C429.888,137.429 429.888,130.169 429.888,122.908 Z M440.517,122.545 L440.517,102.599 C440.517,102.074 440.456,101.57 440.154,101.106 C438.964,99.23 437.794,97.335 436.604,95.459 C436.342,95.056 436.241,95.056 435.979,95.459 C434.809,97.315 433.659,99.15 432.51,101.005 C432.227,101.469 432.086,101.973 432.086,102.518 L432.086,142.693 C432.086,143.379 432.167,143.459 432.853,143.459 L439.548,143.459 C440.496,143.459 440.496,143.459 440.496,142.491 C440.517,135.836 440.517,129.201 440.517,122.545 Z" />
        </g>
        <g id="Black-S">
            <path d="M644.544,118.979 C644.544,110.423 644.547,101.868 644.538,93.313 C644.537,92.861 644.65,92.474 644.887,92.098 C646.775,89.102 648.655,86.102 650.54,83.104 C650.755,82.762 650.996,82.44 651.326,82.196 C651.848,81.811 652.479,81.826 652.975,82.24 C653.233,82.456 653.439,82.717 653.618,83.001 C655.565,86.09 657.514,89.179 659.457,92.271 C659.788,92.798 659.948,93.37 659.943,94.008 C659.924,96.133 659.943,98.258 659.928,100.383 C659.926,100.741 660.021,100.868 660.396,100.862 C661.645,100.841 662.896,100.84 664.145,100.863 C664.535,100.87 664.638,100.745 664.637,100.365 C664.625,96.046 664.634,91.726 664.623,87.407 C664.622,86.957 664.729,86.568 664.966,86.191 C666.861,83.183 668.748,80.171 670.641,77.161 C670.849,76.832 671.084,76.522 671.402,76.285 C671.938,75.886 672.576,75.906 673.083,76.343 C673.327,76.553 673.525,76.802 673.697,77.074 C675.651,80.175 677.609,83.275 679.558,86.38 C679.88,86.894 680.029,87.457 680.027,88.079 C680.014,92.148 680.021,96.218 680.021,100.287 C680.021,100.853 680.022,100.854 680.594,100.854 C681.788,100.854 682.982,100.855 684.177,100.854 C684.713,100.854 684.714,100.853 684.714,100.294 C684.715,97.947 684.721,95.6 684.708,93.253 C684.706,92.844 684.812,92.492 685.024,92.154 C686.932,89.121 688.835,86.086 690.743,83.053 C690.95,82.724 691.189,82.417 691.511,82.185 C692.019,81.819 692.643,81.83 693.127,82.225 C693.387,82.438 693.596,82.698 693.775,82.981 C695.73,86.083 697.687,89.182 699.637,92.287 C699.959,92.801 700.112,93.362 700.112,93.984 C700.104,110.65 700.105,127.317 700.103,143.983 C700.103,144.232 700.11,144.489 700.054,144.728 C699.857,145.585 699.336,145.986 698.393,145.991 C696.296,146.003 694.198,145.998 692.101,145.998 C690.212,145.999 688.324,145.997 686.435,145.997 C686.156,145.998 685.881,145.987 685.609,145.914 C684.966,145.742 684.715,145.423 684.715,144.754 C684.714,141.517 684.715,138.281 684.714,135.046 C684.714,134.5 684.713,134.499 684.163,134.499 C682.969,134.499 681.774,134.499 680.58,134.499 C680.021,134.499 680.02,134.5 680.02,135.079 C680.019,138.079 680.02,141.079 680.018,144.079 C680.018,144.328 680.027,144.577 679.949,144.822 C679.696,145.611 679.235,145.975 678.378,145.989 C677.198,146.007 676.017,145.998 674.836,145.998 C672.045,145.998 669.253,145.998 666.462,145.996 C666.24,145.996 666.015,146.001 665.797,145.97 C664.925,145.843 664.63,145.493 664.63,144.616 C664.629,141.421 664.622,138.227 664.638,135.033 C664.64,134.618 664.539,134.479 664.107,134.489 C662.871,134.518 661.635,134.512 660.399,134.491 C660.029,134.485 659.926,134.604 659.927,134.967 C659.94,137.981 659.935,140.995 659.933,144.009 C659.932,144.244 659.939,144.486 659.889,144.713 C659.7,145.569 659.173,145.982 658.239,145.991 C656.683,146.004 655.127,145.998 653.572,145.998 C651.155,145.998 648.739,145.999 646.322,145.995 C646.087,145.995 645.847,145.993 645.618,145.95 C644.8,145.797 644.544,145.477 644.544,144.645 L644.544,118.979 Z M667.248,115.595 L667.252,115.595 C667.252,124.511 667.252,133.428 667.253,142.344 C667.253,143.169 667.299,143.218 668.127,143.219 C670.849,143.222 673.571,143.22 676.293,143.22 C676.432,143.22 676.571,143.211 676.709,143.208 C676.997,143.201 677.143,143.055 677.148,142.767 C677.151,142.545 677.161,142.323 677.161,142.101 C677.163,139.795 677.157,137.49 677.163,135.184 C677.191,123.199 677.11,111.214 677.208,99.229 C677.235,95.854 677.213,92.479 677.211,89.104 C677.211,88.456 677.11,87.833 676.757,87.271 C675.355,85.036 673.957,82.798 672.55,80.566 C672.271,80.123 672.131,80.13 671.846,80.583 C670.488,82.748 669.137,84.916 667.777,87.079 C667.411,87.66 667.241,88.279 667.242,88.971 C667.251,97.845 667.248,106.72 667.248,115.595 Z M647.162,118.555 L647.167,118.555 C647.167,126.416 647.167,134.276 647.167,142.137 C647.167,142.345 647.17,142.554 647.179,142.762 C647.191,143.044 647.345,143.193 647.627,143.205 C647.835,143.214 648.043,143.22 648.251,143.22 C650.793,143.221 653.334,143.223 655.876,143.219 C657.147,143.218 657.076,143.303 657.076,142.016 C657.078,130.169 657.073,118.322 657.079,106.476 C657.081,102.657 657.111,98.838 657.126,95.02 C657.129,94.357 657.012,93.724 656.651,93.15 C655.261,90.94 653.878,88.726 652.487,86.517 C652.18,86.028 652.051,86.036 651.737,86.536 C650.417,88.642 649.106,90.754 647.774,92.853 C647.342,93.533 647.152,94.246 647.154,95.056 C647.168,102.889 647.162,110.722 647.162,118.555 Z M687.333,118.519 L687.337,118.519 C687.337,126.421 687.337,134.324 687.337,142.226 C687.337,143.21 687.346,143.219 688.344,143.22 C690.913,143.221 693.483,143.223 696.052,143.219 C697.318,143.218 697.246,143.302 697.246,142.01 C697.248,130.163 697.243,118.317 697.25,106.47 C697.252,102.651 697.281,98.833 697.296,95.014 C697.299,94.351 697.179,93.719 696.818,93.145 C695.436,90.947 694.061,88.744 692.678,86.546 C692.349,86.024 692.227,86.027 691.904,86.541 C690.584,88.647 689.272,90.758 687.942,92.858 C687.519,93.525 687.323,94.224 687.324,95.02 C687.338,102.853 687.333,110.686 687.333,118.519 Z M659.935,117.657 C659.935,120.155 659.939,122.653 659.929,125.15 C659.928,125.48 660.008,125.619 660.368,125.614 C661.645,125.595 662.922,125.598 664.198,125.612 C664.516,125.615 664.636,125.53 664.636,125.19 C664.626,120.181 664.626,115.171 664.636,110.162 C664.636,109.821 664.513,109.738 664.197,109.742 C662.962,109.755 661.727,109.747 660.492,109.747 C659.937,109.747 659.936,109.748 659.936,110.288 C659.935,112.745 659.936,115.201 659.935,117.657 Z M680.02,117.682 C680.02,120.166 680.026,122.65 680.013,125.133 C680.011,125.489 680.102,125.621 680.478,125.614 C681.741,125.593 683.004,125.597 684.266,125.613 C684.607,125.617 684.722,125.516 684.721,125.166 C684.712,120.17 684.711,115.175 684.721,110.179 C684.722,109.817 684.586,109.737 684.258,109.741 C683.023,109.756 681.787,109.764 680.553,109.738 C680.134,109.729 680.008,109.844 680.011,110.271 C680.031,112.741 680.021,115.211 680.02,117.682 Z M664.629,105.298 C664.629,104.536 664.618,103.773 664.635,103.011 C664.642,102.694 664.554,102.568 664.214,102.573 C662.925,102.59 661.636,102.591 660.347,102.573 C660,102.568 659.928,102.706 659.931,103.016 C659.942,104.541 659.942,106.066 659.93,107.59 C659.928,107.907 660.011,108.033 660.351,108.028 C661.64,108.011 662.93,108.011 664.219,108.029 C664.566,108.033 664.641,107.896 664.634,107.586 C664.619,106.823 664.629,106.061 664.629,105.298 Z M680.021,105.303 C680.021,106.065 680.032,106.828 680.016,107.59 C680.009,107.906 680.095,108.033 680.436,108.028 C681.725,108.011 683.015,108.011 684.304,108.028 C684.65,108.033 684.722,107.896 684.72,107.586 C684.708,106.061 684.708,104.536 684.72,103.011 C684.722,102.695 684.641,102.568 684.3,102.573 C683.011,102.59 681.721,102.59 680.432,102.573 C680.087,102.568 680.01,102.705 680.016,103.015 C680.031,103.778 680.021,104.54 680.021,105.303 Z M664.629,130.096 C664.629,129.319 664.618,128.543 664.635,127.767 C664.641,127.454 664.562,127.32 664.218,127.325 C662.928,127.343 661.639,127.342 660.35,127.325 C660.008,127.321 659.927,127.45 659.929,127.765 C659.941,129.289 659.941,130.814 659.93,132.339 C659.927,132.651 660.003,132.786 660.348,132.781 C661.637,132.763 662.926,132.763 664.215,132.781 C664.557,132.785 664.642,132.657 664.635,132.341 C664.618,131.593 664.629,130.844 664.629,130.096 Z M680.02,130.01 C680.02,130.787 680.03,131.563 680.015,132.339 C680.008,132.651 680.088,132.785 680.433,132.781 C681.722,132.763 683.011,132.763 684.301,132.781 C684.642,132.785 684.722,132.656 684.72,132.341 C684.708,130.816 684.708,129.291 684.72,127.766 C684.722,127.454 684.647,127.32 684.302,127.325 C683.013,127.343 681.724,127.342 680.435,127.325 C680.093,127.32 680.008,127.449 680.014,127.764 C680.031,128.513 680.02,129.262 680.02,130.01 Z" />
            <path d="M629.888,122.908 L629.888,101.227 C629.888,100.804 630.009,100.461 630.231,100.098 C631.784,97.637 633.316,95.177 634.869,92.716 C635.071,92.393 635.293,92.071 635.596,91.809 C636.059,91.425 636.644,91.425 637.088,91.829 C637.35,92.071 637.552,92.333 637.733,92.635 C639.306,95.116 640.88,97.617 642.453,100.098 C642.796,100.622 642.977,101.187 642.977,101.832 C642.957,115.889 642.977,129.927 642.977,143.984 L642.977,144.347 C642.957,145.275 642.473,145.759 641.565,145.779 C640.678,145.799 639.77,145.779 638.883,145.779 L631.542,145.779 C631.32,145.779 631.118,145.779 630.896,145.759 C630.211,145.678 629.928,145.355 629.928,144.67 C629.888,137.429 629.888,130.169 629.888,122.908 Z M640.517,122.545 L640.517,102.599 C640.517,102.074 640.456,101.57 640.154,101.106 C638.964,99.23 637.794,97.335 636.604,95.459 C636.342,95.056 636.241,95.056 635.979,95.459 C634.809,97.315 633.659,99.15 632.51,101.005 C632.227,101.469 632.086,101.973 632.086,102.518 L632.086,142.693 C632.086,143.379 632.167,143.459 632.853,143.459 L639.548,143.459 C640.496,143.459 640.496,143.459 640.496,142.491 C640.517,135.836 640.517,129.201 640.517,122.545 Z" />
        </g>
    </g>
</svg>