<svg width="512" height="512" viewBox="0 0 512 512" fill="none" xmlns="http://www.w3.org/2000/svg">
<path d="M115.84 267.38C109.72 283.92 106.58 301.24 106.48 318.86C106.65 323.69 110.68 327.51 115.54 327.38C120.22 327.25 123.98 323.5 124.13 318.84C124.23 303.27 127.03 287.97 132.44 273.38C134.09 268.84 131.73 263.77 127.16 262.1C126.19 261.75 125.17 261.57 124.14 261.57C120.45 261.57 117.11 263.92 115.84 267.39V267.38Z" fill="#B4B7BA"/>
<path d="M407.4 130.17H447.63C449.27 130.21 450.87 129.62 452.07 128.49C453.28 127.35 453.97 125.81 454.02 124.16C454.12 120.74 451.42 117.87 448 117.77C447.87 117.77 447.74 117.77 447.62 117.77H421.47L452.03 84.4C453.15 83.18 453.72 81.6 453.65 79.94C453.58 78.29 452.86 76.76 451.64 75.64C450.5 74.6 449.02 74.02 447.47 74.01H407.41C403.99 74.01 401.21 76.79 401.21 80.21C401.21 83.63 403.99 86.41 407.41 86.41H433.39L402.83 119.79C400.52 122.31 400.69 126.24 403.21 128.55C404.36 129.6 405.84 130.18 407.4 130.18V130.17Z" fill="#B4B7BA"/>
<path d="M331.96 148H364.11C365.77 148.04 367.35 147.45 368.55 146.32C369.75 145.19 370.45 143.64 370.5 141.99C370.55 140.33 369.95 138.75 368.81 137.55C367.67 136.34 366.14 135.65 364.48 135.6C364.35 135.6 364.22 135.6 364.1 135.6H346.03L368.55 111.01C369.66 109.79 370.24 108.2 370.16 106.55C370.08 104.9 369.37 103.36 368.14 102.25C366.99 101.2 365.51 100.63 363.95 100.63H342.76L342.81 100.61H331.84C328.42 100.52 325.55 103.21 325.45 106.63C325.35 110.05 328.05 112.92 331.47 113.02C331.59 113.02 331.72 113.02 331.84 113.02H349.92L327.4 137.6C325.07 140.12 325.23 144.06 327.75 146.37C328.9 147.43 330.39 148.01 331.95 148.01L331.96 148Z" fill="#B4B7BA"/>
<path d="M430 208H430.15C431.8 208.04 433.38 207.45 434.59 206.32C435.8 205.19 436.49 203.64 436.54 201.99C436.59 200.33 435.99 198.75 434.85 197.55C433.71 196.34 432.17 195.65 430.52 195.6C430.39 195.6 430.27 195.6 430.14 195.6H412.07L434.58 171.02C435.7 169.8 436.27 168.22 436.2 166.56C436.13 164.91 435.41 163.38 434.19 162.26C433.21 161.36 431.97 160.81 430.66 160.67H397.99C396.33 160.67 394.78 161.32 393.61 162.49C392.44 163.66 391.79 165.22 391.79 166.87C391.79 168.53 392.43 170.08 393.6 171.26C394.77 172.44 396.33 173.08 397.98 173.08H415.91L393.41 197.67C392.31 198.88 391.75 200.47 391.83 202.12C391.91 203.77 392.63 205.3 393.86 206.41C395 207.44 396.47 208.01 398.01 208.01H430V208Z" fill="#B4B7BA"/>
<path d="M349.49 379.78L347.95 377.98L348.37 375.65C351.7 356.97 353.44 337.88 353.56 318.91C353.44 299.95 351.7 280.86 348.37 262.18L347.95 259.85L349.49 258.05C362.14 243.26 360.41 220.93 345.62 208.28C339.23 202.82 331.09 199.8 322.68 199.8H322.62C314.51 199.8 306.6 202.63 300.33 207.77L298.5 209.28L296.17 208.81C267.2 202.95 237.52 199.92 207.95 199.81C178.42 199.92 148.74 202.95 119.77 208.81L117.45 209.28L115.62 207.78C108.31 201.82 99.1202 199.06 89.7402 200.01C80.3602 200.96 71.9102 205.51 65.9502 212.81C55.1502 226.04 55.3702 245.07 66.4602 258.06L68.0002 259.86L67.5802 262.19C64.2502 280.88 62.5002 299.97 62.3802 318.95C62.5002 337.87 64.2502 356.98 67.5802 375.66L68.0002 377.99L66.4602 379.79C53.8202 394.59 55.5702 416.91 70.3702 429.56C83.3502 440.65 102.38 440.87 115.62 430.07L117.45 428.57L119.77 429.04C148.74 434.9 178.43 437.93 207.99 438.04C237.52 437.93 267.2 434.9 296.17 429.04L298.49 428.57L300.32 430.07C315.39 442.39 337.67 440.16 349.99 425.09C360.82 411.84 360.61 392.79 349.48 379.79L349.49 379.78ZM329.69 258.11C333.65 278.01 335.74 298.47 335.91 318.85C335.74 339.31 333.64 359.78 329.67 379.77C329.06 383.04 330.41 386.49 333.13 388.51C340.96 394.23 342.68 405.3 336.94 413.15C334.16 416.96 330.06 419.45 325.4 420.18C320.74 420.91 316.08 419.77 312.27 416.99C310.9 415.99 309.69 414.81 308.66 413.46C306.99 411.3 304.42 410.04 301.66 410.03C301.06 410.03 300.43 410.1 299.81 410.23C269.72 416.8 238.81 420.21 207.97 420.34C177.09 420.21 146.18 416.8 116.06 410.22C115.47 410.09 114.84 410.03 114.21 410.03C111.45 410.03 108.88 411.29 107.18 413.48C105.89 415.17 104.29 416.6 102.5 417.71C102.5 417.71 97.2002 421.25 89.7202 420.03C81.6202 418.71 75.6102 411.26 75.6002 402.74C75.5902 397.1 78.3202 391.76 82.9102 388.47C85.5702 386.5 86.9202 383.05 86.2902 379.72C82.3302 359.78 80.2302 339.32 80.0602 318.95C80.2102 298.49 82.2902 278.02 86.2402 258.03C86.8602 254.76 85.5202 251.31 82.8202 249.29C78.3202 246.02 75.6202 240.69 75.6402 235.06C75.6402 230.37 77.4802 225.94 80.8202 222.6C84.1502 219.27 88.5802 217.44 93.2902 217.44H93.3002C98.7402 217.44 103.97 220.02 107.28 224.33C108.94 226.47 111.57 227.76 114.3 227.76H114.31C114.94 227.76 115.57 227.7 116.18 227.57C146.26 221 177.17 217.6 208 217.46C238.88 217.59 269.79 221 299.92 227.58C303.21 228.29 306.68 227.02 308.74 224.34C311.6 220.61 315.75 218.2 320.42 217.58C325.09 216.96 329.73 218.19 333.47 221.06C337.21 223.92 339.62 228.08 340.24 232.75C340.86 237.42 339.63 242.06 336.76 245.8C335.73 247.14 334.52 248.33 333.15 249.33C330.41 251.33 329.03 254.78 329.63 258.11H329.69Z" fill="#B4B7BA"/>
</svg>
