<svg width="24" height="25" viewBox="0 0 24 25" fill="none" xmlns="http://www.w3.org/2000/svg">
<circle cx="12" cy="12.1523" r="11" fill="#00D151"/>
<path d="M12 5.86663C11.223 5.86663 10.4635 6.09704 9.81741 6.52871C9.17136 6.96039 8.66782 7.57395 8.37048 8.2918C8.07313 9.00965 7.99533 9.79956 8.14692 10.5616C8.2985 11.3237 8.67266 12.0237 9.22208 12.5731C9.7715 13.1225 10.4715 13.4967 11.2336 13.6483C11.9956 13.7999 12.7856 13.7221 13.5034 13.4247C14.2213 13.1274 14.8348 12.6238 15.2665 11.9778C15.6982 11.3317 15.9286 10.5722 15.9286 9.7952C15.9286 8.75328 15.5147 7.75403 14.7779 7.01728C14.0412 6.28053 13.0419 5.86663 12 5.86663ZM12 12.1523C11.5338 12.1523 11.0781 12.0141 10.6904 11.7551C10.3028 11.4961 10.0007 11.128 9.82229 10.6972C9.64388 10.2665 9.5972 9.79258 9.68815 9.33534C9.7791 8.8781 10.0036 8.4581 10.3333 8.12845C10.6629 7.7988 11.0829 7.5743 11.5401 7.48335C11.9974 7.3924 12.4713 7.43908 12.902 7.61748C13.3328 7.79589 13.7009 8.09801 13.9599 8.48564C14.2189 8.87327 14.3571 9.329 14.3571 9.7952C14.3565 10.4202 14.108 11.0193 13.6661 11.4613C13.2242 11.9032 12.625 12.1517 12 12.1523Z" fill="#282828"/>
<path fill-rule="evenodd" clip-rule="evenodd" d="M5.70001 21.1707V19.0523C5.70001 16.9536 7.40133 15.2523 9.50001 15.2523H14.5C16.5987 15.2523 18.3 16.9536 18.3 19.0523V21.1707C17.796 21.5235 17.261 21.835 16.7 22.1005V19.0523C16.7 17.8373 15.715 16.8523 14.5 16.8523H9.50001C8.28499 16.8523 7.30001 17.8373 7.30001 19.0523V22.1006C6.739 21.835 6.20404 21.5235 5.70001 21.1707Z" fill="#282828"/>
</svg>
