<svg width="512" height="512" viewBox="0 0 512 512" fill="none" xmlns="http://www.w3.org/2000/svg">
<path d="M112.999 179.63C110.37 179.63 107.846 178.594 105.974 176.747C104.102 174.9 103.034 172.389 102.999 169.76C102.831 156.594 106.758 143.701 114.238 132.864C121.718 122.028 132.38 113.784 144.75 109.273C157.121 104.761 170.587 104.205 183.287 107.682C195.987 111.159 207.292 118.497 215.639 128.68C217.27 130.738 218.026 133.354 217.745 135.965C217.463 138.575 216.165 140.97 214.133 142.632C212.101 144.294 209.496 145.09 206.881 144.849C204.267 144.607 201.853 143.347 200.159 141.34C194.438 134.367 186.691 129.344 177.99 126.966C169.289 124.588 160.064 124.972 151.591 128.065C143.118 131.159 135.815 136.808 130.693 144.233C125.571 151.658 122.882 160.49 122.999 169.51C123.031 172.16 122.01 174.715 120.159 176.613C118.308 178.51 115.78 179.596 113.129 179.63H112.999Z" fill="#00D151"/>
<path d="M458.559 74.0001C457.719 74.0008 456.882 73.8933 456.07 73.6801C453.501 73.0207 451.3 71.3682 449.949 69.086C448.599 66.8037 448.211 64.0787 448.869 61.5101C449.733 58.107 449.519 54.5196 448.257 51.2435C446.994 47.9673 444.745 45.1642 441.821 43.2211C438.896 41.2781 435.441 40.2912 431.931 40.3967C428.422 40.5022 425.032 41.6949 422.23 43.8101C420.108 45.408 417.438 46.0976 414.808 45.7272C412.178 45.3569 409.802 43.9568 408.204 41.8351C406.607 39.7133 405.917 37.0437 406.287 34.4135C406.658 31.7833 408.058 29.408 410.179 27.8101C416.292 23.1976 423.686 20.598 431.34 20.3708C438.994 20.1435 446.53 22.2998 452.905 26.5415C459.28 30.7832 464.18 36.9008 466.927 44.0484C469.674 51.1959 470.133 59.0205 468.239 66.4401C467.697 68.5974 466.45 70.5121 464.697 71.8813C462.944 73.2505 460.784 73.9961 458.559 74.0001Z" fill="#00D151"/>
<path d="M160.409 496C155.321 495.997 150.288 494.945 145.625 492.909C140.962 490.874 136.768 487.898 133.307 484.168C129.846 480.439 127.191 476.035 125.509 471.233C123.826 466.431 123.153 461.334 123.529 456.26C123.629 454.95 123.986 453.672 124.579 452.5C125.173 451.328 125.992 450.284 126.988 449.429C127.985 448.573 129.141 447.922 130.389 447.513C131.638 447.104 132.954 446.945 134.264 447.045C135.574 447.144 136.852 447.501 138.024 448.095C139.196 448.688 140.239 449.507 141.095 450.504C141.951 451.5 142.602 452.656 143.011 453.904C143.42 455.153 143.579 456.47 143.479 457.78C143.217 461.281 144.049 464.777 145.86 467.785C147.672 470.793 150.373 473.164 153.59 474.569C156.808 475.975 160.383 476.346 163.82 475.631C167.258 474.917 170.389 473.151 172.779 470.58C173.674 469.618 174.749 468.841 175.943 468.295C177.137 467.748 178.428 467.442 179.74 467.395C181.053 467.347 182.362 467.558 183.593 468.016C184.824 468.474 185.952 469.17 186.914 470.065C187.876 470.959 188.653 472.034 189.199 473.228C189.746 474.423 190.051 475.713 190.099 477.025C190.147 478.338 189.936 479.647 189.478 480.878C189.02 482.109 188.324 483.238 187.429 484.2C183.979 487.919 179.799 490.887 175.15 492.917C170.501 494.948 165.483 495.997 160.409 496Z" fill="#B4B7BA"/>
<path d="M32.2203 193.4C30.3149 193.401 28.4489 192.857 26.8421 191.833C25.2352 190.809 23.9544 189.348 23.1503 187.62C19.9171 180.672 18.9245 172.89 20.31 165.352C21.6956 157.814 25.3907 150.894 30.8836 145.549C36.3765 140.205 43.3953 136.7 50.9681 135.522C58.5409 134.343 66.2928 135.548 73.1503 138.97C74.3553 139.538 75.4347 140.341 76.3251 141.332C77.2155 142.323 77.899 143.482 78.3353 144.741C78.7716 145.999 78.952 147.332 78.866 148.662C78.7799 149.991 78.4291 151.29 77.8341 152.482C77.2392 153.674 76.412 154.735 75.4013 155.603C74.3906 156.471 73.2167 157.128 71.9485 157.536C70.6803 157.944 69.3433 158.094 68.0162 157.978C66.6891 157.862 65.3985 157.482 64.2203 156.86C61.0744 155.301 57.5219 154.756 54.0534 155.303C50.5849 155.849 47.3717 157.459 44.8578 159.911C42.3439 162.362 40.6533 165.534 40.0196 168.987C39.3859 172.441 39.8404 176.006 41.3203 179.19C42.0275 180.714 42.3395 182.391 42.2274 184.068C42.1153 185.744 41.5828 187.365 40.679 188.781C39.7752 190.197 38.5292 191.362 37.0561 192.169C35.583 192.977 33.9302 193.4 32.2503 193.4H32.2203Z" fill="#B4B7BA"/>
<path d="M452.429 292.86C450.053 292.864 447.752 292.021 445.94 290.483C444.128 288.945 442.923 286.811 442.542 284.465C442.16 282.119 442.627 279.714 443.858 277.681C445.089 275.648 447.004 274.119 449.259 273.37C452.593 272.252 455.496 270.125 457.566 267.283C459.637 264.442 460.773 261.027 460.817 257.512C460.861 253.996 459.811 250.554 457.812 247.662C455.813 244.77 452.964 242.571 449.659 241.37C447.212 240.427 445.233 238.561 444.148 236.173C443.064 233.784 442.961 231.066 443.862 228.603C444.763 226.139 446.596 224.129 448.965 223.004C451.335 221.879 454.051 221.731 456.529 222.59C463.721 225.22 469.917 230.019 474.262 236.324C478.608 242.629 480.887 250.128 480.784 257.785C480.682 265.441 478.204 272.877 473.692 279.063C469.181 285.25 462.858 289.883 455.599 292.32C454.579 292.67 453.508 292.852 452.429 292.86Z" fill="#00D151"/>
<path d="M370.171 447.27C370.205 460.048 366.387 472.541 359.214 483.117C352.041 493.693 341.846 501.861 329.961 506.555C318.076 511.25 305.051 512.253 292.587 509.433C280.123 506.614 268.798 500.103 260.091 490.75C259.198 489.786 258.503 488.657 258.047 487.425C257.591 486.193 257.381 484.884 257.431 483.571C257.481 482.259 257.788 480.969 258.337 479.775C258.885 478.582 259.663 477.508 260.626 476.615C261.589 475.722 262.719 475.027 263.951 474.571C265.182 474.114 266.492 473.905 267.804 473.955C269.117 474.004 270.407 474.312 271.6 474.86C272.794 475.408 273.868 476.186 274.761 477.15C280.44 483.262 287.756 487.614 295.839 489.685C303.921 491.757 312.428 491.462 320.347 488.835C328.267 486.208 335.264 481.359 340.505 474.868C345.747 468.376 349.012 460.514 349.911 452.22C353.998 451.874 358.045 451.154 362.001 450.07C364.783 449.317 367.512 448.382 370.171 447.27Z" fill="#00D151"/>
<path d="M446.049 401C434.317 404.243 421.828 403.36 410.669 398.5C408.357 409.295 403.466 419.369 396.413 427.862C389.36 436.355 380.356 443.014 370.169 447.27C367.523 448.38 364.808 449.315 362.039 450.07C358.07 451.157 354.01 451.876 349.909 452.22C347.909 452.4 346.019 452.48 344.079 452.48C327.425 452.474 311.357 446.337 298.939 435.24C296.958 433.476 295.759 430.997 295.605 428.349C295.451 425.701 296.355 423.101 298.119 421.12C299.883 419.138 302.361 417.939 305.009 417.785C307.657 417.631 310.258 418.536 312.239 420.3C319.338 426.612 328.15 430.676 337.56 431.978C346.97 433.279 356.555 431.759 365.1 427.61C373.646 423.461 380.768 416.869 385.566 408.67C390.363 400.47 392.619 391.032 392.049 381.55C391.922 379.543 392.402 377.546 393.428 375.817C394.453 374.087 395.976 372.708 397.797 371.857C399.618 371.006 401.654 370.724 403.638 371.047C405.622 371.371 407.462 372.285 408.919 373.67C414.217 378.709 421.02 381.874 428.287 382.684C435.554 383.493 442.886 381.901 449.163 378.151C455.44 374.4 460.316 368.699 463.048 361.916C465.779 355.133 466.215 347.643 464.289 340.59C463.926 339.279 463.489 337.99 462.979 336.73C461.99 334.268 462.019 331.515 463.06 329.075C464.1 326.635 466.068 324.709 468.529 323.72C470.99 322.73 473.744 322.759 476.184 323.8C478.623 324.841 480.55 326.808 481.539 329.27C482.32 331.25 482.988 333.273 483.539 335.33C487.254 349.009 485.394 363.603 478.366 375.913C471.339 388.223 459.717 397.244 446.049 401Z" fill="#B4B7BA"/>
<path d="M131.449 404.4C119.221 411.495 105.033 414.464 90.9849 412.869C76.9373 411.273 63.7766 405.198 53.4504 395.541C43.1242 385.885 36.1811 373.16 33.6488 359.251C31.1164 345.342 33.1292 330.987 39.3894 318.31C34.2081 313.985 29.9956 308.618 27.0261 302.557C24.0565 296.497 22.3965 289.878 22.1541 283.134C21.9116 276.389 23.0922 269.669 25.619 263.41C28.1457 257.152 31.962 251.496 36.8194 246.81C38.7285 244.979 41.2857 243.978 43.9309 244.028C46.5761 244.078 49.0938 245.174 50.9326 247.076C52.7713 248.979 53.7813 251.532 53.7414 254.177C53.7014 256.823 52.6148 259.344 50.7194 261.19C46.8344 264.951 44.1141 269.75 42.8835 275.015C41.6528 280.28 41.9638 285.788 43.7794 290.88C45.8928 296.87 49.9936 301.956 55.3994 305.29C58.6777 307.324 62.3389 308.663 66.156 309.224C69.973 309.785 73.8646 309.555 77.5894 308.55C80.1487 307.854 82.8798 308.203 85.1818 309.521C87.4838 310.838 89.1682 313.016 89.8644 315.575C90.5606 318.135 90.2116 320.866 88.8941 323.168C87.5767 325.47 85.3987 327.154 82.8394 327.85C78.752 328.961 74.535 329.522 70.2994 329.52C65.8257 329.519 61.3736 328.9 57.0694 327.68C53.5981 334.961 52.1059 343.027 52.7432 351.067C53.3804 359.107 56.1246 366.838 60.6994 373.48C66.5474 382.031 75.1482 388.32 85.0694 391.3C91.0897 393.123 97.4199 393.692 103.669 392.971C109.917 392.25 115.952 390.256 121.399 387.11C122.537 386.372 123.813 385.872 125.15 385.643C126.487 385.413 127.857 385.457 129.176 385.774C130.495 386.09 131.736 386.671 132.823 387.482C133.911 388.293 134.821 389.317 135.501 390.492C136.18 391.666 136.613 392.966 136.774 394.313C136.934 395.66 136.82 397.025 136.436 398.326C136.052 399.627 135.408 400.837 134.542 401.881C133.676 402.925 132.607 403.782 131.399 404.4H131.449Z" fill="#B4B7BA"/>
<path d="M336.769 86.0001C336.218 86.0959 335.659 86.1428 335.099 86.1401C332.737 86.1374 330.452 85.2985 328.649 83.7719C326.846 82.2453 325.642 80.1297 325.249 77.8001C324.212 71.6872 321.175 66.0915 316.615 61.8907C312.054 57.6898 306.229 55.1215 300.051 54.5884C293.874 54.0553 287.695 55.5877 282.482 58.9451C277.269 62.3026 273.319 67.2953 271.249 73.1401C270.834 74.4009 270.171 75.5662 269.3 76.5681C268.428 77.57 267.367 78.3885 266.176 78.9757C264.985 79.5629 263.689 79.9071 262.364 79.9882C261.039 80.0694 259.711 79.8858 258.458 79.4483C257.204 79.0108 256.05 78.328 255.063 77.4399C254.077 76.5517 253.276 75.476 252.71 74.2754C252.143 73.0748 251.821 71.7733 251.763 70.4469C251.704 69.1206 251.911 67.7959 252.369 66.5501C254.504 60.4476 257.859 54.8437 262.229 50.0801C258.257 40.7174 251.283 32.9418 242.406 27.9775C233.529 23.0132 223.253 21.142 213.196 22.6586C203.139 24.1752 193.872 28.9934 186.854 36.3546C179.836 43.7159 175.465 53.2022 174.429 63.3201C174.182 65.785 173.028 68.0702 171.191 69.733C169.355 71.3957 166.967 72.3176 164.489 72.3201C164.155 72.3193 163.821 72.2992 163.489 72.2601C162.179 72.1278 160.908 71.7379 159.748 71.1128C158.589 70.4877 157.565 69.6398 156.734 68.6177C155.903 67.5956 155.283 66.4194 154.908 65.1568C154.533 63.8942 154.411 62.5699 154.549 61.2601C155.997 47.101 161.995 33.7923 171.643 23.3283C181.29 12.8642 194.069 5.80837 208.065 3.21791C222.06 0.627449 236.518 2.6419 249.272 8.95941C262.026 15.2769 272.389 25.5573 278.809 38.2601C285.49 35.3972 292.734 34.0904 299.994 34.4385C307.253 34.7866 314.339 36.7805 320.715 40.2695C327.091 43.7585 332.59 48.6512 336.797 54.5779C341.004 60.5046 343.809 67.3101 344.999 74.4801C345.217 75.7771 345.177 77.1042 344.881 78.3855C344.584 79.6668 344.039 80.8772 343.274 81.9472C342.51 83.0173 341.542 83.9261 340.425 84.6215C339.309 85.317 338.067 85.7854 336.769 86.0001Z" fill="#B4B7BA"/>
<path d="M497.51 218.59C495.886 218.59 494.286 218.195 492.85 217.438C491.413 216.682 490.182 215.586 489.263 214.247C488.345 212.908 487.766 211.366 487.577 209.753C487.388 208.14 487.595 206.505 488.18 204.99C490.003 200.252 490.735 195.164 490.322 190.105C489.909 185.045 488.361 180.143 485.794 175.763C483.227 171.383 479.707 167.638 475.494 164.805C471.281 161.973 466.484 160.125 461.46 159.4C459.258 159.078 457.227 158.031 455.687 156.425C454.147 154.818 453.188 152.744 452.96 150.53C452.557 146.595 451.18 142.822 448.952 139.553C446.725 136.284 443.717 133.622 440.201 131.808C436.686 129.994 432.773 129.086 428.818 129.165C424.863 129.244 420.99 130.308 417.55 132.26C415.241 133.567 412.508 133.902 409.952 133.193C407.396 132.484 405.226 130.789 403.92 128.48C402.614 126.172 402.278 123.439 402.987 120.883C403.696 118.326 405.391 116.157 407.7 114.85C413.482 111.574 419.935 109.656 426.569 109.242C433.202 108.829 439.843 109.93 445.988 112.463C452.133 114.997 457.621 118.895 462.035 123.864C466.45 128.832 469.677 134.74 471.47 141.14C473.01 141.58 474.53 142.09 476.03 142.67C489.324 147.817 500.034 158.027 505.81 171.06C511.586 184.093 511.956 198.885 506.84 212.19C506.113 214.075 504.832 215.694 503.167 216.837C501.501 217.979 499.529 218.59 497.51 218.59Z" fill="#B4B7BA"/>
<path d="M187.28 211.88C190.756 211.885 194.152 212.929 197.03 214.88C200.109 216.934 202.634 219.716 204.38 222.98C206.213 226.482 207.17 230.377 207.17 234.33C207.17 238.283 206.213 242.177 204.38 245.68C202.627 248.952 200.104 251.749 197.03 253.83C194.156 255.79 190.758 256.836 187.28 256.83H168.88L169.88 255.03V275.73C169.924 277.331 169.351 278.889 168.28 280.08C167.748 280.659 167.097 281.115 166.372 281.417C165.647 281.719 164.865 281.86 164.08 281.83C163.309 281.854 162.542 281.709 161.832 281.407C161.122 281.105 160.487 280.652 159.97 280.08C158.901 278.888 158.332 277.33 158.38 275.73V218C158.366 217.196 158.514 216.397 158.816 215.652C159.117 214.906 159.565 214.229 160.133 213.66C160.701 213.091 161.377 212.642 162.123 212.34C162.868 212.037 163.666 211.888 164.47 211.9L187.28 211.88ZM187.28 245.48C188.667 245.431 189.985 244.859 190.97 243.88C192.241 242.714 193.261 241.302 193.97 239.73C195.121 237.267 195.451 234.5 194.911 231.835C194.371 229.171 192.989 226.75 190.97 224.93C189.971 223.979 188.658 223.427 187.28 223.38H168.67L169.88 221.58V247.08L168.78 245.48H187.28Z" fill="#B4B7BA"/>
<path d="M225 211.78C226.027 211.802 227.036 212.059 227.95 212.53C228.896 212.953 229.709 213.628 230.3 214.48L254.61 251.88L249.61 251.68L274.5 214.48C275.022 213.651 275.747 212.968 276.606 212.495C277.464 212.023 278.429 211.777 279.41 211.78C281.004 211.781 282.538 212.389 283.7 213.48C284.323 214.027 284.817 214.705 285.148 215.466C285.478 216.227 285.636 217.051 285.61 217.88V275.78C285.637 276.597 285.494 277.411 285.191 278.17C284.888 278.929 284.43 279.617 283.848 280.19C283.265 280.763 282.57 281.21 281.806 281.5C281.042 281.791 280.226 281.921 279.41 281.88C278.572 281.915 277.736 281.778 276.953 281.477C276.171 281.176 275.458 280.717 274.86 280.13C274.286 279.563 273.835 278.885 273.534 278.136C273.233 277.388 273.089 276.586 273.11 275.78V228.68L277 229.58L256.61 260.68C255.973 261.436 255.212 262.079 254.36 262.58C253.537 263.092 252.577 263.337 251.61 263.28C250.672 263.329 249.742 263.084 248.95 262.58C248.094 262.084 247.332 261.441 246.7 260.68L227.61 230.48L230.2 225.18V275.78C230.247 277.38 229.678 278.938 228.61 280.13C228.078 280.709 227.427 281.165 226.702 281.467C225.977 281.769 225.195 281.91 224.41 281.88C223.639 281.904 222.872 281.759 222.162 281.457C221.452 281.155 220.817 280.702 220.3 280.13C219.228 278.939 218.656 277.381 218.7 275.78V217.88C218.692 217.074 218.853 216.275 219.172 215.535C219.49 214.795 219.959 214.129 220.55 213.58C221.133 212.998 221.828 212.539 222.592 212.23C223.357 211.92 224.175 211.767 225 211.78Z" fill="#B4B7BA"/>
<path d="M344.871 281.88C344.026 281.911 343.184 281.772 342.393 281.472C341.603 281.171 340.881 280.715 340.271 280.13C339.685 279.57 339.222 278.894 338.912 278.145C338.602 277.396 338.452 276.591 338.471 275.78V225.38L339.871 227.58L332.571 232.98C331.564 233.737 330.329 234.125 329.071 234.08C328.285 234.083 327.507 233.924 326.785 233.615C326.062 233.305 325.411 232.851 324.871 232.28C324.293 231.725 323.834 231.057 323.525 230.317C323.215 229.577 323.061 228.782 323.071 227.98C323.08 226.917 323.372 225.875 323.917 224.961C324.462 224.047 325.239 223.295 326.171 222.78L340.571 213.18C341.251 212.708 342.014 212.368 342.821 212.18C343.59 211.989 344.378 211.888 345.171 211.88C346.017 211.836 346.863 211.969 347.655 212.27C348.448 212.571 349.168 213.035 349.771 213.63C350.331 214.205 350.769 214.886 351.061 215.633C351.353 216.38 351.493 217.179 351.471 217.98V275.78C351.49 276.595 351.334 277.405 351.015 278.155C350.696 278.905 350.221 279.579 349.621 280.13C348.983 280.72 348.235 281.179 347.42 281.479C346.605 281.779 345.739 281.916 344.871 281.88Z" fill="#B4B7BA"/>
<path d="M467.43 475C472.953 475 477.43 470.523 477.43 465C477.43 459.477 472.953 455 467.43 455C461.907 455 457.43 459.477 457.43 465C457.43 470.523 461.907 475 467.43 475Z" fill="#B4B7BA"/>
<path d="M294 124C299.523 124 304 119.523 304 114C304 108.477 299.523 104 294 104C288.477 104 284 108.477 284 114C284 119.523 288.477 124 294 124Z" fill="#B4B7BA"/>
<path d="M54.4297 464C59.9525 464 64.4297 459.523 64.4297 454C64.4297 448.477 59.9525 444 54.4297 444C48.9068 444 44.4297 448.477 44.4297 454C44.4297 459.523 48.9068 464 54.4297 464Z" fill="#B4B7BA"/>
<path d="M225 417C230.523 417 235 412.523 235 407C235 401.477 230.523 397 225 397C219.477 397 215 401.477 215 407C215 412.523 219.477 417 225 417Z" fill="#B4B7BA"/>
<path d="M131 342C136.523 342 141 337.523 141 332C141 326.477 136.523 322 131 322C125.477 322 121 326.477 121 332C121 337.523 125.477 342 131 342Z" fill="#B4B7BA"/>
<path d="M83 224C88.5228 224 93 219.523 93 214C93 208.477 88.5228 204 83 204C77.4772 204 73 208.477 73 214C73 219.523 77.4772 224 83 224Z" fill="#B4B7BA"/>
<path d="M337 357C342.523 357 347 352.523 347 347C347 341.477 342.523 337 337 337C331.477 337 327 341.477 327 347C327 352.523 331.477 357 337 357Z" fill="#B4B7BA"/>
<path d="M413 187C418.523 187 423 182.523 423 177C423 171.477 418.523 167 413 167C407.477 167 403 171.477 403 177C403 182.523 407.477 187 413 187Z" fill="#B4B7BA"/>
<path d="M371 52C376.523 52 381 47.5228 381 42C381 36.4772 376.523 32 371 32C365.477 32 361 36.4772 361 42C361 47.5228 365.477 52 371 52Z" fill="#B4B7BA"/>
<path d="M33 55C38.5228 55 43 50.5228 43 45C43 39.4772 38.5228 35 33 35C27.4772 35 23 39.4772 23 45C23 50.5228 27.4772 55 33 55Z" fill="#B4B7BA"/>
<path d="M106 77C111.523 77 116 72.5228 116 67C116 61.4772 111.523 57 106 57C100.477 57 96 61.4772 96 67C96 72.5228 100.477 77 106 77Z" fill="#B4B7BA"/>
</svg>
