<svg width="512" height="512" viewBox="0 0 512 512" fill="none" xmlns="http://www.w3.org/2000/svg">
<g clip-path="url(#clip0_4666_639)">
<path d="M191 405C167.903 405.068 145.567 396.742 128.15 381.57C120.268 384.52 111.917 386.021 103.5 386C92.0522 385.997 80.7768 383.207 70.6483 377.87C60.5198 372.534 51.8427 364.812 45.3666 355.372C38.8905 345.931 34.8101 335.056 33.4779 323.686C32.1458 312.315 33.6018 300.791 37.7204 290.11C21.6525 277.211 9.98472 259.643 4.32775 239.83C-1.32922 220.017 -0.696399 198.937 6.13884 179.499C12.9741 160.061 25.6747 143.224 42.4874 131.313C59.3001 119.401 79.3958 113.002 100 113C102.934 113 105.86 113.13 108.78 113.39C111.853 85.8051 123.841 59.9761 142.926 39.8234C162.01 19.6707 187.149 6.29482 214.525 1.72603C241.902 -2.84276 270.022 1.64507 294.616 14.5083C319.211 27.3715 338.937 47.9077 350.8 72.9996C367.473 73.2382 383.915 76.9343 399.085 83.8543C414.256 90.7742 427.825 100.767 438.935 113.202C450.044 125.636 458.452 140.24 463.627 156.091C468.802 171.942 470.63 188.695 468.997 205.289C467.364 221.883 462.305 237.957 454.14 252.496C445.975 267.034 434.881 279.719 421.561 289.749C408.24 299.779 392.983 306.935 376.755 310.765C360.526 314.595 343.68 315.016 327.28 312C321.985 319.509 315.231 325.876 307.423 330.721C299.615 335.566 290.911 338.79 281.83 340.2C275.329 359.118 263.081 375.532 246.796 387.15C230.511 398.768 211.004 405.008 191 405ZM130.18 359.8C132.832 359.8 135.375 360.854 137.25 362.73C146.701 372.189 158.48 378.988 171.399 382.44C184.317 385.891 197.917 385.873 210.827 382.388C223.736 378.902 235.497 372.073 244.923 362.588C254.349 353.104 261.105 341.3 264.51 328.37C265.048 326.32 266.223 324.493 267.866 323.154C269.508 321.815 271.534 321.033 273.65 320.92C281.931 320.5 289.968 317.974 297.001 313.582C304.034 309.19 309.829 303.076 313.84 295.82C314.913 293.902 316.587 292.39 318.604 291.519C320.621 290.648 322.869 290.465 325 291C338.81 294.463 353.198 294.954 367.211 292.439C381.224 289.923 394.543 284.46 406.286 276.409C418.028 268.359 427.927 257.906 435.326 245.742C442.724 233.579 447.455 219.982 449.203 205.852C450.951 191.723 449.678 177.383 445.467 163.783C441.256 150.183 434.204 137.632 424.778 126.963C415.352 116.293 403.766 107.748 390.788 101.893C377.811 96.0375 363.738 93.0063 349.5 92.9996C347.93 92.9996 346.34 92.9996 344.79 93.1096C342.726 93.2071 340.681 92.6623 338.939 91.5502C337.197 90.4382 335.842 88.8134 335.06 86.8996C327.035 67.0876 313.265 50.1299 295.522 38.2077C277.78 26.2856 256.876 19.9443 235.5 19.9996C177.5 19.9996 129.33 67.1196 128.04 125C128.009 126.464 127.655 127.904 127.006 129.216C126.356 130.529 125.426 131.683 124.282 132.597C123.137 133.511 121.806 134.162 120.382 134.505C118.957 134.847 117.475 134.873 116.04 134.58C97.9711 130.839 79.1634 133.499 62.8399 142.103C46.5165 150.708 33.6935 164.721 26.5683 181.743C19.443 198.764 18.459 217.733 23.7848 235.4C29.1107 253.067 40.4149 268.332 55.7604 278.58C57.8133 279.962 59.2809 282.056 59.8793 284.457C60.4778 286.858 60.1646 289.396 59.0004 291.58C54.8648 299.275 52.796 307.912 52.996 316.646C53.1961 325.38 55.6582 333.913 60.1418 341.412C64.6254 348.91 70.9773 355.117 78.5769 359.427C86.1764 363.736 94.7639 366.001 103.5 366C111.216 366.024 118.833 364.258 125.75 360.84C127.127 360.155 128.643 359.799 130.18 359.8Z" fill="#FCFCFC"/>
<path d="M424.909 512C417.345 512.031 409.901 510.116 403.291 506.438C396.682 502.761 391.13 497.444 387.169 491C377.404 494.518 366.935 495.635 356.647 494.256C346.359 492.878 336.554 489.044 328.059 483.08C319.564 477.115 312.629 469.193 307.839 459.984C303.049 450.776 300.546 440.55 300.539 430.17C300.513 420.243 302.784 410.444 307.175 401.541C311.566 392.638 317.957 384.871 325.849 378.85C326.042 371.237 328.117 363.792 331.887 357.176C335.658 350.561 341.008 344.982 347.459 340.937C353.91 336.891 361.263 334.506 368.86 333.994C376.457 333.481 384.063 334.858 390.999 338C397.827 328.207 407.602 320.848 418.901 316.994C430.199 313.14 442.433 312.991 453.822 316.569C465.212 320.148 475.162 327.267 482.226 336.891C489.29 346.515 493.099 358.141 493.099 370.08C493.099 371.08 493.099 372.08 493.019 373.02C500.606 379.349 506.367 387.589 509.707 396.888C513.047 406.187 513.845 416.209 512.019 425.92C509.965 436.661 504.811 446.565 497.192 454.411C489.574 462.257 479.825 467.7 469.149 470.07C468.519 481.384 463.586 492.03 455.361 499.825C447.136 507.621 436.242 511.976 424.909 512ZM397.999 463L401.649 474.89C403.475 480.84 407.512 485.864 412.928 488.93C418.345 491.996 424.73 492.871 430.772 491.374C436.813 489.877 442.052 486.122 445.41 480.882C448.769 475.642 449.992 469.314 448.829 463.2L446.699 451.71L458.389 451.38C465.965 451.165 473.275 448.541 479.257 443.89C485.24 439.238 489.584 432.8 491.659 425.511C493.734 418.222 493.431 410.462 490.795 403.356C488.159 396.251 483.326 390.171 476.999 386L471.559 382.41L472.639 375.99C472.966 374.05 473.13 372.086 473.129 370.12C473.126 361.812 470.256 353.759 465.005 347.321C459.753 340.884 452.442 336.455 444.304 334.783C436.166 333.11 427.7 334.297 420.335 338.142C412.971 341.988 407.158 348.256 403.879 355.89L398.669 368L388.399 359.71C383.762 355.935 377.959 353.885 371.979 353.91C365.058 353.917 358.421 356.667 353.522 361.557C348.623 366.447 345.86 373.078 345.839 380C345.84 380.955 345.89 381.909 345.989 382.86L346.639 389.04L341.389 392.36C331.518 398.574 324.469 408.402 321.749 419.745C319.029 431.087 320.853 443.044 326.831 453.059C332.81 463.074 342.469 470.354 353.744 473.342C365.019 476.33 377.015 474.79 387.169 469.05L397.999 463Z" fill="#00D151"/>
</g>
<defs>
<clipPath id="clip0_4666_639">
<rect width="512" height="512" fill="white"/>
</clipPath>
</defs>
</svg>
