<svg width="512" height="512" viewBox="0 0 512 512" fill="none" xmlns="http://www.w3.org/2000/svg">
<path d="M214.6 122.4C215.687 122.885 216.632 123.64 217.345 124.591C218.059 125.543 218.519 126.661 218.68 127.84C218.872 129.027 218.806 130.241 218.489 131.4C218.172 132.559 217.61 133.637 216.84 134.56C216.322 135.316 215.646 135.951 214.859 136.421C214.072 136.89 213.192 137.183 212.28 137.28C210.369 137.488 208.44 137.097 206.76 136.16C203.646 134.552 200.376 133.265 197 132.32C193.457 131.343 189.796 130.859 186.12 130.88C180.511 130.807 174.941 131.826 169.72 133.88C164.98 135.784 160.698 138.674 157.16 142.36C153.606 146.095 150.856 150.52 149.08 155.36C147.158 160.694 146.209 166.331 146.28 172C146.155 178.082 147.172 184.134 149.28 189.84C151.136 194.751 153.998 199.219 157.68 202.96C161.246 206.535 165.564 209.268 170.32 210.96C175.379 212.756 180.713 213.649 186.08 213.6C189.666 213.604 193.238 213.174 196.72 212.32C200.156 211.482 203.465 210.19 206.56 208.48C208.304 207.564 210.289 207.215 212.24 207.48C213.153 207.605 214.03 207.918 214.815 208.401C215.6 208.883 216.276 209.523 216.8 210.28C217.634 211.184 218.248 212.267 218.595 213.447C218.941 214.626 219.012 215.869 218.8 217.08C218.57 218.204 218.081 219.259 217.373 220.161C216.665 221.063 215.757 221.789 214.72 222.28C211.915 223.835 208.968 225.121 205.92 226.12C202.727 227.186 199.466 228.041 196.16 228.68C192.84 229.335 189.465 229.669 186.08 229.68C178.655 229.725 171.282 228.424 164.32 225.84C157.569 223.33 151.373 219.526 146.08 214.64C140.643 209.587 136.359 203.42 133.52 196.56C130.365 188.764 128.827 180.409 129 172C128.922 164.197 130.363 156.453 133.24 149.2C135.942 142.406 140.029 136.249 145.24 131.12C150.459 126.021 156.629 121.998 163.4 119.28C170.623 116.388 178.341 114.934 186.12 115C191.183 114.987 196.225 115.633 201.12 116.92C205.83 118.162 210.36 120.004 214.6 122.4Z" fill="#00D151"/>
<path d="M338.92 172C338.985 179.728 337.629 187.402 334.92 194.64C332.385 201.433 328.554 207.669 323.64 213C318.804 218.213 312.95 222.379 306.44 225.24C299.581 228.144 292.208 229.64 284.76 229.64C277.311 229.64 269.939 228.144 263.08 225.24C256.566 222.385 250.711 218.218 245.88 213C240.97 207.695 237.163 201.468 234.68 194.68C229.453 180.039 229.453 164.041 234.68 149.4C237.158 142.586 240.965 136.331 245.88 131C250.717 125.788 256.57 121.622 263.08 118.76C273.194 114.254 284.462 113.012 295.315 115.205C306.168 117.399 316.069 122.92 323.64 131C328.546 136.322 332.376 142.543 334.92 149.32C337.633 156.571 338.989 164.259 338.92 172ZM321.64 172C321.756 164.635 320.139 157.345 316.92 150.72C313.998 144.684 309.508 139.545 303.92 135.84C298.176 132.284 291.555 130.4 284.8 130.4C278.044 130.4 271.423 132.284 265.68 135.84C260.082 139.5 255.588 144.617 252.68 150.64C249.622 157.332 248.04 164.603 248.04 171.96C248.04 179.317 249.622 186.588 252.68 193.28C255.566 199.339 260.063 204.487 265.68 208.16C271.423 211.716 278.044 213.6 284.8 213.6C291.555 213.6 298.176 211.716 303.92 208.16C309.513 204.46 314.004 199.319 316.92 193.28C320.139 186.654 321.756 179.365 321.64 172Z" fill="#00D151"/>
<path d="M396.64 245.8C397.528 245.778 398.412 245.936 399.237 246.266C400.062 246.596 400.812 247.09 401.44 247.719C402.069 248.347 402.563 249.097 402.893 249.922C403.223 250.747 403.382 251.631 403.36 252.52C403.38 253.381 403.22 254.237 402.889 255.033C402.558 255.829 402.065 256.546 401.44 257.14C400.804 257.754 400.052 258.236 399.228 258.555C398.404 258.875 397.524 259.026 396.64 259H355.84C354.93 259.047 354.021 258.9 353.173 258.569C352.325 258.238 351.557 257.73 350.92 257.08C349.697 255.739 349.051 253.972 349.12 252.16C349.115 251.181 349.304 250.211 349.674 249.305C350.045 248.399 350.591 247.575 351.28 246.88L377.44 218.88C380.211 215.934 382.566 212.623 384.44 209.04C385.968 206.359 386.852 203.36 387.02 200.28C387.184 196.726 385.933 193.252 383.54 190.62C382.344 189.393 380.903 188.433 379.311 187.802C377.718 187.172 376.011 186.884 374.3 186.96C372.681 186.982 371.085 187.35 369.62 188.04C367.942 188.81 366.386 189.82 365 191.04C363.47 192.373 362.083 193.861 360.86 195.48C360.161 196.549 359.158 197.385 357.98 197.88C357.131 198.18 356.24 198.342 355.34 198.36C353.525 198.334 351.787 197.619 350.48 196.36C349.791 195.801 349.235 195.097 348.852 194.299C348.468 193.5 348.266 192.626 348.26 191.74C348.276 190.292 348.76 188.889 349.64 187.74C350.67 186.316 351.813 184.978 353.06 183.74C355.084 181.721 357.339 179.948 359.78 178.46C362.187 176.973 364.766 175.785 367.46 174.92C369.939 174.105 372.53 173.68 375.14 173.66C379.998 173.538 384.81 174.631 389.14 176.84C393.015 178.876 396.207 182.006 398.32 185.84C400.564 190.065 401.68 194.797 401.56 199.58C401.56 203.98 400.26 208.88 397.66 214.28C394.948 219.842 391.408 224.96 387.16 229.46L371 246.88L369.68 245.8H396.64Z" fill="#00D151"/>
<path d="M412.87 106C410.586 92.135 404.941 79.0409 396.426 67.8629C387.912 56.6849 376.788 47.7633 364.029 41.8787C351.269 35.9941 337.261 33.3257 323.232 34.1068C309.202 34.888 295.577 39.0949 283.55 46.3597C265.765 25.1163 241.5 10.2972 214.48 4.17738C187.459 -1.94243 159.177 0.975387 133.975 12.4829C108.773 23.9903 88.0442 43.4514 74.9716 67.8781C61.8989 92.3049 57.2047 120.347 61.6097 147.7C42.4753 152.771 25.8401 164.632 14.8093 181.068C3.77856 197.505 -0.893904 217.394 1.66411 237.023C4.22212 256.652 13.8358 274.679 28.7106 287.74C43.5854 300.801 62.7047 308.002 82.4997 308H410C410.77 308 411.55 308 412.21 308H413.08C439.303 307.147 464.165 296.124 482.404 277.263C500.642 258.403 510.826 233.185 510.799 206.948C510.771 180.711 500.535 155.514 482.258 136.692C463.98 117.869 439.094 106.897 412.87 106.1V106ZM411.69 288C411.13 288 410.57 288 410 288H84.6197C84.3497 288 84.0797 288 83.7997 288H82.4997C66.8782 287.981 51.849 282.019 40.4626 271.324C29.0761 260.629 22.1854 246.003 21.189 230.413C20.1926 214.823 25.1652 199.438 35.0975 187.381C45.0298 175.324 59.1777 167.497 74.6697 165.49C76.0706 165.312 77.4181 164.84 78.6235 164.105C79.8288 163.369 80.8647 162.387 81.663 161.222C82.4613 160.057 83.0038 158.736 83.2549 157.347C83.5059 155.957 83.4599 154.53 83.1197 153.16C77.1495 129.087 79.7663 103.686 90.5188 81.337C101.271 58.9875 119.486 41.0906 142.021 30.7326C164.556 20.3746 189.999 18.2047 213.962 24.5972C237.926 30.9897 258.908 45.5438 273.29 65.7497C274.072 66.8459 275.068 67.7728 276.218 68.4746C277.367 69.1765 278.647 69.6389 279.98 69.834C281.312 70.0292 282.671 69.9532 283.973 69.6105C285.276 69.2678 286.496 68.6654 287.56 67.8397C297.096 60.4483 308.475 55.8124 320.462 54.4357C332.448 53.0591 344.582 54.9944 355.546 60.0312C366.509 65.0681 375.882 73.0139 382.646 83.0049C389.41 92.9958 393.305 104.65 393.91 116.7C393.974 118.029 394.304 119.331 394.878 120.532C395.453 121.732 396.261 122.805 397.256 123.689C398.25 124.573 399.411 125.249 400.671 125.679C401.93 126.108 403.262 126.282 404.59 126.19C406.37 126.06 408.19 126 410 126C431.474 126.026 452.061 134.569 467.246 149.753C482.431 164.938 490.973 185.525 491 207C491 250.71 455.46 287 411.69 288Z" fill="#FCFCFC"/>
<path d="M461.05 511H317.27C307.642 511 298.315 507.643 290.895 501.507C283.475 495.372 278.426 486.841 276.617 477.384C274.809 467.927 276.355 458.135 280.987 449.694C285.62 441.254 293.051 434.693 302 431.14C301.87 429.48 301.8 427.81 301.8 426.14C301.796 413.97 305.424 402.076 312.219 391.979C319.014 381.883 328.667 374.043 339.942 369.464C351.218 364.885 363.604 363.775 375.514 366.275C387.425 368.776 398.318 374.773 406.8 383.5C412.528 380.849 418.764 379.478 425.075 379.482C431.387 379.486 437.621 380.865 443.345 383.523C449.069 386.182 454.145 390.055 458.22 394.875C462.295 399.694 465.271 405.344 466.94 411.43C479.413 413.029 490.826 419.269 498.904 428.907C506.981 438.544 511.131 450.872 510.525 463.432C509.92 475.993 504.604 487.864 495.636 496.68C486.669 505.495 474.709 510.609 462.14 511H461.05ZM318.35 491H461.62C469.48 490.803 476.947 487.523 482.41 481.868C487.872 476.213 490.892 468.637 490.817 460.775C490.742 452.913 487.579 445.395 482.01 439.846C476.441 434.296 468.912 431.158 461.05 431.11C460.38 431.11 459.71 431.11 459.05 431.18C457.722 431.274 456.389 431.101 455.128 430.672C453.868 430.243 452.705 429.567 451.71 428.683C450.714 427.799 449.905 426.725 449.33 425.525C448.755 424.324 448.425 423.02 448.36 421.69C448.067 415.703 445.481 410.057 441.137 405.926C436.793 401.794 431.025 399.493 425.03 399.5C419.845 399.479 414.804 401.205 410.72 404.4C409.655 405.227 408.434 405.83 407.13 406.173C405.826 406.516 404.466 406.591 403.133 406.395C401.799 406.199 400.518 405.735 399.368 405.031C398.218 404.328 397.222 403.399 396.44 402.3C390.866 394.538 382.765 388.958 373.527 386.514C364.288 384.071 354.487 384.918 345.805 388.909C337.122 392.9 330.098 399.788 325.938 408.391C321.777 416.993 320.739 426.776 323 436.06C323.341 437.43 323.387 438.856 323.136 440.245C322.886 441.634 322.344 442.955 321.547 444.119C320.75 445.284 319.715 446.267 318.511 447.003C317.307 447.739 315.96 448.212 314.56 448.39C309.162 449.075 304.228 451.791 300.762 455.986C297.297 460.18 295.559 465.538 295.905 470.968C296.25 476.398 298.652 481.493 302.621 485.214C306.591 488.936 311.829 491.005 317.27 491H318.35Z" fill="#FCFCFC"/>
<path d="M208.72 448.44H97.5404H96.5404C86.3214 448.204 76.5612 444.15 69.183 437.076C61.8047 430.002 57.3435 420.421 56.6785 410.221C56.0135 400.021 59.1928 389.942 65.5901 381.969C71.9873 373.997 81.1385 368.71 91.2404 367.15C92.7463 362.434 95.2125 358.082 98.4835 354.366C101.755 350.651 105.76 347.653 110.246 345.562C114.733 343.471 119.604 342.331 124.553 342.216C129.502 342.1 134.421 343.01 139 344.89C145.997 338.122 154.831 333.565 164.401 331.787C173.971 330.01 183.853 331.09 192.813 334.894C201.773 338.698 209.414 345.056 214.783 353.175C220.151 361.295 223.009 370.816 223 380.55C223 381.36 223 382.16 222.94 382.96C230.066 386.203 235.866 391.787 239.377 398.784C242.889 405.781 243.899 413.769 242.241 421.42C240.583 429.071 236.357 435.924 230.264 440.839C224.171 445.755 216.579 448.437 208.75 448.44H208.72ZM208.22 428.44H208.72C212.346 428.435 215.834 427.052 218.477 424.57C221.12 422.089 222.721 418.695 222.954 415.077C223.186 411.458 222.034 407.887 219.731 405.087C217.428 402.287 214.145 400.469 210.55 400C209.151 399.821 207.806 399.348 206.603 398.613C205.399 397.877 204.365 396.895 203.568 395.732C202.771 394.568 202.229 393.249 201.978 391.862C201.727 390.474 201.772 389.049 202.11 387.68C203.772 380.997 203.049 373.944 200.066 367.738C197.083 361.532 192.026 356.562 185.77 353.686C179.513 350.81 172.449 350.209 165.796 351.986C159.143 353.763 153.32 357.807 149.33 363.42C148.549 364.517 147.553 365.444 146.404 366.147C145.255 366.85 143.975 367.313 142.643 367.509C141.31 367.706 139.951 367.63 138.648 367.288C137.345 366.946 136.125 366.345 135.06 365.52C132.778 363.747 130.053 362.635 127.183 362.304C124.312 361.972 121.406 362.434 118.78 363.64C116.154 364.845 113.908 366.747 112.288 369.14C110.668 371.533 109.735 374.324 109.59 377.21C109.526 378.539 109.196 379.841 108.622 381.041C108.047 382.242 107.239 383.315 106.245 384.199C105.25 385.083 104.089 385.759 102.83 386.188C101.57 386.618 100.238 386.792 98.9104 386.7C98.4604 386.7 98.0004 386.65 97.5404 386.65C94.7971 386.619 92.0745 387.128 89.5282 388.15C86.9819 389.171 84.6617 390.684 82.7001 392.602C78.7384 396.475 76.4777 401.764 76.4154 407.305C76.353 412.845 78.4942 418.183 82.3677 422.145C86.2413 426.107 91.53 428.367 97.0704 428.43H208.22V428.44Z" fill="#FCFCFC"/>
<path d="M413.08 307.94C412.721 307.981 412.361 308.001 412 308H410C410.77 308 411.55 308 412.21 308L413.08 307.94Z" fill="#FCFCFC"/>
</svg>
