<svg width="59" height="64" viewBox="0 0 59 64" fill="none" xmlns="http://www.w3.org/2000/svg">
<path fill-rule="evenodd" clip-rule="evenodd" d="M0.967391 39.4736C0.850468 39.0375 1.11139 38.5854 1.54749 38.4689L8.28431 36.6638C8.72042 36.5468 9.17211 36.8078 9.28903 37.2439C9.40596 37.68 9.14503 38.1321 8.70893 38.2486L1.97211 40.0537C1.53601 40.1706 1.0839 39.9097 0.967391 39.4736Z" fill="#282828"/>
<path fill-rule="evenodd" clip-rule="evenodd" d="M48.9674 37.2439C49.0843 36.8078 49.536 36.5468 49.9721 36.6638L56.7089 38.4689C57.145 38.5854 57.406 39.0375 57.289 39.4736C57.1721 39.9097 56.7204 40.1706 56.2843 40.0537L49.5475 38.2486C49.1114 38.1321 48.8505 37.68 48.9674 37.2439Z" fill="#282828"/>
<path fill-rule="evenodd" clip-rule="evenodd" d="M0.972762 24.8336C1.08927 24.3975 1.54138 24.1366 1.97748 24.2535L8.7143 26.0587C9.1504 26.1756 9.41133 26.6273 9.2944 27.0634C9.17748 27.4995 8.72579 27.7604 8.28968 27.6439L1.55286 25.8383C1.11676 25.7218 0.855839 25.2697 0.972762 24.8336Z" fill="#282828"/>
<path fill-rule="evenodd" clip-rule="evenodd" d="M48.962 27.0634C48.8451 26.6273 49.106 26.1756 49.5421 26.0587L56.2789 24.2535C56.715 24.1366 57.1667 24.3975 57.2837 24.8336C57.4006 25.2697 57.1397 25.7218 56.7036 25.8383L49.9667 27.6439C49.5306 27.7604 49.0785 27.4995 48.962 27.0634Z" fill="#282828"/>
<path fill-rule="evenodd" clip-rule="evenodd" d="M5.10653 53.6406C4.81648 53.2948 4.86202 52.775 5.20745 52.4849L10.5502 48.0016C10.8961 47.7116 11.4163 47.7571 11.7063 48.1026C11.9964 48.448 11.9508 48.9686 11.6054 49.2587L6.26222 53.742C5.91679 54.032 5.39658 53.9865 5.10653 53.6406Z" fill="#282828"/>
<path fill-rule="evenodd" clip-rule="evenodd" d="M46.5501 48.1028C46.8402 47.7574 47.3604 47.7114 47.7058 48.0015L53.049 52.4849C53.3944 52.7749 53.44 53.2948 53.1499 53.6406C52.8599 53.9865 52.3397 54.032 51.9942 53.7419L46.6511 49.2585C46.3056 48.9685 46.2601 48.4483 46.5501 48.1028Z" fill="#282828"/>
<path fill-rule="evenodd" clip-rule="evenodd" d="M5.10653 10.359C5.39658 10.0131 5.91679 9.96798 6.26222 10.258L11.6054 14.7409C11.9508 15.0314 11.9964 15.5512 11.7063 15.897C11.4163 16.2429 10.8961 16.2884 10.5502 15.9983L5.20745 11.5151C4.86202 11.225 4.81648 10.7048 5.10653 10.359Z" fill="#282828"/>
<path fill-rule="evenodd" clip-rule="evenodd" d="M46.5501 15.897C46.2601 15.5512 46.3056 15.031 46.6511 14.7409L51.9942 10.258C52.3397 9.96798 52.8599 10.0131 53.1499 10.359C53.44 10.7048 53.3944 11.225 53.049 11.5151L47.7058 15.9979C47.3604 16.2884 46.8402 16.2429 46.5501 15.897Z" fill="#282828"/>
<path fill-rule="evenodd" clip-rule="evenodd" d="M20.7695 6.15383C20.7695 4.92422 21.7707 3.92307 23.0003 3.92307H34.8977C36.1267 3.92307 37.1285 4.924 37.1285 6.15383V34.9348L28.9176 20.7176L22.8113 31.2943L20.7695 34.8341V6.15383ZM22.7695 27.3666L27.9454 18.4015L29.8858 18.3944L35.1285 27.4754V6.15383C35.1285 6.029 35.0226 5.92307 34.8977 5.92307H23.0003C22.8753 5.92307 22.7695 6.02879 22.7695 6.15383V27.3666ZM20.7695 41.8718H37.1285V53.3333C37.1285 54.5625 36.1269 55.5641 34.8977 55.5641H23.0003C21.7705 55.5641 20.7695 54.5623 20.7695 53.3333V41.8718ZM22.7695 43.8718V53.3333C22.7695 53.4582 22.8755 53.5641 23.0003 53.5641H34.8977C35.0224 53.5641 35.1285 53.458 35.1285 53.3333V43.8718H22.7695Z" fill="#282828"/>
<path fill-rule="evenodd" clip-rule="evenodd" d="M23.6409 56.6154C23.6409 55.8357 24.2745 55.2051 25.0515 55.2051H32.8464C33.6237 55.2051 34.2567 55.8364 34.2567 56.6154C34.2567 57.3933 33.6243 58.0256 32.8464 58.0256H25.0515C24.2738 58.0256 23.6409 57.3939 23.6409 56.6154Z" fill="#282828"/>
<path fill-rule="evenodd" clip-rule="evenodd" d="M24.6411 15.9315V7.58972H26.6411V15.9315H24.6411Z" fill="#282828"/>
<path fill-rule="evenodd" clip-rule="evenodd" d="M26.2817 15.9315V7.58972H28.2817V15.9315H26.2817Z" fill="#282828"/>
<path fill-rule="evenodd" clip-rule="evenodd" d="M27.9226 15.9315V7.58972H29.9226V15.9315H27.9226Z" fill="#282828"/>
<path fill-rule="evenodd" clip-rule="evenodd" d="M29.5637 15.9315V7.58972H31.5637V15.9315H29.5637Z" fill="#282828"/>
<path fill-rule="evenodd" clip-rule="evenodd" d="M31.2048 15.9315V7.58972H33.2048V15.9315H31.2048Z" fill="#282828"/>
<path d="M23.8806 47.3846H25.3132V50.5145C25.3132 50.9502 25.3674 51.232 25.4769 51.3625C25.5865 51.4917 25.8105 51.5569 26.1489 51.5569H26.4123C26.7483 51.5569 26.9698 51.4929 27.0782 51.3662C27.1865 51.2382 27.2406 50.9551 27.2406 50.5145V47.3846H28.6732V50.6265C28.6732 51.1077 28.6437 51.4609 28.5846 51.6874C28.5255 51.9126 28.4258 52.1095 28.2843 52.2745C28.1157 52.4702 27.9052 52.6092 27.6542 52.6929C27.4031 52.7778 27.0634 52.8197 26.6351 52.8197H25.9262C25.4978 52.8197 25.1582 52.7778 24.9071 52.6929C24.656 52.6092 24.4468 52.4702 24.2806 52.2745C24.1366 52.1071 24.0345 51.9077 23.9729 51.6775C23.9114 51.4486 23.8806 51.0978 23.8806 50.6265V47.3846ZM29.2775 47.3846H30.8062L31.8474 51.5778L32.9403 47.3846H34.4615L32.9329 52.7532H30.7557L29.2775 47.3846Z" fill="#282828"/>
<path fill-rule="evenodd" clip-rule="evenodd" d="M20.5386 58.8718C20.5386 58.208 21.0769 57.6667 21.7437 57.6667H36.1027C36.7678 57.6667 37.3078 58.2067 37.3078 58.8718C37.3078 59.5369 36.7678 60.0769 36.1027 60.0769H21.7437C21.0769 60.0769 20.5386 59.5356 20.5386 58.8718Z" fill="#282828"/>
<path fill-rule="evenodd" clip-rule="evenodd" d="M29.8856 18.3944L36.756 30.2946L43.5564 42.073L42.7046 43.8718H15.1811L14.2886 42.0561L27.9452 18.4015L29.8856 18.3944ZM28.9174 20.7176L22.811 31.2946L16.7044 41.8718H41.1308L35.0239 31.2947L28.9174 20.7176Z" fill="#282828"/>
<path d="M28.6268 36.2219L28.1025 30.8484V28.3647H30.2884V30.8484L29.7715 36.2219H28.6268ZM28.1912 38.9395V36.9161H30.2145V38.9395H28.1912Z" fill="#282828"/>
</svg>
