<svg width="59" height="64" viewBox="0 0 59 64" fill="none" xmlns="http://www.w3.org/2000/svg">
<g clip-path="url(#clip0_6344_14347)">
<path fill-rule="evenodd" clip-rule="evenodd" d="M0.0279377 39.4737C-0.0889853 39.0375 0.171938 38.5854 0.60804 38.4689L7.34486 36.6638C7.78096 36.5469 8.23266 36.8078 8.34958 37.2439C8.4665 37.68 8.20558 38.1321 7.76948 38.2486L1.03266 40.0538C0.596553 40.1707 0.144451 39.9098 0.0279377 39.4737Z" fill="#FCFCFC"/>
<path fill-rule="evenodd" clip-rule="evenodd" d="M0.0333088 24.8336C0.149822 24.3975 0.601924 24.1366 1.03803 24.2535L7.77485 26.0587C8.21095 26.1756 8.47187 26.6273 8.35495 27.0634C8.23803 27.4995 7.78633 27.7604 7.35023 27.6439L0.613411 25.8383C0.177309 25.7218 -0.0836142 25.2697 0.0333088 24.8336Z" fill="#FCFCFC"/>
<path fill-rule="evenodd" clip-rule="evenodd" d="M4.16708 53.6406C3.87703 53.2948 3.92257 52.775 4.268 52.485L9.61077 48.0017C9.95662 47.7116 10.4768 47.7572 10.7669 48.1026C11.0569 48.448 11.0114 48.9686 10.6659 49.2587L5.32277 53.742C4.97733 54.032 4.45713 53.9865 4.16708 53.6406Z" fill="#FCFCFC"/>
<path fill-rule="evenodd" clip-rule="evenodd" d="M4.16708 10.359C4.45713 10.0131 4.97733 9.96798 5.32277 10.258L10.6659 14.7409C11.0114 15.0314 11.0569 15.5512 10.7669 15.897C10.4768 16.2429 9.95662 16.2884 9.61077 15.9983L4.268 11.5151C3.92257 11.225 3.87703 10.7048 4.16708 10.359Z" fill="#FCFCFC"/>
<path fill-rule="evenodd" clip-rule="evenodd" d="M50.317 37.2439C50.4339 36.8078 50.8856 36.5469 51.3217 36.6638L58.0585 38.4689C58.4946 38.5854 58.7556 39.0375 58.6386 39.4737C58.5217 39.9098 58.07 40.1707 57.6339 40.0538L50.8971 38.2486C50.461 38.1321 50.2001 37.68 50.317 37.2439Z" fill="#FCFCFC"/>
<path fill-rule="evenodd" clip-rule="evenodd" d="M50.3116 27.0634C50.1947 26.6273 50.4556 26.1756 50.8917 26.0587L57.6285 24.2535C58.0647 24.1366 58.5163 24.3975 58.6333 24.8336C58.7502 25.2697 58.4893 25.7218 58.0532 25.8383L51.3163 27.6439C50.8802 27.7604 50.4281 27.4995 50.3116 27.0634Z" fill="#FCFCFC"/>
<path fill-rule="evenodd" clip-rule="evenodd" d="M47.8997 48.1028C48.1898 47.7574 48.71 47.7114 49.0554 48.0015L54.3986 52.4849C54.7441 52.775 54.7896 53.2948 54.4995 53.6406C54.2095 53.9865 53.6893 54.032 53.3438 53.742L48.0007 49.2586C47.6552 48.9685 47.6097 48.4483 47.8997 48.1028Z" fill="#FCFCFC"/>
<path fill-rule="evenodd" clip-rule="evenodd" d="M47.8997 15.897C47.6097 15.5512 47.6552 15.031 48.0007 14.7409L53.3438 10.258C53.6893 9.96798 54.2095 10.0131 54.4995 10.359C54.7896 10.7048 54.7441 11.225 54.3986 11.5151L49.0554 15.9979C48.71 16.2884 48.1898 16.2429 47.8997 15.897Z" fill="#FCFCFC"/>
<path fill-rule="evenodd" clip-rule="evenodd" d="M19.8359 6.46556C19.8359 5.06413 20.977 3.9231 22.3784 3.9231H35.9382C37.3389 3.9231 38.4807 5.06389 38.4807 6.46556V39.268L29.1226 23.0642L22.163 35.1188L19.8359 39.1532V6.46556ZM22.1154 30.6424L28.0145 20.4245L30.226 20.4164L36.2012 30.7663V6.46556C36.2012 6.32329 36.0805 6.20255 35.9382 6.20255H22.3784C22.2359 6.20255 22.1154 6.32304 22.1154 6.46556V30.6424ZM19.8359 47.1742H38.4807V60.2373C38.4807 61.6382 37.3392 62.7797 35.9382 62.7797H22.3784C20.9767 62.7797 19.8359 61.638 19.8359 60.2373V47.1742ZM22.1154 49.4537V60.2373C22.1154 60.3796 22.2361 60.5003 22.3784 60.5003H35.9382C36.0803 60.5003 36.2012 60.3793 36.2012 60.2373V49.4537H22.1154Z" fill="#FCFCFC"/>
<path fill-rule="evenodd" clip-rule="evenodd" d="M23.1084 63.9779C23.1084 63.0893 23.8306 62.3706 24.7162 62.3706H33.6002C34.4861 62.3706 35.2075 63.0901 35.2075 63.9779C35.2075 64.8645 34.4868 65.5852 33.6002 65.5852H24.7162C23.8298 65.5852 23.1084 64.8653 23.1084 63.9779Z" fill="#FCFCFC"/>
<path fill-rule="evenodd" clip-rule="evenodd" d="M24.2485 17.6094V8.10205H26.528V17.6094H24.2485Z" fill="#FCFCFC"/>
<path fill-rule="evenodd" clip-rule="evenodd" d="M26.1184 17.6094V8.10205H28.3979V17.6094H26.1184Z" fill="#FCFCFC"/>
<path fill-rule="evenodd" clip-rule="evenodd" d="M27.9885 17.6094V8.10205H30.268V17.6094H27.9885Z" fill="#FCFCFC"/>
<path fill-rule="evenodd" clip-rule="evenodd" d="M29.8589 17.6094V8.10205H32.1383V17.6094H29.8589Z" fill="#FCFCFC"/>
<path fill-rule="evenodd" clip-rule="evenodd" d="M31.7292 17.6094V8.10205H34.0087V17.6094H31.7292Z" fill="#FCFCFC"/>
<path d="M23.3818 53.4573H25.0146V57.0245C25.0146 57.5211 25.0763 57.8423 25.2012 57.991C25.326 58.1383 25.5813 58.2126 25.9671 58.2126H26.2673C26.6502 58.2126 26.9027 58.1397 27.0262 57.9952C27.1496 57.8493 27.2113 57.5267 27.2113 57.0245V53.4573H28.8441V57.1522C28.8441 57.7006 28.8104 58.1032 28.7431 58.3613C28.6758 58.618 28.5622 58.8425 28.4008 59.0304C28.2087 59.2535 27.9688 59.412 27.6826 59.5073C27.3965 59.6041 27.0093 59.6518 26.5212 59.6518H25.7132C25.225 59.6518 24.8379 59.6041 24.5517 59.5073C24.2656 59.412 24.0271 59.2535 23.8377 59.0304C23.6736 58.8396 23.5572 58.6124 23.487 58.3501C23.4169 58.0892 23.3818 57.6894 23.3818 57.1522V53.4573ZM29.5328 53.4573H31.2751L32.4618 58.2365L33.7074 53.4573H35.4412L33.699 59.5761H31.2175L29.5328 53.4573Z" fill="#FCFCFC"/>
<path fill-rule="evenodd" clip-rule="evenodd" d="M30.2258 20.4164L38.0561 33.9795L45.8068 47.4036L44.8359 49.4537H13.4667L12.4495 47.3843L28.0143 20.4245L30.2258 20.4164ZM29.1224 23.0642L22.1627 35.1192L15.2028 47.1742H43.0422L36.0821 35.1192L29.1224 23.0642Z" fill="#FCFCFC"/>
<path d="M28.7912 40.735L28.1936 34.6106V31.7799H30.6849V34.6106L30.0957 40.735H28.7912ZM28.2946 43.8322V41.5261H30.6007V43.8322H28.2946Z" fill="#FCFCFC"/>
</g>
<defs>
<clipPath id="clip0_6344_14347">
<rect width="58.6667" height="64" fill="white"/>
</clipPath>
</defs>
</svg>
