<svg width="24" height="24" viewBox="0 0 24 24" fill="none" xmlns="http://www.w3.org/2000/svg">
<path d="M12.5148 10.9964C12.154 10.9964 11.8416 11.1416 11.6084 11.3924C11.3708 11.6388 11.2256 11.9908 11.2256 12.3736C11.2256 12.7564 11.3708 13.1084 11.6084 13.3504C11.846 13.6012 12.1584 13.7552 12.5148 13.7552C12.8492 13.7552 13.166 13.6056 13.3992 13.3504C13.628 13.1084 13.782 12.7564 13.782 12.3736C13.782 11.9908 13.6324 11.6388 13.3992 11.3924C13.166 11.1416 12.8536 10.9964 12.5148 10.9964Z" fill="black"/>
<path d="M18.6616 8H5.3428C2.9536 8 1 9.9536 1 12.3428C1 14.732 2.9536 16.6856 5.3428 16.6856H18.6572C21.0464 16.6856 23 14.732 23 12.3428C23.0044 9.9536 21.0508 8 18.6616 8ZM5.3472 16.096C3.2616 16.096 1.572 14.4064 1.572 12.3208C1.572 10.2352 3.2616 8.5456 5.3472 8.5456C7.4328 8.5456 9.1224 10.2352 9.1224 12.3208C9.1224 14.4064 7.4328 16.096 5.3472 16.096ZM13.8568 13.7948C13.5268 14.16 13.034 14.3932 12.5148 14.3932C11.978 14.3932 11.4808 14.1556 11.142 13.7948C10.7944 13.4296 10.5876 12.9324 10.5876 12.378C10.5876 11.8236 10.7944 11.3308 11.142 10.9612C11.4852 10.5916 11.978 10.3628 12.5148 10.3628C13.0296 10.3628 13.5224 10.5916 13.8568 10.9612C14.2044 11.3308 14.4244 11.8236 14.4244 12.378C14.4244 12.9324 14.2044 13.4296 13.8568 13.7948ZM17.3284 11.0932H15.8104V12.1184H17.1172C17.2844 12.1184 17.4252 12.2636 17.4252 12.4264C17.4252 12.6024 17.2844 12.7388 17.1172 12.7388H15.8104V14.0852C15.8104 14.2524 15.6696 14.3932 15.498 14.3932C15.3264 14.3932 15.19 14.2524 15.19 14.0852V10.7764C15.19 10.6092 15.3264 10.4684 15.498 10.4684H15.5024C15.5024 10.4684 15.5024 10.4684 15.5156 10.4684H17.3284C17.4912 10.4684 17.6364 10.6092 17.6364 10.7764C17.6364 10.9524 17.4912 11.0932 17.3284 11.0932ZM20.338 11.0932H18.82V12.1184H20.1268C20.294 12.1184 20.4348 12.2636 20.4348 12.4264C20.4348 12.6024 20.294 12.7388 20.1268 12.7388H18.82V14.0852C18.82 14.2524 18.6792 14.3932 18.5076 14.3932C18.336 14.3932 18.1996 14.2524 18.1996 14.0852V10.7764C18.1996 10.6092 18.336 10.4684 18.5076 10.4684H18.512C18.512 10.4684 18.512 10.4684 18.5252 10.4684H20.3424C20.5052 10.4684 20.6504 10.6092 20.6504 10.7764C20.646 10.9524 20.5008 11.0932 20.338 11.0932Z" fill="black"/>
<line x1="5.34501" y1="12.345" x2="5.34501" y2="9.93501" stroke="black" stroke-width="0.59" stroke-linecap="round"/>
<line x1="5.33504" y1="12.345" x2="7.74504" y2="12.345" stroke="black" stroke-width="0.59" stroke-linecap="round"/>
</svg>
