<svg width="24" height="24" viewBox="0 0 24 24" fill="none" xmlns="http://www.w3.org/2000/svg">
<path fill-rule="evenodd" clip-rule="evenodd" d="M11.988 16.6841C9.76164 16.6842 7.53528 16.6793 5.309 16.6857C3.2694 16.6914 1.42469 15.1804 1.07238 13.1148C0.827101 11.6769 1.20503 10.4086 2.20884 9.34305C2.93702 8.57007 3.84174 8.13677 4.89942 8.01977C5.04841 8.00328 5.19683 8.00059 5.34577 8.00057C9.78387 8.00016 14.222 7.99967 18.6601 8.00062C19.8418 8.0009 20.8583 8.42277 21.6993 9.24182C22.4438 9.96691 22.8782 10.8561 22.977 11.8937C23.1031 13.2183 22.7107 14.374 21.7943 15.3432C21.0889 16.0893 20.2153 16.5154 19.2 16.656C19.0418 16.6779 18.8819 16.685 18.7215 16.6849C16.477 16.6836 14.2325 16.684 11.988 16.6841ZM7.42959 8.56002C8.84375 9.43552 9.64128 10.6626 9.65692 12.3223C9.67254 13.9838 8.89837 15.2284 7.50605 16.1244C7.53976 16.1244 7.56141 16.1244 7.58307 16.1244C11.2711 16.1244 14.9592 16.1251 18.6473 16.1228C18.8905 16.1226 19.1336 16.0996 19.3731 16.0512C21.5146 15.6183 22.8424 13.5373 22.3187 11.421C21.924 9.82571 20.4829 8.56328 18.6237 8.56125C14.932 8.5572 11.2402 8.56005 7.54851 8.56005C7.51596 8.56002 7.48336 8.56002 7.42959 8.56002ZM1.58635 12.3651C1.60695 14.4324 3.23101 16.1166 5.35373 16.1174C7.44089 16.1181 9.09491 14.4436 9.09758 12.368C9.10025 10.2941 7.44459 8.60266 5.32912 8.60907C3.24967 8.6154 1.60549 10.2834 1.58635 12.3651Z" fill="#B4B7BA"/>
<path d="M15.7884 11.0888H17.3064C17.4692 11.0888 17.6144 10.948 17.6144 10.772C17.6144 10.6048 17.4692 10.464 17.3064 10.464H15.4936H15.4804H15.476C15.3044 10.464 15.168 10.6048 15.168 10.772V14.0808C15.168 14.248 15.3044 14.3888 15.476 14.3888C15.6476 14.3888 15.7884 14.248 15.7884 14.0808V12.7344H17.0952C17.2624 12.7344 17.4032 12.598 17.4032 12.422C17.4032 12.2592 17.2624 12.114 17.0952 12.114H15.7884V11.0888Z" fill="#B4B7BA"/>
<path fill-rule="evenodd" clip-rule="evenodd" d="M12.5149 14.3787C11.5472 14.3701 10.749 13.6917 10.5878 12.7469C10.4447 11.9078 10.6829 11.1877 11.3708 10.6706C12.2449 10.0136 13.3979 10.2261 14.0355 11.1297C14.7577 12.1532 14.4292 13.5778 13.3291 14.1752C13.0667 14.3177 12.7827 14.391 12.5149 14.3787ZM13.7492 12.3419C13.7497 12.0038 13.6341 11.6805 13.4182 11.4164C13.0177 10.926 12.3345 10.825 11.8105 11.1786C11.1848 11.6009 11.0199 12.5371 11.4686 13.1545C11.7653 13.5627 12.1636 13.7782 12.6739 13.6923C13.302 13.5865 13.7483 13.0099 13.7492 12.3419Z" fill="#B4B7BA"/>
<path d="M18.8244 11.0888H20.3424C20.5052 11.0888 20.6504 10.948 20.6504 10.772C20.6504 10.6048 20.5052 10.464 20.3424 10.464H18.5296H18.5164H18.512C18.3404 10.464 18.204 10.6048 18.204 10.772V14.0808C18.204 14.248 18.3404 14.3888 18.512 14.3888C18.6836 14.3888 18.8244 14.248 18.8244 14.0808V12.7344H20.1312C20.2984 12.7344 20.4392 12.598 20.4392 12.422C20.4392 12.2592 20.2984 12.114 20.1312 12.114H18.8244V11.0888Z" fill="#B4B7BA"/>
<line x1="5.34501" y1="12.345" x2="5.34501" y2="9.93501" stroke="#B4B7BA" stroke-width="0.59" stroke-linecap="round"/>
<line x1="5.33504" y1="12.345" x2="7.74504" y2="12.345" stroke="#B4B7BA" stroke-width="0.59" stroke-linecap="round"/>
</svg>
