<svg width="32" height="32" viewBox="0 0 32 32" fill="none" xmlns="http://www.w3.org/2000/svg">
<circle cx="16" cy="16" r="16" fill="#EB3A28" fill-opacity="0.4"/>
<circle cx="16" cy="16" r="12" fill="#EB3A28"/>
<path d="M18.1015 24.9918C17.959 24.9918 17.8248 24.9582 17.7158 24.8912C17.3384 24.648 15.4599 23.3481 15.116 21.3689C14.9316 20.2703 15.2418 19.1801 16.0469 18.1402C18.3867 15.1128 18.6467 14.2323 18.655 14.1987C18.6886 13.9639 18.8479 13.7962 19.0743 13.7207C19.3008 13.6452 19.5356 13.7207 19.7117 13.8884C21.6238 15.7418 22.4959 17.6538 22.2947 19.5743C21.976 22.5849 19.0576 24.5557 18.4789 24.9163C18.3783 24.9582 18.2357 24.9918 18.1015 24.9918ZM19.4601 15.4231C19.0743 16.1024 18.3699 17.1926 17.0449 18.895C16.4495 19.6581 16.2314 20.3961 16.3572 21.1425C16.5585 22.3082 17.5816 23.2223 18.1099 23.6164C18.9402 23.0378 20.8187 21.5115 21.0367 19.4066C21.1793 18.1151 20.651 16.7817 19.4601 15.4231Z" fill="white"/>
<path d="M14.3442 25C14.1262 25 13.9081 24.9413 13.7488 24.8994C11.8954 24.371 10.2182 22.677 9.56408 20.6895C8.89318 18.6516 9.3041 16.5215 10.7298 14.6849C13.3295 11.2801 14.1933 8.53784 14.3945 7.78308C14.4868 7.42247 14.7551 7.14573 15.1241 7.03671C15.5015 6.93607 15.9124 7.04509 16.1976 7.33022C16.2227 7.347 16.2395 7.37216 16.2563 7.39731C17.0446 8.45398 17.8916 10.3409 17.8916 12.471C17.8916 13.9302 16.8685 15.2552 15.8789 16.5299C14.8306 17.8885 13.7488 19.289 13.8662 20.8069C13.9752 21.9306 14.4616 22.786 14.7887 23.3563C15.0654 23.8343 15.3254 24.2872 14.9983 24.7149C14.8222 24.9329 14.5874 25 14.3442 25ZM15.4931 8.5043C15.1074 9.77062 14.101 12.3368 11.7277 15.4565C10.2434 17.3769 10.3859 19.1548 10.7633 20.3037C11.2078 21.6539 12.2141 22.828 13.3882 23.415C13.0695 22.7944 12.7173 21.9558 12.6167 20.9159C12.4657 18.9032 13.7488 17.2344 14.8893 15.7584C15.7867 14.5927 16.6337 13.4941 16.6337 12.4626C16.6337 10.8692 16.0634 9.41001 15.4931 8.5043Z" fill="white"/>
</svg>
