<svg width="512" height="512" viewBox="0 0 512 512" fill="none" xmlns="http://www.w3.org/2000/svg">
<path d="M105.31 185.7V366.98L102.39 368.32C94.8201 371.79 89.0601 377.99 86.1601 385.8C83.2601 393.6 83.5801 402.07 87.0401 409.63C90.5001 417.19 96.7101 422.96 104.52 425.86C112.32 428.76 120.79 428.44 128.35 424.98C143.97 417.82 150.85 399.29 143.69 383.67C140.58 376.88 135.13 371.44 128.35 368.33L125.43 366.99V185.69C125.43 180.15 120.91 175.64 115.36 175.63C109.82 175.63 105.3 180.15 105.3 185.7H105.31Z" fill="#B4B7BA"/>
<path d="M115.38 35C86.61 35.03 63.17 58.47 63.14 87.26V335.49L61.47 336.98C44.49 352.12 34.85 373.85 35.01 396.59C35.2 413.92 40.82 430.38 51.27 444.18L51.77 444.83C67.06 464.93 90.23 476.46 115.39 476.5C140.87 476.46 164.23 464.7 179.47 444.22C189.95 430.39 195.57 413.92 195.76 396.58C195.91 373.87 186.27 352.15 169.31 337.02L167.64 335.53V87.28C167.62 58.49 144.18 35.04 115.38 35ZM124.99 57.1C137.88 61.11 147.21 72.96 147.49 87.16V340.38C147.49 343.53 149 346.54 151.51 348.44C178.08 368.35 183.49 406.19 163.57 432.77C152.26 447.86 134.24 456.88 115.37 456.88C82.15 456.86 55.14 429.82 55.15 396.6C55.15 377.75 64.16 359.73 79.24 348.42C81.73 346.54 83.23 343.53 83.24 340.4V87.25C83.51 73.01 92.96 61.11 105.8 57.1C105.8 57.1 114.94 54.12 125 57.1H124.99Z" fill="#B4B7BA"/>
<path d="M340.37 105.31C303.8 105.31 274.05 135.06 274.05 171.63C274.05 208.2 303.8 237.95 340.37 237.95C376.94 237.95 406.69 208.2 406.69 171.63C406.65 135.1 376.9 105.35 340.37 105.31ZM386.56 171.63C386.54 197.08 365.82 217.79 340.37 217.81C314.9 217.81 294.18 197.09 294.18 171.62C294.18 146.15 314.9 125.43 340.37 125.43C365.84 125.43 386.56 146.15 386.56 171.62V171.63Z" fill="#B4B7BA"/>
<path d="M330.31 45.07V63.45C330.39 66.12 331.5 68.6 333.44 70.43C335.39 72.28 337.94 73.26 340.63 73.19C345.97 73.05 350.27 68.78 350.44 63.44V45.05C350.44 39.51 345.91 34.99 340.37 34.99C334.84 34.99 330.32 39.51 330.31 45.06V45.07Z" fill="#B4B7BA"/>
<path d="M330.31 279.74V298.12C330.39 300.79 331.5 303.27 333.44 305.1C335.39 306.95 337.94 307.95 340.63 307.87C345.97 307.73 350.27 303.45 350.44 298.12V279.73C350.44 274.19 345.92 269.68 340.37 269.67C334.83 269.67 330.31 274.19 330.31 279.74Z" fill="#B4B7BA"/>
<path d="M241.95 171.37C241.81 166.03 237.54 161.73 232.2 161.56H213.88C208.36 161.73 203.99 166.35 204.13 171.88C204.27 177.22 208.55 181.52 213.88 181.69H232.2C237.72 181.52 242.09 176.9 241.95 171.37Z" fill="#B4B7BA"/>
<path d="M476.62 171.37C476.48 166.03 472.21 161.73 466.87 161.56H448.55C443.03 161.73 438.66 166.35 438.8 171.88C438.94 177.22 443.22 181.52 448.55 181.69H466.87C472.39 181.52 476.76 176.9 476.62 171.37Z" fill="#B4B7BA"/>
<path d="M257.99 75.0101C256.22 73.2401 253.82 72.1901 251.33 72.0801H250.87C248.18 72.0801 245.66 73.1301 243.76 75.0301C241.86 76.9301 240.81 79.4601 240.81 82.1401C240.81 84.8301 241.86 87.3501 243.76 89.2601L256.53 102.04C260.45 105.96 266.83 105.96 270.76 102.04C274.69 98.1201 274.68 91.7301 270.76 87.8101L257.99 75.0201V75.0101Z" fill="#B4B7BA"/>
<path d="M417.11 238.29H416.59C411.27 238.54 407.01 242.95 407.01 248.33C407.01 250.99 408.08 253.58 409.96 255.46L422.75 268.25C426.65 272.18 432.99 272.21 436.91 268.33C437.87 267.37 438.62 266.25 439.14 264.99C440.77 261.17 439.93 256.91 437.02 254.06L424.19 241.23C422.33 239.36 419.75 238.29 417.11 238.29Z" fill="#B4B7BA"/>
<path d="M270.79 255.46C274.71 251.54 274.71 245.16 270.79 241.24C268.89 239.34 266.36 238.29 263.68 238.29H262.87C260.5 238.48 258.24 239.52 256.55 241.21L243.75 254.01C239.83 257.93 239.83 264.32 243.75 268.24C247.67 272.16 254.06 272.16 257.98 268.24L270.8 255.46H270.79Z" fill="#B4B7BA"/>
<path d="M429.87 72.0901H429.37C426.89 72.2001 424.49 73.2501 422.73 75.0201L409.97 87.8001C406.05 91.7301 406.05 98.1301 409.99 102.05C411.89 103.94 414.41 104.99 417.09 104.99H417.11C419.75 104.99 422.33 103.92 424.19 102.05L436.99 89.2501C438.89 87.3501 439.94 84.8201 439.94 82.1401C439.94 79.4501 438.89 76.9301 436.99 75.0301C435.09 73.1301 432.56 72.0801 429.88 72.0801L429.87 72.0901Z" fill="#B4B7BA"/>
</svg>
