<?xml version="1.0" encoding="UTF-8"?>
<svg height="600" width="800" xmlns="http://www.w3.org/2000/svg" xmlns:xlink="http://www.w3.org/1999/xlink">
    <g id="Notes" font-family="'LucidaGrande', 'Lucida Grande', sans-serif" font-size="13">
        <rect fill="white" height="600.0" width="800.0" x="0.0" y="0.0" />
        <g font-size="13">
            <text x="18.0" y="176.0">Small</text>
            <text x="18.0" y="376.0">Medium</text>
            <text x="18.0" y="576.0">Large</text>
        </g>
        <g font-size="9">
            <text x="250.0" y="30.0">Ultralight</text>
            <text x="450.0" y="30.0">Regular</text>
            <text x="650.0" y="30.0">Black</text>
            <text id="template-version" fill="#505050" text-anchor="end" x="785.0" y="575.0">Template v.3.0</text>
            <a href="https://github.com/swhitty/SwiftDraw">
                <text fill="#505050" text-anchor="end" x="785.0" y="590.0">https://github.com/swhitty/SwiftDraw</text>
            </a>
        </g>
    </g>
    <g id="Guides" stroke="rgb(39, 170, 225)" stroke-width="0.5">
        <path id="Capline-S" d="M18,76 l800,0" />
        <path id="H-reference" d="M85,145.755 L87.685,145.755 L113.369,79.287 L114.052,79.287 L114.052,76 L112.148,76 L85,145.755 Z M95.693,121.536 L130.996,121.536 L130.263,119.313 L96.474,119.313 L95.693,121.536 Z M139.15,145.755 L141.787,145.755 L114.638,76 L113.466,76 L113.466,79.287 L139.15,145.755 Z" stroke="none" />
        <path id="Baseline-S" d="M18,146 l800,0" />
        <path id="left-margin-Ultralight-S" d="M220.132,56 l0,110" />
        <path id="right-margin-Ultralight-S" d="M309.868,56 l0,110" />
        <path id="left-margin-Regular-S" d="M420.132,56 l0,110" />
        <path id="right-margin-Regular-S" d="M509.868,56 l0,110" />
        <path id="left-margin-Black-S" d="M620.132,56 l0,110" />
        <path id="right-margin-Black-S" d="M709.868,56 l0,110" />
        <path id="Capline-M" d="M18,276 l800,0" />
        <path id="Baseline-M" d="M18,346 l800,0" />
        <path id="Capline-L" d="M18,476 l800,0" />
        <path id="Baseline-L" d="M18,546 l800,0" />
    </g>
    <g id="Symbols">
        <g id="Ultralight-S">
            <path d="M236.826,83.532 C236.826,82.453 237.701,81.579 238.779,81.579 L246.589,81.579 C247.668,81.579 248.542,82.453 248.542,83.532 L248.542,144.046 C248.542,145.317 247.348,146.249 246.116,145.941 L238.305,143.988 C237.436,143.771 236.826,142.99 236.826,142.094 L236.826,83.532 Z M239.616,84.368 L239.616,141.44 L245.753,142.975 L245.753,84.368 L239.616,84.368 Z" />
            <path d="M245.753,83.532 C245.753,82.453 246.627,81.579 247.705,81.579 L255.516,81.579 C256.594,81.579 257.468,82.453 257.468,83.532 L257.468,144.046 C257.468,145.317 256.275,146.249 255.042,145.941 L247.232,143.988 C246.362,143.771 245.753,142.99 245.753,142.094 L245.753,83.532 Z M248.542,84.368 L248.542,141.44 L254.679,142.975 L254.679,84.368 L248.542,84.368 Z" />
            <path d="M254.679,83.532 C254.679,82.453 255.553,81.579 256.632,81.579 L264.442,81.579 C265.521,81.579 266.395,82.453 266.395,83.532 L266.395,144.046 C266.395,145.317 265.201,146.249 263.968,145.941 L256.158,143.988 C255.289,143.771 254.679,142.99 254.679,142.094 L254.679,83.532 Z M257.468,84.368 L257.468,141.44 L263.605,142.975 L263.605,84.368 L257.468,84.368 Z" />
            <path d="M263.605,83.532 C263.605,82.453 264.479,81.579 265.558,81.579 L273.368,81.579 C274.447,81.579 275.321,82.453 275.321,83.532 L275.321,144.046 C275.321,145.317 274.127,146.249 272.895,145.941 L265.084,143.988 C264.215,143.771 263.605,142.99 263.605,142.094 L263.605,83.532 Z M266.395,84.368 L266.395,141.44 L272.532,142.975 L272.532,84.368 L266.395,84.368 Z" />
            <path d="M272.532,83.532 C272.532,82.453 273.406,81.579 274.484,81.579 L282.295,81.579 C283.373,81.579 284.247,82.453 284.247,83.532 L284.247,144.046 C284.247,145.317 283.054,146.249 281.821,145.941 L274.011,143.988 C273.141,143.771 272.532,142.99 272.532,142.094 L272.532,83.532 Z M275.321,84.368 L275.321,141.44 L281.458,142.975 L281.458,84.368 L275.321,84.368 Z" />
            <path d="M281.458,83.532 C281.458,82.453 282.332,81.579 283.411,81.579 L291.221,81.579 C292.299,81.579 293.174,82.453 293.174,83.532 L293.174,144.046 C293.174,145.317 291.98,146.249 290.747,145.941 L282.937,143.988 C282.068,143.771 281.458,142.99 281.458,142.094 L281.458,83.532 Z M284.247,84.368 L284.247,141.44 L290.384,142.975 L290.384,84.368 L284.247,84.368 Z" />
            <path d="M230.132,77.395 C230.132,76.624 230.756,76 231.526,76 L298.474,76 C299.244,76 299.868,76.624 299.868,77.395 L299.868,82.974 C299.868,83.744 299.244,84.368 298.474,84.368 L231.526,84.368 C230.756,84.368 230.132,83.744 230.132,82.974 L230.132,77.395 Z M232.921,78.789 L232.921,81.579 L297.079,81.579 L297.079,78.789 L232.921,78.789 Z" />
        </g>
        <g id="Regular-S">
            <path d="M436.826,83.532 C436.826,82.453 437.701,81.579 438.779,81.579 L446.589,81.579 C447.668,81.579 448.542,82.453 448.542,83.532 L448.542,144.046 C448.542,145.317 447.348,146.249 446.116,145.941 L438.305,143.988 C437.436,143.771 436.826,142.99 436.826,142.094 L436.826,83.532 Z M439.616,84.368 L439.616,141.44 L445.753,142.975 L445.753,84.368 L439.616,84.368 Z" />
            <path d="M445.753,83.532 C445.753,82.453 446.627,81.579 447.705,81.579 L455.516,81.579 C456.594,81.579 457.468,82.453 457.468,83.532 L457.468,144.046 C457.468,145.317 456.275,146.249 455.042,145.941 L447.232,143.988 C446.362,143.771 445.753,142.99 445.753,142.094 L445.753,83.532 Z M448.542,84.368 L448.542,141.44 L454.679,142.975 L454.679,84.368 L448.542,84.368 Z" />
            <path d="M454.679,83.532 C454.679,82.453 455.553,81.579 456.632,81.579 L464.442,81.579 C465.521,81.579 466.395,82.453 466.395,83.532 L466.395,144.046 C466.395,145.317 465.201,146.249 463.968,145.941 L456.158,143.988 C455.289,143.771 454.679,142.99 454.679,142.094 L454.679,83.532 Z M457.468,84.368 L457.468,141.44 L463.605,142.975 L463.605,84.368 L457.468,84.368 Z" />
            <path d="M463.605,83.532 C463.605,82.453 464.479,81.579 465.558,81.579 L473.368,81.579 C474.447,81.579 475.321,82.453 475.321,83.532 L475.321,144.046 C475.321,145.317 474.127,146.249 472.895,145.941 L465.084,143.988 C464.215,143.771 463.605,142.99 463.605,142.094 L463.605,83.532 Z M466.395,84.368 L466.395,141.44 L472.532,142.975 L472.532,84.368 L466.395,84.368 Z" />
            <path d="M472.532,83.532 C472.532,82.453 473.406,81.579 474.484,81.579 L482.295,81.579 C483.373,81.579 484.247,82.453 484.247,83.532 L484.247,144.046 C484.247,145.317 483.054,146.249 481.821,145.941 L474.011,143.988 C473.141,143.771 472.532,142.99 472.532,142.094 L472.532,83.532 Z M475.321,84.368 L475.321,141.44 L481.458,142.975 L481.458,84.368 L475.321,84.368 Z" />
            <path d="M481.458,83.532 C481.458,82.453 482.332,81.579 483.411,81.579 L491.221,81.579 C492.299,81.579 493.174,82.453 493.174,83.532 L493.174,144.046 C493.174,145.317 491.98,146.249 490.747,145.941 L482.937,143.988 C482.068,143.771 481.458,142.99 481.458,142.094 L481.458,83.532 Z M484.247,84.368 L484.247,141.44 L490.384,142.975 L490.384,84.368 L484.247,84.368 Z" />
            <path d="M430.132,77.395 C430.132,76.624 430.756,76 431.526,76 L498.474,76 C499.244,76 499.868,76.624 499.868,77.395 L499.868,82.974 C499.868,83.744 499.244,84.368 498.474,84.368 L431.526,84.368 C430.756,84.368 430.132,83.744 430.132,82.974 L430.132,77.395 Z M432.921,78.789 L432.921,81.579 L497.079,81.579 L497.079,78.789 L432.921,78.789 Z" />
        </g>
        <g id="Black-S">
            <path d="M636.826,83.532 C636.826,82.453 637.701,81.579 638.779,81.579 L646.589,81.579 C647.668,81.579 648.542,82.453 648.542,83.532 L648.542,144.046 C648.542,145.317 647.348,146.249 646.116,145.941 L638.305,143.988 C637.436,143.771 636.826,142.99 636.826,142.094 L636.826,83.532 Z M639.616,84.368 L639.616,141.44 L645.753,142.975 L645.753,84.368 L639.616,84.368 Z" />
            <path d="M645.753,83.532 C645.753,82.453 646.627,81.579 647.705,81.579 L655.516,81.579 C656.594,81.579 657.468,82.453 657.468,83.532 L657.468,144.046 C657.468,145.317 656.275,146.249 655.042,145.941 L647.232,143.988 C646.362,143.771 645.753,142.99 645.753,142.094 L645.753,83.532 Z M648.542,84.368 L648.542,141.44 L654.679,142.975 L654.679,84.368 L648.542,84.368 Z" />
            <path d="M654.679,83.532 C654.679,82.453 655.553,81.579 656.632,81.579 L664.442,81.579 C665.521,81.579 666.395,82.453 666.395,83.532 L666.395,144.046 C666.395,145.317 665.201,146.249 663.968,145.941 L656.158,143.988 C655.289,143.771 654.679,142.99 654.679,142.094 L654.679,83.532 Z M657.468,84.368 L657.468,141.44 L663.605,142.975 L663.605,84.368 L657.468,84.368 Z" />
            <path d="M663.605,83.532 C663.605,82.453 664.479,81.579 665.558,81.579 L673.368,81.579 C674.447,81.579 675.321,82.453 675.321,83.532 L675.321,144.046 C675.321,145.317 674.127,146.249 672.895,145.941 L665.084,143.988 C664.215,143.771 663.605,142.99 663.605,142.094 L663.605,83.532 Z M666.395,84.368 L666.395,141.44 L672.532,142.975 L672.532,84.368 L666.395,84.368 Z" />
            <path d="M672.532,83.532 C672.532,82.453 673.406,81.579 674.484,81.579 L682.295,81.579 C683.373,81.579 684.247,82.453 684.247,83.532 L684.247,144.046 C684.247,145.317 683.054,146.249 681.821,145.941 L674.011,143.988 C673.141,143.771 672.532,142.99 672.532,142.094 L672.532,83.532 Z M675.321,84.368 L675.321,141.44 L681.458,142.975 L681.458,84.368 L675.321,84.368 Z" />
            <path d="M681.458,83.532 C681.458,82.453 682.332,81.579 683.411,81.579 L691.221,81.579 C692.299,81.579 693.174,82.453 693.174,83.532 L693.174,144.046 C693.174,145.317 691.98,146.249 690.747,145.941 L682.937,143.988 C682.068,143.771 681.458,142.99 681.458,142.094 L681.458,83.532 Z M684.247,84.368 L684.247,141.44 L690.384,142.975 L690.384,84.368 L684.247,84.368 Z" />
            <path d="M630.132,77.395 C630.132,76.624 630.756,76 631.526,76 L698.474,76 C699.244,76 699.868,76.624 699.868,77.395 L699.868,82.974 C699.868,83.744 699.244,84.368 698.474,84.368 L631.526,84.368 C630.756,84.368 630.132,83.744 630.132,82.974 L630.132,77.395 Z M632.921,78.789 L632.921,81.579 L697.079,81.579 L697.079,78.789 L632.921,78.789 Z" />
        </g>
    </g>
</svg>