<svg width="58" height="64" viewBox="0 0 58 64" fill="none" xmlns="http://www.w3.org/2000/svg">
<g clip-path="url(#clip0_6344_14458)">
<path d="M27.8305 6.39752C27.8087 6.40481 27.7869 6.40481 27.7651 6.4121C27.7869 6.4121 27.8087 6.40481 27.8305 6.39752Z" fill="#12A71E"/>
<path d="M28.1646 6.33191C28.121 6.3392 28.0775 6.34648 28.0266 6.36106C28.0702 6.34648 28.121 6.3392 28.1646 6.33191Z" fill="#12A71E"/>
<path d="M32.9808 16.1037C32.9736 16.1037 32.9736 16.1037 32.9663 16.0964C32.9663 16.0964 32.9736 16.1037 32.9808 16.1037Z" fill="#0043FF"/>
<path d="M28.9346 60.5833C26.9369 60.5833 24.9393 60.5833 22.9489 60.5833C22.2297 60.5833 21.8592 60.2409 21.7793 59.5194C21.7648 59.4101 21.7721 59.3081 21.7721 59.1988C21.7721 56.7431 21.7721 54.2947 21.7721 51.839C21.7721 51.4163 21.7721 51.4163 22.2007 51.4163C22.5857 51.4163 22.9707 51.4163 23.3557 51.4163C23.9223 51.4163 23.9223 51.4163 23.9223 51.9702C23.9223 53.8648 23.9223 55.7594 23.9223 57.654C23.9223 57.7851 23.9223 57.909 23.9223 58.0402C23.9223 58.5576 23.9223 58.5576 24.4235 58.5576C25.6439 58.5576 26.857 58.5576 28.0774 58.5576C29.8789 58.5576 31.6877 58.5503 33.4892 58.5648C33.8088 58.5648 33.9105 58.4774 33.9105 58.1495C33.896 56.0581 33.9033 53.9741 33.9033 51.8827C33.9033 51.4163 33.9033 51.4163 34.3609 51.4163C34.8404 51.4163 35.3198 51.4236 35.7992 51.4163C36.0389 51.4091 36.1116 51.5038 36.1116 51.737C36.1043 54.2874 36.1043 56.8378 36.1043 59.381C36.1043 59.6433 36.0244 59.8838 35.9009 60.117C35.7266 60.4303 35.4796 60.5906 35.1019 60.5906C33.0388 60.5761 30.9903 60.5833 28.9346 60.5833Z" fill="#FCFCFC"/>
<path d="M29.0218 63.6657C27.9903 63.6657 26.9515 63.6657 25.92 63.6657C25.2299 63.6657 24.8376 63.2795 24.8376 62.6018C24.8376 61.9532 25.2372 61.567 25.9127 61.5598C27.9903 61.5598 30.0679 61.5598 32.1454 61.5598C32.8137 61.5598 33.206 61.9532 33.2133 62.6018C33.2133 63.2576 32.821 63.6511 32.1599 63.6584C31.1139 63.6657 30.0679 63.6657 29.0218 63.6657Z" fill="#FCFCFC"/>
<path d="M29.0145 29.366L17.1884 17.5028C13.9195 20.7819 12.2778 25.0667 12.2488 29.3587H29.0145V29.366Z" fill="#E0FC36"/>
<path d="M29.0146 29.366V12.5914C24.3946 12.5914 20.2104 14.4569 17.1594 17.4737L29.0146 29.366Z" fill="#FB6020"/>
<path d="M29.0146 29.366H12.2925C12.2925 34.0005 14.1521 38.1978 17.1595 41.2583L29.0146 29.366Z" fill="#66FB33"/>
<path d="M29.0146 29.366L40.8335 41.2219C44.1024 37.9427 45.7441 33.658 45.7731 29.366H29.0146Z" fill="#3A2FFB"/>
<path d="M29.0146 29.366V46.1333C33.6347 46.1333 37.8188 44.2678 40.8698 41.251L29.0146 29.366Z" fill="#1696FB"/>
<path d="M29.0146 29.366L40.8335 17.5101C37.5646 14.231 33.2933 12.5841 29.0146 12.555V29.366Z" fill="#FA1A62"/>
<path d="M29.0146 29.366H45.7295C45.7295 24.7315 43.8699 20.5342 40.8625 17.4737L29.0146 29.366Z" fill="#CE2FF2"/>
<path d="M36.1262 44.4354H29.0291V48.8659H36.1262V44.4354Z" fill="#1696FB"/>
<path d="M29.0217 44.4354H21.9246V48.8659H29.0217V44.4354Z" fill="#40FC8F"/>
<path d="M29.0146 29.366L17.1885 41.2219C20.4574 44.501 24.7287 46.1478 29.0073 46.177V29.366H29.0146Z" fill="#40FC8F"/>
<path d="M28.9563 50.3014C26.6827 50.3014 24.409 50.2941 22.1353 50.3087C21.8374 50.3087 21.7067 50.2212 21.6268 49.9298C20.8277 47.0077 19.295 44.501 17.2465 42.3003C16.0987 41.0615 14.9074 39.8665 13.9848 38.4309C11.9799 35.3048 11.0283 31.8945 11.2826 28.1782C11.5005 24.9501 12.641 22.0353 14.4861 19.3901C16.0261 17.1895 17.9075 15.3459 20.2175 13.9686C22.4186 12.6643 24.7867 11.8627 27.3364 11.6368C32.0581 11.2214 36.2714 12.5404 39.8962 15.5645C43.4266 18.5084 45.7439 22.2393 46.4776 26.8447C46.9715 29.9271 46.572 32.9293 45.3371 35.8003C44.4218 37.9354 43.136 39.8155 41.5016 41.4477C39.7509 43.1966 38.2981 45.1422 37.252 47.3939C36.867 48.2173 36.5329 49.0699 36.3004 49.9443C36.2205 50.2358 36.0898 50.3087 35.8065 50.3087C33.5255 50.2941 31.2446 50.3014 28.9563 50.3014ZM28.9636 48.0133C30.6707 48.0133 32.3778 48.0133 34.0849 48.0133C34.3028 48.0133 34.4335 47.9623 34.5134 47.7291C35.5159 44.909 37.1358 42.4825 39.1988 40.3328C40.2739 39.2106 41.3273 38.0885 42.1408 36.7477C43.9206 33.8037 44.6179 30.6339 44.1022 27.2309C43.4775 23.121 41.4072 19.82 38.2109 17.2405C35.0219 14.6609 31.3535 13.5897 27.2638 14.0342C24.7358 14.3111 22.4476 15.2074 20.3773 16.6867C18.4814 18.042 16.9632 19.7545 15.7718 21.7511C14.1301 24.4983 13.411 27.4641 13.7088 30.663C14.0066 33.8693 15.3215 36.6238 17.4499 39.0066C18.0673 39.6989 18.7356 40.3474 19.3458 41.0542C21.0456 43.029 22.3677 45.2442 23.3702 47.6562C23.4719 47.9113 23.6099 48.0133 23.8932 48.006C25.593 48.006 27.2783 48.0133 28.9636 48.0133Z" fill="#FCFCFC"/>
<path d="M14.3045 14.7629C14.3045 15.3313 14.0503 15.6592 13.6362 15.8487C13.2004 16.0454 12.8009 15.9361 12.4667 15.6009C11.5369 14.6682 10.6071 13.7428 9.67726 12.81C9.12518 12.2562 8.5731 11.7097 8.02829 11.1486C7.69414 10.8061 7.62876 10.347 7.81763 9.96812C8.02829 9.53818 8.44961 9.305 8.91452 9.34872C9.17603 9.37058 9.37943 9.50175 9.55377 9.68392C11.0284 11.1559 12.4958 12.6351 13.9704 14.1144C14.1811 14.3039 14.3191 14.537 14.3045 14.7629Z" fill="#FCFCFC"/>
<path d="M44.8214 16.0673C44.262 16.06 43.9424 15.805 43.7536 15.4042C43.5719 15.0253 43.6373 14.6536 43.9061 14.3184C43.9206 14.3039 43.9352 14.282 43.9497 14.2674C45.4534 12.759 46.9498 11.2506 48.4607 9.74952C48.9111 9.30501 49.5068 9.34873 49.9426 9.79324C50.3422 10.2086 50.364 10.7697 49.9862 11.2142C49.9572 11.2433 49.9281 11.2798 49.8991 11.3089C48.4462 12.7736 46.9861 14.231 45.5333 15.6957C45.3081 15.9216 45.0611 16.0819 44.8214 16.0673Z" fill="#FCFCFC"/>
<path d="M30.2568 4.37902C30.2568 5.40649 30.2568 6.43395 30.2568 7.46141C30.2568 8.15367 29.8718 8.54716 29.1962 8.54716C28.5497 8.54716 28.1647 8.14638 28.1575 7.47598C28.1575 5.39191 28.1575 3.30784 28.1575 1.22377C28.1575 0.553371 28.5497 0.152588 29.1962 0.152588C29.85 0.152588 30.2423 0.546084 30.2496 1.2092C30.2568 2.26581 30.2568 3.32242 30.2568 4.37902Z" fill="#FCFCFC"/>
<path d="M4.66504 30.4591C3.63353 30.4591 2.59475 30.4591 1.56324 30.4591C0.873138 30.4591 0.480872 30.0656 0.488136 29.3952C0.488136 28.7466 0.887667 28.3604 1.56324 28.3604C3.64079 28.3604 5.71835 28.3604 7.79591 28.3604C8.46421 28.3604 8.85648 28.7539 8.85648 29.4097C8.85648 30.0656 8.46421 30.4591 7.79591 30.4591C6.75713 30.4591 5.71109 30.4591 4.66504 30.4591Z" fill="#FCFCFC"/>
<path d="M53.2405 30.4591C52.1945 30.4591 51.1484 30.4591 50.1096 30.4591C49.4413 30.4591 49.0491 30.0656 49.0491 29.4097C49.0491 28.7539 49.4413 28.3604 50.1096 28.3604C52.2017 28.3604 54.2866 28.3604 56.3786 28.3604C57.0397 28.3604 57.4319 28.7612 57.4247 29.4243C57.4247 30.0583 57.0252 30.4591 56.3859 30.4591C55.3326 30.4591 54.2866 30.4591 53.2405 30.4591Z" fill="#FCFCFC"/>
</g>
<defs>
<clipPath id="clip0_6344_14458">
<rect width="58" height="64" fill="white"/>
</clipPath>
</defs>
</svg>
