<svg width="64" height="64" viewBox="0 0 64 64" fill="none" xmlns="http://www.w3.org/2000/svg">
<path d="M30.9917 8.49783C30.9729 8.5041 30.9541 8.5041 30.9353 8.51036C30.9541 8.51036 30.9729 8.5041 30.9917 8.49783Z" fill="#12A71E"/>
<path d="M31.2799 8.4415C31.2423 8.44776 31.2047 8.45402 31.1609 8.46655C31.1985 8.45402 31.2423 8.44776 31.2799 8.4415Z" fill="#12A71E"/>
<path d="M35.4317 16.8391C35.4255 16.8391 35.4255 16.8391 35.4192 16.8329C35.4192 16.8329 35.4255 16.8391 35.4317 16.8391Z" fill="#0043FF"/>
<path d="M31.9437 55.0638C30.2216 55.0638 28.4995 55.0638 26.7836 55.0638C26.1637 55.0638 25.8443 54.7695 25.7754 54.1495C25.7629 54.0556 25.7691 53.9679 25.7691 53.874C25.7691 51.7636 25.7691 49.6595 25.7691 47.5491C25.7691 47.1859 25.7691 47.1859 26.1386 47.1859C26.4705 47.1859 26.8024 47.1859 27.1343 47.1859C27.6228 47.1859 27.6228 47.1859 27.6228 47.6618C27.6228 49.29 27.6228 50.9182 27.6228 52.5464C27.6228 52.6591 27.6228 52.7656 27.6228 52.8783C27.6228 53.3229 27.6228 53.3229 28.0549 53.3229C29.1069 53.3229 30.1527 53.3229 31.2048 53.3229C32.7578 53.3229 34.3171 53.3166 35.8701 53.3292C36.1457 53.3292 36.2333 53.254 36.2333 52.9722C36.2208 51.175 36.2271 49.384 36.2271 47.5867C36.2271 47.1859 36.2271 47.1859 36.6216 47.1859C37.0349 47.1859 37.4482 47.1922 37.8615 47.1859C38.0682 47.1796 38.1308 47.2611 38.1308 47.4615C38.1245 49.6532 38.1245 51.845 38.1245 54.0305C38.1245 54.256 38.0556 54.4626 37.9492 54.663C37.7989 54.9323 37.586 55.0701 37.2603 55.0701C35.4819 55.0575 33.7159 55.0638 31.9437 55.0638Z" fill="#282828"/>
<path d="M32.0187 57.7127C31.1294 57.7127 30.2339 57.7127 29.3447 57.7127C28.7498 57.7127 28.4116 57.3808 28.4116 56.7984C28.4116 56.2411 28.756 55.9092 29.3384 55.9029C31.1294 55.9029 32.9204 55.9029 34.7114 55.9029C35.2875 55.9029 35.6257 56.2411 35.632 56.7984C35.632 57.362 35.2938 57.7002 34.7239 57.7064C33.8222 57.7127 32.9204 57.7127 32.0187 57.7127Z" fill="#282828"/>
<path d="M32.0126 28.2364L21.8176 18.0415C18.9996 20.8595 17.5844 24.5417 17.5593 28.2301H32.0126V28.2364Z" fill="#E0FC36"/>
<path d="M32.0124 28.2364V13.8207C28.0297 13.8207 24.4226 15.4239 21.7925 18.0164L32.0124 28.2364Z" fill="#FB6020"/>
<path d="M32.0126 28.2364H17.5969C17.5969 32.2192 19.2001 35.8262 21.7926 38.4564L32.0126 28.2364Z" fill="#66FB33"/>
<path d="M32.0125 28.2364L42.2011 38.425C45.0191 35.607 46.4344 31.9248 46.4594 28.2364H32.0125Z" fill="#3A2FFB"/>
<path d="M32.0125 28.2364V42.6458C35.9952 42.6458 39.6023 41.0427 42.2324 38.4501L32.0125 28.2364Z" fill="#1696FB"/>
<path d="M32.0125 28.2364L42.2011 18.0477C39.3831 15.2297 35.7009 13.8145 32.0125 13.7894V28.2364Z" fill="#FA1A62"/>
<path d="M32.0125 28.2364H46.4218C46.4218 24.2536 44.8187 20.6466 42.2261 18.0164L32.0125 28.2364Z" fill="#CE2FF2"/>
<path d="M38.1433 41.1867H32.0251V44.9941H38.1433V41.1867Z" fill="#1696FB"/>
<path d="M32.0188 41.1867H25.9006V44.9941H32.0188V41.1867Z" fill="#40FC8F"/>
<path d="M32.0125 28.2364L21.8176 38.425C24.6356 41.243 28.3178 42.6583 32.0063 42.6834V28.2364H32.0125Z" fill="#40FC8F"/>
<path d="M31.9625 46.2278C30.0024 46.2278 28.0423 46.2215 26.0822 46.234C25.8255 46.234 25.7128 46.1589 25.6439 45.9084C24.955 43.3972 23.6337 41.243 21.8678 39.3518C20.8783 38.2873 19.8513 37.2603 19.056 36.0266C17.3276 33.3401 16.5073 30.4094 16.7265 27.2156C16.9143 24.4415 17.8975 21.9366 19.4881 19.6634C20.8157 17.7722 22.4376 16.1879 24.429 15.0043C26.3265 13.8834 28.368 13.1945 30.566 13.0004C34.6364 12.6434 38.2685 13.7769 41.3934 16.3757C44.4368 18.9057 46.4345 22.1119 47.067 26.0697C47.4928 28.7186 47.1484 31.2986 46.0838 33.7659C45.2948 35.6008 44.1863 37.2164 42.7773 38.6192C41.2681 40.1221 40.0157 41.7941 39.1139 43.7291C38.782 44.4368 38.494 45.1695 38.2936 45.9209C38.2247 46.1714 38.112 46.234 37.8678 46.234C35.9014 46.2215 33.9351 46.2278 31.9625 46.2278ZM31.9687 44.2614C33.4404 44.2614 34.912 44.2614 36.3836 44.2614C36.5715 44.2614 36.6842 44.2176 36.7531 44.0172C37.6173 41.5937 39.0137 39.5084 40.7922 37.661C41.719 36.6967 42.6271 35.7323 43.3284 34.58C44.8627 32.0501 45.4638 29.326 45.0192 26.4016C44.4807 22.8697 42.6959 20.0329 39.9406 17.816C37.1914 15.5992 34.029 14.6787 30.5034 15.0607C28.3241 15.2986 26.3515 16.0689 24.5668 17.3401C22.9323 18.5049 21.6235 19.9765 20.5965 21.6924C19.1813 24.0532 18.5613 26.6019 18.818 29.3511C19.0748 32.1064 20.2083 34.4736 22.0431 36.5213C22.5754 37.1162 23.1515 37.6736 23.6775 38.281C25.1429 39.9781 26.2826 41.8818 27.1468 43.9546C27.2345 44.1738 27.3535 44.2614 27.5977 44.2552C29.0631 44.2552 30.5159 44.2614 31.9687 44.2614Z" fill="#282828"/>
<path d="M19.3314 15.6869C19.3314 16.1753 19.1122 16.4571 18.7553 16.62C18.3796 16.789 18.0351 16.6951 17.7471 16.4071C16.9455 15.6055 16.1439 14.8102 15.3424 14.0086C14.8665 13.5327 14.3905 13.063 13.9209 12.5808C13.6328 12.2865 13.5764 11.892 13.7393 11.5663C13.9209 11.1969 14.2841 10.9965 14.6848 11.0341C14.9103 11.0528 15.0856 11.1656 15.2359 11.3221C16.5072 12.5871 17.7721 13.8583 19.0434 15.1296C19.225 15.2924 19.3439 15.4928 19.3314 15.6869Z" fill="#282828"/>
<path d="M45.6392 16.8078C45.157 16.8016 44.8815 16.5824 44.7187 16.238C44.5621 15.9123 44.6185 15.593 44.8502 15.3049C44.8627 15.2924 44.8752 15.2736 44.8878 15.2611C46.184 13.9648 47.4741 12.6685 48.7766 11.3785C49.1649 10.9965 49.6784 11.0341 50.0541 11.4161C50.3985 11.773 50.4173 12.2552 50.0917 12.6372C50.0666 12.6622 50.0416 12.6935 50.0165 12.7186C48.7641 13.9773 47.5054 15.2298 46.2529 16.4885C46.0588 16.6826 45.8459 16.8204 45.6392 16.8078Z" fill="#282828"/>
<path d="M33.0835 6.7632C33.0835 7.64617 33.0835 8.52915 33.0835 9.41212C33.0835 10.007 32.7516 10.3452 32.1692 10.3452C31.6118 10.3452 31.2799 10.0008 31.2737 9.42465C31.2737 7.63365 31.2737 5.84265 31.2737 4.05165C31.2737 3.47553 31.6118 3.1311 32.1692 3.1311C32.7328 3.1311 33.0709 3.46926 33.0772 4.03913C33.0835 4.94715 33.0835 5.85517 33.0835 6.7632Z" fill="#282828"/>
<path d="M11.0215 29.1757C10.1323 29.1757 9.23679 29.1757 8.34755 29.1757C7.75264 29.1757 7.41448 28.8376 7.42074 28.2615C7.42074 27.7041 7.76516 27.3722 8.34755 27.3722C10.1385 27.3722 11.9295 27.3722 13.7205 27.3722C14.2967 27.3722 14.6348 27.7104 14.6348 28.274C14.6348 28.8376 14.2967 29.1757 13.7205 29.1757C12.825 29.1757 11.9233 29.1757 11.0215 29.1757Z" fill="#282828"/>
<path d="M52.897 29.1757C51.9952 29.1757 51.0935 29.1757 50.198 29.1757C49.6219 29.1757 49.2837 28.8376 49.2837 28.274C49.2837 27.7104 49.6219 27.3722 50.198 27.3722C52.0015 27.3722 53.7988 27.3722 55.6023 27.3722C56.1721 27.3722 56.5103 27.7166 56.504 28.2865C56.504 28.8313 56.1596 29.1757 55.6085 29.1757C54.7005 29.1757 53.7988 29.1757 52.897 29.1757Z" fill="#282828"/>
</svg>
