<svg width="512" height="512" viewBox="0 0 512 512" fill="none" xmlns="http://www.w3.org/2000/svg">
<g clip-path="url(#clip0_4654_590)">
<path d="M322 279.33H204C201.348 279.33 198.804 278.277 196.929 276.401C195.054 274.526 194 271.982 194 269.33C194 266.678 195.054 264.134 196.929 262.259C198.804 260.384 201.348 259.33 204 259.33H322C324.652 259.33 327.196 260.384 329.071 262.259C330.946 264.134 332 266.678 332 269.33C332 271.982 330.946 274.526 329.071 276.401C327.196 278.277 324.652 279.33 322 279.33Z" fill="#00D151"/>
<path d="M367 352.67H249C246.348 352.67 243.804 351.616 241.929 349.741C240.054 347.866 239 345.322 239 342.67C239 340.018 240.054 337.474 241.929 335.599C243.804 333.723 246.348 332.67 249 332.67H367C369.652 332.67 372.196 333.723 374.071 335.599C375.946 337.474 377 340.018 377 342.67C377 345.322 375.946 347.866 374.071 349.741C372.196 351.616 369.652 352.67 367 352.67Z" fill="#00D151"/>
<path d="M398 44C395.348 44 392.804 42.9464 390.929 41.0711C389.054 39.1957 388 36.6522 388 34V10C388 7.34784 389.054 4.8043 390.929 2.92893C392.804 1.05357 395.348 0 398 0C400.652 0 403.196 1.05357 405.071 2.92893C406.946 4.8043 408 7.34784 408 10V34C408 36.6522 406.946 39.1957 405.071 41.0711C403.196 42.9464 400.652 44 398 44Z" fill="black"/>
<path d="M358 54.7199C356.243 54.7216 354.517 54.2603 352.995 53.3826C351.473 52.5048 350.209 51.2415 349.33 49.7199L337.33 28.9299C336.025 26.6343 335.681 23.9157 336.373 21.3672C337.065 18.8188 338.737 16.6475 341.023 15.3271C343.31 14.0068 346.027 13.6445 348.58 14.3195C351.132 14.9945 353.315 16.6518 354.65 18.9299L366.65 39.7199C367.528 41.2393 367.99 42.9628 367.99 44.7173C367.991 46.4718 367.529 48.1956 366.653 49.7155C365.776 51.2353 364.515 52.4979 362.997 53.3763C361.478 54.2547 359.755 54.7181 358 54.7199Z" fill="black"/>
<path d="M328.71 84C326.954 84.0037 325.228 83.5413 323.71 82.66L302.92 70.66C301.773 70.0081 300.767 69.136 299.959 68.0937C299.151 67.0514 298.557 65.8596 298.212 64.5869C297.866 63.3142 297.776 61.9857 297.946 60.6779C298.116 59.3701 298.543 58.1088 299.202 56.9667C299.862 55.8246 300.74 54.8242 301.788 54.0231C302.836 53.222 304.031 52.6361 305.306 52.299C306.581 51.9619 307.91 51.8803 309.217 52.059C310.524 52.2376 311.782 52.673 312.92 53.34L333.71 65.34C335.616 66.4407 337.106 68.1397 337.948 70.1734C338.791 72.2071 338.938 74.4619 338.369 76.5882C337.799 78.7144 336.543 80.5933 334.797 81.9334C333.051 83.2735 330.911 83.9999 328.71 84Z" fill="black"/>
<path d="M318 124H294C291.348 124 288.804 122.946 286.929 121.071C285.054 119.196 284 116.652 284 114C284 111.348 285.054 108.804 286.929 106.929C288.804 105.054 291.348 104 294 104H318C320.652 104 323.196 105.054 325.071 106.929C326.946 108.804 328 111.348 328 114C328 116.652 326.946 119.196 325.071 121.071C323.196 122.946 320.652 124 318 124Z" fill="black"/>
<path d="M307.94 176C305.739 176 303.599 175.273 301.853 173.933C300.106 172.593 298.851 170.714 298.281 168.588C297.711 166.462 297.859 164.207 298.702 162.173C299.544 160.14 301.034 158.441 302.94 157.34L323.73 145.34C324.868 144.673 326.126 144.238 327.433 144.059C328.739 143.88 330.068 143.962 331.343 144.299C332.618 144.636 333.814 145.222 334.862 146.023C335.909 146.824 336.788 147.825 337.448 148.967C338.107 150.109 338.534 151.37 338.704 152.678C338.874 153.986 338.784 155.314 338.438 156.587C338.093 157.86 337.499 159.051 336.691 160.094C335.883 161.136 334.876 162.008 333.73 162.66L312.94 174.66C311.421 175.541 309.696 176.004 307.94 176Z" fill="black"/>
<path d="M346 214.07C344.245 214.069 342.522 213.605 341.003 212.727C339.484 211.848 338.223 210.586 337.347 209.066C336.47 207.546 336.009 205.822 336.01 204.068C336.01 202.313 336.472 200.59 337.35 199.07L349.35 178.28C350.685 176.002 352.867 174.345 355.42 173.67C357.973 172.995 360.69 173.357 362.976 174.678C365.263 175.998 366.935 178.169 367.627 180.718C368.319 183.266 367.975 185.985 366.67 188.28L354.67 209.07C353.791 210.592 352.527 211.855 351.005 212.733C349.483 213.611 347.757 214.072 346 214.07Z" fill="black"/>
<path d="M398 228C395.348 228 392.804 226.946 390.929 225.071C389.054 223.196 388 220.652 388 218V194C388 191.348 389.054 188.804 390.929 186.929C392.804 185.054 395.348 184 398 184C400.652 184 403.196 185.054 405.071 186.929C406.946 188.804 408 191.348 408 194V218C408 220.652 406.946 223.196 405.071 225.071C403.196 226.946 400.652 228 398 228Z" fill="black"/>
<path d="M450 214.07C448.243 214.072 446.517 213.611 444.995 212.733C443.473 211.855 442.209 210.592 441.33 209.07L429.33 188.28C428.025 185.985 427.681 183.266 428.373 180.718C429.065 178.169 430.737 175.998 433.023 174.678C435.31 173.357 438.027 172.995 440.58 173.67C443.132 174.345 445.315 176.002 446.65 178.28L458.65 199.07C459.528 200.59 459.99 202.313 459.99 204.068C459.991 205.822 459.529 207.546 458.653 209.066C457.776 210.586 456.515 211.848 454.997 212.727C453.478 213.605 451.755 214.069 450 214.07Z" fill="black"/>
<path d="M488.06 176C486.304 176.004 484.578 175.541 483.06 174.66L462.27 162.66C459.992 161.325 458.334 159.142 457.659 156.589C456.984 154.036 457.347 151.32 458.667 149.033C459.987 146.746 462.159 145.074 464.707 144.383C467.256 143.691 469.974 144.035 472.27 145.34L493.06 157.34C494.966 158.441 496.456 160.14 497.298 162.173C498.141 164.207 498.288 166.462 497.719 168.588C497.149 170.715 495.893 172.593 494.147 173.933C492.401 175.274 490.261 176 488.06 176Z" fill="black"/>
<path d="M502 124H478C475.348 124 472.804 122.946 470.929 121.071C469.054 119.196 468 116.652 468 114C468 111.348 469.054 108.804 470.929 106.929C472.804 105.054 475.348 104 478 104H502C504.652 104 507.196 105.054 509.071 106.929C510.946 108.804 512 111.348 512 114C512 116.652 510.946 119.196 509.071 121.071C507.196 122.946 504.652 124 502 124Z" fill="black"/>
<path d="M467.29 84C465.088 83.9999 462.949 83.2735 461.202 81.9334C459.456 80.5933 458.201 78.7144 457.631 76.5882C457.061 74.4619 457.209 72.2071 458.051 70.1734C458.893 68.1397 460.383 66.4407 462.29 65.34L483.08 53.34C484.217 52.673 485.476 52.2376 486.782 52.059C488.089 51.8803 489.418 51.9619 490.693 52.299C491.968 52.6361 493.164 53.222 494.211 54.0231C495.259 54.8242 496.138 55.8246 496.797 56.9667C497.457 58.1088 497.884 59.3701 498.054 60.6779C498.224 61.9857 498.133 63.3142 497.788 64.5869C497.442 65.8596 496.848 67.0514 496.04 68.0937C495.232 69.136 494.226 70.0081 493.08 70.66L472.29 82.66C470.771 83.5413 469.045 84.0037 467.29 84Z" fill="black"/>
<path d="M438 54.7195C436.245 54.7177 434.522 54.2543 433.003 53.3759C431.484 52.4975 430.223 51.235 429.347 49.7151C428.47 48.1952 428.009 46.4715 428.01 44.717C428.01 42.9625 428.472 41.239 429.35 39.7195L441.35 18.9295C442.001 17.7831 442.873 16.7769 443.916 15.9688C444.958 15.1608 446.15 14.567 447.423 14.2214C448.695 13.8759 450.024 13.7855 451.332 13.9555C452.639 14.1255 453.901 14.5525 455.043 15.2119C456.185 15.8713 457.185 16.7501 457.986 17.7977C458.787 18.8453 459.373 20.0411 459.711 21.3161C460.048 22.591 460.129 23.9201 459.951 25.2268C459.772 26.5334 459.337 27.7918 458.67 28.9295L446.67 49.7195C445.791 51.2411 444.527 52.5044 443.005 53.3822C441.483 54.26 439.757 54.7212 438 54.7195Z" fill="black"/>
<path d="M398 61C387.814 61 377.857 64.0204 369.388 69.6793C360.919 75.3382 354.318 83.3814 350.42 92.7918C346.522 102.202 345.502 112.557 347.49 122.547C349.477 132.537 354.382 141.714 361.584 148.916C368.786 156.118 377.963 161.023 387.953 163.01C397.943 164.998 408.298 163.978 417.708 160.08C427.119 156.182 435.162 149.581 440.821 141.112C446.48 132.643 449.5 122.686 449.5 112.5C449.487 98.8454 444.057 85.7539 434.401 76.0986C424.746 66.4434 411.655 61.0132 398 61ZM398 144C391.77 144 385.68 142.153 380.5 138.691C375.319 135.23 371.282 130.31 368.898 124.555C366.514 118.799 365.89 112.465 367.105 106.355C368.321 100.244 371.321 94.6315 375.726 90.2261C380.132 85.8208 385.744 82.8207 391.855 81.6053C397.965 80.3898 404.299 81.0136 410.055 83.3978C415.81 85.782 420.73 89.8194 424.191 94.9995C427.653 100.18 429.5 106.27 429.5 112.5C429.492 120.852 426.171 128.859 420.265 134.765C414.359 140.671 406.352 143.992 398 144Z" fill="black"/>
<path d="M134.55 315.29H45.4805C42.8283 315.29 40.2848 314.236 38.4094 312.361C36.534 310.486 35.4805 307.942 35.4805 305.29C35.4805 302.638 36.534 300.094 38.4094 298.219C40.2848 296.344 42.8283 295.29 45.4805 295.29H134.55C137.203 295.29 139.746 296.344 141.622 298.219C143.497 300.094 144.55 302.638 144.55 305.29C144.55 307.942 143.497 310.486 141.622 312.361C139.746 314.236 137.203 315.29 134.55 315.29Z" fill="#00D151"/>
<path d="M168.52 370.64H79C76.3478 370.64 73.8043 369.586 71.9289 367.711C70.0536 365.835 69 363.292 69 360.64C69 357.987 70.0536 355.444 71.9289 353.569C73.8043 351.693 76.3478 350.64 79 350.64H168.52C171.172 350.64 173.716 351.693 175.591 353.569C177.466 355.444 178.52 357.987 178.52 360.64C178.52 363.292 177.466 365.835 175.591 367.711C173.716 369.586 171.172 370.64 168.52 370.64Z" fill="#00D151"/>
<path d="M502 492H308V470C308 467.348 306.946 464.804 305.071 462.929C303.196 461.054 300.652 460 298 460H289V424.65C290.518 425.534 292.243 426 294 426H414C415.784 426.001 417.536 425.524 419.074 424.619C420.612 423.714 421.88 422.415 422.746 420.854C423.613 419.294 424.046 417.531 424 415.747C423.955 413.964 423.434 412.224 422.49 410.71L285.49 190.71C284.591 189.268 283.34 188.08 281.855 187.256C280.369 186.431 278.699 185.999 277 186H157C155.216 185.999 153.463 186.476 151.925 187.381C150.388 188.286 149.12 189.585 148.253 191.146C147.387 192.706 146.954 194.469 146.999 196.253C147.044 198.037 147.566 199.776 148.51 201.29L239 346.6V460H230C227.348 460 224.804 461.054 222.929 462.929C221.053 464.804 220 467.348 220 470V492H138V470C138 467.348 136.946 464.804 135.071 462.929C133.196 461.054 130.652 460 128 460H119V426H204C205.784 426.001 207.536 425.524 209.074 424.619C210.612 423.714 211.88 422.415 212.746 420.854C213.613 419.294 214.046 417.531 214 415.747C213.955 413.964 213.434 412.224 212.49 410.71L109.07 244.64C108.171 243.198 106.92 242.01 105.435 241.186C103.949 240.361 102.279 239.929 100.58 239.93H9.99988C8.21551 239.929 6.46346 240.406 4.92549 241.311C3.38752 242.216 2.11966 243.516 1.25344 245.076C0.387223 246.636 -0.0458032 248.399 -0.000712126 250.183C0.044379 251.966 0.565945 253.706 1.50988 255.22L68.9999 363.59V460H59.9999C57.3477 460 54.8042 461.054 52.9288 462.929C51.0534 464.804 49.9999 467.348 49.9999 470V492H9.99988C7.34771 492 4.80417 493.054 2.92881 494.929C1.05345 496.804 -0.000123306 499.348 -0.000123306 502C-0.000123306 504.652 1.05345 507.196 2.92881 509.071C4.80417 510.946 7.34771 512 9.99988 512H502C504.652 512 507.196 510.946 509.071 509.071C510.946 507.196 512 504.652 512 502C512 499.348 510.946 496.804 509.071 494.929C507.196 493.054 504.652 492 502 492ZM62.4799 315.29L49.9999 295.29L27.9999 259.93H94.9999L117 295.29L129.45 315.29L151.45 350.64L163.9 370.64L186 406H119L98.9999 373.93L96.9999 370.64L96.5999 370L84.5999 350.64L84.1999 350L62.4799 315.29ZM98.9999 411.77V460H88.9999V395.71L98.9999 411.77ZM118 492H69.9999V480H118V492ZM220.67 279.33L208.22 259.33L175 206H271.44L304.65 259.33L317.1 279.33L350.32 332.67L362.77 352.67L396 406H299.55L289 389.06L269 356.94L266.34 352.67L264.68 350L253.89 332.67L252.22 330L220.67 279.33ZM269 394.78V460H259V378.72L269 394.78ZM288 492H240V480H288V492Z" fill="black"/>
</g>
<defs>
<clipPath id="clip0_4654_590">
<rect width="512" height="512" fill="white"/>
</clipPath>
</defs>
</svg>
