<svg width="58" height="64" viewBox="0 0 58 64" fill="none" xmlns="http://www.w3.org/2000/svg">
<path d="M27.8305 6.39749C27.8087 6.40478 27.7869 6.40478 27.7651 6.41207C27.7869 6.41207 27.8087 6.40478 27.8305 6.39749Z" fill="#12A71E"/>
<path d="M28.1646 6.33191C28.121 6.3392 28.0775 6.34648 28.0266 6.36106C28.0702 6.34648 28.121 6.3392 28.1646 6.33191Z" fill="#12A71E"/>
<path d="M32.9808 16.1037C32.9736 16.1037 32.9736 16.1037 32.9663 16.0964C32.9663 16.0964 32.9736 16.1037 32.9808 16.1037Z" fill="#0043FF"/>
<path d="M28.9346 60.5833C26.9369 60.5833 24.9393 60.5833 22.9489 60.5833C22.2297 60.5833 21.8592 60.2409 21.7793 59.5194C21.7648 59.4101 21.7721 59.3081 21.7721 59.1988C21.7721 56.7431 21.7721 54.2947 21.7721 51.839C21.7721 51.4163 21.7721 51.4163 22.2007 51.4163C22.5857 51.4163 22.9707 51.4163 23.3557 51.4163C23.9223 51.4163 23.9223 51.4163 23.9223 51.9702C23.9223 53.8648 23.9223 55.7594 23.9223 57.654C23.9223 57.7851 23.9223 57.909 23.9223 58.0402C23.9223 58.5576 23.9223 58.5576 24.4235 58.5576C25.6439 58.5576 26.857 58.5576 28.0774 58.5576C29.8789 58.5576 31.6877 58.5503 33.4892 58.5648C33.8088 58.5648 33.9105 58.4774 33.9105 58.1495C33.896 56.0581 33.9033 53.9741 33.9033 51.8827C33.9033 51.4163 33.9033 51.4163 34.3609 51.4163C34.8404 51.4163 35.3198 51.4236 35.7992 51.4163C36.0389 51.4091 36.1116 51.5038 36.1116 51.737C36.1043 54.2874 36.1043 56.8378 36.1043 59.381C36.1043 59.6433 36.0244 59.8838 35.9009 60.117C35.7266 60.4303 35.4796 60.5906 35.1019 60.5906C33.0388 60.5761 30.9903 60.5833 28.9346 60.5833Z" fill="#282828"/>
<path d="M29.0218 63.6657C27.9903 63.6657 26.9515 63.6657 25.92 63.6657C25.2299 63.6657 24.8376 63.2795 24.8376 62.6018C24.8376 61.9533 25.2372 61.5671 25.9127 61.5598C27.9903 61.5598 30.0679 61.5598 32.1454 61.5598C32.8137 61.5598 33.206 61.9533 33.2133 62.6018C33.2133 63.2576 32.821 63.6511 32.1599 63.6584C31.1139 63.6657 30.0679 63.6657 29.0218 63.6657Z" fill="#282828"/>
<path d="M29.0145 29.366L17.1884 17.5028C13.9195 20.782 12.2778 25.0667 12.2488 29.3587H29.0145V29.366Z" fill="#E0FC36"/>
<path d="M29.0146 29.366V12.5914C24.3946 12.5914 20.2104 14.4569 17.1594 17.4737L29.0146 29.366Z" fill="#FB6020"/>
<path d="M29.0146 29.366H12.2925C12.2925 34.0005 14.1521 38.1978 17.1595 41.2583L29.0146 29.366Z" fill="#66FB33"/>
<path d="M29.0146 29.366L40.8335 41.2219C44.1024 37.9427 45.7441 33.658 45.7731 29.366H29.0146Z" fill="#3A2FFB"/>
<path d="M29.0146 29.366V46.1333C33.6347 46.1333 37.8188 44.2678 40.8698 41.251L29.0146 29.366Z" fill="#1696FB"/>
<path d="M29.0146 29.366L40.8335 17.5101C37.5646 14.231 33.2933 12.5841 29.0146 12.555V29.366Z" fill="#FA1A62"/>
<path d="M29.0146 29.366H45.7295C45.7295 24.7315 43.8699 20.5342 40.8625 17.4737L29.0146 29.366Z" fill="#CE2FF2"/>
<path d="M36.1262 44.4354H29.0291V48.8659H36.1262V44.4354Z" fill="#1696FB"/>
<path d="M29.0217 44.4354H21.9246V48.8659H29.0217V44.4354Z" fill="#40FC8F"/>
<path d="M29.0146 29.366L17.1885 41.2219C20.4574 44.501 24.7287 46.1479 29.0073 46.177V29.366H29.0146Z" fill="#40FC8F"/>
<path d="M28.9563 50.3014C26.6827 50.3014 24.409 50.2941 22.1353 50.3087C21.8374 50.3087 21.7067 50.2213 21.6268 49.9298C20.8277 47.0077 19.295 44.501 17.2465 42.3003C16.0987 41.0616 14.9074 39.8665 13.9848 38.431C11.9799 35.3049 11.0283 31.8946 11.2826 28.1782C11.5005 24.9501 12.641 22.0353 14.4861 19.3901C16.0261 17.1895 17.9075 15.3459 20.2175 13.9686C22.4186 12.6643 24.7867 11.8627 27.3364 11.6368C32.0581 11.2215 36.2714 12.5404 39.8962 15.5645C43.4266 18.5084 45.7439 22.2393 46.4776 26.8447C46.9715 29.9271 46.572 32.9293 45.3371 35.8004C44.4218 37.9355 43.136 39.8155 41.5016 41.4478C39.7509 43.1966 38.2981 45.1423 37.252 47.3939C36.867 48.2174 36.5329 49.0699 36.3004 49.9444C36.2205 50.2358 36.0898 50.3087 35.8065 50.3087C33.5255 50.2941 31.2446 50.3014 28.9563 50.3014ZM28.9636 48.0133C30.6707 48.0133 32.3778 48.0133 34.0849 48.0133C34.3028 48.0133 34.4335 47.9623 34.5134 47.7291C35.5159 44.9091 37.1358 42.4825 39.1988 40.3329C40.2739 39.2107 41.3273 38.0885 42.1408 36.7477C43.9206 33.8038 44.6179 30.6339 44.1022 27.2309C43.4775 23.1211 41.4072 19.8201 38.2109 17.2405C35.0219 14.6609 31.3535 13.5897 27.2638 14.0342C24.7358 14.3111 22.4476 15.2074 20.3773 16.6867C18.4814 18.0421 16.9632 19.7545 15.7718 21.7511C14.1301 24.4983 13.411 27.4641 13.7088 30.6631C14.0066 33.8693 15.3215 36.6238 17.4499 39.0066C18.0673 39.6989 18.7356 40.3474 19.3458 41.0543C21.0456 43.029 22.3677 45.2443 23.3702 47.6563C23.4719 47.9113 23.6099 48.0133 23.8932 48.006C25.593 48.006 27.2783 48.0133 28.9636 48.0133Z" fill="#282828"/>
</svg>
