<svg width="64" height="64" viewBox="0 0 64 64" fill="none" xmlns="http://www.w3.org/2000/svg">
<path d="M13.1571 10.9589C13.1508 10.9589 13.1508 10.9589 13.1445 10.9526C13.1445 10.9526 13.1508 10.9589 13.1571 10.9589Z" fill="#0043FF"/>
<path d="M34.9747 10.9526C34.9684 10.9526 34.9684 10.9526 34.9622 10.9464C34.9622 10.9464 34.9684 10.9526 34.9747 10.9526Z" fill="#0043FF"/>
<path d="M30.9605 54.9698C28.9754 54.9698 26.9965 54.9698 25.0177 54.9698C24.3038 54.9698 23.9343 54.6317 23.8591 53.9178C23.8466 53.8113 23.8529 53.7111 23.8529 53.5984C23.8529 51.1687 23.8529 48.7452 23.8529 46.3154C23.8529 45.8959 23.8529 45.8959 24.2787 45.8959C24.6607 45.8959 25.0427 45.8959 25.4247 45.8959C25.9883 45.8959 25.9883 45.8959 25.9883 46.4469C25.9883 48.3193 25.9883 50.198 25.9883 52.0704C25.9883 52.2019 25.9883 52.3209 25.9883 52.4524C25.9883 52.9659 25.9883 52.9659 26.483 52.9659C27.6916 52.9659 28.9002 52.9659 30.1089 52.9659C31.8998 52.9659 33.6908 52.9597 35.4818 52.9722C35.8012 52.9722 35.9014 52.8845 35.9014 52.5589C35.8889 50.4861 35.8952 48.4258 35.8952 46.3593C35.8952 45.8959 35.8952 45.8959 36.3523 45.8959C36.8282 45.8959 37.3042 45.9021 37.7801 45.8959C38.018 45.8896 38.0932 45.9835 38.0932 46.2152C38.0869 48.7389 38.0869 51.2626 38.0869 53.78C38.0869 54.0368 38.0055 54.2747 37.8865 54.5064C37.7112 54.8195 37.467 54.9761 37.0912 54.9761C35.031 54.9636 32.9957 54.9698 30.9605 54.9698Z" fill="#FCFCFC"/>
<path d="M31.0419 58.0196C30.0149 58.0196 28.9879 58.0196 27.9609 58.0196C27.2783 58.0196 26.8838 57.6376 26.8838 56.9675C26.8838 56.3288 27.2783 55.9405 27.9484 55.9343C30.0086 55.9343 32.0752 55.9343 34.1355 55.9343C34.7992 55.9343 35.1875 56.3225 35.1938 56.9675C35.1938 57.6188 34.8055 58.0071 34.148 58.0133C33.121 58.0196 32.0814 58.0196 31.0419 58.0196Z" fill="#FCFCFC"/>
<path d="M31.0356 24.0783L19.294 12.3366C16.0501 15.5804 14.4219 19.82 14.3906 24.072H31.0356V24.0783Z" fill="#E0FC36"/>
<path d="M31.0358 24.0783V7.47711C26.4518 7.47711 22.2937 9.32447 19.269 12.3116L31.0358 24.0783Z" fill="#FB6020"/>
<path d="M31.0357 24.0782H14.4346C14.4346 28.6622 16.2819 32.8203 19.269 35.845L31.0357 24.0782Z" fill="#66FB33"/>
<path d="M31.0356 24.0783L42.7711 35.8074C46.0149 32.5636 47.6431 28.3241 47.6744 24.072H31.0356V24.0783Z" fill="#3A2FFB"/>
<path d="M31.0356 24.0782V40.6732C35.6196 40.6732 39.7777 38.8258 42.8024 35.8387L31.0356 24.0782Z" fill="#1696FB"/>
<path d="M31.0356 24.0783L42.7711 12.3428C39.5272 9.09901 35.2877 7.47083 31.0356 7.43951V24.0783Z" fill="#FA1A62"/>
<path d="M31.0356 24.0783H47.6306C47.6306 19.4943 45.7832 15.3362 42.7961 12.3115L31.0356 24.0783Z" fill="#CE2FF2"/>
<path d="M38.0995 38.9886H31.0544V43.3722H38.0995V38.9886Z" fill="#1696FB"/>
<path d="M31.0421 38.9886H23.9971V43.3722H31.0421V38.9886Z" fill="#40FC8F"/>
<path d="M31.0356 24.0782L19.2939 35.8074C22.5378 39.0512 26.7773 40.6794 31.0294 40.7107V24.0782H31.0356Z" fill="#40FC8F"/>
<path d="M30.9793 44.7937C28.7249 44.7937 26.4642 44.7875 24.2098 44.8C23.9155 44.8 23.784 44.7123 23.7026 44.4243C22.9073 41.5311 21.3855 39.0513 19.3566 36.872C18.2169 35.6446 17.0333 34.4611 16.119 33.0395C14.1276 29.946 13.182 26.5706 13.4388 22.8947C13.658 19.701 14.7852 16.8141 16.62 14.1965C18.148 12.0172 20.0141 10.1949 22.3124 8.82974C24.4979 7.53972 26.8462 6.74442 29.3824 6.51898C34.0728 6.10567 38.2497 7.41448 41.8505 10.4078C45.3574 13.3198 47.6556 17.0145 48.382 21.5734C48.8705 24.6231 48.476 27.5976 47.2486 30.4344C46.3405 32.5448 45.063 34.411 43.4411 36.0203C41.7002 37.7487 40.2599 39.6775 39.2204 41.9068C38.8384 42.7209 38.5065 43.5663 38.2748 44.4305C38.1934 44.7186 38.0681 44.7937 37.7863 44.7937C35.5131 44.7875 33.2525 44.7937 30.9793 44.7937ZM30.9855 42.5331C32.6826 42.5331 34.3734 42.5331 36.0705 42.5331C36.2897 42.5331 36.4149 42.483 36.4963 42.2513C37.492 39.4583 39.1014 37.0599 41.1491 34.9307C42.2137 33.8223 43.2595 32.7076 44.0673 31.38C45.8333 28.4681 46.5284 25.3307 46.0149 21.9616C45.3949 17.8912 43.3409 14.6286 40.166 12.0736C36.9973 9.51859 33.3589 8.46027 29.301 8.89863C26.7899 9.17416 24.5167 10.0571 22.4626 11.5225C20.5777 12.8626 19.0748 14.5597 17.8912 16.5323C16.263 19.2501 15.5491 22.1871 15.8435 25.3495C16.1378 28.5245 17.4466 31.2485 19.557 33.6094C20.1707 34.292 20.8345 34.937 21.4419 35.6384C23.1264 37.5922 24.4415 39.7839 25.4372 42.1699C25.5374 42.4203 25.6752 42.5205 25.957 42.5143C27.6415 42.5205 29.3135 42.5331 30.9855 42.5331Z" fill="#FCFCFC"/>
</svg>
