<svg width="64" height="64" viewBox="0 0 64 64" fill="none" xmlns="http://www.w3.org/2000/svg">
<path fill-rule="evenodd" clip-rule="evenodd" d="M32.2558 46.0035C30.2954 46.0035 28.3351 45.9988 26.3748 46.0092C26.1178 46.0105 26.0053 45.9349 25.9362 45.6821C25.2488 43.1681 23.9232 41.0158 22.1581 39.1235C21.1666 38.0605 20.1403 37.0312 19.3473 35.7993C17.618 33.1132 16.7991 30.1829 17.0186 26.9912C17.2096 24.2147 18.1869 21.7096 19.7812 19.4398C21.1094 17.5486 22.7307 15.9628 24.7248 14.7803C26.6201 13.6565 28.6644 12.9691 30.8647 12.7774C34.9336 12.4229 38.566 13.5513 41.6933 16.1513C44.7393 18.6837 46.7361 21.8888 47.3678 25.844C47.7909 28.4936 47.4487 31.07 46.3841 33.5433C45.5955 35.3753 44.4859 36.9914 43.0766 38.3942C41.5685 39.8956 40.3146 41.5713 39.412 43.5028C39.0802 44.2125 38.7931 44.9408 38.5888 45.6969C38.5219 45.9447 38.4042 46.0088 38.1646 46.0079C36.1949 46.0001 34.2254 46.0035 32.2558 46.0035ZM32.2601 44.0392C33.7326 44.0392 35.2049 44.037 36.6773 44.042C36.8658 44.0426 36.9757 43.9952 37.0452 43.7992C37.9062 41.3733 39.3078 39.2882 41.0844 37.4435C42.0104 36.482 42.9213 35.5128 43.6191 34.36C45.1503 31.8307 45.7556 29.1051 45.3091 26.1834C44.7697 22.6533 42.9833 19.8155 40.2335 17.5984C37.4861 15.3833 34.3226 14.463 30.7985 14.8443C28.6189 15.0801 26.6437 15.8526 24.8644 17.1259C23.2326 18.2938 21.9241 19.7599 20.8956 21.4796C19.4823 23.8427 18.86 26.3904 19.1188 29.1398C19.3783 31.8952 20.5073 34.2642 22.3431 36.3108C22.8774 36.9063 23.4536 37.4647 23.9764 38.0697C25.4442 39.7685 26.5839 41.673 27.4482 43.7424C27.5387 43.9592 27.6556 44.0466 27.8982 44.0448C29.3521 44.0338 30.8061 44.0393 32.2601 44.0392Z" fill="#FCFCFC"/>
<path fill-rule="evenodd" clip-rule="evenodd" d="M32.2364 54.839C30.5156 54.8391 28.7947 54.8392 27.0738 54.8391C26.456 54.839 26.1318 54.546 26.0648 53.9244C26.055 53.8332 26.056 53.7406 26.0559 53.6487C26.0554 51.5413 26.0552 49.4339 26.0557 47.3264C26.0558 46.962 26.0574 46.9613 26.4225 46.9601C26.7538 46.959 27.0851 46.9596 27.4164 46.9594C27.9035 46.9593 27.904 46.9593 27.904 47.4344C27.9041 49.0633 27.904 50.6921 27.904 52.3209C27.904 52.4314 27.904 52.5418 27.904 52.6523C27.9044 53.0949 27.9044 53.0952 28.3338 53.0953C29.3829 53.0954 30.432 53.0954 31.4811 53.0954C33.0364 53.0954 34.5917 53.0892 36.1468 53.101C36.4222 53.1031 36.5114 53.0282 36.5096 52.7449C36.4979 50.9504 36.5034 49.1559 36.504 47.3614C36.5041 46.9613 36.5055 46.9606 36.8986 46.9598C37.3127 46.9591 37.727 46.9676 38.1409 46.9571C38.3477 46.952 38.4105 47.035 38.41 47.2336C38.405 49.4239 38.4062 51.6141 38.4053 53.8043C38.4052 54.0306 38.3383 54.2393 38.2291 54.4355C38.0781 54.7064 37.8654 54.8451 37.5372 54.8433C35.7704 54.8341 34.0034 54.8389 32.2364 54.839Z" fill="#FCFCFC"/>
<path fill-rule="evenodd" clip-rule="evenodd" d="M19.6343 16.0045C19.6356 16.4904 19.4163 16.7761 19.0585 16.9389C18.6846 17.1091 18.3378 17.0113 18.0488 16.7233C17.2473 15.9244 16.4475 15.1237 15.6473 14.3235C15.1724 13.8485 14.6931 13.3779 14.2254 12.8959C13.9376 12.5992 13.8792 12.2098 14.0454 11.8783C14.229 11.512 14.5888 11.311 14.9938 11.344C15.2187 11.3623 15.3927 11.4773 15.5451 11.6295C16.8147 12.8973 18.0833 14.1659 19.3508 15.4357C19.5252 15.6104 19.6449 15.8133 19.6343 16.0045Z" fill="#FCFCFC"/>
<path fill-rule="evenodd" clip-rule="evenodd" d="M45.9417 17.126C45.4586 17.12 45.183 16.9035 45.0184 16.5591C44.8628 16.2335 44.9209 15.9134 45.1485 15.6291C45.16 15.6148 45.1713 15.6001 45.1842 15.5871C46.4784 14.2922 47.7678 12.9924 49.0701 11.7058C49.4559 11.3247 49.9729 11.3583 50.348 11.7451C50.6939 12.1017 50.7093 12.5855 50.3868 12.9666C50.363 12.9947 50.3377 13.0216 50.3117 13.0476C49.0564 14.3034 47.8012 15.5592 46.5455 16.8147C46.3574 17.0029 46.1458 17.1408 45.9417 17.126Z" fill="#FCFCFC"/>
<path fill-rule="evenodd" clip-rule="evenodd" d="M33.3831 7.08326C33.3831 7.96542 33.3846 8.8475 33.3826 9.72959C33.3812 10.3264 33.0488 10.6637 32.4708 10.6617C31.9115 10.6598 31.5786 10.3194 31.578 9.73848C31.5762 7.94669 31.5762 6.15496 31.5781 4.36317C31.5787 3.78574 31.9151 3.4457 32.4757 3.44483C33.0407 3.44389 33.3804 3.7811 33.3822 4.35428C33.3851 5.26398 33.3831 6.17362 33.3831 7.08326Z" fill="#FCFCFC"/>
<path fill-rule="evenodd" clip-rule="evenodd" d="M11.3234 29.4927C10.4321 29.4927 9.54086 29.4942 8.64956 29.4921C8.05547 29.4907 7.71876 29.1557 7.7217 28.5762C7.72452 28.0185 8.06574 27.6881 8.64925 27.6876C10.441 27.686 12.2328 27.6857 14.0246 27.6878C14.6004 27.6885 14.9386 28.0266 14.9386 28.5897C14.9387 29.1529 14.6004 29.4902 14.0249 29.4919C13.1244 29.4945 12.2239 29.4926 11.3234 29.4927Z" fill="#FCFCFC"/>
<path fill-rule="evenodd" clip-rule="evenodd" d="M53.1979 29.4926C52.2975 29.4926 51.397 29.4944 50.4965 29.4919C49.9198 29.4904 49.5805 29.1541 49.5798 28.5925C49.5793 28.0281 49.9166 27.6885 50.4912 27.6878C52.2921 27.6857 54.093 27.6855 55.894 27.688C56.4633 27.6887 56.7991 28.0336 56.7968 28.601C56.7946 29.1484 56.4549 29.4897 55.8994 29.4917C54.9989 29.4949 54.0984 29.4925 53.1979 29.4926Z" fill="#FCFCFC"/>
<path fill-rule="evenodd" clip-rule="evenodd" d="M32.3117 57.4902C31.4204 57.4902 30.529 57.4916 29.6378 57.4896C29.0413 57.4883 28.7039 57.1557 28.7061 56.5776C28.7081 56.018 29.0483 55.6857 29.6297 55.6851C31.4215 55.6834 33.2133 55.6833 35.005 55.6853C35.5826 55.6859 35.9222 56.0222 35.923 56.5834C35.9238 57.1484 35.5866 57.4876 35.0131 57.4895C34.1126 57.4921 33.2121 57.4901 32.3117 57.4902Z" fill="#FCFCFC"/>
<path fill-rule="evenodd" clip-rule="evenodd" d="M32.3855 31.0387C30.8787 31.0369 29.6991 29.8501 29.7 28.3367C29.7008 26.8164 30.8879 25.6426 32.423 25.644C33.9211 25.6455 35.0975 26.8415 35.0947 28.3604C35.0919 29.8651 33.903 31.0405 32.3855 31.0387ZM32.3974 29.5993C33.1001 29.5994 33.6609 29.0361 33.6558 28.3352C33.6506 27.6305 33.0853 27.0738 32.3852 27.084C31.6914 27.094 31.1463 27.6417 31.1407 28.3341C31.135 29.0344 31.6961 29.5993 32.3974 29.5993Z" fill="#FCFCFC"/>
</svg>
