<svg width="64" height="64" viewBox="0 0 64 64" fill="none" xmlns="http://www.w3.org/2000/svg">
<path d="M30.8305 6.38885C30.8087 6.39614 30.7869 6.39614 30.7651 6.40343C30.7869 6.40343 30.8087 6.39614 30.8305 6.38885Z" fill="#12A71E"/>
<path d="M31.1644 6.32324C31.1208 6.33053 31.0772 6.33782 31.0264 6.35239C31.07 6.33782 31.1208 6.33053 31.1644 6.32324Z" fill="#12A71E"/>
<path d="M35.9808 16.0951C35.9736 16.0951 35.9736 16.0951 35.9663 16.0878C35.9663 16.0878 35.9736 16.0951 35.9808 16.0951Z" fill="#0043FF"/>
<path d="M31.9348 60.5747C29.9372 60.5747 27.9395 60.5747 25.9491 60.5747C25.23 60.5747 24.8595 60.2322 24.7796 59.5108C24.7651 59.4015 24.7723 59.2995 24.7723 59.1901C24.7723 56.7344 24.7723 54.286 24.7723 51.8303C24.7723 51.4077 24.7723 51.4077 25.2009 51.4077C25.5859 51.4077 25.9709 51.4077 26.3559 51.4077C26.9225 51.4077 26.9225 51.4077 26.9225 51.9615C26.9225 53.8561 26.9225 55.7507 26.9225 57.6453C26.9225 57.7765 26.9225 57.9004 26.9225 58.0315C26.9225 58.5489 26.9225 58.5489 27.4238 58.5489C28.6441 58.5489 29.8573 58.5489 31.0776 58.5489C32.8792 58.5489 34.6879 58.5416 36.4895 58.5562C36.8091 58.5562 36.9108 58.4687 36.9108 58.1408C36.8963 56.0495 36.9035 53.9654 36.9035 51.874C36.9035 51.4077 36.9035 51.4077 37.3612 51.4077C37.8406 51.4077 38.32 51.415 38.7995 51.4077C39.0392 51.4004 39.1118 51.4951 39.1118 51.7283C39.1046 54.2787 39.1046 56.8292 39.1046 59.3723C39.1046 59.6347 39.0247 59.8751 38.9012 60.1083C38.7268 60.4216 38.4798 60.582 38.1021 60.582C36.0391 60.5674 33.9906 60.5747 31.9348 60.5747Z" fill="#FCFCFC"/>
<path d="M32.0216 63.657C30.9901 63.657 29.9513 63.657 28.9198 63.657C28.2297 63.657 27.8374 63.2708 27.8374 62.5931C27.8374 61.9446 28.2369 61.5584 28.9125 61.5511C30.9901 61.5511 33.0676 61.5511 35.1452 61.5511C35.8135 61.5511 36.2057 61.9446 36.213 62.5931C36.213 63.2489 35.8207 63.6424 35.1597 63.6497C34.1137 63.657 33.0676 63.657 32.0216 63.657Z" fill="#FCFCFC"/>
<path d="M32.0148 29.3573L20.1887 17.4941C16.9198 20.7733 15.2781 25.058 15.249 29.35H32.0148V29.3573Z" fill="#C0C0C0"/>
<path d="M32.0143 29.3573V12.5828C27.3943 12.5828 23.2101 14.4482 20.1592 17.465L32.0143 29.3573Z" fill="#9F9F9F"/>
<path d="M32.0146 29.3573H15.2925C15.2925 33.9918 17.1521 38.1891 20.1595 41.2496L32.0146 29.3573Z" fill="#DFDFDF"/>
<path d="M32.0146 29.3573L43.8335 41.2132C47.1024 37.9341 48.7441 33.6493 48.7731 29.3573H32.0146Z" fill="#404040"/>
<path d="M32.0146 29.3573V46.1246C36.6347 46.1246 40.8188 44.2591 43.8698 41.2423L32.0146 29.3573Z" fill="#FCFCFC"/>
<path d="M32.0146 29.3573L43.8335 17.5015C40.5646 14.2223 36.2933 12.5755 32.0146 12.5463V29.3573Z" fill="#7F7F7F"/>
<path d="M32.0146 29.3573H48.7295C48.7295 24.7228 46.8699 20.5256 43.8625 17.465L32.0146 29.3573Z" fill="#606060"/>
<path d="M39.1264 44.4268H32.0293V48.8572H39.1264V44.4268Z" fill="#FCFCFC"/>
<path d="M31.9563 50.2927C29.6827 50.2927 27.409 50.2854 25.1353 50.3C24.8374 50.3 24.7067 50.2126 24.6268 49.9211C23.8277 46.999 22.295 44.4923 20.2465 42.2916C19.0987 41.0529 17.9074 39.8578 16.9848 38.4223C14.9799 35.2962 14.0283 31.8859 14.2826 28.1695C14.5005 24.9414 15.641 22.0266 17.4861 19.3814C19.0261 17.1808 20.9075 15.3372 23.2175 13.96C25.4186 12.6556 27.7867 11.854 30.3364 11.6281C35.0581 11.2128 39.2714 12.5317 42.8962 15.5558C46.4266 18.4997 48.7439 22.2306 49.4776 26.836C49.9715 29.9184 49.572 32.9206 48.3371 35.7917C47.4218 37.9268 46.136 39.8068 44.5016 41.4391C42.7509 43.1879 41.2981 45.1336 40.252 47.3852C39.867 48.2087 39.5329 49.0612 39.3004 49.9357C39.2205 50.2271 39.0898 50.3 38.8065 50.3C36.5255 50.2854 34.2446 50.2927 31.9563 50.2927ZM31.9636 48.0046C33.6707 48.0046 35.3778 48.0046 37.0849 48.0046C37.3028 48.0046 37.4335 47.9536 37.5134 47.7204C38.5159 44.9004 40.1358 42.4738 42.1988 40.3242C43.2739 39.202 44.3273 38.0798 45.1408 36.739C46.9206 33.7951 47.6179 30.6252 47.1022 27.2222C46.4775 23.1124 44.4072 19.8114 41.2109 17.2318C38.0219 14.6522 34.3535 13.581 30.2638 14.0255C27.7358 14.3024 25.4476 15.1987 23.3773 16.678C21.4814 18.0334 19.9632 19.7458 18.7718 21.7424C17.1301 24.4896 16.411 27.4554 16.7088 30.6544C17.0066 33.8606 18.3215 36.6151 20.4499 38.9979C21.0673 39.6902 21.7356 40.3387 22.3458 41.0456C24.0456 43.0203 25.3677 45.2356 26.3702 47.6476C26.4719 47.9026 26.6099 48.0046 26.8932 47.9973C28.593 47.9973 30.2783 48.0046 31.9636 48.0046Z" fill="#FCFCFC"/>
</svg>
