<svg width="64" height="64" viewBox="0 0 64 64" fill="none" xmlns="http://www.w3.org/2000/svg">
<path d="M31.3509 6.86102C31.3295 6.86818 31.308 6.86818 31.2866 6.87534C31.308 6.87534 31.3295 6.86818 31.3509 6.86102Z" fill="#12A71E"/>
<path d="M31.6791 6.79663C31.6363 6.80379 31.5934 6.81094 31.5435 6.82526C31.5863 6.81094 31.6363 6.80379 31.6791 6.79663Z" fill="#12A71E"/>
<path d="M36.4122 16.3939C36.4051 16.3939 36.4051 16.3939 36.3979 16.3868C36.3979 16.3868 36.4051 16.3939 36.4122 16.3939Z" fill="#0043FF"/>
<path d="M32.4358 60.0793C30.4726 60.0793 28.5094 60.0793 26.5533 60.0793C25.8466 60.0793 25.4825 59.7429 25.4039 59.0344C25.3897 58.927 25.3968 58.8268 25.3968 58.7195C25.3968 56.3076 25.3968 53.9029 25.3968 51.4911C25.3968 51.076 25.3968 51.076 25.818 51.076C26.1964 51.076 26.5747 51.076 26.9531 51.076C27.5099 51.076 27.5099 51.076 27.5099 51.6199C27.5099 53.4807 27.5099 55.3414 27.5099 57.2022C27.5099 57.331 27.5099 57.4527 27.5099 57.5815C27.5099 58.0897 27.5099 58.0897 28.0025 58.0897C29.2019 58.0897 30.3941 58.0897 31.5934 58.0897C33.3639 58.0897 35.1415 58.0825 36.9119 58.0968C37.226 58.0968 37.326 58.0109 37.326 57.6889C37.3117 55.6349 37.3188 53.588 37.3188 51.534C37.3188 51.076 37.3188 51.076 37.7686 51.076C38.2398 51.076 38.7109 51.0831 39.1821 51.076C39.4177 51.0688 39.4891 51.1619 39.4891 51.3909C39.4819 53.8958 39.4819 56.4007 39.4819 58.8984C39.4819 59.156 39.4034 59.3922 39.282 59.6212C39.1107 59.929 38.868 60.0864 38.4968 60.0864C36.4693 60.0721 34.4561 60.0793 32.4358 60.0793Z" fill="#282828"/>
<path d="M32.5212 63.1066C31.5075 63.1066 30.4866 63.1066 29.4729 63.1066C28.7947 63.1066 28.4092 62.7273 28.4092 62.0617C28.4092 61.4247 28.8018 61.0454 29.4657 61.0383C31.5075 61.0383 33.5492 61.0383 35.591 61.0383C36.2477 61.0383 36.6332 61.4247 36.6404 62.0617C36.6404 62.7058 36.2549 63.0923 35.6052 63.0994C34.5772 63.1066 33.5492 63.1066 32.5212 63.1066Z" fill="#282828"/>
<path d="M32.5143 29.4194L20.8921 17.768C17.6796 20.9886 16.0662 25.1968 16.0376 29.4122H32.5143V29.4194Z" fill="#C0C0C0"/>
<path d="M32.514 29.4194V12.9443C27.9737 12.9443 23.8616 14.7765 20.8633 17.7394L32.514 29.4194Z" fill="#9F9F9F"/>
<path d="M32.5144 29.4194H16.0806C16.0806 33.9711 17.9081 38.0935 20.8637 41.0993L32.5144 29.4194Z" fill="#DFDFDF"/>
<path d="M32.5142 29.4194L44.1292 41.0635C47.3417 37.843 48.9551 33.6347 48.9837 29.4194H32.5142Z" fill="#404040"/>
<path d="M32.5142 29.4194V45.8873C37.0545 45.8873 41.1666 44.0551 44.1649 41.0922L32.5142 29.4194Z" fill="#282828"/>
<path d="M32.5142 29.4194L44.1292 17.7752C40.9167 14.5546 36.719 12.9372 32.5142 12.9086V29.4194Z" fill="#7F7F7F"/>
<path d="M32.5142 29.4194H48.9409C48.9409 24.8676 47.1133 20.7453 44.1578 17.7394L32.5142 29.4194Z" fill="#606060"/>
<path d="M39.5031 44.2197H32.5283V48.5711H39.5031V44.2197Z" fill="#282828"/>
<path d="M32.4571 49.981C30.2226 49.981 27.9881 49.9738 25.7536 49.9881C25.4609 49.9881 25.3324 49.9022 25.2539 49.616C24.4686 46.7461 22.9623 44.2841 20.9491 42.1228C19.8211 40.9061 18.6504 39.7324 17.7437 38.3225C15.7734 35.2522 14.8382 31.9028 15.088 28.2528C15.3022 25.0823 16.423 22.2196 18.2363 19.6217C19.7498 17.4603 21.5987 15.6496 23.8689 14.297C26.032 13.0159 28.3593 12.2287 30.8651 12.0068C35.5054 11.5989 39.646 12.8942 43.2083 15.8643C46.6779 18.7557 48.9552 22.42 49.6762 26.9431C50.1617 29.9705 49.769 32.9191 48.5554 35.7389C47.6559 37.8358 46.3923 39.6823 44.786 41.2854C43.0655 43.0031 41.6378 44.9139 40.6097 47.1254C40.2314 47.9341 39.903 48.7715 39.6745 49.6303C39.596 49.9166 39.4675 49.9881 39.1891 49.9881C36.9475 49.9738 34.7058 49.981 32.4571 49.981ZM32.4642 47.7337C34.1419 47.7337 35.8195 47.7337 37.4972 47.7337C37.7113 47.7337 37.8398 47.6836 37.9184 47.4546C38.9035 44.6849 40.4955 42.3017 42.523 40.1904C43.5796 39.0883 44.6147 37.9861 45.4143 36.6693C47.1633 33.7779 47.8486 30.6647 47.3418 27.3224C46.7278 23.286 44.6932 20.0439 41.5521 17.5104C38.4181 14.9769 34.8129 13.9248 30.7937 14.3614C28.3094 14.6334 26.0606 15.5136 24.026 16.9665C22.1627 18.2977 20.6707 19.9795 19.4999 21.9405C17.8865 24.6386 17.1797 27.5514 17.4724 30.6933C17.7651 33.8423 19.0573 36.5476 21.149 38.8879C21.7558 39.5678 22.4126 40.2047 23.0123 40.8989C24.6828 42.8384 25.9821 45.0141 26.9672 47.383C27.0672 47.6335 27.2028 47.7337 27.4812 47.7266C29.1517 47.7266 30.808 47.7337 32.4642 47.7337Z" fill="#282828"/>
</svg>
