<svg width="64" height="64" viewBox="0 0 64 64" fill="none" xmlns="http://www.w3.org/2000/svg">
<path d="M34.837 10.7147C34.8307 10.7147 34.8307 10.7147 34.8245 10.7084C34.8182 10.7022 34.8307 10.7147 34.837 10.7147Z" fill="#0043FF"/>
<path d="M30.8416 44.5495C28.5872 44.5495 26.3265 44.5432 24.0721 44.5558C23.7778 44.5558 23.6463 44.4681 23.5649 44.18C22.7696 41.2869 21.2479 38.807 19.2189 36.6278C18.0792 35.4004 16.8956 34.2168 15.9813 32.8016C13.9899 29.708 13.0443 26.3327 13.3011 22.6567C13.5203 19.463 14.6475 16.5761 16.4823 13.9585C18.0103 11.7793 19.8764 9.95694 22.1684 8.59178C24.3539 7.30176 26.7023 6.50645 29.2322 6.28727C33.9163 5.87397 38.0995 7.18277 41.7003 10.1761C45.2071 13.0881 47.5054 16.7828 48.2318 21.3354C48.7203 24.3851 48.3257 27.3534 47.0983 30.1965C46.1903 32.3068 44.9128 34.1667 43.2909 35.7824C41.5563 37.5108 40.1097 39.4395 39.0702 41.6689C38.6882 42.483 38.3563 43.3284 38.1246 44.1926C38.0432 44.4806 37.9179 44.5558 37.6361 44.5558C35.3754 44.5432 33.1148 44.5495 30.8416 44.5495ZM30.8478 42.2888C32.5449 42.2888 34.2357 42.2888 35.9328 42.2888C36.152 42.2888 36.2772 42.2387 36.3586 42.007C37.3543 39.2141 38.9637 36.8156 41.0115 34.6865C42.076 33.5781 43.1218 32.4634 43.9297 31.1358C45.6956 28.2239 46.3907 25.0865 45.8772 21.7174C45.2572 17.6532 43.197 14.3906 40.0283 11.8356C36.8659 9.28062 33.2212 8.2223 29.1633 8.66066C26.6522 8.9362 24.3852 9.81917 22.325 11.2845C20.44 12.6247 18.9371 14.3217 17.7535 16.2943C16.1253 19.0121 15.4114 21.9491 15.7058 25.1115C16.0001 28.2865 17.3089 31.0106 19.4193 33.3652C20.033 34.0477 20.6968 34.6928 21.3042 35.3941C22.9888 37.3479 24.3038 39.5397 25.2995 41.9256C25.3997 42.1761 25.5375 42.2763 25.8193 42.2701C27.5038 42.2826 29.1758 42.2888 30.8478 42.2888Z" fill="#282828"/>
<path d="M30.8162 54.7256C28.8311 54.7256 26.8522 54.7256 24.8734 54.7256C24.1595 54.7256 23.79 54.3875 23.7149 53.6736C23.7023 53.5671 23.7086 53.4669 23.7086 53.3542C23.7086 50.9245 23.7086 48.501 23.7086 46.0712C23.7086 45.6517 23.7086 45.6517 24.1344 45.6517C24.5164 45.6517 24.8984 45.6517 25.2804 45.6517C25.844 45.6517 25.844 45.6517 25.844 46.2027C25.844 48.0751 25.844 49.9538 25.844 51.8262C25.844 51.9577 25.844 52.0767 25.844 52.2082C25.844 52.7217 25.844 52.7217 26.3387 52.7217C27.5473 52.7217 28.756 52.7217 29.9646 52.7217C31.7556 52.7217 33.5466 52.7155 35.3376 52.728C35.6569 52.728 35.7571 52.6403 35.7571 52.3147C35.7446 50.2481 35.7509 48.1816 35.7509 46.1151C35.7509 45.6517 35.7509 45.6517 36.208 45.6517C36.6839 45.6517 37.1599 45.6579 37.6358 45.6517C37.8738 45.6454 37.9489 45.7393 37.9489 45.971C37.9426 48.4947 37.9426 51.0184 37.9426 53.5358C37.9426 53.7926 37.8612 54.0305 37.7423 54.2622C37.5669 54.5753 37.3227 54.7319 36.947 54.7319C34.8929 54.7194 32.8577 54.7256 30.8162 54.7256Z" fill="#282828"/>
<path d="M30.9042 57.7753C29.8772 57.7753 28.8502 57.7753 27.8232 57.7753C27.1406 57.7753 26.7461 57.3933 26.7461 56.7233C26.7461 56.0845 27.1406 55.6963 27.8107 55.69C29.8709 55.69 31.9375 55.69 33.9978 55.69C34.6616 55.69 35.0498 56.0783 35.0561 56.7233C35.0561 57.3745 34.6678 57.7628 34.0103 57.7691C32.9833 57.7753 31.9437 57.7753 30.9042 57.7753Z" fill="#282828"/>
<g opacity="0.25">
<path d="M30.8979 23.9217L30.9167 23.8967L30.8979 23.8779V23.9217Z" fill="#020202"/>
<path d="M30.8605 23.8403L19.1314 12.1049C15.8875 15.3487 14.2593 19.5883 14.228 23.834H30.8605V23.8403Z" fill="#020202"/>
</g>
<g opacity="0.375">
<path d="M30.9038 24.0094H30.9414V23.9781L30.9038 24.0094Z" fill="#282828"/>
<path d="M30.9415 23.928V7.32681C26.3576 7.32681 22.1995 9.17417 19.1748 12.155L30.9415 23.928Z" fill="#282828"/>
</g>
<g opacity="0.125">
<path d="M30.9918 23.8591V23.8278H30.9604L30.9918 23.8591Z" fill="#020202"/>
<path d="M30.9103 23.8278H14.3154C14.3154 28.4117 16.1628 32.5699 19.1436 35.5945L30.9103 23.8278Z" fill="#020202"/>
</g>
<g opacity="0.75">
<path d="M30.8917 23.8716L30.8667 23.8904L30.8917 23.9155V23.8716Z" fill="#282828"/>
<path d="M30.9292 23.953L42.6584 35.6822C45.9022 32.4384 47.5304 28.1988 47.5617 23.953H30.9292Z" fill="#282828"/>
</g>
<path d="M30.9541 23.8591H30.9165V23.8841L30.9541 23.8591Z" fill="#282828"/>
<path d="M30.9165 23.9405V40.5292C35.5005 40.5292 39.6586 38.6818 42.6832 35.701L30.9165 23.9405Z" fill="#282828"/>
<g opacity="0.5">
<path d="M30.8853 23.928L30.904 23.953L30.9291 23.928H30.8853Z" fill="#282828"/>
<path d="M30.9731 23.8904L42.7023 12.1612C39.4585 8.91741 35.2189 7.28923 30.9731 7.25792V23.8904Z" fill="#282828"/>
</g>
<g opacity="0.625">
<path d="M30.7979 23.9342V23.9718H30.8229L30.7979 23.9342Z" fill="#282828"/>
<path d="M30.8857 23.9718H47.4744C47.4744 19.3879 45.627 15.2298 42.6462 12.2051L30.8857 23.9718Z" fill="#282828"/>
</g>
<path d="M37.9303 38.4814H30.8853V42.2951H37.9303V38.4814Z" fill="#282828"/>
</svg>
