<svg width="512" height="512" viewBox="0 0 512 512" fill="none" xmlns="http://www.w3.org/2000/svg">
<path d="M147.001 202.13C152.564 202.134 157.998 203.806 162.601 206.93C167.536 210.223 171.577 214.69 174.361 219.93C177.307 225.53 178.847 231.762 178.847 238.09C178.847 244.417 177.307 250.65 174.361 256.25C171.554 261.474 167.518 265.936 162.601 269.25C158.017 272.423 152.576 274.126 147.001 274.13H117.521L119.121 271.25V304.37C119.213 306.948 118.294 309.46 116.561 311.37C115.712 312.297 114.671 313.029 113.51 313.512C112.349 313.996 111.097 314.22 109.841 314.17C108.609 314.208 107.385 313.977 106.252 313.493C105.119 313.01 104.105 312.285 103.281 311.37C101.551 309.457 100.633 306.947 100.721 304.37V211.89C100.695 210.601 100.93 209.32 101.411 208.124C101.892 206.929 102.61 205.842 103.522 204.931C104.433 204.019 105.519 203.301 106.715 202.82C107.911 202.339 109.192 202.104 110.481 202.13H147.001ZM147.001 255.89C149.226 255.811 151.339 254.897 152.921 253.33C154.957 251.467 156.591 249.208 157.721 246.69C159.563 242.749 160.091 238.321 159.227 234.058C158.363 229.795 156.152 225.922 152.921 223.01C151.319 221.484 149.212 220.601 147.001 220.53H117.201L119.121 217.65V258.45L117.361 255.89H147.001Z" fill="#FCFCFC"/>
<path d="M304.24 211.73V304.37C304.284 305.677 304.057 306.98 303.572 308.195C303.087 309.41 302.355 310.511 301.423 311.428C300.49 312.346 299.377 313.06 298.155 313.525C296.932 313.99 295.626 314.196 294.32 314.13C292.979 314.184 291.642 313.964 290.39 313.482C289.138 313.001 287.998 312.268 287.04 311.33C286.116 310.419 285.39 309.327 284.908 308.123C284.426 306.918 284.199 305.627 284.24 304.33V240L257.84 280.25C256.827 281.456 255.608 282.472 254.24 283.25C252.927 284.076 251.388 284.468 249.84 284.37C248.344 284.454 246.859 284.062 245.6 283.25C244.231 282.472 243.012 281.456 242 280.25L215.6 238.51V304.41C215.692 306.988 214.773 309.5 213.04 311.41C212.19 312.336 211.148 313.066 209.988 313.55C208.827 314.033 207.576 314.258 206.32 314.21C205.089 314.248 203.864 314.017 202.731 313.533C201.598 313.05 200.584 312.325 199.76 311.41C198.026 309.5 197.107 306.988 197.2 304.41V211.73C197.194 210.438 197.457 209.158 197.974 207.974C198.491 206.789 199.249 205.725 200.2 204.85C201.133 203.917 202.244 203.182 203.467 202.687C204.69 202.192 206 201.948 207.32 201.97C208.964 202.007 210.578 202.418 212.04 203.17C213.552 203.852 214.851 204.93 215.8 206.29L250.63 259.9L286.52 206.29C287.352 204.963 288.509 203.871 289.88 203.115C291.252 202.359 292.794 201.965 294.36 201.97C296.915 201.97 299.375 202.942 301.24 204.69C302.226 205.571 303.007 206.659 303.525 207.875C304.044 209.092 304.288 210.408 304.24 211.73Z" fill="#FCFCFC"/>
<path d="M409.68 211.89V304.37C409.71 305.683 409.458 306.988 408.94 308.195C408.423 309.403 407.652 310.486 406.68 311.37C404.617 313.272 401.884 314.279 399.08 314.17C397.728 314.22 396.38 313.998 395.116 313.517C393.852 313.036 392.697 312.305 391.72 311.37C390.775 310.47 390.031 309.382 389.535 308.176C389.038 306.97 388.802 305.673 388.84 304.37V228.91L379.4 235.91C377.792 237.124 375.814 237.746 373.8 237.67C372.543 237.674 371.298 237.42 370.142 236.925C368.986 236.43 367.944 235.703 367.08 234.79C366.155 233.901 365.422 232.832 364.927 231.648C364.431 230.465 364.184 229.192 364.2 227.91C364.2 224.496 365.867 221.723 369.2 219.59L392.2 204.23C393.288 203.474 394.51 202.931 395.8 202.63C397.03 202.322 398.292 202.161 399.56 202.15C400.914 202.083 402.266 202.297 403.533 202.779C404.8 203.261 405.953 204 406.92 204.95C407.819 205.864 408.527 206.949 409.001 208.141C409.475 209.333 409.706 210.607 409.68 211.89Z" fill="#FCFCFC"/>
<path d="M87.9993 157C85.3695 157 82.8455 155.964 80.9738 154.117C79.1022 152.27 78.0335 149.76 77.9993 147.13C77.831 133.964 81.7584 121.071 89.2381 110.235C96.7179 99.3982 107.38 91.154 119.75 86.6426C132.121 82.1312 145.587 81.5755 158.287 85.0523C170.987 88.5292 182.292 95.8667 190.639 106.05C192.27 108.108 193.026 110.724 192.745 113.335C192.463 115.945 191.165 118.34 189.133 120.002C187.101 121.664 184.496 122.461 181.881 122.219C179.267 121.977 176.853 120.717 175.159 118.71C169.438 111.738 161.692 106.715 152.992 104.337C144.292 101.958 135.068 102.342 126.596 105.434C118.123 108.526 110.82 114.174 105.697 121.597C100.575 129.02 97.8846 137.851 97.9993 146.87C98.0165 148.183 97.7748 149.487 97.2881 150.707C96.8014 151.927 96.0791 153.039 95.1626 153.979C94.246 154.92 93.1532 155.671 91.9464 156.189C90.7396 156.707 89.4426 156.983 88.1293 157H87.9993Z" fill="#00D151"/>
<path d="M489.17 75.6102C488.33 75.6116 487.493 75.504 486.68 75.2902C484.111 74.6308 481.91 72.9783 480.56 70.6961C479.21 68.4138 478.821 65.6888 479.48 63.1202C480.341 59.7178 480.125 56.1321 478.861 52.858C477.597 49.5838 475.348 46.7826 472.424 44.8412C469.501 42.8997 466.046 41.9137 462.538 42.0192C459.03 42.1247 455.642 43.3165 452.84 45.4302C450.718 47.0215 448.051 47.7047 445.426 47.3297C442.8 46.9546 440.431 45.5519 438.84 43.4302C437.249 41.3084 436.565 38.6415 436.94 36.016C437.315 33.3905 438.718 31.0215 440.84 29.4302C446.952 24.8177 454.346 22.2181 462 21.9909C469.654 21.7636 477.19 23.9199 483.565 28.1616C489.94 32.4033 494.84 38.5209 497.587 45.6685C500.334 52.8161 500.793 60.6406 498.9 68.0602C498.353 70.2239 497.098 72.1426 495.335 73.5108C493.572 74.8789 491.402 75.6179 489.17 75.6102Z" fill="#00D151"/>
<path d="M160.409 496C155.321 495.997 150.288 494.945 145.625 492.909C140.962 490.874 136.768 487.898 133.307 484.168C129.846 480.439 127.191 476.035 125.509 471.233C123.826 466.431 123.153 461.334 123.529 456.26C123.629 454.95 123.986 453.672 124.579 452.5C125.173 451.328 125.992 450.284 126.988 449.429C127.985 448.573 129.141 447.922 130.389 447.513C131.638 447.104 132.954 446.945 134.264 447.045C135.574 447.144 136.852 447.501 138.024 448.095C139.196 448.688 140.239 449.507 141.095 450.504C141.951 451.5 142.602 452.656 143.011 453.904C143.42 455.153 143.579 456.47 143.479 457.78C143.217 461.281 144.049 464.777 145.86 467.785C147.672 470.793 150.373 473.164 153.59 474.569C156.808 475.975 160.383 476.346 163.82 475.631C167.258 474.917 170.389 473.151 172.779 470.58C173.674 469.618 174.749 468.841 175.943 468.295C177.137 467.748 178.428 467.442 179.74 467.395C181.053 467.347 182.362 467.558 183.593 468.016C184.824 468.474 185.952 469.17 186.914 470.065C187.876 470.959 188.653 472.034 189.199 473.228C189.746 474.423 190.051 475.713 190.099 477.025C190.147 478.338 189.936 479.647 189.478 480.878C189.02 482.109 188.324 483.238 187.429 484.2C183.979 487.919 179.799 490.887 175.15 492.917C170.501 494.948 165.483 495.997 160.409 496Z" fill="#FCFCFC"/>
<path d="M28.4204 220.44C26.9735 220.44 25.5438 220.127 24.2299 219.521C22.9161 218.915 21.7494 218.031 20.8104 216.93C15.8366 211.106 12.7961 203.88 12.1096 196.252C11.4232 188.624 13.1247 180.971 16.9788 174.352C20.8328 167.734 26.6488 162.477 33.6218 159.309C40.5949 156.141 48.3802 155.219 55.9004 156.67C57.2148 156.893 58.4715 157.376 59.5965 158.091C60.7216 158.806 61.6923 159.739 62.4516 160.834C63.2109 161.93 63.7434 163.166 64.0179 164.471C64.2924 165.776 64.3033 167.122 64.0499 168.431C63.7966 169.739 63.2841 170.984 62.5426 172.092C61.8011 173.2 60.8456 174.148 59.7323 174.882C58.6189 175.615 57.3702 176.118 56.0596 176.362C54.7489 176.605 53.4028 176.584 52.1003 176.3C48.6491 175.654 45.0823 176.091 41.89 177.554C38.6977 179.016 36.0364 181.431 34.272 184.467C32.5075 187.502 31.7264 191.01 32.0358 194.508C32.3453 198.005 33.7302 201.321 36.0004 204C37.2398 205.453 38.0373 207.231 38.2985 209.122C38.5597 211.014 38.2737 212.941 37.4743 214.676C36.6749 216.41 35.3956 217.88 33.7876 218.91C32.1796 219.94 30.3102 220.489 28.4004 220.49L28.4204 220.44Z" fill="#FCFCFC"/>
<path d="M452.429 292.86C450.053 292.864 447.752 292.021 445.94 290.483C444.128 288.945 442.923 286.811 442.542 284.465C442.16 282.119 442.627 279.714 443.858 277.681C445.089 275.648 447.004 274.119 449.259 273.37C452.593 272.252 455.496 270.125 457.566 267.283C459.637 264.442 460.773 261.027 460.817 257.512C460.861 253.996 459.811 250.554 457.812 247.662C455.813 244.77 452.964 242.571 449.659 241.37C447.212 240.427 445.233 238.561 444.148 236.173C443.064 233.784 442.961 231.066 443.862 228.603C444.763 226.139 446.596 224.129 448.965 223.004C451.335 221.879 454.051 221.731 456.529 222.59C463.721 225.22 469.917 230.019 474.262 236.324C478.608 242.629 480.887 250.128 480.784 257.785C480.682 265.441 478.204 272.877 473.692 279.063C469.181 285.25 462.858 289.883 455.599 292.32C454.579 292.67 453.508 292.852 452.429 292.86Z" fill="#00D151"/>
<path d="M467.63 401C455.898 404.243 443.409 403.36 432.25 398.5C429.937 409.297 425.044 419.373 417.99 427.868C410.935 436.363 401.929 443.023 391.74 447.28C389.097 448.387 386.385 449.319 383.62 450.07C379.648 451.157 375.584 451.876 371.48 452.22C369.54 452.4 367.6 452.48 365.66 452.48C349.006 452.474 332.938 446.337 320.52 435.24C319.507 434.376 318.678 433.319 318.079 432.131C317.48 430.942 317.125 429.646 317.033 428.319C316.942 426.991 317.116 425.659 317.547 424.399C317.977 423.14 318.654 421.979 319.538 420.985C320.423 419.991 321.497 419.183 322.697 418.609C323.898 418.035 325.201 417.707 326.53 417.643C327.859 417.579 329.188 417.781 330.438 418.238C331.688 418.694 332.834 419.395 333.81 420.3C340.908 426.616 349.722 430.683 359.133 431.986C368.545 433.289 378.132 431.77 386.68 427.62C395.227 423.471 402.351 416.878 407.149 408.676C411.946 400.475 414.202 391.034 413.63 381.55C413.505 379.545 413.986 377.55 415.011 375.823C416.036 374.096 417.557 372.718 419.376 371.868C421.195 371.018 423.229 370.735 425.211 371.056C427.193 371.377 429.032 372.288 430.49 373.67C435.788 378.709 442.59 381.874 449.857 382.684C457.124 383.493 464.456 381.901 470.733 378.15C477.01 374.4 481.887 368.699 484.619 361.916C487.35 355.133 487.786 347.643 485.86 340.59C485.496 339.281 485.062 337.992 484.56 336.73C484.032 335.505 483.754 334.186 483.743 332.852C483.732 331.518 483.988 330.195 484.496 328.962C485.004 327.728 485.753 326.609 486.701 325.669C487.648 324.73 488.773 323.989 490.011 323.492C491.249 322.994 492.574 322.749 493.908 322.771C495.242 322.793 496.558 323.082 497.778 323.62C498.999 324.159 500.099 324.936 501.015 325.906C501.931 326.876 502.643 328.02 503.11 329.27C503.908 331.249 504.592 333.272 505.16 335.33C508.873 349.014 507.007 363.613 499.972 375.924C492.936 388.235 481.305 397.253 467.63 401Z" fill="#FCFCFC"/>
<path d="M391.741 447.28C391.776 460.058 387.958 472.55 380.786 483.126C373.613 493.701 363.419 501.869 351.534 506.563C339.649 511.256 326.626 512.258 314.162 509.437C301.699 506.617 290.376 500.104 281.671 490.75C280.751 489.793 280.03 488.661 279.552 487.423C279.074 486.184 278.847 484.862 278.885 483.534C278.923 482.207 279.225 480.9 279.774 479.691C280.322 478.481 281.106 477.393 282.08 476.49C283.053 475.587 284.197 474.886 285.444 474.43C286.692 473.974 288.017 473.77 289.344 473.832C290.67 473.893 291.972 474.218 293.171 474.788C294.371 475.358 295.445 476.161 296.331 477.15C302.01 483.263 309.326 487.614 317.408 489.686C325.491 491.758 333.998 491.462 341.917 488.835C349.836 486.208 356.833 481.36 362.075 474.868C367.316 468.377 370.581 460.515 371.481 452.22C375.585 451.877 379.649 451.157 383.621 450.07C386.386 449.319 389.098 448.387 391.741 447.28Z" fill="#00D151"/>
<path d="M115.001 437.4C102.773 444.471 88.5946 447.42 74.5613 445.814C60.528 444.207 47.3836 438.129 37.07 428.478C26.7563 418.827 19.8204 406.114 17.2869 392.219C14.7533 378.323 16.7566 363.98 23.0006 351.31C17.822 346.984 13.612 341.616 10.6443 335.555C7.67657 329.494 6.01758 322.877 5.77518 316.133C5.53278 309.39 6.7124 302.67 9.23734 296.412C11.7623 290.154 15.576 284.498 20.4306 279.81C22.3397 277.979 24.8969 276.978 27.5421 277.028C30.1873 277.078 32.705 278.174 34.5437 280.076C36.3825 281.979 37.3925 284.532 37.3525 287.177C37.3126 289.823 36.226 292.345 34.3306 294.19C30.4467 297.951 27.7271 302.751 26.4965 308.015C25.2659 313.28 25.5763 318.787 27.3906 323.88C29.4993 329.87 33.5969 334.956 39.0006 338.29C42.2769 340.325 45.9364 341.664 49.7519 342.224C53.5674 342.785 57.4575 342.556 61.1806 341.55C63.7399 340.854 66.471 341.203 68.773 342.521C71.075 343.838 72.7594 346.016 73.4556 348.575C74.1518 351.135 73.8028 353.866 72.4853 356.168C71.1679 358.47 68.9899 360.154 66.4306 360.85C57.9842 363.136 49.0742 363.074 40.6606 360.67C37.1894 367.952 35.6973 376.02 36.3346 384.062C36.9718 392.104 39.7159 399.836 44.2906 406.48C50.1395 415.026 58.7352 421.314 68.6506 424.3C74.6739 426.126 81.0077 426.696 87.2601 425.975C93.5126 425.254 99.5506 423.258 105.001 420.11C106.138 419.372 107.415 418.872 108.751 418.643C110.088 418.413 111.458 418.457 112.777 418.774C114.096 419.09 115.337 419.671 116.424 420.482C117.512 421.294 118.423 422.317 119.102 423.492C119.781 424.666 120.214 425.966 120.375 427.313C120.536 428.66 120.421 430.025 120.037 431.326C119.653 432.627 119.009 433.837 118.143 434.881C117.277 435.925 116.208 436.782 115.001 437.4Z" fill="#FCFCFC"/>
<path d="M336.769 86.0001C336.218 86.0959 335.659 86.1428 335.099 86.1401C332.737 86.1374 330.452 85.2985 328.649 83.7719C326.846 82.2453 325.642 80.1297 325.249 77.8001C324.212 71.6872 321.175 66.0915 316.615 61.8907C312.054 57.6898 306.229 55.1215 300.051 54.5884C293.874 54.0553 287.695 55.5877 282.482 58.9451C277.269 62.3026 273.319 67.2953 271.249 73.1401C270.834 74.4009 270.171 75.5662 269.3 76.5681C268.428 77.57 267.367 78.3885 266.176 78.9757C264.985 79.5629 263.689 79.9071 262.364 79.9882C261.039 80.0694 259.711 79.8858 258.458 79.4483C257.204 79.0108 256.05 78.328 255.063 77.4399C254.077 76.5517 253.276 75.476 252.71 74.2754C252.143 73.0748 251.821 71.7733 251.763 70.4469C251.704 69.1206 251.911 67.7959 252.369 66.5501C254.504 60.4476 257.859 54.8437 262.229 50.0801C258.257 40.7174 251.283 32.9418 242.406 27.9775C233.529 23.0132 223.253 21.142 213.196 22.6586C203.139 24.1752 193.872 28.9934 186.854 36.3546C179.836 43.7159 175.465 53.2022 174.429 63.3201C174.182 65.785 173.028 68.0702 171.191 69.733C169.355 71.3957 166.967 72.3176 164.489 72.3201C164.155 72.3193 163.821 72.2992 163.489 72.2601C162.179 72.1278 160.908 71.7379 159.748 71.1128C158.589 70.4877 157.565 69.6398 156.734 68.6177C155.903 67.5956 155.283 66.4194 154.908 65.1568C154.533 63.8942 154.411 62.5699 154.549 61.2601C155.997 47.101 161.995 33.7923 171.643 23.3283C181.29 12.8642 194.069 5.80837 208.065 3.21791C222.06 0.627449 236.518 2.6419 249.272 8.95941C262.026 15.2769 272.389 25.5573 278.809 38.2601C285.49 35.3972 292.734 34.0904 299.994 34.4385C307.253 34.7866 314.339 36.7805 320.715 40.2695C327.091 43.7585 332.59 48.6512 336.797 54.5779C341.004 60.5046 343.809 67.3101 344.999 74.4801C345.217 75.7771 345.177 77.1042 344.881 78.3855C344.584 79.6668 344.039 80.8772 343.274 81.9472C342.51 83.0173 341.542 83.9261 340.425 84.6215C339.309 85.317 338.067 85.7854 336.769 86.0001Z" fill="#FCFCFC"/>
<path d="M486.05 190.44C484.822 190.438 483.604 190.207 482.46 189.76C479.986 188.807 477.992 186.911 476.916 184.488C475.839 182.065 475.769 179.314 476.72 176.84C478.537 172.101 479.264 167.014 478.849 161.955C478.433 156.897 476.885 151.997 474.319 147.618C471.753 143.239 468.235 139.493 464.026 136.658C459.816 133.823 455.022 131.971 450 131.24C447.798 130.918 445.767 129.87 444.227 128.264C442.688 126.657 441.728 124.583 441.5 122.37C441.098 118.435 439.721 114.663 437.494 111.395C435.267 108.128 432.259 105.467 428.745 103.654C425.23 101.841 421.319 100.933 417.365 101.013C413.411 101.092 409.539 102.157 406.1 104.11C403.791 105.417 401.058 105.754 398.501 105.046C395.944 104.338 393.773 102.643 392.465 100.335C391.158 98.0259 390.821 95.2923 391.529 92.7353C392.237 90.1782 393.931 88.0071 396.24 86.6996C402.023 83.4248 408.475 81.5088 415.108 81.0969C421.741 80.685 428.381 81.7879 434.525 84.3221C440.669 86.8562 446.155 90.7552 450.569 95.7238C454.983 100.692 458.208 106.6 460 113C461.54 113.44 463.07 114 464.56 114.53C477.846 119.672 488.55 129.873 494.328 142.895C500.105 155.917 500.483 170.699 495.38 184C494.66 185.891 493.382 187.52 491.716 188.669C490.05 189.819 488.074 190.437 486.05 190.44Z" fill="#FCFCFC"/>
<path d="M467.43 485C478.475 485 487.43 476.046 487.43 465C487.43 453.954 478.475 445 467.43 445C456.384 445 447.43 453.954 447.43 465C447.43 476.046 456.384 485 467.43 485Z" fill="#FCFCFC"/>
<path d="M250 145C261.046 145 270 136.046 270 125C270 113.954 261.046 105 250 105C238.954 105 230 113.954 230 125C230 136.046 238.954 145 250 145Z" fill="#FCFCFC"/>
<path d="M44 496C55.0457 496 64 487.046 64 476C64 464.954 55.0457 456 44 456C32.9543 456 24 464.954 24 476C24 487.046 32.9543 496 44 496Z" fill="#FCFCFC"/>
<path d="M234 463C245.046 463 254 454.046 254 443C254 431.954 245.046 423 234 423C222.954 423 214 431.954 214 443C214 454.046 222.954 463 234 463Z" fill="#FCFCFC"/>
<path d="M131 397C142.046 397 151 388.046 151 377C151 365.954 142.046 357 131 357C119.954 357 111 365.954 111 377C111 388.046 119.954 397 131 397Z" fill="#FCFCFC"/>
<path d="M350 387C361.046 387 370 378.046 370 367C370 355.954 361.046 347 350 347C338.954 347 330 355.954 330 367C330 378.046 338.954 387 350 387Z" fill="#FCFCFC"/>
<path d="M344 172C355.046 172 364 163.046 364 152C364 140.954 355.046 132 344 132C332.954 132 324 140.954 324 152C324 163.046 332.954 172 344 172Z" fill="#FCFCFC"/>
<path d="M391 63C402.046 63 411 54.0457 411 43C411 31.9543 402.046 23 391 23C379.954 23 371 31.9543 371 43C371 54.0457 379.954 63 391 63Z" fill="#FCFCFC"/>
<path d="M101 51C112.046 51 121 42.0457 121 31C121 19.9543 112.046 11 101 11C89.9543 11 81 19.9543 81 31C81 42.0457 89.9543 51 101 51Z" fill="#FCFCFC"/>
<path d="M39 113C50.0457 113 59 104.046 59 93C59 81.9543 50.0457 73 39 73C27.9543 73 19 81.9543 19 93C19 104.046 27.9543 113 39 113Z" fill="#FCFCFC"/>
</svg>
