<?xml version="1.0" encoding="UTF-8"?>
<svg height="600" width="800" xmlns="http://www.w3.org/2000/svg" xmlns:xlink="http://www.w3.org/1999/xlink">
    <g id="Notes" font-family="'LucidaGrande', 'Lucida Grande', sans-serif" font-size="13">
        <rect fill="white" height="600.0" width="800.0" x="0.0" y="0.0" />
        <g font-size="13">
            <text x="18.0" y="176.0">Small</text>
            <text x="18.0" y="376.0">Medium</text>
            <text x="18.0" y="576.0">Large</text>
        </g>
        <g font-size="9">
            <text x="250.0" y="30.0">Ultralight</text>
            <text x="450.0" y="30.0">Regular</text>
            <text x="650.0" y="30.0">Black</text>
            <text id="template-version" fill="#505050" text-anchor="end" x="785.0" y="575.0">Template v.3.0</text>
            <a href="https://github.com/swhitty/SwiftDraw">
                <text fill="#505050" text-anchor="end" x="785.0" y="590.0">https://github.com/swhitty/SwiftDraw</text>
            </a>
        </g>
    </g>
    <g id="Guides" stroke="rgb(39, 170, 225)" stroke-width="0.5">
        <path id="Capline-S" d="M18,76 l800,0" />
        <path id="H-reference" d="M85,145.755 L87.685,145.755 L113.369,79.287 L114.052,79.287 L114.052,76 L112.148,76 L85,145.755 Z M95.693,121.536 L130.996,121.536 L130.263,119.313 L96.474,119.313 L95.693,121.536 Z M139.15,145.755 L141.787,145.755 L114.638,76 L113.466,76 L113.466,79.287 L139.15,145.755 Z" stroke="none" />
        <path id="Baseline-S" d="M18,146 l800,0" />
        <path id="left-margin-Ultralight-S" d="M221,56 l0,110" />
        <path id="right-margin-Ultralight-S" d="M309,56 l0,110" />
        <path id="left-margin-Regular-S" d="M421,56 l0,110" />
        <path id="right-margin-Regular-S" d="M509,56 l0,110" />
        <path id="left-margin-Black-S" d="M621,56 l0,110" />
        <path id="right-margin-Black-S" d="M709,56 l0,110" />
        <path id="Capline-M" d="M18,276 l800,0" />
        <path id="Baseline-M" d="M18,346 l800,0" />
        <path id="Capline-L" d="M18,476 l800,0" />
        <path id="Baseline-L" d="M18,546 l800,0" />
    </g>
    <g id="Symbols">
        <g id="Ultralight-S">
            <path d="M264.987,128.042 C261.926,128.042 258.865,128.035 255.804,128.051 C255.403,128.053 255.227,127.935 255.119,127.539 C254.046,123.609 251.976,120.245 249.22,117.286 C247.672,115.624 246.069,114.015 244.831,112.09 C242.131,107.89 240.852,103.309 241.195,98.32 C241.493,93.979 243.019,90.063 245.508,86.515 C247.582,83.558 250.114,81.079 253.228,79.23 C256.187,77.474 259.379,76.399 262.815,76.099 C269.169,75.545 274.841,77.309 279.724,81.374 C284.48,85.333 287.598,90.343 288.584,96.526 C289.245,100.668 288.711,104.696 287.049,108.563 C285.817,111.427 284.085,113.953 281.884,116.146 C279.529,118.493 277.571,121.113 276.162,124.132 C275.644,125.242 275.195,126.38 274.876,127.562 C274.772,127.95 274.588,128.05 274.214,128.049 C271.138,128.036 268.063,128.042 264.987,128.042 Z M264.994,124.971 C267.293,124.971 269.592,124.968 271.891,124.975 C272.186,124.976 272.357,124.902 272.466,124.596 C273.81,120.803 275.999,117.544 278.773,114.66 C280.219,113.157 281.641,111.642 282.731,109.84 C285.122,105.886 286.067,101.625 285.37,97.057 C284.528,91.538 281.738,87.102 277.444,83.636 C273.154,80.173 268.215,78.735 262.712,79.331 C259.308,79.699 256.224,80.907 253.446,82.897 C250.898,84.723 248.855,87.015 247.248,89.704 C245.042,93.398 244.07,97.381 244.474,101.679 C244.879,105.986 246.642,109.69 249.509,112.889 C250.343,113.82 251.243,114.693 252.059,115.639 C254.351,118.295 256.131,121.272 257.48,124.507 C257.622,124.846 257.804,124.983 258.183,124.98 C260.453,124.963 262.724,124.971 264.994,124.971 Z" />
            <path d="M264.957,141.854 C262.27,141.854 259.583,141.855 256.896,141.854 C255.931,141.854 255.425,141.396 255.32,140.424 C255.305,140.282 255.307,140.137 255.307,139.993 C255.306,136.699 255.305,133.404 255.306,130.11 C255.306,129.54 255.309,129.539 255.879,129.537 C256.396,129.536 256.914,129.536 257.431,129.536 C258.191,129.536 258.192,129.536 258.192,130.279 C258.192,132.825 258.192,135.371 258.192,137.918 C258.192,138.09 258.192,138.263 258.192,138.436 C258.193,139.128 258.193,139.128 258.863,139.128 C260.502,139.129 262.14,139.128 263.778,139.128 C266.206,139.128 268.635,139.119 271.063,139.137 C271.493,139.141 271.633,139.024 271.63,138.581 C271.612,135.775 271.62,132.97 271.621,130.165 C271.621,129.539 271.624,129.538 272.237,129.537 C272.884,129.536 273.531,129.549 274.177,129.533 C274.5,129.525 274.598,129.654 274.597,129.965 C274.589,133.389 274.591,136.813 274.59,140.237 C274.59,140.591 274.485,140.917 274.315,141.223 C274.079,141.647 273.747,141.864 273.234,141.861 C270.476,141.847 267.716,141.854 264.957,141.854 Z" />
            <path d="M265.075,145.999 C263.683,145.999 262.291,146.001 260.899,145.998 C259.968,145.996 259.441,145.476 259.444,144.572 C259.447,143.698 259.979,143.178 260.887,143.177 C263.684,143.174 266.482,143.174 269.28,143.177 C270.182,143.178 270.712,143.704 270.713,144.581 C270.715,145.465 270.188,145.995 269.293,145.998 C267.887,146.002 266.48,145.999 265.075,145.999 Z" />
        </g>
        <g id="Regular-S">
            <path d="M464.987,128.042 C461.926,128.042 458.865,128.035 455.804,128.051 C455.403,128.053 455.227,127.935 455.119,127.539 C454.046,123.609 451.976,120.245 449.22,117.286 C447.672,115.624 446.069,114.015 444.831,112.09 C442.131,107.89 440.852,103.309 441.195,98.32 C441.493,93.979 443.019,90.063 445.508,86.515 C447.582,83.558 450.114,81.079 453.228,79.23 C456.187,77.474 459.379,76.399 462.815,76.099 C469.169,75.545 474.841,77.309 479.724,81.374 C484.48,85.333 487.598,90.343 488.584,96.526 C489.245,100.668 488.711,104.696 487.049,108.563 C485.817,111.427 484.085,113.953 481.884,116.146 C479.529,118.493 477.571,121.113 476.162,124.132 C475.644,125.242 475.195,126.38 474.876,127.562 C474.772,127.95 474.588,128.05 474.214,128.049 C471.138,128.036 468.063,128.042 464.987,128.042 Z M464.994,124.971 C467.293,124.971 469.592,124.968 471.891,124.975 C472.186,124.976 472.357,124.902 472.466,124.596 C473.81,120.803 475.999,117.544 478.773,114.66 C480.219,113.157 481.641,111.642 482.731,109.84 C485.122,105.886 486.067,101.625 485.37,97.057 C484.528,91.538 481.738,87.102 477.444,83.636 C473.154,80.173 468.215,78.735 462.712,79.331 C459.308,79.699 456.224,80.907 453.446,82.897 C450.898,84.723 448.855,87.015 447.248,89.704 C445.042,93.398 444.07,97.381 444.474,101.679 C444.879,105.986 446.642,109.69 449.509,112.889 C450.343,113.82 451.243,114.693 452.059,115.639 C454.351,118.295 456.131,121.272 457.48,124.507 C457.622,124.846 457.804,124.983 458.183,124.98 C460.453,124.963 462.724,124.971 464.994,124.971 Z" />
            <path d="M464.957,141.854 C462.27,141.854 459.583,141.855 456.896,141.854 C455.931,141.854 455.425,141.396 455.32,140.424 C455.305,140.282 455.307,140.137 455.307,139.993 C455.306,136.699 455.305,133.404 455.306,130.11 C455.306,129.54 455.309,129.539 455.879,129.537 C456.396,129.536 456.914,129.536 457.431,129.536 C458.191,129.536 458.192,129.536 458.192,130.279 C458.192,132.825 458.192,135.371 458.192,137.918 C458.192,138.09 458.192,138.263 458.192,138.436 C458.193,139.128 458.193,139.128 458.863,139.128 C460.502,139.129 462.14,139.128 463.778,139.128 C466.206,139.128 468.635,139.119 471.063,139.137 C471.493,139.141 471.633,139.024 471.63,138.581 C471.612,135.775 471.62,132.97 471.621,130.165 C471.621,129.539 471.624,129.538 472.237,129.537 C472.884,129.536 473.531,129.549 474.177,129.533 C474.5,129.525 474.598,129.654 474.597,129.965 C474.589,133.389 474.591,136.813 474.59,140.237 C474.59,140.591 474.485,140.917 474.315,141.223 C474.079,141.647 473.747,141.864 473.234,141.861 C470.476,141.847 467.716,141.854 464.957,141.854 Z" />
            <path d="M465.075,145.999 C463.683,145.999 462.291,146.001 460.899,145.998 C459.968,145.996 459.441,145.476 459.444,144.572 C459.447,143.698 459.979,143.178 460.887,143.177 C463.684,143.174 466.482,143.174 469.28,143.177 C470.182,143.178 470.712,143.704 470.713,144.581 C470.715,145.465 470.188,145.995 469.293,145.998 C467.887,146.002 466.48,145.999 465.075,145.999 Z" />
        </g>
        <g id="Black-S">
            <path d="M664.987,128.042 C661.926,128.042 658.865,128.035 655.804,128.051 C655.403,128.053 655.227,127.935 655.119,127.539 C654.046,123.609 651.976,120.245 649.22,117.286 C647.672,115.624 646.069,114.015 644.831,112.09 C642.131,107.89 640.852,103.309 641.195,98.32 C641.493,93.979 643.019,90.063 645.508,86.515 C647.582,83.558 650.114,81.079 653.228,79.23 C656.187,77.474 659.379,76.399 662.815,76.099 C669.169,75.545 674.841,77.309 679.724,81.374 C684.48,85.333 687.598,90.343 688.584,96.526 C689.245,100.668 688.711,104.696 687.049,108.563 C685.817,111.427 684.085,113.953 681.884,116.146 C679.529,118.493 677.571,121.113 676.162,124.132 C675.644,125.242 675.195,126.38 674.876,127.562 C674.772,127.95 674.588,128.05 674.214,128.049 C671.138,128.036 668.063,128.042 664.987,128.042 Z M664.994,124.971 C667.293,124.971 669.592,124.968 671.891,124.975 C672.186,124.976 672.357,124.902 672.466,124.596 C673.81,120.803 675.999,117.544 678.773,114.66 C680.219,113.157 681.641,111.642 682.731,109.84 C685.122,105.886 686.067,101.625 685.37,97.057 C684.528,91.538 681.738,87.102 677.444,83.636 C673.154,80.173 668.215,78.735 662.712,79.331 C659.308,79.699 656.224,80.907 653.446,82.897 C650.898,84.723 648.855,87.015 647.248,89.704 C645.042,93.398 644.07,97.381 644.474,101.679 C644.879,105.986 646.642,109.69 649.509,112.889 C650.343,113.82 651.243,114.693 652.059,115.639 C654.351,118.295 656.131,121.272 657.48,124.507 C657.622,124.846 657.804,124.983 658.183,124.98 C660.453,124.963 662.724,124.971 664.994,124.971 Z" />
            <path d="M664.957,141.854 C662.27,141.854 659.583,141.855 656.896,141.854 C655.931,141.854 655.425,141.396 655.32,140.424 C655.305,140.282 655.307,140.137 655.307,139.993 C655.306,136.699 655.305,133.404 655.306,130.11 C655.306,129.54 655.309,129.539 655.879,129.537 C656.396,129.536 656.914,129.536 657.431,129.536 C658.191,129.536 658.192,129.536 658.192,130.279 C658.192,132.825 658.192,135.371 658.192,137.918 C658.192,138.09 658.192,138.263 658.192,138.436 C658.193,139.128 658.193,139.128 658.863,139.128 C660.502,139.129 662.14,139.128 663.778,139.128 C666.206,139.128 668.635,139.119 671.063,139.137 C671.493,139.141 671.633,139.024 671.63,138.581 C671.612,135.775 671.62,132.97 671.621,130.165 C671.621,129.539 671.624,129.538 672.237,129.537 C672.884,129.536 673.531,129.549 674.177,129.533 C674.5,129.525 674.598,129.654 674.597,129.965 C674.589,133.389 674.591,136.813 674.59,140.237 C674.59,140.591 674.485,140.917 674.315,141.223 C674.079,141.647 673.747,141.864 673.234,141.861 C670.476,141.847 667.716,141.854 664.957,141.854 Z" />
            <path d="M665.075,145.999 C663.683,145.999 662.291,146.001 660.899,145.998 C659.968,145.996 659.441,145.476 659.444,144.572 C659.447,143.698 659.979,143.178 660.887,143.177 C663.684,143.174 666.482,143.174 669.28,143.177 C670.182,143.178 670.712,143.704 670.713,144.581 C670.715,145.465 670.188,145.995 669.293,145.998 C667.887,146.002 666.48,145.999 665.075,145.999 Z" />
        </g>
    </g>
</svg>