<?xml version="1.0" encoding="UTF-8"?>
<svg height="600" width="800" xmlns="http://www.w3.org/2000/svg" xmlns:xlink="http://www.w3.org/1999/xlink">
    <g id="Notes" font-family="'LucidaGrande', 'Lucida Grande', sans-serif" font-size="13">
        <rect fill="white" height="600.0" width="800.0" x="0.0" y="0.0" />
        <g font-size="13">
            <text x="18.0" y="176.0">Small</text>
            <text x="18.0" y="376.0">Medium</text>
            <text x="18.0" y="576.0">Large</text>
        </g>
        <g font-size="9">
            <text x="250.0" y="30.0">Ultralight</text>
            <text x="450.0" y="30.0">Regular</text>
            <text x="650.0" y="30.0">Black</text>
            <text id="template-version" fill="#505050" text-anchor="end" x="785.0" y="575.0">Template v.3.0</text>
            <a href="https://github.com/swhitty/SwiftDraw">
                <text fill="#505050" text-anchor="end" x="785.0" y="590.0">https://github.com/swhitty/SwiftDraw</text>
            </a>
        </g>
    </g>
    <g id="Guides" stroke="rgb(39, 170, 225)" stroke-width="0.5">
        <path id="Capline-S" d="M18,76 l800,0" />
        <path id="H-reference" d="M85,145.755 L87.685,145.755 L113.369,79.287 L114.052,79.287 L114.052,76 L112.148,76 L85,145.755 Z M95.693,121.536 L130.996,121.536 L130.263,119.313 L96.474,119.313 L95.693,121.536 Z M139.15,145.755 L141.787,145.755 L114.638,76 L113.466,76 L113.466,79.287 L139.15,145.755 Z" stroke="none" />
        <path id="Baseline-S" d="M18,146 l800,0" />
        <path id="left-margin-Ultralight-S" d="M220.09,56 l0,110" />
        <path id="right-margin-Ultralight-S" d="M309.91,56 l0,110" />
        <path id="left-margin-Regular-S" d="M420.09,56 l0,110" />
        <path id="right-margin-Regular-S" d="M509.91,56 l0,110" />
        <path id="left-margin-Black-S" d="M620.09,56 l0,110" />
        <path id="right-margin-Black-S" d="M709.91,56 l0,110" />
        <path id="Capline-M" d="M18,276 l800,0" />
        <path id="Baseline-M" d="M18,346 l800,0" />
        <path id="Capline-L" d="M18,476 l800,0" />
        <path id="Baseline-L" d="M18,546 l800,0" />
    </g>
    <g id="Symbols">
        <g id="Ultralight-S">
            <path d="M284.022,89.643 C282.266,84.538 278.631,80.424 273.784,78.058 C268.937,75.692 263.458,75.354 258.356,77.108 C250.2,79.913 244.723,87.592 244.729,96.218 L244.729,98.212 L242.735,98.212 C239.33,98.25 236.13,99.616 233.74,102.06 C231.349,104.505 230.053,107.734 230.091,111.153 C230.129,114.517 231.458,117.683 233.839,120.061 C236.219,122.441 239.382,123.773 242.747,123.809 L283.417,123.809 C292.51,123.809 299.908,116.414 299.91,107.32 C299.91,103.303 298.449,99.429 295.795,96.414 C293.175,93.434 289.568,91.498 285.638,90.961 L284.425,90.796 L284.022,89.638 L284.022,89.643 Z M296.506,107.32 C296.506,114.536 290.634,120.408 283.417,120.408 L242.733,120.403 C237.555,120.403 233.343,116.189 233.343,111.012 C233.343,105.834 237.555,101.622 242.733,101.622 C243.978,101.622 245.191,101.864 246.339,102.343 C246.549,102.431 246.765,102.475 246.986,102.475 C246.986,102.475 246.987,102.475 246.989,102.475 C247.447,102.475 247.875,102.298 248.197,101.975 C248.52,101.653 248.697,101.225 248.698,100.769 C248.698,100.627 248.681,100.486 248.646,100.349 C246.388,91.37 251.855,82.229 260.833,79.97 C269.811,77.713 278.952,83.179 281.211,92.157 C281.27,92.389 281.323,92.626 281.372,92.86 C281.535,93.654 282.239,94.23 283.046,94.23 L283.416,94.23 C290.632,94.23 296.504,100.101 296.504,107.318 L296.506,107.32 Z" />
            <path d="M270.326,136.904 C270.326,136.447 270.147,136.018 269.825,135.696 C269.502,135.375 269.076,135.198 268.62,135.198 L268.618,135.198 C268.164,135.198 267.738,135.375 267.417,135.696 L260.022,143.091 C259.699,143.414 259.522,143.842 259.522,144.296 C259.522,144.75 259.699,145.178 260.022,145.501 C260.344,145.823 260.772,146 261.227,146 C261.681,146 262.109,145.823 262.431,145.501 L269.828,138.104 C270.147,137.787 270.328,137.35 270.326,136.904 Z" />
            <path d="M251.337,138.106 C251.999,137.442 251.999,136.36 251.337,135.694 C250.675,135.035 249.593,135.035 248.927,135.694 L241.541,143.082 C240.894,143.759 240.913,144.833 241.586,145.485 C242.248,146.127 243.285,146.128 243.948,145.492 L251.337,138.104 L251.337,138.106 Z" />
            <path d="M287.11,135.198 C286.656,135.198 286.229,135.375 285.907,135.696 L278.512,143.091 C278.189,143.414 278.012,143.842 278.012,144.296 C278.012,144.75 278.189,145.178 278.512,145.501 C278.834,145.823 279.262,146 279.716,146 C280.171,146 280.599,145.823 280.921,145.501 L288.316,138.104 C288.635,137.787 288.816,137.35 288.814,136.904 C288.814,135.961 288.049,135.197 287.11,135.197 L287.11,135.198 Z" />
        </g>
        <g id="Regular-S">
            <path d="M484.022,89.643 C482.266,84.538 478.631,80.424 473.784,78.058 C468.937,75.692 463.458,75.354 458.356,77.108 C450.2,79.913 444.723,87.592 444.729,96.218 L444.729,98.212 L442.735,98.212 C439.33,98.25 436.13,99.616 433.74,102.06 C431.349,104.505 430.052,107.734 430.091,111.153 C430.129,114.517 431.458,117.683 433.839,120.061 C436.219,122.441 439.382,123.773 442.747,123.809 L483.417,123.809 C492.51,123.809 499.908,116.414 499.91,107.32 C499.91,103.303 498.449,99.429 495.795,96.414 C493.175,93.434 489.568,91.498 485.638,90.961 L484.425,90.796 L484.022,89.638 L484.022,89.643 Z M496.506,107.32 C496.506,114.536 490.634,120.408 483.417,120.408 L442.733,120.403 C437.555,120.403 433.343,116.189 433.343,111.012 C433.343,105.834 437.555,101.622 442.733,101.622 C443.978,101.622 445.191,101.864 446.339,102.343 C446.549,102.431 446.765,102.475 446.986,102.475 C446.986,102.475 446.987,102.475 446.989,102.475 C447.447,102.475 447.875,102.298 448.197,101.975 C448.52,101.653 448.697,101.225 448.698,100.769 C448.698,100.627 448.681,100.486 448.646,100.349 C446.388,91.37 451.855,82.229 460.833,79.97 C469.811,77.713 478.952,83.179 481.211,92.157 C481.27,92.389 481.323,92.626 481.372,92.86 C481.535,93.654 482.239,94.23 483.046,94.23 L483.416,94.23 C490.632,94.23 496.504,100.101 496.504,107.318 L496.506,107.32 Z" />
            <path d="M470.326,136.904 C470.326,136.447 470.147,136.018 469.825,135.696 C469.502,135.375 469.076,135.198 468.62,135.198 L468.618,135.198 C468.164,135.198 467.738,135.375 467.417,135.696 L460.022,143.091 C459.699,143.414 459.522,143.842 459.522,144.296 C459.522,144.75 459.699,145.178 460.022,145.501 C460.344,145.823 460.772,146 461.227,146 C461.681,146 462.109,145.823 462.431,145.501 L469.828,138.104 C470.147,137.787 470.328,137.35 470.326,136.904 Z" />
            <path d="M451.337,138.106 C451.999,137.442 451.999,136.36 451.337,135.694 C450.675,135.035 449.593,135.035 448.927,135.694 L441.541,143.082 C440.894,143.759 440.913,144.833 441.586,145.485 C442.248,146.127 443.285,146.128 443.948,145.492 L451.337,138.104 L451.337,138.106 Z" />
            <path d="M487.11,135.198 C486.656,135.198 486.229,135.375 485.907,135.696 L478.512,143.091 C478.189,143.414 478.012,143.842 478.012,144.296 C478.012,144.75 478.189,145.178 478.512,145.501 C478.834,145.823 479.262,146 479.716,146 C480.171,146 480.599,145.823 480.921,145.501 L488.316,138.104 C488.635,137.787 488.816,137.35 488.814,136.904 C488.814,135.961 488.049,135.197 487.11,135.197 L487.11,135.198 Z" />
        </g>
        <g id="Black-S">
            <path d="M684.022,89.643 C682.266,84.538 678.631,80.424 673.784,78.058 C668.937,75.692 663.458,75.354 658.356,77.108 C650.2,79.913 644.723,87.592 644.729,96.218 L644.729,98.212 L642.735,98.212 C639.33,98.25 636.13,99.616 633.74,102.06 C631.349,104.505 630.052,107.734 630.091,111.153 C630.129,114.517 631.458,117.683 633.839,120.061 C636.219,122.441 639.382,123.773 642.747,123.809 L683.417,123.809 C692.51,123.809 699.908,116.414 699.91,107.32 C699.91,103.303 698.449,99.429 695.795,96.414 C693.175,93.434 689.568,91.498 685.638,90.961 L684.425,90.796 L684.022,89.638 L684.022,89.643 Z M696.505,107.32 C696.505,114.536 690.634,120.408 683.417,120.408 L642.733,120.403 C637.555,120.403 633.343,116.189 633.343,111.012 C633.343,105.834 637.555,101.622 642.733,101.622 C643.978,101.622 645.191,101.864 646.339,102.343 C646.549,102.431 646.765,102.475 646.986,102.475 C646.986,102.475 646.987,102.475 646.989,102.475 C647.447,102.475 647.875,102.298 648.197,101.975 C648.52,101.653 648.697,101.225 648.698,100.769 C648.698,100.627 648.681,100.486 648.646,100.349 C646.388,91.37 651.855,82.229 660.833,79.97 C669.811,77.713 678.952,83.179 681.211,92.157 C681.27,92.389 681.323,92.626 681.372,92.86 C681.535,93.654 682.239,94.23 683.046,94.23 L683.416,94.23 C690.632,94.23 696.504,100.101 696.504,107.318 L696.505,107.32 Z" />
            <path d="M670.326,136.904 C670.326,136.447 670.147,136.018 669.825,135.696 C669.502,135.375 669.076,135.198 668.62,135.198 L668.618,135.198 C668.164,135.198 667.738,135.375 667.417,135.696 L660.022,143.091 C659.699,143.414 659.522,143.842 659.522,144.296 C659.522,144.75 659.699,145.178 660.022,145.501 C660.344,145.823 660.772,146 661.227,146 C661.681,146 662.109,145.823 662.431,145.501 L669.828,138.104 C670.147,137.787 670.328,137.35 670.326,136.904 Z" />
            <path d="M651.337,138.106 C651.999,137.442 651.999,136.36 651.337,135.694 C650.675,135.035 649.593,135.035 648.927,135.694 L641.541,143.082 C640.894,143.759 640.913,144.833 641.586,145.485 C642.248,146.127 643.285,146.128 643.948,145.492 L651.337,138.104 L651.337,138.106 Z" />
            <path d="M687.11,135.198 C686.656,135.198 686.229,135.375 685.907,135.696 L678.512,143.091 C678.189,143.414 678.012,143.842 678.012,144.296 C678.012,144.75 678.189,145.178 678.512,145.501 C678.834,145.823 679.262,146 679.716,146 C680.171,146 680.599,145.823 680.921,145.501 L688.316,138.104 C688.635,137.787 688.816,137.35 688.814,136.904 C688.814,135.961 688.049,135.197 687.11,135.197 L687.11,135.198 Z" />
        </g>
    </g>
</svg>