<svg width="64" height="65" viewBox="0 0 64 65" fill="none" xmlns="http://www.w3.org/2000/svg">
<path fill-rule="evenodd" clip-rule="evenodd" d="M22 5.5C19.1005 5.5 16.75 7.8505 16.75 10.75V47.5H14C13.3096 47.5 12.75 48.0596 12.75 48.75V54.75C12.75 55.4404 13.3096 56 14 56H16.8997C17.4605 58.296 19.5313 60 22 60C23.6023 60 25.037 59.2822 26 58.1505C26.963 59.2822 28.3977 60 30 60C31.6023 60 33.037 59.2822 34 58.1505C34.963 59.2822 36.3977 60 38 60C39.6023 60 41.037 59.2822 42 58.1505C42.963 59.2822 44.3977 60 46 60C47.6023 60 49.037 59.2822 50 58.1505C50.963 59.2822 52.3977 60 54 60C56.4687 60 58.5395 58.296 59.1003 56H62C62.6904 56 63.25 55.4404 63.25 54.75V48.75C63.25 48.0596 62.6904 47.5 62 47.5H59.25V18H62C62.6904 18 63.25 17.4404 63.25 16.75V10.75C63.25 10.0596 62.6904 9.5 62 9.5H59.1003C58.5395 7.20399 56.4687 5.5 54 5.5C52.3977 5.5 50.963 6.21784 50 7.34947C49.037 6.21784 47.6023 5.5 46 5.5C44.3977 5.5 42.963 6.21784 42 7.34947C41.037 6.21784 39.6023 5.5 38 5.5C36.3977 5.5 34.963 6.21784 34 7.34947C33.037 6.21784 31.6023 5.5 30 5.5C28.3977 5.5 26.963 6.21784 26 7.34947C25.037 6.21784 23.6023 5.5 22 5.5ZM59.25 50V53.5H60.75V50H59.25ZM56.75 48.75V16.75V10.75C56.75 9.23122 55.5188 8 54 8C52.4812 8 51.25 9.23122 51.25 10.75V54.75C51.25 56.2688 52.4812 57.5 54 57.5C55.5188 57.5 56.75 56.2688 56.75 54.75V48.75ZM60.75 15.5H59.25V12H60.75V15.5ZM16.75 53.5V50H15.25V53.5H16.75ZM19.25 54.75C19.25 56.2688 20.4812 57.5 22 57.5C23.5188 57.5 24.75 56.2688 24.75 54.75V10.75C24.75 9.23122 23.5188 8 22 8C20.4812 8 19.25 9.23122 19.25 10.75V48.75V54.75ZM48.75 10.75V54.75C48.75 56.2688 47.5188 57.5 46 57.5C44.4812 57.5 43.25 56.2688 43.25 54.75V10.75C43.25 9.23122 44.4812 8 46 8C47.5188 8 48.75 9.23122 48.75 10.75ZM40.75 10.75C40.75 9.23122 39.5188 8 38 8C36.4812 8 35.25 9.23122 35.25 10.75V54.75C35.25 56.2688 36.4812 57.5 38 57.5C39.5188 57.5 40.75 56.2688 40.75 54.75V10.75ZM32.75 10.75V54.75C32.75 56.2688 31.5188 57.5 30 57.5C28.4812 57.5 27.25 56.2688 27.25 54.75V10.75C27.25 9.23122 28.4812 8 30 8C31.5188 8 32.75 9.23122 32.75 10.75Z" fill="black"/>
<path fill-rule="evenodd" clip-rule="evenodd" d="M8.08214 5.5C10.8568 5.50385 13.1146 7.76247 13.1165 10.5364L13.1165 32.8937L13.1675 32.9392C14.7684 34.3674 15.6783 36.4175 15.6642 38.5612L15.6642 38.5625C15.6462 40.1972 15.1161 41.7514 14.1282 43.0556C12.691 44.9863 10.4859 46.0962 8.0831 46.1C5.71002 46.0962 3.52217 45.0079 2.08048 43.1131L2.07987 43.1123L2.03417 43.0529C1.04852 41.7513 0.518115 40.1976 0.500198 38.5634L0.500185 38.5622C0.485085 36.4158 1.39497 34.3647 2.99774 32.9356L3.04876 32.8901V10.5348C3.05166 7.76102 5.31005 5.50289 8.08214 5.5ZM8.86331 8.0885C8.45798 7.96933 8.0669 7.96848 7.77312 7.99937C7.62647 8.0148 7.50652 8.03787 7.42453 8.05669C7.38361 8.06609 7.35236 8.07437 7.3322 8.08003L7.31055 8.08633L7.3066 8.08754L7.30321 8.08865C6.26063 8.41425 5.49295 9.38047 5.46983 10.5368V33.4693C5.46862 33.8462 5.289 34.2082 4.9882 34.4353C3.69749 35.4034 2.92487 36.9477 2.92487 38.561C2.92401 41.4052 5.23694 43.7207 8.081 43.7224C9.69606 43.7224 11.2397 42.9497 12.2077 41.6581C13.9132 39.3825 13.4497 36.1422 11.1752 34.4378L11.174 34.4369C10.8724 34.2086 10.6909 33.8477 10.6909 33.4675V10.5288C10.6669 9.37516 9.90934 8.41391 8.86331 8.0885Z" fill="black"/>
<path d="M7.16936 19.4535V35.8775L6.90481 35.9989C6.21896 36.3132 5.69711 36.875 5.43437 37.5826C5.17162 38.2892 5.20062 39.0566 5.51409 39.7416C5.82757 40.4265 6.3902 40.9493 7.09779 41.212C7.80447 41.4747 8.57185 41.4457 9.25679 41.1323C10.672 40.4836 11.2953 38.8048 10.6466 37.3896C10.3648 36.7744 9.87106 36.2815 9.25679 35.9998L8.99224 35.8784V19.4525C8.99224 18.9506 8.58272 18.542 8.07989 18.5411C7.57797 18.5411 7.16845 18.9506 7.16845 19.4535H7.16936Z" fill="#00D151"/>
</svg>
