<svg width="512" height="512" viewBox="0 0 512 512" fill="none" xmlns="http://www.w3.org/2000/svg">
<g clip-path="url(#clip0_4627_631)">
<path d="M256 350C254.026 350 252.097 349.416 250.454 348.322C248.812 347.227 247.53 345.671 246.77 343.85L176.77 175.85C176.264 174.638 176.002 173.338 175.999 172.025C175.996 170.711 176.251 169.41 176.751 168.196C177.76 165.743 179.702 163.791 182.15 162.77C184.598 161.749 187.351 161.742 189.804 162.751C191.019 163.25 192.123 163.984 193.054 164.911C193.985 165.837 194.724 166.938 195.23 168.15L256 314L316.77 168.15C317.791 165.702 319.743 163.76 322.196 162.751C324.649 161.742 327.402 161.749 329.85 162.77C332.298 163.791 334.24 165.743 335.249 168.196C336.258 170.649 336.251 173.402 335.23 175.85L265.23 343.85C264.47 345.671 263.188 347.227 261.546 348.322C259.903 349.416 257.973 350 256 350Z" fill="#B4B7BA"/>
<path d="M502 246H445.74C440.52 145.86 357.41 66 256 66C154.59 66 71.48 145.86 66.26 246H10C7.34784 246 4.8043 247.054 2.92893 248.929C1.05357 250.804 0 253.348 0 256C0 258.652 1.05357 261.196 2.92893 263.071C4.8043 264.946 7.34784 266 10 266H66.26C71.48 366.14 154.59 446 256 446C357.41 446 440.52 366.14 445.74 266H502C504.652 266 507.196 264.946 509.071 263.071C510.946 261.196 512 258.652 512 256C512 253.348 510.946 250.804 509.071 248.929C507.196 247.054 504.652 246 502 246ZM256 426C162.26 426 86 349.74 86 256C86 162.26 162.26 86 256 86C349.74 86 426 162.26 426 256C426 349.74 349.74 426 256 426Z" fill="#B4B7BA"/>
</g>
<defs>
<clipPath id="clip0_4627_631">
<rect width="512" height="512" fill="white"/>
</clipPath>
</defs>
</svg>
