<?xml version="1.0" encoding="UTF-8"?>
<svg height="600" width="800" xmlns="http://www.w3.org/2000/svg" xmlns:xlink="http://www.w3.org/1999/xlink">
    <g id="Notes" font-family="'LucidaGrande', 'Lucida Grande', sans-serif" font-size="13">
        <rect fill="white" height="600.0" width="800.0" x="0.0" y="0.0" />
        <g font-size="13">
            <text x="18.0" y="176.0">Small</text>
            <text x="18.0" y="376.0">Medium</text>
            <text x="18.0" y="576.0">Large</text>
        </g>
        <g font-size="9">
            <text x="250.0" y="30.0">Ultralight</text>
            <text x="450.0" y="30.0">Regular</text>
            <text x="650.0" y="30.0">Black</text>
            <text id="template-version" fill="#505050" text-anchor="end" x="785.0" y="575.0">Template v.3.0</text>
            <a href="https://github.com/swhitty/SwiftDraw">
                <text fill="#505050" text-anchor="end" x="785.0" y="590.0">https://github.com/swhitty/SwiftDraw</text>
            </a>
        </g>
    </g>
    <g id="Guides" stroke="rgb(39, 170, 225)" stroke-width="0.5">
        <path id="Capline-S" d="M18,76 l800,0" />
        <path id="H-reference" d="M85,145.755 L87.685,145.755 L113.369,79.287 L114.052,79.287 L114.052,76 L112.148,76 L85,145.755 Z M95.693,121.536 L130.996,121.536 L130.263,119.313 L96.474,119.313 L95.693,121.536 Z M139.15,145.755 L141.787,145.755 L114.638,76 L113.466,76 L113.466,79.287 L139.15,145.755 Z" stroke="none" />
        <path id="Baseline-S" d="M18,146 l800,0" />
        <path id="left-margin-Ultralight-S" d="M221,56 l0,110" />
        <path id="right-margin-Ultralight-S" d="M309,56 l0,110" />
        <path id="left-margin-Regular-S" d="M421,56 l0,110" />
        <path id="right-margin-Regular-S" d="M509,56 l0,110" />
        <path id="left-margin-Black-S" d="M621,56 l0,110" />
        <path id="right-margin-Black-S" d="M709,56 l0,110" />
        <path id="Capline-M" d="M18,276 l800,0" />
        <path id="Baseline-M" d="M18,346 l800,0" />
        <path id="Capline-L" d="M18,476 l800,0" />
        <path id="Baseline-L" d="M18,546 l800,0" />
    </g>
    <g id="Symbols">
        <g id="Ultralight-S">
            <path d="M264.995,131.122 C262.459,131.122 259.923,131.116 257.387,131.129 C257.055,131.131 256.909,131.033 256.82,130.705 C255.931,127.449 254.216,124.662 251.932,122.211 C250.649,120.834 249.322,119.501 248.296,117.905 C246.059,114.426 244.999,110.631 245.283,106.497 C245.53,102.901 246.795,99.656 248.857,96.717 C250.576,94.267 252.673,92.213 255.253,90.682 C257.705,89.226 260.349,88.336 263.196,88.087 C268.46,87.628 273.159,89.09 277.205,92.457 C281.145,95.737 283.729,99.888 284.546,105.011 C285.093,108.443 284.65,111.78 283.273,114.983 C282.253,117.356 280.817,119.449 278.994,121.266 C277.043,123.211 275.421,125.381 274.253,127.883 C273.824,128.802 273.453,129.745 273.188,130.724 C273.102,131.046 272.95,131.129 272.64,131.127 C270.091,131.117 267.543,131.122 264.995,131.122 Z M265.001,128.578 C266.906,128.578 268.811,128.575 270.715,128.581 C270.959,128.582 271.101,128.521 271.191,128.267 C272.305,125.125 274.119,122.424 276.417,120.035 C277.615,118.79 278.793,117.534 279.696,116.041 C281.677,112.765 282.46,109.235 281.882,105.451 C281.185,100.879 278.874,97.203 275.316,94.332 C271.762,91.463 267.669,90.271 263.11,90.764 C260.29,91.07 257.735,92.07 255.433,93.72 C253.322,95.232 251.629,97.131 250.299,99.358 C248.47,102.419 247.665,105.719 248,109.28 C248.336,112.849 249.797,115.917 252.172,118.568 C252.863,119.339 253.608,120.062 254.284,120.846 C256.183,123.046 257.658,125.513 258.776,128.193 C258.893,128.474 259.044,128.587 259.358,128.585 C261.239,128.571 263.12,128.578 265.001,128.578 Z" />
            <path d="M264.971,142.565 C262.745,142.565 260.518,142.566 258.292,142.565 C257.493,142.565 257.073,142.186 256.987,141.381 C256.974,141.263 256.975,141.143 256.975,141.024 C256.975,138.294 256.974,135.565 256.975,132.835 C256.975,132.363 256.977,132.362 257.449,132.361 C257.878,132.359 258.307,132.36 258.735,132.36 C259.365,132.36 259.366,132.36 259.366,132.975 C259.366,135.085 259.366,137.194 259.366,139.304 C259.366,139.447 259.366,139.59 259.366,139.733 C259.367,140.306 259.367,140.307 259.922,140.307 C261.279,140.307 262.636,140.307 263.994,140.307 C266.006,140.307 268.018,140.299 270.03,140.314 C270.386,140.317 270.501,140.22 270.499,139.853 C270.484,137.529 270.491,135.205 270.492,132.88 C270.492,132.362 270.494,132.361 271.002,132.36 C271.538,132.359 272.074,132.37 272.609,132.357 C272.877,132.35 272.958,132.458 272.958,132.715 C272.951,135.552 272.953,138.388 272.951,141.225 C272.951,141.518 272.865,141.789 272.723,142.043 C272.528,142.394 272.253,142.573 271.828,142.571 C269.543,142.559 267.257,142.565 264.971,142.565 Z" />
            <path d="M248.667,92.267 C248.669,92.897 248.386,93.267 247.923,93.477 C247.439,93.698 246.99,93.571 246.616,93.198 C245.579,92.163 244.545,91.126 243.509,90.09 C242.895,89.475 242.275,88.865 241.67,88.241 C241.298,87.857 241.222,87.352 241.437,86.923 C241.675,86.449 242.14,86.188 242.664,86.231 C242.955,86.255 243.18,86.404 243.377,86.601 C245.02,88.243 246.661,89.886 248.301,91.531 C248.526,91.757 248.681,92.02 248.667,92.267 Z" />
            <path d="M282.701,93.72 C282.076,93.712 281.719,93.432 281.506,92.986 C281.305,92.564 281.38,92.149 281.675,91.781 C281.69,91.762 281.704,91.743 281.721,91.727 C283.395,90.049 285.063,88.366 286.748,86.699 C287.247,86.206 287.916,86.249 288.401,86.751 C288.849,87.212 288.869,87.839 288.451,88.333 C288.421,88.369 288.388,88.404 288.354,88.437 C286.73,90.064 285.107,91.691 283.482,93.316 C283.239,93.56 282.965,93.739 282.701,93.72 Z" />
            <path d="M266.454,80.712 C266.454,81.855 266.456,82.998 266.453,84.14 C266.452,84.913 266.021,85.35 265.274,85.347 C264.55,85.345 264.12,84.904 264.119,84.151 C264.116,81.831 264.116,79.51 264.119,77.189 C264.12,76.442 264.555,76.001 265.28,76 C266.011,75.999 266.451,76.436 266.453,77.178 C266.456,78.356 266.454,79.534 266.454,80.712 Z" />
            <path d="M237.916,109.737 C236.763,109.737 235.61,109.739 234.456,109.736 C233.688,109.734 233.252,109.301 233.256,108.55 C233.26,107.828 233.701,107.4 234.456,107.399 C236.774,107.397 239.092,107.397 241.41,107.399 C242.155,107.4 242.593,107.838 242.593,108.567 C242.593,109.297 242.155,109.734 241.411,109.736 C240.246,109.739 239.081,109.737 237.916,109.737 Z" />
            <path d="M292.088,109.737 C290.923,109.737 289.758,109.739 288.593,109.736 C287.847,109.734 287.408,109.299 287.408,108.571 C287.407,107.84 287.843,107.4 288.586,107.399 C290.916,107.397 293.246,107.396 295.576,107.4 C296.313,107.401 296.747,107.847 296.744,108.582 C296.741,109.291 296.302,109.733 295.583,109.736 C294.418,109.74 293.253,109.737 292.088,109.737 Z" />
            <path d="M265.068,145.999 C263.915,145.999 262.762,146.001 261.609,145.998 C260.837,145.997 260.401,145.566 260.403,144.817 C260.406,144.092 260.846,143.662 261.598,143.661 C263.916,143.659 266.234,143.659 268.552,143.661 C269.3,143.662 269.739,144.098 269.74,144.825 C269.741,145.556 269.305,145.996 268.563,145.998 C267.398,146.002 266.233,145.999 265.068,145.999 Z" />
            <path d="M265.164,111.739 C263.214,111.737 261.688,110.2 261.689,108.24 C261.69,106.271 263.226,104.75 265.212,104.752 C267.15,104.754 268.672,106.303 268.668,108.27 C268.665,110.219 267.127,111.742 265.164,111.739 Z M265.179,109.875 C266.088,109.875 266.814,109.146 266.807,108.238 C266.8,107.325 266.069,106.604 265.163,106.617 C264.266,106.63 263.56,107.34 263.553,108.236 C263.546,109.143 264.272,109.875 265.179,109.875 Z" />
        </g>
        <g id="Regular-S">
            <path d="M464.995,131.122 C462.459,131.122 459.923,131.116 457.387,131.129 C457.055,131.131 456.909,131.033 456.82,130.705 C455.931,127.449 454.216,124.662 451.932,122.211 C450.649,120.834 449.322,119.501 448.296,117.905 C446.059,114.426 444.999,110.631 445.283,106.497 C445.53,102.901 446.795,99.656 448.857,96.717 C450.576,94.267 452.673,92.213 455.253,90.682 C457.705,89.226 460.349,88.336 463.196,88.087 C468.46,87.628 473.159,89.09 477.205,92.457 C481.145,95.737 483.729,99.888 484.546,105.011 C485.093,108.443 484.65,111.78 483.273,114.983 C482.253,117.356 480.817,119.449 478.994,121.266 C477.043,123.211 475.421,125.381 474.253,127.883 C473.824,128.802 473.453,129.745 473.188,130.724 C473.102,131.046 472.95,131.129 472.64,131.127 C470.091,131.117 467.543,131.122 464.995,131.122 Z M465.001,128.578 C466.906,128.578 468.811,128.575 470.715,128.581 C470.959,128.582 471.101,128.521 471.191,128.267 C472.305,125.125 474.119,122.424 476.417,120.035 C477.615,118.79 478.793,117.534 479.696,116.041 C481.677,112.765 482.46,109.235 481.882,105.451 C481.185,100.879 478.874,97.203 475.316,94.332 C471.762,91.463 467.669,90.271 463.11,90.764 C460.29,91.07 457.735,92.07 455.433,93.72 C453.322,95.232 451.629,97.131 450.299,99.358 C448.47,102.419 447.665,105.719 448,109.28 C448.336,112.849 449.797,115.917 452.172,118.568 C452.863,119.339 453.608,120.062 454.284,120.846 C456.183,123.046 457.658,125.513 458.776,128.193 C458.893,128.474 459.044,128.587 459.358,128.585 C461.239,128.571 463.12,128.578 465.001,128.578 Z" />
            <path d="M464.971,142.565 C462.745,142.565 460.518,142.566 458.292,142.565 C457.493,142.565 457.073,142.186 456.987,141.381 C456.974,141.263 456.975,141.143 456.975,141.024 C456.975,138.294 456.974,135.565 456.975,132.835 C456.975,132.363 456.977,132.362 457.449,132.361 C457.878,132.359 458.307,132.36 458.735,132.36 C459.365,132.36 459.366,132.36 459.366,132.975 C459.366,135.085 459.366,137.194 459.366,139.304 C459.366,139.447 459.366,139.59 459.366,139.733 C459.367,140.306 459.367,140.307 459.922,140.307 C461.279,140.307 462.636,140.307 463.994,140.307 C466.006,140.307 468.018,140.299 470.03,140.314 C470.386,140.317 470.501,140.22 470.499,139.853 C470.484,137.529 470.491,135.205 470.492,132.88 C470.492,132.362 470.494,132.361 471.002,132.36 C471.538,132.359 472.074,132.37 472.609,132.357 C472.877,132.35 472.958,132.458 472.958,132.715 C472.951,135.552 472.953,138.388 472.951,141.225 C472.951,141.518 472.865,141.789 472.723,142.043 C472.528,142.394 472.253,142.573 471.828,142.571 C469.543,142.559 467.257,142.565 464.971,142.565 Z" />
            <path d="M448.668,92.267 C448.669,92.897 448.386,93.267 447.923,93.477 C447.439,93.698 446.99,93.571 446.616,93.198 C445.579,92.163 444.545,91.126 443.509,90.09 C442.895,89.475 442.275,88.865 441.67,88.241 C441.298,87.857 441.222,87.352 441.437,86.923 C441.675,86.449 442.14,86.188 442.664,86.231 C442.955,86.255 443.18,86.404 443.377,86.601 C445.02,88.243 446.661,89.886 448.301,91.531 C448.526,91.757 448.681,92.02 448.668,92.267 Z" />
            <path d="M482.701,93.72 C482.076,93.712 481.719,93.432 481.506,92.986 C481.305,92.564 481.38,92.149 481.675,91.781 C481.69,91.762 481.704,91.743 481.721,91.727 C483.395,90.049 485.063,88.366 486.748,86.699 C487.247,86.206 487.916,86.249 488.401,86.751 C488.849,87.212 488.869,87.839 488.451,88.333 C488.421,88.369 488.388,88.404 488.354,88.437 C486.73,90.064 485.107,91.691 483.482,93.316 C483.239,93.56 482.965,93.739 482.701,93.72 Z" />
            <path d="M466.454,80.712 C466.454,81.855 466.456,82.998 466.453,84.14 C466.452,84.913 466.021,85.35 465.274,85.347 C464.55,85.345 464.12,84.904 464.119,84.151 C464.116,81.831 464.116,79.51 464.119,77.189 C464.12,76.442 464.555,76.001 465.28,76 C466.011,75.999 466.451,76.436 466.453,77.178 C466.456,78.356 466.454,79.534 466.454,80.712 Z" />
            <path d="M437.916,109.737 C436.763,109.737 435.609,109.739 434.456,109.736 C433.688,109.734 433.252,109.301 433.256,108.55 C433.26,107.828 433.701,107.4 434.456,107.399 C436.774,107.397 439.092,107.397 441.41,107.399 C442.155,107.4 442.593,107.838 442.593,108.567 C442.593,109.297 442.155,109.734 441.411,109.736 C440.246,109.739 439.081,109.737 437.916,109.737 Z" />
            <path d="M492.088,109.737 C490.923,109.737 489.758,109.739 488.593,109.736 C487.847,109.734 487.408,109.299 487.408,108.571 C487.407,107.84 487.843,107.4 488.586,107.399 C490.916,107.397 493.246,107.396 495.576,107.4 C496.313,107.401 496.747,107.847 496.744,108.582 C496.741,109.291 496.302,109.733 495.583,109.736 C494.418,109.74 493.253,109.737 492.088,109.737 Z" />
            <path d="M465.068,145.999 C463.915,145.999 462.762,146.001 461.609,145.998 C460.837,145.997 460.401,145.566 460.403,144.817 C460.406,144.092 460.846,143.662 461.598,143.661 C463.916,143.659 466.234,143.659 468.552,143.661 C469.3,143.662 469.739,144.098 469.74,144.825 C469.741,145.556 469.305,145.996 468.563,145.998 C467.398,146.002 466.233,145.999 465.068,145.999 Z" />
            <path d="M465.164,111.739 C463.214,111.737 461.688,110.2 461.689,108.24 C461.69,106.271 463.226,104.75 465.212,104.752 C467.15,104.754 468.672,106.303 468.668,108.27 C468.665,110.219 467.127,111.742 465.164,111.739 Z M465.179,109.875 C466.088,109.875 466.814,109.146 466.807,108.238 C466.8,107.325 466.069,106.604 465.163,106.617 C464.266,106.63 463.56,107.34 463.553,108.236 C463.546,109.143 464.272,109.875 465.179,109.875 Z" />
        </g>
        <g id="Black-S">
            <path d="M664.995,131.122 C662.459,131.122 659.923,131.116 657.387,131.129 C657.055,131.131 656.909,131.033 656.82,130.705 C655.931,127.449 654.216,124.662 651.932,122.211 C650.649,120.834 649.322,119.501 648.296,117.905 C646.059,114.426 644.999,110.631 645.283,106.497 C645.53,102.901 646.795,99.656 648.857,96.717 C650.576,94.267 652.673,92.213 655.253,90.682 C657.705,89.226 660.349,88.336 663.196,88.087 C668.46,87.628 673.159,89.09 677.205,92.457 C681.145,95.737 683.729,99.888 684.546,105.011 C685.093,108.443 684.65,111.78 683.273,114.983 C682.253,117.356 680.817,119.449 678.994,121.266 C677.043,123.211 675.421,125.381 674.253,127.883 C673.824,128.802 673.453,129.745 673.188,130.724 C673.102,131.046 672.95,131.129 672.64,131.127 C670.091,131.117 667.543,131.122 664.995,131.122 Z M665.001,128.578 C666.906,128.578 668.811,128.575 670.715,128.581 C670.959,128.582 671.101,128.521 671.191,128.267 C672.305,125.125 674.119,122.424 676.417,120.035 C677.615,118.79 678.793,117.534 679.696,116.041 C681.677,112.765 682.46,109.235 681.882,105.451 C681.185,100.879 678.874,97.203 675.316,94.332 C671.762,91.463 667.669,90.271 663.11,90.764 C660.29,91.07 657.735,92.07 655.433,93.72 C653.322,95.232 651.629,97.131 650.299,99.358 C648.47,102.419 647.665,105.719 648,109.28 C648.336,112.849 649.797,115.917 652.172,118.568 C652.863,119.339 653.608,120.062 654.284,120.846 C656.183,123.046 657.658,125.513 658.776,128.193 C658.893,128.474 659.044,128.587 659.358,128.585 C661.239,128.571 663.12,128.578 665.001,128.578 Z" />
            <path d="M664.971,142.565 C662.745,142.565 660.518,142.566 658.292,142.565 C657.493,142.565 657.073,142.186 656.987,141.381 C656.974,141.263 656.975,141.143 656.975,141.024 C656.975,138.294 656.974,135.565 656.975,132.835 C656.975,132.363 656.977,132.362 657.449,132.361 C657.878,132.359 658.307,132.36 658.735,132.36 C659.365,132.36 659.366,132.36 659.366,132.975 C659.366,135.085 659.366,137.194 659.366,139.304 C659.366,139.447 659.366,139.59 659.366,139.733 C659.367,140.306 659.367,140.307 659.922,140.307 C661.279,140.307 662.636,140.307 663.994,140.307 C666.006,140.307 668.018,140.299 670.03,140.314 C670.386,140.317 670.501,140.22 670.499,139.853 C670.484,137.529 670.491,135.205 670.492,132.88 C670.492,132.362 670.494,132.361 671.002,132.36 C671.538,132.359 672.074,132.37 672.609,132.357 C672.877,132.35 672.958,132.458 672.958,132.715 C672.951,135.552 672.953,138.388 672.951,141.225 C672.951,141.518 672.865,141.789 672.723,142.043 C672.528,142.394 672.253,142.573 671.828,142.571 C669.543,142.559 667.257,142.565 664.971,142.565 Z" />
            <path d="M648.667,92.267 C648.669,92.897 648.386,93.267 647.923,93.477 C647.439,93.698 646.99,93.571 646.616,93.198 C645.579,92.163 644.545,91.126 643.509,90.09 C642.895,89.475 642.275,88.865 641.67,88.241 C641.298,87.857 641.222,87.352 641.437,86.923 C641.675,86.449 642.14,86.188 642.664,86.231 C642.955,86.255 643.18,86.404 643.377,86.601 C645.02,88.243 646.661,89.886 648.301,91.531 C648.526,91.757 648.681,92.02 648.667,92.267 Z" />
            <path d="M682.701,93.72 C682.076,93.712 681.719,93.432 681.506,92.986 C681.305,92.564 681.38,92.149 681.675,91.781 C681.69,91.762 681.704,91.743 681.721,91.727 C683.395,90.049 685.063,88.366 686.748,86.699 C687.247,86.206 687.916,86.249 688.401,86.751 C688.849,87.212 688.869,87.839 688.451,88.333 C688.421,88.369 688.388,88.404 688.354,88.437 C686.73,90.064 685.107,91.691 683.482,93.316 C683.239,93.56 682.965,93.739 682.701,93.72 Z" />
            <path d="M666.454,80.712 C666.454,81.855 666.456,82.998 666.453,84.14 C666.452,84.913 666.021,85.35 665.274,85.347 C664.55,85.345 664.12,84.904 664.119,84.151 C664.117,81.831 664.116,79.51 664.119,77.189 C664.12,76.442 664.555,76.001 665.28,76 C666.011,75.999 666.451,76.436 666.453,77.178 C666.456,78.356 666.454,79.534 666.454,80.712 Z" />
            <path d="M637.916,109.737 C636.763,109.737 635.609,109.739 634.456,109.736 C633.688,109.734 633.252,109.301 633.256,108.55 C633.26,107.828 633.701,107.4 634.456,107.399 C636.774,107.397 639.092,107.397 641.41,107.399 C642.155,107.4 642.593,107.838 642.593,108.567 C642.593,109.297 642.155,109.734 641.411,109.736 C640.246,109.739 639.081,109.737 637.916,109.737 Z" />
            <path d="M692.088,109.737 C690.923,109.737 689.758,109.739 688.593,109.736 C687.847,109.734 687.408,109.299 687.408,108.571 C687.407,107.84 687.843,107.4 688.586,107.399 C690.916,107.397 693.246,107.396 695.576,107.4 C696.313,107.401 696.747,107.847 696.744,108.582 C696.741,109.291 696.302,109.733 695.583,109.736 C694.418,109.74 693.253,109.737 692.088,109.737 Z" />
            <path d="M665.068,145.999 C663.915,145.999 662.762,146.001 661.609,145.998 C660.837,145.997 660.401,145.566 660.403,144.817 C660.406,144.092 660.846,143.662 661.598,143.661 C663.916,143.659 666.234,143.659 668.552,143.661 C669.3,143.662 669.739,144.098 669.74,144.825 C669.741,145.556 669.305,145.996 668.563,145.998 C667.398,146.002 666.233,145.999 665.068,145.999 Z" />
            <path d="M665.164,111.739 C663.214,111.737 661.688,110.2 661.689,108.24 C661.69,106.271 663.226,104.75 665.212,104.752 C667.15,104.754 668.672,106.303 668.668,108.27 C668.665,110.219 667.127,111.742 665.164,111.739 Z M665.179,109.875 C666.088,109.875 666.814,109.146 666.807,108.238 C666.8,107.325 666.069,106.604 665.163,106.617 C664.266,106.63 663.56,107.34 663.553,108.236 C663.546,109.143 664.272,109.875 665.179,109.875 Z" />
        </g>
    </g>
</svg>