<svg width="144" height="144" viewBox="0 0 144 144" fill="none" xmlns="http://www.w3.org/2000/svg">
<rect x="52" y="74" width="40" height="32" rx="2" stroke="#EB3A28" stroke-width="5" stroke-linejoin="round"/>
<path d="M84 62V62C84 55.3726 78.6274 50 72 50V50C65.3726 50 60 55.3726 60 62V74" stroke="#EB3A28" stroke-width="5" stroke-linecap="round" stroke-linejoin="round"/>
<path d="M46.103 37.1084C47.0965 36.4442 48.1051 35.7717 48.5368 35.4893C48.6896 35.3896 62.9961 26.0203 71.6445 20L46.103 37.1084ZM46.103 37.1084V37.1047V37.0903V37.0758V37.0614V37.0469V37.0323V37.0178V37.0032V36.9885V36.9739V36.9592V36.9445V36.9297V36.9149V36.9001V36.8853V36.8704V36.8555V36.8406V36.8256V36.8106V36.7956V36.7805V36.7655V36.7504V36.7353V36.7201V36.7049V36.6897V36.6745V36.6593V36.644V36.6287V36.6134V36.5981V36.5827V36.5673V36.5519V36.5365V36.5211V36.5056V36.4901V36.4746V36.4591V36.4436V36.428V36.4124V36.3968V36.3812V36.3656V36.3499V36.3343V36.3186V36.3029V36.2872V36.2715V36.2558V36.24V36.2242V36.2085V36.1927V36.1769V36.1611V36.1452V36.1294V36.1136V36.0977V36.0818V36.066V36.0501V36.0342V36.0183V36.0024V35.9865V35.9705V35.9546V35.9387V35.9227V35.9068V35.8908V35.8748V35.8589V35.8429V35.8269V35.8109V35.795V35.779V35.763V35.747V35.731V35.715V35.699V35.683V35.667V35.651V35.635V35.619V35.6031V35.5871V35.5711V35.5551V35.5391V35.5231V35.5071V35.4912V35.4752V35.4592V35.4433V35.4273V35.4114V35.3954V35.3795V35.3636V35.3477V35.3317V35.3158V35.2999V35.284V35.2682V35.2523V35.2364V35.2206V35.2047V35.1889V35.1731V35.1573V35.1415V35.1257V35.11V35.0942V35.0785V35.0627V35.047V35.0313V35.0156V35V34.9843V34.9687V34.9531V34.9375V34.9219V34.9063V34.8908V34.8752V34.8597V34.8442V34.8288V34.8133V34.7979V34.7825V34.7671V34.7517V34.7364V34.7211V34.7058V34.6905V34.6752V34.66V34.6448V34.6296V34.6145V34.5993V34.5842V34.5691V34.5541V34.5391V34.5241V34.5091V34.4941V34.4792V34.4643V34.4495V34.4347V34.4199V34.4051V34.3904V34.3756V34.361V34.3463V34.3317V34.3171V34.3026V34.2881V34.2736V34.2592V34.2447V34.2304V34.216V34.2017V34.1875V34.1732V34.159V34.1449V34.1307V34.1167V34.1028M46.103 37.1084V34.1028M46.103 34.1028C46.5563 33.8009 46.9391 33.5471 47.1681 33.3972L47.1711 33.3953L47.1748 33.3929L47.1854 33.386L47.2224 33.3617L47.356 33.2742L47.8469 32.9521C48.2687 32.6753 48.8728 32.2783 49.6207 31.7858C51.1164 30.8007 53.1864 29.434 55.5213 27.8826C60.1958 24.7768 65.9156 20.9419 70.2162 17.9482C71.061 17.3601 72.18 17.3499 73.0353 17.9226L129.391 55.6524C130.306 56.2648 130.712 57.4034 130.392 58.4566C130.072 59.5098 129.101 60.2298 128 60.2298H122.921L122.896 60.2297L122.57 60.2265L121.892 60.2272V123.192C121.892 124.573 120.772 125.692 119.392 125.692H24.861C23.4803 125.692 22.361 124.573 22.361 123.192V60.2265C22.1389 60.2265 21.9082 60.2265 21.6714 60.2265H16C14.9053 60.2265 13.9379 59.5143 13.6128 58.469C13.2877 57.4236 13.6805 56.2884 14.5821 55.6675L33.6629 42.5272L33.6632 42.527C33.7687 42.4544 33.8677 42.3838 33.9597 42.3164V23.8408C33.9597 22.46 35.079 21.3408 36.4597 21.3408H43.603C44.9837 21.3408 46.103 22.46 46.103 23.8408V32.818V32.8249V32.8319V32.839V32.8462V32.8534V32.8607V32.8681V32.8756V32.8832V32.8908V32.8986V32.9064V32.9142V32.9222V32.9302V32.9383V32.9465V32.9548V32.9631V32.9715V32.98V32.9886V32.9972V33.0059V33.0147V33.0236V33.0325V33.0415V33.0506V33.0598V33.069V33.0783V33.0877V33.0971V33.1066V33.1162V33.1258V33.1355V33.1453V33.1552V33.1651V33.1751V33.1851V33.1952V33.2054V33.2157V33.226V33.2364V33.2468V33.2573V33.2679V33.2785V33.2893V33.3V33.3108V33.3217V33.3327V33.3437V33.3548V33.3659V33.3771V33.3884V33.3997V33.411V33.4225V33.434V33.4455V33.4571V33.4688V33.4805V33.4923V33.5041V33.516V33.5279V33.5399V33.552V33.5641V33.5763V33.5885V33.6008V33.6131V33.6254V33.6379V33.6504V33.6629V33.6755V33.6881V33.7008V33.7135V33.7263V33.7391V33.752V33.7649V33.7779V33.7909V33.804V33.8171V33.8302V33.8434V33.8567V33.87V33.8833V33.8967V33.9102V33.9236V33.9372V33.9507V33.9643V33.978V33.9916V34.0054V34.0191V34.033V34.0468V34.0607V34.0746V34.0886V34.1026V34.1028ZM36.4597 43.5031V26.3408V23.8408H38.9597H41.103H43.603V26.3408V32.818V35.7731L36.4597 43.5031ZM36.4597 43.5031C36.4597 43.5031 35.9447 43.9915 35.0809 44.5862L19.6302 55.2265H16V57.7265L17.4179 59.7855L20.4078 57.7265H21.6714C23.4323 57.7265 24.861 57.7275 24.861 57.7275L36.4597 43.5031ZM34.7467 41.6822L34.7467 41.6822L34.7467 41.6822Z" stroke="#FCFCFC" stroke-width="5" stroke-linejoin="round"/>
</svg>
