<svg width="144" height="144" viewBox="0 0 144 144" fill="none" xmlns="http://www.w3.org/2000/svg">
<rect x="52" y="74" width="40" height="32" rx="2" stroke="#EB3A28" stroke-width="5" stroke-linejoin="round"/>
<path d="M84 62V62C84 55.3726 78.6274 50 72 50V50C65.3726 50 60 55.3726 60 62V74" stroke="#EB3A28" stroke-width="5" stroke-linecap="round" stroke-linejoin="round"/>
<path d="M47.1681 33.3972C46.9391 33.5471 46.5563 33.8009 46.103 34.1028V34.1026V34.0886V34.0746V34.0607V34.0468V34.033V34.0191V34.0054V33.9916V33.978V33.9643V33.9507V33.9372V33.9236V33.9102V33.8967V33.8833V33.87V33.8567V33.8434V33.8302V33.8171V33.804V33.7909V33.7779V33.7649V33.752V33.7391V33.7263V33.7135V33.7008V33.6881V33.6755V33.6629V33.6504V33.6379V33.6254V33.6131V33.6008V33.5885V33.5763V33.5641V33.552V33.5399V33.5279V33.516V33.5041V33.4923V33.4805V33.4688V33.4571V33.4455V33.434V33.4225V33.411V33.3997V33.3884V33.3771V33.3659V33.3548V33.3437V33.3327V33.3217V33.3108V33.3V33.2893V33.2785V33.2679V33.2573V33.2468V33.2364V33.226V33.2157V33.2054V33.1952V33.1851V33.1751V33.1651V33.1552V33.1453V33.1355V33.1258V33.1162V33.1066V33.0971V33.0877V33.0783V33.069V33.0598V33.0506V33.0415V33.0325V33.0236V33.0147V33.0059V32.9972V32.9886V32.98V32.9715V32.9631V32.9548V32.9465V32.9383V32.9302V32.9222V32.9142V32.9064V32.8986V32.8908V32.8832V32.8756V32.8681V32.8607V32.8534V32.8462V32.839V32.8319V32.8249V32.818V23.8408C46.103 22.46 44.9837 21.3408 43.603 21.3408H36.4597C35.079 21.3408 33.9597 22.46 33.9597 23.8408V42.3164C33.8677 42.3838 33.7687 42.4544 33.6632 42.527L33.6629 42.5272L14.5821 55.6675C13.6805 56.2884 13.2877 57.4236 13.6128 58.469C13.9379 59.5143 14.9053 60.2265 16 60.2265H21.6714C21.9082 60.2265 22.1389 60.2265 22.361 60.2265V123.192C22.361 124.573 23.4803 125.692 24.861 125.692H119.392C120.772 125.692 121.892 124.573 121.892 123.192V60.2272L122.57 60.2265L122.896 60.2297L122.921 60.2298H128C129.101 60.2298 130.072 59.5098 130.392 58.4566C130.712 57.4034 130.306 56.2648 129.391 55.6524L73.0353 17.9226C72.18 17.3499 71.061 17.3601 70.2162 17.9482C65.9156 20.9419 60.1958 24.7768 55.5213 27.8826C53.1864 29.434 51.1164 30.8007 49.6207 31.7858C48.8728 32.2783 48.2687 32.6753 47.8469 32.9521L47.356 33.2742L47.2224 33.3617L47.1854 33.386L47.1748 33.3929L47.1711 33.3953L47.1681 33.3972Z" stroke="#FCFCFC" stroke-width="5" stroke-linejoin="round"/>
</svg>
