<svg width="64" height="64" viewBox="0 0 64 64" fill="none" xmlns="http://www.w3.org/2000/svg">
<g clip-path="url(#clip0_5611_3434)">
<path d="M20.4736 14.4591C20.4736 15.0216 20.2212 15.3461 19.8101 15.5336C19.3774 15.7283 18.9808 15.6202 18.649 15.2884C17.726 14.3654 16.8029 13.4495 15.8798 12.5264C15.3317 11.9783 14.7837 11.4375 14.2428 10.8822C13.9111 10.5432 13.8462 10.0889 14.0337 9.71392C14.2428 9.28844 14.6611 9.05767 15.1226 9.10094C15.3822 9.12258 15.5841 9.25239 15.7572 9.43267C17.2212 10.8894 18.6779 12.3533 20.1418 13.8173C20.351 14.0048 20.488 14.2355 20.4736 14.4591Z" fill="#282828"/>
<path d="M50.769 15.75C50.2137 15.7428 49.8964 15.4904 49.7089 15.0937C49.5286 14.7187 49.5935 14.3509 49.8603 14.0192C49.8747 14.0048 49.8891 13.9831 49.9036 13.9687C51.3964 12.4759 52.8819 10.9832 54.3819 9.49758C54.829 9.05768 55.4204 9.10095 55.8531 9.54085C56.2497 9.95191 56.2713 10.5072 55.8963 10.9471C55.8675 10.9759 55.8387 11.012 55.8098 11.0408C54.3675 12.4904 52.918 13.9327 51.4757 15.3822C51.2521 15.6057 51.0069 15.7644 50.769 15.75Z" fill="#282828"/>
<path d="M36.31 4.18268C36.31 5.19951 36.31 6.21633 36.31 7.23316C36.31 7.91825 35.9277 8.30767 35.2571 8.30767C34.6153 8.30767 34.233 7.91104 34.2258 7.24758C34.2258 5.18508 34.2258 3.12259 34.2258 1.06009C34.2258 0.396632 34.6153 0 35.2571 0C35.9061 0 36.2955 0.389422 36.3027 1.04567C36.31 2.08413 36.31 3.13701 36.31 4.18268Z" fill="#282828"/>
<path d="M59.1274 29.9927C58.0889 29.9927 57.0504 29.9927 56.0192 29.9927C55.3557 29.9927 54.9663 29.6033 54.9663 28.9543C54.9663 28.3052 55.3557 27.9158 56.0192 27.9158C58.0961 27.9158 60.1658 27.9158 62.2427 27.9158C62.899 27.9158 63.2884 28.3124 63.2812 28.9687C63.2812 29.5961 62.8846 29.9927 62.2499 29.9927C61.2043 29.9927 60.1658 29.9927 59.1274 29.9927Z" fill="#282828"/>
<path d="M35.0769 62.2282C34.0529 62.2282 33.0216 62.2282 31.9976 62.2282C31.3125 62.2282 30.9231 61.846 30.9231 61.1754C30.9231 60.5335 31.3197 60.1513 31.9904 60.1441C34.0529 60.1441 36.1154 60.1441 38.1779 60.1441C38.8413 60.1441 39.2308 60.5335 39.238 61.1754C39.238 61.8244 38.8486 62.2138 38.1923 62.221C37.1466 62.2354 36.1154 62.2282 35.0769 62.2282Z" fill="#282828"/>
<path d="M35.1633 31.7668C33.4253 31.7668 32.0696 30.3966 32.0696 28.6586C32.0696 26.9062 33.4398 25.5576 35.2066 25.5576C36.9301 25.5576 38.2859 26.935 38.2859 28.6874C38.2787 30.4182 36.9085 31.774 35.1633 31.7668ZM35.1777 30.1153C35.9854 30.1153 36.6345 29.4663 36.6273 28.6586C36.6201 27.8437 35.971 27.2091 35.1633 27.2163C34.3628 27.2307 33.7354 27.8581 33.7282 28.6586C33.721 29.4591 34.3701 30.1153 35.1777 30.1153Z" fill="#282828"/>
<path fill-rule="evenodd" clip-rule="evenodd" d="M18.5407 30.4087C9.90076 30.4087 2.89669 37.4128 2.89669 46.0528C2.89669 54.6927 9.90076 61.6968 18.5407 61.6968C27.1807 61.6968 34.1848 54.6927 34.1848 46.0528C34.1848 37.4128 27.1807 30.4087 18.5407 30.4087ZM0.593506 46.0528C0.593506 36.1408 8.62875 28.1055 18.5407 28.1055C28.4527 28.1055 36.488 36.1408 36.488 46.0528C36.488 55.9647 28.4527 64 18.5407 64C8.62875 64 0.593506 55.9647 0.593506 46.0528Z" fill="#282828"/>
<path d="M52.413 25.7884C51.6846 21.2307 49.3841 17.5456 45.8794 14.625C42.2808 11.6322 38.0981 10.3341 33.4106 10.738C30.8794 10.9615 28.5212 11.7476 26.3433 13.0456C24.0501 14.4086 22.1823 16.2331 20.6534 18.411C18.8145 21.0216 17.6895 23.9134 17.4732 27.1081C17.466 27.1802 17.466 27.2523 17.4587 27.3245C17.8193 27.3028 18.1799 27.2956 18.5477 27.2956C18.9876 27.2956 19.4203 27.31 19.853 27.3389C19.99 25.0168 20.7039 22.8317 21.9371 20.762C23.1198 18.7788 24.627 17.0913 26.5092 15.75C28.5573 14.286 30.8361 13.3918 33.3457 13.125C37.4058 12.6851 41.0476 13.7452 44.2135 16.298C47.3793 18.8509 49.4346 22.1177 50.062 26.185C50.5741 29.5528 49.8817 32.6898 48.1149 35.6033C47.3144 36.9302 46.2616 38.048 45.1943 39.1514C43.1462 41.2788 41.5308 43.6802 40.5428 46.4711C40.4635 46.6946 40.3337 46.7523 40.1173 46.7523C39.1798 46.7523 38.2423 46.7451 37.3048 46.7451C37.276 47.5095 37.2039 48.2667 37.0885 49.0095C38.6678 49.0095 40.2544 49.0095 41.8337 49.0167C42.1077 49.0167 42.2447 48.9446 42.3241 48.6561C42.562 47.7835 42.8866 46.947 43.2688 46.1321C44.3072 43.911 45.7495 41.9783 47.4875 40.2475C49.1101 38.6321 50.3866 36.7716 51.2952 34.6586C52.5067 31.8028 52.9034 28.8389 52.413 25.7884Z" fill="#282828"/>
<path d="M41.7906 50.0984C41.3147 50.1129 40.8387 50.0984 40.3627 50.0984C39.9084 50.0984 39.9084 50.0985 39.9084 50.56C39.9084 52.6297 39.9012 54.6922 39.9156 56.7619C39.9156 57.0864 39.8147 57.173 39.4974 57.173C37.7089 57.1585 35.9132 57.1657 34.1248 57.1657C33.9733 57.1657 33.8147 57.1657 33.6632 57.1657C33.144 57.8725 32.5671 58.5431 31.9541 59.1705C32.9709 59.1705 33.9805 59.1705 34.9974 59.1705C37.031 59.1705 39.0647 59.1633 41.0983 59.1778C41.4733 59.1778 41.7185 59.0191 41.8916 58.709C42.0142 58.4854 42.0935 58.2403 42.0935 57.9806C42.0935 55.4566 42.0935 52.9326 42.1007 50.4158C42.1007 50.1922 42.0286 50.0984 41.7906 50.0984Z" fill="#282828"/>
<path fill-rule="evenodd" clip-rule="evenodd" d="M18.3242 32.4829C18.9602 32.4829 19.4758 32.9985 19.4758 33.6345V46.7451C19.4758 47.3811 18.9602 47.8967 18.3242 47.8967C17.6882 47.8967 17.1726 47.3811 17.1726 46.7451V33.6345C17.1726 32.9985 17.6882 32.4829 18.3242 32.4829Z" fill="#282828"/>
<path fill-rule="evenodd" clip-rule="evenodd" d="M17.1726 46.7451C17.1726 46.1091 17.6882 45.5935 18.3242 45.5935H27.3242C27.9602 45.5935 28.4758 46.1091 28.4758 46.7451C28.4758 47.3811 27.9602 47.8967 27.3242 47.8967H18.3242C17.6882 47.8967 17.1726 47.3811 17.1726 46.7451Z" fill="#282828"/>
</g>
<defs>
<clipPath id="clip0_5611_3434">
<rect width="63.8748" height="64" fill="white"/>
</clipPath>
</defs>
</svg>
