<svg width="64" height="64" viewBox="0 0 64 64" fill="none" xmlns="http://www.w3.org/2000/svg">
<path d="M19.6322 16.0063C19.6322 16.4947 19.413 16.7765 19.0561 16.9393C18.6803 17.1084 18.3359 17.0145 18.0479 16.7264C17.2463 15.9249 16.4447 15.1295 15.6432 14.328C15.1672 13.8521 14.6913 13.3824 14.2216 12.9002C13.9336 12.6059 13.8772 12.2113 14.04 11.8857C14.2216 11.5162 14.5848 11.3158 14.9856 11.3534C15.2111 11.3722 15.3864 11.4849 15.5367 11.6415C16.8079 12.9065 18.0729 14.1777 19.3441 15.4489C19.5257 15.6117 19.6447 15.8121 19.6322 16.0063Z" fill="#282828"/>
<path d="M45.9398 17.1272C45.4576 17.1209 45.182 16.9018 45.0192 16.5573C44.8627 16.2317 44.919 15.9123 45.1507 15.6243C45.1632 15.6117 45.1758 15.593 45.1883 15.5804C46.4846 14.2841 47.7746 12.9879 49.0771 11.6978C49.4654 11.3158 49.9789 11.3534 50.3546 11.7354C50.699 12.0924 50.7178 12.5746 50.3922 12.9566C50.3671 12.9816 50.3421 13.0129 50.3171 13.038C49.0646 14.2967 47.8059 15.5491 46.5535 16.8078C46.3593 17.002 46.1464 17.1397 45.9398 17.1272Z" fill="#282828"/>
<path d="M33.384 7.08258C33.384 7.96555 33.384 8.84853 33.384 9.7315C33.384 10.3264 33.0521 10.6646 32.4697 10.6646C31.9124 10.6646 31.5805 10.3202 31.5742 9.74403C31.5742 7.95303 31.5742 6.16203 31.5742 4.37103C31.5742 3.79491 31.9124 3.45049 32.4697 3.45049C33.0333 3.45049 33.3715 3.78865 33.3777 4.35851C33.384 5.26027 33.384 6.17456 33.384 7.08258Z" fill="#282828"/>
<path d="M53.1978 29.4951C52.296 29.4951 51.3943 29.4951 50.4988 29.4951C49.9226 29.4951 49.5845 29.157 49.5845 28.5934C49.5845 28.0297 49.9226 27.6916 50.4988 27.6916C52.3023 27.6916 54.0995 27.6916 55.9031 27.6916C56.4729 27.6916 56.8111 28.036 56.8048 28.6059C56.8048 29.1507 56.4604 29.4951 55.9093 29.4951C55.0013 29.4951 54.0995 29.4951 53.1978 29.4951Z" fill="#282828"/>
<path d="M32.3133 57.4873C31.4241 57.4873 30.5286 57.4873 29.6394 57.4873C29.0445 57.4873 28.7063 57.1554 28.7063 56.573C28.7063 56.0156 29.0507 55.6838 29.6331 55.6775C31.4241 55.6775 33.2151 55.6775 35.0061 55.6775C35.5822 55.6775 35.9204 56.0156 35.9266 56.573C35.9266 57.1366 35.5885 57.4747 35.0186 57.481C34.1106 57.4935 33.2151 57.4873 32.3133 57.4873Z" fill="#282828"/>
<path d="M32.3884 31.0356C30.8792 31.0356 29.7019 29.8458 29.7019 28.3366C29.7019 26.8149 30.8917 25.6438 32.426 25.6438C33.9226 25.6438 35.0999 26.8399 35.0999 28.3616C35.0937 29.8646 33.9039 31.0419 32.3884 31.0356ZM32.4009 29.6016C33.1023 29.6016 33.6659 29.038 33.6596 28.3366C33.6534 27.629 33.0898 27.0779 32.3884 27.0841C31.6933 27.0967 31.1485 27.6415 31.1422 28.3366C31.136 29.0317 31.6996 29.6016 32.4009 29.6016Z" fill="#282828"/>
<path fill-rule="evenodd" clip-rule="evenodd" d="M17.9539 29.8564C10.4512 29.8564 4.36914 35.9384 4.36914 43.4411C4.36914 50.9437 10.4512 57.0258 17.9539 57.0258C25.4565 57.0258 31.5386 50.9437 31.5386 43.4411C31.5386 35.9384 25.4565 29.8564 17.9539 29.8564ZM2.36914 43.4411C2.36914 34.8339 9.34667 27.8564 17.9539 27.8564C26.5611 27.8564 33.5386 34.8339 33.5386 43.4411C33.5386 52.0483 26.5611 59.0258 17.9539 59.0258C9.34667 59.0258 2.36914 52.0483 2.36914 43.4411Z" fill="#282828"/>
<path d="M47.3674 25.8442C46.735 21.8865 44.7373 18.6865 41.6939 16.1503C38.569 13.5515 34.9369 12.4243 30.8665 12.7749C28.6684 12.9691 26.6207 13.6517 24.7295 14.7789C22.7381 15.9624 21.1162 17.5468 19.7886 19.438C18.1917 21.7049 17.2148 24.216 17.0269 26.9902C17.0207 27.0528 17.0207 27.1155 17.0144 27.1781C17.3275 27.1593 17.6406 27.153 17.96 27.153C18.342 27.153 18.7177 27.1656 19.0935 27.1906C19.2124 25.1742 19.8324 23.2767 20.9032 21.4794C21.9303 19.7573 23.2391 18.292 24.8735 17.1272C26.652 15.856 28.6308 15.0794 30.8101 14.8477C34.3357 14.4657 37.4982 15.3863 40.2473 17.6031C42.9964 19.82 44.7811 22.6567 45.326 26.1886C45.7706 29.1131 45.1694 31.8372 43.6352 34.3671C42.94 35.5194 42.0258 36.49 41.0989 37.4481C39.3205 39.2955 37.9177 41.3808 37.0598 43.8043C36.9909 43.9984 36.8782 44.0485 36.6903 44.0485C35.8762 44.0485 35.0622 44.0423 34.2481 44.0423C34.223 44.7061 34.1604 45.3636 34.0602 46.0086C35.4316 46.0086 36.8093 46.0086 38.1807 46.0149C38.4187 46.0149 38.5377 45.9522 38.6066 45.7018C38.8132 44.944 39.095 44.2176 39.4269 43.51C40.3287 41.5812 41.5811 39.9029 43.0903 38.4C44.4993 36.9973 45.6078 35.3816 46.3968 33.5468C47.4489 31.0669 47.7933 28.4931 47.3674 25.8442Z" fill="#282828"/>
<path d="M38.1432 46.9542C37.7299 46.9667 37.3166 46.9542 36.9033 46.9542C36.5088 46.9542 36.5088 46.9542 36.5088 47.355C36.5088 49.1523 36.5025 50.9433 36.5151 52.7405C36.5151 53.0223 36.4274 53.0975 36.1519 53.0975C34.5988 53.0849 33.0395 53.0912 31.4865 53.0912C31.355 53.0912 31.2172 53.0912 31.0857 53.0912C30.6348 53.7049 30.1339 54.2873 29.6016 54.8321C30.4845 54.8321 31.3613 54.8321 32.2442 54.8321C34.0102 54.8321 35.7761 54.8258 37.5421 54.8384C37.8677 54.8384 38.0806 54.7006 38.2309 54.4313C38.3374 54.2372 38.4063 54.0243 38.4063 53.7988C38.4063 51.6071 38.4063 49.4153 38.4125 47.2298C38.4125 47.0356 38.3499 46.9542 38.1432 46.9542Z" fill="#282828"/>
<path fill-rule="evenodd" clip-rule="evenodd" d="M17.7659 31.6575C18.3182 31.6575 18.7659 32.1052 18.7659 32.6575V44.0423C18.7659 44.5946 18.3182 45.0423 17.7659 45.0423C17.2136 45.0423 16.7659 44.5946 16.7659 44.0423V32.6575C16.7659 32.1052 17.2136 31.6575 17.7659 31.6575Z" fill="#282828"/>
<path fill-rule="evenodd" clip-rule="evenodd" d="M16.7659 44.0423C16.7659 43.49 17.2136 43.0423 17.7659 43.0423H25.5811C26.1334 43.0423 26.5811 43.49 26.5811 44.0423C26.5811 44.5946 26.1334 45.0423 25.5811 45.0423H17.7659C17.2136 45.0423 16.7659 44.5946 16.7659 44.0423Z" fill="#282828"/>
</svg>
