<svg width="48" height="48" viewBox="0 0 48 48" fill="none" xmlns="http://www.w3.org/2000/svg">
<rect x="4" y="28" width="8" height="2" transform="rotate(-90 4 28)" fill="#282828"/>
<rect x="6.75" y="33.25" width="18.5" height="36.5" rx="2.25" transform="rotate(-90 6.75 33.25)" stroke="#282828" stroke-width="1.5" stroke-linejoin="round"/>
<path d="M28.8568 10.8098C28.9369 10.3874 28.3852 10.1533 28.1371 10.5044L16.6457 26.7692C16.4585 27.0341 16.648 27.4 16.9724 27.4H22.517C22.7678 27.4 22.9567 27.6281 22.91 27.8745L21.1432 37.1902C21.0631 37.6126 21.6148 37.8467 21.8629 37.4956L33.3543 21.2308C33.5415 20.9659 33.352 20.6 33.0276 20.6H27.483C27.2322 20.6 27.0433 20.3719 27.09 20.1255L28.8568 10.8098Z" fill="#282828"/>
</svg>
