<svg width="512" height="512" viewBox="0 0 512 512" fill="none" xmlns="http://www.w3.org/2000/svg">
<path d="M256.001 388.5C239.467 388.481 223.617 381.905 211.926 370.215C200.235 358.524 193.659 342.673 193.641 326.14C193.641 283.21 246.641 229.69 248.931 227.43C250.806 225.555 253.349 224.502 256.001 224.502C258.652 224.502 261.195 225.555 263.071 227.43C265.331 229.69 318.361 283.21 318.361 326.14C318.342 342.673 311.766 358.524 300.075 370.215C288.385 381.905 272.534 388.481 256.001 388.5ZM256.001 249.09C239.851 267.09 213.641 301.49 213.641 326.09C213.641 337.324 218.104 348.099 226.048 356.043C233.992 363.987 244.766 368.45 256.001 368.45C267.235 368.45 278.01 363.987 285.954 356.043C293.898 348.099 298.361 337.324 298.361 326.09C298.361 301.49 272.151 267.09 256.001 249.09Z" fill="#00D151"/>
<path d="M426 120.49C425.71 99.23 406.86 80.06 372.86 66.49C355.86 59.67 335.8 54.49 314.01 51.24V17C314.01 15.6859 313.751 14.3848 313.248 13.1709C312.744 11.957 312.007 10.8541 311.077 9.9254C310.148 8.99668 309.044 8.2603 307.83 7.75834C306.615 7.25638 305.314 6.99869 304 7.00001H208C205.348 7.00001 202.804 8.05357 200.929 9.92894C199.053 11.8043 198 14.3478 198 17V51.21C176.21 54.49 156.19 59.64 139.15 66.46C105.15 80.06 86.2998 99.23 86.0098 120.46C86.0098 120.63 86.0098 120.8 86.0098 120.97V457C86.0256 470.256 91.2986 482.964 100.672 492.338C110.045 501.711 122.754 506.984 136.01 507H376C389.256 506.984 401.964 501.711 411.338 492.338C420.711 482.964 425.984 470.256 426 457V121C426 120.83 426 120.66 426 120.49ZM218 27H294V48.77C281.68 47.6 269 47 256 47C243 47 230.32 47.6 218 48.77V27ZM146.58 85C161.47 79 178.93 74.46 198 71.4C204.49 70.4 211.17 69.5 218 68.82C230.26 67.63 243 67 256 67C269 67 281.74 67.63 294 68.85C300.83 69.53 307.51 70.39 314 71.43C333.07 74.49 350.53 79.07 365.42 85.03C384.08 92.49 397.22 101.73 402.88 111.03H109.12C114.78 101.73 127.92 92.49 146.58 85ZM406 457C406 460.94 405.224 464.841 403.716 468.48C402.209 472.12 399.999 475.427 397.213 478.213C394.427 480.999 391.12 483.209 387.48 484.716C383.84 486.224 379.939 487 376 487H136C132.06 487 128.159 486.224 124.519 484.716C120.879 483.209 117.572 480.999 114.787 478.213C112.001 475.427 109.791 472.12 108.283 468.48C106.776 464.841 106 460.94 106 457V131H406V457Z" fill="#FCFCFC"/>
</svg>
