<?xml version="1.0" encoding="UTF-8"?>
<svg height="600" width="800" xmlns="http://www.w3.org/2000/svg" xmlns:xlink="http://www.w3.org/1999/xlink">
    <g id="Notes" font-family="'LucidaGrande', 'Lucida Grande', sans-serif" font-size="13">
        <rect fill="white" height="600.0" width="800.0" x="0.0" y="0.0" />
        <g font-size="13">
            <text x="18.0" y="176.0">Small</text>
            <text x="18.0" y="376.0">Medium</text>
            <text x="18.0" y="576.0">Large</text>
        </g>
        <g font-size="9">
            <text x="250.0" y="30.0">Ultralight</text>
            <text x="450.0" y="30.0">Regular</text>
            <text x="650.0" y="30.0">Black</text>
            <text id="template-version" fill="#505050" text-anchor="end" x="785.0" y="575.0">Template v.3.0</text>
            <a href="https://github.com/swhitty/SwiftDraw">
                <text fill="#505050" text-anchor="end" x="785.0" y="590.0">https://github.com/swhitty/SwiftDraw</text>
            </a>
        </g>
    </g>
    <g id="Guides" stroke="rgb(39, 170, 225)" stroke-width="0.5">
        <path id="Capline-S" d="M18,76 l800,0" />
        <path id="H-reference" d="M85,145.755 L87.685,145.755 L113.369,79.287 L114.052,79.287 L114.052,76 L112.148,76 L85,145.755 Z M95.693,121.536 L130.996,121.536 L130.263,119.313 L96.474,119.313 L95.693,121.536 Z M139.15,145.755 L141.787,145.755 L114.638,76 L113.466,76 L113.466,79.287 L139.15,145.755 Z" stroke="none" />
        <path id="Baseline-S" d="M18,146 l800,0" />
        <path id="left-margin-Ultralight-S" d="M221,56 l0,110" />
        <path id="right-margin-Ultralight-S" d="M309,56 l0,110" />
        <path id="left-margin-Regular-S" d="M421,56 l0,110" />
        <path id="right-margin-Regular-S" d="M509,56 l0,110" />
        <path id="left-margin-Black-S" d="M621,56 l0,110" />
        <path id="right-margin-Black-S" d="M709,56 l0,110" />
        <path id="Capline-M" d="M18,276 l800,0" />
        <path id="Baseline-M" d="M18,346 l800,0" />
        <path id="Capline-L" d="M18,476 l800,0" />
        <path id="Baseline-L" d="M18,546 l800,0" />
    </g>
    <g id="Symbols">
        <g id="Ultralight-S">
            <path d="M241.621,87.827 C241.621,86.764 242.483,85.902 243.546,85.902 L286.454,85.902 C287.517,85.902 288.379,86.764 288.379,87.827 L288.379,144.075 C288.379,145.138 287.517,146 286.454,146 L243.546,146 C242.483,146 241.621,145.138 241.621,144.075 L241.621,87.827 Z M244.371,88.652 L244.371,143.25 L285.629,143.25 L285.629,88.652 L244.371,88.652 Z" />
            <path d="M247.122,87.277 C247.122,86.517 247.738,85.902 248.497,85.902 L263.075,85.902 C263.834,85.902 264.45,86.517 264.45,87.277 L264.45,139.674 C264.45,140.433 263.834,141.049 263.075,141.049 L248.497,141.049 C247.738,141.049 247.122,140.433 247.122,139.674 L247.122,87.277 Z M249.872,88.652 L249.872,138.299 L261.699,138.299 L261.699,88.652 L249.872,88.652 Z" />
            <path d="M266.1,87.277 C266.1,86.517 266.716,85.902 267.475,85.902 L282.053,85.902 C282.813,85.902 283.428,86.517 283.428,87.277 L283.428,139.674 C283.428,140.433 282.813,141.049 282.053,141.049 L267.475,141.049 C266.716,141.049 266.1,140.433 266.1,139.674 L266.1,87.277 Z M268.851,88.652 L268.851,138.299 L280.678,138.299 L280.678,88.652 L268.851,88.652 Z" />
            <path d="M243.353,76.552 C243.613,76.205 244.021,76 244.455,76 L285.545,76 C285.979,76 286.387,76.205 286.647,76.552 L289.934,80.953 C290.245,81.37 290.295,81.927 290.061,82.392 C289.828,82.858 289.352,83.151 288.832,83.151 L241.168,83.151 C240.648,83.151 240.172,82.858 239.939,82.392 C239.705,81.927 239.755,81.37 240.066,80.953 L243.353,76.552 Z M245.144,78.75 L243.912,80.401 L286.088,80.401 L284.856,78.75 L245.144,78.75 Z" />
            <path d="M239.793,81.776 C239.793,81.017 240.408,80.401 241.168,80.401 L288.832,80.401 C289.592,80.401 290.207,81.017 290.207,81.776 L290.207,87.277 C290.207,88.037 289.592,88.652 288.832,88.652 L241.168,88.652 C240.408,88.652 239.793,88.037 239.793,87.277 L239.793,81.776 Z M242.543,83.151 L242.543,85.902 L287.457,85.902 L287.457,83.151 L242.543,83.151 Z" />
        </g>
        <g id="Regular-S">
            <path d="M441.621,87.827 C441.621,86.764 442.483,85.902 443.546,85.902 L486.454,85.902 C487.517,85.902 488.379,86.764 488.379,87.827 L488.379,144.075 C488.379,145.138 487.517,146 486.454,146 L443.546,146 C442.483,146 441.621,145.138 441.621,144.075 L441.621,87.827 Z M444.371,88.652 L444.371,143.25 L485.629,143.25 L485.629,88.652 L444.371,88.652 Z" />
            <path d="M447.122,87.277 C447.122,86.517 447.737,85.902 448.497,85.902 L463.075,85.902 C463.834,85.902 464.45,86.517 464.45,87.277 L464.45,139.674 C464.45,140.433 463.834,141.049 463.075,141.049 L448.497,141.049 C447.737,141.049 447.122,140.433 447.122,139.674 L447.122,87.277 Z M449.872,88.652 L449.872,138.299 L461.699,138.299 L461.699,88.652 L449.872,88.652 Z" />
            <path d="M466.1,87.277 C466.1,86.517 466.716,85.902 467.475,85.902 L482.053,85.902 C482.813,85.902 483.428,86.517 483.428,87.277 L483.428,139.674 C483.428,140.433 482.813,141.049 482.053,141.049 L467.475,141.049 C466.716,141.049 466.1,140.433 466.1,139.674 L466.1,87.277 Z M468.851,88.652 L468.851,138.299 L480.678,138.299 L480.678,88.652 L468.851,88.652 Z" />
            <path d="M443.353,76.552 C443.613,76.205 444.021,76 444.455,76 L485.545,76 C485.979,76 486.387,76.205 486.647,76.552 L489.934,80.953 C490.245,81.37 490.295,81.927 490.061,82.392 C489.828,82.858 489.352,83.151 488.832,83.151 L441.168,83.151 C440.648,83.151 440.172,82.858 439.939,82.392 C439.705,81.927 439.755,81.37 440.066,80.953 L443.353,76.552 Z M445.144,78.75 L443.912,80.401 L486.088,80.401 L484.855,78.75 L445.144,78.75 Z" />
            <path d="M439.793,81.776 C439.793,81.017 440.408,80.401 441.168,80.401 L488.832,80.401 C489.592,80.401 490.207,81.017 490.207,81.776 L490.207,87.277 C490.207,88.037 489.592,88.652 488.832,88.652 L441.168,88.652 C440.408,88.652 439.793,88.037 439.793,87.277 L439.793,81.776 Z M442.543,83.151 L442.543,85.902 L487.457,85.902 L487.457,83.151 L442.543,83.151 Z" />
        </g>
        <g id="Black-S">
            <path d="M641.621,87.827 C641.621,86.764 642.483,85.902 643.546,85.902 L686.454,85.902 C687.517,85.902 688.379,86.764 688.379,87.827 L688.379,144.075 C688.379,145.138 687.517,146 686.454,146 L643.546,146 C642.483,146 641.621,145.138 641.621,144.075 L641.621,87.827 Z M644.371,88.652 L644.371,143.25 L685.629,143.25 L685.629,88.652 L644.371,88.652 Z" />
            <path d="M647.122,87.277 C647.122,86.517 647.737,85.902 648.497,85.902 L663.075,85.902 C663.834,85.902 664.45,86.517 664.45,87.277 L664.45,139.674 C664.45,140.433 663.834,141.049 663.075,141.049 L648.497,141.049 C647.737,141.049 647.122,140.433 647.122,139.674 L647.122,87.277 Z M649.872,88.652 L649.872,138.299 L661.699,138.299 L661.699,88.652 L649.872,88.652 Z" />
            <path d="M666.1,87.277 C666.1,86.517 666.716,85.902 667.475,85.902 L682.053,85.902 C682.813,85.902 683.428,86.517 683.428,87.277 L683.428,139.674 C683.428,140.433 682.813,141.049 682.053,141.049 L667.475,141.049 C666.716,141.049 666.1,140.433 666.1,139.674 L666.1,87.277 Z M668.851,88.652 L668.851,138.299 L680.678,138.299 L680.678,88.652 L668.851,88.652 Z" />
            <path d="M643.353,76.552 C643.613,76.205 644.021,76 644.455,76 L685.545,76 C685.979,76 686.387,76.205 686.647,76.552 L689.934,80.953 C690.245,81.37 690.295,81.927 690.061,82.392 C689.828,82.858 689.352,83.151 688.832,83.151 L641.168,83.151 C640.648,83.151 640.172,82.858 639.938,82.392 C639.705,81.927 639.755,81.37 640.066,80.953 L643.353,76.552 Z M645.144,78.75 L643.912,80.401 L686.088,80.401 L684.856,78.75 L645.144,78.75 Z" />
            <path d="M639.793,81.776 C639.793,81.017 640.408,80.401 641.168,80.401 L688.832,80.401 C689.592,80.401 690.207,81.017 690.207,81.776 L690.207,87.277 C690.207,88.037 689.592,88.652 688.832,88.652 L641.168,88.652 C640.408,88.652 639.793,88.037 639.793,87.277 L639.793,81.776 Z M642.543,83.151 L642.543,85.902 L687.457,85.902 L687.457,83.151 L642.543,83.151 Z" />
        </g>
    </g>
</svg>