<svg width="64" height="64" viewBox="0 0 64 64" fill="none" xmlns="http://www.w3.org/2000/svg">
<g clip-path="url(#clip0_5611_3306)">
<path d="M30.4145 40.8012C24.6026 40.8012 18.7908 40.8337 12.9789 40.785C10.836 40.7688 8.70928 40.4441 6.79363 39.3564C2.89741 37.1323 0.689544 33.853 0.413561 29.3236C0.186281 25.4598 1.53373 22.2292 4.34226 19.6155C6.03062 18.0245 8.07614 17.0992 10.3489 16.6771C10.5925 16.6284 10.836 16.5959 11.0632 16.5472C11.4691 16.4498 12.086 16.7745 12.2646 16.3524C12.4107 16.0115 12.4107 15.5082 12.4269 15.0699C12.5243 10.8327 14.2452 7.27744 17.2323 4.38773C19.846 1.87142 23.0117 0.459038 26.6644 0.0856493C29.619 -0.222802 32.3789 0.312929 35.0251 1.51427C36.3887 2.13117 37.6388 2.99159 38.7752 4.01435C40.8856 5.91376 42.3792 8.20279 43.2883 10.8652C43.4344 11.3035 43.6455 11.2711 44.0026 11.1737C45.5286 10.7353 47.0709 10.4918 48.6781 10.5081C52.0548 10.5405 55.0906 11.612 57.753 13.6413C60.7564 15.9303 62.6883 18.9824 63.3376 22.6838C64.1818 27.5541 63.0941 31.9698 59.7336 35.7524C57.5258 38.22 54.7984 39.746 51.6165 40.4441C50.3989 40.7038 49.1164 40.8012 47.8501 40.8012C42.0383 40.8337 36.2264 40.8012 30.4145 40.8012ZM30.6093 37.4894C36.6809 37.4894 42.7688 37.4894 48.8404 37.4894C49.5547 37.4894 50.2528 37.392 50.9346 37.2297C53.5808 36.629 55.8049 35.3465 57.542 33.2361C59.9609 30.2976 60.8863 26.9696 60.0908 23.2195C59.3278 19.6317 57.2498 16.9855 54.1003 15.1673C52.3308 14.1445 50.3664 13.7224 48.3696 13.7387C46.2105 13.7549 44.1812 14.4692 42.2493 15.4433C41.1778 15.9952 41.1616 15.9465 40.8694 14.7452C40.8207 14.5342 40.772 14.3231 40.7233 14.1121C40.1713 10.9626 38.8239 8.25149 36.2913 6.22221C32.4438 3.10523 28.1742 2.40715 23.5636 4.17669C20.0733 5.52413 17.7355 8.05668 16.3881 11.5146C15.3978 14.0471 15.479 16.6446 15.966 19.2746C16.1121 20.0863 16.0634 20.1188 15.2192 20.0213C14.1802 19.8915 13.125 19.6642 12.1022 19.7291C9.24501 19.9402 6.89104 21.1902 5.20267 23.5604C2.57272 27.2781 3.23833 32.0509 6.40401 35.0543C8.17355 36.7427 10.3652 37.4894 12.8653 37.4732C18.7908 37.457 24.7 37.4894 30.6093 37.4894Z" fill="#282828"/>
<path fill-rule="evenodd" clip-rule="evenodd" d="M14.2361 46.6994C14.7443 47.2056 14.746 48.0279 14.2398 48.5361L10.2299 52.5622C9.72377 53.0704 8.90145 53.0721 8.39324 52.5659C7.88502 52.0597 7.88336 51.2374 8.38953 50.7292L12.3994 46.7031C12.9056 46.1949 13.7279 46.1932 14.2361 46.6994Z" fill="#282828"/>
<path fill-rule="evenodd" clip-rule="evenodd" d="M25.1802 46.7013C25.6874 47.2084 25.6874 48.0308 25.1802 48.538L21.1541 52.5641C20.6469 53.0712 19.8246 53.0712 19.3174 52.5641C18.8102 52.0569 18.8102 51.2345 19.3174 50.7274L23.3435 46.7013C23.8507 46.1941 24.673 46.1941 25.1802 46.7013Z" fill="#282828"/>
<path fill-rule="evenodd" clip-rule="evenodd" d="M36.3494 46.7013C36.8566 47.2084 36.8566 48.0308 36.3494 48.538L32.3233 52.5641C31.8161 53.0712 30.9938 53.0712 30.4866 52.5641C29.9794 52.0569 29.9794 51.2345 30.4866 50.7274L34.5127 46.7013C35.0199 46.1941 35.8422 46.1941 36.3494 46.7013Z" fill="#282828"/>
<path fill-rule="evenodd" clip-rule="evenodd" d="M47.5002 46.6994C48.0085 47.2056 48.0101 48.0279 47.504 48.5361L43.4941 52.5622C42.9879 53.0704 42.1656 53.0721 41.6574 52.5659C41.1492 52.0597 41.1475 51.2374 41.6537 50.7292L45.6636 46.7031C46.1697 46.1949 46.992 46.1932 47.5002 46.6994Z" fill="#282828"/>
<path fill-rule="evenodd" clip-rule="evenodd" d="M14.435 57.7749C14.9412 58.2831 14.9395 59.1054 14.4313 59.6116L10.4052 63.6215C9.89696 64.1276 9.07465 64.126 8.56848 63.6177C8.06232 63.1095 8.06398 62.2872 8.57219 61.781L12.5983 57.7712C13.1065 57.265 13.9288 57.2667 14.435 57.7749Z" fill="#282828"/>
<path fill-rule="evenodd" clip-rule="evenodd" d="M25.3766 57.7749C25.8828 58.2831 25.8811 59.1054 25.3729 59.6116L21.3468 63.6215C20.8386 64.1276 20.0163 64.126 19.5101 63.6177C19.004 63.1095 19.0056 62.2872 19.5138 61.781L23.5399 57.7712C24.0482 57.265 24.8705 57.2667 25.3766 57.7749Z" fill="#282828"/>
<path fill-rule="evenodd" clip-rule="evenodd" d="M36.5297 57.7749C37.0359 58.2831 37.0342 59.1054 36.526 59.6116L32.4999 63.6215C31.9917 64.1276 31.1694 64.126 30.6632 63.6177C30.157 63.1095 30.1587 62.2872 30.6669 61.781L34.693 57.7712C35.2012 57.265 36.0236 57.2667 36.5297 57.7749Z" fill="#282828"/>
</g>
<defs>
<clipPath id="clip0_5611_3306">
<rect width="64" height="64" fill="white"/>
</clipPath>
</defs>
</svg>
