<svg width="64" height="64" viewBox="0 0 64 64" fill="none" xmlns="http://www.w3.org/2000/svg">
<path d="M31.025 37.525C26.55 37.525 22.075 37.55 17.6 37.5125C15.95 37.5 14.3125 37.25 12.8375 36.4125C9.83748 34.7 8.13748 32.175 7.92498 28.6875C7.74998 25.7125 8.78748 23.225 10.95 21.2125C12.25 19.9875 13.825 19.275 15.575 18.95C15.7625 18.9125 15.95 18.8875 16.125 18.85C16.4375 18.775 16.9125 19.025 17.05 18.7C17.1625 18.4375 17.1625 18.05 17.175 17.7125C17.25 14.45 18.575 11.7125 20.875 9.4875C22.8875 7.55 25.325 6.4625 28.1375 6.175C30.4125 5.9375 32.5375 6.35 34.575 7.275C35.625 7.75 36.5875 8.4125 37.4625 9.2C39.0875 10.6625 40.2375 12.425 40.9375 14.475C41.05 14.8125 41.2125 14.7875 41.4875 14.7125C42.6625 14.375 43.85 14.1875 45.0875 14.2C47.6875 14.225 50.025 15.05 52.075 16.6125C54.3875 18.375 55.875 20.725 56.375 23.575C57.025 27.325 56.1875 30.725 53.6 33.6375C51.9 35.5375 49.8 36.7125 47.35 37.25C46.4125 37.45 45.425 37.525 44.45 37.525C39.975 37.55 35.5 37.525 31.025 37.525ZM31.175 34.975C35.85 34.975 40.5375 34.975 45.2125 34.975C45.7625 34.975 46.3 34.9 46.825 34.775C48.8625 34.3125 50.575 33.325 51.9125 31.7C53.775 29.4375 54.4875 26.875 53.875 23.9875C53.2875 21.225 51.6875 19.1875 49.2625 17.7875C47.9 17 46.3875 16.675 44.85 16.6875C43.1875 16.7 41.625 17.25 40.1375 18C39.3125 18.425 39.3 18.3875 39.075 17.4625C39.0375 17.3 39 17.1375 38.9625 16.975C38.5375 14.55 37.5 12.4625 35.55 10.9C32.5875 8.5 29.3 7.9625 25.75 9.325C23.0625 10.3625 21.2625 12.3125 20.225 14.975C19.4625 16.925 19.525 18.925 19.9 20.95C20.0125 21.575 19.975 21.6 19.325 21.525C18.525 21.425 17.7125 21.25 16.925 21.3C14.725 21.4625 12.9125 22.425 11.6125 24.25C9.58748 27.1125 10.1 30.7875 12.5375 33.1C13.9 34.4 15.5875 34.975 17.5125 34.9625C22.075 34.95 26.625 34.975 31.175 34.975Z" fill="#282828"/>
<path fill-rule="evenodd" clip-rule="evenodd" d="M18.5681 42.0665C18.9594 42.4562 18.9607 43.0894 18.5709 43.4807L15.4834 46.5807C15.0937 46.972 14.4605 46.9733 14.0692 46.5835C13.6779 46.1938 13.6766 45.5606 14.0664 45.1693L17.1539 42.0693C17.5436 41.678 18.1768 41.6767 18.5681 42.0665Z" fill="#282828"/>
<path fill-rule="evenodd" clip-rule="evenodd" d="M26.9946 42.0679C27.3851 42.4584 27.3851 43.0916 26.9946 43.4821L23.8946 46.5821C23.5041 46.9726 22.8709 46.9726 22.4804 46.5821C22.0899 46.1916 22.0899 45.5584 22.4804 45.1679L25.5804 42.0679C25.9709 41.6774 26.6041 41.6774 26.9946 42.0679Z" fill="#282828"/>
<path fill-rule="evenodd" clip-rule="evenodd" d="M35.5947 42.0679C35.9852 42.4584 35.9852 43.0916 35.5947 43.4821L32.4947 46.5821C32.1042 46.9726 31.471 46.9726 31.0805 46.5821C30.69 46.1916 30.69 45.5584 31.0805 45.1679L34.1805 42.0679C34.571 41.6774 35.2042 41.6774 35.5947 42.0679Z" fill="#282828"/>
<path fill-rule="evenodd" clip-rule="evenodd" d="M44.1806 42.0665C44.5719 42.4562 44.5732 43.0894 44.1835 43.4807L41.096 46.5807C40.7063 46.972 40.0731 46.9733 39.6818 46.5835C39.2905 46.1938 39.2892 45.5606 39.6789 45.1693L42.7664 42.0693C43.1561 41.678 43.7893 41.6767 44.1806 42.0665Z" fill="#282828"/>
<path fill-rule="evenodd" clip-rule="evenodd" d="M18.7211 50.5943C19.1109 50.9856 19.1096 51.6188 18.7183 52.0085L15.6183 55.096C15.227 55.4858 14.5938 55.4845 14.2041 55.0932C13.8143 54.7019 13.8156 54.0687 14.2069 53.679L17.3069 50.5915C17.6982 50.2017 18.3314 50.203 18.7211 50.5943Z" fill="#282828"/>
<path fill-rule="evenodd" clip-rule="evenodd" d="M27.1459 50.5943C27.5357 50.9856 27.5344 51.6188 27.1431 52.0085L24.0431 55.096C23.6518 55.4858 23.0186 55.4845 22.6289 55.0932C22.2391 54.7019 22.2404 54.0687 22.6317 53.679L25.7317 50.5915C26.123 50.2017 26.7562 50.203 27.1459 50.5943Z" fill="#282828"/>
<path fill-rule="evenodd" clip-rule="evenodd" d="M35.7336 50.5943C36.1233 50.9856 36.122 51.6188 35.7307 52.0085L32.6307 55.096C32.2394 55.4858 31.6062 55.4845 31.2165 55.0932C30.8268 54.7019 30.8281 54.0687 31.2194 53.679L34.3194 50.5915C34.7107 50.2017 35.3439 50.203 35.7336 50.5943Z" fill="#282828"/>
</svg>
