<svg width="120" height="120" viewBox="0 0 120 120" fill="none" xmlns="http://www.w3.org/2000/svg">
<g clip-path="url(#clip0_7520_32787)">
<path d="M89.7886 29.4584C88.9236 28.4955 89.0031 27.0136 89.966 26.1486C90.929 25.2835 92.4109 25.3628 93.2759 26.3257C101.293 35.2504 106.174 47.0582 106.174 60.0004C106.174 72.9426 101.293 84.7505 93.2759 93.6751C92.4109 94.638 90.929 94.7175 89.966 93.8525C89.0031 92.9875 88.9237 91.5056 89.7886 90.5426C97.0631 82.4449 101.486 71.7419 101.486 60.0004C101.486 48.259 97.0631 37.5562 89.7886 29.4584Z" fill="#12A71E"/>
<path d="M100.1 19.667C99.2351 18.704 99.3146 17.2221 100.278 16.3571C101.24 15.4921 102.722 15.5713 103.587 16.5343C113.936 28.0543 120.235 43.2944 120.235 60.0001C120.235 76.7057 113.936 91.9456 103.587 103.466C102.722 104.429 101.24 104.508 100.278 103.643C99.3146 102.778 99.2352 101.296 100.1 100.333C109.706 89.64 115.548 75.505 115.548 60.0001C115.548 44.4951 109.706 30.3601 100.1 19.667Z" fill="#12A71E"/>
<path d="M30.4457 29.4584C31.3108 28.4955 31.2313 27.0136 30.2683 26.1486C29.3054 25.2835 27.8235 25.3628 26.9585 26.3257C18.9412 35.2504 14.0608 47.0582 14.0608 60.0004C14.0608 72.9426 18.9412 84.7505 26.9585 93.6751C27.8235 94.638 29.3054 94.7175 30.2683 93.8525C31.2313 92.9875 31.3107 91.5056 30.4457 90.5426C23.1713 82.4449 18.7483 71.7419 18.7483 60.0004C18.7483 48.259 23.1713 37.5562 30.4457 29.4584Z" fill="#12A71E"/>
<path d="M20.1342 19.667C20.9992 18.704 20.9198 17.2221 19.9568 16.3571C18.9939 15.4921 17.512 15.5713 16.647 16.5343C6.29816 28.0543 -0.000760275 43.2944 -0.000761006 60.0001C-0.000748384 76.7057 6.2982 91.9456 16.647 103.466C17.512 104.429 18.9939 104.508 19.9568 103.643C20.9197 102.778 20.9992 101.296 20.1342 100.333C10.5282 89.64 4.68675 75.505 4.68674 60.0001C4.68674 44.4951 10.5282 30.3601 20.1342 19.667Z" fill="#12A71E"/>
<path d="M69.8438 38.4375C81.7524 38.4375 91.4062 48.0914 91.4062 60C91.4062 71.9086 81.7524 81.5625 69.8438 81.5625H50.1562C38.2476 81.5625 28.5938 71.9086 28.5938 60C28.5938 48.0914 38.2476 38.4375 50.1562 38.4375H69.8438ZM69.4437 51.5627C68.9048 51.5713 68.431 51.7871 68.0598 52.1585L56.5496 63.6685L51.9658 59.0657L51.9644 59.0643L51.8923 58.9954C51.5265 58.66 51.0688 58.4617 50.5476 58.4617C49.9918 58.4617 49.5084 58.6875 49.1315 59.0643C48.7535 59.4424 48.5302 59.9253 48.525 60.4779C48.5197 61.0257 48.7278 61.5147 49.1093 61.8967L49.1098 61.897L54.9939 67.7813C55.4127 68.1996 55.944 68.4375 56.5482 68.4375C57.1526 68.4375 57.684 68.1997 58.1028 67.7813L58.1035 67.7804L70.8714 54.9907L70.8712 54.9905C71.2479 54.6135 71.4734 54.1305 71.4734 53.5748C71.4734 53.0189 71.2476 52.5354 70.8707 52.1585C70.4926 51.7804 70.0051 51.5539 69.4437 51.5627ZM50.5486 59.3992C50.2655 59.3994 50.0146 59.5088 49.7962 59.7272C49.5775 59.9459 49.4669 60.1993 49.4643 60.4873C49.4615 60.7755 49.565 61.0244 49.7745 61.2341L55.6583 67.1182C55.9129 67.3725 56.21 67.4995 56.5491 67.4998C56.5489 67.4998 56.5485 67.5 56.5482 67.5C56.2087 67.5 55.9113 67.3725 55.6565 67.118L49.7726 61.2341C49.5632 61.0244 49.4597 60.7752 49.4625 60.4871C49.4651 60.1992 49.5758 59.9458 49.7944 59.7272C50.013 59.5086 50.2642 59.3992 50.5476 59.3992H50.5486ZM69.3105 52.5128C69.0913 52.547 68.8961 52.65 68.7247 52.8216L56.5501 64.996L56.5491 64.9949L68.7229 52.8214C68.8947 52.6494 69.0907 52.5467 69.3105 52.5128ZM50.6005 59.4003C50.6077 59.4007 50.6149 59.4014 50.622 59.4019C50.6011 59.4005 50.5799 59.3996 50.5586 59.3994L50.6005 59.4003ZM69.4599 52.5002C69.4306 52.5007 69.4015 52.5023 69.3729 52.505C69.4011 52.5024 69.4297 52.5007 69.4585 52.5002H69.4599Z" fill="#12A71E"/>
</g>
<defs>
<clipPath id="clip0_7520_32787">
<rect width="120" height="120" fill="white"/>
</clipPath>
</defs>
</svg>
