<svg width="64" height="64" viewBox="0 0 64 64" fill="none" xmlns="http://www.w3.org/2000/svg">
<path d="M31.9688 4.6375C35.6625 4.6375 39.2375 5.3625 42.6063 6.7875C45.8625 8.1625 48.7875 10.1375 51.2938 12.6438C53.8 15.15 55.775 18.0812 57.15 21.3312C58.575 24.7 59.3 28.2812 59.3 31.9688C59.3 35.6562 58.575 39.2375 57.15 42.6063C55.775 45.8625 53.8 48.7875 51.2938 51.2938C48.7875 53.8 45.8563 55.775 42.6063 57.15C39.2375 58.575 35.6562 59.3 31.9688 59.3C28.2812 59.3 24.7 58.575 21.3312 57.15C18.075 55.775 15.15 53.8 12.6438 51.2938C10.1375 48.7875 8.1625 45.8563 6.7875 42.6063C5.3625 39.2375 4.6375 35.6562 4.6375 31.9688C4.6375 28.2812 5.3625 24.7 6.7875 21.3312C8.1625 18.075 10.1375 15.15 12.6438 12.6438C15.15 10.1375 18.0812 8.1625 21.3312 6.7875C24.7 5.35625 28.275 4.6375 31.9688 4.6375ZM31.9688 2.375C15.625 2.375 2.375 15.625 2.375 31.9688C2.375 48.3125 15.625 61.5625 31.9688 61.5625C48.3125 61.5625 61.5625 48.3125 61.5625 31.9688C61.5625 15.625 48.3125 2.375 31.9688 2.375Z" fill="#FCFCFC"/>
<path d="M32.5625 7.4375H31.4375C31.0938 7.4375 30.8125 7.71875 30.8125 8.0625V11.875C30.8125 12.2188 31.0938 12.5 31.4375 12.5H32.5625C32.9062 12.5 33.1875 12.2188 33.1875 11.875V8.0625C33.1875 7.71875 32.9062 7.4375 32.5625 7.4375Z" fill="#FCFCFC"/>
<path d="M11.875 30.8125H8.0625C7.71875 30.8125 7.4375 31.0938 7.4375 31.4375V32.5625C7.4375 32.9062 7.71875 33.1875 8.0625 33.1875H11.875C12.2188 33.1875 12.5 32.9062 12.5 32.5625V31.4375C12.5 31.0938 12.2188 30.8125 11.875 30.8125Z" fill="#FCFCFC"/>
<path d="M55.875 30.75H52.0625C51.7188 30.75 51.4375 31.0312 51.4375 31.375V32.5C51.4375 32.8438 51.7188 33.125 52.0625 33.125H55.875C56.2188 33.125 56.5 32.8438 56.5 32.5V31.375C56.5 31.0312 56.2188 30.75 55.875 30.75Z" fill="#FCFCFC"/>
<path d="M17.3875 45.175C17.225 45.175 17.0687 45.2375 16.9437 45.3562L14.25 48.0562C14.0062 48.3 14.0062 48.6937 14.25 48.9375L15.0437 49.7312C15.1687 49.8562 15.325 49.9125 15.4875 49.9125C15.65 49.9125 15.8062 49.85 15.9312 49.7312L18.625 47.0375C18.8687 46.7937 18.8687 46.4 18.625 46.1562L17.8312 45.3625C17.7062 45.2375 17.5437 45.175 17.3875 45.175Z" fill="#FCFCFC"/>
<path d="M48.4562 14.0187C48.2937 14.0187 48.1375 14.0812 48.0125 14.2L45.3125 16.9C45.0687 17.1437 45.0687 17.5375 45.3125 17.7812L46.1062 18.575C46.2312 18.7 46.3875 18.7562 46.55 18.7562C46.7125 18.7562 46.8687 18.6937 46.9937 18.575L49.6875 15.8812C49.9312 15.6375 49.9312 15.2437 49.6875 15L48.8937 14.2062C48.7749 14.0812 48.6124 14.0187 48.4562 14.0187Z" fill="#FCFCFC"/>
<path d="M15.4374 14.0625C15.2749 14.0625 15.1187 14.125 14.9937 14.2437L14.1999 15.0375C13.9562 15.2813 13.9562 15.675 14.1999 15.9187L16.8937 18.6125C17.0187 18.7375 17.1749 18.7938 17.3374 18.7938C17.4999 18.7938 17.6562 18.7312 17.7812 18.6125L18.5749 17.8188C18.8187 17.575 18.8187 17.1813 18.5749 16.9375L15.8812 14.25C15.7624 14.125 15.5999 14.0625 15.4374 14.0625Z" fill="#FCFCFC"/>
<path d="M46.6 45.1312C46.4375 45.1312 46.2813 45.1937 46.1563 45.3125L45.3625 46.1062C45.1188 46.35 45.1188 46.7437 45.3625 46.9875L48.0563 49.6812C48.1813 49.8062 48.3375 49.8625 48.5 49.8625C48.6625 49.8625 48.8187 49.8 48.9437 49.6812L49.7375 48.8875C49.9812 48.6437 49.9812 48.25 49.7375 48.0062L47.0375 45.3125C46.9187 45.1937 46.7562 45.1312 46.6 45.1312Z" fill="#FCFCFC"/>
<path fill-rule="evenodd" clip-rule="evenodd" d="M31.9875 33.6312C31.2937 33.6312 30.6625 33.2 30.4187 32.5562C30.2562 32.1375 30.2687 31.6812 30.45 31.2687C30.6312 30.8562 30.9625 30.5437 31.3812 30.3812C31.575 30.3062 31.7812 30.2687 31.9875 30.2687C32.6812 30.2687 33.3125 30.7 33.5562 31.3437C33.7187 31.7625 33.7062 32.2187 33.525 32.6312C33.3437 33.0437 33.0125 33.3562 32.5937 33.5187C32.4 33.5937 32.1937 33.6312 31.9875 33.6312Z" fill="#FCFCFC"/>
<path d="M31.9874 31.3938C32.1749 31.3938 32.4124 31.5063 32.5062 31.75C32.5749 31.925 32.5374 32.075 32.4937 32.175C32.4499 32.2688 32.3624 32.4 32.1874 32.4688C32.1249 32.4938 32.0562 32.5063 31.9874 32.5063C31.7999 32.5063 31.5624 32.3938 31.4687 32.15C31.3999 31.975 31.4374 31.825 31.4812 31.725C31.5249 31.6313 31.6124 31.5 31.7874 31.4313C31.8562 31.4063 31.9187 31.3938 31.9874 31.3938ZM31.9874 29.1375C31.6499 29.1375 31.3062 29.2 30.9749 29.325C29.5249 29.8813 28.8062 31.5125 29.3624 32.9625C29.7937 34.0813 30.8562 34.7625 31.9874 34.7625C32.3249 34.7625 32.6687 34.7 32.9999 34.575C34.4499 34.0188 35.1687 32.3875 34.6124 30.9375C34.1812 29.825 33.1187 29.1375 31.9874 29.1375Z" fill="#FCFCFC"/>
<path fill-rule="evenodd" clip-rule="evenodd" d="M28.4939 22.6562L32.9501 30.3625L30.1939 31.425L28.4939 22.6562Z" fill="#FCFCFC"/>
<path d="M30.8813 29.0438L31.3126 29.7875L31.0501 29.8875L30.8813 29.0438ZM26.1001 16.2625L29.3376 32.9625L34.5876 30.9375L26.1001 16.2625Z" fill="#FCFCFC"/>
<path d="M28.2812 51.2312C28.2812 51.4125 28.1374 51.55 27.9562 51.55C27.8124 51.55 27.6937 51.4437 27.65 51.3125C27.6437 51.2875 27.6375 51.2625 27.6375 51.2312V47.825C27.6375 47.6437 27.7812 47.5062 27.9562 47.5062C28.1374 47.5062 28.2812 47.6437 28.2812 47.825V48.8312C28.4687 48.7312 28.675 48.6625 28.9 48.6625C29.6 48.6625 30.1562 49.2312 30.1562 49.925V51.2312C30.1562 51.4125 30.0187 51.55 29.8375 51.55C29.6562 51.55 29.5187 51.4125 29.5187 51.2312V49.925C29.5187 49.5875 29.2437 49.3062 28.8937 49.3C28.5562 49.3062 28.2812 49.5812 28.275 49.925V51.2312H28.2812Z" fill="#FCFCFC"/>
<path d="M32.2687 49.9812H31.5625V51.2312C31.5625 51.4062 31.4187 51.55 31.2374 51.55C31.0624 51.55 30.9187 51.4062 30.9187 51.2312V47.825C30.9187 47.6437 31.0624 47.5062 31.2374 47.5062H31.2437H32.2687C32.9562 47.5062 33.5062 48.0625 33.5062 48.7437C33.5124 49.425 32.9562 49.9812 32.2687 49.9812ZM31.5625 49.3375H32.275C32.6125 49.3375 32.8687 49.075 32.875 48.75C32.8687 48.4125 32.6125 48.15 32.275 48.15H31.5625V49.3375Z" fill="#FCFCFC"/>
<path d="M36.3374 50.1125V51.2437C36.3374 51.4125 36.1999 51.55 36.0312 51.55C35.8812 51.55 35.7687 51.4375 35.7312 51.3C35.5124 51.4562 35.2499 51.55 34.9624 51.55C34.5687 51.55 34.2312 51.3875 33.9812 51.1312C33.7312 50.8687 33.5874 50.5062 33.5874 50.1187C33.5874 49.7187 33.7312 49.3625 33.9812 49.1062C34.2312 48.8437 34.5687 48.675 34.9624 48.675C35.2499 48.675 35.5124 48.775 35.7312 48.9312C35.7687 48.7875 35.8812 48.675 36.0312 48.675C36.1999 48.675 36.3374 48.8125 36.3374 48.9875V50.1125ZM35.7249 50.1125C35.7249 49.8687 35.6374 49.6625 35.4999 49.5187C35.3624 49.3625 35.1624 49.2812 34.9624 49.2812C34.7562 49.2812 34.5562 49.3625 34.4249 49.5187C34.2874 49.6625 34.2062 49.8687 34.2062 50.1125C34.2062 50.35 34.2874 50.5562 34.4249 50.7062C34.5562 50.85 34.7562 50.9312 34.9624 50.9312C35.1624 50.9312 35.3624 50.85 35.4999 50.7062C35.6374 50.5562 35.7249 50.35 35.7249 50.1125Z" fill="#FCFCFC"/>
</svg>
