<svg width="64" height="64" viewBox="0 0 64 64" fill="none" xmlns="http://www.w3.org/2000/svg">
<g clip-path="url(#clip0_6344_14259)">
<path d="M32 2.44646C35.9941 2.44646 39.8598 3.23041 43.5024 4.77128C47.0234 6.25808 50.1863 8.39366 52.8963 11.1037C55.6063 13.8137 57.7419 16.9833 59.2287 20.4976C60.7696 24.1402 61.5535 28.0127 61.5535 32C61.5535 35.9873 60.7696 39.8598 59.2287 43.5024C57.7419 47.0234 55.6063 50.1863 52.8963 52.8963C50.1863 55.6063 47.0167 57.7419 43.5024 59.2287C39.8598 60.7696 35.9873 61.5535 32 61.5535C28.0127 61.5535 24.1402 60.7696 20.4976 59.2287C16.9766 57.7419 13.8137 55.6063 11.1037 52.8963C8.39366 50.1863 6.25808 47.0167 4.77128 43.5024C3.23041 39.8598 2.44646 35.9873 2.44646 32C2.44646 28.0127 3.23041 24.1402 4.77128 20.4976C6.25808 16.9766 8.39366 13.8137 11.1037 11.1037C13.8137 8.39366 16.9833 6.25808 20.4976 4.77128C24.1402 3.22365 28.0059 2.44646 32 2.44646ZM32 0C14.3273 0 0 14.3273 0 32C0 49.6727 14.3273 64 32 64C49.6727 64 64 49.6727 64 32C64 14.3273 49.6727 0 32 0Z" fill="#FCFCFC"/>
<path d="M32.642 5.47412H31.4256C31.0539 5.47412 30.7498 5.77824 30.7498 6.14994V10.2724C30.7498 10.6441 31.0539 10.9482 31.4256 10.9482H32.642C33.0137 10.9482 33.3179 10.6441 33.3179 10.2724V6.14994C33.3179 5.77824 33.0137 5.47412 32.642 5.47412Z" fill="#FCFCFC"/>
<path d="M10.2724 30.7498H6.14994C5.77824 30.7498 5.47412 31.0539 5.47412 31.4256V32.642C5.47412 33.0137 5.77824 33.3179 6.14994 33.3179H10.2724C10.6441 33.3179 10.9482 33.0137 10.9482 32.642V31.4256C10.9482 31.0539 10.6441 30.7498 10.2724 30.7498Z" fill="#FCFCFC"/>
<path d="M57.8501 30.6821H53.7276C53.3559 30.6821 53.0518 30.9862 53.0518 31.3579V32.5744C53.0518 32.9461 53.3559 33.2502 53.7276 33.2502H57.8501C58.2218 33.2502 58.5259 32.9461 58.5259 32.5744V31.3579C58.5259 30.9862 58.2218 30.6821 57.8501 30.6821Z" fill="#FCFCFC"/>
<path d="M16.2331 46.28C16.0574 46.28 15.8884 46.3476 15.7533 46.476L12.8405 49.3956C12.5769 49.6591 12.5769 50.0849 12.8405 50.3485L13.6988 51.2067C13.834 51.3419 14.0029 51.4027 14.1786 51.4027C14.3543 51.4027 14.5233 51.3352 14.6584 51.2067L17.5712 48.294C17.8348 48.0304 17.8348 47.6046 17.5712 47.3411L16.7129 46.4828C16.5778 46.3476 16.4021 46.28 16.2331 46.28Z" fill="#FCFCFC"/>
<path d="M49.828 12.5905C49.6523 12.5905 49.4833 12.6581 49.3482 12.7865L46.4286 15.706C46.1651 15.9696 46.1651 16.3954 46.4286 16.6589L47.2869 17.5172C47.4221 17.6524 47.591 17.7132 47.7668 17.7132C47.9425 17.7132 48.1114 17.6456 48.2466 17.5172L51.1594 14.6045C51.4229 14.3409 51.4229 13.9151 51.1594 13.6515L50.3011 12.7933C50.1727 12.6581 49.997 12.5905 49.828 12.5905Z" fill="#FCFCFC"/>
<path d="M14.1247 12.6378C13.949 12.6378 13.78 12.7054 13.6448 12.8338L12.7865 13.6921C12.523 13.9557 12.523 14.3814 12.7865 14.645L15.6993 17.5578C15.8345 17.6929 16.0034 17.7538 16.1792 17.7538C16.3549 17.7538 16.5238 17.6862 16.659 17.5578L17.5173 16.6995C17.7808 16.4359 17.7808 16.0102 17.5173 15.7466L14.6045 12.8406C14.4761 12.7054 14.3004 12.6378 14.1247 12.6378Z" fill="#FCFCFC"/>
<path d="M47.821 46.2327C47.6452 46.2327 47.4763 46.3003 47.3411 46.4287L46.4828 47.287C46.2193 47.5506 46.2193 47.9763 46.4828 48.2399L49.3956 51.1527C49.5308 51.2879 49.6997 51.3487 49.8754 51.3487C50.0512 51.3487 50.2201 51.2811 50.3553 51.1527L51.2136 50.2944C51.4771 50.0308 51.4771 49.6051 51.2136 49.3415L48.294 46.4287C48.1656 46.3003 47.9899 46.2327 47.821 46.2327Z" fill="#FCFCFC"/>
<path fill-rule="evenodd" clip-rule="evenodd" d="M32.0203 33.7976C31.2701 33.7976 30.5876 33.3313 30.324 32.6352C30.1483 32.1824 30.1618 31.6891 30.3578 31.2431C30.5538 30.797 30.9119 30.4591 31.3647 30.2834C31.5742 30.2023 31.7973 30.1617 32.0203 30.1617C32.7704 30.1617 33.453 30.6281 33.7166 31.3242C33.8923 31.7769 33.8788 32.2703 33.6828 32.7163C33.4868 33.1624 33.1286 33.5003 32.6758 33.676C32.4663 33.7571 32.2433 33.7976 32.0203 33.7976Z" fill="#FCFCFC"/>
<path d="M32.0201 31.3782C32.2228 31.3782 32.4796 31.4999 32.581 31.7635C32.6554 31.9527 32.6148 32.1149 32.5675 32.223C32.5202 32.3244 32.4256 32.4663 32.2364 32.5406C32.1688 32.5677 32.0944 32.5812 32.0201 32.5812C31.8173 32.5812 31.5605 32.4596 31.4592 32.196C31.3848 32.0068 31.4254 31.8446 31.4727 31.7364C31.52 31.6351 31.6146 31.4931 31.8038 31.4188C31.8782 31.3918 31.9457 31.3782 32.0201 31.3782ZM32.0201 28.9385C31.6551 28.9385 31.2834 29.0061 30.9253 29.1413C29.3574 29.7428 28.5802 31.5066 29.1817 33.0745C29.648 34.2843 30.7969 35.0209 32.0201 35.0209C32.385 35.0209 32.7567 34.9533 33.1149 34.8182C34.6828 34.2167 35.46 32.4528 34.8585 30.8849C34.3922 29.6819 33.2433 28.9385 32.0201 28.9385Z" fill="#FCFCFC"/>
<path fill-rule="evenodd" clip-rule="evenodd" d="M28.2427 21.9303L33.0613 30.2631L30.0809 31.412L28.2427 21.9303Z" fill="#FCFCFC"/>
<path d="M30.8241 28.8371L31.2904 29.6414L31.0065 29.7495L30.8241 28.8371ZM25.6541 15.0167L29.1548 33.0745L34.8317 30.8849L25.6541 15.0167Z" fill="#FCFCFC"/>
<path d="M28.0127 52.8287C28.0127 53.0247 27.8573 53.1734 27.6613 53.1734C27.5059 53.1734 27.3775 53.0585 27.3302 52.9166C27.3234 52.8895 27.3167 52.8625 27.3167 52.8287V49.1455C27.3167 48.9495 27.4721 48.8008 27.6613 48.8008C27.8573 48.8008 28.0127 48.9495 28.0127 49.1455V50.2336C28.2155 50.1254 28.4385 50.0511 28.6818 50.0511C29.4387 50.0511 30.0402 50.6661 30.0402 51.4163V52.8287C30.0402 53.0247 29.8915 53.1734 29.6955 53.1734C29.4995 53.1734 29.3509 53.0247 29.3509 52.8287V51.4163C29.3509 51.0513 29.0535 50.7472 28.675 50.7404C28.3101 50.7472 28.0127 51.0446 28.006 51.4163V52.8287H28.0127Z" fill="#FCFCFC"/>
<path d="M32.3245 51.4771H31.5608V52.8287C31.5608 53.018 31.4054 53.1734 31.2094 53.1734C31.0202 53.1734 30.8647 53.018 30.8647 52.8287V49.1455C30.8647 48.9495 31.0202 48.8008 31.2094 48.8008H31.2162H32.3245C33.0679 48.8008 33.6626 49.4023 33.6626 50.139C33.6694 50.8756 33.0679 51.4771 32.3245 51.4771ZM31.5608 50.781H32.3313C32.6962 50.781 32.9733 50.4971 32.9801 50.1457C32.9733 49.7808 32.6962 49.4969 32.3313 49.4969H31.5608V50.781Z" fill="#FCFCFC"/>
<path d="M36.7238 51.619V52.8423C36.7238 53.0247 36.5752 53.1734 36.3927 53.1734C36.2305 53.1734 36.1088 53.0518 36.0683 52.9031C35.8318 53.072 35.5479 53.1734 35.237 53.1734C34.8113 53.1734 34.4463 52.9977 34.176 52.7206C33.9057 52.4368 33.7502 52.0448 33.7502 51.6258C33.7502 51.1933 33.9057 50.808 34.176 50.531C34.4463 50.2471 34.8113 50.0646 35.237 50.0646C35.5479 50.0646 35.8318 50.1728 36.0683 50.3417C36.1088 50.1863 36.2305 50.0646 36.3927 50.0646C36.5752 50.0646 36.7238 50.2133 36.7238 50.4025V51.619ZM36.0615 51.619C36.0615 51.3554 35.9669 51.1324 35.8182 50.977C35.6696 50.808 35.4533 50.7202 35.237 50.7202C35.014 50.7202 34.7978 50.808 34.6558 50.977C34.5072 51.1324 34.4193 51.3554 34.4193 51.619C34.4193 51.8758 34.5072 52.0988 34.6558 52.261C34.7978 52.4165 35.014 52.5043 35.237 52.5043C35.4533 52.5043 35.6696 52.4165 35.8182 52.261C35.9669 52.0988 36.0615 51.8758 36.0615 51.619Z" fill="#FCFCFC"/>
</g>
<defs>
<clipPath id="clip0_6344_14259">
<rect width="64" height="64" fill="white"/>
</clipPath>
</defs>
</svg>
