<svg width="512" height="512" viewBox="0 0 512 512" fill="none" xmlns="http://www.w3.org/2000/svg">
<path d="M475 258C475 255.348 473.946 252.804 472.071 250.929C470.196 249.054 467.652 248 465 248H162.5V140H172.5C180.456 140 188.087 136.839 193.713 131.213C199.339 125.587 202.5 117.956 202.5 110C202.5 102.044 199.339 94.4129 193.713 88.7868C188.087 83.1607 180.456 80 172.5 80H162.5V58H172.5C175.152 58 177.696 56.9464 179.571 55.0711C181.446 53.1957 182.5 50.6522 182.5 48V12C182.5 10.6868 182.241 9.38642 181.739 8.17317C181.236 6.95991 180.5 5.85752 179.571 4.92893C178.642 4.00035 177.54 3.26375 176.327 2.7612C175.114 2.25866 173.813 2 172.5 2H12.5C9.84784 2 7.3043 3.05357 5.42893 4.92893C3.55357 6.8043 2.5 9.34784 2.5 12V48C2.5 50.6522 3.55357 53.1957 5.42893 55.0711C7.3043 56.9464 9.84784 58 12.5 58H22.5V258C22.5 260.652 23.5536 263.196 25.4289 265.071C27.3043 266.946 29.8478 268 32.5 268H38.58C43.44 320.84 75.58 346.4 101.64 367.17C110.83 374.48 119.51 381.39 125.3 388.38C142.65 409.38 138.3 472.9 135.1 495.62C134.903 497.036 135.011 498.477 135.418 499.848C135.825 501.218 136.521 502.485 137.46 503.563C138.398 504.642 139.556 505.507 140.857 506.099C142.158 506.692 143.571 506.999 145 507H404C405.755 507 407.48 506.538 409 505.66C410.52 504.782 411.782 503.52 412.66 502C413.538 500.48 414 498.755 414 497C414 495.245 413.538 493.52 412.66 492C412.48 491.68 395.21 460.24 394.06 375.93C441 359.75 475 313 475 258ZM172.5 100C175.152 100 177.696 101.054 179.571 102.929C181.446 104.804 182.5 107.348 182.5 110C182.5 112.652 181.446 115.196 179.571 117.071C177.696 118.946 175.152 120 172.5 120H162.5V100H172.5ZM22.5 22H162.5V38H22.5V22ZM42.5 58H142.5V248H42.5V58ZM237.56 487H156.19C157.04 478.11 158 464.88 158 450.38C158 414.64 152.18 389.49 140.7 375.62C133.59 367.03 124.12 359.5 114.1 351.52C90.25 332.52 63.44 311.2 58.69 268H173.38C177.21 318.61 209.88 360.74 253.94 375.93C253 441.09 242.3 475.07 237.56 487ZM258.85 487C264.68 469.61 272.69 436 273.85 380.8C279.247 381.6 284.695 382.001 290.15 382H357.83C363.285 382.001 368.733 381.6 374.13 380.8C375.28 436.28 383.22 469.68 389.07 487H258.85ZM386.6 357.35C377.325 360.434 367.614 362.005 357.84 362H290.16C280.386 362.005 270.675 360.434 261.4 357.35C224.69 345.15 197.23 310.22 193.45 268H454.55C450.77 310.22 423.31 345.15 386.6 357.35Z" fill="#FCFCFC"/>
<path d="M448.92 192H197C194.348 192 191.804 193.054 189.929 194.929C188.054 196.804 187 199.348 187 202V238C187 240.652 188.054 243.196 189.929 245.071C191.804 246.946 194.348 248 197 248H448.92C463.3 248 475 235.44 475 220C475 204.56 463.3 192 448.92 192ZM448.92 228H207V212H448.92C452.22 212 455 215.66 455 220C455 224.34 452.22 228 448.92 228Z" fill="#00D151"/>
</svg>
