<?xml version="1.0" encoding="UTF-8"?>
<svg height="600" width="800" xmlns="http://www.w3.org/2000/svg" xmlns:xlink="http://www.w3.org/1999/xlink">
    <g id="Notes" font-family="'LucidaGrande', 'Lucida Grande', sans-serif" font-size="13">
        <rect fill="white" height="600.0" width="800.0" x="0.0" y="0.0" />
        <g font-size="13">
            <text x="18.0" y="176.0">Small</text>
            <text x="18.0" y="376.0">Medium</text>
            <text x="18.0" y="576.0">Large</text>
        </g>
        <g font-size="9">
            <text x="250.0" y="30.0">Ultralight</text>
            <text x="450.0" y="30.0">Regular</text>
            <text x="650.0" y="30.0">Black</text>
            <text id="template-version" fill="#505050" text-anchor="end" x="785.0" y="575.0">Template v.3.0</text>
            <a href="https://github.com/swhitty/SwiftDraw">
                <text fill="#505050" text-anchor="end" x="785.0" y="590.0">https://github.com/swhitty/SwiftDraw</text>
            </a>
        </g>
    </g>
    <g id="Guides" stroke="rgb(39, 170, 225)" stroke-width="0.5">
        <path id="Capline-S" d="M18,76 l800,0" />
        <path id="H-reference" d="M85,145.755 L87.685,145.755 L113.369,79.287 L114.052,79.287 L114.052,76 L112.148,76 L85,145.755 Z M95.693,121.536 L130.996,121.536 L130.263,119.313 L96.474,119.313 L95.693,121.536 Z M139.15,145.755 L141.787,145.755 L114.638,76 L113.466,76 L113.466,79.287 L139.15,145.755 Z" stroke="none" />
        <path id="Baseline-S" d="M18,146 l800,0" />
        <path id="left-margin-Ultralight-S" d="M212.664,56 l0,110" />
        <path id="right-margin-Ultralight-S" d="M317.336,56 l0,110" />
        <path id="left-margin-Regular-S" d="M412.664,56 l0,110" />
        <path id="right-margin-Regular-S" d="M517.336,56 l0,110" />
        <path id="left-margin-Black-S" d="M612.664,56 l0,110" />
        <path id="right-margin-Black-S" d="M717.336,56 l0,110" />
        <path id="Capline-M" d="M18,276 l800,0" />
        <path id="Baseline-M" d="M18,346 l800,0" />
        <path id="Capline-L" d="M18,476 l800,0" />
        <path id="Baseline-L" d="M18,546 l800,0" />
    </g>
    <g id="Symbols">
        <g id="Ultralight-S">
            <path d="M305.362,85.872 L281.129,85.872 L281.129,77.974 C281.129,76.884 280.245,76 279.155,76 L251.912,76 C250.822,76 249.938,76.884 249.938,77.974 L249.938,85.872 L224.638,85.872 C223.549,85.872 222.664,86.756 222.664,87.846 L222.664,120.661 C222.664,121.751 223.549,122.635 224.638,122.635 L224.852,122.635 L224.852,144.026 C224.852,145.116 225.736,146 226.826,146 L303.318,146 C304.407,146 305.292,145.116 305.292,144.026 L305.292,122.635 L305.362,122.635 C306.451,122.635 307.336,121.751 307.336,120.661 L307.336,87.844 C307.336,86.754 306.451,85.87 305.362,85.87 L305.362,85.872 Z M253.886,79.948 L277.183,79.948 L277.183,85.872 L253.886,85.872 L253.886,79.948 Z M226.614,89.82 L303.388,89.82 L303.388,118.687 L267.046,118.687 L267.046,115.247 C267.046,114.157 266.162,113.273 265.072,113.273 C263.982,113.273 263.098,114.157 263.098,115.247 L263.098,118.687 L226.612,118.687 L226.612,89.818 L226.614,89.82 Z M301.346,142.052 L228.802,142.052 L228.802,122.635 L263.098,122.635 L263.098,125.438 C263.098,126.528 263.982,127.412 265.072,127.412 C266.162,127.412 267.046,126.528 267.046,125.438 L267.046,122.635 L301.344,122.635 L301.344,142.052 L301.346,142.052 Z" />
        </g>
        <g id="Regular-S">
            <path d="M505.362,85.872 L481.129,85.872 L481.129,77.974 C481.129,76.884 480.245,76 479.155,76 L451.912,76 C450.822,76 449.938,76.884 449.938,77.974 L449.938,85.872 L424.638,85.872 C423.549,85.872 422.664,86.756 422.664,87.846 L422.664,120.661 C422.664,121.751 423.549,122.635 424.638,122.635 L424.852,122.635 L424.852,144.026 C424.852,145.116 425.736,146 426.826,146 L503.318,146 C504.407,146 505.292,145.116 505.292,144.026 L505.292,122.635 L505.362,122.635 C506.451,122.635 507.336,121.751 507.336,120.661 L507.336,87.844 C507.336,86.754 506.451,85.87 505.362,85.87 L505.362,85.872 Z M453.886,79.948 L477.183,79.948 L477.183,85.872 L453.886,85.872 L453.886,79.948 Z M426.614,89.82 L503.388,89.82 L503.388,118.687 L467.046,118.687 L467.046,115.247 C467.046,114.157 466.162,113.273 465.072,113.273 C463.982,113.273 463.098,114.157 463.098,115.247 L463.098,118.687 L426.612,118.687 L426.612,89.818 L426.614,89.82 Z M501.346,142.052 L428.802,142.052 L428.802,122.635 L463.098,122.635 L463.098,125.438 C463.098,126.528 463.982,127.412 465.072,127.412 C466.162,127.412 467.046,126.528 467.046,125.438 L467.046,122.635 L501.344,122.635 L501.344,142.052 L501.346,142.052 Z" />
        </g>
        <g id="Black-S">
            <path d="M705.362,85.872 L681.129,85.872 L681.129,77.974 C681.129,76.884 680.245,76 679.155,76 L651.912,76 C650.822,76 649.938,76.884 649.938,77.974 L649.938,85.872 L624.638,85.872 C623.549,85.872 622.664,86.756 622.664,87.846 L622.664,120.661 C622.664,121.751 623.549,122.635 624.638,122.635 L624.852,122.635 L624.852,144.026 C624.852,145.116 625.736,146 626.826,146 L703.318,146 C704.407,146 705.292,145.116 705.292,144.026 L705.292,122.635 L705.362,122.635 C706.451,122.635 707.336,121.751 707.336,120.661 L707.336,87.844 C707.336,86.754 706.451,85.87 705.362,85.87 L705.362,85.872 Z M653.886,79.948 L677.183,79.948 L677.183,85.872 L653.886,85.872 L653.886,79.948 Z M626.615,89.82 L703.388,89.82 L703.388,118.687 L667.046,118.687 L667.046,115.247 C667.046,114.157 666.162,113.273 665.072,113.273 C663.982,113.273 663.098,114.157 663.098,115.247 L663.098,118.687 L626.612,118.687 L626.612,89.818 L626.615,89.82 Z M701.346,142.052 L628.802,142.052 L628.802,122.635 L663.098,122.635 L663.098,125.438 C663.098,126.528 663.982,127.412 665.072,127.412 C666.162,127.412 667.046,126.528 667.046,125.438 L667.046,122.635 L701.344,122.635 L701.344,142.052 L701.346,142.052 Z" />
        </g>
    </g>
</svg>