<?xml version="1.0" encoding="UTF-8"?>
<svg height="600" width="800" xmlns="http://www.w3.org/2000/svg" xmlns:xlink="http://www.w3.org/1999/xlink">
    <g id="Notes" font-family="'LucidaGrande', 'Lucida Grande', sans-serif" font-size="13">
        <rect fill="white" height="600.0" width="800.0" x="0.0" y="0.0" />
        <g font-size="13">
            <text x="18.0" y="176.0">Small</text>
            <text x="18.0" y="376.0">Medium</text>
            <text x="18.0" y="576.0">Large</text>
        </g>
        <g font-size="9">
            <text x="250.0" y="30.0">Ultralight</text>
            <text x="450.0" y="30.0">Regular</text>
            <text x="650.0" y="30.0">Black</text>
            <text id="template-version" fill="#505050" text-anchor="end" x="785.0" y="575.0">Template v.3.0</text>
            <a href="https://github.com/swhitty/SwiftDraw">
                <text fill="#505050" text-anchor="end" x="785.0" y="590.0">https://github.com/swhitty/SwiftDraw</text>
            </a>
        </g>
    </g>
    <g id="Guides" stroke="rgb(39, 170, 225)" stroke-width="0.5">
        <path id="Capline-S" d="M18,76 l800,0" />
        <path id="H-reference" d="M85,145.755 L87.685,145.755 L113.369,79.287 L114.052,79.287 L114.052,76 L112.148,76 L85,145.755 Z M95.693,121.536 L130.996,121.536 L130.263,119.313 L96.474,119.313 L95.693,121.536 Z M139.15,145.755 L141.787,145.755 L114.638,76 L113.466,76 L113.466,79.287 L139.15,145.755 Z" stroke="none" />
        <path id="Baseline-S" d="M18,146 l800,0" />
        <path id="left-margin-Ultralight-S" d="M211,56 l0,110" />
        <path id="right-margin-Ultralight-S" d="M319,56 l0,110" />
        <path id="left-margin-Regular-S" d="M411,56 l0,110" />
        <path id="right-margin-Regular-S" d="M519,56 l0,110" />
        <path id="left-margin-Black-S" d="M611,56 l0,110" />
        <path id="right-margin-Black-S" d="M719,56 l0,110" />
        <path id="Capline-M" d="M18,276 l800,0" />
        <path id="Baseline-M" d="M18,346 l800,0" />
        <path id="Capline-L" d="M18,476 l800,0" />
        <path id="Baseline-L" d="M18,546 l800,0" />
    </g>
    <g id="Symbols">
        <g id="Ultralight-S">
            <path d="M264.952,128.365 C256.047,128.365 247.141,128.346 238.236,128.371 C230.078,128.394 222.699,122.35 221.29,114.088 C220.308,108.336 221.82,103.263 225.835,99.001 C228.748,95.909 232.367,94.176 236.598,93.708 C237.194,93.642 237.787,93.631 238.383,93.631 C256.135,93.629 273.888,93.627 291.64,93.631 C296.367,93.632 300.433,95.32 303.797,98.596 C306.775,101.496 308.513,105.053 308.908,109.203 C309.412,114.502 307.843,119.124 304.177,123.001 C301.355,125.986 297.861,127.69 293.8,128.252 C293.167,128.34 292.528,128.368 291.886,128.368 C282.908,128.363 273.93,128.364 264.952,128.365 Z M246.718,95.869 C252.375,99.371 255.565,104.279 255.628,110.918 C255.69,117.564 252.593,122.542 247.024,126.126 C247.159,126.126 247.246,126.126 247.332,126.126 C262.085,126.126 276.837,126.129 291.589,126.12 C292.562,126.119 293.534,126.027 294.492,125.833 C303.058,124.102 308.37,115.778 306.275,107.312 C304.696,100.931 298.932,95.882 291.494,95.873 C276.728,95.857 261.961,95.869 247.194,95.869 C247.064,95.869 246.933,95.869 246.718,95.869 Z M223.345,111.089 C223.428,119.358 229.924,126.095 238.415,126.098 C246.764,126.101 253.38,119.403 253.39,111.1 C253.401,102.805 246.778,96.039 238.316,96.065 C229.999,96.09 223.422,102.762 223.345,111.089 Z" />
            <path d="M280.153,105.984 L286.225,105.984 C286.876,105.984 287.457,105.42 287.457,104.716 C287.457,104.048 286.876,103.484 286.225,103.484 L278.974,103.484 L278.921,103.484 L278.904,103.484 C278.217,103.484 277.672,104.048 277.672,104.716 L277.672,117.952 C277.672,118.62 278.217,119.184 278.904,119.184 C279.59,119.184 280.153,118.62 280.153,117.952 L280.153,112.566 L285.38,112.566 C286.049,112.566 286.612,112.02 286.612,111.316 C286.612,110.665 286.049,110.084 285.38,110.084 L280.153,110.084 L280.153,105.984 Z" />
            <path d="M267.059,119.143 C263.189,119.109 259.996,116.395 259.351,112.616 C258.779,109.26 259.732,106.379 262.483,104.311 C265.98,101.683 270.592,102.533 273.142,106.147 C276.03,110.241 274.716,115.94 270.316,118.329 C269.266,118.899 268.131,119.192 267.059,119.143 Z M271.997,110.996 C271.999,109.644 271.536,108.35 270.673,107.294 C269.071,105.332 266.338,104.928 264.242,106.343 C261.739,108.032 261.08,111.777 262.875,114.246 C264.061,115.879 265.654,116.741 267.695,116.398 C270.208,115.974 271.993,113.668 271.997,110.996 Z" />
            <path d="M292.297,105.984 L298.369,105.984 C299.02,105.984 299.601,105.42 299.601,104.716 C299.601,104.048 299.02,103.484 298.369,103.484 L291.118,103.484 L291.065,103.484 L291.048,103.484 C290.361,103.484 289.816,104.048 289.816,104.716 L289.816,117.952 C289.816,118.62 290.361,119.184 291.048,119.184 C291.734,119.184 292.297,118.62 292.297,117.952 L292.297,112.566 L297.524,112.566 C298.193,112.566 298.756,112.02 298.756,111.316 C298.756,110.665 298.193,110.084 297.524,110.084 L292.297,110.084 L292.297,105.984 Z" />
        </g>
        <g id="Regular-S">
            <path d="M464.952,128.365 C456.047,128.365 447.141,128.346 438.236,128.371 C430.078,128.394 422.699,122.35 421.29,114.088 C420.308,108.336 421.82,103.263 425.835,99.001 C428.748,95.909 432.367,94.176 436.598,93.708 C437.194,93.642 437.787,93.631 438.383,93.631 C456.135,93.629 473.888,93.627 491.64,93.631 C496.367,93.632 500.433,95.32 503.797,98.596 C506.775,101.496 508.513,105.053 508.908,109.203 C509.412,114.502 507.843,119.124 504.177,123.001 C501.355,125.986 497.861,127.69 493.8,128.252 C493.167,128.34 492.528,128.368 491.886,128.368 C482.908,128.363 473.93,128.364 464.952,128.365 Z M446.718,95.869 C452.375,99.371 455.565,104.279 455.628,110.918 C455.69,117.564 452.593,122.542 447.024,126.126 C447.159,126.126 447.246,126.126 447.332,126.126 C462.085,126.126 476.837,126.129 491.589,126.12 C492.562,126.119 493.534,126.027 494.492,125.833 C503.058,124.102 508.37,115.778 506.275,107.312 C504.696,100.931 498.932,95.882 491.494,95.873 C476.728,95.857 461.961,95.869 447.194,95.869 C447.064,95.869 446.933,95.869 446.718,95.869 Z M423.345,111.089 C423.428,119.358 429.924,126.095 438.415,126.098 C446.764,126.101 453.38,119.403 453.39,111.1 C453.401,102.805 446.778,96.039 438.316,96.065 C429.999,96.09 423.422,102.762 423.345,111.089 Z" />
            <path d="M480.153,105.984 L486.225,105.984 C486.876,105.984 487.457,105.42 487.457,104.716 C487.457,104.048 486.876,103.484 486.225,103.484 L478.974,103.484 L478.921,103.484 L478.904,103.484 C478.217,103.484 477.672,104.048 477.672,104.716 L477.672,117.952 C477.672,118.62 478.217,119.184 478.904,119.184 C479.59,119.184 480.153,118.62 480.153,117.952 L480.153,112.566 L485.38,112.566 C486.049,112.566 486.612,112.02 486.612,111.316 C486.612,110.665 486.049,110.084 485.38,110.084 L480.153,110.084 L480.153,105.984 Z" />
            <path d="M467.059,119.143 C463.189,119.109 459.996,116.395 459.351,112.616 C458.779,109.26 459.732,106.379 462.483,104.311 C465.98,101.683 470.592,102.533 473.142,106.147 C476.03,110.241 474.716,115.94 470.316,118.329 C469.266,118.899 468.131,119.192 467.059,119.143 Z M471.997,110.996 C471.999,109.644 471.536,108.35 470.673,107.294 C469.071,105.332 466.338,104.928 464.242,106.343 C461.739,108.032 461.08,111.777 462.875,114.246 C464.061,115.879 465.654,116.741 467.695,116.398 C470.208,115.974 471.993,113.668 471.997,110.996 Z" />
            <path d="M492.297,105.984 L498.369,105.984 C499.02,105.984 499.601,105.42 499.601,104.716 C499.601,104.048 499.02,103.484 498.369,103.484 L491.118,103.484 L491.065,103.484 L491.048,103.484 C490.361,103.484 489.816,104.048 489.816,104.716 L489.816,117.952 C489.816,118.62 490.361,119.184 491.048,119.184 C491.734,119.184 492.297,118.62 492.297,117.952 L492.297,112.566 L497.524,112.566 C498.193,112.566 498.756,112.02 498.756,111.316 C498.756,110.665 498.193,110.084 497.524,110.084 L492.297,110.084 L492.297,105.984 Z" />
        </g>
        <g id="Black-S">
            <path d="M664.952,128.365 C656.047,128.365 647.141,128.346 638.236,128.371 C630.078,128.394 622.699,122.35 621.29,114.088 C620.308,108.336 621.82,103.263 625.835,99.001 C628.748,95.909 632.367,94.176 636.598,93.708 C637.194,93.642 637.787,93.631 638.383,93.631 C656.135,93.629 673.888,93.627 691.64,93.631 C696.367,93.632 700.433,95.32 703.797,98.596 C706.775,101.496 708.513,105.053 708.908,109.203 C709.412,114.502 707.843,119.124 704.177,123.001 C701.355,125.986 697.861,127.69 693.8,128.252 C693.167,128.34 692.528,128.368 691.886,128.368 C682.908,128.363 673.93,128.364 664.952,128.365 Z M646.718,95.869 C652.375,99.371 655.565,104.279 655.628,110.918 C655.69,117.564 652.593,122.542 647.024,126.126 C647.159,126.126 647.246,126.126 647.332,126.126 C662.084,126.126 676.837,126.129 691.589,126.12 C692.562,126.119 693.534,126.027 694.492,125.833 C703.058,124.102 708.37,115.778 706.275,107.312 C704.696,100.931 698.932,95.882 691.494,95.873 C676.728,95.857 661.961,95.869 647.194,95.869 C647.064,95.869 646.933,95.869 646.718,95.869 Z M623.345,111.089 C623.428,119.358 629.924,126.095 638.415,126.098 C646.764,126.101 653.38,119.403 653.39,111.1 C653.401,102.805 646.778,96.039 638.316,96.065 C629.999,96.09 623.422,102.762 623.345,111.089 Z" />
            <path d="M680.153,105.984 L686.225,105.984 C686.876,105.984 687.457,105.42 687.457,104.716 C687.457,104.048 686.876,103.484 686.225,103.484 L678.974,103.484 L678.921,103.484 L678.904,103.484 C678.217,103.484 677.672,104.048 677.672,104.716 L677.672,117.952 C677.672,118.62 678.217,119.184 678.904,119.184 C679.59,119.184 680.153,118.62 680.153,117.952 L680.153,112.566 L685.38,112.566 C686.049,112.566 686.612,112.02 686.612,111.316 C686.612,110.665 686.049,110.084 685.38,110.084 L680.153,110.084 L680.153,105.984 Z" />
            <path d="M667.059,119.143 C663.189,119.109 659.996,116.395 659.351,112.616 C658.779,109.26 659.732,106.379 662.483,104.311 C665.98,101.683 670.592,102.533 673.142,106.147 C676.03,110.241 674.716,115.94 670.316,118.329 C669.266,118.899 668.131,119.192 667.059,119.143 Z M671.997,110.996 C671.999,109.644 671.536,108.35 670.673,107.294 C669.071,105.332 666.338,104.928 664.242,106.343 C661.739,108.032 661.08,111.777 662.875,114.246 C664.061,115.879 665.654,116.741 667.695,116.398 C670.208,115.974 671.993,113.668 671.997,110.996 Z" />
            <path d="M692.297,105.984 L698.369,105.984 C699.02,105.984 699.601,105.42 699.601,104.716 C699.601,104.048 699.02,103.484 698.369,103.484 L691.118,103.484 L691.065,103.484 L691.048,103.484 C690.361,103.484 689.816,104.048 689.816,104.716 L689.816,117.952 C689.816,118.62 690.361,119.184 691.048,119.184 C691.734,119.184 692.297,118.62 692.297,117.952 L692.297,112.566 L697.524,112.566 C698.193,112.566 698.756,112.02 698.756,111.316 C698.756,110.665 698.193,110.084 697.524,110.084 L692.297,110.084 L692.297,105.984 Z" />
        </g>
    </g>
</svg>