<?xml version="1.0" encoding="UTF-8"?>
<svg height="600" width="800" xmlns="http://www.w3.org/2000/svg" xmlns:xlink="http://www.w3.org/1999/xlink">
    <g id="Notes" font-family="'LucidaGrande', 'Lucida Grande', sans-serif" font-size="13">
        <rect fill="white" height="600.0" width="800.0" x="0.0" y="0.0" />
        <g font-size="13">
            <text x="18.0" y="176.0">Small</text>
            <text x="18.0" y="376.0">Medium</text>
            <text x="18.0" y="576.0">Large</text>
        </g>
        <g font-size="9">
            <text x="250.0" y="30.0">Ultralight</text>
            <text x="450.0" y="30.0">Regular</text>
            <text x="650.0" y="30.0">Black</text>
            <text id="template-version" fill="#505050" text-anchor="end" x="785.0" y="575.0">Template v.3.0</text>
            <a href="https://github.com/swhitty/SwiftDraw">
                <text fill="#505050" text-anchor="end" x="785.0" y="590.0">https://github.com/swhitty/SwiftDraw</text>
            </a>
        </g>
    </g>
    <g id="Guides" stroke="rgb(39, 170, 225)" stroke-width="0.5">
        <path id="Capline-S" d="M18,76 l800,0" />
        <path id="H-reference" d="M85,145.755 L87.685,145.755 L113.369,79.287 L114.052,79.287 L114.052,76 L112.148,76 L85,145.755 Z M95.693,121.536 L130.996,121.536 L130.263,119.313 L96.474,119.313 L95.693,121.536 Z M139.15,145.755 L141.787,145.755 L114.638,76 L113.466,76 L113.466,79.287 L139.15,145.755 Z" stroke="none" />
        <path id="Baseline-S" d="M18,146 l800,0" />
        <path id="left-margin-Ultralight-S" d="M221,56 l0,110" />
        <path id="right-margin-Ultralight-S" d="M309,56 l0,110" />
        <path id="left-margin-Regular-S" d="M421,56 l0,110" />
        <path id="right-margin-Regular-S" d="M509,56 l0,110" />
        <path id="left-margin-Black-S" d="M621,56 l0,110" />
        <path id="right-margin-Black-S" d="M709,56 l0,110" />
        <path id="Capline-M" d="M18,276 l800,0" />
        <path id="Baseline-M" d="M18,346 l800,0" />
        <path id="Capline-L" d="M18,476 l800,0" />
        <path id="Baseline-L" d="M18,546 l800,0" />
    </g>
    <g id="Symbols">
        <g id="Ultralight-S">
            <path d="M287.455,76 C282.965,76 279.269,79.458 278.886,83.85 L235.566,83.85 C234.922,83.85 234.337,84.23 234.077,84.82 C233.816,85.41 233.93,86.099 234.364,86.575 L259.115,113.705 L259.115,133.8 C256.339,133.939 253.757,134.414 251.712,135.174 C247.905,136.587 247.106,138.511 247.106,139.878 C247.106,142.352 249.611,143.801 251.712,144.582 C254.175,145.496 257.415,146 260.836,146 C264.256,146 267.497,145.496 269.959,144.582 C273.766,143.17 274.565,141.245 274.565,139.878 C274.565,137.404 272.06,135.956 269.959,135.174 C267.868,134.397 265.218,133.919 262.371,133.792 L262.371,113.744 L283.584,92.287 C284.777,92.89 286.109,93.211 287.457,93.211 C292.202,93.211 296.061,89.351 296.061,84.606 C296.061,79.861 292.202,76.002 287.457,76.002 L287.455,76 Z M280.565,87.106 C280.565,87.106 280.573,87.106 280.577,87.106 L284.125,87.106 L278.132,93.167 L244.785,93.167 L239.255,87.106 L280.565,87.106 Z M260.788,110.71 L247.754,96.423 L274.913,96.423 L260.788,110.71 Z M268.823,138.225 C270.717,138.928 271.306,139.681 271.306,139.876 C271.306,140.071 270.717,140.824 268.823,141.528 C266.746,142.3 263.832,142.742 260.832,142.742 C257.833,142.742 254.921,142.3 252.843,141.528 C250.949,140.824 250.361,140.071 250.361,139.876 C250.361,139.681 250.949,138.928 252.843,138.225 C254.521,137.602 256.742,137.194 259.113,137.06 L259.113,138.74 C259.113,139.639 259.842,140.368 260.741,140.368 C261.64,140.368 262.369,139.639 262.369,138.74 L262.369,137.049 C264.809,137.173 267.102,137.585 268.823,138.225 Z M287.455,89.953 C286.985,89.953 286.519,89.89 286.068,89.77 L289.18,86.623 C289.641,86.156 289.777,85.458 289.524,84.85 C289.271,84.245 288.678,83.85 288.022,83.85 L282.159,83.85 C282.527,81.257 284.76,79.256 287.453,79.256 C290.402,79.256 292.802,81.656 292.802,84.605 C292.802,87.554 290.402,89.953 287.453,89.953 L287.455,89.953 Z" />
        </g>
        <g id="Regular-S">
            <path d="M487.455,76 C482.965,76 479.269,79.458 478.886,83.85 L435.566,83.85 C434.922,83.85 434.337,84.23 434.077,84.82 C433.816,85.41 433.93,86.099 434.364,86.575 L459.115,113.705 L459.115,133.8 C456.339,133.939 453.758,134.414 451.712,135.174 C447.905,136.587 447.107,138.511 447.107,139.878 C447.107,142.352 449.611,143.801 451.712,144.582 C454.175,145.496 457.415,146 460.836,146 C464.256,146 467.497,145.496 469.959,144.582 C473.766,143.17 474.565,141.245 474.565,139.878 C474.565,137.404 472.06,135.956 469.959,135.174 C467.868,134.397 465.218,133.919 462.371,133.792 L462.371,113.744 L483.584,92.287 C484.777,92.89 486.109,93.211 487.457,93.211 C492.202,93.211 496.061,89.351 496.061,84.606 C496.061,79.861 492.202,76.002 487.457,76.002 L487.455,76 Z M480.565,87.106 C480.565,87.106 480.573,87.106 480.577,87.106 L484.125,87.106 L478.132,93.167 L444.785,93.167 L439.255,87.106 L480.565,87.106 Z M460.788,110.71 L447.754,96.423 L474.913,96.423 L460.788,110.71 Z M468.823,138.225 C470.717,138.928 471.306,139.681 471.306,139.876 C471.306,140.071 470.717,140.824 468.823,141.528 C466.746,142.3 463.832,142.742 460.832,142.742 C457.833,142.742 454.921,142.3 452.843,141.528 C450.949,140.824 450.361,140.071 450.361,139.876 C450.361,139.681 450.949,138.928 452.843,138.225 C454.521,137.602 456.742,137.194 459.113,137.06 L459.113,138.74 C459.113,139.639 459.842,140.368 460.741,140.368 C461.64,140.368 462.369,139.639 462.369,138.74 L462.369,137.049 C464.809,137.173 467.102,137.585 468.823,138.225 Z M487.455,89.953 C486.985,89.953 486.519,89.89 486.068,89.77 L489.18,86.623 C489.641,86.156 489.777,85.458 489.524,84.85 C489.271,84.245 488.678,83.85 488.022,83.85 L482.159,83.85 C482.527,81.257 484.76,79.256 487.453,79.256 C490.402,79.256 492.802,81.656 492.802,84.605 C492.802,87.554 490.402,89.953 487.453,89.953 L487.455,89.953 Z" />
        </g>
        <g id="Black-S">
            <path d="M687.455,76 C682.965,76 679.269,79.458 678.886,83.85 L635.566,83.85 C634.922,83.85 634.337,84.23 634.077,84.82 C633.816,85.41 633.93,86.099 634.364,86.575 L659.115,113.705 L659.115,133.8 C656.339,133.939 653.758,134.414 651.712,135.174 C647.905,136.587 647.107,138.511 647.107,139.878 C647.107,142.352 649.611,143.801 651.712,144.582 C654.175,145.496 657.415,146 660.836,146 C664.256,146 667.497,145.496 669.959,144.582 C673.766,143.17 674.565,141.245 674.565,139.878 C674.565,137.404 672.06,135.956 669.959,135.174 C667.868,134.397 665.218,133.919 662.371,133.792 L662.371,113.744 L683.584,92.287 C684.777,92.89 686.109,93.211 687.457,93.211 C692.202,93.211 696.061,89.351 696.061,84.606 C696.061,79.861 692.202,76.002 687.457,76.002 L687.455,76 Z M680.565,87.106 C680.565,87.106 680.573,87.106 680.577,87.106 L684.125,87.106 L678.131,93.167 L644.785,93.167 L639.255,87.106 L680.565,87.106 Z M660.788,110.71 L647.754,96.423 L674.913,96.423 L660.788,110.71 Z M668.823,138.225 C670.717,138.928 671.306,139.681 671.306,139.876 C671.306,140.071 670.717,140.824 668.823,141.528 C666.746,142.3 663.832,142.742 660.832,142.742 C657.833,142.742 654.921,142.3 652.843,141.528 C650.949,140.824 650.361,140.071 650.361,139.876 C650.361,139.681 650.949,138.928 652.843,138.225 C654.521,137.602 656.742,137.194 659.113,137.06 L659.113,138.74 C659.113,139.639 659.842,140.368 660.741,140.368 C661.64,140.368 662.369,139.639 662.369,138.74 L662.369,137.049 C664.809,137.173 667.102,137.585 668.823,138.225 Z M687.455,89.953 C686.985,89.953 686.519,89.89 686.068,89.77 L689.18,86.623 C689.641,86.156 689.777,85.458 689.524,84.85 C689.271,84.245 688.678,83.85 688.021,83.85 L682.159,83.85 C682.527,81.257 684.76,79.256 687.453,79.256 C690.402,79.256 692.802,81.656 692.802,84.605 C692.802,87.554 690.402,89.953 687.453,89.953 L687.455,89.953 Z" />
        </g>
    </g>
</svg>