<svg width="512" height="512" viewBox="0 0 512 512" fill="none" xmlns="http://www.w3.org/2000/svg">
<path d="M233.831 356.67H12.1705C10.8088 356.628 9.45238 356.859 8.18179 357.351C6.9112 357.842 5.75233 358.584 4.774 359.532C3.79566 360.48 3.0178 361.615 2.48659 362.87C1.95537 364.124 1.68164 365.473 1.68164 366.835C1.68164 368.198 1.95537 369.546 2.48659 370.801C3.0178 372.055 3.79566 373.19 4.774 374.138C5.75233 375.087 6.9112 375.828 8.18179 376.32C9.45238 376.812 10.8088 377.043 12.1705 377H233.831C248.768 377.016 263.089 382.957 273.651 393.519C284.214 404.082 290.155 418.403 290.171 433.34C290.031 469.95 261.121 489.08 232.641 489.08C207.641 489.08 185.771 474.72 177.061 452.5L176.921 452.12C176.219 450.137 174.92 448.42 173.203 447.204C171.486 445.988 169.434 445.334 167.331 445.33C166.179 445.334 165.037 445.53 163.951 445.91C161.429 446.804 159.361 448.654 158.191 451.06C157.022 453.466 156.846 456.235 157.701 458.77C163.98 475.11 174.241 487.9 188.221 496.77C201.378 505.014 216.615 509.33 232.141 509.21C252.29 509.21 271.961 502.08 286.091 489.65C301.801 475.83 310.241 456.33 310.501 433.25C310.456 412.938 302.361 393.472 287.989 379.118C273.618 364.764 254.143 356.691 233.831 356.67ZM493.391 274.92C482.643 261.388 467.662 251.859 450.851 247.86L432.471 243.52L444.221 228.72C452.294 218.558 458.286 206.905 461.855 194.427C465.425 181.949 466.502 168.89 465.024 155.995C463.547 143.101 459.544 130.624 453.245 119.276C446.946 107.929 438.473 97.9333 428.311 89.8603C418.148 81.7873 406.495 75.795 394.017 72.2254C381.539 68.6559 368.48 67.5791 355.585 69.0565C342.691 70.5338 330.214 74.5365 318.867 80.8359C307.519 87.1352 297.524 95.608 289.451 105.77C275.568 123.287 268.01 144.98 268.001 167.33C267.958 168.692 268.189 170.048 268.681 171.319C269.172 172.59 269.914 173.748 270.862 174.727C271.81 175.705 272.946 176.483 274.2 177.014C275.455 177.545 276.803 177.819 278.166 177.819C279.528 177.819 280.876 177.545 282.131 177.014C283.385 176.483 284.521 175.705 285.469 174.727C286.417 173.748 287.159 172.59 287.65 171.319C288.142 170.048 288.373 168.692 288.331 167.33C288.331 151.804 292.934 136.627 301.56 123.718C310.186 110.809 322.446 100.747 336.79 94.8058C351.134 88.8643 366.918 87.3097 382.145 90.3387C397.373 93.3676 411.36 100.844 422.338 111.822C433.317 122.801 440.793 136.788 443.822 152.016C446.851 167.243 445.297 183.027 439.355 197.371C433.414 211.715 423.352 223.975 410.443 232.601C397.534 241.226 382.356 245.83 366.831 245.83H233.831C231.19 245.913 228.685 247.02 226.846 248.918C225.008 250.815 223.979 253.353 223.979 255.995C223.979 258.637 225.008 261.176 226.846 263.073C228.685 264.97 231.19 266.077 233.831 266.16H433.331C448.266 266.176 462.586 272.116 473.148 282.676C483.71 293.236 489.652 307.555 489.671 322.49C489.531 359.11 460.621 378.24 432.141 378.24C407.091 378.24 385.271 363.88 376.561 341.65L376.491 341.47L376.421 341.27C375.537 338.722 373.678 336.628 371.251 335.45C368.824 334.273 366.029 334.107 363.481 334.99C360.932 335.873 358.838 337.733 357.661 340.16C356.483 342.586 356.317 345.382 357.201 347.93C363.481 364.26 373.741 377.05 387.721 385.93C400.878 394.174 416.115 398.49 431.641 398.37C451.791 398.37 471.461 391.24 485.591 378.81C501.301 365 509.741 345.52 510.001 322.45C509.934 305.195 504.086 288.461 493.391 274.92ZM145.171 245.84H12.1705C10.8088 245.798 9.45238 246.029 8.18179 246.521C6.9112 247.012 5.75233 247.754 4.774 248.702C3.79566 249.65 3.0178 250.785 2.48659 252.04C1.95537 253.294 1.68164 254.643 1.68164 256.005C1.68164 257.368 1.95537 258.716 2.48659 259.971C3.0178 261.225 3.79566 262.36 4.774 263.308C5.75233 264.257 6.9112 264.998 8.18179 265.49C9.45238 265.982 10.8088 266.213 12.1705 266.17H145.171C147.811 266.087 150.316 264.98 152.155 263.083C153.993 261.186 155.022 258.647 155.022 256.005C155.022 253.363 153.993 250.825 152.155 248.928C150.316 247.03 147.811 245.923 145.171 245.84Z" fill="#B4B7BA"/>
<path d="M197.42 25.57C183.29 13.14 163.63 6 143.48 6C127.947 5.87738 112.703 10.1933 99.5395 18.44C85.5395 27.33 75.2995 40.12 69.0395 56.44C68.6029 57.7013 68.419 59.0363 68.4983 60.3688C68.5775 61.7012 68.9185 63.005 69.5016 64.2056C70.6794 66.6305 72.7721 68.4882 75.3195 69.37C77.8669 70.2518 80.6603 70.0856 83.0852 68.9079C85.51 67.7302 87.3677 65.6374 88.2495 63.09L88.3195 62.9L88.3995 62.7C97.1095 40.51 118.93 26.15 144 26.14C172.48 26.14 201.38 45.28 201.52 81.85C201.512 96.7918 195.576 111.12 185.015 121.69C174.454 132.26 160.131 138.209 145.19 138.23H12.1895C9.49228 138.23 6.9055 139.301 4.99826 141.209C3.09101 143.116 2.01953 145.703 2.01953 148.4C2.01953 151.097 3.09101 153.684 4.99826 155.591C6.9055 157.499 9.49228 158.57 12.1895 158.57H145.19C165.495 158.541 184.961 150.467 199.325 136.115C213.69 121.764 221.782 102.305 221.83 82C221.58 58.88 213.14 39.38 197.42 25.57Z" fill="#00D151"/>
</svg>
