<?xml version="1.0" encoding="UTF-8"?>
<svg height="600" width="800" xmlns="http://www.w3.org/2000/svg" xmlns:xlink="http://www.w3.org/1999/xlink">
    <g id="Notes" font-family="'LucidaGrande', 'Lucida Grande', sans-serif" font-size="13">
        <rect fill="white" height="600.0" width="800.0" x="0.0" y="0.0" />
        <g font-size="13">
            <text x="18.0" y="176.0">Small</text>
            <text x="18.0" y="376.0">Medium</text>
            <text x="18.0" y="576.0">Large</text>
        </g>
        <g font-size="9">
            <text x="250.0" y="30.0">Ultralight</text>
            <text x="450.0" y="30.0">Regular</text>
            <text x="650.0" y="30.0">Black</text>
            <text id="template-version" fill="#505050" text-anchor="end" x="785.0" y="575.0">Template v.3.0</text>
            <a href="https://github.com/swhitty/SwiftDraw">
                <text fill="#505050" text-anchor="end" x="785.0" y="590.0">https://github.com/swhitty/SwiftDraw</text>
            </a>
        </g>
    </g>
    <g id="Guides" stroke="rgb(39, 170, 225)" stroke-width="0.5">
        <path id="Capline-S" d="M18,76 l800,0" />
        <path id="H-reference" d="M85,145.755 L87.685,145.755 L113.369,79.287 L114.052,79.287 L114.052,76 L112.148,76 L85,145.755 Z M95.693,121.536 L130.996,121.536 L130.263,119.313 L96.474,119.313 L95.693,121.536 Z M139.15,145.755 L141.787,145.755 L114.638,76 L113.466,76 L113.466,79.287 L139.15,145.755 Z" stroke="none" />
        <path id="Baseline-S" d="M18,146 l800,0" />
        <path id="left-margin-Ultralight-S" d="M217.667,56 l0,110" />
        <path id="right-margin-Ultralight-S" d="M312.333,56 l0,110" />
        <path id="left-margin-Regular-S" d="M417.667,56 l0,110" />
        <path id="right-margin-Regular-S" d="M512.333,56 l0,110" />
        <path id="left-margin-Black-S" d="M617.667,56 l0,110" />
        <path id="right-margin-Black-S" d="M712.333,56 l0,110" />
        <path id="Capline-M" d="M18,276 l800,0" />
        <path id="Baseline-M" d="M18,346 l800,0" />
        <path id="Capline-L" d="M18,476 l800,0" />
        <path id="Baseline-L" d="M18,546 l800,0" />
    </g>
    <g id="Symbols">
        <g id="Ultralight-S">
            <path d="M227.667,77.458 C227.667,76.653 228.32,76 229.125,76 L300.875,76 C301.68,76 302.333,76.653 302.333,77.458 L302.333,84.458 C302.333,85.264 301.68,85.917 300.875,85.917 L229.125,85.917 C228.32,85.917 227.667,85.264 227.667,84.458 L227.667,77.458 Z M230.583,78.917 L230.583,83 L299.417,83 L299.417,78.917 L230.583,78.917 Z" />
            <path d="M227.667,88.542 C227.667,87.736 228.32,87.083 229.125,87.083 L300.875,87.083 C301.68,87.083 302.333,87.736 302.333,88.542 L302.333,95.542 C302.333,96.347 301.68,97 300.875,97 L229.125,97 C228.32,97 227.667,96.347 227.667,95.542 L227.667,88.542 Z M230.583,90 L230.583,94.083 L299.417,94.083 L299.417,90 L230.583,90 Z" />
            <path d="M227.667,99.625 C227.667,98.82 228.32,98.167 229.125,98.167 L300.875,98.167 C301.68,98.167 302.333,98.82 302.333,99.625 L302.333,106.625 C302.333,107.43 301.68,108.083 300.875,108.083 L229.125,108.083 C228.32,108.083 227.667,107.43 227.667,106.625 L227.667,99.625 Z M230.583,101.083 L230.583,105.167 L299.417,105.167 L299.417,101.083 L230.583,101.083 Z" />
            <path d="M227.667,110.708 C227.667,109.903 228.32,109.25 229.125,109.25 L300.875,109.25 C301.68,109.25 302.333,109.903 302.333,110.708 L302.333,117.708 C302.333,118.514 301.68,119.167 300.875,119.167 L229.125,119.167 C228.32,119.167 227.667,118.514 227.667,117.708 L227.667,110.708 Z M230.583,112.167 L230.583,116.25 L299.417,116.25 L299.417,112.167 L230.583,112.167 Z" />
            <path d="M227.667,121.792 C227.667,120.986 228.32,120.333 229.125,120.333 L300.875,120.333 C301.68,120.333 302.333,120.986 302.333,121.792 L302.333,128.792 C302.333,129.597 301.68,130.25 300.875,130.25 L229.125,130.25 C228.32,130.25 227.667,129.597 227.667,128.792 L227.667,121.792 Z M230.583,123.25 L230.583,127.333 L299.417,127.333 L299.417,123.25 L230.583,123.25 Z" />
            <path d="M227.667,132.875 C227.667,132.07 228.32,131.417 229.125,131.417 L300.875,131.417 C301.68,131.417 302.333,132.07 302.333,132.875 L302.333,139.875 C302.333,140.68 301.68,141.333 300.875,141.333 L229.125,141.333 C228.32,141.333 227.667,140.68 227.667,139.875 L227.667,132.875 Z M230.583,134.333 L230.583,138.417 L299.417,138.417 L299.417,134.333 L230.583,134.333 Z" />
            <path d="M300,144.542 C300,145.347 299.347,146 298.542,146 L231.458,146 C230.653,146 230,145.347 230,144.542 L230,139.794 L232.917,139.794 L232.917,143.083 L297.083,143.083 L297.083,139.794 L300,139.794 L300,144.542 Z" />
        </g>
        <g id="Regular-S">
            <path d="M427.667,77.458 C427.667,76.653 428.32,76 429.125,76 L500.875,76 C501.68,76 502.333,76.653 502.333,77.458 L502.333,84.458 C502.333,85.264 501.68,85.917 500.875,85.917 L429.125,85.917 C428.32,85.917 427.667,85.264 427.667,84.458 L427.667,77.458 Z M430.583,78.917 L430.583,83 L499.417,83 L499.417,78.917 L430.583,78.917 Z" />
            <path d="M427.667,88.542 C427.667,87.736 428.32,87.083 429.125,87.083 L500.875,87.083 C501.68,87.083 502.333,87.736 502.333,88.542 L502.333,95.542 C502.333,96.347 501.68,97 500.875,97 L429.125,97 C428.32,97 427.667,96.347 427.667,95.542 L427.667,88.542 Z M430.583,90 L430.583,94.083 L499.417,94.083 L499.417,90 L430.583,90 Z" />
            <path d="M427.667,99.625 C427.667,98.82 428.32,98.167 429.125,98.167 L500.875,98.167 C501.68,98.167 502.333,98.82 502.333,99.625 L502.333,106.625 C502.333,107.43 501.68,108.083 500.875,108.083 L429.125,108.083 C428.32,108.083 427.667,107.43 427.667,106.625 L427.667,99.625 Z M430.583,101.083 L430.583,105.167 L499.417,105.167 L499.417,101.083 L430.583,101.083 Z" />
            <path d="M427.667,110.708 C427.667,109.903 428.32,109.25 429.125,109.25 L500.875,109.25 C501.68,109.25 502.333,109.903 502.333,110.708 L502.333,117.708 C502.333,118.514 501.68,119.167 500.875,119.167 L429.125,119.167 C428.32,119.167 427.667,118.514 427.667,117.708 L427.667,110.708 Z M430.583,112.167 L430.583,116.25 L499.417,116.25 L499.417,112.167 L430.583,112.167 Z" />
            <path d="M427.667,121.792 C427.667,120.986 428.32,120.333 429.125,120.333 L500.875,120.333 C501.68,120.333 502.333,120.986 502.333,121.792 L502.333,128.792 C502.333,129.597 501.68,130.25 500.875,130.25 L429.125,130.25 C428.32,130.25 427.667,129.597 427.667,128.792 L427.667,121.792 Z M430.583,123.25 L430.583,127.333 L499.417,127.333 L499.417,123.25 L430.583,123.25 Z" />
            <path d="M427.667,132.875 C427.667,132.07 428.32,131.417 429.125,131.417 L500.875,131.417 C501.68,131.417 502.333,132.07 502.333,132.875 L502.333,139.875 C502.333,140.68 501.68,141.333 500.875,141.333 L429.125,141.333 C428.32,141.333 427.667,140.68 427.667,139.875 L427.667,132.875 Z M430.583,134.333 L430.583,138.417 L499.417,138.417 L499.417,134.333 L430.583,134.333 Z" />
            <path d="M500,144.542 C500,145.347 499.347,146 498.542,146 L431.458,146 C430.653,146 430,145.347 430,144.542 L430,139.794 L432.917,139.794 L432.917,143.083 L497.083,143.083 L497.083,139.794 L500,139.794 L500,144.542 Z" />
        </g>
        <g id="Black-S">
            <path d="M627.667,77.458 C627.667,76.653 628.32,76 629.125,76 L700.875,76 C701.68,76 702.333,76.653 702.333,77.458 L702.333,84.458 C702.333,85.264 701.68,85.917 700.875,85.917 L629.125,85.917 C628.32,85.917 627.667,85.264 627.667,84.458 L627.667,77.458 Z M630.583,78.917 L630.583,83 L699.417,83 L699.417,78.917 L630.583,78.917 Z" />
            <path d="M627.667,88.542 C627.667,87.736 628.32,87.083 629.125,87.083 L700.875,87.083 C701.68,87.083 702.333,87.736 702.333,88.542 L702.333,95.542 C702.333,96.347 701.68,97 700.875,97 L629.125,97 C628.32,97 627.667,96.347 627.667,95.542 L627.667,88.542 Z M630.583,90 L630.583,94.083 L699.417,94.083 L699.417,90 L630.583,90 Z" />
            <path d="M627.667,99.625 C627.667,98.82 628.32,98.167 629.125,98.167 L700.875,98.167 C701.68,98.167 702.333,98.82 702.333,99.625 L702.333,106.625 C702.333,107.43 701.68,108.083 700.875,108.083 L629.125,108.083 C628.32,108.083 627.667,107.43 627.667,106.625 L627.667,99.625 Z M630.583,101.083 L630.583,105.167 L699.417,105.167 L699.417,101.083 L630.583,101.083 Z" />
            <path d="M627.667,110.708 C627.667,109.903 628.32,109.25 629.125,109.25 L700.875,109.25 C701.68,109.25 702.333,109.903 702.333,110.708 L702.333,117.708 C702.333,118.514 701.68,119.167 700.875,119.167 L629.125,119.167 C628.32,119.167 627.667,118.514 627.667,117.708 L627.667,110.708 Z M630.583,112.167 L630.583,116.25 L699.417,116.25 L699.417,112.167 L630.583,112.167 Z" />
            <path d="M627.667,121.792 C627.667,120.986 628.32,120.333 629.125,120.333 L700.875,120.333 C701.68,120.333 702.333,120.986 702.333,121.792 L702.333,128.792 C702.333,129.597 701.68,130.25 700.875,130.25 L629.125,130.25 C628.32,130.25 627.667,129.597 627.667,128.792 L627.667,121.792 Z M630.583,123.25 L630.583,127.333 L699.417,127.333 L699.417,123.25 L630.583,123.25 Z" />
            <path d="M627.667,132.875 C627.667,132.07 628.32,131.417 629.125,131.417 L700.875,131.417 C701.68,131.417 702.333,132.07 702.333,132.875 L702.333,139.875 C702.333,140.68 701.68,141.333 700.875,141.333 L629.125,141.333 C628.32,141.333 627.667,140.68 627.667,139.875 L627.667,132.875 Z M630.583,134.333 L630.583,138.417 L699.417,138.417 L699.417,134.333 L630.583,134.333 Z" />
            <path d="M700,144.542 C700,145.347 699.347,146 698.542,146 L631.458,146 C630.653,146 630,145.347 630,144.542 L630,139.794 L632.917,139.794 L632.917,143.083 L697.083,143.083 L697.083,139.794 L700,139.794 L700,144.542 Z" />
        </g>
    </g>
</svg>