<svg width="512" height="512" viewBox="0 0 512 512" fill="none" xmlns="http://www.w3.org/2000/svg">
<g clip-path="url(#clip0_4666_642)">
<path d="M387.221 362C378.283 361.996 369.448 360.107 361.29 356.455C353.133 352.804 345.837 347.473 339.881 340.81C334.752 342.015 329.427 342.121 324.255 341.122C319.083 340.123 314.181 338.041 309.87 335.014C305.559 331.986 301.938 328.08 299.243 323.553C296.549 319.027 294.843 313.981 294.236 308.749C293.63 303.516 294.138 298.214 295.726 293.191C297.314 288.168 299.946 283.538 303.45 279.605C306.954 275.672 311.251 272.524 316.058 270.369C320.865 268.214 326.073 267.1 331.341 267.1H332.001C337.554 257.339 345.596 249.224 355.307 243.583C365.017 237.943 376.05 234.977 387.281 234.989C398.511 235.001 409.537 237.991 419.236 243.653C428.935 249.315 436.959 257.447 442.491 267.22C447.11 264.599 452.235 262.994 457.524 262.512C462.813 262.03 468.143 262.682 473.16 264.425C478.177 266.167 482.764 268.96 486.616 272.617C490.467 276.274 493.494 280.71 495.494 285.63C497.494 290.549 498.421 295.839 498.214 301.146C498.006 306.453 496.669 311.654 494.291 316.403C491.913 321.151 488.549 325.338 484.424 328.683C480.299 332.028 475.508 334.454 470.371 335.8C465.905 344.461 458.234 351.036 448.991 354.124C439.749 357.212 429.666 356.568 420.891 352.33C410.792 358.637 399.127 361.987 387.221 362ZM346.611 316.31L351.501 323.31C355.509 329.072 360.85 333.781 367.069 337.035C373.288 340.289 380.202 341.992 387.221 342C397.035 342.031 406.564 338.7 414.221 332.56L420.351 327.68L426.551 332.46C428.76 334.163 431.348 335.308 434.094 335.796C436.841 336.284 439.665 336.102 442.326 335.264C444.987 334.426 447.406 332.959 449.378 330.985C451.349 329.012 452.815 326.592 453.651 323.93L455.651 317.52L462.351 316.96C465.252 316.713 468.044 315.741 470.47 314.131C472.896 312.521 474.877 310.326 476.232 307.749C477.586 305.172 478.27 302.295 478.22 299.384C478.17 296.474 477.388 293.622 475.946 291.093C474.504 288.564 472.448 286.438 469.968 284.913C467.488 283.388 464.664 282.511 461.757 282.364C458.849 282.218 455.951 282.805 453.33 284.073C450.709 285.341 448.45 287.249 446.761 289.62L434.691 306.57L429.001 286.57C426.521 277.898 421.408 270.21 414.368 264.57C407.329 258.931 398.711 255.618 389.706 255.09C380.702 254.561 371.756 256.844 364.105 261.622C356.454 266.4 350.477 273.437 347.001 281.76L343.701 289.66L335.391 287.66C332.848 287.045 330.199 287.015 327.642 287.57C325.086 288.126 322.689 289.253 320.63 290.868C318.572 292.482 316.906 294.542 315.758 296.893C314.61 299.244 314.009 301.824 314.001 304.44C314.001 307.379 314.748 310.271 316.172 312.842C317.596 315.414 319.649 317.582 322.14 319.142C324.631 320.702 327.478 321.604 330.413 321.763C333.348 321.922 336.276 321.333 338.921 320.05L346.611 316.31Z" fill="#00D151"/>
<path d="M223 511.5C212.468 511.541 202.096 508.924 192.844 503.891C183.592 498.859 175.759 491.574 170.07 482.71C159.925 488.341 148.392 490.981 136.808 490.325C125.224 489.668 114.063 485.742 104.62 479C99.5277 482.864 93.5894 485.46 87.2956 486.574C81.0018 487.688 74.5332 487.288 68.4244 485.408C62.3156 483.528 56.7419 480.221 52.164 475.76C47.5862 471.299 44.1355 465.814 42.0972 459.756C40.0589 453.698 39.4915 447.242 40.4419 440.921C41.3923 434.6 43.8332 428.597 47.5629 423.406C51.2926 418.215 56.204 413.987 61.8912 411.07C67.5784 408.153 73.8781 406.631 80.2698 406.63C81.2698 406.63 82.1798 406.63 83.1298 406.73C86.257 398.734 91.0275 391.483 97.1327 385.445C103.238 379.408 110.542 374.719 118.573 371.681C126.604 368.644 135.183 367.325 143.756 367.811C152.328 368.296 160.703 370.575 168.34 374.5C172.662 366.228 179.021 359.193 186.817 354.06C194.612 348.927 203.588 345.866 212.895 345.166C222.203 344.465 231.535 346.148 240.011 350.056C248.488 353.964 255.828 359.968 261.34 367.5C267.829 362.086 275.572 358.385 283.861 356.734C292.149 355.083 300.719 355.536 308.788 358.05C316.857 360.564 324.167 365.06 330.051 371.127C335.934 377.194 340.204 384.638 342.47 392.78C349.588 393.5 356.462 395.77 362.61 399.43C368.157 395.699 374.546 393.409 381.2 392.765C387.854 392.122 394.563 393.146 400.722 395.745C406.881 398.344 412.296 402.437 416.478 407.652C420.659 412.868 423.476 419.043 424.673 425.62C425.87 432.197 425.41 438.969 423.335 445.324C421.26 451.678 417.634 457.416 412.786 462.019C407.938 466.622 402.02 469.944 395.566 471.687C389.112 473.43 382.326 473.537 375.82 472C369.21 480.263 360.103 486.164 349.861 488.82C339.619 491.477 328.793 490.748 319 486.74C312.581 493.907 303.809 498.539 294.271 499.799C284.733 501.059 275.059 498.864 267 493.61C255.218 505.069 239.435 511.486 223 511.5ZM173.72 458C174.525 457.998 175.328 458.095 176.11 458.29C177.656 458.668 179.09 459.41 180.291 460.454C181.493 461.497 182.429 462.813 183.02 464.29C185.862 471.453 190.577 477.72 196.671 482.436C202.765 487.152 210.014 490.144 217.661 491.099C225.307 492.054 233.07 490.936 240.136 487.863C247.203 484.79 253.314 479.874 257.83 473.63C258.716 472.405 259.87 471.396 261.202 470.681C262.535 469.966 264.013 469.562 265.524 469.5C267.036 469.439 268.542 469.721 269.928 470.325C271.315 470.93 272.546 471.841 273.53 472.99C275.684 475.53 278.43 477.5 281.526 478.726C284.622 479.952 287.973 480.397 291.282 480.02C294.591 479.643 297.756 478.457 300.497 476.567C303.238 474.676 305.472 472.139 307 469.18C307.648 467.927 308.553 466.826 309.657 465.948C310.761 465.07 312.038 464.435 313.405 464.086C314.772 463.736 316.197 463.68 317.587 463.92C318.977 464.161 320.3 464.692 321.47 465.48C324.818 467.737 328.601 469.268 332.576 469.975C336.551 470.682 340.63 470.55 344.551 469.586C348.472 468.623 352.147 466.85 355.342 464.381C358.536 461.912 361.179 458.802 363.1 455.25C364.332 452.982 366.395 451.278 368.855 450.495C371.315 449.712 373.983 449.911 376.3 451.05C379.073 452.421 382.126 453.13 385.22 453.12C390.519 453.003 395.562 450.815 399.268 447.025C402.974 443.236 405.049 438.146 405.049 432.845C405.049 427.545 402.974 422.455 399.268 418.665C395.562 414.876 390.519 412.688 385.22 412.57C382.441 412.559 379.689 413.125 377.14 414.231C374.591 415.338 372.299 416.962 370.41 419C368.641 420.886 366.21 422.014 363.628 422.146C361.046 422.279 358.512 421.406 356.56 419.71C351.29 415.13 344.541 412.612 337.56 412.62C336.75 412.62 335.89 412.62 335.02 412.74C332.382 412.968 329.761 412.14 327.732 410.437C325.704 408.735 324.434 406.298 324.2 403.66C323.472 396.082 319.958 389.044 314.338 383.908C308.718 378.772 301.393 375.905 293.78 375.86C288.581 375.843 283.465 377.161 278.921 379.688C274.377 382.214 270.558 385.865 267.83 390.29C266.831 391.889 265.401 393.172 263.704 393.993C262.008 394.813 260.114 395.138 258.24 394.929C256.367 394.72 254.592 393.986 253.118 392.811C251.644 391.637 250.532 390.07 249.91 388.29C247.388 381.186 242.634 375.09 236.358 370.914C230.082 366.738 222.623 364.707 215.096 365.125C207.57 365.542 200.381 368.386 194.606 373.231C188.83 378.076 184.78 384.661 183.06 392C182.673 393.666 181.866 395.205 180.715 396.47C179.564 397.735 178.108 398.684 176.486 399.226C174.864 399.767 173.13 399.884 171.45 399.565C169.77 399.245 168.2 398.5 166.89 397.4C161.425 392.829 154.873 389.745 147.867 388.449C140.862 387.152 133.64 387.686 126.901 389.999C120.163 392.313 114.136 396.327 109.403 401.653C104.671 406.979 101.394 413.436 99.8898 420.4C99.5926 421.78 99.007 423.081 98.1712 424.217C97.3355 425.354 96.2687 426.301 95.0408 426.997C93.8129 427.692 92.4519 428.119 91.047 428.251C89.6422 428.382 88.2254 428.215 86.8898 427.76C84.785 427.039 82.5747 426.674 80.3498 426.68C76.9128 426.685 73.5334 427.564 70.5292 429.233C67.5251 430.903 64.9949 433.31 63.1765 436.226C61.3581 439.143 60.3112 442.474 60.1341 445.906C59.9571 449.339 60.6558 452.76 62.1646 455.848C63.6733 458.936 65.9425 461.59 68.7589 463.56C71.5753 465.53 74.8464 466.752 78.2647 467.11C81.6831 467.468 85.1363 466.951 88.2999 465.608C91.4636 464.265 94.2336 462.139 96.3498 459.43C97.219 458.319 98.3137 457.404 99.5618 456.745C100.81 456.087 102.183 455.7 103.592 455.61C105 455.521 106.411 455.73 107.733 456.225C109.055 456.719 110.257 457.488 111.26 458.48C118.638 465.785 128.494 470.046 138.869 470.416C149.245 470.787 159.38 467.24 167.26 460.48C169.049 458.911 171.34 458.032 173.72 458Z" fill="#B4B7BA"/>
<path d="M228.44 218.08C227.079 218.082 225.731 217.806 224.48 217.269C223.228 216.732 222.1 215.945 221.164 214.956C220.227 213.968 219.503 212.798 219.035 211.519C218.566 210.241 218.364 208.88 218.44 207.52C218.44 206.98 218.44 206.43 218.44 205.88C218.434 200.427 216.941 195.079 214.122 190.41C211.303 185.742 207.265 181.93 202.442 179.385C197.619 176.84 192.193 175.657 186.749 175.965C181.304 176.272 176.046 178.058 171.54 181.13C170.336 181.947 168.969 182.49 167.533 182.723C166.097 182.957 164.627 182.874 163.227 182.48C161.826 182.087 160.528 181.393 159.423 180.447C158.319 179.5 157.434 178.324 156.83 177C153.188 168.968 147.312 162.153 139.905 157.366C132.498 152.579 123.87 150.022 115.05 150C104.684 149.98 94.623 153.509 86.5405 160C85.0979 161.144 83.3677 161.867 81.5405 162.09C79.7428 162.318 77.9325 162.432 76.1205 162.43C70.27 162.518 64.4604 161.442 59.0297 159.264C53.599 157.086 48.6557 153.85 44.4873 149.744C40.3189 145.638 37.0087 140.744 34.7492 135.346C32.4898 129.949 31.3262 124.156 31.3262 118.305C31.3262 112.454 32.4898 106.661 34.7492 101.264C37.0087 95.8669 40.3189 90.9728 44.4873 86.8667C48.6557 82.7606 53.599 79.5244 59.0297 77.3465C64.4604 75.1685 70.27 74.0923 76.1205 74.1803C78.1277 74.182 80.1325 74.3223 82.1205 74.6003C83.5584 65.3208 87.4112 56.5825 93.2924 49.262C99.1735 41.9415 106.876 36.2962 115.628 32.8924C124.38 29.4886 133.872 28.4459 143.154 29.869C152.436 31.2921 161.181 35.1309 168.51 41.0003C173.472 31.3355 180.678 23.0003 189.523 16.6926C198.368 10.3849 208.596 6.28835 219.35 4.74604C230.104 3.20374 241.071 4.26055 251.333 7.82799C261.595 11.3954 270.852 17.3696 278.33 25.2503C288.588 15.9016 300.808 8.96711 314.094 4.9554C327.38 0.943679 341.395 -0.0435661 355.113 2.06605C368.83 4.17566 381.901 9.32865 393.368 17.1472C404.835 24.9657 414.406 35.2515 421.38 47.2503C428.869 43.0242 437.167 40.4292 445.729 39.6356C454.292 38.8419 462.925 39.8675 471.063 42.645C479.201 45.4226 486.66 49.8894 492.951 55.7523C499.241 61.6153 504.221 68.7419 507.563 76.6648C510.905 84.5876 512.535 93.1276 512.345 101.725C512.154 110.321 510.149 118.781 506.459 126.548C502.77 134.316 497.48 141.215 490.936 146.794C484.393 152.373 476.743 156.505 468.49 158.92C466.981 169.872 462.199 180.112 454.771 188.3C447.343 196.487 437.615 202.241 426.862 204.807C416.109 207.373 404.832 206.631 394.507 202.679C384.183 198.728 375.292 191.75 369 182.66C345.821 189.964 320.706 187.933 299 177C296.227 186.089 291.385 194.411 284.854 201.313C278.324 208.215 270.282 213.509 261.36 216.78C259.981 217.278 258.509 217.466 257.049 217.331C255.588 217.196 254.176 216.742 252.91 216C250.01 214.313 246.699 213.463 243.345 213.545C239.991 213.626 236.726 214.635 233.91 216.46C232.283 217.52 230.382 218.083 228.44 218.08ZM243.78 193.53C248.765 193.529 253.701 194.504 258.31 196.4C265.122 193.113 270.899 188.016 275.01 181.667C279.121 175.318 281.408 167.961 281.62 160.4C281.667 158.57 282.215 156.788 283.205 155.248C284.195 153.709 285.588 152.47 287.233 151.667C288.878 150.865 290.712 150.529 292.535 150.697C294.358 150.865 296.1 151.531 297.57 152.62C307.786 160.164 319.792 164.915 332.404 166.406C345.015 167.896 357.797 166.075 369.49 161.12C371.882 160.1 374.577 160.051 377.004 160.985C379.431 161.918 381.399 163.76 382.49 166.12C385.836 173.318 391.537 179.16 398.651 182.68C405.765 186.2 413.867 187.189 421.619 185.483C429.371 183.776 436.309 179.477 441.287 173.295C446.265 167.113 448.986 159.418 449 151.48V151.28C448.897 148.825 449.702 146.418 451.26 144.518C452.819 142.618 455.023 141.359 457.45 140.98C463.739 140.008 469.714 137.586 474.905 133.905C480.095 130.224 484.357 125.386 487.354 119.773C490.351 114.16 492.001 107.927 492.172 101.566C492.344 95.2055 491.032 88.8923 488.342 83.1261C485.651 77.3599 481.656 72.2991 476.672 68.344C471.687 64.389 465.851 61.6483 459.624 60.339C453.397 59.0297 446.951 59.1876 440.796 60.8002C434.641 62.4129 428.945 65.436 424.16 69.6303C422.965 70.6712 421.54 71.413 420.001 71.7947C418.463 72.1764 416.856 72.187 415.313 71.8256C413.77 71.4642 412.335 70.7412 411.126 69.7162C409.917 68.6913 408.969 67.3936 408.36 65.9303C403.552 54.3812 395.856 44.2617 386.011 36.5426C376.166 28.8235 364.503 23.764 352.14 21.8495C339.778 19.9349 327.13 21.2296 315.412 25.6093C303.693 29.989 293.297 37.3067 285.22 46.8603C284.214 48.0477 282.943 48.9837 281.511 49.5936C280.079 50.2035 278.523 50.4705 276.97 50.3734C275.416 50.2762 273.906 49.8177 272.561 49.0342C271.215 48.2507 270.072 47.1639 269.22 45.8603C264.035 37.8935 256.601 31.6456 247.861 27.9087C239.121 24.1717 229.468 23.1139 220.126 24.8694C210.784 26.625 202.173 31.1147 195.386 37.7696C188.599 44.4244 183.94 52.9447 182 62.2503C181.594 64.2172 180.605 66.0163 179.162 67.4132C177.719 68.8101 175.889 69.7402 173.91 70.0823C171.931 70.4243 169.895 70.1626 168.067 69.331C166.239 68.4995 164.703 67.1368 163.66 65.4203C159.874 59.1666 154.145 54.3241 147.348 51.6322C140.552 48.9404 133.06 48.5471 126.019 50.5126C118.978 52.4781 112.773 56.6943 108.353 62.5173C103.933 68.3402 101.54 75.4498 101.54 82.7603C101.542 84.1205 101.623 85.4794 101.78 86.8303C101.985 88.6326 101.696 90.4567 100.943 92.1071C100.191 93.7575 99.0032 95.1722 97.5084 96.1996C96.0135 97.227 94.2673 97.8284 92.4568 97.9395C90.6464 98.0507 88.8397 97.6672 87.2305 96.8303C83.801 95.0425 79.988 94.1158 76.1205 94.1303C72.911 94.065 69.7207 94.6407 66.7365 95.8237C63.7524 97.0068 61.0342 98.7734 58.7413 101.02C56.4484 103.267 54.6269 105.948 53.3833 108.908C52.1398 111.867 51.4993 115.045 51.4993 118.255C51.4993 121.465 52.1398 124.643 53.3833 127.603C54.6269 130.562 56.4484 133.244 58.7413 135.491C61.0342 137.737 63.7524 139.504 66.7365 140.687C69.7207 141.87 72.911 142.446 76.1205 142.38H76.6305C83.8201 137.217 91.977 133.556 100.614 131.617C109.25 129.678 118.189 129.501 126.896 131.095C135.603 132.69 143.899 136.023 151.288 140.897C158.677 145.771 165.007 152.084 169.9 159.46C176.556 156.794 183.707 155.59 190.869 155.93C198.031 156.27 205.035 158.147 211.408 161.432C217.781 164.718 223.373 169.335 227.804 174.972C232.235 180.608 235.402 187.132 237.09 194.1C239.299 193.714 241.538 193.523 243.78 193.53Z" fill="#B4B7BA"/>
<path d="M100.349 297C93.0864 296.976 85.9148 295.38 79.3275 292.321C72.7402 289.262 66.8935 284.813 62.1893 279.28C55.3176 280.884 48.1841 281.016 41.2579 279.666C34.3316 278.317 27.7695 275.517 22.0029 271.45C16.2363 267.383 11.3958 262.141 7.79982 256.07C4.20381 249.998 1.93367 243.234 1.13866 236.223C0.343647 229.211 1.04177 222.111 3.18714 215.388C5.3325 208.666 8.87651 202.473 13.5861 197.218C18.2958 191.964 24.0644 187.765 30.5126 184.899C36.9609 182.033 43.9428 180.564 50.9993 180.59C53.9786 168.114 60.5371 156.78 69.869 147.981C79.201 139.181 90.9 133.299 103.529 131.057C116.158 128.815 129.167 130.31 140.958 135.359C152.748 140.409 162.807 148.792 169.899 159.48C176.555 156.813 183.706 155.609 190.868 155.949C198.029 156.29 205.034 158.166 211.407 161.452C217.78 164.737 223.371 169.355 227.803 174.991C232.234 180.628 235.401 187.151 237.089 194.12C243.076 193.057 249.229 193.439 255.038 195.232C260.848 197.026 266.145 200.18 270.491 204.432C274.836 208.684 278.104 213.912 280.023 219.681C281.942 225.451 282.457 231.594 281.524 237.602C280.592 243.61 278.239 249.309 274.662 254.225C271.084 259.141 266.385 263.132 260.955 265.867C255.525 268.602 249.521 270.002 243.441 269.95C237.361 269.899 231.382 268.397 225.999 265.57C221.711 272.994 215.835 279.379 208.791 284.267C201.747 289.155 193.71 292.426 185.255 293.846C176.8 295.266 168.135 294.8 159.881 292.48C151.627 290.161 143.987 286.046 137.509 280.43C132.811 285.627 127.078 289.785 120.679 292.639C114.28 295.492 107.356 296.978 100.349 297ZM66.0693 257.59C67.7948 257.59 69.4909 258.037 70.9926 258.887C72.4943 259.737 73.7506 260.961 74.6393 262.44C77.4237 267.073 81.4082 270.867 86.1716 273.423C90.935 275.978 96.3002 277.198 101.7 276.956C107.1 276.713 112.334 275.016 116.849 272.043C121.364 269.071 124.992 264.934 127.349 260.07C128.106 258.508 129.255 257.17 130.686 256.187C132.116 255.204 133.777 254.61 135.506 254.464C137.236 254.318 138.973 254.624 140.548 255.353C142.123 256.081 143.481 257.207 144.489 258.62C148.664 264.479 154.409 269.04 161.062 271.777C167.715 274.515 175.006 275.318 182.096 274.095C189.185 272.871 195.785 269.671 201.135 264.861C206.486 260.052 210.37 253.829 212.339 246.91C212.837 245.154 213.806 243.568 215.14 242.323C216.475 241.079 218.125 240.223 219.911 239.849C221.697 239.475 223.552 239.597 225.274 240.202C226.996 240.807 228.519 241.871 229.679 243.28C231.904 246.009 234.871 248.035 238.223 249.114C241.574 250.193 245.166 250.278 248.565 249.36C251.964 248.441 255.024 246.558 257.376 243.938C259.728 241.318 261.27 238.073 261.818 234.595C262.365 231.117 261.893 227.554 260.46 224.339C259.026 221.123 256.692 218.391 253.74 216.473C250.787 214.555 247.342 213.533 243.821 213.531C240.301 213.529 236.854 214.546 233.899 216.46C232.35 217.468 230.552 218.027 228.705 218.076C226.857 218.124 225.032 217.659 223.433 216.733C221.833 215.807 220.522 214.456 219.644 212.829C218.766 211.203 218.356 209.365 218.459 207.52C218.459 206.98 218.459 206.43 218.459 205.88C218.453 200.426 216.96 195.078 214.141 190.41C211.322 185.741 207.284 181.93 202.461 179.384C197.638 176.839 192.212 175.657 186.768 175.964C181.323 176.272 176.065 178.058 171.559 181.13C170.355 181.95 168.985 182.496 167.547 182.731C166.109 182.967 164.637 182.885 163.234 182.491C161.83 182.098 160.53 181.402 159.424 180.454C158.318 179.505 157.432 178.326 156.829 177C153.186 168.968 147.311 162.152 139.904 157.365C132.496 152.578 123.869 150.021 115.049 150C104.683 149.98 94.6218 153.509 86.5393 160C81.6191 163.919 77.5551 168.806 74.5984 174.358C71.6417 179.91 69.8552 186.01 69.3493 192.28C69.2385 193.701 68.8249 195.083 68.1364 196.331C67.4479 197.58 66.5003 198.667 65.3571 199.519C64.214 200.372 62.9018 200.97 61.5086 201.273C60.1154 201.577 58.6734 201.579 57.2793 201.28C55.2059 200.831 53.0905 200.607 50.9693 200.61C46.5317 200.594 42.1459 201.564 38.1282 203.448C34.1105 205.332 30.5608 208.085 27.735 211.506C24.9092 214.928 22.8777 218.934 21.7868 223.235C20.696 227.537 20.573 232.026 21.4268 236.381C22.2805 240.736 24.0898 244.847 26.724 248.418C29.3583 251.989 32.752 254.932 36.6606 257.033C40.5692 259.134 44.8952 260.342 49.327 260.57C53.7588 260.798 58.1859 260.039 62.2893 258.35C63.488 257.854 64.7719 257.595 66.0693 257.59Z" fill="#B4B7BA"/>
</g>
<defs>
<clipPath id="clip0_4666_642">
<rect width="512" height="512" fill="white"/>
</clipPath>
</defs>
</svg>
