<?xml version="1.0" encoding="UTF-8"?>
<svg height="600" width="800" xmlns="http://www.w3.org/2000/svg" xmlns:xlink="http://www.w3.org/1999/xlink">
    <g id="Notes" font-family="'LucidaGrande', 'Lucida Grande', sans-serif" font-size="13">
        <rect fill="white" height="600.0" width="800.0" x="0.0" y="0.0" />
        <g font-size="13">
            <text x="18.0" y="176.0">Small</text>
            <text x="18.0" y="376.0">Medium</text>
            <text x="18.0" y="576.0">Large</text>
        </g>
        <g font-size="9">
            <text x="250.0" y="30.0">Ultralight</text>
            <text x="450.0" y="30.0">Regular</text>
            <text x="650.0" y="30.0">Black</text>
            <text id="template-version" fill="#505050" text-anchor="end" x="785.0" y="575.0">Template v.3.0</text>
            <a href="https://github.com/swhitty/SwiftDraw">
                <text fill="#505050" text-anchor="end" x="785.0" y="590.0">https://github.com/swhitty/SwiftDraw</text>
            </a>
        </g>
    </g>
    <g id="Guides" stroke="rgb(39, 170, 225)" stroke-width="0.5">
        <path id="Capline-S" d="M18,76 l800,0" />
        <path id="H-reference" d="M85,145.755 L87.685,145.755 L113.369,79.287 L114.052,79.287 L114.052,76 L112.148,76 L85,145.755 Z M95.693,121.536 L130.996,121.536 L130.263,119.313 L96.474,119.313 L95.693,121.536 Z M139.15,145.755 L141.787,145.755 L114.638,76 L113.466,76 L113.466,79.287 L139.15,145.755 Z" stroke="none" />
        <path id="Baseline-S" d="M18,146 l800,0" />
        <path id="left-margin-Ultralight-S" d="M220.256,56 l0,110" />
        <path id="right-margin-Ultralight-S" d="M309.744,56 l0,110" />
        <path id="left-margin-Regular-S" d="M420.256,56 l0,110" />
        <path id="right-margin-Regular-S" d="M509.744,56 l0,110" />
        <path id="left-margin-Black-S" d="M620.256,56 l0,110" />
        <path id="right-margin-Black-S" d="M709.744,56 l0,110" />
        <path id="Capline-M" d="M18,276 l800,0" />
        <path id="Baseline-M" d="M18,346 l800,0" />
        <path id="Capline-L" d="M18,476 l800,0" />
        <path id="Baseline-L" d="M18,546 l800,0" />
    </g>
    <g id="Symbols">
        <g id="Ultralight-S">
            <path d="M254.281,112.526 C255.268,112.526 256.067,111.727 256.067,110.74 C256.067,109.754 255.268,108.954 254.281,108.954 C253.295,108.954 252.495,109.754 252.495,110.74 C252.495,111.727 253.295,112.526 254.281,112.526 Z" />
            <path d="M230.256,144.482 C230.256,143.644 230.936,142.964 231.774,142.964 L247.731,142.964 C248.569,142.964 249.249,143.644 249.249,144.482 C249.249,145.32 248.569,146 247.731,146 L231.774,146 C230.936,146 230.256,145.32 230.256,144.482 Z" />
            <path d="M230.635,140.118 C230.635,139.489 231.145,138.979 231.774,138.979 L247.731,138.979 C248.359,138.979 248.869,139.489 248.869,140.118 C248.869,140.746 248.359,141.256 247.731,141.256 L231.774,141.256 C231.145,141.256 230.635,140.746 230.635,140.118 Z" />
            <path d="M280.752,144.482 C280.752,143.644 281.431,142.964 282.27,142.964 L298.226,142.964 C299.064,142.964 299.744,143.644 299.744,144.482 C299.744,145.32 299.064,146 298.226,146 L282.27,146 C281.431,146 280.752,145.32 280.752,144.482 Z" />
            <path d="M281.131,140.118 C281.131,139.489 281.641,138.979 282.27,138.979 L298.226,138.979 C298.855,138.979 299.365,139.489 299.365,140.118 C299.365,140.746 298.855,141.256 298.226,141.256 L282.27,141.256 C281.641,141.256 281.131,140.746 281.131,140.118 Z" />
            <path d="M246.297,78.623 C246.297,77.177 247.474,76 248.92,76 L280.866,76 C282.312,76 283.489,77.177 283.489,78.623 L283.489,143.207 C283.489,144.653 282.312,145.83 280.866,145.83 L248.92,145.83 C247.474,145.83 246.297,144.653 246.297,143.207 L246.297,78.623 Z M249.333,79.036 L249.333,142.794 L280.453,142.794 L280.453,79.036 L249.333,79.036 Z" />
            <path d="M258.694,92.003 C258.694,91.374 259.204,90.864 259.832,90.864 L269.773,90.864 C270.402,90.864 270.912,91.374 270.912,92.003 L270.912,95.84 C270.912,96.469 270.402,96.979 269.773,96.979 L259.832,96.979 C259.204,96.979 258.694,96.469 258.694,95.84 L258.694,92.003 Z M259.832,92.003 L259.832,95.84 L269.773,95.84 L269.773,92.003 L259.832,92.003 Z" />
        </g>
        <g id="Regular-S">
            <path d="M454.281,112.526 C455.268,112.526 456.067,111.727 456.067,110.74 C456.067,109.754 455.268,108.954 454.281,108.954 C453.295,108.954 452.495,109.754 452.495,110.74 C452.495,111.727 453.295,112.526 454.281,112.526 Z" />
            <path d="M430.256,144.482 C430.256,143.644 430.936,142.964 431.774,142.964 L447.731,142.964 C448.569,142.964 449.249,143.644 449.249,144.482 C449.249,145.32 448.569,146 447.731,146 L431.774,146 C430.936,146 430.256,145.32 430.256,144.482 Z" />
            <path d="M430.635,140.118 C430.635,139.489 431.145,138.979 431.774,138.979 L447.731,138.979 C448.359,138.979 448.869,139.489 448.869,140.118 C448.869,140.746 448.359,141.256 447.731,141.256 L431.774,141.256 C431.145,141.256 430.635,140.746 430.635,140.118 Z" />
            <path d="M480.752,144.482 C480.752,143.644 481.431,142.964 482.27,142.964 L498.226,142.964 C499.064,142.964 499.744,143.644 499.744,144.482 C499.744,145.32 499.064,146 498.226,146 L482.27,146 C481.431,146 480.752,145.32 480.752,144.482 Z" />
            <path d="M481.131,140.118 C481.131,139.489 481.641,138.979 482.27,138.979 L498.226,138.979 C498.855,138.979 499.365,139.489 499.365,140.118 C499.365,140.746 498.855,141.256 498.226,141.256 L482.27,141.256 C481.641,141.256 481.131,140.746 481.131,140.118 Z" />
            <path d="M446.297,78.623 C446.297,77.177 447.474,76 448.92,76 L480.866,76 C482.312,76 483.489,77.177 483.489,78.623 L483.489,143.207 C483.489,144.653 482.312,145.83 480.866,145.83 L448.92,145.83 C447.474,145.83 446.297,144.653 446.297,143.207 L446.297,78.623 Z M449.333,79.036 L449.333,142.794 L480.453,142.794 L480.453,79.036 L449.333,79.036 Z" />
            <path d="M458.694,92.003 C458.694,91.374 459.204,90.864 459.832,90.864 L469.773,90.864 C470.402,90.864 470.912,91.374 470.912,92.003 L470.912,95.84 C470.912,96.469 470.402,96.979 469.773,96.979 L459.832,96.979 C459.204,96.979 458.694,96.469 458.694,95.84 L458.694,92.003 Z M459.832,92.003 L459.832,95.84 L469.773,95.84 L469.773,92.003 L459.832,92.003 Z" />
        </g>
        <g id="Black-S">
            <path d="M654.281,112.526 C655.268,112.526 656.067,111.727 656.067,110.74 C656.067,109.754 655.268,108.954 654.281,108.954 C653.295,108.954 652.495,109.754 652.495,110.74 C652.495,111.727 653.295,112.526 654.281,112.526 Z" />
            <path d="M630.256,144.482 C630.256,143.644 630.935,142.964 631.774,142.964 L647.731,142.964 C648.569,142.964 649.249,143.644 649.249,144.482 C649.249,145.32 648.569,146 647.731,146 L631.774,146 C630.935,146 630.256,145.32 630.256,144.482 Z" />
            <path d="M630.635,140.118 C630.635,139.489 631.145,138.979 631.774,138.979 L647.731,138.979 C648.359,138.979 648.869,139.489 648.869,140.118 C648.869,140.746 648.359,141.256 647.731,141.256 L631.774,141.256 C631.145,141.256 630.635,140.746 630.635,140.118 Z" />
            <path d="M680.752,144.482 C680.752,143.644 681.431,142.964 682.27,142.964 L698.226,142.964 C699.064,142.964 699.744,143.644 699.744,144.482 C699.744,145.32 699.064,146 698.226,146 L682.27,146 C681.431,146 680.752,145.32 680.752,144.482 Z" />
            <path d="M681.131,140.118 C681.131,139.489 681.641,138.979 682.27,138.979 L698.226,138.979 C698.855,138.979 699.365,139.489 699.365,140.118 C699.365,140.746 698.855,141.256 698.226,141.256 L682.27,141.256 C681.641,141.256 681.131,140.746 681.131,140.118 Z" />
            <path d="M646.297,78.623 C646.297,77.177 647.474,76 648.92,76 L680.866,76 C682.312,76 683.489,77.177 683.489,78.623 L683.489,143.207 C683.489,144.653 682.312,145.83 680.866,145.83 L648.92,145.83 C647.474,145.83 646.297,144.653 646.297,143.207 L646.297,78.623 Z M649.333,79.036 L649.333,142.794 L680.453,142.794 L680.453,79.036 L649.333,79.036 Z" />
            <path d="M658.694,92.003 C658.694,91.374 659.204,90.864 659.832,90.864 L669.773,90.864 C670.402,90.864 670.912,91.374 670.912,92.003 L670.912,95.84 C670.912,96.469 670.402,96.979 669.773,96.979 L659.832,96.979 C659.204,96.979 658.694,96.469 658.694,95.84 L658.694,92.003 Z M659.832,92.003 L659.832,95.84 L669.773,95.84 L669.773,92.003 L659.832,92.003 Z" />
        </g>
    </g>
</svg>