<?xml version="1.0" encoding="UTF-8"?>
<svg height="600" width="800" xmlns="http://www.w3.org/2000/svg" xmlns:xlink="http://www.w3.org/1999/xlink">
    <g id="Notes" font-family="'LucidaGrande', 'Lucida Grande', sans-serif" font-size="13">
        <rect fill="white" height="600.0" width="800.0" x="0.0" y="0.0" />
        <g font-size="13">
            <text x="18.0" y="176.0">Small</text>
            <text x="18.0" y="376.0">Medium</text>
            <text x="18.0" y="576.0">Large</text>
        </g>
        <g font-size="9">
            <text x="250.0" y="30.0">Ultralight</text>
            <text x="450.0" y="30.0">Regular</text>
            <text x="650.0" y="30.0">Black</text>
            <text id="template-version" fill="#505050" text-anchor="end" x="785.0" y="575.0">Template v.3.0</text>
            <a href="https://github.com/swhitty/SwiftDraw">
                <text fill="#505050" text-anchor="end" x="785.0" y="590.0">https://github.com/swhitty/SwiftDraw</text>
            </a>
        </g>
    </g>
    <g id="Guides" stroke="rgb(39, 170, 225)" stroke-width="0.5">
        <path id="Capline-S" d="M18,76 l800,0" />
        <path id="H-reference" d="M85,145.755 L87.685,145.755 L113.369,79.287 L114.052,79.287 L114.052,76 L112.148,76 L85,145.755 Z M95.693,121.536 L130.996,121.536 L130.263,119.313 L96.474,119.313 L95.693,121.536 Z M139.15,145.755 L141.787,145.755 L114.638,76 L113.466,76 L113.466,79.287 L139.15,145.755 Z" stroke="none" />
        <path id="Baseline-S" d="M18,146 l800,0" />
        <path id="left-margin-Ultralight-S" d="M213.155,56 l0,110" />
        <path id="right-margin-Ultralight-S" d="M316.845,56 l0,110" />
        <path id="left-margin-Regular-S" d="M413.155,56 l0,110" />
        <path id="right-margin-Regular-S" d="M516.845,56 l0,110" />
        <path id="left-margin-Black-S" d="M613.155,56 l0,110" />
        <path id="right-margin-Black-S" d="M716.845,56 l0,110" />
        <path id="Capline-M" d="M18,276 l800,0" />
        <path id="Baseline-M" d="M18,346 l800,0" />
        <path id="Capline-L" d="M18,476 l800,0" />
        <path id="Baseline-L" d="M18,546 l800,0" />
    </g>
    <g id="Symbols">
        <g id="Ultralight-S">
            <path d="M273.346,76 L256.652,76 C253.007,76.004 250.036,78.975 250.032,82.622 L250.032,89.355 L231.446,89.355 C226.88,89.36 223.161,93.08 223.155,97.647 L223.155,137.709 C223.161,142.275 226.88,145.995 231.448,146 L298.554,146 C303.12,145.995 306.839,142.275 306.845,137.708 L306.845,97.645 C306.839,93.08 303.12,89.36 298.552,89.355 L279.968,89.355 L279.968,82.62 C279.964,78.975 276.993,76.004 273.346,76 Z M253.259,82.619 C253.26,80.751 254.783,79.228 256.651,79.226 L273.348,79.226 C275.217,79.23 276.74,80.751 276.741,82.619 L276.741,89.355 L253.259,89.355 L253.259,82.619 Z M236.51,142.773 L231.446,142.773 C228.657,142.77 226.385,140.498 226.382,137.711 L226.382,97.645 C226.385,94.857 228.657,92.585 231.444,92.581 L236.51,92.581 L236.51,142.773 Z M293.49,92.581 L298.554,92.581 C301.343,92.585 303.615,94.857 303.618,97.644 L303.618,137.709 C303.615,140.498 301.343,142.768 298.556,142.772 L293.49,142.772 L293.49,92.581 Z M290.271,92.574 L290.264,142.773 L239.736,142.773 L239.736,92.581 L248.269,92.581 L247.758,93.813 C247.279,94.967 247.041,96.183 247.048,97.433 C247.064,100.231 248.337,102.554 249.403,104.011 L249.703,104.421 L246.823,111.16 C246.626,111.625 246.658,112.163 246.909,112.601 L256.09,128.504 C256.303,128.879 256.649,129.146 257.062,129.259 C257.475,129.371 257.908,129.317 258.278,129.104 L258.292,129.097 L269.868,122.417 C270.24,122.202 270.507,121.855 270.62,121.438 C270.73,121.021 270.673,120.587 270.458,120.215 L261.277,104.312 C261.024,103.874 260.573,103.577 260.071,103.516 L252.375,102.581 L252.147,102.284 C251.457,101.381 250.296,99.549 250.283,97.412 C250.283,95.817 250.867,94.342 252.069,92.9 L252.336,92.579 L290.271,92.579 L290.271,92.574 Z M250.107,111.684 L252.594,105.863 L258.878,106.62 L266.846,120.418 L258.088,125.491 L250.107,111.684 Z" />
            <path d="M276.688,99.369 C274.923,99.374 273.257,100.056 272.005,101.308 C270.753,102.558 270.064,104.221 270.064,105.989 C270.068,109.638 273.04,112.61 276.686,112.613 C280.337,112.613 283.308,109.643 283.308,105.993 C283.308,104.225 282.621,102.562 281.369,101.31 C280.119,100.058 278.456,99.369 276.688,99.369 Z M279.09,108.391 C278.449,109.032 277.596,109.387 276.69,109.389 L276.688,109.389 C275.782,109.389 274.931,109.036 274.288,108.395 C273.647,107.754 273.292,106.901 273.292,105.995 L273.292,105.991 C273.292,104.121 274.815,102.599 276.684,102.595 L276.686,102.595 C278.558,102.595 280.082,104.118 280.082,105.989 C280.082,106.896 279.729,107.749 279.088,108.391 L279.09,108.391 Z" />
        </g>
        <g id="Regular-S">
            <path d="M473.346,76 L456.652,76 C453.007,76.004 450.036,78.975 450.032,82.622 L450.032,89.355 L431.446,89.355 C426.88,89.36 423.161,93.08 423.155,97.647 L423.155,137.709 C423.161,142.275 426.88,145.995 431.448,146 L498.554,146 C503.12,145.995 506.839,142.275 506.845,137.708 L506.845,97.645 C506.839,93.08 503.12,89.36 498.552,89.355 L479.968,89.355 L479.968,82.62 C479.964,78.975 476.993,76.004 473.346,76 Z M453.259,82.619 C453.26,80.751 454.783,79.228 456.651,79.226 L473.348,79.226 C475.217,79.23 476.74,80.751 476.741,82.619 L476.741,89.355 L453.259,89.355 L453.259,82.619 Z M436.51,142.773 L431.446,142.773 C428.657,142.77 426.385,140.498 426.382,137.711 L426.382,97.645 C426.385,94.857 428.657,92.585 431.444,92.581 L436.51,92.581 L436.51,142.773 Z M493.49,92.581 L498.554,92.581 C501.343,92.585 503.615,94.857 503.618,97.644 L503.618,137.709 C503.615,140.498 501.343,142.768 498.556,142.772 L493.49,142.772 L493.49,92.581 Z M490.271,92.574 L490.264,142.773 L439.736,142.773 L439.736,92.581 L448.269,92.581 L447.758,93.813 C447.279,94.967 447.041,96.183 447.048,97.433 C447.064,100.231 448.337,102.554 449.404,104.011 L449.703,104.421 L446.823,111.16 C446.626,111.625 446.658,112.163 446.909,112.601 L456.09,128.504 C456.303,128.879 456.649,129.146 457.062,129.259 C457.475,129.371 457.908,129.317 458.278,129.104 L458.292,129.097 L469.868,122.417 C470.24,122.202 470.507,121.855 470.62,121.438 C470.73,121.021 470.673,120.587 470.458,120.215 L461.277,104.312 C461.024,103.874 460.573,103.577 460.071,103.516 L452.375,102.581 L452.147,102.284 C451.457,101.381 450.296,99.549 450.283,97.412 C450.283,95.817 450.867,94.342 452.069,92.9 L452.336,92.579 L490.271,92.579 L490.271,92.574 Z M450.107,111.684 L452.594,105.863 L458.878,106.62 L466.846,120.418 L458.088,125.491 L450.107,111.684 Z" />
            <path d="M476.688,99.369 C474.923,99.374 473.257,100.056 472.005,101.308 C470.753,102.558 470.064,104.221 470.064,105.989 C470.068,109.638 473.04,112.61 476.686,112.613 C480.337,112.613 483.308,109.643 483.308,105.993 C483.308,104.225 482.621,102.562 481.369,101.31 C480.119,100.058 478.456,99.369 476.688,99.369 Z M479.09,108.391 C478.449,109.032 477.596,109.387 476.69,109.389 L476.688,109.389 C475.782,109.389 474.931,109.036 474.288,108.395 C473.647,107.754 473.292,106.901 473.292,105.995 L473.292,105.991 C473.292,104.121 474.815,102.599 476.684,102.595 L476.686,102.595 C478.558,102.595 480.082,104.118 480.082,105.989 C480.082,106.896 479.729,107.749 479.088,108.391 L479.09,108.391 Z" />
        </g>
        <g id="Black-S">
            <path d="M673.346,76 L656.652,76 C653.007,76.004 650.036,78.975 650.032,82.622 L650.032,89.355 L631.446,89.355 C626.88,89.36 623.161,93.08 623.155,97.647 L623.155,137.709 C623.161,142.275 626.88,145.995 631.448,146 L698.554,146 C703.12,145.995 706.839,142.275 706.845,137.708 L706.845,97.645 C706.839,93.08 703.12,89.36 698.552,89.355 L679.968,89.355 L679.968,82.62 C679.964,78.975 676.993,76.004 673.346,76 Z M653.259,82.619 C653.26,80.751 654.783,79.228 656.651,79.226 L673.348,79.226 C675.217,79.23 676.74,80.751 676.741,82.619 L676.741,89.355 L653.259,89.355 L653.259,82.619 Z M636.51,142.773 L631.446,142.773 C628.657,142.77 626.385,140.498 626.382,137.711 L626.382,97.645 C626.385,94.857 628.657,92.585 631.444,92.581 L636.51,92.581 L636.51,142.773 Z M693.49,92.581 L698.554,92.581 C701.343,92.585 703.615,94.857 703.618,97.644 L703.618,137.709 C703.615,140.498 701.343,142.768 698.556,142.772 L693.49,142.772 L693.49,92.581 Z M690.271,92.574 L690.264,142.773 L639.736,142.773 L639.736,92.581 L648.269,92.581 L647.758,93.813 C647.279,94.967 647.041,96.183 647.048,97.433 C647.064,100.231 648.337,102.554 649.404,104.011 L649.703,104.421 L646.823,111.16 C646.626,111.625 646.658,112.163 646.909,112.601 L656.09,128.504 C656.303,128.879 656.649,129.146 657.062,129.259 C657.475,129.371 657.908,129.317 658.278,129.104 L658.292,129.097 L669.868,122.417 C670.24,122.202 670.507,121.855 670.62,121.438 C670.73,121.021 670.673,120.587 670.458,120.215 L661.277,104.312 C661.024,103.874 660.573,103.577 660.071,103.516 L652.375,102.581 L652.147,102.284 C651.457,101.381 650.296,99.549 650.283,97.412 C650.283,95.817 650.867,94.342 652.069,92.9 L652.336,92.579 L690.271,92.579 L690.271,92.574 Z M650.107,111.684 L652.594,105.863 L658.878,106.62 L666.846,120.418 L658.088,125.491 L650.107,111.684 Z" />
            <path d="M676.688,99.369 C674.923,99.374 673.257,100.056 672.005,101.308 C670.753,102.558 670.064,104.221 670.064,105.989 C670.068,109.638 673.04,112.61 676.686,112.613 C680.337,112.613 683.308,109.643 683.308,105.993 C683.308,104.225 682.621,102.562 681.369,101.31 C680.119,100.058 678.456,99.369 676.688,99.369 Z M679.09,108.391 C678.449,109.032 677.596,109.387 676.69,109.389 L676.688,109.389 C675.782,109.389 674.931,109.036 674.288,108.395 C673.647,107.754 673.292,106.901 673.292,105.995 L673.292,105.991 C673.292,104.121 674.815,102.599 676.684,102.595 L676.686,102.595 C678.558,102.595 680.082,104.118 680.082,105.989 C680.082,106.896 679.729,107.749 679.088,108.391 L679.09,108.391 Z" />
        </g>
    </g>
</svg>