<svg width="48" height="48" viewBox="0 0 48 48" fill="none" xmlns="http://www.w3.org/2000/svg">
<path fill-rule="evenodd" clip-rule="evenodd" d="M27.0023 28.9467C27.2069 28.8831 27.43 28.9364 27.5838 29.0857C28.9273 30.3903 29.614 31.6508 29.8253 32.8417C30.0373 34.0363 29.7587 35.0919 29.2987 35.9603C28.8424 36.8217 28.2027 37.5098 27.6632 37.9991C27.3916 38.2454 27.1411 38.4453 26.9455 38.5946C26.8518 38.6661 26.7701 38.7264 26.7069 38.7732L26.6993 38.7788C26.6666 38.803 26.6407 38.8221 26.6198 38.8379C26.6095 38.8457 26.6014 38.8518 26.5952 38.8567L26.5881 38.8623L26.5862 38.8638C26.5858 38.8642 26.5856 38.8643 26.5856 38.8643C26.4804 38.952 26.3478 39 26.2109 39H26.1366C26.0037 39 25.8747 38.9548 25.7709 38.8717C25.7557 38.8595 25.7313 38.8413 25.6992 38.8173C25.4244 38.6116 24.5812 37.9808 24.0226 37.0684C23.7037 36.5474 23.4575 35.9072 23.4632 35.1736C23.469 34.434 23.7305 33.6554 24.3334 32.8646C25.4371 31.3929 26.0151 30.4871 26.3141 29.9595C26.4634 29.696 26.5405 29.5314 26.5783 29.4414C26.5967 29.3977 26.6051 29.373 26.6079 29.3644C26.6571 29.1665 26.8062 29.0076 27.0023 28.9467ZM27.3388 30.5259C27.3367 30.5295 27.3347 30.5331 27.3326 30.5367C27.0007 31.1225 26.3911 32.0722 25.2686 33.569L25.2656 33.5729L25.2656 33.5729C24.7931 34.192 24.6374 34.7305 24.6339 35.1827C24.6304 35.6417 24.7833 36.0686 25.0211 36.4571C25.3644 37.0179 25.8434 37.4411 26.1769 37.7062C26.7153 37.2987 27.6776 36.5195 28.2642 35.4122C28.6301 34.7215 28.8295 33.9304 28.6726 33.0463C28.5422 32.3116 28.1575 31.4658 27.3388 30.5259Z" fill="black"/>
<path fill-rule="evenodd" clip-rule="evenodd" d="M23.5452 23.0218C23.8675 22.9528 24.2185 23.0479 24.4716 23.3009C24.4911 23.3205 24.5093 23.3415 24.5259 23.3636C25.2623 24.3454 25.9794 26.0257 25.9794 27.8724C25.9794 28.6212 25.6818 29.3103 25.3067 29.9304C24.9878 30.4578 24.5803 30.9853 24.1897 31.4908C24.1235 31.5765 24.0578 31.6616 23.993 31.7459C23.0544 32.969 22.3247 34.0564 22.4136 35.246C22.5113 36.2414 22.9384 36.9884 23.2351 37.5076L23.2481 37.5303C23.3185 37.6535 23.3955 37.7885 23.4488 37.9069C23.4758 37.967 23.5073 38.0452 23.5271 38.132C23.5455 38.2124 23.5678 38.3578 23.5161 38.5213C23.4551 38.7147 23.3171 38.8527 23.1572 38.9263C23.0221 38.9885 22.8913 38.9965 22.809 38.9959C22.644 38.9948 22.4563 38.9541 22.2754 38.9065L22.2635 38.9032C20.7751 38.478 19.3635 37.1894 18.6899 35.5359C18.0026 33.849 18.0784 31.7718 19.5841 29.8176C21.6863 27.0627 22.5442 24.7593 22.823 23.716C22.9201 23.3363 23.2168 23.0922 23.5452 23.0218ZM23.8346 24.4282C23.4308 25.7179 22.4837 27.9479 20.514 30.529L20.5122 30.5312L20.5122 30.5312C19.2719 32.1403 19.2365 33.7746 19.7741 35.0942C20.2107 36.1659 21.0226 37.0241 21.8928 37.4924C21.6232 36.9573 21.333 36.2339 21.2478 35.3529L21.2468 35.3414C21.1157 33.6378 22.1669 32.2025 23.0643 31.0332C23.1338 30.9426 23.2026 30.8535 23.2704 30.7657C23.6633 30.2566 24.0236 29.7898 24.305 29.3246C24.6329 28.7823 24.8086 28.3114 24.8086 27.8724C24.8086 26.5181 24.347 25.2613 23.8346 24.4282Z" fill="black"/>
<path d="M3.79603 41.2553C2.01321 37.9632 1 34.1871 1 30.1727C1 22.2354 4.96094 15.2301 11 11.0539M44.204 41.2553C45.9868 37.9632 47 34.1871 47 30.1727C47 17.3748 36.7025 7 24 7C22.3628 7 20.7656 7.17234 19.2252 7.5" stroke="black" stroke-width="1.5" stroke-linecap="round"/>
<circle cx="15" cy="9" r="3" fill="#EB3A28"/>
<path d="M24 7V11" stroke="black" stroke-width="1.5" stroke-linecap="round" stroke-linejoin="round"/>
<path d="M47 31L43 31" stroke="black" stroke-width="1.5" stroke-linecap="round" stroke-linejoin="round"/>
<path d="M5 31L1 31" stroke="black" stroke-width="1.5" stroke-linecap="round" stroke-linejoin="round"/>
<path d="M41 15L38.1716 17.8284" stroke="black" stroke-width="1.5" stroke-linecap="round" stroke-linejoin="round"/>
<path d="M7 15L9.82843 17.8284" stroke="black" stroke-width="1.5" stroke-linecap="round" stroke-linejoin="round"/>
</svg>
