<svg width="64" height="65" viewBox="0 0 64 65" fill="none" xmlns="http://www.w3.org/2000/svg">
<path fill-rule="evenodd" clip-rule="evenodd" d="M31.9999 14.45C34.7745 14.4539 37.0323 16.7125 37.0342 19.4864L37.0342 41.8437L37.0852 41.8892C38.6861 43.3174 39.596 45.3675 39.5819 47.5112L39.5819 47.5125C39.564 49.1472 39.0338 50.7014 38.0459 52.0056C36.6087 53.9363 34.4037 55.0462 32.0008 55.05C29.6277 55.0462 27.4399 53.9579 25.9982 52.0631L25.9976 52.0623L25.9519 52.0029C24.9662 50.7013 24.4358 49.1476 24.4179 47.5134L24.4179 47.5123C24.4028 45.3658 25.3127 43.3147 26.9155 41.8856L26.9665 41.8401V19.4848C26.9694 16.711 29.2278 14.4529 31.9999 14.45ZM32.781 17.0385C32.3757 16.9193 31.9846 16.9185 31.6908 16.9494C31.5442 16.9648 31.4242 16.9879 31.3423 17.0067C31.3013 17.0161 31.2701 17.0244 31.2499 17.03L31.2283 17.0363L31.2243 17.0376L31.2209 17.0387C30.1784 17.3643 29.4107 18.3305 29.3876 19.4868V42.4193C29.3863 42.7962 29.2067 43.1582 28.9059 43.3854C27.6152 44.3534 26.8426 45.8977 26.8426 47.5111C26.8417 50.3552 29.1547 52.6707 31.9987 52.6724C33.6138 52.6724 35.1574 51.8997 36.1254 50.6082C37.8309 48.3325 37.3675 45.0922 35.0929 43.3878L35.0918 43.3869C34.7901 43.1586 34.6086 42.7977 34.6086 42.4175V19.4788C34.5846 18.3252 33.8271 17.3639 32.781 17.0385Z" fill="black"/>
<path d="M31.0871 28.4035V44.8275L30.8225 44.9489C30.1367 45.2633 29.6148 45.825 29.3521 46.5326C29.0893 47.2392 29.1183 48.0066 29.4318 48.6916C29.7453 49.3765 30.3079 49.8993 31.0155 50.162C31.7222 50.4248 32.4896 50.3958 33.1745 50.0823C34.5897 49.4336 35.213 47.7548 34.5643 46.3396C34.2826 45.7244 33.7888 45.2315 33.1745 44.9498L32.91 44.8284V28.4026C32.91 27.9006 32.5004 27.492 31.9976 27.4911C31.4957 27.4911 31.0862 27.9006 31.0862 28.4035H31.0871Z" fill="#00D151"/>
<path fill-rule="evenodd" clip-rule="evenodd" d="M31.8223 6.95197C27.6481 9.85771 20.8377 14.3238 20.3015 14.675C20.2823 14.6876 20.2711 14.6949 20.2685 14.6966C19.7784 15.0172 17.8015 16.3431 17.8015 16.3431V8.87234H14.2299V18.7035C14.2299 18.7035 13.9724 18.9477 13.5405 19.2451L4.00006 25.8152H6.83578C7.62289 25.8152 8.27723 25.8156 8.40713 25.8157C8.42253 25.8157 8.43056 25.8157 8.43056 25.8157V58.548H55.6958V25.8169L57.2906 25.8152L57.4604 25.8169H60.0001L31.8223 6.95197ZM58.1958 28.3169H60.0001C61.1008 28.3169 62.0721 27.5969 62.3921 26.5437C62.7121 25.4904 62.3056 24.3518 61.3909 23.7395L33.2131 4.87456C32.3578 4.30189 31.2388 4.31205 30.394 4.90015C28.2555 6.38883 25.405 8.29999 23.069 9.85212C21.9935 10.5667 21.0306 11.2028 20.3015 11.6832V8.87234C20.3015 7.49163 19.1823 6.37234 17.8015 6.37234H14.2299C12.8492 6.37234 11.7299 7.49163 11.7299 8.87234V17.4565L2.58211 23.7562C1.68052 24.3771 1.28775 25.5124 1.61286 26.5577C1.93798 27.603 2.90536 28.3152 4.00006 28.3152H5.93056V58.548C5.93056 59.9288 7.04985 61.048 8.43056 61.048H55.6958C57.0765 61.048 58.1958 59.9288 58.1958 58.548V28.3169Z" fill="black"/>
</svg>
