<?xml version="1.0" encoding="UTF-8"?>
<svg height="600" width="800" xmlns="http://www.w3.org/2000/svg" xmlns:xlink="http://www.w3.org/1999/xlink">
    <g id="Notes" font-family="'LucidaGrande', 'Lucida Grande', sans-serif" font-size="13">
        <rect fill="white" height="600.0" width="800.0" x="0.0" y="0.0" />
        <g font-size="13">
            <text x="18.0" y="176.0">Small</text>
            <text x="18.0" y="376.0">Medium</text>
            <text x="18.0" y="576.0">Large</text>
        </g>
        <g font-size="9">
            <text x="250.0" y="30.0">Ultralight</text>
            <text x="450.0" y="30.0">Regular</text>
            <text x="650.0" y="30.0">Black</text>
            <text id="template-version" fill="#505050" text-anchor="end" x="785.0" y="575.0">Template v.3.0</text>
            <a href="https://github.com/swhitty/SwiftDraw">
                <text fill="#505050" text-anchor="end" x="785.0" y="590.0">https://github.com/swhitty/SwiftDraw</text>
            </a>
        </g>
    </g>
    <g id="Guides" stroke="rgb(39, 170, 225)" stroke-width="0.5">
        <path id="Capline-S" d="M18,76 l800,0" />
        <path id="H-reference" d="M85,145.755 L87.685,145.755 L113.369,79.287 L114.052,79.287 L114.052,76 L112.148,76 L85,145.755 Z M95.693,121.536 L130.996,121.536 L130.263,119.313 L96.474,119.313 L95.693,121.536 Z M139.15,145.755 L141.787,145.755 L114.638,76 L113.466,76 L113.466,79.287 L139.15,145.755 Z" stroke="none" />
        <path id="Baseline-S" d="M18,146 l800,0" />
        <path id="left-margin-Ultralight-S" d="M216.026,56 l0,110" />
        <path id="right-margin-Ultralight-S" d="M313.974,56 l0,110" />
        <path id="left-margin-Regular-S" d="M416.026,56 l0,110" />
        <path id="right-margin-Regular-S" d="M513.974,56 l0,110" />
        <path id="left-margin-Black-S" d="M616.026,56 l0,110" />
        <path id="right-margin-Black-S" d="M713.974,56 l0,110" />
        <path id="Capline-M" d="M18,276 l800,0" />
        <path id="Baseline-M" d="M18,346 l800,0" />
        <path id="Capline-L" d="M18,476 l800,0" />
        <path id="Baseline-L" d="M18,546 l800,0" />
    </g>
    <g id="Symbols">
        <g id="Ultralight-S">
            <path d="M228.53,85.667 C228.718,85.011 229.318,84.559 230,84.559 L300,84.559 C300.682,84.559 301.282,85.011 301.47,85.667 L303.915,94.226 C304.047,94.688 303.954,95.184 303.666,95.567 C303.377,95.95 302.925,96.175 302.445,96.175 L227.555,96.175 C227.075,96.175 226.623,95.95 226.334,95.567 C226.046,95.184 225.953,94.688 226.085,94.226 L228.53,85.667 Z M231.153,87.616 L229.581,93.118 L300.419,93.118 L298.847,87.616 L231.153,87.616 Z" />
            <path d="M236.266,84.635 C237.068,84.635 237.718,85.285 237.718,86.087 L237.718,89.641 C237.718,90.442 237.068,91.092 236.266,91.092 C235.464,91.092 234.814,90.442 234.814,89.641 L234.814,86.087 C234.814,85.285 235.464,84.635 236.266,84.635 Z" />
            <path d="M293.734,84.635 C294.536,84.635 295.186,85.285 295.186,86.087 L295.186,89.641 C295.186,90.442 294.536,91.092 293.734,91.092 C292.932,91.092 292.282,90.442 292.282,89.641 L292.282,86.087 C292.282,85.285 292.932,84.635 293.734,84.635 Z" />
            <path d="M229.847,95.258 C229.847,94.076 230.805,93.118 231.987,93.118 L298.013,93.118 C299.195,93.118 300.153,94.076 300.153,95.258 L300.153,143.86 C300.153,145.042 299.195,146 298.013,146 L231.987,146 C230.805,146 229.847,145.042 229.847,143.86 L229.847,95.258 Z M232.904,96.175 L232.904,142.943 L297.096,142.943 L297.096,96.175 L232.904,96.175 Z" />
            <path d="M236.572,94.646 C236.572,93.802 237.256,93.118 238.1,93.118 L261.943,93.118 C262.787,93.118 263.472,93.802 263.472,94.646 L263.472,138.358 C263.472,139.202 262.787,139.886 261.943,139.886 L238.1,139.886 C237.256,139.886 236.572,139.202 236.572,138.358 L236.572,94.646 Z M239.629,96.175 L239.629,136.83 L260.415,136.83 L260.415,96.175 L239.629,96.175 Z" />
            <path d="M266.528,94.646 C266.528,93.802 267.213,93.118 268.057,93.118 L291.9,93.118 C292.744,93.118 293.428,93.802 293.428,94.646 L293.428,138.358 C293.428,139.202 292.744,139.886 291.9,139.886 L268.057,139.886 C267.213,139.886 266.528,139.202 266.528,138.358 L266.528,94.646 Z M269.585,96.175 L269.585,136.83 L290.371,136.83 L290.371,96.175 L269.585,96.175 Z" />
            <path d="M226.026,77.528 C226.026,76.684 226.71,76 227.555,76 L302.445,76 C303.29,76 303.974,76.684 303.974,77.528 L303.974,86.087 C303.974,86.931 303.29,87.616 302.445,87.616 L227.555,87.616 C226.71,87.616 226.026,86.931 226.026,86.087 L226.026,77.528 Z M229.083,79.057 L229.083,84.559 L300.917,84.559 L300.917,79.057 L229.083,79.057 Z" />
        </g>
        <g id="Regular-S">
            <path d="M428.53,85.667 C428.718,85.011 429.318,84.559 430,84.559 L500,84.559 C500.682,84.559 501.282,85.011 501.47,85.667 L503.915,94.226 C504.047,94.688 503.954,95.184 503.666,95.567 C503.377,95.95 502.925,96.175 502.445,96.175 L427.555,96.175 C427.075,96.175 426.623,95.95 426.334,95.567 C426.046,95.184 425.953,94.688 426.085,94.226 L428.53,85.667 Z M431.153,87.616 L429.581,93.118 L500.419,93.118 L498.847,87.616 L431.153,87.616 Z" />
            <path d="M436.266,84.635 C437.068,84.635 437.718,85.285 437.718,86.087 L437.718,89.641 C437.718,90.442 437.068,91.092 436.266,91.092 C435.464,91.092 434.814,90.442 434.814,89.641 L434.814,86.087 C434.814,85.285 435.464,84.635 436.266,84.635 Z" />
            <path d="M493.734,84.635 C494.536,84.635 495.186,85.285 495.186,86.087 L495.186,89.641 C495.186,90.442 494.536,91.092 493.734,91.092 C492.932,91.092 492.282,90.442 492.282,89.641 L492.282,86.087 C492.282,85.285 492.932,84.635 493.734,84.635 Z" />
            <path d="M429.847,95.258 C429.847,94.076 430.805,93.118 431.987,93.118 L498.013,93.118 C499.195,93.118 500.153,94.076 500.153,95.258 L500.153,143.86 C500.153,145.042 499.195,146 498.013,146 L431.987,146 C430.805,146 429.847,145.042 429.847,143.86 L429.847,95.258 Z M432.904,96.175 L432.904,142.943 L497.096,142.943 L497.096,96.175 L432.904,96.175 Z" />
            <path d="M436.572,94.646 C436.572,93.802 437.256,93.118 438.1,93.118 L461.943,93.118 C462.787,93.118 463.472,93.802 463.472,94.646 L463.472,138.358 C463.472,139.202 462.787,139.886 461.943,139.886 L438.1,139.886 C437.256,139.886 436.572,139.202 436.572,138.358 L436.572,94.646 Z M439.629,96.175 L439.629,136.83 L460.415,136.83 L460.415,96.175 L439.629,96.175 Z" />
            <path d="M466.528,94.646 C466.528,93.802 467.213,93.118 468.057,93.118 L491.9,93.118 C492.744,93.118 493.428,93.802 493.428,94.646 L493.428,138.358 C493.428,139.202 492.744,139.886 491.9,139.886 L468.057,139.886 C467.213,139.886 466.528,139.202 466.528,138.358 L466.528,94.646 Z M469.585,96.175 L469.585,136.83 L490.371,136.83 L490.371,96.175 L469.585,96.175 Z" />
            <path d="M426.026,77.528 C426.026,76.684 426.71,76 427.555,76 L502.445,76 C503.29,76 503.974,76.684 503.974,77.528 L503.974,86.087 C503.974,86.931 503.29,87.616 502.445,87.616 L427.555,87.616 C426.71,87.616 426.026,86.931 426.026,86.087 L426.026,77.528 Z M429.083,79.057 L429.083,84.559 L500.917,84.559 L500.917,79.057 L429.083,79.057 Z" />
        </g>
        <g id="Black-S">
            <path d="M628.53,85.667 C628.718,85.011 629.318,84.559 630,84.559 L700,84.559 C700.682,84.559 701.282,85.011 701.47,85.667 L703.915,94.226 C704.047,94.688 703.954,95.184 703.666,95.567 C703.377,95.95 702.925,96.175 702.445,96.175 L627.555,96.175 C627.075,96.175 626.623,95.95 626.334,95.567 C626.046,95.184 625.953,94.688 626.085,94.226 L628.53,85.667 Z M631.153,87.616 L629.581,93.118 L700.419,93.118 L698.847,87.616 L631.153,87.616 Z" />
            <path d="M636.266,84.635 C637.068,84.635 637.718,85.285 637.718,86.087 L637.718,89.641 C637.718,90.442 637.068,91.092 636.266,91.092 C635.464,91.092 634.814,90.442 634.814,89.641 L634.814,86.087 C634.814,85.285 635.464,84.635 636.266,84.635 Z" />
            <path d="M693.734,84.635 C694.536,84.635 695.186,85.285 695.186,86.087 L695.186,89.641 C695.186,90.442 694.536,91.092 693.734,91.092 C692.932,91.092 692.282,90.442 692.282,89.641 L692.282,86.087 C692.282,85.285 692.932,84.635 693.734,84.635 Z" />
            <path d="M629.847,95.258 C629.847,94.076 630.805,93.118 631.987,93.118 L698.013,93.118 C699.195,93.118 700.153,94.076 700.153,95.258 L700.153,143.86 C700.153,145.042 699.195,146 698.013,146 L631.987,146 C630.805,146 629.847,145.042 629.847,143.86 L629.847,95.258 Z M632.904,96.175 L632.904,142.943 L697.096,142.943 L697.096,96.175 L632.904,96.175 Z" />
            <path d="M636.572,94.646 C636.572,93.802 637.256,93.118 638.1,93.118 L661.943,93.118 C662.787,93.118 663.472,93.802 663.472,94.646 L663.472,138.358 C663.472,139.202 662.787,139.886 661.943,139.886 L638.1,139.886 C637.256,139.886 636.572,139.202 636.572,138.358 L636.572,94.646 Z M639.629,96.175 L639.629,136.83 L660.415,136.83 L660.415,96.175 L639.629,96.175 Z" />
            <path d="M666.528,94.646 C666.528,93.802 667.213,93.118 668.057,93.118 L691.9,93.118 C692.744,93.118 693.428,93.802 693.428,94.646 L693.428,138.358 C693.428,139.202 692.744,139.886 691.9,139.886 L668.057,139.886 C667.213,139.886 666.528,139.202 666.528,138.358 L666.528,94.646 Z M669.585,96.175 L669.585,136.83 L690.371,136.83 L690.371,96.175 L669.585,96.175 Z" />
            <path d="M626.026,77.528 C626.026,76.684 626.71,76 627.555,76 L702.445,76 C703.29,76 703.974,76.684 703.974,77.528 L703.974,86.087 C703.974,86.931 703.29,87.616 702.445,87.616 L627.555,87.616 C626.71,87.616 626.026,86.931 626.026,86.087 L626.026,77.528 Z M629.083,79.057 L629.083,84.559 L700.917,84.559 L700.917,79.057 L629.083,79.057 Z" />
        </g>
    </g>
</svg>