<svg width="120" height="120" viewBox="0 0 120 120" fill="none" xmlns="http://www.w3.org/2000/svg">
<g clip-path="url(#clip0_7520_32813)">
<path d="M89.7886 29.4579C88.9236 28.495 89.0031 27.0131 89.966 26.1481C90.929 25.2831 92.4109 25.3623 93.2759 26.3252C101.293 35.2499 106.174 47.0578 106.174 59.9999C106.174 72.9421 101.293 84.75 93.2759 93.6746C92.4109 94.6375 90.929 94.717 89.966 93.852C89.0031 92.987 88.9237 91.5051 89.7886 90.5421C97.0631 82.4444 101.486 71.7414 101.486 59.9999C101.486 48.2585 97.0631 37.5557 89.7886 29.4579Z" fill="#EB3A28"/>
<path d="M100.1 19.667C99.2351 18.704 99.3146 17.2221 100.278 16.3571C101.24 15.4921 102.722 15.5713 103.587 16.5343C113.936 28.0543 120.235 43.2944 120.235 60.0001C120.235 76.7057 113.936 91.9456 103.587 103.466C102.722 104.429 101.24 104.508 100.278 103.643C99.3146 102.778 99.2352 101.296 100.1 100.333C109.706 89.64 115.548 75.505 115.548 60.0001C115.548 44.4951 109.706 30.3601 100.1 19.667Z" fill="#EB3A28"/>
<path d="M30.4457 29.4584C31.3108 28.4955 31.2313 27.0136 30.2683 26.1486C29.3054 25.2835 27.8235 25.3628 26.9585 26.3257C18.9412 35.2504 14.0608 47.0582 14.0608 60.0004C14.0608 72.9426 18.9412 84.7505 26.9585 93.6751C27.8235 94.638 29.3054 94.7175 30.2683 93.8525C31.2313 92.9875 31.3107 91.5056 30.4457 90.5426C23.1713 82.4449 18.7483 71.7419 18.7483 60.0004C18.7483 48.259 23.1713 37.5562 30.4457 29.4584Z" fill="#EB3A28"/>
<path d="M20.1352 19.667C21.0002 18.704 20.9207 17.2221 19.9578 16.3571C18.9949 15.4921 17.513 15.5713 16.6479 16.5343C6.29913 28.0543 0.000216287 43.2944 0.000215557 60.0001C0.000228178 76.7057 6.29918 91.9456 16.6479 103.466C17.5129 104.429 18.9949 104.508 19.9578 103.643C20.9207 102.778 21.0001 101.296 20.1352 100.333C10.5292 89.64 4.68773 75.505 4.68772 60.0001C4.68772 44.4951 10.5292 30.3601 20.1352 19.667Z" fill="#EB3A28"/>
<path d="M69.8438 38.4375C81.7524 38.4375 91.4062 48.0914 91.4062 60C91.4062 71.9086 81.7524 81.5625 69.8438 81.5625H50.1562C38.2476 81.5625 28.5938 71.9086 28.5938 60C28.5938 48.0914 38.2476 38.4375 50.1562 38.4375H69.8438ZM71.0321 48.9677C70.1168 48.0524 68.6327 48.0524 67.7174 48.9677L59.9998 56.6853L52.2823 48.9677C51.367 48.0524 49.8829 48.0524 48.9677 48.9677C48.0524 49.8829 48.0525 51.3671 48.9677 52.2823L56.6851 60L48.9679 67.7177C48.0526 68.633 48.0526 70.1171 48.9679 71.0323C49.8832 71.9476 51.3673 71.9476 52.2826 71.0323L59.9998 63.3147L67.7172 71.0323C68.6325 71.9476 70.1166 71.9476 71.0319 71.0323C71.9472 70.1171 71.9472 68.633 71.0319 67.7177L63.3144 60L71.0321 52.2823C71.9473 51.367 71.9473 49.8829 71.0321 48.9677Z" fill="#EB3A28"/>
</g>
<defs>
<clipPath id="clip0_7520_32813">
<rect width="120" height="120" fill="white"/>
</clipPath>
</defs>
</svg>
