<svg width="512" height="512" viewBox="0 0 512 512" fill="none" xmlns="http://www.w3.org/2000/svg">
<g clip-path="url(#clip0_4627_619)">
<path d="M335.23 336.15L265.23 168.15C264.47 166.328 263.188 164.772 261.546 163.677C259.903 162.582 257.974 161.998 256 161.998C254.026 161.998 252.096 162.582 250.454 163.677C248.811 164.772 247.529 166.328 246.77 168.15L189.76 305L188.52 308L176.77 336.21C175.749 338.658 175.742 341.411 176.751 343.864C177.76 346.317 179.702 348.269 182.15 349.29C184.598 350.311 187.351 350.318 189.804 349.309C192.257 348.3 194.209 346.358 195.23 343.91L205.06 320.31H306.94L316.77 343.91C317.275 345.122 318.015 346.223 318.946 347.149C319.877 348.076 320.981 348.809 322.196 349.309C323.41 349.809 324.711 350.064 326.025 350.061C327.338 350.058 328.638 349.796 329.85 349.29C331.062 348.784 332.163 348.045 333.089 347.114C334.015 346.183 334.749 345.079 335.249 343.864C335.748 342.65 336.004 341.349 336.001 340.035C335.997 338.722 335.735 337.422 335.23 336.21V336.15ZM213.4 300.25L256 198L298.6 300.25H213.4Z" fill="#FCFCFC"/>
<path d="M189.76 305L188.52 308C188.762 306.937 189.181 305.923 189.76 305Z" fill="#FCFCFC"/>
<path d="M502 246H445.74C440.52 145.86 357.41 66 256 66C154.59 66 71.48 145.86 66.26 246H10C7.34784 246 4.8043 247.054 2.92893 248.929C1.05357 250.804 0 253.348 0 256C0 258.652 1.05357 261.196 2.92893 263.071C4.8043 264.946 7.34784 266 10 266H66.26C71.48 366.14 154.59 446 256 446C357.41 446 440.52 366.14 445.74 266H502C504.652 266 507.196 264.946 509.071 263.071C510.946 261.196 512 258.652 512 256C512 253.348 510.946 250.804 509.071 248.929C507.196 247.054 504.652 246 502 246ZM256 426C162.26 426 86 349.74 86 256C86 162.26 162.26 86 256 86C349.74 86 426 162.26 426 256C426 349.74 349.74 426 256 426Z" fill="#FCFCFC"/>
</g>
<defs>
<clipPath id="clip0_4627_619">
<rect width="512" height="512" fill="white"/>
</clipPath>
</defs>
</svg>
