<svg width="512" height="512" viewBox="0 0 512 512" fill="none" xmlns="http://www.w3.org/2000/svg">
<path d="M454.999 51.3798L451.999 95.5798C451.824 98.1106 450.694 100.48 448.837 102.209C446.981 103.937 444.536 104.896 441.999 104.89C441.769 104.89 441.539 104.89 441.299 104.89L397.109 101.89C395.796 101.8 394.514 101.452 393.335 100.866C392.156 100.281 391.104 99.4687 390.239 98.4765C389.374 97.4843 388.713 96.3314 388.293 95.0837C387.874 93.8361 387.704 92.518 387.794 91.2048C387.884 89.8915 388.232 88.6089 388.818 87.4301C389.403 86.2512 390.216 85.1993 391.208 84.3343C392.2 83.4694 393.353 82.8083 394.6 82.3888C395.848 81.9694 397.166 81.7998 398.479 81.8898L416.669 83.1398C388.231 57.5149 353.538 39.844 316.089 31.9098C313.517 31.341 311.273 29.78 309.845 27.5659C308.416 25.3518 307.92 22.6636 308.463 20.0854C309.005 17.5073 310.544 15.2475 312.743 13.7971C314.943 12.3467 317.626 11.823 320.209 12.3398C362.68 21.3431 401.876 41.7988 433.549 71.4898L434.999 49.9998C435.181 47.3476 436.409 44.8762 438.413 43.1293C439.405 42.2644 440.558 41.6033 441.805 41.1838C443.053 40.7644 444.371 40.5948 445.684 40.6848C446.998 40.7747 448.28 41.1225 449.459 41.7081C450.638 42.2938 451.69 43.1059 452.555 44.0981C453.42 45.0903 454.081 46.2431 454.5 47.4908C454.92 48.7385 455.089 50.0565 454.999 51.3698V51.3798Z" fill="#00D151"/>
<path d="M81.7606 218.94C80.3944 219.608 78.8916 219.951 77.3706 219.94C75.4964 219.944 73.6589 219.421 72.0676 218.431C70.4763 217.44 69.1953 216.023 68.3706 214.34L60.3706 197.94C52.4104 235.382 54.4557 274.26 66.3006 310.66C66.7591 311.92 66.9594 313.26 66.8896 314.599C66.8199 315.938 66.4815 317.25 65.8946 318.455C65.3077 319.661 64.4843 320.736 63.4733 321.618C62.4624 322.499 61.2845 323.167 60.0099 323.584C58.7352 324.001 57.3898 324.157 56.0536 324.043C54.7175 323.929 53.4179 323.547 52.2322 322.921C51.0465 322.294 49.9988 321.436 49.1516 320.396C48.3044 319.357 47.6749 318.158 47.3006 316.87C33.8645 275.588 31.9798 231.416 41.8506 189.14L22.5006 198.62C21.3187 199.197 20.0347 199.536 18.7219 199.617C17.4091 199.698 16.0932 199.519 14.8494 199.092C13.6056 198.664 12.4581 197.996 11.4726 197.125C10.4871 196.254 9.68279 195.197 9.10563 194.015C8.52847 192.833 8.18976 191.549 8.10882 190.236C8.02789 188.923 8.20632 187.608 8.63394 186.364C9.06155 185.12 9.72997 183.972 10.601 182.987C11.4721 182.001 12.5287 181.197 13.7106 180.62L53.5006 161.19C54.6805 160.613 55.9626 160.273 57.2736 160.191C58.5847 160.109 59.899 160.287 61.1416 160.713C62.3841 161.139 63.5305 161.806 64.5152 162.676C65.4999 163.545 66.3037 164.6 66.8806 165.78L86.3506 205.57C87.5137 207.952 87.6836 210.698 86.8229 213.205C85.9623 215.712 84.1414 217.775 81.7606 218.94Z" fill="#00D151"/>
<path d="M447.49 401C418.46 433.274 381.148 456.985 339.6 469.56L357.46 481.56C358.584 482.277 359.552 483.212 360.309 484.31C361.066 485.407 361.596 486.645 361.868 487.951C362.139 489.256 362.147 490.602 361.891 491.911C361.634 493.219 361.119 494.463 360.375 495.569C359.631 496.675 358.673 497.622 357.557 498.352C356.442 499.083 355.192 499.583 353.881 499.823C352.569 500.064 351.223 500.04 349.921 499.752C348.619 499.465 347.388 498.92 346.3 498.15L309.54 473.43C307.34 471.948 305.819 469.654 305.31 467.051C304.802 464.448 305.349 461.75 306.83 459.55L331.55 422.79C333.037 420.59 335.336 419.07 337.943 418.566C340.55 418.061 343.25 418.613 345.45 420.1C347.65 421.586 349.169 423.886 349.674 426.493C350.178 429.099 349.627 431.8 348.14 434L337.94 449.16C374.352 437.334 407.005 416.122 432.61 387.66C433.468 386.622 434.528 385.769 435.724 385.15C436.92 384.532 438.229 384.162 439.572 384.062C440.915 383.962 442.264 384.134 443.539 384.568C444.814 385.002 445.987 385.689 446.99 386.588C447.993 387.487 448.804 388.579 449.374 389.799C449.944 391.019 450.262 392.342 450.309 393.688C450.356 395.033 450.13 396.375 449.646 397.631C449.161 398.888 448.428 400.033 447.49 401Z" fill="#00D151"/>
<path d="M462.94 168.79C448.81 152.15 423.33 132.31 382.22 132.31C325.61 132.31 295.57 166.85 285.05 182.13C282.953 181.625 280.83 181.238 278.69 180.97C278.11 150.66 291.13 131.97 301.75 116.64C313.09 100.32 315.38 83.64 308.55 66.94C300.95 48.43 279.34 37.18 247.71 35.29C223.5 33.83 195.23 38.08 175.71 46.1C154.51 54.79 135 73.34 123.38 95.72C113.38 115.11 104.67 146.21 120.27 184.25C147.27 250.07 208.82 256.36 211.42 256.6C211.73 256.6 212.03 256.6 212.34 256.6H212.66C213.203 258.711 213.871 260.788 214.66 262.82C188.9 284.04 164.66 284.42 145.01 284.72C125.13 285.03 110.21 292.93 100.67 308.19C76.7502 346.44 128.14 407.58 161.24 428.27C176.53 437.84 196.15 443 216 443C221.398 443.004 226.789 442.616 232.13 441.84C253.73 438.68 284.05 427.59 305.85 392.73C336.55 343.62 321.85 298.94 314.62 282.8C316.12 281.243 317.533 279.604 318.85 277.89C351.64 288.33 365.09 309.12 375.92 325.89C386.75 342.66 401.29 351 419.28 351C464.39 351 489 275 489 236C489 213.13 479.26 188 462.94 168.79ZM311.47 240.92C311.472 248.92 309.102 256.741 304.659 263.393C300.217 270.046 293.901 275.232 286.511 278.296C279.121 281.36 270.989 282.163 263.142 280.605C255.296 279.047 248.087 275.198 242.428 269.543C236.77 263.888 232.914 256.683 231.351 248.837C229.787 240.992 230.584 232.859 233.643 225.467C236.701 218.074 241.882 211.755 248.532 207.307C255.181 202.86 263 200.484 271 200.48C281.727 200.485 292.013 204.747 299.6 212.329C307.188 219.911 311.457 230.194 311.47 240.92ZM210.76 236.31C201.471 234.593 192.492 231.495 184.12 227.12C163.36 216.36 148.12 199.38 138.78 176.66C126.08 145.66 133.05 120.55 141.14 104.91C152.29 83.36 170.21 69.96 183.27 64.61C200 57.74 225.41 54 246.51 55.25C269.72 56.64 285.59 63.67 290.04 74.53C292.69 80.98 295.04 91.19 285.32 105.23C274.24 121.23 257.91 144.68 258.71 181.74C245.891 184.426 234.288 191.197 225.643 201.036C216.997 210.875 211.775 223.252 210.76 236.31ZM303.4 315.86C306.76 339 301.87 361.3 288.85 382.13C271.11 410.5 246.61 419.5 229.19 422.05C205.19 425.57 183.84 418.82 171.88 411.34C156.55 401.76 138.67 383.34 127.39 365.43C114.99 345.76 111.39 328.78 117.67 318.82C121.36 312.91 128.25 305.02 145.36 304.75C165.22 304.44 194.72 303.98 225.09 280.17C233.84 290.431 245.774 297.467 258.989 300.155C272.203 302.843 285.937 301.028 298 295C300.566 301.732 302.377 308.728 303.4 315.86ZM419.28 331C412.28 331 401.97 329.34 392.67 315C381.77 298.14 365.51 273 328.38 260C332.606 247.301 332.496 233.559 328.067 220.929C323.638 208.3 315.141 197.499 303.91 190.22C308.166 184.683 312.997 179.611 318.32 175.09C336.16 159.97 357.66 152.3 382.22 152.3C415.69 152.3 436.3 168.3 447.7 181.72C463.4 200.23 469 221.89 469 236C469 254.08 462.83 279 453.65 298.07C443.55 319 431 331 419.28 331Z" fill="#FCFCFC"/>
<path d="M271.019 263.58C283.528 263.58 293.669 253.44 293.669 240.93C293.669 228.421 283.528 218.28 271.019 218.28C258.51 218.28 248.369 228.421 248.369 240.93C248.369 253.44 258.51 263.58 271.019 263.58Z" fill="#FCFCFC"/>
</svg>
