<svg width="64" height="64" viewBox="0 0 64 64" fill="none" xmlns="http://www.w3.org/2000/svg">
<path d="M49.8518 34.7411C52.1784 34.0887 53.7125 32.3043 53.2782 30.7554C52.8439 29.2066 50.6057 28.4798 48.2791 29.1322C45.9525 29.7846 44.4185 31.5691 44.8528 33.1179C45.2871 34.6668 47.5252 35.3935 49.8518 34.7411Z" fill="#FFE836"/>
<mask id="mask0_5611_1051" style="mask-type:luminance" maskUnits="userSpaceOnUse" x="1" y="4" width="24" height="57">
<path d="M24.7 4.16251H1V60.5H24.7V4.16251Z" fill="white"/>
</mask>
<g mask="url(#mask0_5611_1051)">
<path d="M49.9125 21.8625C50.1125 21.6 50.3 21.3625 50.4875 21.125C50.625 20.95 50.8 20.8625 51.0375 20.8625C52.1625 20.875 53.275 21 54.3625 21.3125C54.725 21.4125 55.075 21.5625 55.375 21.8C55.9125 22.225 56.0125 22.6875 55.675 23.2875C55.3875 23.7875 54.9625 24.1375 54.4625 24.4125C54.225 24.55 53.975 24.65 53.725 24.775C53.6125 24.825 53.55 24.8875 53.675 24.9875C55 26.075 55.475 27.5625 55.7375 29.175C55.9625 30.55 56.025 31.9375 55.9625 33.325C55.9 34.6 55.8125 35.875 55.7 37.15C55.6 38.1875 55.5375 39.225 55.4875 40.2625C55.4375 41.225 55.425 42.175 55.4625 43.1375C55.4875 43.925 54.8125 44.725 53.9 44.6875C52.575 44.65 51.2375 44.6875 49.9125 44.6625C49.2875 44.65 48.65 44.675 48.025 44.675C47.175 44.6875 46.4875 44.1125 46.4375 43.2625C46.4 42.7 46.275 42.7625 45.875 42.7125C45.6625 42.6875 45.6 42.6125 45.6 42.4125C45.6125 40.7625 45.6 39.1 45.6 37.45C45.6 37.15 45.6125 37.125 45.925 37.15C46.825 37.2 47.7125 37.175 48.6125 37.175C48.975 37.175 49.3375 37.15 49.7 37.1375C49.975 37.125 50.225 37.0375 50.425 36.8375C50.6875 36.575 50.6625 36.225 50.375 36C50.125 35.8125 49.8375 35.75 49.5375 35.75C48.3625 35.75 47.175 35.75 46 35.75C45.6125 35.75 45.6125 35.75 45.6125 35.3625C45.6125 34.925 45.6125 34.4875 45.6125 34.05C45.6125 33.9625 45.6 33.85 45.7625 33.8875C46.4625 34.075 47.1875 34.025 47.9 34.0375C48.6625 34.0375 49.425 34.0375 50.1875 34C51.325 33.95 52 33.3 52.4125 32.3125C52.55 31.9875 52.6125 31.65 52.6125 31.3C52.6125 30.7125 52.325 30.3875 51.725 30.3375C51.325 30.3 50.9375 30.35 50.55 30.4C49.4375 30.5375 48.325 30.675 47.2125 30.8625C46.7 30.95 46.225 31.125 45.825 31.4625C45.775 31.5 45.725 31.6 45.65 31.55C45.5875 31.5125 45.6125 31.425 45.6125 31.35C45.6125 29.5875 45.6 27.8375 45.6125 26.075C45.6125 25.7125 45.525 25.4125 45.3375 25.125C44.7625 24.2125 44.1875 23.3125 43.6 22.4C43.575 22.35 43.5125 22.3125 43.5625 22.2625C43.6 22.225 43.65 22.2375 43.7 22.2375C44.8125 22.3125 45.925 22.35 47.0375 22.4875C47.0875 22.5 47.15 22.4875 47.2 22.4875C47.35 22.4875 47.3875 22.425 47.325 22.3C46.575 20.475 45.75 18.6875 44.6875 17.025C44.3125 16.45 43.7625 16.225 43.1125 16.125C41.85 15.9375 40.5875 15.7125 39.3125 15.5625C38.3625 15.45 37.4125 15.3625 36.45 15.3C35.0875 15.225 33.7125 15.1625 32.35 15.175C30.8125 15.1875 29.275 15.275 27.7375 15.4C25.7875 15.55 23.85 15.8625 21.925 16.1625C21.325 16.2625 20.85 16.5625 20.5375 17.0875C20.45 17.225 20.375 17.375 20.275 17.5125C19.2625 18.9125 18.6125 20.4875 17.95 22.0625C17.7625 22.5125 17.8 22.55 18.3 22.4875C19.225 22.3625 20.15 22.2875 21.075 22.2625C21.1375 22.2625 21.2375 22.225 21.275 22.2875C21.325 22.3625 21.225 22.425 21.1875 22.4875C20.6875 23.275 20.1875 24.0625 19.6875 24.85C19.4125 25.2875 19.275 25.7625 19.2875 26.275C19.3 27.4375 19.2875 28.6125 19.2875 29.7875C19.2875 30.375 19.275 30.3875 18.6875 30.3875C18.2625 30.3875 18.2125 30.3375 18.2125 29.9C18.2125 28.85 18.1875 27.8 18.2125 26.75C18.2375 26.025 18.0375 25.4 17.6375 24.8C17.175 24.1 16.7375 23.375 16.2875 22.675C16.0875 22.375 15.8875 22.0625 15.525 21.925C15.375 21.8625 15.4125 21.7625 15.4625 21.65C15.725 21 15.975 20.35 16.2625 19.7125C16.8375 18.3875 17.5375 17.125 18.2875 15.8875C19.0625 14.6125 20.175 13.9 21.65 13.6875C22.9625 13.4875 24.2625 13.2375 25.5875 13.1C26.4 13.0125 27.2125 12.9625 28.025 12.8875C29.175 12.7875 30.325 12.7125 31.4875 12.675C32.075 12.65 32.65 12.6375 33.2375 12.6875C33.3125 12.6875 33.375 12.7 33.45 12.7C35.35 12.7 37.2375 12.8 39.1125 13.025C40.7125 13.2125 42.3 13.475 43.8875 13.7375C45.275 13.9625 46.2875 14.7375 47.0125 15.9125C47.9 17.35 48.6625 18.85 49.325 20.4125C49.5125 20.8625 49.7 21.35 49.9125 21.8625Z" fill="#282828"/>
<path d="M12.75 39.8875C12.75 35.2375 12.75 30.5875 12.75 25.9375C12.75 25.7125 12.8 25.5125 12.925 25.325C13.5 24.425 14.075 23.5125 14.65 22.6C14.6875 22.5375 14.725 22.4875 14.775 22.425C15.075 22.0375 15.4 22.0375 15.6875 22.4375C15.875 22.7 16.05 22.9875 16.225 23.2625C16.6875 23.9875 17.1375 24.725 17.6125 25.45C17.775 25.7 17.85 25.95 17.85 26.25C17.8375 27.725 17.85 29.2 17.8375 30.675C17.8375 30.9 17.9 30.9625 18.125 30.95C18.5375 30.9375 18.9375 30.9375 19.35 30.95C19.5875 30.9625 19.6625 30.9 19.6625 30.65C19.65 29.075 19.6625 27.5125 19.65 25.9375C19.65 25.7 19.7125 25.5 19.8375 25.3C20.4125 24.4 20.975 23.5 21.55 22.5875C21.6 22.5 21.6625 22.4125 21.725 22.3375C21.975 22.05 22.2875 22.0375 22.525 22.3375C22.7125 22.575 22.8625 22.85 23.0375 23.1C23.5375 23.8875 24.0375 24.675 24.5375 25.4625C24.6875 25.6875 24.75 25.925 24.75 26.1875C24.7375 27.675 24.75 29.15 24.7375 30.6375C24.7375 30.85 24.7875 30.925 25.0125 30.925C25.425 30.9125 25.825 30.9125 26.2375 30.925C26.45 30.9375 26.5 30.8625 26.5 30.65C26.4875 29.0625 26.5 27.4625 26.4875 25.875C26.4875 25.675 26.5375 25.5 26.65 25.325C27.2375 24.4 27.8125 23.475 28.4 22.5625C28.4625 22.4625 28.5375 22.35 28.625 22.2625C28.825 22.0625 29.1 22.0625 29.3 22.2625C29.3875 22.35 29.475 22.4625 29.5375 22.575C30.1375 23.525 30.7375 24.4875 31.35 25.4375C31.5 25.675 31.575 25.925 31.575 26.2125C31.5625 27.675 31.575 29.15 31.575 30.6125C31.575 30.9125 31.575 30.9125 31.8875 30.9125C32.3 30.9125 32.7 30.9 33.1125 30.9125C33.3125 30.925 33.3875 30.85 33.3875 30.65C33.375 29.0625 33.3875 27.4625 33.375 25.875C33.375 25.675 33.425 25.5 33.5375 25.325C34.125 24.4 34.7 23.475 35.2875 22.5625C35.3375 22.4875 35.3875 22.4 35.45 22.3375C35.7 22.0375 36 22.0375 36.25 22.325C36.325 22.4125 36.3875 22.5 36.4375 22.5875C37.0375 23.525 37.625 24.475 38.225 25.4125C38.3875 25.6625 38.4625 25.925 38.4625 26.225C38.45 27.6875 38.4625 29.1625 38.45 30.625C38.45 30.85 38.5125 30.925 38.7375 30.9125C39.1125 30.9 39.4875 30.8875 39.875 30.9125C40.125 30.925 40.175 30.8375 40.175 30.6C40.1625 29.0625 40.175 27.525 40.1625 25.9875C40.1625 25.7875 40.2125 25.6125 40.325 25.4375C40.9375 24.4875 41.5375 23.525 42.1375 22.575C42.1875 22.5 42.225 22.425 42.2875 22.3625C42.575 22.0125 42.9 22 43.1625 22.375C43.475 22.8125 43.75 23.275 44.025 23.725C44.4 24.3125 44.775 24.9125 45.15 25.5C45.25 25.6625 45.3125 25.8375 45.3125 26.025C45.3125 35.3 45.3125 44.575 45.3125 53.8375C45.3125 54.2125 45.1625 54.3875 44.775 54.3875C43.425 54.3875 42.0625 54.3875 40.7125 54.3875C40.3125 54.3875 40.1875 54.25 40.1875 53.85C40.1875 52.2125 40.1875 50.5875 40.1875 48.95C40.1875 48.7125 40.125 48.6375 39.8875 48.65C39.5125 48.675 39.1375 48.6625 38.75 48.65C38.5125 48.6375 38.4625 48.725 38.4625 48.95C38.475 50.5375 38.4625 52.1375 38.4625 53.725C38.4625 54.2375 38.3 54.3875 37.7875 54.4C36.5 54.4 35.2125 54.4 33.9125 54.4C33.8375 54.4 33.775 54.4 33.7 54.3875C33.4875 54.3625 33.375 54.2625 33.375 54.0125C33.3875 52.325 33.375 50.6375 33.3875 48.95C33.3875 48.7125 33.325 48.6375 33.0875 48.65C32.675 48.675 32.25 48.6625 31.8375 48.65C31.625 48.6375 31.575 48.725 31.575 48.925C31.5875 50.525 31.575 52.125 31.575 53.725C31.575 54.2375 31.425 54.4 30.9 54.4C29.6125 54.4 28.325 54.4 27.025 54.4C26.95 54.4 26.8875 54.4 26.8125 54.3875C26.6 54.3625 26.4875 54.2625 26.4875 54.0125C26.5 52.325 26.4875 50.6375 26.5 48.95C26.5 48.7125 26.4375 48.6375 26.2 48.65C25.8 48.675 25.4 48.6625 25 48.65C24.7875 48.6375 24.7375 48.7125 24.7375 48.925C24.75 50.525 24.7375 52.125 24.7375 53.725C24.7375 54.2375 24.5875 54.4 24.0625 54.4C22.775 54.4 21.4875 54.4 20.1875 54.4C20.1375 54.4 20.075 54.4 20.025 54.4C19.7375 54.375 19.65 54.2875 19.65 54C19.65 52.325 19.65 50.6375 19.65 48.9625C19.65 48.725 19.6 48.6375 19.35 48.65C18.9375 48.675 18.5125 48.6625 18.1 48.65C17.8875 48.6375 17.8375 48.7125 17.8375 48.925C17.85 50.525 17.8375 52.125 17.8375 53.725C17.8375 54.2375 17.6875 54.4 17.1625 54.4C15.875 54.4 14.5875 54.4 13.2875 54.4C13.2375 54.4 13.1875 54.4 13.15 54.4C12.8375 54.375 12.75 54.3 12.75 53.975C12.75 49.6625 12.75 45.35 12.75 41.0375C12.75 40.6625 12.75 40.275 12.75 39.8875ZM44.425 39.85C44.425 35.45 44.425 31.05 44.425 26.65C44.425 26.3875 44.375 26.1375 44.2375 25.9125C43.7875 25.1875 43.3375 24.4625 42.875 23.7375C42.75 23.55 42.7125 23.55 42.5875 23.75C42.1375 24.4625 41.6875 25.175 41.25 25.8875C41.1125 26.125 41.0125 26.375 41.0125 26.6625C41.0125 35.4625 41.0125 44.2625 41.0125 53.0625C41.0125 53.4125 41.05 53.45 41.4125 53.4625C42.2875 53.4625 43.1625 53.4625 44.0375 53.4625C44.425 53.4625 44.4375 53.45 44.4375 53.0625C44.425 48.65 44.425 44.25 44.425 39.85ZM13.5375 39.875C13.5375 44.2625 13.5375 48.6625 13.5375 53.05C13.5375 53.4125 13.5625 53.45 13.9 53.45C14.7875 53.45 15.675 53.45 16.5625 53.45C16.875 53.45 16.95 53.375 16.95 53.0625C16.95 44.2875 16.95 35.5125 16.95 26.7375C16.95 26.45 16.8875 26.1625 16.7375 25.9125C16.2875 25.2 15.8375 24.475 15.3875 23.7625C15.2625 23.5625 15.2125 23.5625 15.075 23.775C14.6875 24.3875 14.3125 25.025 13.9 25.625C13.6375 26.0125 13.5375 26.4125 13.5375 26.8625C13.5375 31.1875 13.5375 35.525 13.5375 39.875ZM23.8375 39.8875C23.8375 35.525 23.8375 31.1625 23.8375 26.8C23.8375 26.475 23.7875 26.1625 23.6125 25.875C23.175 25.1625 22.725 24.45 22.275 23.7375C22.1375 23.525 22.0875 23.525 21.95 23.7375C21.5625 24.35 21.1875 24.9875 20.775 25.5875C20.5125 25.975 20.425 26.375 20.425 26.825C20.425 31.6375 20.425 36.4625 20.425 41.275C20.425 45.2 20.425 49.1125 20.425 53.0375C20.425 53.4 20.45 53.425 20.8125 53.425C21.6625 53.425 22.5125 53.425 23.3625 53.425C23.8 53.425 23.8375 53.3875 23.8375 52.95C23.8375 48.6125 23.8375 44.25 23.8375 39.8875ZM27.275 39.875C27.275 44.2625 27.275 48.6625 27.275 53.05C27.275 53.4125 27.3 53.4375 27.6625 53.45C28.525 53.45 29.3875 53.45 30.2625 53.45C30.625 53.45 30.6875 53.3875 30.6875 53.025C30.6875 52.5 30.6875 51.975 30.6875 51.45C30.6875 43.2375 30.6875 35.025 30.6875 26.8125C30.6875 26.475 30.625 26.1375 30.4375 25.85C30 25.1625 29.575 24.4625 29.1375 23.775C28.9875 23.525 28.9375 23.525 28.7875 23.775C28.4 24.3875 28.0375 25.0125 27.625 25.6C27.3625 25.9875 27.2625 26.3875 27.2625 26.8375C27.275 31.1875 27.275 35.5375 27.275 39.875ZM34.1625 39.85C34.1625 44.25 34.1625 48.65 34.1625 53.05C34.1625 53.4125 34.1875 53.4375 34.55 53.45C35.4125 53.45 36.275 53.45 37.15 53.45C37.5125 53.45 37.575 53.3875 37.575 53.025C37.575 52.45 37.575 51.875 37.575 51.3125C37.575 43.15 37.575 34.9875 37.575 26.8125C37.575 26.475 37.5125 26.1375 37.325 25.85C36.8875 25.1625 36.4625 24.4625 36.025 23.775C35.875 23.525 35.825 23.525 35.675 23.775C35.2875 24.3875 34.925 25.0125 34.5125 25.6C34.25 25.9875 34.15 26.3875 34.15 26.8375C34.1625 31.175 34.1625 35.5125 34.1625 39.85ZM17.825 39.775C17.825 41.3875 17.825 42.9875 17.825 44.6C17.825 44.8 17.875 44.875 18.0875 44.875C18.525 44.8625 18.9625 44.8625 19.4125 44.875C19.5875 44.875 19.6375 44.8125 19.6375 44.6375C19.6375 41.4125 19.6375 38.1875 19.6375 34.9625C19.6375 34.7875 19.5875 34.725 19.4125 34.725C18.975 34.7375 18.55 34.7375 18.1125 34.725C17.875 34.7125 17.825 34.8 17.825 35.025C17.8375 36.6125 17.825 38.2 17.825 39.775ZM33.375 39.8C33.375 38.2 33.375 36.6 33.375 35C33.375 34.8 33.325 34.725 33.1125 34.725C32.675 34.7375 32.2375 34.7375 31.7875 34.725C31.6125 34.725 31.5625 34.7875 31.5625 34.9625C31.5625 38.1875 31.5625 41.4125 31.5625 44.6375C31.5625 44.8125 31.6125 44.875 31.7875 44.875C32.225 44.8625 32.65 44.8625 33.0875 44.875C33.325 44.8875 33.375 44.8 33.375 44.575C33.375 42.9875 33.375 41.4 33.375 39.8ZM26.475 39.825C26.475 38.2125 26.475 36.6125 26.475 35C26.475 34.8 26.425 34.725 26.2125 34.725C25.7875 34.7375 25.3625 34.7375 24.9375 34.725C24.7625 34.725 24.7125 34.7875 24.7125 34.9625C24.7125 38.1875 24.7125 41.4125 24.7125 44.6375C24.7125 44.8125 24.7625 44.875 24.9375 44.875C25.35 44.8625 25.775 44.8625 26.1875 44.875C26.425 44.8875 26.475 44.8 26.475 44.575C26.475 43 26.475 41.4125 26.475 39.825ZM40.175 39.825C40.175 38.2125 40.175 36.6125 40.175 35C40.175 34.8 40.125 34.725 39.9125 34.725C39.525 34.7375 39.1375 34.75 38.7625 34.725C38.5125 34.7125 38.4625 34.8 38.4625 35.0375C38.475 36.7125 38.4625 38.375 38.4625 40.05C38.4625 41.575 38.4625 43.1 38.4625 44.6125C38.4625 44.8 38.5125 44.875 38.7125 44.875C39.1 44.8625 39.5 44.8625 39.8875 44.875C40.125 44.8875 40.175 44.8 40.175 44.575C40.1625 43 40.175 41.4125 40.175 39.825ZM33.375 32.8625C33.375 32.6125 33.375 32.3625 33.375 32.1125C33.375 31.975 33.325 31.9125 33.175 31.925C32.7 31.925 32.225 31.925 31.7625 31.925C31.625 31.925 31.5625 31.9625 31.5625 32.1125C31.5625 32.6125 31.5625 33.1 31.5625 33.6C31.5625 33.725 31.6125 33.7875 31.75 33.775C32.225 33.775 32.7125 33.775 33.1875 33.775C33.3375 33.775 33.375 33.7125 33.375 33.575C33.3625 33.325 33.375 33.0875 33.375 32.8625ZM19.6375 46.8C19.6375 46.55 19.6375 46.3 19.6375 46.05C19.6375 45.9125 19.5875 45.85 19.45 45.85C18.975 45.85 18.4875 45.85 18.0125 45.85C17.875 45.85 17.8375 45.9125 17.8375 46.0375C17.8375 46.5375 17.8375 47.025 17.8375 47.525C17.8375 47.65 17.8875 47.7125 18.0125 47.7125C18.4875 47.7125 18.975 47.7125 19.45 47.7125C19.6 47.7125 19.65 47.65 19.6375 47.5125C19.6375 47.2625 19.6375 47.025 19.6375 46.8ZM33.375 46.775C33.375 46.5375 33.375 46.2875 33.375 46.05C33.375 45.9125 33.3375 45.85 33.1875 45.85C32.7125 45.85 32.225 45.85 31.75 45.85C31.6 45.85 31.5625 45.9125 31.5625 46.05C31.5625 46.5375 31.5625 47.025 31.5625 47.5125C31.5625 47.65 31.6125 47.7 31.7625 47.7C32.2375 47.7 32.7125 47.7 33.175 47.7C33.3375 47.7 33.375 47.6375 33.375 47.4875C33.3625 47.25 33.375 47.0125 33.375 46.775ZM19.6375 32.8625C19.6375 32.6125 19.6375 32.3625 19.6375 32.1125C19.6375 31.975 19.5875 31.9125 19.45 31.9125C18.975 31.9125 18.5 31.9125 18.0375 31.9125C17.9 31.9125 17.8375 31.95 17.8375 32.1C17.8375 32.6 17.8375 33.0875 17.8375 33.5875C17.8375 33.7125 17.8875 33.775 18.0125 33.775C18.4875 33.775 18.975 33.775 19.45 33.775C19.6 33.775 19.6375 33.7125 19.6375 33.575C19.6375 33.325 19.6375 33.1 19.6375 32.8625ZM24.725 32.8375C24.725 33.0875 24.725 33.3375 24.725 33.5875C24.725 33.7 24.775 33.7625 24.8875 33.7625C25.3625 33.7625 25.8375 33.7625 26.3 33.7625C26.4375 33.7625 26.475 33.7125 26.475 33.575C26.475 33.075 26.475 32.5875 26.475 32.0875C26.475 31.9625 26.425 31.9 26.3 31.9C25.8375 31.9 25.375 31.9 24.9125 31.9C24.7625 31.9 24.7125 31.9625 24.725 32.1C24.725 32.35 24.725 32.6 24.725 32.8375ZM26.475 46.7875C26.475 46.55 26.475 46.3 26.475 46.0625C26.475 45.9125 26.4375 45.85 26.275 45.85C25.825 45.8625 25.3625 45.85 24.9 45.85C24.7625 45.85 24.7 45.9 24.7125 46.05C24.7125 46.5375 24.7125 47.025 24.7125 47.5125C24.7125 47.65 24.75 47.7125 24.9 47.7125C25.3625 47.7125 25.825 47.7125 26.2875 47.7125C26.425 47.7125 26.475 47.6625 26.4625 47.525C26.475 47.275 26.475 47.025 26.475 46.7875ZM40.175 32.8375C40.175 32.5875 40.175 32.3375 40.175 32.0875C40.175 31.975 40.125 31.9125 40.0125 31.9125C39.55 31.9125 39.1 31.9125 38.6375 31.9125C38.5 31.9125 38.4625 31.975 38.4625 32.1C38.4625 32.6 38.4625 33.0875 38.4625 33.5875C38.4625 33.7125 38.5125 33.775 38.6375 33.775C39.0875 33.775 39.5375 33.775 39.9875 33.775C40.1375 33.775 40.1875 33.7125 40.175 33.575C40.1625 33.325 40.175 33.075 40.175 32.8375ZM40.175 46.8C40.175 46.55 40.175 46.3 40.175 46.05C40.175 45.9125 40.125 45.85 39.9875 45.85C39.5375 45.85 39.0875 45.85 38.6375 45.85C38.5 45.85 38.4625 45.9125 38.4625 46.0375C38.4625 46.5375 38.4625 47.025 38.4625 47.525C38.4625 47.65 38.5125 47.7125 38.6375 47.7125C39.0875 47.7125 39.5375 47.7125 39.9875 47.7125C40.1375 47.7125 40.1875 47.65 40.175 47.5125C40.1625 47.2625 40.175 47.025 40.175 46.8Z" fill="#282828"/>
<path d="M11.6627 44.65C11.5127 44.65 11.3627 44.6625 11.2127 44.65C10.3502 44.6 9.78766 44 9.78766 43.1C9.77516 42.1875 9.78766 41.2625 9.77516 40.35C9.76266 39.3125 9.63766 38.275 9.55016 37.2375C9.50016 36.6 9.45016 35.975 9.40016 35.3375C9.32516 34.35 9.23766 33.3625 9.26266 32.375C9.30016 30.925 9.33766 29.475 9.72516 28.0625C10.0502 26.875 10.5752 25.8 11.5502 25C11.7377 24.8375 11.5752 24.8 11.4627 24.75C10.9002 24.5125 10.3752 24.2125 9.95016 23.775C9.70016 23.5125 9.52516 23.2125 9.40016 22.875C9.32516 22.65 9.35016 22.45 9.47516 22.25C9.72516 21.85 10.1002 21.6 10.5377 21.4375C11.3752 21.125 12.2502 21 13.1377 20.925C13.4502 20.9 13.7627 20.8875 14.0752 20.8625C14.3002 20.85 14.4877 20.925 14.6377 21.1C14.7752 21.2875 14.9252 21.475 15.0752 21.6625C15.1502 21.7625 15.1752 21.8375 15.0127 21.875C14.7002 21.95 14.4877 22.15 14.3252 22.4125C13.7877 23.2625 13.2502 24.1125 12.7127 24.9625C12.4502 25.375 12.3877 25.8375 12.3877 26.3125C12.3877 30.175 12.3877 34.05 12.3877 37.9125C12.3877 40.025 12.3877 42.1375 12.3877 44.2375C12.3877 44.6625 12.3877 44.6625 11.9752 44.6625C11.8752 44.65 11.7627 44.65 11.6627 44.65Z" fill="#282828"/>
<path d="M25.0752 28.0625C25.0752 27.525 25.0627 26.975 25.0752 26.4375C25.0877 25.95 24.9502 25.4875 24.6877 25.075C24.1002 24.15 23.5502 23.2125 22.9252 22.3125C22.9002 22.275 22.8377 22.225 22.8627 22.175C22.8877 22.1125 22.9627 22.1375 23.0127 22.1375C23.8252 22.1125 24.6502 22.075 25.4627 22.05C26.3127 22.025 27.1752 22.0125 28.0377 22C28.1252 22 28.2627 21.95 28.3002 22.0375C28.3502 22.1375 28.2127 22.1875 28.1627 22.25C27.8127 22.7125 27.5252 23.225 27.2127 23.7125C26.9752 24.075 26.7627 24.45 26.5252 24.8125C26.2377 25.2625 26.1002 25.75 26.1127 26.2875C26.1252 27.45 26.1127 28.6125 26.1127 29.7625C26.1127 30.35 26.1002 30.3625 25.5127 30.3625C25.1502 30.3625 25.0877 30.3125 25.0877 29.95C25.0752 29.3125 25.0877 28.6875 25.0752 28.0625Z" fill="#282828"/>
<path d="M18.1875 39.875C18.1875 39.0625 18.2 38.2625 18.1875 37.45C18.1875 37.2125 18.2625 37.125 18.5 37.15C18.6875 37.1625 18.875 37.1625 19.0625 37.15C19.2125 37.1375 19.275 37.2125 19.275 37.3625C19.275 37.4125 19.275 37.4625 19.275 37.5C19.275 39.0875 19.275 40.6625 19.275 42.25C19.275 42.6 19.275 42.6 18.925 42.6C18.1875 42.6 18.1875 42.6 18.1875 41.875C18.1875 41.2125 18.1875 40.5375 18.1875 39.875Z" fill="#282828"/>
<path d="M18.7125 35.7125C18.6125 35.7125 18.525 35.7125 18.425 35.7125C18.3 35.7125 18.175 35.7 18.2 35.525C18.2125 35.3875 18.2375 35.2625 18.425 35.2625C18.625 35.2625 18.8125 35.275 19.0125 35.2625C19.2125 35.25 19.25 35.3875 19.25 35.5375C19.2625 35.7125 19.1375 35.7125 19.0125 35.7125C18.925 35.7125 18.8125 35.7125 18.7125 35.7125Z" fill="#282828"/>
</g>
<mask id="mask1_5611_1051" style="mask-type:luminance" maskUnits="userSpaceOnUse" x="16" y="3" width="42" height="45">
<path d="M35.8876 8.87501L32.0501 3.10001L16.8501 13.2L25.1251 25.65V47.25H57.1251V8.87501H35.8876Z" fill="white"/>
</mask>
<g mask="url(#mask1_5611_1051)">
<mask id="mask2_5611_1051" style="mask-type:luminance" maskUnits="userSpaceOnUse" x="24" y="11" width="37" height="36">
<path d="M24.5936 46.7441L60.5811 46.7441L60.5811 11.4316L24.5936 11.4316L24.5936 46.7441Z" fill="white"/>
</mask>
<g mask="url(#mask2_5611_1051)">
<path d="M51.125 44.8C50.125 44.8 49.125 44.8 48.1125 44.8C47.25 44.8 46.65 44.25 46.5875 43.4C46.55 42.9 46.55 42.8875 46.05 42.8375C45.3625 42.775 44.6625 42.725 43.975 42.7C42.475 42.6375 40.975 42.6 39.4625 42.5625C35.4 42.45 31.3375 42.475 27.275 42.5125C24.6125 42.5375 21.95 42.625 19.2875 42.85C19.025 42.875 18.9125 42.9625 18.925 43.2375C18.9625 44.1625 18.175 44.8375 17.3 44.8125C15.3375 44.7625 13.375 44.7625 11.4125 44.8125C10.55 44.8375 9.87497 44.025 9.88747 43.3C9.91247 41.9625 9.94997 40.6125 9.83747 39.275C9.71247 37.775 9.58747 36.275 9.47497 34.7875C9.37497 33.3125 9.37497 31.8375 9.49997 30.375C9.57497 29.5625 9.64997 28.7625 9.89997 27.9875C10.2375 26.875 10.725 25.8375 11.6625 25.0875C11.8625 24.9375 11.775 24.8625 11.5875 24.7875C10.9375 24.5 10.3 24.1875 9.87497 23.6C9.26247 22.7625 9.31247 22.225 10.3125 21.6625C11.0375 21.25 11.8625 21.15 12.6875 21.05C13.1625 20.9875 13.6375 20.975 14.125 20.925C14.4125 20.9 14.625 20.9875 14.7875 21.225C14.9375 21.425 15.1 21.625 15.2625 21.8375C15.4 22.025 15.475 22.0125 15.5625 21.8C15.8625 20.9625 16.2125 20.15 16.5875 19.35C17.275 17.9 17.9625 16.4625 18.95 15.1875C19.5125 14.475 20.2375 14.0125 21.1375 13.8375C23.35 13.3875 25.5875 13.075 27.85 12.9125C29.5125 12.7875 31.1625 12.675 32.825 12.675C36.5875 12.675 40.3125 13.05 44.0125 13.7375C45.35 13.9875 46.3375 14.7 47.05 15.825C48.2 17.65 49.125 19.6 49.9125 21.6125C49.9375 21.6875 49.9625 21.75 50 21.825C50.075 22 50.15 22 50.2625 21.85C50.4375 21.625 50.6125 21.4 50.7875 21.1625C50.9 21.0125 51.0375 20.925 51.2125 20.925C52.525 20.9875 53.8375 21.075 55.075 21.5875C55.1375 21.6125 55.1875 21.6375 55.25 21.6625C56.1 22.1125 56.2625 22.75 55.7 23.525C55.275 24.125 54.65 24.475 53.9875 24.7625C53.6625 24.9 53.6625 24.9 53.9125 25.125C55.0625 26.1125 55.5625 27.425 55.8125 28.8625C56.15 30.75 56.15 32.65 56.0375 34.5625C55.875 37.45 55.475 40.3125 55.6125 43.2125C55.6375 43.7875 55.4 44.25 54.9375 44.575C54.725 44.725 54.5125 44.8 54.25 44.7875C53.2125 44.7875 52.175 44.8 51.125 44.8ZM32.4 15.125C31.925 15.175 31.1 15.125 30.275 15.1625C29.4875 15.2 28.7 15.25 27.9125 15.3125C26.0125 15.45 24.125 15.7625 22.2375 16.05C21.5 16.1625 20.9125 16.425 20.5 17.0875C19.5 18.725 18.6625 20.45 17.95 22.2375C17.8375 22.525 17.8625 22.55 18.175 22.525C19.3125 22.3875 20.4625 22.3 21.6125 22.25C23.5125 22.1625 25.425 22.075 27.325 22.0625C30.8125 22.0375 34.3 22 37.7875 22.0875C39.625 22.1375 41.475 22.15 43.3125 22.225C44.6375 22.2875 45.95 22.375 47.2625 22.5C47.6 22.5375 47.6375 22.5 47.5125 22.1875C46.9125 20.625 46.15 19.1375 45.3625 17.6625C44.825 16.675 44.1125 16.15 42.9625 15.975C39.5875 15.4625 36.1875 15.125 32.4 15.125ZM17.1375 34.0875C17.1375 34.075 17.1375 34.075 17.1375 34.0875C17.825 34.075 18.525 34.1125 19.2125 34.075C20.15 34.025 20.5625 33.3875 20.25 32.5C19.9375 31.6125 19.2875 31.1 18.375 30.9375C16.9125 30.675 15.45 30.475 13.975 30.35C13 30.2625 12.5 30.9125 12.7625 31.8625C12.8375 32.1375 12.9625 32.4 13.0875 32.6625C13.5125 33.6 14.2375 34.0625 15.25 34.075C15.875 34.0875 16.5125 34.0875 17.1375 34.0875ZM48.4 34.1C48.4 34.0875 48.4 34.0875 48.4 34.1C48.95 34.1 49.5125 34.1 50.0625 34.1C50.25 34.1 50.45 34.0875 50.6375 34.0625C51.9875 33.9125 52.65 32.6375 52.8 31.575C52.9125 30.8125 52.5625 30.4375 51.8 30.3625C51.65 30.35 51.5 30.3625 51.35 30.375C50.875 30.425 50.4 30.475 49.925 30.5375C48.95 30.6875 47.95 30.7375 46.9875 30.975C46.1375 31.1875 45.55 31.7125 45.275 32.55C45.0125 33.325 45.375 33.925 46.175 34.0625C46.3625 34.1 46.5625 34.1 46.75 34.1C47.2875 34.1 47.85 34.1 48.4 34.1ZM47.5625 35.825C46.825 35.825 46.0875 35.825 45.3625 35.825C45.1375 35.825 44.9125 35.8625 44.725 35.9875C44.275 36.2625 44.275 36.8375 44.7375 37.1C44.9375 37.2125 45.15 37.275 45.375 37.275C46.8375 37.2875 48.3 37.2875 49.75 37.275C50.05 37.275 50.3375 37.2 50.575 36.9875C50.9125 36.6875 50.8875 36.3 50.5125 36.05C50.3 35.9 50.05 35.8375 49.7875 35.825C49.05 35.825 48.3 35.825 47.5625 35.825ZM17.95 35.825C17.2625 35.825 16.5625 35.825 15.875 35.825C15.65 35.825 15.425 35.85 15.225 35.95C14.975 36.0625 14.8125 36.25 14.8 36.5375C14.7875 36.8375 14.9625 37.0125 15.2 37.1375C15.4 37.2375 15.625 37.2875 15.85 37.2875C17.275 37.2875 18.7 37.2875 20.125 37.2875C20.425 37.2875 20.6875 37.2 20.9375 37.025C21.3125 36.7625 21.3125 36.3375 20.9375 36.075C20.6625 35.8875 20.35 35.825 20.025 35.825C19.3375 35.8125 18.65 35.825 17.95 35.825Z" fill="#282828"/>
</g>
</g>
</svg>
