<svg width="64" height="65" viewBox="0 0 64 65" fill="none" xmlns="http://www.w3.org/2000/svg">
<path d="M55.4436 34.8983C58.6191 34.0079 60.7128 31.5724 60.12 29.4584C59.5273 27.3445 56.4725 26.3526 53.297 27.243C50.1216 28.1334 48.0279 30.5689 48.6206 32.6829C49.2134 34.7968 52.2682 35.7887 55.4436 34.8983Z" fill="#FFE836"/>
<mask id="mask0_5611_1051" style="mask-type:luminance" maskUnits="userSpaceOnUse" x="0" y="5" width="22" height="57">
<path d="M21.1149 5.45148H0V61.7455H21.1149V5.45148Z" fill="white"/>
</mask>
<g mask="url(#mask0_5611_1051)">
<path d="M55.526 17.3209C55.799 16.9627 56.0549 16.6385 56.3108 16.3144C56.4984 16.0755 56.7373 15.9561 57.0614 15.9561C58.5969 15.9732 60.1153 16.1438 61.5996 16.5703C62.0943 16.7068 62.572 16.9115 62.9815 17.2356C63.7151 17.8157 63.8516 18.4469 63.3909 19.2659C62.9985 19.9483 62.4185 20.426 61.736 20.8013C61.4119 20.989 61.0707 21.1255 60.7295 21.2961C60.5759 21.3643 60.4906 21.4496 60.6612 21.5861C62.4697 23.0704 63.118 25.1006 63.4762 27.3014C63.7833 29.1781 63.8686 31.0718 63.7833 32.9655C63.698 34.7057 63.5786 36.4459 63.425 38.1861C63.2886 39.6021 63.2033 41.0181 63.135 42.4342C63.0668 43.7478 63.0497 45.0445 63.1009 46.3581C63.135 47.4329 62.2137 48.5248 60.9683 48.4736C59.1599 48.4225 57.3344 48.4736 55.526 48.4395C54.6729 48.4225 53.8029 48.4566 52.9498 48.4566C51.7897 48.4736 50.8514 47.6889 50.7831 46.5287C50.7319 45.761 50.5613 45.8463 50.0154 45.7781C49.7254 45.7439 49.6401 45.6416 49.6401 45.3686C49.6571 43.1166 49.6401 40.8475 49.6401 38.5955C49.6401 38.1861 49.6571 38.152 50.0836 38.1861C51.312 38.2543 52.5233 38.2202 53.7517 38.2202C54.2464 38.2202 54.7412 38.1861 55.236 38.169C55.6113 38.152 55.9525 38.0325 56.2255 37.7596C56.5837 37.4013 56.5496 36.9236 56.1572 36.6165C55.816 36.3606 55.4236 36.2753 55.0142 36.2753C53.4105 36.2753 51.7897 36.2753 50.186 36.2753C49.6571 36.2753 49.6571 36.2753 49.6571 35.7464C49.6571 35.1493 49.6571 34.5522 49.6571 33.955C49.6571 33.8356 49.6401 33.6821 49.8619 33.7333C50.8172 33.9892 51.8068 33.9209 52.7792 33.938C53.8199 33.938 54.8606 33.938 55.9013 33.8868C57.4538 33.8186 58.3751 32.9314 58.9381 31.5836C59.1258 31.14 59.2111 30.6794 59.2111 30.2017C59.2111 29.3999 58.8187 28.9563 57.9998 28.888C57.4538 28.8369 56.9249 28.9051 56.3961 28.9733C54.8777 29.161 53.3593 29.3487 51.8409 29.6046C51.1414 29.724 50.4931 29.9629 49.9472 30.4235C49.8789 30.4747 49.8107 30.6112 49.7083 30.5429C49.623 30.4917 49.6571 30.3723 49.6571 30.27C49.6571 27.8644 49.6401 25.4759 49.6571 23.0704C49.6571 22.5756 49.5377 22.1662 49.2818 21.7738C48.497 20.5283 47.7122 19.3 46.9104 18.0545C46.8762 17.9863 46.7909 17.9351 46.8592 17.8669C46.9104 17.8157 46.9786 17.8328 47.0468 17.8328C48.5652 17.9351 50.0836 17.9863 51.602 18.174C51.6703 18.191 51.7556 18.174 51.8238 18.174C52.0285 18.174 52.0797 18.0887 51.9944 17.9181C50.9708 15.4272 49.8448 12.9875 48.3946 10.7185C47.8828 9.93369 47.1321 9.6266 46.245 9.49011C44.5219 9.2342 42.7988 8.92711 41.0586 8.72239C39.762 8.56884 38.4654 8.44942 37.1517 8.36411C35.2921 8.26175 33.4154 8.17645 31.5558 8.19351C29.4573 8.21057 27.3589 8.32999 25.2604 8.5006C22.599 8.70533 19.9546 9.13184 17.3272 9.5413C16.5083 9.67778 15.86 10.0872 15.4335 10.8038C15.3141 10.9914 15.2117 11.1962 15.0752 11.3838C13.6933 13.2946 12.8062 15.4443 11.902 17.5939C11.6461 18.2081 11.6972 18.2593 12.3797 18.174C13.6421 18.0034 14.9046 17.901 16.1671 17.8669C16.2524 17.8669 16.3889 17.8157 16.4401 17.901C16.5083 18.0034 16.3718 18.0887 16.3207 18.174C15.6382 19.2488 14.9558 20.3236 14.2734 21.3984C13.8981 21.9956 13.7104 22.6439 13.7274 23.3433C13.7445 24.93 13.7274 26.5337 13.7274 28.1374C13.7274 28.9392 13.7104 28.9563 12.9085 28.9563C12.3285 28.9563 12.2602 28.888 12.2602 28.2909C12.2602 26.8578 12.2261 25.4247 12.2602 23.9916C12.2944 23.0021 12.0214 22.1491 11.4754 21.3302C10.8442 20.3748 10.2471 19.3853 9.6329 18.4299C9.35993 18.0204 9.08696 17.5939 8.5922 17.4062C8.38747 17.3209 8.43865 17.1845 8.5069 17.0309C8.86517 16.1438 9.20638 15.2566 9.59878 14.3865C10.3836 12.5781 11.339 10.855 12.3626 9.16596C13.4204 7.42578 14.9388 6.45332 16.9519 6.16329C18.7433 5.89032 20.5176 5.54911 22.326 5.36144C23.4349 5.24202 24.5439 5.17378 25.6528 5.07141C27.2224 4.93493 28.792 4.83256 30.3786 4.78138C31.1805 4.74726 31.9653 4.7302 32.7671 4.79844C32.8695 4.79844 32.9548 4.8155 33.0571 4.8155C35.6504 4.8155 38.2265 4.95199 40.7856 5.25908C42.9694 5.51499 45.1361 5.87326 47.3028 6.23154C49.1965 6.53863 50.5784 7.59639 51.5679 9.20008C52.7792 11.1621 53.8199 13.2093 54.7241 15.3419C54.98 15.9561 55.2359 16.6215 55.526 17.3209Z" fill="#282828"/>
<path d="M4.80518 41.9224C4.80518 35.5758 4.80518 29.2293 4.80518 22.8827C4.80518 22.5756 4.87342 22.3027 5.04402 22.0467C5.82881 20.8184 6.6136 19.573 7.39839 18.3275C7.44957 18.2422 7.50075 18.174 7.569 18.0887C7.97845 17.5598 8.42203 17.5598 8.81442 18.1057C9.07033 18.464 9.30918 18.8564 9.54803 19.2317C10.1793 20.2213 10.7935 21.2278 11.4418 22.2174C11.6635 22.5586 11.7659 22.8998 11.7659 23.3092C11.7489 25.3224 11.7659 27.3355 11.7488 29.3487C11.7488 29.6558 11.8342 29.7411 12.1412 29.724C12.7042 29.707 13.2502 29.707 13.8132 29.724C14.1373 29.7411 14.2397 29.6558 14.2397 29.3146C14.2226 27.1649 14.2397 25.0324 14.2226 22.8827C14.2226 22.5586 14.3079 22.2856 14.4785 22.0126C15.2633 20.7843 16.0311 19.5559 16.8159 18.3105C16.8841 18.191 16.9694 18.0716 17.0547 17.9693C17.3959 17.5769 17.8224 17.5598 18.1466 17.9693C18.4025 18.2934 18.6072 18.6687 18.8461 19.01C19.5285 20.0848 20.2109 21.1596 20.8933 22.2344C21.0981 22.5415 21.1834 22.8657 21.1834 23.2239C21.1663 25.2541 21.1834 27.2673 21.1663 29.2975C21.1663 29.5875 21.2346 29.6899 21.5417 29.6899C22.1047 29.6728 22.6506 29.6728 23.2136 29.6899C23.5036 29.707 23.5719 29.6046 23.5719 29.3146C23.5548 27.1479 23.5719 24.9641 23.5548 22.7974C23.5548 22.5244 23.623 22.2856 23.7766 22.0467C24.5784 20.7843 25.3632 19.5218 26.1651 18.2763C26.2504 18.1399 26.3527 17.9863 26.4722 17.8669C26.7451 17.5939 27.1205 17.5939 27.3934 17.8669C27.5129 17.9863 27.6323 18.1399 27.7176 18.2934C28.5365 19.59 29.3554 20.9037 30.1914 22.2003C30.3961 22.5244 30.4985 22.8657 30.4985 23.258C30.4814 25.2541 30.4985 27.2673 30.4985 29.2634C30.4985 29.6728 30.4985 29.6728 30.925 29.6728C31.488 29.6728 32.0339 29.6558 32.5969 29.6728C32.8699 29.6899 32.9723 29.5875 32.9723 29.3146C32.9552 27.1479 32.9723 24.9641 32.9552 22.7974C32.9552 22.5244 33.0234 22.2856 33.177 22.0467C33.9788 20.7843 34.7636 19.5218 35.5655 18.2763C35.6337 18.174 35.702 18.0546 35.7873 17.9693C36.1285 17.5598 36.5379 17.5598 36.8792 17.9522C36.9815 18.0716 37.0668 18.191 37.1351 18.3105C37.954 19.59 38.7558 20.8866 39.5747 22.1662C39.7965 22.5074 39.8989 22.8657 39.8989 23.2751C39.8818 25.2712 39.8989 27.2844 39.8818 29.2805C39.8818 29.5875 39.9671 29.6899 40.2742 29.6728C40.786 29.6558 41.2979 29.6387 41.8267 29.6728C42.1679 29.6899 42.2362 29.5705 42.2362 29.2463C42.2191 27.1479 42.2362 25.0494 42.2191 22.951C42.2191 22.678 42.2874 22.4391 42.4409 22.2003C43.2769 20.9037 44.0958 19.59 44.9147 18.2934C44.9829 18.191 45.0341 18.0887 45.1194 18.0034C45.5118 17.5257 45.9554 17.5086 46.3137 18.0204C46.7402 18.6176 47.1155 19.2488 47.4909 19.863C48.0027 20.6648 48.5145 21.4837 49.0263 22.2856C49.1628 22.5074 49.2481 22.7462 49.2481 23.0021C49.2481 35.6611 49.2481 48.3201 49.2481 60.962C49.2481 61.4739 49.0434 61.7127 48.5145 61.7127C46.672 61.7127 44.8123 61.7127 42.9698 61.7127C42.4239 61.7127 42.2533 61.525 42.2533 60.9791C42.2533 58.7441 42.2533 56.5263 42.2533 54.2913C42.2533 53.9672 42.1679 53.8648 41.8438 53.8819C41.332 53.916 40.8202 53.8989 40.2913 53.8819C39.9671 53.8648 39.8989 53.9842 39.8989 54.2913C39.9159 56.458 39.8989 58.6418 39.8989 60.8085C39.8989 61.508 39.6771 61.7127 38.9776 61.7298C37.2204 61.7298 35.4631 61.7298 33.6888 61.7298C33.5864 61.7298 33.5012 61.7298 33.3988 61.7127C33.1088 61.6786 32.9552 61.5421 32.9552 61.2009C32.9723 58.8977 32.9552 56.5945 32.9723 54.2913C32.9723 53.9672 32.887 53.8648 32.5628 53.8819C31.9998 53.916 31.4198 53.8989 30.8568 53.8819C30.5667 53.8648 30.4985 53.9842 30.4985 54.2572C30.5155 56.441 30.4985 58.6247 30.4985 60.8085C30.4985 61.508 30.2937 61.7298 29.5772 61.7298C27.82 61.7298 26.0627 61.7298 24.2884 61.7298C24.186 61.7298 24.1007 61.7298 23.9984 61.7127C23.7083 61.6786 23.5548 61.5421 23.5548 61.2009C23.5719 58.8977 23.5548 56.5945 23.5719 54.2913C23.5719 53.9672 23.4866 53.8648 23.1624 53.8819C22.6165 53.916 22.0705 53.8989 21.5246 53.8819C21.2346 53.8648 21.1663 53.9672 21.1663 54.2572C21.1834 56.441 21.1663 58.6247 21.1663 60.8085C21.1663 61.508 20.9616 61.7298 20.245 61.7298C18.4878 61.7298 16.7306 61.7298 14.9562 61.7298C14.888 61.7298 14.8027 61.7298 14.7345 61.7298C14.3421 61.6956 14.2226 61.5762 14.2226 61.1838C14.2226 58.8977 14.2226 56.5945 14.2226 54.3084C14.2226 53.9842 14.1544 53.8648 13.8132 53.8819C13.2502 53.916 12.6701 53.8989 12.1071 53.8819C11.8171 53.8648 11.7488 53.9672 11.7488 54.2572C11.7659 56.441 11.7488 58.6247 11.7488 60.8085C11.7488 61.508 11.5441 61.7298 10.8276 61.7298C9.07033 61.7298 7.31309 61.7298 5.53878 61.7298C5.47054 61.7298 5.4023 61.7298 5.35112 61.7298C4.9246 61.6956 4.80518 61.5933 4.80518 61.1497C4.80518 55.2638 4.80518 49.3779 4.80518 43.4919C4.80518 42.9801 4.80518 42.4513 4.80518 41.9224ZM48.0368 41.8712C48.0368 35.8659 48.0368 29.8605 48.0368 23.8552C48.0368 23.4969 47.9686 23.1557 47.7809 22.8486C47.1667 21.8591 46.5525 20.8696 45.9213 19.88C45.7507 19.6241 45.6995 19.6241 45.5289 19.8971C44.9147 20.8696 44.3005 21.842 43.7034 22.8145C43.5157 23.1386 43.3792 23.4798 43.3792 23.8722C43.3792 35.8829 43.3792 47.8936 43.3792 59.9043C43.3792 60.382 43.4304 60.4332 43.9252 60.4502C45.1194 60.4502 46.3137 60.4502 47.5079 60.4502C48.0368 60.4502 48.0539 60.4332 48.0539 59.9043C48.0368 53.8819 48.0368 47.8765 48.0368 41.8712ZM5.88 41.9053C5.88 47.8936 5.88 53.8989 5.88 59.8872C5.88 60.382 5.91412 60.4332 6.37475 60.4332C7.58606 60.4332 8.79736 60.4332 10.0087 60.4332C10.4352 60.4332 10.5375 60.3308 10.5375 59.9043C10.5375 47.9277 10.5375 35.9512 10.5375 23.9746C10.5375 23.5822 10.4522 23.1898 10.2475 22.8486C9.63333 21.8761 9.01915 20.8866 8.40497 19.9142C8.23436 19.6412 8.16612 19.6412 7.97845 19.9312C7.44957 20.7672 6.93775 21.6373 6.37475 22.4562C6.01648 22.9851 5.88 23.531 5.88 24.1452C5.88 30.0482 5.88 35.9682 5.88 41.9053ZM19.938 41.9224C19.938 35.9682 19.938 30.0141 19.938 24.0599C19.938 23.6163 19.8697 23.1898 19.6309 22.7974C19.0337 21.825 18.4196 20.8525 17.8054 19.88C17.6177 19.59 17.5495 19.59 17.3618 19.88C16.8329 20.716 16.3211 21.5861 15.7581 22.405C15.3998 22.9339 15.2804 23.4798 15.2804 24.094C15.2804 30.6624 15.2804 37.2478 15.2804 43.8161C15.2804 49.1731 15.2804 54.5131 15.2804 59.8701C15.2804 60.3649 15.3145 60.399 15.8093 60.399C16.9694 60.399 18.1295 60.399 19.2896 60.399C19.8868 60.399 19.938 60.3478 19.938 59.7507C19.938 53.8307 19.938 47.8765 19.938 41.9224ZM24.6296 41.9053C24.6296 47.8936 24.6296 53.8989 24.6296 59.8872C24.6296 60.382 24.6637 60.4161 25.1585 60.4332C26.3357 60.4332 27.5129 60.4332 28.7071 60.4332C29.2019 60.4332 29.2872 60.3478 29.2872 59.8531C29.2872 59.1365 29.2872 58.42 29.2872 57.7035C29.2872 46.4946 29.2872 35.2858 29.2872 24.077C29.2872 23.6163 29.2019 23.1557 28.946 22.7633C28.3488 21.825 27.7688 20.8696 27.1717 19.9312C26.9669 19.59 26.8987 19.59 26.694 19.9312C26.1651 20.7672 25.6703 21.6202 25.1073 22.4221C24.749 22.951 24.6126 23.4969 24.6126 24.1111C24.6296 30.0482 24.6296 35.9853 24.6296 41.9053ZM34.03 41.8712C34.03 47.8765 34.03 53.8819 34.03 59.8872C34.03 60.382 34.0641 60.4161 34.5589 60.4332C35.7361 60.4332 36.9133 60.4332 38.1075 60.4332C38.6023 60.4332 38.6876 60.3478 38.6876 59.8531C38.6876 59.0683 38.6876 58.2835 38.6876 57.5158C38.6876 46.3752 38.6876 35.2346 38.6876 24.077C38.6876 23.6163 38.6023 23.1557 38.3464 22.7633C37.7492 21.825 37.1692 20.8696 36.5721 19.9312C36.3673 19.59 36.2991 19.59 36.0944 19.9312C35.5655 20.7672 35.0707 21.6202 34.5077 22.4221C34.1495 22.951 34.013 23.4969 34.013 24.1111C34.03 30.0311 34.03 35.9512 34.03 41.8712ZM11.7318 41.7688C11.7318 43.9696 11.7318 46.1534 11.7318 48.3542C11.7318 48.6272 11.8 48.7296 12.0901 48.7296C12.6872 48.7125 13.2843 48.7125 13.8985 48.7296C14.1373 48.7296 14.2056 48.6443 14.2056 48.4054C14.2056 44.0038 14.2056 39.6021 14.2056 35.2005C14.2056 34.9616 14.1373 34.8763 13.8985 34.8763C13.3014 34.8934 12.7213 34.8934 12.1242 34.8763C11.8 34.8593 11.7318 34.9787 11.7318 35.2858C11.7489 37.4525 11.7318 39.6192 11.7318 41.7688ZM32.9552 41.8029C32.9552 39.6192 32.9552 37.4354 32.9552 35.2517C32.9552 34.9787 32.887 34.8763 32.5969 34.8763C31.9998 34.8934 31.4027 34.8934 30.7885 34.8763C30.5497 34.8763 30.4814 34.9616 30.4814 35.2005C30.4814 39.6021 30.4814 44.0038 30.4814 48.4054C30.4814 48.6443 30.5497 48.7296 30.7885 48.7296C31.3856 48.7125 31.9657 48.7125 32.5628 48.7296C32.887 48.7466 32.9552 48.6272 32.9552 48.3201C32.9552 46.1534 32.9552 43.9867 32.9552 41.8029ZM23.5377 41.8371C23.5377 39.6363 23.5377 37.4525 23.5377 35.2517C23.5377 34.9787 23.4695 34.8763 23.1795 34.8763C22.5994 34.8934 22.0193 34.8934 21.4393 34.8763C21.2004 34.8763 21.1322 34.9616 21.1322 35.2005C21.1322 39.6021 21.1322 44.0038 21.1322 48.4054C21.1322 48.6443 21.2004 48.7296 21.4393 48.7296C22.0023 48.7125 22.5823 48.7125 23.1453 48.7296C23.4695 48.7466 23.5377 48.6272 23.5377 48.3201C23.5377 46.1705 23.5377 44.0038 23.5377 41.8371ZM42.2362 41.8371C42.2362 39.6363 42.2362 37.4525 42.2362 35.2517C42.2362 34.9787 42.1679 34.8763 41.8779 34.8763C41.349 34.8934 40.8202 34.9105 40.3083 34.8763C39.9671 34.8593 39.8989 34.9787 39.8989 35.3028C39.9159 37.589 39.8989 39.858 39.8989 42.1442C39.8989 44.2256 39.8989 46.307 39.8989 48.3713C39.8989 48.6272 39.9671 48.7296 40.2401 48.7296C40.769 48.7125 41.3149 48.7125 41.8438 48.7296C42.1679 48.7466 42.2362 48.6272 42.2362 48.3201C42.2191 46.1705 42.2362 44.0038 42.2362 41.8371ZM32.9552 32.3343C32.9552 31.9931 32.9552 31.6519 32.9552 31.3107C32.9552 31.123 32.887 31.0377 32.6822 31.0548C32.0339 31.0548 31.3856 31.0548 30.7544 31.0548C30.5667 31.0548 30.4814 31.1059 30.4814 31.3107C30.4814 31.9931 30.4814 32.6585 30.4814 33.3409C30.4814 33.5115 30.5497 33.5968 30.7373 33.5797C31.3856 33.5797 32.051 33.5797 32.6993 33.5797C32.904 33.5797 32.9552 33.4944 32.9552 33.3068C32.9381 32.9655 32.9552 32.6414 32.9552 32.3343ZM14.2056 51.3569C14.2056 51.0157 14.2056 50.6745 14.2056 50.3333C14.2056 50.1456 14.1373 50.0603 13.9497 50.0603C13.3014 50.0603 12.636 50.0603 11.9877 50.0603C11.8 50.0603 11.7488 50.1456 11.7488 50.3162C11.7488 50.9986 11.7488 51.664 11.7488 52.3464C11.7488 52.517 11.8171 52.6023 11.9877 52.6023C12.636 52.6023 13.3014 52.6023 13.9497 52.6023C14.1544 52.6023 14.2226 52.517 14.2056 52.3294C14.2056 51.9881 14.2056 51.664 14.2056 51.3569ZM32.9552 51.3228C32.9552 50.9986 32.9552 50.6574 32.9552 50.3333C32.9552 50.1456 32.904 50.0603 32.6993 50.0603C32.051 50.0603 31.3856 50.0603 30.7373 50.0603C30.5326 50.0603 30.4814 50.1456 30.4814 50.3333C30.4814 50.9986 30.4814 51.664 30.4814 52.3294C30.4814 52.517 30.5497 52.5853 30.7544 52.5853C31.4027 52.5853 32.051 52.5853 32.6822 52.5853C32.904 52.5853 32.9552 52.5 32.9552 52.2952C32.9381 51.9711 32.9552 51.6469 32.9552 51.3228ZM14.2056 32.3343C14.2056 31.9931 14.2056 31.6519 14.2056 31.3107C14.2056 31.123 14.1373 31.0377 13.9497 31.0377C13.3014 31.0377 12.6531 31.0377 12.0218 31.0377C11.8342 31.0377 11.7488 31.0889 11.7488 31.2936C11.7488 31.976 11.7488 32.6414 11.7488 33.3238C11.7488 33.4944 11.8171 33.5797 11.9877 33.5797C12.636 33.5797 13.3014 33.5797 13.9497 33.5797C14.1544 33.5797 14.2056 33.4944 14.2056 33.3068C14.2056 32.9655 14.2056 32.6585 14.2056 32.3343ZM21.1493 32.3002C21.1493 32.6414 21.1493 32.9826 21.1493 33.3238C21.1493 33.4774 21.2175 33.5627 21.371 33.5627C22.0193 33.5627 22.6677 33.5627 23.2989 33.5627C23.4866 33.5627 23.5377 33.4944 23.5377 33.3068C23.5377 32.6243 23.5377 31.959 23.5377 31.2765C23.5377 31.1059 23.4695 31.0206 23.2989 31.0206C22.6677 31.0206 22.0364 31.0206 21.4052 31.0206C21.2004 31.0206 21.1322 31.1059 21.1493 31.2936C21.1493 31.6348 21.1493 31.976 21.1493 32.3002ZM23.5377 51.3398C23.5377 51.0157 23.5377 50.6745 23.5377 50.3503C23.5377 50.1456 23.4866 50.0603 23.2648 50.0603C22.6506 50.0774 22.0193 50.0603 21.3881 50.0603C21.2004 50.0603 21.1151 50.1285 21.1322 50.3333C21.1322 50.9986 21.1322 51.664 21.1322 52.3294C21.1322 52.517 21.1834 52.6023 21.3881 52.6023C22.0193 52.6023 22.6506 52.6023 23.2818 52.6023C23.4695 52.6023 23.5377 52.5341 23.5207 52.3464C23.5377 52.0052 23.5377 51.664 23.5377 51.3398ZM42.2362 32.3002C42.2362 31.959 42.2362 31.6178 42.2362 31.2765C42.2362 31.123 42.1679 31.0377 42.0144 31.0377C41.3832 31.0377 40.769 31.0377 40.1377 31.0377C39.9501 31.0377 39.8989 31.123 39.8989 31.2936C39.8989 31.976 39.8989 32.6414 39.8989 33.3238C39.8989 33.4944 39.9671 33.5797 40.1377 33.5797C40.7519 33.5797 41.3661 33.5797 41.9803 33.5797C42.185 33.5797 42.2533 33.4944 42.2362 33.3068C42.2191 32.9655 42.2362 32.6243 42.2362 32.3002ZM42.2362 51.3569C42.2362 51.0157 42.2362 50.6745 42.2362 50.3333C42.2362 50.1456 42.1679 50.0603 41.9803 50.0603C41.3661 50.0603 40.7519 50.0603 40.1377 50.0603C39.9501 50.0603 39.8989 50.1456 39.8989 50.3162C39.8989 50.9986 39.8989 51.664 39.8989 52.3464C39.8989 52.517 39.9671 52.6023 40.1377 52.6023C40.7519 52.6023 41.3661 52.6023 41.9803 52.6023C42.185 52.6023 42.2533 52.517 42.2362 52.3294C42.2191 51.9881 42.2362 51.664 42.2362 51.3569Z" fill="#282828"/>
<path d="M3.32114 48.4224C3.11641 48.4224 2.91168 48.4395 2.70695 48.4224C1.52977 48.3542 0.762043 47.5353 0.762043 46.3069C0.744983 45.0615 0.762042 43.799 0.744982 42.5536C0.727921 41.1376 0.557316 39.7215 0.437891 38.3055C0.369649 37.4354 0.301406 36.5824 0.233163 35.7123C0.130799 34.3645 0.0113752 33.0167 0.0454965 31.6689C0.0966784 29.6899 0.147861 27.7108 0.67674 25.783C1.12032 24.1622 1.83686 22.695 3.16759 21.6031C3.4235 21.3814 3.20171 21.3302 3.04817 21.2619C2.28044 20.9378 1.56389 20.5283 0.983831 19.9312C0.642618 19.5729 0.403769 19.1635 0.233163 18.7028C0.130799 18.3957 0.164922 18.1228 0.335528 17.8498C0.67674 17.3039 1.18856 16.9627 1.78568 16.7409C2.92874 16.3144 4.12299 16.1437 5.33429 16.0414C5.76081 16.0073 6.18732 15.9902 6.61384 15.9561C6.92093 15.939 7.17684 16.0414 7.38157 16.2802C7.56923 16.5361 7.77396 16.792 7.97869 17.048C8.08105 17.1844 8.11517 17.2868 7.89338 17.338C7.46687 17.4404 7.17684 17.7133 6.95505 18.0716C6.22144 19.2317 5.48784 20.3918 4.75423 21.552C4.39596 22.115 4.31065 22.7462 4.31065 23.3945C4.31065 28.6662 4.31065 33.955 4.31065 39.2268C4.31065 42.11 4.31065 44.9933 4.31065 47.8594C4.31065 48.4395 4.31065 48.4395 3.74765 48.4395C3.61117 48.4224 3.45762 48.4224 3.32114 48.4224Z" fill="#282828"/>
<path d="M21.6272 25.783C21.6272 25.0494 21.6102 24.2987 21.6272 23.5651C21.6443 22.8997 21.4566 22.2685 21.0984 21.7055C20.2965 20.443 19.5458 19.1635 18.6928 17.9351C18.6587 17.8839 18.5734 17.8157 18.6075 17.7474C18.6416 17.6621 18.744 17.6962 18.8122 17.6962C19.9212 17.6621 21.0472 17.6109 22.1561 17.5768C23.3162 17.5427 24.4934 17.5256 25.6706 17.5086C25.79 17.5086 25.9777 17.4403 26.0289 17.5598C26.0971 17.6962 25.9095 17.7645 25.8412 17.8498C25.3635 18.481 24.9711 19.1805 24.5446 19.8459C24.2205 20.3406 23.9304 20.8525 23.6063 21.3472C23.2139 21.9614 23.0262 22.6268 23.0433 23.3604C23.0603 24.947 23.0433 26.5336 23.0433 28.1032C23.0433 28.9051 23.0262 28.9221 22.2244 28.9221C21.7296 28.9221 21.6443 28.8539 21.6443 28.3591C21.6272 27.489 21.6443 26.636 21.6272 25.783Z" fill="#282828"/>
<path d="M12.2266 41.9053C12.2266 40.7964 12.2436 39.7045 12.2266 38.5956C12.2266 38.2714 12.3289 38.152 12.6531 38.1861C12.909 38.2032 13.1649 38.2032 13.4208 38.1861C13.6255 38.169 13.7108 38.2714 13.7108 38.4761C13.7108 38.5444 13.7108 38.6126 13.7108 38.6638C13.7108 40.8305 13.7108 42.9801 13.7108 45.1468C13.7108 45.6245 13.7108 45.6245 13.2331 45.6245C12.2266 45.6245 12.2266 45.6245 12.2266 44.635C12.2266 43.7308 12.2266 42.8095 12.2266 41.9053Z" fill="#282828"/>
<path d="M12.9426 36.2241C12.8062 36.2241 12.6867 36.2241 12.5503 36.2241C12.3796 36.2241 12.209 36.207 12.2432 35.9682C12.2602 35.7805 12.2943 35.6099 12.5503 35.6099C12.8232 35.6099 13.0791 35.627 13.3521 35.6099C13.6251 35.5928 13.6763 35.7805 13.6763 35.9852C13.6933 36.2241 13.5227 36.2241 13.3521 36.2241C13.2327 36.2241 13.0791 36.2241 12.9426 36.2241Z" fill="#282828"/>
</g>
<mask id="mask1_5611_1051" style="mask-type:luminance" maskUnits="userSpaceOnUse" x="10" y="4" width="54" height="48">
<path d="M35.7365 4.20792L28.6746 4.20793L10.4009 5.4979L21.4135 22.4903V51.971H63.9999V4.20792H35.7365Z" fill="white"/>
</mask>
<g mask="url(#mask1_5611_1051)">
<mask id="mask2_5611_1051" style="mask-type:luminance" maskUnits="userSpaceOnUse" x="20" y="3" width="51" height="49">
<path d="M20.9699 51.2806L70.0874 51.2806V3.08435L20.9699 3.08435L20.9699 51.2806Z" fill="white"/>
</mask>
<g mask="url(#mask2_5611_1051)">
<path d="M57.1813 48.6272C55.8164 48.6272 54.4516 48.6272 53.0697 48.6272C51.8925 48.6272 51.0736 47.8765 50.9883 46.7164C50.9371 46.034 50.9371 46.0169 50.2547 45.9487C49.3163 45.8634 48.3609 45.7951 47.4226 45.761C45.3753 45.6757 43.328 45.6245 41.2637 45.5733C35.719 45.4198 30.1743 45.4539 24.6296 45.5051C20.9957 45.5392 17.3618 45.6586 13.7279 45.9657C13.3696 45.9998 13.216 46.1193 13.2331 46.4946C13.2843 47.7571 12.2095 48.6784 11.0152 48.6442C8.3367 48.576 5.65819 48.576 2.97967 48.6442C1.80249 48.6784 0.881211 47.5694 0.898271 46.5799C0.932392 44.7544 0.983574 42.9119 0.830028 41.0864C0.659422 39.0391 0.488817 36.9918 0.335271 34.9616C0.198786 32.9485 0.198786 30.9353 0.369392 28.9392C0.471756 27.8303 0.574119 26.7384 0.915332 25.6806C1.37597 24.1622 2.04133 22.7462 3.32088 21.7226C3.59385 21.5178 3.47443 21.4155 3.21852 21.3131C2.33136 20.9207 1.46127 20.4942 0.881211 19.6924C0.0452403 18.5493 0.113483 17.8157 1.47833 17.048C2.46785 16.485 3.59385 16.3485 4.71985 16.212C5.36816 16.1267 6.01646 16.1096 6.68182 16.0414C7.07422 16.0073 7.36425 16.1267 7.58604 16.4508C7.79076 16.7238 8.01255 16.9968 8.23434 17.2868C8.42201 17.5427 8.52437 17.5257 8.64379 17.2356C9.05325 16.0926 9.53095 14.9836 10.0428 13.8917C10.9811 11.9127 11.9194 9.95074 13.2672 8.21056C14.035 7.2381 15.0245 6.60686 16.2528 6.36801C19.2726 5.75383 22.3264 5.32731 25.4144 5.10552C27.6835 4.93492 29.9355 4.78137 32.2045 4.78137C37.3398 4.78137 42.4238 5.29319 47.4738 6.23153C49.2993 6.57274 50.647 7.54519 51.6195 9.08065C53.1891 11.5715 54.4516 14.233 55.5264 16.9797C55.5605 17.0821 55.5946 17.1674 55.6458 17.2697C55.7482 17.5086 55.8505 17.5086 56.0041 17.3039C56.2429 16.9968 56.4818 16.6897 56.7206 16.3655C56.8742 16.1608 57.0619 16.0414 57.3007 16.0414C59.0921 16.1267 60.8834 16.2461 62.5724 16.9456C62.6577 16.9797 62.726 17.0138 62.8113 17.048C63.9714 17.6621 64.1932 18.5322 63.4255 19.59C62.8454 20.4089 61.9924 20.8866 61.0882 21.279C60.6446 21.4667 60.6446 21.4667 60.9858 21.7738C62.5554 23.1215 63.2378 24.9129 63.579 26.8749C64.0396 29.451 64.0396 32.0443 63.8861 34.6545C63.6643 38.5955 63.1184 42.5024 63.306 46.4605C63.3402 47.2453 63.016 47.8765 62.3848 48.3201C62.0947 48.5248 61.8047 48.6272 61.4464 48.6101C60.0304 48.6101 58.6144 48.6272 57.1813 48.6272ZM31.6245 8.12525C30.9762 8.1935 29.8502 8.12525 28.7241 8.17644C27.6493 8.22762 26.5745 8.29586 25.4997 8.38116C22.9065 8.56883 20.3303 8.99535 17.7542 9.38774C16.7476 9.54129 15.9457 9.89956 15.3827 10.8038C14.0179 13.0387 12.8748 15.3931 11.9024 17.8327C11.7488 18.2251 11.7829 18.2593 12.2095 18.2251C13.762 18.0375 15.3316 17.9181 16.9011 17.8498C19.4944 17.7304 22.1046 17.611 24.6978 17.5939C29.4578 17.5598 34.2177 17.5086 38.9776 17.628C41.4855 17.6963 44.0105 17.7133 46.5184 17.8157C48.3268 17.901 50.1182 18.0204 51.9095 18.191C52.3702 18.2422 52.4214 18.191 52.2508 17.7645C51.4318 15.6319 50.3911 13.6017 49.3163 11.5886C48.5827 10.2408 47.6103 9.52423 46.0407 9.28538C41.4343 8.58589 36.7938 8.12525 31.6245 8.12525ZM10.7934 34.0062C10.7934 33.9892 10.7934 33.9892 10.7934 34.0062C11.7318 33.9892 12.6872 34.0403 13.6255 33.9892C14.905 33.9209 15.468 33.0508 15.0415 31.8395C14.615 30.6282 13.7279 29.9287 12.4824 29.7069C10.4863 29.3487 8.49025 29.0757 6.4771 28.9051C5.14637 28.7857 4.46394 29.6728 4.82221 30.9694C4.92458 31.3448 5.09518 31.703 5.26579 32.0613C5.84585 33.3409 6.83537 33.9721 8.21728 33.9892C9.07031 34.0062 9.9404 34.0062 10.7934 34.0062ZM53.4621 34.0233C53.4621 34.0062 53.4621 34.0062 53.4621 34.0233C54.2127 34.0233 54.9805 34.0233 55.7311 34.0233C55.987 34.0233 56.26 34.0062 56.5159 33.9721C58.3585 33.7674 59.2627 32.0272 59.4674 30.577C59.6209 29.5363 59.1432 29.0245 58.1025 28.9222C57.8978 28.9051 57.6931 28.9222 57.4884 28.9392C56.8401 29.0075 56.1918 29.0757 55.5435 29.161C54.2127 29.3657 52.8479 29.434 51.5342 29.7581C50.3741 30.0482 49.5722 30.7647 49.1969 31.9078C48.8386 32.9655 49.3334 33.7844 50.4253 33.9721C50.6812 34.0233 50.9541 34.0233 51.2101 34.0233C51.9437 34.0233 52.7114 34.0233 53.4621 34.0233ZM52.319 36.3776C51.3124 36.3776 50.3058 36.3776 49.3163 36.3776C49.0092 36.3776 48.7021 36.4288 48.4462 36.5994C47.832 36.9748 47.832 37.7596 48.4633 38.1178C48.7363 38.2714 49.0263 38.3567 49.3334 38.3567C51.3295 38.3737 53.3256 38.3737 55.3046 38.3567C55.7141 38.3567 56.1065 38.2543 56.4306 37.9643C56.8912 37.5548 56.8571 37.026 56.3453 36.6847C56.0553 36.48 55.7141 36.3947 55.3558 36.3776C54.3492 36.3776 53.3256 36.3776 52.319 36.3776ZM11.9024 36.3776C10.964 36.3776 10.0086 36.3776 9.07031 36.3776C8.76322 36.3776 8.45613 36.4118 8.18316 36.5483C7.84195 36.7018 7.62016 36.9577 7.6031 37.3501C7.58604 37.7596 7.82488 37.9984 8.14904 38.169C8.42201 38.3055 8.7291 38.3737 9.03619 38.3737C10.9811 38.3737 12.926 38.3737 14.8709 38.3737C15.2804 38.3737 15.6386 38.2543 15.9799 38.0155C16.4917 37.6572 16.4917 37.0771 15.9799 36.7189C15.6045 36.463 15.178 36.3776 14.7344 36.3776C13.7961 36.3606 12.8578 36.3776 11.9024 36.3776Z" fill="#282828"/>
</g>
</g>
</svg>
