<svg width="64" height="64" viewBox="0 0 64 64" fill="none" xmlns="http://www.w3.org/2000/svg">
<path d="M49.8518 34.7411C52.1784 34.0887 53.7125 32.3043 53.2782 30.7554C52.8439 29.2066 50.6057 28.4798 48.2791 29.1322C45.9525 29.7846 44.4185 31.5691 44.8528 33.1179C45.2871 34.6668 47.5252 35.3935 49.8518 34.7411Z" fill="#FFE836"/>
<mask id="mask0_6024_1658" style="mask-type:luminance" maskUnits="userSpaceOnUse" x="1" y="4" width="24" height="57">
<path d="M24.7 4.16248H1V60.5H24.7V4.16248Z" fill="white"/>
</mask>
<g mask="url(#mask0_6024_1658)">
<path d="M49.9125 21.8625C50.1125 21.6 50.3 21.3625 50.4875 21.125C50.625 20.95 50.8 20.8625 51.0375 20.8625C52.1625 20.875 53.275 21 54.3625 21.3125C54.725 21.4125 55.075 21.5625 55.375 21.8C55.9125 22.225 56.0125 22.6875 55.675 23.2875C55.3875 23.7875 54.9625 24.1375 54.4625 24.4125C54.225 24.55 53.975 24.65 53.725 24.775C53.6125 24.825 53.55 24.8875 53.675 24.9875C55 26.075 55.475 27.5624 55.7375 29.1749C55.9625 30.5499 56.025 31.9375 55.9625 33.325C55.9 34.6 55.8125 35.875 55.7 37.15C55.6 38.1875 55.5375 39.225 55.4875 40.2625C55.4375 41.225 55.425 42.175 55.4625 43.1375C55.4875 43.925 54.8125 44.7249 53.9 44.6875C52.575 44.65 51.2375 44.6875 49.9125 44.6624C49.2875 44.6499 48.65 44.6749 48.025 44.6749C47.175 44.6875 46.4875 44.1125 46.4375 43.2625C46.4 42.7 46.275 42.7625 45.875 42.7125C45.6625 42.6875 45.6 42.6124 45.6 42.4124C45.6125 40.7624 45.6 39.1 45.6 37.45C45.6 37.15 45.6125 37.125 45.925 37.15C46.825 37.2 47.7125 37.1749 48.6125 37.1749C48.975 37.1749 49.3375 37.15 49.7 37.1375C49.975 37.125 50.225 37.0375 50.425 36.8375C50.6875 36.575 50.6625 36.225 50.375 36C50.125 35.8125 49.8375 35.75 49.5375 35.75C48.3625 35.75 47.175 35.75 46 35.75C45.6125 35.75 45.6125 35.75 45.6125 35.3624C45.6125 34.9249 45.6125 34.4874 45.6125 34.0499C45.6125 33.9625 45.6 33.85 45.7625 33.8875C46.4625 34.075 47.1875 34.0249 47.9 34.0374C48.6625 34.0374 49.425 34.0375 50.1875 34C51.325 33.95 52 33.2999 52.4125 32.3125C52.55 31.9874 52.6125 31.65 52.6125 31.2999C52.6125 30.7125 52.325 30.3874 51.725 30.3375C51.325 30.2999 50.9375 30.35 50.55 30.4C49.4375 30.5375 48.325 30.6749 47.2125 30.8624C46.7 30.9499 46.225 31.125 45.825 31.4625C45.775 31.5 45.725 31.5999 45.65 31.5499C45.5875 31.5124 45.6125 31.425 45.6125 31.35C45.6125 29.5875 45.6 27.8375 45.6125 26.075C45.6125 25.7125 45.525 25.4125 45.3375 25.125C44.7625 24.2125 44.1875 23.3125 43.6 22.4C43.575 22.35 43.5125 22.3125 43.5625 22.2625C43.6 22.225 43.65 22.2375 43.7 22.2375C44.8125 22.3125 45.925 22.35 47.0375 22.4875C47.0875 22.5 47.15 22.4875 47.2 22.4875C47.35 22.4875 47.3875 22.425 47.325 22.3C46.575 20.475 45.75 18.6875 44.6875 17.025C44.3125 16.45 43.7625 16.225 43.1125 16.125C41.85 15.9375 40.5875 15.7125 39.3125 15.5625C38.3625 15.45 37.4125 15.3625 36.45 15.3C35.0875 15.225 33.7125 15.1625 32.35 15.175C30.8125 15.1875 29.275 15.275 27.7375 15.4C25.7875 15.55 23.85 15.8625 21.925 16.1625C21.325 16.2625 20.85 16.5625 20.5375 17.0875C20.45 17.225 20.375 17.375 20.275 17.5125C19.2625 18.9125 18.6125 20.4875 17.95 22.0625C17.7625 22.5125 17.8 22.55 18.3 22.4875C19.225 22.3625 20.15 22.2875 21.075 22.2625C21.1375 22.2625 21.2375 22.225 21.275 22.2875C21.325 22.3625 21.225 22.425 21.1875 22.4875C20.6875 23.275 20.1875 24.0625 19.6875 24.85C19.4125 25.2875 19.275 25.7625 19.2875 26.275C19.3 27.4375 19.2875 28.6125 19.2875 29.7875C19.2875 30.375 19.275 30.3875 18.6875 30.3875C18.2625 30.3875 18.2125 30.3375 18.2125 29.9C18.2125 28.85 18.1875 27.8 18.2125 26.75C18.2375 26.025 18.0375 25.4 17.6375 24.8C17.175 24.1 16.7375 23.375 16.2875 22.675C16.0875 22.375 15.8875 22.0625 15.525 21.925C15.375 21.8625 15.4125 21.7625 15.4625 21.65C15.725 21 15.975 20.35 16.2625 19.7125C16.8375 18.3875 17.5375 17.125 18.2875 15.8875C19.0625 14.6125 20.175 13.9 21.65 13.6875C22.9625 13.4875 24.2625 13.2375 25.5875 13.1C26.4 13.0125 27.2125 12.9625 28.025 12.8875C29.175 12.7875 30.325 12.7125 31.4875 12.675C32.075 12.65 32.65 12.6375 33.2375 12.6875C33.3125 12.6875 33.375 12.7 33.45 12.7C35.35 12.7 37.2375 12.8 39.1125 13.025C40.7125 13.2125 42.3 13.475 43.8875 13.7375C45.275 13.9625 46.2875 14.7375 47.0125 15.9125C47.9 17.35 48.6625 18.85 49.325 20.4125C49.5125 20.8625 49.7 21.35 49.9125 21.8625Z" fill="#FCFCFC"/>
<path d="M12.75 39.8874C12.75 35.2374 12.75 30.5874 12.75 25.9374C12.75 25.7124 12.8 25.5124 12.925 25.3249C13.5 24.4249 14.075 23.5124 14.65 22.5999C14.6875 22.5374 14.725 22.4874 14.775 22.4249C15.075 22.0374 15.4 22.0374 15.6875 22.4374C15.875 22.6999 16.05 22.9874 16.225 23.2624C16.6875 23.9874 17.1375 24.7249 17.6125 25.4499C17.775 25.6999 17.85 25.9499 17.85 26.2499C17.8375 27.7249 17.85 29.1999 17.8375 30.6749C17.8375 30.8999 17.9 30.9624 18.125 30.9499C18.5375 30.9374 18.9375 30.9374 19.35 30.9499C19.5875 30.9624 19.6625 30.8999 19.6625 30.6499C19.65 29.0749 19.6625 27.5124 19.65 25.9374C19.65 25.6999 19.7125 25.4999 19.8375 25.2999C20.4125 24.3999 20.975 23.4999 21.55 22.5874C21.6 22.4999 21.6625 22.4124 21.725 22.3374C21.975 22.0499 22.2875 22.0374 22.525 22.3374C22.7125 22.5749 22.8625 22.8499 23.0375 23.0999C23.5375 23.8874 24.0375 24.6749 24.5375 25.4624C24.6875 25.6874 24.75 25.9249 24.75 26.1874C24.7375 27.6749 24.75 29.1499 24.7375 30.6374C24.7375 30.8499 24.7875 30.9249 25.0125 30.9249C25.425 30.9124 25.825 30.9124 26.2375 30.9249C26.45 30.9374 26.5 30.8624 26.5 30.6499C26.4875 29.0624 26.5 27.4624 26.4875 25.8749C26.4875 25.6749 26.5375 25.4999 26.65 25.3249C27.2375 24.3999 27.8125 23.4749 28.4 22.5624C28.4625 22.4624 28.5375 22.3499 28.625 22.2624C28.825 22.0624 29.1 22.0624 29.3 22.2624C29.3875 22.3499 29.475 22.4624 29.5375 22.5749C30.1375 23.5249 30.7375 24.4874 31.35 25.4374C31.5 25.6749 31.575 25.9249 31.575 26.2124C31.5625 27.6749 31.575 29.1499 31.575 30.6124C31.575 30.9124 31.575 30.9124 31.8875 30.9124C32.3 30.9124 32.7 30.8999 33.1125 30.9124C33.3125 30.9249 33.3875 30.8499 33.3875 30.6499C33.375 29.0624 33.3875 27.4624 33.375 25.8749C33.375 25.6749 33.425 25.4999 33.5375 25.3249C34.125 24.3999 34.7 23.4749 35.2875 22.5624C35.3375 22.4874 35.3875 22.3999 35.45 22.3374C35.7 22.0374 36 22.0374 36.25 22.3249C36.325 22.4124 36.3875 22.4999 36.4375 22.5874C37.0375 23.5249 37.625 24.4749 38.225 25.4124C38.3875 25.6624 38.4625 25.9249 38.4625 26.2249C38.45 27.6874 38.4625 29.1624 38.45 30.6249C38.45 30.8499 38.5125 30.9249 38.7375 30.9124C39.1125 30.8999 39.4875 30.8874 39.875 30.9124C40.125 30.9249 40.175 30.8374 40.175 30.5999C40.1625 29.0624 40.175 27.5249 40.1625 25.9874C40.1625 25.7874 40.2125 25.6124 40.325 25.4374C40.9375 24.4874 41.5375 23.5249 42.1375 22.5749C42.1875 22.4999 42.225 22.4249 42.2875 22.3624C42.575 22.0124 42.9 21.9999 43.1625 22.3749C43.475 22.8124 43.75 23.2749 44.025 23.7249C44.4 24.3124 44.775 24.9124 45.15 25.4999C45.25 25.6624 45.3125 25.8374 45.3125 26.0249C45.3125 35.2999 45.3125 44.5749 45.3125 53.8374C45.3125 54.2124 45.1625 54.3874 44.775 54.3874C43.425 54.3874 42.0625 54.3874 40.7125 54.3874C40.3125 54.3874 40.1875 54.2499 40.1875 53.8499C40.1875 52.2124 40.1875 50.5874 40.1875 48.9499C40.1875 48.7124 40.125 48.6374 39.8875 48.6499C39.5125 48.6749 39.1375 48.6624 38.75 48.6499C38.5125 48.6374 38.4625 48.7249 38.4625 48.9499C38.475 50.5374 38.4625 52.1374 38.4625 53.7249C38.4625 54.2374 38.3 54.3874 37.7875 54.3999C36.5 54.3999 35.2125 54.3999 33.9125 54.3999C33.8375 54.3999 33.775 54.3999 33.7 54.3874C33.4875 54.3624 33.375 54.2624 33.375 54.0124C33.3875 52.3249 33.375 50.6374 33.3875 48.9499C33.3875 48.7124 33.325 48.6374 33.0875 48.6499C32.675 48.6749 32.25 48.6624 31.8375 48.6499C31.625 48.6374 31.575 48.7249 31.575 48.9249C31.5875 50.5249 31.575 52.1249 31.575 53.7249C31.575 54.2374 31.425 54.3999 30.9 54.3999C29.6125 54.3999 28.325 54.3999 27.025 54.3999C26.95 54.3999 26.8875 54.3999 26.8125 54.3874C26.6 54.3624 26.4875 54.2624 26.4875 54.0124C26.5 52.3249 26.4875 50.6374 26.5 48.9499C26.5 48.7124 26.4375 48.6374 26.2 48.6499C25.8 48.6749 25.4 48.6624 25 48.6499C24.7875 48.6374 24.7375 48.7124 24.7375 48.9249C24.75 50.5249 24.7375 52.1249 24.7375 53.7249C24.7375 54.2374 24.5875 54.3999 24.0625 54.3999C22.775 54.3999 21.4875 54.3999 20.1875 54.3999C20.1375 54.3999 20.075 54.3999 20.025 54.3999C19.7375 54.3749 19.65 54.2874 19.65 53.9999C19.65 52.3249 19.65 50.6374 19.65 48.9624C19.65 48.7249 19.6 48.6374 19.35 48.6499C18.9375 48.6749 18.5125 48.6624 18.1 48.6499C17.8875 48.6374 17.8375 48.7124 17.8375 48.9249C17.85 50.5249 17.8375 52.1249 17.8375 53.7249C17.8375 54.2374 17.6875 54.3999 17.1625 54.3999C15.875 54.3999 14.5875 54.3999 13.2875 54.3999C13.2375 54.3999 13.1875 54.3999 13.15 54.3999C12.8375 54.3749 12.75 54.2999 12.75 53.9749C12.75 49.6624 12.75 45.3499 12.75 41.0374C12.75 40.6624 12.75 40.2749 12.75 39.8874ZM44.425 39.8499C44.425 35.4499 44.425 31.0499 44.425 26.6499C44.425 26.3874 44.375 26.1374 44.2375 25.9124C43.7875 25.1874 43.3375 24.4624 42.875 23.7374C42.75 23.5499 42.7125 23.5499 42.5875 23.7499C42.1375 24.4624 41.6875 25.1749 41.25 25.8874C41.1125 26.1249 41.0125 26.3749 41.0125 26.6624C41.0125 35.4624 41.0125 44.2624 41.0125 53.0624C41.0125 53.4124 41.05 53.4499 41.4125 53.4624C42.2875 53.4624 43.1625 53.4624 44.0375 53.4624C44.425 53.4624 44.4375 53.4499 44.4375 53.0624C44.425 48.6499 44.425 44.2499 44.425 39.8499ZM13.5375 39.8749C13.5375 44.2624 13.5375 48.6624 13.5375 53.0499C13.5375 53.4124 13.5625 53.4499 13.9 53.4499C14.7875 53.4499 15.675 53.4499 16.5625 53.4499C16.875 53.4499 16.95 53.3749 16.95 53.0624C16.95 44.2874 16.95 35.5124 16.95 26.7374C16.95 26.4499 16.8875 26.1624 16.7375 25.9124C16.2875 25.1999 15.8375 24.4749 15.3875 23.7624C15.2625 23.5624 15.2125 23.5624 15.075 23.7749C14.6875 24.3874 14.3125 25.0249 13.9 25.6249C13.6375 26.0124 13.5375 26.4124 13.5375 26.8624C13.5375 31.1874 13.5375 35.5249 13.5375 39.8749ZM23.8375 39.8874C23.8375 35.5249 23.8375 31.1624 23.8375 26.7999C23.8375 26.4749 23.7875 26.1624 23.6125 25.8749C23.175 25.1624 22.725 24.4499 22.275 23.7374C22.1375 23.5249 22.0875 23.5249 21.95 23.7374C21.5625 24.3499 21.1875 24.9874 20.775 25.5874C20.5125 25.9749 20.425 26.3749 20.425 26.8249C20.425 31.6374 20.425 36.4624 20.425 41.2749C20.425 45.1999 20.425 49.1124 20.425 53.0374C20.425 53.3999 20.45 53.4249 20.8125 53.4249C21.6625 53.4249 22.5125 53.4249 23.3625 53.4249C23.8 53.4249 23.8375 53.3874 23.8375 52.9499C23.8375 48.6124 23.8375 44.2499 23.8375 39.8874ZM27.275 39.8749C27.275 44.2624 27.275 48.6624 27.275 53.0499C27.275 53.4124 27.3 53.4374 27.6625 53.4499C28.525 53.4499 29.3875 53.4499 30.2625 53.4499C30.625 53.4499 30.6875 53.3874 30.6875 53.0249C30.6875 52.4999 30.6875 51.9749 30.6875 51.4499C30.6875 43.2374 30.6875 35.0249 30.6875 26.8124C30.6875 26.4749 30.625 26.1374 30.4375 25.8499C30 25.1624 29.575 24.4624 29.1375 23.7749C28.9875 23.5249 28.9375 23.5249 28.7875 23.7749C28.4 24.3874 28.0375 25.0124 27.625 25.5999C27.3625 25.9874 27.2625 26.3874 27.2625 26.8374C27.275 31.1874 27.275 35.5374 27.275 39.8749ZM34.1625 39.8499C34.1625 44.2499 34.1625 48.6499 34.1625 53.0499C34.1625 53.4124 34.1875 53.4374 34.55 53.4499C35.4125 53.4499 36.275 53.4499 37.15 53.4499C37.5125 53.4499 37.575 53.3874 37.575 53.0249C37.575 52.4499 37.575 51.8749 37.575 51.3124C37.575 43.1499 37.575 34.9874 37.575 26.8124C37.575 26.4749 37.5125 26.1374 37.325 25.8499C36.8875 25.1624 36.4625 24.4624 36.025 23.7749C35.875 23.5249 35.825 23.5249 35.675 23.7749C35.2875 24.3874 34.925 25.0124 34.5125 25.5999C34.25 25.9874 34.15 26.3874 34.15 26.8374C34.1625 31.1749 34.1625 35.5124 34.1625 39.8499ZM17.825 39.7749C17.825 41.3874 17.825 42.9874 17.825 44.5999C17.825 44.7999 17.875 44.8749 18.0875 44.8749C18.525 44.8624 18.9625 44.8624 19.4125 44.8749C19.5875 44.8749 19.6375 44.8124 19.6375 44.6374C19.6375 41.4124 19.6375 38.1874 19.6375 34.9624C19.6375 34.7874 19.5875 34.7249 19.4125 34.7249C18.975 34.7374 18.55 34.7374 18.1125 34.7249C17.875 34.7124 17.825 34.7999 17.825 35.0249C17.8375 36.6124 17.825 38.1999 17.825 39.7749ZM33.375 39.7999C33.375 38.1999 33.375 36.5999 33.375 34.9999C33.375 34.7999 33.325 34.7249 33.1125 34.7249C32.675 34.7374 32.2375 34.7374 31.7875 34.7249C31.6125 34.7249 31.5625 34.7874 31.5625 34.9624C31.5625 38.1874 31.5625 41.4124 31.5625 44.6374C31.5625 44.8124 31.6125 44.8749 31.7875 44.8749C32.225 44.8624 32.65 44.8624 33.0875 44.8749C33.325 44.8874 33.375 44.7999 33.375 44.5749C33.375 42.9874 33.375 41.3999 33.375 39.7999ZM26.475 39.8249C26.475 38.2124 26.475 36.6124 26.475 34.9999C26.475 34.7999 26.425 34.7249 26.2125 34.7249C25.7875 34.7374 25.3625 34.7374 24.9375 34.7249C24.7625 34.7249 24.7125 34.7874 24.7125 34.9624C24.7125 38.1874 24.7125 41.4124 24.7125 44.6374C24.7125 44.8124 24.7625 44.8749 24.9375 44.8749C25.35 44.8624 25.775 44.8624 26.1875 44.8749C26.425 44.8874 26.475 44.7999 26.475 44.5749C26.475 42.9999 26.475 41.4124 26.475 39.8249ZM40.175 39.8249C40.175 38.2124 40.175 36.6124 40.175 34.9999C40.175 34.7999 40.125 34.7249 39.9125 34.7249C39.525 34.7374 39.1375 34.7499 38.7625 34.7249C38.5125 34.7124 38.4625 34.7999 38.4625 35.0374C38.475 36.7124 38.4625 38.3749 38.4625 40.0499C38.4625 41.5749 38.4625 43.0999 38.4625 44.6124C38.4625 44.7999 38.5125 44.8749 38.7125 44.8749C39.1 44.8624 39.5 44.8624 39.8875 44.8749C40.125 44.8874 40.175 44.7999 40.175 44.5749C40.1625 42.9999 40.175 41.4124 40.175 39.8249ZM33.375 32.8624C33.375 32.6124 33.375 32.3624 33.375 32.1124C33.375 31.9749 33.325 31.9124 33.175 31.9249C32.7 31.9249 32.225 31.9249 31.7625 31.9249C31.625 31.9249 31.5625 31.9624 31.5625 32.1124C31.5625 32.6124 31.5625 33.0999 31.5625 33.5999C31.5625 33.7249 31.6125 33.7874 31.75 33.7749C32.225 33.7749 32.7125 33.7749 33.1875 33.7749C33.3375 33.7749 33.375 33.7124 33.375 33.5749C33.3625 33.3249 33.375 33.0874 33.375 32.8624ZM19.6375 46.7999C19.6375 46.5499 19.6375 46.2999 19.6375 46.0499C19.6375 45.9124 19.5875 45.8499 19.45 45.8499C18.975 45.8499 18.4875 45.8499 18.0125 45.8499C17.875 45.8499 17.8375 45.9124 17.8375 46.0374C17.8375 46.5374 17.8375 47.0249 17.8375 47.5249C17.8375 47.6499 17.8875 47.7124 18.0125 47.7124C18.4875 47.7124 18.975 47.7124 19.45 47.7124C19.6 47.7124 19.65 47.6499 19.6375 47.5124C19.6375 47.2624 19.6375 47.0249 19.6375 46.7999ZM33.375 46.7749C33.375 46.5374 33.375 46.2874 33.375 46.0499C33.375 45.9124 33.3375 45.8499 33.1875 45.8499C32.7125 45.8499 32.225 45.8499 31.75 45.8499C31.6 45.8499 31.5625 45.9124 31.5625 46.0499C31.5625 46.5374 31.5625 47.0249 31.5625 47.5124C31.5625 47.6499 31.6125 47.6999 31.7625 47.6999C32.2375 47.6999 32.7125 47.6999 33.175 47.6999C33.3375 47.6999 33.375 47.6374 33.375 47.4874C33.3625 47.2499 33.375 47.0124 33.375 46.7749ZM19.6375 32.8624C19.6375 32.6124 19.6375 32.3624 19.6375 32.1124C19.6375 31.9749 19.5875 31.9124 19.45 31.9124C18.975 31.9124 18.5 31.9124 18.0375 31.9124C17.9 31.9124 17.8375 31.9499 17.8375 32.0999C17.8375 32.5999 17.8375 33.0874 17.8375 33.5874C17.8375 33.7124 17.8875 33.7749 18.0125 33.7749C18.4875 33.7749 18.975 33.7749 19.45 33.7749C19.6 33.7749 19.6375 33.7124 19.6375 33.5749C19.6375 33.3249 19.6375 33.0999 19.6375 32.8624ZM24.725 32.8374C24.725 33.0874 24.725 33.3374 24.725 33.5874C24.725 33.6999 24.775 33.7624 24.8875 33.7624C25.3625 33.7624 25.8375 33.7624 26.3 33.7624C26.4375 33.7624 26.475 33.7124 26.475 33.5749C26.475 33.0749 26.475 32.5874 26.475 32.0874C26.475 31.9624 26.425 31.8999 26.3 31.8999C25.8375 31.8999 25.375 31.8999 24.9125 31.8999C24.7625 31.8999 24.7125 31.9624 24.725 32.0999C24.725 32.3499 24.725 32.5999 24.725 32.8374ZM26.475 46.7874C26.475 46.5499 26.475 46.2999 26.475 46.0624C26.475 45.9124 26.4375 45.8499 26.275 45.8499C25.825 45.8624 25.3625 45.8499 24.9 45.8499C24.7625 45.8499 24.7 45.8999 24.7125 46.0499C24.7125 46.5374 24.7125 47.0249 24.7125 47.5124C24.7125 47.6499 24.75 47.7124 24.9 47.7124C25.3625 47.7124 25.825 47.7124 26.2875 47.7124C26.425 47.7124 26.475 47.6624 26.4625 47.5249C26.475 47.2749 26.475 47.0249 26.475 46.7874ZM40.175 32.8374C40.175 32.5874 40.175 32.3374 40.175 32.0874C40.175 31.9749 40.125 31.9124 40.0125 31.9124C39.55 31.9124 39.1 31.9124 38.6375 31.9124C38.5 31.9124 38.4625 31.9749 38.4625 32.0999C38.4625 32.5999 38.4625 33.0874 38.4625 33.5874C38.4625 33.7124 38.5125 33.7749 38.6375 33.7749C39.0875 33.7749 39.5375 33.7749 39.9875 33.7749C40.1375 33.7749 40.1875 33.7124 40.175 33.5749C40.1625 33.3249 40.175 33.0749 40.175 32.8374ZM40.175 46.7999C40.175 46.5499 40.175 46.2999 40.175 46.0499C40.175 45.9124 40.125 45.8499 39.9875 45.8499C39.5375 45.8499 39.0875 45.8499 38.6375 45.8499C38.5 45.8499 38.4625 45.9124 38.4625 46.0374C38.4625 46.5374 38.4625 47.0249 38.4625 47.5249C38.4625 47.6499 38.5125 47.7124 38.6375 47.7124C39.0875 47.7124 39.5375 47.7124 39.9875 47.7124C40.1375 47.7124 40.1875 47.6499 40.175 47.5124C40.1625 47.2624 40.175 47.0249 40.175 46.7999Z" fill="#FCFCFC"/>
<path d="M11.6627 44.65C11.5127 44.65 11.3627 44.6625 11.2127 44.65C10.3502 44.6 9.78766 44 9.78766 43.1C9.77516 42.1875 9.78766 41.2625 9.77516 40.35C9.76266 39.3125 9.63766 38.275 9.55016 37.2375C9.50016 36.6 9.45016 35.975 9.40016 35.3375C9.32516 34.35 9.23766 33.3625 9.26266 32.375C9.30016 30.925 9.33766 29.475 9.72516 28.0625C10.0502 26.875 10.5752 25.8 11.5502 25C11.7377 24.8375 11.5752 24.8 11.4627 24.75C10.9002 24.5125 10.3752 24.2125 9.95016 23.775C9.70016 23.5125 9.52516 23.2125 9.40016 22.875C9.32516 22.65 9.35016 22.45 9.47516 22.25C9.72516 21.85 10.1002 21.6 10.5377 21.4375C11.3752 21.125 12.2502 21 13.1377 20.925C13.4502 20.9 13.7627 20.8875 14.0752 20.8625C14.3002 20.85 14.4877 20.925 14.6377 21.1C14.7752 21.2875 14.9252 21.475 15.0752 21.6625C15.1502 21.7625 15.1752 21.8375 15.0127 21.875C14.7002 21.95 14.4877 22.15 14.3252 22.4125C13.7877 23.2625 13.2502 24.1125 12.7127 24.9625C12.4502 25.375 12.3877 25.8375 12.3877 26.3125C12.3877 30.175 12.3877 34.05 12.3877 37.9125C12.3877 40.025 12.3877 42.1375 12.3877 44.2375C12.3877 44.6625 12.3877 44.6625 11.9752 44.6625C11.8752 44.65 11.7627 44.65 11.6627 44.65Z" fill="#FCFCFC"/>
<path d="M25.0752 28.0624C25.0752 27.5249 25.0627 26.9749 25.0752 26.4374C25.0877 25.9499 24.9502 25.4874 24.6877 25.0749C24.1002 24.1499 23.5502 23.2124 22.9252 22.3124C22.9002 22.2749 22.8377 22.2249 22.8627 22.1749C22.8877 22.1124 22.9627 22.1374 23.0127 22.1374C23.8252 22.1124 24.6502 22.0749 25.4627 22.0499C26.3127 22.0249 27.1752 22.0124 28.0377 21.9999C28.1252 21.9999 28.2627 21.9499 28.3002 22.0374C28.3502 22.1374 28.2127 22.1874 28.1627 22.2499C27.8127 22.7124 27.5252 23.2249 27.2127 23.7124C26.9752 24.0749 26.7627 24.4499 26.5252 24.8124C26.2377 25.2624 26.1002 25.7499 26.1127 26.2874C26.1252 27.4499 26.1127 28.6124 26.1127 29.7624C26.1127 30.3499 26.1002 30.3624 25.5127 30.3624C25.1502 30.3624 25.0877 30.3124 25.0877 29.9499C25.0752 29.3124 25.0877 28.6874 25.0752 28.0624Z" fill="#FCFCFC"/>
<path d="M18.1875 39.8749C18.1875 39.0624 18.2 38.2624 18.1875 37.4499C18.1875 37.2124 18.2625 37.1249 18.5 37.1499C18.6875 37.1624 18.875 37.1624 19.0625 37.1499C19.2125 37.1374 19.275 37.2124 19.275 37.3624C19.275 37.4124 19.275 37.4624 19.275 37.4999C19.275 39.0874 19.275 40.6624 19.275 42.2499C19.275 42.5999 19.275 42.5999 18.925 42.5999C18.1875 42.5999 18.1875 42.5999 18.1875 41.8749C18.1875 41.2124 18.1875 40.5374 18.1875 39.8749Z" fill="#FCFCFC"/>
<path d="M18.7125 35.7124C18.6125 35.7124 18.525 35.7124 18.425 35.7124C18.3 35.7124 18.175 35.6999 18.2 35.5249C18.2125 35.3874 18.2375 35.2624 18.425 35.2624C18.625 35.2624 18.8125 35.2749 19.0125 35.2624C19.2125 35.2499 19.25 35.3874 19.25 35.5374C19.2625 35.7124 19.1375 35.7124 19.0125 35.7124C18.925 35.7124 18.8125 35.7124 18.7125 35.7124Z" fill="#FCFCFC"/>
</g>
<mask id="mask1_6024_1658" style="mask-type:luminance" maskUnits="userSpaceOnUse" x="16" y="3" width="42" height="45">
<path d="M35.8876 8.87498L32.0501 3.09998L16.8501 13.2L25.1251 25.65V47.25H57.1251V8.87498H35.8876Z" fill="white"/>
</mask>
<g mask="url(#mask1_6024_1658)">
<mask id="mask2_6024_1658" style="mask-type:luminance" maskUnits="userSpaceOnUse" x="24" y="11" width="37" height="36">
<path d="M24.5936 46.7441L60.5811 46.7441L60.5811 11.4316L24.5936 11.4316L24.5936 46.7441Z" fill="white"/>
</mask>
<g mask="url(#mask2_6024_1658)">
<path d="M51.125 44.8C50.125 44.8 49.125 44.8 48.1125 44.8C47.25 44.8 46.65 44.25 46.5875 43.4C46.55 42.9 46.55 42.8875 46.05 42.8375C45.3625 42.775 44.6625 42.725 43.975 42.7C42.475 42.6375 40.975 42.6 39.4625 42.5625C35.4 42.45 31.3375 42.475 27.275 42.5125C24.6125 42.5375 21.95 42.625 19.2875 42.85C19.025 42.875 18.9125 42.9625 18.925 43.2375C18.9625 44.1625 18.175 44.8375 17.3 44.8125C15.3375 44.7625 13.375 44.7625 11.4125 44.8125C10.55 44.8375 9.87497 44.025 9.88747 43.3C9.91247 41.9625 9.94997 40.6125 9.83747 39.275C9.71247 37.775 9.58747 36.275 9.47497 34.7875C9.37497 33.3125 9.37497 31.8375 9.49997 30.375C9.57497 29.5625 9.64997 28.7625 9.89997 27.9875C10.2375 26.875 10.725 25.8375 11.6625 25.0875C11.8625 24.9375 11.775 24.8625 11.5875 24.7875C10.9375 24.5 10.3 24.1875 9.87497 23.6C9.26247 22.7625 9.31247 22.225 10.3125 21.6625C11.0375 21.25 11.8625 21.15 12.6875 21.05C13.1625 20.9875 13.6375 20.975 14.125 20.925C14.4125 20.9 14.625 20.9875 14.7875 21.225C14.9375 21.425 15.1 21.625 15.2625 21.8375C15.4 22.025 15.475 22.0125 15.5625 21.8C15.8625 20.9625 16.2125 20.15 16.5875 19.35C17.275 17.9 17.9625 16.4625 18.95 15.1875C19.5125 14.475 20.2375 14.0125 21.1375 13.8375C23.35 13.3875 25.5875 13.075 27.85 12.9125C29.5125 12.7875 31.1625 12.675 32.825 12.675C36.5875 12.675 40.3125 13.05 44.0125 13.7375C45.35 13.9875 46.3375 14.7 47.05 15.825C48.2 17.65 49.125 19.6 49.9125 21.6125C49.9375 21.6875 49.9625 21.75 50 21.825C50.075 22 50.15 22 50.2625 21.85C50.4375 21.625 50.6125 21.4 50.7875 21.1625C50.9 21.0125 51.0375 20.925 51.2125 20.925C52.525 20.9875 53.8375 21.075 55.075 21.5875C55.1375 21.6125 55.1875 21.6375 55.25 21.6625C56.1 22.1125 56.2625 22.75 55.7 23.525C55.275 24.125 54.65 24.475 53.9875 24.7625C53.6625 24.9 53.6625 24.9 53.9125 25.125C55.0625 26.1125 55.5625 27.425 55.8125 28.8625C56.15 30.75 56.15 32.65 56.0375 34.5625C55.875 37.45 55.475 40.3125 55.6125 43.2125C55.6375 43.7875 55.4 44.25 54.9375 44.575C54.725 44.725 54.5125 44.8 54.25 44.7875C53.2125 44.7875 52.175 44.8 51.125 44.8ZM32.4 15.125C31.925 15.175 31.1 15.125 30.275 15.1625C29.4875 15.2 28.7 15.25 27.9125 15.3125C26.0125 15.45 24.125 15.7625 22.2375 16.05C21.5 16.1625 20.9125 16.425 20.5 17.0875C19.5 18.725 18.6625 20.45 17.95 22.2375C17.8375 22.525 17.8625 22.55 18.175 22.525C19.3125 22.3875 20.4625 22.3 21.6125 22.25C23.5125 22.1625 25.425 22.075 27.325 22.0625C30.8125 22.0375 34.3 22 37.7875 22.0875C39.625 22.1375 41.475 22.15 43.3125 22.225C44.6375 22.2875 45.95 22.375 47.2625 22.5C47.6 22.5375 47.6375 22.5 47.5125 22.1875C46.9125 20.625 46.15 19.1375 45.3625 17.6625C44.825 16.675 44.1125 16.15 42.9625 15.975C39.5875 15.4625 36.1875 15.125 32.4 15.125ZM17.1375 34.0875C17.1375 34.075 17.1375 34.075 17.1375 34.0875C17.825 34.075 18.525 34.1125 19.2125 34.075C20.15 34.025 20.5625 33.3875 20.25 32.5C19.9375 31.6125 19.2875 31.1 18.375 30.9375C16.9125 30.675 15.45 30.475 13.975 30.35C13 30.2625 12.5 30.9125 12.7625 31.8625C12.8375 32.1375 12.9625 32.4 13.0875 32.6625C13.5125 33.6 14.2375 34.0625 15.25 34.075C15.875 34.0875 16.5125 34.0875 17.1375 34.0875ZM48.4 34.1C48.4 34.0875 48.4 34.0875 48.4 34.1C48.95 34.1 49.5125 34.1 50.0625 34.1C50.25 34.1 50.45 34.0875 50.6375 34.0625C51.9875 33.9125 52.65 32.6375 52.8 31.575C52.9125 30.8125 52.5625 30.4375 51.8 30.3625C51.65 30.35 51.5 30.3625 51.35 30.375C50.875 30.425 50.4 30.475 49.925 30.5375C48.95 30.6875 47.95 30.7375 46.9875 30.975C46.1375 31.1875 45.55 31.7125 45.275 32.55C45.0125 33.325 45.375 33.925 46.175 34.0625C46.3625 34.1 46.5625 34.1 46.75 34.1C47.2875 34.1 47.85 34.1 48.4 34.1ZM47.5625 35.825C46.825 35.825 46.0875 35.825 45.3625 35.825C45.1375 35.825 44.9125 35.8625 44.725 35.9875C44.275 36.2625 44.275 36.8375 44.7375 37.1C44.9375 37.2125 45.15 37.275 45.375 37.275C46.8375 37.2875 48.3 37.2875 49.75 37.275C50.05 37.275 50.3375 37.2 50.575 36.9875C50.9125 36.6875 50.8875 36.3 50.5125 36.05C50.3 35.9 50.05 35.8375 49.7875 35.825C49.05 35.825 48.3 35.825 47.5625 35.825ZM17.95 35.825C17.2625 35.825 16.5625 35.825 15.875 35.825C15.65 35.825 15.425 35.85 15.225 35.95C14.975 36.0625 14.8125 36.25 14.8 36.5375C14.7875 36.8375 14.9625 37.0125 15.2 37.1375C15.4 37.2375 15.625 37.2875 15.85 37.2875C17.275 37.2875 18.7 37.2875 20.125 37.2875C20.425 37.2875 20.6875 37.2 20.9375 37.025C21.3125 36.7625 21.3125 36.3375 20.9375 36.075C20.6625 35.8875 20.35 35.825 20.025 35.825C19.3375 35.8125 18.65 35.825 17.95 35.825Z" fill="#FCFCFC"/>
</g>
</g>
</svg>
