<svg width="64" height="65" viewBox="0 0 64 65" fill="none" xmlns="http://www.w3.org/2000/svg">
<path d="M55.4436 34.8983C58.6191 34.0079 60.7128 31.5724 60.12 29.4584C59.5273 27.3445 56.4725 26.3526 53.297 27.243C50.1216 28.1334 48.0279 30.5689 48.6206 32.6829C49.2134 34.7968 52.2682 35.7887 55.4436 34.8983Z" fill="#FFE836"/>
<mask id="mask0_6344_13945" style="mask-type:luminance" maskUnits="userSpaceOnUse" x="0" y="5" width="22" height="57">
<path d="M21.1149 5.45142H0V61.7454H21.1149V5.45142Z" fill="white"/>
</mask>
<g mask="url(#mask0_6344_13945)">
<path d="M55.526 17.3209C55.799 16.9626 56.0549 16.6385 56.3108 16.3143C56.4984 16.0755 56.7373 15.956 57.0614 15.956C58.5969 15.9731 60.1153 16.1437 61.5996 16.5702C62.0943 16.7067 62.572 16.9114 62.9815 17.2356C63.7151 17.8156 63.8516 18.4469 63.3909 19.2658C62.9985 19.9482 62.4185 20.4259 61.736 20.8012C61.4119 20.9889 61.0707 21.1254 60.7295 21.296C60.5759 21.3642 60.4906 21.4495 60.6612 21.586C62.4697 23.0703 63.118 25.1005 63.4762 27.3013C63.7833 29.178 63.8686 31.0717 63.7833 32.9655C63.698 34.7057 63.5786 36.4458 63.425 38.186C63.2886 39.6021 63.2033 41.0181 63.135 42.4341C63.0668 43.7478 63.0497 45.0444 63.1009 46.3581C63.135 47.4329 62.2137 48.5248 60.9683 48.4736C59.1599 48.4224 57.3344 48.4736 55.526 48.4395C54.6729 48.4224 53.8029 48.4565 52.9498 48.4565C51.7897 48.4736 50.8514 47.6888 50.7831 46.5287C50.7319 45.7609 50.5613 45.8462 50.0154 45.778C49.7254 45.7439 49.6401 45.6415 49.6401 45.3685C49.6571 43.1165 49.6401 40.8475 49.6401 38.5955C49.6401 38.186 49.6571 38.1519 50.0836 38.186C51.312 38.2543 52.5233 38.2201 53.7517 38.2201C54.2464 38.2201 54.7412 38.186 55.236 38.169C55.6113 38.1519 55.9525 38.0325 56.2255 37.7595C56.5837 37.4012 56.5496 36.9235 56.1572 36.6164C55.816 36.3605 55.4236 36.2752 55.0142 36.2752C53.4105 36.2752 51.7897 36.2752 50.186 36.2752C49.6571 36.2752 49.6571 36.2752 49.6571 35.7464C49.6571 35.1492 49.6571 34.5521 49.6571 33.955C49.6571 33.8356 49.6401 33.682 49.8619 33.7332C50.8172 33.9891 51.8068 33.9209 52.7792 33.9379C53.8199 33.9379 54.8606 33.9379 55.9013 33.8867C57.4538 33.8185 58.3751 32.9313 58.9381 31.5836C59.1258 31.14 59.2111 30.6793 59.2111 30.2016C59.2111 29.3998 58.8187 28.9562 57.9998 28.888C57.4538 28.8368 56.9249 28.905 56.3961 28.9733C54.8777 29.161 53.3593 29.3486 51.8409 29.6045C51.1414 29.724 50.4931 29.9628 49.9472 30.4234C49.8789 30.4746 49.8107 30.6111 49.7083 30.5429C49.623 30.4917 49.6571 30.3723 49.6571 30.2699C49.6571 27.8643 49.6401 25.4759 49.6571 23.0703C49.6571 22.5756 49.5377 22.1661 49.2818 21.7737C48.497 20.5283 47.7122 19.2999 46.9104 18.0545C46.8762 17.9862 46.7909 17.9351 46.8592 17.8668C46.9104 17.8156 46.9786 17.8327 47.0468 17.8327C48.5652 17.9351 50.0836 17.9862 51.602 18.1739C51.6703 18.191 51.7556 18.1739 51.8238 18.1739C52.0285 18.1739 52.0797 18.0886 51.9944 17.918C50.9708 15.4271 49.8448 12.9875 48.3946 10.7184C47.8828 9.93363 47.1321 9.62654 46.245 9.49005C44.5219 9.23414 42.7988 8.92705 41.0586 8.72233C39.762 8.56878 38.4654 8.44936 37.1517 8.36405C35.2921 8.26169 33.4154 8.17639 31.5558 8.19345C29.4573 8.21051 27.3589 8.32993 25.2604 8.50054C22.599 8.70526 19.9546 9.13178 17.3272 9.54124C16.5083 9.67772 15.86 10.0872 15.4335 10.8037C15.3141 10.9914 15.2117 11.1961 15.0752 11.3838C13.6933 13.2946 12.8062 15.4442 11.902 17.5939C11.6461 18.208 11.6972 18.2592 12.3797 18.1739C13.6421 18.0033 14.9046 17.9009 16.1671 17.8668C16.2524 17.8668 16.3889 17.8156 16.4401 17.9009C16.5083 18.0033 16.3718 18.0886 16.3207 18.1739C15.6382 19.2487 14.9558 20.3235 14.2734 21.3984C13.8981 21.9955 13.7104 22.6438 13.7274 23.3433C13.7445 24.9299 13.7274 26.5336 13.7274 28.1373C13.7274 28.9392 13.7104 28.9562 12.9085 28.9562C12.3285 28.9562 12.2602 28.888 12.2602 28.2909C12.2602 26.8578 12.2261 25.4247 12.2602 23.9916C12.2944 23.0021 12.0214 22.149 11.4754 21.3301C10.8442 20.3747 10.2471 19.3852 9.6329 18.4298C9.35993 18.0204 9.08696 17.5938 8.5922 17.4062C8.38747 17.3209 8.43865 17.1844 8.5069 17.0308C8.86517 16.1437 9.20638 15.2565 9.59878 14.3865C10.3836 12.578 11.339 10.8549 12.3626 9.1659C13.4204 7.42572 14.9388 6.45326 16.9519 6.16323C18.7433 5.89026 20.5176 5.54905 22.326 5.36138C23.4349 5.24196 24.5439 5.17371 25.6528 5.07135C27.2224 4.93487 28.792 4.8325 30.3786 4.78132C31.1805 4.7472 31.9653 4.73014 32.7671 4.79838C32.8695 4.79838 32.9548 4.81544 33.0571 4.81544C35.6504 4.81544 38.2265 4.95193 40.7856 5.25902C42.9694 5.51493 45.1361 5.8732 47.3028 6.23147C49.1965 6.53857 50.5784 7.59632 51.5679 9.20002C52.7792 11.162 53.8199 13.2093 54.7241 15.3418C54.98 15.956 55.2359 16.6214 55.526 17.3209Z" fill="#FCFCFC"/>
<path d="M4.80518 41.9223C4.80518 35.5757 4.80518 29.2292 4.80518 22.8826C4.80518 22.5755 4.87342 22.3026 5.04402 22.0467C5.82881 20.8183 6.6136 19.5729 7.39839 18.3274C7.44957 18.2421 7.50075 18.1739 7.569 18.0886C7.97845 17.5597 8.42203 17.5597 8.81442 18.1056C9.07033 18.4639 9.30918 18.8563 9.54803 19.2317C10.1793 20.2212 10.7935 21.2277 11.4418 22.2173C11.6635 22.5585 11.7659 22.8997 11.7659 23.3091C11.7489 25.3223 11.7659 27.3354 11.7488 29.3486C11.7488 29.6557 11.8342 29.741 12.1412 29.7239C12.7042 29.7069 13.2502 29.7069 13.8132 29.7239C14.1373 29.741 14.2397 29.6557 14.2397 29.3145C14.2226 27.1648 14.2397 25.0323 14.2226 22.8826C14.2226 22.5585 14.3079 22.2855 14.4785 22.0125C15.2633 20.7842 16.0311 19.5558 16.8159 18.3104C16.8841 18.191 16.9694 18.0715 17.0547 17.9692C17.3959 17.5768 17.8224 17.5597 18.1466 17.9692C18.4025 18.2933 18.6072 18.6687 18.8461 19.0099C19.5285 20.0847 20.2109 21.1595 20.8933 22.2343C21.0981 22.5414 21.1834 22.8656 21.1834 23.2238C21.1663 25.2541 21.1834 27.2672 21.1663 29.2974C21.1663 29.5875 21.2346 29.6898 21.5417 29.6898C22.1047 29.6728 22.6506 29.6728 23.2136 29.6898C23.5036 29.7069 23.5719 29.6045 23.5719 29.3145C23.5548 27.1478 23.5719 24.964 23.5548 22.7973C23.5548 22.5244 23.623 22.2855 23.7766 22.0467C24.5784 20.7842 25.3632 19.5217 26.1651 18.2763C26.2504 18.1398 26.3527 17.9862 26.4722 17.8668C26.7451 17.5938 27.1205 17.5938 27.3934 17.8668C27.5129 17.9862 27.6323 18.1398 27.7176 18.2933C28.5365 19.5899 29.3554 20.9036 30.1914 22.2002C30.3961 22.5244 30.4985 22.8656 30.4985 23.258C30.4814 25.2541 30.4985 27.2672 30.4985 29.2633C30.4985 29.6728 30.4985 29.6728 30.925 29.6728C31.488 29.6728 32.0339 29.6557 32.5969 29.6728C32.8699 29.6898 32.9723 29.5874 32.9723 29.3145C32.9552 27.1478 32.9723 24.964 32.9552 22.7973C32.9552 22.5244 33.0234 22.2855 33.177 22.0467C33.9788 20.7842 34.7636 19.5217 35.5655 18.2763C35.6337 18.1739 35.702 18.0545 35.7873 17.9692C36.1285 17.5597 36.5379 17.5597 36.8792 17.9521C36.9815 18.0715 37.0668 18.191 37.1351 18.3104C37.954 19.5899 38.7558 20.8865 39.5747 22.1661C39.7965 22.5073 39.8989 22.8656 39.8989 23.275C39.8818 25.2711 39.8989 27.2843 39.8818 29.2804C39.8818 29.5875 39.9671 29.6898 40.2742 29.6728C40.786 29.6557 41.2979 29.6386 41.8267 29.6728C42.1679 29.6898 42.2362 29.5704 42.2362 29.2462C42.2191 27.1478 42.2362 25.0493 42.2191 22.9509C42.2191 22.6779 42.2874 22.439 42.4409 22.2002C43.2769 20.9036 44.0958 19.5899 44.9147 18.2933C44.9829 18.191 45.0341 18.0886 45.1194 18.0033C45.5118 17.5256 45.9554 17.5085 46.3137 18.0203C46.7402 18.6175 47.1155 19.2487 47.4909 19.8629C48.0027 20.6647 48.5145 21.4837 49.0263 22.2855C49.1628 22.5073 49.2481 22.7461 49.2481 23.002C49.2481 35.661 49.2481 48.32 49.2481 60.9619C49.2481 61.4738 49.0434 61.7126 48.5145 61.7126C46.672 61.7126 44.8123 61.7126 42.9698 61.7126C42.4239 61.7126 42.2533 61.5249 42.2533 60.979C42.2533 58.7441 42.2533 56.5262 42.2533 54.2912C42.2533 53.9671 42.1679 53.8647 41.8438 53.8818C41.332 53.9159 40.8202 53.8988 40.2913 53.8818C39.9671 53.8647 39.8989 53.9841 39.8989 54.2912C39.9159 56.4579 39.8989 58.6417 39.8989 60.8084C39.8989 61.5079 39.6771 61.7126 38.9776 61.7297C37.2204 61.7297 35.4631 61.7297 33.6888 61.7297C33.5864 61.7297 33.5012 61.7297 33.3988 61.7126C33.1088 61.6785 32.9552 61.542 32.9552 61.2008C32.9723 58.8976 32.9552 56.5944 32.9723 54.2912C32.9723 53.9671 32.887 53.8647 32.5628 53.8818C31.9998 53.9159 31.4198 53.8988 30.8568 53.8818C30.5667 53.8647 30.4985 53.9841 30.4985 54.2571C30.5155 56.4409 30.4985 58.6246 30.4985 60.8084C30.4985 61.5079 30.2937 61.7297 29.5772 61.7297C27.82 61.7297 26.0627 61.7297 24.2884 61.7297C24.186 61.7297 24.1007 61.7297 23.9984 61.7126C23.7083 61.6785 23.5548 61.542 23.5548 61.2008C23.5719 58.8976 23.5548 56.5944 23.5719 54.2912C23.5719 53.9671 23.4866 53.8647 23.1624 53.8818C22.6165 53.9159 22.0705 53.8988 21.5246 53.8818C21.2346 53.8647 21.1663 53.9671 21.1663 54.2571C21.1834 56.4409 21.1663 58.6246 21.1663 60.8084C21.1663 61.5079 20.9616 61.7297 20.245 61.7297C18.4878 61.7297 16.7306 61.7297 14.9562 61.7297C14.888 61.7297 14.8027 61.7297 14.7345 61.7297C14.3421 61.6955 14.2226 61.5761 14.2226 61.1837C14.2226 58.8976 14.2226 56.5944 14.2226 54.3083C14.2226 53.9841 14.1544 53.8647 13.8132 53.8818C13.2502 53.9159 12.6701 53.8988 12.1071 53.8818C11.8171 53.8647 11.7488 53.9671 11.7488 54.2571C11.7659 56.4409 11.7488 58.6246 11.7488 60.8084C11.7488 61.5079 11.5441 61.7297 10.8276 61.7297C9.07033 61.7297 7.31309 61.7297 5.53878 61.7297C5.47054 61.7297 5.4023 61.7297 5.35112 61.7297C4.9246 61.6955 4.80518 61.5932 4.80518 61.1496C4.80518 55.2637 4.80518 49.3778 4.80518 43.4919C4.80518 42.98 4.80518 42.4512 4.80518 41.9223ZM48.0368 41.8711C48.0368 35.8658 48.0368 29.8604 48.0368 23.8551C48.0368 23.4968 47.9686 23.1556 47.7809 22.8485C47.1667 21.859 46.5525 20.8695 45.9213 19.88C45.7507 19.624 45.6995 19.624 45.5289 19.897C44.9147 20.8695 44.3005 21.8419 43.7034 22.8144C43.5157 23.1385 43.3792 23.4797 43.3792 23.8721C43.3792 35.8828 43.3792 47.8935 43.3792 59.9042C43.3792 60.3819 43.4304 60.4331 43.9252 60.4501C45.1194 60.4501 46.3137 60.4501 47.5079 60.4501C48.0368 60.4501 48.0539 60.4331 48.0539 59.9042C48.0368 53.8818 48.0368 47.8764 48.0368 41.8711ZM5.88 41.9052C5.88 47.8935 5.88 53.8988 5.88 59.8871C5.88 60.3819 5.91412 60.4331 6.37475 60.4331C7.58606 60.4331 8.79736 60.4331 10.0087 60.4331C10.4352 60.4331 10.5375 60.3307 10.5375 59.9042C10.5375 47.9276 10.5375 35.9511 10.5375 23.9745C10.5375 23.5821 10.4522 23.1897 10.2475 22.8485C9.63333 21.876 9.01915 20.8865 8.40497 19.9141C8.23436 19.6411 8.16612 19.6411 7.97845 19.9311C7.44957 20.7671 6.93775 21.6372 6.37475 22.4561C6.01648 22.985 5.88 23.5309 5.88 24.1451C5.88 30.0481 5.88 35.9681 5.88 41.9052ZM19.938 41.9223C19.938 35.9681 19.938 30.014 19.938 24.0598C19.938 23.6162 19.8697 23.1897 19.6309 22.7973C19.0337 21.8249 18.4196 20.8524 17.8054 19.88C17.6177 19.5899 17.5495 19.5899 17.3618 19.88C16.8329 20.7159 16.3211 21.586 15.7581 22.4049C15.3998 22.9338 15.2804 23.4797 15.2804 24.0939C15.2804 30.6623 15.2804 37.2477 15.2804 43.816C15.2804 49.173 15.2804 54.513 15.2804 59.8701C15.2804 60.3648 15.3145 60.3989 15.8093 60.3989C16.9694 60.3989 18.1295 60.3989 19.2896 60.3989C19.8868 60.3989 19.938 60.3478 19.938 59.7506C19.938 53.8306 19.938 47.8764 19.938 41.9223ZM24.6296 41.9052C24.6296 47.8935 24.6296 53.8988 24.6296 59.8871C24.6296 60.3819 24.6637 60.416 25.1585 60.4331C26.3357 60.4331 27.5129 60.4331 28.7071 60.4331C29.2019 60.4331 29.2872 60.3478 29.2872 59.853C29.2872 59.1365 29.2872 58.4199 29.2872 57.7034C29.2872 46.4945 29.2872 35.2857 29.2872 24.0769C29.2872 23.6162 29.2019 23.1556 28.946 22.7632C28.3488 21.8249 27.7688 20.8695 27.1717 19.9311C26.9669 19.5899 26.8987 19.5899 26.694 19.9311C26.1651 20.7671 25.6703 21.6201 25.1073 22.422C24.749 22.9509 24.6126 23.4968 24.6126 24.111C24.6296 30.0481 24.6296 35.9852 24.6296 41.9052ZM34.03 41.8711C34.03 47.8764 34.03 53.8818 34.03 59.8871C34.03 60.3819 34.0641 60.416 34.5589 60.4331C35.7361 60.4331 36.9133 60.4331 38.1075 60.4331C38.6023 60.4331 38.6876 60.3478 38.6876 59.853C38.6876 59.0682 38.6876 58.2834 38.6876 57.5157C38.6876 46.3751 38.6876 35.2345 38.6876 24.0769C38.6876 23.6162 38.6023 23.1556 38.3464 22.7632C37.7492 21.8249 37.1692 20.8695 36.5721 19.9311C36.3673 19.5899 36.2991 19.5899 36.0944 19.9311C35.5655 20.7671 35.0707 21.6201 34.5077 22.422C34.1495 22.9509 34.013 23.4968 34.013 24.111C34.03 30.031 34.03 35.9511 34.03 41.8711ZM11.7318 41.7687C11.7318 43.9696 11.7318 46.1533 11.7318 48.3541C11.7318 48.6271 11.8 48.7295 12.0901 48.7295C12.6872 48.7124 13.2843 48.7124 13.8985 48.7295C14.1373 48.7295 14.2056 48.6442 14.2056 48.4053C14.2056 44.0037 14.2056 39.602 14.2056 35.2004C14.2056 34.9615 14.1373 34.8762 13.8985 34.8762C13.3014 34.8933 12.7213 34.8933 12.1242 34.8762C11.8 34.8592 11.7318 34.9786 11.7318 35.2857C11.7489 37.4524 11.7318 39.6191 11.7318 41.7687ZM32.9552 41.8029C32.9552 39.6191 32.9552 37.4353 32.9552 35.2516C32.9552 34.9786 32.887 34.8762 32.5969 34.8762C31.9998 34.8933 31.4027 34.8933 30.7885 34.8762C30.5497 34.8762 30.4814 34.9615 30.4814 35.2004C30.4814 39.602 30.4814 44.0037 30.4814 48.4053C30.4814 48.6442 30.5497 48.7295 30.7885 48.7295C31.3856 48.7124 31.9657 48.7124 32.5628 48.7295C32.887 48.7465 32.9552 48.6271 32.9552 48.32C32.9552 46.1533 32.9552 43.9866 32.9552 41.8029ZM23.5377 41.837C23.5377 39.6362 23.5377 37.4524 23.5377 35.2516C23.5377 34.9786 23.4695 34.8762 23.1795 34.8762C22.5994 34.8933 22.0193 34.8933 21.4393 34.8762C21.2004 34.8762 21.1322 34.9615 21.1322 35.2004C21.1322 39.602 21.1322 44.0037 21.1322 48.4053C21.1322 48.6442 21.2004 48.7295 21.4393 48.7295C22.0023 48.7124 22.5823 48.7124 23.1453 48.7295C23.4695 48.7465 23.5377 48.6271 23.5377 48.32C23.5377 46.1704 23.5377 44.0037 23.5377 41.837ZM42.2362 41.837C42.2362 39.6362 42.2362 37.4524 42.2362 35.2516C42.2362 34.9786 42.1679 34.8762 41.8779 34.8762C41.349 34.8933 40.8202 34.9104 40.3083 34.8762C39.9671 34.8592 39.8989 34.9786 39.8989 35.3028C39.9159 37.5889 39.8989 39.8579 39.8989 42.1441C39.8989 44.2255 39.8989 46.3069 39.8989 48.3712C39.8989 48.6271 39.9671 48.7295 40.2401 48.7295C40.769 48.7124 41.3149 48.7124 41.8438 48.7295C42.1679 48.7465 42.2362 48.6271 42.2362 48.32C42.2191 46.1704 42.2362 44.0037 42.2362 41.837ZM32.9552 32.3342C32.9552 31.993 32.9552 31.6518 32.9552 31.3106C32.9552 31.1229 32.887 31.0376 32.6822 31.0547C32.0339 31.0547 31.3856 31.0547 30.7544 31.0547C30.5667 31.0547 30.4814 31.1058 30.4814 31.3106C30.4814 31.993 30.4814 32.6584 30.4814 33.3408C30.4814 33.5114 30.5497 33.5967 30.7373 33.5796C31.3856 33.5796 32.051 33.5796 32.6993 33.5796C32.904 33.5796 32.9552 33.4943 32.9552 33.3067C32.9381 32.9655 32.9552 32.6413 32.9552 32.3342ZM14.2056 51.3568C14.2056 51.0156 14.2056 50.6744 14.2056 50.3332C14.2056 50.1455 14.1373 50.0602 13.9497 50.0602C13.3014 50.0602 12.636 50.0602 11.9877 50.0602C11.8 50.0602 11.7488 50.1455 11.7488 50.3161C11.7488 50.9985 11.7488 51.6639 11.7488 52.3463C11.7488 52.5169 11.8171 52.6022 11.9877 52.6022C12.636 52.6022 13.3014 52.6022 13.9497 52.6022C14.1544 52.6022 14.2226 52.5169 14.2056 52.3293C14.2056 51.9881 14.2056 51.6639 14.2056 51.3568ZM32.9552 51.3227C32.9552 50.9985 32.9552 50.6573 32.9552 50.3332C32.9552 50.1455 32.904 50.0602 32.6993 50.0602C32.051 50.0602 31.3856 50.0602 30.7373 50.0602C30.5326 50.0602 30.4814 50.1455 30.4814 50.3332C30.4814 50.9985 30.4814 51.6639 30.4814 52.3293C30.4814 52.5169 30.5497 52.5852 30.7544 52.5852C31.4027 52.5852 32.051 52.5852 32.6822 52.5852C32.904 52.5852 32.9552 52.4999 32.9552 52.2951C32.9381 51.971 32.9552 51.6468 32.9552 51.3227ZM14.2056 32.3342C14.2056 31.993 14.2056 31.6518 14.2056 31.3106C14.2056 31.1229 14.1373 31.0376 13.9497 31.0376C13.3014 31.0376 12.6531 31.0376 12.0218 31.0376C11.8342 31.0376 11.7488 31.0888 11.7488 31.2935C11.7488 31.9759 11.7488 32.6413 11.7488 33.3237C11.7488 33.4943 11.8171 33.5796 11.9877 33.5796C12.636 33.5796 13.3014 33.5796 13.9497 33.5796C14.1544 33.5796 14.2056 33.4943 14.2056 33.3067C14.2056 32.9655 14.2056 32.6584 14.2056 32.3342ZM21.1493 32.3001C21.1493 32.6413 21.1493 32.9825 21.1493 33.3237C21.1493 33.4773 21.2175 33.5626 21.371 33.5626C22.0193 33.5626 22.6677 33.5626 23.2989 33.5626C23.4866 33.5626 23.5377 33.4943 23.5377 33.3067C23.5377 32.6242 23.5377 31.9589 23.5377 31.2765C23.5377 31.1058 23.4695 31.0205 23.2989 31.0205C22.6677 31.0205 22.0364 31.0205 21.4052 31.0205C21.2004 31.0205 21.1322 31.1058 21.1493 31.2935C21.1493 31.6347 21.1493 31.9759 21.1493 32.3001ZM23.5377 51.3397C23.5377 51.0156 23.5377 50.6744 23.5377 50.3502C23.5377 50.1455 23.4866 50.0602 23.2648 50.0602C22.6506 50.0773 22.0193 50.0602 21.3881 50.0602C21.2004 50.0602 21.1151 50.1284 21.1322 50.3332C21.1322 50.9985 21.1322 51.6639 21.1322 52.3293C21.1322 52.5169 21.1834 52.6022 21.3881 52.6022C22.0193 52.6022 22.6506 52.6022 23.2818 52.6022C23.4695 52.6022 23.5377 52.534 23.5207 52.3463C23.5377 52.0051 23.5377 51.6639 23.5377 51.3397ZM42.2362 32.3001C42.2362 31.9589 42.2362 31.6177 42.2362 31.2765C42.2362 31.1229 42.1679 31.0376 42.0144 31.0376C41.3832 31.0376 40.769 31.0376 40.1377 31.0376C39.9501 31.0376 39.8989 31.1229 39.8989 31.2935C39.8989 31.9759 39.8989 32.6413 39.8989 33.3237C39.8989 33.4943 39.9671 33.5796 40.1377 33.5796C40.7519 33.5796 41.3661 33.5796 41.9803 33.5796C42.185 33.5796 42.2533 33.4943 42.2362 33.3067C42.2191 32.9655 42.2362 32.6242 42.2362 32.3001ZM42.2362 51.3568C42.2362 51.0156 42.2362 50.6744 42.2362 50.3332C42.2362 50.1455 42.1679 50.0602 41.9803 50.0602C41.3661 50.0602 40.7519 50.0602 40.1377 50.0602C39.9501 50.0602 39.8989 50.1455 39.8989 50.3161C39.8989 50.9985 39.8989 51.6639 39.8989 52.3463C39.8989 52.5169 39.9671 52.6022 40.1377 52.6022C40.7519 52.6022 41.3661 52.6022 41.9803 52.6022C42.185 52.6022 42.2533 52.5169 42.2362 52.3293C42.2191 51.9881 42.2362 51.6639 42.2362 51.3568Z" fill="#FCFCFC"/>
<path d="M3.32114 48.4224C3.11641 48.4224 2.91168 48.4395 2.70695 48.4224C1.52977 48.3542 0.762043 47.5353 0.762043 46.3069C0.744983 45.0615 0.762042 43.799 0.744982 42.5536C0.727921 41.1375 0.557316 39.7215 0.437891 38.3055C0.369649 37.4354 0.301406 36.5823 0.233163 35.7123C0.130799 34.3645 0.0113752 33.0167 0.0454965 31.6689C0.0966784 29.6898 0.147861 27.7108 0.67674 25.783C1.12032 24.1622 1.83686 22.695 3.16759 21.6031C3.4235 21.3813 3.20171 21.3301 3.04817 21.2619C2.28044 20.9377 1.56389 20.5283 0.983831 19.9312C0.642618 19.5729 0.403769 19.1634 0.233163 18.7028C0.130799 18.3957 0.164922 18.1227 0.335528 17.8498C0.67674 17.3038 1.18856 16.9626 1.78568 16.7408C2.92874 16.3143 4.12299 16.1437 5.33429 16.0413C5.76081 16.0072 6.18732 15.9902 6.61384 15.956C6.92093 15.939 7.17684 16.0414 7.38157 16.2802C7.56923 16.5361 7.77396 16.792 7.97869 17.0479C8.08105 17.1844 8.11517 17.2868 7.89338 17.338C7.46687 17.4403 7.17684 17.7133 6.95505 18.0716C6.22144 19.2317 5.48784 20.3918 4.75423 21.5519C4.39596 22.1149 4.31065 22.7462 4.31065 23.3945C4.31065 28.6662 4.31065 33.955 4.31065 39.2267C4.31065 42.11 4.31065 44.9932 4.31065 47.8594C4.31065 48.4395 4.31065 48.4395 3.74765 48.4395C3.61117 48.4224 3.45762 48.4224 3.32114 48.4224Z" fill="#FCFCFC"/>
<path d="M21.6272 25.783C21.6272 25.0493 21.6102 24.2987 21.6272 23.5651C21.6443 22.8997 21.4566 22.2685 21.0984 21.7055C20.2965 20.443 19.5458 19.1634 18.6928 17.9351C18.6587 17.8839 18.5734 17.8156 18.6075 17.7474C18.6416 17.6621 18.744 17.6962 18.8122 17.6962C19.9212 17.6621 21.0472 17.6109 22.1561 17.5768C23.3162 17.5427 24.4934 17.5256 25.6706 17.5085C25.79 17.5085 25.9777 17.4403 26.0289 17.5597C26.0971 17.6962 25.9095 17.7645 25.8412 17.8498C25.3635 18.481 24.9711 19.1805 24.5446 19.8459C24.2205 20.3406 23.9304 20.8524 23.6063 21.3472C23.2139 21.9614 23.0262 22.6267 23.0433 23.3603C23.0603 24.947 23.0433 26.5336 23.0433 28.1032C23.0433 28.905 23.0262 28.9221 22.2244 28.9221C21.7296 28.9221 21.6443 28.8539 21.6443 28.3591C21.6272 27.489 21.6443 26.636 21.6272 25.783Z" fill="#FCFCFC"/>
<path d="M12.2266 41.9053C12.2266 40.7963 12.2436 39.7044 12.2266 38.5955C12.2266 38.2713 12.3289 38.1519 12.6531 38.186C12.909 38.2031 13.1649 38.2031 13.4208 38.186C13.6255 38.169 13.7108 38.2713 13.7108 38.4761C13.7108 38.5443 13.7108 38.6126 13.7108 38.6637C13.7108 40.8304 13.7108 42.9801 13.7108 45.1468C13.7108 45.6245 13.7108 45.6245 13.2331 45.6245C12.2266 45.6245 12.2266 45.6245 12.2266 44.635C12.2266 43.7307 12.2266 42.8095 12.2266 41.9053Z" fill="#FCFCFC"/>
<path d="M12.9426 36.224C12.8062 36.224 12.6867 36.224 12.5503 36.224C12.3796 36.224 12.209 36.207 12.2432 35.9681C12.2602 35.7805 12.2943 35.6098 12.5503 35.6098C12.8232 35.6098 13.0791 35.6269 13.3521 35.6098C13.6251 35.5928 13.6763 35.7804 13.6763 35.9852C13.6933 36.224 13.5227 36.224 13.3521 36.224C13.2327 36.224 13.0791 36.224 12.9426 36.224Z" fill="#FCFCFC"/>
</g>
<mask id="mask1_6344_13945" style="mask-type:luminance" maskUnits="userSpaceOnUse" x="10" y="4" width="54" height="48">
<path d="M35.7365 4.20789L28.6746 4.2079L10.4009 5.49787L21.4135 22.4903V51.971H63.9999V4.20789H35.7365Z" fill="white"/>
</mask>
<g mask="url(#mask1_6344_13945)">
<mask id="mask2_6344_13945" style="mask-type:luminance" maskUnits="userSpaceOnUse" x="20" y="3" width="51" height="49">
<path d="M20.9699 51.2806L70.0874 51.2806V3.08438L20.9699 3.08438L20.9699 51.2806Z" fill="white"/>
</mask>
<g mask="url(#mask2_6344_13945)">
<path d="M57.1813 48.6272C55.8164 48.6272 54.4516 48.6272 53.0697 48.6272C51.8925 48.6272 51.0736 47.8765 50.9883 46.7164C50.9371 46.034 50.9371 46.0169 50.2547 45.9487C49.3163 45.8634 48.3609 45.7951 47.4226 45.761C45.3753 45.6757 43.328 45.6245 41.2637 45.5733C35.719 45.4198 30.1743 45.4539 24.6296 45.5051C20.9957 45.5392 17.3618 45.6586 13.7279 45.9657C13.3696 45.9998 13.216 46.1193 13.2331 46.4946C13.2843 47.7571 12.2095 48.6784 11.0152 48.6442C8.3367 48.576 5.65819 48.576 2.97967 48.6442C1.80249 48.6784 0.881211 47.5694 0.898271 46.5799C0.932392 44.7544 0.983574 42.9119 0.830028 41.0864C0.659422 39.0391 0.488817 36.9918 0.335271 34.9616C0.198786 32.9485 0.198786 30.9353 0.369392 28.9392C0.471756 27.8303 0.574119 26.7384 0.915332 25.6806C1.37597 24.1622 2.04133 22.7462 3.32088 21.7226C3.59385 21.5178 3.47443 21.4155 3.21852 21.3131C2.33136 20.9207 1.46127 20.4942 0.881211 19.6924C0.0452403 18.5493 0.113483 17.8157 1.47833 17.048C2.46785 16.485 3.59385 16.3485 4.71985 16.212C5.36816 16.1267 6.01646 16.1096 6.68182 16.0414C7.07422 16.0073 7.36425 16.1267 7.58604 16.4508C7.79076 16.7238 8.01255 16.9968 8.23434 17.2868C8.42201 17.5427 8.52437 17.5257 8.64379 17.2356C9.05325 16.0926 9.53095 14.9836 10.0428 13.8917C10.9811 11.9127 11.9194 9.95074 13.2672 8.21056C14.035 7.2381 15.0245 6.60686 16.2528 6.36801C19.2726 5.75383 22.3264 5.32731 25.4144 5.10552C27.6835 4.93492 29.9355 4.78137 32.2045 4.78137C37.3398 4.78137 42.4238 5.29319 47.4738 6.23153C49.2993 6.57274 50.647 7.54519 51.6195 9.08065C53.1891 11.5715 54.4516 14.233 55.5264 16.9797C55.5605 17.0821 55.5946 17.1674 55.6458 17.2697C55.7482 17.5086 55.8505 17.5086 56.0041 17.3039C56.2429 16.9968 56.4818 16.6897 56.7206 16.3655C56.8742 16.1608 57.0619 16.0414 57.3007 16.0414C59.0921 16.1267 60.8834 16.2461 62.5724 16.9456C62.6577 16.9797 62.726 17.0138 62.8113 17.048C63.9714 17.6621 64.1932 18.5322 63.4255 19.59C62.8454 20.4089 61.9924 20.8866 61.0882 21.279C60.6446 21.4667 60.6446 21.4667 60.9858 21.7738C62.5554 23.1215 63.2378 24.9129 63.579 26.8749C64.0396 29.451 64.0396 32.0443 63.8861 34.6545C63.6643 38.5955 63.1184 42.5024 63.306 46.4605C63.3402 47.2453 63.016 47.8765 62.3848 48.3201C62.0947 48.5248 61.8047 48.6272 61.4464 48.6101C60.0304 48.6101 58.6144 48.6272 57.1813 48.6272ZM31.6245 8.12525C30.9762 8.1935 29.8502 8.12525 28.7241 8.17644C27.6493 8.22762 26.5745 8.29586 25.4997 8.38116C22.9065 8.56883 20.3303 8.99535 17.7542 9.38774C16.7476 9.54129 15.9457 9.89956 15.3827 10.8038C14.0179 13.0387 12.8748 15.3931 11.9024 17.8327C11.7488 18.2251 11.7829 18.2593 12.2095 18.2251C13.762 18.0375 15.3316 17.9181 16.9011 17.8498C19.4944 17.7304 22.1046 17.611 24.6978 17.5939C29.4578 17.5598 34.2177 17.5086 38.9776 17.628C41.4855 17.6963 44.0105 17.7133 46.5184 17.8157C48.3268 17.901 50.1182 18.0204 51.9095 18.191C52.3702 18.2422 52.4214 18.191 52.2508 17.7645C51.4318 15.6319 50.3911 13.6017 49.3163 11.5886C48.5827 10.2408 47.6103 9.52423 46.0407 9.28538C41.4343 8.58589 36.7938 8.12525 31.6245 8.12525ZM10.7934 34.0062C10.7934 33.9892 10.7934 33.9892 10.7934 34.0062C11.7318 33.9892 12.6872 34.0403 13.6255 33.9892C14.905 33.9209 15.468 33.0508 15.0415 31.8395C14.615 30.6282 13.7279 29.9287 12.4824 29.7069C10.4863 29.3487 8.49025 29.0757 6.4771 28.9051C5.14637 28.7857 4.46394 29.6728 4.82221 30.9694C4.92458 31.3448 5.09518 31.703 5.26579 32.0613C5.84585 33.3409 6.83537 33.9721 8.21728 33.9892C9.07031 34.0062 9.9404 34.0062 10.7934 34.0062ZM53.4621 34.0233C53.4621 34.0062 53.4621 34.0062 53.4621 34.0233C54.2127 34.0233 54.9805 34.0233 55.7311 34.0233C55.987 34.0233 56.26 34.0062 56.5159 33.9721C58.3585 33.7674 59.2627 32.0272 59.4674 30.577C59.6209 29.5363 59.1432 29.0245 58.1025 28.9222C57.8978 28.9051 57.6931 28.9222 57.4884 28.9392C56.8401 29.0075 56.1918 29.0757 55.5435 29.161C54.2127 29.3657 52.8479 29.434 51.5342 29.7581C50.3741 30.0482 49.5722 30.7647 49.1969 31.9078C48.8386 32.9655 49.3334 33.7844 50.4253 33.9721C50.6812 34.0233 50.9541 34.0233 51.2101 34.0233C51.9437 34.0233 52.7114 34.0233 53.4621 34.0233ZM52.319 36.3776C51.3124 36.3776 50.3058 36.3776 49.3163 36.3776C49.0092 36.3776 48.7021 36.4288 48.4462 36.5994C47.832 36.9748 47.832 37.7596 48.4633 38.1178C48.7363 38.2714 49.0263 38.3567 49.3334 38.3567C51.3295 38.3737 53.3256 38.3737 55.3046 38.3567C55.7141 38.3567 56.1065 38.2543 56.4306 37.9643C56.8912 37.5548 56.8571 37.026 56.3453 36.6847C56.0553 36.48 55.7141 36.3947 55.3558 36.3776C54.3492 36.3776 53.3256 36.3776 52.319 36.3776ZM11.9024 36.3776C10.964 36.3776 10.0086 36.3776 9.07031 36.3776C8.76322 36.3776 8.45613 36.4118 8.18316 36.5483C7.84195 36.7018 7.62016 36.9577 7.6031 37.3501C7.58604 37.7596 7.82488 37.9984 8.14904 38.169C8.42201 38.3055 8.7291 38.3737 9.03619 38.3737C10.9811 38.3737 12.926 38.3737 14.8709 38.3737C15.2804 38.3737 15.6386 38.2543 15.9799 38.0155C16.4917 37.6572 16.4917 37.0771 15.9799 36.7189C15.6045 36.463 15.178 36.3776 14.7344 36.3776C13.7961 36.3606 12.8578 36.3776 11.9024 36.3776Z" fill="#FCFCFC"/>
</g>
</g>
</svg>
