<?xml version="1.0" encoding="UTF-8"?>
<svg height="600" width="800" xmlns="http://www.w3.org/2000/svg" xmlns:xlink="http://www.w3.org/1999/xlink">
    <g id="Notes" font-family="'LucidaGrande', 'Lucida Grande', sans-serif" font-size="13">
        <rect fill="white" height="600.0" width="800.0" x="0.0" y="0.0" />
        <g font-size="13">
            <text x="18.0" y="176.0">Small</text>
            <text x="18.0" y="376.0">Medium</text>
            <text x="18.0" y="576.0">Large</text>
        </g>
        <g font-size="9">
            <text x="250.0" y="30.0">Ultralight</text>
            <text x="450.0" y="30.0">Regular</text>
            <text x="650.0" y="30.0">Black</text>
            <text id="template-version" fill="#505050" text-anchor="end" x="785.0" y="575.0">Template v.3.0</text>
            <a href="https://github.com/swhitty/SwiftDraw">
                <text fill="#505050" text-anchor="end" x="785.0" y="590.0">https://github.com/swhitty/SwiftDraw</text>
            </a>
        </g>
    </g>
    <g id="Guides" stroke="rgb(39, 170, 225)" stroke-width="0.5">
        <path id="Capline-S" d="M18,76 l800,0" />
        <path id="H-reference" d="M85,145.755 L87.685,145.755 L113.369,79.287 L114.052,79.287 L114.052,76 L112.148,76 L85,145.755 Z M95.693,121.536 L130.996,121.536 L130.263,119.313 L96.474,119.313 L95.693,121.536 Z M139.15,145.755 L141.787,145.755 L114.638,76 L113.466,76 L113.466,79.287 L139.15,145.755 Z" stroke="none" />
        <path id="Baseline-S" d="M18,146 l800,0" />
        <path id="left-margin-Ultralight-S" d="M219.443,56 l0,110" />
        <path id="right-margin-Ultralight-S" d="M310.557,56 l0,110" />
        <path id="left-margin-Regular-S" d="M419.443,56 l0,110" />
        <path id="right-margin-Regular-S" d="M510.557,56 l0,110" />
        <path id="left-margin-Black-S" d="M619.443,56 l0,110" />
        <path id="right-margin-Black-S" d="M710.557,56 l0,110" />
        <path id="Capline-M" d="M18,276 l800,0" />
        <path id="Baseline-M" d="M18,346 l800,0" />
        <path id="Capline-L" d="M18,476 l800,0" />
        <path id="Baseline-L" d="M18,546 l800,0" />
    </g>
    <g id="Symbols">
        <g id="Ultralight-S">
            <path d="M253.85,117.029 L253.85,89.318 C253.85,88.823 253.974,88.41 254.242,88.018 C256.307,85.106 258.372,82.174 260.437,79.262 C260.994,78.478 261.696,78.209 262.357,78.519 C262.832,78.746 263.162,79.18 263.431,79.634 C264.03,80.667 264.608,81.699 265.186,82.752 L269.15,89.814 C269.46,90.371 269.625,90.929 269.625,91.569 C269.605,93.655 269.625,95.74 269.625,97.826 C269.625,98.424 269.625,98.424 270.203,98.466 C271.236,98.528 272.248,98.548 273.28,98.672 C273.693,98.714 273.755,98.59 273.755,98.218 C273.755,94.109 273.755,90 273.734,85.891 C273.734,85.333 273.879,84.879 274.168,84.425 C275.717,82.009 277.224,79.593 278.773,77.177 C278.979,76.847 279.186,76.496 279.516,76.248 C280.012,75.876 280.631,75.917 281.065,76.372 C281.395,76.723 281.643,77.136 281.87,77.569 C283.336,80.501 284.782,83.434 286.248,86.366 C286.578,87.006 286.723,87.687 286.723,88.431 C286.702,91.92 286.723,95.41 286.723,98.92 C286.723,99.519 286.743,99.519 287.342,99.54 C288.023,99.56 288.705,99.581 289.386,99.643 C289.717,99.663 289.779,99.581 289.779,99.271 C289.758,97.206 289.779,95.141 289.779,93.056 C289.779,92.643 289.861,92.292 290.068,91.92 C291.389,89.546 292.711,87.15 294.032,84.776 C294.424,84.074 294.982,83.805 295.581,84.074 C295.973,84.239 296.18,84.59 296.345,84.962 C296.964,86.262 297.584,87.584 298.203,88.905 C298.864,90.33 299.504,91.734 300.165,93.159 C300.433,93.737 300.557,94.315 300.557,94.956 L300.557,135.448 C300.495,136.377 300.041,136.914 299.132,137.1 L291.141,138.772 C290.274,138.958 289.82,138.586 289.82,137.719 L289.82,129.377 C289.82,128.881 289.82,128.881 289.324,128.943 C288.643,129.047 287.941,129.129 287.259,129.212 C286.908,129.253 286.743,129.377 286.764,129.769 C286.784,132.433 286.784,135.076 286.764,137.74 C286.764,139.102 286.289,139.701 284.926,139.99 L275.448,141.973 C275.221,142.014 274.994,142.035 274.746,142.035 C274.147,141.993 273.796,141.642 273.796,141.023 L273.796,131.607 C273.796,131.194 273.693,131.091 273.301,131.153 C272.227,131.318 271.153,131.462 270.1,131.607 C269.749,131.648 269.667,131.793 269.667,132.123 C269.687,135.117 269.667,138.132 269.667,141.126 C269.667,142.509 269.192,143.108 267.85,143.377 C263.782,144.223 259.735,145.07 255.667,145.917 C255.481,145.958 255.295,145.979 255.089,145.999 C254.221,146.02 253.891,145.689 253.891,144.843 C253.85,135.551 253.85,126.28 253.85,117.029 Z M256.761,116.43 L256.761,141.787 C256.761,142.613 256.844,142.675 257.628,142.53 C258.888,142.303 260.148,142.055 261.428,141.807 C263.059,141.498 264.711,141.167 266.342,140.858 C266.735,140.775 266.9,140.548 266.92,140.176 C266.92,140.032 266.941,139.908 266.941,139.763 L266.941,92.251 C266.941,91.61 266.796,91.032 266.487,90.475 C265.103,88.038 263.72,85.602 262.316,83.144 C262.027,82.649 261.903,82.649 261.572,83.124 C260.189,85.147 258.805,87.171 257.401,89.195 C256.947,89.855 256.72,90.557 256.72,91.383 C256.761,99.746 256.761,108.088 256.761,116.43 Z M276.398,112.713 L276.398,138.318 C276.378,138.607 276.481,138.71 276.79,138.648 C278.938,138.235 281.106,137.822 283.274,137.409 C284.183,137.244 284.183,137.223 284.183,136.315 L284.183,88.678 C284.183,88.141 284.1,87.646 283.852,87.171 C282.758,84.982 281.643,82.793 280.548,80.605 C280.383,80.295 280.28,80.316 280.115,80.605 C279.041,82.36 277.967,84.094 276.873,85.829 C276.522,86.407 276.378,86.985 276.378,87.666 C276.398,96.009 276.398,104.371 276.398,112.713 Z M292.112,114.696 L292.112,135.241 C292.091,135.551 292.236,135.613 292.525,135.551 C294.239,135.221 295.952,134.87 297.666,134.56 C298.079,134.477 298.182,134.312 298.182,133.92 L298.182,95.203 C298.182,94.728 298.079,94.295 297.873,93.861 C297.047,92.106 296.221,90.33 295.416,88.575 C295.374,88.472 295.354,88.307 295.209,88.286 C295.023,88.265 295.023,88.451 294.961,88.575 C294.28,89.814 293.64,91.094 292.917,92.312 C292.318,93.304 292.07,94.336 292.07,95.492 C292.132,101.894 292.112,108.295 292.112,114.696 Z M269.605,115.026 L269.605,122.418 C269.605,122.707 269.646,122.831 269.997,122.79 C271.091,122.687 272.206,122.604 273.301,122.522 C273.59,122.501 273.755,122.418 273.755,122.088 L273.755,107.675 C273.755,107.365 273.631,107.283 273.342,107.283 C272.268,107.283 271.215,107.262 270.142,107.221 C269.729,107.2 269.605,107.303 269.605,107.737 C269.625,110.153 269.605,112.59 269.605,115.026 Z M286.702,114.303 L286.702,120.828 C286.702,121.2 286.805,121.324 287.177,121.283 C287.92,121.2 288.684,121.159 289.427,121.097 C289.717,121.076 289.779,120.932 289.779,120.663 L289.779,107.716 C289.779,107.427 289.675,107.345 289.386,107.345 C288.663,107.365 287.941,107.365 287.218,107.345 C286.826,107.324 286.702,107.448 286.702,107.84 C286.723,110.008 286.702,112.156 286.702,114.303 Z M269.605,127.23 C269.605,127.973 269.625,128.737 269.605,129.48 C269.605,129.79 269.667,129.893 269.997,129.852 C271.133,129.687 272.268,129.563 273.425,129.418 C273.714,129.377 273.755,129.212 273.755,128.964 C273.755,127.498 273.734,126.032 273.755,124.566 C273.755,124.277 273.693,124.173 273.383,124.215 C272.227,124.339 271.071,124.442 269.914,124.545 C269.646,124.566 269.605,124.71 269.605,124.917 C269.625,125.681 269.605,126.445 269.605,127.23 Z M273.755,102.988 C273.755,102.265 273.734,101.543 273.755,100.82 C273.755,100.51 273.672,100.386 273.342,100.365 C272.227,100.324 271.091,100.262 269.976,100.2 C269.667,100.18 269.605,100.262 269.605,100.551 C269.625,102.079 269.625,103.587 269.605,105.115 C269.605,105.445 269.729,105.528 270.038,105.528 C271.174,105.528 272.31,105.548 273.445,105.569 C273.693,105.569 273.755,105.486 273.755,105.259 C273.734,104.495 273.755,103.731 273.755,102.988 Z M286.702,103.421 C286.702,104.062 286.723,104.702 286.702,105.342 C286.681,105.652 286.805,105.796 287.115,105.796 C287.899,105.796 288.705,105.817 289.489,105.837 C289.737,105.837 289.779,105.693 289.779,105.486 L289.779,101.543 C289.779,101.274 289.675,101.171 289.427,101.171 C288.643,101.13 287.879,101.088 287.094,101.026 C286.764,101.006 286.702,101.15 286.702,101.439 C286.723,102.1 286.702,102.761 286.702,103.421 Z M286.702,125.268 L286.702,127.312 C286.702,127.539 286.743,127.663 287.012,127.622 C287.837,127.498 288.663,127.395 289.489,127.291 C289.696,127.271 289.779,127.168 289.758,126.961 L289.758,122.852 C289.758,122.645 289.675,122.584 289.489,122.604 C288.684,122.687 287.858,122.769 287.053,122.831 C286.764,122.852 286.681,122.996 286.702,123.265 C286.723,123.946 286.702,124.607 286.702,125.268 Z M229.443,116.141 L229.443,93.944 C229.443,93.51 229.567,93.159 229.794,92.787 C231.384,90.268 232.953,87.749 234.543,85.23 C234.75,84.9 234.977,84.569 235.286,84.301 C235.761,83.908 236.36,83.908 236.815,84.321 C237.083,84.569 237.289,84.838 237.475,85.147 C239.086,87.687 240.697,90.248 242.307,92.787 C242.658,93.324 242.844,93.902 242.844,94.563 C242.823,108.955 242.844,123.327 242.844,137.719 L242.844,138.091 C242.823,139.041 242.328,139.536 241.399,139.557 C240.49,139.577 239.561,139.557 238.652,139.557 L231.136,139.557 C230.909,139.557 230.702,139.557 230.475,139.536 C229.773,139.453 229.484,139.123 229.484,138.421 C229.443,131.008 229.443,123.575 229.443,116.141 Z M240.325,115.769 L240.325,95.348 C240.325,94.811 240.263,94.295 239.953,93.82 C238.735,91.9 237.537,89.959 236.319,88.038 C236.051,87.625 235.947,87.625 235.679,88.038 C234.481,89.938 233.304,91.817 232.127,93.717 C231.838,94.192 231.694,94.708 231.694,95.265 L231.694,136.397 C231.694,137.1 231.776,137.182 232.478,137.182 L239.334,137.182 C240.304,137.182 240.304,137.182 240.304,136.191 C240.325,129.377 240.325,122.584 240.325,115.769 Z" />
        </g>
        <g id="Regular-S">
            <path d="M453.85,117.029 L453.85,89.318 C453.85,88.823 453.974,88.41 454.242,88.018 C456.307,85.106 458.372,82.174 460.437,79.262 C460.994,78.478 461.696,78.209 462.357,78.519 C462.832,78.746 463.162,79.18 463.431,79.634 C464.03,80.667 464.608,81.699 465.186,82.752 L469.15,89.814 C469.46,90.371 469.625,90.929 469.625,91.569 C469.605,93.655 469.625,95.74 469.625,97.826 C469.625,98.424 469.625,98.424 470.203,98.466 C471.236,98.528 472.248,98.548 473.28,98.672 C473.693,98.714 473.755,98.59 473.755,98.218 C473.755,94.109 473.755,90 473.734,85.891 C473.734,85.333 473.879,84.879 474.168,84.425 C475.717,82.009 477.224,79.593 478.773,77.177 C478.979,76.847 479.186,76.496 479.516,76.248 C480.012,75.876 480.631,75.917 481.065,76.372 C481.395,76.723 481.643,77.136 481.87,77.569 C483.336,80.501 484.781,83.434 486.248,86.366 C486.578,87.006 486.722,87.687 486.722,88.431 C486.702,91.92 486.722,95.41 486.722,98.92 C486.722,99.519 486.743,99.519 487.342,99.54 C488.023,99.56 488.705,99.581 489.386,99.643 C489.716,99.663 489.779,99.581 489.779,99.271 C489.758,97.206 489.779,95.141 489.779,93.056 C489.779,92.643 489.861,92.292 490.068,91.92 C491.389,89.546 492.711,87.15 494.032,84.776 C494.424,84.074 494.982,83.805 495.581,84.074 C495.973,84.239 496.18,84.59 496.345,84.962 C496.964,86.262 497.584,87.584 498.203,88.905 C498.864,90.33 499.504,91.734 500.165,93.159 C500.433,93.737 500.557,94.315 500.557,94.956 L500.557,135.448 C500.495,136.377 500.041,136.914 499.132,137.1 L491.141,138.772 C490.274,138.958 489.82,138.586 489.82,137.719 L489.82,129.377 C489.82,128.881 489.82,128.881 489.324,128.943 C488.643,129.047 487.941,129.129 487.259,129.212 C486.908,129.253 486.743,129.377 486.764,129.769 C486.784,132.433 486.784,135.076 486.764,137.74 C486.764,139.102 486.289,139.701 484.926,139.99 L475.448,141.973 C475.221,142.014 474.994,142.035 474.746,142.035 C474.147,141.993 473.796,141.642 473.796,141.023 L473.796,131.607 C473.796,131.194 473.693,131.091 473.301,131.153 C472.227,131.318 471.153,131.462 470.1,131.607 C469.749,131.648 469.667,131.793 469.667,132.123 C469.687,135.117 469.667,138.132 469.667,141.126 C469.667,142.509 469.192,143.108 467.85,143.377 C463.782,144.223 459.735,145.07 455.667,145.917 C455.481,145.958 455.295,145.979 455.089,145.999 C454.221,146.02 453.891,145.689 453.891,144.843 C453.85,135.551 453.85,126.28 453.85,117.029 Z M456.761,116.43 L456.761,141.787 C456.761,142.613 456.844,142.675 457.628,142.53 C458.888,142.303 460.148,142.055 461.428,141.807 C463.059,141.498 464.711,141.167 466.342,140.858 C466.734,140.775 466.9,140.548 466.92,140.176 C466.92,140.032 466.941,139.908 466.941,139.763 L466.941,92.251 C466.941,91.61 466.796,91.032 466.487,90.475 C465.103,88.038 463.72,85.602 462.316,83.144 C462.027,82.649 461.903,82.649 461.572,83.124 C460.189,85.147 458.805,87.171 457.401,89.195 C456.947,89.855 456.72,90.557 456.72,91.383 C456.761,99.746 456.761,108.088 456.761,116.43 Z M476.398,112.713 L476.398,138.318 C476.377,138.607 476.481,138.71 476.79,138.648 C478.938,138.235 481.106,137.822 483.274,137.409 C484.183,137.244 484.183,137.223 484.183,136.315 L484.183,88.678 C484.183,88.141 484.1,87.646 483.852,87.171 C482.758,84.982 481.643,82.793 480.548,80.605 C480.383,80.295 480.28,80.316 480.115,80.605 C479.041,82.36 477.967,84.094 476.873,85.829 C476.522,86.407 476.377,86.985 476.377,87.666 C476.398,96.009 476.398,104.371 476.398,112.713 Z M492.112,114.696 L492.112,135.241 C492.091,135.551 492.236,135.613 492.525,135.551 C494.239,135.221 495.952,134.87 497.666,134.56 C498.079,134.477 498.182,134.312 498.182,133.92 L498.182,95.203 C498.182,94.728 498.079,94.295 497.873,93.861 C497.047,92.106 496.221,90.33 495.416,88.575 C495.374,88.472 495.354,88.307 495.209,88.286 C495.023,88.265 495.023,88.451 494.961,88.575 C494.28,89.814 493.64,91.094 492.917,92.312 C492.318,93.304 492.07,94.336 492.07,95.492 C492.132,101.894 492.112,108.295 492.112,114.696 Z M469.605,115.026 L469.605,122.418 C469.605,122.707 469.646,122.831 469.997,122.79 C471.091,122.687 472.206,122.604 473.301,122.522 C473.59,122.501 473.755,122.418 473.755,122.088 L473.755,107.675 C473.755,107.365 473.631,107.283 473.342,107.283 C472.268,107.283 471.215,107.262 470.142,107.221 C469.729,107.2 469.605,107.303 469.605,107.737 C469.625,110.153 469.605,112.59 469.605,115.026 Z M486.702,114.303 L486.702,120.828 C486.702,121.2 486.805,121.324 487.177,121.283 C487.92,121.2 488.684,121.159 489.427,121.097 C489.716,121.076 489.779,120.932 489.779,120.663 L489.779,107.716 C489.779,107.427 489.675,107.345 489.386,107.345 C488.663,107.365 487.941,107.365 487.218,107.345 C486.826,107.324 486.702,107.448 486.702,107.84 C486.722,110.008 486.702,112.156 486.702,114.303 Z M469.605,127.23 C469.605,127.973 469.625,128.737 469.605,129.48 C469.605,129.79 469.667,129.893 469.997,129.852 C471.133,129.687 472.268,129.563 473.425,129.418 C473.714,129.377 473.755,129.212 473.755,128.964 C473.755,127.498 473.734,126.032 473.755,124.566 C473.755,124.277 473.693,124.173 473.383,124.215 C472.227,124.339 471.071,124.442 469.914,124.545 C469.646,124.566 469.605,124.71 469.605,124.917 C469.625,125.681 469.605,126.445 469.605,127.23 Z M473.755,102.988 C473.755,102.265 473.734,101.543 473.755,100.82 C473.755,100.51 473.672,100.386 473.342,100.365 C472.227,100.324 471.091,100.262 469.976,100.2 C469.667,100.18 469.605,100.262 469.605,100.551 C469.625,102.079 469.625,103.587 469.605,105.115 C469.605,105.445 469.729,105.528 470.038,105.528 C471.174,105.528 472.31,105.548 473.445,105.569 C473.693,105.569 473.755,105.486 473.755,105.259 C473.734,104.495 473.755,103.731 473.755,102.988 Z M486.702,103.421 C486.702,104.062 486.722,104.702 486.702,105.342 C486.681,105.652 486.805,105.796 487.115,105.796 C487.899,105.796 488.705,105.817 489.489,105.837 C489.737,105.837 489.779,105.693 489.779,105.486 L489.779,101.543 C489.779,101.274 489.675,101.171 489.427,101.171 C488.643,101.13 487.879,101.088 487.094,101.026 C486.764,101.006 486.702,101.15 486.702,101.439 C486.722,102.1 486.702,102.761 486.702,103.421 Z M486.702,125.268 L486.702,127.312 C486.702,127.539 486.743,127.663 487.012,127.622 C487.837,127.498 488.663,127.395 489.489,127.291 C489.696,127.271 489.779,127.168 489.758,126.961 L489.758,122.852 C489.758,122.645 489.675,122.584 489.489,122.604 C488.684,122.687 487.858,122.769 487.053,122.831 C486.764,122.852 486.681,122.996 486.702,123.265 C486.722,123.946 486.702,124.607 486.702,125.268 Z M429.443,116.141 L429.443,93.944 C429.443,93.51 429.567,93.159 429.794,92.787 C431.384,90.268 432.953,87.749 434.543,85.23 C434.75,84.9 434.977,84.569 435.286,84.301 C435.761,83.908 436.36,83.908 436.814,84.321 C437.083,84.569 437.289,84.838 437.475,85.147 C439.086,87.687 440.697,90.248 442.307,92.787 C442.658,93.324 442.844,93.902 442.844,94.563 C442.823,108.955 442.844,123.327 442.844,137.719 L442.844,138.091 C442.823,139.041 442.328,139.536 441.399,139.557 C440.49,139.577 439.561,139.557 438.652,139.557 L431.136,139.557 C430.909,139.557 430.702,139.557 430.475,139.536 C429.773,139.453 429.484,139.123 429.484,138.421 C429.443,131.008 429.443,123.575 429.443,116.141 Z M440.325,115.769 L440.325,95.348 C440.325,94.811 440.263,94.295 439.953,93.82 C438.735,91.9 437.537,89.959 436.319,88.038 C436.05,87.625 435.947,87.625 435.679,88.038 C434.481,89.938 433.304,91.817 432.127,93.717 C431.838,94.192 431.694,94.708 431.694,95.265 L431.694,136.397 C431.694,137.1 431.776,137.182 432.478,137.182 L439.334,137.182 C440.304,137.182 440.304,137.182 440.304,136.191 C440.325,129.377 440.325,122.584 440.325,115.769 Z" />
        </g>
        <g id="Black-S">
            <path d="M653.85,117.029 L653.85,89.318 C653.85,88.823 653.974,88.41 654.242,88.018 C656.307,85.106 658.372,82.174 660.437,79.262 C660.994,78.478 661.696,78.209 662.357,78.519 C662.832,78.746 663.162,79.18 663.431,79.634 C664.03,80.667 664.608,81.699 665.186,82.752 L669.15,89.814 C669.46,90.371 669.625,90.929 669.625,91.569 C669.605,93.655 669.625,95.74 669.625,97.826 C669.625,98.424 669.625,98.424 670.203,98.466 C671.236,98.528 672.248,98.548 673.28,98.672 C673.693,98.714 673.755,98.59 673.755,98.218 C673.755,94.109 673.755,90 673.734,85.891 C673.734,85.333 673.879,84.879 674.168,84.425 C675.717,82.009 677.224,79.593 678.773,77.177 C678.979,76.847 679.186,76.496 679.516,76.248 C680.012,75.876 680.631,75.917 681.065,76.372 C681.395,76.723 681.643,77.136 681.87,77.569 C683.336,80.501 684.782,83.434 686.248,86.366 C686.578,87.006 686.723,87.687 686.723,88.431 C686.702,91.92 686.723,95.41 686.723,98.92 C686.723,99.519 686.743,99.519 687.342,99.54 C688.023,99.56 688.705,99.581 689.386,99.643 C689.717,99.663 689.779,99.581 689.779,99.271 C689.758,97.206 689.779,95.141 689.779,93.056 C689.779,92.643 689.861,92.292 690.068,91.92 C691.389,89.546 692.711,87.15 694.032,84.776 C694.424,84.074 694.982,83.805 695.581,84.074 C695.973,84.239 696.18,84.59 696.345,84.962 C696.964,86.262 697.584,87.584 698.203,88.905 C698.864,90.33 699.504,91.734 700.165,93.159 C700.433,93.737 700.557,94.315 700.557,94.956 L700.557,135.448 C700.495,136.377 700.041,136.914 699.132,137.1 L691.141,138.772 C690.274,138.958 689.82,138.586 689.82,137.719 L689.82,129.377 C689.82,128.881 689.82,128.881 689.324,128.943 C688.643,129.047 687.941,129.129 687.259,129.212 C686.908,129.253 686.743,129.377 686.764,129.769 C686.784,132.433 686.784,135.076 686.764,137.74 C686.764,139.102 686.289,139.701 684.926,139.99 L675.448,141.973 C675.221,142.014 674.994,142.035 674.746,142.035 C674.147,141.993 673.796,141.642 673.796,141.023 L673.796,131.607 C673.796,131.194 673.693,131.091 673.301,131.153 C672.227,131.318 671.153,131.462 670.1,131.607 C669.749,131.648 669.667,131.793 669.667,132.123 C669.687,135.117 669.667,138.132 669.667,141.126 C669.667,142.509 669.192,143.108 667.85,143.377 C663.782,144.223 659.735,145.07 655.667,145.917 C655.481,145.958 655.295,145.979 655.089,145.999 C654.221,146.02 653.891,145.689 653.891,144.843 C653.85,135.551 653.85,126.28 653.85,117.029 Z M656.761,116.43 L656.761,141.787 C656.761,142.613 656.844,142.675 657.628,142.53 C658.888,142.303 660.148,142.055 661.428,141.807 C663.059,141.498 664.711,141.167 666.342,140.858 C666.735,140.775 666.9,140.548 666.92,140.176 C666.92,140.032 666.941,139.908 666.941,139.763 L666.941,92.251 C666.941,91.61 666.796,91.032 666.487,90.475 C665.103,88.038 663.72,85.602 662.316,83.144 C662.027,82.649 661.903,82.649 661.572,83.124 C660.189,85.147 658.805,87.171 657.401,89.195 C656.947,89.855 656.72,90.557 656.72,91.383 C656.761,99.746 656.761,108.088 656.761,116.43 Z M676.398,112.713 L676.398,138.318 C676.378,138.607 676.481,138.71 676.79,138.648 C678.938,138.235 681.106,137.822 683.274,137.409 C684.183,137.244 684.183,137.223 684.183,136.315 L684.183,88.678 C684.183,88.141 684.1,87.646 683.852,87.171 C682.758,84.982 681.643,82.793 680.548,80.605 C680.383,80.295 680.28,80.316 680.115,80.605 C679.041,82.36 677.967,84.094 676.873,85.829 C676.522,86.407 676.378,86.985 676.378,87.666 C676.398,96.009 676.398,104.371 676.398,112.713 Z M692.112,114.696 L692.112,135.241 C692.091,135.551 692.236,135.613 692.525,135.551 C694.239,135.221 695.952,134.87 697.666,134.56 C698.079,134.477 698.182,134.312 698.182,133.92 L698.182,95.203 C698.182,94.728 698.079,94.295 697.873,93.861 C697.047,92.106 696.221,90.33 695.416,88.575 C695.374,88.472 695.354,88.307 695.209,88.286 C695.023,88.265 695.023,88.451 694.961,88.575 C694.28,89.814 693.64,91.094 692.917,92.312 C692.318,93.304 692.07,94.336 692.07,95.492 C692.132,101.894 692.112,108.295 692.112,114.696 Z M669.605,115.026 L669.605,122.418 C669.605,122.707 669.646,122.831 669.997,122.79 C671.091,122.687 672.206,122.604 673.301,122.522 C673.59,122.501 673.755,122.418 673.755,122.088 L673.755,107.675 C673.755,107.365 673.631,107.283 673.342,107.283 C672.268,107.283 671.215,107.262 670.142,107.221 C669.729,107.2 669.605,107.303 669.605,107.737 C669.625,110.153 669.605,112.59 669.605,115.026 Z M686.702,114.303 L686.702,120.828 C686.702,121.2 686.805,121.324 687.177,121.283 C687.92,121.2 688.684,121.159 689.427,121.097 C689.717,121.076 689.779,120.932 689.779,120.663 L689.779,107.716 C689.779,107.427 689.675,107.345 689.386,107.345 C688.663,107.365 687.941,107.365 687.218,107.345 C686.826,107.324 686.702,107.448 686.702,107.84 C686.723,110.008 686.702,112.156 686.702,114.303 Z M669.605,127.23 C669.605,127.973 669.625,128.737 669.605,129.48 C669.605,129.79 669.667,129.893 669.997,129.852 C671.133,129.687 672.268,129.563 673.425,129.418 C673.714,129.377 673.755,129.212 673.755,128.964 C673.755,127.498 673.734,126.032 673.755,124.566 C673.755,124.277 673.693,124.173 673.383,124.215 C672.227,124.339 671.071,124.442 669.914,124.545 C669.646,124.566 669.605,124.71 669.605,124.917 C669.625,125.681 669.605,126.445 669.605,127.23 Z M673.755,102.988 C673.755,102.265 673.734,101.543 673.755,100.82 C673.755,100.51 673.672,100.386 673.342,100.365 C672.227,100.324 671.091,100.262 669.976,100.2 C669.667,100.18 669.605,100.262 669.605,100.551 C669.625,102.079 669.625,103.587 669.605,105.115 C669.605,105.445 669.729,105.528 670.038,105.528 C671.174,105.528 672.31,105.548 673.445,105.569 C673.693,105.569 673.755,105.486 673.755,105.259 C673.734,104.495 673.755,103.731 673.755,102.988 Z M686.702,103.421 C686.702,104.062 686.723,104.702 686.702,105.342 C686.681,105.652 686.805,105.796 687.115,105.796 C687.899,105.796 688.705,105.817 689.489,105.837 C689.737,105.837 689.779,105.693 689.779,105.486 L689.779,101.543 C689.779,101.274 689.675,101.171 689.427,101.171 C688.643,101.13 687.879,101.088 687.094,101.026 C686.764,101.006 686.702,101.15 686.702,101.439 C686.723,102.1 686.702,102.761 686.702,103.421 Z M686.702,125.268 L686.702,127.312 C686.702,127.539 686.743,127.663 687.012,127.622 C687.837,127.498 688.663,127.395 689.489,127.291 C689.696,127.271 689.779,127.168 689.758,126.961 L689.758,122.852 C689.758,122.645 689.675,122.584 689.489,122.604 C688.684,122.687 687.858,122.769 687.053,122.831 C686.764,122.852 686.681,122.996 686.702,123.265 C686.723,123.946 686.702,124.607 686.702,125.268 Z M629.443,116.141 L629.443,93.944 C629.443,93.51 629.567,93.159 629.794,92.787 C631.384,90.268 632.953,87.749 634.543,85.23 C634.75,84.9 634.977,84.569 635.286,84.301 C635.761,83.908 636.36,83.908 636.815,84.321 C637.083,84.569 637.289,84.838 637.475,85.147 C639.086,87.687 640.697,90.248 642.307,92.787 C642.658,93.324 642.844,93.902 642.844,94.563 C642.823,108.955 642.844,123.327 642.844,137.719 L642.844,138.091 C642.823,139.041 642.328,139.536 641.399,139.557 C640.49,139.577 639.561,139.557 638.652,139.557 L631.136,139.557 C630.909,139.557 630.703,139.557 630.475,139.536 C629.773,139.453 629.484,139.123 629.484,138.421 C629.443,131.008 629.443,123.575 629.443,116.141 Z M640.325,115.769 L640.325,95.348 C640.325,94.811 640.263,94.295 639.953,93.82 C638.735,91.9 637.537,89.959 636.319,88.038 C636.051,87.625 635.947,87.625 635.679,88.038 C634.481,89.938 633.304,91.817 632.127,93.717 C631.838,94.192 631.694,94.708 631.694,95.265 L631.694,136.397 C631.694,137.1 631.776,137.182 632.478,137.182 L639.334,137.182 C640.304,137.182 640.304,137.182 640.304,136.191 C640.325,129.377 640.325,122.584 640.325,115.769 Z" />
        </g>
    </g>
</svg>