<svg width="512" height="512" viewBox="0 0 512 512" fill="none" xmlns="http://www.w3.org/2000/svg">
<path d="M302.87 59H209.12C188.65 59.02 171.96 75.71 171.94 96.19V134H67.56C41.92 134.03 21.03 154.92 21 180.57V405.56C21.03 431.2 41.92 452.09 67.57 452.12H444.44C470.08 452.09 490.97 431.2 491 405.55V180.56C490.97 154.92 470.08 134.03 444.43 134H340.06V96.18C340.04 75.71 323.35 59.02 302.87 59ZM190.06 96.17C190.07 85.68 198.62 77.13 209.11 77.12H302.88C313.38 77.14 321.93 85.68 321.94 96.17V134H190.06V96.17ZM96 434H67.56C51.9 433.98 39.14 421.22 39.12 405.57V180.56C39.14 164.9 51.9 152.14 67.55 152.12H96V434ZM416 152.12H444.44C460.1 152.14 472.86 164.9 472.88 180.55V405.56C472.86 421.22 460.1 433.97 444.45 433.99H416V152.12ZM397.92 152.08L397.88 434H114.12V152.12H162.04L159.17 159.04C156.48 165.52 155.14 172.35 155.18 179.37C155.27 195.08 162.42 208.13 168.41 216.31L170.09 218.61L153.92 256.46C152.81 259.07 152.99 262.09 154.4 264.55L205.96 353.86C207.16 355.97 209.1 357.47 211.42 358.1C213.74 358.73 216.17 358.43 218.25 357.23L218.33 357.19L283.34 319.68C285.43 318.47 286.93 316.52 287.56 314.18C288.18 311.84 287.86 309.4 286.65 307.31L235.09 218C233.67 215.54 231.14 213.87 228.32 213.53L185.1 208.28L183.82 206.61C179.94 201.54 173.42 191.25 173.35 179.25C173.35 170.29 176.63 162.01 183.38 153.91L184.88 152.11H397.92V152.08ZM172.36 259.4L186.33 226.71L221.62 230.96L266.37 308.45L217.18 336.94L172.36 259.4Z" fill="#B4B7BA"/>
<path d="M321.64 190.24C311.73 190.27 302.37 194.1 295.34 201.13C288.31 208.15 284.44 217.49 284.44 227.42C284.46 247.91 301.15 264.6 321.63 264.62C342.13 264.62 358.82 247.94 358.82 227.44C358.82 217.51 354.96 208.17 347.93 201.14C340.91 194.11 331.57 190.24 321.64 190.24ZM335.13 240.91C331.53 244.51 326.74 246.5 321.65 246.51H321.64C316.55 246.51 311.77 244.53 308.16 240.93C304.56 237.33 302.57 232.54 302.57 227.45V227.43C302.57 216.93 311.12 208.38 321.62 208.36H321.63C332.14 208.36 340.7 216.91 340.7 227.42C340.7 232.51 338.72 237.3 335.12 240.91H335.13Z" fill="#B4B7BA"/>
</svg>
