<svg width="512" height="512" viewBox="0 0 512 512" fill="none" xmlns="http://www.w3.org/2000/svg">
<path fill-rule="evenodd" clip-rule="evenodd" d="M78 74C78 33.1309 111.131 0 152 0H360C400.869 0 434 33.1309 434 74V434C434 474.869 400.869 508 360 508H152C111.131 508 78 474.869 78 434V74ZM152 20C122.177 20 98 44.1766 98 74V434C98 463.823 122.177 488 152 488H360C389.823 488 414 463.823 414 434V74C414 44.1766 389.823 20 360 20H152Z" fill="#B4B7BA"/>
<path fill-rule="evenodd" clip-rule="evenodd" d="M166 365.995C166 360.472 170.477 355.995 176 355.995H336C341.523 355.995 346 360.472 346 365.995V429.995C346 435.518 341.523 439.995 336 439.995H176C170.477 439.995 166 435.518 166 429.995V365.995ZM186 375.995V419.995H326V375.995H186Z" fill="#B4B7BA"/>
</svg>
