<svg width="120" height="120" viewBox="0 0 120 120" fill="none" xmlns="http://www.w3.org/2000/svg">
<g clip-path="url(#clip0_7520_32682)">
<path d="M89.7886 29.4584C88.9236 28.4955 89.0031 27.0136 89.966 26.1485C90.929 25.2835 92.4109 25.3628 93.2759 26.3257C101.293 35.2503 106.174 47.0582 106.174 60.0004C106.174 72.9426 101.293 84.7505 93.2759 93.6751C92.4109 94.638 90.929 94.7175 89.966 93.8525C89.0031 92.9875 88.9237 91.5056 89.7886 90.5426C97.0631 82.4449 101.486 71.7419 101.486 60.0004C101.486 48.259 97.0631 37.5562 89.7886 29.4584Z" fill="#12A71E"/>
<path d="M100.1 19.6669C99.2351 18.704 99.3146 17.2221 100.278 16.357C101.24 15.492 102.722 15.5713 103.587 16.5342C113.936 28.0542 120.235 43.2944 120.235 60C120.235 76.7056 113.936 91.9456 103.587 103.466C102.722 104.429 101.24 104.508 100.278 103.643C99.3146 102.778 99.2352 101.296 100.1 100.333C109.706 89.64 115.548 75.505 115.548 60C115.548 44.4951 109.706 30.3601 100.1 19.6669Z" fill="#12A71E"/>
<path d="M30.4457 29.4584C31.3108 28.4955 31.2313 27.0136 30.2683 26.1485C29.3054 25.2835 27.8235 25.3628 26.9585 26.3257C18.9412 35.2503 14.0608 47.0582 14.0608 60.0004C14.0608 72.9426 18.9412 84.7505 26.9585 93.6751C27.8235 94.638 29.3054 94.7175 30.2683 93.8525C31.2313 92.9875 31.3107 91.5056 30.4457 90.5426C23.1713 82.4449 18.7483 71.7419 18.7483 60.0004C18.7483 48.259 23.1713 37.5562 30.4457 29.4584Z" fill="#12A71E"/>
<path d="M20.1342 19.6669C20.9992 18.704 20.9198 17.2221 19.9568 16.357C18.9939 15.492 17.512 15.5713 16.647 16.5342C6.29816 28.0542 -0.000752646 43.2944 -0.000753376 60C-0.000740755 76.7056 6.2982 91.9456 16.647 103.466C17.512 104.429 18.9939 104.508 19.9568 103.643C20.9197 102.778 20.9992 101.296 20.1342 100.333C10.5282 89.64 4.68676 75.505 4.68674 60C4.68675 44.4951 10.5282 30.3601 20.1342 19.6669Z" fill="#12A71E"/>
<path fill-rule="evenodd" clip-rule="evenodd" d="M74.5312 38.4375C83.8511 38.4375 91.4062 45.9927 91.4062 55.3125V64.6875C91.4062 74.0073 83.8511 81.5625 74.5312 81.5625H45.4688C36.1489 81.5625 28.5938 74.0073 28.5938 64.6875V55.3125C28.5938 45.9927 36.1489 38.4375 45.4688 38.4375H74.5312ZM77.9014 51.9561C76.6339 51.9561 75.4631 52.1755 74.3906 52.6143C73.3183 53.0367 72.3841 53.6381 71.5879 54.418C70.8079 55.1817 70.1985 56.0922 69.7598 57.1484C69.3373 58.2046 69.126 59.3582 69.126 60.6094C69.126 62.0556 69.3618 63.3315 69.833 64.4365C70.3042 65.5251 70.9464 66.4348 71.7588 67.166C72.5875 67.8972 73.5216 68.4495 74.5615 68.8232C75.6178 69.197 76.7314 69.3848 77.9014 69.3848C78.3724 69.3847 78.8353 69.3439 79.29 69.2627C79.745 69.1977 80.1921 69.0997 80.6309 68.9697C81.0859 68.8235 81.5248 68.6448 81.9473 68.4336C82.3534 68.2386 82.5974 67.9301 82.6787 67.5078C82.7762 67.0691 82.6619 66.6465 82.3369 66.2402C82.1095 65.9478 81.8255 65.7773 81.4844 65.7285C81.1594 65.6798 80.8256 65.7359 80.4844 65.8984C80.0782 66.1096 79.6555 66.2567 79.2168 66.3379C78.7783 66.4191 78.3398 66.459 77.9014 66.459C77.1051 66.459 76.3651 66.3457 75.6826 66.1182C75.0002 65.8744 74.407 65.5089 73.9033 65.0215C73.3996 64.534 73.0015 63.9245 72.709 63.1934C72.4327 62.4621 72.2949 61.6006 72.2949 60.6094C72.2949 59.7645 72.4165 58.9926 72.6602 58.2939C72.9201 57.5953 73.2939 56.9939 73.7812 56.4902C74.2686 55.9704 74.8539 55.5721 75.5361 55.2959C76.2349 55.0196 77.0239 54.8809 77.9014 54.8809C78.3723 54.8809 78.8189 54.9299 79.2412 55.0273C79.6798 55.1248 80.0945 55.2628 80.4844 55.4414C80.8256 55.6039 81.1594 55.6692 81.4844 55.6367C81.8254 55.6042 82.1013 55.4417 82.3125 55.1494C82.6212 54.7757 82.7355 54.3612 82.6543 53.9062C82.5893 53.4513 82.3452 53.1185 81.9229 52.9072C81.3216 52.5985 80.6796 52.3627 79.9971 52.2002C79.3147 52.0377 78.6162 51.9561 77.9014 51.9561ZM51.3389 52.0781C50.9327 52.0781 50.607 52.2078 50.3633 52.4678C50.1195 52.7278 49.998 53.0534 49.998 53.4434V63.9326L41.125 52.6143C41.0112 52.4357 40.8325 52.3058 40.5889 52.2246C40.3452 52.1272 40.1093 52.0781 39.8818 52.0781C39.4596 52.0782 39.102 52.2242 38.8096 52.5166C38.5333 52.7929 38.3955 53.1429 38.3955 53.5654V67.7754C38.3955 68.1654 38.517 68.491 38.7607 68.751C39.0045 69.011 39.3219 69.1406 39.7119 69.1406C40.1179 69.1406 40.4429 69.0108 40.6865 68.751C40.9465 68.491 41.0762 68.1654 41.0762 67.7754V57.3662L50.0225 68.7266C50.1362 68.8564 50.2987 68.9618 50.5098 69.043C50.7373 69.108 50.9567 69.1406 51.168 69.1406C51.5903 69.1406 51.9396 69.0026 52.2158 68.7266C52.5083 68.4341 52.6543 68.0758 52.6543 67.6533V53.4434C52.6543 53.0534 52.5328 52.7278 52.2891 52.4678C52.0454 52.208 51.7286 52.0782 51.3389 52.0781ZM57.8994 52.0781C57.4771 52.0782 57.1195 52.2242 56.8271 52.5166C56.5509 52.7929 56.4131 53.1429 56.4131 53.5654V67.6533C56.4131 68.0758 56.5509 68.4341 56.8271 68.7266C57.1196 69.0027 57.4934 69.1406 57.9482 69.1406C58.3545 69.1406 58.7046 69.0028 58.9971 68.7266C59.3058 68.4341 59.46 68.0758 59.46 67.6533V61.9746H64.7246C65.1471 61.9746 65.4972 61.8358 65.7734 61.5596C66.0656 61.2834 66.2119 60.9667 66.2119 60.6094C66.2119 60.1871 66.0657 59.8459 65.7734 59.5859C65.4972 59.3097 65.1471 59.1709 64.7246 59.1709H59.46V54.8809H65.8213C66.2438 54.8809 66.5939 54.743 66.8701 54.4668C67.1624 54.1907 67.3085 53.8739 67.3086 53.5166C67.3086 53.0941 67.1626 52.7522 66.8701 52.4922C66.5939 52.216 66.2438 52.0781 65.8213 52.0781H57.8994Z" fill="#12A71E"/>
</g>
<defs>
<clipPath id="clip0_7520_32682">
<rect width="120" height="120" fill="white"/>
</clipPath>
</defs>
</svg>
