<svg width="512" height="512" viewBox="0 0 512 512" fill="none" xmlns="http://www.w3.org/2000/svg">
<g clip-path="url(#clip0_4655_645)">
<path d="M173.5 57.5C170.848 57.5 168.304 56.4464 166.429 54.5711C164.554 52.6957 163.5 50.1522 163.5 47.5V10C163.5 7.34784 164.554 4.8043 166.429 2.92893C168.304 1.05357 170.848 0 173.5 0C176.152 0 178.696 1.05357 180.571 2.92893C182.446 4.8043 183.5 7.34784 183.5 10V47.5C183.5 50.1522 182.446 52.6957 180.571 54.5711C178.696 56.4464 176.152 57.5 173.5 57.5Z" fill="#FCFCFC"/>
<path d="M111 74.2497C109.243 74.2514 107.517 73.7902 105.995 72.9124C104.472 72.0346 103.209 70.7714 102.33 69.2497L83.5901 36.7697C82.2849 34.4741 81.9407 31.7555 82.6326 29.2071C83.3245 26.6587 84.9962 24.4873 87.2831 23.167C89.57 21.8466 92.2863 21.4844 94.8392 22.1594C97.3922 22.8343 99.5746 24.4917 100.91 26.7697L119.66 59.2497C120.537 60.7692 120.999 62.4927 121 64.2472C121 66.0017 120.539 67.7254 119.663 69.2453C118.786 70.7652 117.525 72.0277 116.006 72.9061C114.488 73.7846 112.765 74.2479 111.01 74.2497H111Z" fill="#FCFCFC"/>
<path d="M65.2397 120C63.4838 120.004 61.7584 119.541 60.2397 118.66L27.7697 99.9101C25.4917 98.5746 23.8343 96.3922 23.1594 93.8392C22.4844 91.2863 22.8466 88.57 24.167 86.2831C25.4873 83.9962 27.6587 82.3245 30.2071 81.6326C32.7555 80.9407 35.4741 81.2849 37.7697 82.5901L70.2497 101.34C72.156 102.441 73.6459 104.14 74.4882 106.173C75.3305 108.207 75.4783 110.462 74.9085 112.588C74.3388 114.715 73.0834 116.593 71.3371 117.933C69.5907 119.274 67.451 120 65.2497 120H65.2397Z" fill="#FCFCFC"/>
<path d="M48.5 182.5H11C8.34784 182.5 5.8043 181.446 3.92893 179.571C2.05357 177.696 1 175.152 1 172.5C1 169.848 2.05357 167.304 3.92893 165.429C5.8043 163.554 8.34784 162.5 11 162.5H48.5C51.1522 162.5 53.6957 163.554 55.5711 165.429C57.4464 167.304 58.5 169.848 58.5 172.5C58.5 175.152 57.4464 177.696 55.5711 179.571C53.6957 181.446 51.1522 182.5 48.5 182.5Z" fill="#FCFCFC"/>
<path d="M32.7798 263.75C30.5786 263.75 28.4389 263.024 26.6925 261.683C24.9462 260.343 23.6908 258.465 23.121 256.338C22.5513 254.212 22.699 251.957 23.5414 249.923C24.3837 247.89 25.8735 246.191 27.7798 245.09L60.2598 226.34C62.5554 225.035 65.2741 224.691 67.8225 225.383C70.3709 226.074 72.5422 227.746 73.8626 230.033C75.1829 232.32 75.5452 235.036 74.8702 237.589C74.1953 240.142 72.5379 242.325 70.2598 243.66L37.7698 262.41C36.2541 263.29 34.5323 263.752 32.7798 263.75Z" fill="#FCFCFC"/>
<path d="M92.2397 323.23C90.4852 323.228 88.7621 322.765 87.2433 321.887C85.7246 321.008 84.4637 319.746 83.5872 318.226C82.7107 316.706 82.2495 314.982 82.25 313.228C82.2505 311.473 82.7125 309.75 83.5897 308.23L102.34 275.75C103.675 273.472 105.858 271.815 108.411 271.14C110.964 270.465 113.68 270.827 115.967 272.147C118.254 273.468 119.925 275.639 120.617 278.188C121.309 280.736 120.965 283.455 119.66 285.75L100.91 318.23C100.031 319.752 98.7673 321.015 97.2453 321.893C95.7232 322.771 93.9968 323.232 92.2397 323.23Z" fill="#FCFCFC"/>
<path d="M173.5 345C170.848 345 168.304 343.946 166.429 342.071C164.554 340.196 163.5 337.652 163.5 335V297.5C163.5 294.848 164.554 292.304 166.429 290.429C168.304 288.554 170.848 287.5 173.5 287.5C176.152 287.5 178.696 288.554 180.571 290.429C182.446 292.304 183.5 294.848 183.5 297.5V335C183.5 337.652 182.446 340.196 180.571 342.071C178.696 343.946 176.152 345 173.5 345Z" fill="#FCFCFC"/>
<path d="M254.76 323.23C253.003 323.232 251.277 322.771 249.755 321.893C248.232 321.015 246.969 319.752 246.09 318.23L227.34 285.75C226.035 283.455 225.691 280.736 226.383 278.188C227.074 275.639 228.746 273.468 231.033 272.147C233.32 270.827 236.036 270.465 238.589 271.14C241.142 271.815 243.325 273.472 244.66 275.75L263.41 308.23C264.287 309.75 264.749 311.473 264.75 313.228C264.75 314.982 264.289 316.706 263.413 318.226C262.536 319.746 261.275 321.008 259.756 321.887C258.238 322.765 256.515 323.228 254.76 323.23Z" fill="#FCFCFC"/>
<path d="M314.22 263.75C312.465 263.754 310.739 263.291 309.22 262.41L276.74 243.66C274.462 242.325 272.805 240.142 272.13 237.589C271.455 235.036 271.817 232.32 273.138 230.033C274.458 227.746 276.629 226.074 279.178 225.383C281.726 224.691 284.445 225.035 286.74 226.34L319.22 245.09C321.127 246.191 322.617 247.89 323.459 249.923C324.301 251.957 324.449 254.212 323.879 256.338C323.309 258.465 322.054 260.343 320.308 261.683C318.561 263.024 316.422 263.75 314.22 263.75Z" fill="#FCFCFC"/>
<path d="M336 182.5H298.5C295.848 182.5 293.304 181.446 291.429 179.571C289.554 177.696 288.5 175.152 288.5 172.5C288.5 169.848 289.554 167.304 291.429 165.429C293.304 163.554 295.848 162.5 298.5 162.5H336C338.652 162.5 341.196 163.554 343.071 165.429C344.946 167.304 346 169.848 346 172.5C346 175.152 344.946 177.696 343.071 179.571C341.196 181.446 338.652 182.5 336 182.5Z" fill="#FCFCFC"/>
<path d="M281.76 120C279.559 120 277.419 119.273 275.673 117.933C273.927 116.593 272.671 114.714 272.101 112.588C271.532 110.462 271.68 108.207 272.522 106.173C273.364 104.14 274.854 102.441 276.76 101.34L309.24 82.59C310.378 81.923 311.636 81.4876 312.943 81.309C314.25 81.1303 315.579 81.2119 316.854 81.549C318.129 81.8861 319.324 82.472 320.372 83.2731C321.42 84.0742 322.299 85.0746 322.958 86.2167C323.617 87.3588 324.044 88.62 324.214 89.9278C324.384 91.2356 324.294 92.5642 323.948 93.8369C323.603 95.1096 323.009 96.3014 322.201 97.3437C321.393 98.386 320.387 99.2581 319.24 99.91L286.76 118.66C285.242 119.541 283.516 120.004 281.76 120Z" fill="#FCFCFC"/>
<path d="M236 74.2503C234.245 74.2485 232.522 73.7852 231.003 72.9067C229.484 72.0283 228.223 70.7658 227.347 69.2459C226.47 67.726 226.009 66.0023 226.01 64.2478C226.01 62.4933 226.472 60.7698 227.35 59.2503L246.1 26.7703C246.751 25.6239 247.623 24.6177 248.666 23.8097C249.708 23.0016 250.9 22.4078 252.173 22.0622C253.445 21.7167 254.774 21.6263 256.082 21.7963C257.389 21.9663 258.651 22.3933 259.793 23.0527C260.935 23.7121 261.935 24.5909 262.736 25.6385C263.537 26.6862 264.123 27.8819 264.461 29.1569C264.798 30.4319 264.879 31.7609 264.701 33.0676C264.522 34.3742 264.087 35.6326 263.42 36.7703L244.66 69.2503C243.782 70.7705 242.52 72.0328 240.999 72.9105C239.479 73.7882 237.755 74.2503 236 74.2503Z" fill="#FCFCFC"/>
<path d="M173.5 245C158.695 245.002 144.222 240.613 131.911 232.389C119.601 224.166 110.006 212.476 104.339 198.798C98.6728 185.121 97.1896 170.07 100.077 155.55C102.965 141.029 110.094 127.691 120.563 117.223C131.031 106.754 144.369 99.6254 158.89 96.7376C173.41 93.8498 188.461 95.3329 202.138 100.999C215.816 106.666 227.505 116.261 235.729 128.572C243.953 140.882 248.342 155.355 248.34 170.16C248.318 190.002 240.427 209.026 226.396 223.056C212.366 237.087 193.342 244.979 173.5 245ZM173.5 115.31C162.651 115.308 152.045 118.523 143.024 124.549C134.003 130.575 126.971 139.14 122.818 149.163C118.665 159.185 117.577 170.214 119.692 180.854C121.808 191.495 127.031 201.269 134.701 208.941C142.372 216.613 152.145 221.838 162.785 223.955C173.425 226.072 184.454 224.987 194.478 220.836C204.501 216.684 213.068 209.654 219.095 200.634C225.123 191.614 228.34 181.009 228.34 170.16C228.324 155.619 222.541 141.679 212.26 131.396C201.98 121.113 188.04 115.328 173.5 115.31Z" fill="#FCFCFC"/>
<path d="M512 440V502C512.005 502.334 511.988 502.668 511.95 503C511.955 503.077 511.955 503.154 511.95 503.23C511.95 503.48 511.88 503.72 511.84 503.95C511.801 504.159 511.751 504.366 511.69 504.57C511.661 504.72 511.621 504.867 511.57 505.01C511.52 505.17 511.47 505.32 511.41 505.48C511.359 505.633 511.299 505.784 511.23 505.93C510.733 507.121 510.006 508.201 509.09 509.11C508.95 509.25 508.81 509.38 508.67 509.5C508.564 509.605 508.45 509.702 508.33 509.79C507.85 510.172 507.334 510.506 506.79 510.79L506.35 511.01L505.91 511.21L505.46 511.39L504.99 511.55C504.69 511.64 504.39 511.72 504.07 511.79H503.93L503.21 511.9H502.98C502.66 511.9 502.34 511.95 501.98 511.95H440C437.348 511.95 434.804 510.897 432.929 509.021C431.054 507.146 430 504.602 430 501.95C430 499.298 431.054 496.754 432.929 494.879C434.804 493.004 437.348 491.95 440 491.95H477.86L320.93 335.07C319.109 333.184 318.101 330.658 318.123 328.036C318.146 325.414 319.198 322.906 321.052 321.052C322.906 319.198 325.414 318.146 328.036 318.123C330.658 318.101 333.184 319.109 335.07 320.93L492 477.86V440C492 437.348 493.054 434.804 494.929 432.929C496.804 431.054 499.348 430 502 430C504.652 430 507.196 431.054 509.071 432.929C510.947 434.804 512 437.348 512 440Z" fill="#00D151"/>
<path d="M336 440V502C336.003 503.575 335.629 505.129 334.91 506.53L334.69 506.94C334.609 507.092 334.519 507.239 334.42 507.38L334.16 507.77C334.06 507.91 333.97 508.04 333.86 508.17L333.55 508.55C333.44 508.68 333.33 508.8 333.21 508.92C333.09 509.04 332.96 509.17 332.83 509.29C332.707 509.414 332.577 509.531 332.44 509.64C332.31 509.75 332.18 509.86 332.04 509.96C331.634 510.271 331.207 510.552 330.76 510.8C330.478 510.953 330.187 511.09 329.89 511.21L329.44 511.39C329.132 511.504 328.818 511.6 328.5 511.68L328.07 511.79C327.389 511.93 326.695 512 326 512H264C261.348 512 258.804 510.947 256.929 509.071C255.053 507.196 254 504.652 254 502C254 499.348 255.053 496.804 256.929 494.929C258.804 493.054 261.348 492 264 492H301.15L195.08 390.21C194.078 389.315 193.266 388.228 192.694 387.012C192.121 385.797 191.799 384.479 191.748 383.136C191.696 381.794 191.915 380.454 192.393 379.198C192.87 377.943 193.595 376.796 194.526 375.826C195.456 374.857 196.572 374.085 197.807 373.557C199.042 373.028 200.371 372.754 201.715 372.751C203.059 372.748 204.389 373.015 205.627 373.537C206.865 374.059 207.985 374.826 208.92 375.79L316 478.55V440C316 437.348 317.053 434.804 318.929 432.929C320.804 431.054 323.348 430 326 430C328.652 430 331.196 431.054 333.071 432.929C334.946 434.804 336 437.348 336 440Z" fill="#FCFCFC"/>
<path d="M512 264V326C512.005 326.334 511.988 326.668 511.95 327C511.955 327.077 511.955 327.154 511.95 327.23C511.95 327.48 511.88 327.72 511.84 327.95C511.801 328.159 511.751 328.366 511.69 328.57C511.661 328.72 511.621 328.867 511.57 329.01C511.52 329.17 511.47 329.32 511.41 329.48C511.359 329.633 511.299 329.784 511.23 329.93C510.733 331.121 510.006 332.201 509.09 333.11C508.95 333.25 508.81 333.38 508.67 333.5C508.564 333.605 508.45 333.702 508.33 333.79C507.85 334.172 507.334 334.506 506.79 334.79L506.35 335.01L505.91 335.21L505.46 335.39L504.99 335.55C504.69 335.64 504.39 335.72 504.07 335.79H503.93L503.21 335.9H502.98C502.66 335.9 502.34 335.95 501.98 335.95H440C437.348 335.95 434.804 334.897 432.929 333.021C431.054 331.146 430 328.602 430 325.95C430 323.298 431.054 320.754 432.929 318.879C434.804 317.004 437.348 315.95 440 315.95H477.86L370.93 209.07C369.109 207.184 368.101 204.658 368.123 202.036C368.146 199.414 369.198 196.906 371.052 195.052C372.906 193.198 375.414 192.146 378.036 192.123C380.658 192.101 383.184 193.109 385.07 194.93L492 301.86V264C492 261.348 493.054 258.804 494.929 256.929C496.804 255.054 499.348 254 502 254C504.652 254 507.196 255.054 509.071 256.929C510.947 258.804 512 261.348 512 264Z" fill="#FCFCFC"/>
</g>
<defs>
<clipPath id="clip0_4655_645">
<rect width="512" height="512" fill="white"/>
</clipPath>
</defs>
</svg>
