<?xml version="1.0" encoding="UTF-8"?>
<svg height="600" width="800" xmlns="http://www.w3.org/2000/svg" xmlns:xlink="http://www.w3.org/1999/xlink">
    <g id="Notes" font-family="'LucidaGrande', 'Lucida Grande', sans-serif" font-size="13">
        <rect fill="white" height="600.0" width="800.0" x="0.0" y="0.0" />
        <g font-size="13">
            <text x="18.0" y="176.0">Small</text>
            <text x="18.0" y="376.0">Medium</text>
            <text x="18.0" y="576.0">Large</text>
        </g>
        <g font-size="9">
            <text x="250.0" y="30.0">Ultralight</text>
            <text x="450.0" y="30.0">Regular</text>
            <text x="650.0" y="30.0">Black</text>
            <text id="template-version" fill="#505050" text-anchor="end" x="785.0" y="575.0">Template v.3.0</text>
            <a href="https://github.com/swhitty/SwiftDraw">
                <text fill="#505050" text-anchor="end" x="785.0" y="590.0">https://github.com/swhitty/SwiftDraw</text>
            </a>
        </g>
    </g>
    <g id="Guides" stroke="rgb(39, 170, 225)" stroke-width="0.5">
        <path id="Capline-S" d="M18,76 l800,0" />
        <path id="H-reference" d="M85,145.755 L87.685,145.755 L113.369,79.287 L114.052,79.287 L114.052,76 L112.148,76 L85,145.755 Z M95.693,121.536 L130.996,121.536 L130.263,119.313 L96.474,119.313 L95.693,121.536 Z M139.15,145.755 L141.787,145.755 L114.638,76 L113.466,76 L113.466,79.287 L139.15,145.755 Z" stroke="none" />
        <path id="Baseline-S" d="M18,146 l800,0" />
        <path id="left-margin-Ultralight-S" d="M216.159,56 l0,110" />
        <path id="right-margin-Ultralight-S" d="M313.841,56 l0,110" />
        <path id="left-margin-Regular-S" d="M416.159,56 l0,110" />
        <path id="right-margin-Regular-S" d="M513.841,56 l0,110" />
        <path id="left-margin-Black-S" d="M616.159,56 l0,110" />
        <path id="right-margin-Black-S" d="M713.841,56 l0,110" />
        <path id="Capline-M" d="M18,276 l800,0" />
        <path id="Baseline-M" d="M18,346 l800,0" />
        <path id="Capline-L" d="M18,476 l800,0" />
        <path id="Baseline-L" d="M18,546 l800,0" />
    </g>
    <g id="Symbols">
        <g id="Ultralight-S">
            <path d="M265,99.953 C256.799,99.962 250.121,106.64 250.112,114.842 C250.112,115.712 250.821,116.421 251.693,116.421 C252.564,116.421 253.273,115.712 253.273,114.841 C253.28,108.382 258.541,103.12 264.998,103.114 C265.87,103.114 266.58,102.405 266.58,101.533 C266.58,100.662 265.872,99.953 265,99.953 Z" />
            <path d="M265,84.483 C265.872,84.483 266.58,83.775 266.58,82.903 L266.58,77.58 C266.58,76.709 265.872,76 265,76 C264.128,76 263.42,76.709 263.42,77.58 L263.42,82.903 C263.42,83.775 264.128,84.483 265,84.483 Z" />
            <path d="M291.352,86.865 C290.929,86.877 290.537,87.05 290.247,87.356 L286.463,91.14 C285.853,91.751 285.849,92.749 286.463,93.374 C286.771,93.682 287.175,93.837 287.581,93.837 C287.987,93.837 288.391,93.682 288.699,93.374 L292.481,89.593 C292.501,89.575 292.52,89.555 292.538,89.537 C292.829,89.231 292.984,88.83 292.972,88.407 C292.962,87.985 292.787,87.592 292.481,87.303 C292.175,87.012 291.776,86.859 291.352,86.869 L291.352,86.865 Z" />
            <path d="M302.261,113.261 L296.938,113.261 C296.066,113.261 295.357,113.969 295.357,114.841 C295.357,115.712 296.066,116.421 296.938,116.421 L302.261,116.421 C303.132,116.421 303.841,115.712 303.841,114.841 C303.841,113.969 303.132,113.261 302.261,113.261 Z" />
            <path d="M242.416,135.868 C241.993,135.86 241.606,136.013 241.295,136.311 L237.535,140.067 C237.236,140.366 237.071,140.764 237.071,141.186 C237.071,142.056 237.781,142.765 238.653,142.765 C239.076,142.765 239.472,142.6 239.771,142.302 L243.532,138.543 C244.124,137.926 244.122,136.961 243.525,136.347 C243.231,136.044 242.837,135.875 242.416,135.868 Z" />
            <path d="M233.062,113.261 L227.739,113.261 C226.868,113.261 226.159,113.969 226.159,114.841 C226.159,115.712 226.868,116.421 227.739,116.421 L233.062,116.421 C233.934,116.421 234.643,115.712 234.643,114.841 C234.643,113.969 233.934,113.261 233.062,113.261 Z" />
            <path d="M241.301,93.379 C241.594,93.672 241.998,93.84 242.416,93.84 C242.838,93.84 243.236,93.675 243.534,93.378 C243.833,93.08 243.996,92.682 243.998,92.26 C243.998,91.837 243.833,91.442 243.535,91.142 L239.756,87.359 C239.738,87.34 239.718,87.321 239.698,87.301 C239.403,87.022 239.017,86.867 238.61,86.867 L238.568,86.867 C238.146,86.879 237.753,87.053 237.464,87.359 C237.173,87.666 237.02,88.066 237.03,88.489 C237.04,88.911 237.214,89.304 237.519,89.592 L241.301,93.378 L241.301,93.379 Z" />
            <path d="M280.904,98.421 C276.611,94.259 270.962,91.969 264.997,91.969 C252.385,91.969 242.125,102.229 242.125,114.841 C242.125,118.78 243.149,122.674 245.089,126.104 C246.734,129.012 249.046,131.57 251.776,133.506 L251.959,133.636 L252.03,133.423 C252.333,132.523 252.747,131.663 253.265,130.868 L253.349,130.736 L253.225,130.643 C249.397,127.802 246.734,123.66 245.726,118.979 C244.618,113.833 245.581,108.561 248.437,104.138 C251.293,99.715 255.701,96.67 260.848,95.562 C265.995,94.454 271.266,95.417 275.689,98.273 C280.613,101.452 283.847,106.605 284.558,112.411 L284.57,112.5 L284.652,112.54 C285.106,112.762 285.563,113.011 286.016,113.287 C286.496,113.562 287.03,113.873 287.604,114.215 L287.865,114.372 L287.855,114.067 C287.656,108.131 285.187,102.576 280.904,98.425 L280.904,98.421 Z" />
            <path d="M298.659,127.183 L298.485,126.987 C296.715,124.978 294.281,123.645 291.635,123.238 L290.903,123.125 L290.652,122.429 C290.136,121.005 289.406,119.695 288.478,118.522 C286.836,116.544 284.904,115.335 284.904,115.335 C284.322,114.974 283.722,114.66 283.106,114.39 C283.093,114.383 283.078,114.378 283.065,114.372 L283.003,114.345 C281.272,113.607 279.428,113.231 277.572,113.231 C275.977,113.231 274.373,113.507 272.825,114.067 C270.177,115.025 267.906,116.739 266.261,119.023 C264.616,121.308 263.709,124.003 263.639,126.819 L263.611,127.984 L262.447,128.033 C260.048,128.138 257.834,129.17 256.212,130.939 C254.59,132.709 253.754,135.005 253.858,137.403 C254.066,142.186 257.979,145.962 262.766,146 L289.891,146 C296.204,146 301.341,140.865 301.342,134.552 C301.342,131.851 300.393,129.244 298.658,127.182 L298.659,127.183 Z M290.124,142.835 C290.083,142.835 290.039,142.835 289.996,142.835 C289.953,142.835 289.911,142.835 289.868,142.835 L289.667,142.831 L262.756,142.831 C259.551,142.831 256.944,140.225 256.944,137.019 C256.944,133.814 259.551,131.207 262.756,131.207 L262.768,131.207 C263.533,131.207 264.281,131.357 264.988,131.653 C265.795,131.991 266.728,131.606 267.066,130.798 C267.197,130.484 267.224,130.128 267.139,129.795 C266.442,127.005 266.871,124.118 268.348,121.656 C269.826,119.194 272.173,117.456 274.957,116.759 C280.706,115.322 286.551,118.828 287.988,124.577 C288.023,124.717 288.055,124.856 288.085,124.998 C288.236,125.738 288.893,126.275 289.645,126.277 L289.88,126.277 C294.448,126.21 298.203,129.866 298.275,134.428 C298.345,138.992 294.689,142.763 290.124,142.833 L290.124,142.835 Z" />
        </g>
        <g id="Regular-S">
            <path d="M465,99.953 C456.799,99.962 450.121,106.64 450.112,114.842 C450.112,115.712 450.821,116.421 451.693,116.421 C452.564,116.421 453.273,115.712 453.273,114.841 C453.28,108.382 458.541,103.12 464.998,103.114 C465.87,103.114 466.58,102.405 466.58,101.533 C466.58,100.662 465.872,99.953 465,99.953 Z" />
            <path d="M465,84.483 C465.872,84.483 466.58,83.775 466.58,82.903 L466.58,77.58 C466.58,76.709 465.872,76 465,76 C464.128,76 463.42,76.709 463.42,77.58 L463.42,82.903 C463.42,83.775 464.128,84.483 465,84.483 Z" />
            <path d="M491.352,86.865 C490.929,86.877 490.537,87.05 490.247,87.356 L486.463,91.14 C485.853,91.751 485.849,92.749 486.463,93.374 C486.771,93.682 487.175,93.837 487.581,93.837 C487.987,93.837 488.391,93.682 488.699,93.374 L492.481,89.593 C492.501,89.575 492.52,89.555 492.538,89.537 C492.829,89.231 492.984,88.83 492.972,88.407 C492.962,87.985 492.787,87.592 492.481,87.303 C492.175,87.012 491.776,86.859 491.352,86.869 L491.352,86.865 Z" />
            <path d="M502.261,113.261 L496.938,113.261 C496.066,113.261 495.357,113.969 495.357,114.841 C495.357,115.712 496.066,116.421 496.938,116.421 L502.261,116.421 C503.132,116.421 503.841,115.712 503.841,114.841 C503.841,113.969 503.132,113.261 502.261,113.261 Z" />
            <path d="M442.416,135.868 C441.993,135.86 441.606,136.013 441.295,136.311 L437.535,140.067 C437.236,140.366 437.071,140.764 437.071,141.186 C437.071,142.056 437.781,142.765 438.653,142.765 C439.076,142.765 439.471,142.6 439.771,142.302 L443.532,138.543 C444.124,137.926 444.122,136.961 443.525,136.347 C443.231,136.044 442.837,135.875 442.416,135.868 Z" />
            <path d="M433.062,113.261 L427.739,113.261 C426.868,113.261 426.159,113.969 426.159,114.841 C426.159,115.712 426.868,116.421 427.739,116.421 L433.062,116.421 C433.934,116.421 434.643,115.712 434.643,114.841 C434.643,113.969 433.934,113.261 433.062,113.261 Z" />
            <path d="M441.301,93.379 C441.594,93.672 441.998,93.84 442.416,93.84 C442.838,93.84 443.236,93.675 443.534,93.378 C443.833,93.08 443.996,92.682 443.998,92.26 C443.998,91.837 443.833,91.442 443.535,91.142 L439.756,87.359 C439.738,87.34 439.718,87.321 439.698,87.301 C439.403,87.022 439.017,86.867 438.61,86.867 L438.568,86.867 C438.146,86.879 437.753,87.053 437.464,87.359 C437.173,87.666 437.02,88.066 437.03,88.489 C437.04,88.911 437.214,89.304 437.519,89.592 L441.301,93.378 L441.301,93.379 Z" />
            <path d="M480.904,98.421 C476.611,94.259 470.962,91.969 464.997,91.969 C452.385,91.969 442.125,102.229 442.125,114.841 C442.125,118.78 443.149,122.674 445.089,126.104 C446.734,129.012 449.046,131.57 451.776,133.506 L451.959,133.636 L452.03,133.423 C452.333,132.523 452.747,131.663 453.265,130.868 L453.349,130.736 L453.225,130.643 C449.397,127.802 446.734,123.66 445.726,118.979 C444.618,113.833 445.581,108.561 448.437,104.138 C451.293,99.715 455.701,96.67 460.848,95.562 C465.995,94.454 471.266,95.417 475.689,98.273 C480.613,101.452 483.847,106.605 484.558,112.411 L484.57,112.5 L484.652,112.54 C485.106,112.762 485.563,113.011 486.016,113.287 C486.496,113.562 487.03,113.873 487.604,114.215 L487.865,114.372 L487.855,114.067 C487.656,108.131 485.187,102.576 480.904,98.425 L480.904,98.421 Z" />
            <path d="M498.659,127.183 L498.485,126.987 C496.715,124.978 494.281,123.645 491.635,123.238 L490.903,123.125 L490.652,122.429 C490.136,121.005 489.406,119.695 488.478,118.522 C486.836,116.544 484.904,115.335 484.904,115.335 C484.322,114.974 483.722,114.66 483.106,114.39 C483.093,114.383 483.078,114.378 483.065,114.372 L483.003,114.345 C481.272,113.607 479.428,113.231 477.572,113.231 C475.977,113.231 474.373,113.507 472.825,114.067 C470.177,115.025 467.906,116.739 466.261,119.023 C464.616,121.308 463.709,124.003 463.639,126.819 L463.611,127.984 L462.447,128.033 C460.048,128.138 457.834,129.17 456.212,130.939 C454.59,132.709 453.754,135.005 453.858,137.403 C454.066,142.186 457.979,145.962 462.766,146 L489.891,146 C496.204,146 501.341,140.865 501.342,134.552 C501.342,131.851 500.393,129.244 498.658,127.182 L498.659,127.183 Z M490.124,142.835 C490.083,142.835 490.039,142.835 489.996,142.835 C489.953,142.835 489.911,142.835 489.868,142.835 L489.667,142.831 L462.756,142.831 C459.551,142.831 456.944,140.225 456.944,137.019 C456.944,133.814 459.551,131.207 462.756,131.207 L462.768,131.207 C463.533,131.207 464.281,131.357 464.988,131.653 C465.795,131.991 466.728,131.606 467.066,130.798 C467.197,130.484 467.224,130.128 467.139,129.795 C466.442,127.005 466.871,124.118 468.348,121.656 C469.826,119.194 472.173,117.456 474.957,116.759 C480.706,115.322 486.551,118.828 487.988,124.577 C488.023,124.717 488.055,124.856 488.085,124.998 C488.236,125.738 488.893,126.275 489.645,126.277 L489.88,126.277 C494.448,126.21 498.203,129.866 498.275,134.428 C498.345,138.992 494.689,142.763 490.124,142.833 L490.124,142.835 Z" />
        </g>
        <g id="Black-S">
            <path d="M665,99.953 C656.799,99.962 650.121,106.64 650.112,114.842 C650.112,115.712 650.821,116.421 651.693,116.421 C652.564,116.421 653.273,115.712 653.273,114.841 C653.28,108.382 658.541,103.12 664.998,103.114 C665.87,103.114 666.58,102.405 666.58,101.533 C666.58,100.662 665.872,99.953 665,99.953 Z" />
            <path d="M665,84.483 C665.872,84.483 666.58,83.775 666.58,82.903 L666.58,77.58 C666.58,76.709 665.872,76 665,76 C664.128,76 663.42,76.709 663.42,77.58 L663.42,82.903 C663.42,83.775 664.128,84.483 665,84.483 Z" />
            <path d="M691.352,86.865 C690.929,86.877 690.537,87.05 690.247,87.356 L686.463,91.14 C685.853,91.751 685.849,92.749 686.463,93.374 C686.771,93.682 687.175,93.837 687.581,93.837 C687.987,93.837 688.391,93.682 688.699,93.374 L692.481,89.593 C692.501,89.575 692.52,89.555 692.538,89.537 C692.829,89.231 692.984,88.83 692.972,88.407 C692.962,87.985 692.787,87.592 692.481,87.303 C692.175,87.012 691.776,86.859 691.352,86.869 L691.352,86.865 Z" />
            <path d="M702.261,113.261 L696.938,113.261 C696.066,113.261 695.357,113.969 695.357,114.841 C695.357,115.712 696.066,116.421 696.938,116.421 L702.261,116.421 C703.132,116.421 703.841,115.712 703.841,114.841 C703.841,113.969 703.132,113.261 702.261,113.261 Z" />
            <path d="M642.416,135.868 C641.993,135.86 641.606,136.013 641.295,136.311 L637.535,140.067 C637.236,140.366 637.071,140.764 637.071,141.186 C637.071,142.056 637.781,142.765 638.653,142.765 C639.076,142.765 639.472,142.6 639.771,142.302 L643.532,138.543 C644.124,137.926 644.122,136.961 643.525,136.347 C643.231,136.044 642.837,135.875 642.416,135.868 Z" />
            <path d="M633.062,113.261 L627.739,113.261 C626.868,113.261 626.159,113.969 626.159,114.841 C626.159,115.712 626.868,116.421 627.739,116.421 L633.062,116.421 C633.934,116.421 634.643,115.712 634.643,114.841 C634.643,113.969 633.934,113.261 633.062,113.261 Z" />
            <path d="M641.301,93.379 C641.594,93.672 641.998,93.84 642.416,93.84 C642.838,93.84 643.236,93.675 643.534,93.378 C643.833,93.08 643.996,92.682 643.998,92.26 C643.998,91.837 643.833,91.442 643.535,91.142 L639.756,87.359 C639.738,87.34 639.718,87.321 639.698,87.301 C639.403,87.022 639.018,86.867 638.61,86.867 L638.568,86.867 C638.146,86.879 637.753,87.053 637.464,87.359 C637.173,87.666 637.02,88.066 637.03,88.489 C637.04,88.911 637.214,89.304 637.519,89.592 L641.301,93.378 L641.301,93.379 Z" />
            <path d="M680.904,98.421 C676.611,94.259 670.962,91.969 664.997,91.969 C652.385,91.969 642.125,102.229 642.125,114.841 C642.125,118.78 643.149,122.674 645.089,126.104 C646.734,129.012 649.046,131.57 651.776,133.506 L651.959,133.636 L652.03,133.423 C652.333,132.523 652.747,131.663 653.265,130.868 L653.349,130.736 L653.225,130.643 C649.397,127.802 646.734,123.66 645.726,118.979 C644.618,113.833 645.581,108.561 648.437,104.138 C651.293,99.715 655.702,96.67 660.848,95.562 C665.995,94.454 671.266,95.417 675.689,98.273 C680.613,101.452 683.847,106.605 684.559,112.411 L684.57,112.5 L684.652,112.54 C685.106,112.762 685.563,113.011 686.016,113.287 C686.496,113.562 687.03,113.873 687.604,114.215 L687.865,114.372 L687.855,114.067 C687.656,108.131 685.187,102.576 680.904,98.425 L680.904,98.421 Z" />
            <path d="M698.659,127.183 L698.485,126.987 C696.715,124.978 694.281,123.645 691.635,123.238 L690.903,123.125 L690.652,122.429 C690.136,121.005 689.406,119.695 688.478,118.522 C686.836,116.544 684.904,115.335 684.904,115.335 C684.322,114.974 683.722,114.66 683.106,114.39 C683.093,114.383 683.078,114.378 683.065,114.372 L683.003,114.345 C681.272,113.607 679.429,113.231 677.572,113.231 C675.977,113.231 674.373,113.507 672.825,114.067 C670.177,115.025 667.906,116.739 666.261,119.023 C664.616,121.308 663.709,124.003 663.639,126.819 L663.611,127.984 L662.447,128.033 C660.048,128.138 657.834,129.17 656.212,130.939 C654.59,132.709 653.754,135.005 653.858,137.403 C654.066,142.186 657.979,145.962 662.766,146 L689.891,146 C696.204,146 701.341,140.865 701.342,134.552 C701.342,131.851 700.393,129.244 698.658,127.182 L698.659,127.183 Z M690.124,142.835 C690.083,142.835 690.039,142.835 689.996,142.835 C689.953,142.835 689.911,142.835 689.868,142.835 L689.667,142.831 L662.756,142.831 C659.551,142.831 656.944,140.225 656.944,137.019 C656.944,133.814 659.551,131.207 662.756,131.207 L662.768,131.207 C663.533,131.207 664.281,131.357 664.988,131.653 C665.795,131.991 666.728,131.606 667.066,130.798 C667.197,130.484 667.224,130.128 667.139,129.795 C666.442,127.005 666.871,124.118 668.349,121.656 C669.826,119.194 672.173,117.456 674.957,116.759 C680.706,115.322 686.551,118.828 687.988,124.577 C688.023,124.717 688.055,124.856 688.085,124.998 C688.236,125.738 688.893,126.275 689.645,126.277 L689.88,126.277 C694.448,126.21 698.204,129.866 698.275,134.428 C698.345,138.992 694.689,142.763 690.124,142.833 L690.124,142.835 Z" />
        </g>
    </g>
</svg>