<svg width="512" height="512" viewBox="0 0 512 512" fill="none" xmlns="http://www.w3.org/2000/svg">
<path d="M256 189.5C206.7 189.55 166.55 229.7 166.5 279.01C166.5 284.24 170.76 288.5 176 288.5C181.24 288.5 185.5 284.24 185.5 279C185.54 240.17 217.17 208.54 255.99 208.5C261.23 208.5 265.5 204.24 265.5 199C265.5 193.76 261.24 189.5 256 189.5Z" fill="#B4B7BA"/>
<path d="M256 96.5C261.24 96.5 265.5 92.24 265.5 87V55C265.5 49.76 261.24 45.5 256 45.5C250.76 45.5 246.5 49.76 246.5 55V87C246.5 92.24 250.76 96.5 256 96.5Z" fill="#B4B7BA"/>
<path d="M414.42 110.82C411.88 110.89 409.52 111.93 407.78 113.77L385.03 136.52C381.36 140.19 381.34 146.19 385.03 149.95C386.88 151.8 389.31 152.73 391.75 152.73C394.19 152.73 396.62 151.8 398.47 149.95L421.21 127.22C421.33 127.11 421.44 126.99 421.55 126.88C423.3 125.04 424.23 122.63 424.16 120.09C424.1 117.55 423.05 115.19 421.21 113.45C419.37 111.7 416.97 110.78 414.42 110.84V110.82Z" fill="#B4B7BA"/>
<path d="M480 269.5H448C442.76 269.5 438.5 273.76 438.5 279C438.5 284.24 442.76 288.5 448 288.5H480C485.24 288.5 489.5 284.24 489.5 279C489.5 273.76 485.24 269.5 480 269.5Z" fill="#B4B7BA"/>
<path d="M120.23 405.41C117.69 405.36 115.36 406.28 113.49 408.07L90.8896 430.65C89.0896 432.45 88.0996 434.84 88.0996 437.38C88.0996 442.61 92.3696 446.87 97.6096 446.87C100.15 446.87 102.53 445.88 104.33 444.09L126.94 421.49C130.5 417.78 130.49 411.98 126.9 408.29C125.13 406.47 122.76 405.45 120.23 405.41Z" fill="#B4B7BA"/>
<path d="M64 269.5H32C26.76 269.5 22.5 273.76 22.5 279C22.5 284.24 26.76 288.5 32 288.5H64C69.24 288.5 73.5 284.24 73.5 279C73.5 273.76 69.24 269.5 64 269.5Z" fill="#B4B7BA"/>
<path d="M113.53 149.98C115.29 151.74 117.72 152.75 120.23 152.75C122.77 152.75 125.16 151.76 126.95 149.97C128.75 148.18 129.73 145.79 129.74 143.25C129.74 140.71 128.75 138.33 126.96 136.53L104.24 113.79C104.13 113.67 104.01 113.56 103.89 113.44C102.12 111.76 99.8004 110.83 97.3504 110.83H97.1004C94.5604 110.9 92.2004 111.95 90.4604 113.79C88.7104 115.63 87.7904 118.04 87.8504 120.58C87.9104 123.12 88.9604 125.48 90.7904 127.21L113.53 149.97V149.98Z" fill="#B4B7BA"/>
<path d="M351.61 180.29C325.8 155.27 291.84 141.5 255.98 141.5C180.16 141.5 118.48 203.18 118.48 279C118.48 302.68 124.64 326.09 136.3 346.71C146.19 364.19 160.09 379.57 176.5 391.21L177.6 391.99L178.03 390.71C179.85 385.3 182.34 380.13 185.45 375.35L185.96 374.56L185.21 374C162.2 356.92 146.19 332.02 140.13 303.88C133.47 272.94 139.26 241.25 156.43 214.66C173.6 188.07 200.1 169.76 231.04 163.1C261.98 156.44 293.67 162.23 320.26 179.4C349.86 198.51 369.3 229.49 373.58 264.39L373.65 264.93L374.14 265.17C376.87 266.5 379.62 268 382.34 269.66C385.23 271.31 388.44 273.18 391.89 275.24L393.46 276.18L393.4 274.35C392.2 238.66 377.36 205.27 351.61 180.31V180.29Z" fill="#B4B7BA"/>
<path d="M458.35 353.2L457.3 352.02C446.66 339.94 432.03 331.93 416.12 329.48L411.72 328.8L410.21 324.62C407.11 316.06 402.72 308.18 397.14 301.13C387.27 289.24 375.66 281.97 375.66 281.97C372.16 279.8 368.55 277.91 364.85 276.29C364.77 276.25 364.68 276.22 364.6 276.18L364.23 276.02C353.82 271.58 342.74 269.32 331.58 269.32C321.99 269.32 312.35 270.98 303.04 274.35C287.12 280.11 273.47 290.41 263.58 304.14C253.69 317.88 248.24 334.08 247.82 351.01L247.65 358.01L240.65 358.31C226.23 358.94 212.92 365.14 203.17 375.78C193.42 386.42 188.39 400.22 189.02 414.64C190.27 443.39 213.79 466.09 242.57 466.32H405.64C443.59 466.32 474.47 435.45 474.48 397.5C474.48 381.26 468.77 365.59 458.34 353.19L458.35 353.2ZM407.04 447.29C406.79 447.29 406.53 447.29 406.27 447.29C406.01 447.29 405.76 447.29 405.5 447.29L404.29 447.27H242.51C223.24 447.27 207.57 431.6 207.57 412.33C207.57 393.06 223.24 377.39 242.51 377.39H242.58C247.18 377.39 251.68 378.29 255.93 380.07C260.78 382.1 266.39 379.79 268.42 374.93C269.21 373.04 269.37 370.9 268.86 368.9C264.67 352.13 267.25 334.77 276.13 319.97C285.01 305.17 299.12 294.72 315.86 290.53C350.42 281.89 385.56 302.97 394.2 337.53C394.41 338.37 394.6 339.21 394.78 340.06C395.69 344.51 399.64 347.74 404.16 347.75H405.57C433.03 347.35 455.61 369.33 456.04 396.75C456.46 424.19 434.48 446.86 407.04 447.28V447.29Z" fill="#B4B7BA"/>
</svg>
