<svg width="64" height="64" viewBox="0 0 64 64" fill="none" xmlns="http://www.w3.org/2000/svg">
<path d="M30.9919 8.49786C30.9731 8.50413 30.9543 8.50413 30.9355 8.51039C30.9543 8.51039 30.9731 8.50413 30.9919 8.49786Z" fill="#12A71E"/>
<path d="M31.2796 8.44147C31.2421 8.44773 31.2045 8.45399 31.1606 8.46652C31.1982 8.45399 31.2421 8.44773 31.2796 8.44147Z" fill="#12A71E"/>
<path d="M35.4315 16.8391C35.4252 16.8391 35.4252 16.8391 35.4189 16.8329C35.4189 16.8329 35.4252 16.8391 35.4315 16.8391Z" fill="#0043FF"/>
<path d="M31.9437 55.0638C30.2216 55.0638 28.4995 55.0638 26.7836 55.0638C26.1637 55.0638 25.8443 54.7694 25.7754 54.1495C25.7629 54.0555 25.7691 53.9679 25.7691 53.8739C25.7691 51.7636 25.7691 49.6595 25.7691 47.5491C25.7691 47.1859 25.7691 47.1859 26.1386 47.1859C26.4705 47.1859 26.8024 47.1859 27.1343 47.1859C27.6228 47.1859 27.6228 47.1859 27.6228 47.6618C27.6228 49.29 27.6228 50.9182 27.6228 52.5463C27.6228 52.6591 27.6228 52.7655 27.6228 52.8783C27.6228 53.3229 27.6228 53.3229 28.0549 53.3229C29.1069 53.3229 30.1527 53.3229 31.2048 53.3229C32.7578 53.3229 34.3171 53.3166 35.8701 53.3291C36.1457 53.3291 36.2333 53.254 36.2333 52.9722C36.2208 51.1749 36.2271 49.3839 36.2271 47.5867C36.2271 47.1859 36.2271 47.1859 36.6216 47.1859C37.0349 47.1859 37.4482 47.1921 37.8615 47.1859C38.0682 47.1796 38.1308 47.261 38.1308 47.4614C38.1245 49.6532 38.1245 51.845 38.1245 54.0305C38.1245 54.2559 38.0556 54.4626 37.9492 54.663C37.7989 54.9323 37.586 55.07 37.2603 55.07C35.4819 55.0575 33.7159 55.0638 31.9437 55.0638Z" fill="#FCFCFC"/>
<path d="M32.0187 57.7127C31.1294 57.7127 30.2339 57.7127 29.3447 57.7127C28.7498 57.7127 28.4116 57.3808 28.4116 56.7985C28.4116 56.2411 28.756 55.9092 29.3384 55.903C31.1294 55.903 32.9204 55.903 34.7114 55.903C35.2875 55.903 35.6257 56.2411 35.632 56.7985C35.632 57.3621 35.2938 57.7002 34.7239 57.7065C33.8222 57.7127 32.9204 57.7127 32.0187 57.7127Z" fill="#FCFCFC"/>
<path d="M32.0123 28.2364L21.8174 18.0415C18.9994 20.8595 17.5841 24.5417 17.5591 28.2302H32.0123V28.2364Z" fill="#C0C0C0"/>
<path d="M32.0124 28.2364V13.8207C28.0297 13.8207 24.4226 15.4239 21.7925 18.0164L32.0124 28.2364Z" fill="#9F9F9F"/>
<path d="M32.0123 28.2364H17.5967C17.5967 32.2192 19.1998 35.8262 21.7924 38.4564L32.0123 28.2364Z" fill="#DFDFDF"/>
<path d="M32.0127 28.2364L42.2013 38.425C45.0194 35.607 46.4346 31.9248 46.4597 28.2364H32.0127Z" fill="#404040"/>
<path d="M32.0127 28.2364V42.6458C35.9955 42.6458 39.6025 41.0427 42.2327 38.4501L32.0127 28.2364Z" fill="#FCFCFC"/>
<path d="M32.0127 28.2364L42.2013 18.0477C39.3833 15.2297 35.7011 13.8145 32.0127 13.7894V28.2364Z" fill="#7F7F7F"/>
<path d="M32.0127 28.2364H46.4221C46.4221 24.2536 44.819 20.6466 42.2264 18.0164L32.0127 28.2364Z" fill="#606060"/>
<path d="M38.1431 41.1867H32.0249V44.9941H38.1431V41.1867Z" fill="#FCFCFC"/>
<path d="M31.9622 46.2278C30.0022 46.2278 28.0421 46.2215 26.082 46.234C25.8252 46.234 25.7125 46.1589 25.6436 45.9084C24.9548 43.3972 23.6335 41.243 21.8675 39.3518C20.8781 38.2873 19.8511 37.2603 19.0558 36.0266C17.3274 33.3401 16.507 30.4094 16.7262 27.2156C16.9141 24.4415 17.8973 21.9366 19.4879 19.6634C20.8155 17.7722 22.4374 16.1879 24.4288 15.0043C26.3262 13.8834 28.3677 13.1945 30.5658 13.0004C34.6362 12.6434 38.2683 13.7769 41.3931 16.3757C44.4366 18.9057 46.4342 22.1119 47.0667 26.0697C47.4926 28.7186 47.1481 31.2986 46.0836 33.7659C45.2945 35.6008 44.1861 37.2164 42.7771 38.6192C41.2679 40.1221 40.0155 41.7941 39.1137 43.7291C38.7818 44.4368 38.4937 45.1695 38.2933 45.9209C38.2245 46.1714 38.1117 46.234 37.8675 46.234C35.9012 46.2215 33.9348 46.2278 31.9622 46.2278ZM31.9685 44.2614C33.4401 44.2614 34.9117 44.2614 36.3834 44.2614C36.5712 44.2614 36.684 44.2176 36.7528 44.0172C37.617 41.5937 39.0135 39.5084 40.792 37.661C41.7188 36.6967 42.6268 35.7323 43.3282 34.58C44.8624 32.0501 45.4636 29.326 45.019 26.4016C44.4804 22.8697 42.6957 20.0329 39.9403 17.816C37.1912 15.5992 34.0288 14.6787 30.5031 15.0607C28.3239 15.2986 26.3513 16.0689 24.5665 17.3401C22.9321 18.5049 21.6233 19.9765 20.5963 21.6924C19.181 24.0532 18.5611 26.6019 18.8178 29.3511C19.0746 32.1064 20.208 34.4736 22.0429 36.5213C22.5751 37.1162 23.1513 37.6736 23.6773 38.281C25.1427 39.9781 26.2824 41.8818 27.1466 43.9546C27.2342 44.1738 27.3532 44.2614 27.5975 44.2552C29.0628 44.2552 30.5157 44.2614 31.9685 44.2614Z" fill="#FCFCFC"/>
<path d="M19.3317 15.6869C19.3317 16.1753 19.1125 16.4571 18.7555 16.6199C18.3798 16.789 18.0354 16.6951 17.7473 16.407C16.9458 15.6055 16.1442 14.8102 15.3426 14.0086C14.8667 13.5327 14.3908 13.063 13.9211 12.5808C13.633 12.2865 13.5767 11.892 13.7395 11.5663C13.9211 11.1968 14.2843 10.9965 14.6851 11.034C14.9105 11.0528 15.0859 11.1655 15.2362 11.3221C16.5074 12.5871 17.7724 13.8583 19.0436 15.1295C19.2252 15.2923 19.3442 15.4927 19.3317 15.6869Z" fill="#FCFCFC"/>
<path d="M45.6392 16.8078C45.157 16.8015 44.8815 16.5824 44.7187 16.2379C44.5621 15.9123 44.6185 15.5929 44.8502 15.3049C44.8627 15.2923 44.8752 15.2736 44.8878 15.261C46.184 13.9647 47.4741 12.6685 48.7766 11.3784C49.1649 10.9965 49.6784 11.034 50.0541 11.416C50.3985 11.773 50.4173 12.2552 50.0917 12.6372C50.0666 12.6622 50.0416 12.6935 50.0165 12.7186C48.7641 13.9773 47.5054 15.2297 46.2529 16.4884C46.0588 16.6826 45.8459 16.8203 45.6392 16.8078Z" fill="#FCFCFC"/>
<path d="M33.0832 6.7632C33.0832 7.64617 33.0832 8.52915 33.0832 9.41212C33.0832 10.007 32.7513 10.3452 32.1689 10.3452C31.6116 10.3452 31.2797 10.0008 31.2734 9.42465C31.2734 7.63365 31.2734 5.84265 31.2734 4.05165C31.2734 3.47553 31.6116 3.1311 32.1689 3.1311C32.7325 3.1311 33.0707 3.46926 33.077 4.03913C33.0832 4.94715 33.0832 5.85517 33.0832 6.7632Z" fill="#FCFCFC"/>
<path d="M11.0218 29.1757C10.1325 29.1757 9.23703 29.1757 8.34779 29.1757C7.75288 29.1757 7.41472 28.8376 7.42098 28.2614C7.42098 27.7041 7.76541 27.3722 8.34779 27.3722C10.1388 27.3722 11.9298 27.3722 13.7208 27.3722C14.2969 27.3722 14.6351 27.7104 14.6351 28.274C14.6351 28.8376 14.2969 29.1757 13.7208 29.1757C12.8253 29.1757 11.9235 29.1757 11.0218 29.1757Z" fill="#FCFCFC"/>
<path d="M52.897 29.1757C51.9952 29.1757 51.0935 29.1757 50.198 29.1757C49.6219 29.1757 49.2837 28.8376 49.2837 28.274C49.2837 27.7104 49.6219 27.3722 50.198 27.3722C52.0015 27.3722 53.7988 27.3722 55.6023 27.3722C56.1721 27.3722 56.5103 27.7166 56.504 28.2865C56.504 28.8313 56.1596 29.1757 55.6085 29.1757C54.7005 29.1757 53.7988 29.1757 52.897 29.1757Z" fill="#FCFCFC"/>
</svg>
