<svg width="64" height="64" viewBox="0 0 64 64" fill="none" xmlns="http://www.w3.org/2000/svg">
<path d="M30.8305 6.38885C30.8087 6.39614 30.7869 6.39614 30.7651 6.40343C30.7869 6.40343 30.8087 6.39614 30.8305 6.38885Z" fill="#12A71E"/>
<path d="M31.1644 6.32324C31.1208 6.33053 31.0772 6.33782 31.0264 6.35239C31.07 6.33782 31.1208 6.33053 31.1644 6.32324Z" fill="#12A71E"/>
<path d="M35.9808 16.0951C35.9736 16.0951 35.9736 16.0951 35.9663 16.0878C35.9663 16.0878 35.9736 16.0951 35.9808 16.0951Z" fill="#0043FF"/>
<path d="M31.9348 60.5747C29.9372 60.5747 27.9395 60.5747 25.9491 60.5747C25.23 60.5747 24.8595 60.2322 24.7796 59.5108C24.7651 59.4015 24.7723 59.2995 24.7723 59.1901C24.7723 56.7344 24.7723 54.286 24.7723 51.8303C24.7723 51.4077 24.7723 51.4077 25.2009 51.4077C25.5859 51.4077 25.9709 51.4077 26.3559 51.4077C26.9225 51.4077 26.9225 51.4077 26.9225 51.9615C26.9225 53.8561 26.9225 55.7507 26.9225 57.6453C26.9225 57.7765 26.9225 57.9004 26.9225 58.0315C26.9225 58.5489 26.9225 58.5489 27.4238 58.5489C28.6441 58.5489 29.8573 58.5489 31.0776 58.5489C32.8792 58.5489 34.6879 58.5416 36.4895 58.5562C36.8091 58.5562 36.9108 58.4687 36.9108 58.1408C36.8963 56.0495 36.9035 53.9654 36.9035 51.874C36.9035 51.4077 36.9035 51.4077 37.3612 51.4077C37.8406 51.4077 38.32 51.415 38.7995 51.4077C39.0392 51.4004 39.1118 51.4951 39.1118 51.7283C39.1046 54.2787 39.1046 56.8292 39.1046 59.3723C39.1046 59.6347 39.0247 59.8751 38.9012 60.1083C38.7268 60.4216 38.4798 60.582 38.1021 60.582C36.0391 60.5674 33.9906 60.5747 31.9348 60.5747Z" fill="#FCFCFC"/>
<path d="M32.0216 63.657C30.9901 63.657 29.9513 63.657 28.9198 63.657C28.2297 63.657 27.8374 63.2708 27.8374 62.5931C27.8374 61.9446 28.2369 61.5584 28.9125 61.5511C30.9901 61.5511 33.0676 61.5511 35.1452 61.5511C35.8135 61.5511 36.2057 61.9446 36.213 62.5931C36.213 63.2489 35.8207 63.6424 35.1597 63.6497C34.1137 63.657 33.0676 63.657 32.0216 63.657Z" fill="#FCFCFC"/>
<path d="M32.0148 29.3573L20.1887 17.4941C16.9198 20.7733 15.2781 25.058 15.249 29.35H32.0148V29.3573Z" fill="#C0C0C0"/>
<path d="M32.0143 29.3573V12.5828C27.3943 12.5828 23.2101 14.4482 20.1592 17.465L32.0143 29.3573Z" fill="#9F9F9F"/>
<path d="M32.0146 29.3573H15.2925C15.2925 33.9918 17.1521 38.1891 20.1595 41.2496L32.0146 29.3573Z" fill="#DFDFDF"/>
<path d="M32.0146 29.3573L43.8335 41.2132C47.1024 37.9341 48.7441 33.6493 48.7731 29.3573H32.0146Z" fill="#404040"/>
<path d="M32.0146 29.3573V46.1246C36.6347 46.1246 40.8188 44.2591 43.8698 41.2423L32.0146 29.3573Z" fill="#FCFCFC"/>
<path d="M32.0146 29.3573L43.8335 17.5015C40.5646 14.2223 36.2933 12.5755 32.0146 12.5463V29.3573Z" fill="#7F7F7F"/>
<path d="M32.0146 29.3573H48.7295C48.7295 24.7228 46.8699 20.5256 43.8625 17.465L32.0146 29.3573Z" fill="#606060"/>
<path d="M39.1264 44.4268H32.0293V48.8572H39.1264V44.4268Z" fill="#FCFCFC"/>
<path d="M31.9563 50.2927C29.6827 50.2927 27.409 50.2854 25.1353 50.3C24.8374 50.3 24.7067 50.2126 24.6268 49.9211C23.8277 46.999 22.295 44.4923 20.2465 42.2916C19.0987 41.0529 17.9074 39.8578 16.9848 38.4223C14.9799 35.2962 14.0283 31.8859 14.2826 28.1695C14.5005 24.9414 15.641 22.0266 17.4861 19.3814C19.0261 17.1808 20.9075 15.3372 23.2175 13.96C25.4186 12.6556 27.7867 11.854 30.3364 11.6281C35.0581 11.2128 39.2714 12.5317 42.8962 15.5558C46.4266 18.4997 48.7439 22.2306 49.4776 26.836C49.9715 29.9184 49.572 32.9206 48.3371 35.7917C47.4218 37.9268 46.136 39.8068 44.5016 41.4391C42.7509 43.1879 41.2981 45.1336 40.252 47.3852C39.867 48.2087 39.5329 49.0612 39.3004 49.9357C39.2205 50.2271 39.0898 50.3 38.8065 50.3C36.5255 50.2854 34.2446 50.2927 31.9563 50.2927ZM31.9636 48.0046C33.6707 48.0046 35.3778 48.0046 37.0849 48.0046C37.3028 48.0046 37.4335 47.9536 37.5134 47.7204C38.5159 44.9004 40.1358 42.4738 42.1988 40.3242C43.2739 39.202 44.3273 38.0798 45.1408 36.739C46.9206 33.7951 47.6179 30.6252 47.1022 27.2222C46.4775 23.1124 44.4072 19.8114 41.2109 17.2318C38.0219 14.6522 34.3535 13.581 30.2638 14.0255C27.7358 14.3024 25.4476 15.1987 23.3773 16.678C21.4814 18.0334 19.9632 19.7458 18.7718 21.7424C17.1301 24.4896 16.411 27.4554 16.7088 30.6544C17.0066 33.8606 18.3215 36.6151 20.4499 38.9979C21.0673 39.6902 21.7356 40.3387 22.3458 41.0456C24.0456 43.0203 25.3677 45.2356 26.3702 47.6476C26.4719 47.9026 26.6099 48.0046 26.8932 47.9973C28.593 47.9973 30.2783 48.0046 31.9636 48.0046Z" fill="#FCFCFC"/>
<path d="M17.3043 14.7543C17.3043 15.3227 17.0501 15.6506 16.636 15.84C16.2001 16.0368 15.8006 15.9275 15.4665 15.5923C14.5366 14.6595 13.6068 13.7341 12.677 12.8014C12.1249 12.2476 11.5729 11.701 11.028 11.1399C10.6939 10.7974 10.6285 10.3384 10.8174 9.95945C11.028 9.52952 11.4494 9.29633 11.9143 9.34006C12.1758 9.36192 12.3792 9.49308 12.5535 9.67526C14.0282 11.1472 15.4955 12.6265 16.9702 14.1057C17.1808 14.2952 17.3188 14.5284 17.3043 14.7543Z" fill="#FCFCFC"/>
<path d="M47.8216 16.0586C47.2623 16.0514 46.9427 15.7963 46.7538 15.3955C46.5722 15.0166 46.6376 14.645 46.9063 14.3098C46.9209 14.2952 46.9354 14.2733 46.9499 14.2588C48.4536 12.7504 49.95 11.242 51.461 9.74085C51.9114 9.29635 52.507 9.34007 52.9429 9.78457C53.3424 10.1999 53.3642 10.761 52.9865 11.2055C52.9574 11.2347 52.9284 11.2711 52.8993 11.3003C51.4465 12.7649 49.9864 14.2223 48.5335 15.687C48.3083 15.9129 48.0613 16.0732 47.8216 16.0586Z" fill="#FCFCFC"/>
<path d="M33.2566 4.37036C33.2566 5.39782 33.2566 6.42528 33.2566 7.45274C33.2566 8.145 32.8716 8.5385 32.196 8.5385C31.5495 8.5385 31.1645 8.13772 31.1572 7.46731C31.1572 5.38324 31.1572 3.29917 31.1572 1.2151C31.1572 0.544704 31.5495 0.143921 32.196 0.143921C32.8498 0.143921 33.242 0.537417 33.2493 1.20053C33.2566 2.25714 33.2566 3.31375 33.2566 4.37036Z" fill="#FCFCFC"/>
<path d="M7.6648 30.4504C6.63329 30.4504 5.59451 30.4504 4.56299 30.4504C3.87289 30.4504 3.48063 30.0569 3.48789 29.3865C3.48789 28.738 3.88742 28.3517 4.56299 28.3517C6.64055 28.3517 8.71811 28.3517 10.7957 28.3517C11.464 28.3517 11.8562 28.7452 11.8562 29.4011C11.8562 30.0569 11.464 30.4504 10.7957 30.4504C9.75689 30.4504 8.71084 30.4504 7.6648 30.4504Z" fill="#FCFCFC"/>
<path d="M56.2408 30.4504C55.1947 30.4504 54.1487 30.4504 53.1099 30.4504C52.4416 30.4504 52.0493 30.0569 52.0493 29.4011C52.0493 28.7452 52.4416 28.3517 53.1099 28.3517C55.202 28.3517 57.2868 28.3517 59.3789 28.3517C60.0399 28.3517 60.4322 28.7525 60.4249 29.4156C60.4249 30.0496 60.0254 30.4504 59.3861 30.4504C58.3328 30.4504 57.2868 30.4504 56.2408 30.4504Z" fill="#FCFCFC"/>
</svg>
