<svg width="512" height="512" viewBox="0 0 512 512" fill="none" xmlns="http://www.w3.org/2000/svg">
<path d="M256.1 102.91C173.53 102.91 106.35 170.09 106.35 252.66C106.37 276.67 112.26 300.6 123.41 321.87C133.81 341.56 148.72 359.04 166.54 372.41L170.27 375.21L145.99 412.81C142.85 417.68 144.25 424.19 149.12 427.33C151.48 428.85 154.28 429.36 157.03 428.77C159.77 428.18 162.12 426.56 163.64 424.2L188.29 385.99L192.26 387.89C232.83 407.31 279.37 407.31 319.94 387.89L323.91 385.99L348.55 424.19C351.69 429.06 358.2 430.46 363.07 427.32C365.43 425.8 367.05 423.45 367.64 420.71C368.23 417.97 367.72 415.16 366.2 412.8L341.92 375.2L345.65 372.4C363.46 359.03 378.38 341.55 388.78 321.85C399.92 300.58 405.82 276.65 405.84 252.64C405.84 170.07 338.66 102.9 256.09 102.89L256.1 102.91ZM347.21 343.77C323.35 367.71 290.32 381.42 256.53 381.42C256.38 381.42 256.24 381.42 256.09 381.42C221.76 381.37 189.49 367.94 165.24 343.62C140.99 319.3 127.67 286.99 127.72 252.64C127.77 218.29 141.2 186.03 165.52 161.78C189.79 137.58 222.03 124.26 256.29 124.26H256.49C327.39 124.37 384.98 182.14 384.87 253.04C384.82 287.31 371.44 319.53 347.2 343.77H347.21Z" fill="#B4B7BA"/>
<path d="M114.64 143.72L160.09 101.29C164.28 97.3601 164.52 90.7501 160.64 86.5101L160.61 86.4801C158.63 84.4301 155.99 83.2401 153.15 83.1201H152.94C150.28 83.1601 147.73 84.1701 145.78 85.9801L100.34 128.37C98.2898 130.28 97.0998 132.87 97.0098 135.67C96.9098 138.47 97.9098 141.14 99.8098 143.19C101.74 145.26 104.33 146.44 107.13 146.53C109.92 146.63 112.59 145.63 114.64 143.72Z" fill="#B4B7BA"/>
<path d="M412.32 128.68L412.079 128.45L366.579 86C364.599 84.1 362.08 83.05 359.42 82.99C356.53 83.09 353.75 84.36 351.78 86.49C347.85 90.72 348.08 97.38 352.28 101.33L397.73 143.75C401.95 147.81 408.609 147.68 412.619 143.51C416.63 139.34 416.499 132.69 412.329 128.68H412.32Z" fill="#B4B7BA"/>
<path d="M319.41 254.81H266.59V189.37C266.59 183.6 261.87 178.89 256.09 178.88C250.32 178.88 245.61 183.6 245.61 189.38V265.32C245.61 271.09 250.33 275.8 256.11 275.81H319.41C325.2 275.81 329.91 271.1 329.91 265.31C329.91 259.52 325.2 254.81 319.41 254.81Z" fill="#B4B7BA"/>
</svg>
