<svg width="64" height="64" viewBox="0 0 64 64" fill="none" xmlns="http://www.w3.org/2000/svg">
<path d="M32.3194 46.0023C30.3593 46.0023 28.3993 45.9961 26.4392 46.0086C26.1824 46.0086 26.0697 45.9335 26.0008 45.683C25.312 43.1718 23.9906 41.0176 22.2247 39.1264C21.2353 38.0618 20.2083 37.0348 19.4129 35.8012C17.6846 33.1147 16.8642 30.1839 17.0834 26.9902C17.2713 24.216 18.2544 21.7111 19.845 19.438C21.1726 17.5468 22.7946 15.9624 24.7859 14.7789C26.6834 13.6579 28.7249 12.9691 30.9229 12.7749C34.9934 12.418 38.6255 13.5515 41.7503 16.1503C44.7938 18.6802 46.7914 21.8865 47.4239 25.8442C47.8497 28.4931 47.5053 31.0732 46.4407 33.5405C45.6517 35.3753 44.5433 36.991 43.1343 38.3937C41.6251 39.8967 40.3726 41.5687 39.4709 43.5037C39.139 44.2113 38.8509 44.944 38.6505 45.6955C38.5816 45.946 38.4689 46.0086 38.2247 46.0086C36.2584 46.0023 34.2857 46.0023 32.3194 46.0023ZM32.3257 44.0423C33.7973 44.0423 35.2689 44.0423 36.7405 44.0423C36.9284 44.0423 37.0411 43.9984 37.11 43.798C37.9742 41.3746 39.3707 39.2892 41.1492 37.4419C42.076 36.4775 42.984 35.5131 43.6854 34.3609C45.2196 31.8309 45.8208 29.1068 45.3762 26.1824C44.8376 22.6505 43.0529 19.8137 40.2975 17.5969C37.5484 15.38 34.3859 14.4595 30.8603 14.8415C28.6811 15.0794 26.7084 15.8497 24.9237 17.1209C23.2893 18.2857 21.9805 19.7573 20.9535 21.4732C19.5382 23.834 18.9182 26.3828 19.175 29.1319C19.4317 31.8873 20.5652 34.2544 22.4 36.3021C22.9323 36.8971 23.5084 37.4544 24.0345 38.0618C25.4998 39.7589 26.6396 41.6626 27.5038 43.7354C27.5914 43.9546 27.7104 44.0423 27.9546 44.036C29.4137 44.036 30.8666 44.0423 32.3257 44.0423Z" fill="#282828"/>
<path d="M32.3006 54.8384C30.5785 54.8384 28.8564 54.8384 27.1406 54.8384C26.5206 54.8384 26.2012 54.544 26.1323 53.9241C26.1198 53.8301 26.1261 53.7425 26.1261 53.6485C26.1261 51.5382 26.1261 49.4341 26.1261 47.3237C26.1261 46.9605 26.1261 46.9605 26.4955 46.9605C26.8274 46.9605 27.1593 46.9605 27.4912 46.9605C27.9797 46.9605 27.9797 46.9605 27.9797 47.4364C27.9797 49.0646 27.9797 50.6928 27.9797 52.3209C27.9797 52.4337 27.9797 52.5401 27.9797 52.6528C27.9797 53.0975 27.9797 53.0975 28.4118 53.0975C29.4638 53.0975 30.5096 53.0975 31.5617 53.0975C33.1147 53.0975 34.674 53.0912 36.2271 53.1037C36.5026 53.1037 36.5903 53.0286 36.5903 52.7468C36.5777 50.9495 36.584 49.1585 36.584 47.3613C36.584 46.9605 36.584 46.9605 36.9785 46.9605C37.3918 46.9605 37.8051 46.9667 38.2184 46.9605C38.4251 46.9542 38.4877 47.0356 38.4877 47.236C38.4815 49.4278 38.4815 51.6196 38.4815 53.8051C38.4815 54.0305 38.4126 54.2372 38.3061 54.4376C38.1558 54.7069 37.9429 54.8446 37.6173 54.8446C35.8325 54.8321 34.0666 54.8384 32.3006 54.8384Z" fill="#282828"/>
<path d="M32.3758 57.4935C31.4866 57.4935 30.5911 57.4935 29.7019 57.4935C29.107 57.4935 28.7688 57.1616 28.7688 56.5792C28.7688 56.0219 29.1132 55.69 29.6956 55.6837C31.4866 55.6837 33.2776 55.6837 35.0686 55.6837C35.6447 55.6837 35.9829 56.0219 35.9892 56.5792C35.9892 57.1428 35.651 57.481 35.0811 57.4873C34.1731 57.4935 33.2776 57.4935 32.3758 57.4935Z" fill="#282828"/>
</svg>
