<svg width="25" height="25" viewBox="0 0 25 25" fill="none" xmlns="http://www.w3.org/2000/svg">
<path d="M10.9748 22.5C10.5081 22.5 10.0706 22.4 9.6623 22.2C9.25397 22 8.90814 21.7167 8.6248 21.35L3.1748 14.425L3.6498 13.925C3.98314 13.575 4.38314 13.3667 4.8498 13.3C5.31647 13.2333 5.7498 13.325 6.1498 13.575L7.9998 14.7V6.5C7.9998 6.21667 8.09564 5.97917 8.2873 5.7875C8.47897 5.59583 8.71647 5.5 8.9998 5.5C9.28314 5.5 9.5248 5.59583 9.7248 5.7875C9.9248 5.97917 10.0248 6.21667 10.0248 6.5V18.3L7.5998 16.8L10.1998 20.125C10.2998 20.2417 10.4165 20.3333 10.5498 20.4C10.6831 20.4667 10.8248 20.5 10.9748 20.5H16.4998C17.0498 20.5 17.5206 20.3042 17.9123 19.9125C18.304 19.5208 18.4998 19.05 18.4998 18.5V14.5C18.4998 14.2167 18.404 13.9792 18.2123 13.7875C18.0206 13.5958 17.7831 13.5 17.4998 13.5H12.0248V11.5H17.4998C18.3331 11.5 19.0415 11.7917 19.6248 12.375C20.2081 12.9583 20.4998 13.6667 20.4998 14.5V18.5C20.4998 19.6 20.1081 20.5417 19.3248 21.325C18.5415 22.1083 17.5998 22.5 16.4998 22.5H10.9748ZM4.6748 9C4.45814 8.63333 4.29147 8.2375 4.1748 7.8125C4.05814 7.3875 3.9998 6.95 3.9998 6.5C3.9998 5.11667 4.4873 3.9375 5.4623 2.9625C6.4373 1.9875 7.61647 1.5 8.9998 1.5C10.3831 1.5 11.5623 1.9875 12.5373 2.9625C13.5123 3.9375 13.9998 5.11667 13.9998 6.5C13.9998 6.95 13.9415 7.3875 13.8248 7.8125C13.7081 8.2375 13.5415 8.63333 13.3248 9L11.5998 8C11.7331 7.76667 11.8331 7.52917 11.8998 7.2875C11.9665 7.04583 11.9998 6.78333 11.9998 6.5C11.9998 5.66667 11.7081 4.95833 11.1248 4.375C10.5415 3.79167 9.83314 3.5 8.9998 3.5C8.16647 3.5 7.45814 3.79167 6.8748 4.375C6.29147 4.95833 5.9998 5.66667 5.9998 6.5C5.9998 6.78333 6.03314 7.04583 6.0998 7.2875C6.16647 7.52917 6.26647 7.76667 6.3998 8L4.6748 9Z" fill="#7E8082"/>
</svg>
