<?xml version="1.0" encoding="UTF-8"?>
<svg height="600" width="800" xmlns="http://www.w3.org/2000/svg" xmlns:xlink="http://www.w3.org/1999/xlink">
    <g id="Notes" font-family="'LucidaGrande', 'Lucida Grande', sans-serif" font-size="13">
        <rect fill="white" height="600.0" width="800.0" x="0.0" y="0.0" />
        <g font-size="13">
            <text x="18.0" y="176.0">Small</text>
            <text x="18.0" y="376.0">Medium</text>
            <text x="18.0" y="576.0">Large</text>
        </g>
        <g font-size="9">
            <text x="250.0" y="30.0">Ultralight</text>
            <text x="450.0" y="30.0">Regular</text>
            <text x="650.0" y="30.0">Black</text>
            <text id="template-version" fill="#505050" text-anchor="end" x="785.0" y="575.0">Template v.3.0</text>
            <a href="https://github.com/swhitty/SwiftDraw">
                <text fill="#505050" text-anchor="end" x="785.0" y="590.0">https://github.com/swhitty/SwiftDraw</text>
            </a>
        </g>
    </g>
    <g id="Guides" stroke="rgb(39, 170, 225)" stroke-width="0.5">
        <path id="Capline-S" d="M18,76 l800,0" />
        <path id="H-reference" d="M85,145.755 L87.685,145.755 L113.369,79.287 L114.052,79.287 L114.052,76 L112.148,76 L85,145.755 Z M95.693,121.536 L130.996,121.536 L130.263,119.313 L96.474,119.313 L95.693,121.536 Z M139.15,145.755 L141.787,145.755 L114.638,76 L113.466,76 L113.466,79.287 L139.15,145.755 Z" stroke="none" />
        <path id="Baseline-S" d="M18,146 l800,0" />
        <path id="left-margin-Ultralight-S" d="M211,56 l0,110" />
        <path id="right-margin-Ultralight-S" d="M319,56 l0,110" />
        <path id="left-margin-Regular-S" d="M411,56 l0,110" />
        <path id="right-margin-Regular-S" d="M519,56 l0,110" />
        <path id="left-margin-Black-S" d="M611,56 l0,110" />
        <path id="right-margin-Black-S" d="M719,56 l0,110" />
        <path id="Capline-M" d="M18,276 l800,0" />
        <path id="Baseline-M" d="M18,346 l800,0" />
        <path id="Capline-L" d="M18,476 l800,0" />
        <path id="Baseline-L" d="M18,546 l800,0" />
    </g>
    <g id="Symbols">
        <g id="Ultralight-S">
            <path d="M270.562,120.159 C270.941,120.042 271.354,120.141 271.639,120.417 C274.128,122.834 275.4,125.169 275.792,127.376 C276.185,129.589 275.669,131.544 274.816,133.153 C273.971,134.749 272.786,136.024 271.786,136.93 C271.283,137.387 270.819,137.757 270.457,138.033 C270.283,138.166 270.132,138.278 270.015,138.364 L270.001,138.375 C269.94,138.42 269.892,138.455 269.853,138.484 C269.834,138.499 269.819,138.51 269.808,138.519 L269.795,138.529 L269.791,138.532 C269.79,138.533 269.79,138.533 269.79,138.533 C269.595,138.696 269.349,138.785 269.096,138.785 L268.958,138.785 C268.712,138.785 268.473,138.701 268.281,138.547 C268.252,138.524 268.207,138.491 268.148,138.446 C267.639,138.065 266.077,136.896 265.042,135.206 C264.451,134.241 263.995,133.055 264.005,131.696 C264.016,130.326 264.501,128.883 265.617,127.418 C267.662,124.691 268.733,123.013 269.287,122.036 C269.564,121.548 269.706,121.243 269.776,121.076 C269.811,120.995 269.826,120.949 269.831,120.933 C269.922,120.567 270.199,120.272 270.562,120.159 Z M271.185,123.085 C271.181,123.092 271.178,123.098 271.174,123.105 C270.559,124.19 269.43,125.95 267.35,128.723 L267.344,128.73 L267.344,128.73 C266.469,129.877 266.181,130.875 266.174,131.713 C266.168,132.563 266.451,133.354 266.892,134.074 C267.528,135.112 268.415,135.896 269.033,136.388 C270.03,135.633 271.813,134.189 272.9,132.138 C273.578,130.858 273.947,129.393 273.656,127.754 C273.415,126.394 272.702,124.826 271.185,123.085 Z" />
            <path d="M264.157,109.183 C264.755,109.055 265.405,109.231 265.874,109.7 C265.91,109.736 265.944,109.775 265.974,109.816 C267.339,111.635 268.667,114.748 268.667,118.169 C268.667,119.556 268.116,120.833 267.421,121.982 C266.83,122.959 266.075,123.936 265.351,124.873 C265.229,125.031 265.107,125.189 264.987,125.345 C263.248,127.611 261.896,129.626 262.061,131.83 C262.242,133.674 263.033,135.058 263.583,136.019 L263.607,136.061 C263.737,136.29 263.88,136.54 263.979,136.759 C264.029,136.871 264.087,137.016 264.124,137.176 C264.158,137.325 264.199,137.595 264.104,137.897 C263.99,138.256 263.735,138.511 263.439,138.648 C263.188,138.763 262.946,138.778 262.794,138.777 C262.488,138.775 262.14,138.699 261.805,138.611 L261.783,138.605 C259.025,137.817 256.41,135.43 255.162,132.367 C253.889,129.242 254.029,125.393 256.819,121.773 C260.714,116.669 262.303,112.402 262.819,110.469 C262.999,109.765 263.549,109.313 264.157,109.183 Z M264.694,111.788 C263.945,114.177 262.191,118.309 258.542,123.091 L258.538,123.095 L258.538,123.095 C256.241,126.076 256.175,129.104 257.171,131.548 C257.98,133.534 259.484,135.124 261.096,135.991 C260.597,135 260.059,133.66 259.901,132.028 L259.899,132.006 C259.656,128.85 261.604,126.191 263.266,124.025 C263.395,123.857 263.523,123.692 263.648,123.529 C264.376,122.586 265.044,121.721 265.565,120.859 C266.173,119.855 266.498,118.982 266.498,118.169 C266.498,115.66 265.643,113.332 264.694,111.788 Z" />
            <path d="M228.791,142.301 C225.518,136.257 223.779,129.472 223.779,122.431 C223.779,108.563 230.571,95.854 241.706,88.153 C242.337,87.717 242.495,86.852 242.059,86.22 C241.622,85.589 240.757,85.431 240.125,85.868 C228.246,94.083 221,107.642 221,122.431 C221,129.937 222.856,137.176 226.348,143.624 C226.713,144.299 227.556,144.55 228.231,144.185 C228.906,143.819 229.157,142.976 228.791,142.301 Z M303.652,143.624 C307.144,137.176 309,129.937 309,122.431 C309,97.956 289.303,78.111 265,78.111 C261.903,78.111 258.847,78.433 255.865,79.067 C255.114,79.227 254.635,79.965 254.795,80.716 C254.955,81.466 255.693,81.945 256.443,81.786 C259.235,81.192 262.098,80.89 265,80.89 C287.763,80.89 306.221,99.486 306.221,122.431 C306.221,129.472 304.482,136.257 301.209,142.301 C300.843,142.976 301.094,143.819 301.769,144.185 C302.444,144.55 303.287,144.299 303.652,143.624 Z" />
            <path d="M242.768,83.205 C242.768,80.136 245.257,77.648 248.326,77.648 C251.396,77.648 253.884,80.136 253.884,83.205 C253.884,86.275 251.396,88.763 248.326,88.763 C245.257,88.763 242.768,86.275 242.768,83.205 Z" />
            <path d="M263.611,79.5 L263.611,86.911 C263.611,87.678 264.233,88.3 265,88.3 C265.767,88.3 266.389,87.678 266.389,86.911 L266.389,79.5 C266.389,78.733 265.767,78.111 265,78.111 C264.233,78.111 263.611,78.733 263.611,79.5 Z" />
            <path d="M307.611,122.574 L300.2,122.574 C299.433,122.574 298.811,123.196 298.811,123.963 C298.811,124.731 299.433,125.353 300.2,125.353 L307.611,125.353 C308.378,125.353 309,124.731 309,123.963 C309,123.196 308.378,122.574 307.611,122.574 Z" />
            <path d="M229.8,122.574 L222.389,122.574 C221.622,122.574 221,123.196 221,123.963 C221,124.731 221.622,125.353 222.389,125.353 L229.8,125.353 C230.567,125.353 231.189,124.731 231.189,123.963 C231.189,123.196 230.567,122.574 229.8,122.574 Z" />
            <path d="M295.512,93.339 L290.272,98.579 C289.73,99.121 289.73,100.001 290.272,100.544 C290.815,101.086 291.695,101.086 292.237,100.544 L297.477,95.304 C298.02,94.761 298.02,93.881 297.477,93.339 C296.935,92.796 296.055,92.796 295.512,93.339 Z" />
            <path d="M232.523,95.304 L237.763,100.544 C238.305,101.086 239.185,101.086 239.728,100.544 C240.27,100.001 240.27,99.121 239.728,98.579 L234.488,93.339 C233.945,92.796 233.065,92.796 232.523,93.339 C231.98,93.881 231.98,94.761 232.523,95.304 Z" />
        </g>
        <g id="Regular-S">
            <path d="M470.562,120.159 C470.941,120.042 471.354,120.141 471.639,120.417 C474.128,122.834 475.4,125.169 475.792,127.376 C476.185,129.589 475.669,131.544 474.816,133.153 C473.971,134.749 472.786,136.024 471.786,136.93 C471.283,137.387 470.819,137.757 470.457,138.033 C470.283,138.166 470.132,138.278 470.015,138.364 L470.001,138.375 C469.94,138.42 469.892,138.455 469.853,138.484 C469.834,138.499 469.819,138.51 469.808,138.519 L469.795,138.529 L469.791,138.532 C469.79,138.533 469.79,138.533 469.79,138.533 C469.595,138.696 469.349,138.785 469.096,138.785 L468.958,138.785 C468.712,138.785 468.473,138.701 468.281,138.547 C468.252,138.524 468.207,138.491 468.148,138.446 C467.639,138.065 466.077,136.896 465.042,135.206 C464.451,134.241 463.995,133.055 464.005,131.696 C464.016,130.326 464.501,128.883 465.617,127.418 C467.662,124.691 468.733,123.013 469.287,122.036 C469.564,121.548 469.706,121.243 469.776,121.076 C469.811,120.995 469.826,120.949 469.831,120.933 C469.922,120.567 470.199,120.272 470.562,120.159 Z M471.185,123.085 C471.181,123.092 471.178,123.098 471.174,123.105 C470.559,124.19 469.43,125.95 467.35,128.723 L467.344,128.73 L467.344,128.73 C466.469,129.877 466.181,130.875 466.174,131.713 C466.168,132.563 466.451,133.354 466.892,134.074 C467.528,135.112 468.415,135.896 469.033,136.388 C470.03,135.633 471.813,134.189 472.9,132.138 C473.578,130.858 473.947,129.393 473.656,127.754 C473.415,126.394 472.702,124.826 471.185,123.085 Z" />
            <path d="M464.157,109.183 C464.755,109.055 465.405,109.231 465.874,109.7 C465.91,109.736 465.944,109.775 465.974,109.816 C467.339,111.635 468.667,114.748 468.667,118.169 C468.667,119.556 468.116,120.833 467.421,121.982 C466.83,122.959 466.075,123.936 465.351,124.873 C465.229,125.031 465.107,125.189 464.987,125.345 C463.248,127.611 461.896,129.626 462.061,131.83 C462.242,133.674 463.033,135.058 463.583,136.019 L463.607,136.061 C463.737,136.29 463.88,136.54 463.979,136.759 C464.029,136.871 464.087,137.016 464.124,137.176 C464.158,137.325 464.199,137.595 464.104,137.897 C463.99,138.256 463.735,138.511 463.439,138.648 C463.188,138.763 462.946,138.778 462.794,138.777 C462.488,138.775 462.14,138.699 461.805,138.611 L461.783,138.605 C459.025,137.817 456.41,135.43 455.162,132.367 C453.889,129.242 454.029,125.393 456.819,121.773 C460.714,116.669 462.303,112.402 462.819,110.469 C462.999,109.765 463.549,109.313 464.157,109.183 Z M464.694,111.788 C463.945,114.177 462.191,118.309 458.542,123.091 L458.538,123.095 L458.538,123.095 C456.241,126.076 456.175,129.104 457.171,131.548 C457.98,133.534 459.484,135.124 461.096,135.991 C460.597,135 460.059,133.66 459.901,132.028 L459.899,132.006 C459.656,128.85 461.604,126.191 463.266,124.025 C463.395,123.857 463.523,123.692 463.648,123.529 C464.376,122.586 465.044,121.721 465.565,120.859 C466.173,119.855 466.498,118.982 466.498,118.169 C466.498,115.66 465.643,113.332 464.694,111.788 Z" />
            <path d="M428.791,142.301 C425.518,136.257 423.779,129.472 423.779,122.431 C423.779,108.563 430.571,95.854 441.706,88.153 C442.337,87.717 442.495,86.852 442.059,86.22 C441.622,85.589 440.757,85.431 440.125,85.868 C428.246,94.083 421,107.642 421,122.431 C421,129.937 422.856,137.176 426.348,143.624 C426.713,144.299 427.556,144.55 428.231,144.185 C428.906,143.819 429.157,142.976 428.791,142.301 Z M503.652,143.624 C507.144,137.176 509,129.937 509,122.431 C509,97.956 489.303,78.111 465,78.111 C461.903,78.111 458.847,78.433 455.865,79.067 C455.114,79.227 454.635,79.965 454.795,80.716 C454.955,81.466 455.693,81.945 456.443,81.786 C459.235,81.192 462.098,80.89 465,80.89 C487.763,80.89 506.221,99.486 506.221,122.431 C506.221,129.472 504.482,136.257 501.209,142.301 C500.843,142.976 501.094,143.819 501.769,144.185 C502.444,144.55 503.287,144.299 503.652,143.624 Z" />
            <path d="M442.768,83.205 C442.768,80.136 445.257,77.648 448.326,77.648 C451.396,77.648 453.884,80.136 453.884,83.205 C453.884,86.275 451.396,88.763 448.326,88.763 C445.257,88.763 442.768,86.275 442.768,83.205 Z" />
            <path d="M463.611,79.5 L463.611,86.911 C463.611,87.678 464.233,88.3 465,88.3 C465.767,88.3 466.389,87.678 466.389,86.911 L466.389,79.5 C466.389,78.733 465.767,78.111 465,78.111 C464.233,78.111 463.611,78.733 463.611,79.5 Z" />
            <path d="M507.611,122.574 L500.2,122.574 C499.433,122.574 498.811,123.196 498.811,123.963 C498.811,124.731 499.433,125.353 500.2,125.353 L507.611,125.353 C508.378,125.353 509,124.731 509,123.963 C509,123.196 508.378,122.574 507.611,122.574 Z" />
            <path d="M429.8,122.574 L422.389,122.574 C421.622,122.574 421,123.196 421,123.963 C421,124.731 421.622,125.353 422.389,125.353 L429.8,125.353 C430.567,125.353 431.189,124.731 431.189,123.963 C431.189,123.196 430.567,122.574 429.8,122.574 Z" />
            <path d="M495.512,93.339 L490.272,98.579 C489.73,99.121 489.73,100.001 490.272,100.544 C490.815,101.086 491.695,101.086 492.237,100.544 L497.477,95.304 C498.02,94.761 498.02,93.881 497.477,93.339 C496.935,92.796 496.055,92.796 495.512,93.339 Z" />
            <path d="M432.523,95.304 L437.763,100.544 C438.305,101.086 439.185,101.086 439.728,100.544 C440.27,100.001 440.27,99.121 439.728,98.579 L434.488,93.339 C433.945,92.796 433.065,92.796 432.523,93.339 C431.98,93.881 431.98,94.761 432.523,95.304 Z" />
        </g>
        <g id="Black-S">
            <path d="M670.562,120.159 C670.941,120.042 671.354,120.141 671.639,120.417 C674.128,122.834 675.401,125.169 675.792,127.376 C676.185,129.589 675.669,131.544 674.816,133.153 C673.971,134.749 672.786,136.024 671.786,136.93 C671.283,137.387 670.819,137.757 670.457,138.033 C670.283,138.166 670.132,138.278 670.015,138.364 L670.001,138.375 C669.94,138.42 669.892,138.455 669.853,138.484 C669.834,138.499 669.819,138.51 669.808,138.519 L669.795,138.529 L669.791,138.532 C669.79,138.533 669.79,138.533 669.79,138.533 C669.595,138.696 669.349,138.785 669.096,138.785 L668.958,138.785 C668.712,138.785 668.473,138.701 668.281,138.547 C668.253,138.524 668.207,138.491 668.148,138.446 C667.639,138.065 666.077,136.896 665.042,135.206 C664.451,134.241 663.995,133.055 664.005,131.696 C664.016,130.326 664.501,128.883 665.617,127.418 C667.662,124.691 668.733,123.013 669.287,122.036 C669.564,121.548 669.706,121.243 669.776,121.076 C669.811,120.995 669.826,120.949 669.831,120.933 C669.922,120.567 670.199,120.272 670.562,120.159 Z M671.185,123.085 C671.182,123.092 671.178,123.098 671.174,123.105 C670.559,124.19 669.43,125.95 667.35,128.723 L667.345,128.73 L667.345,128.73 C666.469,129.877 666.181,130.875 666.174,131.713 C666.168,132.563 666.451,133.354 666.892,134.074 C667.528,135.112 668.415,135.896 669.033,136.388 C670.03,135.633 671.813,134.189 672.9,132.138 C673.578,130.858 673.947,129.393 673.656,127.754 C673.415,126.394 672.702,124.826 671.185,123.085 Z" />
            <path d="M664.157,109.183 C664.755,109.055 665.405,109.231 665.874,109.7 C665.91,109.736 665.944,109.775 665.974,109.816 C667.339,111.635 668.667,114.748 668.667,118.169 C668.667,119.556 668.116,120.833 667.421,121.982 C666.83,122.959 666.075,123.936 665.351,124.873 C665.229,125.031 665.107,125.189 664.987,125.345 C663.248,127.611 661.896,129.626 662.061,131.83 C662.242,133.674 663.033,135.058 663.583,136.019 L663.607,136.061 C663.737,136.29 663.88,136.54 663.979,136.759 C664.029,136.871 664.087,137.016 664.124,137.176 C664.158,137.325 664.199,137.595 664.104,137.897 C663.991,138.256 663.735,138.511 663.439,138.648 C663.188,138.763 662.946,138.778 662.794,138.777 C662.488,138.775 662.14,138.699 661.805,138.611 L661.783,138.605 C659.025,137.817 656.41,135.43 655.162,132.367 C653.889,129.242 654.029,125.393 656.819,121.773 C660.714,116.669 662.303,112.402 662.819,110.469 C662.999,109.765 663.549,109.313 664.157,109.183 Z M664.694,111.788 C663.945,114.177 662.191,118.309 658.542,123.091 L658.538,123.095 L658.538,123.095 C656.241,126.076 656.175,129.104 657.171,131.548 C657.98,133.534 659.484,135.124 661.096,135.991 C660.597,135 660.059,133.66 659.901,132.028 L659.899,132.006 C659.656,128.85 661.604,126.191 663.267,124.025 C663.395,123.857 663.523,123.692 663.648,123.529 C664.376,122.586 665.044,121.721 665.565,120.859 C666.173,119.855 666.498,118.982 666.498,118.169 C666.498,115.66 665.643,113.332 664.694,111.788 Z" />
            <path d="M628.791,142.301 C625.518,136.257 623.779,129.472 623.779,122.431 C623.779,108.563 630.571,95.854 641.706,88.153 C642.337,87.717 642.495,86.852 642.059,86.22 C641.622,85.589 640.757,85.431 640.125,85.868 C628.246,94.083 621,107.642 621,122.431 C621,129.937 622.856,137.176 626.348,143.624 C626.713,144.299 627.556,144.55 628.231,144.185 C628.906,143.819 629.157,142.976 628.791,142.301 Z M703.652,143.624 C707.144,137.176 709,129.937 709,122.431 C709,97.956 689.303,78.111 665,78.111 C661.903,78.111 658.847,78.433 655.865,79.067 C655.114,79.227 654.635,79.965 654.795,80.716 C654.955,81.466 655.693,81.945 656.443,81.786 C659.235,81.192 662.098,80.89 665,80.89 C687.763,80.89 706.221,99.486 706.221,122.431 C706.221,129.472 704.482,136.257 701.209,142.301 C700.843,142.976 701.094,143.819 701.769,144.185 C702.444,144.55 703.287,144.299 703.652,143.624 Z" />
            <path d="M642.768,83.205 C642.768,80.136 645.257,77.648 648.326,77.648 C651.396,77.648 653.884,80.136 653.884,83.205 C653.884,86.275 651.396,88.763 648.326,88.763 C645.257,88.763 642.768,86.275 642.768,83.205 Z" />
            <path d="M663.611,79.5 L663.611,86.911 C663.611,87.678 664.233,88.3 665,88.3 C665.767,88.3 666.39,87.678 666.39,86.911 L666.39,79.5 C666.39,78.733 665.767,78.111 665,78.111 C664.233,78.111 663.611,78.733 663.611,79.5 Z" />
            <path d="M707.611,122.574 L700.2,122.574 C699.433,122.574 698.811,123.196 698.811,123.963 C698.811,124.731 699.433,125.353 700.2,125.353 L707.611,125.353 C708.378,125.353 709,124.731 709,123.963 C709,123.196 708.378,122.574 707.611,122.574 Z" />
            <path d="M629.8,122.574 L622.39,122.574 C621.622,122.574 621,123.196 621,123.963 C621,124.731 621.622,125.353 622.39,125.353 L629.8,125.353 C630.567,125.353 631.19,124.731 631.19,123.963 C631.19,123.196 630.567,122.574 629.8,122.574 Z" />
            <path d="M695.512,93.339 L690.272,98.579 C689.73,99.121 689.73,100.001 690.272,100.544 C690.815,101.086 691.695,101.086 692.237,100.544 L697.477,95.304 C698.02,94.761 698.02,93.881 697.477,93.339 C696.935,92.796 696.055,92.796 695.512,93.339 Z" />
            <path d="M632.523,95.304 L637.763,100.544 C638.305,101.086 639.185,101.086 639.728,100.544 C640.27,100.001 640.27,99.121 639.728,98.579 L634.488,93.339 C633.945,92.796 633.065,92.796 632.523,93.339 C631.98,93.881 631.98,94.761 632.523,95.304 Z" />
        </g>
    </g>
</svg>