<svg width="512" height="512" viewBox="0 0 512 512" fill="none" xmlns="http://www.w3.org/2000/svg">
<path d="M194.291 139.87C199.854 139.874 205.288 141.546 209.891 144.67C214.824 147.966 218.864 152.433 221.651 157.67C224.597 163.27 226.137 169.502 226.137 175.83C226.137 182.158 224.597 188.39 221.651 193.99C218.841 199.212 214.806 203.673 209.891 206.99C205.305 210.159 199.865 211.861 194.291 211.87H164.851L166.451 208.99V242.11C166.54 244.687 165.622 247.198 163.891 249.11C163.041 250.036 161.999 250.766 160.839 251.25C159.679 251.733 158.427 251.958 157.171 251.91C155.94 251.948 154.715 251.717 153.582 251.233C152.449 250.75 151.435 250.025 150.611 249.11C148.88 247.198 147.962 244.687 148.051 242.11V149.63C148.025 148.341 148.26 147.061 148.741 145.865C149.222 144.669 149.94 143.583 150.852 142.671C151.763 141.76 152.85 141.042 154.045 140.56C155.241 140.079 156.522 139.844 157.811 139.87H194.291ZM194.291 193.63C196.516 193.551 198.629 192.637 200.211 191.07C202.245 189.205 203.878 186.946 205.011 184.43C206.275 181.739 206.931 178.803 206.931 175.83C206.931 172.857 206.275 169.921 205.011 167.23C203.88 164.759 202.245 162.552 200.211 160.75C198.609 159.224 196.502 158.341 194.291 158.27H164.531L166.451 155.39V196.19L164.691 193.63H194.291Z" fill="#B4B7BA"/>
<path d="M351.569 149.47V242.11C351.614 243.417 351.387 244.72 350.902 245.935C350.417 247.149 349.685 248.251 348.752 249.168C347.82 250.085 346.707 250.799 345.484 251.264C344.262 251.729 342.956 251.936 341.649 251.87C340.309 251.924 338.972 251.703 337.72 251.222C336.468 250.74 335.328 250.008 334.369 249.07C333.447 248.158 332.723 247.065 332.241 245.861C331.759 244.657 331.531 243.366 331.569 242.07V177.7L305.169 218C304.154 219.203 302.936 220.218 301.569 221C300.255 221.821 298.717 222.213 297.169 222.12C295.674 222.199 294.191 221.807 292.929 221C291.563 220.218 290.345 219.203 289.329 218L262.929 176.26V242.16C263.018 244.737 262.1 247.248 260.369 249.16C259.519 250.086 258.478 250.816 257.317 251.299C256.157 251.783 254.905 252.008 253.649 251.96C252.418 251.999 251.193 251.769 250.06 251.285C248.927 250.801 247.913 250.076 247.089 249.16C245.359 247.248 244.44 244.737 244.529 242.16V149.47C244.522 148.177 244.785 146.897 245.302 145.713C245.819 144.528 246.577 143.464 247.529 142.59C248.462 141.656 249.573 140.92 250.796 140.426C252.02 139.931 253.33 139.687 254.649 139.71C256.293 139.748 257.907 140.158 259.369 140.91C260.881 141.591 262.181 142.67 263.129 144.03L297.959 197.64L333.809 144C334.641 142.672 335.797 141.579 337.169 140.823C338.541 140.067 340.083 139.674 341.649 139.68C344.205 139.68 346.665 140.652 348.529 142.4C349.527 143.28 350.317 144.371 350.843 145.593C351.369 146.816 351.617 148.14 351.569 149.47Z" fill="#B4B7BA"/>
<path d="M209.33 354.27C210.521 354.236 211.707 354.445 212.814 354.885C213.922 355.325 214.928 355.987 215.77 356.83C216.613 357.672 217.275 358.678 217.715 359.786C218.155 360.893 218.364 362.079 218.33 363.27C218.357 364.419 218.144 365.561 217.703 366.622C217.262 367.683 216.603 368.64 215.77 369.43C214.922 370.249 213.919 370.89 212.82 371.316C211.721 371.742 210.548 371.944 209.37 371.91H154.97C153.757 371.974 152.545 371.779 151.414 371.337C150.283 370.896 149.259 370.218 148.41 369.35C146.779 367.564 145.917 365.207 146.01 362.79C146.008 360.168 147.043 357.652 148.89 355.79L183.77 318.51C187.475 314.586 190.624 310.171 193.13 305.39C195.416 300.91 196.563 297.017 196.57 293.71C196.57 288.377 195.023 284.084 191.93 280.83C188.836 277.577 184.73 275.95 179.61 275.95C177.451 275.98 175.323 276.471 173.37 277.39C171.132 278.416 169.057 279.764 167.21 281.39C165.173 283.17 163.323 285.154 161.69 287.31C160.758 288.737 159.42 289.851 157.85 290.51C156.719 290.913 155.53 291.129 154.33 291.15C151.913 291.124 149.597 290.18 147.85 288.51C146.925 287.77 146.176 286.833 145.657 285.768C145.138 284.703 144.862 283.535 144.85 282.35C144.882 280.439 145.527 278.588 146.69 277.07C148.065 275.191 149.59 273.425 151.25 271.79C153.963 269.11 156.984 266.76 160.25 264.79C163.443 262.786 166.868 261.178 170.45 260C173.756 258.915 177.21 258.348 180.69 258.32C187.159 258.161 193.566 259.618 199.33 262.56C204.495 265.278 208.751 269.45 211.57 274.56C214.562 280.194 216.05 286.504 215.89 292.88C215.89 298.754 214.156 305.287 210.69 312.48C207.075 319.897 202.354 326.722 196.69 332.72L175.09 355.72L173.33 354.28L209.33 354.27Z" fill="#B4B7BA"/>
<path d="M246 371.71C242.9 371.71 240.527 370.883 238.88 369.23C237.22 367.58 236.4 365.23 236.4 362.11V359.39C236.4 356.3 237.22 353.92 238.88 352.27C240.54 350.62 242.88 349.79 246 349.79H248.08C251.167 349.79 253.54 350.617 255.2 352.27C256.85 353.92 257.68 356.27 257.68 359.39V362.11C257.68 365.2 256.85 367.58 255.2 369.23C253.55 370.88 251.2 371.71 248.08 371.71H246Z" fill="#B4B7BA"/>
<path d="M305.489 373.47C301.213 373.42 296.962 372.801 292.849 371.63C288.85 370.628 285.103 368.802 281.849 366.27C280.41 365.031 279.286 363.468 278.569 361.71C277.809 360.023 277.4 358.199 277.369 356.35C277.398 355.385 277.618 354.436 278.016 353.557C278.414 352.678 278.983 351.887 279.689 351.23C280.57 350.393 281.615 349.748 282.758 349.335C283.901 348.921 285.117 348.75 286.329 348.83C288.249 348.83 290.649 349.83 293.529 351.83C295.313 352.942 297.186 353.905 299.129 354.71C301.102 355.55 303.224 355.986 305.369 355.99C309.954 356.107 314.502 355.148 318.649 353.19C322.208 351.477 325.206 348.785 327.289 345.43C329.358 341.892 330.397 337.846 330.289 333.75C330.392 330.084 329.418 326.468 327.489 323.35C325.662 320.508 323.125 318.191 320.129 316.63C317.097 315.031 313.717 314.207 310.289 314.23C307.33 314.161 304.388 314.706 301.649 315.83C299.189 316.903 296.949 317.996 294.929 319.11C293.079 320.18 290.986 320.759 288.849 320.79C285.329 320.79 282.709 320.02 281.009 318.47C279.363 317.033 278.238 315.092 277.809 312.95C277.39 311.06 277.282 309.114 277.489 307.19L282.489 268.31C282.875 266.132 284.041 264.17 285.769 262.79C287.552 261.34 289.793 260.574 292.089 260.63H338.329C339.52 260.595 340.706 260.804 341.814 261.244C342.921 261.684 343.927 262.346 344.77 263.189C345.613 264.032 346.274 265.037 346.714 266.145C347.155 267.253 347.364 268.438 347.329 269.63C347.355 270.778 347.14 271.919 346.7 272.98C346.259 274.041 345.601 274.998 344.769 275.79C343.921 276.608 342.918 277.249 341.819 277.675C340.72 278.101 339.547 278.303 338.369 278.27H296.999L298.759 276.83L294.439 309.31L292.359 303.23C292.999 302.16 294.359 301.15 296.519 300.23C298.893 299.184 301.357 298.354 303.879 297.75C306.548 297.084 309.289 296.749 312.039 296.75C318.759 296.643 325.386 298.328 331.239 301.63C336.795 304.789 341.407 309.373 344.599 314.91C347.902 320.69 349.588 327.253 349.479 333.91C349.654 341.279 347.77 348.552 344.039 354.91C340.39 360.902 335.083 365.71 328.759 368.75C322.206 371.896 314.449 373.47 305.489 373.47Z" fill="#B4B7BA"/>
<path d="M25.9995 119C23.453 119.005 21.0005 118.038 19.1422 116.297C17.284 114.556 16.16 112.171 15.9995 109.63C15.1892 96.4989 18.476 83.4405 25.4058 72.2579C32.3356 61.0753 42.5666 52.3203 54.6858 47.2019C66.8051 42.0835 80.2145 40.8544 93.0623 43.6842C105.91 46.5141 117.562 53.2633 126.41 62.9997C127.331 63.9657 128.05 65.1065 128.524 66.3547C128.997 67.603 129.216 68.9335 129.168 70.2678C129.119 71.602 128.803 72.913 128.24 74.1234C127.676 75.3338 126.876 76.419 125.887 77.3152C124.897 78.2114 123.738 78.9003 122.478 79.3414C121.217 79.7824 119.882 79.9666 118.549 79.8831C117.217 79.7997 115.914 79.4502 114.719 78.8554C113.524 78.2605 112.46 77.4324 111.59 76.4197C105.526 69.7428 97.5368 65.1149 88.728 63.1761C79.9192 61.2373 70.7256 62.0833 62.4186 65.5972C54.1116 69.1111 47.1016 75.1192 42.358 82.7906C37.6143 90.4621 35.3715 99.418 35.9395 108.42C36.0983 111.062 35.2034 113.659 33.4508 115.642C31.6982 117.625 29.2309 118.832 26.5895 119H25.9995Z" fill="#00D151"/>
<path d="M488.129 71.7699C487.269 71.7679 486.412 71.657 485.579 71.4399C484.309 71.1061 483.116 70.5252 482.07 69.7304C481.024 68.9355 480.144 67.9423 479.482 66.8074C478.82 65.6725 478.388 64.4183 478.211 63.1164C478.034 61.8145 478.115 60.4904 478.449 59.2199C479.333 55.8225 479.14 52.2346 477.897 48.9516C476.655 45.6686 474.423 42.8525 471.511 40.8921C468.599 38.9318 465.15 37.9239 461.641 38.0077C458.131 38.0915 454.735 39.2628 451.919 41.3599C449.79 42.7758 447.199 43.322 444.678 42.8861C442.158 42.4503 439.901 41.0654 438.371 39.0164C436.84 36.9674 436.153 34.4099 436.451 31.8698C436.748 29.3297 438.007 27.0001 439.969 25.3599C446.11 20.7771 453.523 18.2169 461.183 18.034C468.842 17.851 476.369 20.0543 482.721 24.3388C489.073 28.6232 493.936 34.7767 496.635 41.9472C499.335 49.1176 499.738 56.9501 497.789 64.3599C497.219 66.486 495.964 68.3646 494.217 69.7043C492.471 71.0441 490.331 71.7701 488.129 71.7699Z" fill="#00D151"/>
<path d="M154.3 504C149.212 503.996 144.18 502.943 139.518 500.907C134.856 498.87 130.664 495.895 127.204 492.165C123.744 488.436 121.09 484.033 119.408 479.231C117.727 474.43 117.053 469.333 117.43 464.26C117.668 461.644 118.926 459.227 120.931 457.53C122.937 455.834 125.529 454.995 128.149 455.195C130.768 455.395 133.203 456.617 134.929 458.597C136.654 460.578 137.531 463.158 137.37 465.78C137.107 469.283 137.939 472.78 139.752 475.789C141.565 478.798 144.268 481.169 147.487 482.573C150.706 483.978 154.283 484.348 157.721 483.63C161.16 482.913 164.29 481.145 166.68 478.57C167.575 477.609 168.65 476.833 169.845 476.287C171.04 475.742 172.33 475.437 173.643 475.39C174.955 475.343 176.264 475.555 177.495 476.014C178.725 476.473 179.853 477.17 180.815 478.065C181.776 478.96 182.552 480.035 183.097 481.23C183.643 482.425 183.948 483.715 183.995 485.028C184.042 486.34 183.829 487.649 183.371 488.88C182.912 490.11 182.215 491.239 181.32 492.2C177.87 495.92 173.69 498.888 169.041 500.918C164.391 502.949 159.373 503.998 154.3 504Z" fill="#B4B7BA"/>
<path d="M452.429 292.86C450.053 292.864 447.752 292.021 445.94 290.483C444.128 288.945 442.923 286.811 442.542 284.465C442.16 282.119 442.627 279.714 443.858 277.681C445.089 275.648 447.004 274.119 449.259 273.37C452.593 272.252 455.496 270.125 457.566 267.283C459.637 264.442 460.773 261.027 460.817 257.512C460.861 253.996 459.811 250.554 457.812 247.662C455.813 244.77 452.964 242.571 449.659 241.37C447.212 240.427 445.233 238.561 444.148 236.173C443.064 233.784 442.961 231.066 443.862 228.603C444.763 226.139 446.596 224.129 448.965 223.004C451.335 221.879 454.051 221.731 456.529 222.59C463.721 225.22 469.917 230.019 474.262 236.324C478.608 242.629 480.887 250.128 480.784 257.785C480.682 265.441 478.204 272.877 473.692 279.063C469.181 285.25 462.858 289.883 455.599 292.32C454.579 292.67 453.508 292.852 452.429 292.86Z" fill="#00D151"/>
<path d="M387.741 447.28C387.776 460.058 383.958 472.55 376.786 483.126C369.613 493.701 359.419 501.869 347.534 506.563C335.649 511.256 322.626 512.258 310.162 509.437C297.699 506.617 286.376 500.104 277.671 490.75C276.751 489.793 276.03 488.661 275.552 487.423C275.074 486.184 274.847 484.862 274.885 483.534C274.923 482.207 275.225 480.9 275.774 479.691C276.322 478.481 277.106 477.393 278.08 476.49C279.053 475.587 280.197 474.886 281.444 474.43C282.692 473.974 284.017 473.77 285.344 473.832C286.67 473.893 287.972 474.218 289.171 474.788C290.371 475.358 291.445 476.161 292.331 477.15C298.01 483.263 305.326 487.614 313.408 489.686C321.491 491.758 329.998 491.462 337.917 488.835C345.836 486.208 352.833 481.36 358.075 474.868C363.316 468.377 366.581 460.515 367.481 452.22C371.585 451.877 375.649 451.157 379.621 450.07C382.386 449.319 385.098 448.387 387.741 447.28Z" fill="#00D151"/>
<path d="M463.63 401C451.898 404.243 439.409 403.36 428.25 398.5C425.937 409.297 421.044 419.373 413.99 427.868C406.935 436.363 397.929 443.023 387.74 447.28C385.097 448.387 382.385 449.319 379.62 450.07C375.648 451.157 371.584 451.876 367.48 452.22C365.54 452.4 363.6 452.48 361.66 452.48C345.006 452.474 328.938 446.337 316.52 435.24C315.507 434.376 314.678 433.319 314.079 432.131C313.48 430.942 313.125 429.646 313.033 428.319C312.942 426.991 313.116 425.659 313.547 424.399C313.977 423.14 314.654 421.979 315.538 420.985C316.423 419.991 317.497 419.183 318.697 418.609C319.898 418.035 321.201 417.707 322.53 417.643C323.859 417.579 325.188 417.781 326.438 418.238C327.688 418.694 328.834 419.395 329.81 420.3C336.908 426.616 345.722 430.683 355.133 431.986C364.545 433.289 374.132 431.77 382.68 427.62C391.227 423.471 398.351 416.878 403.149 408.676C407.946 400.475 410.202 391.034 409.63 381.55C409.505 379.545 409.986 377.55 411.011 375.823C412.036 374.096 413.557 372.718 415.376 371.868C417.195 371.018 419.229 370.735 421.211 371.056C423.193 371.377 425.032 372.288 426.49 373.67C431.788 378.709 438.59 381.874 445.857 382.684C453.124 383.493 460.456 381.901 466.733 378.15C473.01 374.4 477.887 368.699 480.619 361.916C483.35 355.133 483.786 347.643 481.86 340.59C481.496 339.281 481.062 337.992 480.56 336.73C480.032 335.505 479.754 334.186 479.743 332.852C479.732 331.518 479.988 330.195 480.496 328.962C481.004 327.728 481.753 326.609 482.701 325.669C483.648 324.73 484.773 323.989 486.011 323.492C487.249 322.994 488.574 322.749 489.908 322.771C491.242 322.793 492.558 323.082 493.778 323.62C494.999 324.159 496.099 324.936 497.015 325.906C497.931 326.876 498.643 328.02 499.11 329.27C499.908 331.249 500.592 333.272 501.16 335.33C504.873 349.014 503.007 363.613 495.972 375.924C488.936 388.235 477.305 397.253 463.63 401Z" fill="#B4B7BA"/>
<path d="M119.091 404.4C106.862 411.507 92.6684 414.487 78.6137 412.897C64.5589 411.307 51.39 405.232 41.0575 395.573C30.7249 385.914 23.7783 373.183 21.2465 359.267C18.7147 345.351 20.7324 330.99 27.0007 318.31C21.8194 313.985 17.6069 308.618 14.6374 302.557C11.6678 296.497 10.0078 289.878 9.7654 283.134C9.52297 276.389 10.7035 269.669 13.2303 263.41C15.757 257.152 19.5733 251.496 24.4307 246.81C26.3399 244.979 28.897 243.978 31.5422 244.028C34.1875 244.078 36.7051 245.174 38.5439 247.076C40.3826 248.979 41.3926 251.532 41.3527 254.177C41.3127 256.823 40.2261 259.344 38.3307 261.19C34.4468 264.951 31.7272 269.751 30.4966 275.015C29.266 280.28 29.5764 285.787 31.3907 290.88C33.5016 296.869 37.5987 301.954 43.0007 305.29C46.2791 307.324 49.9403 308.663 53.7573 309.224C57.5744 309.785 61.4659 309.555 65.1907 308.55C67.7501 307.854 70.4812 308.203 72.7832 309.521C75.0852 310.838 76.7695 313.016 77.4657 315.575C78.1619 318.135 77.8129 320.866 76.4955 323.168C75.178 325.47 73.0001 327.154 70.4407 327.85C61.9944 330.136 53.0843 330.074 44.6707 327.67C41.1995 334.952 39.7075 343.02 40.3447 351.062C40.982 359.104 43.726 366.836 48.3007 373.48C54.1588 382.038 62.7748 388.328 72.7107 391.3C78.7252 393.117 85.0481 393.683 91.2895 392.962C97.5309 392.242 103.559 390.25 109.001 387.11C110.139 386.372 111.415 385.872 112.752 385.643C114.088 385.413 115.458 385.457 116.777 385.774C118.096 386.09 119.337 386.671 120.425 387.482C121.512 388.293 122.423 389.317 123.102 390.492C123.781 391.666 124.214 392.966 124.375 394.313C124.536 395.66 124.421 397.025 124.037 398.326C123.654 399.627 123.009 400.837 122.143 401.881C121.278 402.925 120.208 403.782 119.001 404.4H119.091Z" fill="#B4B7BA"/>
<path d="M336.769 86.0001C336.218 86.0959 335.659 86.1428 335.099 86.1401C332.737 86.1374 330.452 85.2985 328.649 83.7719C326.846 82.2453 325.642 80.1297 325.249 77.8001C324.212 71.6872 321.175 66.0915 316.615 61.8907C312.054 57.6898 306.229 55.1215 300.051 54.5884C293.874 54.0553 287.695 55.5877 282.482 58.9451C277.269 62.3026 273.319 67.2953 271.249 73.1401C270.834 74.4009 270.171 75.5662 269.3 76.5681C268.428 77.57 267.367 78.3885 266.176 78.9757C264.985 79.5629 263.689 79.9071 262.364 79.9882C261.039 80.0694 259.711 79.8858 258.458 79.4483C257.204 79.0108 256.05 78.328 255.063 77.4399C254.077 76.5517 253.276 75.476 252.71 74.2754C252.143 73.0748 251.821 71.7733 251.763 70.4469C251.704 69.1206 251.911 67.7959 252.369 66.5501C254.504 60.4476 257.859 54.8437 262.229 50.0801C258.257 40.7174 251.283 32.9418 242.406 27.9775C233.529 23.0132 223.253 21.142 213.196 22.6586C203.139 24.1752 193.872 28.9934 186.854 36.3546C179.836 43.7159 175.465 53.2022 174.429 63.3201C174.182 65.785 173.028 68.0702 171.191 69.733C169.355 71.3957 166.967 72.3176 164.489 72.3201C164.155 72.3193 163.821 72.2992 163.489 72.2601C162.179 72.1278 160.908 71.7379 159.748 71.1128C158.589 70.4877 157.565 69.6398 156.734 68.6177C155.903 67.5956 155.283 66.4194 154.908 65.1568C154.533 63.8942 154.411 62.5699 154.549 61.2601C155.997 47.101 161.995 33.7923 171.643 23.3283C181.29 12.8642 194.069 5.80837 208.065 3.21791C222.06 0.627449 236.518 2.6419 249.272 8.95941C262.026 15.2769 272.389 25.5573 278.809 38.2601C285.49 35.3972 292.734 34.0904 299.994 34.4385C307.253 34.7866 314.339 36.7805 320.715 40.2695C327.091 43.7585 332.59 48.6512 336.797 54.5779C341.004 60.5046 343.809 67.3101 344.999 74.4801C345.217 75.7771 345.177 77.1042 344.881 78.3855C344.584 79.6668 344.039 80.8772 343.274 81.9472C342.51 83.0173 341.542 83.9261 340.425 84.6215C339.309 85.317 338.067 85.7854 336.769 86.0001Z" fill="#B4B7BA"/>
<path d="M497.51 218.59C495.886 218.59 494.286 218.195 492.85 217.438C491.413 216.682 490.182 215.586 489.263 214.247C488.345 212.908 487.766 211.366 487.577 209.753C487.388 208.14 487.595 206.505 488.18 204.99C490.003 200.252 490.735 195.164 490.322 190.105C489.909 185.045 488.361 180.143 485.794 175.763C483.227 171.383 479.707 167.638 475.494 164.805C471.281 161.973 466.484 160.125 461.46 159.4C459.258 159.078 457.227 158.031 455.687 156.425C454.147 154.818 453.188 152.744 452.96 150.53C452.557 146.595 451.18 142.822 448.952 139.553C446.725 136.284 443.717 133.622 440.201 131.808C436.686 129.994 432.773 129.086 428.818 129.165C424.863 129.244 420.99 130.308 417.55 132.26C415.241 133.567 412.508 133.902 409.952 133.193C407.396 132.484 405.226 130.789 403.92 128.48C402.614 126.172 402.278 123.439 402.987 120.883C403.696 118.326 405.391 116.157 407.7 114.85C413.482 111.574 419.935 109.656 426.569 109.242C433.202 108.829 439.843 109.93 445.988 112.463C452.133 114.997 457.621 118.895 462.035 123.864C466.45 128.832 469.677 134.74 471.47 141.14C473.01 141.58 474.53 142.09 476.03 142.67C489.324 147.817 500.034 158.027 505.81 171.06C511.586 184.093 511.956 198.885 506.84 212.19C506.113 214.075 504.832 215.694 503.167 216.837C501.501 217.979 499.529 218.59 497.51 218.59Z" fill="#B4B7BA"/>
<path d="M459 500C475.569 500 489 486.569 489 470C489 453.431 475.569 440 459 440C442.431 440 429 453.431 429 470C429 486.569 442.431 500 459 500Z" fill="#B4B7BA"/>
<path d="M50 498C66.5685 498 80 484.569 80 468C80 451.431 66.5685 438 50 438C33.4315 438 20 451.431 20 468C20 484.569 33.4315 498 50 498Z" fill="#B4B7BA"/>
<path d="M234 477C250.569 477 264 463.569 264 447C264 430.431 250.569 417 234 417C217.431 417 204 430.431 204 447C204 463.569 217.431 477 234 477Z" fill="#B4B7BA"/>
<path d="M401.5 96.5C418.069 96.5 431.5 83.0685 431.5 66.5C431.5 49.9315 418.069 36.5 401.5 36.5C384.931 36.5 371.5 49.9315 371.5 66.5C371.5 83.0685 384.931 96.5 401.5 96.5Z" fill="#B4B7BA"/>
<path d="M54 202C70.5685 202 84 188.569 84 172C84 155.431 70.5685 142 54 142C37.4315 142 24 155.431 24 172C24 188.569 37.4315 202 54 202Z" fill="#B4B7BA"/>
</svg>
