<svg width="64" height="64" viewBox="0 0 64 64" fill="none" xmlns="http://www.w3.org/2000/svg">
<g clip-path="url(#clip0_6344_14164)">
<path d="M55.2299 5.46912C55.7547 5.46912 56.1691 5.89726 56.1691 6.40826C56.1691 6.93308 55.7409 7.34741 55.2299 7.34741C54.7051 7.34741 54.2908 6.91927 54.2908 6.40826C54.2908 5.89726 54.7189 5.46912 55.2299 5.46912Z" fill="#FCFCFC"/>
<path fill-rule="evenodd" clip-rule="evenodd" d="M52.2885 23.6581C48.9094 23.6581 46.1702 26.3974 46.1702 29.7764C46.1702 33.1554 48.9094 35.8946 52.2885 35.8946C55.6675 35.8946 58.4067 33.1554 58.4067 29.7764C58.4067 26.3974 55.6675 23.6581 52.2885 23.6581ZM43.9604 29.7764C43.9604 25.1769 47.689 21.4484 52.2885 21.4484C56.8879 21.4484 60.6165 25.1769 60.6165 29.7764C60.6165 34.3758 56.8879 38.1044 52.2885 38.1044C47.689 38.1044 43.9604 34.3758 43.9604 29.7764Z" fill="#FCFCFC"/>
<path fill-rule="evenodd" clip-rule="evenodd" d="M46.6333 34.2181L56.7705 24.067L57.9432 25.2381L47.806 35.3892L46.6333 34.2181Z" fill="#FCFCFC"/>
<path fill-rule="evenodd" clip-rule="evenodd" d="M44.9211 30.8892L53.6359 22.1745L54.8078 23.3464L46.093 32.0611L44.9211 30.8892Z" fill="#FCFCFC"/>
<path fill-rule="evenodd" clip-rule="evenodd" d="M49.8242 35.7921L58.5389 27.0774L59.7108 28.2493L50.9961 36.964L49.8242 35.7921Z" fill="#FCFCFC"/>
<path fill-rule="evenodd" clip-rule="evenodd" d="M47.6396 24.0938L57.7907 34.2311L56.6196 35.4038L46.4685 25.2665L47.6396 24.0938Z" fill="#FCFCFC"/>
<path fill-rule="evenodd" clip-rule="evenodd" d="M50.9678 22.3812L59.6826 31.0821L58.5116 32.2549L49.7969 23.554L50.9678 22.3812Z" fill="#FCFCFC"/>
<path fill-rule="evenodd" clip-rule="evenodd" d="M46.0655 27.2845L54.7802 35.9993L53.6083 37.1712L44.8936 28.4564L46.0655 27.2845Z" fill="#FCFCFC"/>
<path fill-rule="evenodd" clip-rule="evenodd" d="M47.9791 49.7747C46.9723 49.7747 46.1561 50.5909 46.1561 51.5977C46.1561 52.6046 46.9723 53.4208 47.9791 53.4208C48.986 53.4208 49.8022 52.6046 49.8022 51.5977C49.8022 50.5909 48.986 49.7747 47.9791 49.7747ZM44.4988 51.5977C44.4988 49.6756 46.057 48.1174 47.9791 48.1174C49.9013 48.1174 51.4595 49.6756 51.4595 51.5977C51.4595 53.5199 49.9013 55.0781 47.9791 55.0781C46.057 55.0781 44.4988 53.5199 44.4988 51.5977Z" fill="#FCFCFC"/>
<path d="M29.3757 18.2995C29.3757 16.8493 30.5497 15.6754 31.9998 15.6754C33.45 15.6754 34.6239 16.8493 34.6239 18.2995" fill="#FCFCFC"/>
<path fill-rule="evenodd" clip-rule="evenodd" d="M3.68753 19.4044C2.8752 19.4044 2.20975 20.0698 2.20975 20.8822V54.8433C2.20975 55.6556 2.8752 56.3211 3.68753 56.3211H60.3125C61.1248 56.3211 61.7902 55.6556 61.7902 54.8433V20.8822C61.7902 20.0698 61.1248 19.4044 60.3125 19.4044H3.68753ZM0 20.8822C0 18.8494 1.65479 17.1946 3.68753 17.1946H60.3125C62.3452 17.1946 64 18.8494 64 20.8822V54.8433C64 56.8761 62.3452 58.5308 60.3125 58.5308H3.68753C1.65479 58.5308 0 56.8761 0 54.8433V20.8822Z" fill="#FCFCFC"/>
<path fill-rule="evenodd" clip-rule="evenodd" d="M6.8916 22.3047C5.84386 22.3047 4.98568 23.1628 4.98568 24.2106V51.5148C4.98568 52.5626 5.84386 53.4207 6.8916 53.4207H38.7949C39.8399 53.4207 40.7008 52.5653 40.7008 51.501V24.2106C40.7008 23.1628 39.8427 22.3047 38.7949 22.3047H6.8916ZM3.32837 24.2106C3.32837 22.2475 4.92855 20.6473 6.8916 20.6473H38.7949C40.758 20.6473 42.3581 22.2475 42.3581 24.2106V51.501C42.3581 53.4752 40.7607 55.0781 38.7949 55.0781H6.8916C4.92855 55.0781 3.32837 53.4779 3.32837 51.5148V24.2106Z" fill="#FCFCFC"/>
<path fill-rule="evenodd" clip-rule="evenodd" d="M55.2299 49.7747C54.223 49.7747 53.4068 50.5909 53.4068 51.5977C53.4068 52.6046 54.223 53.4208 55.2299 53.4208C56.2367 53.4208 57.0529 52.6046 57.0529 51.5977C57.0529 50.5909 56.2367 49.7747 55.2299 49.7747ZM51.7495 51.5977C51.7495 49.6756 53.3077 48.1174 55.2299 48.1174C57.152 48.1174 58.7102 49.6756 58.7102 51.5977C58.7102 53.5199 57.152 55.0781 55.2299 55.0781C53.3077 55.0781 51.7495 53.5199 51.7495 51.5977Z" fill="#FCFCFC"/>
<path fill-rule="evenodd" clip-rule="evenodd" d="M55.5734 7.16239L32.3434 17.7416L31.6565 16.2333L54.8865 5.65411L55.5734 7.16239Z" fill="#FCFCFC"/>
<path d="M17.0289 8.12085C17.0289 8.64566 16.6008 9.05999 16.0898 9.05999C15.5788 9.05999 15.1506 8.63185 15.1506 8.12085C15.1506 7.60984 15.5788 7.1817 16.0898 7.1817C16.6008 7.1817 17.0289 7.60984 17.0289 8.12085Z" fill="#FCFCFC"/>
<path fill-rule="evenodd" clip-rule="evenodd" d="M16.2498 7.26184L32.1324 16.2666L31.315 17.7083L15.4324 8.70356L16.2498 7.26184Z" fill="#FCFCFC"/>
</g>
<defs>
<clipPath id="clip0_6344_14164">
<rect width="64" height="64" fill="white"/>
</clipPath>
</defs>
</svg>
