<svg width="64" height="64" viewBox="0 0 64 64" fill="none" xmlns="http://www.w3.org/2000/svg">
<path d="M10.5375 22.625H9.59995C7.24995 22.625 5.32495 24.5375 5.32495 26.9V54.2125C5.32495 56.5625 7.23745 58.4875 9.59995 58.4875H54C56.3499 58.4875 58.275 56.575 58.275 54.2125V26.8875C58.275 24.5375 56.3624 22.625 54 22.625H18.9125M55.7125 7.25C56.1875 7.25 56.5625 7.6375 56.5625 8.1C56.5625 8.575 56.175 8.95 55.7125 8.95C55.2375 8.95 54.8624 8.5625 54.8624 8.1C54.8499 7.6375 55.2375 7.25 55.7125 7.25ZM17.125 22.625H12.325H17.125ZM56.5625 54.2C56.5625 55.6125 55.4124 56.7625 54 56.7625H9.59995C8.18745 56.7625 7.03745 55.6125 7.03745 54.2V26.8875C7.03745 25.475 8.18745 24.325 9.59995 24.325H54C55.4124 24.325 56.5625 25.475 56.5625 26.8875V54.2Z" fill="#FCFCFC"/>
<path fill-rule="evenodd" clip-rule="evenodd" d="M44.125 38C39.8516 38 36.3875 41.4642 36.3875 45.7375C36.3875 50.0108 39.8516 53.475 44.125 53.475C48.3983 53.475 51.8624 50.0108 51.8624 45.7375C51.8624 41.4642 48.3983 38 44.125 38ZM34.3875 45.7375C34.3875 40.3596 38.7471 36 44.125 36C49.5028 36 53.8624 40.3596 53.8624 45.7375C53.8624 51.1154 49.5028 55.475 44.125 55.475C38.7471 55.475 34.3875 51.1154 34.3875 45.7375Z" fill="#FCFCFC"/>
<path fill-rule="evenodd" clip-rule="evenodd" d="M37.4568 51.2949L49.7318 39.0074L50.793 40.0676L38.518 52.3551L37.4568 51.2949Z" fill="#FCFCFC"/>
<path fill-rule="evenodd" clip-rule="evenodd" d="M35.3823 47.2569L45.9323 36.7194L46.9924 37.7806L36.4424 48.3181L35.3823 47.2569Z" fill="#FCFCFC"/>
<path fill-rule="evenodd" clip-rule="evenodd" d="M41.3198 53.1944L51.8698 42.6569L52.9299 43.7181L42.3799 54.2556L41.3198 53.1944Z" fill="#FCFCFC"/>
<path fill-rule="evenodd" clip-rule="evenodd" d="M38.3305 39.0325L50.6055 51.32L49.5443 52.3801L37.2693 40.0926L38.3305 39.0325Z" fill="#FCFCFC"/>
<path fill-rule="evenodd" clip-rule="evenodd" d="M42.3553 36.9697L52.8928 47.5072L51.8322 48.5678L41.2947 38.0303L42.3553 36.9697Z" fill="#FCFCFC"/>
<path fill-rule="evenodd" clip-rule="evenodd" d="M36.4178 42.9072L46.9553 53.4447L45.8947 54.5053L35.3572 43.9678L36.4178 42.9072Z" fill="#FCFCFC"/>
<path d="M52.3 33.45C52.3 33.5875 52.1875 33.7 52.05 33.7H11.55C11.4125 33.7 11.3 33.5875 11.3 33.45V27.725C11.3 27.5875 11.4125 27.475 11.55 27.475H52.0375C52.175 27.475 52.2875 27.5875 52.2875 27.725V33.45H52.3Z" fill="#FFE836"/>
<path fill-rule="evenodd" clip-rule="evenodd" d="M12.3 28.475V32.7H51.2875V28.475H12.3ZM53.2875 32.45V27.725C53.2875 27.0352 52.7273 26.475 52.0375 26.475H11.55C10.8603 26.475 10.3 27.0352 10.3 27.725V33.45C10.3 34.1398 10.8603 34.7 11.55 34.7H52.05C52.7398 34.7 53.3 34.1398 53.3 33.45V32.45H53.2875Z" fill="#FCFCFC"/>
<path fill-rule="evenodd" clip-rule="evenodd" d="M31.875 29.2875C32.4273 29.2875 32.875 29.7352 32.875 30.2875V32.9875C32.875 33.5398 32.4273 33.9875 31.875 33.9875C31.3227 33.9875 30.875 33.5398 30.875 32.9875V30.2875C30.875 29.7352 31.3227 29.2875 31.875 29.2875Z" fill="#FCFCFC"/>
<path fill-rule="evenodd" clip-rule="evenodd" d="M21.6875 29.2875C22.2398 29.2875 22.6875 29.7352 22.6875 30.2875V32.9875C22.6875 33.5398 22.2398 33.9875 21.6875 33.9875C21.1352 33.9875 20.6875 33.5398 20.6875 32.9875V30.2875C20.6875 29.7352 21.1352 29.2875 21.6875 29.2875Z" fill="#FCFCFC"/>
<path fill-rule="evenodd" clip-rule="evenodd" d="M16.5249 29.2875C17.0772 29.2875 17.5249 29.7352 17.5249 30.2875V32.9875C17.5249 33.5398 17.0772 33.9875 16.5249 33.9875C15.9726 33.9875 15.5249 33.5398 15.5249 32.9875V30.2875C15.5249 29.7352 15.9726 29.2875 16.5249 29.2875Z" fill="#FCFCFC"/>
<path fill-rule="evenodd" clip-rule="evenodd" d="M26.8499 29.2875C27.4021 29.2875 27.8499 29.7352 27.8499 30.2875V32.9875C27.8499 33.5398 27.4021 33.9875 26.8499 33.9875C26.2976 33.9875 25.8499 33.5398 25.8499 32.9875V30.2875C25.8499 29.7352 26.2976 29.2875 26.8499 29.2875Z" fill="#FCFCFC"/>
<path fill-rule="evenodd" clip-rule="evenodd" d="M47.3374 29.2875C47.8897 29.2875 48.3374 29.7352 48.3374 30.2875V32.9875C48.3374 33.5398 47.8897 33.9875 47.3374 33.9875C46.7851 33.9875 46.3374 33.5398 46.3374 32.9875V30.2875C46.3374 29.7352 46.7851 29.2875 47.3374 29.2875Z" fill="#FCFCFC"/>
<path fill-rule="evenodd" clip-rule="evenodd" d="M37.1499 29.2875C37.7022 29.2875 38.1499 29.7352 38.1499 30.2875V32.9875C38.1499 33.5398 37.7022 33.9875 37.1499 33.9875C36.5976 33.9875 36.1499 33.5398 36.1499 32.9875V30.2875C36.1499 29.7352 36.5976 29.2875 37.1499 29.2875Z" fill="#FCFCFC"/>
<path fill-rule="evenodd" clip-rule="evenodd" d="M42.3125 29.2875C42.8648 29.2875 43.3125 29.7352 43.3125 30.2875V32.9875C43.3125 33.5398 42.8648 33.9875 42.3125 33.9875C41.7602 33.9875 41.3125 33.5398 41.3125 32.9875V30.2875C41.3125 29.7352 41.7602 29.2875 42.3125 29.2875Z" fill="#FCFCFC"/>
<path fill-rule="evenodd" clip-rule="evenodd" d="M14.725 38.2375C13.082 38.2375 11.75 39.5694 11.75 41.2125C11.75 42.8555 13.082 44.1875 14.725 44.1875C16.368 44.1875 17.7 42.8555 17.7 41.2125C17.7 39.5694 16.368 38.2375 14.725 38.2375ZM10.25 41.2125C10.25 38.741 12.2535 36.7375 14.725 36.7375C17.1965 36.7375 19.2 38.741 19.2 41.2125C19.2 43.684 17.1965 45.6875 14.725 45.6875C12.2535 45.6875 10.25 43.684 10.25 41.2125Z" fill="#FCFCFC"/>
<path fill-rule="evenodd" clip-rule="evenodd" d="M14.725 47.775C13.082 47.775 11.75 49.107 11.75 50.75C11.75 52.3931 13.082 53.725 14.725 53.725C16.368 53.725 17.7 52.3931 17.7 50.75C17.7 49.107 16.368 47.775 14.725 47.775ZM10.25 50.75C10.25 48.2785 12.2535 46.275 14.725 46.275C17.1965 46.275 19.2 48.2785 19.2 50.75C19.2 53.2215 17.1965 55.225 14.725 55.225C12.2535 55.225 10.25 53.2215 10.25 50.75Z" fill="#FCFCFC"/>
<path d="M11.3 23.5C11.3 22.1875 12.3625 21.125 13.675 21.125C14.9875 21.125 16.05 22.1875 16.05 23.5" fill="#FCFCFC"/>
<path fill-rule="evenodd" clip-rule="evenodd" d="M55.9497 8.81145L13.9122 22.8364L13.4375 21.4135L55.475 7.38855L55.9497 8.81145Z" fill="#FCFCFC"/>
</svg>
