<svg width="64" height="65" viewBox="0 0 64 65" fill="none" xmlns="http://www.w3.org/2000/svg">
<g clip-path="url(#clip0_5611_2399)">
<path d="M6.30028 20.5801H5.16714C2.32672 20.5801 0 22.8917 0 25.7472V58.7595C0 61.5999 2.31162 63.9266 5.16714 63.9266H58.8329C61.6733 63.9266 64 61.615 64 58.7595V25.7321C64 22.8917 61.6884 20.5801 58.8329 20.5801H16.423M60.9027 1.99652C61.4769 1.99652 61.9301 2.46489 61.9301 3.02391C61.9301 3.59803 61.4618 4.05129 60.9027 4.05129C60.3286 4.05129 59.8754 3.58292 59.8754 3.02391C59.8602 2.46489 60.3286 1.99652 60.9027 1.99652ZM14.2625 20.5801H8.46081H14.2625ZM61.9301 58.7444C61.9301 60.4517 60.5401 61.8417 58.8329 61.8417H5.16714C3.45987 61.8417 2.06988 60.4517 2.06988 58.7444V25.7321C2.06988 24.0248 3.45987 22.6349 5.16714 22.6349H58.8329C60.5401 22.6349 61.9301 24.0248 61.9301 25.7321V58.7444Z" fill="#282828"/>
<path fill-rule="evenodd" clip-rule="evenodd" d="M46.897 39.1637C41.7319 39.1637 37.5448 43.3508 37.5448 48.5159C37.5448 53.681 41.7319 57.8681 46.897 57.8681C52.0621 57.8681 56.2493 53.681 56.2493 48.5159C56.2493 43.3508 52.0621 39.1637 46.897 39.1637ZM35.1274 48.5159C35.1274 42.0157 40.3969 36.7463 46.897 36.7463C53.3972 36.7463 58.6666 42.0157 58.6666 48.5159C58.6666 55.016 53.3972 60.2855 46.897 60.2855C40.3969 60.2855 35.1274 55.016 35.1274 48.5159Z" fill="#282828"/>
<path fill-rule="evenodd" clip-rule="evenodd" d="M38.8374 55.2331L53.674 40.3813L54.9567 41.6627L40.1201 56.5145L38.8374 55.2331Z" fill="#282828"/>
<path fill-rule="evenodd" clip-rule="evenodd" d="M36.3301 50.3523L49.0817 37.6158L50.363 38.8985L37.6113 51.6351L36.3301 50.3523Z" fill="#282828"/>
<path fill-rule="evenodd" clip-rule="evenodd" d="M43.5066 57.5289L56.2582 44.7924L57.5395 46.0751L44.7878 58.8117L43.5066 57.5289Z" fill="#282828"/>
<path fill-rule="evenodd" clip-rule="evenodd" d="M39.8935 40.4116L54.7301 55.2633L53.4475 56.5447L38.6108 41.6929L39.8935 40.4116Z" fill="#282828"/>
<path fill-rule="evenodd" clip-rule="evenodd" d="M44.7581 37.9183L57.4946 50.6548L56.2126 51.9369L43.4761 39.2003L44.7581 37.9183Z" fill="#282828"/>
<path fill-rule="evenodd" clip-rule="evenodd" d="M37.5816 45.0949L50.3181 57.8314L49.0361 59.1134L36.2996 46.3769L37.5816 45.0949Z" fill="#282828"/>
<path d="M56.7781 33.6641C56.7781 33.8303 56.6421 33.9663 56.4759 33.9663H7.5241C7.3579 33.9663 7.22192 33.8303 7.22192 33.6641V26.7444C7.22192 26.5782 7.3579 26.4422 7.5241 26.4422H56.4608C56.627 26.4422 56.763 26.5782 56.763 26.7444V33.6641H56.7781Z" fill="#12A71E"/>
<path fill-rule="evenodd" clip-rule="evenodd" d="M8.4308 27.6509V32.7576H55.5545V27.6509H8.4308ZM57.9719 32.4555V26.7444C57.9719 25.9107 57.2948 25.2336 56.461 25.2336H7.52429C6.69055 25.2336 6.01343 25.9107 6.01343 26.7444V33.6641C6.01343 34.4979 6.69055 35.175 7.52429 35.175H56.4761C57.3099 35.175 57.987 34.4979 57.987 33.6641V32.4555H57.9719Z" fill="#282828"/>
<path fill-rule="evenodd" clip-rule="evenodd" d="M32.0908 28.633C32.7583 28.633 33.2995 29.1741 33.2995 29.8417V33.1051C33.2995 33.7726 32.7583 34.3138 32.0908 34.3138C31.4232 34.3138 30.8821 33.7726 30.8821 33.1051V29.8417C30.8821 29.1741 31.4232 28.633 32.0908 28.633Z" fill="#282828"/>
<path fill-rule="evenodd" clip-rule="evenodd" d="M19.7773 28.633C20.4448 28.633 20.986 29.1741 20.986 29.8417V33.1051C20.986 33.7726 20.4448 34.3138 19.7773 34.3138C19.1098 34.3138 18.5686 33.7726 18.5686 33.1051V29.8417C18.5686 29.1741 19.1098 28.633 19.7773 28.633Z" fill="#282828"/>
<path fill-rule="evenodd" clip-rule="evenodd" d="M13.5373 28.633C14.2048 28.633 14.746 29.1741 14.746 29.8417V33.1051C14.746 33.7726 14.2048 34.3138 13.5373 34.3138C12.8698 34.3138 12.3286 33.7726 12.3286 33.1051V29.8417C12.3286 29.1741 12.8698 28.633 13.5373 28.633Z" fill="#282828"/>
<path fill-rule="evenodd" clip-rule="evenodd" d="M26.0168 28.633C26.6843 28.633 27.2255 29.1741 27.2255 29.8417V33.1051C27.2255 33.7726 26.6843 34.3138 26.0168 34.3138C25.3493 34.3138 24.8081 33.7726 24.8081 33.1051V29.8417C24.8081 29.1741 25.3493 28.633 26.0168 28.633Z" fill="#282828"/>
<path fill-rule="evenodd" clip-rule="evenodd" d="M50.78 28.633C51.4475 28.633 51.9887 29.1741 51.9887 29.8417V33.1051C51.9887 33.7726 51.4475 34.3138 50.78 34.3138C50.1124 34.3138 49.5713 33.7726 49.5713 33.1051V29.8417C49.5713 29.1741 50.1124 28.633 50.78 28.633Z" fill="#282828"/>
<path fill-rule="evenodd" clip-rule="evenodd" d="M38.4665 28.633C39.134 28.633 39.6752 29.1741 39.6752 29.8417V33.1051C39.6752 33.7726 39.134 34.3138 38.4665 34.3138C37.799 34.3138 37.2578 33.7726 37.2578 33.1051V29.8417C37.2578 29.1741 37.799 28.633 38.4665 28.633Z" fill="#282828"/>
<path fill-rule="evenodd" clip-rule="evenodd" d="M44.7065 28.633C45.374 28.633 45.9152 29.1741 45.9152 29.8417V33.1051C45.9152 33.7726 45.374 34.3138 44.7065 34.3138C44.039 34.3138 43.4978 33.7726 43.4978 33.1051V29.8417C43.4978 29.1741 44.039 28.633 44.7065 28.633Z" fill="#282828"/>
<path fill-rule="evenodd" clip-rule="evenodd" d="M11.3618 39.4507C9.37583 39.4507 7.76591 41.0606 7.76591 43.0465C7.76591 45.0325 9.37583 46.6424 11.3618 46.6424C13.3477 46.6424 14.9576 45.0325 14.9576 43.0465C14.9576 41.0606 13.3477 39.4507 11.3618 39.4507ZM5.95288 43.0465C5.95288 40.0593 8.37452 37.6377 11.3618 37.6377C14.349 37.6377 16.7706 40.0593 16.7706 43.0465C16.7706 46.0338 14.349 48.4554 11.3618 48.4554C8.37452 48.4554 5.95288 46.0338 5.95288 43.0465Z" fill="#282828"/>
<path fill-rule="evenodd" clip-rule="evenodd" d="M11.3618 50.9786C9.37583 50.9786 7.76591 52.5885 7.76591 54.5744C7.76591 56.5603 9.37583 58.1702 11.3618 58.1702C13.3477 58.1702 14.9576 56.5603 14.9576 54.5744C14.9576 52.5885 13.3477 50.9786 11.3618 50.9786ZM5.95288 54.5744C5.95288 51.5872 8.37452 49.1655 11.3618 49.1655C14.349 49.1655 16.7706 51.5872 16.7706 54.5744C16.7706 57.5616 14.349 59.9833 11.3618 59.9833C8.37452 59.9833 5.95288 57.5616 5.95288 54.5744Z" fill="#282828"/>
<path d="M7.22192 21.6377C7.22192 20.0513 8.50615 18.7671 10.0926 18.7671C11.679 18.7671 12.9632 20.0513 12.9632 21.6377" fill="#282828"/>
<path fill-rule="evenodd" clip-rule="evenodd" d="M61.1894 3.88381L10.3792 20.8356L9.80542 19.1158L60.6156 2.16397L61.1894 3.88381Z" fill="#282828"/>
</g>
<defs>
<clipPath id="clip0_5611_2399">
<rect width="64" height="64" fill="white" transform="translate(0 0.961578)"/>
</clipPath>
</defs>
</svg>
