<svg width="512" height="512" viewBox="0 0 512 512" fill="none" xmlns="http://www.w3.org/2000/svg">
<path d="M385.001 149.5C342.271 149.5 296.331 122.36 251.911 96.11C209.811 71.23 166.271 45.5 129.001 45.5C98.2605 45.5 71.4805 52.82 49.4105 67.25C32.9405 78 25.3705 89 25.2905 89.09C23.758 91.1413 21.497 92.5266 18.9735 92.9604C16.4499 93.3942 13.8561 92.8434 11.7265 91.4216C9.59701 89.9998 8.09402 87.8152 7.52731 85.3182C6.96061 82.8211 7.37336 80.2018 8.68053 78C10.1105 75.81 44.6205 25.5 129.001 25.5C171.731 25.5 217.671 52.64 262.091 78.89C304.191 103.77 347.731 129.5 385.001 129.5C415.741 129.5 442.521 122.18 464.591 107.75C481.061 97 488.631 86 488.711 85.91C490.193 83.7206 492.483 82.2077 495.079 81.7022C497.674 81.1968 500.364 81.7399 502.56 83.2127C504.756 84.6856 506.28 86.9683 506.797 89.5615C507.314 92.1547 506.783 94.8472 505.321 97.05C503.891 99.19 469.381 149.5 385.001 149.5Z" fill="black"/>
<path d="M385 261.83C342.27 261.83 296.33 234.69 251.91 208.44C209.81 183.56 166.27 157.83 129 157.83C98.2604 157.83 71.4804 165.15 49.4104 179.58C32.9404 190.36 25.4104 201.31 25.2904 201.42C23.7855 203.553 21.5061 205.013 18.9392 205.488C16.3722 205.964 13.7213 205.416 11.5526 203.963C9.38388 202.51 7.86944 200.266 7.33277 197.711C6.7961 195.156 7.27975 192.493 8.6804 190.29C10.1104 188.14 44.6204 137.83 129 137.83C171.73 137.83 217.67 164.98 262.09 191.22C304.19 216.1 347.73 241.83 385 241.83C415.74 241.83 442.52 234.52 464.59 220.08C481.06 209.31 488.59 198.35 488.71 198.25C489.426 197.125 490.359 196.154 491.455 195.395C492.551 194.636 493.788 194.103 495.093 193.829C496.398 193.555 497.745 193.545 499.054 193.799C500.363 194.053 501.608 194.566 502.716 195.308C503.824 196.05 504.772 197.007 505.504 198.121C506.237 199.235 506.739 200.484 506.982 201.795C507.225 203.107 507.203 204.453 506.917 205.756C506.632 207.058 506.089 208.29 505.32 209.38C503.89 211.52 469.38 261.83 385 261.83Z" fill="#00D151"/>
<path d="M385 374.17C342.27 374.17 296.33 347.02 251.91 320.78C209.81 295.9 166.27 270.17 129 270.17C98.2603 270.17 71.4803 277.48 49.4103 291.92C32.9403 302.69 25.4103 313.65 25.2903 313.75C24.5749 314.875 23.6416 315.846 22.5454 316.605C21.4493 317.364 20.2123 317.897 18.9073 318.171C17.6024 318.445 16.2558 318.455 14.9467 318.201C13.6377 317.947 12.3927 317.434 11.285 316.692C10.1772 315.95 9.2291 314.993 8.49642 313.879C7.76373 312.765 7.26127 311.516 7.01858 310.205C6.77589 308.893 6.79788 307.547 7.08327 306.244C7.36865 304.942 7.91165 303.71 8.68034 302.62C10.1103 300.48 44.6203 250.17 129 250.17C171.73 250.17 217.67 277.31 262.09 303.56C304.19 328.44 347.73 354.17 385 354.17C415.74 354.17 442.52 346.85 464.59 332.42C481.06 321.64 488.59 310.69 488.71 310.58C490.215 308.447 492.495 306.987 495.062 306.512C497.629 306.036 500.279 306.584 502.448 308.037C504.617 309.49 506.131 311.734 506.668 314.289C507.205 316.844 506.721 319.507 505.32 321.71C503.89 323.86 469.38 374.17 385 374.17Z" fill="black"/>
<path d="M385.001 486.5C342.271 486.5 296.331 459.36 251.911 433.11C209.811 408.23 166.271 382.5 129.001 382.5C98.2605 382.5 71.4805 389.82 49.4105 404.25C32.9405 415 25.3705 426 25.2905 426.09C23.758 428.141 21.497 429.527 18.9735 429.96C16.4499 430.394 13.8561 429.843 11.7265 428.422C9.59701 427 8.09402 424.815 7.52731 422.318C6.96061 419.821 7.37336 417.202 8.68053 415C10.1105 412.81 44.6205 362.5 129.001 362.5C171.731 362.5 217.671 389.64 262.091 415.89C304.191 440.77 347.731 466.5 385.001 466.5C415.741 466.5 442.521 459.18 464.591 444.75C481.061 433.98 488.591 423.02 488.711 422.91C490.193 420.721 492.483 419.208 495.079 418.702C497.674 418.197 500.364 418.74 502.56 420.213C504.756 421.686 506.28 423.968 506.797 426.562C507.314 429.155 506.783 431.847 505.321 434.05C503.891 436.19 469.381 486.5 385.001 486.5Z" fill="black"/>
</svg>
