<svg width="512" height="512" viewBox="0 0 512 512" fill="none" xmlns="http://www.w3.org/2000/svg">
<g clip-path="url(#clip0_4606_615)">
<path d="M411.92 251C411.793 246.707 411.487 242.467 411 238.28C410.92 237.52 410.83 236.76 410.73 236C409.871 229.254 408.564 222.573 406.82 216C398.021 182.712 378.456 153.27 351.176 132.264C323.895 111.257 290.431 99.8662 256 99.8662C221.569 99.8662 188.105 111.257 160.824 132.264C133.544 153.27 113.979 182.712 105.18 216C103.436 222.573 102.129 229.254 101.27 236C101.17 236.76 101.08 237.52 101 238.28C100.52 242.467 100.213 246.707 100.08 251C100.08 252.66 100 254.33 100 256H231C230.998 255.071 231.051 254.142 231.16 253.22C231.475 250.321 232.302 247.501 233.6 244.89C235.342 241.392 237.876 238.348 241 236C241.52 235.61 242.06 235.23 242.62 234.88C243.16 234.54 243.72 234.22 244.3 233.88L245.18 233.44L246.08 233.03C246.32 232.92 246.56 232.82 246.81 232.73C248.041 232.235 249.312 231.847 250.61 231.57L251.23 231.44L251.8 231.34L252.53 231.23C252.74 231.23 252.96 231.17 253.18 231.15C253.56 231.15 253.95 231.07 254.34 231.05C254.58 231.05 254.81 231.05 255.05 231.05H255.97H256.89C257.13 231.05 257.36 231.05 257.6 231.05C257.84 231.05 258.38 231.1 258.76 231.15C258.98 231.15 259.2 231.15 259.41 231.23L260.14 231.34L260.71 231.44L261.33 231.57C262.627 231.847 263.899 232.235 265.13 232.73C265.38 232.82 265.62 232.92 265.86 233.03L266.76 233.44L267.64 233.88C268.22 234.19 268.78 234.51 269.32 234.88C269.88 235.23 270.42 235.61 270.94 236C274.068 238.347 276.605 241.391 278.35 244.89C279.648 247.501 280.475 250.321 280.79 253.22C280.916 254.141 280.986 255.07 281 256H412C412 254.33 412 252.66 411.92 251ZM296.32 236C292.597 228.488 286.849 222.165 279.725 217.745C272.601 213.324 264.384 210.982 256 210.982C247.616 210.982 239.399 213.324 232.275 217.745C225.15 222.165 219.403 228.488 215.68 236H121.45C126.203 203.71 142.41 174.207 167.112 152.875C191.813 131.543 223.362 119.806 256 119.806C288.638 119.806 320.187 131.543 344.888 152.875C369.59 174.207 385.797 203.71 390.55 236H296.32Z" fill="black"/>
<path d="M512 251C511.88 244.64 511.53 238.337 510.95 232.09C510.45 226.683 509.783 221.32 508.95 216C502.699 176.599 487.334 139.202 464.079 106.787C440.824 74.3725 410.321 47.8356 375 29.29C369.666 26.4833 364.236 23.8667 358.71 21.44C329.416 8.5956 297.964 1.38648 266 0.19C262.666 0.0633333 259.333 0 256 0C252.666 0 249.333 0.0633333 246 0.19C214.036 1.38648 182.584 8.5956 153.29 21.44C147.763 23.8733 142.333 26.49 137 29.29C101.69 47.8427 71.1991 74.3827 47.9548 106.797C24.7104 139.211 9.35459 176.605 3.1098 216C2.2698 221.333 1.60314 226.697 1.1098 232.09C0.523138 238.33 0.169805 244.633 0.0498047 251C0.0498047 252.66 0.0498047 254.33 0.0498047 256V352H512V251ZM492 333.67H19.9998V269.33H20.0698L20.4398 256L20.5798 251L20.9998 236H20.8298C21.0565 233.18 21.3431 230.37 21.6898 227.57C22.6263 227.857 23.6004 228.002 24.5798 228H61.9998C64.652 228 67.1955 226.946 69.0709 225.071C70.9462 223.196 71.9998 220.652 71.9998 218C71.9998 215.348 70.9462 212.804 69.0709 210.929C67.1955 209.054 64.652 208 61.9998 208H24.8698C31.5386 175.829 44.8678 145.41 63.9998 118.7L94.6198 136.37C96.9154 137.675 99.634 138.019 102.182 137.327C104.731 136.636 106.902 134.964 108.223 132.677C109.543 130.39 109.905 127.674 109.23 125.121C108.555 122.568 106.898 120.386 104.62 119.05L76.4698 102.8C80.4698 98.0933 84.6865 93.5333 89.1198 89.12C105.818 72.3802 124.942 58.2517 145.85 47.21L157.05 66.62C157.702 67.7665 158.574 68.7727 159.616 69.5807C160.658 70.3887 161.85 70.9826 163.123 71.3281C164.396 71.6736 165.724 71.764 167.032 71.594C168.34 71.424 169.601 70.9971 170.743 70.3376C171.885 69.6782 172.886 68.7994 173.687 67.7518C174.488 66.7042 175.074 65.5085 175.411 64.2335C175.748 62.9585 175.829 61.6294 175.651 60.3228C175.472 59.0161 175.037 57.7577 174.37 56.62L163.97 38.62L164.14 38.55C190.099 27.5572 217.831 21.3441 246 20.21V37.42C246 40.0722 247.053 42.6157 248.929 44.4911C250.804 46.3664 253.348 47.42 256 47.42C258.652 47.42 261.196 46.3664 263.071 44.4911C264.946 42.6157 266 40.0722 266 37.42V20.21C294.168 21.3409 321.9 27.5506 347.86 38.54L348.03 38.61L337.63 56.61C336.963 57.7477 336.527 59.0061 336.349 60.3127C336.17 61.6194 336.252 62.9485 336.589 64.2235C336.926 65.4985 337.512 66.6942 338.313 67.7418C339.114 68.7894 340.114 69.6682 341.257 70.3276C342.399 70.9871 343.66 71.414 344.968 71.584C346.276 71.754 347.604 71.6636 348.877 71.3181C350.149 70.9726 351.341 70.3787 352.384 69.5707C353.426 68.7627 354.298 67.7565 354.95 66.61L366.15 47.2C387.057 58.2417 406.182 72.3702 422.88 89.11C427.293 93.5167 431.51 98.0767 435.53 102.79L407.38 119.04C406.233 119.692 405.227 120.564 404.419 121.606C403.611 122.649 403.017 123.84 402.672 125.113C402.326 126.386 402.236 127.714 402.406 129.022C402.576 130.33 403.003 131.591 403.662 132.733C404.322 133.875 405.2 134.876 406.248 135.677C407.296 136.478 408.491 137.064 409.766 137.401C411.041 137.738 412.37 137.82 413.677 137.641C414.984 137.462 416.242 137.027 417.38 136.36L448 118.7C467.132 145.41 480.461 175.829 487.13 208H451.58C448.928 208 446.384 209.054 444.509 210.929C442.633 212.804 441.58 215.348 441.58 218C441.58 220.652 442.633 223.196 444.509 225.071C446.384 226.946 448.928 228 451.58 228H489C489.452 228.002 489.903 227.969 490.35 227.9C490.67 230.567 490.943 233.267 491.17 236H491L491.42 251L491.56 256L491.93 269.33H492V333.67Z" fill="black"/>
<path d="M20 269.33V272L20.07 269.33H20Z" fill="black"/>
<path d="M410.73 236C410.83 236.76 410.92 237.52 411 238.28V236H410.73ZM410.73 236C410.83 236.76 410.92 237.52 411 238.28V236H410.73ZM410.73 236C410.83 236.76 410.92 237.52 411 238.28V236H410.73ZM410.73 236C410.83 236.76 410.92 237.52 411 238.28V236H410.73ZM410.73 236C410.83 236.76 410.92 237.52 411 238.28V236H410.73ZM410.73 236C410.83 236.76 410.92 237.52 411 238.28V236H410.73ZM491.93 269.33L492 272V269.33H491.93ZM410.73 236C410.83 236.76 410.92 237.52 411 238.28V236H410.73ZM512 271.8V289.9L512.5 289.84L512 271.8ZM410.73 236C410.83 236.76 410.92 237.52 411 238.28V236H410.73ZM410.73 236C410.83 236.76 410.92 237.52 411 238.28V236H410.73ZM410.73 236C410.83 236.76 410.92 237.52 411 238.28V236H410.73ZM410.73 236C410.83 236.76 410.92 237.52 411 238.28V236H410.73ZM410.73 236C410.83 236.76 410.92 237.52 411 238.28V236H410.73Z" fill="black"/>
<path d="M334 407V447" stroke="#00D151" stroke-width="20" stroke-miterlimit="10" stroke-linecap="round"/>
<path d="M178 407V447" stroke="#00D151" stroke-width="20" stroke-miterlimit="10" stroke-linecap="round"/>
<path d="M451 411.75V431.75" stroke="#00D151" stroke-width="20" stroke-miterlimit="10" stroke-linecap="round"/>
<path d="M412 411.75V431.75" stroke="#00D151" stroke-width="20" stroke-miterlimit="10" stroke-linecap="round"/>
<path d="M373 411.75V431.75" stroke="#00D151" stroke-width="20" stroke-miterlimit="10" stroke-linecap="round"/>
<path d="M256 411.75V431.75" stroke="#00D151" stroke-width="20" stroke-miterlimit="10" stroke-linecap="round"/>
<path d="M217 411.75V431.75" stroke="#00D151" stroke-width="20" stroke-miterlimit="10" stroke-linecap="round"/>
<path d="M295 411.75V431.75" stroke="#00D151" stroke-width="20" stroke-miterlimit="10" stroke-linecap="round"/>
<path d="M100 411.75V431.75" stroke="#00D151" stroke-width="20" stroke-miterlimit="10" stroke-linecap="round"/>
<path d="M61 411.75V431.75" stroke="#00D151" stroke-width="20" stroke-miterlimit="10" stroke-linecap="round"/>
<path d="M139 411.75V431.75" stroke="#00D151" stroke-width="20" stroke-miterlimit="10" stroke-linecap="round"/>
<path d="M492 412V492H20V412H492ZM502 392H10C7.34784 392 4.8043 393.054 2.92893 394.929C1.05357 396.804 0 399.348 0 402L0 502C0 504.652 1.05357 507.196 2.92893 509.071C4.8043 510.946 7.34784 512 10 512H502C504.652 512 507.196 510.946 509.071 509.071C510.946 507.196 512 504.652 512 502V402C512 399.348 510.946 396.804 509.071 394.929C507.196 393.054 504.652 392 502 392Z" fill="black"/>
</g>
<defs>
<clipPath id="clip0_4606_615">
<rect width="512" height="512" fill="white"/>
</clipPath>
</defs>
</svg>
