<svg width="64" height="64" viewBox="0 0 64 64" fill="none" xmlns="http://www.w3.org/2000/svg">
<mask id="mask0_5611_2474" style="mask-type:luminance" maskUnits="userSpaceOnUse" x="2" y="7" width="60" height="38">
<path d="M61.4874 7.58749H2.8999V44.925H61.4874V7.58749Z" fill="white"/>
</mask>
<g mask="url(#mask0_5611_2474)">
<path d="M6.8125 46.4375V15.3125C6.8125 14.7875 7.225 14.3625 7.725 14.3625H56.8375C57.3375 14.3625 57.75 14.7875 57.75 15.3125V46.45" fill="#12A71E"/>
<path fill-rule="evenodd" clip-rule="evenodd" d="M7.725 15.1125C7.66516 15.1125 7.5625 15.1753 7.5625 15.3125V46.4375C7.5625 46.8517 7.22671 47.1875 6.8125 47.1875C6.39829 47.1875 6.0625 46.8517 6.0625 46.4375V15.3125C6.0625 14.3997 6.78484 13.6125 7.725 13.6125H56.8375C57.7777 13.6125 58.5 14.3997 58.5 15.3125V46.45C58.5 46.8642 58.1642 47.2 57.75 47.2C57.3358 47.2 57 46.8642 57 46.45V15.3125C57 15.1753 56.8973 15.1125 56.8375 15.1125H7.725Z" fill="#282828"/>
</g>
<mask id="mask1_5611_2474" style="mask-type:luminance" maskUnits="userSpaceOnUse" x="2" y="7" width="60" height="38">
<path d="M61.4874 7.58749H2.8999V44.925H61.4874V7.58749Z" fill="white"/>
</mask>
<g mask="url(#mask1_5611_2474)">
<path fill-rule="evenodd" clip-rule="evenodd" d="M7.29995 12.95C6.31417 12.95 5.51245 13.7517 5.51245 14.7375V45.875C5.51245 46.8608 6.31416 47.6625 7.29995 47.6625H57.325C58.3107 47.6625 59.1124 46.8608 59.1124 45.875V14.7375C59.1124 13.7517 58.3107 12.95 57.325 12.95H7.29995ZM4.01245 14.7375C4.01245 12.9233 5.48574 11.45 7.29995 11.45H57.325C59.1392 11.45 60.6124 12.9233 60.6124 14.7375V45.875C60.6124 47.6892 59.1392 49.1625 57.325 49.1625H7.29995C5.48574 49.1625 4.01245 47.6892 4.01245 45.875V14.7375Z" fill="#282828"/>
</g>
<mask id="mask2_5611_2474" style="mask-type:luminance" maskUnits="userSpaceOnUse" x="2" y="7" width="60" height="38">
<path d="M61.4874 7.58749H2.8999V44.925H61.4874V7.58749Z" fill="white"/>
</mask>
<g mask="url(#mask2_5611_2474)">
<path opacity="0.7" d="M34.6374 20.3H12.4124V22.3625H34.6374V20.3Z" fill="#282828"/>
<path opacity="0.7" fill-rule="evenodd" clip-rule="evenodd" d="M11.6624 19.55H35.3874V23.1125H11.6624V19.55ZM13.1624 21.05V21.6125H33.8874V21.05H13.1624Z" fill="#282828"/>
</g>
<mask id="mask3_5611_2474" style="mask-type:luminance" maskUnits="userSpaceOnUse" x="2" y="7" width="60" height="38">
<path d="M61.4874 7.58749H2.8999V44.925H61.4874V7.58749Z" fill="white"/>
</mask>
<g mask="url(#mask3_5611_2474)">
<path opacity="0.7" d="M28.0499 25H12.2874V27.0625H28.0499V25Z" fill="#282828"/>
<path opacity="0.7" fill-rule="evenodd" clip-rule="evenodd" d="M11.5374 24.25H28.7999V27.8125H11.5374V24.25ZM13.0374 25.75V26.3125H27.2999V25.75H13.0374Z" fill="#282828"/>
</g>
<mask id="mask4_5611_2474" style="mask-type:luminance" maskUnits="userSpaceOnUse" x="2" y="7" width="60" height="38">
<path d="M61.4874 7.58749H2.8999V44.925H61.4874V7.58749Z" fill="white"/>
</mask>
<g mask="url(#mask4_5611_2474)">
<path opacity="0.7" d="M38.2249 29.7375H12.4124V31.8H38.2249V29.7375Z" fill="#282828"/>
<path opacity="0.7" fill-rule="evenodd" clip-rule="evenodd" d="M11.6624 28.9875H38.9749V32.55H11.6624V28.9875ZM13.1624 30.4875V31.05H37.4749V30.4875H13.1624Z" fill="#282828"/>
</g>
<path d="M39.6376 42.85H24.4751V46.7125H39.6376V42.85Z" fill="#12A71E"/>
<path fill-rule="evenodd" clip-rule="evenodd" d="M2.2124 44.15H25.6374V45.15C25.6374 45.5823 25.9457 45.7875 26.1374 45.7875H38.4749C38.6666 45.7875 38.9749 45.5823 38.9749 45.15V44.15H62.1499V47.6375C62.1499 49.5291 60.457 50.9 58.6124 50.9H5.7499C3.90908 50.9 2.2124 49.545 2.2124 47.6375V44.15ZM4.2124 46.15V47.6375C4.2124 48.23 4.79073 48.9 5.7499 48.9H58.6124C59.5678 48.9 60.1499 48.2208 60.1499 47.6375V46.15H40.7851C40.4213 47.0788 39.5643 47.7875 38.4749 47.7875H26.1374C25.048 47.7875 24.191 47.0788 23.8272 46.15H4.2124Z" fill="#282828"/>
<path d="M5.86245 47.8C6.09027 47.8 6.27495 47.6153 6.27495 47.3875C6.27495 47.1597 6.09027 46.975 5.86245 46.975C5.63463 46.975 5.44995 47.1597 5.44995 47.3875C5.44995 47.6153 5.63463 47.8 5.86245 47.8Z" fill="#12A71E"/>
</svg>
