<svg width="64" height="64" viewBox="0 0 64 64" fill="none" xmlns="http://www.w3.org/2000/svg">
<mask id="mask0_6344_14229" style="mask-type:luminance" maskUnits="userSpaceOnUse" x="0" y="7" width="64" height="41">
<path d="M63.2926 7.75H0.734131V47.6182H63.2926V7.75Z" fill="white"/>
</mask>
<g mask="url(#mask0_6344_14229)">
<path d="M4.91187 49.2332V15.9986C4.91187 15.438 5.35232 14.9842 5.88621 14.9842H58.3275C58.8614 14.9842 59.3019 15.438 59.3019 15.9986V49.2466" fill="#12A71E"/>
<path fill-rule="evenodd" clip-rule="evenodd" d="M5.88627 15.785C5.82237 15.785 5.71275 15.8521 5.71275 15.9986V49.2332C5.71275 49.6755 5.35421 50.034 4.91192 50.034C4.46963 50.034 4.11108 49.6755 4.11108 49.2332V15.9986C4.11108 15.0239 4.88239 14.1833 5.88627 14.1833H58.3276C59.3314 14.1833 60.1027 15.0239 60.1027 15.9986V49.2465C60.1027 49.6888 59.7442 50.0474 59.3019 50.0474C58.8596 50.0474 58.5011 49.6888 58.5011 49.2465V15.9986C58.5011 15.8521 58.3915 15.785 58.3276 15.785H5.88627Z" fill="#FCFCFC"/>
</g>
<mask id="mask1_6344_14229" style="mask-type:luminance" maskUnits="userSpaceOnUse" x="0" y="7" width="64" height="41">
<path d="M63.2926 7.75H0.734131V47.6182H63.2926V7.75Z" fill="white"/>
</mask>
<g mask="url(#mask1_6344_14229)">
<path fill-rule="evenodd" clip-rule="evenodd" d="M5.43244 13.476C4.37984 13.476 3.52379 14.3321 3.52379 15.3847V48.6326C3.52379 49.6852 4.37984 50.5413 5.43244 50.5413H58.8481C59.9007 50.5413 60.7567 49.6852 60.7567 48.6326V15.3847C60.7567 14.332 59.9007 13.476 58.8481 13.476H5.43244ZM1.92212 15.3847C1.92212 13.4475 3.49526 11.8743 5.43244 11.8743H58.8481C60.7853 11.8743 62.3584 13.4475 62.3584 15.3847V48.6326C62.3584 50.5698 60.7853 52.1429 58.8481 52.1429H5.43244C3.49526 52.1429 1.92212 50.5698 1.92212 48.6326V15.3847Z" fill="#FCFCFC"/>
</g>
<mask id="mask2_6344_14229" style="mask-type:luminance" maskUnits="userSpaceOnUse" x="0" y="7" width="64" height="41">
<path d="M63.2926 7.75H0.734131V47.6182H63.2926V7.75Z" fill="white"/>
</mask>
<g mask="url(#mask2_6344_14229)">
<path opacity="0.7" d="M34.6227 21.3242H10.8914V23.5265H34.6227V21.3242Z" fill="#FCFCFC"/>
<path opacity="0.7" fill-rule="evenodd" clip-rule="evenodd" d="M10.0906 20.5233H35.4236V24.3273H10.0906V20.5233ZM11.6922 22.125V22.7256H33.822V22.125H11.6922Z" fill="#FCFCFC"/>
</g>
<mask id="mask3_6344_14229" style="mask-type:luminance" maskUnits="userSpaceOnUse" x="0" y="7" width="64" height="41">
<path d="M63.2926 7.75H0.734131V47.6182H63.2926V7.75Z" fill="white"/>
</mask>
<g mask="url(#mask3_6344_14229)">
<path opacity="0.7" d="M27.5887 26.3427H10.7578V28.545H27.5887V26.3427Z" fill="#FCFCFC"/>
<path opacity="0.7" fill-rule="evenodd" clip-rule="evenodd" d="M9.95703 25.5419H28.3896V29.3458H9.95703V25.5419ZM11.5587 27.1435V27.7442H26.7879V27.1435H11.5587Z" fill="#FCFCFC"/>
</g>
<mask id="mask4_6344_14229" style="mask-type:luminance" maskUnits="userSpaceOnUse" x="0" y="12" width="64" height="36">
<path d="M63.2926 12.149H0.734131V47.6182H63.2926V12.149Z" fill="white"/>
</mask>
<g mask="url(#mask4_6344_14229)">
<path opacity="0.7" d="M38.4534 31.4013H10.8914V33.6036H38.4534V31.4013Z" fill="#FCFCFC"/>
<path opacity="0.7" fill-rule="evenodd" clip-rule="evenodd" d="M10.0906 30.6005H39.2543V34.4044H10.0906V30.6005ZM11.6922 32.2021V32.8028H37.6526V32.2021H11.6922Z" fill="#FCFCFC"/>
</g>
<path d="M39.9619 45.4026H23.7717V49.5269H39.9619V45.4026Z" fill="#12A71E"/>
<path fill-rule="evenodd" clip-rule="evenodd" d="M0 46.7906H25.0127V47.8584C25.0127 48.3201 25.3419 48.5391 25.5466 48.5391H38.7203C38.9251 48.5391 39.2542 48.3201 39.2542 47.8584V46.7906H64V50.5145C64 52.5344 62.1923 53.9982 60.2227 53.9982H3.77727C1.81167 53.9982 0 52.5513 0 50.5145V46.7906ZM2.13556 48.9262V50.5145C2.13556 51.1472 2.75308 51.8626 3.77727 51.8626H60.2227C61.2429 51.8626 61.8644 51.1374 61.8644 50.5145V48.9262H41.1871C40.7987 49.9179 39.8836 50.6747 38.7203 50.6747H25.5466C24.3833 50.6747 23.4683 49.9179 23.0798 48.9262H2.13556Z" fill="#FCFCFC"/>
<path d="M3.89749 50.688C4.14075 50.688 4.33795 50.4908 4.33795 50.2476C4.33795 50.0043 4.14075 49.8071 3.89749 49.8071C3.65423 49.8071 3.45703 50.0043 3.45703 50.2476C3.45703 50.4908 3.65423 50.688 3.89749 50.688Z" fill="#12A71E"/>
</svg>
