<svg width="32" height="32" viewBox="0 0 32 32" fill="none" xmlns="http://www.w3.org/2000/svg">
<circle cx="16" cy="16" r="16" fill="#007AFF" fill-opacity="0.4"/>
<circle cx="16" cy="16" r="12" fill="#007AFF"/>
<path d="M24.9998 16.014C24.9905 15.6612 24.7078 15.3771 24.3556 15.3659H22.2519L23.4392 14.1779C23.6982 13.9189 23.6982 13.4968 23.4392 13.2378C23.1802 12.9788 22.758 12.9788 22.499 13.2378L20.3716 15.3652H18.9246L18.8513 15.1346C18.7198 14.7204 18.4945 14.3319 18.2005 14.0121L18.0366 13.8331L18.7614 12.5797L21.6685 11.8001C21.8403 11.7545 21.9837 11.6441 22.0729 11.4909C22.1621 11.3369 22.1858 11.1579 22.1396 10.9867C22.0623 10.696 21.798 10.4939 21.4974 10.4939C21.4393 10.4939 21.3811 10.5018 21.3243 10.5163L19.7023 10.9511L20.7581 9.12224C20.8466 8.96829 20.8704 8.78924 20.8241 8.61746C20.7779 8.44568 20.6682 8.30231 20.5143 8.21377C20.1971 8.03076 19.7895 8.13977 19.6058 8.45757L18.5507 10.2857L18.1159 8.66305C18.0379 8.373 17.7743 8.17016 17.4737 8.17016C17.296 8.17016 17.1288 8.23954 17.0033 8.36507C16.8778 8.49061 16.8084 8.65842 16.8084 8.83615C16.8084 8.8943 16.8163 8.95244 16.8315 9.00926L17.6111 11.917L16.887 13.1704L16.6505 13.1175C16.2263 13.023 15.7777 13.023 15.3528 13.1175L15.1163 13.1704L14.3922 11.917L15.1718 9.00992C15.2181 8.83814 15.1949 8.65842 15.1057 8.50448C15.0185 8.35252 14.8778 8.2435 14.71 8.19593L14.7007 8.19329C14.6452 8.17809 14.5878 8.17083 14.5303 8.17083H14.5296C14.2297 8.17083 13.9654 8.37366 13.8874 8.66371L13.4507 10.2844L12.3962 8.45691C12.2779 8.25473 12.0566 8.12788 11.8201 8.12788C11.6437 8.12788 11.4765 8.19791 11.3516 8.32411C11.2261 8.4503 11.158 8.6168 11.158 8.79453C11.158 8.91015 11.1891 9.02445 11.2472 9.12488L12.3017 10.9511L10.679 10.5157C10.6235 10.5011 10.5647 10.4932 10.5059 10.4932C10.1392 10.4932 9.84126 10.7912 9.84126 11.1579C9.84126 11.4585 10.0441 11.7228 10.3341 11.8001L13.2412 12.579L13.966 13.8324L13.8022 14.0114C13.5082 14.3319 13.2835 14.7204 13.152 15.1346L13.0787 15.3652H11.6311L9.50364 13.2378C9.24464 12.9788 8.82245 12.9788 8.56346 13.2378C8.43792 13.3633 8.36855 13.5305 8.36855 13.7075C8.36855 13.8846 8.43792 14.0517 8.56346 14.1773L9.75074 15.3652H7.64376C7.46735 15.3705 7.30349 15.4439 7.18259 15.572C7.06036 15.7009 6.99561 15.8693 7.00023 16.0471C7.00948 16.3999 7.2916 16.684 7.64442 16.6952H9.7514L8.56412 17.8832C8.43924 18.0087 8.36987 18.1759 8.37053 18.3536C8.37053 18.5313 8.44057 18.6985 8.5661 18.824C8.69163 18.9489 8.85813 19.0183 9.03454 19.0183H9.03586C9.21029 19.0183 9.38075 18.9476 9.50364 18.824L11.6318 16.6959H13.0787L13.152 16.9265C13.2835 17.3407 13.5088 17.7292 13.8028 18.049L13.9667 18.2281L13.2419 19.4814L10.3348 20.261C10.163 20.3066 10.0196 20.417 9.93045 20.5703C9.84126 20.7242 9.81747 20.9032 9.86372 21.0744C9.94102 21.3644 10.2053 21.5673 10.5053 21.5673H10.5059C10.5641 21.5673 10.6209 21.5593 10.6764 21.5448L12.2997 21.1107L11.2446 22.9389C11.1561 23.0928 11.1329 23.2719 11.1792 23.4437C11.2254 23.6154 11.3358 23.7588 11.4904 23.8473C11.5901 23.9048 11.7038 23.9352 11.8194 23.9359C12.0546 23.9359 12.276 23.8077 12.3949 23.6022L13.45 21.7747L13.8854 23.3974C13.9317 23.5692 14.0414 23.7126 14.1953 23.8011C14.3492 23.8896 14.5283 23.9134 14.7001 23.8672C14.8719 23.8209 15.0152 23.7112 15.1038 23.5573C15.1923 23.4033 15.2161 23.2243 15.1698 23.0525L14.3902 20.1454L15.1143 18.8921L15.3509 18.9449C15.775 19.0394 16.2237 19.0394 16.6485 18.9449L16.885 18.8921L17.6092 20.1454L16.8295 23.0525C16.735 23.4067 16.9458 23.772 17.2999 23.8665C17.6541 23.9616 18.0194 23.7502 18.1139 23.3961L18.5493 21.7734L19.6045 23.6016C19.7234 23.8064 19.9447 23.9339 20.1819 23.9346C20.3577 23.9339 20.5248 23.8639 20.6497 23.737C20.7746 23.6101 20.8433 23.443 20.8426 23.2653C20.8426 23.1503 20.8116 23.036 20.7541 22.9362L19.699 21.1081L21.3216 21.5435C21.6764 21.6386 22.0412 21.4272 22.1363 21.073C22.2314 20.7189 22.02 20.3535 21.6659 20.2584L18.7588 19.4788L18.034 18.2254L18.1978 18.0464C18.4919 17.7259 18.7165 17.3381 18.8486 16.9232L18.922 16.6932H20.3689L22.497 18.8207C22.6226 18.9462 22.7897 19.0156 22.9675 19.0156C23.1452 19.0156 23.3117 18.9462 23.4372 18.8207C23.5628 18.6952 23.6321 18.528 23.6321 18.3509C23.6321 18.1739 23.5628 18.0067 23.4372 17.8812L22.248 16.6932H24.3556C24.7203 16.682 25.009 16.3768 24.9998 16.0114V16.014ZM17.6594 16.0372C17.658 16.9503 16.9148 17.6935 16.0023 17.6949H16.0017C15.5583 17.6949 15.1427 17.5224 14.8289 17.2099C14.5157 16.8967 14.3426 16.4805 14.3426 16.0372C14.3426 15.1227 15.0859 14.3788 16.0003 14.3781H16.001C16.9154 14.3781 17.6587 15.1214 17.6594 16.0358V16.0372Z" fill="white"/>
</svg>
