<svg width="24" height="24" viewBox="0 0 24 24" fill="none" xmlns="http://www.w3.org/2000/svg">
<path fill-rule="evenodd" clip-rule="evenodd" d="M8.72722 2.72722C9.06479 2.38965 9.52262 2.20001 10 2.20001H14C14.4774 2.20001 14.9352 2.38965 15.2728 2.72722C15.6104 3.06479 15.8 3.52262 15.8 4.00001V6.20001H20C20.4418 6.20001 20.8 6.55818 20.8 7.00001C20.8 7.44184 20.4418 7.80001 20 7.80001H19.7449L18.931 19.1988C18.8807 19.9052 18.5646 20.5663 18.0464 21.049C17.5281 21.5317 16.8462 21.8 16.138 21.8H7.86203C7.15383 21.8 6.47192 21.5317 5.95367 21.049C5.43546 20.5664 5.11937 19.9053 5.06904 19.199C5.06904 19.1989 5.06905 19.199 5.06904 19.199L4.2551 7.80001H4.00001C3.55818 7.80001 3.20001 7.44184 3.20001 7.00001C3.20001 6.55818 3.55818 6.20001 4.00001 6.20001H8.20001V4.00001C8.20001 3.52262 8.38966 3.06479 8.72722 2.72722ZM9.80001 6.20001H14.2V4.00001C14.2 3.94697 14.1789 3.8961 14.1414 3.85859C14.1039 3.82108 14.0531 3.80001 14 3.80001H10C9.94697 3.80001 9.8961 3.82108 9.85859 3.85859C9.82108 3.8961 9.80001 3.94697 9.80001 4.00001V6.20001ZM5.85917 7.80001L6.66498 19.085C6.68653 19.3878 6.82202 19.6713 7.04412 19.8782C7.26623 20.085 7.55848 20.2 7.86201 20.2H16.138C16.4415 20.2 16.7338 20.085 16.9559 19.8782C17.178 19.6713 17.3135 19.388 17.335 19.0852L18.1409 7.80001H5.85917ZM10 10.2C10.4418 10.2 10.8 10.5582 10.8 11V17C10.8 17.4418 10.4418 17.8 10 17.8C9.55818 17.8 9.20001 17.4418 9.20001 17V11C9.20001 10.5582 9.55818 10.2 10 10.2ZM14 10.2C14.4418 10.2 14.8 10.5582 14.8 11V17C14.8 17.4418 14.4418 17.8 14 17.8C13.5582 17.8 13.2 17.4418 13.2 17V11C13.2 10.5582 13.5582 10.2 14 10.2Z" fill="white"/>
</svg>
