<svg width="512" height="512" viewBox="0 0 512 512" fill="none" xmlns="http://www.w3.org/2000/svg">
<path fill-rule="evenodd" clip-rule="evenodd" d="M78 74C78 33.1309 111.131 0 152 0H360C400.869 0 434 33.1309 434 74V434C434 474.869 400.869 508 360 508H152C111.131 508 78 474.869 78 434V74ZM152 20C122.177 20 98 44.1766 98 74V434C98 463.823 122.177 488 152 488H360C389.823 488 414 463.823 414 434V74C414 44.1766 389.823 20 360 20H152Z" fill="#FCFCFC"/>
<path fill-rule="evenodd" clip-rule="evenodd" d="M254.762 295.036C255.973 294.921 257.195 295.083 258.334 295.509L284.399 305.243C286.148 305.896 287.614 307.137 288.544 308.751L315.934 356.3C317.061 358.256 317.307 360.595 316.612 362.742L309.14 385.805L315.792 396.479C316.582 397.746 317 399.208 317 400.7V429.192C317 431.191 316.249 433.117 314.895 434.592L298.549 452.4C297.028 454.057 294.88 455 292.627 455H206.789C204.369 455 202.078 453.911 200.554 452.037C199.03 450.163 198.436 447.704 198.937 445.344L206.32 410.566L195.499 381.393C194.15 377.757 195.611 373.68 198.966 371.718L217.13 361.099L209.211 333.935C208.666 332.064 208.824 330.059 209.657 328.296L222.048 302.063C223.256 299.504 225.729 297.772 228.554 297.506L254.762 295.036ZM237.475 365.133L243.403 371.917C244.117 371.453 244.903 371.104 245.733 370.885L276.801 362.691C279.205 362.057 281.768 362.569 283.741 364.078L296.218 373.623L299.171 364.508L257.283 344.738L237.475 365.133ZM263.544 329.99L289.26 342.127L276.061 319.216L263.544 314.541V329.99ZM247.492 311.792V331.815L230.431 349.382L225.473 332.375L234.622 313.005L247.492 311.792ZM294.312 392.335L277.095 379.164L259.52 383.799L269.514 403.019L296.458 395.778L294.312 392.335ZM300.947 411.143L268.51 419.86L236.089 439H289.092L300.947 426.084V411.143ZM218.426 430.832L254.746 409.389L245.571 391.744L221.988 414.05L218.426 430.832ZM217.959 395.804L231.662 382.842L224.901 375.105L212.887 382.129L217.959 395.804Z" fill="#FCFCFC"/>
</svg>
