<svg width="512" height="512" viewBox="0 0 512 512" fill="none" xmlns="http://www.w3.org/2000/svg">
<g clip-path="url(#clip0_4627_594)">
<path d="M237.29 249.63C231.047 252.164 225.378 255.929 220.62 260.7L170.89 191.85C170.11 190.786 169.549 189.578 169.238 188.295C168.928 187.013 168.874 185.682 169.08 184.379C169.286 183.075 169.748 181.826 170.439 180.702C171.13 179.578 172.037 178.602 173.107 177.83C174.177 177.058 175.389 176.506 176.674 176.205C177.958 175.903 179.29 175.859 180.591 176.075C181.893 176.291 183.139 176.762 184.258 177.461C185.377 178.16 186.346 179.074 187.11 180.15L237.29 249.63Z" fill="#00D151"/>
<path d="M482 0H30C22.0435 0 14.4129 3.16071 8.7868 8.7868C3.16071 14.4129 0 22.0435 0 30L0 482C0 489.956 3.16071 497.587 8.7868 503.213C14.4129 508.839 22.0435 512 30 512H482C489.956 512 497.587 508.839 503.213 503.213C508.839 497.587 512 489.956 512 482V30C512 22.0435 508.839 14.4129 503.213 8.7868C497.587 3.16071 489.956 0 482 0ZM492 482C492 484.652 490.946 487.196 489.071 489.071C487.196 490.946 484.652 492 482 492H30C27.3478 492 24.8043 490.946 22.9289 489.071C21.0536 487.196 20 484.652 20 482V30C20 27.3478 21.0536 24.8043 22.9289 22.9289C24.8043 21.0536 27.3478 20 30 20H482C484.652 20 487.196 21.0536 489.071 22.9289C490.946 24.8043 492 27.3478 492 30V482Z" fill="black"/>
<path d="M256 50C140.21 50 46 144.21 46 260V296C46 298.652 47.0536 301.196 48.9289 303.071C50.8043 304.946 53.3478 306 56 306H456C458.652 306 461.196 304.946 463.071 303.071C464.946 301.196 466 298.652 466 296V260C466 144.21 371.79 50 256 50ZM227.71 286C229.776 280.147 233.606 275.079 238.672 271.494C243.739 267.909 249.793 265.984 256 265.984C262.207 265.984 268.261 267.909 273.328 271.494C278.394 275.079 282.224 280.147 284.29 286H227.71ZM446 286H305C302.705 274.697 296.573 264.535 287.643 257.236C278.712 249.937 267.534 245.95 256 245.95C244.466 245.95 233.288 249.937 224.357 257.236C215.427 264.535 209.295 274.697 207 286H66V270H115.89C118.542 270 121.086 268.946 122.961 267.071C124.836 265.196 125.89 262.652 125.89 260C125.89 257.348 124.836 254.804 122.961 252.929C121.086 251.054 118.542 250 115.89 250H66.26C67.624 223.445 74.5934 197.479 86.71 173.81L129.71 198.61C132.006 199.915 134.724 200.259 137.273 199.567C139.821 198.876 141.992 197.204 143.313 194.917C144.633 192.63 144.995 189.914 144.32 187.361C143.645 184.808 141.988 182.626 139.71 181.29L96.73 156.5C111.248 134.241 130.241 115.248 152.5 100.73L177.29 143.66C177.942 144.806 178.814 145.813 179.856 146.621C180.899 147.429 182.09 148.023 183.363 148.368C184.636 148.714 185.964 148.804 187.272 148.634C188.58 148.464 189.841 148.037 190.983 147.378C192.125 146.718 193.126 145.839 193.927 144.792C194.728 143.744 195.314 142.548 195.651 141.273C195.988 139.998 196.07 138.669 195.891 137.363C195.712 136.056 195.277 134.798 194.61 133.66L169.81 90.71C193.479 78.5934 219.445 71.624 246 70.26V119.89C246 122.542 247.054 125.086 248.929 126.961C250.804 128.836 253.348 129.89 256 129.89C258.652 129.89 261.196 128.836 263.071 126.961C264.946 125.086 266 122.542 266 119.89V70.26C292.555 71.624 318.521 78.5934 342.19 90.71L317.39 133.71C316.723 134.848 316.288 136.106 316.109 137.413C315.93 138.719 316.012 140.048 316.349 141.323C316.686 142.598 317.272 143.794 318.073 144.842C318.874 145.889 319.875 146.768 321.017 147.428C322.159 148.087 323.42 148.514 324.728 148.684C326.036 148.854 327.364 148.764 328.637 148.418C329.91 148.073 331.101 147.479 332.144 146.671C333.186 145.863 334.058 144.856 334.71 143.71L359.5 100.78C381.759 115.298 400.751 134.291 415.27 156.55L372.34 181.34C371.194 181.992 370.187 182.864 369.379 183.906C368.571 184.949 367.977 186.14 367.632 187.413C367.286 188.686 367.196 190.014 367.366 191.322C367.536 192.63 367.963 193.891 368.622 195.033C369.282 196.175 370.161 197.176 371.208 197.977C372.256 198.778 373.452 199.364 374.727 199.701C376.002 200.038 377.331 200.12 378.637 199.941C379.944 199.762 381.202 199.327 382.34 198.66L425.34 173.86C437.432 197.518 444.385 223.466 445.74 250H396.11C393.458 250 390.914 251.054 389.039 252.929C387.164 254.804 386.11 257.348 386.11 260C386.11 262.652 387.164 265.196 389.039 267.071C390.914 268.946 393.458 270 396.11 270H446V286Z" fill="black"/>
<path d="M307.23 440.15L267.23 344.15C266.47 342.328 265.188 340.772 263.546 339.677C261.903 338.582 259.974 337.998 258 337.998C256.026 337.998 254.096 338.582 252.454 339.677C250.811 340.772 249.529 342.328 248.77 344.15L216.3 422.07L215.38 424.29L208.77 440.15C207.749 442.598 207.742 445.351 208.751 447.804C209.76 450.257 211.702 452.209 214.15 453.23C216.598 454.251 219.351 454.258 221.804 453.249C224.257 452.24 226.209 450.298 227.23 447.85L231.75 437H284.25L288.77 447.85C289.791 450.298 291.743 452.24 294.196 453.249C296.649 454.258 299.402 454.251 301.85 453.23C304.298 452.209 306.24 450.257 307.249 447.804C308.258 445.351 308.251 442.598 307.23 440.15ZM240.08 417L258 374L275.92 417H240.08Z" fill="black"/>
<path d="M216.3 422.07L215.38 424.29C215.593 423.515 215.902 422.769 216.3 422.07Z" fill="black"/>
<path d="M123 356C115.089 356 107.355 358.346 100.777 362.741C94.1992 367.136 89.0723 373.384 86.0448 380.693C83.0173 388.002 82.2252 396.044 83.7686 403.804C85.312 411.563 89.1217 418.69 94.7158 424.284C100.31 429.878 107.437 433.688 115.196 435.231C122.956 436.775 130.998 435.983 138.307 432.955C145.616 429.928 151.864 424.801 156.259 418.223C160.654 411.645 163 403.911 163 396C163 385.391 158.786 375.217 151.284 367.716C143.783 360.214 133.609 356 123 356ZM123 416C119.044 416 115.178 414.827 111.889 412.629C108.6 410.432 106.036 407.308 104.522 403.654C103.009 399.999 102.613 395.978 103.384 392.098C104.156 388.219 106.061 384.655 108.858 381.858C111.655 379.061 115.219 377.156 119.098 376.384C122.978 375.613 126.999 376.009 130.654 377.522C134.308 379.036 137.432 381.6 139.629 384.889C141.827 388.178 143 392.044 143 396C143 401.304 140.893 406.391 137.142 410.142C133.391 413.893 128.304 416 123 416Z" fill="#00D151"/>
<path d="M393 356C385.089 356 377.355 358.346 370.777 362.741C364.199 367.136 359.072 373.384 356.045 380.693C353.017 388.002 352.225 396.044 353.769 403.804C355.312 411.563 359.122 418.69 364.716 424.284C370.31 429.878 377.437 433.688 385.196 435.231C392.956 436.775 400.998 435.983 408.307 432.955C415.616 429.928 421.864 424.801 426.259 418.223C430.654 411.645 433 403.911 433 396C433 385.391 428.786 375.217 421.284 367.716C413.783 360.214 403.609 356 393 356ZM393 416C389.044 416 385.178 414.827 381.889 412.629C378.6 410.432 376.036 407.308 374.522 403.654C373.009 399.999 372.613 395.978 373.384 392.098C374.156 388.219 376.061 384.655 378.858 381.858C381.655 379.061 385.219 377.156 389.098 376.384C392.978 375.613 396.999 376.009 400.654 377.522C404.308 379.036 407.432 381.6 409.629 384.889C411.827 388.178 413 392.044 413 396C413 401.304 410.893 406.391 407.142 410.142C403.391 413.893 398.304 416 393 416Z" fill="#00D151"/>
</g>
<defs>
<clipPath id="clip0_4627_594">
<rect width="512" height="512" fill="white"/>
</clipPath>
</defs>
</svg>
