<svg width="512" height="512" viewBox="0 0 512 512" fill="none" xmlns="http://www.w3.org/2000/svg">
<path d="M372.42 511C369.768 511 367.224 509.946 365.349 508.071C363.474 506.196 362.42 503.652 362.42 501V429H86C83.3478 429 80.8043 427.946 78.9289 426.071C77.0536 424.196 76 421.652 76 419V324C76 321.348 77.0536 318.804 78.9289 316.929C80.8043 315.053 83.3478 314 86 314H362.42V241C362.42 239.021 363.008 237.087 364.108 235.442C365.208 233.798 366.771 232.516 368.6 231.76C370.429 231.004 372.44 230.808 374.381 231.196C376.321 231.584 378.103 232.539 379.5 233.94L509.08 364C510.949 365.874 511.998 368.413 511.998 371.06C511.998 373.707 510.949 376.245 509.08 378.12L379.5 508.1C377.618 509.967 375.071 511.01 372.42 511ZM96 409H372.42C375.072 409 377.616 410.053 379.491 411.929C381.366 413.804 382.42 416.348 382.42 419V476.84L487.88 371L382.42 265.2V324C382.42 326.652 381.366 329.196 379.491 331.071C377.616 332.946 375.072 334 372.42 334H96V409Z" fill="#00D151"/>
<path d="M139.58 281C138.264 281 136.962 280.74 135.747 280.235C134.532 279.731 133.429 278.992 132.5 278.06L2.91983 148C1.05123 146.125 0.00195312 143.587 0.00195312 140.94C0.00195312 138.293 1.05123 135.754 2.91983 133.88L132.5 3.89987C133.9 2.4965 135.685 1.54079 137.629 1.15408C139.573 0.767371 141.588 0.967118 143.418 1.72795C145.249 2.48879 146.812 3.77639 147.909 5.42725C149.006 7.07811 149.587 9.01775 149.58 10.9999V82.9999H426C428.652 82.9999 431.196 84.0534 433.071 85.9288C434.946 87.8042 436 90.3477 436 92.9999V188C436 190.652 434.946 193.196 433.071 195.071C431.196 196.946 428.652 198 426 198H149.58V271C149.58 273.652 148.526 276.196 146.651 278.071C144.776 279.946 142.232 281 139.58 281ZM24.1198 141L129.58 246.8V188C129.58 185.348 130.633 182.804 132.509 180.929C134.384 179.053 136.928 178 139.58 178H416V103H139.58C136.928 103 134.384 101.946 132.509 100.071C130.633 98.1956 129.58 95.652 129.58 92.9999V35.1599L24.1198 141Z" fill="#FCFCFC"/>
</svg>
