<?xml version="1.0" encoding="UTF-8"?>
<svg height="600" width="800" xmlns="http://www.w3.org/2000/svg" xmlns:xlink="http://www.w3.org/1999/xlink">
    <g id="Notes" font-family="'LucidaGrande', 'Lucida Grande', sans-serif" font-size="13">
        <rect fill="white" height="600.0" width="800.0" x="0.0" y="0.0" />
        <g font-size="13">
            <text x="18.0" y="176.0">Small</text>
            <text x="18.0" y="376.0">Medium</text>
            <text x="18.0" y="576.0">Large</text>
        </g>
        <g font-size="9">
            <text x="250.0" y="30.0">Ultralight</text>
            <text x="450.0" y="30.0">Regular</text>
            <text x="650.0" y="30.0">Black</text>
            <text id="template-version" fill="#505050" text-anchor="end" x="785.0" y="575.0">Template v.3.0</text>
            <a href="https://github.com/swhitty/SwiftDraw">
                <text fill="#505050" text-anchor="end" x="785.0" y="590.0">https://github.com/swhitty/SwiftDraw</text>
            </a>
        </g>
    </g>
    <g id="Guides" stroke="rgb(39, 170, 225)" stroke-width="0.5">
        <path id="Capline-S" d="M18,76 l800,0" />
        <path id="H-reference" d="M85,145.755 L87.685,145.755 L113.369,79.287 L114.052,79.287 L114.052,76 L112.148,76 L85,145.755 Z M95.693,121.536 L130.996,121.536 L130.263,119.313 L96.474,119.313 L95.693,121.536 Z M139.15,145.755 L141.787,145.755 L114.638,76 L113.466,76 L113.466,79.287 L139.15,145.755 Z" stroke="none" />
        <path id="Baseline-S" d="M18,146 l800,0" />
        <path id="left-margin-Ultralight-S" d="M220,56 l0,110" />
        <path id="right-margin-Ultralight-S" d="M310,56 l0,110" />
        <path id="left-margin-Regular-S" d="M420,56 l0,110" />
        <path id="right-margin-Regular-S" d="M510,56 l0,110" />
        <path id="left-margin-Black-S" d="M620,56 l0,110" />
        <path id="right-margin-Black-S" d="M710,56 l0,110" />
        <path id="Capline-M" d="M18,276 l800,0" />
        <path id="Baseline-M" d="M18,346 l800,0" />
        <path id="Capline-L" d="M18,476 l800,0" />
        <path id="Baseline-L" d="M18,546 l800,0" />
    </g>
    <g id="Symbols">
        <g id="Ultralight-S">
            <path d="M241.2,83.56 C241.2,82.478 242.078,81.6 243.16,81.6 L286.84,81.6 C287.922,81.6 288.8,82.478 288.8,83.56 L288.8,138.44 C288.8,139.522 287.922,140.4 286.84,140.4 L243.16,140.4 C242.078,140.4 241.2,139.522 241.2,138.44 L241.2,83.56 Z M244,84.4 L244,137.6 L286,137.6 L286,84.4 L244,84.4 Z" />
            <path d="M241.2,83 C241.2,82.227 241.827,81.6 242.6,81.6 L262.2,81.6 C262.973,81.6 263.6,82.227 263.6,83 L263.6,133.4 C263.6,134.173 262.973,134.8 262.2,134.8 L242.6,134.8 C241.827,134.8 241.2,134.173 241.2,133.4 L241.2,83 Z M244,84.4 L244,132 L260.8,132 L260.8,84.4 L244,84.4 Z" />
            <path d="M266.4,83 C266.4,82.227 267.027,81.6 267.8,81.6 L287.4,81.6 C288.173,81.6 288.8,82.227 288.8,83 L288.8,133.4 C288.8,134.173 288.173,134.8 287.4,134.8 L267.8,134.8 C267.027,134.8 266.4,134.173 266.4,133.4 L266.4,83 Z M269.2,84.4 L269.2,132 L286,132 L286,84.4 L269.2,84.4 Z" />
            <path d="M286,83.56 C286,82.478 286.878,81.6 287.96,81.6 L295.24,81.6 C296.322,81.6 297.2,82.478 297.2,83.56 L297.2,144.04 C297.2,145.122 296.322,146 295.24,146 L287.96,146 C286.878,146 286,145.122 286,144.04 L286,83.56 Z M288.8,84.4 L288.8,143.2 L294.4,143.2 L294.4,84.4 L288.8,84.4 Z" />
            <path d="M232.8,83.56 C232.8,82.478 233.678,81.6 234.76,81.6 L242.04,81.6 C243.122,81.6 244,82.478 244,83.56 L244,144.04 C244,145.122 243.122,146 242.04,146 L234.76,146 C233.678,146 232.8,145.122 232.8,144.04 L232.8,83.56 Z M235.6,84.4 L235.6,143.2 L241.2,143.2 L241.2,84.4 L235.6,84.4 Z" />
            <path d="M230,77.4 C230,76.627 230.627,76 231.4,76 L298.6,76 C299.373,76 300,76.627 300,77.4 L300,83 C300,83.773 299.373,84.4 298.6,84.4 L231.4,84.4 C230.627,84.4 230,83.773 230,83 L230,77.4 Z M232.8,78.8 L232.8,81.6 L297.2,81.6 L297.2,78.8 L232.8,78.8 Z" />
        </g>
        <g id="Regular-S">
            <path d="M441.2,83.56 C441.2,82.478 442.078,81.6 443.16,81.6 L486.84,81.6 C487.922,81.6 488.8,82.478 488.8,83.56 L488.8,138.44 C488.8,139.522 487.922,140.4 486.84,140.4 L443.16,140.4 C442.078,140.4 441.2,139.522 441.2,138.44 L441.2,83.56 Z M444,84.4 L444,137.6 L486,137.6 L486,84.4 L444,84.4 Z" />
            <path d="M441.2,83 C441.2,82.227 441.827,81.6 442.6,81.6 L462.2,81.6 C462.973,81.6 463.6,82.227 463.6,83 L463.6,133.4 C463.6,134.173 462.973,134.8 462.2,134.8 L442.6,134.8 C441.827,134.8 441.2,134.173 441.2,133.4 L441.2,83 Z M444,84.4 L444,132 L460.8,132 L460.8,84.4 L444,84.4 Z" />
            <path d="M466.4,83 C466.4,82.227 467.027,81.6 467.8,81.6 L487.4,81.6 C488.173,81.6 488.8,82.227 488.8,83 L488.8,133.4 C488.8,134.173 488.173,134.8 487.4,134.8 L467.8,134.8 C467.027,134.8 466.4,134.173 466.4,133.4 L466.4,83 Z M469.2,84.4 L469.2,132 L486,132 L486,84.4 L469.2,84.4 Z" />
            <path d="M486,83.56 C486,82.478 486.878,81.6 487.96,81.6 L495.24,81.6 C496.322,81.6 497.2,82.478 497.2,83.56 L497.2,144.04 C497.2,145.122 496.322,146 495.24,146 L487.96,146 C486.878,146 486,145.122 486,144.04 L486,83.56 Z M488.8,84.4 L488.8,143.2 L494.4,143.2 L494.4,84.4 L488.8,84.4 Z" />
            <path d="M432.8,83.56 C432.8,82.478 433.678,81.6 434.76,81.6 L442.04,81.6 C443.122,81.6 444,82.478 444,83.56 L444,144.04 C444,145.122 443.122,146 442.04,146 L434.76,146 C433.678,146 432.8,145.122 432.8,144.04 L432.8,83.56 Z M435.6,84.4 L435.6,143.2 L441.2,143.2 L441.2,84.4 L435.6,84.4 Z" />
            <path d="M430,77.4 C430,76.627 430.627,76 431.4,76 L498.6,76 C499.373,76 500,76.627 500,77.4 L500,83 C500,83.773 499.373,84.4 498.6,84.4 L431.4,84.4 C430.627,84.4 430,83.773 430,83 L430,77.4 Z M432.8,78.8 L432.8,81.6 L497.2,81.6 L497.2,78.8 L432.8,78.8 Z" />
        </g>
        <g id="Black-S">
            <path d="M641.2,83.56 C641.2,82.478 642.078,81.6 643.16,81.6 L686.84,81.6 C687.922,81.6 688.8,82.478 688.8,83.56 L688.8,138.44 C688.8,139.522 687.922,140.4 686.84,140.4 L643.16,140.4 C642.078,140.4 641.2,139.522 641.2,138.44 L641.2,83.56 Z M644,84.4 L644,137.6 L686,137.6 L686,84.4 L644,84.4 Z" />
            <path d="M641.2,83 C641.2,82.227 641.827,81.6 642.6,81.6 L662.2,81.6 C662.973,81.6 663.6,82.227 663.6,83 L663.6,133.4 C663.6,134.173 662.973,134.8 662.2,134.8 L642.6,134.8 C641.827,134.8 641.2,134.173 641.2,133.4 L641.2,83 Z M644,84.4 L644,132 L660.8,132 L660.8,84.4 L644,84.4 Z" />
            <path d="M666.4,83 C666.4,82.227 667.027,81.6 667.8,81.6 L687.4,81.6 C688.173,81.6 688.8,82.227 688.8,83 L688.8,133.4 C688.8,134.173 688.173,134.8 687.4,134.8 L667.8,134.8 C667.027,134.8 666.4,134.173 666.4,133.4 L666.4,83 Z M669.2,84.4 L669.2,132 L686,132 L686,84.4 L669.2,84.4 Z" />
            <path d="M686,83.56 C686,82.478 686.878,81.6 687.96,81.6 L695.24,81.6 C696.322,81.6 697.2,82.478 697.2,83.56 L697.2,144.04 C697.2,145.122 696.322,146 695.24,146 L687.96,146 C686.878,146 686,145.122 686,144.04 L686,83.56 Z M688.8,84.4 L688.8,143.2 L694.4,143.2 L694.4,84.4 L688.8,84.4 Z" />
            <path d="M632.8,83.56 C632.8,82.478 633.677,81.6 634.76,81.6 L642.04,81.6 C643.122,81.6 644,82.478 644,83.56 L644,144.04 C644,145.122 643.122,146 642.04,146 L634.76,146 C633.677,146 632.8,145.122 632.8,144.04 L632.8,83.56 Z M635.6,84.4 L635.6,143.2 L641.2,143.2 L641.2,84.4 L635.6,84.4 Z" />
            <path d="M630,77.4 C630,76.627 630.627,76 631.4,76 L698.6,76 C699.373,76 700,76.627 700,77.4 L700,83 C700,83.773 699.373,84.4 698.6,84.4 L631.4,84.4 C630.627,84.4 630,83.773 630,83 L630,77.4 Z M632.8,78.8 L632.8,81.6 L697.2,81.6 L697.2,78.8 L632.8,78.8 Z" />
        </g>
    </g>
</svg>