<?xml version="1.0" encoding="UTF-8"?>
<svg height="600" width="800" xmlns="http://www.w3.org/2000/svg" xmlns:xlink="http://www.w3.org/1999/xlink">
    <g id="Notes" font-family="'LucidaGrande', 'Lucida Grande', sans-serif" font-size="13">
        <rect fill="white" height="600.0" width="800.0" x="0.0" y="0.0" />
        <g font-size="13">
            <text x="18.0" y="176.0">Small</text>
            <text x="18.0" y="376.0">Medium</text>
            <text x="18.0" y="576.0">Large</text>
        </g>
        <g font-size="9">
            <text x="250.0" y="30.0">Ultralight</text>
            <text x="450.0" y="30.0">Regular</text>
            <text x="650.0" y="30.0">Black</text>
            <text id="template-version" fill="#505050" text-anchor="end" x="785.0" y="575.0">Template v.3.0</text>
            <a href="https://github.com/swhitty/SwiftDraw">
                <text fill="#505050" text-anchor="end" x="785.0" y="590.0">https://github.com/swhitty/SwiftDraw</text>
            </a>
        </g>
    </g>
    <g id="Guides" stroke="rgb(39, 170, 225)" stroke-width="0.5">
        <path id="Capline-S" d="M18,76 l800,0" />
        <path id="H-reference" d="M85,145.755 L87.685,145.755 L113.369,79.287 L114.052,79.287 L114.052,76 L112.148,76 L85,145.755 Z M95.693,121.536 L130.996,121.536 L130.263,119.313 L96.474,119.313 L95.693,121.536 Z M139.15,145.755 L141.787,145.755 L114.638,76 L113.466,76 L113.466,79.287 L139.15,145.755 Z" stroke="none" />
        <path id="Baseline-S" d="M18,146 l800,0" />
        <path id="left-margin-Ultralight-S" d="M215.725,56 l0,110" />
        <path id="right-margin-Ultralight-S" d="M314.275,56 l0,110" />
        <path id="left-margin-Regular-S" d="M415.725,56 l0,110" />
        <path id="right-margin-Regular-S" d="M514.276,56 l0,110" />
        <path id="left-margin-Black-S" d="M615.724,56 l0,110" />
        <path id="right-margin-Black-S" d="M714.276,56 l0,110" />
        <path id="Capline-M" d="M18,276 l800,0" />
        <path id="Baseline-M" d="M18,346 l800,0" />
        <path id="Capline-L" d="M18,476 l800,0" />
        <path id="Baseline-L" d="M18,546 l800,0" />
    </g>
    <g id="Symbols">
        <g id="Ultralight-S">
            <path d="M293.892,91.442 C294.227,91.002 294.541,90.604 294.856,90.205 C295.086,89.912 295.38,89.765 295.778,89.765 C297.664,89.786 299.53,89.996 301.353,90.52 C301.961,90.687 302.548,90.939 303.051,91.337 C303.952,92.05 304.12,92.825 303.554,93.831 C303.072,94.67 302.359,95.257 301.521,95.718 C301.123,95.948 300.704,96.116 300.284,96.326 C300.096,96.409 299.991,96.514 300.2,96.682 C302.422,98.505 303.219,101 303.659,103.703 C304.036,106.009 304.141,108.335 304.036,110.662 C303.931,112.8 303.785,114.938 303.596,117.076 C303.428,118.815 303.324,120.555 303.24,122.295 C303.156,123.908 303.135,125.501 303.198,127.115 C303.24,128.436 302.108,129.777 300.578,129.714 C298.356,129.651 296.113,129.714 293.892,129.672 C292.844,129.651 291.775,129.693 290.727,129.693 C289.302,129.714 288.149,128.75 288.065,127.325 C288.002,126.382 287.792,126.486 287.122,126.403 C286.765,126.361 286.661,126.235 286.661,125.9 C286.682,123.133 286.661,120.345 286.661,117.579 C286.661,117.076 286.682,117.034 287.206,117.076 C288.715,117.159 290.203,117.117 291.712,117.117 C292.32,117.117 292.928,117.076 293.535,117.055 C293.996,117.034 294.416,116.887 294.751,116.552 C295.191,116.111 295.149,115.525 294.667,115.147 C294.248,114.833 293.766,114.728 293.263,114.728 C291.293,114.728 289.302,114.728 287.331,114.728 C286.682,114.728 286.682,114.728 286.682,114.078 C286.682,113.345 286.682,112.611 286.682,111.878 C286.682,111.731 286.661,111.542 286.933,111.605 C288.107,111.92 289.323,111.836 290.517,111.857 C291.796,111.857 293.074,111.857 294.353,111.794 C296.26,111.71 297.392,110.62 298.084,108.964 C298.314,108.419 298.419,107.853 298.419,107.266 C298.419,106.281 297.937,105.736 296.931,105.653 C296.26,105.59 295.61,105.674 294.961,105.757 C293.095,105.988 291.23,106.218 289.364,106.533 C288.505,106.68 287.709,106.973 287.038,107.539 C286.954,107.602 286.87,107.77 286.744,107.686 C286.64,107.623 286.682,107.476 286.682,107.35 C286.682,104.395 286.661,101.461 286.682,98.505 C286.682,97.898 286.535,97.395 286.22,96.912 C285.256,95.382 284.292,93.873 283.307,92.343 C283.265,92.259 283.16,92.197 283.244,92.113 C283.307,92.05 283.391,92.071 283.475,92.071 C285.34,92.197 287.206,92.259 289.071,92.49 C289.155,92.511 289.26,92.49 289.343,92.49 C289.595,92.49 289.658,92.385 289.553,92.176 C288.295,89.115 286.912,86.118 285.13,83.331 C284.502,82.366 283.579,81.989 282.49,81.822 C280.373,81.507 278.256,81.13 276.118,80.878 C274.525,80.69 272.932,80.543 271.318,80.438 C269.034,80.312 266.728,80.208 264.443,80.229 C261.865,80.25 259.287,80.396 256.709,80.606 C253.44,80.857 250.191,81.381 246.963,81.884 C245.957,82.052 245.161,82.555 244.637,83.435 C244.49,83.666 244.364,83.917 244.196,84.148 C242.499,86.496 241.409,89.136 240.298,91.777 C239.984,92.532 240.046,92.595 240.885,92.49 C242.436,92.28 243.987,92.155 245.538,92.113 C245.643,92.113 245.81,92.05 245.873,92.155 C245.957,92.28 245.789,92.385 245.727,92.49 C244.888,93.81 244.05,95.131 243.211,96.451 C242.75,97.185 242.52,97.981 242.541,98.841 C242.562,100.79 242.541,102.76 242.541,104.73 C242.541,105.716 242.52,105.736 241.535,105.736 C240.822,105.736 240.738,105.653 240.738,104.919 C240.738,103.158 240.696,101.398 240.738,99.637 C240.78,98.422 240.445,97.374 239.774,96.367 C238.998,95.194 238.265,93.978 237.51,92.804 C237.175,92.301 236.84,91.777 236.232,91.547 C235.98,91.442 236.043,91.274 236.127,91.086 C236.567,89.996 236.986,88.906 237.468,87.837 C238.433,85.615 239.606,83.498 240.864,81.423 C242.163,79.285 244.029,78.091 246.502,77.734 C248.703,77.399 250.883,76.98 253.104,76.749 C254.467,76.603 255.829,76.519 257.191,76.393 C259.12,76.225 261.048,76.1 262.997,76.037 C263.982,75.995 264.947,75.974 265.932,76.058 C266.057,76.058 266.162,76.079 266.288,76.079 C269.474,76.079 272.639,76.246 275.783,76.624 C278.465,76.938 281.127,77.378 283.789,77.818 C286.116,78.196 287.813,79.495 289.029,81.465 C290.517,83.876 291.796,86.391 292.907,89.011 C293.221,89.765 293.535,90.583 293.892,91.442 Z" />
            <path d="M231.579,121.666 C231.579,113.869 231.579,106.072 231.579,98.275 C231.579,97.898 231.663,97.562 231.873,97.248 C232.837,95.739 233.801,94.209 234.765,92.679 C234.828,92.574 234.891,92.49 234.975,92.385 C235.478,91.736 236.023,91.736 236.505,92.406 C236.819,92.846 237.113,93.328 237.406,93.79 C238.182,95.005 238.936,96.242 239.733,97.458 C240.005,97.877 240.131,98.296 240.131,98.799 C240.11,101.272 240.131,103.745 240.11,106.219 C240.11,106.596 240.215,106.701 240.592,106.68 C241.284,106.659 241.954,106.659 242.646,106.68 C243.044,106.701 243.17,106.596 243.17,106.177 C243.149,103.536 243.17,100.916 243.149,98.275 C243.149,97.877 243.254,97.541 243.463,97.206 C244.427,95.697 245.371,94.188 246.335,92.658 C246.419,92.511 246.523,92.364 246.628,92.239 C247.047,91.757 247.571,91.736 247.97,92.239 C248.284,92.637 248.536,93.098 248.829,93.517 C249.667,94.838 250.506,96.158 251.344,97.478 C251.596,97.856 251.701,98.254 251.701,98.694 C251.68,101.188 251.701,103.662 251.68,106.156 C251.701,139.503 251.68,142.185 251.68,144.868 C251.68,145.728 251.428,146 250.548,146 C248.389,146 246.23,146 244.05,146 C243.966,146 243.862,146 243.778,146 C243.296,145.958 243.149,145.811 243.149,145.329 C243.149,142.521 243.149,139.691 243.149,136.883 C243.149,136.484 243.065,136.338 242.646,136.359 C241.954,136.4 241.242,136.379 240.55,136.359 C240.194,136.338 240.11,136.463 240.11,136.82 C240.131,139.503 240.11,142.185 240.11,144.868 C240.11,145.728 239.858,146 238.978,146 C236.819,146 234.66,146 232.481,146 C232.397,146 232.313,146 232.25,146 C231.726,145.958 231.579,145.832 231.579,145.287 C231.579,138.056 231.579,130.825 231.579,123.594 C231.579,122.965 231.579,122.316 231.579,121.666 Z M232.9,121.645 C232.9,129.002 232.9,136.379 232.9,143.736 C232.9,144.344 232.942,144.407 233.507,144.407 C234.996,144.407 236.484,144.407 237.972,144.407 C238.496,144.407 238.622,144.281 238.622,143.757 C238.622,129.044 238.622,114.33 238.622,99.616 C238.622,99.134 238.517,98.652 238.265,98.233 C237.511,97.038 236.756,95.823 236.002,94.628 C235.792,94.293 235.708,94.293 235.478,94.649 C234.828,95.676 234.199,96.745 233.507,97.751 C233.067,98.401 232.9,99.071 232.9,99.826 C232.9,107.078 232.9,114.351 232.9,121.645 Z M250.171,121.666 C250.171,114.351 250.171,107.036 250.171,99.721 C250.171,99.176 250.087,98.652 249.793,98.17 C249.06,96.975 248.305,95.781 247.551,94.586 C247.32,94.23 247.236,94.23 247.006,94.586 C246.356,95.613 245.727,96.682 245.035,97.688 C244.595,98.338 244.448,99.008 244.448,99.763 C244.448,107.833 244.448,115.923 244.448,123.992 C244.448,130.574 244.448,137.134 244.448,143.715 C244.448,144.323 244.49,144.365 245.098,144.365 C246.523,144.365 247.949,144.365 249.374,144.365 C250.108,144.365 250.171,144.302 250.171,143.569 C250.171,136.296 250.171,128.981 250.171,121.666 Z M240.089,121.477 C240.089,124.181 240.089,126.864 240.089,129.568 C240.089,129.903 240.173,130.029 240.529,130.029 C241.263,130.008 241.996,130.008 242.751,130.029 C243.044,130.029 243.128,129.924 243.128,129.63 C243.128,124.223 243.128,118.815 243.128,113.408 C243.128,113.114 243.044,113.009 242.751,113.009 C242.017,113.03 241.305,113.03 240.571,113.009 C240.173,112.989 240.089,113.135 240.089,113.513 C240.11,116.174 240.089,118.836 240.089,121.477 Z M243.128,133.257 C243.128,132.837 243.128,132.418 243.128,131.999 C243.128,131.768 243.044,131.664 242.814,131.664 C242.017,131.664 241.2,131.664 240.403,131.664 C240.173,131.664 240.11,131.768 240.11,131.978 C240.11,132.816 240.11,133.634 240.11,134.472 C240.11,134.682 240.194,134.787 240.403,134.787 C241.2,134.787 242.017,134.787 242.814,134.787 C243.065,134.787 243.149,134.682 243.128,134.451 C243.128,134.032 243.128,133.634 243.128,133.257 Z M243.128,109.887 C243.128,109.467 243.128,109.048 243.128,108.629 C243.128,108.398 243.044,108.294 242.814,108.294 C242.017,108.294 241.221,108.294 240.445,108.294 C240.215,108.294 240.11,108.357 240.11,108.608 C240.11,109.446 240.11,110.264 240.11,111.102 C240.11,111.312 240.194,111.417 240.403,111.417 C241.2,111.417 242.017,111.417 242.814,111.417 C243.065,111.417 243.128,111.312 243.128,111.081 C243.128,110.662 243.128,110.285 243.128,109.887 Z" />
            <path d="M229.756,129.651 C229.505,129.651 229.253,129.672 229.002,129.651 C227.555,129.568 226.612,128.562 226.612,127.052 C226.591,125.522 226.612,123.971 226.591,122.441 C226.57,120.702 226.361,118.962 226.214,117.222 C226.13,116.153 226.046,115.105 225.962,114.037 C225.837,112.381 225.69,110.725 225.732,109.069 C225.795,106.638 225.858,104.206 226.507,101.838 C227.052,99.847 227.933,98.044 229.567,96.703 C229.882,96.43 229.609,96.367 229.421,96.284 C228.478,95.885 227.597,95.382 226.885,94.649 C226.465,94.209 226.172,93.706 225.962,93.14 C225.837,92.762 225.879,92.427 226.088,92.092 C226.507,91.421 227.136,91.002 227.87,90.729 C229.274,90.205 230.741,89.996 232.229,89.87 C232.753,89.828 233.277,89.807 233.801,89.765 C234.179,89.744 234.493,89.87 234.744,90.163 C234.975,90.478 235.227,90.792 235.478,91.107 C235.604,91.274 235.646,91.4 235.373,91.463 C234.849,91.589 234.493,91.924 234.22,92.364 C233.319,93.79 232.418,95.215 231.517,96.64 C231.077,97.332 230.972,98.107 230.972,98.904 C230.972,105.38 230.972,111.878 230.972,118.354 C230.972,121.896 230.972,125.438 230.972,128.96 C230.972,129.672 230.972,129.672 230.28,129.672 C230.112,129.651 229.924,129.651 229.756,129.651 Z" />
            <path d="M252.246,101.838 C252.246,100.937 252.225,100.015 252.246,99.113 C252.267,98.296 252.036,97.52 251.596,96.829 C250.611,95.278 249.689,93.706 248.641,92.197 C248.599,92.134 248.494,92.05 248.536,91.966 C248.578,91.861 248.704,91.903 248.787,91.903 C250.15,91.861 251.533,91.798 252.896,91.756 C254.321,91.715 255.767,91.693 257.213,91.672 C257.36,91.672 257.591,91.589 257.653,91.735 C257.737,91.903 257.507,91.987 257.423,92.092 C256.836,92.867 256.354,93.727 255.83,94.544 C255.432,95.152 255.075,95.781 254.677,96.388 C254.195,97.143 253.964,97.96 253.985,98.862 C254.006,100.811 253.985,102.76 253.985,104.688 C253.985,105.674 253.964,105.695 252.979,105.695 C252.372,105.695 252.267,105.611 252.267,105.003 C252.246,103.934 252.267,102.886 252.246,101.838 Z" />
            <path d="M240.697,121.645 C240.697,120.282 240.718,118.941 240.697,117.579 C240.697,117.18 240.822,117.034 241.221,117.076 C241.535,117.097 241.85,117.097 242.164,117.076 C242.415,117.055 242.52,117.18 242.52,117.432 C242.52,117.516 242.52,117.6 242.52,117.662 C242.52,120.324 242.52,122.965 242.52,125.627 C242.52,126.214 242.52,126.214 241.933,126.214 C240.697,126.214 240.697,126.214 240.697,124.998 C240.697,123.887 240.697,122.756 240.697,121.645 Z" />
            <path d="M265.24,76.036 C271.549,76.036 277.796,76.667 284,77.819 C286.242,78.238 287.898,79.433 289.093,81.319 C291.021,84.379 292.572,87.649 293.893,91.024 C293.935,91.149 293.976,91.254 294.039,91.38 C294.165,91.673 294.291,91.673 294.479,91.422 C294.773,91.045 295.067,90.667 295.36,90.269 C295.549,90.018 295.779,89.871 296.073,89.871 C298.273,89.976 300.474,90.122 302.549,90.982 C302.654,91.024 302.738,91.066 302.843,91.108 C304.268,91.862 304.541,92.931 303.598,94.231 C302.885,95.236 301.836,95.823 300.725,96.305 C300.181,96.535 300.18,96.536 300.599,96.913 C302.527,98.569 303.367,100.77 303.786,103.181 C304.352,106.345 304.351,109.531 304.163,112.738 C303.89,117.579 303.219,122.379 303.45,127.241 C303.492,128.205 303.094,128.981 302.319,129.526 C301.962,129.777 301.606,129.903 301.166,129.882 C299.426,129.882 297.687,129.904 295.926,129.904 L290.874,129.904 C289.428,129.904 288.423,128.981 288.318,127.556 C288.255,126.718 288.255,126.697 287.417,126.613 C286.264,126.508 285.09,126.424 283.937,126.382 C281.422,126.278 278.907,126.215 276.371,126.152 C269.559,125.964 262.747,126.005 255.935,126.068 C254.618,126.081 253.301,126.105 251.983,126.139 L251.983,97.793 L251.439,96.952 L251.439,91.88 C252.967,91.826 254.496,91.788 256.019,91.778 C261.867,91.736 267.714,91.674 273.562,91.82 C276.643,91.904 279.745,91.925 282.826,92.051 C285.048,92.155 287.248,92.302 289.449,92.511 C290.015,92.574 290.078,92.51 289.869,91.987 C288.863,89.367 287.584,86.873 286.264,84.4 C285.362,82.744 284.168,81.864 282.24,81.571 C276.581,80.712 270.879,80.146 264.528,80.146 C263.731,80.229 262.349,80.145 260.966,80.208 C259.645,80.271 258.325,80.355 257.004,80.46 C255.143,80.595 253.29,80.832 251.439,81.101 L251.439,77.003 C253.249,76.757 255.069,76.567 256.899,76.436 C259.686,76.226 262.453,76.036 265.24,76.036 Z M286.264,114.854 C285.886,114.854 285.509,114.917 285.195,115.126 C284.44,115.588 284.44,116.552 285.215,116.992 C285.55,117.18 285.907,117.286 286.284,117.286 C288.736,117.307 291.189,117.307 293.62,117.286 C294.123,117.286 294.606,117.16 295.004,116.804 C295.569,116.301 295.527,115.651 294.899,115.232 C294.543,114.981 294.123,114.875 293.683,114.854 L286.264,114.854 Z M297.058,105.695 C296.806,105.674 296.555,105.695 296.303,105.716 C295.507,105.8 294.71,105.883 293.913,105.988 C292.279,106.24 290.602,106.324 288.988,106.722 C287.563,107.079 286.578,107.959 286.117,109.363 C285.677,110.662 286.284,111.668 287.625,111.899 C287.94,111.962 288.276,111.962 288.59,111.962 L294.145,111.962 C294.459,111.962 294.794,111.941 295.108,111.899 C297.371,111.648 298.483,109.51 298.735,107.729 C298.924,106.45 298.336,105.821 297.058,105.695 Z" />
        </g>
        <g id="Regular-S">
            <path d="M493.892,91.442 C494.227,91.002 494.541,90.604 494.856,90.205 C495.086,89.912 495.38,89.765 495.778,89.765 C497.664,89.786 499.53,89.996 501.353,90.52 C501.961,90.687 502.548,90.939 503.051,91.337 C503.952,92.05 504.12,92.825 503.554,93.831 C503.072,94.67 502.359,95.257 501.521,95.718 C501.123,95.948 500.704,96.116 500.284,96.326 C500.096,96.409 499.991,96.514 500.2,96.682 C502.422,98.505 503.219,101 503.659,103.703 C504.036,106.009 504.141,108.335 504.036,110.662 C503.931,112.8 503.785,114.938 503.596,117.076 C503.428,118.815 503.324,120.555 503.24,122.295 C503.156,123.908 503.135,125.501 503.198,127.115 C503.24,128.436 502.108,129.777 500.578,129.714 C498.356,129.651 496.113,129.714 493.892,129.672 C492.844,129.651 491.775,129.693 490.727,129.693 C489.302,129.714 488.149,128.75 488.065,127.325 C488.002,126.382 487.792,126.486 487.122,126.403 C486.765,126.361 486.661,126.235 486.661,125.9 C486.682,123.133 486.661,120.345 486.661,117.579 C486.661,117.076 486.682,117.034 487.206,117.076 C488.715,117.159 490.203,117.117 491.712,117.117 C492.32,117.117 492.928,117.076 493.535,117.055 C493.996,117.034 494.416,116.887 494.751,116.552 C495.191,116.111 495.149,115.525 494.667,115.147 C494.248,114.833 493.766,114.728 493.263,114.728 C491.293,114.728 489.302,114.728 487.331,114.728 C486.682,114.728 486.682,114.728 486.682,114.078 C486.682,113.345 486.682,112.611 486.682,111.878 C486.682,111.731 486.661,111.542 486.933,111.605 C488.107,111.92 489.323,111.836 490.517,111.857 C491.796,111.857 493.074,111.857 494.353,111.794 C496.26,111.71 497.392,110.62 498.084,108.964 C498.314,108.419 498.419,107.853 498.419,107.266 C498.419,106.281 497.937,105.736 496.931,105.653 C496.26,105.59 495.61,105.674 494.961,105.757 C493.095,105.988 491.23,106.218 489.364,106.533 C488.505,106.68 487.709,106.973 487.038,107.539 C486.954,107.602 486.87,107.77 486.744,107.686 C486.64,107.623 486.682,107.476 486.682,107.35 C486.682,104.395 486.661,101.461 486.682,98.505 C486.682,97.898 486.535,97.395 486.22,96.912 C485.256,95.382 484.292,93.873 483.307,92.343 C483.265,92.259 483.16,92.197 483.244,92.113 C483.307,92.05 483.391,92.071 483.475,92.071 C485.34,92.197 487.206,92.259 489.071,92.49 C489.155,92.511 489.26,92.49 489.343,92.49 C489.595,92.49 489.658,92.385 489.553,92.176 C488.295,89.115 486.912,86.118 485.13,83.331 C484.502,82.366 483.579,81.989 482.49,81.822 C480.373,81.507 478.256,81.13 476.118,80.878 C474.525,80.69 472.932,80.543 471.318,80.438 C469.034,80.312 466.728,80.208 464.443,80.229 C461.865,80.25 459.287,80.396 456.709,80.606 C453.44,80.857 450.191,81.381 446.963,81.884 C445.957,82.052 445.161,82.555 444.637,83.435 C444.49,83.666 444.364,83.917 444.196,84.148 C442.499,86.496 441.409,89.136 440.298,91.777 C439.984,92.532 440.046,92.595 440.885,92.49 C442.436,92.28 443.987,92.155 445.538,92.113 C445.643,92.113 445.81,92.05 445.873,92.155 C445.957,92.28 445.789,92.385 445.727,92.49 C444.888,93.81 444.05,95.131 443.211,96.451 C442.75,97.185 442.52,97.981 442.541,98.841 C442.562,100.79 442.541,102.76 442.541,104.73 C442.541,105.716 442.52,105.736 441.535,105.736 C440.822,105.736 440.738,105.653 440.738,104.919 C440.738,103.158 440.696,101.398 440.738,99.637 C440.78,98.422 440.445,97.374 439.774,96.367 C438.998,95.194 438.265,93.978 437.51,92.804 C437.175,92.301 436.84,91.777 436.232,91.547 C435.98,91.442 436.043,91.274 436.127,91.086 C436.567,89.996 436.986,88.906 437.468,87.837 C438.433,85.615 439.606,83.498 440.864,81.423 C442.163,79.285 444.029,78.091 446.502,77.734 C448.703,77.399 450.883,76.98 453.104,76.749 C454.467,76.603 455.829,76.519 457.191,76.393 C459.12,76.225 461.048,76.1 462.997,76.037 C463.982,75.995 464.947,75.974 465.932,76.058 C466.057,76.058 466.162,76.079 466.288,76.079 C469.474,76.079 472.639,76.246 475.783,76.624 C478.465,76.938 481.127,77.378 483.789,77.818 C486.116,78.196 487.813,79.495 489.029,81.465 C490.517,83.876 491.796,86.391 492.907,89.011 C493.221,89.765 493.535,90.583 493.892,91.442 Z" />
            <path d="M431.579,121.666 C431.579,113.869 431.579,106.072 431.579,98.275 C431.579,97.898 431.663,97.562 431.873,97.248 C432.837,95.739 433.801,94.209 434.765,92.679 C434.828,92.574 434.891,92.49 434.975,92.385 C435.478,91.736 436.023,91.736 436.505,92.406 C436.819,92.846 437.113,93.328 437.406,93.79 C438.182,95.005 438.936,96.242 439.733,97.458 C440.005,97.877 440.131,98.296 440.131,98.799 C440.11,101.272 440.131,103.745 440.11,106.219 C440.11,106.596 440.215,106.701 440.592,106.68 C441.284,106.659 441.954,106.659 442.646,106.68 C443.044,106.701 443.17,106.596 443.17,106.177 C443.149,103.536 443.17,100.916 443.149,98.275 C443.149,97.877 443.254,97.541 443.463,97.206 C444.427,95.697 445.371,94.188 446.335,92.658 C446.419,92.511 446.523,92.364 446.628,92.239 C447.047,91.757 447.571,91.736 447.97,92.239 C448.284,92.637 448.536,93.098 448.829,93.517 C449.667,94.838 450.506,96.158 451.344,97.478 C451.596,97.856 451.701,98.254 451.701,98.694 C451.68,101.188 451.701,103.662 451.68,106.156 C451.701,139.503 451.68,142.185 451.68,144.868 C451.68,145.728 451.428,146 450.548,146 C448.389,146 446.23,146 444.05,146 C443.966,146 443.862,146 443.778,146 C443.296,145.958 443.149,145.811 443.149,145.329 C443.149,142.521 443.149,139.691 443.149,136.883 C443.149,136.484 443.065,136.338 442.646,136.359 C441.954,136.4 441.242,136.379 440.55,136.359 C440.194,136.338 440.11,136.463 440.11,136.82 C440.131,139.503 440.11,142.185 440.11,144.868 C440.11,145.728 439.858,146 438.978,146 C436.819,146 434.66,146 432.481,146 C432.397,146 432.313,146 432.25,146 C431.726,145.958 431.579,145.832 431.579,145.287 C431.579,138.056 431.579,130.825 431.579,123.594 C431.579,122.965 431.579,122.316 431.579,121.666 Z M432.9,121.645 C432.9,129.002 432.9,136.379 432.9,143.736 C432.9,144.344 432.942,144.407 433.507,144.407 C434.996,144.407 436.484,144.407 437.972,144.407 C438.496,144.407 438.622,144.281 438.622,143.757 C438.622,129.044 438.622,114.33 438.622,99.616 C438.622,99.134 438.517,98.652 438.265,98.233 C437.511,97.038 436.756,95.823 436.002,94.628 C435.792,94.293 435.708,94.293 435.478,94.649 C434.828,95.676 434.199,96.745 433.507,97.751 C433.067,98.401 432.9,99.071 432.9,99.826 C432.9,107.078 432.9,114.351 432.9,121.645 Z M450.171,121.666 C450.171,114.351 450.171,107.036 450.171,99.721 C450.171,99.176 450.087,98.652 449.793,98.17 C449.06,96.975 448.305,95.781 447.551,94.586 C447.32,94.23 447.236,94.23 447.006,94.586 C446.356,95.613 445.727,96.682 445.035,97.688 C444.595,98.338 444.448,99.008 444.448,99.763 C444.448,107.833 444.448,115.923 444.448,123.992 C444.448,130.574 444.448,137.134 444.448,143.715 C444.448,144.323 444.49,144.365 445.098,144.365 C446.523,144.365 447.949,144.365 449.374,144.365 C450.108,144.365 450.171,144.302 450.171,143.569 C450.171,136.296 450.171,128.981 450.171,121.666 Z M440.089,121.477 C440.089,124.181 440.089,126.864 440.089,129.568 C440.089,129.903 440.173,130.029 440.529,130.029 C441.263,130.008 441.996,130.008 442.751,130.029 C443.044,130.029 443.128,129.924 443.128,129.63 C443.128,124.223 443.128,118.815 443.128,113.408 C443.128,113.114 443.044,113.009 442.751,113.009 C442.017,113.03 441.305,113.03 440.571,113.009 C440.173,112.989 440.089,113.135 440.089,113.513 C440.11,116.174 440.089,118.836 440.089,121.477 Z M443.128,133.257 C443.128,132.837 443.128,132.418 443.128,131.999 C443.128,131.768 443.044,131.664 442.814,131.664 C442.017,131.664 441.2,131.664 440.403,131.664 C440.173,131.664 440.11,131.768 440.11,131.978 C440.11,132.816 440.11,133.634 440.11,134.472 C440.11,134.682 440.194,134.787 440.403,134.787 C441.2,134.787 442.017,134.787 442.814,134.787 C443.065,134.787 443.149,134.682 443.128,134.451 C443.128,134.032 443.128,133.634 443.128,133.257 Z M443.128,109.887 C443.128,109.467 443.128,109.048 443.128,108.629 C443.128,108.398 443.044,108.294 442.814,108.294 C442.017,108.294 441.221,108.294 440.445,108.294 C440.215,108.294 440.11,108.357 440.11,108.608 C440.11,109.446 440.11,110.264 440.11,111.102 C440.11,111.312 440.194,111.417 440.403,111.417 C441.2,111.417 442.017,111.417 442.814,111.417 C443.065,111.417 443.128,111.312 443.128,111.081 C443.128,110.662 443.128,110.285 443.128,109.887 Z" />
            <path d="M429.756,129.651 C429.505,129.651 429.253,129.672 429.002,129.651 C427.555,129.568 426.612,128.562 426.612,127.052 C426.591,125.522 426.612,123.971 426.591,122.441 C426.57,120.702 426.361,118.962 426.214,117.222 C426.13,116.153 426.046,115.105 425.962,114.037 C425.837,112.381 425.69,110.725 425.732,109.069 C425.795,106.638 425.858,104.206 426.507,101.838 C427.052,99.847 427.933,98.044 429.567,96.703 C429.882,96.43 429.609,96.367 429.421,96.284 C428.478,95.885 427.597,95.382 426.885,94.649 C426.465,94.209 426.172,93.706 425.962,93.14 C425.837,92.762 425.879,92.427 426.088,92.092 C426.507,91.421 427.136,91.002 427.87,90.729 C429.274,90.205 430.741,89.996 432.229,89.87 C432.753,89.828 433.277,89.807 433.801,89.765 C434.179,89.744 434.493,89.87 434.744,90.163 C434.975,90.478 435.227,90.792 435.478,91.107 C435.604,91.274 435.646,91.4 435.373,91.463 C434.849,91.589 434.493,91.924 434.22,92.364 C433.319,93.79 432.418,95.215 431.517,96.64 C431.077,97.332 430.972,98.107 430.972,98.904 C430.972,105.38 430.972,111.878 430.972,118.354 C430.972,121.896 430.972,125.438 430.972,128.96 C430.972,129.672 430.972,129.672 430.28,129.672 C430.112,129.651 429.924,129.651 429.756,129.651 Z" />
            <path d="M452.246,101.838 C452.246,100.937 452.225,100.015 452.246,99.113 C452.267,98.296 452.036,97.52 451.596,96.829 C450.611,95.278 449.689,93.706 448.641,92.197 C448.599,92.134 448.494,92.05 448.536,91.966 C448.578,91.861 448.704,91.903 448.787,91.903 C450.15,91.861 451.533,91.798 452.896,91.756 C454.321,91.715 455.767,91.693 457.213,91.672 C457.36,91.672 457.591,91.589 457.653,91.735 C457.737,91.903 457.507,91.987 457.423,92.092 C456.836,92.867 456.354,93.727 455.83,94.544 C455.432,95.152 455.075,95.781 454.677,96.388 C454.195,97.143 453.964,97.96 453.985,98.862 C454.006,100.811 453.985,102.76 453.985,104.688 C453.985,105.674 453.964,105.695 452.979,105.695 C452.372,105.695 452.267,105.611 452.267,105.003 C452.246,103.934 452.267,102.886 452.246,101.838 Z" />
            <path d="M440.697,121.645 C440.697,120.282 440.718,118.941 440.697,117.579 C440.697,117.18 440.822,117.034 441.221,117.076 C441.535,117.097 441.849,117.097 442.164,117.076 C442.415,117.055 442.52,117.18 442.52,117.432 C442.52,117.516 442.52,117.6 442.52,117.662 C442.52,120.324 442.52,122.965 442.52,125.627 C442.52,126.214 442.52,126.214 441.933,126.214 C440.697,126.214 440.697,126.214 440.697,124.998 C440.697,123.887 440.697,122.756 440.697,121.645 Z" />
            <path d="M465.24,76.036 C471.549,76.036 477.796,76.667 484,77.819 C486.242,78.238 487.898,79.433 489.093,81.319 C491.021,84.379 492.572,87.649 493.893,91.024 C493.935,91.149 493.976,91.254 494.039,91.38 C494.165,91.673 494.291,91.673 494.479,91.422 C494.773,91.045 495.067,90.667 495.36,90.269 C495.549,90.018 495.779,89.871 496.073,89.871 C498.273,89.976 500.474,90.122 502.549,90.982 C502.654,91.024 502.738,91.066 502.843,91.108 C504.268,91.862 504.541,92.931 503.598,94.231 C502.885,95.236 501.836,95.823 500.725,96.305 C500.181,96.535 500.18,96.536 500.599,96.913 C502.527,98.569 503.367,100.77 503.786,103.181 C504.352,106.345 504.351,109.531 504.163,112.738 C503.89,117.579 503.219,122.379 503.45,127.241 C503.492,128.205 503.094,128.981 502.319,129.526 C501.962,129.777 501.606,129.903 501.166,129.882 C499.426,129.882 497.687,129.904 495.926,129.904 L490.874,129.904 C489.428,129.904 488.423,128.981 488.318,127.556 C488.255,126.718 488.255,126.697 487.417,126.613 C486.264,126.508 485.09,126.424 483.937,126.382 C481.422,126.278 478.907,126.215 476.371,126.152 C469.559,125.964 462.747,126.005 455.935,126.068 C454.618,126.081 453.301,126.105 451.983,126.139 L451.983,97.793 L451.439,96.952 L451.439,91.88 C452.967,91.826 454.496,91.788 456.019,91.778 C461.867,91.736 467.714,91.674 473.562,91.82 C476.643,91.904 479.745,91.925 482.826,92.051 C485.048,92.155 487.248,92.302 489.449,92.511 C490.015,92.574 490.078,92.51 489.869,91.987 C488.863,89.367 487.584,86.873 486.264,84.4 C485.362,82.744 484.168,81.864 482.24,81.571 C476.581,80.712 470.879,80.146 464.528,80.146 C463.731,80.229 462.349,80.145 460.966,80.208 C459.645,80.271 458.325,80.355 457.004,80.46 C455.143,80.595 453.29,80.832 451.439,81.101 L451.439,77.003 C453.249,76.757 455.069,76.567 456.899,76.436 C459.686,76.226 462.453,76.036 465.24,76.036 Z M486.264,114.854 C485.886,114.854 485.509,114.917 485.195,115.126 C484.44,115.588 484.44,116.552 485.215,116.992 C485.55,117.18 485.907,117.286 486.284,117.286 C488.736,117.307 491.189,117.307 493.62,117.286 C494.123,117.286 494.606,117.16 495.004,116.804 C495.569,116.301 495.527,115.651 494.899,115.232 C494.543,114.981 494.123,114.875 493.683,114.854 L486.264,114.854 Z M497.058,105.695 C496.806,105.674 496.555,105.695 496.303,105.716 C495.507,105.8 494.71,105.883 493.913,105.988 C492.279,106.24 490.602,106.324 488.988,106.722 C487.563,107.079 486.578,107.959 486.117,109.363 C485.677,110.662 486.284,111.668 487.625,111.899 C487.94,111.962 488.276,111.962 488.59,111.962 L494.145,111.962 C494.459,111.962 494.794,111.941 495.108,111.899 C497.371,111.648 498.483,109.51 498.735,107.729 C498.924,106.45 498.336,105.821 497.058,105.695 Z" />
        </g>
        <g id="Black-S">
            <path d="M693.892,91.442 C694.227,91.002 694.541,90.604 694.856,90.205 C695.086,89.912 695.38,89.765 695.778,89.765 C697.664,89.786 699.53,89.996 701.353,90.52 C701.961,90.687 702.548,90.939 703.051,91.337 C703.952,92.05 704.12,92.825 703.554,93.831 C703.072,94.67 702.359,95.257 701.521,95.718 C701.123,95.948 700.703,96.116 700.284,96.326 C700.096,96.409 699.991,96.514 700.2,96.682 C702.422,98.505 703.219,101 703.659,103.703 C704.036,106.009 704.141,108.335 704.036,110.662 C703.931,112.8 703.785,114.938 703.596,117.076 C703.428,118.815 703.323,120.555 703.24,122.295 C703.156,123.908 703.135,125.501 703.198,127.115 C703.24,128.436 702.108,129.777 700.578,129.714 C698.356,129.651 696.113,129.714 693.892,129.672 C692.844,129.651 691.775,129.693 690.727,129.693 C689.301,129.714 688.149,128.75 688.065,127.325 C688.002,126.382 687.792,126.486 687.122,126.403 C686.765,126.361 686.661,126.235 686.661,125.9 C686.682,123.133 686.661,120.345 686.661,117.579 C686.661,117.076 686.682,117.034 687.205,117.076 C688.715,117.159 690.203,117.117 691.712,117.117 C692.32,117.117 692.927,117.076 693.535,117.055 C693.996,117.034 694.416,116.887 694.751,116.552 C695.191,116.111 695.149,115.525 694.667,115.147 C694.248,114.833 693.766,114.728 693.263,114.728 C691.293,114.728 689.301,114.728 687.331,114.728 C686.682,114.728 686.682,114.728 686.682,114.078 C686.682,113.345 686.682,112.611 686.682,111.878 C686.682,111.731 686.661,111.542 686.933,111.605 C688.107,111.92 689.323,111.836 690.517,111.857 C691.796,111.857 693.074,111.857 694.353,111.794 C696.26,111.71 697.392,110.62 698.084,108.964 C698.314,108.419 698.419,107.853 698.419,107.266 C698.419,106.281 697.937,105.736 696.931,105.653 C696.26,105.59 695.61,105.674 694.961,105.757 C693.095,105.988 691.23,106.218 689.364,106.533 C688.505,106.68 687.709,106.973 687.038,107.539 C686.954,107.602 686.87,107.77 686.744,107.686 C686.64,107.623 686.682,107.476 686.682,107.35 C686.682,104.395 686.661,101.461 686.682,98.505 C686.682,97.898 686.535,97.395 686.22,96.912 C685.256,95.382 684.292,93.873 683.307,92.343 C683.265,92.259 683.16,92.197 683.244,92.113 C683.307,92.05 683.391,92.071 683.475,92.071 C685.34,92.197 687.205,92.259 689.071,92.49 C689.155,92.511 689.26,92.49 689.343,92.49 C689.595,92.49 689.658,92.385 689.553,92.176 C688.295,89.115 686.912,86.118 685.13,83.331 C684.502,82.366 683.579,81.989 682.49,81.822 C680.373,81.507 678.256,81.13 676.118,80.878 C674.525,80.69 672.932,80.543 671.318,80.438 C669.034,80.312 666.728,80.208 664.443,80.229 C661.865,80.25 659.287,80.396 656.709,80.606 C653.44,80.857 650.191,81.381 646.963,81.884 C645.957,82.052 645.161,82.555 644.637,83.435 C644.49,83.666 644.364,83.917 644.196,84.148 C642.499,86.496 641.409,89.136 640.298,91.777 C639.984,92.532 640.046,92.595 640.885,92.49 C642.436,92.28 643.987,92.155 645.538,92.113 C645.643,92.113 645.81,92.05 645.873,92.155 C645.957,92.28 645.789,92.385 645.727,92.49 C644.888,93.81 644.05,95.131 643.211,96.451 C642.75,97.185 642.52,97.981 642.541,98.841 C642.562,100.79 642.541,102.76 642.541,104.73 C642.541,105.716 642.52,105.736 641.534,105.736 C640.822,105.736 640.738,105.653 640.738,104.919 C640.738,103.158 640.696,101.398 640.738,99.637 C640.78,98.422 640.445,97.374 639.774,96.367 C638.998,95.194 638.265,93.978 637.51,92.804 C637.175,92.301 636.84,91.777 636.232,91.547 C635.98,91.442 636.043,91.274 636.127,91.086 C636.567,89.996 636.986,88.906 637.468,87.837 C638.433,85.615 639.606,83.498 640.864,81.423 C642.163,79.285 644.029,78.091 646.502,77.734 C648.703,77.399 650.883,76.98 653.104,76.749 C654.467,76.603 655.829,76.519 657.191,76.393 C659.12,76.225 661.048,76.1 662.997,76.037 C663.982,75.995 664.946,75.974 665.932,76.058 C666.057,76.058 666.162,76.079 666.288,76.079 C669.474,76.079 672.639,76.246 675.783,76.624 C678.465,76.938 681.127,77.378 683.789,77.818 C686.116,78.196 687.813,79.495 689.029,81.465 C690.517,83.876 691.796,86.391 692.906,89.011 C693.221,89.765 693.535,90.583 693.892,91.442 Z" />
            <path d="M631.579,121.666 C631.579,113.869 631.579,106.072 631.579,98.275 C631.579,97.898 631.663,97.562 631.873,97.248 C632.837,95.739 633.801,94.209 634.765,92.679 C634.828,92.574 634.891,92.49 634.975,92.385 C635.478,91.736 636.023,91.736 636.505,92.406 C636.819,92.846 637.113,93.328 637.406,93.79 C638.182,95.005 638.936,96.242 639.733,97.458 C640.005,97.877 640.131,98.296 640.131,98.799 C640.11,101.272 640.131,103.745 640.11,106.219 C640.11,106.596 640.215,106.701 640.592,106.68 C641.284,106.659 641.954,106.659 642.646,106.68 C643.044,106.701 643.17,106.596 643.17,106.177 C643.149,103.536 643.17,100.916 643.149,98.275 C643.149,97.877 643.254,97.541 643.463,97.206 C644.427,95.697 645.371,94.188 646.335,92.658 C646.419,92.511 646.523,92.364 646.628,92.239 C647.047,91.757 647.571,91.736 647.97,92.239 C648.284,92.637 648.536,93.098 648.829,93.517 C649.667,94.838 650.506,96.158 651.344,97.478 C651.596,97.856 651.701,98.254 651.701,98.694 C651.68,101.188 651.701,103.662 651.68,106.156 C651.701,139.503 651.68,142.185 651.68,144.868 C651.68,145.728 651.428,146 650.548,146 C648.389,146 646.23,146 644.05,146 C643.966,146 643.862,146 643.778,146 C643.296,145.958 643.149,145.811 643.149,145.329 C643.149,142.521 643.149,139.691 643.149,136.883 C643.149,136.484 643.065,136.338 642.646,136.359 C641.954,136.4 641.242,136.379 640.55,136.359 C640.194,136.338 640.11,136.463 640.11,136.82 C640.131,139.503 640.11,142.185 640.11,144.868 C640.11,145.728 639.858,146 638.978,146 C636.819,146 634.66,146 632.481,146 C632.397,146 632.313,146 632.25,146 C631.726,145.958 631.579,145.832 631.579,145.287 C631.579,138.056 631.579,130.825 631.579,123.594 C631.579,122.965 631.579,122.316 631.579,121.666 Z M632.9,121.645 C632.9,129.002 632.9,136.379 632.9,143.736 C632.9,144.344 632.942,144.407 633.507,144.407 C634.996,144.407 636.484,144.407 637.972,144.407 C638.496,144.407 638.622,144.281 638.622,143.757 C638.622,129.044 638.622,114.33 638.622,99.616 C638.622,99.134 638.517,98.652 638.265,98.233 C637.511,97.038 636.756,95.823 636.002,94.628 C635.792,94.293 635.708,94.293 635.478,94.649 C634.828,95.676 634.199,96.745 633.507,97.751 C633.067,98.401 632.9,99.071 632.9,99.826 C632.9,107.078 632.9,114.351 632.9,121.645 Z M650.17,121.666 C650.17,114.351 650.17,107.036 650.17,99.721 C650.17,99.176 650.087,98.652 649.793,98.17 C649.06,96.975 648.305,95.781 647.55,94.586 C647.32,94.23 647.236,94.23 647.005,94.586 C646.356,95.613 645.727,96.682 645.035,97.688 C644.595,98.338 644.448,99.008 644.448,99.763 C644.448,107.833 644.448,115.923 644.448,123.992 C644.448,130.574 644.448,137.134 644.448,143.715 C644.448,144.323 644.49,144.365 645.098,144.365 C646.523,144.365 647.949,144.365 649.374,144.365 C650.108,144.365 650.17,144.302 650.17,143.569 C650.17,136.296 650.17,128.981 650.17,121.666 Z M640.089,121.477 C640.089,124.181 640.089,126.864 640.089,129.568 C640.089,129.903 640.173,130.029 640.529,130.029 C641.263,130.008 641.996,130.008 642.751,130.029 C643.044,130.029 643.128,129.924 643.128,129.63 C643.128,124.223 643.128,118.815 643.128,113.408 C643.128,113.114 643.044,113.009 642.751,113.009 C642.017,113.03 641.305,113.03 640.571,113.009 C640.173,112.989 640.089,113.135 640.089,113.513 C640.11,116.174 640.089,118.836 640.089,121.477 Z M643.128,133.257 C643.128,132.837 643.128,132.418 643.128,131.999 C643.128,131.768 643.044,131.664 642.814,131.664 C642.017,131.664 641.2,131.664 640.403,131.664 C640.173,131.664 640.11,131.768 640.11,131.978 C640.11,132.816 640.11,133.634 640.11,134.472 C640.11,134.682 640.194,134.787 640.403,134.787 C641.2,134.787 642.017,134.787 642.814,134.787 C643.065,134.787 643.149,134.682 643.128,134.451 C643.128,134.032 643.128,133.634 643.128,133.257 Z M643.128,109.887 C643.128,109.467 643.128,109.048 643.128,108.629 C643.128,108.398 643.044,108.294 642.814,108.294 C642.017,108.294 641.221,108.294 640.445,108.294 C640.215,108.294 640.11,108.357 640.11,108.608 C640.11,109.446 640.11,110.264 640.11,111.102 C640.11,111.312 640.194,111.417 640.403,111.417 C641.2,111.417 642.017,111.417 642.814,111.417 C643.065,111.417 643.128,111.312 643.128,111.081 C643.128,110.662 643.128,110.285 643.128,109.887 Z" />
            <path d="M629.756,129.651 C629.505,129.651 629.253,129.672 629.001,129.651 C627.555,129.568 626.612,128.562 626.612,127.052 C626.591,125.522 626.612,123.971 626.591,122.441 C626.57,120.702 626.361,118.962 626.214,117.222 C626.13,116.153 626.046,115.105 625.962,114.037 C625.837,112.381 625.69,110.725 625.732,109.069 C625.795,106.638 625.858,104.206 626.507,101.838 C627.052,99.847 627.933,98.044 629.567,96.703 C629.882,96.43 629.609,96.367 629.421,96.284 C628.478,95.885 627.597,95.382 626.885,94.649 C626.465,94.209 626.172,93.706 625.962,93.14 C625.837,92.762 625.879,92.427 626.088,92.092 C626.507,91.421 627.136,91.002 627.87,90.729 C629.274,90.205 630.741,89.996 632.229,89.87 C632.753,89.828 633.277,89.807 633.801,89.765 C634.179,89.744 634.493,89.87 634.744,90.163 C634.975,90.478 635.227,90.792 635.478,91.107 C635.604,91.274 635.646,91.4 635.373,91.463 C634.849,91.589 634.493,91.924 634.22,92.364 C633.319,93.79 632.418,95.215 631.517,96.64 C631.076,97.332 630.972,98.107 630.972,98.904 C630.972,105.38 630.972,111.878 630.972,118.354 C630.972,121.896 630.972,125.438 630.972,128.96 C630.972,129.672 630.972,129.672 630.28,129.672 C630.112,129.651 629.924,129.651 629.756,129.651 Z" />
            <path d="M652.246,101.838 C652.246,100.937 652.225,100.015 652.246,99.113 C652.267,98.296 652.036,97.52 651.596,96.829 C650.611,95.278 649.689,93.706 648.641,92.197 C648.599,92.134 648.494,92.05 648.536,91.966 C648.578,91.861 648.704,91.903 648.787,91.903 C650.15,91.861 651.533,91.798 652.896,91.756 C654.321,91.715 655.767,91.693 657.213,91.672 C657.36,91.672 657.59,91.589 657.653,91.735 C657.737,91.903 657.507,91.987 657.423,92.092 C656.836,92.867 656.354,93.727 655.83,94.544 C655.432,95.152 655.075,95.781 654.677,96.388 C654.195,97.143 653.964,97.96 653.985,98.862 C654.006,100.811 653.985,102.76 653.985,104.688 C653.985,105.674 653.964,105.695 652.979,105.695 C652.372,105.695 652.267,105.611 652.267,105.003 C652.246,103.934 652.267,102.886 652.246,101.838 Z" />
            <path d="M640.697,121.645 C640.697,120.282 640.718,118.941 640.697,117.579 C640.697,117.18 640.822,117.034 641.221,117.076 C641.535,117.097 641.849,117.097 642.164,117.076 C642.415,117.055 642.52,117.18 642.52,117.432 C642.52,117.516 642.52,117.6 642.52,117.662 C642.52,120.324 642.52,122.965 642.52,125.627 C642.52,126.214 642.52,126.214 641.933,126.214 C640.697,126.214 640.697,126.214 640.697,124.998 C640.697,123.887 640.697,122.756 640.697,121.645 Z" />
            <path d="M665.24,76.036 C671.549,76.036 677.796,76.667 684,77.819 C686.242,78.238 687.898,79.433 689.092,81.319 C691.021,84.379 692.572,87.649 693.893,91.024 C693.935,91.149 693.976,91.254 694.039,91.38 C694.165,91.673 694.291,91.673 694.479,91.422 C694.773,91.045 695.067,90.667 695.36,90.269 C695.549,90.018 695.779,89.871 696.073,89.871 C698.273,89.976 700.474,90.122 702.549,90.982 C702.654,91.024 702.738,91.066 702.843,91.108 C704.268,91.862 704.54,92.931 703.597,94.231 C702.885,95.236 701.836,95.823 700.725,96.305 C700.181,96.535 700.18,96.536 700.599,96.913 C702.527,98.569 703.367,100.77 703.786,103.181 C704.352,106.345 704.351,109.531 704.162,112.738 C703.89,117.579 703.219,122.379 703.45,127.241 C703.492,128.205 703.094,128.981 702.319,129.526 C701.962,129.777 701.606,129.903 701.166,129.882 C699.426,129.882 697.687,129.904 695.926,129.904 L690.874,129.904 C689.428,129.904 688.423,128.981 688.318,127.556 C688.255,126.718 688.255,126.697 687.417,126.613 C686.264,126.508 685.09,126.424 683.937,126.382 C681.422,126.278 678.907,126.215 676.37,126.152 C669.559,125.964 662.747,126.005 655.935,126.068 C654.618,126.081 653.301,126.105 651.983,126.139 L651.983,97.793 L651.439,96.952 L651.439,91.88 C652.967,91.826 654.496,91.788 656.019,91.778 C661.867,91.736 667.714,91.674 673.562,91.82 C676.643,91.904 679.745,91.925 682.826,92.051 C685.048,92.155 687.248,92.302 689.449,92.511 C690.015,92.574 690.078,92.51 689.869,91.987 C688.863,89.367 687.584,86.873 686.264,84.4 C685.362,82.744 684.168,81.864 682.24,81.571 C676.58,80.712 670.879,80.146 664.528,80.146 C663.731,80.229 662.349,80.145 660.966,80.208 C659.645,80.271 658.325,80.355 657.004,80.46 C655.143,80.595 653.289,80.832 651.439,81.101 L651.439,77.003 C653.249,76.757 655.069,76.567 656.899,76.436 C659.686,76.226 662.453,76.036 665.24,76.036 Z M686.264,114.854 C685.886,114.854 685.509,114.917 685.195,115.126 C684.44,115.588 684.44,116.552 685.215,116.992 C685.55,117.18 685.907,117.286 686.284,117.286 C688.736,117.307 691.189,117.307 693.62,117.286 C694.123,117.286 694.606,117.16 695.004,116.804 C695.569,116.301 695.527,115.651 694.899,115.232 C694.543,114.981 694.123,114.875 693.683,114.854 L686.264,114.854 Z M697.058,105.695 C696.806,105.674 696.555,105.695 696.303,105.716 C695.507,105.8 694.709,105.883 693.913,105.988 C692.278,106.24 690.602,106.324 688.988,106.722 C687.563,107.079 686.578,107.959 686.117,109.363 C685.677,110.662 686.284,111.668 687.625,111.899 C687.94,111.962 688.276,111.962 688.59,111.962 L694.145,111.962 C694.459,111.962 694.794,111.941 695.108,111.899 C697.371,111.648 698.483,109.51 698.735,107.729 C698.923,106.45 698.336,105.821 697.058,105.695 Z" />
        </g>
    </g>
</svg>