<?xml version="1.0" encoding="UTF-8"?>
<svg height="600" width="800" xmlns="http://www.w3.org/2000/svg" xmlns:xlink="http://www.w3.org/1999/xlink">
    <g id="Notes" font-family="'LucidaGrande', 'Lucida Grande', sans-serif" font-size="13">
        <rect fill="white" height="600.0" width="800.0" x="0.0" y="0.0" />
        <g font-size="13">
            <text x="18.0" y="176.0">Small</text>
            <text x="18.0" y="376.0">Medium</text>
            <text x="18.0" y="576.0">Large</text>
        </g>
        <g font-size="9">
            <text x="250.0" y="30.0">Ultralight</text>
            <text x="450.0" y="30.0">Regular</text>
            <text x="650.0" y="30.0">Black</text>
            <text id="template-version" fill="#505050" text-anchor="end" x="785.0" y="575.0">Template v.3.0</text>
            <a href="https://github.com/swhitty/SwiftDraw">
                <text fill="#505050" text-anchor="end" x="785.0" y="590.0">https://github.com/swhitty/SwiftDraw</text>
            </a>
        </g>
    </g>
    <g id="Guides" stroke="rgb(39, 170, 225)" stroke-width="0.5">
        <path id="Capline-S" d="M18,76 l800,0" />
        <path id="H-reference" d="M85,145.755 L87.685,145.755 L113.369,79.287 L114.052,79.287 L114.052,76 L112.148,76 L85,145.755 Z M95.693,121.536 L130.996,121.536 L130.263,119.313 L96.474,119.313 L95.693,121.536 Z M139.15,145.755 L141.787,145.755 L114.638,76 L113.466,76 L113.466,79.287 L139.15,145.755 Z" stroke="none" />
        <path id="Baseline-S" d="M18,146 l800,0" />
        <path id="left-margin-Ultralight-S" d="M216.859,56 l0,110" />
        <path id="right-margin-Ultralight-S" d="M313.141,56 l0,110" />
        <path id="left-margin-Regular-S" d="M416.859,56 l0,110" />
        <path id="right-margin-Regular-S" d="M513.141,56 l0,110" />
        <path id="left-margin-Black-S" d="M616.859,56 l0,110" />
        <path id="right-margin-Black-S" d="M713.141,56 l0,110" />
        <path id="Capline-M" d="M18,276 l800,0" />
        <path id="Baseline-M" d="M18,346 l800,0" />
        <path id="Capline-L" d="M18,476 l800,0" />
        <path id="Baseline-L" d="M18,546 l800,0" />
    </g>
    <g id="Symbols">
        <g id="Ultralight-S">
            <path d="M229.31,85.461 C229.493,84.819 230.08,84.376 230.748,84.376 L299.252,84.376 C299.92,84.376 300.507,84.819 300.69,85.461 L303.083,93.837 C303.212,94.288 303.122,94.774 302.839,95.149 C302.557,95.523 302.115,95.744 301.645,95.744 L228.355,95.744 C227.885,95.744 227.443,95.523 227.161,95.149 C226.878,94.774 226.788,94.288 226.917,93.837 L229.31,85.461 Z M231.876,87.368 L230.338,92.752 L299.662,92.752 L298.124,87.368 L231.876,87.368 Z" />
            <path d="M229.31,93.837 C229.493,93.195 230.08,92.752 230.748,92.752 L299.252,92.752 C299.92,92.752 300.507,93.195 300.69,93.837 L303.083,102.213 C303.212,102.664 303.122,103.15 302.839,103.525 C302.557,103.899 302.115,104.12 301.645,104.12 L228.355,104.12 C227.885,104.12 227.443,103.899 227.161,103.525 C226.878,103.15 226.788,102.664 226.917,102.213 L229.31,93.837 Z M231.876,95.744 L230.338,101.128 L299.662,101.128 L298.124,95.744 L231.876,95.744 Z" />
            <path d="M229.31,102.213 C229.493,101.571 230.08,101.128 230.748,101.128 L299.252,101.128 C299.92,101.128 300.507,101.571 300.69,102.213 L303.083,110.589 C303.212,111.04 303.122,111.526 302.839,111.901 C302.557,112.275 302.115,112.496 301.645,112.496 L228.355,112.496 C227.885,112.496 227.443,112.275 227.161,111.901 C226.878,111.526 226.788,111.04 226.917,110.589 L229.31,102.213 Z M231.876,104.12 L230.338,109.504 L299.662,109.504 L298.124,104.12 L231.876,104.12 Z" />
            <path d="M229.31,110.589 C229.493,109.947 230.08,109.504 230.748,109.504 L299.252,109.504 C299.92,109.504 300.507,109.947 300.69,110.589 L303.083,118.965 C303.212,119.416 303.122,119.902 302.839,120.277 C302.557,120.651 302.115,120.872 301.645,120.872 L228.355,120.872 C227.885,120.872 227.443,120.651 227.161,120.277 C226.878,119.902 226.788,119.416 226.917,118.965 L229.31,110.589 Z M231.876,112.496 L230.338,117.88 L299.662,117.88 L298.124,112.496 L231.876,112.496 Z" />
            <path d="M229.31,118.965 C229.493,118.323 230.08,117.88 230.748,117.88 L299.252,117.88 C299.92,117.88 300.507,118.323 300.69,118.965 L303.083,127.341 C303.212,127.793 303.122,128.278 302.839,128.653 C302.557,129.028 302.115,129.248 301.645,129.248 L228.355,129.248 C227.885,129.248 227.443,129.028 227.161,128.653 C226.878,128.278 226.788,127.793 226.917,127.341 L229.31,118.965 Z M231.876,120.872 L230.338,126.256 L299.662,126.256 L298.124,120.872 L231.876,120.872 Z" />
            <path d="M229.31,127.341 C229.493,126.699 230.08,126.256 230.748,126.256 L299.252,126.256 C299.92,126.256 300.507,126.699 300.69,127.341 L303.083,135.717 C303.212,136.169 303.122,136.654 302.839,137.029 C302.557,137.404 302.115,137.624 301.645,137.624 L228.355,137.624 C227.885,137.624 227.443,137.404 227.161,137.029 C226.878,136.654 226.788,136.169 226.917,135.717 L229.31,127.341 Z M231.876,129.248 L230.338,134.632 L299.662,134.632 L298.124,129.248 L231.876,129.248 Z" />
            <path d="M229.31,135.717 C229.493,135.075 230.08,134.632 230.748,134.632 L299.252,134.632 C299.92,134.632 300.507,135.075 300.69,135.717 L303.083,144.093 C303.212,144.545 303.122,145.03 302.839,145.405 C302.557,145.78 302.115,146 301.645,146 L228.355,146 C227.885,146 227.443,145.78 227.161,145.405 C226.878,145.03 226.788,144.545 226.917,144.093 L229.31,135.717 Z M231.876,137.624 L230.338,143.009 L299.662,143.009 L298.124,137.624 L231.876,137.624 Z" />
            <path d="M236.88,84.451 C237.665,84.451 238.301,85.087 238.301,85.872 L238.301,89.349 C238.301,90.134 237.665,90.77 236.88,90.77 C236.096,90.77 235.459,90.134 235.459,89.349 L235.459,85.872 C235.459,85.087 236.096,84.451 236.88,84.451 Z" />
            <path d="M293.12,84.451 C293.904,84.451 294.541,85.087 294.541,85.872 L294.541,89.349 C294.541,90.134 293.904,90.77 293.12,90.77 C292.335,90.77 291.699,90.134 291.699,89.349 L291.699,85.872 C291.699,85.087 292.335,84.451 293.12,84.451 Z" />
            <path d="M236.88,92.714 C237.665,92.714 238.301,93.351 238.301,94.135 L238.301,97.725 C238.301,98.51 237.665,99.146 236.88,99.146 C236.096,99.146 235.459,98.51 235.459,97.725 L235.459,94.135 C235.459,93.351 236.096,92.714 236.88,92.714 Z" />
            <path d="M293.12,92.714 C293.904,92.714 294.541,93.351 294.541,94.135 L294.541,97.725 C294.541,98.51 293.904,99.146 293.12,99.146 C292.335,99.146 291.699,98.51 291.699,97.725 L291.699,94.135 C291.699,93.351 292.335,92.714 293.12,92.714 Z" />
            <path d="M236.88,101.091 C237.665,101.091 238.301,101.727 238.301,102.511 L238.301,106.101 C238.301,106.886 237.665,107.522 236.88,107.522 C236.096,107.522 235.459,106.886 235.459,106.101 L235.459,102.511 C235.459,101.727 236.096,101.091 236.88,101.091 Z" />
            <path d="M293.12,101.091 C293.904,101.091 294.541,101.727 294.541,102.511 L294.541,106.101 C294.541,106.886 293.904,107.522 293.12,107.522 C292.335,107.522 291.699,106.886 291.699,106.101 L291.699,102.511 C291.699,101.727 292.335,101.091 293.12,101.091 Z" />
            <path d="M236.88,109.467 C237.665,109.467 238.301,110.103 238.301,110.888 L238.301,114.477 C238.301,115.262 237.665,115.898 236.88,115.898 C236.096,115.898 235.459,115.262 235.459,114.477 L235.459,110.888 C235.459,110.103 236.096,109.467 236.88,109.467 Z" />
            <path d="M293.12,109.467 C293.904,109.467 294.541,110.103 294.541,110.888 L294.541,114.477 C294.541,115.262 293.904,115.898 293.12,115.898 C292.335,115.898 291.699,115.262 291.699,114.477 L291.699,110.888 C291.699,110.103 292.335,109.467 293.12,109.467 Z" />
            <path d="M236.88,117.843 C237.665,117.843 238.301,118.479 238.301,119.264 L238.301,122.853 C238.301,123.638 237.665,124.274 236.88,124.274 C236.096,124.274 235.459,123.638 235.459,122.853 L235.459,119.264 C235.459,118.479 236.096,117.843 236.88,117.843 Z" />
            <path d="M293.12,117.843 C293.904,117.843 294.541,118.479 294.541,119.264 L294.541,122.853 C294.541,123.638 293.904,124.274 293.12,124.274 C292.335,124.274 291.699,123.638 291.699,122.853 L291.699,119.264 C291.699,118.479 292.335,117.843 293.12,117.843 Z" />
            <path d="M236.88,126.219 C237.665,126.219 238.301,126.855 238.301,127.64 L238.301,131.229 C238.301,132.014 237.665,132.65 236.88,132.65 C236.096,132.65 235.459,132.014 235.459,131.229 L235.459,127.64 C235.459,126.855 236.096,126.219 236.88,126.219 Z" />
            <path d="M293.12,126.219 C293.904,126.219 294.541,126.855 294.541,127.64 L294.541,131.229 C294.541,132.014 293.904,132.65 293.12,132.65 C292.335,132.65 291.699,132.014 291.699,131.229 L291.699,127.64 C291.699,126.855 292.335,126.219 293.12,126.219 Z" />
            <path d="M236.88,134.595 C237.665,134.595 238.301,135.231 238.301,136.016 L238.301,139.605 C238.301,140.39 237.665,141.026 236.88,141.026 C236.096,141.026 235.459,140.39 235.459,139.605 L235.459,136.016 C235.459,135.231 236.096,134.595 236.88,134.595 Z" />
            <path d="M293.12,134.595 C293.904,134.595 294.541,135.231 294.541,136.016 L294.541,139.605 C294.541,140.39 293.904,141.026 293.12,141.026 C292.335,141.026 291.699,140.39 291.699,139.605 L291.699,136.016 C291.699,135.231 292.335,134.595 293.12,134.595 Z" />
            <path d="M226.859,77.496 C226.859,76.67 227.529,76 228.355,76 L301.645,76 C302.471,76 303.141,76.67 303.141,77.496 L303.141,85.872 C303.141,86.698 302.471,87.368 301.645,87.368 L228.355,87.368 C227.529,87.368 226.859,86.698 226.859,85.872 L226.859,77.496 Z M229.85,78.991 L229.85,84.376 L300.15,84.376 L300.15,78.991 L229.85,78.991 Z" />
        </g>
        <g id="Regular-S">
            <path d="M429.31,85.461 C429.493,84.819 430.08,84.376 430.748,84.376 L499.252,84.376 C499.92,84.376 500.507,84.819 500.69,85.461 L503.083,93.837 C503.212,94.288 503.122,94.774 502.84,95.149 C502.557,95.523 502.115,95.744 501.645,95.744 L428.355,95.744 C427.885,95.744 427.443,95.523 427.161,95.149 C426.878,94.774 426.788,94.288 426.917,93.837 L429.31,85.461 Z M431.876,87.368 L430.338,92.752 L499.662,92.752 L498.124,87.368 L431.876,87.368 Z" />
            <path d="M429.31,93.837 C429.493,93.195 430.08,92.752 430.748,92.752 L499.252,92.752 C499.92,92.752 500.507,93.195 500.69,93.837 L503.083,102.213 C503.212,102.664 503.122,103.15 502.84,103.525 C502.557,103.899 502.115,104.12 501.645,104.12 L428.355,104.12 C427.885,104.12 427.443,103.899 427.161,103.525 C426.878,103.15 426.788,102.664 426.917,102.213 L429.31,93.837 Z M431.876,95.744 L430.338,101.128 L499.662,101.128 L498.124,95.744 L431.876,95.744 Z" />
            <path d="M429.31,102.213 C429.493,101.571 430.08,101.128 430.748,101.128 L499.252,101.128 C499.92,101.128 500.507,101.571 500.69,102.213 L503.083,110.589 C503.212,111.04 503.122,111.526 502.84,111.901 C502.557,112.275 502.115,112.496 501.645,112.496 L428.355,112.496 C427.885,112.496 427.443,112.275 427.161,111.901 C426.878,111.526 426.788,111.04 426.917,110.589 L429.31,102.213 Z M431.876,104.12 L430.338,109.504 L499.662,109.504 L498.124,104.12 L431.876,104.12 Z" />
            <path d="M429.31,110.589 C429.493,109.947 430.08,109.504 430.748,109.504 L499.252,109.504 C499.92,109.504 500.507,109.947 500.69,110.589 L503.083,118.965 C503.212,119.416 503.122,119.902 502.84,120.277 C502.557,120.651 502.115,120.872 501.645,120.872 L428.355,120.872 C427.885,120.872 427.443,120.651 427.161,120.277 C426.878,119.902 426.788,119.416 426.917,118.965 L429.31,110.589 Z M431.876,112.496 L430.338,117.88 L499.662,117.88 L498.124,112.496 L431.876,112.496 Z" />
            <path d="M429.31,118.965 C429.493,118.323 430.08,117.88 430.748,117.88 L499.252,117.88 C499.92,117.88 500.507,118.323 500.69,118.965 L503.083,127.341 C503.212,127.793 503.122,128.278 502.84,128.653 C502.557,129.028 502.115,129.248 501.645,129.248 L428.355,129.248 C427.885,129.248 427.443,129.028 427.161,128.653 C426.878,128.278 426.788,127.793 426.917,127.341 L429.31,118.965 Z M431.876,120.872 L430.338,126.256 L499.662,126.256 L498.124,120.872 L431.876,120.872 Z" />
            <path d="M429.31,127.341 C429.493,126.699 430.08,126.256 430.748,126.256 L499.252,126.256 C499.92,126.256 500.507,126.699 500.69,127.341 L503.083,135.717 C503.212,136.169 503.122,136.654 502.84,137.029 C502.557,137.404 502.115,137.624 501.645,137.624 L428.355,137.624 C427.885,137.624 427.443,137.404 427.161,137.029 C426.878,136.654 426.788,136.169 426.917,135.717 L429.31,127.341 Z M431.876,129.248 L430.338,134.632 L499.662,134.632 L498.124,129.248 L431.876,129.248 Z" />
            <path d="M429.31,135.717 C429.493,135.075 430.08,134.632 430.748,134.632 L499.252,134.632 C499.92,134.632 500.507,135.075 500.69,135.717 L503.083,144.093 C503.212,144.545 503.122,145.03 502.84,145.405 C502.557,145.78 502.115,146 501.645,146 L428.355,146 C427.885,146 427.443,145.78 427.161,145.405 C426.878,145.03 426.788,144.545 426.917,144.093 L429.31,135.717 Z M431.876,137.624 L430.338,143.009 L499.662,143.009 L498.124,137.624 L431.876,137.624 Z" />
            <path d="M436.88,84.451 C437.665,84.451 438.301,85.087 438.301,85.872 L438.301,89.349 C438.301,90.134 437.665,90.77 436.88,90.77 C436.096,90.77 435.459,90.134 435.459,89.349 L435.459,85.872 C435.459,85.087 436.096,84.451 436.88,84.451 Z" />
            <path d="M493.12,84.451 C493.904,84.451 494.541,85.087 494.541,85.872 L494.541,89.349 C494.541,90.134 493.904,90.77 493.12,90.77 C492.335,90.77 491.699,90.134 491.699,89.349 L491.699,85.872 C491.699,85.087 492.335,84.451 493.12,84.451 Z" />
            <path d="M436.88,92.714 C437.665,92.714 438.301,93.351 438.301,94.135 L438.301,97.725 C438.301,98.51 437.665,99.146 436.88,99.146 C436.096,99.146 435.459,98.51 435.459,97.725 L435.459,94.135 C435.459,93.351 436.096,92.714 436.88,92.714 Z" />
            <path d="M493.12,92.714 C493.904,92.714 494.541,93.351 494.541,94.135 L494.541,97.725 C494.541,98.51 493.904,99.146 493.12,99.146 C492.335,99.146 491.699,98.51 491.699,97.725 L491.699,94.135 C491.699,93.351 492.335,92.714 493.12,92.714 Z" />
            <path d="M436.88,101.091 C437.665,101.091 438.301,101.727 438.301,102.511 L438.301,106.101 C438.301,106.886 437.665,107.522 436.88,107.522 C436.096,107.522 435.459,106.886 435.459,106.101 L435.459,102.511 C435.459,101.727 436.096,101.091 436.88,101.091 Z" />
            <path d="M493.12,101.091 C493.904,101.091 494.541,101.727 494.541,102.511 L494.541,106.101 C494.541,106.886 493.904,107.522 493.12,107.522 C492.335,107.522 491.699,106.886 491.699,106.101 L491.699,102.511 C491.699,101.727 492.335,101.091 493.12,101.091 Z" />
            <path d="M436.88,109.467 C437.665,109.467 438.301,110.103 438.301,110.888 L438.301,114.477 C438.301,115.262 437.665,115.898 436.88,115.898 C436.096,115.898 435.459,115.262 435.459,114.477 L435.459,110.888 C435.459,110.103 436.096,109.467 436.88,109.467 Z" />
            <path d="M493.12,109.467 C493.904,109.467 494.541,110.103 494.541,110.888 L494.541,114.477 C494.541,115.262 493.904,115.898 493.12,115.898 C492.335,115.898 491.699,115.262 491.699,114.477 L491.699,110.888 C491.699,110.103 492.335,109.467 493.12,109.467 Z" />
            <path d="M436.88,117.843 C437.665,117.843 438.301,118.479 438.301,119.264 L438.301,122.853 C438.301,123.638 437.665,124.274 436.88,124.274 C436.096,124.274 435.459,123.638 435.459,122.853 L435.459,119.264 C435.459,118.479 436.096,117.843 436.88,117.843 Z" />
            <path d="M493.12,117.843 C493.904,117.843 494.541,118.479 494.541,119.264 L494.541,122.853 C494.541,123.638 493.904,124.274 493.12,124.274 C492.335,124.274 491.699,123.638 491.699,122.853 L491.699,119.264 C491.699,118.479 492.335,117.843 493.12,117.843 Z" />
            <path d="M436.88,126.219 C437.665,126.219 438.301,126.855 438.301,127.64 L438.301,131.229 C438.301,132.014 437.665,132.65 436.88,132.65 C436.096,132.65 435.459,132.014 435.459,131.229 L435.459,127.64 C435.459,126.855 436.096,126.219 436.88,126.219 Z" />
            <path d="M493.12,126.219 C493.904,126.219 494.541,126.855 494.541,127.64 L494.541,131.229 C494.541,132.014 493.904,132.65 493.12,132.65 C492.335,132.65 491.699,132.014 491.699,131.229 L491.699,127.64 C491.699,126.855 492.335,126.219 493.12,126.219 Z" />
            <path d="M436.88,134.595 C437.665,134.595 438.301,135.231 438.301,136.016 L438.301,139.605 C438.301,140.39 437.665,141.026 436.88,141.026 C436.096,141.026 435.459,140.39 435.459,139.605 L435.459,136.016 C435.459,135.231 436.096,134.595 436.88,134.595 Z" />
            <path d="M493.12,134.595 C493.904,134.595 494.541,135.231 494.541,136.016 L494.541,139.605 C494.541,140.39 493.904,141.026 493.12,141.026 C492.335,141.026 491.699,140.39 491.699,139.605 L491.699,136.016 C491.699,135.231 492.335,134.595 493.12,134.595 Z" />
            <path d="M426.859,77.496 C426.859,76.67 427.529,76 428.355,76 L501.645,76 C502.471,76 503.141,76.67 503.141,77.496 L503.141,85.872 C503.141,86.698 502.471,87.368 501.645,87.368 L428.355,87.368 C427.529,87.368 426.859,86.698 426.859,85.872 L426.859,77.496 Z M429.85,78.991 L429.85,84.376 L500.15,84.376 L500.15,78.991 L429.85,78.991 Z" />
        </g>
        <g id="Black-S">
            <path d="M629.31,85.461 C629.493,84.819 630.08,84.376 630.748,84.376 L699.252,84.376 C699.92,84.376 700.507,84.819 700.69,85.461 L703.083,93.837 C703.212,94.288 703.122,94.774 702.839,95.149 C702.557,95.523 702.115,95.744 701.645,95.744 L628.355,95.744 C627.885,95.744 627.443,95.523 627.161,95.149 C626.878,94.774 626.788,94.288 626.917,93.837 L629.31,85.461 Z M631.876,87.368 L630.338,92.752 L699.662,92.752 L698.124,87.368 L631.876,87.368 Z" />
            <path d="M629.31,93.837 C629.493,93.195 630.08,92.752 630.748,92.752 L699.252,92.752 C699.92,92.752 700.507,93.195 700.69,93.837 L703.083,102.213 C703.212,102.664 703.122,103.15 702.839,103.525 C702.557,103.899 702.115,104.12 701.645,104.12 L628.355,104.12 C627.885,104.12 627.443,103.899 627.161,103.525 C626.878,103.15 626.788,102.664 626.917,102.213 L629.31,93.837 Z M631.876,95.744 L630.338,101.128 L699.662,101.128 L698.124,95.744 L631.876,95.744 Z" />
            <path d="M629.31,102.213 C629.493,101.571 630.08,101.128 630.748,101.128 L699.252,101.128 C699.92,101.128 700.507,101.571 700.69,102.213 L703.083,110.589 C703.212,111.04 703.122,111.526 702.839,111.901 C702.557,112.275 702.115,112.496 701.645,112.496 L628.355,112.496 C627.885,112.496 627.443,112.275 627.161,111.901 C626.878,111.526 626.788,111.04 626.917,110.589 L629.31,102.213 Z M631.876,104.12 L630.338,109.504 L699.662,109.504 L698.124,104.12 L631.876,104.12 Z" />
            <path d="M629.31,110.589 C629.493,109.947 630.08,109.504 630.748,109.504 L699.252,109.504 C699.92,109.504 700.507,109.947 700.69,110.589 L703.083,118.965 C703.212,119.416 703.122,119.902 702.839,120.277 C702.557,120.651 702.115,120.872 701.645,120.872 L628.355,120.872 C627.885,120.872 627.443,120.651 627.161,120.277 C626.878,119.902 626.788,119.416 626.917,118.965 L629.31,110.589 Z M631.876,112.496 L630.338,117.88 L699.662,117.88 L698.124,112.496 L631.876,112.496 Z" />
            <path d="M629.31,118.965 C629.493,118.323 630.08,117.88 630.748,117.88 L699.252,117.88 C699.92,117.88 700.507,118.323 700.69,118.965 L703.083,127.341 C703.212,127.793 703.122,128.278 702.839,128.653 C702.557,129.028 702.115,129.248 701.645,129.248 L628.355,129.248 C627.885,129.248 627.443,129.028 627.161,128.653 C626.878,128.278 626.788,127.793 626.917,127.341 L629.31,118.965 Z M631.876,120.872 L630.338,126.256 L699.662,126.256 L698.124,120.872 L631.876,120.872 Z" />
            <path d="M629.31,127.341 C629.493,126.699 630.08,126.256 630.748,126.256 L699.252,126.256 C699.92,126.256 700.507,126.699 700.69,127.341 L703.083,135.717 C703.212,136.169 703.122,136.654 702.839,137.029 C702.557,137.404 702.115,137.624 701.645,137.624 L628.355,137.624 C627.885,137.624 627.443,137.404 627.161,137.029 C626.878,136.654 626.788,136.169 626.917,135.717 L629.31,127.341 Z M631.876,129.248 L630.338,134.632 L699.662,134.632 L698.124,129.248 L631.876,129.248 Z" />
            <path d="M629.31,135.717 C629.493,135.075 630.08,134.632 630.748,134.632 L699.252,134.632 C699.92,134.632 700.507,135.075 700.69,135.717 L703.083,144.093 C703.212,144.545 703.122,145.03 702.839,145.405 C702.557,145.78 702.115,146 701.645,146 L628.355,146 C627.885,146 627.443,145.78 627.161,145.405 C626.878,145.03 626.788,144.545 626.917,144.093 L629.31,135.717 Z M631.876,137.624 L630.338,143.009 L699.662,143.009 L698.124,137.624 L631.876,137.624 Z" />
            <path d="M636.88,84.451 C637.665,84.451 638.301,85.087 638.301,85.872 L638.301,89.349 C638.301,90.134 637.665,90.77 636.88,90.77 C636.096,90.77 635.459,90.134 635.459,89.349 L635.459,85.872 C635.459,85.087 636.096,84.451 636.88,84.451 Z" />
            <path d="M693.12,84.451 C693.904,84.451 694.541,85.087 694.541,85.872 L694.541,89.349 C694.541,90.134 693.904,90.77 693.12,90.77 C692.335,90.77 691.699,90.134 691.699,89.349 L691.699,85.872 C691.699,85.087 692.335,84.451 693.12,84.451 Z" />
            <path d="M636.88,92.714 C637.665,92.714 638.301,93.351 638.301,94.135 L638.301,97.725 C638.301,98.51 637.665,99.146 636.88,99.146 C636.096,99.146 635.459,98.51 635.459,97.725 L635.459,94.135 C635.459,93.351 636.096,92.714 636.88,92.714 Z" />
            <path d="M693.12,92.714 C693.904,92.714 694.541,93.351 694.541,94.135 L694.541,97.725 C694.541,98.51 693.904,99.146 693.12,99.146 C692.335,99.146 691.699,98.51 691.699,97.725 L691.699,94.135 C691.699,93.351 692.335,92.714 693.12,92.714 Z" />
            <path d="M636.88,101.091 C637.665,101.091 638.301,101.727 638.301,102.511 L638.301,106.101 C638.301,106.886 637.665,107.522 636.88,107.522 C636.096,107.522 635.459,106.886 635.459,106.101 L635.459,102.511 C635.459,101.727 636.096,101.091 636.88,101.091 Z" />
            <path d="M693.12,101.091 C693.904,101.091 694.541,101.727 694.541,102.511 L694.541,106.101 C694.541,106.886 693.904,107.522 693.12,107.522 C692.335,107.522 691.699,106.886 691.699,106.101 L691.699,102.511 C691.699,101.727 692.335,101.091 693.12,101.091 Z" />
            <path d="M636.88,109.467 C637.665,109.467 638.301,110.103 638.301,110.888 L638.301,114.477 C638.301,115.262 637.665,115.898 636.88,115.898 C636.096,115.898 635.459,115.262 635.459,114.477 L635.459,110.888 C635.459,110.103 636.096,109.467 636.88,109.467 Z" />
            <path d="M693.12,109.467 C693.904,109.467 694.541,110.103 694.541,110.888 L694.541,114.477 C694.541,115.262 693.904,115.898 693.12,115.898 C692.335,115.898 691.699,115.262 691.699,114.477 L691.699,110.888 C691.699,110.103 692.335,109.467 693.12,109.467 Z" />
            <path d="M636.88,117.843 C637.665,117.843 638.301,118.479 638.301,119.264 L638.301,122.853 C638.301,123.638 637.665,124.274 636.88,124.274 C636.096,124.274 635.459,123.638 635.459,122.853 L635.459,119.264 C635.459,118.479 636.096,117.843 636.88,117.843 Z" />
            <path d="M693.12,117.843 C693.904,117.843 694.541,118.479 694.541,119.264 L694.541,122.853 C694.541,123.638 693.904,124.274 693.12,124.274 C692.335,124.274 691.699,123.638 691.699,122.853 L691.699,119.264 C691.699,118.479 692.335,117.843 693.12,117.843 Z" />
            <path d="M636.88,126.219 C637.665,126.219 638.301,126.855 638.301,127.64 L638.301,131.229 C638.301,132.014 637.665,132.65 636.88,132.65 C636.096,132.65 635.459,132.014 635.459,131.229 L635.459,127.64 C635.459,126.855 636.096,126.219 636.88,126.219 Z" />
            <path d="M693.12,126.219 C693.904,126.219 694.541,126.855 694.541,127.64 L694.541,131.229 C694.541,132.014 693.904,132.65 693.12,132.65 C692.335,132.65 691.699,132.014 691.699,131.229 L691.699,127.64 C691.699,126.855 692.335,126.219 693.12,126.219 Z" />
            <path d="M636.88,134.595 C637.665,134.595 638.301,135.231 638.301,136.016 L638.301,139.605 C638.301,140.39 637.665,141.026 636.88,141.026 C636.096,141.026 635.459,140.39 635.459,139.605 L635.459,136.016 C635.459,135.231 636.096,134.595 636.88,134.595 Z" />
            <path d="M693.12,134.595 C693.904,134.595 694.541,135.231 694.541,136.016 L694.541,139.605 C694.541,140.39 693.904,141.026 693.12,141.026 C692.335,141.026 691.699,140.39 691.699,139.605 L691.699,136.016 C691.699,135.231 692.335,134.595 693.12,134.595 Z" />
            <path d="M626.859,77.496 C626.859,76.67 627.529,76 628.355,76 L701.645,76 C702.471,76 703.141,76.67 703.141,77.496 L703.141,85.872 C703.141,86.698 702.471,87.368 701.645,87.368 L628.355,87.368 C627.529,87.368 626.859,86.698 626.859,85.872 L626.859,77.496 Z M629.85,78.991 L629.85,84.376 L700.15,84.376 L700.15,78.991 L629.85,78.991 Z" />
        </g>
    </g>
</svg>