<svg width="48" height="48" viewBox="0 0 48 48" fill="none" xmlns="http://www.w3.org/2000/svg">
<path d="M32.0853 29.919C32.077 29.6095 31.8257 29.3604 31.5126 29.3505H29.6427L30.6981 28.3086C30.9283 28.0815 30.9283 27.7112 30.6981 27.4841C30.4679 27.2569 30.0926 27.2569 29.8624 27.4841L27.9713 29.3499H26.6851L26.6199 29.1477C26.503 28.7844 26.3028 28.4436 26.0414 28.1632L25.8958 28.0062L26.54 26.9069L29.1241 26.2232C29.2768 26.1832 29.4043 26.0864 29.4836 25.952C29.5628 25.817 29.584 25.6599 29.5429 25.5098C29.4742 25.2549 29.2392 25.0776 28.972 25.0776C28.9203 25.0776 28.8687 25.0845 28.8181 25.0973L27.3763 25.4786L28.3148 23.8746C28.3935 23.7396 28.4147 23.5826 28.3736 23.4319C28.3325 23.2812 28.235 23.1555 28.0981 23.0779C27.8162 22.9173 27.4539 23.013 27.2906 23.2917L26.3527 24.895L25.9663 23.4719C25.897 23.2175 25.6626 23.0396 25.3954 23.0396C25.2374 23.0396 25.0888 23.1005 24.9773 23.2106C24.8657 23.3206 24.804 23.4678 24.804 23.6237C24.804 23.6747 24.8111 23.7257 24.8246 23.7755L25.5176 26.3257L24.8739 27.425L24.6636 27.3786C24.2866 27.2957 23.8878 27.2957 23.5102 27.3786L23.3 27.425L22.6563 26.3257L23.3493 23.7761C23.3904 23.6254 23.3698 23.4678 23.2906 23.3328C23.213 23.1995 23.0879 23.1039 22.9388 23.0622L22.9305 23.0599C22.8812 23.0466 22.8301 23.0402 22.779 23.0402H22.7784C22.5118 23.0402 22.2769 23.2181 22.2076 23.4725L21.8194 24.8939L20.8821 23.2911C20.7769 23.1138 20.5802 23.0025 20.37 23.0025C20.2131 23.0025 20.0646 23.0639 19.9536 23.1746C19.842 23.2853 19.7815 23.4313 19.7815 23.5872C19.7815 23.6886 19.8091 23.7889 19.8608 23.8769L20.7981 25.4786L19.3557 25.0967C19.3064 25.0839 19.2541 25.077 19.2018 25.077C18.8759 25.077 18.611 25.3383 18.611 25.6599C18.611 25.9236 18.7913 26.1554 19.0491 26.2232L21.6332 26.9063L22.2775 28.0056L22.1318 28.1626C21.8705 28.4436 21.6708 28.7844 21.5539 29.1477L21.4887 29.3499H20.202L18.3109 27.4841C18.0807 27.2569 17.7054 27.2569 17.4752 27.4841C17.3636 27.5942 17.3019 27.7408 17.3019 27.8961C17.3019 28.0514 17.3636 28.198 17.4752 28.3081L18.5306 29.3499H16.6577C16.5009 29.3546 16.3552 29.4189 16.2477 29.5313C16.1391 29.6443 16.0815 29.792 16.0857 29.9479C16.0939 30.2574 16.3447 30.5065 16.6583 30.5164H18.5311L17.4758 31.5582C17.3648 31.6683 17.3031 31.8149 17.3037 31.9708C17.3037 32.1267 17.366 32.2733 17.4775 32.3834C17.5891 32.4929 17.7371 32.5538 17.8939 32.5538H17.8951C18.0501 32.5538 18.2017 32.4917 18.3109 32.3834L20.2026 30.517H21.4887L21.5539 30.7192C21.6708 31.0825 21.8711 31.4232 22.1324 31.7037L22.2781 31.8607L21.6338 32.96L19.0497 33.6437C18.897 33.6837 18.7696 33.7805 18.6903 33.9149C18.611 34.0499 18.5899 34.2069 18.631 34.357C18.6997 34.6114 18.9346 34.7893 19.2012 34.7893H19.2018C19.2535 34.7893 19.304 34.7824 19.3533 34.7696L20.7963 34.3889L19.8584 35.9923C19.7797 36.1273 19.7592 36.2843 19.8003 36.435C19.8414 36.5856 19.9395 36.7114 20.0769 36.789C20.1656 36.8394 20.2666 36.8661 20.3694 36.8667C20.5784 36.8667 20.7752 36.7543 20.8809 36.574L21.8188 34.9713L22.2058 36.3944C22.2469 36.5451 22.3444 36.6708 22.4813 36.7485C22.6181 36.8261 22.7773 36.847 22.93 36.8064C23.0827 36.7658 23.2101 36.6697 23.2888 36.5346C23.3675 36.3996 23.3886 36.2426 23.3475 36.0919L22.6545 33.5423L23.2982 32.4431L23.5084 32.4894C23.8855 32.5723 24.2843 32.5723 24.6619 32.4894L24.8721 32.4431L25.5158 33.5423L24.8228 36.0919C24.7388 36.4025 24.9262 36.723 25.241 36.8058C25.5557 36.8893 25.8805 36.7038 25.9645 36.3932L26.3515 34.9701L27.2894 36.5735C27.3951 36.7531 27.5919 36.8649 27.8027 36.8655C27.9589 36.8649 28.1075 36.8035 28.2185 36.6922C28.3295 36.581 28.3906 36.4344 28.39 36.2785C28.39 36.1777 28.3624 36.0774 28.3113 35.9899L27.3734 34.3866L28.8158 34.7684C29.1312 34.8519 29.4554 34.6665 29.5399 34.3559C29.6245 34.0453 29.4366 33.7248 29.1218 33.6414L26.5377 32.9576L25.8934 31.8584L26.0391 31.7014C26.3004 31.4203 26.5001 31.0802 26.6176 30.7163L26.6828 30.5146H27.9689L29.8606 32.3805C29.9722 32.4906 30.1208 32.5514 30.2787 32.5514C30.4367 32.5514 30.5847 32.4906 30.6963 32.3805C30.8079 32.2704 30.8696 32.1238 30.8696 31.9685C30.8696 31.8132 30.8079 31.6666 30.6963 31.5565L29.6392 30.5146H31.5126C31.8368 30.5048 32.0935 30.2371 32.0853 29.9166V29.919ZM25.5604 29.9392C25.5593 30.74 24.8986 31.3919 24.0875 31.3931H24.0869C23.6929 31.3931 23.3234 31.2419 23.0445 30.9678C22.7661 30.6931 22.6122 30.328 22.6122 29.9392C22.6122 29.1373 23.2729 28.4848 24.0857 28.4842H24.0863C24.8991 28.4842 25.5599 29.1361 25.5604 29.9381V29.9392Z" fill="#FCFCFC"/>
<path d="M3.79603 41.2553C2.01321 37.9632 1 34.1871 1 30.1727C1 22.2354 4.96094 15.2301 11 11.0539M44.204 41.2553C45.9868 37.9632 47 34.1871 47 30.1727C47 17.3748 36.7025 7 24 7C22.3628 7 20.7656 7.17234 19.2252 7.5" stroke="#FCFCFC" stroke-width="1.5" stroke-linecap="round"/>
<circle cx="15" cy="9" r="3" fill="#007AFF"/>
<path d="M24 7V11" stroke="#FCFCFC" stroke-width="1.5" stroke-linecap="round" stroke-linejoin="round"/>
<path d="M47 31L43 31" stroke="#FCFCFC" stroke-width="1.5" stroke-linecap="round" stroke-linejoin="round"/>
<path d="M5 31L1 31" stroke="#FCFCFC" stroke-width="1.5" stroke-linecap="round" stroke-linejoin="round"/>
<path d="M41 15L38.1716 17.8284" stroke="#FCFCFC" stroke-width="1.5" stroke-linecap="round" stroke-linejoin="round"/>
<path d="M7 15L9.82843 17.8284" stroke="#FCFCFC" stroke-width="1.5" stroke-linecap="round" stroke-linejoin="round"/>
</svg>
