<svg width="512" height="512" viewBox="0 0 512 512" fill="none" xmlns="http://www.w3.org/2000/svg">
<path d="M64 60C64 57.7909 65.7909 56 68 56H124C126.209 56 128 57.7909 128 60V493.879C128 496.482 125.554 498.391 123.03 497.76L67.0299 483.76C65.2492 483.315 64 481.715 64 479.879V60Z" stroke="#FCFCFC" stroke-width="20"/>
<path d="M128 60C128 57.7909 129.791 56 132 56H188C190.209 56 192 57.7909 192 60V493.879C192 496.482 189.554 498.391 187.03 497.76L131.03 483.76C129.249 483.315 128 481.715 128 479.879V60Z" stroke="#FCFCFC" stroke-width="20"/>
<path d="M192 60C192 57.7909 193.791 56 196 56H252C254.209 56 256 57.7909 256 60V493.879C256 496.482 253.554 498.391 251.03 497.76L195.03 483.76C193.249 483.315 192 481.715 192 479.879V60Z" stroke="#FCFCFC" stroke-width="20"/>
<path d="M256 60C256 57.7909 257.791 56 260 56H316C318.209 56 320 57.7909 320 60V493.879C320 496.482 317.554 498.391 315.03 497.76L259.03 483.76C257.249 483.315 256 481.715 256 479.879V60Z" stroke="#FCFCFC" stroke-width="20"/>
<path d="M320 60C320 57.7909 321.791 56 324 56H380C382.209 56 384 57.7909 384 60V493.879C384 496.482 381.554 498.391 379.03 497.76L323.03 483.76C321.249 483.315 320 481.715 320 479.879V60Z" stroke="#FCFCFC" stroke-width="20"/>
<path d="M384 60C384 57.7909 385.791 56 388 56H444C446.209 56 448 57.7909 448 60V493.879C448 496.482 445.554 498.391 443.03 497.76L387.03 483.76C385.249 483.315 384 481.715 384 479.879V60Z" stroke="#FCFCFC" stroke-width="20"/>
<rect x="16" y="16" width="480" height="40" stroke="#00D151" stroke-width="20" stroke-linejoin="round"/>
</svg>
