<?xml version="1.0" encoding="UTF-8"?>
<svg height="600" width="800" xmlns="http://www.w3.org/2000/svg" xmlns:xlink="http://www.w3.org/1999/xlink">
    <g id="Notes" font-family="'LucidaGrande', 'Lucida Grande', sans-serif" font-size="13">
        <rect fill="white" height="600.0" width="800.0" x="0.0" y="0.0" />
        <g font-size="13">
            <text x="18.0" y="176.0">Small</text>
            <text x="18.0" y="376.0">Medium</text>
            <text x="18.0" y="576.0">Large</text>
        </g>
        <g font-size="9">
            <text x="250.0" y="30.0">Ultralight</text>
            <text x="450.0" y="30.0">Regular</text>
            <text x="650.0" y="30.0">Black</text>
            <text id="template-version" fill="#505050" text-anchor="end" x="785.0" y="575.0">Template v.3.0</text>
            <a href="https://github.com/swhitty/SwiftDraw">
                <text fill="#505050" text-anchor="end" x="785.0" y="590.0">https://github.com/swhitty/SwiftDraw</text>
            </a>
        </g>
    </g>
    <g id="Guides" stroke="rgb(39, 170, 225)" stroke-width="0.5">
        <path id="Capline-S" d="M18,76 l800,0" />
        <path id="H-reference" d="M85,145.755 L87.685,145.755 L113.369,79.287 L114.052,79.287 L114.052,76 L112.148,76 L85,145.755 Z M95.693,121.536 L130.996,121.536 L130.263,119.313 L96.474,119.313 L95.693,121.536 Z M139.15,145.755 L141.787,145.755 L114.638,76 L113.466,76 L113.466,79.287 L139.15,145.755 Z" stroke="none" />
        <path id="Baseline-S" d="M18,146 l800,0" />
        <path id="left-margin-Ultralight-S" d="M215.432,56 l0,110" />
        <path id="right-margin-Ultralight-S" d="M314.568,56 l0,110" />
        <path id="left-margin-Regular-S" d="M415.432,56 l0,110" />
        <path id="right-margin-Regular-S" d="M514.568,56 l0,110" />
        <path id="left-margin-Black-S" d="M615.432,56 l0,110" />
        <path id="right-margin-Black-S" d="M714.568,56 l0,110" />
        <path id="Capline-M" d="M18,276 l800,0" />
        <path id="Baseline-M" d="M18,346 l800,0" />
        <path id="Capline-L" d="M18,476 l800,0" />
        <path id="Baseline-L" d="M18,546 l800,0" />
    </g>
    <g id="Symbols">
        <g id="Ultralight-S">
            <path d="M287.387,145.941 C286.153,145.941 284.919,145.941 283.665,145.941 C282.608,145.941 281.863,145.256 281.785,144.218 C281.746,143.591 281.746,143.571 281.119,143.532 C280.277,143.454 279.415,143.395 278.553,143.356 C276.693,143.277 274.851,143.238 272.991,143.18 C267.977,143.043 262.963,143.062 257.929,143.121 C254.639,143.16 251.348,143.258 248.058,143.532 C247.725,143.552 247.588,143.669 247.607,144.022 C247.647,145.177 246.687,146 245.59,145.961 C243.161,145.902 240.733,145.902 238.324,145.961 C237.266,145.98 236.424,144.981 236.444,144.1 C236.463,142.435 236.522,140.79 236.385,139.125 C236.228,137.284 236.091,135.424 235.934,133.583 C235.797,131.761 235.797,129.959 235.954,128.138 C236.052,127.139 236.15,126.14 236.444,125.18 C236.874,123.809 237.462,122.516 238.618,121.596 C238.853,121.4 238.755,121.322 238.539,121.224 C237.736,120.871 236.953,120.48 236.424,119.755 C235.68,118.717 235.719,118.051 236.972,117.365 C237.873,116.856 238.892,116.739 239.91,116.602 C240.498,116.523 241.085,116.504 241.673,116.445 C242.026,116.406 242.28,116.523 242.496,116.817 C242.691,117.072 242.887,117.307 243.083,117.561 C243.24,117.796 243.357,117.777 243.455,117.502 C243.827,116.464 244.258,115.466 244.728,114.486 C245.571,112.704 246.432,110.922 247.647,109.355 C248.332,108.473 249.253,107.905 250.35,107.69 C253.092,107.142 255.853,106.75 258.634,106.554 C260.691,106.417 262.728,106.26 264.784,106.26 C269.426,106.26 274.029,106.73 278.612,107.572 C280.257,107.866 281.491,108.767 282.372,110.158 C283.802,112.41 284.938,114.819 285.898,117.307 C285.937,117.385 285.957,117.483 285.996,117.561 C286.074,117.777 286.192,117.777 286.329,117.6 C286.544,117.326 286.76,117.032 286.975,116.758 C287.112,116.582 287.269,116.464 287.504,116.464 C289.13,116.543 290.736,116.66 292.263,117.287 C292.342,117.326 292.4,117.346 292.479,117.385 C293.517,117.933 293.732,118.736 293.047,119.696 C292.518,120.44 291.735,120.871 290.931,121.224 C290.52,121.4 290.52,121.4 290.834,121.674 C292.244,122.889 292.871,124.514 293.184,126.297 C293.595,128.627 293.595,130.978 293.458,133.347 C293.262,136.912 292.753,140.457 292.929,144.041 C292.968,144.766 292.675,145.314 292.087,145.726 C291.832,145.902 291.558,146 291.245,146 C289.972,145.922 288.679,145.922 287.387,145.941 C287.387,145.922 287.387,145.922 287.387,145.941 Z M264.255,109.276 C263.668,109.335 262.65,109.276 261.631,109.335 C260.652,109.394 259.692,109.453 258.713,109.531 C256.362,109.707 254.032,110.099 251.701,110.432 C250.78,110.569 250.056,110.902 249.566,111.725 C248.332,113.762 247.294,115.877 246.432,118.09 C246.295,118.443 246.334,118.482 246.707,118.443 C248.117,118.266 249.527,118.168 250.957,118.11 C253.307,118.012 255.657,117.894 258.027,117.875 C262.336,117.835 266.645,117.796 270.954,117.914 C273.226,117.973 275.517,117.992 277.789,118.09 C279.415,118.168 281.041,118.266 282.666,118.443 C283.078,118.482 283.136,118.443 282.98,118.07 C282.235,116.132 281.295,114.29 280.316,112.469 C279.65,111.255 278.769,110.608 277.358,110.373 C273.148,109.707 268.937,109.276 264.255,109.276 Z M245.414,132.701 C246.276,132.682 247.137,132.721 247.98,132.682 C249.135,132.623 249.644,131.82 249.272,130.743 C248.881,129.646 248.078,129.019 246.961,128.823 C245.159,128.51 243.338,128.255 241.516,128.098 C240.302,128 239.695,128.804 240.008,129.959 C240.106,130.312 240.263,130.625 240.4,130.958 C240.929,132.114 241.83,132.682 243.083,132.701 C243.847,132.721 244.63,132.701 245.414,132.701 Z M284.018,132.721 C284.018,132.701 284.018,132.701 284.018,132.721 C284.703,132.721 285.389,132.721 286.074,132.721 C286.309,132.721 286.544,132.701 286.779,132.682 C288.444,132.505 289.267,130.919 289.443,129.607 C289.58,128.666 289.149,128.196 288.209,128.098 C288.033,128.079 287.837,128.098 287.661,128.118 C287.073,128.177 286.485,128.236 285.898,128.314 C284.684,128.49 283.45,128.569 282.275,128.862 C281.217,129.117 280.512,129.763 280.159,130.801 C279.846,131.761 280.277,132.505 281.276,132.682 C281.511,132.721 281.746,132.721 281.981,132.74 C282.647,132.721 283.332,132.721 284.018,132.721 Z M282.98,134.856 C282.079,134.856 281.158,134.856 280.257,134.856 C279.983,134.856 279.709,134.895 279.454,135.051 C278.886,135.404 278.906,136.109 279.474,136.422 C279.709,136.56 279.983,136.638 280.277,136.638 C282.079,136.638 283.881,136.657 285.682,136.638 C286.055,136.638 286.407,136.54 286.701,136.285 C287.112,135.913 287.093,135.443 286.623,135.13 C286.348,134.954 286.055,134.856 285.722,134.856 C284.821,134.856 283.9,134.856 282.98,134.856 Z M246.413,134.836 C245.551,134.836 244.709,134.836 243.847,134.836 C243.573,134.836 243.299,134.856 243.044,134.993 C242.731,135.13 242.535,135.365 242.515,135.717 C242.496,136.09 242.711,136.305 243.005,136.462 C243.259,136.579 243.534,136.657 243.808,136.657 C245.571,136.657 247.333,136.657 249.096,136.657 C249.468,136.657 249.801,136.54 250.095,136.344 C250.565,136.011 250.565,135.502 250.095,135.169 C249.762,134.934 249.37,134.856 248.979,134.856 C248.136,134.836 247.275,134.836 246.413,134.836 Z" />
            <path d="M265,76 C265.097,76.02 265.176,76.059 265.274,76.078 C273.01,78.448 280.727,80.818 288.463,83.168 C293.673,84.755 298.883,86.361 304.112,87.947 C304.622,88.104 304.622,88.104 304.504,88.633 C304.23,89.788 303.956,90.944 303.701,92.1 C303.623,92.452 303.486,92.511 303.153,92.393 C294.848,89.847 286.544,87.301 278.22,84.755 C273.931,83.443 269.661,82.15 265.372,80.838 C265.097,80.759 264.862,80.759 264.608,80.838 C259.3,82.463 253.973,84.089 248.665,85.715 C241.379,87.947 234.113,90.161 226.827,92.393 C226.533,92.491 226.376,92.452 226.298,92.119 C226.024,90.905 225.749,89.71 225.456,88.496 C225.377,88.163 225.495,88.065 225.789,87.967 C228.668,87.105 231.527,86.224 234.406,85.342 C240.067,83.619 245.707,81.895 251.368,80.152 C255.833,78.781 260.279,77.43 264.745,76.059 C264.823,76.059 264.921,76.02 265,76 Z" />
            <path d="M264.764,93.471 C277.045,93.471 289.325,93.471 301.605,93.471 C301.743,93.471 301.88,93.49 301.997,93.471 C302.35,93.431 302.467,93.569 302.467,93.941 C302.448,96.389 302.467,98.837 302.467,101.285 C302.467,102.323 302.448,103.362 302.467,104.4 C302.467,104.732 302.35,104.85 302.036,104.831 C301.938,104.811 301.821,104.831 301.723,104.831 C277.064,104.831 252.406,104.831 227.727,104.831 C226.905,104.831 226.983,104.909 226.983,104.086 C226.983,100.737 226.983,97.388 226.983,94.039 C226.983,93.451 226.983,93.451 227.571,93.451 C239.969,93.471 252.367,93.471 264.764,93.471 Z M264.686,102.793 C276.418,102.793 288.169,102.793 299.901,102.793 C300.43,102.793 300.43,102.793 300.43,102.284 C300.43,100.189 300.43,98.093 300.43,95.997 C300.43,95.625 300.352,95.488 299.96,95.488 C276.477,95.488 252.974,95.488 229.49,95.488 C229.098,95.488 229.001,95.625 229.02,95.997 C229.04,98.073 229.02,100.13 229.02,102.206 C229.02,102.793 229.02,102.793 229.627,102.793 C241.32,102.793 252.993,102.793 264.686,102.793 Z" />
            <path d="M232.252,126.022 C232.252,132.466 232.252,138.91 232.252,145.354 C232.252,145.941 232.252,145.941 231.664,145.941 C230.685,145.941 229.686,145.922 228.707,145.941 C228.334,145.941 228.236,145.824 228.236,145.471 C228.256,142.239 228.236,138.988 228.236,135.757 C228.236,126.12 228.236,116.464 228.236,106.828 C228.236,106.691 228.236,106.534 228.236,106.397 C228.217,106.143 228.334,106.045 228.589,106.045 C229.686,106.045 230.802,106.045 231.899,106.045 C232.154,106.045 232.252,106.143 232.252,106.397 C232.252,106.534 232.252,106.652 232.252,106.789 C232.252,113.194 232.252,119.618 232.252,126.022 Z" />
            <path d="M297.336,125.983 C297.336,119.52 297.336,113.076 297.336,106.613 C297.336,106.025 297.336,106.025 297.923,106.025 C298.902,106.025 299.901,106.045 300.881,106.025 C301.253,106.025 301.351,106.143 301.351,106.495 C301.331,109.1 301.351,111.705 301.351,114.33 C301.351,124.612 301.351,134.875 301.351,145.158 C301.351,145.295 301.351,145.452 301.351,145.589 C301.37,145.843 301.272,145.941 300.998,145.941 C299.901,145.941 298.785,145.941 297.688,145.941 C297.434,145.941 297.316,145.843 297.336,145.589 C297.336,145.452 297.336,145.334 297.336,145.197 C297.336,138.792 297.336,132.388 297.336,125.983 Z" />
        </g>
        <g id="Regular-S">
            <path d="M487.387,145.941 C486.153,145.941 484.919,145.941 483.665,145.941 C482.608,145.941 481.863,145.256 481.785,144.218 C481.746,143.591 481.746,143.571 481.119,143.532 C480.277,143.454 479.415,143.395 478.553,143.356 C476.693,143.277 474.851,143.238 472.991,143.18 C467.977,143.043 462.963,143.062 457.929,143.121 C454.639,143.16 451.348,143.258 448.058,143.532 C447.725,143.552 447.588,143.669 447.607,144.022 C447.647,145.177 446.687,146 445.59,145.961 C443.161,145.902 440.733,145.902 438.324,145.961 C437.266,145.98 436.424,144.981 436.444,144.1 C436.463,142.435 436.522,140.79 436.385,139.125 C436.228,137.284 436.091,135.424 435.934,133.583 C435.797,131.761 435.797,129.959 435.954,128.138 C436.052,127.139 436.15,126.14 436.444,125.18 C436.874,123.809 437.462,122.516 438.618,121.596 C438.853,121.4 438.755,121.322 438.539,121.224 C437.736,120.871 436.953,120.48 436.424,119.755 C435.68,118.717 435.719,118.051 436.972,117.365 C437.873,116.856 438.892,116.739 439.91,116.602 C440.498,116.523 441.085,116.504 441.673,116.445 C442.026,116.406 442.28,116.523 442.496,116.817 C442.691,117.072 442.887,117.307 443.083,117.561 C443.24,117.796 443.357,117.777 443.455,117.502 C443.827,116.464 444.258,115.466 444.728,114.486 C445.571,112.704 446.432,110.922 447.647,109.355 C448.332,108.473 449.253,107.905 450.35,107.69 C453.092,107.142 455.853,106.75 458.634,106.554 C460.691,106.417 462.728,106.26 464.784,106.26 C469.426,106.26 474.029,106.73 478.612,107.572 C480.257,107.866 481.491,108.767 482.372,110.158 C483.802,112.41 484.938,114.819 485.898,117.307 C485.937,117.385 485.957,117.483 485.996,117.561 C486.074,117.777 486.192,117.777 486.329,117.6 C486.544,117.326 486.76,117.032 486.975,116.758 C487.112,116.582 487.269,116.464 487.504,116.464 C489.13,116.543 490.736,116.66 492.263,117.287 C492.342,117.326 492.4,117.346 492.479,117.385 C493.517,117.933 493.732,118.736 493.047,119.696 C492.518,120.44 491.735,120.871 490.931,121.224 C490.52,121.4 490.52,121.4 490.834,121.674 C492.244,122.889 492.871,124.514 493.184,126.297 C493.595,128.627 493.595,130.978 493.458,133.347 C493.262,136.912 492.753,140.457 492.929,144.041 C492.968,144.766 492.675,145.314 492.087,145.726 C491.832,145.902 491.558,146 491.245,146 C489.972,145.922 488.679,145.922 487.387,145.941 C487.387,145.922 487.387,145.922 487.387,145.941 Z M464.255,109.276 C463.668,109.335 462.65,109.276 461.631,109.335 C460.652,109.394 459.692,109.453 458.713,109.531 C456.362,109.707 454.032,110.099 451.701,110.432 C450.78,110.569 450.056,110.902 449.566,111.725 C448.332,113.762 447.294,115.877 446.432,118.09 C446.295,118.443 446.334,118.482 446.707,118.443 C448.117,118.266 449.527,118.168 450.957,118.11 C453.307,118.012 455.657,117.894 458.027,117.875 C462.336,117.835 466.645,117.796 470.954,117.914 C473.226,117.973 475.517,117.992 477.789,118.09 C479.415,118.168 481.041,118.266 482.666,118.443 C483.078,118.482 483.136,118.443 482.98,118.07 C482.235,116.132 481.295,114.29 480.316,112.469 C479.65,111.255 478.769,110.608 477.358,110.373 C473.148,109.707 468.937,109.276 464.255,109.276 Z M445.414,132.701 C446.276,132.682 447.137,132.721 447.98,132.682 C449.135,132.623 449.644,131.82 449.272,130.743 C448.881,129.646 448.078,129.019 446.961,128.823 C445.159,128.51 443.338,128.255 441.516,128.098 C440.302,128 439.695,128.804 440.008,129.959 C440.106,130.312 440.263,130.625 440.4,130.958 C440.929,132.114 441.83,132.682 443.083,132.701 C443.847,132.721 444.63,132.701 445.414,132.701 Z M484.018,132.721 C484.018,132.701 484.018,132.701 484.018,132.721 C484.703,132.721 485.389,132.721 486.074,132.721 C486.309,132.721 486.544,132.701 486.779,132.682 C488.444,132.505 489.267,130.919 489.443,129.607 C489.58,128.666 489.149,128.196 488.209,128.098 C488.033,128.079 487.837,128.098 487.661,128.118 C487.073,128.177 486.485,128.236 485.898,128.314 C484.684,128.49 483.45,128.569 482.275,128.862 C481.217,129.117 480.512,129.763 480.159,130.801 C479.846,131.761 480.277,132.505 481.276,132.682 C481.511,132.721 481.746,132.721 481.981,132.74 C482.647,132.721 483.332,132.721 484.018,132.721 Z M482.98,134.856 C482.079,134.856 481.158,134.856 480.257,134.856 C479.983,134.856 479.709,134.895 479.454,135.051 C478.886,135.404 478.906,136.109 479.474,136.422 C479.709,136.56 479.983,136.638 480.277,136.638 C482.079,136.638 483.881,136.657 485.682,136.638 C486.055,136.638 486.407,136.54 486.701,136.285 C487.112,135.913 487.093,135.443 486.623,135.13 C486.348,134.954 486.055,134.856 485.722,134.856 C484.821,134.856 483.9,134.856 482.98,134.856 Z M446.413,134.836 C445.551,134.836 444.709,134.836 443.847,134.836 C443.573,134.836 443.299,134.856 443.044,134.993 C442.731,135.13 442.535,135.365 442.515,135.717 C442.496,136.09 442.711,136.305 443.005,136.462 C443.259,136.579 443.534,136.657 443.808,136.657 C445.571,136.657 447.333,136.657 449.096,136.657 C449.468,136.657 449.801,136.54 450.095,136.344 C450.565,136.011 450.565,135.502 450.095,135.169 C449.762,134.934 449.37,134.856 448.978,134.856 C448.136,134.836 447.275,134.836 446.413,134.836 Z" />
            <path d="M464.999,76 C465.097,76.02 465.176,76.059 465.274,76.078 C473.01,78.448 480.727,80.818 488.463,83.168 C493.673,84.755 498.883,86.361 504.112,87.947 C504.622,88.104 504.622,88.104 504.504,88.633 C504.23,89.788 503.956,90.944 503.701,92.1 C503.623,92.452 503.486,92.511 503.153,92.393 C494.848,89.847 486.544,87.301 478.22,84.755 C473.931,83.443 469.661,82.15 465.372,80.838 C465.097,80.759 464.862,80.759 464.608,80.838 C459.3,82.463 453.973,84.089 448.665,85.715 C441.379,87.947 434.113,90.161 426.827,92.393 C426.533,92.491 426.376,92.452 426.298,92.119 C426.024,90.905 425.749,89.71 425.456,88.496 C425.377,88.163 425.495,88.065 425.789,87.967 C428.668,87.105 431.527,86.224 434.406,85.342 C440.067,83.619 445.707,81.895 451.368,80.152 C455.833,78.781 460.279,77.43 464.745,76.059 C464.823,76.059 464.921,76.02 464.999,76 Z" />
            <path d="M464.764,93.471 C477.045,93.471 489.325,93.471 501.605,93.471 C501.743,93.471 501.88,93.49 501.997,93.471 C502.35,93.431 502.467,93.569 502.467,93.941 C502.448,96.389 502.467,98.837 502.467,101.285 C502.467,102.323 502.448,103.362 502.467,104.4 C502.467,104.732 502.35,104.85 502.036,104.831 C501.938,104.811 501.821,104.831 501.723,104.831 C477.064,104.831 452.406,104.831 427.727,104.831 C426.905,104.831 426.983,104.909 426.983,104.086 C426.983,100.737 426.983,97.388 426.983,94.039 C426.983,93.451 426.983,93.451 427.571,93.451 C439.969,93.471 452.367,93.471 464.764,93.471 Z M464.686,102.793 C476.418,102.793 488.169,102.793 499.901,102.793 C500.43,102.793 500.43,102.793 500.43,102.284 C500.43,100.189 500.43,98.093 500.43,95.997 C500.43,95.625 500.352,95.488 499.96,95.488 C476.477,95.488 452.974,95.488 429.49,95.488 C429.098,95.488 429.001,95.625 429.02,95.997 C429.04,98.073 429.02,100.13 429.02,102.206 C429.02,102.793 429.02,102.793 429.627,102.793 C441.32,102.793 452.993,102.793 464.686,102.793 Z" />
            <path d="M432.252,126.022 C432.252,132.466 432.252,138.91 432.252,145.354 C432.252,145.941 432.252,145.941 431.664,145.941 C430.685,145.941 429.686,145.922 428.707,145.941 C428.334,145.941 428.236,145.824 428.236,145.471 C428.256,142.239 428.236,138.988 428.236,135.757 C428.236,126.12 428.236,116.464 428.236,106.828 C428.236,106.691 428.236,106.534 428.236,106.397 C428.217,106.143 428.334,106.045 428.589,106.045 C429.686,106.045 430.802,106.045 431.899,106.045 C432.154,106.045 432.252,106.143 432.252,106.397 C432.252,106.534 432.252,106.652 432.252,106.789 C432.252,113.194 432.252,119.618 432.252,126.022 Z" />
            <path d="M497.336,125.983 C497.336,119.52 497.336,113.076 497.336,106.613 C497.336,106.025 497.336,106.025 497.923,106.025 C498.902,106.025 499.901,106.045 500.881,106.025 C501.253,106.025 501.351,106.143 501.351,106.495 C501.331,109.1 501.351,111.705 501.351,114.33 C501.351,124.612 501.351,134.875 501.351,145.158 C501.351,145.295 501.351,145.452 501.351,145.589 C501.37,145.843 501.272,145.941 500.998,145.941 C499.901,145.941 498.785,145.941 497.688,145.941 C497.434,145.941 497.316,145.843 497.336,145.589 C497.336,145.452 497.336,145.334 497.336,145.197 C497.336,138.792 497.336,132.388 497.336,125.983 Z" />
        </g>
        <g id="Black-S">
            <path d="M687.386,145.941 C686.153,145.941 684.919,145.941 683.665,145.941 C682.608,145.941 681.863,145.256 681.785,144.218 C681.746,143.591 681.746,143.571 681.119,143.532 C680.277,143.454 679.415,143.395 678.553,143.356 C676.693,143.277 674.851,143.238 672.991,143.18 C667.977,143.043 662.963,143.062 657.929,143.121 C654.639,143.16 651.348,143.258 648.058,143.532 C647.725,143.552 647.588,143.669 647.607,144.022 C647.647,145.177 646.687,146 645.59,145.961 C643.161,145.902 640.733,145.902 638.324,145.961 C637.266,145.98 636.424,144.981 636.444,144.1 C636.463,142.435 636.522,140.79 636.385,139.125 C636.228,137.284 636.091,135.424 635.934,133.583 C635.797,131.761 635.797,129.959 635.954,128.138 C636.052,127.139 636.15,126.14 636.444,125.18 C636.874,123.809 637.462,122.516 638.618,121.596 C638.853,121.4 638.755,121.322 638.539,121.224 C637.736,120.871 636.953,120.48 636.424,119.755 C635.68,118.717 635.719,118.051 636.972,117.365 C637.873,116.856 638.892,116.739 639.91,116.602 C640.498,116.523 641.085,116.504 641.673,116.445 C642.026,116.406 642.28,116.523 642.496,116.817 C642.691,117.072 642.887,117.307 643.083,117.561 C643.24,117.796 643.357,117.777 643.455,117.502 C643.827,116.464 644.258,115.466 644.728,114.486 C645.571,112.704 646.432,110.922 647.647,109.355 C648.332,108.473 649.253,107.905 650.35,107.69 C653.092,107.142 655.853,106.75 658.634,106.554 C660.691,106.417 662.728,106.26 664.784,106.26 C669.426,106.26 674.029,106.73 678.612,107.572 C680.257,107.866 681.491,108.767 682.372,110.158 C683.802,112.41 684.938,114.819 685.898,117.307 C685.937,117.385 685.957,117.483 685.996,117.561 C686.074,117.777 686.192,117.777 686.329,117.6 C686.544,117.326 686.76,117.032 686.975,116.758 C687.112,116.582 687.269,116.464 687.504,116.464 C689.13,116.543 690.736,116.66 692.263,117.287 C692.342,117.326 692.4,117.346 692.479,117.385 C693.517,117.933 693.732,118.736 693.047,119.696 C692.518,120.44 691.735,120.871 690.931,121.224 C690.52,121.4 690.52,121.4 690.834,121.674 C692.244,122.889 692.87,124.514 693.184,126.297 C693.595,128.627 693.595,130.978 693.458,133.347 C693.262,136.912 692.753,140.457 692.929,144.041 C692.968,144.766 692.675,145.314 692.087,145.726 C691.832,145.902 691.558,146 691.245,146 C689.972,145.922 688.679,145.922 687.386,145.941 C687.386,145.922 687.386,145.922 687.386,145.941 Z M664.255,109.276 C663.668,109.335 662.65,109.276 661.631,109.335 C660.652,109.394 659.692,109.453 658.713,109.531 C656.362,109.707 654.032,110.099 651.701,110.432 C650.78,110.569 650.056,110.902 649.566,111.725 C648.332,113.762 647.294,115.877 646.432,118.09 C646.295,118.443 646.334,118.482 646.707,118.443 C648.117,118.266 649.527,118.168 650.957,118.11 C653.307,118.012 655.657,117.894 658.027,117.875 C662.336,117.835 666.645,117.796 670.954,117.914 C673.226,117.973 675.517,117.992 677.789,118.09 C679.415,118.168 681.041,118.266 682.666,118.443 C683.078,118.482 683.136,118.443 682.98,118.07 C682.235,116.132 681.295,114.29 680.316,112.469 C679.65,111.255 678.769,110.608 677.358,110.373 C673.148,109.707 668.937,109.276 664.255,109.276 Z M645.414,132.701 C646.276,132.682 647.137,132.721 647.98,132.682 C649.135,132.623 649.644,131.82 649.272,130.743 C648.881,129.646 648.078,129.019 646.961,128.823 C645.159,128.51 643.338,128.255 641.516,128.098 C640.302,128 639.695,128.804 640.008,129.959 C640.106,130.312 640.263,130.625 640.4,130.958 C640.929,132.114 641.83,132.682 643.083,132.701 C643.847,132.721 644.63,132.701 645.414,132.701 Z M684.018,132.721 C684.018,132.701 684.018,132.701 684.018,132.721 C684.703,132.721 685.389,132.721 686.074,132.721 C686.309,132.721 686.544,132.701 686.779,132.682 C688.444,132.505 689.267,130.919 689.443,129.607 C689.58,128.666 689.149,128.196 688.209,128.098 C688.033,128.079 687.837,128.098 687.661,128.118 C687.073,128.177 686.485,128.236 685.898,128.314 C684.684,128.49 683.45,128.569 682.275,128.862 C681.217,129.117 680.512,129.763 680.159,130.801 C679.846,131.761 680.277,132.505 681.276,132.682 C681.511,132.721 681.746,132.721 681.981,132.74 C682.647,132.721 683.332,132.721 684.018,132.721 Z M682.98,134.856 C682.079,134.856 681.158,134.856 680.257,134.856 C679.983,134.856 679.709,134.895 679.454,135.051 C678.886,135.404 678.906,136.109 679.474,136.422 C679.709,136.56 679.983,136.638 680.277,136.638 C682.079,136.638 683.88,136.657 685.682,136.638 C686.055,136.638 686.407,136.54 686.701,136.285 C687.112,135.913 687.093,135.443 686.623,135.13 C686.348,134.954 686.055,134.856 685.722,134.856 C684.821,134.856 683.9,134.856 682.98,134.856 Z M646.413,134.836 C645.551,134.836 644.709,134.836 643.847,134.836 C643.573,134.836 643.299,134.856 643.044,134.993 C642.731,135.13 642.535,135.365 642.515,135.717 C642.496,136.09 642.711,136.305 643.005,136.462 C643.259,136.579 643.534,136.657 643.808,136.657 C645.571,136.657 647.333,136.657 649.096,136.657 C649.468,136.657 649.801,136.54 650.095,136.344 C650.565,136.011 650.565,135.502 650.095,135.169 C649.762,134.934 649.37,134.856 648.979,134.856 C648.136,134.836 647.275,134.836 646.413,134.836 Z" />
            <path d="M665,76 C665.097,76.02 665.176,76.059 665.274,76.078 C673.01,78.448 680.727,80.818 688.463,83.168 C693.673,84.755 698.883,86.361 704.112,87.947 C704.622,88.104 704.622,88.104 704.504,88.633 C704.23,89.788 703.956,90.944 703.701,92.1 C703.623,92.452 703.486,92.511 703.153,92.393 C694.848,89.847 686.544,87.301 678.22,84.755 C673.931,83.443 669.661,82.15 665.372,80.838 C665.097,80.759 664.862,80.759 664.608,80.838 C659.3,82.463 653.973,84.089 648.665,85.715 C641.379,87.947 634.112,90.161 626.827,92.393 C626.533,92.491 626.376,92.452 626.298,92.119 C626.024,90.905 625.749,89.71 625.456,88.496 C625.377,88.163 625.495,88.065 625.789,87.967 C628.668,87.105 631.527,86.224 634.406,85.342 C640.067,83.619 645.707,81.895 651.368,80.152 C655.833,78.781 660.279,77.43 664.745,76.059 C664.823,76.059 664.921,76.02 665,76 Z" />
            <path d="M664.764,93.471 C677.045,93.471 689.325,93.471 701.605,93.471 C701.743,93.471 701.88,93.49 701.997,93.471 C702.35,93.431 702.467,93.569 702.467,93.941 C702.448,96.389 702.467,98.837 702.467,101.285 C702.467,102.323 702.448,103.362 702.467,104.4 C702.467,104.732 702.35,104.85 702.036,104.831 C701.938,104.811 701.821,104.831 701.723,104.831 C677.064,104.831 652.406,104.831 627.727,104.831 C626.905,104.831 626.983,104.909 626.983,104.086 C626.983,100.737 626.983,97.388 626.983,94.039 C626.983,93.451 626.983,93.451 627.571,93.451 C639.969,93.471 652.367,93.471 664.764,93.471 Z M664.686,102.793 C676.418,102.793 688.169,102.793 699.901,102.793 C700.43,102.793 700.43,102.793 700.43,102.284 C700.43,100.189 700.43,98.093 700.43,95.997 C700.43,95.625 700.352,95.488 699.96,95.488 C676.477,95.488 652.974,95.488 629.49,95.488 C629.098,95.488 629,95.625 629.02,95.997 C629.04,98.073 629.02,100.13 629.02,102.206 C629.02,102.793 629.02,102.793 629.627,102.793 C641.32,102.793 652.993,102.793 664.686,102.793 Z" />
            <path d="M632.252,126.022 C632.252,132.466 632.252,138.91 632.252,145.354 C632.252,145.941 632.252,145.941 631.664,145.941 C630.685,145.941 629.686,145.922 628.707,145.941 C628.334,145.941 628.236,145.824 628.236,145.471 C628.256,142.239 628.236,138.988 628.236,135.757 C628.236,126.12 628.236,116.464 628.236,106.828 C628.236,106.691 628.236,106.534 628.236,106.397 C628.217,106.143 628.334,106.045 628.589,106.045 C629.686,106.045 630.802,106.045 631.899,106.045 C632.154,106.045 632.252,106.143 632.252,106.397 C632.252,106.534 632.252,106.652 632.252,106.789 C632.252,113.194 632.252,119.618 632.252,126.022 Z" />
            <path d="M697.336,125.983 C697.336,119.52 697.336,113.076 697.336,106.613 C697.336,106.025 697.336,106.025 697.923,106.025 C698.902,106.025 699.901,106.045 700.881,106.025 C701.253,106.025 701.351,106.143 701.351,106.495 C701.331,109.1 701.351,111.705 701.351,114.33 C701.351,124.612 701.351,134.875 701.351,145.158 C701.351,145.295 701.351,145.452 701.351,145.589 C701.37,145.843 701.272,145.941 700.998,145.941 C699.901,145.941 698.785,145.941 697.688,145.941 C697.434,145.941 697.316,145.843 697.336,145.589 C697.336,145.452 697.336,145.334 697.336,145.197 C697.336,138.792 697.336,132.388 697.336,125.983 Z" />
        </g>
    </g>
</svg>