<svg width="512" height="512" viewBox="0 0 512 512" fill="none" xmlns="http://www.w3.org/2000/svg">
<path d="M424 62H289V50H304C306.652 50 309.196 48.9464 311.071 47.0711C312.946 45.1957 314 42.6522 314 40V11C314 8.34784 312.946 5.8043 311.071 3.92893C309.196 2.05357 306.652 1 304 1H208C205.348 1 202.804 2.05357 200.929 3.92893C199.054 5.8043 198 8.34784 198 11V40C198 42.6522 199.054 45.1957 200.929 47.0711C202.804 48.9464 205.348 50 208 50H223V62H88C80.0435 62 72.4129 65.1607 66.7868 70.7868C61.1607 76.4129 58 84.0435 58 92V428C58 435.956 61.1607 443.587 66.7868 449.213C72.4129 454.839 80.0435 458 88 458H93.48V500C93.48 502.652 94.5336 505.196 96.4089 507.071C98.2843 508.946 100.828 510 103.48 510H149.48C152.132 510 154.676 508.946 156.551 507.071C158.426 505.196 159.48 502.652 159.48 500V458H352.48V500C352.48 502.652 353.534 505.196 355.409 507.071C357.284 508.946 359.828 510 362.48 510H408.48C411.132 510 413.676 508.946 415.551 507.071C417.426 505.196 418.48 502.652 418.48 500V458H424C431.956 458 439.587 454.839 445.213 449.213C450.839 443.587 454 435.956 454 428V92C454 84.0435 450.839 76.4129 445.213 70.7868C439.587 65.1607 431.956 62 424 62ZM218 30V21H294V30H218ZM243 50H269V62H243V50ZM139.5 490H113.5V458H139.5V490ZM398.5 490H372.5V458H398.5V490ZM434 428C434 430.652 432.946 433.196 431.071 435.071C429.196 436.946 426.652 438 424 438H88C85.3478 438 82.8043 436.946 80.9289 435.071C79.0536 433.196 78 430.652 78 428V224.5C82 225.92 85.17 228.24 88.9 231.02C96.07 236.36 104.99 243.02 121.73 243.02C138.47 243.02 147.4 236.38 154.56 231.02C160.81 226.36 165.33 223.02 175.44 223.02C185.55 223.02 190.07 226.38 196.33 231.02C203.49 236.36 212.41 243.02 229.15 243.02C245.89 243.02 254.82 236.38 261.98 231.02C268.24 226.36 272.76 223.02 282.87 223.02C292.98 223.02 297.5 226.38 303.75 231.02C310.92 236.36 319.84 243.02 336.58 243.02C353.32 243.02 362.25 236.38 369.41 231.02C375.67 226.36 380.19 223.02 390.3 223.02C400.41 223.02 404.94 226.38 411.19 231.02C416.77 235.18 423.42 240.13 434 242.11V428ZM434 221.49C430 220.07 426.86 217.75 423.13 214.98C416 209.64 407 203 390.3 203C373.6 203 364.64 209.64 357.47 215C351.22 219.66 346.7 223 336.58 223C326.46 223 321.95 219.64 315.7 215C308.53 209.66 299.61 203 282.87 203C266.13 203 257.21 209.64 250.04 215C243.79 219.66 239.27 223 229.15 223C219.03 223 214.52 219.64 208.27 215C201.1 209.66 192.19 203 175.44 203C158.69 203 149.78 209.64 142.62 215C136.36 219.66 131.85 223 121.73 223C111.61 223 107.1 219.64 100.85 215C95.26 210.84 88.6 205.88 78 203.9V92C78 89.3478 79.0536 86.8043 80.9289 84.9289C82.8043 83.0536 85.3478 82 88 82H424C426.652 82 429.196 83.0536 431.071 84.9289C432.946 86.8043 434 89.3478 434 92V221.49Z" fill="#FCFCFC"/>
<path d="M256 397C244.861 397 234.178 392.575 226.302 384.698C218.425 376.822 214 366.139 214 355C214 327.65 245.35 295.5 248.93 291.93C250.805 290.055 253.348 289.002 256 289.002C258.652 289.002 261.195 290.055 263.07 291.93C266.65 295.5 298 327.65 298 355C298 366.139 293.575 376.822 285.698 384.698C277.822 392.575 267.139 397 256 397ZM256 313.79C245.61 326 234 343.37 234 355C234 360.835 236.318 366.43 240.444 370.556C244.569 374.682 250.165 377 256 377C261.835 377 267.431 374.682 271.556 370.556C275.682 366.43 278 360.835 278 355C278 343.37 266.39 326 256 313.79Z" fill="#00D151"/>
</svg>
