<svg width="512" height="512" viewBox="0 0 512 512" fill="none" xmlns="http://www.w3.org/2000/svg">
<path d="M256 117C179.36 117 117 179.35 117 256C117 332.65 179.36 395 256 395C332.64 395 395 332.65 395 256C395 179.35 332.64 117 256 117ZM256 373C191.49 373 139 320.51 139 256C139.09 191.57 191.57 139.09 255.99 139C320.51 139 373 191.49 373 256C373 320.51 320.51 373 256 373Z" fill="#B4B7BA"/>
<path d="M187 256C187.04 217.99 217.99 187.04 255.99 187C262.06 187 267 182.07 267 176C267 169.93 262.07 165 256 165C205.87 165.05 165.05 205.88 165 256.01C165 262.07 169.93 267 176 267C182.07 267 187 262.07 187 256Z" fill="#B4B7BA"/>
<path d="M267 64V32C267 25.93 262.07 21 256 21C249.93 21 245 25.93 245 32V64C245 70.07 249.93 75 256 75C262.07 75 267 70.07 267 64Z" fill="#B4B7BA"/>
<path d="M383.97 128.01C388.26 132.3 395.24 132.3 399.53 128.01L422.1 105.44C426.1 101.19 426.08 94.5599 422.06 90.3299C417.9 85.9499 410.95 85.7599 406.55 89.8899L383.97 112.46C379.69 116.75 379.69 123.72 383.97 128.01L380.44 131.55L383.98 128.01H383.97Z" fill="#B4B7BA"/>
<path d="M480 267C486.07 267 491 262.07 491 256C491 249.93 486.07 245 480 245H448C441.93 245 437 249.93 437 256C437 262.07 441.93 267 448 267H480Z" fill="#B4B7BA"/>
<path d="M406.859 422.42C408.979 424.48 411.729 425.6 414.689 425.54C417.629 425.5 420.37 424.31 422.42 422.2C424.47 420.09 425.569 417.31 425.529 414.37C425.489 411.43 424.299 408.69 422.189 406.64L399.54 383.99C397.39 381.92 394.649 380.88 391.899 380.88C389.149 380.88 386.389 381.92 384.239 384.01C382.129 386.06 380.949 388.8 380.899 391.74C380.859 394.68 381.96 397.46 384.01 399.57L406.859 422.41V422.42Z" fill="#B4B7BA"/>
<path d="M267 480V448C267 441.93 262.07 437 256 437C249.93 437 245 441.93 245 448V480C245 486.07 249.93 491 256 491C262.07 491 267 486.07 267 480Z" fill="#B4B7BA"/>
<path d="M86.6096 414.39C86.6096 417.33 87.7596 420.09 89.8396 422.17C91.9196 424.24 94.6796 425.39 97.6096 425.39C100.55 425.39 103.31 424.24 105.39 422.17L128.03 399.54C132.15 395.29 132.15 388.56 127.97 384.27C125.92 382.16 123.18 380.98 120.24 380.94C117.34 380.88 114.54 381.99 112.44 384.03L89.8296 406.62C87.7496 408.7 86.5996 411.47 86.5996 414.41L86.6096 414.39Z" fill="#B4B7BA"/>
<path d="M64 267C70.07 267 75 262.07 75 256C75 249.93 70.07 245 64 245H32C25.93 245 21 249.93 21 256C21 262.07 25.93 267 32 267H64Z" fill="#B4B7BA"/>
<path d="M128.01 128.09C130.09 126.01 131.23 123.25 131.23 120.31C131.23 117.37 130.09 114.61 128.01 112.53L105.45 89.96C101.2 85.96 94.5704 85.98 90.3404 90C85.9604 94.16 85.7604 101.11 89.9004 105.51L112.47 128.05C114.51 130.09 117.33 131.26 120.21 131.26H121.31C123.84 131.01 126.19 129.91 128.01 128.09Z" fill="#B4B7BA"/>
</svg>
