<svg width="512" height="512" viewBox="0 0 512 512" fill="none" xmlns="http://www.w3.org/2000/svg">
<path d="M275.35 301.43V325.45C275.35 335.94 266.85 344.44 256.35 344.44C245.85 344.44 237.35 335.94 237.35 325.45V301.43H95.7002V390.51H417V301.43H275.35Z" fill="#00D151"/>
<path d="M452.29 133.8H334.44V95.39C334.44 90.09 330.14 85.79 324.84 85.79H192.35C187.05 85.79 182.75 90.09 182.75 95.39V133.8H59.7104C54.4103 133.8 50.1104 138.1 50.1104 143.4V302.99C50.1104 308.29 54.4103 312.59 59.7104 312.59H60.7504V416.62C60.7504 421.92 65.0503 426.22 70.3503 426.22H442.35C447.65 426.22 451.95 421.92 451.95 416.62V312.59H452.29C457.59 312.59 461.89 308.29 461.89 302.99V143.39C461.89 138.09 457.59 133.79 452.29 133.79V133.8ZM201.95 104.99H315.25V133.8H201.95V104.99ZM69.3204 153H442.69V293.39H265.95V276.66C265.95 271.36 261.65 267.06 256.35 267.06C251.05 267.06 246.75 271.36 246.75 276.66V293.39H69.3103V152.99L69.3204 153ZM432.76 407.02H79.9604V312.59H246.75V326.22C246.75 331.52 251.05 335.82 256.35 335.82C261.65 335.82 265.95 331.52 265.95 326.22V312.59H432.75V407.02H432.76Z" fill="#B4B7BA"/>
</svg>
