<svg width="65" height="64" viewBox="0 0 65 64" fill="none" xmlns="http://www.w3.org/2000/svg">
<g clip-path="url(#clip0_5611_1421)">
<path fill-rule="evenodd" clip-rule="evenodd" d="M19.6286 3.3363C19.2722 3.3363 18.9588 3.57209 18.86 3.91454L7.88528 41.9542L7.90153 41.9589L5.02774 46.6503C4.8765 46.8971 4.87046 47.2065 5.01196 47.4591C5.15345 47.7117 5.42039 47.8681 5.70992 47.8681H6.18042L2.70128 59.9267C2.63182 60.1674 2.67917 60.4268 2.8292 60.6275C2.97924 60.8282 3.21463 60.947 3.46518 60.9485L44.5813 61.1923C44.9364 61.1944 45.2503 60.9623 45.3523 60.6222L62.233 4.36623C62.3057 4.12401 62.2595 3.86168 62.1086 3.65878C61.9576 3.45588 61.7196 3.3363 61.4667 3.3363H19.6286ZM7.84568 47.8681L4.53156 59.3548L43.992 59.5888L60.3914 4.9363H20.2305L11.016 36.8746L14.2107 31.6595L21.4046 7.24142C21.5049 6.90113 21.8172 6.6675 22.172 6.6675H56.5861C56.8381 6.6675 57.0754 6.78628 57.2265 6.98804C57.3775 7.18979 57.4247 7.45094 57.3537 7.69278L43.0139 56.5549C42.9139 56.8956 42.6013 57.1296 42.2462 57.1296H7.83152C7.57947 57.1296 7.34216 57.0108 7.1911 56.809C7.04005 56.6073 6.99291 56.3461 7.06391 56.1043L9.48158 47.8681H7.84568ZM11.1491 47.8681L8.90011 55.5296H41.6473L46.9526 37.4519C44.9468 40.7258 43.0742 43.783 40.8069 47.4859C40.6615 47.7234 40.4031 47.8681 40.1246 47.8681H11.1491ZM48.6776 31.5743L50.6713 24.7809L38.7929 44.3265C38.6478 44.5653 38.3887 44.711 38.1093 44.711H11.4578C11.1687 44.711 10.9022 44.5551 10.7605 44.3032C10.6188 44.0513 10.624 43.7425 10.7741 43.4955L25.1652 19.8162C25.3103 19.5774 25.5694 19.4317 25.8488 19.4317H52.2411L52.7986 17.5321H24.7411L7.13815 46.2681H39.6764C42.9317 40.9519 45.3924 36.9354 48.6776 31.5743ZM53.2682 15.9321L55.5176 8.2675H22.7703L17.4242 26.4136L23.6108 16.3143C23.7562 16.0769 24.0146 15.9321 24.293 15.9321H53.2682ZM51.0775 21.0317H26.2988L12.8801 43.111H37.6593L51.0775 21.0317Z" fill="#282828"/>
</g>
<defs>
<clipPath id="clip0_5611_1421">
<rect width="64" height="64" fill="white" transform="translate(0.461914)"/>
</clipPath>
</defs>
</svg>
