<svg width="65" height="64" viewBox="0 0 65 64" fill="none" xmlns="http://www.w3.org/2000/svg">
<g clip-path="url(#clip0_6344_14064)">
<path fill-rule="evenodd" clip-rule="evenodd" d="M18.6736 0.934692C18.2908 0.934692 17.9543 1.1879 17.8482 1.55565L6.0626 42.4058L6.08004 42.4108L2.99393 47.4488C2.83151 47.7139 2.82503 48.0461 2.97698 48.3174C3.12892 48.5887 3.41558 48.7567 3.72651 48.7567H4.23178L0.495591 61.7061C0.421 61.9647 0.471844 62.2432 0.632963 62.4587C0.794082 62.6742 1.04686 62.8018 1.31593 62.8034L45.4699 63.0652C45.8511 63.0675 46.1883 62.8182 46.2978 62.4531L64.4257 2.04071C64.5037 1.78059 64.4542 1.49888 64.2921 1.28099C64.13 1.0631 63.8744 0.934692 63.6028 0.934692H18.6736ZM6.02008 48.7567L2.4611 61.0919L44.8369 61.3432L62.4481 2.6529H19.3199L9.42469 36.9509L12.8553 31.3505L20.5808 5.12834C20.6884 4.7629 21.0239 4.51202 21.4048 4.51202H58.3615C58.6322 4.51202 58.887 4.63957 59.0492 4.85623C59.2115 5.0729 59.2621 5.35334 59.1859 5.61305L43.7866 58.0852C43.6792 58.4511 43.3435 58.7024 42.9622 58.7024H6.00485C5.73417 58.7024 5.47933 58.5748 5.31712 58.3581C5.1549 58.1415 5.10428 57.861 5.18052 57.6013L7.77683 48.7567H6.02008ZM9.56754 48.7567L7.15239 56.9842H42.319L48.0164 37.5708C45.8623 41.0866 43.8514 44.3697 41.4166 48.3462C41.2604 48.6012 40.9829 48.7567 40.6839 48.7567H9.56754ZM49.8687 31.259L52.0098 23.9636L39.2537 44.9534C39.0979 45.2098 38.8196 45.3663 38.5196 45.3663H9.89897C9.58859 45.3663 9.30234 45.1989 9.15018 44.9284C8.99802 44.6578 9.00362 44.3263 9.16482 44.061L24.6191 18.6322C24.7749 18.3758 25.0532 18.2192 25.3533 18.2192H53.6956L54.2942 16.1793H24.1637L5.26025 47.0384H40.2026C43.6984 41.3294 46.3408 37.0162 49.8687 31.259ZM54.7985 14.4611L57.2141 6.23023H22.0474L16.3063 25.717L22.9499 14.8715C23.1061 14.6165 23.3836 14.4611 23.6825 14.4611H54.7985ZM52.4459 19.9374H25.8365L11.4264 43.6481H38.0364L52.4459 19.9374Z" fill="#FCFCFC"/>
</g>
<defs>
<clipPath id="clip0_6344_14064">
<rect width="64" height="64" fill="white" transform="translate(0.461914)"/>
</clipPath>
</defs>
</svg>
