<svg width="512" height="512" viewBox="0 0 512 512" fill="none" xmlns="http://www.w3.org/2000/svg">
<path fill-rule="evenodd" clip-rule="evenodd" d="M16 74C16 68.4772 20.4772 64 26 64H486C491.523 64 496 68.4772 496 74V486C496 491.523 491.523 496 486 496H26C20.4772 496 16 491.523 16 486V74ZM36 84V476H476V84H36Z" fill="#B4B7BA"/>
<path fill-rule="evenodd" clip-rule="evenodd" d="M0 26C0 20.4772 4.47715 16 10 16H502C507.523 16 512 20.4772 512 26V74C512 79.5228 507.523 84 502 84H10C4.47715 84 0 79.5228 0 74V26ZM20 36V64H492V36H20Z" fill="#B4B7BA"/>
<path fill-rule="evenodd" clip-rule="evenodd" d="M56 74C56 68.4772 60.4772 64 66 64H236C241.523 64 246 68.4772 246 74V236C246 241.523 241.523 246 236 246H66C60.4772 246 56 241.523 56 236V74ZM76 84V226H226V84H76Z" fill="#B4B7BA"/>
<path fill-rule="evenodd" clip-rule="evenodd" d="M266 74C266 68.4772 270.477 64 276 64H446C451.523 64 456 68.4772 456 74V236C456 241.523 451.523 246 446 246H276C270.477 246 266 241.523 266 236V74ZM286 84V226H436V84H286Z" fill="#B4B7BA"/>
<path fill-rule="evenodd" clip-rule="evenodd" d="M56 276C56 270.477 60.4772 266 66 266H236C241.523 266 246 270.477 246 276V446C246 451.523 241.523 456 236 456H66C60.4772 456 56 451.523 56 446V276ZM76 286V436H226V286H76Z" fill="#B4B7BA"/>
<path fill-rule="evenodd" clip-rule="evenodd" d="M266 276C266 270.477 270.477 266 276 266H446C451.523 266 456 270.477 456 276V446C456 451.523 451.523 456 446 456H276C270.477 456 266 451.523 266 446V276ZM286 286V436H436V286H286Z" fill="#B4B7BA"/>
<path fill-rule="evenodd" clip-rule="evenodd" d="M285.468 134.184C281.697 132.747 277.801 131.609 273.816 130.789L269.784 150.378C279.941 152.469 289.308 157.367 296.821 164.516C304.334 171.664 309.691 180.777 312.283 190.818C313.423 195.233 317.406 198.318 321.966 198.318H332.272C340.467 198.318 348.326 201.573 354.12 207.367C359.915 213.162 363.17 221.021 363.17 229.216H383.17C383.17 227.655 383.099 226.101 382.957 224.559C404.549 212.638 419.173 189.645 419.173 163.236C419.173 124.576 387.833 93.2363 349.173 93.2363C320.878 93.2363 296.503 110.025 285.468 134.184ZM303.107 143.763C305.731 145.68 308.237 147.771 310.608 150.027C318.925 157.941 325.301 167.624 329.289 178.318H332.272C345.771 178.318 358.717 183.68 368.263 193.225C371.726 196.688 374.638 200.599 376.944 204.822C390.348 195.853 399.173 180.575 399.173 163.236C399.173 135.622 376.788 113.236 349.173 113.236C328.467 113.236 310.7 125.823 303.107 143.763ZM190.892 237.926C184.673 225.259 182.131 211.101 183.556 197.062C184.98 183.022 190.314 169.664 198.952 158.504C207.589 147.345 219.184 138.832 232.417 133.933L239.361 152.689C229.636 156.289 221.115 162.545 214.768 170.746C208.42 178.947 204.5 188.763 203.453 199.081C202.406 209.398 204.274 219.802 208.845 229.111L190.892 237.926Z" fill="#B4B7BA"/>
</svg>
