<svg width="24" height="25" viewBox="0 0 24 25" fill="none" xmlns="http://www.w3.org/2000/svg">
<rect y="0.152344" width="24" height="24" rx="6" fill="#007AFF"/>
<path d="M12 18.4857C11.5333 18.4857 11.1389 18.3246 10.8167 18.0023C10.4944 17.6801 10.3333 17.2857 10.3333 16.819C10.3333 16.3523 10.4944 15.9579 10.8167 15.6357C11.1389 15.3135 11.5333 15.1523 12 15.1523C12.4667 15.1523 12.8611 15.3135 13.1833 15.6357C13.5056 15.9579 13.6667 16.3523 13.6667 16.819C13.6667 17.2857 13.5056 17.6801 13.1833 18.0023C12.8611 18.3246 12.4667 18.4857 12 18.4857ZM8.23333 14.719L6.83333 13.2857C7.48889 12.6301 8.25833 12.1107 9.14167 11.7273C10.025 11.344 10.9778 11.1523 12 11.1523C13.0222 11.1523 13.975 11.3468 14.8583 11.7357C15.7417 12.1246 16.5111 12.6523 17.1667 13.319L15.7667 14.719C15.2778 14.2301 14.7111 13.8468 14.0667 13.569C13.4222 13.2912 12.7333 13.1523 12 13.1523C11.2667 13.1523 10.5778 13.2912 9.93333 13.569C9.28889 13.8468 8.72222 14.2301 8.23333 14.719ZM5.4 11.8857L4 10.4857C5.02222 9.44123 6.21667 8.62457 7.58333 8.03568C8.95 7.44679 10.4222 7.15234 12 7.15234C13.5778 7.15234 15.05 7.44679 16.4167 8.03568C17.7833 8.62457 18.9778 9.44123 20 10.4857L18.6 11.8857C17.7444 11.0301 16.7528 10.3607 15.625 9.87734C14.4972 9.39401 13.2889 9.15234 12 9.15234C10.7111 9.15234 9.50278 9.39401 8.375 9.87734C7.24722 10.3607 6.25556 11.0301 5.4 11.8857Z" fill="white"/>
</svg>
