<svg width="512" height="512" viewBox="0 0 512 512" fill="none" xmlns="http://www.w3.org/2000/svg">
<path d="M106 158.12C106.015 158.413 106.015 158.707 106 159V158.12ZM246 158V159C246 158.66 246 158.33 246.05 158H246Z" fill="#B4B7BA"/>
<path d="M106 158.12C106.015 158.413 106.015 158.707 106 159V158.12Z" fill="#B4B7BA"/>
<path d="M246 158V159C246 158.66 246 158.33 246.05 158H246Z" fill="#B4B7BA"/>
<path d="M446 167.63V159C446.133 151.044 443.099 143.36 437.567 137.64C432.034 131.92 424.456 128.633 416.5 128.5C408.544 128.367 400.86 131.401 395.14 136.933C389.421 142.466 386.133 150.044 386 158H366C366 150.044 362.839 142.413 357.213 136.787C351.587 131.161 343.956 128 336 128C328.044 128 320.413 131.161 314.787 136.787C309.161 142.413 306 150.044 306 158H286C285.74 150.218 282.466 142.842 276.867 137.43C271.269 132.019 263.786 128.996 256 129C252.593 128.994 249.21 129.576 246 130.72V98C246 95.3478 244.946 92.8043 243.071 90.9289C241.196 89.0536 238.652 88 236 88H116C113.348 88 110.804 89.0536 108.929 90.9289C107.054 92.8043 106 95.3478 106 98V130.72C102.79 129.576 99.4074 128.994 96 129C88.0435 129 80.4129 132.161 74.7868 137.787C69.1607 143.413 66 151.044 66 159V167.63C46.6536 176.328 30.2292 190.426 18.6991 208.23C7.16895 226.034 1.02326 246.788 1 268V314C1.02326 335.212 7.16895 355.966 18.6991 373.77C30.2292 391.574 46.6536 405.672 66 414.37V423C65.8674 430.956 68.9009 438.64 74.4332 444.36C79.9656 450.079 87.5435 453.367 95.5 453.5C103.456 453.633 111.14 450.599 116.86 445.067C122.58 439.534 125.867 431.956 126 424H146C146 431.956 149.161 439.587 154.787 445.213C160.413 450.839 168.044 454 176 454C183.956 454 191.587 450.839 197.213 445.213C202.839 439.587 206 431.956 206 424H226C226 431.956 229.161 439.587 234.787 445.213C240.413 450.839 248.044 454 256 454C263.956 454 271.587 450.839 277.213 445.213C282.839 439.587 286 431.956 286 424H306C306 431.956 309.161 439.587 314.787 445.213C320.413 450.839 328.044 454 336 454C343.956 454 351.587 450.839 357.213 445.213C362.839 439.587 366 431.956 366 424H386C386.133 431.956 389.421 439.534 395.14 445.067C400.86 450.599 408.544 453.633 416.5 453.5C424.456 453.367 432.034 450.079 437.567 444.36C443.099 438.64 446.133 430.956 446 423V414.37C465.346 405.672 481.771 391.574 493.301 373.77C504.831 355.966 510.977 335.212 511 314V268C510.977 246.788 504.831 226.034 493.301 208.23C481.771 190.426 465.346 176.328 446 167.63ZM66 391.92C52.3215 384.023 40.9622 372.665 33.0633 358.987C25.1643 345.31 21.0039 329.795 21 314V268C21.0039 252.205 25.1643 236.69 33.0633 223.013C40.9622 209.335 52.3215 197.977 66 190.08V391.92ZM106 423C106.015 423.293 106.015 423.587 106 423.88C105.883 426.532 104.718 429.029 102.76 430.822C100.802 432.615 98.2122 433.557 95.56 433.44C92.9078 433.323 90.4107 432.158 88.6178 430.2C86.825 428.242 85.8833 425.652 86 423V159C85.8833 156.348 86.825 153.758 88.6178 151.8C90.4107 149.842 92.9078 148.677 95.56 148.56C98.2122 148.443 100.802 149.385 102.76 151.178C104.718 152.971 105.883 155.468 106 158.12V423ZM146 404H126V178H146V404ZM186 423C186 423.34 186 423.67 185.95 424C185.702 426.467 184.547 428.754 182.709 430.417C180.87 432.08 178.479 433.001 176 433.001C173.521 433.001 171.13 432.08 169.291 430.417C167.453 428.754 166.298 426.467 166.05 424C166.05 423.67 166 423.34 166 423V178H186V423ZM226 404H206V178H226V404ZM226 158H126V108H226V158ZM266 423C266 423.34 266 423.67 265.95 424C265.702 426.467 264.547 428.754 262.709 430.417C260.87 432.08 258.479 433.001 256 433.001C253.521 433.001 251.13 432.08 249.291 430.417C247.453 428.754 246.298 426.467 246.05 424C246.05 423.67 246 423.34 246 423V158H246.05C246.298 155.533 247.453 153.246 249.291 151.583C251.13 149.92 253.521 148.999 256 148.999C258.479 148.999 260.87 149.92 262.709 151.583C264.547 153.246 265.702 155.533 265.95 158C265.95 158.33 266 158.66 266 159V423ZM306 404H286V178H306V404ZM346 423C346 423.34 346 423.67 345.95 424C345.702 426.467 344.547 428.754 342.709 430.417C340.87 432.08 338.479 433.001 336 433.001C333.521 433.001 331.13 432.08 329.291 430.417C327.453 428.754 326.298 426.467 326.05 424C326.05 423.67 326 423.34 326 423V159C326 158.66 326 158.33 326.05 158C326.298 155.533 327.453 153.246 329.291 151.583C331.13 149.92 333.521 148.999 336 148.999C338.479 148.999 340.87 149.92 342.709 151.583C344.547 153.246 345.702 155.533 345.95 158C345.95 158.33 346 158.66 346 159V423ZM386 404H366V178H386V404ZM426 423C426.117 425.652 425.175 428.242 423.382 430.2C421.589 432.158 419.092 433.323 416.44 433.44C413.788 433.557 411.198 432.615 409.24 430.822C407.282 429.029 406.117 426.532 406 423.88C405.985 423.587 405.985 423.293 406 423V159C405.985 158.707 405.985 158.413 406 158.12C406.117 155.468 407.282 152.971 409.24 151.178C411.198 149.385 413.788 148.443 416.44 148.56C419.092 148.677 421.589 149.842 423.382 151.8C425.175 153.758 426.117 156.348 426 159V423ZM491 314C490.996 329.795 486.836 345.31 478.937 358.987C471.038 372.665 459.678 384.023 446 391.92V190.08C459.678 197.977 471.038 209.335 478.937 223.013C486.836 236.69 490.996 252.205 491 268V314Z" fill="#B4B7BA"/>
<path d="M257 108H95C92.3478 108 89.8043 106.946 87.9289 105.071C86.0536 103.196 85 100.652 85 98V59C85 56.3478 86.0536 53.8043 87.9289 51.9289C89.8043 50.0536 92.3478 49 95 49H257C259.652 49 262.196 50.0536 264.071 51.9289C265.946 53.8043 267 56.3478 267 59V98C267 100.652 265.946 103.196 264.071 105.071C262.196 106.946 259.652 108 257 108ZM105 88H247V69H105V88Z" fill="#00D151"/>
</svg>
