<svg width="81" height="80" viewBox="0 0 81 80" fill="none" xmlns="http://www.w3.org/2000/svg">
<path d="M65.3157 59.2094L63.4688 52.7766C63.0625 51.2438 63.0532 48.6125 63.4485 47.1359L65.6985 38.7391C66.6967 34.9959 66.5614 31.0408 65.3097 27.3746C64.058 23.7085 61.7462 20.4964 58.6672 18.1453L58.5235 16.8734C58.3545 15.3837 57.7409 13.9793 56.7624 12.8433C55.7839 11.7072 54.486 10.8922 53.0377 10.5044C51.5894 10.1166 50.0578 10.1739 48.6426 10.6689C47.2273 11.1639 45.994 12.0737 45.1032 13.2797L44.3438 14.3094C40.5018 14.806 36.8938 16.432 33.9769 18.9814C31.0601 21.5308 28.9658 24.8888 27.9594 28.6297L25.7094 37.0313C25.3078 38.5313 23.9703 40.8031 22.8532 41.8906L18.025 46.5453C16.2594 48.2484 15.3969 50.4063 15.5954 52.625C15.7938 54.8438 17.036 56.8359 19.0922 58.2063C22.0216 60.1447 25.1048 61.84 28.311 63.275C28.2491 65.2283 28.7363 67.1598 29.7172 68.85C30.6522 70.4725 32.0039 71.8155 33.6324 72.74C35.2609 73.6644 37.1069 74.1367 38.9793 74.1078C40.8517 74.079 42.6823 73.5501 44.2815 72.5759C45.8808 71.6017 47.1905 70.2177 48.075 68.5672C51.5567 68.9223 55.0615 68.9938 58.5547 68.7813C59.6774 68.7144 60.7707 68.3959 61.7537 67.8494C62.7367 67.3029 63.5842 66.5422 64.2334 65.6238C64.8826 64.7054 65.317 63.6528 65.5043 62.5438C65.6917 61.4348 65.6272 60.2979 65.3157 59.2172V59.2094ZM52.2703 13.3719C52.9534 13.5512 53.5842 13.8902 54.1106 14.361C54.6371 14.8317 55.0442 15.4208 55.2985 16.0797C53.1 15.0259 50.7247 14.3901 48.2938 14.2047C48.8434 13.7611 49.4905 13.4543 50.1818 13.3095C50.8731 13.1647 51.5889 13.1861 52.2703 13.3719ZM36.861 70.8719C35.4158 70.4802 34.1192 69.6687 33.1351 68.5401C32.1511 67.4115 31.5239 66.0164 31.3329 64.5313C33.5031 65.3731 35.7173 66.0971 37.9657 66.7C40.224 67.3058 42.5139 67.7873 44.825 68.1422C43.9188 69.3368 42.6774 70.2346 41.2591 70.7213C39.8408 71.2079 38.3098 71.2615 36.861 70.875V70.8719ZM61.7969 63.9141C61.4072 64.4674 60.8973 64.9254 60.3056 65.2539C59.7138 65.5824 59.0555 65.7728 58.3797 65.8109C45.0663 66.6525 31.8438 63.1099 20.7344 55.725C19.4469 54.8656 18.6703 53.6688 18.5469 52.3516C18.4235 51.0344 18.9735 49.7391 20.0766 48.675L24.9203 44.0156C26.4297 42.5469 28.0375 39.8141 28.5782 37.7922L30.8282 29.3969C31.9649 25.1534 34.7407 21.5353 38.5451 19.3385C42.3494 17.1417 46.8706 16.5461 51.1141 17.6828C55.3576 18.8195 58.9757 21.5954 61.1725 25.3997C63.3693 29.2041 63.9649 33.7253 62.8282 37.9688L60.5782 46.3656C60.0438 48.3563 60.0547 51.5219 60.6 53.5531L62.4625 60.025C62.652 60.6815 62.6905 61.3723 62.5752 62.0458C62.46 62.7193 62.1939 63.358 61.7969 63.9141Z" fill="white"/>
<path d="M16.125 22.5547C15.7313 22.5547 15.3538 22.3983 15.0754 22.1199C14.797 21.8415 14.6406 21.464 14.6406 21.0703C14.6452 17.0479 16.2451 13.1915 19.0894 10.3472C21.9337 7.50291 25.7901 5.90299 29.8125 5.89844C30.2062 5.89844 30.5837 6.05483 30.8621 6.3332C31.1405 6.61158 31.2969 6.98913 31.2969 7.38281C31.2969 7.77649 31.1405 8.15405 30.8621 8.43242C30.5837 8.7108 30.2062 8.86719 29.8125 8.86719C26.5772 8.87091 23.4754 10.1578 21.1877 12.4455C18.9 14.7332 17.6131 17.835 17.6094 21.0703C17.6094 21.464 17.453 21.8415 17.1746 22.1199C16.8962 22.3983 16.5187 22.5547 16.125 22.5547Z" fill="white"/>
<path d="M23.5596 22.5547C23.1659 22.5547 22.7883 22.3983 22.51 22.1199C22.2316 21.8415 22.0752 21.464 22.0752 21.0703C22.0781 18.6884 23.0256 16.4049 24.7099 14.7206C26.3941 13.0363 28.6777 12.0888 31.0596 12.0859C31.4533 12.0859 31.8308 12.2423 32.1092 12.5207C32.3876 12.7991 32.5439 13.1766 32.5439 13.5703C32.5439 13.964 32.3876 14.3415 32.1092 14.6199C31.8308 14.8983 31.4533 15.0547 31.0596 15.0547C29.4646 15.0563 27.9355 15.6907 26.8077 16.8185C25.6799 17.9462 25.0456 19.4754 25.0439 21.0703C25.0439 21.464 24.8876 21.8415 24.6092 22.1199C24.3308 22.3983 23.9533 22.5547 23.5596 22.5547Z" fill="white"/>
</svg>
