<?xml version="1.0" encoding="UTF-8"?>
<svg height="600" width="800" xmlns="http://www.w3.org/2000/svg" xmlns:xlink="http://www.w3.org/1999/xlink">
    <g id="Notes" font-family="'LucidaGrande', 'Lucida Grande', sans-serif" font-size="13">
        <rect fill="white" height="600.0" width="800.0" x="0.0" y="0.0" />
        <g font-size="13">
            <text x="18.0" y="176.0">Small</text>
            <text x="18.0" y="376.0">Medium</text>
            <text x="18.0" y="576.0">Large</text>
        </g>
        <g font-size="9">
            <text x="250.0" y="30.0">Ultralight</text>
            <text x="450.0" y="30.0">Regular</text>
            <text x="650.0" y="30.0">Black</text>
            <text id="template-version" fill="#505050" text-anchor="end" x="785.0" y="575.0">Template v.3.0</text>
            <a href="https://github.com/swhitty/SwiftDraw">
                <text fill="#505050" text-anchor="end" x="785.0" y="590.0">https://github.com/swhitty/SwiftDraw</text>
            </a>
        </g>
    </g>
    <g id="Guides" stroke="rgb(39, 170, 225)" stroke-width="0.5">
        <path id="Capline-S" d="M18,76 l800,0" />
        <path id="H-reference" d="M85,145.755 L87.685,145.755 L113.369,79.287 L114.052,79.287 L114.052,76 L112.148,76 L85,145.755 Z M95.693,121.536 L130.996,121.536 L130.263,119.313 L96.474,119.313 L95.693,121.536 Z M139.15,145.755 L141.787,145.755 L114.638,76 L113.466,76 L113.466,79.287 L139.15,145.755 Z" stroke="none" />
        <path id="Baseline-S" d="M18,146 l800,0" />
        <path id="left-margin-Ultralight-S" d="M211,56 l0,110" />
        <path id="right-margin-Ultralight-S" d="M319,56 l0,110" />
        <path id="left-margin-Regular-S" d="M411,56 l0,110" />
        <path id="right-margin-Regular-S" d="M519,56 l0,110" />
        <path id="left-margin-Black-S" d="M611,56 l0,110" />
        <path id="right-margin-Black-S" d="M719,56 l0,110" />
        <path id="Capline-M" d="M18,276 l800,0" />
        <path id="Baseline-M" d="M18,346 l800,0" />
        <path id="Capline-L" d="M18,476 l800,0" />
        <path id="Baseline-L" d="M18,546 l800,0" />
    </g>
    <g id="Symbols">
        <g id="Ultralight-S">
            <path d="M264.996,112.122 C265.902,112.122 266.636,112.855 266.636,113.761 L266.636,119.282 C266.636,120.188 265.902,120.922 264.996,120.922 C264.091,120.922 263.357,120.188 263.357,119.282 L263.357,113.761 C263.357,112.855 264.091,112.122 264.996,112.122 Z" />
            <path d="M260.514,122.043 C260.514,119.566 262.522,117.557 265,117.557 C267.478,117.557 269.486,119.566 269.486,122.043 C269.486,124.521 267.478,126.529 265,126.529 C262.522,126.529 260.514,124.521 260.514,122.043 Z M265,121.008 C264.428,121.008 263.965,121.471 263.965,122.043 C263.965,122.615 264.428,123.078 265,123.078 C265.572,123.078 266.035,122.615 266.035,122.043 C266.035,121.471 265.572,121.008 265,121.008 Z" />
            <path d="M221,97.196 C221,96.243 221.773,95.471 222.725,95.471 L307.275,95.471 C308.228,95.471 309,96.243 309,97.196 L309,106.859 C309,107.812 308.228,108.584 307.275,108.584 L222.725,108.584 C221.773,108.584 221,107.812 221,106.859 L221,97.196 Z M224.451,98.922 L224.451,105.133 L305.549,105.133 L305.549,98.922 L224.451,98.922 Z" />
            <path d="M223.243,113.761 C223.243,112.808 224.016,112.035 224.969,112.035 L305.031,112.035 C305.984,112.035 306.757,112.808 306.757,113.761 C306.757,114.714 305.984,115.486 305.031,115.486 L224.969,115.486 C224.016,115.486 223.243,114.714 223.243,113.761 Z" />
            <path d="M226.694,106.859 C226.694,105.906 227.467,105.133 228.42,105.133 L301.58,105.133 C302.533,105.133 303.306,105.906 303.306,106.859 L303.306,113.761 C303.306,114.714 302.533,115.486 301.58,115.486 L228.42,115.486 C227.467,115.486 226.694,114.714 226.694,113.761 L226.694,106.859 Z M230.145,108.584 L230.145,112.035 L299.855,112.035 L299.855,108.584 L230.145,108.584 Z" />
        </g>
        <g id="Regular-S">
            <path d="M464.996,112.122 C465.902,112.122 466.636,112.855 466.636,113.761 L466.636,119.282 C466.636,120.188 465.902,120.922 464.996,120.922 C464.091,120.922 463.357,120.188 463.357,119.282 L463.357,113.761 C463.357,112.855 464.091,112.122 464.996,112.122 Z" />
            <path d="M460.514,122.043 C460.514,119.566 462.522,117.557 465,117.557 C467.478,117.557 469.486,119.566 469.486,122.043 C469.486,124.521 467.478,126.529 465,126.529 C462.522,126.529 460.514,124.521 460.514,122.043 Z M465,121.008 C464.428,121.008 463.965,121.471 463.965,122.043 C463.965,122.615 464.428,123.078 465,123.078 C465.572,123.078 466.035,122.615 466.035,122.043 C466.035,121.471 465.572,121.008 465,121.008 Z" />
            <path d="M421,97.196 C421,96.243 421.773,95.471 422.725,95.471 L507.275,95.471 C508.228,95.471 509,96.243 509,97.196 L509,106.859 C509,107.812 508.228,108.584 507.275,108.584 L422.725,108.584 C421.773,108.584 421,107.812 421,106.859 L421,97.196 Z M424.451,98.922 L424.451,105.133 L505.549,105.133 L505.549,98.922 L424.451,98.922 Z" />
            <path d="M423.243,113.761 C423.243,112.808 424.016,112.035 424.969,112.035 L505.031,112.035 C505.984,112.035 506.757,112.808 506.757,113.761 C506.757,114.714 505.984,115.486 505.031,115.486 L424.969,115.486 C424.016,115.486 423.243,114.714 423.243,113.761 Z" />
            <path d="M426.694,106.859 C426.694,105.906 427.467,105.133 428.42,105.133 L501.58,105.133 C502.533,105.133 503.306,105.906 503.306,106.859 L503.306,113.761 C503.306,114.714 502.533,115.486 501.58,115.486 L428.42,115.486 C427.467,115.486 426.694,114.714 426.694,113.761 L426.694,106.859 Z M430.145,108.584 L430.145,112.035 L499.855,112.035 L499.855,108.584 L430.145,108.584 Z" />
        </g>
        <g id="Black-S">
            <path d="M664.996,112.122 C665.902,112.122 666.636,112.855 666.636,113.761 L666.636,119.282 C666.636,120.188 665.902,120.922 664.996,120.922 C664.091,120.922 663.357,120.188 663.357,119.282 L663.357,113.761 C663.357,112.855 664.091,112.122 664.996,112.122 Z" />
            <path d="M660.514,122.043 C660.514,119.566 662.522,117.557 665,117.557 C667.478,117.557 669.486,119.566 669.486,122.043 C669.486,124.521 667.478,126.529 665,126.529 C662.522,126.529 660.514,124.521 660.514,122.043 Z M665,121.008 C664.428,121.008 663.965,121.471 663.965,122.043 C663.965,122.615 664.428,123.078 665,123.078 C665.572,123.078 666.035,122.615 666.035,122.043 C666.035,121.471 665.572,121.008 665,121.008 Z" />
            <path d="M621,97.196 C621,96.243 621.773,95.471 622.725,95.471 L707.275,95.471 C708.228,95.471 709,96.243 709,97.196 L709,106.859 C709,107.812 708.228,108.584 707.275,108.584 L622.725,108.584 C621.773,108.584 621,107.812 621,106.859 L621,97.196 Z M624.451,98.922 L624.451,105.133 L705.549,105.133 L705.549,98.922 L624.451,98.922 Z" />
            <path d="M623.243,113.761 C623.243,112.808 624.016,112.035 624.969,112.035 L705.031,112.035 C705.984,112.035 706.757,112.808 706.757,113.761 C706.757,114.714 705.984,115.486 705.031,115.486 L624.969,115.486 C624.016,115.486 623.243,114.714 623.243,113.761 Z" />
            <path d="M626.694,106.859 C626.694,105.906 627.467,105.133 628.42,105.133 L701.58,105.133 C702.533,105.133 703.306,105.906 703.306,106.859 L703.306,113.761 C703.306,114.714 702.533,115.486 701.58,115.486 L628.42,115.486 C627.467,115.486 626.694,114.714 626.694,113.761 L626.694,106.859 Z M630.145,108.584 L630.145,112.035 L699.855,112.035 L699.855,108.584 L630.145,108.584 Z" />
        </g>
    </g>
</svg>