<svg width="512" height="512" viewBox="0 0 512 512" fill="none" xmlns="http://www.w3.org/2000/svg">
<path d="M461.13 216.9L259.79 82.11C256.48 79.9 252.15 79.95 248.9 82.25C232.75 93.69 206.01 111.5 189.37 122.5V103.69C189.37 98.39 185.07 94.09 179.77 94.09H139.07C133.77 94.09 129.47 98.39 129.47 103.69V162.77L50.7702 216.97C47.3102 219.35 45.8002 223.71 47.0502 227.73C48.3002 231.74 52.0102 234.48 56.2202 234.48H94.5502V421.92C94.5502 427.22 98.8502 431.52 104.15 431.52H407.86C413.16 431.52 417.46 427.22 417.46 421.92V234.48H455.79C460.02 234.48 463.75 231.71 464.98 227.67C466.21 223.63 464.65 219.25 461.14 216.9H461.13ZM407.86 215.28C402.56 215.28 398.26 219.58 398.26 224.88V412.32H113.74V224.88C113.74 219.58 109.44 215.28 104.14 215.28H87.0702L144.5 175.73C147.1 173.94 148.65 170.98 148.65 167.82V113.29H170.15V140.31C170.15 143.84 172.08 147.08 175.18 148.76C178.28 150.44 182.05 150.28 185 148.35C185.46 148.05 228.52 119.85 254.55 101.73L424.17 215.29H407.83L407.86 215.28Z" fill="#B4B7BA"/>
<path d="M322.65 272.3H252.31C251.614 272.3 251.05 272.864 251.05 273.56V394.21C251.05 394.906 251.614 395.47 252.31 395.47H322.65C323.346 395.47 323.91 394.906 323.91 394.21V273.56C323.91 272.864 323.346 272.3 322.65 272.3Z" fill="#00D151"/>
</svg>
