<svg width="64" height="58" viewBox="0 0 64 58" fill="none" xmlns="http://www.w3.org/2000/svg">
<g clip-path="url(#clip0_5611_3322)">
<path d="M16.0332 47.6275C18.8588 47.6275 21.1495 46.039 21.1495 44.0794C21.1495 42.1199 18.8588 40.5313 16.0332 40.5313C13.2076 40.5313 10.917 42.1199 10.917 44.0794C10.917 46.039 13.2076 47.6275 16.0332 47.6275Z" fill="#FFE836"/>
<path d="M47.982 47.6275C50.8076 47.6275 53.0982 46.039 53.0982 44.0794C53.0982 42.1199 50.8076 40.5313 47.982 40.5313C45.1563 40.5313 42.8657 42.1199 42.8657 44.0794C42.8657 46.039 45.1563 47.6275 47.982 47.6275Z" fill="#FFE836"/>
<path d="M50.1049 57.2581C49.107 57.2581 48.1091 57.2581 47.0953 57.2581C46.24 57.2581 45.6381 56.7037 45.5747 55.8642C45.543 55.3574 45.543 55.3415 45.0362 55.3098C44.355 55.2465 43.6581 55.199 42.9611 55.1673C41.4564 55.1039 39.9674 55.0722 38.4627 55.0247C34.4077 54.9138 30.3527 54.9297 26.2819 54.9772C23.6208 55.0089 20.9597 55.0881 18.2987 55.3098C18.0294 55.3257 17.9185 55.4207 17.9344 55.7058C17.966 56.6404 17.1899 57.3056 16.3029 57.274C14.3387 57.2264 12.3746 57.2264 10.4263 57.274C9.57098 57.2898 8.88987 56.482 8.90571 55.7692C8.92155 54.4228 8.96907 53.0923 8.85819 51.7459C8.73147 50.257 8.62059 48.7522 8.49388 47.2632C8.383 45.7902 8.383 44.3329 8.50971 42.8598C8.58891 42.052 8.66811 41.2441 8.90571 40.468C9.25418 39.3592 9.72937 38.3138 10.6639 37.5693C10.854 37.4109 10.7748 37.3476 10.6006 37.2684C9.95113 36.9833 9.31754 36.6665 8.88987 36.0804C8.28796 35.2409 8.31964 34.7023 9.33338 34.1479C10.062 33.7361 10.8857 33.6411 11.7093 33.5302C12.1845 33.4668 12.6597 33.451 13.1349 33.4035C13.42 33.3718 13.6259 33.4668 13.8002 33.7044C13.9586 33.9103 14.117 34.1004 14.2754 34.3063C14.4021 34.4964 14.4971 34.4806 14.5763 34.2588C14.8773 33.4193 15.2258 32.6115 15.6059 31.8195C16.287 30.3781 16.984 28.9367 17.966 27.6695C18.5204 26.9567 19.2649 26.4973 20.1519 26.3231C22.3695 25.8796 24.6029 25.5628 26.8521 25.4044C28.5153 25.2935 30.1626 25.1668 31.8258 25.1668C35.5798 25.1668 39.3022 25.547 43.0087 26.2281C44.3392 26.4657 45.3371 27.1943 46.0499 28.3189C47.2062 30.1405 48.1249 32.0888 48.901 34.1004C48.9327 34.1638 48.9486 34.243 48.9802 34.3063C49.0436 34.4806 49.1386 34.4806 49.2495 34.338C49.4238 34.1163 49.598 33.8787 49.7722 33.6569C49.8831 33.5144 50.0098 33.4193 50.1999 33.4193C51.5146 33.4827 52.8135 33.5777 54.049 34.0846C54.1123 34.1163 54.1598 34.1321 54.2232 34.1638C55.0627 34.6073 55.2369 35.2567 54.6826 36.0329C54.2549 36.6348 53.6213 36.9833 52.9719 37.2684C52.6392 37.4109 52.6392 37.4109 52.8927 37.6327C54.0331 38.6147 54.54 39.9295 54.7934 41.3709C55.1261 43.2558 55.1261 45.1566 55.0152 47.0732C54.8568 49.956 54.445 52.823 54.5875 55.7217C54.6192 56.3077 54.3816 56.7513 53.9064 57.0839C53.7005 57.2264 53.4787 57.3056 53.2253 57.3056C52.1957 57.2423 51.1503 57.2423 50.1049 57.2581C50.1049 57.2423 50.1049 57.2423 50.1049 57.2581ZM31.3981 27.6061C30.9229 27.6536 30.0993 27.6061 29.2756 27.6537C28.4836 27.7012 27.7075 27.7487 26.9155 27.812C25.0147 27.9546 23.1298 28.2714 21.2449 28.5407C20.5004 28.6516 19.9143 28.9208 19.5183 29.5861C18.5204 31.2334 17.6809 32.9441 16.984 34.734C16.8731 35.0191 16.9048 35.0508 17.2057 35.0191C18.3462 34.8766 19.4867 34.7974 20.643 34.7499C22.5437 34.6707 24.4445 34.5756 26.3611 34.5598C29.8458 34.5281 33.3306 34.4964 36.8153 34.5915C38.6527 34.639 40.506 34.6548 42.3434 34.734C43.6581 34.7974 44.9728 34.8766 46.2875 35.0191C46.6201 35.0508 46.6676 35.0191 46.5409 34.7182C45.939 33.15 45.1787 31.6611 44.3867 30.188C43.8482 29.2059 43.1354 28.6832 41.9949 28.4932C38.5894 27.9546 35.1838 27.6061 31.3981 27.6061ZM16.1603 46.5505C16.8573 46.5346 17.5542 46.5663 18.2353 46.5346C19.1699 46.4871 19.5817 45.8377 19.2807 44.9665C18.9639 44.0795 18.3145 43.5726 17.4116 43.4142C15.9544 43.1608 14.4813 42.9548 13.0082 42.8281C12.0261 42.7489 11.5351 43.3983 11.7885 44.3329C11.8677 44.618 11.9945 44.8714 12.1053 45.1407C12.533 46.0753 13.2616 46.5346 14.2754 46.5505C14.8931 46.5663 15.5267 46.5505 16.1603 46.5505ZM47.3804 46.5663C47.3804 46.5505 47.3804 46.5505 47.3804 46.5663C47.9348 46.5663 48.4892 46.5663 49.0436 46.5663C49.2337 46.5663 49.4238 46.5505 49.6138 46.5346C50.9602 46.3921 51.6255 45.109 51.768 44.0478C51.8789 43.2875 51.5304 42.9073 50.7701 42.8281C50.6276 42.8123 50.4692 42.8281 50.3266 42.844C49.8514 42.8915 49.3762 42.939 48.901 43.0024C47.919 43.1449 46.9211 43.2083 45.9707 43.4459C45.1153 43.6518 44.5451 44.1745 44.26 45.014C44.0066 45.7902 44.355 46.3921 45.1629 46.5346C45.3529 46.5663 45.543 46.5663 45.7331 46.5821C46.2716 46.5663 46.826 46.5663 47.3804 46.5663ZM46.5409 48.2928C45.8123 48.2928 45.0678 48.2928 44.3392 48.2928C44.1174 48.2928 43.8957 48.3245 43.6898 48.4512C43.2304 48.7363 43.2463 49.3066 43.7056 49.56C43.8957 49.6709 44.1174 49.7342 44.355 49.7342C45.8123 49.7342 47.2696 49.7501 48.7268 49.7342C49.0278 49.7342 49.3129 49.6551 49.5505 49.4491C49.8831 49.1482 49.8673 48.768 49.4871 48.5146C49.2654 48.372 49.0278 48.2928 48.7585 48.2928C48.0299 48.2928 47.2854 48.2928 46.5409 48.2928ZM16.9681 48.277C16.2712 48.277 15.5901 48.277 14.8931 48.277C14.6714 48.277 14.4496 48.2928 14.2437 48.4037C13.9903 48.5146 13.8319 48.7047 13.816 48.9898C13.8002 49.2907 13.9744 49.465 14.212 49.5917C14.4179 49.6867 14.6397 49.7501 14.8615 49.7501C16.287 49.7501 17.7126 49.7501 19.1382 49.7501C19.4391 49.7501 19.7084 49.655 19.946 49.4967C20.3262 49.2274 20.3262 48.8155 19.946 48.5463C19.6767 48.3562 19.3599 48.2928 19.0431 48.2928C18.362 48.277 17.6651 48.277 16.9681 48.277Z" fill="#282828"/>
<path d="M31.9996 0.694397C32.0788 0.710237 32.1421 0.741916 32.2213 0.757756C38.478 2.67436 44.7189 4.59097 50.9756 6.49174C55.189 7.77476 59.4023 9.07362 63.6315 10.3566C64.0434 10.4834 64.0434 10.4834 63.9483 10.911C63.7266 11.8456 63.5048 12.7801 63.2989 13.7147C63.2355 13.9998 63.1247 14.0473 62.8554 13.9523C56.1393 11.8931 49.4233 9.83393 42.6914 7.77476C39.2225 6.7135 35.7694 5.66808 32.3005 4.60681C32.0788 4.54345 31.8887 4.54345 31.6828 4.60681C27.3902 5.92151 23.0818 7.23621 18.7892 8.55091C12.8968 10.3566 7.0203 12.1465 1.12792 13.9523C0.890322 14.0315 0.763604 13.9998 0.700245 13.7305C0.478489 12.7484 0.256732 11.7822 0.0191364 10.8002C-0.0442226 10.5309 0.0508154 10.4517 0.288411 10.3725C2.61685 9.67553 4.92945 8.96274 7.2579 8.24995C11.8356 6.85606 16.3974 5.46216 20.9751 4.05242C24.5866 2.94364 28.1822 1.8507 31.7937 0.741915C31.857 0.741915 31.9362 0.710237 31.9996 0.694397Z" fill="#282828"/>
<path d="M31.8094 14.8235C41.7409 14.8235 51.6724 14.8235 61.604 14.8235C61.7148 14.8235 61.8257 14.8393 61.9208 14.8235C62.2059 14.7918 62.3009 14.9027 62.3009 15.2036C62.2851 17.1836 62.3009 19.1635 62.3009 21.1435C62.3009 21.983 62.2851 22.8225 62.3009 23.662C62.3009 23.9313 62.2059 24.0263 61.9524 24.0105C61.8732 23.9947 61.7782 24.0105 61.699 24.0105C41.7568 24.0105 21.8145 24.0105 1.85646 24.0105C1.19119 24.0105 1.25455 24.0739 1.25455 23.4086C1.25455 20.7 1.25455 17.9914 1.25455 15.2828C1.25455 14.8076 1.25455 14.8076 1.72974 14.8076C11.7563 14.8235 21.7829 14.8235 31.8094 14.8235ZM31.7461 22.3632C41.2341 22.3632 50.7379 22.3632 60.2259 22.3632C60.6536 22.3632 60.6536 22.3632 60.6536 21.9513C60.6536 20.2565 60.6536 18.5616 60.6536 16.8668C60.6536 16.5658 60.5902 16.4549 60.2734 16.4549C41.2816 16.4549 22.2739 16.4549 3.28204 16.4549C2.96524 16.4549 2.88604 16.5658 2.90188 16.8668C2.91772 18.5458 2.90188 20.209 2.90188 21.888C2.90188 22.3632 2.90188 22.3632 3.39292 22.3632C12.8492 22.3632 22.2897 22.3632 31.7461 22.3632Z" fill="#282828"/>
<path d="M5.51544 41.1491C5.51544 46.3604 5.51544 51.5716 5.51544 56.7829C5.51544 57.2581 5.51544 57.2581 5.04025 57.2581C4.24827 57.2581 3.44044 57.2423 2.64845 57.2581C2.3475 57.2581 2.2683 57.1631 2.2683 56.8779C2.28414 54.2644 2.2683 51.635 2.2683 49.0214C2.2683 41.2283 2.2683 33.4193 2.2683 25.6261C2.2683 25.5153 2.2683 25.3885 2.2683 25.2777C2.25246 25.0718 2.3475 24.9926 2.55341 24.9926C3.44044 24.9926 4.34331 24.9926 5.23033 24.9926C5.43625 24.9926 5.51544 25.0718 5.51544 25.2777C5.51544 25.3885 5.51544 25.4836 5.51544 25.5945C5.51544 30.7741 5.51544 35.9695 5.51544 41.1491Z" fill="#282828"/>
<path d="M58.1511 41.1174C58.1511 35.8903 58.1511 30.679 58.1511 25.4519C58.1511 24.9767 58.1511 24.9767 58.6263 24.9767C59.4183 24.9767 60.2261 24.9926 61.0181 24.9767C61.3191 24.9767 61.3983 25.0718 61.3983 25.3569C61.3824 27.4636 61.3983 29.5702 61.3983 31.6928C61.3983 40.0086 61.3983 48.3087 61.3983 56.6245C61.3983 56.7354 61.3983 56.8621 61.3983 56.973C61.4141 57.1789 61.3349 57.2581 61.1131 57.2581C60.2261 57.2581 59.3233 57.2581 58.4362 57.2581C58.2303 57.2581 58.1353 57.1789 58.1511 56.973C58.1511 56.8621 58.1511 56.7671 58.1511 56.6562C58.1511 51.4766 58.1511 46.297 58.1511 41.1174Z" fill="#282828"/>
</g>
<defs>
<clipPath id="clip0_5611_3322">
<rect width="64" height="58" fill="white"/>
</clipPath>
</defs>
</svg>
