<svg width="64" height="64" viewBox="0 0 64 64" fill="none" xmlns="http://www.w3.org/2000/svg">
<path d="M16.0332 50.6275C18.8588 50.6275 21.1495 49.039 21.1495 47.0794C21.1495 45.1199 18.8588 43.5313 16.0332 43.5313C13.2076 43.5313 10.917 45.1199 10.917 47.0794C10.917 49.039 13.2076 50.6275 16.0332 50.6275Z" fill="#FFE836"/>
<path d="M47.982 50.6275C50.8076 50.6275 53.0982 49.039 53.0982 47.0794C53.0982 45.1199 50.8076 43.5313 47.982 43.5313C45.1563 43.5313 42.8657 45.1199 42.8657 47.0794C42.8657 49.039 45.1563 50.6275 47.982 50.6275Z" fill="#FFE836"/>
<path d="M50.1049 60.2581C49.107 60.2581 48.1091 60.2581 47.0953 60.2581C46.24 60.2581 45.6381 59.7037 45.5747 58.8642C45.543 58.3574 45.543 58.3415 45.0362 58.3098C44.355 58.2465 43.6581 58.199 42.9611 58.1673C41.4564 58.1039 39.9674 58.0722 38.4627 58.0247C34.4077 57.9138 30.3527 57.9297 26.2819 57.9772C23.6208 58.0089 20.9597 58.0881 18.2987 58.3098C18.0294 58.3257 17.9185 58.4207 17.9344 58.7058C17.966 59.6404 17.1899 60.3056 16.3029 60.274C14.3387 60.2264 12.3746 60.2264 10.4263 60.274C9.57098 60.2898 8.88987 59.482 8.90571 58.7692C8.92155 57.4228 8.96907 56.0923 8.85819 54.7459C8.73147 53.257 8.62059 51.7522 8.49388 50.2632C8.383 48.7902 8.383 47.3329 8.50971 45.8598C8.58891 45.052 8.66811 44.2441 8.90571 43.468C9.25418 42.3592 9.72937 41.3138 10.6639 40.5693C10.854 40.4109 10.7748 40.3476 10.6006 40.2684C9.95113 39.9833 9.31754 39.6665 8.88987 39.0804C8.28796 38.2409 8.31964 37.7023 9.33338 37.1479C10.062 36.7361 10.8857 36.6411 11.7093 36.5302C12.1845 36.4668 12.6597 36.451 13.1349 36.4035C13.42 36.3718 13.6259 36.4668 13.8002 36.7044C13.9586 36.9103 14.117 37.1004 14.2754 37.3063C14.4021 37.4964 14.4971 37.4806 14.5763 37.2588C14.8773 36.4193 15.2258 35.6115 15.6059 34.8195C16.287 33.3781 16.984 31.9367 17.966 30.6695C18.5204 29.9567 19.2649 29.4973 20.1519 29.3231C22.3695 28.8796 24.6029 28.5628 26.8521 28.4044C28.5153 28.2935 30.1626 28.1668 31.8258 28.1668C35.5798 28.1668 39.3022 28.547 43.0087 29.2281C44.3392 29.4657 45.3371 30.1943 46.0499 31.3189C47.2062 33.1405 48.1249 35.0888 48.901 37.1004C48.9327 37.1638 48.9486 37.243 48.9802 37.3063C49.0436 37.4806 49.1386 37.4806 49.2495 37.338C49.4238 37.1163 49.598 36.8787 49.7722 36.6569C49.8831 36.5144 50.0098 36.4193 50.1999 36.4193C51.5146 36.4827 52.8135 36.5777 54.049 37.0846C54.1123 37.1163 54.1598 37.1321 54.2232 37.1638C55.0627 37.6073 55.2369 38.2567 54.6826 39.0329C54.2549 39.6348 53.6213 39.9833 52.9719 40.2684C52.6392 40.4109 52.6392 40.4109 52.8927 40.6327C54.0331 41.6147 54.54 42.9295 54.7934 44.3709C55.1261 46.2558 55.1261 48.1566 55.0152 50.0732C54.8568 52.956 54.445 55.823 54.5875 58.7217C54.6192 59.3077 54.3816 59.7513 53.9064 60.0839C53.7005 60.2264 53.4787 60.3056 53.2253 60.3056C52.1957 60.2423 51.1503 60.2423 50.1049 60.2581C50.1049 60.2423 50.1049 60.2423 50.1049 60.2581ZM31.3981 30.6061C30.9229 30.6536 30.0993 30.6061 29.2756 30.6537C28.4836 30.7012 27.7075 30.7487 26.9155 30.812C25.0147 30.9546 23.1298 31.2714 21.2449 31.5407C20.5004 31.6516 19.9143 31.9208 19.5183 32.5861C18.5204 34.2334 17.6809 35.9441 16.984 37.734C16.8731 38.0191 16.9048 38.0508 17.2057 38.0191C18.3462 37.8766 19.4867 37.7974 20.643 37.7499C22.5437 37.6707 24.4445 37.5756 26.3611 37.5598C29.8458 37.5281 33.3306 37.4964 36.8153 37.5915C38.6527 37.639 40.506 37.6548 42.3434 37.734C43.6581 37.7974 44.9728 37.8766 46.2875 38.0191C46.6201 38.0508 46.6676 38.0191 46.5409 37.7182C45.939 36.15 45.1787 34.6611 44.3867 33.188C43.8482 32.2059 43.1354 31.6832 41.9949 31.4932C38.5894 30.9546 35.1838 30.6061 31.3981 30.6061ZM16.1603 49.5505C16.8573 49.5346 17.5542 49.5663 18.2353 49.5346C19.1699 49.4871 19.5817 48.8377 19.2807 47.9665C18.9639 47.0795 18.3145 46.5726 17.4116 46.4142C15.9544 46.1608 14.4813 45.9548 13.0082 45.8281C12.0261 45.7489 11.5351 46.3983 11.7885 47.3329C11.8677 47.618 11.9945 47.8714 12.1053 48.1407C12.533 49.0753 13.2616 49.5346 14.2754 49.5505C14.8931 49.5663 15.5267 49.5505 16.1603 49.5505ZM47.3804 49.5663C47.3804 49.5505 47.3804 49.5505 47.3804 49.5663C47.9348 49.5663 48.4892 49.5663 49.0436 49.5663C49.2337 49.5663 49.4238 49.5505 49.6138 49.5346C50.9602 49.3921 51.6255 48.109 51.768 47.0478C51.8789 46.2875 51.5304 45.9073 50.7701 45.8281C50.6276 45.8123 50.4692 45.8281 50.3266 45.844C49.8514 45.8915 49.3762 45.939 48.901 46.0024C47.919 46.1449 46.9211 46.2083 45.9707 46.4459C45.1153 46.6518 44.5451 47.1745 44.26 48.014C44.0066 48.7902 44.355 49.3921 45.1629 49.5346C45.3529 49.5663 45.543 49.5663 45.7331 49.5821C46.2716 49.5663 46.826 49.5663 47.3804 49.5663ZM46.5409 51.2928C45.8123 51.2928 45.0678 51.2928 44.3392 51.2928C44.1174 51.2928 43.8957 51.3245 43.6898 51.4512C43.2304 51.7363 43.2463 52.3066 43.7056 52.56C43.8957 52.6709 44.1174 52.7342 44.355 52.7342C45.8123 52.7342 47.2696 52.7501 48.7268 52.7342C49.0278 52.7342 49.3129 52.6551 49.5505 52.4491C49.8831 52.1482 49.8673 51.768 49.4871 51.5146C49.2654 51.372 49.0278 51.2928 48.7585 51.2928C48.0299 51.2928 47.2854 51.2928 46.5409 51.2928ZM16.9681 51.277C16.2712 51.277 15.5901 51.277 14.8931 51.277C14.6714 51.277 14.4496 51.2928 14.2437 51.4037C13.9903 51.5146 13.8319 51.7047 13.816 51.9898C13.8002 52.2907 13.9744 52.465 14.212 52.5917C14.4179 52.6867 14.6397 52.7501 14.8615 52.7501C16.287 52.7501 17.7126 52.7501 19.1382 52.7501C19.4391 52.7501 19.7084 52.655 19.946 52.4967C20.3262 52.2274 20.3262 51.8155 19.946 51.5463C19.6767 51.3562 19.3599 51.2928 19.0431 51.2928C18.362 51.277 17.6651 51.277 16.9681 51.277Z" fill="#282828"/>
<path d="M31.9996 3.6944C32.0788 3.71024 32.1421 3.74192 32.2213 3.75776C38.478 5.67436 44.7189 7.59097 50.9756 9.49174C55.189 10.7748 59.4023 12.0736 63.6315 13.3566C64.0434 13.4834 64.0434 13.4834 63.9483 13.911C63.7266 14.8456 63.5048 15.7801 63.2989 16.7147C63.2355 16.9998 63.1247 17.0473 62.8554 16.9523C56.1393 14.8931 49.4233 12.8339 42.6914 10.7748C39.2225 9.7135 35.7694 8.66808 32.3005 7.60681C32.0788 7.54345 31.8887 7.54345 31.6828 7.60681C27.3902 8.92151 23.0818 10.2362 18.7892 11.5509C12.8968 13.3566 7.0203 15.1465 1.12792 16.9523C0.890322 17.0315 0.763604 16.9998 0.700245 16.7305C0.478489 15.7484 0.256732 14.7822 0.0191364 13.8002C-0.0442226 13.5309 0.0508154 13.4517 0.288411 13.3725C2.61685 12.6755 4.92945 11.9627 7.2579 11.25C11.8356 9.85606 16.3974 8.46216 20.9751 7.05242C24.5866 5.94364 28.1822 4.8507 31.7937 3.74192C31.857 3.74192 31.9362 3.71024 31.9996 3.6944Z" fill="#282828"/>
<path d="M31.8094 17.8235C41.7409 17.8235 51.6724 17.8235 61.604 17.8235C61.7148 17.8235 61.8257 17.8393 61.9208 17.8235C62.2059 17.7918 62.3009 17.9027 62.3009 18.2036C62.2851 20.1836 62.3009 22.1635 62.3009 24.1435C62.3009 24.983 62.2851 25.8225 62.3009 26.662C62.3009 26.9313 62.2059 27.0263 61.9524 27.0105C61.8732 26.9947 61.7782 27.0105 61.699 27.0105C41.7568 27.0105 21.8145 27.0105 1.85646 27.0105C1.19119 27.0105 1.25455 27.0739 1.25455 26.4086C1.25455 23.7 1.25455 20.9914 1.25455 18.2828C1.25455 17.8076 1.25455 17.8076 1.72974 17.8076C11.7563 17.8235 21.7829 17.8235 31.8094 17.8235ZM31.7461 25.3632C41.2341 25.3632 50.7379 25.3632 60.2259 25.3632C60.6536 25.3632 60.6536 25.3632 60.6536 24.9513C60.6536 23.2565 60.6536 21.5616 60.6536 19.8668C60.6536 19.5658 60.5902 19.4549 60.2734 19.4549C41.2816 19.4549 22.2739 19.4549 3.28204 19.4549C2.96524 19.4549 2.88604 19.5658 2.90188 19.8668C2.91772 21.5458 2.90188 23.209 2.90188 24.888C2.90188 25.3632 2.90188 25.3632 3.39292 25.3632C12.8492 25.3632 22.2897 25.3632 31.7461 25.3632Z" fill="#282828"/>
<path d="M5.51544 44.1491C5.51544 49.3604 5.51544 54.5716 5.51544 59.7829C5.51544 60.2581 5.51544 60.2581 5.04025 60.2581C4.24827 60.2581 3.44044 60.2423 2.64845 60.2581C2.3475 60.2581 2.2683 60.1631 2.2683 59.8779C2.28414 57.2644 2.2683 54.635 2.2683 52.0214C2.2683 44.2283 2.2683 36.4193 2.2683 28.6261C2.2683 28.5153 2.2683 28.3885 2.2683 28.2777C2.25246 28.0718 2.3475 27.9926 2.55341 27.9926C3.44044 27.9926 4.34331 27.9926 5.23033 27.9926C5.43625 27.9926 5.51544 28.0718 5.51544 28.2777C5.51544 28.3885 5.51544 28.4836 5.51544 28.5945C5.51544 33.7741 5.51544 38.9695 5.51544 44.1491Z" fill="#282828"/>
<path d="M58.1511 44.1174C58.1511 38.8903 58.1511 33.679 58.1511 28.4519C58.1511 27.9767 58.1511 27.9767 58.6263 27.9767C59.4183 27.9767 60.2261 27.9926 61.0181 27.9767C61.3191 27.9767 61.3983 28.0718 61.3983 28.3569C61.3824 30.4636 61.3983 32.5702 61.3983 34.6928C61.3983 43.0086 61.3983 51.3087 61.3983 59.6245C61.3983 59.7354 61.3983 59.8621 61.3983 59.973C61.4141 60.1789 61.3349 60.2581 61.1131 60.2581C60.2261 60.2581 59.3233 60.2581 58.4362 60.2581C58.2303 60.2581 58.1353 60.1789 58.1511 59.973C58.1511 59.8621 58.1511 59.7671 58.1511 59.6562C58.1511 54.4766 58.1511 49.297 58.1511 44.1174Z" fill="#282828"/>
</svg>
