<svg width="64" height="64" viewBox="0 0 64 64" fill="none" xmlns="http://www.w3.org/2000/svg">
<path d="M19.3749 46.9625C21.6048 46.9625 23.4124 45.7089 23.4124 44.1625C23.4124 42.6161 21.6048 41.3625 19.3749 41.3625C17.1451 41.3625 15.3374 42.6161 15.3374 44.1625C15.3374 45.7089 17.1451 46.9625 19.3749 46.9625Z" fill="#FFE836"/>
<path d="M44.5873 46.9625C46.8172 46.9625 48.6248 45.7089 48.6248 44.1625C48.6248 42.6161 46.8172 41.3625 44.5873 41.3625C42.3575 41.3625 40.5498 42.6161 40.5498 44.1625C40.5498 45.7089 42.3575 46.9625 44.5873 46.9625Z" fill="#FFE836"/>
<path d="M46.2625 54.5625C45.475 54.5625 44.6875 54.5625 43.8875 54.5625C43.2125 54.5625 42.7375 54.125 42.6875 53.4625C42.6625 53.0625 42.6625 53.05 42.2625 53.025C41.725 52.975 41.175 52.9375 40.625 52.9125C39.4375 52.8625 38.2625 52.8375 37.075 52.8C33.875 52.7125 30.675 52.725 27.4625 52.7625C25.3625 52.7875 23.2625 52.85 21.1625 53.025C20.95 53.0375 20.8625 53.1125 20.875 53.3375C20.9 54.075 20.2875 54.6 19.5875 54.575C18.0375 54.5375 16.4875 54.5375 14.95 54.575C14.275 54.5875 13.7375 53.95 13.75 53.3875C13.7625 52.325 13.8 51.275 13.7125 50.2125C13.6125 49.0375 13.525 47.85 13.425 46.675C13.3375 45.5125 13.3375 44.3625 13.4375 43.2C13.5 42.5625 13.5625 41.925 13.75 41.3125C14.025 40.4375 14.4 39.6125 15.1375 39.025C15.2875 38.9 15.225 38.85 15.0875 38.7875C14.575 38.5625 14.075 38.3125 13.7375 37.85C13.2625 37.1875 13.2875 36.7625 14.0875 36.325C14.6625 36 15.3125 35.925 15.9625 35.8375C16.3375 35.7875 16.7125 35.775 17.0875 35.7375C17.3125 35.7125 17.475 35.7875 17.6125 35.975C17.7375 36.1375 17.8625 36.2875 17.9875 36.45C18.0875 36.6 18.1625 36.5875 18.225 36.4125C18.4625 35.75 18.7375 35.1125 19.0375 34.4875C19.575 33.35 20.125 32.2125 20.9 31.2125C21.3375 30.65 21.925 30.2875 22.625 30.15C24.375 29.8 26.1375 29.55 27.9125 29.425C29.225 29.3375 30.525 29.2375 31.8375 29.2375C34.8 29.2375 37.7375 29.5375 40.6625 30.075C41.7125 30.2625 42.5 30.8375 43.0625 31.725C43.975 33.1625 44.7 34.7 45.3125 36.2875C45.3375 36.3375 45.35 36.4 45.375 36.45C45.425 36.5875 45.5 36.5875 45.5875 36.475C45.725 36.3 45.8625 36.1125 46 35.9375C46.0875 35.825 46.1875 35.75 46.3375 35.75C47.375 35.8 48.4 35.875 49.375 36.275C49.425 36.3 49.4625 36.3125 49.5125 36.3375C50.175 36.6875 50.3125 37.2 49.875 37.8125C49.5375 38.2875 49.0375 38.5625 48.525 38.7875C48.2625 38.9 48.2625 38.9 48.4625 39.075C49.3625 39.85 49.7625 40.8875 49.9625 42.025C50.225 43.5125 50.225 45.0125 50.1375 46.525C50.0125 48.8 49.6875 51.0625 49.8 53.35C49.825 53.8125 49.6375 54.1625 49.2625 54.425C49.1 54.5375 48.925 54.6 48.725 54.6C47.9125 54.55 47.0875 54.55 46.2625 54.5625C46.2625 54.55 46.2625 54.55 46.2625 54.5625ZM31.5 31.1625C31.125 31.2 30.475 31.1625 29.825 31.2C29.2 31.2375 28.5875 31.275 27.9625 31.325C26.4625 31.4375 24.975 31.6875 23.4875 31.9C22.9 31.9875 22.4375 32.2 22.125 32.725C21.3375 34.025 20.675 35.375 20.125 36.7875C20.0375 37.0125 20.0625 37.0375 20.3 37.0125C21.2 36.9 22.1 36.8375 23.0125 36.8C24.5125 36.7375 26.0125 36.6625 27.525 36.65C30.275 36.625 33.025 36.6 35.775 36.675C37.225 36.7125 38.6875 36.725 40.1375 36.7875C41.175 36.8375 42.2125 36.9 43.25 37.0125C43.5125 37.0375 43.55 37.0125 43.45 36.775C42.975 35.5375 42.375 34.3625 41.75 33.2C41.325 32.425 40.7625 32.0125 39.8625 31.8625C37.175 31.4375 34.4875 31.1625 31.5 31.1625ZM19.475 46.1125C20.025 46.1 20.575 46.125 21.1125 46.1C21.85 46.0625 22.175 45.55 21.9375 44.8625C21.6875 44.1625 21.175 43.7625 20.4625 43.6375C19.3125 43.4375 18.15 43.275 16.9875 43.175C16.2125 43.1125 15.825 43.625 16.025 44.3625C16.0875 44.5875 16.1875 44.7875 16.275 45C16.6125 45.7375 17.1875 46.1 17.9875 46.1125C18.475 46.125 18.975 46.1125 19.475 46.1125ZM44.1125 46.125C44.1125 46.1125 44.1125 46.1125 44.1125 46.125C44.55 46.125 44.9875 46.125 45.425 46.125C45.575 46.125 45.725 46.1125 45.875 46.1C46.9375 45.9875 47.4625 44.975 47.575 44.1375C47.6625 43.5375 47.3875 43.2375 46.7875 43.175C46.675 43.1625 46.55 43.175 46.4375 43.1875C46.0625 43.225 45.6875 43.2625 45.3125 43.3125C44.5375 43.425 43.75 43.475 43 43.6625C42.325 43.825 41.875 44.2375 41.65 44.9C41.45 45.5125 41.725 45.9875 42.3625 46.1C42.5125 46.125 42.6625 46.125 42.8125 46.1375C43.2375 46.125 43.675 46.125 44.1125 46.125ZM43.45 47.4875C42.875 47.4875 42.2875 47.4875 41.7125 47.4875C41.5375 47.4875 41.3625 47.5125 41.2 47.6125C40.8375 47.8375 40.85 48.2875 41.2125 48.4875C41.3625 48.575 41.5375 48.625 41.725 48.625C42.875 48.625 44.025 48.6375 45.175 48.625C45.4125 48.625 45.6375 48.5625 45.825 48.4C46.0875 48.1625 46.075 47.8625 45.775 47.6625C45.6 47.55 45.4125 47.4875 45.2 47.4875C44.625 47.4875 44.0375 47.4875 43.45 47.4875ZM20.1125 47.475C19.5625 47.475 19.025 47.475 18.475 47.475C18.3 47.475 18.125 47.4875 17.9625 47.575C17.7625 47.6625 17.6375 47.8125 17.625 48.0375C17.6125 48.275 17.75 48.4125 17.9375 48.5125C18.1 48.5875 18.275 48.6375 18.45 48.6375C19.575 48.6375 20.7 48.6375 21.825 48.6375C22.0625 48.6375 22.275 48.5625 22.4625 48.4375C22.7625 48.225 22.7625 47.9 22.4625 47.6875C22.25 47.5375 22 47.4875 21.75 47.4875C21.2125 47.475 20.6625 47.475 20.1125 47.475Z" fill="#FCFCFC"/>
<path d="M31.9748 9.92499C32.0373 9.93749 32.0873 9.96249 32.1498 9.97499C37.0873 11.4875 42.0123 13 46.9498 14.5C50.2748 15.5125 53.5998 16.5375 56.9373 17.55C57.2623 17.65 57.2623 17.65 57.1873 17.9875C57.0123 18.725 56.8373 19.4625 56.6748 20.2C56.6248 20.425 56.5373 20.4625 56.3248 20.3875C51.0248 18.7625 45.7248 17.1375 40.4123 15.5125C37.6748 14.675 34.9498 13.85 32.2123 13.0125C32.0373 12.9625 31.8873 12.9625 31.7248 13.0125C28.3373 14.05 24.9373 15.0875 21.5498 16.125C16.8998 17.55 12.2623 18.9625 7.61227 20.3875C7.42477 20.45 7.32477 20.425 7.27477 20.2125C7.09977 19.4375 6.92477 18.675 6.73727 17.9C6.68727 17.6875 6.76227 17.625 6.94977 17.5625C8.78727 17.0125 10.6123 16.45 12.4498 15.8875C16.0623 14.7875 19.6623 13.6875 23.2748 12.575C26.1248 11.7 28.9623 10.8375 31.8123 9.96249C31.8623 9.96249 31.9248 9.93749 31.9748 9.92499Z" fill="#FCFCFC"/>
<path d="M31.8247 21.075C39.6622 21.075 47.4997 21.075 55.3372 21.075C55.4247 21.075 55.5122 21.0875 55.5872 21.075C55.8122 21.05 55.8872 21.1375 55.8872 21.375C55.8747 22.9375 55.8872 24.5 55.8872 26.0625C55.8872 26.725 55.8747 27.3875 55.8872 28.05C55.8872 28.2625 55.8122 28.3375 55.6122 28.325C55.5497 28.3125 55.4747 28.325 55.4122 28.325C39.6747 28.325 23.9372 28.325 8.18722 28.325C7.66222 28.325 7.71222 28.375 7.71222 27.85C7.71222 25.7125 7.71222 23.575 7.71222 21.4375C7.71222 21.0625 7.71222 21.0625 8.08722 21.0625C15.9997 21.075 23.9122 21.075 31.8247 21.075ZM31.7747 27.025C39.2622 27.025 46.7622 27.025 54.2497 27.025C54.5872 27.025 54.5872 27.025 54.5872 26.7C54.5872 25.3625 54.5872 24.025 54.5872 22.6875C54.5872 22.45 54.5372 22.3625 54.2872 22.3625C39.2997 22.3625 24.2997 22.3625 9.31222 22.3625C9.06222 22.3625 8.99972 22.45 9.01222 22.6875C9.02472 24.0125 9.01222 25.325 9.01222 26.65C9.01222 27.025 9.01222 27.025 9.39972 27.025C16.8622 27.025 24.3122 27.025 31.7747 27.025Z" fill="#FCFCFC"/>
<path d="M11.0746 41.85C11.0746 45.9625 11.0746 50.075 11.0746 54.1875C11.0746 54.5625 11.0746 54.5625 10.6996 54.5625C10.0746 54.5625 9.43708 54.55 8.81208 54.5625C8.57458 54.5625 8.51208 54.4875 8.51208 54.2625C8.52458 52.2 8.51208 50.125 8.51208 48.0625C8.51208 41.9125 8.51208 35.75 8.51208 29.6C8.51208 29.5125 8.51208 29.4125 8.51208 29.325C8.49958 29.1625 8.57458 29.1 8.73708 29.1C9.43708 29.1 10.1496 29.1 10.8496 29.1C11.0121 29.1 11.0746 29.1625 11.0746 29.325C11.0746 29.4125 11.0746 29.4875 11.0746 29.575C11.0746 33.6625 11.0746 37.7625 11.0746 41.85Z" fill="#FCFCFC"/>
<path d="M52.6122 41.825C52.6122 37.7 52.6122 33.5875 52.6122 29.4625C52.6122 29.0875 52.6122 29.0875 52.9872 29.0875C53.6122 29.0875 54.2497 29.1 54.8747 29.0875C55.1122 29.0875 55.1747 29.1625 55.1747 29.3875C55.1622 31.05 55.1747 32.7125 55.1747 34.3875C55.1747 40.95 55.1747 47.5 55.1747 54.0625C55.1747 54.15 55.1747 54.25 55.1747 54.3375C55.1872 54.5 55.1247 54.5625 54.9497 54.5625C54.2497 54.5625 53.5372 54.5625 52.8372 54.5625C52.6747 54.5625 52.5997 54.5 52.6122 54.3375C52.6122 54.25 52.6122 54.175 52.6122 54.0875C52.6122 50 52.6122 45.9125 52.6122 41.825Z" fill="#FCFCFC"/>
</svg>
