<svg width="512" height="512" viewBox="0 0 512 512" fill="none" xmlns="http://www.w3.org/2000/svg">
<g clip-path="url(#clip0_6518_2038)">
<path fill-rule="evenodd" clip-rule="evenodd" d="M163.653 0.530983C167.032 1.67826 169.544 4.53952 170.244 8.03901C177.448 44.0591 199.183 78.9056 228.159 102.086C260.692 128.113 278.017 159.979 278.017 194.421C278.017 209.862 274.976 225.151 269.067 239.417C263.158 253.682 254.497 266.644 243.579 277.562C232.661 288.48 219.699 297.141 205.434 303.05C191.169 308.959 175.879 312 160.438 312C144.998 312 129.708 308.959 115.443 303.05C101.177 297.141 88.2157 288.48 77.2975 277.562C66.3792 266.644 57.7184 253.682 51.8095 239.417C45.9006 225.151 42.8594 209.862 42.8594 194.421C42.8594 174.498 50.2458 154.736 60.431 142.054C63.0881 138.746 67.544 137.474 71.5468 138.883C75.5497 140.291 78.2278 144.073 78.2278 148.316C78.2278 155.854 81.2221 163.083 86.5521 168.413C91.8821 173.743 99.1111 176.737 106.649 176.737C114.187 176.737 121.416 173.743 126.746 168.413C132.076 163.083 135.07 155.854 135.07 148.316C135.07 133.666 131.183 126.396 125.338 115.462C123.918 112.805 122.381 109.931 120.757 106.683L129.693 102.215L120.758 106.684C120.758 106.684 120.757 106.683 120.757 106.683C111.377 87.93 110.209 69.5174 116.666 51.5829C122.955 34.114 136.164 17.9522 153.853 2.4744C156.539 0.124336 160.274 -0.616289 163.653 0.530983ZM135.483 58.3573C130.998 70.8172 131.551 83.5558 138.645 97.7369L138.646 97.7386C139.868 100.184 141.16 102.573 142.46 104.978C148.668 116.461 155.07 128.301 155.07 148.316C155.07 161.158 149.968 173.474 140.888 182.555C131.807 191.636 119.491 196.737 106.649 196.737C93.8068 196.737 81.4907 191.636 72.41 182.555C69.9493 180.094 67.7808 177.396 65.9269 174.514C64.0139 180.76 62.8594 187.571 62.8594 194.421C62.8594 207.235 65.3833 219.924 70.2871 231.763C75.1909 243.602 82.3785 254.359 91.4396 263.42C100.501 272.481 111.258 279.669 123.096 284.572C134.935 289.476 147.624 292 160.438 292C173.253 292 185.941 289.476 197.78 284.572C209.619 279.669 220.376 272.481 229.437 263.42C238.498 254.359 245.686 243.602 250.59 231.763C255.493 219.924 258.017 207.235 258.017 194.421C258.017 167.39 244.606 140.856 215.665 117.704C187.727 95.3528 165.795 63.4505 155.004 29.0008C145.343 39.1843 138.882 48.9176 135.483 58.3573Z" fill="#282828"/>
<path d="M421.554 171.2V402.48L418.634 403.82C411.064 407.29 405.304 413.49 402.404 421.3C399.504 429.1 399.824 437.57 403.284 445.13C406.744 452.69 412.954 458.46 420.764 461.36C428.564 464.26 437.034 463.94 444.594 460.48C460.214 453.32 467.094 434.79 459.934 419.17C456.824 412.38 451.374 406.94 444.594 403.83L441.674 402.49V171.19C441.674 165.65 437.154 161.14 431.604 161.13C426.064 161.13 421.544 165.65 421.544 171.2H421.554Z" fill="#EB3A28"/>
<path d="M431.622 70.5C402.852 70.53 379.412 93.97 379.382 122.76V370.99L377.712 372.48C360.732 387.62 351.092 409.35 351.252 432.09C351.442 449.42 357.062 465.88 367.512 479.68L368.012 480.33C383.302 500.43 406.472 511.96 431.632 512C457.112 511.96 480.472 500.2 495.712 479.72C506.192 465.89 511.812 449.42 512.002 432.08C512.152 409.37 502.512 387.65 485.552 372.52L483.882 371.03V122.78C483.862 93.99 460.422 70.54 431.622 70.5ZM441.232 92.6C454.122 96.61 463.452 108.46 463.732 122.66V375.88C463.732 379.03 465.242 382.04 467.752 383.94C494.322 403.85 499.732 441.69 479.812 468.27C468.502 483.36 450.482 492.38 431.612 492.38C398.392 492.36 371.382 465.32 371.392 432.1C371.392 413.25 380.402 395.23 395.482 383.92C397.972 382.04 399.472 379.03 399.482 375.9V122.75C399.752 108.51 409.202 96.61 422.042 92.6C422.042 92.6 431.182 89.62 441.242 92.6H441.232Z" fill="#282828"/>
<path fill-rule="evenodd" clip-rule="evenodd" d="M153.366 487.071C157.272 490.976 163.603 490.976 167.509 487.071L227.509 427.071C231.414 423.166 231.414 416.834 227.509 412.929C223.603 409.024 217.272 409.024 213.366 412.929L160.438 465.858L107.509 412.929C103.603 409.024 97.2717 409.024 93.3664 412.929C89.4612 416.834 89.4612 423.166 93.3664 427.071L153.366 487.071Z" fill="#007AFF"/>
<path fill-rule="evenodd" clip-rule="evenodd" d="M153.366 427.071C157.272 430.976 163.603 430.976 167.509 427.071L227.509 367.071C231.414 363.166 231.414 356.834 227.509 352.929C223.603 349.024 217.272 349.024 213.366 352.929L160.438 405.858L107.509 352.929C103.603 349.024 97.2717 349.024 93.3664 352.929C89.4612 356.834 89.4612 363.166 93.3664 367.071L153.366 427.071Z" fill="#007AFF"/>
</g>
<defs>
<clipPath id="clip0_6518_2038">
<rect width="512" height="512" fill="white"/>
</clipPath>
</defs>
</svg>
