<svg width="512" height="512" viewBox="0 0 512 512" fill="none" xmlns="http://www.w3.org/2000/svg">
<path d="M112.999 179.63C110.37 179.63 107.846 178.594 105.974 176.747C104.102 174.9 103.034 172.389 102.999 169.76C102.831 156.594 106.758 143.701 114.238 132.864C121.718 122.028 132.38 113.784 144.75 109.273C157.121 104.761 170.587 104.205 183.287 107.682C195.987 111.159 207.292 118.497 215.639 128.68C217.27 130.738 218.026 133.354 217.745 135.965C217.463 138.575 216.165 140.97 214.133 142.632C212.101 144.294 209.496 145.09 206.881 144.849C204.267 144.607 201.853 143.347 200.159 141.34C194.438 134.367 186.691 129.344 177.99 126.966C169.289 124.588 160.064 124.972 151.591 128.065C143.118 131.159 135.815 136.808 130.693 144.233C125.571 151.658 122.882 160.49 122.999 169.51C123.031 172.16 122.01 174.715 120.159 176.613C118.308 178.51 115.78 179.596 113.129 179.63H112.999Z" fill="#00D151"/>
<path d="M458.559 74.0001C457.719 74.0008 456.882 73.8933 456.07 73.6801C453.501 73.0207 451.3 71.3682 449.949 69.086C448.599 66.8037 448.211 64.0787 448.869 61.5101C449.733 58.107 449.519 54.5196 448.257 51.2435C446.994 47.9673 444.745 45.1642 441.821 43.2211C438.896 41.2781 435.441 40.2912 431.931 40.3967C428.422 40.5022 425.032 41.6949 422.23 43.8101C420.108 45.408 417.438 46.0976 414.808 45.7272C412.178 45.3569 409.802 43.9568 408.204 41.8351C406.607 39.7133 405.917 37.0437 406.287 34.4135C406.658 31.7833 408.058 29.408 410.179 27.8101C416.292 23.1976 423.686 20.598 431.34 20.3708C438.994 20.1435 446.53 22.2998 452.905 26.5415C459.28 30.7832 464.18 36.9008 466.927 44.0484C469.674 51.1959 470.133 59.0205 468.239 66.4401C467.697 68.5974 466.45 70.5121 464.697 71.8813C462.944 73.2505 460.784 73.9961 458.559 74.0001Z" fill="#00D151"/>
<path d="M160.409 496C155.321 495.997 150.288 494.945 145.625 492.909C140.962 490.874 136.768 487.898 133.307 484.168C129.846 480.439 127.191 476.035 125.509 471.233C123.826 466.431 123.153 461.334 123.529 456.26C123.629 454.95 123.986 453.672 124.579 452.5C125.173 451.328 125.992 450.284 126.988 449.429C127.985 448.573 129.141 447.922 130.389 447.513C131.638 447.104 132.954 446.945 134.264 447.045C135.574 447.144 136.852 447.501 138.024 448.095C139.196 448.688 140.239 449.507 141.095 450.504C141.951 451.5 142.602 452.656 143.011 453.904C143.42 455.153 143.579 456.47 143.479 457.78C143.217 461.281 144.049 464.777 145.86 467.785C147.672 470.793 150.373 473.164 153.59 474.569C156.808 475.975 160.383 476.346 163.82 475.631C167.258 474.917 170.389 473.151 172.779 470.58C173.674 469.618 174.749 468.841 175.943 468.295C177.137 467.748 178.428 467.442 179.74 467.395C181.053 467.347 182.362 467.558 183.593 468.016C184.824 468.474 185.952 469.17 186.914 470.065C187.876 470.959 188.653 472.034 189.199 473.228C189.746 474.423 190.051 475.713 190.099 477.025C190.147 478.338 189.936 479.647 189.478 480.878C189.02 482.109 188.324 483.238 187.429 484.2C183.979 487.919 179.799 490.887 175.15 492.917C170.501 494.948 165.483 495.997 160.409 496Z" fill="#B4B7BA"/>
<path d="M32.2203 193.4C30.3149 193.401 28.4489 192.857 26.8421 191.833C25.2352 190.809 23.9544 189.348 23.1503 187.62C19.9171 180.672 18.9245 172.89 20.31 165.352C21.6956 157.814 25.3907 150.894 30.8836 145.549C36.3765 140.205 43.3953 136.7 50.9681 135.522C58.5409 134.343 66.2928 135.548 73.1503 138.97C74.3553 139.538 75.4347 140.341 76.3251 141.332C77.2155 142.323 77.899 143.482 78.3353 144.741C78.7716 145.999 78.952 147.332 78.866 148.662C78.7799 149.991 78.4291 151.29 77.8341 152.482C77.2392 153.674 76.412 154.735 75.4013 155.603C74.3906 156.471 73.2167 157.128 71.9485 157.536C70.6803 157.944 69.3433 158.094 68.0162 157.978C66.6891 157.862 65.3985 157.482 64.2203 156.86C61.0744 155.301 57.5219 154.756 54.0534 155.303C50.5849 155.849 47.3717 157.459 44.8578 159.911C42.3439 162.362 40.6533 165.534 40.0196 168.987C39.3859 172.441 39.8404 176.006 41.3203 179.19C42.0275 180.714 42.3395 182.391 42.2274 184.068C42.1153 185.744 41.5828 187.365 40.679 188.781C39.7752 190.197 38.5292 191.362 37.0561 192.169C35.583 192.977 33.9302 193.4 32.2503 193.4H32.2203Z" fill="#B4B7BA"/>
<path d="M452.429 292.86C450.053 292.864 447.752 292.021 445.94 290.483C444.128 288.945 442.923 286.811 442.542 284.465C442.16 282.119 442.627 279.714 443.858 277.681C445.089 275.648 447.004 274.119 449.259 273.37C452.593 272.252 455.496 270.125 457.566 267.283C459.637 264.442 460.773 261.027 460.817 257.512C460.861 253.996 459.811 250.554 457.812 247.662C455.813 244.77 452.964 242.571 449.659 241.37C447.212 240.427 445.233 238.561 444.148 236.173C443.064 233.784 442.961 231.066 443.862 228.603C444.763 226.139 446.596 224.129 448.965 223.004C451.335 221.879 454.051 221.731 456.529 222.59C463.721 225.22 469.917 230.019 474.262 236.324C478.608 242.629 480.887 250.128 480.784 257.785C480.682 265.441 478.204 272.877 473.692 279.063C469.181 285.25 462.858 289.883 455.599 292.32C454.579 292.67 453.508 292.852 452.429 292.86Z" fill="#00D151"/>
<path d="M370.171 447.27C370.205 460.048 366.387 472.541 359.214 483.117C352.041 493.693 341.846 501.861 329.961 506.555C318.076 511.25 305.051 512.253 292.587 509.433C280.123 506.614 268.798 500.103 260.091 490.75C259.198 489.786 258.503 488.657 258.047 487.425C257.591 486.193 257.381 484.884 257.431 483.571C257.481 482.259 257.788 480.969 258.337 479.775C258.885 478.582 259.663 477.508 260.626 476.615C261.589 475.722 262.719 475.027 263.951 474.571C265.182 474.114 266.492 473.905 267.804 473.955C269.117 474.004 270.407 474.312 271.6 474.86C272.794 475.408 273.868 476.186 274.761 477.15C280.44 483.262 287.756 487.614 295.839 489.685C303.921 491.757 312.428 491.462 320.347 488.835C328.267 486.208 335.264 481.359 340.505 474.868C345.747 468.376 349.012 460.514 349.911 452.22C353.998 451.874 358.045 451.154 362.001 450.07C364.783 449.317 367.512 448.382 370.171 447.27Z" fill="#00D151"/>
<path d="M446.049 401C434.317 404.243 421.828 403.36 410.669 398.5C408.357 409.295 403.466 419.369 396.413 427.862C389.36 436.355 380.356 443.014 370.169 447.27C367.523 448.38 364.808 449.315 362.039 450.07C358.07 451.157 354.01 451.876 349.909 452.22C347.909 452.4 346.019 452.48 344.079 452.48C327.425 452.474 311.357 446.337 298.939 435.24C296.958 433.476 295.759 430.997 295.605 428.349C295.451 425.701 296.355 423.101 298.119 421.12C299.883 419.138 302.361 417.939 305.009 417.785C307.657 417.631 310.258 418.536 312.239 420.3C319.338 426.612 328.15 430.676 337.56 431.978C346.97 433.279 356.555 431.759 365.1 427.61C373.646 423.461 380.768 416.869 385.566 408.67C390.363 400.47 392.619 391.032 392.049 381.55C391.922 379.543 392.402 377.546 393.428 375.817C394.453 374.087 395.976 372.708 397.797 371.857C399.618 371.006 401.654 370.724 403.638 371.047C405.622 371.371 407.462 372.285 408.919 373.67C414.217 378.709 421.02 381.874 428.287 382.684C435.554 383.493 442.886 381.901 449.163 378.151C455.44 374.4 460.316 368.699 463.048 361.916C465.779 355.133 466.215 347.643 464.289 340.59C463.926 339.279 463.489 337.99 462.979 336.73C461.99 334.268 462.019 331.515 463.06 329.075C464.1 326.635 466.068 324.709 468.529 323.72C470.99 322.73 473.744 322.759 476.184 323.8C478.623 324.841 480.55 326.808 481.539 329.27C482.32 331.25 482.988 333.273 483.539 335.33C487.254 349.009 485.394 363.603 478.366 375.913C471.339 388.223 459.717 397.244 446.049 401Z" fill="#B4B7BA"/>
<path d="M131.449 404.4C119.221 411.495 105.033 414.464 90.9849 412.869C76.9373 411.273 63.7766 405.198 53.4504 395.541C43.1242 385.885 36.1811 373.16 33.6488 359.251C31.1164 345.342 33.1292 330.987 39.3894 318.31C34.2081 313.985 29.9956 308.618 27.0261 302.557C24.0565 296.497 22.3965 289.878 22.1541 283.134C21.9116 276.389 23.0922 269.669 25.619 263.41C28.1457 257.152 31.962 251.496 36.8194 246.81C38.7285 244.979 41.2857 243.978 43.9309 244.028C46.5761 244.078 49.0938 245.174 50.9326 247.076C52.7713 248.979 53.7813 251.532 53.7414 254.177C53.7014 256.823 52.6148 259.344 50.7194 261.19C46.8344 264.951 44.1141 269.75 42.8835 275.015C41.6528 280.28 41.9638 285.788 43.7794 290.88C45.8928 296.87 49.9936 301.956 55.3994 305.29C58.6777 307.324 62.3389 308.663 66.156 309.224C69.973 309.785 73.8646 309.555 77.5894 308.55C80.1487 307.854 82.8798 308.203 85.1818 309.521C87.4838 310.838 89.1682 313.016 89.8644 315.575C90.5606 318.135 90.2116 320.866 88.8941 323.168C87.5767 325.47 85.3987 327.154 82.8394 327.85C78.752 328.961 74.535 329.522 70.2994 329.52C65.8257 329.519 61.3736 328.9 57.0694 327.68C53.5981 334.961 52.1059 343.027 52.7432 351.067C53.3804 359.107 56.1246 366.838 60.6994 373.48C66.5474 382.031 75.1482 388.32 85.0694 391.3C91.0897 393.123 97.4199 393.692 103.669 392.971C109.917 392.25 115.952 390.256 121.399 387.11C122.537 386.372 123.813 385.872 125.15 385.643C126.487 385.413 127.857 385.457 129.176 385.774C130.495 386.09 131.736 386.671 132.823 387.482C133.911 388.293 134.821 389.317 135.501 390.492C136.18 391.666 136.613 392.966 136.774 394.313C136.934 395.66 136.82 397.025 136.436 398.326C136.052 399.627 135.408 400.837 134.542 401.881C133.676 402.925 132.607 403.782 131.399 404.4H131.449Z" fill="#B4B7BA"/>
<path d="M336.769 86.0001C336.218 86.0959 335.659 86.1428 335.099 86.1401C332.737 86.1374 330.452 85.2985 328.649 83.7719C326.846 82.2453 325.642 80.1297 325.249 77.8001C324.212 71.6872 321.175 66.0915 316.615 61.8907C312.054 57.6898 306.229 55.1215 300.051 54.5884C293.874 54.0553 287.695 55.5877 282.482 58.9451C277.269 62.3026 273.319 67.2953 271.249 73.1401C270.834 74.4009 270.171 75.5662 269.3 76.5681C268.428 77.57 267.367 78.3885 266.176 78.9757C264.985 79.5629 263.689 79.9071 262.364 79.9882C261.039 80.0694 259.711 79.8858 258.458 79.4483C257.204 79.0108 256.05 78.328 255.063 77.4399C254.077 76.5517 253.276 75.476 252.71 74.2754C252.143 73.0748 251.821 71.7733 251.763 70.4469C251.704 69.1206 251.911 67.7959 252.369 66.5501C254.504 60.4476 257.859 54.8437 262.229 50.0801C258.257 40.7174 251.283 32.9418 242.406 27.9775C233.529 23.0132 223.253 21.142 213.196 22.6586C203.139 24.1752 193.872 28.9934 186.854 36.3546C179.836 43.7159 175.465 53.2022 174.429 63.3201C174.182 65.785 173.028 68.0702 171.191 69.733C169.355 71.3957 166.967 72.3176 164.489 72.3201C164.155 72.3193 163.821 72.2992 163.489 72.2601C162.179 72.1278 160.908 71.7379 159.748 71.1128C158.589 70.4877 157.565 69.6398 156.734 68.6177C155.903 67.5956 155.283 66.4194 154.908 65.1568C154.533 63.8942 154.411 62.5699 154.549 61.2601C155.997 47.101 161.995 33.7923 171.643 23.3283C181.29 12.8642 194.069 5.80837 208.065 3.21791C222.06 0.627449 236.518 2.6419 249.272 8.95941C262.026 15.2769 272.389 25.5573 278.809 38.2601C285.49 35.3972 292.734 34.0904 299.994 34.4385C307.253 34.7866 314.339 36.7805 320.715 40.2695C327.091 43.7585 332.59 48.6512 336.797 54.5779C341.004 60.5046 343.809 67.3101 344.999 74.4801C345.217 75.7771 345.177 77.1042 344.881 78.3855C344.584 79.6668 344.039 80.8772 343.274 81.9472C342.51 83.0173 341.542 83.9261 340.425 84.6215C339.309 85.317 338.067 85.7854 336.769 86.0001Z" fill="#B4B7BA"/>
<path d="M497.51 218.59C495.886 218.59 494.286 218.195 492.85 217.438C491.413 216.682 490.182 215.586 489.263 214.247C488.345 212.908 487.766 211.366 487.577 209.753C487.388 208.14 487.595 206.505 488.18 204.99C490.003 200.252 490.735 195.164 490.322 190.105C489.909 185.045 488.361 180.143 485.794 175.763C483.227 171.383 479.707 167.638 475.494 164.805C471.281 161.973 466.484 160.125 461.46 159.4C459.258 159.078 457.227 158.031 455.687 156.425C454.147 154.818 453.188 152.744 452.96 150.53C452.557 146.595 451.18 142.822 448.952 139.553C446.725 136.284 443.717 133.622 440.201 131.808C436.686 129.994 432.773 129.086 428.818 129.165C424.863 129.244 420.99 130.308 417.55 132.26C415.241 133.567 412.508 133.902 409.952 133.193C407.396 132.484 405.226 130.789 403.92 128.48C402.614 126.172 402.278 123.439 402.987 120.883C403.696 118.326 405.391 116.157 407.7 114.85C413.482 111.574 419.935 109.656 426.569 109.242C433.202 108.829 439.843 109.93 445.988 112.463C452.133 114.997 457.621 118.895 462.035 123.864C466.45 128.832 469.677 134.74 471.47 141.14C473.01 141.58 474.53 142.09 476.03 142.67C489.324 147.817 500.034 158.027 505.81 171.06C511.586 184.093 511.956 198.885 506.84 212.19C506.113 214.075 504.832 215.694 503.167 216.837C501.501 217.979 499.529 218.59 497.51 218.59Z" fill="#B4B7BA"/>
<path d="M137.151 211.88C140.628 211.882 144.024 212.927 146.901 214.88C149.98 216.934 152.505 219.716 154.251 222.98C156.09 226.48 157.051 230.376 157.051 234.33C157.051 238.284 156.09 242.179 154.251 245.68C152.498 248.952 149.975 251.749 146.901 253.83C144.029 255.793 140.63 256.839 137.151 256.83H118.751L119.751 255.03V275.73C119.8 277.332 119.227 278.891 118.151 280.08C117.62 280.659 116.969 281.115 116.243 281.417C115.518 281.719 114.736 281.86 113.951 281.83C113.181 281.853 112.416 281.709 111.708 281.407C111 281.105 110.366 280.652 109.851 280.08C108.775 278.891 108.202 277.332 108.251 275.73V218C108.237 217.195 108.386 216.396 108.688 215.65C108.989 214.903 109.438 214.226 110.007 213.656C110.577 213.087 111.254 212.638 112.001 212.337C112.747 212.035 113.546 211.886 114.351 211.9L137.151 211.88ZM137.151 245.48C138.542 245.431 139.863 244.86 140.851 243.88C142.122 242.714 143.143 241.302 143.851 239.73C144.641 238.048 145.051 236.213 145.051 234.355C145.051 232.497 144.641 230.662 143.851 228.98C143.139 227.453 142.117 226.091 140.851 224.98C139.849 224.028 138.532 223.477 137.151 223.43H118.551L119.751 221.63V247.13L118.651 245.53L137.151 245.48Z" fill="#B4B7BA"/>
<path d="M174.851 211.78C175.895 211.795 176.922 212.052 177.851 212.53C178.796 212.955 179.608 213.629 180.201 214.48L204.501 251.88L199.501 251.68L224.401 214.48C224.921 213.651 225.644 212.968 226.501 212.496C227.359 212.024 228.322 211.777 229.301 211.78C230.898 211.781 232.435 212.388 233.601 213.48C234.222 214.028 234.715 214.706 235.043 215.467C235.372 216.228 235.528 217.051 235.501 217.88V275.78C235.528 276.596 235.385 277.41 235.082 278.169C234.779 278.928 234.321 279.616 233.739 280.19C233.156 280.763 232.461 281.209 231.697 281.5C230.933 281.791 230.117 281.92 229.301 281.88C228.463 281.914 227.627 281.776 226.844 281.475C226.062 281.174 225.349 280.716 224.751 280.13C224.177 279.563 223.726 278.884 223.425 278.136C223.124 277.388 222.979 276.586 223.001 275.78V228.68L226.901 229.58L206.501 260.68C205.868 261.44 205.106 262.083 204.251 262.58C203.429 263.093 202.468 263.338 201.501 263.28C200.566 263.329 199.639 263.085 198.851 262.58C197.995 262.083 197.233 261.44 196.601 260.68L177.501 230.48L180.101 225.18V275.78C180.15 277.382 179.576 278.941 178.501 280.13C177.969 280.708 177.318 281.164 176.593 281.467C175.868 281.769 175.086 281.91 174.301 281.88C173.531 281.903 172.766 281.759 172.058 281.457C171.35 281.154 170.716 280.701 170.201 280.13C169.125 278.941 168.551 277.382 168.601 275.78V217.88C168.593 217.074 168.754 216.275 169.072 215.535C169.391 214.794 169.86 214.128 170.451 213.58C171.028 213.003 171.714 212.546 172.47 212.237C173.225 211.928 174.034 211.773 174.851 211.78Z" fill="#B4B7BA"/>
<path d="M316.75 270.88C317.49 270.862 318.226 270.995 318.914 271.27C319.601 271.545 320.226 271.957 320.749 272.48C321.273 273.004 321.685 273.629 321.96 274.316C322.235 275.003 322.368 275.74 322.35 276.48C322.365 277.198 322.231 277.911 321.955 278.573C321.68 279.236 321.269 279.834 320.75 280.33C320.22 280.841 319.593 281.242 318.906 281.508C318.219 281.774 317.486 281.9 316.75 281.88H282.75C281.992 281.921 281.234 281.799 280.527 281.523C279.82 281.247 279.18 280.823 278.65 280.28C277.63 279.164 277.092 277.691 277.15 276.18C277.146 275.364 277.303 274.556 277.612 273.801C277.92 273.046 278.375 272.359 278.95 271.78L300.75 248.48C303.06 246.022 305.028 243.264 306.6 240.28C307.873 238.046 308.609 235.547 308.75 232.98C308.872 230.036 307.831 227.162 305.85 224.98C304.853 223.959 303.652 223.159 302.325 222.634C300.998 222.108 299.576 221.868 298.15 221.93C296.801 221.948 295.471 222.255 294.25 222.83C292.85 223.468 291.552 224.311 290.4 225.33C289.142 226.431 288.002 227.662 287 229C286.418 229.891 285.582 230.588 284.6 231C283.893 231.25 283.15 231.385 282.4 231.4C280.89 231.379 279.444 230.79 278.35 229.75C277.776 229.285 277.313 228.698 276.993 228.032C276.673 227.367 276.505 226.638 276.5 225.9C276.52 224.705 276.923 223.548 277.65 222.6C278.504 221.421 279.458 220.317 280.5 219.3C282.185 217.615 284.065 216.138 286.1 214.9C288.105 213.659 290.254 212.668 292.5 211.95C294.566 211.271 296.725 210.916 298.9 210.9C302.943 210.8 306.948 211.711 310.55 213.55C313.778 215.249 316.437 217.856 318.2 221.05C320.07 224.571 321 228.515 320.9 232.5C320.742 236.774 319.632 240.959 317.65 244.75C315.387 249.383 312.437 253.648 308.9 257.4L295.4 271.8L294.3 270.9L316.75 270.88Z" fill="#B4B7BA"/>
<path d="M339.65 281.78C338.839 281.875 338.017 281.785 337.246 281.517C336.475 281.248 335.775 280.809 335.198 280.232C334.621 279.655 334.182 278.955 333.913 278.184C333.645 277.413 333.555 276.591 333.65 275.78V274.08C333.555 273.27 333.645 272.448 333.913 271.677C334.182 270.906 334.621 270.206 335.198 269.629C335.775 269.051 336.475 268.612 337.246 268.344C338.017 268.076 338.839 267.986 339.65 268.08H341C341.81 267.986 342.632 268.076 343.403 268.344C344.174 268.612 344.874 269.051 345.452 269.629C346.029 270.206 346.468 270.906 346.736 271.677C347.004 272.448 347.094 273.27 347 274.08V275.78C347.094 276.591 347.004 277.413 346.736 278.184C346.468 278.955 346.029 279.655 345.452 280.232C344.874 280.809 344.174 281.248 343.403 281.517C342.632 281.785 341.81 281.875 341 281.78H339.65Z" fill="#B4B7BA"/>
<path d="M376.85 282.88C374.177 282.853 371.52 282.466 368.95 281.73C366.442 281.107 364.091 279.966 362.05 278.38C361.15 277.607 360.447 276.63 360 275.53C359.525 274.476 359.27 273.336 359.25 272.18C359.268 271.577 359.405 270.984 359.654 270.435C359.903 269.885 360.258 269.391 360.7 268.98C361.251 268.457 361.904 268.054 362.618 267.796C363.332 267.538 364.092 267.43 364.85 267.48C366.504 267.657 368.069 268.318 369.35 269.38C370.464 270.077 371.635 270.679 372.85 271.18C374.083 271.706 375.41 271.978 376.75 271.98C379.615 272.054 382.458 271.454 385.05 270.23C387.274 269.159 389.147 267.477 390.45 265.38C391.751 263.171 392.409 260.643 392.35 258.08C392.413 255.789 391.805 253.53 390.6 251.58C389.458 249.804 387.872 248.357 386 247.38C384.105 246.381 381.992 245.866 379.85 245.88C378 245.837 376.162 246.177 374.45 246.88C372.91 247.547 371.51 248.23 370.25 248.93C369.089 249.582 367.781 249.926 366.45 249.93C364.693 250.074 362.946 249.557 361.55 248.48C360.52 247.583 359.817 246.37 359.55 245.03C359.286 243.849 359.218 242.633 359.35 241.43L362.45 217.13C362.69 215.769 363.419 214.542 364.5 213.68C365.613 212.772 367.014 212.293 368.45 212.33H397.35C398.1 212.305 398.848 212.435 399.546 212.711C400.245 212.987 400.878 213.404 401.408 213.936C401.939 214.468 402.353 215.103 402.627 215.803C402.901 216.502 403.028 217.25 403 218C403.015 218.718 402.881 219.431 402.605 220.094C402.33 220.757 401.919 221.355 401.4 221.85C400.87 222.362 400.243 222.762 399.556 223.028C398.869 223.294 398.136 223.421 397.4 223.4H371.6L372.7 222.5L370 242.8L368.7 239C369.363 238.127 370.267 237.466 371.3 237.1C372.783 236.446 374.323 235.927 375.9 235.55C377.567 235.126 379.28 234.908 381 234.9C385.2 234.835 389.341 235.888 393 237.95C396.472 239.926 399.354 242.791 401.35 246.25C403.409 249.856 404.463 253.948 404.4 258.1C404.503 262.698 403.326 267.233 401 271.2C398.719 274.945 395.402 277.95 391.45 279.85C386.885 281.98 381.886 283.017 376.85 282.88Z" fill="#B4B7BA"/>
<path d="M467.43 482.5C477.095 482.5 484.93 474.665 484.93 465C484.93 455.335 477.095 447.5 467.43 447.5C457.765 447.5 449.93 455.335 449.93 465C449.93 474.665 457.765 482.5 467.43 482.5Z" fill="#B4B7BA"/>
<path d="M54.4297 471.5C64.0947 471.5 71.9297 463.665 71.9297 454C71.9297 444.335 64.0947 436.5 54.4297 436.5C44.7647 436.5 36.9297 444.335 36.9297 454C36.9297 463.665 44.7647 471.5 54.4297 471.5Z" fill="#B4B7BA"/>
<path d="M233.43 399.5C243.095 399.5 250.93 391.665 250.93 382C250.93 372.335 243.095 364.5 233.43 364.5C223.765 364.5 215.93 372.335 215.93 382C215.93 391.665 223.765 399.5 233.43 399.5Z" fill="#B4B7BA"/>
<path d="M337.43 163.5C347.095 163.5 354.93 155.665 354.93 146C354.93 136.335 347.095 128.5 337.43 128.5C327.765 128.5 319.93 136.335 319.93 146C319.93 155.665 327.765 163.5 337.43 163.5Z" fill="#B4B7BA"/>
<path d="M73.4297 70.5C83.0947 70.5 90.9297 62.665 90.9297 53C90.9297 43.335 83.0947 35.5 73.4297 35.5C63.7647 35.5 55.9297 43.335 55.9297 53C55.9297 62.665 63.7647 70.5 73.4297 70.5Z" fill="#B4B7BA"/>
</svg>
