<svg width="512" height="512" viewBox="0 0 512 512" fill="none" xmlns="http://www.w3.org/2000/svg">
<path d="M206.48 330.9C207.566 331.385 208.511 332.139 209.225 333.091C209.939 334.043 210.398 335.161 210.56 336.34C210.751 337.526 210.686 338.74 210.369 339.899C210.051 341.058 209.489 342.136 208.72 343.06C208.201 343.815 207.524 344.449 206.737 344.918C205.95 345.388 205.071 345.682 204.16 345.78C202.248 345.988 200.319 345.597 198.64 344.66C195.525 343.053 192.255 341.767 188.88 340.82C185.337 339.843 181.676 339.358 178 339.38C172.391 339.307 166.82 340.326 161.6 342.38C156.848 344.266 152.553 347.144 149 350.82C145.446 354.555 142.696 358.979 140.92 363.82C138.997 369.154 138.049 374.79 138.12 380.46C137.994 386.542 139.012 392.593 141.12 398.3C142.976 403.21 145.837 407.679 149.52 411.42C153.085 414.994 157.404 417.728 162.16 419.42C167.241 421.238 172.603 422.146 178 422.1C181.585 422.102 185.158 421.673 188.64 420.82C192.076 419.981 195.385 418.69 198.48 416.98C200.223 416.064 202.209 415.714 204.16 415.98C205.072 416.106 205.948 416.42 206.733 416.902C207.518 417.384 208.194 418.023 208.72 418.78C209.553 419.683 210.167 420.767 210.514 421.946C210.861 423.125 210.931 424.369 210.72 425.58C210.489 426.703 210.001 427.758 209.293 428.661C208.585 429.563 207.677 430.288 206.64 430.78C203.835 432.335 200.888 433.62 197.84 434.62C194.646 435.685 191.386 436.541 188.08 437.18C184.76 437.834 181.384 438.169 178 438.18C170.574 438.225 163.202 436.924 156.24 434.34C149.482 431.806 143.286 427.974 138 423.06C132.565 418.012 128.281 411.852 125.44 405C122.282 397.232 120.73 388.904 120.88 380.52C120.802 372.717 122.242 364.973 125.12 357.72C127.822 350.926 131.909 344.768 137.12 339.64C142.338 334.54 148.509 330.517 155.28 327.8C162.504 324.914 170.222 323.467 178 323.54C183.062 323.527 188.104 324.172 193 325.46C197.708 326.689 202.238 328.517 206.48 330.9Z" fill="#00D151"/>
<path d="M330.8 380.5C330.865 388.228 329.509 395.902 326.8 403.14C324.261 409.919 320.43 416.141 315.52 421.46C310.683 426.673 304.83 430.839 298.32 433.7C291.461 436.604 284.088 438.1 276.64 438.1C269.191 438.1 261.819 436.604 254.96 433.7C248.446 430.845 242.591 426.678 237.76 421.46C232.85 416.155 229.043 409.928 226.56 403.14C221.333 388.499 221.333 372.501 226.56 357.86C229.048 351.074 232.854 344.848 237.76 339.54C242.608 334.323 248.476 330.157 255 327.3C265.114 322.794 276.381 321.552 287.235 323.745C298.088 325.939 307.989 331.46 315.56 339.54C320.466 344.862 324.296 351.083 326.84 357.86C329.534 365.101 330.876 372.774 330.8 380.5ZM313.52 380.5C313.636 373.135 312.019 365.845 308.8 359.22C305.878 353.184 301.388 348.045 295.8 344.34C290.056 340.784 283.435 338.9 276.68 338.9C269.924 338.9 263.303 340.784 257.56 344.34C251.962 348 247.467 353.117 244.56 359.14C241.502 365.832 239.919 373.103 239.919 380.46C239.919 387.817 241.502 395.088 244.56 401.78C247.445 407.839 251.943 412.987 257.56 416.66C263.303 420.216 269.924 422.1 276.68 422.1C283.435 422.1 290.056 420.216 295.8 416.66C301.393 412.96 305.884 407.819 308.8 401.78C312.019 395.154 313.636 387.865 313.52 380.5Z" fill="#00D151"/>
<path d="M388.52 454.3C389.408 454.278 390.292 454.437 391.117 454.767C391.942 455.097 392.692 455.591 393.32 456.22C393.949 456.848 394.443 457.598 394.773 458.423C395.103 459.248 395.262 460.132 395.24 461.02C395.26 461.882 395.1 462.738 394.769 463.534C394.438 464.329 393.945 465.047 393.32 465.64C392.684 466.255 391.932 466.736 391.108 467.056C390.283 467.375 389.403 467.526 388.52 467.5H347.72C346.81 467.547 345.901 467.401 345.053 467.07C344.205 466.739 343.437 466.231 342.8 465.58C341.577 464.24 340.931 462.473 341 460.66C340.995 459.681 341.184 458.711 341.554 457.805C341.925 456.899 342.47 456.075 343.16 455.38L369.32 427.38C372.091 424.435 374.446 421.124 376.32 417.54C377.848 414.86 378.731 411.861 378.9 408.78C379.064 405.227 377.812 401.753 375.42 399.12C374.224 397.894 372.783 396.934 371.191 396.303C369.598 395.672 367.891 395.385 366.18 395.46C364.56 395.482 362.965 395.851 361.5 396.54C359.822 397.31 358.266 398.321 356.88 399.54C355.35 400.873 353.963 402.361 352.74 403.98C352.041 405.05 351.038 405.886 349.86 406.38C349.011 406.68 348.12 406.842 347.22 406.86C345.404 406.835 343.667 406.12 342.36 404.86C341.671 404.302 341.115 403.598 340.731 402.799C340.348 402 340.146 401.126 340.14 400.24C340.156 398.793 340.64 397.39 341.52 396.24C342.55 394.817 343.693 393.479 344.94 392.24C346.964 390.221 349.219 388.449 351.66 386.96C354.067 385.474 356.646 384.285 359.34 383.42C361.82 382.656 364.404 382.278 367 382.3C371.858 382.179 376.67 383.272 381 385.48C384.875 387.517 388.067 390.646 390.18 394.48C392.423 398.705 393.539 403.438 393.42 408.22C393.42 412.62 392.12 417.52 389.52 422.92C386.802 428.484 383.255 433.602 379 438.1L362.8 455.38L361.48 454.3H388.52Z" fill="#00D151"/>
<path d="M407.17 395.5C404.518 395.5 401.974 394.446 400.099 392.571C398.223 390.696 397.17 388.152 397.17 385.5C397.17 382.848 398.223 380.304 400.099 378.429C401.974 376.554 404.518 375.5 407.17 375.5C427.004 375.498 446.206 368.52 461.414 355.787C476.622 343.054 486.867 325.377 490.355 305.852C493.843 286.326 490.352 266.196 480.493 248.985C470.635 231.774 455.037 218.579 436.43 211.71C435.14 211.234 433.963 210.497 432.97 209.545C431.978 208.594 431.193 207.448 430.664 206.179C430.135 204.91 429.873 203.546 429.894 202.171C429.916 200.797 430.221 199.441 430.79 198.19C436.696 185.182 437.64 170.462 433.442 156.807C429.244 143.151 420.194 131.503 408.001 124.059C395.807 116.616 381.311 113.89 367.246 116.398C353.182 118.905 340.52 126.471 331.65 137.67C330.547 139.062 329.094 140.135 327.439 140.779C325.785 141.423 323.988 141.614 322.235 141.334C320.482 141.054 318.835 140.313 317.463 139.185C316.091 138.058 315.044 136.586 314.43 134.92C303.673 105.255 281.926 80.8592 253.688 66.7774C225.449 52.6957 192.879 50.0053 162.712 59.2628C132.546 68.5203 107.091 89.0174 91.6124 116.515C76.1337 144.013 71.8151 176.408 79.5498 207C80.1327 209.374 79.8258 211.879 78.6871 214.042C77.5484 216.206 75.6568 217.877 73.3698 218.74C55.6429 225.446 40.8289 238.156 31.5064 254.658C22.1839 271.16 18.9431 290.408 22.3483 309.053C25.7535 327.697 35.5889 344.558 50.1427 356.699C64.6964 368.84 83.0468 375.493 102 375.5C104.652 375.5 107.196 376.554 109.071 378.429C110.946 380.304 112 382.848 112 385.5C112 388.152 110.946 390.696 109.071 392.571C107.196 394.446 104.652 395.5 102 395.5C79.0945 395.511 56.8655 387.737 38.9603 373.452C21.0552 359.167 8.53742 339.22 3.461 316.884C-1.61541 294.548 1.05107 271.151 11.0229 250.53C20.9947 229.909 37.6797 213.29 58.3398 203.4C56.7837 194.854 56.0006 186.186 55.9998 177.5C55.9998 98.65 120.15 34.5 199 34.5C225.611 34.5052 251.694 41.9297 274.319 55.9396C296.944 69.9495 315.215 89.9899 327.08 113.81C340.059 102.972 356.188 96.6099 373.071 95.6706C389.954 94.7312 406.69 99.2642 420.791 108.596C434.892 117.928 445.605 131.56 451.34 147.467C457.074 163.375 457.523 180.707 452.62 196.89C473.925 207.185 491.106 224.405 501.353 245.734C511.599 267.063 514.305 291.237 509.026 314.303C503.748 337.37 490.798 357.962 472.295 372.711C453.793 387.461 430.832 395.495 407.17 395.5Z" fill="#B4B7BA"/>
</svg>
