<?xml version="1.0" encoding="UTF-8"?>
<svg height="600" width="800" xmlns="http://www.w3.org/2000/svg" xmlns:xlink="http://www.w3.org/1999/xlink">
    <g id="Notes" font-family="'LucidaGrande', 'Lucida Grande', sans-serif" font-size="13">
        <rect fill="white" height="600.0" width="800.0" x="0.0" y="0.0" />
        <g font-size="13">
            <text x="18.0" y="176.0">Small</text>
            <text x="18.0" y="376.0">Medium</text>
            <text x="18.0" y="576.0">Large</text>
        </g>
        <g font-size="9">
            <text x="250.0" y="30.0">Ultralight</text>
            <text x="450.0" y="30.0">Regular</text>
            <text x="650.0" y="30.0">Black</text>
            <text id="template-version" fill="#505050" text-anchor="end" x="785.0" y="575.0">Template v.3.0</text>
            <a href="https://github.com/swhitty/SwiftDraw">
                <text fill="#505050" text-anchor="end" x="785.0" y="590.0">https://github.com/swhitty/SwiftDraw</text>
            </a>
        </g>
    </g>
    <g id="Guides" stroke="rgb(39, 170, 225)" stroke-width="0.5">
        <path id="Capline-S" d="M18,76 l800,0" />
        <path id="H-reference" d="M85,145.755 L87.685,145.755 L113.369,79.287 L114.052,79.287 L114.052,76 L112.148,76 L85,145.755 Z M95.693,121.536 L130.996,121.536 L130.263,119.313 L96.474,119.313 L95.693,121.536 Z M139.15,145.755 L141.787,145.755 L114.638,76 L113.466,76 L113.466,79.287 L139.15,145.755 Z" stroke="none" />
        <path id="Baseline-S" d="M18,146 l800,0" />
        <path id="left-margin-Ultralight-S" d="M211,56 l0,110" />
        <path id="right-margin-Ultralight-S" d="M319,56 l0,110" />
        <path id="left-margin-Regular-S" d="M411,56 l0,110" />
        <path id="right-margin-Regular-S" d="M519,56 l0,110" />
        <path id="left-margin-Black-S" d="M611,56 l0,110" />
        <path id="right-margin-Black-S" d="M719,56 l0,110" />
        <path id="Capline-M" d="M18,276 l800,0" />
        <path id="Baseline-M" d="M18,346 l800,0" />
        <path id="Capline-L" d="M18,476 l800,0" />
        <path id="Baseline-L" d="M18,546 l800,0" />
    </g>
    <g id="Symbols">
        <g id="Ultralight-S">
            <path d="M271.978,143.857 L271.98,143.857 C275.171,143.857 278.173,142.612 280.428,140.354 C285.087,135.694 285.085,128.114 280.424,123.455 C278.169,121.199 275.169,119.958 271.978,119.956 L234.343,119.956 C233.758,119.956 233.207,120.184 232.793,120.598 C232.379,121.013 232.151,121.562 232.151,122.149 C232.151,122.733 232.379,123.285 232.793,123.699 C233.207,124.113 233.756,124.341 234.343,124.341 L271.98,124.341 C276.147,124.347 279.538,127.739 279.542,131.906 C279.542,135.625 276.692,139.472 271.92,139.472 L271.894,139.472 C269.922,139.472 267.999,138.662 266.617,137.246 C266.213,136.842 265.662,136.614 265.077,136.614 C264.492,136.614 263.941,136.844 263.527,137.258 C263.113,137.672 262.885,138.223 262.885,138.808 C262.885,139.393 263.115,139.944 263.529,140.358 C265.787,142.614 268.786,143.857 271.978,143.857 Z" />
            <path d="M256.646,102.042 C262.466,102.042 267.202,97.308 267.202,91.488 C267.202,88.669 266.104,86.017 264.112,84.022 C262.118,82.028 259.467,80.93 256.648,80.93 C253.827,80.93 251.177,82.028 249.183,84.022 C248.328,84.877 248.33,86.268 249.185,87.123 C249.599,87.537 250.148,87.765 250.735,87.765 C251.32,87.765 251.871,87.537 252.285,87.121 C253.425,85.973 255.009,85.315 256.629,85.315 L256.65,85.315 C258.3,85.321 259.848,85.969 261.009,87.141 C262.171,88.312 262.807,89.864 262.801,91.514 C262.796,93.143 262.159,94.679 261.011,95.837 C259.866,96.989 258.278,97.647 256.656,97.647 L228.769,97.647 C227.56,97.647 226.576,98.63 226.576,99.839 C226.576,101.049 227.56,102.032 228.769,102.032 L229.762,102.04 L256.646,102.04 L256.646,102.042 Z" />
            <path d="M305.358,106.359 C308.215,102.65 309.454,98.051 308.851,93.409 C307.721,84.716 300.258,78.153 291.492,78.143 C286.867,78.135 282.365,80.002 279.112,83.275 C278.68,83.695 278.444,84.242 278.436,84.827 C278.428,85.412 278.648,85.967 279.057,86.385 C279.899,87.252 281.291,87.271 282.157,86.427 L282.201,86.383 C287.335,81.251 295.671,81.253 300.791,86.377 C303.273,88.859 304.639,92.16 304.637,95.669 C304.637,99.177 303.269,102.478 300.787,104.958 C298.305,107.438 295.007,108.804 291.498,108.804 L223.192,108.804 C222.606,108.804 222.057,109.032 221.642,109.446 C221.228,109.86 221,110.409 221,110.996 C221,111.581 221.228,112.132 221.642,112.546 C222.057,112.961 222.606,113.189 223.192,113.189 C242.99,113.189 257.291,113.189 267.64,113.198 L281.255,113.198 C290.015,113.198 292.889,113.198 293.431,113.131 L293.53,113.076 L293.732,113.046 C298.374,112.441 302.504,110.066 305.358,106.357 L305.358,106.359 Z" />
        </g>
        <g id="Regular-S">
            <path d="M471.978,143.857 L471.98,143.857 C475.171,143.857 478.173,142.612 480.428,140.354 C485.087,135.694 485.085,128.114 480.424,123.455 C478.169,121.199 475.169,119.958 471.978,119.956 L434.343,119.956 C433.758,119.956 433.207,120.184 432.793,120.598 C432.379,121.013 432.151,121.562 432.151,122.149 C432.151,122.733 432.379,123.285 432.793,123.699 C433.207,124.113 433.756,124.341 434.343,124.341 L471.98,124.341 C476.147,124.347 479.538,127.739 479.542,131.906 C479.542,135.625 476.692,139.472 471.92,139.472 L471.894,139.472 C469.922,139.472 467.999,138.662 466.617,137.246 C466.213,136.842 465.662,136.614 465.077,136.614 C464.492,136.614 463.941,136.844 463.527,137.258 C463.113,137.672 462.885,138.223 462.885,138.808 C462.885,139.393 463.115,139.944 463.529,140.358 C465.787,142.614 468.786,143.857 471.978,143.857 Z" />
            <path d="M456.646,102.042 C462.466,102.042 467.202,97.308 467.202,91.488 C467.202,88.669 466.104,86.017 464.112,84.022 C462.118,82.028 459.467,80.93 456.648,80.93 C453.827,80.93 451.177,82.028 449.183,84.022 C448.328,84.877 448.33,86.268 449.185,87.123 C449.599,87.537 450.148,87.765 450.735,87.765 C451.32,87.765 451.871,87.537 452.285,87.121 C453.425,85.973 455.009,85.315 456.629,85.315 L456.65,85.315 C458.3,85.321 459.848,85.969 461.009,87.141 C462.171,88.312 462.807,89.864 462.801,91.514 C462.796,93.143 462.159,94.679 461.011,95.837 C459.866,96.989 458.278,97.647 456.656,97.647 L428.769,97.647 C427.56,97.647 426.576,98.63 426.576,99.839 C426.576,101.049 427.56,102.032 428.769,102.032 L429.762,102.04 L456.646,102.04 L456.646,102.042 Z" />
            <path d="M505.358,106.359 C508.215,102.65 509.454,98.051 508.851,93.409 C507.721,84.716 500.258,78.153 491.492,78.143 C486.867,78.135 482.365,80.002 479.112,83.275 C478.68,83.695 478.444,84.242 478.436,84.827 C478.428,85.412 478.648,85.967 479.057,86.385 C479.899,87.252 481.291,87.271 482.157,86.427 L482.201,86.383 C487.335,81.251 495.671,81.253 500.791,86.377 C503.273,88.859 504.639,92.16 504.637,95.669 C504.637,99.177 503.269,102.478 500.787,104.958 C498.305,107.438 495.007,108.804 491.498,108.804 L423.192,108.804 C422.606,108.804 422.057,109.032 421.642,109.446 C421.228,109.86 421,110.409 421,110.996 C421,111.581 421.228,112.132 421.642,112.546 C422.057,112.961 422.606,113.189 423.192,113.189 C442.99,113.189 457.291,113.189 467.64,113.198 L481.255,113.198 C490.015,113.198 492.889,113.198 493.431,113.131 L493.53,113.076 L493.732,113.046 C498.374,112.441 502.504,110.066 505.358,106.357 L505.358,106.359 Z" />
        </g>
        <g id="Black-S">
            <path d="M671.978,143.857 L671.98,143.857 C675.171,143.857 678.172,142.612 680.428,140.354 C685.087,135.694 685.085,128.114 680.424,123.455 C678.169,121.199 675.169,119.958 671.978,119.956 L634.343,119.956 C633.758,119.956 633.207,120.184 632.793,120.598 C632.379,121.013 632.151,121.562 632.151,122.149 C632.151,122.733 632.379,123.285 632.793,123.699 C633.207,124.113 633.756,124.341 634.343,124.341 L671.98,124.341 C676.147,124.347 679.538,127.739 679.542,131.906 C679.542,135.625 676.692,139.472 671.92,139.472 L671.894,139.472 C669.922,139.472 667.999,138.662 666.617,137.246 C666.213,136.842 665.662,136.614 665.077,136.614 C664.492,136.614 663.941,136.844 663.527,137.258 C663.113,137.672 662.885,138.223 662.885,138.808 C662.885,139.393 663.115,139.944 663.529,140.358 C665.787,142.614 668.786,143.857 671.978,143.857 Z" />
            <path d="M656.646,102.042 C662.466,102.042 667.202,97.308 667.202,91.488 C667.202,88.669 666.104,86.017 664.112,84.022 C662.118,82.028 659.467,80.93 656.648,80.93 C653.827,80.93 651.177,82.028 649.183,84.022 C648.328,84.877 648.33,86.268 649.185,87.123 C649.599,87.537 650.148,87.765 650.735,87.765 C651.32,87.765 651.871,87.537 652.285,87.121 C653.425,85.973 655.009,85.315 656.628,85.315 L656.65,85.315 C658.3,85.321 659.848,85.969 661.009,87.141 C662.171,88.312 662.807,89.864 662.802,91.514 C662.796,93.143 662.159,94.679 661.011,95.837 C659.866,96.989 658.278,97.647 656.656,97.647 L628.769,97.647 C627.56,97.647 626.576,98.63 626.576,99.839 C626.576,101.049 627.56,102.032 628.769,102.032 L629.762,102.04 L656.646,102.04 L656.646,102.042 Z" />
            <path d="M705.358,106.359 C708.215,102.65 709.454,98.051 708.851,93.409 C707.721,84.716 700.258,78.153 691.492,78.143 C686.867,78.135 682.365,80.002 679.112,83.275 C678.68,83.695 678.444,84.242 678.436,84.827 C678.428,85.412 678.648,85.967 679.057,86.385 C679.899,87.252 681.291,87.271 682.157,86.427 L682.201,86.383 C687.335,81.251 695.671,81.253 700.791,86.377 C703.273,88.859 704.639,92.16 704.637,95.669 C704.637,99.177 703.269,102.478 700.787,104.958 C698.305,107.438 695.006,108.804 691.498,108.804 L623.192,108.804 C622.606,108.804 622.057,109.032 621.642,109.446 C621.228,109.86 621,110.409 621,110.996 C621,111.581 621.228,112.132 621.642,112.546 C622.057,112.961 622.606,113.189 623.192,113.189 C642.99,113.189 657.291,113.189 667.64,113.198 L681.255,113.198 C690.015,113.198 692.889,113.198 693.431,113.131 L693.53,113.076 L693.732,113.046 C698.375,112.441 702.504,110.066 705.358,106.357 L705.358,106.359 Z" />
        </g>
    </g>
</svg>