<svg width="512" height="512" viewBox="0 0 512 512" fill="none" xmlns="http://www.w3.org/2000/svg">
<path fill-rule="evenodd" clip-rule="evenodd" d="M86 60C86 52.268 92.268 46 100 46H412C419.732 46 426 52.268 426 60V452C426 459.732 419.732 466 412 466H100C92.268 466 86 459.732 86 452V60ZM106 66V446H406V66H106Z" fill="#FCFCFC"/>
<path fill-rule="evenodd" clip-rule="evenodd" d="M86 56C86 50.4772 90.4772 46 96 46H236C241.523 46 246 50.4772 246 56V416C246 421.523 241.523 426 236 426H96C90.4772 426 86 421.523 86 416V56ZM106 66V406H226V66H106Z" fill="#FCFCFC"/>
<path fill-rule="evenodd" clip-rule="evenodd" d="M266 56C266 50.4772 270.477 46 276 46H416C421.523 46 426 50.4772 426 56V416C426 421.523 421.523 426 416 426H276C270.477 426 266 421.523 266 416V56ZM286 66V406H406V66H286Z" fill="#FCFCFC"/>
<path fill-rule="evenodd" clip-rule="evenodd" d="M406 60C406 52.268 412.268 46 420 46H472C479.732 46 486 52.268 486 60V492C486 499.732 479.732 506 472 506H420C412.268 506 406 499.732 406 492V60ZM426 66V486H466V66H426Z" fill="#FCFCFC"/>
<path fill-rule="evenodd" clip-rule="evenodd" d="M26 60C26 52.268 32.268 46 40 46H92C99.732 46 106 52.268 106 60V492C106 499.732 99.732 506 92 506H40C32.268 506 26 499.732 26 492V60ZM46 66V486H86V66H46Z" fill="#FCFCFC"/>
<path fill-rule="evenodd" clip-rule="evenodd" d="M6 16C6 10.4772 10.4772 6 16 6H496C501.523 6 506 10.4772 506 16V56C506 61.5228 501.523 66 496 66H16C10.4772 66 6 61.5228 6 56V16ZM26 26V46H486V26H26Z" fill="#00D151"/>
</svg>
