<svg width="64" height="64" viewBox="0 0 64 64" fill="none" xmlns="http://www.w3.org/2000/svg">
<path d="M26.8248 35.375V18.6C26.8248 18.3 26.8998 18.05 27.0623 17.8125C28.3123 16.05 29.5623 14.275 30.8123 12.5125C31.1498 12.0375 31.5748 11.875 31.9748 12.0625C32.2623 12.2 32.4623 12.4625 32.6248 12.7375C32.9873 13.3625 33.3373 13.9875 33.6873 14.625L36.0873 18.9C36.2748 19.2375 36.3748 19.575 36.3748 19.9625C36.3623 21.225 36.3748 22.4875 36.3748 23.75C36.3748 24.1125 36.3748 24.1125 36.7248 24.1375C37.3498 24.175 37.9623 24.1875 38.5873 24.2625C38.8373 24.2875 38.8748 24.2125 38.8748 23.9875C38.8748 21.5 38.8748 19.0125 38.8623 16.525C38.8623 16.1875 38.9498 15.9125 39.1248 15.6375C40.0623 14.175 40.9748 12.7125 41.9123 11.25C42.0373 11.05 42.1623 10.8375 42.3623 10.6875C42.6623 10.4625 43.0373 10.4875 43.2998 10.7625C43.4998 10.975 43.6498 11.225 43.7873 11.4875C44.6748 13.2625 45.5498 15.0375 46.4373 16.8125C46.6373 17.2 46.7248 17.6125 46.7248 18.0625C46.7123 20.175 46.7248 22.2875 46.7248 24.4125C46.7248 24.775 46.7373 24.775 47.0998 24.7875C47.5123 24.8 47.9248 24.8125 48.3373 24.85C48.5373 24.8625 48.5748 24.8125 48.5748 24.625C48.5623 23.375 48.5748 22.125 48.5748 20.8625C48.5748 20.6125 48.6248 20.4 48.7498 20.175C49.5498 18.7375 50.3498 17.2875 51.1498 15.85C51.3873 15.425 51.7248 15.2625 52.0873 15.425C52.3248 15.525 52.4498 15.7375 52.5498 15.9625C52.9248 16.75 53.2998 17.55 53.6748 18.35C54.0748 19.2125 54.4623 20.0625 54.8623 20.925C55.0248 21.275 55.0998 21.625 55.0998 22.0125V46.525C55.0623 47.0875 54.7873 47.4125 54.2373 47.525L49.3998 48.5375C48.8748 48.65 48.5998 48.425 48.5998 47.9V42.85C48.5998 42.55 48.5998 42.55 48.2998 42.5875C47.8873 42.65 47.4623 42.7 47.0498 42.75C46.8373 42.775 46.7373 42.85 46.7498 43.0875C46.7623 44.7 46.7623 46.3 46.7498 47.9125C46.7498 48.7375 46.4623 49.1 45.6373 49.275L39.8998 50.475C39.7623 50.5 39.6248 50.5125 39.4748 50.5125C39.1123 50.4875 38.8998 50.275 38.8998 49.9V44.2C38.8998 43.95 38.8373 43.8875 38.5998 43.925C37.9498 44.025 37.2998 44.1125 36.6623 44.2C36.4498 44.225 36.3998 44.3125 36.3998 44.5125C36.4123 46.325 36.3998 48.15 36.3998 49.9625C36.3998 50.8 36.1123 51.1625 35.2998 51.325C32.8373 51.8375 30.3873 52.35 27.9248 52.8625C27.8123 52.8875 27.6998 52.9 27.5748 52.9125C27.0498 52.925 26.8498 52.725 26.8498 52.2125C26.8248 46.5875 26.8248 40.975 26.8248 35.375ZM28.5873 35.0125V50.3625C28.5873 50.8625 28.6373 50.9 29.1123 50.8125C29.8748 50.675 30.6373 50.525 31.4123 50.375C32.3998 50.1875 33.3998 49.9875 34.3873 49.8C34.6248 49.75 34.7248 49.6125 34.7373 49.3875C34.7373 49.3 34.7498 49.225 34.7498 49.1375V20.375C34.7498 19.9875 34.6623 19.6375 34.4748 19.3C33.6373 17.825 32.7998 16.35 31.9498 14.8625C31.7748 14.5625 31.6998 14.5625 31.4998 14.85C30.6623 16.075 29.8248 17.3 28.9748 18.525C28.6998 18.925 28.5623 19.35 28.5623 19.85C28.5873 24.9125 28.5873 29.9625 28.5873 35.0125ZM40.4748 32.7625V48.2625C40.4623 48.4375 40.5248 48.5 40.7123 48.4625C42.0123 48.2125 43.3248 47.9625 44.6373 47.7125C45.1873 47.6125 45.1873 47.6 45.1873 47.05V18.2125C45.1873 17.8875 45.1373 17.5875 44.9873 17.3C44.3248 15.975 43.6498 14.65 42.9873 13.325C42.8873 13.1375 42.8248 13.15 42.7248 13.325C42.0748 14.3875 41.4248 15.4375 40.7623 16.4875C40.5498 16.8375 40.4623 17.1875 40.4623 17.6C40.4748 22.65 40.4748 27.7125 40.4748 32.7625ZM49.9873 33.9625V46.4C49.9748 46.5875 50.0623 46.625 50.2373 46.5875C51.2748 46.3875 52.3123 46.175 53.3498 45.9875C53.5998 45.9375 53.6623 45.8375 53.6623 45.6V22.1625C53.6623 21.875 53.5998 21.6125 53.4748 21.35C52.9748 20.2875 52.4748 19.2125 51.9873 18.15C51.9623 18.0875 51.9498 17.9875 51.8623 17.975C51.7498 17.9625 51.7498 18.075 51.7123 18.15C51.2998 18.9 50.9123 19.675 50.4748 20.4125C50.1123 21.0125 49.9623 21.6375 49.9623 22.3375C49.9998 26.2125 49.9873 30.0875 49.9873 33.9625ZM36.3623 34.1625V38.6375C36.3623 38.8125 36.3873 38.8875 36.5998 38.8625C37.2623 38.8 37.9373 38.75 38.5998 38.7C38.7748 38.6875 38.8748 38.6375 38.8748 38.4375V29.7125C38.8748 29.525 38.7998 29.475 38.6248 29.475C37.9748 29.475 37.3373 29.4625 36.6873 29.4375C36.4373 29.425 36.3623 29.4875 36.3623 29.75C36.3748 31.2125 36.3623 32.6875 36.3623 34.1625ZM46.7123 33.725V37.675C46.7123 37.9 46.7748 37.975 46.9998 37.95C47.4498 37.9 47.9123 37.875 48.3623 37.8375C48.5373 37.825 48.5748 37.7375 48.5748 37.575V29.7375C48.5748 29.5625 48.5123 29.5125 48.3373 29.5125C47.8998 29.525 47.4623 29.525 47.0248 29.5125C46.7873 29.5 46.7123 29.575 46.7123 29.8125C46.7248 31.125 46.7123 32.425 46.7123 33.725ZM36.3623 41.55C36.3623 42 36.3748 42.4625 36.3623 42.9125C36.3623 43.1 36.3998 43.1625 36.5998 43.1375C37.2873 43.0375 37.9748 42.9625 38.6748 42.875C38.8498 42.85 38.8748 42.75 38.8748 42.6C38.8748 41.7125 38.8623 40.825 38.8748 39.9375C38.8748 39.7625 38.8373 39.7 38.6498 39.725C37.9498 39.8 37.2498 39.8625 36.5498 39.925C36.3873 39.9375 36.3623 40.025 36.3623 40.15C36.3748 40.6125 36.3623 41.075 36.3623 41.55ZM38.8748 26.875C38.8748 26.4375 38.8623 26 38.8748 25.5625C38.8748 25.375 38.8248 25.3 38.6248 25.2875C37.9498 25.2625 37.2623 25.225 36.5873 25.1875C36.3998 25.175 36.3623 25.225 36.3623 25.4C36.3748 26.325 36.3748 27.2375 36.3623 28.1625C36.3623 28.3625 36.4373 28.4125 36.6248 28.4125C37.3123 28.4125 37.9998 28.425 38.6873 28.4375C38.8373 28.4375 38.8748 28.3875 38.8748 28.25C38.8623 27.7875 38.8748 27.325 38.8748 26.875ZM46.7123 27.1375C46.7123 27.525 46.7248 27.9125 46.7123 28.3C46.6998 28.4875 46.7748 28.575 46.9623 28.575C47.4373 28.575 47.9248 28.5875 48.3998 28.6C48.5498 28.6 48.5748 28.5125 48.5748 28.3875V26C48.5748 25.8375 48.5123 25.775 48.3623 25.775C47.8873 25.75 47.4248 25.725 46.9498 25.6875C46.7498 25.675 46.7123 25.7625 46.7123 25.9375C46.7248 26.3375 46.7123 26.7375 46.7123 27.1375ZM46.7123 40.3625V41.6C46.7123 41.7375 46.7373 41.8125 46.8998 41.7875C47.3998 41.7125 47.8998 41.65 48.3998 41.5875C48.5248 41.575 48.5748 41.5125 48.5623 41.3875V38.9C48.5623 38.775 48.5123 38.7375 48.3998 38.75C47.9123 38.8 47.4123 38.85 46.9248 38.8875C46.7498 38.9 46.6998 38.9875 46.7123 39.15C46.7248 39.5625 46.7123 39.9625 46.7123 40.3625ZM12.0498 34.8375V21.4C12.0498 21.1375 12.1248 20.925 12.2623 20.7C13.2248 19.175 14.1748 17.65 15.1373 16.125C15.2623 15.925 15.3998 15.725 15.5873 15.5625C15.8748 15.325 16.2373 15.325 16.5123 15.575C16.6748 15.725 16.7998 15.8875 16.9123 16.075C17.8873 17.6125 18.8623 19.1625 19.8373 20.7C20.0498 21.025 20.1623 21.375 20.1623 21.775C20.1498 30.4875 20.1623 39.1875 20.1623 47.9V48.125C20.1498 48.7 19.8498 49 19.2873 49.0125C18.7373 49.025 18.1748 49.0125 17.6248 49.0125H13.0748C12.9373 49.0125 12.8123 49.0125 12.6748 49C12.2498 48.95 12.0748 48.75 12.0748 48.325C12.0498 43.8375 12.0498 39.3375 12.0498 34.8375ZM18.6373 34.6125V22.25C18.6373 21.925 18.5998 21.6125 18.4123 21.325C17.6748 20.1625 16.9498 18.9875 16.2123 17.825C16.0498 17.575 15.9873 17.575 15.8248 17.825C15.0998 18.975 14.3873 20.1125 13.6748 21.2625C13.4998 21.55 13.4123 21.8625 13.4123 22.2V47.1C13.4123 47.525 13.4623 47.575 13.8873 47.575H18.0373C18.6248 47.575 18.6248 47.575 18.6248 46.975C18.6373 42.85 18.6373 38.7375 18.6373 34.6125Z" fill="#282828"/>
</svg>
