<svg width="64" height="64" viewBox="0 0 64 64" fill="none" xmlns="http://www.w3.org/2000/svg">
<g clip-path="url(#clip0_5611_1153)">
<path d="M21.9652 37.4272V12.4888C21.9652 12.0428 22.0767 11.6711 22.3182 11.3181C24.1765 8.69785 26.0348 6.05906 27.8931 3.43885C28.3949 2.73269 29.0267 2.49111 29.6214 2.76986C30.0488 2.97427 30.3461 3.36452 30.5877 3.77334C31.1266 4.7025 31.6469 5.63165 32.1672 6.57938L35.7352 12.9348C36.0139 13.4365 36.1626 13.9383 36.1626 14.5143C36.144 16.3912 36.1626 18.2681 36.1626 20.145C36.1626 20.6839 36.1626 20.6839 36.6829 20.7211C37.6121 20.7768 38.5227 20.7954 39.4518 20.9069C39.8235 20.9441 39.8792 20.8326 39.8792 20.4981C39.8792 16.8001 39.8792 13.102 39.8606 9.404C39.8606 8.90226 39.9907 8.49344 40.2509 8.08461C41.6446 5.91039 43.0012 3.73618 44.3949 1.56196C44.5807 1.26463 44.7666 0.94872 45.0639 0.725723C45.5099 0.391228 46.0674 0.428394 46.4576 0.837221C46.7549 1.15313 46.9779 1.52479 47.1823 1.91504C48.5017 4.55383 49.8026 7.19262 51.122 9.83142C51.4193 10.4075 51.5494 11.0207 51.5494 11.6897C51.5308 14.8303 51.5494 17.9708 51.5494 21.1299C51.5494 21.6688 51.5679 21.6688 52.1068 21.6874C52.7201 21.706 53.3333 21.7246 53.9466 21.7803C54.2439 21.7989 54.2997 21.7246 54.2997 21.4458C54.2811 19.5875 54.2997 17.7292 54.2997 15.8523C54.2997 15.4807 54.374 15.1647 54.5598 14.8303C55.7491 12.6932 56.9384 10.5376 58.1278 8.40052C58.4808 7.7687 58.9826 7.52712 59.5215 7.7687C59.8746 7.91736 60.0604 8.23327 60.2091 8.56777C60.7666 9.7385 61.324 10.9278 61.8815 12.1171C62.4762 13.3994 63.0523 14.663 63.6469 15.9452C63.8885 16.4656 64 16.9859 64 17.562V54.0033C63.9443 54.8396 63.5354 55.3227 62.7178 55.49L55.5261 56.9952C54.7456 57.1624 54.3368 56.8279 54.3368 56.0475V48.5399C54.3368 48.0939 54.3368 48.0939 53.8908 48.1497C53.2776 48.2426 52.6458 48.3169 52.0325 48.3912C51.7166 48.4284 51.5679 48.5399 51.5865 48.893C51.6051 51.2902 51.6051 53.6688 51.5865 56.066C51.5865 57.2925 51.1591 57.8314 49.9326 58.0916L41.403 59.8756C41.1986 59.9127 40.9942 59.9313 40.7712 59.9313C40.2323 59.8941 39.9164 59.5782 39.9164 59.0207V50.5469C39.9164 50.1752 39.8235 50.0823 39.4704 50.138C38.5041 50.2867 37.5377 50.4168 36.59 50.5469C36.2741 50.584 36.1998 50.7141 36.1998 51.0114C36.2184 53.706 36.1998 56.4191 36.1998 59.1137C36.1998 60.3587 35.7724 60.8976 34.5645 61.1392C30.9036 61.9011 27.2613 62.663 23.6005 63.4249C23.4332 63.4621 23.266 63.4807 23.0801 63.4992C22.2997 63.5178 22.0023 63.2205 22.0023 62.4586C21.9652 54.0962 21.9652 45.7524 21.9652 37.4272ZM24.5854 36.8883V59.7083C24.5854 60.4516 24.6597 60.5074 25.3659 60.3773C26.4994 60.1729 27.633 59.9499 28.7851 59.7269C30.2532 59.4481 31.7398 59.1508 33.2079 58.8721C33.561 58.7977 33.7096 58.5933 33.7282 58.2588C33.7282 58.1287 33.7468 58.0173 33.7468 57.8872V15.1276C33.7468 14.5515 33.6167 14.0312 33.338 13.5294C32.0929 11.3366 30.8479 9.14384 29.5842 6.93246C29.324 6.48647 29.2125 6.48647 28.9152 6.91388C27.6702 8.73502 26.4251 10.5562 25.1614 12.3773C24.7526 12.9719 24.5482 13.6038 24.5482 14.3471C24.5854 21.8732 24.5854 29.3808 24.5854 36.8883ZM42.2578 33.5434V56.5864C42.2393 56.8465 42.3322 56.9394 42.6109 56.8837C44.5436 56.512 46.4948 56.1404 48.446 55.7687C49.2636 55.62 49.2636 55.6015 49.2636 54.7838V11.9127C49.2636 11.4296 49.1893 10.9836 48.9663 10.5562C47.9814 8.58635 46.9779 6.61655 45.993 4.64675C45.8444 4.368 45.7515 4.38658 45.6028 4.64675C44.6365 6.2263 43.6702 7.78728 42.6853 9.34826C42.3693 9.86858 42.2393 10.3889 42.2393 11.0021C42.2578 18.5097 42.2578 26.0358 42.2578 33.5434ZM56.3995 35.3274V53.8175C56.381 54.0962 56.511 54.152 56.7712 54.0962C58.3136 53.7989 59.856 53.483 61.3984 53.2042C61.77 53.1299 61.8629 52.9812 61.8629 52.6282V17.785C61.8629 17.3575 61.77 16.9673 61.5842 16.5771C60.8409 14.9975 60.0976 13.3994 59.3728 11.8198C59.3357 11.7269 59.3171 11.5782 59.187 11.5596C59.0197 11.5411 59.0197 11.7083 58.964 11.8198C58.3508 12.9348 57.7747 14.0869 57.1243 15.1833C56.5854 16.0753 56.3624 17.0045 56.3624 18.0451C56.4181 23.8059 56.3995 29.5666 56.3995 35.3274ZM36.144 35.6247V42.2774C36.144 42.5376 36.1812 42.6491 36.4971 42.6119C37.482 42.519 38.4855 42.4447 39.4704 42.3703C39.7305 42.3517 39.8792 42.2774 39.8792 41.9801V29.0091C39.8792 28.7304 39.7677 28.656 39.5075 28.656C38.5412 28.656 37.5935 28.6375 36.6272 28.6003C36.2555 28.5817 36.144 28.6746 36.144 29.0649C36.1626 31.2391 36.144 33.4319 36.144 35.6247ZM51.5308 34.9743V40.8465C51.5308 41.181 51.6237 41.2925 51.9582 41.2553C52.6272 41.181 53.3147 41.1438 53.9837 41.0881C54.2439 41.0695 54.2997 40.9394 54.2997 40.6979V29.0463C54.2997 28.7861 54.2067 28.7118 53.9466 28.7118C53.2962 28.7304 52.6458 28.7304 51.9954 28.7118C51.6423 28.6932 51.5308 28.8047 51.5308 29.1578C51.5494 31.109 51.5308 33.0416 51.5308 34.9743ZM36.144 46.6073C36.144 47.2762 36.1626 47.9638 36.144 48.6328C36.144 48.9116 36.1998 49.0045 36.4971 48.9673C37.5192 48.8186 38.5412 48.7071 39.5819 48.5771C39.842 48.5399 39.8792 48.3912 39.8792 48.1682C39.8792 46.8488 39.8606 45.5294 39.8792 44.21C39.8792 43.9499 39.8235 43.857 39.5447 43.8941C38.5041 44.0056 37.4634 44.0985 36.4228 44.1915C36.1812 44.21 36.144 44.3401 36.144 44.526C36.1626 45.2135 36.144 45.9011 36.144 46.6073ZM39.8792 24.7908C39.8792 24.1404 39.8606 23.49 39.8792 22.8395C39.8792 22.5608 39.8049 22.4493 39.5075 22.4307C38.5041 22.3936 37.482 22.3378 36.4785 22.2821C36.1998 22.2635 36.144 22.3378 36.144 22.598C36.1626 23.9731 36.1626 25.3297 36.144 26.7048C36.144 27.0021 36.2555 27.0765 36.5343 27.0765C37.5563 27.0765 38.5784 27.0951 39.6005 27.1136C39.8235 27.1136 39.8792 27.0393 39.8792 26.8349C39.8606 26.1473 39.8792 25.4598 39.8792 24.7908ZM51.5308 25.181C51.5308 25.7571 51.5494 26.3332 51.5308 26.9092C51.5122 27.188 51.6237 27.3181 51.9024 27.3181C52.6086 27.3181 53.3333 27.3366 54.0395 27.3552C54.2625 27.3552 54.2997 27.2251 54.2997 27.0393V23.49C54.2997 23.2484 54.2067 23.1555 53.9837 23.1555C53.2776 23.1183 52.59 23.0811 51.8839 23.0254C51.5865 23.0068 51.5308 23.1369 51.5308 23.397C51.5494 23.9917 51.5308 24.5864 51.5308 25.181ZM51.5308 44.8419V46.6816C51.5308 46.886 51.568 46.9975 51.8095 46.9603C52.5528 46.8488 53.2962 46.7559 54.0395 46.663C54.2253 46.6444 54.2997 46.5515 54.2811 46.3657V42.6677C54.2811 42.4818 54.2067 42.4261 54.0395 42.4447C53.3148 42.519 52.5714 42.5933 51.8467 42.6491C51.5865 42.6677 51.5122 42.7977 51.5308 43.0393C51.5494 43.6526 51.5308 44.2472 51.5308 44.8419ZM0 36.6282V16.6514C0 16.2611 0.111498 15.9452 0.315911 15.6107C1.74681 13.3436 3.15912 11.0765 4.59001 8.80935C4.77584 8.51202 4.98025 8.21469 5.259 7.97311C5.68641 7.62003 6.22532 7.62003 6.63415 7.99169C6.87573 8.21469 7.06156 8.45627 7.2288 8.73502C8.67828 11.0207 10.1278 13.325 11.5772 15.6107C11.8931 16.0939 12.0604 16.6142 12.0604 17.2089C12.0418 30.1613 12.0604 43.0951 12.0604 56.0475V56.3819C12.0418 57.2368 11.5958 57.6828 10.7596 57.7013C9.94193 57.7199 9.10569 57.7013 8.28804 57.7013H1.52381C1.3194 57.7013 1.13357 57.7013 0.929152 57.6828C0.297329 57.6084 0.0371655 57.3111 0.0371655 56.6793C-5.66244e-07 50.008 0 43.3181 0 36.6282ZM9.79326 36.2937V17.915C9.79326 17.4319 9.73751 16.9673 9.45877 16.5399C8.36237 14.8117 7.28455 13.0649 6.18815 11.3366C5.94657 10.965 5.85366 10.965 5.61208 11.3366C4.53426 13.0463 3.47503 14.7373 2.4158 16.447C2.15563 16.8744 2.02555 17.339 2.02555 17.8407V54.8581C2.02555 55.49 2.09988 55.5643 2.73171 55.5643H8.90128C9.77468 55.5643 9.77468 55.5643 9.77468 54.6723C9.79326 48.5399 9.79326 42.4261 9.79326 36.2937Z" fill="#282828"/>
</g>
<defs>
<clipPath id="clip0_5611_1153">
<rect width="64" height="64" fill="white"/>
</clipPath>
</defs>
</svg>
