<svg width="64" height="64" viewBox="0 0 64 64" fill="none" xmlns="http://www.w3.org/2000/svg">
<path fill-rule="evenodd" clip-rule="evenodd" d="M7.025 4.25C6.93979 4.25 6.875 4.31479 6.875 4.4V54.975C6.875 55.0602 6.93979 55.125 7.025 55.125H57.6C57.6852 55.125 57.75 55.0602 57.75 54.975V4.4C57.75 4.31479 57.6852 4.25 57.6 4.25H7.025ZM4.875 4.4C4.875 3.21022 5.83522 2.25 7.025 2.25H57.6C58.7898 2.25 59.75 3.21021 59.75 4.4V54.975C59.75 56.1648 58.7898 57.125 57.6 57.125H7.025C5.83521 57.125 4.875 56.1648 4.875 54.975V4.4Z" fill="#FCFCFC"/>
<path fill-rule="evenodd" clip-rule="evenodd" d="M46.325 25.9827L56.3499 31.2598V53.6049L46.325 48.3278V25.9827ZM47.825 28.4674V47.4223L54.8499 51.1202V32.1653L47.825 28.4674Z" fill="#FCFCFC"/>
<path d="M30.8 22.6375C29.2 22.6375 27.6 22.65 26 22.6375C25.4125 22.6375 24.825 22.55 24.3 22.2375C23.225 21.625 22.6125 20.725 22.5375 19.475C22.475 18.4125 22.85 17.525 23.625 16.8C24.0875 16.3625 24.65 16.1 25.2875 15.9875C25.35 15.975 25.425 15.9625 25.4875 15.95C25.6 15.925 25.775 16.0125 25.825 15.9C25.8625 15.8 25.8625 15.6625 25.875 15.55C25.9 14.375 26.375 13.4 27.2 12.6C27.9125 11.9 28.7875 11.5125 29.8 11.4125C30.6125 11.325 31.375 11.475 32.1 11.8C32.475 11.975 32.825 12.2125 33.1375 12.4875C33.725 13.0125 34.1375 13.6375 34.375 14.375C34.4125 14.5 34.475 14.4875 34.575 14.4625C35 14.3375 35.425 14.275 35.8625 14.275C36.8 14.2875 37.625 14.575 38.3625 15.1375C39.1875 15.775 39.725 16.6125 39.9 17.625C40.1375 18.9625 39.8375 20.1875 38.9125 21.225C38.3 21.9 37.55 22.325 36.675 22.5125C36.3375 22.5875 35.9875 22.6125 35.6375 22.6125C34 22.65 32.4 22.6375 30.8 22.6375ZM30.85 21.725C32.525 21.725 34.2 21.725 35.875 21.725C36.075 21.725 36.2625 21.7 36.45 21.65C37.175 21.4875 37.7875 21.125 38.275 20.55C38.9375 19.7375 39.2 18.825 38.975 17.7875C38.7625 16.8 38.2 16.0625 37.325 15.5625C36.8375 15.2875 36.3 15.1625 35.75 15.175C35.15 15.175 34.6 15.375 34.0625 15.65C33.7625 15.8 33.7625 15.7875 33.6875 15.4625C33.675 15.4 33.6625 15.35 33.65 15.2875C33.5 14.425 33.125 13.675 32.425 13.1125C31.3625 12.25 30.1875 12.0625 28.9125 12.55C27.95 12.925 27.3125 13.625 26.9375 14.575C26.6625 15.275 26.6875 15.9875 26.825 16.7125C26.8625 16.9375 26.85 16.95 26.625 16.9125C26.3375 16.875 26.05 16.8125 25.7625 16.8375C24.975 16.9 24.325 17.2375 23.8625 17.9C23.1375 18.925 23.325 20.2375 24.1875 21.075C24.675 21.5375 25.275 21.75 25.9625 21.7375C27.5875 21.7125 29.2125 21.725 30.85 21.725Z" fill="#FCFCFC"/>
<path fill-rule="evenodd" clip-rule="evenodd" d="M34.0561 14.8016C34.079 14.8894 34.0994 14.9782 34.1174 15.0678C34.1954 15.0322 34.2746 14.9981 34.3549 14.9658C34.3416 14.963 34.328 14.9597 34.3141 14.9557C34.2022 14.9238 34.1186 14.8667 34.0561 14.8016ZM26.0924 16.3398C26.1506 16.344 26.2077 16.3497 26.2631 16.3562C26.2558 16.296 26.2494 16.2356 26.244 16.1749C26.2027 16.2422 26.1505 16.297 26.0924 16.3398ZM39.4636 17.6815C39.2658 16.7634 38.7983 16.0287 38.1001 15.4814L38.3624 15.1375L38.0979 15.4798C37.9353 15.3524 37.7602 15.2353 37.573 15.1284L37.5706 15.127C37.0375 14.8263 36.4547 14.6803 35.8624 14.6743V14.275L35.8571 14.6743C35.8195 14.6739 35.7819 14.6742 35.7442 14.675M29.7486 10.9151C30.6595 10.8174 31.5101 10.9876 32.3045 11.3437L32.3114 11.3468C32.7348 11.5444 33.1241 11.8097 33.4678 12.1121L33.4706 12.1146C34.0366 12.6204 34.4604 13.2151 34.7361 13.9035C35.1065 13.818 35.4801 13.775 35.8624 13.775H35.8691C36.9142 13.7889 37.8431 14.1126 38.6657 14.7399L38.6682 14.7418C39.5827 15.4485 40.1941 16.3926 40.3925 17.5388C40.6543 19.0153 40.3198 20.3977 39.2856 21.5577L39.2827 21.561C38.5994 22.314 37.7567 22.7916 36.7815 23.001C36.3994 23.0857 36.0131 23.1122 35.6433 23.1125C34.3282 23.1425 33.036 23.1405 31.7557 23.1385C31.4364 23.138 31.1179 23.1375 30.7999 23.1375C30.2694 23.1375 29.7375 23.1389 29.2048 23.1402C28.1372 23.143 27.0665 23.1458 25.9979 23.1375C25.3671 23.1373 24.6799 23.0442 24.0484 22.6696C22.8416 21.9806 22.1242 20.936 22.0383 19.5049C21.9667 18.2875 22.4047 17.2573 23.2824 16.4358C23.8223 15.9254 24.4751 15.624 25.195 15.4961C25.2289 15.4893 25.2646 15.4829 25.2957 15.4772L25.298 15.4768C25.328 15.4713 25.3541 15.4666 25.3773 15.4621C25.4244 14.1771 25.9598 13.1066 26.8507 12.2422C27.6498 11.4576 28.6325 11.0258 29.7486 10.9151ZM29.0925 13.0164C28.2761 13.335 27.7328 13.9221 27.4027 14.758C27.1765 15.3341 27.1873 15.9396 27.3162 16.6193L27.3183 16.6303C27.3267 16.6807 27.3397 16.7598 27.3411 16.8348C27.3421 16.8937 27.3427 17.0987 27.1769 17.2645C27.0111 17.4303 26.8062 17.4297 26.7473 17.4286C26.6764 17.4273 26.602 17.4155 26.5514 17.4071C26.4657 17.3958 26.3893 17.3845 26.3197 17.3742C26.1133 17.3436 25.9657 17.3217 25.8058 17.3356L25.802 17.3359C25.1499 17.3877 24.6418 17.657 24.2724 18.1862L24.2706 18.1887C23.6992 18.9966 23.836 20.035 24.5337 20.7142C24.9167 21.0766 25.3852 21.2479 25.9533 21.2376L25.9547 21.2375C27.1776 21.2187 28.4019 21.2211 29.6265 21.2234C30.0343 21.2242 30.4421 21.225 30.8499 21.225H35.8749C36.0314 21.225 36.1756 21.2057 36.3211 21.1669L36.3308 21.1643L36.3406 21.1621C36.9604 21.0232 37.4755 20.7182 37.8905 20.2303C38.4645 19.5245 38.6755 18.7659 38.4863 17.8934C38.3052 17.0521 37.8352 16.4303 37.0781 15.9973C36.6736 15.7694 36.2261 15.6643 35.7613 15.6748L35.7499 15.6751C35.2633 15.6751 34.7957 15.8364 34.2902 16.0951L34.2861 16.0972L34.2825 16.0989C34.2165 16.1319 34.1298 16.1753 34.0498 16.2027C33.9823 16.2258 33.7739 16.2921 33.5553 16.1755C33.3492 16.0656 33.2818 15.8686 33.2624 15.8119C33.2389 15.7431 33.2196 15.6591 33.2043 15.5928C33.2029 15.5866 33.2016 15.5807 33.2002 15.5749L33.1986 15.5677L33.1971 15.5605C33.1921 15.5352 33.1869 15.512 33.1806 15.4834L33.1803 15.482C33.1742 15.4546 33.167 15.4221 33.1596 15.3855L33.1572 15.3732C33.0239 14.6067 32.6997 13.9747 32.1117 13.5022L32.1098 13.5007C31.1862 12.7509 30.1998 12.5935 29.0925 13.0164Z" fill="#FCFCFC"/>
<path d="M42.4749 9.4625V7.9375C39.0999 8.5 36.4749 11.3375 36.2749 14.85L37.7624 14.9375C37.9249 12.2125 39.8999 10 42.4749 9.4625Z" fill="#FCFCFC"/>
<path fill-rule="evenodd" clip-rule="evenodd" d="M42.725 7.6424V9.66571L42.5261 9.70724C40.06 10.222 38.1678 12.3415 38.0121 14.9524L37.9972 15.2017L36.0112 15.0849L36.0254 14.8358C36.2322 11.2048 38.9455 8.27232 42.4339 7.69091L42.725 7.6424ZM36.5431 14.6153L37.5328 14.6736C37.7969 12.0191 39.7169 9.87393 42.225 9.26277V8.23884C39.1837 8.87604 36.8337 11.4375 36.5431 14.6153Z" fill="#FCFCFC"/>
<path d="M42.475 21.0875C41.4 20.8625 40.4001 20.3375 39.5876 19.55L38.55 20.625C39.6375 21.675 41.0125 22.3625 42.475 22.6V21.0875Z" fill="#FCFCFC"/>
<path fill-rule="evenodd" clip-rule="evenodd" d="M39.5816 19.1961L39.7615 19.3705C40.54 20.125 41.4974 20.6275 42.5262 20.8428L42.725 20.8844V22.8939L42.4349 22.8468C40.9217 22.601 39.5002 21.89 38.3763 20.8048L38.1965 20.6312L39.5816 19.1961ZM39.5969 19.9003L38.9065 20.6156C39.8524 21.4674 41.0018 22.0474 42.225 22.2998V21.2871C41.2585 21.0509 40.3567 20.5798 39.5969 19.9003Z" fill="#FCFCFC"/>
<path d="M48.9375 9.66254V11.875C49.6125 12.8375 50.0125 14.0125 50.0125 15.275C50.0125 16.5375 49.6125 17.7125 48.9375 18.675V20.875C50.5125 19.5125 51.5 17.5 51.5 15.2625C51.5 13.025 50.5125 11.025 48.9375 9.66254Z" fill="#FCFCFC"/>
<path fill-rule="evenodd" clip-rule="evenodd" d="M48.6875 9.11566L49.1011 9.47342C50.7287 10.8814 51.75 12.9494 51.75 15.2625C51.75 17.5751 50.729 19.6558 49.1011 21.0641L48.6875 21.4218V18.5961L48.7328 18.5315C49.3796 17.6092 49.7625 16.484 49.7625 15.275C49.7625 14.066 49.3796 12.9407 48.7328 12.0185L48.6875 11.9539V9.11566ZM49.1875 10.2386V11.797C49.8633 12.7874 50.2625 13.9875 50.2625 15.275C50.2625 16.5624 49.8633 17.7626 49.1875 18.753V20.2986C50.4668 19.002 51.25 17.2218 51.25 15.2625C51.25 13.3036 50.467 11.5335 49.1875 10.2386Z" fill="#FCFCFC"/>
<path fill-rule="evenodd" clip-rule="evenodd" d="M46.325 6.3125H55.652L56.3499 6.66147V29.0174L46.325 23.7403V6.3125ZM47.825 7.8125V22.8347L54.8499 26.5326V7.8125H47.825Z" fill="#FCFCFC"/>
<path fill-rule="evenodd" clip-rule="evenodd" d="M55.5999 6.3125H56.3499V7.8125H55.5999V6.3125Z" fill="#FCFCFC"/>
<path fill-rule="evenodd" clip-rule="evenodd" d="M18.275 26.3326V48.6778L8.25 53.9549V31.6097L18.275 26.3326ZM9.75 32.5153V51.4701L16.775 47.7722V28.8174L9.75 32.5153Z" fill="#FCFCFC"/>
<path fill-rule="evenodd" clip-rule="evenodd" d="M8.94795 6.66254H18.275V24.0897L8.25 29.3815V7.01151L8.94795 6.66254ZM9.75 8.16254V26.8936L16.775 23.1854V8.16254H9.75Z" fill="#FCFCFC"/>
<path fill-rule="evenodd" clip-rule="evenodd" d="M8.25 7.41252L8.25 6.41565L9.75 6.41565L9.75 7.41252L8.25 7.41252Z" fill="#FCFCFC"/>
<path fill-rule="evenodd" clip-rule="evenodd" d="M45.3653 49.0916C45.1926 38.0795 45.2102 26.9825 45.2277 15.903C45.2342 11.7683 45.2408 7.6361 45.2374 3.51166L43.2374 3.51329C43.2408 7.62702 43.2342 11.7527 43.2277 15.8837C43.2098 27.1675 43.1919 38.4906 43.3751 49.7163L43.3847 50.3085L56.1461 57.0346L57.0787 55.2653L45.3653 49.0916Z" fill="#FCFCFC"/>
<path fill-rule="evenodd" clip-rule="evenodd" d="M21.383 14.5066C21.4126 26.3819 21.4423 38.3074 21.2498 50.1787L21.2402 50.771L8.47868 57.4972L7.54614 55.7279L19.2595 49.5541C19.4413 37.8992 19.4121 26.1978 19.383 14.5238C19.3742 10.9671 19.3653 7.41287 19.3624 3.86332L21.3624 3.86169C21.3653 7.40362 21.3741 10.9528 21.383 14.5066Z" fill="#FCFCFC"/>
</svg>
