<svg width="64" height="64" viewBox="0 0 64 64" fill="none" xmlns="http://www.w3.org/2000/svg">
<g clip-path="url(#clip0_6344_39820)">
<path fill-rule="evenodd" clip-rule="evenodd" d="M2.7062 2.31686C2.60749 2.31686 2.53244 2.39191 2.53244 2.49063V61.0783C2.53244 61.177 2.60749 61.252 2.7062 61.252H61.2938C61.3926 61.252 61.4676 61.177 61.4676 61.0783V2.49063C61.4676 2.39191 61.3926 2.31686 61.2938 2.31686H2.7062ZM0.215576 2.49063C0.215576 1.11234 1.32792 0 2.7062 0H61.2938C62.6721 0 63.7845 1.11234 63.7845 2.49063V61.0783C63.7845 62.4565 62.6721 63.5689 61.2938 63.5689H2.7062C1.32792 63.5689 0.215576 62.4565 0.215576 61.0783V2.49063Z" fill="#FCFCFC"/>
<path fill-rule="evenodd" clip-rule="evenodd" d="M48.2324 27.4926L59.8457 33.6058V59.491L48.2324 53.3779V27.4926ZM49.9701 30.371V52.3289L58.108 56.6127V34.6548L49.9701 30.371Z" fill="#FCFCFC"/>
<path d="M30.2478 23.6175C28.3943 23.6175 26.5408 23.632 24.6873 23.6175C24.0067 23.6175 23.3261 23.5161 22.718 23.1541C21.4727 22.4446 20.7631 21.402 20.6762 19.954C20.6038 18.7231 21.0382 17.695 21.936 16.8552C22.4718 16.3483 23.1234 16.0443 23.8619 15.9139C23.9343 15.8995 24.0212 15.885 24.0936 15.8705C24.2239 15.8415 24.4267 15.9429 24.4846 15.8126C24.528 15.6967 24.528 15.5374 24.5425 15.4071C24.5715 14.046 25.1217 12.9165 26.0774 11.9897C26.9028 11.1788 27.9164 10.73 29.0893 10.6141C30.0306 10.5127 30.9139 10.6865 31.7537 11.063C32.1881 11.2657 32.5936 11.5409 32.9556 11.8594C33.6362 12.4676 34.114 13.1916 34.3892 14.046C34.4326 14.1908 34.505 14.1763 34.6208 14.1473C35.1132 14.0025 35.6055 13.9301 36.1123 13.9301C37.1983 13.9446 38.1541 14.2776 39.0084 14.9293C39.9641 15.6678 40.5868 16.6379 40.7895 17.8109C41.0646 19.3603 40.7171 20.7793 39.6455 21.9812C38.936 22.7632 38.0672 23.2555 37.0535 23.4727C36.6626 23.5596 36.2571 23.5885 35.8517 23.5885C33.9547 23.632 32.1013 23.6175 30.2478 23.6175ZM30.3057 22.5604C32.2461 22.5604 34.1864 22.5604 36.1268 22.5604C36.3585 22.5604 36.5757 22.5315 36.7929 22.4735C37.6328 22.2853 38.3423 21.8654 38.907 21.1993C39.6745 20.258 39.9786 19.201 39.7179 17.9991C39.4718 16.8552 38.8202 16.0008 37.8065 15.4216C37.2418 15.103 36.6191 14.9582 35.982 14.9727C35.2869 14.9727 34.6498 15.2044 34.0271 15.523C33.6796 15.6967 33.6796 15.6822 33.5927 15.3058C33.5783 15.2334 33.5638 15.1754 33.5493 15.103C33.3755 14.1039 32.9411 13.2351 32.1302 12.5834C30.8994 11.5843 29.5382 11.3671 28.0612 11.9318C26.9462 12.3662 26.2077 13.1771 25.7733 14.2776C25.4548 15.0885 25.4837 15.9139 25.643 16.7538C25.6864 17.0144 25.672 17.0289 25.4113 16.9855C25.0783 16.942 24.7452 16.8696 24.4122 16.8986C23.4999 16.971 22.7469 17.362 22.2111 18.1294C21.3713 19.3168 21.5885 20.8373 22.5876 21.8074C23.1524 22.3432 23.8474 22.5894 24.6439 22.5749C26.5263 22.5459 28.4088 22.5604 30.3057 22.5604Z" fill="#FCFCFC"/>
<path fill-rule="evenodd" clip-rule="evenodd" d="M34.0199 14.5402C34.0464 14.6419 34.07 14.7447 34.0909 14.8485C34.1813 14.8073 34.273 14.7678 34.366 14.7304C34.3506 14.7272 34.3348 14.7233 34.3188 14.7187C34.1892 14.6817 34.0923 14.6156 34.0199 14.5402ZM24.7945 16.3221C24.8619 16.327 24.9281 16.3336 24.9922 16.3411C24.9838 16.2714 24.9764 16.2013 24.9702 16.131C24.9222 16.209 24.8618 16.2725 24.7945 16.3221ZM40.2841 17.8764C40.055 16.8128 39.5134 15.9617 38.7046 15.3277L39.0085 14.9293L38.7021 15.3258C38.5137 15.1783 38.3108 15.0426 38.094 14.9187L38.0912 14.9171C37.4736 14.5687 36.7985 14.3996 36.1124 14.3927V13.9301L36.1062 14.3927C36.0627 14.3923 36.0191 14.3926 35.9754 14.3935M29.0299 10.038C30.0851 9.92481 31.0705 10.1219 31.9907 10.5345L31.9988 10.5381C32.4892 10.7669 32.9403 11.0743 33.3383 11.4246L33.3416 11.4275C33.9972 12.0134 34.4883 12.7023 34.8076 13.4998C35.2367 13.4008 35.6695 13.3509 36.1124 13.3509H36.1201C37.3308 13.3671 38.4069 13.742 39.3597 14.4687L39.3626 14.4709C40.422 15.2896 41.1303 16.3832 41.3601 17.7111C41.6634 19.4215 41.276 21.0229 40.0779 22.3667L40.0745 22.3704C39.2829 23.2428 38.3068 23.7961 37.1771 24.0386C36.7344 24.1367 36.287 24.1674 35.8585 24.1678C34.335 24.2025 32.8382 24.2002 31.355 24.1979C30.9852 24.1973 30.6162 24.1967 30.2478 24.1967C29.6333 24.1967 29.0171 24.1983 28.4 24.1999C27.1632 24.2031 25.9229 24.2064 24.6851 24.1967C23.9542 24.1965 23.1582 24.0886 22.4266 23.6547C21.0287 22.8566 20.1976 21.6465 20.0981 19.9887C20.0152 18.5784 20.5225 17.3849 21.5393 16.4332C22.1647 15.8421 22.921 15.4929 23.7549 15.3447C23.7942 15.3369 23.8356 15.3294 23.8716 15.3228L23.8742 15.3223C23.909 15.316 23.9392 15.3105 23.9661 15.3053C24.0206 13.8168 24.6408 12.5766 25.6729 11.5752C26.5986 10.6664 27.7371 10.1662 29.0299 10.038ZM28.2699 12.4722C27.3241 12.8412 26.6948 13.5213 26.3124 14.4897C26.0503 15.1571 26.0628 15.8584 26.2121 16.6459L26.2146 16.6586C26.2243 16.717 26.2394 16.8086 26.241 16.8955C26.2422 16.9638 26.2429 17.2012 26.0508 17.3932C25.8588 17.5853 25.6214 17.5846 25.5531 17.5834C25.471 17.5819 25.3848 17.5682 25.3262 17.5585C25.2269 17.5454 25.1385 17.5323 25.0578 17.5204C24.8187 17.4849 24.6477 17.4595 24.4624 17.4756L24.4581 17.476C23.7026 17.536 23.1141 17.848 22.6862 18.461L22.6841 18.4639C22.0221 19.3998 22.1806 20.6027 22.9888 21.3896C23.4325 21.8093 23.9753 22.0078 24.6334 21.9958L24.635 21.9958C26.0516 21.974 27.4699 21.9767 28.8885 21.9794C29.3609 21.9803 29.8333 21.9812 30.3058 21.9812H36.1269C36.3081 21.9812 36.4751 21.9589 36.6437 21.9139L36.655 21.9109L36.6663 21.9084C37.3843 21.7474 37.981 21.3942 38.4617 20.8289C39.1267 20.0114 39.3711 19.1326 39.152 18.1219C38.9422 17.1472 38.3977 16.4269 37.5206 15.9253C37.0521 15.6613 36.5337 15.5395 35.9952 15.5518L35.9821 15.5521C35.4184 15.5521 34.8767 15.739 34.291 16.0386L34.2863 16.0411L34.2822 16.0431C34.2057 16.0813 34.1053 16.1315 34.0125 16.1633C33.9344 16.19 33.693 16.2669 33.4397 16.1318C33.201 16.0045 33.123 15.7763 33.1005 15.7106C33.0732 15.6309 33.0508 15.5335 33.0332 15.4567C33.0316 15.4496 33.03 15.4427 33.0284 15.436L33.0265 15.4277L33.0248 15.4194C33.019 15.39 33.013 15.3632 33.0057 15.33L33.0053 15.3284C32.9983 15.2967 32.9899 15.259 32.9814 15.2166L32.9785 15.2023C32.8241 14.3144 32.4486 13.5823 31.7675 13.035L31.7652 13.0331C30.6953 12.1646 29.5527 11.9823 28.2699 12.4722Z" fill="#FCFCFC"/>
<path d="M43.7724 8.35517V6.58856C39.8627 7.24018 36.8218 10.5272 36.5901 14.5962L38.3133 14.6976C38.5015 11.5409 40.7894 8.97782 43.7724 8.35517Z" fill="#FCFCFC"/>
<path fill-rule="evenodd" clip-rule="evenodd" d="M44.0621 6.2467V8.59058L43.8317 8.63868C40.9749 9.23499 38.7829 11.6903 38.6025 14.7148L38.5853 15.0037L36.2847 14.8684L36.3011 14.5798C36.5406 10.3735 39.6838 6.97642 43.7249 6.30291L44.0621 6.2467ZM36.9008 14.3244L38.0473 14.3918C38.3532 11.3169 40.5774 8.83179 43.4829 8.12379V6.93764C39.9597 7.67579 37.2374 10.6431 36.9008 14.3244Z" fill="#FCFCFC"/>
<path d="M43.7727 21.822C42.5274 21.5613 41.3689 20.9532 40.4277 20.0409L39.2258 21.2862C40.4856 22.5026 42.0785 23.299 43.7727 23.5741V21.822Z" fill="#FCFCFC"/>
<path fill-rule="evenodd" clip-rule="evenodd" d="M40.4207 19.6309L40.6291 19.8329C41.5309 20.707 42.64 21.289 43.8318 21.5385L44.0621 21.5867V23.9145L43.726 23.8599C41.9731 23.5753 40.3264 22.7516 39.0245 21.4945L38.8162 21.2934L40.4207 19.6309ZM40.4384 20.4466L39.6386 21.2753C40.7344 22.2621 42.0658 22.934 43.4829 23.2263V22.0532C42.3632 21.7795 41.3186 21.2339 40.4384 20.4466Z" fill="#FCFCFC"/>
<path d="M51.259 8.58685V11.1499C52.041 12.2649 52.5043 13.626 52.5043 15.0885C52.5043 16.5511 52.041 17.9122 51.259 19.0272V21.5758C53.0836 19.9974 54.2275 17.6661 54.2275 15.0741C54.2275 12.4821 53.0836 10.1652 51.259 8.58685Z" fill="#FCFCFC"/>
<path fill-rule="evenodd" clip-rule="evenodd" d="M50.9692 7.95337L51.4483 8.36781C53.3338 9.99889 54.5169 12.3945 54.5169 15.0741C54.5169 17.753 53.3342 20.1633 51.4483 21.7948L50.9692 22.2092V18.9358L51.0217 18.8609C51.7709 17.7926 52.2146 16.4891 52.2146 15.0885C52.2146 13.688 51.7709 12.3845 51.0217 11.3162L50.9692 11.2413V7.95337ZM51.5485 9.25419V11.0595C52.3313 12.2068 52.7938 13.5971 52.7938 15.0885C52.7938 16.58 52.3313 17.9703 51.5485 19.1176V20.908C53.0304 19.406 53.9377 17.3437 53.9377 15.0741C53.9377 12.8048 53.0307 10.7542 51.5485 9.25419Z" fill="#FCFCFC"/>
<path fill-rule="evenodd" clip-rule="evenodd" d="M48.2324 4.70612H59.0372L59.8457 5.11038V31.0081L48.2324 24.895V4.70612ZM49.9701 6.44376V23.846L58.108 28.1298V6.44376H49.9701Z" fill="#FCFCFC"/>
<path fill-rule="evenodd" clip-rule="evenodd" d="M58.9768 4.70612H59.8456V6.44376H58.9768V4.70612Z" fill="#FCFCFC"/>
<path fill-rule="evenodd" clip-rule="evenodd" d="M15.7385 27.8981V53.7833L4.12524 59.8965V34.0112L15.7385 27.8981ZM5.86289 35.0602V57.0181L14.0009 52.7343V30.7764L5.86289 35.0602Z" fill="#FCFCFC"/>
<path fill-rule="evenodd" clip-rule="evenodd" d="M4.93377 5.11157H15.7385V25.2998L4.12524 31.4299V5.51584L4.93377 5.11157ZM5.86289 6.84922V28.5478L14.0009 24.2521V6.84922H5.86289Z" fill="#FCFCFC"/>
<path fill-rule="evenodd" clip-rule="evenodd" d="M4.12539 5.98043L4.12539 4.82562L5.86304 4.82562L5.86304 5.98043L4.12539 5.98043Z" fill="#FCFCFC"/>
<path fill-rule="evenodd" clip-rule="evenodd" d="M47.1207 54.2628C46.9206 41.5061 46.941 28.6509 46.9613 15.8162C46.9689 11.0264 46.9764 6.23949 46.9725 1.46161L44.6557 1.46349C44.6596 6.22897 44.652 11.0083 44.6444 15.7938C44.6237 28.8653 44.603 41.9823 44.8151 54.9865L44.8263 55.6725L59.6096 63.4643L60.6898 61.4147L47.1207 54.2628Z" fill="#FCFCFC"/>
<path fill-rule="evenodd" clip-rule="evenodd" d="M19.3389 14.1984C19.3731 27.9551 19.4076 41.7701 19.1845 55.5221L19.1734 56.2082L4.39009 64L3.30981 61.9504L16.8789 54.7986C17.0895 41.2972 17.0557 27.7419 17.022 14.2184C17.0117 10.0981 17.0015 5.98086 16.9981 1.86895L19.315 1.86707C19.3183 5.97014 19.3286 10.0817 19.3389 14.1984Z" fill="#FCFCFC"/>
</g>
<defs>
<clipPath id="clip0_6344_39820">
<rect width="64" height="64" fill="white"/>
</clipPath>
</defs>
</svg>
