<svg width="64" height="65" viewBox="0 0 64 65" fill="none" xmlns="http://www.w3.org/2000/svg">
<g clip-path="url(#clip0_6694_2207)">
<path d="M62 32.4692C62 15.9007 48.5685 2.46924 32 2.46924C15.4315 2.46924 2 15.9007 2 32.4692C2 49.0378 15.4315 62.4692 32 62.4692V64.4692C14.3269 64.4692 0 50.1423 0 32.4692C0 14.7961 14.3269 0.469238 32 0.469238C49.6731 0.469238 64 14.7961 64 32.4692C64 50.1423 49.6731 64.4692 32 64.4692V62.4692C48.5685 62.4692 62 49.0378 62 32.4692Z" fill="#F5F6F7"/>
<path d="M49.2949 20.8129C49.6864 20.4236 50.3195 20.4254 50.709 20.8168C51.0983 21.2083 51.0964 21.8414 50.7051 22.2309L28.706 44.1254C28.3159 44.5137 27.685 44.5136 27.2949 44.1254L17.2949 34.1732L17.2256 34.0971C16.9045 33.7052 16.9261 33.1262 17.291 32.7592C17.6805 32.3678 18.3136 32.3659 18.7051 32.7553L28 42.0043L49.2949 20.8129Z" fill="#FEE618"/>
</g>
<defs>
<clipPath id="clip0_6694_2207">
<rect width="64" height="64" fill="white" transform="translate(0 0.469238)"/>
</clipPath>
</defs>
</svg>
