<svg width="24" height="8" viewBox="0 0 24 8" fill="none" xmlns="http://www.w3.org/2000/svg">
<path d="M22.9998 3.63025C22.9998 5.0829 21.8222 6.2605 20.3695 6.2605C18.9169 6.2605 17.7393 5.0829 17.7393 3.63025C17.7393 2.1776 18.9169 1 20.3695 1C21.8222 1 22.9998 2.1776 22.9998 3.63025Z" stroke="#262627" stroke-width="2"/>
<path d="M14.6306 3.63025C14.6306 5.0829 13.453 6.2605 12.0004 6.2605C10.5477 6.2605 9.37012 5.0829 9.37012 3.63025C9.37012 2.1776 10.5477 1 12.0004 1C13.453 1 14.6306 2.1776 14.6306 3.63025Z" stroke="#262627" stroke-width="2"/>
<path d="M6.2605 3.63025C6.2605 5.0829 5.0829 6.2605 3.63025 6.2605C2.1776 6.2605 1 5.0829 1 3.63025C1 2.1776 2.1776 1 3.63025 1C5.0829 1 6.2605 2.1776 6.2605 3.63025Z" stroke="#262627" stroke-width="2"/>
</svg>
